<?xml version="1.0" standalone="no"?>
<!DOCTYPE svg PUBLIC "-//W3C//DTD SVG 1.1//EN" "http://www.w3.org/Graphics/SVG/1.1/DTD/svg11.dtd" >
<svg xmlns="http://www.w3.org/2000/svg">
<metadata>
Created by FontPrep 20130207 at Mon Oct 26 23:45:36 2015
 By Callum Flack
Copyright (c) 1991 Adobe Systems Incorporated.  All Rights Reserved.Gazette is a trademark of Linotype-Hell AG and/or its subsidiaries.
</metadata>
<defs>
<font id="bda233b25d7192b6f95899d9a810d536" horiz-adv-x='1024' >
  <font-face 
    font-family="GazetteLH-Italic"
    font-weight="400"
    font-style="italic"
    font-stretch="normal"
    units-per-em="2048"
    panose-1="2 2 5 0 0 0 0 0 0 0"
    ascent="1536"
    descent="-512"
    x-height="1024"
    cap-height="1454"
    bbox="-342 -512 2404 2019.02"
    underline-thickness="102"
    underline-position="-102"
    slope="-9"
    unicode-range="U+0020-FB02"
  />
<missing-glyph horiz-adv-x="569" 
 />
    <glyph glyph-name=".notdef" horiz-adv-x="569" 
 />
    <glyph glyph-name=".null" horiz-adv-x="0" 
 />
    <glyph glyph-name="nonmarkingreturn" horiz-adv-x="681" 
 />
    <glyph glyph-name="space" unicode=" " horiz-adv-x="569" 
 />
    <glyph glyph-name="space" unicode="&#xa0;" horiz-adv-x="569" 
 />
    <glyph glyph-name="exclam" unicode="!" horiz-adv-x="681" 
d="M152 113q0 53 37 91t91 38t92 -38t38 -91t-38 -91t-91 -38t-92 38q-37 38 -37 91zM481 1491q49 0 85 -36t36 -85t-16 -106l-228 -826l-59 8l37 846q8 199 145 199z" />
    <glyph glyph-name="quotedbl" unicode="&#x22;" horiz-adv-x="757" 
d="M766 1404q0 -46 -12 -140l-49 -392h-74l-49 392q-12 94 -12 140t27 77q28 31 71 31q42 0 70 -32q28 -30 28 -76zM238 1404q0 46 27 77q28 31 71 31t71 -32q27 -30 27 -76t-12 -140l-49 -392h-74l-49 392q-12 94 -12 140z" />
    <glyph glyph-name="numbersign" unicode="#" 
d="M817 885h-272l-43 -307h272zM1106 578v-119h-221l-64 -459h-129l64 459h-271l-63 -459h-129l65 459h-223v119h240l43 307h-221v119h235l66 458h127l-64 -458h270l66 458h127l-66 -458h205v-119h-219l-43 -307h205z" />
    <glyph glyph-name="dollar" unicode="$" 
d="M930 342q0 125 -150 219q-28 18 -73 45l-86 -543q127 16 218 85t91 194zM649 881l80 520q-121 -12 -198 -83t-76 -190q0 -44 11 -69q11 -23 16 -37q6 -14 22 -30l23 -23q7 -9 29 -25t29 -20t33 -22t31 -21zM262 438q47 0 79 -34t32 -70t-31 -74q-31 -37 -31 -53
q1 -43 61 -84t152 -57l90 593q-68 39 -85 51t-71 47q-54 36 -73 59l-48 64q-50 67 -50 196q0 130 113 261q114 131 339 146l19 119h102l-18 -119q156 -19 251 -97t95 -180q0 -51 -39 -92t-84 -41t-78 30q-33 29 -33 61t21 73q20 41 20 57q0 86 -166 107l-88 -572
q182 -106 240 -155q133 -116 133 -260t-79 -239q-144 -173 -429 -191l-31 -209h-96l31 209q-178 20 -274 119t-97 202q0 57 38 95t85 38z" />
    <glyph glyph-name="percent" unicode="%" horiz-adv-x="2048" 
d="M1391 1487h98l-895 -1557h-98zM1511 610q-105 0 -171 -122t-66 -244t43 -173t111 -51t123 73q104 136 104 329q0 78 -39 133t-105 55zM1802 354q0 -137 -108 -260t-254 -123q-146 1 -230 87t-84 234t117 258t254 110t221 -85q84 -84 84 -221zM348 1026q0 -122 43 -173
q43 -50 111 -50t124 73q105 137 103 328q0 78 -39 133t-104 56q-106 -1 -172 -123t-66 -244zM201 1074q1 148 117 258t254 110t221 -84q84 -84 84 -221t-108 -260t-254 -123t-230 86t-84 234z" />
    <glyph glyph-name="ampersand" unicode="&#x26;" horiz-adv-x="1705" 
d="M303 420q0 -146 93 -230t206 -84q66 0 146 34t126 71q-102 117 -197 282t-136 265q-238 -102 -238 -338zM816 1413q-86 1 -142 -67t-56 -174t70 -254q319 109 320 311q0 84 -52 134t-140 50zM526 -16q-186 0 -309 116t-123 287q0 172 113 287t297 172q-66 164 -66 244
t18 144q81 274 369 273q156 0 247 -84t91 -204q0 -264 -434 -398q80 -199 297 -487q184 205 184 297q0 76 -133 82l13 69h493l-12 -69q-70 0 -124 -36t-120 -114l-119 -141q-66 -76 -137 -148q37 -46 66 -72q78 -70 181 -70t224 106l47 -62q-213 -193 -379 -192
q-135 0 -280 168q-218 -168 -404 -168z" />
    <glyph glyph-name="quotesingle" unicode="'" horiz-adv-x="569" 
d="M516 1404q0 -46 -12 -140l-49 -392h-74l-49 392q-12 94 -12 140t27 77q28 31 71 31q42 0 70 -32q28 -30 28 -76z" />
    <glyph glyph-name="parenleft" unicode="(" horiz-adv-x="720" 
d="M299 214q0 -345 164 -652l-45 -37q-311 350 -312 811q0 334 174 646t453 538l41 -41q-219 -279 -347 -599t-128 -666z" />
    <glyph glyph-name="parenright" unicode=")" horiz-adv-x="720" 
d="M422 830q0 344 -164 653l45 37q311 -350 311 -811q0 -335 -174 -647t-452 -537l-41 41q219 280 347 600t128 664z" />
    <glyph glyph-name="asterisk" unicode="*" horiz-adv-x="909" 
d="M582 1491q72 1 73 -79q-1 -36 -31 -112t-30 -103t11 -41t26 -13q37 0 115 96t113 96q36 1 60 -27t23 -53q0 -45 -46 -67t-100 -28q-147 -14 -147 -71t146 -67q55 -4 100 -26t45 -56t-22 -62t-57 -28t-111 94t-119 94q-31 0 -31 -41t28 -124t28 -109t-20 -50
q-19 -22 -53 -22t-56 22q-21 22 -21 42t30 104t30 132t-30 48q-54 0 -114 -95q-59 -95 -115 -95q-33 0 -55 22t-23 63q0 41 45 63q46 22 100 25q144 8 144 71q0 54 -144 65q-54 4 -100 27q-45 22 -45 60t25 63t53 24q41 0 117 -94t117 -94q61 0 -3 167q-32 80 -32 106t20 50
t56 23z" />
    <glyph glyph-name="plus" unicode="+" horiz-adv-x="1228" 
d="M524 0v422h-422v180h422v422h181v-422h421v-180h-421v-422h-181z" />
    <glyph glyph-name="comma" unicode="," horiz-adv-x="569" 
d="M200 -146q46 56 46 95t-30 51q-9 4 -36 12q-26 8 -50 36t-24 74t37 83t95 37t103 -46q44 -46 44 -142t-81 -202q-81 -104 -216 -163l-31 63q97 46 143 102z" />
    <glyph glyph-name="hyphen" unicode="-" horiz-adv-x="720" 
d="M121 598h502l-25 -172h-504z" />
    <glyph glyph-name="hyphen" unicode="&#xad;" horiz-adv-x="720" 
d="M121 598h502l-25 -172h-504z" />
    <glyph glyph-name="period" unicode="." horiz-adv-x="569" 
d="M106 113q0 53 38 91t92 38t91 -38q38 -38 38 -91t-38 -91t-91 -38t-92 38q-38 38 -38 91z" />
    <glyph glyph-name="slash" unicode="/" horiz-adv-x="569" 
d="M647 1491h135l-651 -1528h-135z" />
    <glyph glyph-name="zero" unicode="0" 
d="M375 371q0 -164 57 -247q56 -83 158 -83q102 -1 186 149t127 393t43 531q0 145 -54 222t-140 77q-113 0 -200 -142q-87 -143 -132 -379t-45 -521zM1159 879q0 -223 -73 -431q-72 -208 -206 -343q-134 -134 -296 -134q-202 1 -312 187t-110 429t99 487t276 349
q100 59 219 60q168 0 286 -158t117 -446z" />
    <glyph glyph-name="one" unicode="1" 
d="M428 1294l12 74q283 55 459 119q-16 -51 -59 -322l-125 -805q-17 -102 -17 -170t42 -93q42 -26 165 -27l-12 -70h-664l13 70q143 6 190 48t70 185l114 725q18 129 18 168t-31 71q-32 32 -101 31q-16 0 -42 -2t-32 -2z" />
    <glyph glyph-name="two" unicode="2" 
d="M754 180q86 0 138 49t99 156h80q-57 -154 -106 -385h-863l25 141q94 133 244 286q151 153 259 252t189 223q82 124 82 244t-73 192t-156 71q-84 0 -136 -38t-53 -85q1 -20 21 -53t20 -63t-28 -64q-28 -33 -83 -33q-54 0 -90 35t-36 86q0 111 106 202t291 91
q186 0 310 -112t124 -273q0 -211 -202 -367q-95 -75 -200 -143q-293 -191 -470 -412h508z" />
    <glyph glyph-name="three" unicode="3" 
d="M717 1409q-74 0 -122 -35t-48 -69q0 -10 11 -40t11 -63q1 -32 -29 -66t-79 -34t-87 35t-38 84q0 98 105 182t275 84t289 -109q117 -108 117 -262t-118 -247t-275 -115v-4q143 -33 229 -128t86 -219q0 -178 -152 -305t-355 -127q-162 0 -290 84t-128 203q0 55 36 99t91 44
q55 -1 87 -35t32 -76t-25 -76t-25 -50q-1 -43 61 -79t134 -36q129 1 219 107t90 252t-76 226q-76 79 -194 79q-12 0 -80 -6l14 106q45 -4 86 -2q166 0 257 94t92 260q0 109 -64 177t-137 67z" />
    <glyph glyph-name="four" unicode="4" 
d="M797 1180l-580 -639h479l105 635zM836 205q0 -74 35 -105q36 -30 151 -30l-12 -70h-619l12 70q137 0 184 34q46 35 68 170l25 152h-590l19 129l839 907h84l-143 -921h233l-18 -115h-232l-18 -104q-18 -98 -18 -117z" />
    <glyph glyph-name="five" unicode="5" 
d="M1081 518q0 -211 -169 -377t-402 -166q-168 0 -273 83t-106 188q0 61 38 105t91 44q53 1 85 -29t32 -71t-34 -83t-34 -68t51 -56q51 -31 129 -31q115 0 201 76q166 147 166 399q0 141 -64 235q-65 93 -176 93q-72 0 -142 -43t-109 -123h-76l157 752h672l-37 -180h-551
l-75 -359q98 59 215 60q160 0 286 -119t125 -330z" />
    <glyph glyph-name="six" unicode="6" 
d="M676 799q-135 1 -207 -107t-72 -290q0 -360 215 -361q119 0 202 139t83 338q0 133 -62 207t-159 74zM745 909q135 0 252 -106t117 -303t-143 -363t-353 -166t-318 162q-108 163 -108 403t90 456q89 216 249 356q161 139 346 139q143 0 229 -77t86 -169q0 -55 -38 -98
t-88 -43t-81 35t-31 75t20 72t21 43q0 29 -38 57t-93 27q-113 0 -209 -99q-185 -190 -229 -567l4 -4q141 170 315 170z" />
    <glyph glyph-name="seven" unicode="7" 
d="M606 1270q-109 0 -171 -50t-87 -163h-82l62 405h934l-11 -104q-134 -150 -317 -464q-102 -176 -192 -414t-136 -480h-272q90 289 301 642t436 628h-465z" />
    <glyph glyph-name="eight" unicode="8" 
d="M299 344q0 -113 86 -204t217 -91t225 91q95 90 95 196t-80 178t-250 164q-293 -127 -293 -334zM975 1173q0 84 -72 160q-73 76 -183 76t-184 -79t-73 -177q0 -143 173 -257q32 -22 79 -48q70 29 137 79t95 106t28 140zM1106 418q0 -170 -146 -308t-365 -138
q-218 0 -341 112t-123 260t109 246q109 96 268 143q-111 61 -166 155t-55 187q0 152 125 282t305 130q180 -1 293 -103t112 -233q0 -229 -317 -356q301 -156 301 -377z" />
    <glyph glyph-name="nine" unicode="9" 
d="M655 659q135 -1 207 107t72 290q0 360 -215 361q-119 0 -202 -139t-83 -338q0 -133 62 -207t159 -74zM586 549q-135 0 -252 106t-117 303t143 363q144 166 354 166t318 -162q108 -163 107 -403q0 -240 -89 -456t-250 -355t-345 -140q-143 0 -230 77q-86 77 -86 169
q0 55 38 98t88 43t81 -34t31 -75q-1 -40 -21 -73t-20 -43q0 -29 38 -57t93 -27q113 0 209 99t152 248q57 149 77 319l-4 4q-141 -170 -315 -170z" />
    <glyph glyph-name="colon" unicode=":" horiz-adv-x="569" 
d="M137 113q0 53 38 91t91 38t91 -38t38 -91t-38 -91t-91 -38t-91 38t-38 91zM252 829q0 53 38 91t91 38t91 -38t38 -90q0 -54 -38 -92t-91 -38t-91 38t-38 91z" />
    <glyph glyph-name="semicolon" unicode=";" horiz-adv-x="569" 
d="M252 829q0 53 38 91t91 38t91 -38t38 -90q0 -54 -38 -92t-91 -38t-91 38t-38 91zM216 -146q46 56 46 95t-30 51q-10 4 -36 12t-50 36t-24 74t38 83q37 37 95 37t102 -46t44 -142t-81 -202q-81 -104 -216 -163l-30 63q96 46 142 102z" />
    <glyph glyph-name="less" unicode="&#x3c;" horiz-adv-x="1228" 
d="M1180 -25l-1143 504v66l1143 504v-195l-813 -342l813 -342v-195z" />
    <glyph glyph-name="equal" unicode="=" horiz-adv-x="1228" 
d="M102 213v180h1024v-180h-1024zM102 631v180h1024v-180h-1024z" />
    <glyph glyph-name="greater" unicode="&#x3e;" horiz-adv-x="1228" 
d="M37 1049l1143 -504v-66l-1143 -504v195l815 342l-815 342v195z" />
    <glyph glyph-name="question" unicode="?" horiz-adv-x="985" 
d="M229 113q0 53 38 91t91 38q54 0 92 -38t38 -91t-38 -91t-92 -38t-91 38q-38 38 -38 91zM514 1413q-66 0 -110 -32t-44 -76q0 -17 18 -53t17 -62q0 -26 -33 -56q-32 -32 -80 -32t-81 37t-33 86q0 111 103 189t277 77q174 0 295 -113q120 -113 120 -270q0 -88 -33 -159
t-93 -121t-221 -159q-55 -39 -102 -101t-63 -138h-86q14 152 146 291q54 57 107 115q129 142 127 305q1 133 -65 203t-166 69z" />
    <glyph glyph-name="at" unicode="@" horiz-adv-x="1638" 
d="M1034 906q0 50 -35 86t-84 36q-75 0 -147 -85t-111 -193t-39 -189q0 -82 37 -129t101 -47q64 -1 120 63t89 153t51 172t18 133zM1100 495q0 -57 30 -83t68 -27q104 0 207 155q102 155 102 339q0 233 -165 384t-422 150q-308 0 -524 -219t-216 -504t192 -465t474 -180
q284 0 538 174l35 -53q-276 -190 -577 -191q-209 0 -386 85t-288 250t-111 378q0 322 247 558t601 237q299 0 485 -171t187 -429q0 -217 -129 -393t-291 -175q-68 0 -123 40t-59 134h-4q-78 -174 -242 -174q-117 0 -191 88t-75 207q0 188 136 338t286 150t190 -140h4l33 115
h145q-157 -521 -157 -578z" />
    <glyph glyph-name="A" unicode="A" horiz-adv-x="1667" 
d="M907 1165l-352 -587h487zM1130 183q0 50 -30 165l-31 119h-582l-41 -64q-98 -147 -98 -211t39 -89q39 -24 137 -33l-12 -70h-545l13 70q92 6 144 51t146 201l691 1148h77l305 -1171q37 -139 84 -186t146 -43l-12 -70h-639l12 70q196 11 196 113z" />
    <glyph glyph-name="B" unicode="B" horiz-adv-x="1478" 
d="M451 220q0 -122 225 -122q184 0 307 78t123 252q0 133 -92 211t-244 78h-248l-53 -330q-18 -111 -18 -167zM791 815q153 0 261 71t107 218q0 252 -317 252h-217l-95 -541h261zM827 1454q565 0 566 -354q0 -152 -115 -234t-277 -98v-4q145 -39 243 -127t99 -225
q0 -412 -694 -412h-643l12 70q111 2 158 42t62 134l133 864q16 102 16 164t-39 86t-141 24l10 70h610z" />
    <glyph glyph-name="C" unicode="C" horiz-adv-x="1554" 
d="M866 74q148 0 282 81t234 210l68 -66q-262 -336 -629 -336q-303 0 -492 205t-190 504q0 215 102 402q101 187 285 302t408 115q112 0 234 -43t135 -43q67 0 110 86h78l-41 -436h-80q-23 145 -140 243q-118 98 -283 98t-298 -113q-133 -114 -203 -286t-69 -358
q0 -270 150 -418q151 -147 339 -147z" />
    <glyph glyph-name="D" unicode="D" horiz-adv-x="1667" 
d="M588 1161l-146 -960q0 -41 14 -61q30 -41 249 -42q281 0 475 202t192 523q0 532 -651 533h-86q-31 -74 -47 -195zM815 1454q470 0 686 -298q113 -158 113 -364t-80 -360t-207 -245q-261 -187 -561 -187h-760l12 70q100 0 150 31q49 32 63 126l136 885q20 139 20 183
q0 89 -176 89l12 70h592z" />
    <glyph glyph-name="E" unicode="E" horiz-adv-x="1439" 
d="M758 721h-246l-55 -369q-20 -135 -21 -143q0 -55 36 -83t122 -28h248q170 0 259 64t150 207h76l-86 -369h-1239l12 70q94 0 145 33q50 34 68 149l135 881q16 94 16 146t-37 78q-38 26 -148 27l10 70h1179l-47 -317h-73q0 117 -56 168t-174 51h-420l-86 -537h144
q160 0 224 46t89 149h78l-78 -506h-74l9 63q0 66 -46 108t-114 42z" />
    <glyph glyph-name="F" unicode="F" horiz-adv-x="1327" 
d="M453 199q0 -76 44 -103t119 -26h39l-10 -70h-629l13 70q111 6 153 44t60 142l133 846q20 139 20 182t-41 72t-143 28l12 70h1163l-51 -319h-69q-4 221 -205 221h-428l-94 -557h161q133 0 190 43q56 43 93 149h76l-80 -512h-74l4 76q0 78 -49 112t-149 33h-187l-59 -387
q-12 -74 -12 -114z" />
    <glyph glyph-name="G" unicode="G" horiz-adv-x="1667" 
d="M1225 544q0 105 -209 103l12 70h606l-12 -70q-102 0 -142 -55t-57 -162q-37 -221 -37 -338q-270 -129 -522 -129q-188 0 -336 65t-230 170q-167 211 -167 461q0 201 97 389q96 188 284 316q188 127 416 127q129 0 277 -45t159 -45q67 0 98 80h78l-41 -439h-76
q-27 162 -153 254t-284 92t-278 -72q-120 -73 -193 -190q-152 -244 -151 -519t149 -412t355 -138q147 0 227 47q79 47 99 177l23 147q8 66 8 116z" />
    <glyph glyph-name="H" unicode="H" horiz-adv-x="1705" 
d="M1341 1260q0 74 -45 100t-141 24l12 70h611l-13 -70q-115 2 -159 -43t-74 -227l-105 -674q-31 -207 -30 -243q0 -70 37 -98t143 -29l-10 -70h-611l13 70q69 0 111 13t65 51t31 72t20 107l61 383h-739l-47 -307q-27 -186 -27 -196q0 -68 42 -96t141 -27l-15 -70h-604
l12 70q115 12 158 48t62 148l131 856q18 104 18 142q8 122 -180 120l10 70h608l-12 -70q-115 2 -156 -38t-63 -168l-61 -375h739l57 364q10 61 10 93z" />
    <glyph glyph-name="I" unicode="I" horiz-adv-x="757" 
d="M442 170q0 -49 38 -72t145 -28l-15 -70h-604l12 70q109 6 156 46t64 150l131 856q18 104 18 142q0 121 -180 120l10 70h608l-12 -70q-115 2 -157 -38t-62 -168l-125 -789q-27 -170 -27 -219z" />
    <glyph glyph-name="J" unicode="J" horiz-adv-x="948" 
d="M284 -29q-174 0 -254 70t-79 147q0 76 42 118t92 42t87 -29t37 -65q1 -36 -17 -71q-18 -37 -18 -61t24 -43t60 -20q76 0 125 71t68 198l122 815q12 90 13 110q0 73 -45 103t-168 28l10 70h641l-12 -70q-123 -6 -163 -47t-61 -174l-124 -827q-29 -193 -117 -279
q-89 -86 -263 -86z" />
    <glyph glyph-name="K" unicode="K" horiz-adv-x="1630" 
d="M1071 154q0 41 -80 182l-233 407l-269 -219l-38 -237q-8 -47 -9 -123q0 -94 189 -94l-13 -70h-612l12 70q117 18 159 48t52 103l140 901q18 104 18 154t-45 80q-45 29 -135 28l10 70h608l-12 -70q-115 2 -157 -38t-62 -168l-78 -496l637 512q80 62 80 108t-37 64t-133 18
l12 70h629l-12 -70q-80 2 -120 -13t-118 -77l-520 -413l358 -621q60 -110 116 -150t169 -40l-10 -70h-678l12 70q170 0 170 84z" />
    <glyph glyph-name="L" unicode="L" horiz-adv-x="1363" 
d="M453 231q0 -117 127 -116h264q152 0 228 58t163 239h80l-94 -412h-1209l13 70q186 0 213 172l135 868q16 111 16 164t-50 83t-128 27l12 70h625l-12 -70q-115 0 -168 -38t-70 -152l-125 -805q-20 -143 -20 -158z" />
    <glyph glyph-name="M" unicode="M" horiz-adv-x="2009" 
d="M334 178q0 -59 35 -83t157 -25l-12 -70h-518l10 70q104 0 153 38q48 38 64 138l144 829q25 147 25 199q-1 110 -177 110l12 70h500l258 -1104l612 1104h480l-11 -70q-114 -2 -156 -48t-61 -169l-123 -790q-23 -154 -22 -225q0 -40 43 -58t139 -24l-12 -70h-608l12 70
q117 10 163 57t68 195l154 1021l-4 5l-741 -1360h-72l-316 1355h-4l-174 -1021q-18 -119 -18 -144z" />
    <glyph glyph-name="N" unicode="N" horiz-adv-x="1705" 
d="M1448 1264q0 73 -46 98t-134 22l12 70h502l-13 -70q-102 0 -148 -43t-65 -157l-192 -1209h-66l-802 1242l-140 -904q-12 -74 -12 -132t41 -85t143 -26l-12 -70h-512l12 70q109 0 157 42t65 140l137 895q12 78 12 110q0 72 -38 99t-146 28l10 70h381l719 -1106l117 737
q18 106 18 179z" />
    <glyph glyph-name="O" unicode="O" horiz-adv-x="1667" 
d="M1368 868q0 264 -118 396t-308 133q-141 0 -256 -78q-116 -78 -184 -201q-142 -256 -142 -538q0 -226 109 -374t324 -149q259 -1 417 231t158 580zM1602 803q0 -352 -240 -596t-553 -244t-498 204q-184 204 -184 486q0 336 241 587t574 251q280 -1 470 -203t190 -485z
" />
    <glyph glyph-name="P" unicode="P" horiz-adv-x="1363" 
d="M1143 1059q1 176 -101 238t-331 63h-78l-103 -645q115 -16 175 -17q190 0 314 92t124 269zM457 203q0 -133 178 -133l-12 -70h-607l13 70q111 0 155 39t62 147l143 915q6 45 6 76q0 141 -180 137l12 70h588q219 0 381 -87q82 -44 131 -124t49 -184q0 -187 -170 -323
t-465 -136q-117 0 -223 18l-49 -315q-12 -86 -12 -100z" />
    <glyph glyph-name="Q" unicode="Q" horiz-adv-x="1667" 
d="M1368 868q0 264 -118 396t-308 133q-141 0 -256 -78q-116 -78 -184 -201q-142 -256 -142 -538q0 -226 109 -374t324 -149q259 -1 417 231t158 580zM1138 -451q-139 0 -231 107q-41 49 -78 104t-100 121t-143 113q-211 66 -335 249t-124 410q0 336 241 587t574 251
q281 0 470 -203t190 -485q0 -342 -226 -582t-545 -254v-4q98 -45 169 -100t99 -93q68 -92 150 -91q82 0 158 63l47 -61q-66 -66 -154 -99t-162 -33z" />
    <glyph glyph-name="R" unicode="R" horiz-adv-x="1515" 
d="M676 770q119 0 220 26t182 104t81 203q0 126 -89 189t-243 64h-217l-88 -576q35 -10 154 -10zM377 1260q0 125 -180 124l12 70h668q247 0 379 -96t133 -268q0 -255 -290 -362q-77 -28 -167 -40l248 -422q68 -116 114 -150t158 -46l-14 -70h-357l-393 672q-39 0 -180 6
l-57 -361q-15 -84 -15 -133t40 -81t140 -33l-12 -70h-604l12 70q115 0 159 51t71 225l123 801q12 78 12 113z" />
    <glyph glyph-name="S" unicode="S" horiz-adv-x="1327" 
d="M774 1401q-156 0 -240 -78q-83 -78 -83 -178q1 -100 77 -166t185 -108t217 -88t186 -134q76 -88 76 -231t-127 -286q-63 -71 -173 -116t-240 -45t-257 45t-168 45q-66 0 -108 -77h-76l72 452h75q31 -170 151 -270q119 -100 281 -100t272 85t110 194t-77 177t-186 108
t-217 86t-186 133q-76 87 -76 218q0 188 152 308t344 120q102 0 213 -42t135 -42q53 0 98 72h80l-67 -426h-74q-41 172 -127 258t-242 86z" />
    <glyph glyph-name="T" unicode="T" horiz-adv-x="1439" 
d="M791 193q0 -123 215 -123l-13 -70h-682l11 70q141 0 190 49t72 194l161 1043h-79q-162 0 -264 -66t-156 -215h-74l70 379h1257l-37 -379h-76q-4 154 -65 217t-221 64h-144l-149 -983q-16 -109 -16 -180z" />
    <glyph glyph-name="U" unicode="U" horiz-adv-x="1705" 
d="M483 422q0 -166 108 -247t296 -81q380 0 440 408l90 579q19 111 19 181t-43 98q-43 27 -131 24l12 70h481l-12 -70q-98 -4 -138 -44t-59 -156l-100 -654q-86 -567 -617 -567q-149 0 -252 40q-102 40 -162 87t-103 130q-42 84 -42 174t19 204l78 492q18 124 18 186t-43 86
t-129 22l12 70h604l-12 -70q-113 4 -160 -34t-65 -158l-82 -547q-27 -172 -27 -223z" />
    <glyph glyph-name="V" unicode="V" horiz-adv-x="1591" 
d="M578 1247q0 -51 38 -200l187 -754l465 811q59 104 59 164q0 104 -188 116l12 70h565l-12 -70q-94 -2 -146 -43t-126 -167l-687 -1194h-77l-318 1214q-33 125 -70 156q-38 31 -145 34l12 70h627l-10 -70q-186 4 -186 -137z" />
    <glyph glyph-name="W" unicode="W" horiz-adv-x="2275" 
d="M569 1274q0 -55 25 -168l166 -784l407 737l-39 178q-20 94 -57 121t-125 26l10 70h566l-13 -70q-160 -4 -159 -94q0 -68 26 -182l168 -786l391 720q92 170 93 230q0 113 -166 112l12 70h530l-12 -70q-92 -2 -134 -30t-81 -101l-700 -1273h-72l-199 923l-514 -923h-74
l-266 1232q-25 109 -60 141q-36 32 -128 31l12 70h565l-12 -70q-160 0 -160 -110z" />
    <glyph glyph-name="X" unicode="X" horiz-adv-x="1667" 
d="M1276 1304q0 40 -39 60t-133 20l12 70h596l-12 -70q-70 0 -123 -24t-119 -88l-485 -496l348 -547q104 -166 258 -159l-10 -70h-676l14 70q170 0 170 90q0 39 -61 139l-213 346l-297 -317q-90 -98 -90 -154q0 -98 162 -104l-13 -70h-598l10 70q76 0 142 40t143 121
l483 504l-350 551q-39 58 -82 78t-120 20l10 70h635l-11 -70q-158 0 -157 -86q0 -41 90 -184l158 -244l256 267q55 57 78 92q24 35 24 75z" />
    <glyph glyph-name="Y" unicode="Y" horiz-adv-x="1667" 
d="M639 1296q0 -41 82 -196l199 -375l337 401q82 98 82 177q0 43 -56 65t-124 16l12 70h582l-12 -70q-78 2 -118 -20t-124 -121l-543 -641l-47 -291q-14 -79 -14 -129t41 -78t162 -34l-13 -70h-651l12 70q121 2 176 46q54 44 66 130l55 352l-325 612q-58 109 -106 143
t-148 31l12 70h629l-14 -70q-152 0 -152 -88z" />
    <glyph glyph-name="Z" unicode="Z" horiz-adv-x="1478" 
d="M1446 1454v-61l-1086 -1295h498q187 0 271 75q48 42 77 85t72 125h70l-91 -383h-1191v80l1077 1276h-512q-117 0 -175 -47t-130 -201h-74l70 346h1124z" />
    <glyph glyph-name="bracketleft" unicode="[" horiz-adv-x="720" 
d="M371 1491h448l-14 -70h-246l-278 -1802h247l-14 -70h-440z" />
    <glyph glyph-name="backslash" unicode="\" horiz-adv-x="681" 
d="M0 1491h135l651 -1528h-135z" />
    <glyph glyph-name="bracketright" unicode="]" horiz-adv-x="720" 
d="M350 -451h-448l14 70h246l278 1802h-247l14 70h440z" />
    <glyph glyph-name="asciicircum" unicode="^" horiz-adv-x="1228" 
d="M176 580l402 882h73l402 -882h-181l-258 598l-258 -598h-180z" />
    <glyph glyph-name="underscore" unicode="_" horiz-adv-x="1024" 
d="M0 -256v102h1024v-102h-1024z" />
    <glyph glyph-name="grave" unicode="`" horiz-adv-x="569" 
d="M598 1208h-84l-270 195q-64 43 -64 86t27 63t61 20t54 -13q20 -14 49 -52z" />
    <glyph glyph-name="a" unicode="a" horiz-adv-x="1212" 
d="M870 727q0 109 -58 170t-147 61t-175 -89t-130 -223q-45 -134 -45 -262t47 -197t125 -68q139 0 262 185q121 185 121 423zM936 -16q-145 0 -145 153q0 45 12 105l-4 4q-156 -262 -377 -262q-143 0 -232 107q-88 108 -88 296q0 268 167 461t397 192q190 1 266 -159
l112 159h76q-14 -61 -28 -139l-95 -582q-23 -131 -23 -159t13 -44q12 -15 27 -16q41 0 149 109l49 -45q-141 -180 -276 -180z" />
    <glyph glyph-name="b" unicode="b" horiz-adv-x="1251" 
d="M362 328q0 -117 60 -188q60 -70 169 -70q107 0 195 104q160 190 160 490q0 114 -50 182t-138 67q-150 0 -273 -188t-123 -397zM1163 643q0 -117 -40 -235q-86 -252 -287 -365q-106 -59 -230 -59q-164 0 -299 120l-127 -104h-76q61 276 93 473l125 768q12 86 12 98
q0 74 -135 74l10 70q127 10 358 57l-149 -778l4 -4q150 283 397 282q145 0 245 -101t99 -296z" />
    <glyph glyph-name="c" unicode="c" horiz-adv-x="1099" 
d="M702 1040q138 0 238 -59t100 -172q0 -63 -34 -99t-85 -36q-52 0 -79 28t-27 63q1 35 21 65t20 49q0 45 -39 69t-102 23q-172 0 -282 -163q-109 -164 -109 -344t74 -275t200 -95q178 1 373 228l61 -52q-172 -203 -322 -258q-81 -29 -171 -28q-180 0 -305 131
q-124 131 -123 327q0 242 173 420t418 178z" />
    <glyph glyph-name="d" unicode="d" horiz-adv-x="1212" 
d="M319 362q-1 -108 49 -178t139 -70t178 102t137 240t48 250t-48 183q-48 70 -142 69q-141 0 -251 -184t-110 -412zM934 -20q-72 0 -108 44t-35 109q0 27 9 70t9 53l-4 4q-154 -276 -373 -276q-147 0 -236 105t-90 296q0 281 174 468t392 187q160 0 237 -143h4l43 313
q14 119 15 121q0 82 -140 82l13 70q166 14 364 61q-16 -57 -37 -186l-180 -1088q-12 -68 -12 -106q0 -70 41 -70q26 0 52 21t87 82l53 -47q-158 -170 -278 -170z" />
    <glyph glyph-name="e" unicode="e" horiz-adv-x="1099" 
d="M827 816q0 76 -34 110q-65 61 -191 9q-146 -64 -224 -225q-48 -99 -63 -231q86 2 171 22q208 45 292 167q49 72 49 148zM98 426q0 246 188 430t439 184q125 0 214 -58t89 -177q0 -170 -205 -285t-512 -119q0 -147 82 -223t188 -76t212 66t161 133l52 -57
q-130 -131 -236 -196t-252 -64q-204 0 -312 133t-108 309z" />
    <glyph glyph-name="f" unicode="f" horiz-adv-x="681" 
d="M656 1544q54 0 95 -31q40 -31 40 -83t-30 -82t-73 -29q-42 1 -66 25t-41 53t-57 11q-73 -36 -73 -187q0 -90 20 -197h270l-12 -90h-246q-2 -145 -47 -412l-94 -557q-34 -193 -108 -295t-240 -153l-25 59q82 57 116 124t52 179l133 803q20 135 25 252h-234l13 90h221
q2 133 38 237q63 179 207 252q62 31 116 31z" />
    <glyph glyph-name="g" unicode="g" horiz-adv-x="1212" 
d="M856 -154q0 70 -63 102t-231 32t-263 -44q-94 -44 -94 -126q0 -81 79 -136t217 -55q139 -1 247 67t108 160zM627 965q-94 0 -162 -83q-68 -84 -68 -194q0 -222 197 -221q104 0 169 79q65 80 65 194t-54 170q-53 56 -147 55zM463 164h188q168 0 264 -54q97 -54 97 -211
t-148 -266t-384 -109q-234 0 -351 77q-117 76 -117 172t73 156t191 85v4q-80 20 -120 70t-41 111q0 90 76 146q77 56 190 77v4q-76 31 -132 107t-56 172q0 141 116 246q117 105 299 106q106 0 232 -51q123 129 247 129q80 0 123 -43q43 -42 43 -98q-1 -56 -31 -89t-74 -33
t-70 29q-45 50 -11 109q14 26 14 32t-7 14t-19 9q-53 0 -158 -96q51 -33 93 -108t42 -150q0 -127 -111 -231q-112 -103 -290 -103l-113 8q-86 0 -161 -44t-75 -92t35 -67q35 -18 146 -18z" />
    <glyph glyph-name="h" unicode="h" horiz-adv-x="1251" 
d="M888 1040q102 0 164 -60t62 -148t-61 -358q-61 -268 -61 -326t44 -58q55 0 144 109l55 -47q-55 -66 -133 -117t-142 -51t-112 38q-49 38 -49 118t61 345q61 266 62 324q0 88 -86 88q-160 -1 -301 -193t-181 -450l-39 -254h-192l207 1210q18 111 18 125q0 43 -30 63
t-105 19l10 70q125 4 357 53l-168 -905l4 -4q106 215 238 312t234 97z" />
    <glyph glyph-name="i" unicode="i" horiz-adv-x="606" 
d="M336 1366q0 51 37 88t88 37t88 -37t37 -88t-37 -88t-88 -37t-88 37t-37 88zM344 164q0 -61 51 -62q55 0 131 93l52 -48q-135 -164 -275 -163q-67 0 -109 39t-42 92t14 131l78 467q16 91 16 129q0 80 -141 80l4 69q186 12 371 49q-14 -35 -39 -186l-95 -565
q-16 -92 -16 -125z" />
    <glyph glyph-name="j" unicode="j" horiz-adv-x="606" 
d="M332 1366q0 51 37 88t88 37t88 -37t37 -88t-37 -88t-88 -37t-88 37t-37 88zM-35 -483l-20 69q109 61 145 132t70 282l110 678q20 119 20 160t-35 61q-36 20 -140 23l8 69q145 8 401 49q-18 -74 -22 -106l-160 -961q-33 -186 -110 -285t-267 -171z" />
    <glyph glyph-name="k" unicode="k" horiz-adv-x="1251" 
d="M1155 791q0 -160 -128 -256t-300 -125q53 -32 151 -146q97 -114 124 -136q26 -22 62 -22t93 50l39 -62q-129 -111 -233 -110q-76 0 -130 40q-55 40 -137 150t-127 152q-45 43 -102 47l12 78q121 1 216 35q159 58 226 193q57 115 -8 186q-33 36 -84 36q-155 0 -295 -185
t-176 -388l-57 -328h-186l200 1221q16 109 17 116q0 43 -26 61t-111 19l8 70q133 10 368 53q-20 -68 -45 -211l-123 -680l5 -4q141 251 285 332q114 63 214 63q99 0 173 -70t75 -179z" />
    <glyph glyph-name="l" unicode="l" horiz-adv-x="606" 
d="M344 170q0 -67 51 -68q55 0 131 93l52 -48q-135 -164 -275 -163q-57 0 -104 38t-47 89q0 82 16 176l147 925q17 94 17 135t-28 55t-109 15l10 70q131 10 366 53q-16 -41 -45 -211l-166 -1040q-16 -91 -16 -119z" />
    <glyph glyph-name="m" unicode="m" horiz-adv-x="1896" 
d="M887 1040q88 0 147 -53t60 -145q0 -51 -31 -187l4 -4q117 189 243 289t221 100t159 -57t63 -151q0 -94 -59 -358q-60 -264 -60 -324t45 -60t138 111l53 -45q-10 -10 -52 -54t-96 -81q-53 -37 -120 -37q-68 0 -114 45t-46 120t59 343t59 313q1 92 -92 92q-92 0 -198 -109
q-106 -108 -173 -240t-83 -226l-53 -322h-193l113 668q20 120 20 148q-1 28 -25 54t-57 27q-82 0 -163 -63q-135 -105 -238 -346q-41 -95 -53 -166l-54 -322h-192l125 743q14 86 14 117q0 66 -139 66l8 69q256 29 350 45l-69 -397l4 -4q82 153 208 277t267 124z" />
    <glyph glyph-name="n" unicode="n" horiz-adv-x="1251" 
d="M888 1040q102 0 164 -60t62 -148t-61 -358q-61 -268 -61 -326t44 -58q55 0 144 109l55 -47q-55 -66 -133 -117t-142 -51t-112 38q-49 38 -49 118t61 345q61 266 62 324q0 88 -86 88q-160 -1 -301 -193t-181 -450l-39 -254h-192l121 709q18 111 18 147t-30 53
q-30 16 -109 17l8 69q114 4 350 45l-69 -405l4 -4q106 215 238 312t234 97z" />
    <glyph glyph-name="o" unicode="o" horiz-adv-x="1212" 
d="M905 631q0 151 -63 237q-64 86 -170 86t-186 -85t-122 -212q-40 -127 -40 -271t64 -230t173 -86q150 0 247 162t97 399zM106 451q0 241 155 415t403 174q202 0 330 -133t128 -332q0 -247 -168 -419t-383 -172t-340 133t-125 334z" />
    <glyph glyph-name="p" unicode="p" horiz-adv-x="1251" 
d="M760 922q-113 0 -210 -104q-96 -104 -146 -241q-50 -136 -50 -249t66 -186q66 -72 167 -72t185 90t127 222t43 271t-50 204t-132 65zM256 853q0 72 -139 77l8 69q154 8 350 41l-49 -256l4 -4q150 260 389 260q150 0 245 -103t95 -290q0 -256 -161 -460t-394 -203
q-172 0 -280 135l-48 -314q-16 -115 -16 -129q0 -82 154 -82l-8 -69h-361l201 1233q10 61 10 95z" />
    <glyph glyph-name="q" unicode="q" horiz-adv-x="1251" 
d="M909 702q0 260 -190 261q-113 -1 -203 -95t-135 -226t-45 -257t50 -198t140 -72q156 0 270 183q113 183 113 404zM1169 1040q0 -4 -12 -56t-37 -200l-162 -960q-18 -102 -18 -146t31 -64t114 -20l-12 -69h-348l127 723l-4 4q-154 -268 -385 -268q-145 0 -245 105
q-99 105 -99 304q0 271 180 459t389 188t285 -159l117 159h79z" />
    <glyph glyph-name="r" unicode="r" horiz-adv-x="872" 
d="M772 1040q53 0 93 -39t40 -90q-1 -51 -29 -88t-71 -37t-72 37t-47 37t-58 -37q-108 -97 -184 -291q-45 -119 -67 -258l-43 -274h-193l121 709q16 90 16 136q0 45 -29 63q-30 18 -110 18l11 69q137 8 348 45l-60 -344l4 -4q64 136 158 242t172 106z" />
    <glyph glyph-name="s" unicode="s" horiz-adv-x="985" 
d="M560 954q-64 0 -132 -50t-68 -112t54 -104q54 -40 128 -68q76 -28 150 -60t127 -94t53 -153q0 -141 -124 -235t-294 -94q-172 0 -278 76t-106 171q0 49 35 82q36 33 82 33t75 -27t29 -54t-12 -57t-13 -46q0 -41 56 -67q56 -25 143 -25q88 0 156 54q67 54 67 124t-53 112
q-53 43 -128 73t-150 62t-128 87t-53 131q0 119 111 223t305 104q150 0 236 -66t85 -153q-1 -51 -31 -84t-80 -33t-80 32t-30 69l15 82q0 27 -41 47t-106 20z" />
    <glyph glyph-name="t" unicode="t" horiz-adv-x="909" 
d="M524 94q100 0 244 180l51 -45q-170 -246 -373 -245q-86 0 -143 54t-57 136q0 20 24 176l97 584h-195l18 90h193l57 334h189l-58 -334h283l-20 -90h-277l-100 -590q-19 -121 -19 -161q0 -41 26 -65t60 -24z" />
    <glyph glyph-name="u" unicode="u" horiz-adv-x="1251" 
d="M1008 156q0 -52 45 -54q57 0 135 97l53 -52q-139 -164 -280 -163q-63 0 -105 38q-41 38 -41 102t39 263l-4 4q-60 -151 -196 -279t-281 -128q-98 0 -156 58q-57 58 -57 150t48 338t48 308t-30 74q-30 14 -115 14l12 69q227 18 358 45l-112 -659q-16 -115 -17 -143
q0 -106 99 -107q125 0 271 195t179 379l55 319h191l-129 -750q-10 -66 -10 -118z" />
    <glyph glyph-name="v" unicode="v" 
d="M946 768q0 59 -75 78q-27 6 -51 30t-24 70t39 70t99 24t104 -53t43 -131q0 -145 -101 -307t-237 -293l-278 -272h-72l-203 798q-27 102 -48 124t-107 20l12 69q145 12 285 45q31 -160 51 -239l158 -631l198 213q207 227 207 385z" />
    <glyph glyph-name="w" unicode="w" horiz-adv-x="1742" 
d="M842 794q0 68 -37 216l180 30l180 -850l127 142q115 129 173 246t59 180q0 45 -77 77q-29 11 -53 37t-24 64q0 39 33 72q33 32 97 32t112 -53q47 -53 47 -149t-81 -250q-81 -152 -168 -260t-185 -209l-138 -135h-69l-127 620h-4q-49 -133 -169 -292t-220 -267l-66 -61
h-72l-151 745q-29 139 -49 168q-21 29 -99 29l11 69q246 37 276 45q20 -150 41 -245l119 -600l160 208q76 98 125 210q49 113 49 181z" />
    <glyph glyph-name="x" unicode="x" horiz-adv-x="1288" 
d="M1237 933q0 -46 -31 -82t-75 -36q-43 0 -79 43t-59 43q-63 0 -182 -194l-88 -146l180 -352q45 -90 124 -90t151 78l49 -41q-47 -74 -122 -123t-163 -49t-148 61t-118 186l-76 158l-86 -137q-121 -194 -223 -244q-51 -24 -117 -24t-110 40t-44 89t34 83t74 34t60 -28
t34 -56t49 -28q34 0 81 56q47 55 115 162l84 137l-191 361q-31 59 -68 77q-38 18 -110 15l11 69q61 6 272 45l211 -395l61 98q100 164 178 231q79 66 155 66t122 -30q45 -31 45 -77z" />
    <glyph glyph-name="y" unicode="y" 
d="M963 736q0 83 -81 99q-30 5 -56 29t-25 70q0 45 40 76t83 30q68 0 114 -60t47 -146q0 -178 -176 -476t-377 -530q-266 -311 -417 -311q-51 0 -89 36q-38 35 -38 79t30 77q31 33 69 33t81 -23t63 -22q78 0 224 180l80 98l-330 811q-35 82 -67 107t-118 33l11 69
q131 0 282 45l355 -886l102 153q57 86 89 139q32 52 68 144t36 146z" />
    <glyph glyph-name="z" unicode="z" 
d="M727 152q104 0 156 43q51 43 88 122h69q-23 -109 -106 -222q-43 -56 -115 -90t-139 -34q-66 0 -196 23q-130 22 -234 22t-217 -32l14 77l778 795h-374q-96 0 -136 -38t-63 -122h-72l51 328h846l-8 -51l-797 -803l4 -4q84 22 144 22t160 -18q98 -18 147 -18z" />
    <glyph glyph-name="braceleft" unicode="{" horiz-adv-x="720" 
d="M459 368q0 -56 -10 -124l-60 -375q-10 -66 -10 -102q0 -133 133 -173l-4 -24q-170 0 -246 41t-76 162q0 53 9 108l61 395q10 62 10 110q0 103 -127 144q98 29 139 85q40 56 58 169l61 396q29 182 137 246t275 65l-4 -25q-98 -25 -145 -89q-46 -65 -64 -185l-59 -375
q-21 -129 -63 -193t-146 -92l-2 -4q133 -35 133 -160z" />
    <glyph glyph-name="bar" unicode="|" horiz-adv-x="454" 
d="M137 -512v2048h180v-2048h-180z" />
    <glyph glyph-name="braceright" unicode="}" horiz-adv-x="720" 
d="M262 694q0 56 10 123l60 375q10 66 10 102q0 133 -133 172l4 25q170 0 246 -41t76 -162q0 -53 -9 -108l-61 -396q-10 -61 -10 -109q0 -102 127 -145q-98 -29 -138 -85t-59 -169l-61 -395q-29 -182 -137 -247t-275 -64l4 24q98 25 144 90t65 185l59 375q20 130 62 194
t147 90l2 4q-133 36 -133 162z" />
    <glyph glyph-name="asciitilde" unicode="~" horiz-adv-x="1228" 
d="M929 516q75 0 120 52t79 157h80q-44 -196 -115 -298q-77 -108 -210 -108q-78 0 -291 95q-217 90 -293 90q-142 0 -199 -205h-80q47 250 148 334q81 67 166 67q86 0 303 -92t292 -92z" />
    <glyph glyph-name="exclamdown" unicode="&#xa1;" horiz-adv-x="681" 
d="M532 911q0 -53 -38 -91t-90 -38q-54 0 -92 38t-38 91t38 91t91 38t91 -38t38 -91zM203 -467q-49 0 -85 36t-36 85t16 106l228 826l59 -8l-37 -846q-8 -199 -145 -199z" />
    <glyph glyph-name="cent" unicode="&#xa2;" 
d="M672 94q178 0 372 228l62 -52q-172 -204 -308 -253t-245 -27l-98 -262h-86l106 280q-129 43 -210 161t-81 273q0 242 173 420t419 178q43 0 82 -6l90 244h84l-96 -262q178 -55 178 -207q0 -63 -34 -99t-86 -36t-79 28q-53 56 -9 123t-1 111l-309 -830q31 -12 76 -12z
M788 971q-172 0 -282 -163t-109 -371q0 -208 127 -296l307 824q-16 6 -43 6z" />
    <glyph glyph-name="sterling" unicode="&#xa3;" 
d="M602 688q0 -190 -58 -307t-243 -238l4 -4q135 53 213 53t188 -20t164 -20q174 0 217 180h74q-69 -245 -149 -304t-196 -60t-258 32t-225 33t-206 -49l-25 73q37 17 64 31t74 57q46 43 76 99t54 153q24 98 24 182t-5 109h-211l17 103h184q-6 80 -6 135q0 152 51 266
t132 173q159 118 322 118t259 -84t96 -189q0 -57 -36 -102t-91 -45t-91 37t-36 73q0 37 27 81t26 63q0 37 -41 63t-82 25q-159 0 -241 -127t-82 -356l8 -136h278l-14 -98h-256z" />
    <glyph glyph-name="currency" unicode="&#xa4;" 
d="M291 729q0 -115 82 -197q83 -82 197 -82t196 82t82 197t-82 197t-197 82t-197 -82t-81 -197zM131 729q0 147 92 266l-133 127l84 84l133 -127q117 88 263 88t264 -90l129 129l86 -84l-134 -127q93 -115 93 -264t-90 -266l131 -131l-86 -84l-132 131q-117 -90 -262 -90
t-262 90l-133 -131l-84 84l131 131q-90 117 -90 264z" />
    <glyph glyph-name="yen" unicode="&#xa5;" 
d="M690 193q0 -61 31 -89t117 -34l-11 -70h-469l9 70q88 2 127 46t49 130l22 205h-307l16 98h301l7 49l-35 90h-254l16 98h201l-164 424q-41 109 -75 143t-107 31l8 70h455l-11 -70q-111 0 -110 -88q0 -41 59 -196l144 -375l243 401q59 102 60 177q0 43 -41 65t-90 16l10 70
h418l-9 -70q-55 2 -85 -20t-89 -121l-278 -457h221l-14 -98h-267l-53 -86l-6 -53h305l-14 -98h-303l-17 -140q-10 -113 -10 -118z" />
    <glyph glyph-name="brokenbar" unicode="&#xa6;" horiz-adv-x="454" 
d="M137 666v716h180v-716h-180zM137 -358v716h180v-716h-180z" />
    <glyph glyph-name="section" unicode="&#xa7;" 
d="M365 717q0 -104 160 -276q161 -171 266 -171q47 0 91 42t44 104q0 100 -164 270t-258 170q-47 0 -93 -43t-46 -96zM209 655q0 270 299 271q-119 127 -119 257q-1 130 103 219t269 89t239 -68t73 -143q0 -43 -31 -82t-81 -39q-49 0 -77 30t-28 56t11 55q11 30 11 48
t-32 35t-104 17t-126 -48q-54 -50 -55 -116q0 -66 54 -138t131 -142t154 -144t131 -161q54 -88 54 -172q1 -119 -81 -195t-230 -83q127 -127 127 -265t-119 -225q-119 -88 -269 -88t-242 67q-91 67 -91 154q0 53 34 87t84 34q50 -1 75 -29t24 -61l-20 -98q1 -61 149 -63
q72 0 133 50q61 51 61 124q1 129 -180 289q-75 67 -150 137t-128 158q-53 89 -53 183z" />
    <glyph glyph-name="dieresis" unicode="&#xa8;" horiz-adv-x="569" 
d="M135 1352q0 49 35 84q35 34 84 34t84 -34t35 -84q0 -49 -35 -84t-84 -35t-84 35t-35 84zM557 1352q0 49 35 84q35 34 84 34t84 -34t35 -84q0 -49 -35 -84t-84 -35t-84 35t-35 84z" />
    <glyph glyph-name="copyright" unicode="&#xa9;" horiz-adv-x="1638" 
d="M813 291q-162 0 -291 115q-129 116 -129 314t126 327t296 129q112 0 206 -59q32 -19 44 -19q23 0 37 53h61l8 -315h-67q-18 74 -56 136q-71 118 -204 118t-208 -110t-75 -260t82 -247q82 -96 200 -96t180 69q61 69 93 129l60 -34q-125 -250 -363 -250zM819 1405
q-281 0 -483 -197q-202 -198 -201 -480q0 -282 200 -480q201 -198 485 -199q284 0 484 200q200 201 200 481t-202 478t-483 197zM819 1491q317 0 543 -222q226 -223 227 -541q0 -318 -225 -542q-224 -224 -544 -223q-320 0 -546 223q-225 224 -225 542t226 541
q227 222 544 222z" />
    <glyph glyph-name="ordfeminine" unicode="&#xaa;" horiz-adv-x="786" 
d="M647 1294q0 66 -39 103t-88 37q-98 0 -166 -110t-67 -243q-1 -71 29 -111t81 -40q90 0 170 112t80 252zM713 952q0 -35 26 -34q27 0 97 65l32 -27q-94 -109 -180 -108q-94 0 -94 92q0 23 8 64l-2 -3l-4 5q-96 -158 -242 -158q-94 0 -150 64t-57 178q0 162 108 278
t257 115q121 -1 176 -97l72 97h49q-6 -23 -21 -84l-59 -348q-16 -82 -16 -99z" />
    <glyph glyph-name="guillemotleft" unicode="&#xab;" 
d="M668 958l-330 -403l184 -489h-73l-334 512l477 380h76zM1094 958l-330 -403l160 -489h-74l-309 512l477 380h76z" />
    <glyph glyph-name="logicalnot" unicode="&#xac;" horiz-adv-x="1228" 
d="M102 631v180h1024v-594h-180v414h-844z" />
    <glyph glyph-name="registered" unicode="&#xae;" horiz-adv-x="1638" 
d="M819 1405q-281 0 -483 -197q-202 -198 -201 -480q0 -282 200 -480q201 -198 485 -199q284 0 484 200q200 201 200 481t-202 478t-483 197zM819 1491q317 0 543 -222q226 -223 227 -541q0 -318 -225 -542q-224 -224 -544 -223q-320 0 -546 223q-225 224 -225 542t226 541
q227 222 544 222zM692 954v-180h35q309 0 309 158q0 72 -62 110t-138 39h-41q-55 1 -79 -27t-24 -100zM422 328v61q72 10 98 35t25 86v436q0 78 -25 104t-98 23v70h422q166 1 257 -55t91 -152q0 -160 -264 -201v-6q150 -41 200 -225q14 -59 24 -81t30 -22q49 0 55 109h53
q-4 -76 -43 -139t-119 -64q-124 0 -148 154q-24 155 -74 199t-165 45h-49v-166q0 -84 23 -115t94 -35v-61h-387z" />
    <glyph glyph-name="macron" unicode="&#xaf;" horiz-adv-x="569" 
d="M150 1288l30 127h572l-31 -127h-571z" />
    <glyph glyph-name="macron" unicode="&#x2c9;" horiz-adv-x="569" 
d="M150 1288l30 127h572l-31 -127h-571z" />
    <glyph glyph-name="degree" unicode="&#xb0;" horiz-adv-x="819" 
d="M360 1184q0 -80 56 -136t137 -56q80 0 136 56t56 136t-56 136t-136 56q-81 0 -137 -56t-56 -136zM250 1184q0 127 88 215t215 88t215 -88t88 -215t-88 -215t-215 -88t-215 88t-88 215z" />
    <glyph glyph-name="plusminus" unicode="&#xb1;" horiz-adv-x="1228" 
d="M102 0v180h1024v-180h-1024zM524 244v317h-422v180h422v314h181v-314h421v-180h-421v-317h-181z" />
    <glyph glyph-name="twosuperior" unicode="&#xb2;" horiz-adv-x="737" 
d="M565 705q57 1 91 29t65 91h51q-35 -86 -70 -231h-559l15 84q105 137 325 323q70 59 123 135t53 146q0 72 -46 114t-100 42t-89 -22t-35 -42t12 -40q27 -44 -4 -78q-16 -19 -52 -19q-35 0 -59 20t-24 54q0 66 70 121t190 55t200 -68q81 -68 81 -158q-1 -91 -57 -157
t-133 -109t-188 -121t-189 -169h329z" />
    <glyph glyph-name="threesuperior" unicode="&#xb3;" horiz-adv-x="737" 
d="M440 1081q106 1 164 57t60 138q0 82 -40 122t-88 40t-80 -20q-30 -20 -30 -34t8 -31t8 -37t-20 -40t-52 -20t-56 20t-23 51q0 59 67 110q68 50 178 50t187 -66q76 -65 76 -157t-76 -148t-180 -72v-4q94 -16 150 -73t57 -131q0 -106 -100 -182t-218 -76q-120 0 -203 50
q-82 50 -82 122q0 34 24 60q23 26 59 26t56 -20t21 -48q0 -27 -16 -47t-17 -29q0 -25 40 -45t87 -20q84 0 143 62q58 63 58 151t-49 136t-127 48q-8 0 -51 -6l8 63h57z" />
    <glyph glyph-name="acute" unicode="&#xb4;" horiz-adv-x="569" 
d="M675 1573q39 0 67 -25q28 -26 28 -66t-51 -71l-338 -203h-90l276 293q68 72 108 72z" />
    <glyph glyph-name="mu" unicode="&#xb5;" horiz-adv-x="1251" 
d="M1008 156q0 -52 45 -54q57 0 135 97l53 -52q-139 -164 -280 -163q-63 0 -105 38q-41 38 -41 102t39 263l-4 4q-60 -151 -196 -279t-281 -128q-29 0 -58 6l-86 -430q-4 -35 -45 -35h-106q-35 1 -35 23t8 63l162 958q12 82 28 149q15 67 15 124t-30 70t-115 14l12 69
q227 18 358 45l-112 -659q-16 -88 -17 -143q0 -106 99 -107q125 0 271 195t179 379l55 319h191l-129 -750q-10 -66 -10 -118z" />
    <glyph glyph-name="mu" unicode="&#x3bc;" horiz-adv-x="1251" 
d="M1008 156q0 -52 45 -54q57 0 135 97l53 -52q-139 -164 -280 -163q-63 0 -105 38q-41 38 -41 102t39 263l-4 4q-60 -151 -196 -279t-281 -128q-29 0 -58 6l-86 -430q-4 -35 -45 -35h-106q-35 1 -35 23t8 63l162 958q12 82 28 149q15 67 15 124t-30 70t-115 14l12 69
q227 18 358 45l-112 -659q-16 -88 -17 -143q0 -106 99 -107q125 0 271 195t179 379l55 319h191l-129 -750q-10 -66 -10 -118z" />
    <glyph glyph-name="paragraph" unicode="&#xb6;" horiz-adv-x="1228" 
d="M1124 1368h-174q-61 -57 -95 -149t-71 -322l-88 -551q-43 -281 -80 -413q-38 -132 -80 -188t-135 -112l5 -12q118 35 184 73t125 118t95 204t69 332l61 397q53 338 92 458t92 161v4zM1333 1368q-65 0 -107 -118t-98 -472l-79 -510q-106 -707 -707 -706q-260 0 -260 155
q0 45 40 82t89 37t77 -36t28 -78t-40 -66l5 -4q127 10 193 126t114 419l53 333q-229 0 -359 98t-130 281q0 345 309 473q174 72 407 72h549l-14 -86h-70z" />
    <glyph glyph-name="periodcentered" unicode="&#xb7;" horiz-adv-x="569" 
d="M258 512q0 45 33 78t78 33t77 -33t33 -78q0 -45 -33 -78q-34 -33 -78 -33t-77 33t-33 78z" />
    <glyph glyph-name="periodcentered" unicode="&#x2219;" horiz-adv-x="569" 
d="M258 512q0 45 33 78t78 33t77 -33t33 -78q0 -45 -33 -78q-34 -33 -78 -33t-77 33t-33 78z" />
    <glyph glyph-name="cedilla" unicode="&#xb8;" horiz-adv-x="569" 
d="M168 -373q55 0 89 23q34 24 34 60t-24 59q-25 23 -67 23t-67 -15l-24 26l131 197h86l-95 -131q84 10 156 -25q72 -36 72 -116t-70 -129q-71 -49 -177 -49t-210 47l37 65q74 -35 129 -35z" />
    <glyph glyph-name="onesuperior" unicode="&#xb9;" horiz-adv-x="737" 
d="M535 714q1 -46 27 -62q26 -15 106 -17l-9 -41h-430l9 41q94 4 124 30t44 111l75 434q2 12 5 34t6 37q2 15 2 24q0 68 -88 67q-10 0 -28 -1t-20 -1l9 43q201 39 297 74q-8 -25 -37 -195l-82 -481q-10 -51 -10 -97z" />
    <glyph glyph-name="ordmasculine" unicode="&#xba;" horiz-adv-x="786" 
d="M336 1114q0 -110 41 -162t110 -51q96 0 159 96q62 96 63 240q0 193 -165 193q-84 0 -146 -104q-62 -102 -62 -212zM494 848q-140 0 -220 80t-81 211q0 131 100 237q101 106 247 106t229 -79q83 -81 83 -215t-109 -237t-249 -103z" />
    <glyph glyph-name="guillemotright" unicode="&#xbb;" 
d="M6 66l330 403l-160 489h74l309 -512l-477 -380h-76zM432 66l330 403l-184 489h73l334 -512l-477 -380h-76z" />
    <glyph glyph-name="onequarter" unicode="&#xbc;" horiz-adv-x="1705" 
d="M535 714q1 -46 27 -62q26 -15 106 -17l-9 -41h-430l9 41q94 4 124 30t44 111l75 434q2 12 5 34t6 37q2 15 2 24q0 68 -88 67q-10 0 -28 -1t-20 -1l9 43q201 39 297 74q-8 -25 -37 -195l-82 -481q-10 -51 -10 -97zM492 -29h-97l928 1516h98zM1399 709l-377 -385h311
l68 381zM1544 41l-8 -41h-401l8 41q90 0 120 20t44 103l16 90h-383l10 80l547 543h55l-94 -553h152l-13 -70h-149l-12 -61q-23 -105 12 -134q22 -18 96 -18z" />
    <glyph glyph-name="onehalf" unicode="&#xbd;" horiz-adv-x="1705" 
d="M535 714q1 -46 27 -62q26 -15 106 -17l-9 -41h-430l9 41q94 4 124 30t44 111l75 434q2 12 5 34t6 37q2 15 2 24q0 68 -88 67q-10 0 -28 -1t-20 -1l9 43q201 39 297 74q-8 -25 -37 -195l-82 -481q-10 -51 -10 -97zM492 -29h-97l928 1516h98zM1384 111q57 0 92 28
q34 29 64 92h51q-35 -86 -69 -231h-559l14 84q98 129 326 324q70 59 122 134q53 74 53 146t-45 114q-47 42 -101 42t-89 -22t-35 -42t12 -40t13 -38q0 -20 -16 -39q-17 -19 -53 -19t-60 20t-23 53q0 66 70 121q69 55 189 55t201 -68q81 -67 81 -157t-56 -157t-133 -110
t-189 -121t-189 -169h329z" />
    <glyph glyph-name="threequarters" unicode="&#xbe;" horiz-adv-x="1705" 
d="M440 1081q106 1 164 57t60 138q0 82 -40 122t-88 40t-80 -20q-30 -20 -30 -34t8 -31t8 -37t-20 -40t-52 -20t-56 20t-23 51q0 59 67 110q68 50 178 50t187 -66q76 -65 76 -157t-76 -148t-180 -72v-4q94 -16 150 -73t57 -131q0 -106 -100 -182t-218 -76q-120 0 -203 50
q-82 50 -82 122q0 34 24 60q23 26 59 26t56 -20t21 -48q0 -27 -16 -47t-17 -29q0 -25 40 -45t87 -20q84 0 143 62q58 63 58 151t-49 136t-127 48q-8 0 -51 -6l8 63h57zM524 -29h-96l928 1516h98zM1399 709l-377 -385h311l68 381zM1544 41l-8 -41h-401l8 41q90 0 120 20
t44 103l16 90h-383l10 80l547 543h55l-94 -553h152l-13 -70h-149l-12 -61q-23 -105 12 -134q22 -18 96 -18z" />
    <glyph glyph-name="questiondown" unicode="&#xbf;" horiz-adv-x="985" 
d="M766 911q0 -53 -38 -91t-91 -38t-91 38t-38 91t38 91t91 38t91 -38t38 -91zM250 -138q0 -112 66 -182t165 -69q66 0 110 32t44 76q1 17 -17 53t-18 62t33 56q33 32 81 32t81 -37t32 -86q0 -111 -103 -189t-277 -77q-174 0 -294 113t-120 270q0 88 33 159t92 121t221 159
q55 39 103 101t63 138h86q-15 -154 -147 -291q-54 -57 -107 -116q-127 -138 -127 -325z" />
    <glyph glyph-name="Agrave" unicode="&#xc0;" horiz-adv-x="1667" 
d="M1147 1622h-84l-270 195q-63 43 -63 86t26 63q28 20 62 20t53 -14t49 -51zM907 1165l-352 -587h487zM1130 183q0 50 -30 165l-31 119h-582l-41 -64q-98 -147 -98 -211t39 -89q39 -24 137 -33l-12 -70h-545l13 70q92 6 144 51t146 201l691 1148h77l305 -1171
q37 -139 84 -186t146 -43l-12 -70h-639l12 70q196 11 196 113z" />
    <glyph glyph-name="Aacute" unicode="&#xc1;" horiz-adv-x="1667" 
d="M1224 1987q40 0 68 -25q28 -26 27 -66q0 -40 -51 -71l-338 -203h-90l276 293q68 72 108 72zM907 1165l-352 -587h487zM1130 183q0 50 -30 165l-31 119h-582l-41 -64q-98 -147 -98 -211t39 -89q39 -24 137 -33l-12 -70h-545l13 70q92 6 144 51t146 201l691 1148h77
l305 -1171q37 -139 84 -186t146 -43l-12 -70h-639l12 70q196 11 196 113z" />
    <glyph glyph-name="Acircumflex" unicode="&#xc2;" horiz-adv-x="1667" 
d="M659 1622l326 352h137l181 -352h-93l-176 203l-272 -203h-103zM907 1165l-352 -587h487zM1130 183q0 50 -30 165l-31 119h-582l-41 -64q-98 -147 -98 -211t39 -89q39 -24 137 -33l-12 -70h-545l13 70q92 6 144 51t146 201l691 1148h77l305 -1171q37 -139 84 -186t146 -43
l-12 -70h-639l12 70q196 11 196 113z" />
    <glyph glyph-name="Atilde" unicode="&#xc3;" horiz-adv-x="1667" 
d="M1204 1806q70 0 111 95h74q-66 -233 -238 -234q-61 0 -159 45t-134 45q-35 -1 -67 -23t-46 -67h-73q16 88 83 157t156 68q57 0 156 -43q113 -43 137 -43zM907 1165l-352 -587h487zM1130 183q0 50 -30 165l-31 119h-582l-41 -64q-98 -147 -98 -211t39 -89q39 -24 137 -33
l-12 -70h-545l13 70q92 6 144 51t146 201l691 1148h77l305 -1171q37 -139 84 -186t146 -43l-12 -70h-639l12 70q196 11 196 113z" />
    <glyph glyph-name="Adieresis" unicode="&#xc4;" horiz-adv-x="1667" 
d="M684 1765q0 49 35 84t84 35t84 -35t35 -84t-35 -84t-84 -35t-84 36q-35 34 -35 83zM1106 1765q0 49 35 84t84 35t84 -35t35 -84t-36 -84q-34 -35 -83 -35t-84 36q-35 34 -35 83zM907 1165l-352 -587h487zM1130 183q0 50 -30 165l-31 119h-582l-41 -64q-98 -147 -98 -211
t39 -89q39 -24 137 -33l-12 -70h-545l13 70q92 6 144 51t146 201l691 1148h77l305 -1171q37 -139 84 -186t146 -43l-12 -70h-639l12 70q196 11 196 113z" />
    <glyph glyph-name="Aring" unicode="&#xc5;" horiz-adv-x="1667" 
d="M893 1809q0 -50 36 -86q36 -35 85 -35t85 34t36 86q0 51 -36 86t-85 35t-85 -35t-36 -85zM803 1808q0 88 62 150q61 62 149 61q88 0 149 -61q61 -60 61 -148t-60 -150q-62 -62 -149 -62t-149 60q-62 62 -63 150zM907 1165l-352 -587h487zM1130 183q0 50 -30 165l-31 119
h-582l-41 -64q-98 -147 -98 -211t39 -89q39 -24 137 -33l-12 -70h-545l13 70q92 6 144 51t146 201l691 1148h77l305 -1171q37 -139 84 -186t146 -43l-12 -70h-639l12 70q196 11 196 113z" />
    <glyph glyph-name="AE" unicode="&#xc6;" horiz-adv-x="2048" 
d="M1184 1336q0 20 -15 20q-10 0 -61 -68l-520 -710h481l107 686q8 52 8 72zM1499 819q123 0 181 45t83 144h76l-74 -504h-77q6 43 6 65q0 82 -52 117t-161 35h-176l-62 -387q-16 -111 -16 -139q0 -92 192 -93h213q152 0 241 58t157 213h73l-92 -373h-1237l12 70
q119 10 165 44t63 130l37 223h-543l-68 -94q-121 -164 -121 -207q0 -84 177 -96l-13 -70h-544l10 70q61 0 119 36t85 66q28 31 70 90l672 920q70 94 70 132t-40 52q-41 14 -141 18l13 70h1366l-47 -324h-72q-12 119 -54 170t-149 52h-436l-86 -533h180z" />
    <glyph glyph-name="Ccedilla" unicode="&#xc7;" horiz-adv-x="1554" 
d="M821 -37q-20 0 -28 2l-70 -96q84 10 156 -25q71 -36 71 -116t-70 -129t-176 -49t-210 47l36 65q74 -35 130 -35t89 23q33 24 33 60t-23 59q-24 23 -67 23t-67 -15l-25 26l113 170q-258 35 -416 232t-158 467q0 215 102 402q101 187 285 302t408 115q112 0 234 -43
t135 -43q68 0 110 86h78l-41 -436h-80q-23 145 -140 243q-118 98 -283 98t-298 -113q-133 -114 -203 -286t-69 -358q0 -270 150 -418q151 -147 339 -147q148 0 282 81t234 210l68 -66q-262 -336 -629 -336z" />
    <glyph glyph-name="Egrave" unicode="&#xc8;" horiz-adv-x="1439" 
d="M1034 1622h-84l-270 195q-64 43 -64 86t27 63t62 20t54 -14t48 -51zM758 721h-246l-55 -369q-20 -135 -21 -143q0 -55 36 -83t122 -28h248q170 0 259 64t150 207h76l-86 -369h-1239l12 70q94 0 145 33q50 34 68 149l135 881q16 94 16 146t-37 78q-38 26 -148 27l10 70
h1179l-47 -317h-73q0 117 -56 168t-174 51h-420l-86 -537h144q160 0 224 46t89 149h78l-78 -506h-74l9 63q0 66 -46 108t-114 42z" />
    <glyph glyph-name="Eacute" unicode="&#xc9;" horiz-adv-x="1439" 
d="M1112 1987q40 0 67 -25q27 -26 27 -66t-51 -71l-338 -203h-90l277 293q68 72 108 72zM758 721h-246l-55 -369q-20 -135 -21 -143q0 -55 36 -83t122 -28h248q170 0 259 64t150 207h76l-86 -369h-1239l12 70q94 0 145 33q50 34 68 149l135 881q16 94 16 146t-37 78
q-38 26 -148 27l10 70h1179l-47 -317h-73q0 117 -56 168t-174 51h-420l-86 -537h144q160 0 224 46t89 149h78l-78 -506h-74l9 63q0 66 -46 108t-114 42z" />
    <glyph glyph-name="Ecircumflex" unicode="&#xca;" horiz-adv-x="1439" 
d="M547 1622l325 352h138l180 -352h-92l-176 203l-273 -203h-102zM758 721h-246l-55 -369q-20 -135 -21 -143q0 -55 36 -83t122 -28h248q170 0 259 64t150 207h76l-86 -369h-1239l12 70q94 0 145 33q50 34 68 149l135 881q16 94 16 146t-37 78q-38 26 -148 27l10 70h1179
l-47 -317h-73q0 117 -56 168t-174 51h-420l-86 -537h144q160 0 224 46t89 149h78l-78 -506h-74l9 63q0 66 -46 108t-114 42z" />
    <glyph glyph-name="Edieresis" unicode="&#xcb;" horiz-adv-x="1439" 
d="M571 1765q0 49 35 84t84 35t84 -35t35 -84t-35 -84t-84 -35t-84 36q-35 34 -35 83zM993 1765q0 49 35 84t84 35t84 -35t35 -84t-35 -84t-84 -35t-84 36q-35 34 -35 83zM758 721h-246l-55 -369q-20 -135 -21 -143q0 -55 36 -83t122 -28h248q170 0 259 64t150 207h76
l-86 -369h-1239l12 70q94 0 145 33q50 34 68 149l135 881q16 94 16 146t-37 78q-38 26 -148 27l10 70h1179l-47 -317h-73q0 117 -56 168t-174 51h-420l-86 -537h144q160 0 224 46t89 149h78l-78 -506h-74l9 63q0 66 -46 108t-114 42z" />
    <glyph glyph-name="Igrave" unicode="&#xcc;" horiz-adv-x="757" 
d="M692 1622h-84l-270 195q-64 43 -64 86t27 63t61 20t54 -14t49 -51zM442 170q0 -49 38 -72t145 -28l-15 -70h-604l12 70q109 6 156 46t64 150l131 856q18 104 18 142q0 121 -180 120l10 70h608l-12 -70q-115 2 -157 -38t-62 -168l-125 -789q-27 -170 -27 -219z" />
    <glyph glyph-name="Iacute" unicode="&#xcd;" horiz-adv-x="757" 
d="M770 1987q40 0 67 -25q27 -26 27 -66t-51 -71l-338 -203h-90l277 293q68 72 108 72zM442 170q0 -49 38 -72t145 -28l-15 -70h-604l12 70q109 6 156 46t64 150l131 856q18 104 18 142q0 121 -180 120l10 70h608l-12 -70q-115 2 -157 -38t-62 -168l-125 -789
q-27 -170 -27 -219z" />
    <glyph glyph-name="Icircumflex" unicode="&#xce;" horiz-adv-x="757" 
d="M205 1622l325 352h138l180 -352h-92l-176 203l-273 -203h-102zM442 170q0 -49 38 -72t145 -28l-15 -70h-604l12 70q109 6 156 46t64 150l131 856q18 104 18 142q0 121 -180 120l10 70h608l-12 -70q-115 2 -157 -38t-62 -168l-125 -789q-27 -170 -27 -219z" />
    <glyph glyph-name="Idieresis" unicode="&#xcf;" horiz-adv-x="757" 
d="M229 1765q0 49 35 84t84 35t84 -35t35 -84t-35 -84t-84 -35t-84 36q-35 34 -35 83zM651 1765q0 49 35 84t84 35t84 -35t35 -84t-35 -84t-84 -35t-84 36q-35 34 -35 83zM442 170q0 -49 38 -72t145 -28l-15 -70h-604l12 70q109 6 156 46t64 150l131 856q18 104 18 142
q0 121 -180 120l10 70h608l-12 -70q-115 2 -157 -38t-62 -168l-125 -789q-27 -170 -27 -219z" />
    <glyph glyph-name="Eth" unicode="&#xd0;" horiz-adv-x="1667" 
d="M516 696l-74 -495q0 -41 14 -61q30 -41 249 -42q281 0 475 202t192 523q0 532 -651 533h-86q-31 -74 -47 -195l-56 -358h371l-16 -107h-371zM387 1295q0 91 -176 89l12 70h592q470 0 686 -298q113 -158 113 -364t-80 -360t-207 -245q-261 -187 -561 -187h-760l12 70
q100 0 150 31q49 32 63 126l72 469h-197l17 107h196l48 309q20 139 20 183z" />
    <glyph glyph-name="Ntilde" unicode="&#xd1;" horiz-adv-x="1705" 
d="M1225 1806q70 0 110 95h74q-66 -233 -238 -234q-61 0 -159 45t-134 45q-36 -1 -66 -23q-32 -22 -46 -67h-74q16 88 83 157t157 68q57 0 155 -43q113 -43 138 -43zM1448 1264q0 73 -46 98t-134 22l12 70h502l-13 -70q-102 0 -148 -43t-65 -157l-192 -1209h-66l-802 1242
l-140 -904q-12 -74 -12 -132t41 -85t143 -26l-12 -70h-512l12 70q109 0 157 42t65 140l137 895q12 78 12 110q0 72 -38 99t-146 28l10 70h381l719 -1106l117 737q18 106 18 179z" />
    <glyph glyph-name="Ograve" unicode="&#xd2;" horiz-adv-x="1667" 
d="M1147 1622h-84l-270 195q-63 43 -63 86t26 63q28 20 62 20t53 -14t49 -51zM1368 868q0 264 -118 396t-308 133q-141 0 -256 -78q-116 -78 -184 -201q-142 -256 -142 -538q0 -226 109 -374t324 -149q259 -1 417 231t158 580zM1602 803q0 -352 -240 -596t-553 -244
t-498 204q-184 204 -184 486q0 336 241 587t574 251q280 -1 470 -203t190 -485z" />
    <glyph glyph-name="Oacute" unicode="&#xd3;" horiz-adv-x="1667" 
d="M1224 1987q40 0 68 -25q28 -26 27 -66q0 -40 -51 -71l-338 -203h-90l276 293q68 72 108 72zM1368 868q0 264 -118 396t-308 133q-141 0 -256 -78q-116 -78 -184 -201q-142 -256 -142 -538q0 -226 109 -374t324 -149q259 -1 417 231t158 580zM1602 803q0 -352 -240 -596
t-553 -244t-498 204q-184 204 -184 486q0 336 241 587t574 251q280 -1 470 -203t190 -485z" />
    <glyph glyph-name="Ocircumflex" unicode="&#xd4;" horiz-adv-x="1667" 
d="M659 1622l326 352h137l181 -352h-93l-176 203l-272 -203h-103zM1368 868q0 264 -118 396t-308 133q-141 0 -256 -78q-116 -78 -184 -201q-142 -256 -142 -538q0 -226 109 -374t324 -149q259 -1 417 231t158 580zM1602 803q0 -352 -240 -596t-553 -244t-498 204
q-184 204 -184 486q0 336 241 587t574 251q280 -1 470 -203t190 -485z" />
    <glyph glyph-name="Otilde" unicode="&#xd5;" horiz-adv-x="1667" 
d="M1204 1806q70 0 111 95h74q-66 -233 -238 -234q-61 0 -159 45t-134 45q-35 -1 -67 -23t-46 -67h-73q16 88 83 157t156 68q57 0 156 -43q113 -43 137 -43zM1368 868q0 264 -118 396t-308 133q-141 0 -256 -78q-116 -78 -184 -201q-142 -256 -142 -538q0 -226 109 -374
t324 -149q259 -1 417 231t158 580zM1602 803q0 -352 -240 -596t-553 -244t-498 204q-184 204 -184 486q0 336 241 587t574 251q280 -1 470 -203t190 -485z" />
    <glyph glyph-name="Odieresis" unicode="&#xd6;" horiz-adv-x="1667" 
d="M684 1765q0 49 35 84t84 35t84 -35t35 -84t-35 -84t-84 -35t-84 36q-35 34 -35 83zM1106 1765q0 49 35 84t84 35t84 -35t35 -84t-36 -84q-34 -35 -83 -35t-84 36q-35 34 -35 83zM1368 868q0 264 -118 396t-308 133q-141 0 -256 -78q-116 -78 -184 -201
q-142 -256 -142 -538q0 -226 109 -374t324 -149q259 -1 417 231t158 580zM1602 803q0 -352 -240 -596t-553 -244t-498 204q-184 204 -184 486q0 336 241 587t574 251q280 -1 470 -203t190 -485z" />
    <glyph glyph-name="multiply" unicode="&#xd7;" horiz-adv-x="1228" 
d="M614 385l-387 -385l-125 127l385 385v2l-385 385l125 125l387 -385l385 385l127 -125l-387 -385v-2l387 -385l-127 -127z" />
    <glyph glyph-name="Oslash" unicode="&#xd8;" horiz-adv-x="1667" 
d="M127 653q0 336 241 587t574 251q121 0 234 -43l79 162h109l-100 -205q154 -88 246 -251t92 -351q0 -352 -240 -596t-569 -244q-124 0 -222 37l-106 -215h-109l125 254q-166 86 -260 253t-94 361zM926 1397q-124 0 -240 -78t-184 -201q-142 -256 -142 -548t172 -429
l598 1215q-80 41 -204 41zM793 57q259 -1 417 231t158 580q0 296 -156 435l-596 -1211q74 -35 177 -35z" />
    <glyph glyph-name="Ugrave" unicode="&#xd9;" horiz-adv-x="1705" 
d="M750 1903q0 43 26 63q27 20 62 20t54 -14t48 -51l227 -299h-84l-270 195q-63 43 -63 86zM483 422q0 -166 108 -247t296 -81q380 0 440 408l90 579q19 111 19 181t-43 98q-43 27 -131 24l12 70h481l-12 -70q-98 -4 -138 -44t-59 -156l-100 -654q-86 -567 -617 -567
q-149 0 -252 40q-102 40 -162 87t-103 130q-42 84 -42 174t19 204l78 492q18 124 18 186t-43 86t-129 22l12 70h604l-12 -70q-113 4 -160 -34t-65 -158l-82 -547q-27 -172 -27 -223z" />
    <glyph glyph-name="Uacute" unicode="&#xda;" horiz-adv-x="1705" 
d="M1244 1987q40 0 68 -25q28 -26 28 -66t-52 -71l-338 -203h-90l277 293q67 72 107 72zM483 422q0 -166 108 -247t296 -81q380 0 440 408l90 579q19 111 19 181t-43 98q-43 27 -131 24l12 70h481l-12 -70q-98 -4 -138 -44t-59 -156l-100 -654q-86 -567 -617 -567
q-149 0 -252 40q-102 40 -162 87t-103 130q-42 84 -42 174t19 204l78 492q18 124 18 186t-43 86t-129 22l12 70h604l-12 -70q-113 4 -160 -34t-65 -158l-82 -547q-27 -172 -27 -223z" />
    <glyph glyph-name="Ucircumflex" unicode="&#xdb;" horiz-adv-x="1705" 
d="M680 1622l326 352h137l180 -352h-92l-176 203l-273 -203h-102zM483 422q0 -166 108 -247t296 -81q380 0 440 408l90 579q19 111 19 181t-43 98q-43 27 -131 24l12 70h481l-12 -70q-98 -4 -138 -44t-59 -156l-100 -654q-86 -567 -617 -567q-149 0 -252 40q-102 40 -162 87
t-103 130q-42 84 -42 174t19 204l78 492q18 124 18 186t-43 86t-129 22l12 70h604l-12 -70q-113 4 -160 -34t-65 -158l-82 -547q-27 -172 -27 -223z" />
    <glyph glyph-name="Udieresis" unicode="&#xdc;" horiz-adv-x="1705" 
d="M705 1765q0 49 34 84q35 35 84 35t84 -35t35 -84t-35 -84t-84 -35t-84 35q-34 35 -34 84zM1126 1765q0 49 35 84t84 35t84 -35t35 -84t-35 -84t-84 -35t-84 36q-35 34 -35 83zM483 422q0 -166 108 -247t296 -81q380 0 440 408l90 579q19 111 19 181t-43 98
q-43 27 -131 24l12 70h481l-12 -70q-98 -4 -138 -44t-59 -156l-100 -654q-86 -567 -617 -567q-149 0 -252 40q-102 40 -162 87t-103 130q-42 84 -42 174t19 204l78 492q18 124 18 186t-43 86t-129 22l12 70h604l-12 -70q-113 4 -160 -34t-65 -158l-82 -547
q-27 -172 -27 -223z" />
    <glyph glyph-name="Yacute" unicode="&#xdd;" horiz-adv-x="1667" 
d="M1224 1987q40 0 68 -25q28 -26 27 -66q0 -40 -51 -71l-338 -203h-90l276 293q68 72 108 72zM639 1296q0 -41 82 -196l199 -375l337 401q82 98 82 177q0 43 -56 65t-124 16l12 70h582l-12 -70q-78 2 -118 -20t-124 -121l-543 -641l-47 -291q-14 -79 -14 -129t41 -78
t162 -34l-13 -70h-651l12 70q121 2 176 46q54 44 66 130l55 352l-325 612q-58 109 -106 143t-148 31l12 70h629l-14 -70q-152 0 -152 -88z" />
    <glyph glyph-name="Thorn" unicode="&#xde;" horiz-adv-x="1363" 
d="M643 453q190 0 314 92t124 268q0 177 -101 239t-331 62h-65l-103 -647q100 -14 162 -14zM387 1264q0 121 -180 120l10 70h608l-12 -70q-109 2 -151 -32t-62 -144h154q217 0 381 -87q82 -44 131 -124t49 -184q0 -187 -170 -323t-465 -136q-88 0 -213 21q-25 -147 -25 -201
t38 -76q38 -23 145 -28l-15 -70h-604l12 70q108 6 156 46t64 150l131 856q18 104 18 142z" />
    <glyph glyph-name="germandbls" unicode="&#xdf;" horiz-adv-x="1251" 
d="M709 74q72 0 127 78t80 180q26 102 26 198q0 154 -93 233t-231 91l15 78q143 0 218 76t75 223q0 80 -45 131t-131 51q-190 0 -248 -334l-178 -1028q-40 -251 -102 -363t-226 -163l-27 65q72 66 104 132t54 206l158 998q65 418 270 523q82 42 193 42q166 0 268 -90
t102 -218t-90 -204t-225 -100v-5q162 -28 259 -126t97 -254q0 -195 -134 -353t-333 -157q-114 0 -180 55t-66 123t36 104q36 37 78 37t71 -30t28 -72l-16 -82q0 -17 16 -31t50 -14z" />
    <glyph glyph-name="agrave" unicode="&#xe0;" horiz-adv-x="1212" 
d="M502 1489q0 43 26 63q27 20 62 20t54 -13q19 -14 48 -52l228 -299h-84l-271 195q-63 43 -63 86zM870 727q0 109 -58 170t-147 61t-175 -89t-130 -223q-45 -134 -45 -262t47 -197t125 -68q139 0 262 185q121 185 121 423zM936 -16q-145 0 -145 153q0 45 12 105l-4 4
q-156 -262 -377 -262q-143 0 -232 107q-88 108 -88 296q0 268 167 461t397 192q190 1 266 -159l112 159h76q-14 -61 -28 -139l-95 -582q-23 -131 -23 -159t13 -44q12 -15 27 -16q41 0 149 109l49 -45q-141 -180 -276 -180z" />
    <glyph glyph-name="aacute" unicode="&#xe1;" horiz-adv-x="1212" 
d="M996 1573q40 0 68 -25q28 -26 28 -66t-52 -71l-338 -203h-90l277 293q67 72 107 72zM870 727q0 109 -58 170t-147 61t-175 -89t-130 -223q-45 -134 -45 -262t47 -197t125 -68q139 0 262 185q121 185 121 423zM936 -16q-145 0 -145 153q0 45 12 105l-4 4
q-156 -262 -377 -262q-143 0 -232 107q-88 108 -88 296q0 268 167 461t397 192q190 1 266 -159l112 159h76q-14 -61 -28 -139l-95 -582q-23 -131 -23 -159t13 -44q12 -15 27 -16q41 0 149 109l49 -45q-141 -180 -276 -180z" />
    <glyph glyph-name="acircumflex" unicode="&#xe2;" horiz-adv-x="1212" 
d="M432 1208l326 353h137l180 -353h-92l-176 203l-272 -203h-103zM870 727q0 109 -58 170t-147 61t-175 -89t-130 -223q-45 -134 -45 -262t47 -197t125 -68q139 0 262 185q121 185 121 423zM936 -16q-145 0 -145 153q0 45 12 105l-4 4q-156 -262 -377 -262q-143 0 -232 107
q-88 108 -88 296q0 268 167 461t397 192q190 1 266 -159l112 159h76q-14 -61 -28 -139l-95 -582q-23 -131 -23 -159t13 -44q12 -15 27 -16q41 0 149 109l49 -45q-141 -180 -276 -180z" />
    <glyph glyph-name="atilde" unicode="&#xe3;" horiz-adv-x="1212" 
d="M684 1479q57 0 156 -43q113 -43 137 -43q70 0 110 94h74q-66 -233 -237 -234q-62 0 -160 45t-133 45q-35 -1 -67 -23t-46 -67h-74q16 88 83 157t157 69zM870 727q0 109 -58 170t-147 61t-175 -89t-130 -223q-45 -134 -45 -262t47 -197t125 -68q139 0 262 185
q121 185 121 423zM936 -16q-145 0 -145 153q0 45 12 105l-4 4q-156 -262 -377 -262q-143 0 -232 107q-88 108 -88 296q0 268 167 461t397 192q190 1 266 -159l112 159h76q-14 -61 -28 -139l-95 -582q-23 -131 -23 -159t13 -44q12 -15 27 -16q41 0 149 109l49 -45
q-141 -180 -276 -180z" />
    <glyph glyph-name="adieresis" unicode="&#xe4;" horiz-adv-x="1212" 
d="M457 1352q0 49 35 84q36 34 84 34t83 -34t35 -84q0 -49 -35 -84t-84 -35t-83 35t-35 84zM879 1352q0 49 34 84q35 34 84 34t84 -34t35 -84q0 -49 -35 -84t-84 -35t-84 35q-34 35 -34 84zM870 727q0 109 -58 170t-147 61t-175 -89t-130 -223q-45 -134 -45 -262t47 -197
t125 -68q139 0 262 185q121 185 121 423zM936 -16q-145 0 -145 153q0 45 12 105l-4 4q-156 -262 -377 -262q-143 0 -232 107q-88 108 -88 296q0 268 167 461t397 192q190 1 266 -159l112 159h76q-14 -61 -28 -139l-95 -582q-23 -131 -23 -159t13 -44q12 -15 27 -16
q41 0 149 109l49 -45q-141 -180 -276 -180z" />
    <glyph glyph-name="aring" unicode="&#xe5;" horiz-adv-x="1212" 
d="M786 1516q-48 0 -84 -35t-36 -85t36 -86t84 -36q49 0 85 35t36 86t-36 86t-85 35zM575 1395q1 88 63 149q62 62 149 62t149 -62t61 -148q0 -88 -61 -150q-60 -62 -148 -62t-150 62t-63 149zM870 727q0 109 -58 170t-147 61t-175 -89t-130 -223q-45 -134 -45 -262t47 -197
t125 -68q139 0 262 185q121 185 121 423zM936 -16q-145 0 -145 153q0 45 12 105l-4 4q-156 -262 -377 -262q-143 0 -232 107q-88 108 -88 296q0 268 167 461t397 192q190 1 266 -159l112 159h76q-14 -61 -28 -139l-95 -582q-23 -131 -23 -159t13 -44q12 -15 27 -16
q41 0 149 109l49 -45q-141 -180 -276 -180z" />
    <glyph glyph-name="ae" unicode="&#xe6;" horiz-adv-x="1781" 
d="M1419 958q-145 0 -255 -160t-120 -319q157 8 320 85q78 38 127 105t49 139t-36 111t-85 39zM303 377q-1 -125 61 -190t142 -64q111 0 205 123t138 265q44 141 44 237t-55 153t-142 57q-164 0 -278 -184t-115 -397zM1462 1040q133 0 206 -72t73 -167q0 -96 -66 -175
q-110 -131 -397 -198q-117 -27 -242 -35q-4 -133 56 -212t176 -79q118 0 203 50t194 149l47 -61q-250 -256 -504 -256q-164 0 -261 91t-95 251h-4q-66 -150 -182 -246t-232 -96q-115 0 -219 74q-55 40 -90 119t-35 185q0 264 188 472t418 206q169 1 267 -151l81 151h82
l-36 -161l4 -5q160 166 368 166z" />
    <glyph glyph-name="ccedilla" unicode="&#xe7;" horiz-adv-x="1099" 
d="M725 -272q0 -80 -70 -129t-176 -49t-211 47l37 65q74 -35 129 -35t89 23q34 24 34 60t-23 59q-24 23 -67 23t-68 -15l-24 26l123 185q-168 14 -278 142t-109 312q0 242 173 420t418 178q138 0 238 -59t100 -172q0 -63 -34 -99t-85 -36q-52 0 -79 28t-27 63q1 35 21 65
t20 49q0 45 -39 69t-102 23q-172 0 -282 -163q-109 -164 -109 -344t74 -275t200 -95q178 1 373 228l61 -52q-158 -189 -296 -244q-73 -30 -152 -38l-86 -119q84 10 156 -25q72 -36 71 -116z" />
    <glyph glyph-name="egrave" unicode="&#xe8;" horiz-adv-x="1099" 
d="M864 1208h-84l-270 195q-64 43 -64 86t27 63t62 20t54 -13q19 -14 48 -52zM827 816q0 76 -34 110q-65 61 -191 9q-146 -64 -224 -225q-48 -99 -63 -231q86 2 171 22q208 45 292 167q49 72 49 148zM98 426q0 246 188 430t439 184q125 0 214 -58t89 -177q0 -170 -205 -285
t-512 -119q0 -147 82 -223t188 -76t212 66t161 133l52 -57q-130 -131 -236 -196t-252 -64q-204 0 -312 133t-108 309z" />
    <glyph glyph-name="eacute" unicode="&#xe9;" horiz-adv-x="1099" 
d="M942 1573q40 0 67 -25q27 -26 27 -66t-51 -71l-338 -203h-90l277 293q68 72 108 72zM827 816q0 76 -34 110q-65 61 -191 9q-146 -64 -224 -225q-48 -99 -63 -231q86 2 171 22q208 45 292 167q49 72 49 148zM98 426q0 246 188 430t439 184q125 0 214 -58t89 -177
q0 -170 -205 -285t-512 -119q0 -147 82 -223t188 -76t212 66t161 133l52 -57q-130 -131 -236 -196t-252 -64q-204 0 -312 133t-108 309z" />
    <glyph glyph-name="ecircumflex" unicode="&#xea;" horiz-adv-x="1099" 
d="M377 1208l325 353h138l180 -353h-92l-176 203l-273 -203h-102zM827 816q0 76 -34 110q-65 61 -191 9q-146 -64 -224 -225q-48 -99 -63 -231q86 2 171 22q208 45 292 167q49 72 49 148zM98 426q0 246 188 430t439 184q125 0 214 -58t89 -177q0 -170 -205 -285t-512 -119
q0 -147 82 -223t188 -76t212 66t161 133l52 -57q-130 -131 -236 -196t-252 -64q-204 0 -312 133t-108 309z" />
    <glyph glyph-name="edieresis" unicode="&#xeb;" horiz-adv-x="1099" 
d="M401 1352q0 49 35 84q35 34 84 34t84 -34t35 -84q0 -49 -35 -84t-84 -35t-84 35t-35 84zM823 1352q0 49 35 84q35 34 84 34t84 -34t35 -84q0 -49 -35 -84t-84 -35t-84 35t-35 84zM827 816q0 76 -34 110q-65 61 -191 9q-146 -64 -224 -225q-48 -99 -63 -231q86 2 171 22
q208 45 292 167q49 72 49 148zM98 426q0 246 188 430t439 184q125 0 214 -58t89 -177q0 -170 -205 -285t-512 -119q0 -147 82 -223t188 -76t212 66t161 133l52 -57q-130 -131 -236 -196t-252 -64q-204 0 -312 133t-108 309z" />
    <glyph glyph-name="igrave" unicode="&#xec;" horiz-adv-x="606" 
d="M199 1489q0 43 26 63q27 20 62 20t54 -13q19 -14 48 -52l227 -299h-84l-270 195q-63 43 -63 86zM344 164q0 -61 51 -62q55 0 131 93l52 -48q-135 -164 -275 -163q-67 0 -109 39t-42 92t14 131l78 467q16 91 16 129q0 80 -141 80l4 69q186 12 371 49q-14 -35 -39 -186
l-95 -565q-16 -92 -16 -125z" />
    <glyph glyph-name="iacute" unicode="&#xed;" horiz-adv-x="606" 
d="M694 1573q40 0 67 -25q27 -26 27 -66t-51 -71l-338 -203h-90l277 293q68 72 108 72zM344 164q0 -61 51 -62q55 0 131 93l52 -48q-135 -164 -275 -163q-67 0 -109 39t-42 92t14 131l78 467q16 91 16 129q0 80 -141 80l4 69q186 12 371 49q-14 -35 -39 -186l-95 -565
q-16 -92 -16 -125z" />
    <glyph glyph-name="icircumflex" unicode="&#xee;" horiz-adv-x="606" 
d="M129 1208l326 353h137l180 -353h-92l-176 203l-273 -203h-102zM344 164q0 -61 51 -62q55 0 131 93l52 -48q-135 -164 -275 -163q-67 0 -109 39t-42 92t14 131l78 467q16 91 16 129q0 80 -141 80l4 69q186 12 371 49q-14 -35 -39 -186l-95 -565q-16 -92 -16 -125z" />
    <glyph glyph-name="idieresis" unicode="&#xef;" horiz-adv-x="606" 
d="M154 1352q0 49 34 84q35 34 84 34t84 -34t35 -84q0 -49 -35 -84t-84 -35t-84 35q-34 35 -34 84zM575 1352q0 49 35 84q35 34 84 34t84 -34t35 -84q0 -49 -35 -84t-84 -35t-84 35t-35 84zM344 164q0 -61 51 -62q55 0 131 93l52 -48q-135 -164 -275 -163q-67 0 -109 39
t-42 92t14 131l78 467q16 91 16 129q0 80 -141 80l4 69q186 12 371 49q-14 -35 -39 -186l-95 -565q-16 -92 -16 -125z" />
    <glyph glyph-name="eth" unicode="&#xf0;" horiz-adv-x="1212" 
d="M106 438q0 206 155 369q155 164 403 164q57 0 98 -8q-70 131 -207 251l-301 -202l-49 57l289 197q-141 111 -318 196l152 78q170 -68 315 -174l299 201l51 -60l-286 -190q197 -162 307 -348q110 -185 108 -423q0 -238 -168 -400t-383 -162t-340 124t-125 330zM905 588
q0 139 -63 221t-176 82q-150 0 -246 -163q-96 -164 -96 -334t64 -251q65 -80 173 -80q150 0 247 152t97 373z" />
    <glyph glyph-name="ntilde" unicode="&#xf1;" horiz-adv-x="1251" 
d="M705 1479q57 0 155 -43q113 -43 137 -43q70 0 111 94h74q-66 -233 -238 -234q-62 0 -160 45t-133 45q-35 -1 -67 -23t-45 -67h-74q16 88 83 157t157 69zM888 1040q102 0 164 -60t62 -148t-61 -358q-61 -268 -61 -326t44 -58q55 0 144 109l55 -47q-55 -66 -133 -117
t-142 -51t-112 38q-49 38 -49 118t61 345q61 266 62 324q0 88 -86 88q-160 -1 -301 -193t-181 -450l-39 -254h-192l121 709q18 111 18 147t-30 53q-30 16 -109 17l8 69q114 4 350 45l-69 -405l4 -4q106 215 238 312t234 97z" />
    <glyph glyph-name="ograve" unicode="&#xf2;" horiz-adv-x="1212" 
d="M502 1489q0 43 26 63q27 20 62 20t54 -13q19 -14 48 -52l228 -299h-84l-271 195q-63 43 -63 86zM905 631q0 151 -63 237q-64 86 -170 86t-186 -85t-122 -212q-40 -127 -40 -271t64 -230t173 -86q150 0 247 162t97 399zM106 451q0 241 155 415t403 174q202 0 330 -133
t128 -332q0 -247 -168 -419t-383 -172t-340 133t-125 334z" />
    <glyph glyph-name="oacute" unicode="&#xf3;" horiz-adv-x="1212" 
d="M996 1573q40 0 68 -25q28 -26 28 -66t-52 -71l-338 -203h-90l277 293q67 72 107 72zM905 631q0 151 -63 237q-64 86 -170 86t-186 -85t-122 -212q-40 -127 -40 -271t64 -230t173 -86q150 0 247 162t97 399zM106 451q0 241 155 415t403 174q202 0 330 -133t128 -332
q0 -247 -168 -419t-383 -172t-340 133t-125 334z" />
    <glyph glyph-name="ocircumflex" unicode="&#xf4;" horiz-adv-x="1212" 
d="M432 1208l326 353h137l180 -353h-92l-176 203l-272 -203h-103zM905 631q0 151 -63 237q-64 86 -170 86t-186 -85t-122 -212q-40 -127 -40 -271t64 -230t173 -86q150 0 247 162t97 399zM106 451q0 241 155 415t403 174q202 0 330 -133t128 -332q0 -247 -168 -419
t-383 -172t-340 133t-125 334z" />
    <glyph glyph-name="otilde" unicode="&#xf5;" horiz-adv-x="1212" 
d="M684 1479q57 0 156 -43q113 -43 137 -43q70 0 110 94h74q-66 -233 -237 -234q-62 0 -160 45t-133 45q-35 -1 -67 -23t-46 -67h-74q16 88 83 157t157 69zM905 631q0 151 -63 237q-64 86 -170 86t-186 -85t-122 -212q-40 -127 -40 -271t64 -230t173 -86q150 0 247 162
t97 399zM106 451q0 241 155 415t403 174q202 0 330 -133t128 -332q0 -247 -168 -419t-383 -172t-340 133t-125 334z" />
    <glyph glyph-name="odieresis" unicode="&#xf6;" horiz-adv-x="1212" 
d="M457 1352q0 49 35 84q36 34 84 34t83 -34t35 -84q0 -49 -35 -84t-84 -35t-83 35t-35 84zM879 1352q0 49 34 84q35 34 84 34t84 -34t35 -84q0 -49 -35 -84t-84 -35t-84 35q-34 35 -34 84zM905 631q0 151 -63 237q-64 86 -170 86t-186 -85t-122 -212q-40 -127 -40 -271
t64 -230t173 -86q150 0 247 162t97 399zM106 451q0 241 155 415t403 174q202 0 330 -133t128 -332q0 -247 -168 -419t-383 -172t-340 133t-125 334z" />
    <glyph glyph-name="divide" unicode="&#xf7;" horiz-adv-x="1228" 
d="M485 879q0 53 38 91t91 38q54 0 92 -38t38 -91t-38 -92q-38 -37 -92 -37t-91 38q-38 38 -38 91zM485 145q0 53 38 91t91 38t92 -37q38 -37 38 -91t-38 -92t-92 -38t-91 38q-38 38 -38 91zM102 422v180h1024v-180h-1024z" />
    <glyph glyph-name="oslash" unicode="&#xf8;" horiz-adv-x="1212" 
d="M106 438q0 254 155 428t403 174q113 0 206 -47l121 201h101l-148 -246q178 -129 178 -374q0 -246 -168 -418t-395 -172q-100 -1 -172 32l-156 -260h-100l178 299q-203 129 -203 383zM659 954q-93 0 -173 -85t-122 -212q-40 -127 -40 -266t55 -219l434 727q-61 55 -154 55
zM905 631q0 114 -37 190l-428 -715q49 -37 121 -36q150 0 247 162t97 399z" />
    <glyph glyph-name="ugrave" unicode="&#xf9;" horiz-adv-x="1251" 
d="M940 1208h-84l-270 195q-64 43 -64 86t27 63t61 20t54 -13q20 -14 49 -52zM1008 156q0 -52 45 -54q57 0 135 97l53 -52q-139 -164 -280 -163q-63 0 -105 38q-41 38 -41 102t39 263l-4 4q-60 -151 -196 -279t-281 -128q-98 0 -156 58q-57 58 -57 150t48 338t48 308t-30 74
q-30 14 -115 14l12 69q227 18 358 45l-112 -659q-16 -115 -17 -143q0 -106 99 -107q125 0 271 195t179 379l55 319h191l-129 -750q-10 -66 -10 -118z" />
    <glyph glyph-name="uacute" unicode="&#xfa;" horiz-adv-x="1251" 
d="M1017 1573q39 0 67 -25q28 -26 28 -66t-51 -71l-338 -203h-90l276 293q68 72 108 72zM1008 156q0 -52 45 -54q57 0 135 97l53 -52q-139 -164 -280 -163q-63 0 -105 38q-41 38 -41 102t39 263l-4 4q-60 -151 -196 -279t-281 -128q-98 0 -156 58q-57 58 -57 150t48 338
t48 308t-30 74q-30 14 -115 14l12 69q227 18 358 45l-112 -659q-16 -115 -17 -143q0 -106 99 -107q125 0 271 195t179 379l55 319h191l-129 -750q-10 -66 -10 -118z" />
    <glyph glyph-name="ucircumflex" unicode="&#xfb;" horiz-adv-x="1251" 
d="M453 1208l325 353h137l181 -353h-92l-177 203l-272 -203h-102zM1008 156q0 -52 45 -54q57 0 135 97l53 -52q-139 -164 -280 -163q-63 0 -105 38q-41 38 -41 102t39 263l-4 4q-60 -151 -196 -279t-281 -128q-98 0 -156 58q-57 58 -57 150t48 338t48 308t-30 74
q-30 14 -115 14l12 69q227 18 358 45l-112 -659q-16 -115 -17 -143q0 -106 99 -107q125 0 271 195t179 379l55 319h191l-129 -750q-10 -66 -10 -118z" />
    <glyph glyph-name="udieresis" unicode="&#xfc;" horiz-adv-x="1251" 
d="M477 1352q0 49 35 84q35 34 84 34t84 -34t35 -84q0 -49 -35 -84t-84 -35t-84 35t-35 84zM899 1352q0 49 35 84q35 34 84 34t84 -34t35 -84q0 -49 -35 -84t-84 -35t-84 35t-35 84zM1008 156q0 -52 45 -54q57 0 135 97l53 -52q-139 -164 -280 -163q-63 0 -105 38
q-41 38 -41 102t39 263l-4 4q-60 -151 -196 -279t-281 -128q-98 0 -156 58q-57 58 -57 150t48 338t48 308t-30 74q-30 14 -115 14l12 69q227 18 358 45l-112 -659q-16 -115 -17 -143q0 -106 99 -107q125 0 271 195t179 379l55 319h191l-129 -750q-10 -66 -10 -118z" />
    <glyph glyph-name="yacute" unicode="&#xfd;" 
d="M960 1573q40 0 68 -25q28 -26 27 -66q0 -40 -51 -71l-338 -203h-91l277 293q68 72 108 72zM963 736q0 83 -81 99q-30 5 -56 29t-25 70q0 45 40 76t83 30q68 0 114 -60t47 -146q0 -178 -176 -476t-377 -530q-266 -311 -417 -311q-51 0 -89 36q-38 35 -38 79t30 77
q31 33 69 33t81 -23t63 -22q78 0 224 180l80 98l-330 811q-35 82 -67 107t-118 33l11 69q131 0 282 45l355 -886l102 153q57 86 89 139q32 52 68 144t36 146z" />
    <glyph glyph-name="thorn" unicode="&#xfe;" horiz-adv-x="1251" 
d="M760 922q-113 0 -210 -104q-96 -104 -146 -241q-50 -136 -50 -249t66 -186q66 -72 167 -72t185 90t127 222t43 271t-50 204t-132 65zM334 1352q0 72 -139 78l8 69q154 8 350 41l-127 -756l4 -4q150 260 389 260q150 0 245 -103t95 -290q0 -256 -161 -460t-394 -203
q-172 0 -280 135l-48 -314q-16 -115 -16 -129q0 -82 154 -82l-8 -69h-361l279 1732q10 61 10 95z" />
    <glyph glyph-name="ydieresis" unicode="&#xff;" 
d="M420 1352q0 49 35 84q35 34 84 34t84 -34t35 -84q0 -49 -36 -84q-34 -35 -83 -35t-84 35t-35 84zM842 1352q0 49 35 84q35 34 84 34t83 -34t35 -84q0 -49 -35 -84q-36 -35 -84 -35t-83 35t-35 84zM963 736q0 83 -81 99q-30 5 -56 29t-25 70q0 45 40 76t83 30
q68 0 114 -60t47 -146q0 -178 -176 -476t-377 -530q-266 -311 -417 -311q-51 0 -89 36q-38 35 -38 79t30 77q31 33 69 33t81 -23t63 -22q78 0 224 180l80 98l-330 811q-35 82 -67 107t-118 33l11 69q131 0 282 45l355 -886l102 153q57 86 89 139q32 52 68 144t36 146z" />
    <glyph glyph-name="dotlessi" unicode="&#x131;" horiz-adv-x="606" 
d="M344 164q0 -61 51 -62q55 0 131 93l52 -48q-135 -164 -275 -163q-67 0 -109 39t-42 92t14 131l78 467q16 91 16 129q0 80 -141 80l4 69q186 12 371 49q-14 -35 -39 -186l-95 -565q-16 -92 -16 -125z" />
    <glyph glyph-name="Lslash" unicode="&#x141;" horiz-adv-x="1363" 
d="M453 231q0 -117 127 -116h264q152 0 228 58t163 239h80l-94 -412h-1209l13 70q186 0 213 172l51 323l-273 -149v116l293 160l64 418q16 111 16 164t-50 83t-128 27l12 70h625l-12 -70q-115 0 -168 -38t-70 -152l-57 -375l372 205v-117l-393 -215l-47 -303
q-20 -143 -20 -158z" />
    <glyph glyph-name="lslash" unicode="&#x142;" horiz-adv-x="606" 
d="M344 170q0 -67 51 -68q55 0 131 93l52 -48q-135 -164 -275 -163q-57 0 -104 38t-47 89q0 82 16 176l70 436l-230 -107v103l248 115l59 378q17 94 17 135t-28 55t-109 15l10 70q131 10 366 53q-16 -41 -45 -211l-63 -399l250 117v-103l-269 -125l-84 -530
q-16 -91 -16 -119z" />
    <glyph glyph-name="OE" unicode="&#x152;" horiz-adv-x="2351" 
d="M1298 1206q0 182 -305 183q-153 0 -277 -75q-220 -133 -308 -457q-39 -140 -39 -286q1 -248 121 -381t333 -133q156 -1 240 53t102 191l113 723q20 131 20 182zM1974 1356h-432l-88 -537h221q107 1 163 61t69 130h75l-73 -502h-72q2 14 2 55q0 158 -182 158h-217
l-60 -389q-14 -86 -14 -135q0 -99 143 -99h267q158 0 240 58t157 213h76l-88 -369h-1061q-32 0 -138 -18t-147 -19q-291 0 -483 196t-193 488q0 230 121 438q66 113 162 200t250 142t340 56q89 -1 183 -15q95 -14 105 -14h1008l-47 -317h-74q-12 125 -57 172t-156 47z" />
    <glyph glyph-name="oe" unicode="&#x153;" horiz-adv-x="1857" 
d="M324 386q0 -144 64 -230t173 -86q139 0 230 161q90 162 90 400q0 324 -215 323q-100 0 -180 -85t-122 -212q-40 -127 -40 -271zM570 -16q-214 0 -339 133t-125 334q0 241 155 415t404 174t367 -190q186 190 447 190q125 0 214 -58t89 -177q0 -170 -205 -285t-512 -119
q0 -147 82 -223q81 -76 187 -76t212 66t162 133l51 -57q-129 -131 -235 -196t-252 -64q-225 0 -338 168q-150 -168 -364 -168zM1581 816q0 76 -35 110q-65 62 -200 3q-136 -58 -214 -219q-48 -99 -63 -231q86 2 171 22q208 45 292 167q49 72 49 148z" />
    <glyph glyph-name="Scaron" unicode="&#x160;" horiz-adv-x="1327" 
d="M1227 1974l-326 -352h-137l-180 352h92l176 -202l272 202h103zM774 1401q-156 0 -240 -78q-83 -78 -83 -178q1 -100 77 -166t185 -108t217 -88t186 -134q76 -88 76 -231t-127 -286q-63 -71 -173 -116t-240 -45t-257 45t-168 45q-66 0 -108 -77h-76l72 452h75
q31 -170 151 -270q119 -100 281 -100t272 85t110 194t-77 177t-186 108t-217 86t-186 133q-76 87 -76 218q0 188 152 308t344 120q102 0 213 -42t135 -42q53 0 98 72h80l-67 -426h-74q-41 172 -127 258t-242 86z" />
    <glyph glyph-name="scaron" unicode="&#x161;" horiz-adv-x="985" 
d="M1057 1561l-326 -353h-137l-180 353h92l176 -203l272 203h103zM560 954q-64 0 -132 -50t-68 -112t54 -104q54 -40 128 -68q76 -28 150 -60t127 -94t53 -153q0 -141 -124 -235t-294 -94q-172 0 -278 76t-106 171q0 49 35 82q36 33 82 33t75 -27t29 -54t-12 -57t-13 -46
q0 -41 56 -67q56 -25 143 -25q88 0 156 54q67 54 67 124t-53 112q-53 43 -128 73t-150 62t-128 87t-53 131q0 119 111 223t305 104q150 0 236 -66t85 -153q-1 -51 -31 -84t-80 -33t-80 32t-30 69l15 82q0 27 -41 47t-106 20z" />
    <glyph glyph-name="Ydieresis" unicode="&#x178;" horiz-adv-x="1667" 
d="M684 1765q0 49 35 84t84 35t84 -35t35 -84t-35 -84t-84 -35t-84 36q-35 34 -35 83zM1106 1765q0 49 35 84t84 35t84 -35t35 -84t-36 -84q-34 -35 -83 -35t-84 36q-35 34 -35 83zM639 1296q0 -41 82 -196l199 -375l337 401q82 98 82 177q0 43 -56 65t-124 16l12 70h582
l-12 -70q-78 2 -118 -20t-124 -121l-543 -641l-47 -291q-14 -79 -14 -129t41 -78t162 -34l-13 -70h-651l12 70q121 2 176 46q54 44 66 130l55 352l-325 612q-58 109 -106 143t-148 31l12 70h629l-14 -70q-152 0 -152 -88z" />
    <glyph glyph-name="Zcaron" unicode="&#x17d;" horiz-adv-x="1478" 
d="M1303 1974l-326 -352h-137l-181 352h93l176 -202l272 202h103zM1446 1454v-61l-1086 -1295h498q187 0 271 75q48 42 77 85t72 125h70l-91 -383h-1191v80l1077 1276h-512q-117 0 -175 -47t-130 -201h-74l70 346h1124z" />
    <glyph glyph-name="zcaron" unicode="&#x17e;" 
d="M1133 1561l-326 -353h-137l-181 353h93l176 -203l272 203h103zM727 152q104 0 156 43q51 43 88 122h69q-23 -109 -106 -222q-43 -56 -115 -90t-139 -34q-66 0 -196 23q-130 22 -234 22t-217 -32l14 77l778 795h-374q-96 0 -136 -38t-63 -122h-72l51 328h846l-8 -51
l-797 -803l4 -4q84 22 144 22t160 -18q98 -18 147 -18z" />
    <glyph glyph-name="florin" unicode="&#x192;" 
d="M142 -475q-89 0 -132 38t-43 88t31 84t71 34q39 0 63 -22q24 -21 33 -47q24 -68 60 -69q53 0 94 75t41 198v112q0 119 62 412l55 260h-215l21 107h215l28 137q54 270 154 412t270 143q72 0 122 -40t50 -88t-32 -82t-77 -34q-44 0 -66 23q-23 22 -25 48t-16 48t-40 22
q-57 0 -99 -72t-38 -194l4 -108q1 -68 -26 -215h245l-14 -107h-256l-133 -635q-45 -215 -123 -354q-47 -84 -121 -129t-163 -45z" />
    <glyph glyph-name="circumflex" unicode="&#x2c6;" horiz-adv-x="569" 
d="M111 1208l325 353h137l181 -353h-92l-177 203l-272 -203h-102z" />
    <glyph glyph-name="caron" unicode="&#x2c7;" horiz-adv-x="569" 
d="M848 1561l-326 -353h-137l-180 353h92l176 -203l272 203h103z" />
    <glyph glyph-name="breve" unicode="&#x2d8;" horiz-adv-x="569" 
d="M180 1540h82q4 -188 209 -188t268 188h74q-16 -98 -59 -168q-42 -70 -98 -104q-97 -58 -205 -60q-156 0 -228 113q-43 72 -43 219z" />
    <glyph glyph-name="dotaccent" unicode="&#x2d9;" horiz-adv-x="569" 
d="M348 1352q0 49 35 84q35 34 84 34t84 -34t35 -84q0 -49 -35 -84t-84 -35t-84 35t-35 84z" />
    <glyph glyph-name="ring" unicode="&#x2da;" horiz-adv-x="569" 
d="M344 1396q0 -50 36 -86t85 -36t85 35t36 86t-36 86t-85 35t-85 -35t-36 -85zM254 1395q0 88 62 149q62 62 150 62t148 -62q62 -62 62 -148q0 -88 -62 -150t-148 -62q-87 0 -150 61q-62 62 -62 150z" />
    <glyph glyph-name="ogonek" unicode="&#x2db;" horiz-adv-x="569" 
d="M328 -344q70 0 209 90l26 -61q-170 -107 -268 -107t-158 38q-59 38 -59 116q-1 223 450 307v-19q-283 -106 -282 -270q0 -42 26 -68t56 -26z" />
    <glyph glyph-name="tilde" unicode="&#x2dc;" horiz-adv-x="569" 
d="M362 1479q57 0 156 -43q113 -43 137 -43q70 0 111 94h74q-66 -233 -238 -234q-62 0 -160 45t-133 45q-35 -1 -67 -23t-45 -67h-74q16 88 83 157t156 69z" />
    <glyph glyph-name="hungarumlaut" unicode="&#x2dd;" horiz-adv-x="569" 
d="M735 1575q27 -1 51 -21t25 -55q0 -35 -55 -69l-334 -205h-74l305 293q55 57 82 57zM422 1573q25 0 41 -23q16 -22 16 -56t-67 -83l-293 -203h-74l264 293q68 72 113 72z" />
    <glyph glyph-name="endash" unicode="&#x2013;" horiz-adv-x="1024" 
d="M72 580h1024v-136h-1024v136z" />
    <glyph glyph-name="emdash" unicode="&#x2014;" horiz-adv-x="2048" 
d="M72 580h2048v-136h-2048v136z" />
    <glyph glyph-name="quoteleft" unicode="&#x2018;" horiz-adv-x="569" 
d="M373 1254q0 -30 10 -42q10 -14 19 -18t36 -12q26 -8 50 -36t24 -73t-37 -83t-95 -38t-102 46t-44 142t80 202q81 104 216 163l31 -63q-96 -46 -142 -102t-46 -86z" />
    <glyph glyph-name="quoteright" unicode="&#x2019;" horiz-adv-x="569" 
d="M380 1104q46 56 46 94q0 39 -30 51q-9 5 -36 13q-26 8 -50 36t-24 73q0 46 38 83q37 37 95 37t102 -46q44 -47 44 -143t-81 -200t-216 -164l-30 63q96 47 142 103z" />
    <glyph glyph-name="quotesinglbase" unicode="&#x201a;" horiz-adv-x="569" 
d="M242 -60q0 30 -10 42q-10 14 -20 18q-9 4 -36 12q-26 8 -50 36t-24 74t37 83t95 37t102 -46t45 -142q0 -96 -81 -202q-81 -104 -216 -163l-31 63q97 46 143 102t46 86z" />
    <glyph glyph-name="quotedblleft" unicode="&#x201c;" horiz-adv-x="909" 
d="M767 1342q-46 -56 -46 -95t30 -51q9 -4 35 -12t51 -36q23 -28 23 -74t-37 -83t-95 -37t-102 46t-44 142t81 202q81 104 216 163l30 -63q-96 -46 -142 -102zM332 1256q0 -30 10 -42q10 -14 19 -18t36 -12t51 -36t23 -74q0 -46 -37 -83t-95 -37t-102 46t-44 142
q1 96 81 202q80 104 215 163l31 -63q-96 -46 -142 -102t-46 -86z" />
    <glyph glyph-name="quotedblright" unicode="&#x201d;" horiz-adv-x="909" 
d="M401 1188q0 30 -10 44t-19 17q-9 5 -36 13q-26 8 -50 36t-24 73q0 46 37 83t95 37t102 -46q44 -47 45 -143q0 -96 -81 -200t-216 -164l-31 63q96 47 142 103q46 54 46 84zM651 1371q0 46 37 83t95 37q59 0 103 -46q44 -47 44 -143t-81 -200t-216 -164l-31 63
q96 47 142 103q70 85 36 128q-10 13 -19 17q-9 5 -36 13t-51 36t-23 73z" />
    <glyph glyph-name="quotedblbase" unicode="&#x201e;" horiz-adv-x="909" 
d="M233 -60q0 30 -10 42q-10 14 -19 18t-36 12q-26 8 -50 36t-24 74t37 83t95 37t102 -46t45 -142q0 -96 -81 -202q-81 -104 -216 -163l-31 63q96 46 142 102t46 86zM623 -60q-1 30 -11 42q-10 14 -19 18t-36 12t-51 36t-23 74q0 46 37 83t95 37q59 0 103 -46t44 -142
t-81 -202q-81 -104 -216 -163l-31 63q96 46 142 102t47 86z" />
    <glyph glyph-name="dagger" unicode="&#x2020;" 
d="M469 305q0 194 -25 283q74 51 114 130t63 257q-66 4 -163 -35q-96 -39 -136 -39t-68 27q-28 28 -27 70q0 42 34 71t66 29t126 -37t174 -33q10 37 10 86t-19 135q-18 86 -18 127t33 78t86 37t82 -30q29 -31 29 -73t-70 -153q-68 -111 -80 -207q80 2 176 36t131 34t62 -32
t27 -72t-30 -66q-28 -26 -64 -27q-36 0 -131 37t-181 37q-16 -81 -16 -175t16 -134q18 -40 65 -88q-90 -125 -154 -383q-63 -257 -110 -539h-61q59 455 59 649z" />
    <glyph glyph-name="daggerdbl" unicode="&#x2021;" 
d="M719 1491q53 0 83 -30q30 -31 30 -73t-70 -153t-82 -207q76 0 172 35t128 35t64 -29t31 -71q1 -42 -29 -70t-65 -27q-35 0 -130 37t-181 37q-31 -234 2 -311q18 -45 69 -97q-77 -53 -117 -129t-65 -264q66 -2 163 37t136 39t67 -27q27 -27 27 -69t-34 -72
q-34 -29 -65 -29q-32 0 -126 37t-174 33q-10 -37 -10 -86t17 -135q18 -86 18 -127t-32 -78t-85 -37t-83 30t-30 72t70 154q70 111 82 207q-76 0 -172 -35t-128 -35t-64 29t-32 71q0 41 30 69t65 28t130 -37t181 -37q16 118 16 192t-18 119t-70 95q78 55 118 131t65 264
q-66 2 -163 -37q-96 -39 -136 -39t-68 27q-28 28 -27 70q0 42 34 71t66 29t126 -37t174 -33q10 37 10 86t-17 135q-18 86 -18 127t32 78t85 37z" />
    <glyph glyph-name="bullet" unicode="&#x2022;" horiz-adv-x="1024" 
d="M150 728q0 151 106 257q106 107 257 107t257 -108t106 -258t-106 -255q-106 -106 -258 -106t-257 106t-105 257z" />
    <glyph glyph-name="ellipsis" unicode="&#x2026;" horiz-adv-x="2048" 
d="M1511 113q0 53 38 91t91 38q54 0 92 -38t38 -91t-38 -91t-92 -38t-91 38q-38 38 -38 91zM829 113q0 53 38 91t91 38q54 0 92 -38t38 -91t-38 -91t-92 -38t-91 38q-38 38 -38 91zM147 113q0 53 38 91t91 38q54 0 92 -38t38 -91t-38 -91t-92 -38t-91 38q-38 38 -38 91z" />
    <glyph glyph-name="perthousand" unicode="&#x2030;" horiz-adv-x="2048" 
d="M1180 1466h98l-971 -1552h-98zM1561 160q0 -152 110 -152q88 0 145 117q56 117 56 273t-109 155q-90 0 -146 -120q-56 -121 -56 -273zM1421 229q-1 153 99 261t233 108t195 -76t63 -198q0 -122 -90 -241q-90 -120 -246 -120q-123 -1 -189 75t-65 191zM1067 553
q-91 0 -147 -120q-56 -121 -56 -273t111 -152q88 0 144 117q57 117 57 273t-109 155zM725 229q0 153 99 261q98 108 232 108t196 -76t62 -198t-89 -241q-90 -120 -246 -120q-123 -1 -189 75t-65 191zM303 980q0 -152 111 -153q88 0 144 117t56 273t-108 155q-90 0 -146 -120
t-57 -272zM164 1049q0 153 99 261t249 107q117 0 179 -76q63 -75 63 -197t-90 -242t-246 -120q-123 0 -189 76q-65 76 -65 191z" />
    <glyph glyph-name="guilsinglleft" unicode="&#x2039;" horiz-adv-x="720" 
d="M668 958l-330 -403l184 -489h-73l-334 512l477 380h76z" />
    <glyph glyph-name="guilsinglright" unicode="&#x203a;" horiz-adv-x="720" 
d="M53 66l330 403l-184 489h73l334 -512l-477 -380h-76z" />
    <glyph glyph-name="fraction" unicode="&#x2044;" horiz-adv-x="342" 
d="M-246 -29h-96l928 1516h98z" />
    <glyph glyph-name="fraction" unicode="&#x2215;" horiz-adv-x="342" 
d="M-246 -29h-96l928 1516h98z" />
    <glyph glyph-name="Euro" unicode="&#x20ac;" 
d="M902 1483q245 0 325 -119l-17 -180h-43q2 104 -60 157t-171 54q-168 0 -268 -132t-164 -386h549l-45 -82h-521q-2 -10 -6 -34t-10 -54t-6 -50h465l-45 -82h-428q-25 -251 44 -383t226 -133q100 -1 181 51t116 162h41l-39 -174q-117 -125 -358 -125q-463 0 -420 602h-139
l45 82h98q8 94 20 138h-129l45 82h105q78 303 221 455t388 151z" />
    <glyph glyph-name="trademark" unicode="&#x2122;" horiz-adv-x="2033" 
d="M1063 729v70q68 -3 88 27t20 122v365q0 45 -17 57t-83 14v70h250l186 -504h4l170 504h246v-70q-59 0 -77 -13t-19 -60v-459q0 -29 18 -39t74 -14v-70h-311v70q63 0 80 21q16 22 16 108v397h-4l-197 -596h-51l-219 596h-4v-403q0 -78 19 -100t96 -23v-70h-285zM494 729v70
q68 0 90 18t22 64v503q-110 0 -146 -34t-54 -154h-68l20 258h619l20 -258h-67q-14 123 -56 156t-145 32v-489q0 -61 23 -81t86 -15v-70h-344z" />
    <glyph glyph-name="minus" unicode="&#x2212;" horiz-adv-x="1228" 
d="M102 422v180h1024v-180h-1024z" />
    <glyph glyph-name="fi" unicode="&#xfb01;" horiz-adv-x="1251" 
d="M656 1544q54 0 95 -31q40 -31 40 -83t-30 -82t-73 -29q-42 1 -66 25t-41 53t-57 11q-73 -36 -73 -187q0 -90 20 -197h270q266 0 408 16q-14 -35 -39 -186l-94 -565q-16 -92 -17 -125q0 -61 52 -62q55 0 131 93l51 -48q-135 -164 -275 -163q-66 0 -108 39t-43 92
q0 53 14 131l78 467q16 93 16 131q0 90 -186 90h-246q-2 -145 -47 -412l-94 -557q-34 -193 -108 -295t-240 -153l-25 59q82 57 116 124t52 179l133 803q20 135 25 252h-234l13 90h221q2 133 38 237q63 179 207 252q62 31 116 31zM991 1366q0 51 37 88t88 37t88 -37t37 -88
t-37 -88t-88 -37t-88 37t-37 88z" />
    <glyph glyph-name="fl" unicode="&#xfb02;" horiz-adv-x="1251" 
d="M656 1544q54 0 95 -31q40 -31 40 -83t-30 -82t-73 -29q-42 1 -66 25t-41 53t-57 11q-73 -36 -73 -187q0 -90 20 -197h270l-12 -90h-246q-2 -145 -47 -412l-94 -557q-34 -193 -108 -295t-240 -153l-25 59q82 57 116 124t52 179l133 803q20 135 25 252h-234l13 90h221
q2 133 38 237q63 179 207 252q62 31 116 31zM1008 170q0 -67 51 -68q55 0 131 93l51 -48q-135 -164 -274 -163q-57 0 -105 38q-47 38 -47 89q0 82 16 176l148 925q16 94 16 135t-27 55q-28 13 -110 15l10 70q131 10 367 53q-16 -41 -45 -211l-166 -1040q-16 -91 -16 -119z
" />
    </font>
</defs>
</svg>
