<?xml version="1.0" standalone="no"?>
<!DOCTYPE svg PUBLIC "-//W3C//DTD SVG 1.1//EN" "http://www.w3.org/Graphics/SVG/1.1/DTD/svg11.dtd" >
<svg xmlns="http://www.w3.org/2000/svg">
<metadata>
Created by FontPrep 20130207 at Thu Apr  2 00:59:32 2015
 By Callum Flack
Copyright (c) 1992 Adobe Systems Incorporated. All Rights Reserved.Grotesque is a trademark of The Monotype Corporation plc registered in the U.S. Patent &#38; TM Office.
</metadata>
<defs>
<font id="2a512d07ab52bf11567c2ea8538f0bb3" horiz-adv-x='1024' >
  <font-face 
    font-family="GrotesqueMT-BoldExtended"
    font-weight="700"
    font-stretch="expanded"
    units-per-em="2048"
    panose-1="2 11 8 5 0 0 0 0 0 0"
    ascent="1532"
    descent="-516"
    x-height="1004"
    cap-height="1411"
    bbox="-453 -516 2974 1931"
    underline-thickness="102"
    underline-position="-102"
    unicode-range="U+0020-FB02"
  />
<missing-glyph horiz-adv-x="614" 
 />
    <glyph glyph-name=".notdef" horiz-adv-x="614" 
 />
    <glyph glyph-name=".null" horiz-adv-x="0" 
 />
    <glyph glyph-name="nonmarkingreturn" 
 />
    <glyph glyph-name="space" unicode=" " horiz-adv-x="614" 
 />
    <glyph glyph-name="space" unicode="&#xa0;" horiz-adv-x="614" 
 />
    <glyph glyph-name="exclam" unicode="!" horiz-adv-x="661" 
d="M152 0v367h346v-367h-346zM514 1170q0 -140 -48 -358t-54 -288h-160q-10 76 -57 275q-103 434 8 612h270q41 -101 41 -241z" />
    <glyph glyph-name="quotedbl" unicode="&#x22;" 
d="M31 879v555h245v-555h-245zM406 879v555h245v-555h-245z" />
    <glyph glyph-name="numbersign" unicode="#" horiz-adv-x="1366" 
d="M803 836h-187l-32 -238h186zM1130 598l-8 -195h-176l-55 -403h-205l55 403h-186l-55 -403h-205l55 403h-174l8 195h195l33 238h-174l8 194h192l56 404h204l-55 -404h186l56 404h205l-56 -404h158l-8 -194h-176l-33 -238h155z" />
    <glyph glyph-name="dollar" unicode="$" horiz-adv-x="1472" 
d="M647 1423h176l-2 -47q250 -14 371 -127t137 -280h-285q-35 147 -223 170v-310q189 -27 293 -67t170 -105q102 -102 102 -251q0 -186 -152 -302q-153 -115 -415 -112v-209h-174v207q-135 -2 -241 38t-161 94q-56 54 -104 145t-53 200h270q4 -101 80 -163t209 -68v319
q-319 49 -429 159t-110 266t144 272t397 126v45zM1067 384q0 113 -248 140v-293q141 7 195 51t53 102zM412 999q0 -114 231 -141v289q-103 -2 -167 -40t-64 -108z" />
    <glyph glyph-name="percent" unicode="%" horiz-adv-x="2068" 
d="M486 842q77 0 121 54t44 159q0 225 -164 225q-172 0 -172 -221q0 -111 47 -164t124 -53zM899 1062q0 -162 -117 -272t-299 -110t-299 108q-116 108 -116 272q0 166 112 274t302 108q189 0 303 -109t114 -271zM518 -78l862 1518h170l-864 -1518h-168zM1169 302
q1 164 113 274q112 108 302 108t303 -109q114 -109 114 -271t-117 -272t-299 -110t-299 108t-117 272zM1589 522q-172 0 -172 -221q0 -111 47 -164t124 -53t121 54t44 159q0 225 -164 225z" />
    <glyph glyph-name="ampersand" unicode="&#x26;" horiz-adv-x="1878" 
d="M1858 209v-199q-106 -33 -218 -33q-242 0 -450 168q-108 -73 -218 -113t-178 -48q-235 -28 -396 23q-101 32 -152 75t-89 109t-38 123t16 104q17 48 61 112q95 137 402 242q-100 129 -100 261t98 253q47 57 130 94t185 37q207 0 309 -103t101 -239q0 -98 -70 -195
t-202 -145q96 -102 215 -213q127 106 194 293h248q-90 -268 -272 -450q176 -156 378 -156h46zM504 386q0 -67 68 -115t169 -48q148 0 269 84l-289 291q-121 -47 -169 -96t-48 -116zM936 1225q-64 0 -106 -39q-42 -38 -42 -92t35 -106t78 -89q190 55 191 186q0 61 -45 101
q-47 39 -111 39z" />
    <glyph glyph-name="quotesingle" unicode="'" horiz-adv-x="454" 
d="M104 879v555h246v-555h-246z" />
    <glyph glyph-name="parenleft" unicode="(" horiz-adv-x="897" 
d="M788 -203v-157q-90 2 -200 58t-220 160q-108 104 -182 280q-74 177 -74 388t67 385q67 175 173 279q205 202 439 246v-166q-305 -188 -306 -754q1 -264 77 -454t226 -265z" />
    <glyph glyph-name="parenright" unicode=")" horiz-adv-x="897" 
d="M412 516q0 565 -306 754v166q233 -42 439 -246q106 -104 173 -278q66 -174 66 -386q0 -211 -74 -388t-182 -280q-109 -104 -219 -160t-200 -58v157q150 76 226 265q77 189 77 454z" />
    <glyph glyph-name="asterisk" unicode="*" horiz-adv-x="1067" 
d="M483 1004l-100 407h291l-107 -403l357 223l96 -273l-420 -26l324 -268l-234 -175l-162 392l-147 -392l-238 166l322 277l-416 12l80 279z" />
    <glyph glyph-name="plus" unicode="+" horiz-adv-x="1366" 
d="M561 641v395h246v-395h393v-246h-393v-395h-246v395h-393v246h393z" />
    <glyph glyph-name="comma" unicode="," horiz-adv-x="641" 
d="M145 0v365h351v-222q0 -272 -92 -386t-269 -126v144q135 80 137 225h-127z" />
    <glyph glyph-name="hyphen" unicode="-" horiz-adv-x="937" 
d="M143 356v295h652v-295h-652z" />
    <glyph glyph-name="hyphen" unicode="&#xad;" horiz-adv-x="937" 
d="M143 356v295h652v-295h-652z" />
    <glyph glyph-name="period" unicode="." horiz-adv-x="641" 
d="M145 0v371h351v-371h-351z" />
    <glyph glyph-name="slash" unicode="/" horiz-adv-x="747" 
d="M57 -338l361 1749h209l-365 -1749h-205z" />
    <glyph glyph-name="zero" unicode="0" horiz-adv-x="1492" 
d="M94 696q0 338 162 524t492 185q651 0 651 -723q0 -340 -160 -527t-494 -188q-651 0 -651 729zM748 1145q-150 0 -211 -114t-62 -339q0 -465 270 -465q150 0 211 117q62 117 62 346t-60 342t-210 113z" />
    <glyph glyph-name="one" unicode="1" horiz-adv-x="1087" 
d="M147 1010v176q162 6 255 74t122 151h240v-1411h-375v1010h-242z" />
    <glyph glyph-name="two" unicode="2" horiz-adv-x="1492" 
d="M188 926q0 211 156 345t422 134t405 -131t140 -311q0 -124 -94 -251q-74 -97 -318 -260q-90 -60 -258 -169h668v-283h-1104v150q315 265 433 362t174 152q118 114 118 262q0 104 -64 169t-175 65q-113 0 -177 -73q-64 -72 -64 -172t48 -188h-277q-33 96 -33 199z" />
    <glyph glyph-name="three" unicode="3" horiz-adv-x="1492" 
d="M672 805q116 0 180 50t64 134t-66 135q-66 52 -159 52t-160 -56t-64 -176h-291q0 182 120 314q132 147 454 147q227 0 384 -97t156 -288q0 -98 -84 -180t-235 -117q167 -23 275 -116t108 -238q0 -209 -170 -307t-447 -99q-598 0 -598 508h295q-2 -121 66 -199t196 -78
t198 56q71 54 71 150t-79 152q-80 56 -172 56t-190 -12v219q96 -10 148 -10z" />
    <glyph glyph-name="four" unicode="4" horiz-adv-x="1492" 
d="M1139 1378v-841h291v-240h-291v-297h-371v297h-696v281l614 800h453zM768 537v538l-408 -538h408z" />
    <glyph glyph-name="five" unicode="5" horiz-adv-x="1492" 
d="M828 897q222 0 369 -128q149 -128 149 -309t-133 -327q-67 -74 -187 -120t-288 -46t-278 40t-190 120q-119 119 -118 307h315q0 -106 61 -170t182 -63q121 0 183 73q61 74 61 193t-76 179q-77 60 -173 61q-152 0 -238 -150h-250q49 293 64 518l18 303h985
q-22 -182 -102 -257t-269 -74q-119 0 -413 38l-29 -282q135 94 357 94z" />
    <glyph glyph-name="six" unicode="6" horiz-adv-x="1492" 
d="M799 1165q-143 0 -217 -100t-70 -279q152 96 352 96t347 -123q149 -124 149 -322t-153 -336t-443 -138q-290 -1 -461 189q-172 190 -172 497t157 525q77 106 205 168t282 62t265 -39q111 -40 169 -107q108 -125 120 -273h-297q-18 84 -78 132t-155 48zM764 205
q108 -1 170 71q63 72 63 170t-56 168t-171 70q-116 0 -182 -70t-66 -172t67 -170t175 -67z" />
    <glyph glyph-name="seven" unicode="7" horiz-adv-x="1492" 
d="M195 1053v325h1091v-133q-104 -123 -180 -270t-114 -268t-60 -272t-27 -233q-4 -82 -6 -202h-391q39 268 139 509t273 544h-725z" />
    <glyph glyph-name="eight" unicode="8" horiz-adv-x="1492" 
d="M178 1018q0 140 108 253q58 60 179 97t277 37t265 -31t165 -74t98 -112t41 -161q0 -91 -67 -174t-187 -128q147 -33 236 -126t89 -200t-46 -184q-46 -78 -109 -127t-187 -86t-286 -37t-282 31t-186 76q-174 118 -175 316q0 122 79 204q80 82 234 135q-126 49 -186 133
t-60 158zM747 604q-119 0 -187 -56t-68 -148t66 -149q66 -56 187 -56t187 56t65 150q0 94 -65 149q-66 54 -185 54zM742 807q91 0 148 52q56 52 56 133t-60 131q-60 51 -146 51t-143 -52q-56 -52 -56 -132q0 -81 55 -132t146 -51z" />
    <glyph glyph-name="nine" unicode="9" horiz-adv-x="1492" 
d="M694 203q143 0 217 100t70 279q-151 -96 -351 -96t-348 123q-148 124 -148 322t152 336t442 138q290 1 462 -189t172 -497t-157 -524q-77 -107 -205 -169t-282 -62t-265 39q-111 40 -169 107q-108 125 -120 273h297q19 -84 79 -132t154 -48zM496 922q0 -98 56 -168
t172 -70q114 0 180 70t67 172q0 102 -67 170q-66 68 -174 68t-171 -72t-63 -170z" />
    <glyph glyph-name="colon" unicode=":" horiz-adv-x="641" 
d="M145 641v363h351v-363h-351zM145 0v362h351v-362h-351z" />
    <glyph glyph-name="semicolon" unicode=";" horiz-adv-x="641" 
d="M145 0v365h351v-222q0 -353 -170 -457q-76 -46 -189 -55v144q135 80 137 225h-129zM145 641v363h351v-363h-351z" />
    <glyph glyph-name="less" unicode="&#x3c;" horiz-adv-x="1366" 
d="M1204 219v-235l-1040 438v192l1040 439v-236l-721 -299z" />
    <glyph glyph-name="equal" unicode="=" horiz-adv-x="1366" 
d="M1200 412v-246h-1032v246h1032zM1200 870v-245h-1032v245h1032z" />
    <glyph glyph-name="greater" unicode="&#x3e;" horiz-adv-x="1366" 
d="M164 219l721 299l-721 299v236l1040 -439v-192l-1040 -438v235z" />
    <glyph glyph-name="question" unicode="?" horiz-adv-x="1323" 
d="M469 0v369h352v-369h-352zM672 1442q254 0 406 -115t151 -285q0 -123 -86 -204q-59 -60 -173 -116t-145 -85q-53 -55 -57 -139h-236q0 156 105 260q14 12 82 62q67 50 101 98t34 114t-67 116t-173 50t-165 -60t-59 -136t24 -130h-273q-25 76 -24 154q1 200 151 308
t404 108z" />
    <glyph glyph-name="at" unicode="@" horiz-adv-x="1638" 
d="M92 702q0 318 222 532t540 214q176 0 334 -72t259 -209t101 -309q0 -121 -39 -219q-39 -99 -95 -157t-151 -111t-211 -55q-116 -1 -120 96l-4 4q-86 -100 -208 -100t-207 96t-85 229q0 186 99 315t271 129t255 -116l18 90h178l-82 -447q-20 -111 19 -110q74 0 129 74
t55 206q0 234 -143 360t-384 126t-393 -158t-153 -410q0 -252 164 -403q164 -152 422 -152q215 0 377 121l96 -110q-205 -190 -490 -191q-324 0 -549 210q-225 209 -225 527zM802 522q79 0 136 60t57 136q0 77 -43 125q-44 48 -120 48q-76 -1 -132 -63t-57 -138
q0 -76 40 -122t119 -46z" />
    <glyph glyph-name="A" unicode="A" horiz-adv-x="1685" 
d="M45 0l598 1427h373l626 -1427h-389l-120 289h-617l-113 -289h-358zM1028 535l-219 514l-199 -514h418z" />
    <glyph glyph-name="B" unicode="B" horiz-adv-x="1728" 
d="M197 0v1411h807q229 0 369 -79t140 -247q-1 -111 -83 -195t-271 -120q451 -68 451 -362q0 -208 -190 -308t-500 -100h-723zM584 621v-338h370q252 0 252 166q0 83 -57 127t-162 45h-403zM584 1163v-286h334q88 -1 142 35t54 106q0 145 -201 145h-329z" />
    <glyph glyph-name="C" unicode="C" horiz-adv-x="1728" 
d="M915 1446q614 0 719 -531h-350q-39 105 -134 165t-219 60q-313 1 -395 -284q-22 -74 -22 -156q0 -198 106 -312t268 -114t272 79q109 79 134 212h359q-13 -217 -203 -399q-92 -88 -240 -143t-320 -55q-173 0 -309 45q-246 83 -369 289q-108 181 -108 383t69 350
q125 268 443 367q141 44 299 44z" />
    <glyph glyph-name="D" unicode="D" horiz-adv-x="1835" 
d="M197 0v1411h735q352 0 570 -198t218 -508q0 -276 -195 -483q-95 -102 -251 -162t-348 -60h-729zM584 1110v-803h325q186 0 282 94q95 95 95 317t-98 307t-287 85h-317z" />
    <glyph glyph-name="E" unicode="E" horiz-adv-x="1556" 
d="M193 0v1411h1230v-307h-843v-234h696v-307h-696v-256h878v-307h-1265z" />
    <glyph glyph-name="F" unicode="F" horiz-adv-x="1429" 
d="M186 0v1411h1186v-313h-797v-242h639v-303h-636v-553h-392z" />
    <glyph glyph-name="G" unicode="G" horiz-adv-x="1705" 
d="M1346 0v166q-186 -197 -498 -197t-533 197q-219 197 -219 536q0 177 91 356q53 105 139 187t234 138t339 57q326 0 505 -153t185 -382h-334q-31 188 -255 234q-48 10 -95 10q-193 0 -296 -128t-103 -329q0 -202 112 -316t283 -114q123 0 213 53t125 131h-231v291h583
v-737h-245z" />
    <glyph glyph-name="H" unicode="H" horiz-adv-x="1921" 
d="M199 0v1411h389v-520h745v520h389v-1411h-389v547h-745v-547h-389z" />
    <glyph glyph-name="I" unicode="I" horiz-adv-x="788" 
d="M199 0v1411h391v-1411h-391z" />
    <glyph glyph-name="J" unicode="J" horiz-adv-x="1300" 
d="M385 507q0 -122 50 -183q50 -62 132 -62t131 58t50 178v913h395v-885q0 -152 -46 -264t-125 -173q-155 -118 -356 -118q-245 0 -396 151q-54 54 -89 147q-65 172 -14 415h280q-12 -55 -12 -177z" />
    <glyph glyph-name="K" unicode="K" horiz-adv-x="1812" 
d="M244 0v1411h387v-735l684 735h395l-549 -586l611 -825h-484l-383 549l-276 -299v-250h-385z" />
    <glyph glyph-name="L" unicode="L" horiz-adv-x="1429" 
d="M199 0v1411h389v-1053h784v-358h-1173z" />
    <glyph glyph-name="M" unicode="M" horiz-adv-x="2283" 
d="M193 0v1411h538l397 -844l408 844h557v-1411h-375v999l-485 -999h-227l-469 999v-999h-344z" />
    <glyph glyph-name="N" unicode="N" horiz-adv-x="1921" 
d="M205 0v1411h534l621 -868v868h356v-1411h-444l-711 1006v-1006h-356z" />
    <glyph glyph-name="O" unicode="O" horiz-adv-x="1855" 
d="M1331 713q1 182 -115 306t-286 124t-287 -125t-117 -309q0 -185 116 -307t286 -122t286 126q116 125 117 307zM223 326q-110 180 -110 388q0 207 121 394q226 340 701 340q173 0 318 -51t235 -131t149 -182q108 -183 108 -375q0 -135 -53 -265q-54 -130 -152 -235
q-98 -106 -254 -171t-341 -65q-185 -1 -331 49t-238 126q-91 76 -153 178z" />
    <glyph glyph-name="P" unicode="P" horiz-adv-x="1642" 
d="M190 0v1411h795q297 0 439 -120t142 -294t-117 -306q-62 -69 -183 -109t-287 -39h-395v-543h-394zM578 1145v-338h303q272 0 272 176q0 86 -67 124t-203 38h-305z" />
    <glyph glyph-name="Q" unicode="Q" horiz-adv-x="1855" 
d="M526 709q0 -184 116 -306t286 -122t286 125t117 307q0 182 -116 306q-115 124 -285 124t-287 -125t-117 -309zM793 -111q0 29 6 95q-150 16 -272 72q-123 56 -197 131q-218 219 -217 520q0 214 121 401q226 340 701 340q173 0 318 -51t235 -131t149 -182
q108 -183 108 -359q0 -175 -69 -323t-213 -262t-339 -150q2 -40 8 -60q20 -62 98 -74q163 -31 423 33v-229q-166 -35 -443 -39q-225 1 -321 63t-96 205z" />
    <glyph glyph-name="R" unicode="R" horiz-adv-x="1665" 
d="M219 0v1411h817q220 0 364 -92t144 -266q0 -322 -510 -375q236 -59 311 -134t97 -167q22 -91 36 -195q15 -104 66 -182h-414q-47 61 -71 258q-25 197 -74 246t-172 49h-203v-553h-391zM608 1149v-324h228q307 0 307 168q0 70 -52 113t-165 43h-318z" />
    <glyph glyph-name="S" unicode="S" horiz-adv-x="1579" 
d="M810 1163q-228 0 -269 -86q-28 -50 11 -87q38 -38 198 -72t344 -94q184 -58 274 -148q117 -117 117 -266q0 -190 -176 -314t-486 -125q-213 0 -345 45t-222 136q-145 145 -156 366h349q14 -129 116 -202q103 -72 237 -72t203 36t68 87q0 35 -34 69q-64 63 -347 118
q-106 22 -226 70q-298 119 -298 377q0 156 123 283q83 84 199 123t305 39q258 0 429 -126t226 -374h-324q-31 104 -122 161q-92 56 -194 56z" />
    <glyph glyph-name="T" unicode="T" horiz-adv-x="1556" 
d="M51 1092v319h1475v-319h-551v-1092h-391v1092h-533z" />
    <glyph glyph-name="U" unicode="U" horiz-adv-x="1748" 
d="M563 1411v-801q0 -190 79 -271t237 -81q157 0 243 85t86 280v788h367v-840q0 -193 -99 -331t-257 -205q-158 -66 -351 -66q-330 1 -512 145t-182 439v858h389z" />
    <glyph glyph-name="V" unicode="V" horiz-adv-x="1556" 
d="M578 0l-529 1411h412l358 -987l342 987h348l-518 -1411h-413z" />
    <glyph glyph-name="W" unicode="W" horiz-adv-x="2324" 
d="M578 0l-535 1411h381l309 -860l295 860h295l328 -858l288 858h342l-518 -1411h-272l-330 858l-317 -858h-266z" />
    <glyph glyph-name="X" unicode="X" horiz-adv-x="1835" 
d="M657 713l-557 698h478l342 -426l340 426h446l-543 -682l572 -729h-482l-356 455l-350 -455h-438z" />
    <glyph glyph-name="Y" unicode="Y" horiz-adv-x="1622" 
d="M1010 0h-389v502l-574 911h422l381 -600l369 598h356l-565 -909v-502z" />
    <glyph glyph-name="Z" unicode="Z" horiz-adv-x="1536" 
d="M145 1085v326h1248v-137l-713 -946h743v-328h-1314v131l710 954h-674z" />
    <glyph glyph-name="bracketleft" unicode="[" horiz-adv-x="1173" 
d="M188 -342v1753h875v-250h-526v-1251h526v-252h-875z" />
    <glyph glyph-name="backslash" unicode="\" horiz-adv-x="747" 
d="M487 -338l-364 1749h209l360 -1749h-205z" />
    <glyph glyph-name="bracketright" unicode="]" horiz-adv-x="1173" 
d="M111 1161v250h874v-1753h-874v252h526v1251h-526z" />
    <glyph glyph-name="asciicircum" unicode="^" horiz-adv-x="1366" 
d="M381 506h-244l438 928h218l438 -928h-246l-301 688z" />
    <glyph glyph-name="underscore" unicode="_" horiz-adv-x="1024" 
d="M1024 -256h-1024v102h1024v-102z" />
    <glyph glyph-name="grave" unicode="`" 
d="M309 1139l-235 342h313l59 -342h-137z" />
    <glyph glyph-name="a" unicode="a" horiz-adv-x="1579" 
d="M186 692q0 106 86 197q76 75 184 113t278 38q292 0 419 -85q53 -36 85 -90t40 -101t8 -109v-331q0 -66 24 -95t90 -29t142 25v-205q-152 -47 -282 -47q-264 0 -326 181q-88 -90 -218 -138t-268 -49q-138 0 -229 87q-92 87 -92 202q0 114 70 184t174 100t287 52t282 43v33
q0 76 -59 123t-176 47q-177 -1 -218 -146h-301zM652 184q85 0 171 52t115 141v133q-33 -6 -93 -15q-195 -29 -260 -62t-80 -65q-15 -34 -15 -76t38 -75q39 -33 124 -33z" />
    <glyph glyph-name="b" unicode="b" horiz-adv-x="1556" 
d="M178 0v1411h342v-539q74 82 177 126t208 44q219 0 376 -148t157 -381t-163 -383t-380 -150q-289 0 -434 223q-33 -164 -39 -203h-244zM565 511q0 -141 72 -235t195 -94q239 0 239 322t-235 321q-121 0 -196 -87t-75 -227z" />
    <glyph glyph-name="c" unicode="c" horiz-adv-x="1409" 
d="M719 799q-106 0 -176 -79q-70 -80 -70 -226t70 -220t174 -73q182 0 250 164h362q-28 -99 -89 -174q-62 -76 -126 -119t-166 -74t-225 -31q-281 -1 -450 147t-169 386t172 391q172 154 443 153q397 0 554 -271q36 -63 48 -124h-375q-45 150 -227 150z" />
    <glyph glyph-name="d" unicode="d" horiz-adv-x="1556" 
d="M1026 1411h350v-1411h-352v147q-64 -77 -166 -125t-223 -49q-225 0 -372 156q-146 156 -146 377q0 102 34 191t90 149q116 125 272 170q75 20 144 20q207 0 369 -143v518zM975 508q0 152 -72 237q-73 86 -187 86t-176 -88t-62 -237q0 -150 60 -232q62 -82 176 -82t188 82
q73 82 73 234z" />
    <glyph glyph-name="e" unicode="e" horiz-adv-x="1449" 
d="M750 -35q-134 0 -248 36q-112 36 -180 92t-113 129q-80 130 -80 274q0 223 168 384q169 160 443 160t439 -173t173 -418h-852q6 -109 74 -184t216 -75t220 105h336q-50 -98 -171 -201q-69 -57 -180 -93t-245 -36zM754 813q-106 -1 -172 -57t-78 -152h487q-4 88 -67 148
q-64 60 -170 61z" />
    <glyph glyph-name="f" unicode="f" horiz-adv-x="1044" 
d="M664 748v-748h-351v748h-262v256h262v55q0 187 125 289t338 102q387 0 422 -291h-324q-4 47 -30 87t-76 40q-104 0 -104 -170v-112h311v-256h-311z" />
    <glyph glyph-name="g" unicode="g" horiz-adv-x="1579" 
d="M1386 -88q0 -142 -102 -205q-102 -62 -229 -75q-126 -13 -257 -13q-130 0 -259 3t-190 16q-63 14 -119 31q-110 33 -107 118q0 41 54 78t153 55q-100 29 -148 93q-47 65 -47 128q0 172 217 244q-90 45 -137 120t-47 163q0 139 144 251t401 111q173 0 285 -43t165 -98
q82 73 172 103t224 34v-235h-46q-166 0 -258 -43q10 -41 11 -76q0 -125 -82 -213q-149 -160 -424 -160q-84 0 -166 13q-82 14 -102 14t-66 -26q-45 -26 -45 -62t35 -54q35 -20 90 -20l485 14q211 0 303 -78t92 -188zM778 -111q-170 0 -276 -17t-107 -69q0 -84 348 -84
q205 1 298 21t94 74q0 69 -155 74q-32 1 -202 1zM714 895q-73 0 -132 -54q-60 -54 -60 -173t62 -168t136 -49q73 0 132 59t59 167t-62 163t-135 55z" />
    <glyph glyph-name="h" unicode="h" horiz-adv-x="1515" 
d="M182 0v1411h344v-604q109 227 392 227q208 0 318 -116t110 -302v-616h-351v504q0 122 -37 190q-38 68 -156 68t-198 -104t-80 -279v-379h-342z" />
    <glyph glyph-name="i" unicode="i" horiz-adv-x="704" 
d="M176 0v1004h352v-1004h-352zM176 1151v260h350v-260h-350z" />
    <glyph glyph-name="j" unicode="j" horiz-adv-x="747" 
d="M225 27v977h350v-1088q-1 -147 -115 -219t-313 -72q-63 0 -124 4v262q115 4 159 33t43 103zM227 1151v260h351v-260h-351z" />
    <glyph glyph-name="k" unicode="k" horiz-adv-x="1492" 
d="M170 0v1411h344v-827l397 420h488l-406 -369l469 -635h-434l-276 414l-238 -217v-197h-344z" />
    <glyph glyph-name="l" unicode="l" horiz-adv-x="704" 
d="M174 0v1411h358v-1411h-358z" />
    <glyph glyph-name="m" unicode="m" horiz-adv-x="2324" 
d="M178 0v1004h342v-205q111 227 404 227q131 0 232 -63t149 -172q67 111 181 173t245 62q180 0 303 -119t123 -336v-571h-349v526q0 111 -50 170t-124 60q-127 0 -210 -91t-83 -243v-422h-348v512q0 240 -182 240q-113 0 -199 -98t-86 -251v-403h-348z" />
    <glyph glyph-name="n" unicode="n" horiz-adv-x="1515" 
d="M178 0v1004h346v-213q109 236 412 235q205 0 310 -119t106 -276v-631h-351v526q0 229 -180 230q-119 0 -206 -96t-87 -261v-399h-350z" />
    <glyph glyph-name="o" unicode="o" horiz-adv-x="1449" 
d="M1335 502q0 -238 -178 -388q-177 -150 -445 -149q-268 0 -432 161t-165 384q0 223 170 377q171 153 445 153t440 -150t165 -388zM721 213q117 0 180 84t63 212t-62 206q-64 78 -178 78t-176 -77t-62 -209t58 -213q60 -81 177 -81z" />
    <glyph glyph-name="p" unicode="p" horiz-adv-x="1556" 
d="M528 -383h-348v1387h348v-156q70 88 171 137t204 49q217 0 378 -147t161 -388t-157 -384t-372 -144q-279 0 -385 156v-510zM836 815q-111 0 -186 -86q-75 -87 -75 -235t74 -236t193 -88t175 88t56 231q1 326 -237 326z" />
    <glyph glyph-name="q" unicode="q" horiz-adv-x="1556" 
d="M1384 1004v-1387h-358v514q-178 -160 -395 -160t-365 160q-147 160 -147 378t157 371q158 152 411 152t411 -221l32 193h254zM989 524q0 125 -75 216q-74 91 -186 91q-112 1 -175 -81t-63 -237t62 -240q64 -85 168 -85t186 80q83 80 83 256z" />
    <glyph glyph-name="r" unicode="r" horiz-adv-x="1024" 
d="M516 1004v-279q129 297 391 297h68v-328h-43q-135 0 -207 -20t-123 -70q-86 -86 -86 -201v-403h-350v1004h350z" />
    <glyph glyph-name="s" unicode="s" horiz-adv-x="1173" 
d="M80 285h311q31 -66 90 -95q53 -23 127 -22q193 0 193 88q0 26 -23 48q-22 22 -144 44q-364 64 -468 166q-78 78 -78 186q0 144 127 244t354 100q467 0 504 -329h-285q-10 51 -60 87t-144 36q-158 0 -158 -76q0 -20 20 -45t132 -44q110 -19 238 -55t207 -114t79 -209
q0 -69 -35 -130q-35 -60 -85 -98t-149 -67t-233 -29t-236 26q-100 27 -152 61t-92 94t-40 133z" />
    <glyph glyph-name="t" unicode="t" horiz-adv-x="1044" 
d="M654 -29q-164 0 -257 65q-92 65 -92 179v533h-231v256h239l64 364h272v-364h299v-256h-297v-398q0 -84 29 -116t117 -32t151 21v-215q-130 -37 -294 -37z" />
    <glyph glyph-name="u" unicode="u" horiz-adv-x="1515" 
d="M518 473q0 -225 200 -225q96 0 182 96t87 242v418h348v-1004h-346v203q-61 -111 -167 -170t-240 -60q-186 0 -299 121t-113 342v568h348v-531z" />
    <glyph glyph-name="v" unicode="v" horiz-adv-x="1300" 
d="M485 0l-440 1004h365l245 -635l234 635h368l-450 -1004h-322z" />
    <glyph glyph-name="w" unicode="w" horiz-adv-x="1984" 
d="M424 0l-373 1004h365l176 -619l221 619h340l221 -607l178 607h381l-387 -1004h-346l-217 606l-219 -606h-340z" />
    <glyph glyph-name="x" unicode="x" horiz-adv-x="1449" 
d="M504 539l-367 465h418l174 -320l172 320h418l-371 -469l445 -535h-447l-219 373l-215 -373h-453z" />
    <glyph glyph-name="y" unicode="y" horiz-adv-x="1300" 
d="M279 -369h-91v260h84q109 -2 164 25t78 86l-465 1002h369l254 -627l225 627h352l-461 -1059q-80 -182 -192 -248t-317 -66z" />
    <glyph glyph-name="z" unicode="z" horiz-adv-x="1323" 
d="M111 737v267h1120v-228l-594 -506h625v-270h-1184v217l602 520h-569z" />
    <glyph glyph-name="braceleft" unicode="{" horiz-adv-x="1173" 
d="M129 418v233q113 0 197 41t84 133v289q0 141 114 219q115 78 328 78h233v-246h-145q-100 1 -141 -33t-41 -104v-262q-2 -186 -314 -231q311 -45 314 -232v-262q0 -69 41 -103t141 -34h145v-246h-233q-213 0 -328 78t-114 219v289q0 92 -84 133t-197 41z" />
    <glyph glyph-name="bar" unicode="|" horiz-adv-x="1118" 
d="M457 -512v2048h205v-2048h-205z" />
    <glyph glyph-name="braceright" unicode="}" horiz-adv-x="1173" 
d="M1044 651v-233q-112 0 -196 -41t-84 -133v-289q0 -141 -115 -219t-327 -78h-234v246h145q100 0 142 34q41 34 41 103v262q2 186 313 232q-311 45 -313 231v262q0 70 -41 104t-142 33h-145v246h234q214 0 328 -78t114 -219v-289q0 -92 84 -133t196 -41z" />
    <glyph glyph-name="asciitilde" unicode="~" horiz-adv-x="1366" 
d="M903 336q-72 0 -213 70t-234 70t-180 -126l-118 164q68 90 138 138t167 48q96 0 236 -70t204 -69q107 0 187 125l118 -164q-135 -186 -305 -186z" />
    <glyph glyph-name="exclamdown" unicode="&#xa1;" horiz-adv-x="661" 
d="M510 1075v-366h-346v366h346zM514 -80q0 -162 -55 -252h-271q-41 100 -41 240t49 359q48 218 54 288h160q10 -77 57 -275t47 -360z" />
    <glyph glyph-name="cent" unicode="&#xa2;" horiz-adv-x="1409" 
d="M715 -37q-27 0 -150 8l-166 -356h-196l192 410q-137 57 -218 188t-81 276q0 233 166 393t463 160q82 0 139 -10l201 418h199l-226 -473q125 -55 194 -153t87 -181h-383q-20 49 -29 55l-235 -497q98 -11 175 29t103 132h375q-45 -168 -208 -284t-402 -115zM467 496
q0 -142 49 -205l236 500q-131 16 -208 -69q-77 -84 -77 -226z" />
    <glyph glyph-name="sterling" unicode="&#xa3;" horiz-adv-x="1941" 
d="M380 268q-54 0 -109 -28q-54 -28 -54 -70q0 -41 38 -68q37 -26 117 -26t151 47t95 106q-10 3 -34 11t-38 11q-13 3 -37 8q-23 5 -49 7t-80 2zM1307 784v-204h-398v-74q0 -111 -26 -170q211 -39 371 -39t233 47q74 47 90 168h262q0 -262 -113 -398q-112 -136 -364 -136
t-553 172q-178 -174 -401 -175q-164 1 -239 57t-75 142t92 143t211 57t217 -7q-2 92 -57 213h-393v204h346q-12 66 -12 127t13 123t54 133q41 72 106 124t177 87t236 35t220 -28t176 -85q81 -57 128 -156t45 -229h-256q-4 78 -73 148t-193 70q-125 -1 -195 -61t-70 -177
q1 -76 11 -111h430z" />
    <glyph glyph-name="currency" unicode="&#xa4;" horiz-adv-x="1366" 
d="M244 638q0 130 63 234l-201 201l142 141l201 -200q106 63 237 63t234 -63l200 200l142 -141l-201 -201q63 -102 63 -236t-63 -233l201 -202l-142 -142l-200 203q-106 -66 -236 -66t-235 64l-201 -201l-142 142l201 200q-63 107 -63 237zM684 852q-88 0 -141 -61t-53 -153
t52 -154q54 -62 142 -62t141 61t53 153t-52 154q-54 62 -142 62z" />
    <glyph glyph-name="yen" unicode="&#xa5;" horiz-adv-x="1622" 
d="M1561 874v-204h-560v-191h560v-205h-560v-274h-372v274h-568v205h568v191h-568v204h396l-410 537h422l381 -500l369 500h356l-395 -537h381z" />
    <glyph glyph-name="brokenbar" unicode="&#xa6;" horiz-adv-x="1118" 
d="M457 666v716h205v-716h-205zM457 -358v716h205v-716h-205z" />
    <glyph glyph-name="section" unicode="&#xa7;" horiz-adv-x="1343" 
d="M704 -145q200 0 199 120q0 33 -22 52q-39 39 -171 71t-274 74q-142 43 -209 109q-88 88 -88 221q0 168 158 319q-117 111 -117 250q0 81 40 146t90 106t144 70t215 29q120 0 211 -26q156 -42 224 -149q52 -82 47 -176h-264q-2 156 -234 156q-190 0 -190 -121
q0 -35 24 -55q35 -37 163 -67t265 -69t195 -96q94 -96 94 -229q0 -166 -141 -314q55 -38 86 -104t31 -126q0 -190 -155 -298q-129 -90 -358 -90t-349 88q-127 98 -119 250h303q2 -141 202 -141zM989 468q0 54 -35 89q-53 53 -263 105t-267 79q-113 -126 -29 -212
q35 -37 110 -63t208 -58t213 -58q63 64 63 118z" />
    <glyph glyph-name="dieresis" unicode="&#xa8;" 
d="M446 1186v237h228v-237h-228zM8 1186v237h223v-237h-223z" />
    <glyph glyph-name="copyright" unicode="&#xa9;" horiz-adv-x="1638" 
d="M49 707q0 337 227 539t543 202q203 0 376 -85t284 -257t111 -399t-111 -400q-111 -172 -284 -257t-376 -85q-315 0 -543 202q-227 202 -227 540zM233 707q1 -244 173 -416t414 -172t413 172q172 172 172 416q0 243 -172 415t-414 172t-414 -172t-172 -415zM850 287
q-182 0 -296 122t-114 307t110 305t296 120q137 0 232 -79t118 -226h-180q-23 121 -170 120q-88 0 -136 -63t-48 -173t52 -179q52 -70 136 -70q158 0 166 127h188q-20 -147 -120 -229t-234 -82z" />
    <glyph glyph-name="ordfeminine" unicode="&#xaa;" horiz-adv-x="972" 
d="M109 1212q0 72 49 125q50 53 116 79t178 26q214 0 279 -86q51 -67 51 -168v-217q0 -43 14 -61t58 -19q43 0 84 16v-137q-96 -33 -174 -33q-162 0 -197 119q-55 -57 -135 -90t-164 -33q-84 -1 -140 57t-56 135t42 124t106 67t176 34q110 14 169 28v18q0 111 -137 111
q-106 -1 -131 -95h-188zM297 956q0 -76 96 -75q51 0 105 31q53 32 71 87v86q-16 -2 -45 -7t-45 -7q-105 -13 -138 -38t-39 -42q-5 -18 -5 -35z" />
    <glyph glyph-name="guillemotleft" unicode="&#xab;" horiz-adv-x="1343" 
d="M666 90h-275q-141 279 -270 455q172 252 266 456h272q-41 -94 -117 -234t-136 -224q147 -203 260 -453zM1223 90h-275q-141 279 -270 455q176 252 266 456h275q-117 -258 -256 -458q156 -217 260 -453z" />
    <glyph glyph-name="logicalnot" unicode="&#xac;" horiz-adv-x="1366" 
d="M954 221v404h-786v245h1032v-649h-246z" />
    <glyph glyph-name="registered" unicode="&#xae;" horiz-adv-x="1638" 
d="M49 707q0 337 227 539t543 202q203 0 376 -85t284 -257t111 -399t-111 -400q-111 -172 -284 -257t-376 -85q-315 0 -543 202q-227 202 -227 540zM233 707q1 -244 173 -416t414 -172t413 172q172 172 172 416q0 243 -172 415t-414 172t-414 -172t-172 -415zM709 639v-311
h-189v772h338q117 0 196 -46t79 -155q1 -74 -45 -123t-123 -65v-4q88 -8 116 -59q19 -36 25 -80t6 -46l2 -12q18 -152 39 -182h-195q-12 68 -25 188t-67 123h-157zM709 975v-201h125q106 -2 106 98t-106 103h-125z" />
    <glyph glyph-name="macron" unicode="&#xaf;" 
d="M678 1208h-674v193h674v-193z" />
    <glyph glyph-name="macron" unicode="&#x2c9;" 
d="M678 1208h-674v193h674v-193z" />
    <glyph glyph-name="degree" unicode="&#xb0;" horiz-adv-x="819" 
d="M596 1112q0 84 -52 141t-134 57t-134 -56q-52 -58 -53 -142q0 -84 52 -142q53 -58 135 -58t134 58t52 142zM88 1112q0 133 94 227q94 95 228 95t227 -94q94 -94 94 -228q0 -133 -94 -228q-94 -96 -227 -96q-134 0 -228 96t-94 228z" />
    <glyph glyph-name="plusminus" unicode="&#xb1;" horiz-adv-x="1366" 
d="M168 0v246h1032v-246h-1032zM561 946v320h246v-320h393v-246h-393v-307h-246v307h-393v246h393z" />
    <glyph glyph-name="twosuperior" unicode="&#xb2;" horiz-adv-x="897" 
d="M135 1166q0 44 12 87q52 187 287 187q162 0 239 -67t77 -164t-73 -163t-261 -178h338v-153h-613v86q160 94 255 200t96 189q0 51 -26 79t-67 27q-111 0 -110 -116q0 -37 12 -82h-160q-6 24 -6 68z" />
    <glyph glyph-name="threesuperior" unicode="&#xb3;" horiz-adv-x="897" 
d="M299 1204h-168q6 236 307 236q193 0 254 -76q49 -59 49 -125q0 -111 -139 -156q88 -16 132 -58t44 -127t-79 -142q-79 -58 -247 -58t-249 60q-80 60 -92 186h170q18 -115 131 -115q44 0 72 27t28 70q0 92 -133 92h-62v115h56q51 -1 83 25t31 65q0 82 -94 82
q-43 0 -69 -28t-25 -73z" />
    <glyph glyph-name="acute" unicode="&#xb4;" 
d="M233 1139l70 344h313l-247 -344h-136z" />
    <glyph glyph-name="mu" unicode="&#xb5;" horiz-adv-x="1366" 
d="M1217 1004v-1004h-308v147q-84 -172 -231 -172t-229 111q10 -154 10 -176v-303h-309v1397h309v-551q0 -100 60 -170q59 -70 159 -70t166 80t65 184v527h308z" />
    <glyph glyph-name="mu" unicode="&#x3bc;" horiz-adv-x="1366" 
d="M1217 1004v-1004h-308v147q-84 -172 -231 -172t-229 111q10 -154 10 -176v-303h-309v1397h309v-551q0 -100 60 -170q59 -70 159 -70t166 80t65 184v527h308z" />
    <glyph glyph-name="paragraph" unicode="&#xb6;" horiz-adv-x="1433" 
d="M778 1186v-1555h-246v912q-220 0 -338 121q-118 120 -118 322t141 314t363 111h766v-225h-123v-1555h-246v1555h-199z" />
    <glyph glyph-name="periodcentered" unicode="&#xb7;" horiz-adv-x="641" 
d="M145 535v335h353v-335h-353z" />
    <glyph glyph-name="periodcentered" unicode="&#x2219;" horiz-adv-x="641" 
d="M145 535v335h353v-335h-353z" />
    <glyph glyph-name="cedilla" unicode="&#xb8;" 
d="M211 -111h260v-106q0 -117 -76 -189h-145q66 76 88 123h-127v172z" />
    <glyph glyph-name="onesuperior" unicode="&#xb9;" horiz-adv-x="897" 
d="M213 1214v105q145 2 225 108h156v-712h-260v499h-121z" />
    <glyph glyph-name="ordmasculine" unicode="&#xba;" horiz-adv-x="890" 
d="M80 1094q0 146 101 246t266 102q165 0 265 -100t101 -256q0 -156 -107 -255q-108 -98 -268 -98t-259 107q-99 108 -99 254zM446 1274q-139 0 -139 -186t139 -187q139 0 140 191q0 84 -36 133t-104 49z" />
    <glyph glyph-name="guillemotright" unicode="&#xbb;" horiz-adv-x="1343" 
d="M397 90h-274q113 250 260 453q-59 84 -136 224t-118 234h272q94 -205 267 -456q-130 -176 -271 -455zM950 92h-272q104 236 260 453q-57 80 -134 218t-122 238h274q94 -209 265 -454q-138 -191 -271 -455z" />
    <glyph glyph-name="onequarter" unicode="&#xbc;" horiz-adv-x="1921" 
d="M379 -74l866 1516h156l-864 -1516h-158zM141 1214v105q145 2 226 108h155v-712h-260v499h-121zM1645 649v-436h141v-133h-144v-146h-245v148h-357v158l314 409h291zM1393 215v262l-201 -262h201z" />
    <glyph glyph-name="onehalf" unicode="&#xbd;" horiz-adv-x="1921" 
d="M336 -74l864 1516h158l-864 -1516h-158zM166 1212v105q145 2 225 108h156v-710h-260v497h-121zM1092 388q0 94 54 175q66 99 236 99t248 -67q76 -67 76 -165t-72 -164t-262 -178h338v-154h-612v86q160 94 255 200t95 190q0 52 -27 80t-73 28t-74 -32q-29 -32 -29 -77
t12 -92h-159q-6 29 -6 71z" />
    <glyph glyph-name="threequarters" unicode="&#xbe;" horiz-adv-x="1921" 
d="M449 -74l864 1518h157l-864 -1518h-157zM276 1202h-167q6 238 307 238q191 0 254 -76q49 -59 49 -127q0 -111 -137 -156q88 -16 132 -57t44 -126t-79 -142q-79 -58 -249 -58t-250 60t-92 184h170q18 -113 131 -113q45 0 74 26t29 69q0 92 -134 92h-63v114h55q51 0 83 26
t32 67q0 82 -94 82q-43 0 -69 -29t-26 -74zM1700 649v-436h141v-133h-143v-146h-248v148h-354v158l311 409h293zM1448 215v262l-201 -262h201z" />
    <glyph glyph-name="questiondown" unicode="&#xbf;" horiz-adv-x="1323" 
d="M856 1075v-366h-352v366h352zM654 -369q-252 0 -404 115t-152 285q0 123 86 205q59 59 173 115t145 85q53 53 57 139h234q0 -156 -105 -260q-12 -12 -81 -62t-101 -97t-33 -115q0 -68 66 -117t172 -49t167 60q60 61 60 137t-27 127h275q25 -74 24 -152q0 -199 -152 -307
t-404 -109z" />
    <glyph glyph-name="Agrave" unicode="&#xc0;" horiz-adv-x="1685" 
d="M780 1546l-235 342h313l60 -342h-138zM45 0l598 1427h373l626 -1427h-389l-120 289h-617l-113 -289h-358zM1028 535l-219 514l-199 -514h418z" />
    <glyph glyph-name="Aacute" unicode="&#xc1;" horiz-adv-x="1685" 
d="M735 1546l70 344h313l-248 -344h-135zM45 0l598 1427h373l626 -1427h-389l-120 289h-617l-113 -289h-358zM1028 535l-219 514l-199 -514h418z" />
    <glyph glyph-name="Acircumflex" unicode="&#xc2;" horiz-adv-x="1685" 
d="M492 1546l198 385h258l187 -385h-162l-158 205l-166 -205h-157zM45 0l598 1427h373l626 -1427h-389l-120 289h-617l-113 -289h-358zM1028 535l-219 514l-199 -514h418z" />
    <glyph glyph-name="Atilde" unicode="&#xc3;" horiz-adv-x="1685" 
d="M684 1864q72 0 164 -42t121 -42t49 26t24 62h125q-12 -160 -72 -232q-61 -72 -139 -72t-175 44q-97 43 -115 43q-61 0 -88 -86h-121q35 299 227 299zM45 0l598 1427h373l626 -1427h-389l-120 289h-617l-113 -289h-358zM1028 535l-219 514l-199 -514h418z" />
    <glyph glyph-name="Adieresis" unicode="&#xc4;" horiz-adv-x="1685" 
d="M918 1593v238h227v-238h-227zM479 1593v238h223v-238h-223zM45 0l598 1427h373l626 -1427h-389l-120 289h-617l-113 -289h-358zM1028 535l-219 514l-199 -514h418z" />
    <glyph glyph-name="Aring" unicode="&#xc5;" horiz-adv-x="1685" 
d="M840 1681q-51 -1 -88 -37t-37 -88t37 -90q37 -36 88 -36t88 36t37 89q0 52 -37 89t-88 37zM842 1780q92 0 154 -64t62 -143q0 -80 -34 -141l629 -1432h-389l-121 289h-617l-112 -289h-359l600 1434q-35 78 -34 116q0 92 64 161q65 69 157 69zM1038 537l-219 514
l-198 -514h417z" />
    <glyph glyph-name="AE" unicode="&#xc6;" horiz-adv-x="2390" 
d="M2261 1411v-303h-780v-242h622v-305h-624v-260h813v-301h-1200v285h-514l-160 -285h-381l784 1411h1440zM1094 532v670l-4 2l-375 -672h379z" />
    <glyph glyph-name="Ccedilla" unicode="&#xc7;" horiz-adv-x="1728" 
d="M735 -111h260v-106q0 -117 -75 -189h-146q66 76 88 123h-127v172zM915 1446q614 0 719 -531h-350q-39 105 -134 165t-219 60q-313 1 -395 -284q-22 -74 -22 -156q0 -198 106 -312t268 -114t272 79q109 79 134 212h359q-13 -217 -203 -399q-92 -88 -240 -143t-320 -55
q-173 0 -309 45q-246 83 -369 289q-108 181 -108 383t69 350q125 268 443 367q141 44 299 44z" />
    <glyph glyph-name="Egrave" unicode="&#xc8;" horiz-adv-x="1556" 
d="M748 1546l-236 342h313l60 -342h-137zM193 0v1411h1230v-307h-843v-234h696v-307h-696v-256h878v-307h-1265z" />
    <glyph glyph-name="Eacute" unicode="&#xc9;" horiz-adv-x="1556" 
d="M702 1546l70 344h313l-247 -344h-136zM193 0v1411h1230v-307h-843v-234h696v-307h-696v-256h878v-307h-1265z" />
    <glyph glyph-name="Ecircumflex" unicode="&#xca;" horiz-adv-x="1556" 
d="M479 1546l199 385h258l186 -385h-161l-158 205l-166 -205h-158zM193 0v1411h1230v-307h-843v-234h696v-307h-696v-256h878v-307h-1265z" />
    <glyph glyph-name="Edieresis" unicode="&#xcb;" horiz-adv-x="1556" 
d="M905 1593v238h228v-238h-228zM467 1593v238h223v-238h-223zM193 0v1411h1230v-307h-843v-234h696v-307h-696v-256h878v-307h-1265z" />
    <glyph glyph-name="Igrave" unicode="&#xcc;" horiz-adv-x="788" 
d="M362 1546l-235 342h313l60 -342h-138zM199 0v1411h391v-1411h-391z" />
    <glyph glyph-name="Iacute" unicode="&#xcd;" horiz-adv-x="788" 
d="M287 1546l69 344h314l-248 -344h-135zM199 0v1411h391v-1411h-391z" />
    <glyph glyph-name="Icircumflex" unicode="&#xce;" horiz-adv-x="788" 
d="M74 1546l198 385h258l187 -385h-162l-158 205l-166 -205h-157zM199 0v1411h391v-1411h-391z" />
    <glyph glyph-name="Idieresis" unicode="&#xcf;" horiz-adv-x="788" 
d="M500 1593v238h227v-238h-227zM61 1593v238h224v-238h-224zM199 0v1411h391v-1411h-391z" />
    <glyph glyph-name="Eth" unicode="&#xd0;" horiz-adv-x="1835" 
d="M588 1110v-238h330v-307h-330v-258h325q186 0 282 94q95 95 95 317t-98 307t-287 85h-317zM231 0v565h-165v307h165v539h736q352 0 570 -198t218 -508q0 -276 -195 -483q-95 -102 -251 -162t-348 -60h-730z" />
    <glyph glyph-name="Ntilde" unicode="&#xd1;" horiz-adv-x="1921" 
d="M834 1864q72 0 164 -42t120 -42q29 0 49 26t25 62h125q-13 -160 -73 -232t-138 -72t-175 44q-97 43 -116 43q-61 0 -88 -86h-121q35 299 228 299zM205 0v1411h534l621 -868v868h356v-1411h-444l-711 1006v-1006h-356z" />
    <glyph glyph-name="Ograve" unicode="&#xd2;" horiz-adv-x="1855" 
d="M897 1546l-235 342h313l59 -342h-137zM1331 713q1 182 -115 306t-286 124t-287 -125t-117 -309q0 -185 116 -307t286 -122t286 126q116 125 117 307zM223 326q-110 180 -110 388q0 207 121 394q226 340 701 340q173 0 318 -51t235 -131t149 -182q108 -183 108 -375
q0 -135 -53 -265q-54 -130 -152 -235q-98 -106 -254 -171t-341 -65q-185 -1 -331 49t-238 126q-91 76 -153 178z" />
    <glyph glyph-name="Oacute" unicode="&#xd3;" horiz-adv-x="1855" 
d="M821 1546l70 344h313l-248 -344h-135zM1331 713q1 182 -115 306t-286 124t-287 -125t-117 -309q0 -185 116 -307t286 -122t286 126q116 125 117 307zM223 326q-110 180 -110 388q0 207 121 394q226 340 701 340q173 0 318 -51t235 -131t149 -182q108 -183 108 -375
q0 -135 -53 -265q-54 -130 -152 -235q-98 -106 -254 -171t-341 -65q-185 -1 -331 49t-238 126q-91 76 -153 178z" />
    <glyph glyph-name="Ocircumflex" unicode="&#xd4;" horiz-adv-x="1855" 
d="M608 1546l199 385h258l186 -385h-161l-158 205l-166 -205h-158zM1331 713q1 182 -115 306t-286 124t-287 -125t-117 -309q0 -185 116 -307t286 -122t286 126q116 125 117 307zM223 326q-110 180 -110 388q0 207 121 394q226 340 701 340q173 0 318 -51t235 -131t149 -182
q108 -183 108 -375q0 -135 -53 -265q-54 -130 -152 -235q-98 -106 -254 -171t-341 -65q-185 -1 -331 49t-238 126q-91 76 -153 178z" />
    <glyph glyph-name="Otilde" unicode="&#xd5;" horiz-adv-x="1855" 
d="M801 1864q72 0 164 -42q93 -42 121 -42t49 25q20 26 24 63h125q-12 -160 -72 -232t-139 -72q-78 0 -175 44q-97 43 -116 43q-61 0 -88 -86h-121q35 299 228 299zM1331 713q1 182 -115 306t-286 124t-287 -125t-117 -309q0 -185 116 -307t286 -122t286 126
q116 125 117 307zM223 326q-110 180 -110 388q0 207 121 394q226 340 701 340q173 0 318 -51t235 -131t149 -182q108 -183 108 -375q0 -135 -53 -265q-54 -130 -152 -235q-98 -106 -254 -171t-341 -65q-185 -1 -331 49t-238 126q-91 76 -153 178z" />
    <glyph glyph-name="Odieresis" unicode="&#xd6;" horiz-adv-x="1855" 
d="M1034 1593v238h228v-238h-228zM596 1593v238h223v-238h-223zM1331 713q1 182 -115 306t-286 124t-287 -125t-117 -309q0 -185 116 -307t286 -122t286 126q116 125 117 307zM223 326q-110 180 -110 388q0 207 121 394q226 340 701 340q173 0 318 -51t235 -131t149 -182
q108 -183 108 -375q0 -135 -53 -265q-54 -130 -152 -235q-98 -106 -254 -171t-341 -65q-185 -1 -331 49t-238 126q-91 76 -153 178z" />
    <glyph glyph-name="multiply" unicode="&#xd7;" horiz-adv-x="1366" 
d="M516 518l-326 326l168 168l326 -326l326 326l168 -168l-328 -326l328 -325l-168 -168l-326 327l-326 -327l-168 168z" />
    <glyph glyph-name="Oslash" unicode="&#xd8;" horiz-adv-x="1855" 
d="M1745 705q0 -131 -53 -261q-54 -130 -152 -235q-98 -106 -254 -171t-344 -65q-262 0 -448 101l-93 -103h-274l201 224q-109 104 -162 242t-53 254q0 230 121 417q141 212 389 294q139 46 305 46q252 0 436 -100l88 98h266l-192 -217q113 -113 166 -253t53 -271zM930 281
q168 0 284 125t117 307q0 127 -63 229l-541 -606q90 -55 203 -55zM586 481l542 606q-86 55 -192 56q-176 0 -293 -125t-117 -309q1 -128 60 -228z" />
    <glyph glyph-name="Ugrave" unicode="&#xd9;" horiz-adv-x="1748" 
d="M844 1546l-236 342h314l59 -342h-137zM563 1411v-801q0 -190 79 -271t237 -81q157 0 243 85t86 280v788h367v-840q0 -193 -99 -331t-257 -205q-158 -66 -351 -66q-330 1 -512 145t-182 439v858h389z" />
    <glyph glyph-name="Uacute" unicode="&#xda;" horiz-adv-x="1748" 
d="M768 1546l70 344h313l-248 -344h-135zM563 1411v-801q0 -190 79 -271t237 -81q157 0 243 85t86 280v788h367v-840q0 -193 -99 -331t-257 -205q-158 -66 -351 -66q-330 1 -512 145t-182 439v858h389z" />
    <glyph glyph-name="Ucircumflex" unicode="&#xdb;" horiz-adv-x="1748" 
d="M555 1546l199 385h258l186 -385h-162l-157 205l-166 -205h-158zM563 1411v-801q0 -190 79 -271t237 -81q157 0 243 85t86 280v788h367v-840q0 -193 -99 -331t-257 -205q-158 -66 -351 -66q-330 1 -512 145t-182 439v858h389z" />
    <glyph glyph-name="Udieresis" unicode="&#xdc;" horiz-adv-x="1748" 
d="M981 1593v238h227v-238h-227zM543 1593v238h223v-238h-223zM563 1411v-801q0 -190 79 -271t237 -81q157 0 243 85t86 280v788h367v-840q0 -193 -99 -331t-257 -205q-158 -66 -351 -66q-330 1 -512 145t-182 439v858h389z" />
    <glyph glyph-name="Yacute" unicode="&#xdd;" horiz-adv-x="1622" 
d="M725 1546l70 344h313l-248 -344h-135zM1010 0h-389v502l-574 911h422l381 -600l369 598h356l-565 -909v-502z" />
    <glyph glyph-name="Thorn" unicode="&#xde;" horiz-adv-x="1642" 
d="M190 0v1411h394v-260h401q297 0 439 -120t142 -296t-119 -305q-62 -68 -180 -108t-280 -39h-403v-283h-394zM578 885v-338h294q281 0 281 176q0 86 -69 124t-210 38h-296z" />
    <glyph glyph-name="germandbls" unicode="&#xdf;" horiz-adv-x="1579" 
d="M844 666v165q118 0 174 47q55 47 55 154q0 108 -60 168t-186 62q-270 0 -270 -342v-920h-344v823q0 170 26 280q57 243 290 312q127 37 301 37q435 0 558 -259q30 -65 29 -134q0 -233 -243 -309q150 -46 218 -132t68 -248t-124 -280q-124 -117 -314 -117q-104 0 -236 35
v189q74 -15 140 -15t118 60q54 60 54 188q0 127 -54 181t-165 55h-35z" />
    <glyph glyph-name="agrave" unicode="&#xe0;" horiz-adv-x="1579" 
d="M727 1139l-235 342h313l59 -342h-137zM186 692q0 106 86 197q76 75 184 113t278 38q292 0 419 -85q53 -36 85 -90t40 -101t8 -109v-331q0 -66 24 -95t90 -29t142 25v-205q-152 -47 -282 -47q-264 0 -326 181q-88 -90 -218 -138t-268 -49q-138 0 -229 87q-92 87 -92 202
q0 114 70 184t174 100t287 52t282 43v33q0 76 -59 123t-176 47q-177 -1 -218 -146h-301zM652 184q85 0 171 52t115 141v133q-33 -6 -93 -15q-195 -29 -260 -62t-80 -65q-15 -34 -15 -76t38 -75q39 -33 124 -33z" />
    <glyph glyph-name="aacute" unicode="&#xe1;" horiz-adv-x="1579" 
d="M682 1139l70 344h313l-248 -344h-135zM186 692q0 106 86 197q76 75 184 113t278 38q292 0 419 -85q53 -36 85 -90t40 -101t8 -109v-331q0 -66 24 -95t90 -29t142 25v-205q-152 -47 -282 -47q-264 0 -326 181q-88 -90 -218 -138t-268 -49q-138 0 -229 87q-92 87 -92 202
q0 114 70 184t174 100t287 52t282 43v33q0 76 -59 123t-176 47q-177 -1 -218 -146h-301zM652 184q85 0 171 52t115 141v133q-33 -6 -93 -15q-195 -29 -260 -62t-80 -65q-15 -34 -15 -76t38 -75q39 -33 124 -33z" />
    <glyph glyph-name="acircumflex" unicode="&#xe2;" horiz-adv-x="1579" 
d="M438 1139l199 385h258l186 -385h-161l-158 204l-166 -204h-158zM186 692q0 106 86 197q76 75 184 113t278 38q292 0 419 -85q53 -36 85 -90t40 -101t8 -109v-331q0 -66 24 -95t90 -29t142 25v-205q-152 -47 -282 -47q-264 0 -326 181q-88 -90 -218 -138t-268 -49
q-138 0 -229 87q-92 87 -92 202q0 114 70 184t174 100t287 52t282 43v33q0 76 -59 123t-176 47q-177 -1 -218 -146h-301zM652 184q85 0 171 52t115 141v133q-33 -6 -93 -15q-195 -29 -260 -62t-80 -65q-15 -34 -15 -76t38 -75q39 -33 124 -33z" />
    <glyph glyph-name="atilde" unicode="&#xe3;" horiz-adv-x="1579" 
d="M641 1456q72 0 164 -42t121 -42t49 26t24 62h125q-12 -160 -72 -232t-138 -71q-78 0 -176 43q-97 43 -115 43q-61 0 -88 -86h-121q35 299 227 299zM186 692q0 106 86 197q76 75 184 113t278 38q292 0 419 -85q53 -36 85 -90t40 -101t8 -109v-331q0 -66 24 -95t90 -29
t142 25v-205q-152 -47 -282 -47q-264 0 -326 181q-88 -90 -218 -138t-268 -49q-138 0 -229 87q-92 87 -92 202q0 114 70 184t174 100t287 52t282 43v33q0 76 -59 123t-176 47q-177 -1 -218 -146h-301zM652 184q85 0 171 52t115 141v133q-33 -6 -93 -15q-195 -29 -260 -62
t-80 -65q-15 -34 -15 -76t38 -75q39 -33 124 -33z" />
    <glyph glyph-name="adieresis" unicode="&#xe4;" horiz-adv-x="1579" 
d="M864 1186v237h228v-237h-228zM426 1186v237h223v-237h-223zM186 692q0 106 86 197q76 75 184 113t278 38q292 0 419 -85q53 -36 85 -90t40 -101t8 -109v-331q0 -66 24 -95t90 -29t142 25v-205q-152 -47 -282 -47q-264 0 -326 181q-88 -90 -218 -138t-268 -49
q-138 0 -229 87q-92 87 -92 202q0 114 70 184t174 100t287 52t282 43v33q0 76 -59 123t-176 47q-177 -1 -218 -146h-301zM652 184q85 0 171 52t115 141v133q-33 -6 -93 -15q-195 -29 -260 -62t-80 -65q-15 -34 -15 -76t38 -75q39 -33 124 -33z" />
    <glyph glyph-name="aring" unicode="&#xe5;" horiz-adv-x="1579" 
d="M764 1210q47 0 81 34t34 81t-34 80t-81 33t-80 -33t-33 -80t33 -81t80 -34zM769 1122q-83 0 -142 58t-60 143q-1 84 59 143q60 60 144 60t142 -60t58 -142t-58 -142q-60 -60 -143 -60zM186 692q0 106 86 197q76 75 184 113t278 38q292 0 419 -85q53 -36 85 -90t40 -101
t8 -109v-331q0 -66 24 -95t90 -29t142 25v-205q-152 -47 -282 -47q-264 0 -326 181q-88 -90 -218 -138t-268 -49q-138 0 -229 87q-92 87 -92 202q0 114 70 184t174 100t287 52t282 43v33q0 76 -59 123t-176 47q-177 -1 -218 -146h-301zM652 184q85 0 171 52t115 141v133
q-33 -6 -93 -15q-195 -29 -260 -62t-80 -65q-15 -34 -15 -76t38 -75q39 -33 124 -33z" />
    <glyph glyph-name="ae" unicode="&#xe6;" horiz-adv-x="2367" 
d="M489 308q-1 -48 45 -88t142 -40t177 31q158 60 194 188v136q-59 -14 -202 -39t-232 -54q-124 -40 -124 -134zM1657 -35q-406 0 -563 199q-276 -199 -566 -199q-172 0 -290 78t-117 202q0 228 282 306q131 37 357 65t287 39v29q0 68 -76 115t-196 47q-119 0 -189 -32
t-101 -114h-311q6 104 86 185q160 160 514 159q274 0 473 -129q178 129 417 129t412 -160t175 -429h-893q-8 -131 81 -201t237 -70t229 99h346q-66 -123 -218 -221q-153 -97 -376 -97zM1894 604q0 90 -73 154q-74 63 -188 63q-113 0 -191 -54t-84 -163h536z" />
    <glyph glyph-name="ccedilla" unicode="&#xe7;" horiz-adv-x="1409" 
d="M575 -111h261v-106q0 -117 -76 -189h-146q66 76 88 123h-127v172zM719 799q-106 0 -176 -79q-70 -80 -70 -226t70 -220t174 -73q182 0 250 164h362q-28 -99 -89 -174q-62 -76 -126 -119t-166 -74t-225 -31q-281 -1 -450 147t-169 386t172 391q172 154 443 153
q397 0 554 -271q36 -63 48 -124h-375q-45 150 -227 150z" />
    <glyph glyph-name="egrave" unicode="&#xe8;" horiz-adv-x="1449" 
d="M694 1139l-235 342h313l59 -342h-137zM750 -35q-134 0 -248 36q-112 36 -180 92t-113 129q-80 130 -80 274q0 223 168 384q169 160 443 160t439 -173t173 -418h-852q6 -109 74 -184t216 -75t220 105h336q-50 -98 -171 -201q-69 -57 -180 -93t-245 -36zM754 813
q-106 -1 -172 -57t-78 -152h487q-4 88 -67 148q-64 60 -170 61z" />
    <glyph glyph-name="eacute" unicode="&#xe9;" horiz-adv-x="1449" 
d="M618 1139l70 344h313l-247 -344h-136zM750 -35q-134 0 -248 36q-112 36 -180 92t-113 129q-80 130 -80 274q0 223 168 384q169 160 443 160t439 -173t173 -418h-852q6 -109 74 -184t216 -75t220 105h336q-50 -98 -171 -201q-69 -57 -180 -93t-245 -36zM754 813
q-106 -1 -172 -57t-78 -152h487q-4 88 -67 148q-64 60 -170 61z" />
    <glyph glyph-name="ecircumflex" unicode="&#xea;" horiz-adv-x="1449" 
d="M406 1139l198 385h258l187 -385h-162l-158 204l-166 -204h-157zM750 -35q-134 0 -248 36q-112 36 -180 92t-113 129q-80 130 -80 274q0 223 168 384q169 160 443 160t439 -173t173 -418h-852q6 -109 74 -184t216 -75t220 105h336q-50 -98 -171 -201q-69 -57 -180 -93
t-245 -36zM754 813q-106 -1 -172 -57t-78 -152h487q-4 88 -67 148q-64 60 -170 61z" />
    <glyph glyph-name="edieresis" unicode="&#xeb;" horiz-adv-x="1449" 
d="M831 1186v237h228v-237h-228zM393 1186v237h223v-237h-223zM750 -35q-134 0 -248 36q-112 36 -180 92t-113 129q-80 130 -80 274q0 223 168 384q169 160 443 160t439 -173t173 -418h-852q6 -109 74 -184t216 -75t220 105h336q-50 -98 -171 -201q-69 -57 -180 -93
t-245 -36zM754 813q-106 -1 -172 -57t-78 -152h487q-4 88 -67 148q-64 60 -170 61z" />
    <glyph glyph-name="igrave" unicode="&#xec;" horiz-adv-x="704" 
d="M322 1139l-236 342h313l60 -342h-137zM176 0v1004h352v-1004h-352z" />
    <glyph glyph-name="iacute" unicode="&#xed;" horiz-adv-x="704" 
d="M246 1139l69 344h314l-248 -344h-135zM176 0v1004h352v-1004h-352z" />
    <glyph glyph-name="icircumflex" unicode="&#xee;" horiz-adv-x="704" 
d="M33 1139l198 385h258l187 -385h-162l-158 204l-166 -204h-157zM176 0v1004h352v-1004h-352z" />
    <glyph glyph-name="idieresis" unicode="&#xef;" horiz-adv-x="704" 
d="M459 1186v237h227v-237h-227zM20 1186v237h224v-237h-224zM176 0v1004h352v-1004h-352z" />
    <glyph glyph-name="eth" unicode="&#xf0;" horiz-adv-x="1449" 
d="M1335 532q0 -260 -178 -414q-177 -154 -445 -153q-268 0 -432 161t-165 383q0 223 166 369t426 146q80 0 153 -25q-45 78 -121 158l-338 -96l-43 158l232 65q-74 51 -160 92l287 76q82 -41 149 -88l312 88l43 -158l-199 -57q154 -147 234 -331t79 -374zM721 211
q117 0 180 83t63 211t-62 205q-64 76 -178 76t-176 -76t-62 -207q0 -132 58 -212q60 -80 177 -80z" />
    <glyph glyph-name="ntilde" unicode="&#xf1;" horiz-adv-x="1515" 
d="M631 1456q72 0 164 -42q93 -42 121 -42t49 26q20 26 24 62h125q-12 -160 -72 -232t-139 -71q-78 0 -175 43t-116 43q-61 0 -88 -86h-121q35 299 228 299zM178 0v1004h346v-213q109 236 412 235q205 0 310 -119t106 -276v-631h-351v526q0 229 -180 230q-119 0 -206 -96
t-87 -261v-399h-350z" />
    <glyph glyph-name="ograve" unicode="&#xf2;" horiz-adv-x="1449" 
d="M694 1139l-235 342h313l59 -342h-137zM1335 502q0 -238 -178 -388q-177 -150 -445 -149q-268 0 -432 161t-165 384q0 223 170 377q171 153 445 153t440 -150t165 -388zM721 213q117 0 180 84t63 212t-62 206q-64 78 -178 78t-176 -77t-62 -209t58 -213q60 -81 177 -81z
" />
    <glyph glyph-name="oacute" unicode="&#xf3;" horiz-adv-x="1449" 
d="M618 1139l70 344h313l-247 -344h-136zM1335 502q0 -238 -178 -388q-177 -150 -445 -149q-268 0 -432 161t-165 384q0 223 170 377q171 153 445 153t440 -150t165 -388zM721 213q117 0 180 84t63 212t-62 206q-64 78 -178 78t-176 -77t-62 -209t58 -213q60 -81 177 -81z
" />
    <glyph glyph-name="ocircumflex" unicode="&#xf4;" horiz-adv-x="1449" 
d="M406 1139l198 385h258l187 -385h-162l-158 204l-166 -204h-157zM1335 502q0 -238 -178 -388q-177 -150 -445 -149q-268 0 -432 161t-165 384q0 223 170 377q171 153 445 153t440 -150t165 -388zM721 213q117 0 180 84t63 212t-62 206q-64 78 -178 78t-176 -77t-62 -209
t58 -213q60 -81 177 -81z" />
    <glyph glyph-name="otilde" unicode="&#xf5;" horiz-adv-x="1449" 
d="M598 1456q72 0 164 -42t121 -42t49 26t24 62h125q-12 -160 -72 -232q-61 -72 -139 -71q-78 0 -175 43t-115 43q-61 0 -88 -86h-121q35 299 227 299zM1335 502q0 -238 -178 -388q-177 -150 -445 -149q-268 0 -432 161t-165 384q0 223 170 377q171 153 445 153t440 -150
t165 -388zM721 213q117 0 180 84t63 212t-62 206q-64 78 -178 78t-176 -77t-62 -209t58 -213q60 -81 177 -81z" />
    <glyph glyph-name="odieresis" unicode="&#xf6;" horiz-adv-x="1449" 
d="M831 1186v237h228v-237h-228zM393 1186v237h223v-237h-223zM1335 502q0 -238 -178 -388q-177 -150 -445 -149q-268 0 -432 161t-165 384q0 223 170 377q171 153 445 153t440 -150t165 -388zM721 213q117 0 180 84t63 212t-62 206q-64 78 -178 78t-176 -77t-62 -209
t58 -213q60 -81 177 -81z" />
    <glyph glyph-name="divide" unicode="&#xf7;" horiz-adv-x="1366" 
d="M496 94q0 78 56 133t133 55t133 -56t56 -130t-56 -133t-132 -59t-133 56t-57 134zM496 943q0 77 56 133t133 56t133 -56q56 -58 56 -132t-56 -132t-132 -58t-133 56t-57 133zM1200 395h-1032v246h1032v-246z" />
    <glyph glyph-name="oslash" unicode="&#xf8;" horiz-adv-x="1449" 
d="M725 793q-115 0 -177 -77t-63 -210q1 -72 15 -117l344 373q-49 31 -119 31zM723 -35q-174 0 -309 68l-144 -156l-135 117l133 143q-154 154 -154 375t171 375q170 154 438 153q182 1 317 -65l140 153l137 -110l-131 -144q150 -142 150 -376t-179 -384
q-178 -150 -434 -149zM725 213q113 0 176 84t64 211q-1 67 -17 108l-344 -374q47 -29 121 -29z" />
    <glyph glyph-name="ugrave" unicode="&#xf9;" horiz-adv-x="1515" 
d="M727 1139l-235 342h313l59 -342h-137zM518 473q0 -225 200 -225q96 0 182 96t87 242v418h348v-1004h-346v203q-61 -111 -167 -170t-240 -60q-186 0 -299 121t-113 342v568h348v-531z" />
    <glyph glyph-name="uacute" unicode="&#xfa;" horiz-adv-x="1515" 
d="M651 1139l70 344h313l-248 -344h-135zM518 473q0 -225 200 -225q96 0 182 96t87 242v418h348v-1004h-346v203q-61 -111 -167 -170t-240 -60q-186 0 -299 121t-113 342v568h348v-531z" />
    <glyph glyph-name="ucircumflex" unicode="&#xfb;" horiz-adv-x="1515" 
d="M438 1139l199 385h258l186 -385h-161l-158 204l-166 -204h-158zM518 473q0 -225 200 -225q96 0 182 96t87 242v418h348v-1004h-346v203q-61 -111 -167 -170t-240 -60q-186 0 -299 121t-113 342v568h348v-531z" />
    <glyph glyph-name="udieresis" unicode="&#xfc;" horiz-adv-x="1515" 
d="M864 1186v237h228v-237h-228zM426 1186v237h223v-237h-223zM518 473q0 -225 200 -225q96 0 182 96t87 242v418h348v-1004h-346v203q-61 -111 -167 -170t-240 -60q-186 0 -299 121t-113 342v568h348v-531z" />
    <glyph glyph-name="yacute" unicode="&#xfd;" horiz-adv-x="1300" 
d="M543 1139l69 344h314l-248 -344h-135zM279 -369h-91v260h84q109 -2 164 25t78 86l-465 1002h369l254 -627l225 627h352l-461 -1059q-80 -182 -192 -248t-317 -66z" />
    <glyph glyph-name="thorn" unicode="&#xfe;" horiz-adv-x="1556" 
d="M528 1411v-563q70 88 171 137t204 49q217 0 378 -147t161 -388t-157 -384t-372 -144q-279 0 -385 156v-510h-348v1794h348zM836 815q-111 0 -186 -86q-75 -87 -75 -235t74 -236t193 -88t175 88t56 231q1 326 -237 326z" />
    <glyph glyph-name="ydieresis" unicode="&#xff;" horiz-adv-x="1300" 
d="M756 1186v237h227v-237h-227zM317 1186v237h224v-237h-224zM279 -369h-91v260h84q109 -2 164 25t78 86l-465 1002h369l254 -627l225 627h352l-461 -1059q-80 -182 -192 -248t-317 -66z" />
    <glyph glyph-name="dotlessi" unicode="&#x131;" horiz-adv-x="704" 
d="M176 0v1004h352v-1004h-352z" />
    <glyph glyph-name="Lslash" unicode="&#x141;" horiz-adv-x="1429" 
d="M219 0v420l-168 -109v369l168 108v623h389v-414l314 205v-368l-314 -205v-271h785v-358h-1174z" />
    <glyph glyph-name="lslash" unicode="&#x142;" horiz-adv-x="704" 
d="M182 0v479l-157 -104v307l157 104v625h359v-418l155 103v-308l-155 -102v-686h-359z" />
    <glyph glyph-name="OE" unicode="&#x152;" horiz-adv-x="2324" 
d="M1116 1411h1176v-301h-711v-240h557v-303h-561v-260h745v-307h-1165l-139 -2q-94 -4 -139 -4q-348 0 -567 209q-218 209 -218 499t208 503q208 212 542 212l137 -2q90 -4 135 -4zM868 1147q-166 0 -265 -116t-99 -327q0 -210 102 -318t268 -108t260 115q93 115 93 314
q-1 440 -359 440z" />
    <glyph glyph-name="oe" unicode="&#x153;" horiz-adv-x="2390" 
d="M782 793q-110 0 -184 -77t-74 -214t65 -216t183 -79t189 81q72 81 71 216q0 135 -70 212q-71 77 -180 77zM1703 180q155 0 226 101h340q-33 -96 -159 -193q-68 -53 -186 -88t-261 -35q-293 0 -442 133q-175 -133 -449 -133t-447 160t-173 389t178 379q178 149 426 149
t467 -135q179 135 455 135t437 -164t169 -429h-908q-6 -121 83 -195t244 -74zM1923 600q0 82 -73 152q-72 70 -190 70t-196 -63q-77 -63 -73 -159h532z" />
    <glyph glyph-name="Scaron" unicode="&#x160;" horiz-adv-x="1579" 
d="M786 1710l164 203h160l-195 -385h-260l-186 383h158zM810 1163q-228 0 -269 -86q-28 -50 11 -87q38 -38 198 -72t344 -94q184 -58 274 -148q117 -117 117 -266q0 -190 -176 -314t-486 -125q-213 0 -345 45t-222 136q-145 145 -156 366h349q14 -129 116 -202
q103 -72 237 -72t203 36t68 87q0 35 -34 69q-64 63 -347 118q-106 22 -226 70q-298 119 -298 377q0 156 123 283q83 84 199 123t305 39q258 0 429 -126t226 -374h-324q-31 104 -122 161q-92 56 -194 56z" />
    <glyph glyph-name="scaron" unicode="&#x161;" horiz-adv-x="1173" 
d="M573 1303l164 202h160l-195 -385h-260l-186 383h158zM80 285h311q31 -66 90 -95q53 -23 127 -22q193 0 193 88q0 26 -23 48q-22 22 -144 44q-364 64 -468 166q-78 78 -78 186q0 144 127 244t354 100q467 0 504 -329h-285q-10 51 -60 87t-144 36q-158 0 -158 -76
q0 -20 20 -45t132 -44q110 -19 238 -55t207 -114t79 -209q0 -69 -35 -130q-35 -60 -85 -98t-149 -67t-233 -29t-236 26q-100 27 -152 61t-92 94t-40 133z" />
    <glyph glyph-name="Ydieresis" unicode="&#x178;" horiz-adv-x="1622" 
d="M938 1593v238h227v-238h-227zM500 1593v238h223v-238h-223zM1010 0h-389v502l-574 911h422l381 -600l369 598h356l-565 -909v-502z" />
    <glyph glyph-name="Zcaron" unicode="&#x17d;" horiz-adv-x="1536" 
d="M766 1710l164 203h160l-195 -385h-260l-186 383h157zM145 1085v326h1248v-137l-713 -946h743v-328h-1314v131l710 954h-674z" />
    <glyph glyph-name="zcaron" unicode="&#x17e;" horiz-adv-x="1323" 
d="M659 1303l164 202h160l-195 -385h-260l-186 383h158zM111 737v267h1120v-228l-594 -506h625v-270h-1184v217l602 520h-569z" />
    <glyph glyph-name="florin" unicode="&#x192;" horiz-adv-x="1492" 
d="M1100 1194q-63 0 -88 -26t-41 -107l-10 -57h206l-34 -226h-209l-170 -962q-14 -74 -28 -116t-51 -92q-71 -99 -281 -98t-343 41l58 222q101 -23 165 -23t86 32t39 138l148 858h-203l41 226h201l16 90q31 178 75 234t94 71q223 70 536 -6l-56 -226q-88 27 -151 27z" />
    <glyph glyph-name="circumflex" unicode="&#x2c6;" 
d="M20 1139l199 385h258l187 -385h-162l-158 204l-166 -204h-158z" />
    <glyph glyph-name="caron" unicode="&#x2c7;" 
d="M338 1303l164 202h160l-195 -385h-260l-187 383h158z" />
    <glyph glyph-name="breve" unicode="&#x2d8;" 
d="M342 1348q125 0 162 131h194q-29 -156 -132 -249t-233 -93t-224 92t-125 248h192q41 -129 166 -129z" />
    <glyph glyph-name="dotaccent" unicode="&#x2d9;" 
d="M229 1186v237h224v-237h-224z" />
    <glyph glyph-name="ring" unicode="&#x2da;" 
d="M336 1210q47 0 81 34t34 81t-34 80t-80 33t-80 -33t-34 -80t33 -81t80 -34zM342 1122q-84 0 -143 58t-60 143q-1 84 59 143q60 60 144 60t142 -60t58 -142t-58 -142t-142 -60z" />
    <glyph glyph-name="ogonek" unicode="&#x2db;" 
d="M274 -161q0 -85 56 -140t158 -55q104 0 202 55v-141q-125 -74 -290 -74t-257 73t-92 205t129 271h162q-68 -109 -68 -194z" />
    <glyph glyph-name="tilde" unicode="&#x2dc;" 
d="M213 1456q72 0 164 -42t121 -42t49 26t24 62h125q-12 -160 -72 -232t-138 -71q-78 0 -176 43q-97 43 -115 43q-62 0 -89 -86h-120q35 299 227 299z" />
    <glyph glyph-name="hungarumlaut" unicode="&#x2dd;" 
d="M449 1139l69 344h313l-247 -344h-135zM70 1139l69 344h314l-248 -344h-135z" />
    <glyph glyph-name="endash" unicode="&#x2013;" horiz-adv-x="1024" 
d="M-10 393v250h1044v-250h-1044z" />
    <glyph glyph-name="emdash" unicode="&#x2014;" horiz-adv-x="2048" 
d="M-10 393v250h2068v-250h-2068z" />
    <glyph glyph-name="quoteleft" unicode="&#x2018;" horiz-adv-x="641" 
d="M496 1073v-364h-351v221q0 272 92 386t269 126v-144q-135 -80 -137 -225h127z" />
    <glyph glyph-name="quoteright" unicode="&#x2019;" horiz-adv-x="641" 
d="M145 1047v364h351v-221q0 -274 -93 -387t-268 -125v143q135 80 137 226h-127z" />
    <glyph glyph-name="quotesinglbase" unicode="&#x201a;" horiz-adv-x="641" 
d="M145 0v365h351v-222q0 -272 -92 -386t-269 -126v144q135 80 137 225h-127z" />
    <glyph glyph-name="quotedblleft" unicode="&#x201c;" horiz-adv-x="1216" 
d="M496 1073v-364h-351v221q0 272 92 386t269 126v-144q-135 -80 -137 -225h127zM1073 1073v-364h-350v221q0 270 95 391q38 47 106 81t159 40v-144q-135 -80 -137 -225h127z" />
    <glyph glyph-name="quotedblright" unicode="&#x201d;" horiz-adv-x="1216" 
d="M145 1047v364h351v-221q0 -274 -93 -387t-268 -125v145q135 78 137 224h-127zM723 1047v364h350v-221q0 -273 -95 -391q-38 -47 -106 -81t-159 -40v143q135 80 137 226h-127z" />
    <glyph glyph-name="quotedblbase" unicode="&#x201e;" horiz-adv-x="1216" 
d="M145 0v365h351v-222q0 -272 -92 -386t-269 -126v144q135 80 137 225h-127zM723 0v365h350v-222q0 -270 -95 -391q-38 -47 -106 -81t-159 -40v144q135 80 137 225h-127z" />
    <glyph glyph-name="dagger" unicode="&#x2020;" horiz-adv-x="1216" 
d="M532 922l-90 489h334l-92 -493l451 90v-330l-453 86l106 -1114h-378l120 1114l-446 -88v332z" />
    <glyph glyph-name="daggerdbl" unicode="&#x2021;" horiz-adv-x="1216" 
d="M537 915l-88 496h333l-94 -496l449 86v-325l-449 84l21 -232l-27 -235l446 90v-330l-446 88l88 -493h-332l92 495l-448 -86v328l450 -92l-24 237l27 234l-451 -88v330z" />
    <glyph glyph-name="bullet" unicode="&#x2022;" horiz-adv-x="1366" 
d="M1032 717q0 -143 -102 -245t-246 -103q-144 0 -247 101q-101 102 -102 246t101 246t246 103q144 0 248 -102q102 -103 102 -246z" />
    <glyph glyph-name="ellipsis" unicode="&#x2026;" horiz-adv-x="2433" 
d="M231 0v369h351v-369h-351zM1853 0v369h351v-369h-351zM1042 0v369h351v-369h-351z" />
    <glyph glyph-name="perthousand" unicode="&#x2030;" horiz-adv-x="3041" 
d="M2562 522q-172 0 -172 -221q0 -111 47 -164t124 -53t121 54t44 159q0 225 -164 225zM2142 302q0 164 112 274q112 108 302 108t304 -109t114 -271t-117 -272t-299 -110t-299 108t-117 272zM486 842q77 0 121 54t44 159q0 225 -164 225q-172 0 -172 -221q0 -111 47 -164
t124 -53zM899 1062q0 -162 -117 -272t-299 -110t-299 108q-116 108 -116 272q0 166 112 274t302 108q189 0 303 -109t114 -271zM518 -78l862 1518h170l-864 -1518h-168zM1169 302q1 164 113 274q112 108 302 108t303 -109q114 -109 114 -271t-117 -272t-299 -110t-299 108
t-117 272zM1589 522q-172 0 -172 -221q0 -111 47 -164t124 -53t121 54t44 159q0 225 -164 225z" />
    <glyph glyph-name="guilsinglleft" unicode="&#x2039;" horiz-adv-x="788" 
d="M666 90h-275q-139 274 -268 455q176 258 264 456h275q-123 -270 -256 -458q156 -217 260 -453z" />
    <glyph glyph-name="guilsinglright" unicode="&#x203a;" horiz-adv-x="788" 
d="M397 90h-274q113 250 260 453q-59 84 -136 224t-118 234h272q94 -205 267 -456q-130 -176 -271 -455z" />
    <glyph glyph-name="fraction" unicode="&#x2044;" horiz-adv-x="129" 
d="M-453 -74l865 1516h155l-860 -1516h-160z" />
    <glyph glyph-name="fraction" unicode="&#x2215;" horiz-adv-x="129" 
d="M-453 -74l865 1516h155l-860 -1516h-160z" />
    <glyph glyph-name="Euro" unicode="&#x20ac;" horiz-adv-x="1492" 
d="M952 -31q-604 0 -712 475h-201l82 179h98q-2 16 -2 56t2 54h-180l82 178h117q135 496 714 496q137 1 248 -29t166 -65v-287q-121 113 -383 113q-330 0 -403 -228h692l-80 -178h-641l-2 -49q0 -33 4 -61h588l-80 -179h-473q68 -209 397 -208q123 0 224 32t157 78v-289
q-135 -88 -414 -88z" />
    <glyph glyph-name="trademark" unicode="&#x2122;" horiz-adv-x="2048" 
d="M946 567v844h320l182 -489l182 489h320v-844h-221v553h-5l-186 -553h-180l-187 553h-4v-553h-221zM279 567v660h-230v184h705v-184h-230v-660h-245z" />
    <glyph glyph-name="minus" unicode="&#x2212;" horiz-adv-x="1366" 
d="M1200 395h-1032v246h1032v-246z" />
    <glyph glyph-name="fi" unicode="&#xfb01;" horiz-adv-x="1748" 
d="M1176 0v748h-488v-748h-350v748h-258v256h258v34q0 154 130 276q68 62 192 100t290 38q248 0 405 -73t167 -199h-342q-37 111 -230 110q-134 0 -198 -61t-64 -166v-59h840v-1004h-352z" />
    <glyph glyph-name="fl" unicode="&#xfb02;" horiz-adv-x="1748" 
d="M1174 1143q0 147 -228 147q-110 0 -180 -54t-70 -161v-71h478v139zM1174 0v748h-478v-748h-350v748h-262v256h262v38q0 149 124 271q144 139 488 139q180 0 306 -41h268v-1411h-358z" />
    </font>
</defs>
</svg>
