<?xml version="1.0" standalone="no"?>
<!DOCTYPE svg PUBLIC "-//W3C//DTD SVG 1.1//EN" "http://www.w3.org/Graphics/SVG/1.1/DTD/svg11.dtd" >
<svg xmlns="http://www.w3.org/2000/svg">
<metadata>
Created by FontPrep 20130207 at Thu Apr  2 00:59:36 2015
 By Callum Flack
Copyright (c) 1992 Adobe Systems Incorporated.  All Rights Reserved.Grotesque is a trademark of The Monotype Corporation plc registered in the US Patent &#38; TM Office.
</metadata>
<defs>
<font id="1cf99b7f7aba8f3b4ac48946e0aec306" horiz-adv-x='1024' >
  <font-face 
    font-family="GrotesqueMT-Light"
    font-weight="300"
    font-stretch="normal"
    units-per-em="2048"
    panose-1="2 11 4 0 0 0 0 0 0 0"
    ascent="1536"
    descent="-512"
    x-height="1012"
    cap-height="1477"
    bbox="-451 -512 2068 1960"
    underline-thickness="102"
    underline-position="-102"
    unicode-range="U+0020-FB02"
  />
<missing-glyph horiz-adv-x="491" 
 />
    <glyph glyph-name=".notdef" horiz-adv-x="491" 
 />
    <glyph glyph-name=".null" horiz-adv-x="0" 
 />
    <glyph glyph-name="nonmarkingreturn" horiz-adv-x="681" 
 />
    <glyph glyph-name="space" unicode=" " horiz-adv-x="491" 
 />
    <glyph glyph-name="space" unicode="&#xa0;" horiz-adv-x="491" 
 />
    <glyph glyph-name="exclam" unicode="!" horiz-adv-x="555" 
d="M217 0v223h123v-223h-123zM250 348l-33 1129h123l-29 -1129h-61z" />
    <glyph glyph-name="quotedbl" unicode="&#x22;" 
d="M600 1477h123v-246l-45 -285h-33l-45 285v246zM258 1477h123v-246l-45 -285h-33l-45 285v246z" />
    <glyph glyph-name="numbersign" unicode="#" horiz-adv-x="1368" 
d="M954 860h-456l-84 -403h456zM94 860v90h336l88 416h86l-88 -416h457l86 416h88l-88 -416h213v-90h-230l-86 -405h316v-88h-332l-86 -414h-90l88 414h-457l-84 -414h-90l86 414h-213v88h232l86 405h-318z" />
    <glyph glyph-name="dollar" unicode="$" horiz-adv-x="1216" 
d="M565 1438h86v-95q332 -16 421 -233q22 -51 24 -106h-97q-4 231 -348 262v-508q210 -33 287 -83q43 -28 90 -68q96 -82 94 -238q0 -94 -46 -171q-80 -133 -271 -194q-80 -25 -154 -24v-164h-86v164q-328 25 -439 258q-22 45 -32 90h103q29 -104 109 -170t259 -90v612
q-408 59 -407 326q0 92 47 162t118 106q131 65 242 69v95zM1026 390q0 54 -31 106q-31 53 -68 81q-83 61 -276 85v-599q121 9 204 49t116 94t44 92t11 92zM248 1016q0 -197 317 -242v492q-102 -8 -172 -41q-69 -33 -97 -78q-48 -78 -48 -131z" />
    <glyph glyph-name="percent" unicode="%" horiz-adv-x="1748" 
d="M1315 631q-84 0 -132 -81t-48 -226q0 -330 178 -330q84 0 131 86t47 236t-46 233q-46 82 -130 82zM1313 705q119 -1 185 -107t67 -286q0 -180 -68 -286q-69 -106 -185 -106t-184 104t-68 288q0 185 67 289t186 104zM436 -82l791 1595h80l-791 -1595h-80zM434 729
q-116 0 -184 102q-66 101 -66 289t66 290t185 103q118 0 185 -104q66 -105 66 -285t-68 -288t-184 -107zM612 1126q0 148 -46 232t-131 84t-133 -87t-48 -237t49 -233q49 -84 132 -84t130 88t47 237z" />
    <glyph glyph-name="ampersand" unicode="&#x26;" horiz-adv-x="1323" 
d="M604 -23q-180 0 -303 125t-123 301t115 290q59 58 107 94t130 87q-133 316 0 466q68 77 172 77t167 -60q63 -61 63 -145t-52 -158t-102 -110q-50 -37 -133 -90q127 -322 311 -625q68 78 100 150t42 170l78 -35q-23 -118 -58 -192t-110 -160q66 -98 172 -99q24 1 75 15
l15 -86q-136 -34 -223 10q-53 27 -109 90q-92 -63 -165 -89t-169 -26zM276 410q0 -146 104 -251t241 -106q76 0 135 25t135 84q-160 258 -326 635q-114 -73 -176 -132q-113 -109 -113 -255zM559 1154q0 -93 55 -226q233 145 234 272q0 60 -40 102t-104 42t-105 -49
q-40 -48 -40 -141z" />
    <glyph glyph-name="quotesingle" unicode="'" horiz-adv-x="555" 
d="M217 1477h123v-246l-45 -285h-33l-45 285v246z" />
    <glyph glyph-name="parenleft" unicode="(" horiz-adv-x="661" 
d="M135 563q0 278 113 545q55 129 109 208t171 197v-96q-92 -117 -134 -189t-81 -184q-84 -229 -84 -475q0 -329 113 -553q55 -108 91 -162t93 -128v-97q-117 115 -171 192t-109 206q-111 258 -111 536z" />
    <glyph glyph-name="parenright" unicode=")" horiz-adv-x="661" 
d="M432 573q0 331 -113 553q-55 109 -91 163t-93 128v96q117 -115 171 -191t110 -206q110 -258 110 -536t-112 -545q-56 -129 -110 -208t-171 -198v97q92 118 134 190t81 182q84 229 84 475z" />
    <glyph glyph-name="asterisk" unicode="*" 
d="M485 1192l154 326l92 -54l-203 -290l355 26v-104l-359 30l211 -292l-96 -54l-152 324l-141 -324l-100 56l203 288l-351 -30v110l348 -28l-198 282l96 58z" />
    <glyph glyph-name="plus" unicode="+" horiz-adv-x="1366" 
d="M145 612v88h492v494h88v-494h496v-88h-496v-489h-88v489h-492z" />
    <glyph glyph-name="comma" unicode="," horiz-adv-x="555" 
d="M217 0v221h123v-215q0 -158 -88 -282l-29 51q35 77 45 117t13 108h-64z" />
    <glyph glyph-name="hyphen" unicode="-" horiz-adv-x="661" 
d="M152 465v86h358v-86h-358z" />
    <glyph glyph-name="hyphen" unicode="&#xad;" horiz-adv-x="661" 
d="M152 465v86h358v-86h-358z" />
    <glyph glyph-name="period" unicode="." horiz-adv-x="555" 
d="M340 221v-221h-123v221h123z" />
    <glyph glyph-name="slash" unicode="/" horiz-adv-x="661" 
d="M70 -362l444 1839h80l-442 -1839h-82z" />
    <glyph glyph-name="zero" unicode="0" 
d="M156 707q0 -307 91 -477t250 -169q159 0 245 171q86 170 85 476q1 306 -87 476t-248 170t-248 -170t-88 -477zM492 -18q-194 0 -309 189t-115 533t110 535q111 191 316 191q206 0 314 -196t108 -532t-115 -529q-115 -191 -309 -191z" />
    <glyph glyph-name="one" unicode="1" 
d="M594 1423v-1423h-86v1257q-80 -81 -146 -119t-182 -77v76q147 61 221 123t127 163h66z" />
    <glyph glyph-name="two" unicode="2" 
d="M82 1051q0 160 119 266t292 106q173 1 289 -113t115 -286q0 -172 -158 -328q-29 -29 -208 -176t-207 -174q-74 -80 -103 -130t-43 -128h696v-88h-778q4 226 157 381q71 72 187 165t160 134q140 127 178 225q25 63 25 133q0 125 -93 213q-92 88 -224 88t-224 -88t-92 -211
q0 -55 49 -155l-67 -60q-70 123 -70 226z" />
    <glyph glyph-name="three" unicode="3" 
d="M909 406q0 -186 -121 -306t-299 -120t-298 101t-119 245q0 37 10 108l80 -28q-4 -27 -4 -72q0 -115 94 -195t235 -80q141 1 237 97t97 246q0 150 -102 240q-102 91 -275 91q-47 0 -71 -2v82q35 -4 98 -4q131 0 214 75q83 74 83 192t-83 196t-204 78t-205 -64t-83 -151
q0 -25 10 -76l-92 -33q-10 68 -11 86q0 141 102 229q102 89 269 89q168 0 278 -100t109 -257q0 -197 -223 -303q145 -59 209 -144q65 -85 65 -220z" />
    <glyph glyph-name="four" unicode="4" 
d="M725 1421v-989h215v-86h-215v-346h-82v346h-602v105l631 970h53zM643 432v807l-522 -807h522z" />
    <glyph glyph-name="five" unicode="5" 
d="M836 1409v-78h-586l-33 -526q123 131 289 131t282 -136t117 -339q0 -203 -124 -341t-310 -138q-129 0 -223 56q-161 96 -170 331l88 32q2 -95 32 -165t66 -103t90 -53q55 -20 107 -21q156 0 254 113t98 291t-91 289t-237 110q-113 0 -200 -78q-35 -34 -51 -66t-29 -93
l-76 18l49 766h658z" />
    <glyph glyph-name="six" unicode="6" 
d="M535 1358q-202 0 -297 -236q-42 -102 -58 -187t-24 -253q119 260 352 260q174 0 295 -138t121 -340t-121 -342t-297 -140q-209 0 -329 175t-120 511t132 551q133 215 367 215t353 -279l-86 -43q-86 246 -288 246zM168 471q0 -174 96 -294t239 -120q142 0 234 118t92 289
t-96 286q-96 114 -235 114t-235 -109q-95 -110 -95 -284z" />
    <glyph glyph-name="seven" unicode="7" 
d="M96 1313v88h789v-72q-164 -338 -251 -640t-136 -689h-117q37 299 126 569t292 744h-703z" />
    <glyph glyph-name="eight" unicode="8" 
d="M100 1085q0 143 116 243t279 102q163 0 277 -100t113 -247q0 -225 -252 -319q111 -35 168 -82q127 -104 127 -284t-122 -299q-122 -117 -310 -117t-315 118q-126 119 -126 297q0 143 75 229t222 136q-172 72 -225 188q-27 59 -27 135zM491 717q-153 0 -247 -91t-94 -243
t106 -242t249 -85q144 4 237 96q94 92 94 238t-96 236q-96 91 -249 91zM795 1084q0 120 -81 193t-216 73q-136 0 -222 -71t-86 -193t94 -206q94 -83 218 -79q123 4 208 84q85 79 85 199z" />
    <glyph glyph-name="nine" unicode="9" 
d="M446 59q98 -1 176 61t123 177q39 92 55 177q15 85 23 247q-51 -98 -102 -146q-106 -100 -246 -100q-172 0 -293 136t-121 338t121 341t303 140q62 0 135 -26q72 -26 118 -70q46 -46 89 -112q93 -144 93 -438q0 -387 -130 -595t-372 -207q-195 0 -303 197q-23 40 -39 83
l84 43q88 -246 286 -246zM154 949q0 -173 93 -285t232 -111q139 0 236 107q96 108 96 258q0 194 -93 316q-94 122 -236 122t-235 -117t-93 -290z" />
    <glyph glyph-name="colon" unicode=":" horiz-adv-x="555" 
d="M217 0v221h123v-221h-123zM217 788v220h123v-220h-123z" />
    <glyph glyph-name="semicolon" unicode=";" horiz-adv-x="555" 
d="M217 0v221h123v-225q0 -147 -84 -272l-29 49q53 109 56 227h-66zM340 788h-123v220h123v-220z" />
    <glyph glyph-name="less" unicode="&#x3c;" horiz-adv-x="1366" 
d="M1219 260v-98l-1072 456v78l1072 453v-96l-955 -396z" />
    <glyph glyph-name="equal" unicode="=" horiz-adv-x="1366" 
d="M147 379v88h1072v-88h-1072zM147 846v88h1072v-88h-1072z" />
    <glyph glyph-name="greater" unicode="&#x3e;" horiz-adv-x="1366" 
d="M147 1053v96l1072 -455v-80l-1072 -452v96l955 397z" />
    <glyph glyph-name="question" unicode="?" 
d="M422 0v221h123v-221h-123zM502 1509q143 0 236 -98q93 -99 93 -233q-1 -134 -37 -220t-133 -190t-120 -166q-23 -61 -25 -258h-72q2 233 27 306t150 220q63 76 90 138t26 141q-1 121 -71 195t-183 73q-76 0 -129 -38q-90 -65 -111 -211q-9 -56 -5 -105l-88 59
q0 128 61 241q35 65 110 105t181 41z" />
    <glyph glyph-name="at" unicode="@" horiz-adv-x="1638" 
d="M403 420q0 -142 76 -242t193 -100q86 0 165 61t130 153q112 203 110 374q0 123 -80 212t-188 89q-170 0 -288 -167t-118 -380zM1073 131q0 -41 62 -41q125 0 258 169t133 392q0 166 -61 306q-153 356 -617 356q-334 -1 -551 -227t-217 -573t216 -563t564 -216
q291 0 488 129q59 37 96 73t96 111h102q-61 -92 -105 -138t-122 -99q-229 -156 -569 -156q-377 0 -614 242t-236 624q0 257 122 471q67 117 165 205t252 143t342 56q333 0 533 -204t200 -540q0 -247 -161 -449t-359 -202q-117 0 -117 111q0 31 8 73q-158 -184 -350 -184
q-145 0 -242 123q-96 123 -96 307q0 242 152 425q153 183 356 183t307 -192l35 168h112l-170 -803l-8 -45q-4 -33 -4 -35z" />
    <glyph glyph-name="A" unicode="A" horiz-adv-x="1536" 
d="M98 0l613 1477h116l611 -1477h-97l-170 406h-804l-170 -406h-99zM1137 494l-367 882l-367 -882h734z" />
    <glyph glyph-name="B" unicode="B" horiz-adv-x="1429" 
d="M219 0v1477h535q223 -1 349 -91t126 -249q0 -70 -27 -126q-26 -56 -58 -89q-70 -74 -261 -129q147 -27 229 -70t132 -128t50 -188t-44 -180t-95 -123t-142 -74q-91 -30 -208 -30h-586zM664 752h-347v-668h478q177 0 287 89t110 243t-139 245t-389 91zM752 1395h-435v-559
h371q195 0 319 80q123 80 123 208q0 127 -101 199t-277 72z" />
    <glyph glyph-name="C" unicode="C" horiz-adv-x="1429" 
d="M766 -49q-289 -1 -467 197t-178 562t171 583q171 220 449 220q304 0 482 -225q37 -47 55 -92l-68 -59q-46 89 -122 157q-147 131 -338 129q-238 0 -380 -190t-142 -511t140 -500q142 -179 400 -179q330 0 471 311l70 -69q-17 -71 -153 -194q-65 -58 -169 -99t-221 -41z
" />
    <glyph glyph-name="D" unicode="D" horiz-adv-x="1536" 
d="M227 0v1477h508q299 0 478 -208t179 -554t-198 -541q-180 -174 -522 -174h-445zM692 1389h-364v-1297h356q156 0 260 36t182 116q164 170 164 494t-174 497q-152 154 -424 154z" />
    <glyph glyph-name="E" unicode="E" horiz-adv-x="1216" 
d="M207 0v1477h874l-43 -93h-733v-579h647v-92h-647v-621h754l35 -92h-887z" />
    <glyph glyph-name="F" unicode="F" horiz-adv-x="1087" 
d="M180 0v1477h811l-16 -93h-696v-581h604v-92h-604v-711h-99z" />
    <glyph glyph-name="G" unicode="G" horiz-adv-x="1429" 
d="M1266 690v-442q-37 -60 -67 -100t-89 -92q-121 -107 -352 -105q-272 0 -454 215q-181 215 -181 554t179 565t460 226q121 1 216 -35t150 -94q95 -100 125 -182l-67 -76q-62 152 -160 224t-260 71q-240 -1 -388 -197t-148 -505t151 -491q152 -182 403 -183q127 0 216 51
t167 160v342h-522v94h621z" />
    <glyph glyph-name="H" unicode="H" horiz-adv-x="1536" 
d="M219 0v1477h98v-670h902v670h98v-1477h-98v715h-902v-715h-98z" />
    <glyph glyph-name="I" unicode="I" horiz-adv-x="555" 
d="M227 0v1477h101v-1477h-101z" />
    <glyph glyph-name="J" unicode="J" 
d="M680 352v1125h98v-1106q0 -189 -85 -293t-243 -104t-243 92q-86 94 -86 262q0 43 4 86l113 57q-18 -90 -19 -145q0 -262 234 -263q109 0 168 75t59 214z" />
    <glyph glyph-name="K" unicode="K" horiz-adv-x="1536" 
d="M287 0v1477h98v-797l844 797h135l-545 -514l596 -963h-104l-561 897l-365 -344v-553h-98z" />
    <glyph glyph-name="L" unicode="L" horiz-adv-x="1087" 
d="M229 0v1477h101v-1389h692v-88h-793z" />
    <glyph glyph-name="M" unicode="M" horiz-adv-x="1748" 
d="M188 0v1477h170l516 -1287l519 1287h168v-1477h-101v1411l-561 -1411h-47l-565 1401v-1401h-99z" />
    <glyph glyph-name="N" unicode="N" horiz-adv-x="1536" 
d="M219 0v1477h139l861 -1344v1344h100v-1477h-125l-877 1366v-1366h-98z" />
    <glyph glyph-name="O" unicode="O" horiz-adv-x="1536" 
d="M760 41q135 0 240 55t163 133q57 78 105 208t49 278q0 324 -152 515q-151 191 -399 191t-396 -189q-148 -190 -148 -496t150 -500t388 -195zM767 -49q-284 0 -467 220t-183 562t182 561t469 219t469 -221t182 -563t-184 -560t-468 -218z" />
    <glyph glyph-name="P" unicode="P" horiz-adv-x="1323" 
d="M201 0v1477h553q200 0 326 -116q126 -117 126 -305t-125 -298t-344 -109h-438v-649h-98zM745 1393h-446v-660h408q188 0 292 88q105 87 105 239t-99 243q-100 90 -260 90z" />
    <glyph glyph-name="Q" unicode="Q" horiz-adv-x="1536" 
d="M1317 715q0 321 -152 515q-153 194 -401 194t-395 -190q-147 -189 -148 -499q0 -208 76 -379q43 -96 106 -167t167 -111t237 -33q-49 69 -83 101t-91 69l67 61q76 -51 117 -91t98 -122q137 33 260 182q62 75 102 197t40 273zM731 -45q-250 0 -431 213t-181 561t182 566
t470 218t468 -222t180 -574q0 -145 -36 -268q-61 -207 -204 -337q-110 -99 -202 -122q90 -111 192 -166l-71 -57q-117 68 -221 196q-108 -8 -146 -8z" />
    <glyph glyph-name="R" unicode="R" horiz-adv-x="1429" 
d="M211 0v1477h600q197 -1 319 -107t123 -275q0 -169 -131 -278q-68 -57 -188 -92l366 -725h-100l-362 709h-527v-709h-100zM811 1393h-500v-598h455q176 0 282 82q105 82 105 214t-98 217q-99 85 -244 85z" />
    <glyph glyph-name="S" unicode="S" horiz-adv-x="1323" 
d="M684 47q182 0 299 92q117 91 117 231t-114 222t-355 167t-322 167q-39 39 -69 100q-31 61 -31 133q0 164 120 257t325 93t320 -91q58 -46 90 -80t75 -93l-70 -96q-145 274 -401 274q-162 -1 -258 -73t-97 -195q0 -96 85 -163q84 -67 258 -128t252 -99q208 -101 263 -215
q35 -71 35 -161q0 -195 -146 -315t-382 -121q-270 0 -448 200q-83 94 -111 179l84 65q127 -350 481 -350z" />
    <glyph glyph-name="T" unicode="T" horiz-adv-x="1323" 
d="M135 1382v95h1053v-95h-477v-1382h-99v1382h-477z" />
    <glyph glyph-name="U" unicode="U" horiz-adv-x="1536" 
d="M213 496v981h100v-981q0 -457 478 -457q211 0 323 116t113 334v988h98v-975q0 -270 -143 -412q-144 -142 -410 -141q-266 0 -413 145q-146 146 -146 402z" />
    <glyph glyph-name="V" unicode="V" horiz-adv-x="1323" 
d="M614 0l-512 1477h95l467 -1344l462 1344h97l-506 -1477h-103z" />
    <glyph glyph-name="W" unicode="W" horiz-adv-x="1984" 
d="M510 0l-424 1477h94l383 -1325l379 1325h100l383 -1325l379 1325h97l-422 -1477h-103l-383 1325l-377 -1325h-106z" />
    <glyph glyph-name="X" unicode="X" horiz-adv-x="1323" 
d="M604 809l-420 668h105l366 -584l359 584h106l-411 -670l508 -807h-105l-455 723l-446 -723h-102z" />
    <glyph glyph-name="Y" unicode="Y" horiz-adv-x="1323" 
d="M694 0h-100v713l-467 764h104l418 -682l443 682h106l-504 -772v-705z" />
    <glyph glyph-name="Z" unicode="Z" horiz-adv-x="1216" 
d="M113 1386v91h972l-837 -1389h880v-88h-1040l836 1386h-811z" />
    <glyph glyph-name="bracketleft" unicode="[" horiz-adv-x="661" 
d="M131 -344v1823h401v-72h-309v-1679h309v-72h-401z" />
    <glyph glyph-name="backslash" unicode="\" horiz-adv-x="661" 
d="M512 -362l-442 1839h82l442 -1839h-82z" />
    <glyph glyph-name="bracketright" unicode="]" horiz-adv-x="661" 
d="M129 1407v72h401v-1823h-399v72h311v1679h-313z" />
    <glyph glyph-name="asciicircum" unicode="^" horiz-adv-x="1351" 
d="M227 954l449 537l448 -537l-65 -55l-383 463l-385 -463z" />
    <glyph glyph-name="underscore" unicode="_" horiz-adv-x="1024" 
d="M1024 -256h-1024v102h1024v-102z" />
    <glyph glyph-name="grave" unicode="`" horiz-adv-x="681" 
d="M385 1165l-313 308h176l198 -308h-61z" />
    <glyph glyph-name="a" unicode="a" horiz-adv-x="1087" 
d="M895 733v-561q-1 -51 21 -83t57 -32q8 0 49 9v-82q-37 -10 -66 -11q-63 1 -102 51t-47 142q-143 -190 -373 -191q-135 -1 -231 91t-97 221q0 76 33 136t77 95t119 65t200 52q125 23 167 39t105 65q4 113 -61 166q-59 52 -197 56q-143 1 -227 -53t-117 -171l-70 60
q19 45 37 75t64 74q95 94 321 92q180 0 277 -92q37 -37 49 -80t12 -133zM807 365v280q-72 -37 -116 -51t-142 -31q-346 -59 -346 -264q-1 -109 71 -177t204 -67q132 0 231 88q98 89 98 222z" />
    <glyph glyph-name="b" unicode="b" horiz-adv-x="1216" 
d="M229 0v1477h88v-672q67 123 149 181t202 58q176 0 290 -150t113 -386q0 -238 -112 -388t-293 -151q-148 0 -239 97q-62 66 -110 147v-213h-88zM317 588v-162q-1 -158 97 -268t241 -111q143 0 234 129q90 129 90 335t-91 331q-90 125 -236 125q-146 1 -240 -107t-95 -272z
" />
    <glyph glyph-name="c" unicode="c" horiz-adv-x="1087" 
d="M113 509q0 232 129 383q129 150 324 150t290 -119q44 -56 62 -89t36 -80l-77 -43q-96 254 -308 254q-158 0 -259 -128t-101 -326q1 -198 109 -331t268 -133q212 0 321 242l70 -39q-29 -53 -51 -87t-68 -86q-98 -108 -272 -108q-207 0 -340 154t-133 386z" />
    <glyph glyph-name="d" unicode="d" horiz-adv-x="1216" 
d="M899 1477h88v-1477h-88v223q-111 -254 -340 -254q-182 -1 -297 143t-115 373q0 147 38 261q39 114 99 176q121 123 269 121q149 -1 235 -91q64 -67 111 -149v674zM899 414v145q0 184 -89 294t-240 110q-152 0 -240 -124t-88 -335t90 -333t234 -122q144 -1 239 107
q94 108 94 258z" />
    <glyph glyph-name="e" unicode="e" horiz-adv-x="1087" 
d="M561 -29q-213 1 -330 141t-117 391t119 394t316 143q279 0 383 -268q41 -104 41 -291h-766q4 -125 30 -199t82 -135q98 -98 271 -98q231 0 301 225l67 -43q-31 -86 -69 -129q-115 -131 -328 -131zM565 965q-91 0 -159 -33t-103 -74t-62 -120t-34 -179h678q-2 115 -34 198
t-70 121t-91 60t-77 25q-24 2 -48 2z" />
    <glyph glyph-name="f" unicode="f" horiz-adv-x="661" 
d="M256 1012v291q0 203 225 202q47 0 117 -12v-78q-84 15 -138 15q-114 1 -114 -136v-282h256v-82h-256v-930h-90v930h-236v82h236z" />
    <glyph glyph-name="g" unicode="g" horiz-adv-x="1216" 
d="M928 467v111q0 168 -95 280t-243 111q-148 0 -243 -129t-95 -334t93 -336t237 -131t246 126q100 126 100 302zM928 66v184q-65 -141 -151 -210t-204 -69q-180 0 -297 150q-116 149 -116 383t118 386t302 152q54 0 122 -26q137 -53 226 -242v238h88v-975q0 -199 -113 -313
t-305 -115q-291 0 -375 201q-23 53 -24 133l90 -25q11 -86 60 -155q61 -85 232 -85t259 90t88 298z" />
    <glyph glyph-name="h" unicode="h" horiz-adv-x="1216" 
d="M215 0v1477h90v-686q119 252 354 251q158 0 250 -103t92 -280v-659h-88v623q1 161 -69 251t-207 90t-235 -108q-98 -109 -97 -276v-580h-90z" />
    <glyph glyph-name="i" unicode="i" horiz-adv-x="555" 
d="M233 0v1012h89v-1012h-89zM233 1249v185h86v-185h-86z" />
    <glyph glyph-name="j" unicode="j" horiz-adv-x="555" 
d="M240 -145v1157h88v-1151q0 -252 -195 -252q-29 0 -113 14v80q57 -14 89 -14q131 0 131 166zM240 1249v185h88v-185h-88z" />
    <glyph glyph-name="k" unicode="k" 
d="M172 0v1477h88v-969l483 504h111l-307 -322l346 -690h-92l-316 625l-225 -236v-389h-88z" />
    <glyph glyph-name="l" unicode="l" horiz-adv-x="555" 
d="M233 0v1477h89v-1477h-89z" />
    <glyph glyph-name="m" unicode="m" horiz-adv-x="1748" 
d="M274 1012v-207q94 178 208 219q56 20 129 20t129 -24q113 -49 167 -221q74 174 192 221q62 25 146 24q143 0 231 -105t89 -280v-659h-90v618q0 166 -66 260q-65 94 -189 93q-124 1 -212 -101t-88 -254v-616h-91v678q0 127 -66 210q-67 83 -167 83q-131 1 -226 -105
t-96 -250v-616h-90v1012h90z" />
    <glyph glyph-name="n" unicode="n" horiz-adv-x="1216" 
d="M1004 643v-643h-91v627q0 160 -71 251q-72 91 -204 91t-234 -110t-103 -259v-600h-88v1012h88v-228q115 260 356 260q163 0 255 -106t92 -295z" />
    <glyph glyph-name="o" unicode="o" horiz-adv-x="1087" 
d="M545 1040q195 0 321 -152t127 -382q0 -231 -127 -383q-128 -152 -322 -152t-321 152t-127 383q0 230 127 382t322 152zM545 965q-166 0 -260 -123q-95 -123 -95 -336t94 -335t261 -122q166 0 261 122t95 335t-95 336t-261 123z" />
    <glyph glyph-name="p" unicode="p" horiz-adv-x="1216" 
d="M668 -29q-230 0 -351 242v-602h-88v1401h88v-203q41 70 75 112q34 41 106 81t161 40q182 0 296 -144t114 -383t-112 -391t-289 -153zM317 580v-84q0 -217 86 -332t238 -115t246 119q37 47 62 138q26 91 26 210q0 203 -92 326q-91 123 -237 123q-146 1 -238 -109t-91 -276
z" />
    <glyph glyph-name="q" unicode="q" horiz-adv-x="1216" 
d="M920 -389v600q-45 -92 -103 -145q-102 -96 -233 -97q-184 0 -301 150q-117 151 -117 391t115 387t307 147q141 0 228 -95q59 -65 104 -142v205h88v-1401h-88zM920 428v150q0 164 -92 276t-236 111q-142 0 -237 -130t-95 -331t91 -327t238 -126q147 -1 239 103t92 274z
" />
    <glyph glyph-name="r" unicode="r" horiz-adv-x="768" 
d="M293 1012v-348q58 199 129 284q120 144 301 64l-6 -103q-72 41 -123 41q-86 0 -150 -65q-99 -104 -135 -338q-12 -78 -12 -133v-414h-88v1012h84z" />
    <glyph glyph-name="s" unicode="s" 
d="M506 43q129 0 210 59q81 60 81 148t-67 138t-226 94t-224 83t-91 86t-25 111q0 127 95 203q95 75 241 75t229 -57q84 -57 141 -182l-84 -45q-36 108 -102 160t-178 52t-182 -52q-72 -52 -72 -133t57 -126t236 -89t260 -117q82 -74 82 -197q-1 -123 -105 -203t-268 -80
q-348 0 -420 303l86 48q49 -279 326 -279z" />
    <glyph glyph-name="t" unicode="t" horiz-adv-x="661" 
d="M334 1012h252v-82h-252v-748q0 -68 34 -98t89 -31q55 0 125 13v-74q-84 -14 -131 -15q-207 0 -207 181v772h-207v82h207v403l90 45v-448z" />
    <glyph glyph-name="u" unicode="u" horiz-adv-x="1216" 
d="M217 369v643h88v-637q0 -150 74 -239t206 -89t229 109t97 264v592h88v-1012h-88v219q-119 -250 -356 -250q-154 0 -246 109t-92 291z" />
    <glyph glyph-name="v" unicode="v" 
d="M440 0l-354 1012h80l323 -910l320 910h86l-356 -1012h-99z" />
    <glyph glyph-name="w" unicode="w" horiz-adv-x="1536" 
d="M408 0l-324 1012h84l283 -889l282 889h76l281 -891l282 891h82l-319 -1012h-88l-277 866l-274 -866h-88z" />
    <glyph glyph-name="x" unicode="x" 
d="M428 526l-342 486h102l289 -412l271 412h92l-314 -480l373 -532h-104l-320 457l-299 -457h-94z" />
    <glyph glyph-name="y" unicode="y" 
d="M227 -389h-86l4 84h95q104 0 145 52t94 222l-393 1043h84l346 -924l299 924h80l-363 -1139q-46 -150 -112 -206t-193 -56z" />
    <glyph glyph-name="z" unicode="z" 
d="M199 934v78h622v-56l-567 -878h582v-78h-693v59l566 875h-510z" />
    <glyph glyph-name="braceleft" unicode="{" horiz-adv-x="681" 
d="M303 975v104q0 129 3 185q8 139 91 211q55 45 140 38v-110q-68 -2 -96 -24q-28 -21 -38 -87t-10 -194t-1 -171q-3 -149 -34 -214q-40 -93 -125 -142q82 -47 115 -119t39 -134t6 -210t2 -219q2 -70 14 -92q27 -46 70 -52q20 -3 58 -5v-111q-151 -4 -197 104
q-37 87 -37 242v193q0 112 -10 178t-45 113t-101 49v127q138 5 153 226q3 44 3 114z" />
    <glyph glyph-name="bar" unicode="|" horiz-adv-x="1015" 
d="M463 -512v2048h88v-2048h-88z" />
    <glyph glyph-name="braceright" unicode="}" horiz-adv-x="681" 
d="M379 168v-105q0 -129 -3 -184t-25 -115q-21 -60 -71 -100q-50 -41 -135 -35v111q68 2 96 24t38 86q10 66 10 194t1 172q3 149 34 214q41 94 125 141q-82 47 -115 119t-39 134t-6 244q0 247 -20 284t-53 43t-71 8v110q151 4 197 -103q37 -87 37 -243v-192q0 -111 10 -177
t45 -114q35 -47 101 -49v-127q-107 -4 -136 -124q-20 -83 -20 -216z" />
    <glyph glyph-name="asciitilde" unicode="~" horiz-adv-x="1343" 
d="M922 594q-56 0 -110 18t-190 80t-196 64q-119 0 -289 -131v100q156 121 289 121q86 0 257 -82t239 -82t130 30t154 107v-104q-145 -121 -284 -121z" />
    <glyph glyph-name="exclamdown" unicode="&#xa1;" horiz-adv-x="555" 
d="M217 -340l31 1131h61l31 -1131h-123zM217 915v222h123v-222h-123z" />
    <glyph glyph-name="cent" unicode="&#xa2;" horiz-adv-x="1087" 
d="M586 47q213 0 321 242l70 -39q-29 -53 -51 -87t-68 -86q-98 -108 -272 -108q-100 0 -189 41l-147 -420h-76l162 455q-104 68 -164 192q-59 124 -59 281q0 223 129 374t317 150q72 0 125 -18l139 391h74l-147 -414q137 -68 204 -247l-77 -43q-57 152 -156 211l-295 -832
q72 -43 160 -43zM209 510q0 -242 158 -377l290 819q-41 12 -88 13q-158 0 -259 -128t-101 -327z" />
    <glyph glyph-name="sterling" unicode="&#xa3;" horiz-adv-x="1323" 
d="M1108 1061q6 279 -266 287q-139 0 -216 -100t-77 -277q0 -92 18 -223h451v-86h-436q20 -121 20 -232t-27 -207q9 -4 25 -14q248 -150 356 -150q109 0 167 88t59 205l73 21q-2 -209 -93 -303t-220 -95q-72 0 -138 26t-179 97l-82 52q-115 -176 -271 -177q-88 0 -145 43
t-57 113t70 122q71 52 156 52t216 -47q14 88 14 156t-26 245h-363v91h344q-20 133 -20 215q0 219 100 339t283 119q134 0 235 -80q53 -41 84 -117t29 -177zM313 227q-69 1 -119 -29t-50 -69t31 -61q32 -22 87 -21q127 0 217 133q-96 47 -166 47z" />
    <glyph glyph-name="currency" unicode="&#xa4;" horiz-adv-x="1366" 
d="M684 1102q160 0 281 -103l125 125l61 -63l-123 -123q100 -123 100 -283t-102 -278l125 -127l-61 -62l-125 127q-121 -102 -282 -102t-280 102l-127 -127l-63 62l129 127q-102 119 -102 281t100 280l-127 123l63 63l125 -123q123 101 283 101zM684 1010q-148 0 -252 -104
t-104 -250q0 -148 104 -252t252 -103q148 0 250 103q102 102 102 250t-102 252q-103 104 -250 104z" />
    <glyph glyph-name="yen" unicode="&#xa5;" horiz-adv-x="1323" 
d="M592 471v225h-463v84h426l-426 697h102l414 -678l442 678h107l-457 -697h457v-84h-502v-225h502v-84h-502v-387h-100v387h-463v84h463z" />
    <glyph glyph-name="brokenbar" unicode="&#xa6;" horiz-adv-x="1015" 
d="M463 666v716h88v-716h-88zM463 -358v716h88v-716h-88z" />
    <glyph glyph-name="section" unicode="&#xa7;" 
d="M150 1223q0 123 98 201t252 77q221 0 293 -160q20 -47 28 -124l-84 -21q-21 125 -77 179q-56 55 -168 55t-183 -58t-71 -145q0 -89 58 -141t166 -110t150 -82q131 -75 202 -161t71 -198q0 -209 -262 -330q201 -104 200 -281q0 -127 -96 -207q-95 -79 -245 -79t-235 72
t-93 204l86 31q20 -233 243 -234q113 -1 185 57t72 150t-78 153q-52 41 -212 127t-256 180t-96 233q0 140 105 225q74 59 155 94q-151 92 -188 182q-20 49 -20 111zM799 518q0 97 -66 175q-59 70 -297 192q-254 -84 -254 -271q0 -90 54 -152t206 -149l107 -59
q250 90 250 264z" />
    <glyph glyph-name="dieresis" unicode="&#xa8;" horiz-adv-x="681" 
d="M500 1284v148h86v-148h-86zM96 1284v150h86v-150h-86z" />
    <glyph glyph-name="copyright" unicode="&#xa9;" horiz-adv-x="1638" 
d="M1491 727q0 279 -197 475q-198 196 -476 197q-278 0 -474 -197q-196 -198 -194 -476q0 -278 196 -474t474 -195q278 -1 474 195t197 475zM1583 727q0 -317 -224 -541q-223 -224 -539 -223q-316 0 -540 223q-224 222 -224 540t224 542t539 223q315 0 540 -223
q224 -224 224 -541zM810 291q-148 0 -260 125q-110 125 -110 309t109 302t280 118q209 0 322 -221l-96 -29q-72 166 -224 166q-129 0 -205 -90t-77 -243q0 -153 76 -250t196 -97q90 0 147 47q56 47 101 158l90 -33q-31 -109 -116 -185t-233 -77z" />
    <glyph glyph-name="ordfeminine" unicode="&#xaa;" horiz-adv-x="681" 
d="M551 1319v-365q0 -25 16 -44q15 -19 29 -19t35 4v-49q-27 -6 -37 -6q-80 0 -98 118q-102 -119 -232 -118q-88 0 -149 56t-62 140q0 172 269 221q76 15 104 25t70 39q12 141 -162 141t-219 -139l-41 35q57 156 260 155q113 0 165 -47t52 -147zM496 1069v195
q-82 -39 -172 -54q-209 -43 -209 -166q0 -70 45 -112t126 -41q82 0 146 53t64 125z" />
    <glyph glyph-name="guillemotleft" unicode="&#xab;" 
d="M453 569l360 490h105l-361 -490l361 -489h-105zM63 569l361 490h104l-360 -490l360 -489h-104z" />
    <glyph glyph-name="logicalnot" unicode="&#xac;" horiz-adv-x="1366" 
d="M145 846v88h1074v-576h-86v488h-988z" />
    <glyph glyph-name="registered" unicode="&#xae;" horiz-adv-x="1638" 
d="M610 1038v-288h133q139 0 198 33q58 34 58 115t-52 111t-187 29h-150zM510 317v803h334q128 0 200 -57t72 -158q0 -188 -237 -225q78 -29 114 -72q55 -68 154 -291h-121q-128 277 -189 311q-73 36 -180 38h-47v-349h-100zM1491 727q0 279 -197 475q-198 196 -476 197
q-278 0 -474 -197q-196 -198 -194 -476q0 -278 196 -474t474 -195q278 -1 474 195t197 475zM1583 727q0 -317 -224 -541q-223 -224 -539 -223q-316 0 -540 223q-224 222 -224 540t224 542t539 223q315 0 540 -223q224 -224 224 -541z" />
    <glyph glyph-name="macron" unicode="&#xaf;" horiz-adv-x="681" 
d="M39 1176v110h606v-110h-606z" />
    <glyph glyph-name="macron" unicode="&#x2c9;" horiz-adv-x="681" 
d="M39 1176v110h606v-110h-606z" />
    <glyph glyph-name="degree" unicode="&#xb0;" horiz-adv-x="819" 
d="M614 1204q0 84 -60 144t-144 61q-84 0 -144 -60q-60 -61 -61 -145q0 -84 60 -143q61 -59 145 -59t144 58q60 60 60 144zM410 1491q120 0 204 -84t84 -203t-84 -202q-84 -82 -202 -82t-204 82q-85 82 -85 201q0 118 84 203t203 85z" />
    <glyph glyph-name="plusminus" unicode="&#xb1;" horiz-adv-x="1366" 
d="M145 -37v88h1076v-88h-1076zM145 770v88h492v496h88v-496h496v-88h-496v-491h-88v491h-492z" />
    <glyph glyph-name="twosuperior" unicode="&#xb2;" horiz-adv-x="768" 
d="M135 1282q0 88 72 148q73 60 179 59q106 0 178 -66t71 -171q0 -105 -76 -185q-51 -54 -143 -121q-92 -66 -130 -107q-38 -42 -71 -118h412v-59h-490q9 98 59 171t164 158t159 137q44 52 44 127q0 74 -54 121t-133 47t-126 -38t-47 -97q-1 -29 28 -84l-57 -45
q-39 78 -39 123z" />
    <glyph glyph-name="threesuperior" unicode="&#xb3;" horiz-adv-x="768" 
d="M139 1313q0 78 66 127t170 49t175 -58t71 -147q0 -123 -144 -180q166 -70 166 -217q0 -106 -77 -175q-76 -69 -198 -69t-190 74q-51 53 -53 174l65 -12q-10 -137 125 -168q27 -6 54 -6q88 0 144 50t56 121t-34 116q-64 85 -230 73v63q156 -4 206 59q38 48 38 104t-47 94
t-124 38q-77 1 -126 -31t-49 -77q0 -18 6 -43l-64 -21q-6 37 -6 62z" />
    <glyph glyph-name="acute" unicode="&#xb4;" horiz-adv-x="681" 
d="M240 1165l200 305h176l-315 -305h-61z" />
    <glyph glyph-name="mu" unicode="&#xb5;" horiz-adv-x="1138" 
d="M193 -418v1467h88v-705q0 -131 89 -213t207 -82q119 0 199 81t80 214v705h88v-1049h-88v119q-64 -78 -124 -111t-155 -33t-161 32t-135 112v-537h-88z" />
    <glyph glyph-name="mu" unicode="&#x3bc;" horiz-adv-x="1138" 
d="M193 -418v1467h88v-705q0 -131 89 -213t207 -82q119 0 199 81t80 214v705h88v-1049h-88v119q-64 -78 -124 -111t-155 -33t-161 32t-135 112v-537h-88z" />
    <glyph glyph-name="paragraph" unicode="&#xb6;" horiz-adv-x="1331" 
d="M559 1477h692v-99h-196v-1777h-99v1777h-327v-1777h-99v1034q-222 0 -336 121t-114 307t130 300t349 114z" />
    <glyph glyph-name="periodcentered" unicode="&#xb7;" horiz-adv-x="555" 
d="M215 457v219h127v-219h-127z" />
    <glyph glyph-name="periodcentered" unicode="&#x2219;" horiz-adv-x="555" 
d="M215 457v219h127v-219h-127z" />
    <glyph glyph-name="cedilla" unicode="&#xb8;" horiz-adv-x="681" 
d="M252 -395q-55 0 -109 10l9 61q66 -4 67 -4q213 0 213 101q0 35 -29 57t-60 23q-31 0 -75 -7l51 172h76l-35 -124q114 8 150 -44q27 -39 29 -79q0 -74 -80 -120t-207 -46z" />
    <glyph glyph-name="onesuperior" unicode="&#xb9;" horiz-adv-x="768" 
d="M526 1485v-823h-65v712q-63 -52 -107 -72t-112 -32v59q82 25 130 57t99 99h55z" />
    <glyph glyph-name="ordmasculine" unicode="&#xba;" horiz-adv-x="681" 
d="M567 1176q-1 132 -61 210t-163 78t-165 -79t-61 -209q0 -130 61 -211q60 -80 164 -80t165 79q60 79 60 212zM342 1513q121 0 202 -96q81 -95 81 -243t-79 -242t-202 -94t-204 97t-81 241t81 240q81 97 202 97z" />
    <glyph glyph-name="guillemotright" unicode="&#xbb;" 
d="M528 569l-360 -489h-105l361 489l-361 490h105zM918 569l-361 -489h-104l360 489l-360 490h104z" />
    <glyph glyph-name="onequarter" unicode="&#xbc;" horiz-adv-x="1748" 
d="M535 1489v-840h-62v731q-113 -88 -219 -106v63q141 33 231 152h50zM172 -340h-88l1495 1831h86zM1421 506v-567h146v-60h-148v-219h-63v217h-381v62l397 567h49zM1360 -61v450l-313 -450h313z" />
    <glyph glyph-name="onehalf" unicode="&#xbd;" horiz-adv-x="1748" 
d="M532 1487v-842h-59v735q-57 -50 -103 -72t-118 -36v61q84 25 132 58t99 96h49zM172 -340h-88l1495 1829h86zM1079 297q0 90 71 148q71 59 178 59t179 -66t72 -164q0 -66 -41 -130t-79 -96q-37 -32 -117 -92t-117 -98q-37 -40 -70 -116h410v-59h-490q13 102 61 171
t172 162t162 143q38 49 37 117q0 68 -53 116t-131 48t-127 -38t-49 -97q0 -31 27 -86l-56 -47q-39 68 -39 125z" />
    <glyph glyph-name="threequarters" unicode="&#xbe;" horiz-adv-x="1748" 
d="M170 1319q0 76 64 124q65 48 169 48t172 -56t68 -147q0 -125 -137 -180q162 -66 162 -217q0 -104 -76 -173t-197 -69t-188 74q-53 55 -53 176l63 -14v-8q0 -78 47 -121t133 -43t142 50q55 50 55 127t-58 130t-141 53q-18 0 -63 -4v66h30q96 0 154 42q57 42 57 107
q0 64 -46 104q-45 40 -123 40t-124 -30q-46 -28 -46 -67t2 -55l-62 -21q-4 49 -4 64zM172 -340h-88l1497 1833h84zM1423 508v-569h144v-58h-146v-221h-65v219h-381v60l397 569h51zM1360 -61v450l-316 -450h316z" />
    <glyph glyph-name="questiondown" unicode="&#xbf;" 
d="M479 -373q-143 1 -236 99t-93 232t36 220q37 86 134 191t120 166t25 258h72q-2 -233 -27 -307t-150 -220q-63 -76 -90 -138t-26 -140q0 -121 70 -195t184 -74q76 0 129 38q90 65 111 211q9 57 5 106l88 -60q0 -127 -61 -240q-35 -65 -110 -106t-181 -41zM436 915v222h123
v-222h-123z" />
    <glyph glyph-name="Agrave" unicode="&#xc0;" horiz-adv-x="1536" 
d="M766 1630l-313 307h176l198 -307h-61zM98 0l613 1477h116l611 -1477h-97l-170 406h-804l-170 -406h-99zM1137 494l-367 882l-367 -882h734z" />
    <glyph glyph-name="Aacute" unicode="&#xc1;" horiz-adv-x="1536" 
d="M711 1630l200 305h176l-315 -305h-61zM98 0l613 1477h116l611 -1477h-97l-170 406h-804l-170 -406h-99zM1137 494l-367 882l-367 -882h734z" />
    <glyph glyph-name="Acircumflex" unicode="&#xc2;" horiz-adv-x="1536" 
d="M528 1624l183 320h116l183 -320h-70l-172 215l-170 -215h-70zM98 0l613 1477h116l611 -1477h-97l-170 406h-804l-170 -406h-99zM1137 494l-367 882l-367 -882h734z" />
    <glyph glyph-name="Atilde" unicode="&#xc3;" horiz-adv-x="1536" 
d="M463 1690q0 188 160 188q59 0 163 -47t150 -47q78 0 84 94h57q6 -102 -46 -144t-112 -42t-164 46t-149 46q-80 0 -84 -94h-59zM98 0l613 1477h116l611 -1477h-97l-170 406h-804l-170 -406h-99zM1137 494l-367 882l-367 -882h734z" />
    <glyph glyph-name="Adieresis" unicode="&#xc4;" horiz-adv-x="1536" 
d="M928 1749v147h86v-147h-86zM524 1749v149h86v-149h-86zM98 0l613 1477h116l611 -1477h-97l-170 406h-804l-170 -406h-99zM1137 494l-367 882l-367 -882h734z" />
    <glyph glyph-name="Aring" unicode="&#xc5;" horiz-adv-x="1536" 
d="M885 1775q0 49 -34 83t-82 34t-83 -34t-35 -82q0 -47 35 -82t83 -35t82 34t34 82zM769 1960q77 0 130 -54t53 -130t-53 -129t-129 -53t-130 52q-54 54 -54 130t53 130t130 54zM98 0l613 1477h116l611 -1477h-97l-170 406h-804l-170 -406h-99zM1137 494l-367 882
l-367 -882h734z" />
    <glyph glyph-name="AE" unicode="&#xc6;" horiz-adv-x="1984" 
d="M1069 1389v-582h670v-98h-670v-617h768l37 -92h-903v408h-613l-223 -408h-104l813 1477h999l-37 -88h-737zM971 1389h-72l-493 -897h565v897z" />
    <glyph glyph-name="Ccedilla" unicode="&#xc7;" horiz-adv-x="1429" 
d="M952 -250q0 -74 -80 -120t-206 -46q-55 0 -109 10l8 62q66 -4 68 -4q213 0 213 100q0 35 -29 58q-29 22 -61 22t-74 -6l39 127q-270 14 -435 212t-165 553t171 575t449 220q304 0 482 -225q37 -47 55 -92l-68 -59q-46 89 -122 157q-147 131 -338 129q-238 0 -380 -190
t-142 -511t140 -500q142 -179 400 -179q330 0 471 311l70 -69q-18 -68 -146 -186q-61 -56 -159 -98t-207 -46l-23 -82q112 8 145 -38q33 -45 33 -85z" />
    <glyph glyph-name="Egrave" unicode="&#xc8;" horiz-adv-x="1216" 
d="M653 1630l-313 307h176l199 -307h-62zM207 0v1477h874l-43 -93h-733v-579h647v-92h-647v-621h754l35 -92h-887z" />
    <glyph glyph-name="Eacute" unicode="&#xc9;" horiz-adv-x="1216" 
d="M508 1630l201 305h176l-316 -305h-61zM207 0v1477h874l-43 -93h-733v-579h647v-92h-647v-621h754l35 -92h-887z" />
    <glyph glyph-name="Ecircumflex" unicode="&#xca;" horiz-adv-x="1216" 
d="M389 1624l182 320h117l182 -320h-69l-172 215l-170 -215h-70zM207 0v1477h874l-43 -93h-733v-579h647v-92h-647v-621h754l35 -92h-887z" />
    <glyph glyph-name="Edieresis" unicode="&#xcb;" horiz-adv-x="1216" 
d="M788 1749v147h86v-147h-86zM385 1749v149h86v-149h-86zM207 0v1477h874l-43 -93h-733v-579h647v-92h-647v-621h754l35 -92h-887z" />
    <glyph glyph-name="Igrave" unicode="&#xcc;" horiz-adv-x="555" 
d="M266 1630l-313 307h176l199 -307h-62zM227 0v1477h101v-1477h-101z" />
    <glyph glyph-name="Iacute" unicode="&#xcd;" horiz-adv-x="555" 
d="M227 1630l201 305h176l-315 -305h-62zM227 0v1477h101v-1477h-101z" />
    <glyph glyph-name="Icircumflex" unicode="&#xce;" horiz-adv-x="555" 
d="M37 1624l182 320h117l182 -320h-69l-173 215l-170 -215h-69zM227 0v1477h101v-1477h-101z" />
    <glyph glyph-name="Idieresis" unicode="&#xcf;" horiz-adv-x="555" 
d="M436 1749v147h86v-147h-86zM33 1749v149h86v-149h-86zM227 0v1477h101v-1477h-101z" />
    <glyph glyph-name="Eth" unicode="&#xd0;" horiz-adv-x="1536" 
d="M346 778h440v-84l-440 2v-604h356q156 0 260 36t183 116q164 170 164 494t-174 497q-150 154 -424 154h-365v-611zM246 778v699h508q299 0 478 -208t179 -554t-199 -541q-180 -174 -522 -174h-444v696h-203v82h203z" />
    <glyph glyph-name="Ntilde" unicode="&#xd1;" horiz-adv-x="1536" 
d="M483 1690q0 188 160 188q59 0 163 -47t150 -47q78 0 84 94h58q6 -102 -46 -144t-112 -42t-164 46t-149 46q-80 0 -84 -94h-60zM219 0v1477h139l861 -1344v1344h100v-1477h-125l-877 1366v-1366h-98z" />
    <glyph glyph-name="Ograve" unicode="&#xd2;" horiz-adv-x="1536" 
d="M813 1630l-313 307h176l198 -307h-61zM760 41q135 0 240 55t163 133q57 78 105 208t49 278q0 324 -152 515q-151 191 -399 191t-396 -189q-148 -190 -148 -496t150 -500t388 -195zM767 -49q-284 0 -467 220t-183 562t182 561t469 219t469 -221t182 -563t-184 -560
t-468 -218z" />
    <glyph glyph-name="Oacute" unicode="&#xd3;" horiz-adv-x="1536" 
d="M668 1630l200 305h176l-315 -305h-61zM760 41q135 0 240 55t163 133q57 78 105 208t49 278q0 324 -152 515q-151 191 -399 191t-396 -189q-148 -190 -148 -496t150 -500t388 -195zM767 -49q-284 0 -467 220t-183 562t182 561t469 219t469 -221t182 -563t-184 -560
t-468 -218z" />
    <glyph glyph-name="Ocircumflex" unicode="&#xd4;" horiz-adv-x="1536" 
d="M528 1624l183 320h116l183 -320h-70l-172 215l-170 -215h-70zM760 41q135 0 240 55t163 133q57 78 105 208t49 278q0 324 -152 515q-151 191 -399 191t-396 -189q-148 -190 -148 -496t150 -500t388 -195zM767 -49q-284 0 -467 220t-183 562t182 561t469 219t469 -221
t182 -563t-184 -560t-468 -218z" />
    <glyph glyph-name="Otilde" unicode="&#xd5;" horiz-adv-x="1536" 
d="M463 1690q0 188 160 188q59 0 163 -47t150 -47q78 0 84 94h57q6 -102 -46 -144t-112 -42t-164 46t-149 46q-80 0 -84 -94h-59zM760 41q135 0 240 55t163 133q57 78 105 208t49 278q0 324 -152 515q-151 191 -399 191t-396 -189q-148 -190 -148 -496t150 -500t388 -195z
M767 -49q-284 0 -467 220t-183 562t182 561t469 219t469 -221t182 -563t-184 -560t-468 -218z" />
    <glyph glyph-name="Odieresis" unicode="&#xd6;" horiz-adv-x="1536" 
d="M928 1749v147h86v-147h-86zM524 1749v149h86v-149h-86zM760 41q135 0 240 55t163 133q57 78 105 208t49 278q0 324 -152 515q-151 191 -399 191t-396 -189q-148 -190 -148 -496t150 -500t388 -195zM767 -49q-284 0 -467 220t-183 562t182 561t469 219t469 -221t182 -563
t-184 -560t-468 -218z" />
    <glyph glyph-name="multiply" unicode="&#xd7;" horiz-adv-x="1368" 
d="M623 653l-424 428l59 62l428 -426l424 426l61 -62l-423 -428l419 -420l-61 -63l-420 422l-426 -422l-61 63z" />
    <glyph glyph-name="Oslash" unicode="&#xd8;" horiz-adv-x="1536" 
d="M758 1511q276 0 463 -206l168 190l63 -57l-180 -199q143 -231 143 -518q0 -336 -184 -553t-471 -217q-175 0 -289 76q-88 57 -158 127l-161 -185l-66 60l172 192q-41 72 -64 122q-24 50 -52 162t-27 230q0 336 183 556q184 220 460 220zM777 43q234 0 386 191t152 466
t-111 461l-827 -938q166 -180 400 -180zM766 1421q-147 1 -259 -65t-171 -170q-117 -206 -117 -446t109 -441l829 934q-160 188 -391 188z" />
    <glyph glyph-name="Ugrave" unicode="&#xd9;" horiz-adv-x="1536" 
d="M813 1630l-313 307h176l198 -307h-61zM213 496v981h100v-981q0 -457 478 -457q211 0 323 116t113 334v988h98v-975q0 -270 -143 -412q-144 -142 -410 -141q-266 0 -413 145q-146 146 -146 402z" />
    <glyph glyph-name="Uacute" unicode="&#xda;" horiz-adv-x="1536" 
d="M668 1630l200 305h176l-315 -305h-61zM213 496v981h100v-981q0 -457 478 -457q211 0 323 116t113 334v988h98v-975q0 -270 -143 -412q-144 -142 -410 -141q-266 0 -413 145q-146 146 -146 402z" />
    <glyph glyph-name="Ucircumflex" unicode="&#xdb;" horiz-adv-x="1536" 
d="M528 1624l183 320h116l183 -320h-70l-172 215l-170 -215h-70zM213 496v981h100v-981q0 -457 478 -457q211 0 323 116t113 334v988h98v-975q0 -270 -143 -412q-144 -142 -410 -141q-266 0 -413 145q-146 146 -146 402z" />
    <glyph glyph-name="Udieresis" unicode="&#xdc;" horiz-adv-x="1536" 
d="M928 1749v147h86v-147h-86zM524 1749v149h86v-149h-86zM213 496v981h100v-981q0 -457 478 -457q211 0 323 116t113 334v988h98v-975q0 -270 -143 -412q-144 -142 -410 -141q-266 0 -413 145q-146 146 -146 402z" />
    <glyph glyph-name="Yacute" unicode="&#xdd;" horiz-adv-x="1323" 
d="M561 1630l201 305h176l-315 -305h-62zM694 0h-100v713l-467 764h104l418 -682l443 682h106l-504 -772v-705z" />
    <glyph glyph-name="Thorn" unicode="&#xde;" horiz-adv-x="1323" 
d="M201 1477h98v-324h434q217 0 345 -111q128 -112 128 -302t-122 -302t-330 -112h-455v-326h-98v1477zM729 1069h-430v-659h399q193 0 299 87q107 87 107 241t-102 242q-102 89 -273 89z" />
    <glyph glyph-name="germandbls" unicode="&#xdf;" horiz-adv-x="1216" 
d="M229 0v1141q-1 174 103 271t283 97t289 -95t110 -248t-90 -227q-65 -52 -148 -89q86 -31 135 -72q158 -135 158 -366q0 -193 -100 -314t-260 -121q-51 1 -107 19t-90 47q-35 29 -63 90q-29 61 -29 148h86q2 -229 205 -230q119 0 191 93t71 247q0 225 -115 336
q-47 43 -97 60t-149 24v78q156 6 234 84q78 77 78 195t-86 191t-222 73q-299 0 -299 -310v-1122h-88z" />
    <glyph glyph-name="agrave" unicode="&#xe0;" horiz-adv-x="1087" 
d="M588 1165l-314 308h177l198 -308h-61zM895 733v-561q-1 -51 21 -83t57 -32q8 0 49 9v-82q-37 -10 -66 -11q-63 1 -102 51t-47 142q-143 -190 -373 -191q-135 -1 -231 91t-97 221q0 76 33 136t77 95t119 65t200 52q125 23 167 39t105 65q4 113 -61 166q-59 52 -197 56
q-143 1 -227 -53t-117 -171l-70 60q19 45 37 75t64 74q95 94 321 92q180 0 277 -92q37 -37 49 -80t12 -133zM807 365v280q-72 -37 -116 -51t-142 -31q-346 -59 -346 -264q-1 -109 71 -177t204 -67q132 0 231 88q98 89 98 222z" />
    <glyph glyph-name="aacute" unicode="&#xe1;" horiz-adv-x="1087" 
d="M442 1165l201 305h176l-315 -305h-62zM895 733v-561q-1 -51 21 -83t57 -32q8 0 49 9v-82q-37 -10 -66 -11q-63 1 -102 51t-47 142q-143 -190 -373 -191q-135 -1 -231 91t-97 221q0 76 33 136t77 95t119 65t200 52q125 23 167 39t105 65q4 113 -61 166q-59 52 -197 56
q-143 1 -227 -53t-117 -171l-70 60q19 45 37 75t64 74q95 94 321 92q180 0 277 -92q37 -37 49 -80t12 -133zM807 365v280q-72 -37 -116 -51t-142 -31q-346 -59 -346 -264q-1 -109 71 -177t204 -67q132 0 231 88q98 89 98 222z" />
    <glyph glyph-name="acircumflex" unicode="&#xe2;" horiz-adv-x="1087" 
d="M303 1159l182 320h117l182 -320h-69l-172 215l-170 -215h-70zM895 733v-561q-1 -51 21 -83t57 -32q8 0 49 9v-82q-37 -10 -66 -11q-63 1 -102 51t-47 142q-143 -190 -373 -191q-135 -1 -231 91t-97 221q0 76 33 136t77 95t119 65t200 52q125 23 167 39t105 65
q4 113 -61 166q-59 52 -197 56q-143 1 -227 -53t-117 -171l-70 60q19 45 37 75t64 74q95 94 321 92q180 0 277 -92q37 -37 49 -80t12 -133zM807 365v280q-72 -37 -116 -51t-142 -31q-346 -59 -346 -264q-1 -109 71 -177t204 -67q132 0 231 88q98 89 98 222z" />
    <glyph glyph-name="atilde" unicode="&#xe3;" horiz-adv-x="1087" 
d="M238 1225q0 188 159 188q59 0 163 -47t151 -47q78 0 84 94h57q6 -102 -46 -144t-112 -42t-164 46t-149 46q-80 0 -84 -94h-59zM895 733v-561q-1 -51 21 -83t57 -32q8 0 49 9v-82q-37 -10 -66 -11q-63 1 -102 51t-47 142q-143 -190 -373 -191q-135 -1 -231 91t-97 221
q0 76 33 136t77 95t119 65t200 52q125 23 167 39t105 65q4 113 -61 166q-59 52 -197 56q-143 1 -227 -53t-117 -171l-70 60q19 45 37 75t64 74q95 94 321 92q180 0 277 -92q37 -37 49 -80t12 -133zM807 365v280q-72 -37 -116 -51t-142 -31q-346 -59 -346 -264
q-1 -109 71 -177t204 -67q132 0 231 88q98 89 98 222z" />
    <glyph glyph-name="adieresis" unicode="&#xe4;" horiz-adv-x="1087" 
d="M702 1284v148h86v-148h-86zM299 1284v150h86v-150h-86zM895 733v-561q-1 -51 21 -83t57 -32q8 0 49 9v-82q-37 -10 -66 -11q-63 1 -102 51t-47 142q-143 -190 -373 -191q-135 -1 -231 91t-97 221q0 76 33 136t77 95t119 65t200 52q125 23 167 39t105 65q4 113 -61 166
q-59 52 -197 56q-143 1 -227 -53t-117 -171l-70 60q19 45 37 75t64 74q95 94 321 92q180 0 277 -92q37 -37 49 -80t12 -133zM807 365v280q-72 -37 -116 -51t-142 -31q-346 -59 -346 -264q-1 -109 71 -177t204 -67q132 0 231 88q98 89 98 222z" />
    <glyph glyph-name="aring" unicode="&#xe5;" horiz-adv-x="1087" 
d="M544 1427q-48 -1 -83 -35t-35 -81t35 -82t83 -35t82 34t34 82t-34 83q-34 34 -82 34zM544 1495q77 0 130 -54t53 -130t-53 -129q-53 -54 -129 -54t-130 54q-55 54 -55 130q0 77 54 130t130 53zM895 733v-561q-1 -51 21 -83t57 -32q8 0 49 9v-82q-37 -10 -66 -11
q-63 1 -102 51t-47 142q-143 -190 -373 -191q-135 -1 -231 91t-97 221q0 76 33 136t77 95t119 65t200 52q125 23 167 39t105 65q4 113 -61 166q-59 52 -197 56q-143 1 -227 -53t-117 -171l-70 60q19 45 37 75t64 74q95 94 321 92q180 0 277 -92q37 -37 49 -80t12 -133z
M807 365v280q-72 -37 -116 -51t-142 -31q-346 -59 -346 -264q-1 -109 71 -177t204 -67q132 0 231 88q98 89 98 222z" />
    <glyph glyph-name="ae" unicode="&#xe6;" horiz-adv-x="1748" 
d="M1217 1038q283 0 387 -268q41 -109 41 -295h-748q4 -133 30 -211t83 -135q86 -86 243 -86t232 93q35 44 48 71t28 67l69 -45q-27 -78 -61 -120q-123 -141 -326 -142q-88 0 -159 23q-70 22 -110 50t-73 74t-42 70t-23 60q-135 -275 -400 -275q-150 0 -240 89t-92 237
q0 72 31 128t71 89t112 63t190 55q119 26 165 42t122 57q-5 121 -65 176t-185 56q-279 0 -342 -226l-74 62q102 246 430 245q127 0 187 -37q32 -19 54 -37q40 -34 68 -143q96 213 349 213zM797 432v215q-98 -51 -264 -89t-248 -93t-82 -167q1 -112 71 -178q70 -65 200 -65
q130 -1 226 107t97 270zM899 555h657q-8 215 -102 309t-227 94q-223 0 -299 -196q-29 -76 -29 -207z" />
    <glyph glyph-name="ccedilla" unicode="&#xe7;" horiz-adv-x="1087" 
d="M465 -395q-55 0 -109 10l9 61q66 -4 67 -4q213 0 213 101q0 35 -29 57t-60 23q-31 0 -75 -7l39 129q-182 23 -295 173t-113 371q0 222 130 373q129 150 324 150t290 -119q44 -56 62 -89t36 -80l-77 -43q-96 254 -308 254q-158 0 -259 -128t-101 -326q1 -198 109 -331
t268 -133q213 0 321 242l70 -39q-82 -153 -171 -216q-90 -63 -212 -63l-21 -77q114 8 150 -44q27 -39 29 -79q0 -74 -80 -120t-207 -46z" />
    <glyph glyph-name="egrave" unicode="&#xe8;" horiz-adv-x="1087" 
d="M588 1165l-314 308h177l198 -308h-61zM561 -29q-213 1 -330 141t-117 391t119 394t316 143q279 0 383 -268q41 -104 41 -291h-766q4 -125 30 -199t82 -135q98 -98 271 -98q231 0 301 225l67 -43q-31 -86 -69 -129q-115 -131 -328 -131zM565 965q-91 0 -159 -33t-103 -74
t-62 -120t-34 -179h678q-2 115 -34 198t-70 121t-91 60t-77 25q-24 2 -48 2z" />
    <glyph glyph-name="eacute" unicode="&#xe9;" horiz-adv-x="1087" 
d="M442 1165l201 305h176l-315 -305h-62zM561 -29q-213 1 -330 141t-117 391t119 394t316 143q279 0 383 -268q41 -104 41 -291h-766q4 -125 30 -199t82 -135q98 -98 271 -98q231 0 301 225l67 -43q-31 -86 -69 -129q-115 -131 -328 -131zM565 965q-91 0 -159 -33t-103 -74
t-62 -120t-34 -179h678q-2 115 -34 198t-70 121t-91 60t-77 25q-24 2 -48 2z" />
    <glyph glyph-name="ecircumflex" unicode="&#xea;" horiz-adv-x="1087" 
d="M303 1159l182 320h117l182 -320h-69l-172 215l-170 -215h-70zM561 -29q-213 1 -330 141t-117 391t119 394t316 143q279 0 383 -268q41 -104 41 -291h-766q4 -125 30 -199t82 -135q98 -98 271 -98q231 0 301 225l67 -43q-31 -86 -69 -129q-115 -131 -328 -131zM565 965
q-91 0 -159 -33t-103 -74t-62 -120t-34 -179h678q-2 115 -34 198t-70 121t-91 60t-77 25q-24 2 -48 2z" />
    <glyph glyph-name="edieresis" unicode="&#xeb;" horiz-adv-x="1087" 
d="M702 1284v148h86v-148h-86zM299 1284v150h86v-150h-86zM561 -29q-213 1 -330 141t-117 391t119 394t316 143q279 0 383 -268q41 -104 41 -291h-766q4 -125 30 -199t82 -135q98 -98 271 -98q231 0 301 225l67 -43q-31 -86 -69 -129q-115 -131 -328 -131zM565 965
q-91 0 -159 -33t-103 -74t-62 -120t-34 -179h678q-2 115 -34 198t-70 121t-91 60t-77 25q-24 2 -48 2z" />
    <glyph glyph-name="igrave" unicode="&#xec;" horiz-adv-x="555" 
d="M260 1165l-313 308h176l199 -308h-62zM233 0v1012h89v-1012h-89z" />
    <glyph glyph-name="iacute" unicode="&#xed;" horiz-adv-x="555" 
d="M233 1165l201 305h176l-315 -305h-62zM233 0v1012h89v-1012h-89z" />
    <glyph glyph-name="icircumflex" unicode="&#xee;" horiz-adv-x="555" 
d="M37 1159l182 320h117l182 -320h-69l-173 215l-170 -215h-69zM233 0v1012h89v-1012h-89z" />
    <glyph glyph-name="idieresis" unicode="&#xef;" horiz-adv-x="555" 
d="M436 1284v148h86v-148h-86zM33 1284v150h86v-150h-86zM233 0v1012h89v-1012h-89z" />
    <glyph glyph-name="eth" unicode="&#xf0;" horiz-adv-x="1110" 
d="M100 517q0 230 129 381t324 151q134 0 218 -74q58 -51 110 -123q-37 145 -96 254q-58 109 -177 211l-336 -156l-30 64l301 139q-93 63 -183 98l27 51q94 -27 236 -110l241 113l31 -66l-207 -96q53 -49 89 -91q36 -41 94 -135q126 -203 124 -530q0 -176 -41 -304
q-42 -128 -112 -195q-130 -124 -311 -124q-182 0 -307 156q-124 156 -124 386zM551 53q160 0 253 127t93 339t-95 332t-257 120t-257 -127t-95 -335t99 -332t259 -124z" />
    <glyph glyph-name="ntilde" unicode="&#xf1;" horiz-adv-x="1216" 
d="M303 1225q0 188 160 188q59 0 163 -47t150 -47q78 0 84 94h58q6 -102 -46 -144t-113 -42q-59 0 -163 46t-150 46q-80 0 -84 -94h-59zM1004 643v-643h-91v627q0 160 -71 251q-72 91 -204 91t-234 -110t-103 -259v-600h-88v1012h88v-228q115 260 356 260q163 0 255 -106
t92 -295z" />
    <glyph glyph-name="ograve" unicode="&#xf2;" horiz-adv-x="1087" 
d="M588 1165l-314 308h177l198 -308h-61zM545 1040q195 0 321 -152t127 -382q0 -231 -127 -383q-128 -152 -322 -152t-321 152t-127 383q0 230 127 382t322 152zM545 965q-166 0 -260 -123q-95 -123 -95 -336t94 -335t261 -122q166 0 261 122t95 335t-95 336t-261 123z" />
    <glyph glyph-name="oacute" unicode="&#xf3;" horiz-adv-x="1087" 
d="M442 1165l201 305h176l-315 -305h-62zM545 1040q195 0 321 -152t127 -382q0 -231 -127 -383q-128 -152 -322 -152t-321 152t-127 383q0 230 127 382t322 152zM545 965q-166 0 -260 -123q-95 -123 -95 -336t94 -335t261 -122q166 0 261 122t95 335t-95 336t-261 123z" />
    <glyph glyph-name="ocircumflex" unicode="&#xf4;" horiz-adv-x="1087" 
d="M303 1159l182 320h117l182 -320h-69l-172 215l-170 -215h-70zM545 1040q195 0 321 -152t127 -382q0 -231 -127 -383q-128 -152 -322 -152t-321 152t-127 383q0 230 127 382t322 152zM545 965q-166 0 -260 -123q-95 -123 -95 -336t94 -335t261 -122q166 0 261 122t95 335
t-95 336t-261 123z" />
    <glyph glyph-name="otilde" unicode="&#xf5;" horiz-adv-x="1087" 
d="M238 1225q0 188 159 188q59 0 163 -47t151 -47q78 0 84 94h57q6 -102 -46 -144t-112 -42t-164 46t-149 46q-80 0 -84 -94h-59zM545 1040q195 0 321 -152t127 -382q0 -231 -127 -383q-128 -152 -322 -152t-321 152t-127 383q0 230 127 382t322 152zM545 965
q-166 0 -260 -123q-95 -123 -95 -336t94 -335t261 -122q166 0 261 122t95 335t-95 336t-261 123z" />
    <glyph glyph-name="odieresis" unicode="&#xf6;" horiz-adv-x="1087" 
d="M702 1284v148h86v-148h-86zM299 1284v150h86v-150h-86zM545 1040q195 0 321 -152t127 -382q0 -231 -127 -383q-128 -152 -322 -152t-321 152t-127 383q0 230 127 382t322 152zM545 965q-166 0 -260 -123q-95 -123 -95 -336t94 -335t261 -122q166 0 261 122t95 335
t-95 336t-261 123z" />
    <glyph glyph-name="divide" unicode="&#xf7;" horiz-adv-x="1368" 
d="M147 612v88h1074v-88h-1074zM618 243q0 26 18 44t46 18q27 0 44 -18t17 -44t-17 -43q-17 -18 -44 -18q-28 0 -46 18t-18 43zM682 1130q25 0 43 -17t18 -43t-18 -44t-44 -18q-27 0 -45 19t-17 45t19 42t44 16z" />
    <glyph glyph-name="oslash" unicode="&#xf8;" horiz-adv-x="1087" 
d="M991 489q0 -216 -127 -367t-312 -151t-312 133l-119 -135l-55 47l129 146q-101 150 -101 364t128 364t316 150t312 -137l121 137l53 -45l-131 -149q98 -141 98 -357zM548 49q161 0 256 122q95 121 95 311t-59 302l-547 -618q94 -117 255 -117zM543 965q-164 0 -259 -123
q-96 -124 -96 -314t64 -301l547 619q-92 119 -256 119z" />
    <glyph glyph-name="ugrave" unicode="&#xf9;" horiz-adv-x="1216" 
d="M653 1165l-313 308h176l199 -308h-62zM217 369v643h88v-637q0 -150 74 -239t206 -89t229 109t97 264v592h88v-1012h-88v219q-119 -250 -356 -250q-154 0 -246 109t-92 291z" />
    <glyph glyph-name="uacute" unicode="&#xfa;" horiz-adv-x="1216" 
d="M508 1165l201 305h176l-316 -305h-61zM217 369v643h88v-637q0 -150 74 -239t206 -89t229 109t97 264v592h88v-1012h-88v219q-119 -250 -356 -250q-154 0 -246 109t-92 291z" />
    <glyph glyph-name="ucircumflex" unicode="&#xfb;" horiz-adv-x="1216" 
d="M369 1159l182 320h117l182 -320h-70l-172 215l-170 -215h-69zM217 369v643h88v-637q0 -150 74 -239t206 -89t229 109t97 264v592h88v-1012h-88v219q-119 -250 -356 -250q-154 0 -246 109t-92 291z" />
    <glyph glyph-name="udieresis" unicode="&#xfc;" horiz-adv-x="1216" 
d="M768 1284v148h86v-148h-86zM365 1284v150h86v-150h-86zM217 369v643h88v-637q0 -150 74 -239t206 -89t229 109t97 264v592h88v-1012h-88v219q-119 -250 -356 -250q-154 0 -246 109t-92 291z" />
    <glyph glyph-name="yacute" unicode="&#xfd;" 
d="M389 1165l201 305h176l-315 -305h-62zM227 -389h-86l4 84h95q104 0 145 52t94 222l-393 1043h84l346 -924l299 924h80l-363 -1139q-46 -150 -112 -206t-193 -56z" />
    <glyph glyph-name="thorn" unicode="&#xfe;" horiz-adv-x="1216" 
d="M668 -29q-230 0 -351 242v-602h-88v1866h88v-668q41 70 75 112q34 41 106 81t161 40q182 0 296 -144t114 -383t-112 -391t-289 -153zM317 580v-84q0 -217 86 -332t238 -115t246 119q37 47 62 138q26 91 26 210q0 203 -92 326q-91 123 -237 123q-146 1 -238 -109t-91 -276
z" />
    <glyph glyph-name="ydieresis" unicode="&#xff;" 
d="M649 1284v148h86v-148h-86zM246 1284v150h86v-150h-86zM227 -389h-86l4 84h95q104 0 145 52t94 222l-393 1043h84l346 -924l299 924h80l-363 -1139q-46 -150 -112 -206t-193 -56z" />
    <glyph glyph-name="dotlessi" unicode="&#x131;" horiz-adv-x="555" 
d="M233 0v1012h89v-1012h-89z" />
    <glyph glyph-name="Lslash" unicode="&#x141;" horiz-adv-x="1087" 
d="M279 1477h100v-615l272 219v-94l-272 -219v-680h692v-88h-792v688l-183 -147v92l183 147v697z" />
    <glyph glyph-name="lslash" unicode="&#x142;" horiz-adv-x="555" 
d="M240 1477h88v-652l178 146l4 -90l-182 -148v-733h-88v662l-193 -154v88l193 158v723z" />
    <glyph glyph-name="OE" unicode="&#x152;" horiz-adv-x="1984" 
d="M1149 1382v-579h635v-98h-635v-615h735l45 -90h-1005q-227 0 -338 19q-260 45 -403 312q-85 159 -85 400t87 413t206 238q84 54 195 74t338 21h991l-49 -95h-717zM1051 90v1296h-115q-125 0 -183 -2q-59 -2 -139 -15t-134 -43t-118 -96t-111 -200q-46 -135 -46 -291
t46 -292q47 -135 111 -201t118 -96q90 -49 273 -58q58 -2 183 -2h115z" />
    <glyph glyph-name="oe" unicode="&#x153;" horiz-adv-x="1748" 
d="M1278 -31q-144 -1 -238 59t-153 189q-125 -244 -373 -244q-196 0 -316 152t-120 385q0 234 126 382t318 148q268 0 365 -276q59 137 145 204q36 28 100 50t140 22q115 0 211 -72t142 -186q46 -116 48 -299h-727q-8 -436 348 -436q215 0 299 229l72 -43
q-61 -135 -151 -199t-236 -65zM520 961q-154 0 -249 -123t-95 -335t93 -333t247 -121t243 120q87 120 87 330t-85 336q-87 126 -241 126zM1266 958q-205 0 -287 -200q-31 -78 -33 -197h641q-10 213 -102 305t-219 92z" />
    <glyph glyph-name="Scaron" unicode="&#x160;" horiz-adv-x="1323" 
d="M664 1726l200 218h72l-211 -322h-123l-211 320h70zM684 47q182 0 299 92q117 91 117 231t-114 222t-355 167t-322 167q-39 39 -69 100q-31 61 -31 133q0 164 120 257t325 93t320 -91q58 -46 90 -80t75 -93l-70 -96q-145 274 -401 274q-162 -1 -258 -73t-97 -195
q0 -96 85 -163q84 -67 258 -128t252 -99q208 -101 263 -215q35 -71 35 -161q0 -195 -146 -315t-382 -121q-270 0 -448 200q-83 94 -111 179l84 65q127 -350 481 -350z" />
    <glyph glyph-name="scaron" unicode="&#x161;" 
d="M492 1262l200 217h72l-211 -322h-123l-211 320h70zM506 43q129 0 210 59q81 60 81 148t-67 138t-226 94t-224 83t-91 86t-25 111q0 127 95 203q95 75 241 75t229 -57q84 -57 141 -182l-84 -45q-36 108 -102 160t-178 52t-182 -52q-72 -52 -72 -133t57 -126t236 -89
t260 -117q82 -74 82 -197q-1 -123 -105 -203t-268 -80q-348 0 -420 303l86 48q49 -279 326 -279z" />
    <glyph glyph-name="Ydieresis" unicode="&#x178;" horiz-adv-x="1323" 
d="M821 1749v147h86v-147h-86zM418 1749v149h86v-149h-86zM694 0h-100v713l-467 764h104l418 -682l443 682h106l-504 -772v-705z" />
    <glyph glyph-name="Zcaron" unicode="&#x17d;" horiz-adv-x="1216" 
d="M610 1726l201 218h72l-211 -322h-123l-211 320h70zM113 1386v91h972l-837 -1389h880v-88h-1040l836 1386h-811z" />
    <glyph glyph-name="zcaron" unicode="&#x17e;" 
d="M492 1262l200 217h72l-211 -322h-123l-211 320h70zM199 934v78h622v-56l-567 -878h582v-78h-693v59l566 875h-510z" />
    <glyph glyph-name="florin" unicode="&#x192;" horiz-adv-x="661" 
d="M647 1507q59 0 96 -2l-10 -73q-33 2 -103 2q-149 0 -188 -170l-57 -250h166l-19 -74h-163l-279 -1223h-88l279 1223h-189l19 74h186l63 278q47 215 287 215z" />
    <glyph glyph-name="circumflex" unicode="&#x2c6;" horiz-adv-x="681" 
d="M100 1159l183 320h116l183 -320h-70l-172 215l-170 -215h-70z" />
    <glyph glyph-name="caron" unicode="&#x2c7;" horiz-adv-x="681" 
d="M342 1262l201 217h71l-211 -322h-122l-211 320h69z" />
    <glyph glyph-name="breve" unicode="&#x2d8;" horiz-adv-x="681" 
d="M335 1202q-179 0 -261 223h78q60 -137 190 -137t193 135h75q-96 -221 -275 -221z" />
    <glyph glyph-name="dotaccent" unicode="&#x2d9;" horiz-adv-x="681" 
d="M258 1161v195h168v-195h-168z" />
    <glyph glyph-name="ring" unicode="&#x2da;" horiz-adv-x="681" 
d="M457 1310q0 48 -34 82t-82 35q-48 -1 -83 -35t-35 -81t35 -82t83 -35t82 34t34 82zM342 1495q76 0 129 -54t53 -130t-53 -129q-53 -54 -129 -54t-130 54t-54 130q0 77 54 130t130 53z" />
    <glyph glyph-name="ogonek" unicode="&#x2db;" horiz-adv-x="681" 
d="M382 -346q62 0 159 35v-84q-107 -53 -201 -53t-146 60t-52 146t40 219h92q-69 -200 6 -280q40 -43 102 -43z" />
    <glyph glyph-name="tilde" unicode="&#x2dc;" horiz-adv-x="681" 
d="M35 1225q0 188 160 188q59 0 163 -47t150 -47q78 0 84 94h57q6 -102 -46 -144t-112 -42t-164 46t-149 46q-80 0 -84 -94h-59z" />
    <glyph glyph-name="hungarumlaut" unicode="&#x2dd;" horiz-adv-x="681" 
d="M330 1165l202 305h177l-316 -305h-63zM-27 1165l203 305h176l-317 -305h-62z" />
    <glyph glyph-name="endash" unicode="&#x2013;" horiz-adv-x="1024" 
d="M-20 489v62h1062v-62h-1062z" />
    <glyph glyph-name="emdash" unicode="&#x2014;" horiz-adv-x="2048" 
d="M-20 489v62h2088v-62h-2088z" />
    <glyph glyph-name="quoteleft" unicode="&#x2018;" horiz-adv-x="555" 
d="M276 979v225q0 158 91 273l26 -52q-55 -100 -57 -223h63v-223h-123z" />
    <glyph glyph-name="quoteright" unicode="&#x2019;" horiz-adv-x="555" 
d="M156 1253v224h123v-230q0 -152 -86 -268l-31 51q55 100 57 223h-63z" />
    <glyph glyph-name="quotesinglbase" unicode="&#x201a;" horiz-adv-x="555" 
d="M215 0v221h125v-215q0 -158 -88 -282l-29 51q35 77 45 117t13 108h-66z" />
    <glyph glyph-name="quotedblleft" unicode="&#x201c;" horiz-adv-x="897" 
d="M625 977v221q0 156 90 279l26 -54q-55 -100 -57 -223h64v-223h-123zM297 977v221q0 152 90 279l27 -54q-55 -98 -58 -223h64v-223h-123z" />
    <glyph glyph-name="quotedblright" unicode="&#x201d;" horiz-adv-x="897" 
d="M477 1253v224h123v-213q0 -160 -88 -287l-29 53q55 104 58 223h-64zM150 1253v224h122v-201q0 -182 -88 -297l-28 51q55 92 57 223h-63z" />
    <glyph glyph-name="quotedblbase" unicode="&#x201e;" horiz-adv-x="897" 
d="M219 0v221h123v-219q0 -147 -88 -281l-29 52q35 84 44 122t12 105h-62zM557 0v221h123v-219q0 -147 -88 -281l-29 52q35 84 44 122t11 105h-61z" />
    <glyph glyph-name="dagger" unicode="&#x2020;" 
d="M465 948l-37 535h129l-39 -535l418 33v-121l-418 35l53 -1229h-155l49 1231l-418 -35v123z" />
    <glyph glyph-name="daggerdbl" unicode="&#x2021;" 
d="M465 977l-37 508h129l-37 -508l383 39v-131l-383 37l37 -344l-37 -349l383 39v-131l-383 39l39 -508h-131l37 508l-385 -39v131l385 -39l-39 346l39 347l-387 -37v131z" />
    <glyph glyph-name="bullet" unicode="&#x2022;" horiz-adv-x="1024" 
d="M762 716q0 -103 -74 -177t-176 -74t-176 75t-74 178t74 176t176 73t176 -74t74 -177z" />
    <glyph glyph-name="ellipsis" unicode="&#x2026;" horiz-adv-x="2048" 
d="M1640 0v223h123v-223h-123zM963 0v223h122v-223h-122zM285 0v223h123v-223h-123z" />
    <glyph glyph-name="perthousand" unicode="&#x2030;" horiz-adv-x="1921" 
d="M1389 314q0 -152 46 -236t131 -84t132 85t47 237t-46 235q-46 82 -131 82t-132 -83t-47 -236zM1571 702q119 0 183 -105t65 -287t-67 -286q-68 -102 -185 -102t-184 106t-67 288q0 184 68 285t187 101zM797 315q0 -153 46 -237t131 -84t131 84t46 238t-45 236
q-45 81 -131 81t-132 -82t-46 -236zM976 702q118 0 184 -105t65 -287t-69 -284q-68 -104 -184 -104t-182 106t-67 290q0 184 67 284q68 100 186 100zM229 -84l793 1597h76l-789 -1597h-80zM104 1120q0 182 68 288t186 105q117 0 184 -103q66 -104 66 -284t-68 -288
t-184 -109q-116 1 -184 105t-68 286zM176 1120q0 -152 48 -234t132 -83q84 0 131 88t47 236q0 147 -46 231t-131 84t-133 -85t-48 -237z" />
    <glyph glyph-name="guilsinglleft" unicode="&#x2039;" horiz-adv-x="598" 
d="M68 569l360 490h104l-360 -490l360 -489h-104z" />
    <glyph glyph-name="guilsinglright" unicode="&#x203a;" horiz-adv-x="598" 
d="M532 569l-360 -489h-104l360 489l-360 490h104z" />
    <glyph glyph-name="fraction" unicode="&#x2044;" horiz-adv-x="212" 
d="M-451 -371l1045 1866h72l-1045 -1866h-72z" />
    <glyph glyph-name="fraction" unicode="&#x2215;" horiz-adv-x="212" 
d="M-451 -371l1045 1866h72l-1045 -1866h-72z" />
    <glyph glyph-name="Euro" unicode="&#x20ac;" 
d="M256 708q0 -64 2 -87h473l-24 -74h-443q20 -236 112 -361t254 -125q161 0 271 105v-94q-92 -88 -287 -88q-387 0 -434 563h-123l23 74h94q-4 41 -4 86l2 90h-115l23 71h98q49 561 438 562q183 -1 285 -91v-94q-104 105 -274 105t-259 -133t-104 -349h543l-23 -71h-526
q-2 -25 -2 -89z" />
    <glyph glyph-name="trademark" unicode="&#x2122;" horiz-adv-x="1925" 
d="M965 659v818h153l205 -654l213 654h154v-818h-91v730l-243 -730h-70l-229 730v-730h-92zM236 1389v88h634v-88h-268v-730h-100v730h-266z" />
    <glyph glyph-name="minus" unicode="&#x2212;" horiz-adv-x="1366" 
d="M145 612v88h1074v-88h-1074z" />
    <glyph glyph-name="fi" unicode="&#xfb01;" horiz-adv-x="1216" 
d="M926 0v1012h88v-1012h-88zM225 1012v102q0 391 410 391q190 0 295 -100q41 -41 58 -85t26 -130h-88q-3 56 -24 104t-49 72q-73 62 -228 61q-154 -1 -233 -73t-79 -226v-116h297v-82h-297v-930h-88v930h-188v82h188z" />
    <glyph glyph-name="fl" unicode="&#xfb02;" horiz-adv-x="1216" 
d="M1014 1198v-1198h-88v1188q0 119 -76 181q-76 63 -224 63t-230 -72q-83 -72 -83 -205v-143h297v-82h-297v-930h-88v930h-188v82h188v133q0 176 109 270t292 94q184 0 286 -86t102 -225z" />
    </font>
</defs>
</svg>
