<?xml version="1.0" standalone="no"?>
<!DOCTYPE svg PUBLIC "-//W3C//DTD SVG 1.1//EN" "http://www.w3.org/Graphics/SVG/1.1/DTD/svg11.dtd" >
<svg xmlns="http://www.w3.org/2000/svg">
<metadata>
Created by FontPrep 20130207 at Thu Apr  2 00:59:35 2015
 By Callum Flack
Copyright (c) 1992 Adobe Systems Incorporated.  All Rights Reserved.Grotesque is a trademark of The Monotype Corporation plc registered in the US Patent &#38; TM Office.
</metadata>
<defs>
<font id="88c7a29a0a97a48475a45b83d137a32e" horiz-adv-x='1024' >
  <font-face 
    font-family="GrotesqueMT-Italic"
    font-weight="400"
    font-style="italic"
    font-stretch="normal"
    units-per-em="2048"
    panose-1="2 11 5 0 0 0 0 0 0 0"
    ascent="1536"
    descent="-512"
    x-height="1012"
    cap-height="1477"
    bbox="-322 -512 2089 1913"
    underline-thickness="102"
    underline-position="-102"
    slope="-14"
    unicode-range="U+0020-FB02"
  />
<missing-glyph horiz-adv-x="491" 
 />
    <glyph glyph-name=".notdef" horiz-adv-x="491" 
 />
    <glyph glyph-name=".null" horiz-adv-x="0" 
 />
    <glyph glyph-name="nonmarkingreturn" horiz-adv-x="681" 
 />
    <glyph glyph-name="space" unicode=" " horiz-adv-x="491" 
 />
    <glyph glyph-name="space" unicode="&#xa0;" horiz-adv-x="491" 
 />
    <glyph glyph-name="exclam" unicode="!" horiz-adv-x="555" 
d="M43 0l63 258h170l-63 -258h-170zM180 383l223 1092h172l-309 -1092h-86z" />
    <glyph glyph-name="quotedbl" unicode="&#x22;" 
d="M748 932v287l63 258h170l-66 -260l-114 -285h-53zM330 932v287l63 258h170l-65 -260l-115 -285h-53z" />
    <glyph glyph-name="numbersign" unicode="#" horiz-adv-x="1368" 
d="M922 844h-402l-71 -348h401zM86 844v143h320l86 397h143l-86 -397h401l84 397h144l-86 -397h190v-143h-217l-74 -350h291v-144h-317l-84 -395h-146l86 395h-403l-82 -395h-143l81 395h-188v144h219l72 350h-291z" />
    <glyph glyph-name="dollar" unicode="$" horiz-adv-x="1087" 
d="M518 866l103 412q-115 -6 -183 -64t-67 -149q0 -121 147 -199zM598 612l-123 -491q162 10 242 90q70 66 69 164q0 145 -188 237zM211 1055q0 115 60 201q114 164 386 167l23 97h145l-26 -111q127 -41 191 -113t77 -227h-154q-14 154 -151 195l-119 -469q164 -84 236 -177
q72 -94 72 -220q-1 -126 -78 -232t-201 -156q-82 -33 -234 -35l-41 -170h-141l45 185q-141 40 -216 116t-103 230h163q29 -147 193 -199l135 545q-262 143 -262 373z" />
    <glyph glyph-name="percent" unicode="%" horiz-adv-x="1748" 
d="M242 -76l1149 1589h118l-1151 -1589h-116zM1280 598q-82 0 -139 -167t-58 -261q0 -131 80 -131q61 0 109 102q47 101 64 197q18 96 18 144t-20 82t-54 34zM1281 707q95 0 153 -68t57 -171q0 -103 -33 -209q-32 -105 -68 -173t-98 -115t-149 -47q-86 0 -143 70
q-56 70 -56 181t64 296q33 98 105 167q73 69 168 69zM598 1407q-82 0 -139 -167t-58 -261q0 -131 80 -131q61 0 109 102q47 102 64 198q18 96 18 143q0 48 -20 82t-54 34zM599 1516q95 0 153 -68t57 -171q0 -103 -33 -209q-32 -106 -68 -174t-98 -114q-62 -47 -149 -47
q-86 0 -143 70q-56 70 -56 178t64 299q33 98 105 167q73 69 168 69z" />
    <glyph glyph-name="ampersand" unicode="&#x26;" horiz-adv-x="1216" 
d="M864 1174q0 102 -84 102q-59 0 -92 -62t-33 -154q0 -93 4 -126q205 80 205 240zM41 367q0 103 76 231q43 74 140 146t239 124q-4 41 -4 203t83 253t199 91q116 -1 184 -69t68 -162q0 -175 -133 -274q-66 -48 -108 -70t-113 -56q39 -328 100 -495q66 94 98 165
q33 71 64 187l119 -119q-51 -190 -191 -360q49 -37 86 -37t113 25l43 -138q-98 -39 -186 -39t-189 74q-127 -74 -270 -74q-186 0 -302 110t-116 284zM207 356q0 -89 76 -158t179 -69t177 43q-47 120 -75 232t-52 313q-103 -47 -185 -109q-120 -89 -120 -252z" />
    <glyph glyph-name="quotesingle" unicode="'" horiz-adv-x="555" 
d="M336 932v287l63 258h170l-65 -260l-115 -285h-53z" />
    <glyph glyph-name="parenleft" unicode="(" horiz-adv-x="768" 
d="M297 326q0 -345 141 -703h-147q-168 334 -168 669t91 573q46 120 96 224t212 310q37 45 105 121h182q-86 -104 -133 -166t-130 -196q-83 -132 -129 -243t-83 -269t-37 -320z" />
    <glyph glyph-name="parenright" unicode=")" horiz-adv-x="768" 
d="M510 826q0 273 -64 470q-25 78 -75 224h147q47 -98 76 -171q28 -73 60 -224t32 -306q0 -322 -86 -537q-45 -116 -86 -202t-140 -219t-192 -238h-182q84 100 138 171t132 198q78 126 124 242t81 278t35 314z" />
    <glyph glyph-name="asterisk" unicode="*" 
d="M541 1192l-203 238l143 86l109 -297l112 292l144 -81l-213 -240l330 53v-166l-330 60l215 -258l-148 -82l-110 309l-113 -311l-143 84l211 258l-320 -58v166z" />
    <glyph glyph-name="plus" unicode="+" horiz-adv-x="1366" 
d="M135 588v157h467v469h158v-469h471v-157h-471v-467h-158v467h-467z" />
    <glyph glyph-name="comma" unicode="," horiz-adv-x="555" 
d="M70 0l63 258h170l-80 -319q-33 -131 -80 -179t-145 -55l27 109q45 20 65 55t43 131h-63z" />
    <glyph glyph-name="hyphen" unicode="-" horiz-adv-x="768" 
d="M96 424l39 164h518l-39 -164h-518z" />
    <glyph glyph-name="hyphen" unicode="&#xad;" horiz-adv-x="768" 
d="M96 424l39 164h518l-39 -164h-518z" />
    <glyph glyph-name="period" unicode="." horiz-adv-x="555" 
d="M70 0l61 258h170l-63 -258h-168z" />
    <glyph glyph-name="slash" unicode="/" horiz-adv-x="661" 
d="M72 -348l381 1843h139l-381 -1843h-139z" />
    <glyph glyph-name="zero" unicode="0" 
d="M640 1280q-70 0 -136 -61q-132 -123 -232 -563q-49 -216 -49 -312t43 -164q44 -68 110 -68t127 50q137 112 239 536q58 240 58 346t-44 170q-45 66 -116 66zM371 -27q-143 0 -230 115q-86 115 -86 305q0 281 116 568q187 463 476 460q150 1 236 -119t86 -294
q1 -174 -43 -346q-123 -488 -360 -632q-91 -57 -195 -57z" />
    <glyph glyph-name="one" unicode="1" 
d="M301 963l39 163q119 48 212 108t208 179h123l-348 -1413h-181l269 1092q-170 -102 -322 -129z" />
    <glyph glyph-name="two" unicode="2" 
d="M987 1096q-1 -140 -65 -254t-146 -184q-82 -72 -218 -164t-208 -163t-121 -161h516l-43 -170h-667q23 205 107 328q85 123 287 264q202 140 288 242t86 233q-1 90 -57 145q-56 56 -149 56t-161 -70t-67 -168q0 -49 41 -139l-136 -109q-70 117 -69 242q0 168 119 279
t293 111t272 -90q98 -88 98 -228z" />
    <glyph glyph-name="three" unicode="3" horiz-adv-x="978" 
d="M262 1108q0 131 108 222t264 91t246 -85q91 -84 91 -242t-133 -263q-53 -43 -154 -73q90 -55 129 -126t39 -175q0 -215 -134 -349t-347 -135q-141 0 -232 84q-90 84 -90 215q0 57 12 138l148 -72q-4 -45 -4 -59q0 -72 46 -112t128 -40q131 0 209 88t78 238
q0 238 -267 237h-45l37 150h58q157 0 251 70t95 188q-1 82 -49 127t-135 45t-138 -52t-51 -145l-154 -49q-6 49 -6 84z" />
    <glyph glyph-name="four" unicode="4" 
d="M43 514l748 907h153l-229 -936h192l-39 -153h-192l-88 -359h-182l88 359h-496zM532 485l142 572l-475 -572h333z" />
    <glyph glyph-name="five" unicode="5" horiz-adv-x="978" 
d="M551 952q143 0 231 -102t88 -270q0 -256 -150 -432q-151 -175 -370 -175q-162 -1 -253 93t-91 262v34l180 37q-6 -47 -6 -71q0 -86 54 -146t136 -59q82 0 150 56t101 137q63 155 63 261q0 107 -48 164t-136 58q-150 0 -252 -201l-137 59l237 721h666l-43 -172h-533
l-110 -336q129 82 223 82z" />
    <glyph glyph-name="six" unicode="6" 
d="M526 807q-121 0 -209 -138t-88 -325q1 -106 51 -170t134 -63q123 0 216 136t93 314q-1 111 -55 179t-142 67zM707 1280q-209 0 -369 -424q116 88 246 88t225 -111q94 -112 94 -274t-77 -306q-145 -280 -406 -280q-174 0 -267 111t-93 292q0 180 62 414q64 234 212 433
t371 198q143 0 224 -67q80 -68 115 -207l-143 -66q-29 199 -194 199z" />
    <glyph glyph-name="seven" unicode="7" 
d="M193 1221l36 153h842l-35 -149q-170 -191 -254 -309t-180 -295t-143 -293t-107 -328h-196q43 193 121 389q78 195 321 526q139 193 246 306h-651z" />
    <glyph glyph-name="eight" unicode="8" 
d="M850 451q0 -209 -136 -343t-349 -135q-158 -1 -253 95t-96 254q0 240 160 372q61 53 180 90q-70 58 -98 116t-29 138q0 160 119 272q118 112 278 112t250 -85q90 -84 91 -225q0 -140 -67 -230t-204 -143q84 -59 119 -125t35 -163zM473 686q-115 0 -197 -110t-81 -259
q0 -88 55 -146t139 -58q119 0 200 105t81 257q0 95 -54 153t-143 58zM791 1094q0 186 -175 186q-87 0 -152 -78t-65 -201q0 -78 47 -127t130 -49t149 86q66 87 66 183z" />
    <glyph glyph-name="nine" unicode="9" 
d="M222 558q-95 112 -95 287t114 363q56 92 154 152t221 59q166 1 257 -115t91 -328t-94 -471q-96 -259 -223 -390q-141 -141 -321 -142q-139 0 -202 73t-67 218l170 62l-6 -76q0 -66 34 -103t91 -36q156 0 293 301l49 120q-93 -56 -140 -71q-48 -14 -89 -15
q-141 0 -237 112zM502 586q121 0 208 137t87 332q-1 95 -51 161t-130 65q-192 -2 -273 -260q-38 -116 -38 -213q0 -98 53 -160t144 -62z" />
    <glyph glyph-name="colon" unicode=":" horiz-adv-x="661" 
d="M102 0l64 256h170l-64 -256h-170zM289 754l63 258h168l-61 -258h-170z" />
    <glyph glyph-name="semicolon" unicode=";" horiz-adv-x="661" 
d="M113 0l63 258h170l-80 -319q-33 -131 -80 -179t-145 -55l27 109q45 20 65 55t43 131h-63zM299 756l59 256h170l-63 -256h-166z" />
    <glyph glyph-name="less" unicode="&#x3c;" horiz-adv-x="1366" 
d="M1229 307v-170l-1094 459v143l1094 459v-170l-881 -360z" />
    <glyph glyph-name="equal" unicode="=" horiz-adv-x="1366" 
d="M135 354v158h1096v-158h-1096zM135 827v158h1096v-158h-1096z" />
    <glyph glyph-name="greater" unicode="&#x3e;" horiz-adv-x="1366" 
d="M135 1026v172l1094 -461v-141l-1094 -459v170l883 359z" />
    <glyph glyph-name="question" unicode="?" 
d="M176 0l62 256h170l-66 -256h-166zM630 1513q144 0 231 -88t87 -231q0 -207 -196 -401q-21 -21 -230 -197q-57 -57 -80 -93t-49 -120h-90q21 147 71 247t163 210l28 28q111 108 156 176t45 152t-40 129t-103 45q-166 0 -158 -266l-162 59q4 158 94 254q89 96 233 96z" />
    <glyph glyph-name="at" unicode="@" horiz-adv-x="2078" 
d="M688 434q0 -125 60 -207t155 -82q139 0 252 155t113 345q0 133 -64 212t-172 79q-132 0 -238 -154t-106 -348zM1135 -430q-473 0 -743 240q-269 240 -269 659q0 276 135 535q74 139 183 245q110 106 284 175t387 69q372 0 614 -220t242 -560q0 -277 -185 -497t-417 -220
q-98 0 -141 37t-51 131q-146 -168 -304 -168t-262 130t-104 320q0 244 160 441t353 197t308 -185l33 156h180l-145 -672l-29 -156q0 -27 20 -46t56 -19t100 40q160 101 235 284q44 110 44 231q0 272 -204 451t-513 180q-358 0 -595 -245t-237 -614t228 -571t639 -201
q262 0 437 88t261 213h182q-15 -32 -33 -60t-94 -106t-165 -134t-247 -102t-343 -46z" />
    <glyph glyph-name="A" unicode="A" horiz-adv-x="1429" 
d="M-41 0l860 1516h178l215 -1516h-192l-49 352h-594l-201 -352h-217zM946 530l-92 664l-377 -664h469z" />
    <glyph glyph-name="B" unicode="B" horiz-adv-x="1323" 
d="M858 1477q190 0 301 -88t111 -240q0 -291 -377 -373q106 -33 168 -84q131 -110 131 -282t-132 -291t-337 -119h-700l360 1477h475zM674 700h-279l-129 -526h439q127 0 205 75t77 193q0 118 -86 188t-227 70zM850 1300h-309l-105 -426h281q162 0 257 65t95 163t-59 148
q-60 50 -160 50z" />
    <glyph glyph-name="C" unicode="C" horiz-adv-x="1536" 
d="M956 1341q-115 0 -210 -45q-95 -44 -156 -118q-133 -160 -178 -339q-45 -178 -45 -292q0 -197 97 -307t268 -111q171 0 305 111q65 53 99 88q33 35 76 88l111 -162q-141 -169 -278 -238t-318 -67q-262 0 -417 163q-154 163 -154 430t127 514q66 128 156 230
q91 102 227 166t271 64q136 0 229 -26t159 -76q65 -50 95 -82t71 -85l-133 -160q-147 254 -402 254z" />
    <glyph glyph-name="D" unicode="D" horiz-adv-x="1536" 
d="M815 1477q172 1 300 -55t193 -130q64 -74 102 -175t46 -163t8 -148q0 -210 -110 -414q-62 -114 -154 -198t-244 -140q-152 -54 -340 -54h-618l364 1477h453zM862 1294h-344l-272 -1112h426q252 0 418 184t165 465q0 211 -106 337q-107 126 -287 126z" />
    <glyph glyph-name="E" unicode="E" horiz-adv-x="1216" 
d="M14 0l363 1477h815l-43 -179h-614l-113 -452h584l-43 -178h-584l-121 -490h774l-45 -178h-973z" />
    <glyph glyph-name="F" unicode="F" horiz-adv-x="1087" 
d="M53 0l365 1477h708l-47 -179h-504l-116 -462h475l-45 -179h-473l-162 -657h-201z" />
    <glyph glyph-name="G" unicode="G" horiz-adv-x="1536" 
d="M731 -51q-270 0 -433 163t-163 416t108 495q60 135 148 241q87 106 233 177t325 71t313 -74t211 -193l-136 -158q-20 35 -32 55q-11 20 -51 62q-122 133 -318 133q-140 0 -246 -62q-106 -63 -168 -155t-103 -206q-71 -193 -71 -381q0 -189 98 -297t269 -107q171 0 268 59
q39 23 100 66l76 315h-477l37 138h674l-136 -547q-90 -74 -143 -109q-54 -35 -156 -69t-227 -33z" />
    <glyph glyph-name="H" unicode="H" horiz-adv-x="1536" 
d="M35 0l366 1477h199l-156 -631h754l156 631h198l-362 -1477h-201l164 668h-752l-163 -668h-203z" />
    <glyph glyph-name="I" unicode="I" horiz-adv-x="661" 
d="M74 0l362 1477h201l-367 -1477h-196z" />
    <glyph glyph-name="J" unicode="J" 
d="M350 -49q-136 0 -224 79q-89 79 -89 193q0 80 24 189l197 86q-37 -162 -37 -226t32 -101q33 -38 99 -38q135 0 185 232l258 1112h198l-274 -1180q-39 -166 -136 -256t-233 -90z" />
    <glyph glyph-name="K" unicode="K" horiz-adv-x="1429" 
d="M51 0l365 1477h200l-165 -670l739 670h278l-587 -533l393 -944h-225l-330 797l-348 -314l-119 -483h-201z" />
    <glyph glyph-name="L" unicode="L" 
d="M25 0l358 1477h199l-320 -1301h619l-41 -176h-815z" />
    <glyph glyph-name="M" unicode="M" horiz-adv-x="1984" 
d="M874 219l814 1258h292l-362 -1477h-178l317 1288l-831 -1288h-178l-201 1280l-316 -1280h-178l365 1477h258z" />
    <glyph glyph-name="N" unicode="N" horiz-adv-x="1536" 
d="M37 0l362 1477h246l428 -1194l295 1194h182l-360 -1477h-205l-455 1257l-309 -1257h-184z" />
    <glyph glyph-name="O" unicode="O" horiz-adv-x="1536" 
d="M889 1333q-233 0 -393 -232t-160 -573q0 -174 96 -286t232 -111q136 0 238 57q102 58 164 146q186 263 185 581q0 184 -101 301t-261 117zM897 1513q245 -1 403 -169t158 -430t-106 -483q-106 -222 -286 -352t-392 -130q-248 0 -396 167t-148 434t102 486t280 348
t385 129z" />
    <glyph glyph-name="P" unicode="P" horiz-adv-x="1323" 
d="M836 1477q204 0 326 -111q122 -110 122 -308t-157 -327t-414 -129h-322l-145 -602h-199l361 1477h428zM844 1300h-281l-129 -522h275q174 0 274 80t100 202t-63 180q-63 60 -176 60z" />
    <glyph glyph-name="Q" unicode="Q" horiz-adv-x="1536" 
d="M881 1331q-231 0 -391 -233t-160 -574q0 -272 204 -364q48 -23 97 -29q-25 94 -46 131q-22 37 -71 64l117 153q75 -53 113 -119t79 -206q106 29 192 120q143 154 206 438q25 112 24 199q0 186 -101 303t-263 117zM123 578q0 236 103 456q102 219 280 347t385 128
q249 0 405 -168t156 -430t-131 -530q-67 -133 -181 -241t-259 -156q51 -82 99 -114t144 -46l-90 -158q-137 31 -209 88t-133 195q-143 0 -229 33q-340 130 -340 596z" />
    <glyph glyph-name="R" unicode="R" horiz-adv-x="1429" 
d="M950 1477q88 0 171 -31t132 -69q49 -37 84 -109t35 -166q0 -162 -91 -271t-255 -151l152 -680h-193l-145 662h-432l-162 -662h-201l363 1477h542zM932 1303h-367l-114 -463h380q160 0 249 66t89 176q0 108 -63 164t-174 57z" />
    <glyph glyph-name="S" unicode="S" horiz-adv-x="1216" 
d="M825 408q0 84 -54 152t-192 159q-138 92 -210 181t-72 244t124 261t316 106q236 0 359 -151q41 -51 65 -137l-151 -115q-12 109 -89 170t-194 61t-185 -57t-67 -149q0 -61 46 -115t163 -129q150 -92 239 -201t89 -268q0 -211 -144 -341t-361 -130q-218 0 -347 104
q-50 45 -78 97t-57 153l172 133q15 -307 311 -307q150 0 234 77q83 77 83 202z" />
    <glyph glyph-name="T" unicode="T" horiz-adv-x="1323" 
d="M283 1305l43 172h1032l-43 -170h-416l-324 -1307h-198l321 1305h-415z" />
    <glyph glyph-name="U" unicode="U" horiz-adv-x="1640" 
d="M740 129q159 0 267 90t148 258l242 1000h200l-237 -969q-70 -297 -224 -427t-431 -130q-223 0 -366 125q-142 125 -142 321q0 70 18 144l231 936h201l-227 -922q-20 -92 -21 -143q0 -131 91 -207t250 -76z" />
    <glyph glyph-name="V" unicode="V" horiz-adv-x="1323" 
d="M401 -49l-104 1526h186l80 -1160l606 1160h213l-802 -1526h-179z" />
    <glyph glyph-name="W" unicode="W" horiz-adv-x="1984" 
d="M504 299l608 1178h162l14 -1178l606 1178h195l-784 -1526h-187l-14 1132l-582 -1132h-188l-19 1526h172z" />
    <glyph glyph-name="X" unicode="X" horiz-adv-x="1323" 
d="M731 1028l320 449h235l-491 -697l198 -780h-198l-148 573l-405 -573h-238l582 819l-166 658h198z" />
    <glyph glyph-name="Y" unicode="Y" horiz-adv-x="1323" 
d="M569 686l-247 791h194l182 -578l447 578h235l-612 -793l-166 -684h-201z" />
    <glyph glyph-name="Z" unicode="Z" horiz-adv-x="1323" 
d="M369 1303l43 174h934l-25 -97l-971 -1206h688l-41 -174h-970l24 102l967 1201h-649z" />
    <glyph glyph-name="bracketleft" unicode="[" horiz-adv-x="768" 
d="M37 -342l448 1819h330l-24 -97h-164l-402 -1628h172l-22 -94h-338z" />
    <glyph glyph-name="backslash" unicode="\" horiz-adv-x="661" 
d="M481 -348l-381 1843h140l381 -1843h-140z" />
    <glyph glyph-name="bracketright" unicode="]" horiz-adv-x="768" 
d="M389 1380l21 97h340l-445 -1819h-330l23 94h164l399 1628h-172z" />
    <glyph glyph-name="asciicircum" unicode="^" horiz-adv-x="960" 
d="M479 1288l-241 -598h-185l355 801h145l354 -801h-182z" />
    <glyph glyph-name="underscore" unicode="_" horiz-adv-x="1024" 
d="M1024 -256h-1024v102h1024v-102z" />
    <glyph glyph-name="grave" unicode="`" horiz-adv-x="681" 
d="M592 1137h-141l-195 274h219z" />
    <glyph glyph-name="a" unicode="a" horiz-adv-x="978" 
d="M545 1038q170 0 265 -63t95 -178q0 -33 -10 -78l-127 -508q-6 -25 -6 -55q0 -54 108 -52l-30 -120q-72 -16 -95 -17q-160 0 -161 152q-84 -84 -142 -116t-129 -32q-119 0 -189 75q-70 76 -71 188q0 112 49 200t134 139q86 51 224 73t173 32t92 37q6 31 6 45q0 63 -46 99
t-128 36q-135 0 -229 -100l-115 88q107 120 184 137q78 18 148 18zM366 104q64 0 115 34t82 76q70 95 129 376q-96 -37 -168 -52t-116 -30q-184 -82 -185 -256q0 -66 40 -107q39 -41 103 -41z" />
    <glyph glyph-name="b" unicode="b" horiz-adv-x="1087" 
d="M700 1032q127 0 212 -108t85 -269q0 -272 -147 -472t-348 -199q-178 0 -256 204l-45 -188h-170l370 1477h162l-149 -613q135 168 286 168zM821 647q0 111 -51 179t-139 67q-88 0 -160 -76q-73 -76 -107 -180q-70 -210 -69 -304q0 -95 52 -153t134 -57q133 0 237 160
q103 160 103 364z" />
    <glyph glyph-name="c" unicode="c" 
d="M610 895q-139 0 -244 -158t-106 -366q0 -121 59 -191t162 -69q126 0 228 135l125 -82q-109 -139 -230 -175q-63 -19 -141 -20q-172 0 -275 111q-102 111 -102 311t133 413q63 101 171 167t237 65q281 0 329 -288l-135 -50q-41 197 -211 197z" />
    <glyph glyph-name="d" unicode="d" horiz-adv-x="1087" 
d="M416 -18q-141 0 -230 106q-88 106 -88 262t55 308q54 151 170 262t265 110q199 0 256 -211l162 658h168l-363 -1477h-170l39 152q-123 -170 -264 -170zM616 891q-83 1 -155 -61t-110 -151q-75 -175 -76 -301t49 -192t140 -66q89 0 161 78q72 77 106 182q67 201 69 297
q1 95 -50 155t-134 59z" />
    <glyph glyph-name="e" unicode="e" 
d="M66 362q0 295 150 486q151 190 386 190q141 0 228 -96t88 -252q0 -94 -33 -239h-645q-8 -45 -9 -95q1 -112 59 -180t152 -67q131 0 254 141l115 -86q-65 -74 -132 -122q-98 -71 -262 -72q-165 0 -258 102t-93 290zM575 899q-211 0 -301 -311h471q12 68 13 102
q0 98 -49 154t-134 55z" />
    <glyph glyph-name="f" unicode="f" horiz-adv-x="661" 
d="M776 1356q-170 0 -205 -148l-49 -196h176l-34 -135h-172l-267 -1158h-170l269 1158h-191l37 135h184l62 254q59 248 352 247q66 0 145 -8l-39 -155q-61 6 -98 6z" />
    <glyph glyph-name="g" unicode="g" horiz-adv-x="1087" 
d="M420 -29q-141 0 -226 112t-85 288q0 268 146 466q146 197 345 197t254 -215l51 193h170l-280 -1112q-33 -135 -139 -210t-261 -75q-156 0 -251 55t-152 178l147 62q41 -84 101 -121t155 -37q195 1 240 187l51 196q-125 -164 -266 -164zM807 696q0 90 -51 148t-133 57
q-111 0 -193 -103t-115 -221q-72 -256 15 -392q47 -72 143 -72q170 6 252 220t82 363z" />
    <glyph glyph-name="h" unicode="h" horiz-adv-x="1214" 
d="M1065 776q0 -51 -12 -100l-164 -676h-170l155 623q38 163 -32 237q-45 47 -127 47q-131 1 -201 -69t-115 -246l-149 -592h-164l369 1477h166l-156 -621q51 57 90 91t105 63t143 28q115 0 189 -74t73 -188z" />
    <glyph glyph-name="i" unicode="i" horiz-adv-x="555" 
d="M68 0l251 1012h168l-249 -1012h-170zM397 1239l47 188h148l-47 -188h-148z" />
    <glyph glyph-name="j" unicode="j" horiz-adv-x="555" 
d="M-63 -389q-51 0 -162 20l39 136q66 -10 96 -11q131 0 160 121l262 1135h166l-271 -1176q-53 -225 -290 -225zM383 1239l43 186h168l-43 -186h-168z" />
    <glyph glyph-name="k" unicode="k" 
d="M23 0l362 1477h166l-229 -945l407 482h209l-287 -309l211 -705h-174l-168 563l-260 -276l-72 -287h-165z" />
    <glyph glyph-name="l" unicode="l" horiz-adv-x="555" 
d="M55 0l363 1477h166l-361 -1477h-168z" />
    <glyph glyph-name="m" unicode="m" horiz-adv-x="1746" 
d="M1442 741q0 150 -182 150q-94 0 -173 -72q-78 -72 -108 -201l-152 -618h-170l166 680q8 27 8 59q0 72 -45 112t-127 40q-227 0 -303 -303l-143 -588h-168l250 1012h164l-37 -160q47 47 79 76q33 30 103 64t158 34t156 -55q66 -55 83 -162q176 217 359 217q110 0 184 -70
t74 -176q0 -25 -8 -73l-172 -707h-170l164 664q10 45 10 77z" />
    <glyph glyph-name="n" unicode="n" horiz-adv-x="1214" 
d="M795 1026q119 0 195 -76t75 -190q0 -45 -12 -88l-162 -672h-166l156 651q10 33 10 95t-46 103q-45 42 -143 42t-183 -85t-122 -231l-141 -575h-168l252 1012h164l-41 -172q55 57 90 88q35 30 103 64t139 34z" />
    <glyph glyph-name="o" unicode="o" horiz-adv-x="1087" 
d="M463 104q174 0 290 148t115 366q0 125 -67 202q-68 77 -176 77q-174 0 -290 -146t-116 -366q-1 -129 65 -205t179 -76zM471 -29q-201 0 -315 111t-113 307q0 273 169 459t419 186q195 0 305 -114t108 -316q0 -264 -166 -448t-407 -185z" />
    <glyph glyph-name="p" unicode="p" horiz-adv-x="1087" 
d="M702 1034q132 0 216 -105t83 -272q0 -272 -142 -477t-333 -205q-148 0 -207 80q-39 52 -65 133l-148 -581h-163l346 1405h170l-39 -156q72 98 135 138t147 40zM485 111q137 0 241 167q103 167 103 386q0 106 -52 170t-136 63q-84 0 -154 -71q-69 -71 -107 -171
q-76 -203 -78 -314q-1 -111 50 -171t133 -59z" />
    <glyph glyph-name="q" unicode="q" horiz-adv-x="1087" 
d="M393 -25q-135 1 -217 107t-82 283q0 270 148 470q148 199 343 199q196 0 257 -209l49 187h166l-344 -1405h-168l133 549q-78 -100 -140 -140t-145 -41zM453 113q85 1 153 67t107 162q78 191 80 350q-1 92 -51 148t-134 57q-133 0 -236 -169t-104 -388q0 -102 50 -165
q51 -62 135 -62z" />
    <glyph glyph-name="r" unicode="r" horiz-adv-x="768" 
d="M698 1026q32 0 88 -29l-28 -166q-61 27 -94 27q-100 0 -199 -184q-111 -197 -150 -344l-82 -330h-167l245 1012h170l-100 -412l172 336q23 42 68 66t77 24z" />
    <glyph glyph-name="s" unicode="s" 
d="M534 899q-78 0 -130 -43t-52 -103q0 -59 43 -97t117 -63t98 -35t75 -37q50 -27 80 -57q31 -30 55 -80t24 -108q0 -143 -109 -226t-313 -83t-287 84q-45 45 -66 87t-46 116l137 59q39 -104 96 -155q56 -52 176 -52t180 39t60 103t-43 104q-43 38 -126 68t-119 48t-87 52
q-106 73 -105 207q1 135 105 222t270 87t254 -90q61 -61 97 -133l-138 -70q-53 84 -110 120q-58 36 -136 36z" />
    <glyph glyph-name="t" unicode="t" horiz-adv-x="661" 
d="M264 193q0 -78 111 -78q76 0 192 37l-37 -150l-43 -10q-92 -23 -180 -23q-221 0 -221 174q0 49 12 99l181 635h-140l35 135h143l113 403l186 49l-127 -452h148l-33 -135h-155l-179 -633q-6 -27 -6 -51z" />
    <glyph glyph-name="u" unicode="u" horiz-adv-x="1214" 
d="M322 276q0 -62 48 -107q48 -46 146 -46t178 76t115 215l149 598h168l-252 -1012h-167l38 162q-164 -174 -335 -174q-115 0 -188 76t-72 196q-1 59 28 184l146 568h165l-147 -588q-20 -86 -20 -148z" />
    <glyph glyph-name="v" unicode="v" 
d="M268 -31l-53 1043h152l39 -779l413 779h174l-559 -1043h-166z" />
    <glyph glyph-name="w" unicode="w" horiz-adv-x="1536" 
d="M291 -31l-94 1043h151l66 -738l379 738h139l67 -738l375 738h170l-530 -1043h-144l-61 742l-379 -742h-139z" />
    <glyph glyph-name="x" unicode="x" 
d="M406 539l-158 473h151l111 -328l242 328h180l-365 -498l174 -514h-153l-125 373l-275 -373h-178z" />
    <glyph glyph-name="y" unicode="y" 
d="M84 -391q-82 0 -166 10l39 133q55 -6 107 -6t90 22t64 59q26 39 40 67l49 98l-106 1020h145l84 -776l387 776h164l-559 -1118q-35 -70 -52 -102q-18 -32 -52 -76t-65 -61q-87 -46 -169 -46z" />
    <glyph glyph-name="z" unicode="z" 
d="M211 868l35 144h686l-29 -121l-616 -748h485l-35 -143h-727l23 96l637 772h-459z" />
    <glyph glyph-name="braceleft" unicode="{" horiz-adv-x="684" 
d="M236 726q45 68 45 319t33 332t75 103q93 46 209 48h55v-156h-30q-105 0 -139 -39t-33 -168v-145q1 -219 -47 -308t-162 -145q116 -49 162 -148t47 -302v-148q1 -127 33 -166t139 -39h30v-157h-55q-114 0 -200 43q-50 24 -91 126q-21 53 -24 145q-2 91 -2 174
q0 244 -47 315t-160 75v164q109 4 162 77z" />
    <glyph glyph-name="bar" unicode="|" horiz-adv-x="1118" 
d="M520 -512v2048h160v-2048h-160z" />
    <glyph glyph-name="braceright" unicode="}" horiz-adv-x="684" 
d="M92 1528h55q217 0 277 -133q39 -84 41 -326v-33q0 -246 47 -314q47 -69 160 -73v-164q-113 -5 -162 -77q-45 -66 -45 -319t-27 -313q-41 -102 -91 -126q-91 -43 -200 -43h-55v157h31q106 0 139 39t33 166v148q0 203 46 302t163 148q-74 37 -114 75t-67 131
q-28 93 -28 247v145q0 129 -33 168t-139 39h-31v156z" />
    <glyph glyph-name="asciitilde" unicode="~" horiz-adv-x="1343" 
d="M924 561q-60 -1 -120 19t-190 82t-192 61q-131 0 -295 -141v168q154 129 303 129q96 -1 260 -81t236 -79q127 0 291 143v-170q-154 -131 -293 -131z" />
    <glyph glyph-name="exclamdown" unicode="&#xa1;" horiz-adv-x="555" 
d="M-29 -340l308 1090h81l-221 -1090h-168zM332 1133h168l-64 -256h-168z" />
    <glyph glyph-name="cent" unicode="&#xa2;" 
d="M453 111q125 0 227 135l125 -82q-109 -139 -230 -175q-63 -19 -127 -19t-100 7l-141 -358h-123l156 399q-182 100 -183 359q0 214 133 427q63 101 171 167t237 65q27 0 37 -4l141 359h125l-151 -383q145 -66 178 -260l-135 -50q-25 117 -99 166l-293 -747q27 -6 52 -6z
M582 895q-138 0 -244 -158t-107 -366q0 -127 68 -201z" />
    <glyph glyph-name="sterling" unicode="&#xa3;" horiz-adv-x="1214" 
d="M422 621h-309l43 161h262q2 184 26 295q34 160 136 250t247 90t245 -82t99 -202q0 -35 -6 -84l-172 55q4 41 -14 82q-33 76 -147 77t-160 -80q-25 -42 -39 -80q-31 -84 -31 -321h352l-36 -161h-318q0 -203 -63 -367q113 -111 193 -111t119 48q38 48 60 174l176 49
q-8 -207 -104 -324q-95 -117 -249 -117t-283 127q-111 -127 -238 -127q-95 1 -151 55t-56 146t69 159t163 66q61 0 155 -47q31 129 31 269zM228 254q-48 0 -72 -23t-25 -55q1 -32 21 -50q20 -19 49 -20q70 1 121 99q-46 49 -94 49z" />
    <glyph glyph-name="currency" unicode="&#xa4;" horiz-adv-x="1366" 
d="M683 211q-146 0 -263 86l-131 -129l-107 106l133 129q-86 115 -86 263t84 264l-133 131l111 106l127 -133q120 88 268 88t262 -86l129 131l105 -106l-127 -129q86 -118 86 -266t-86 -263l127 -129l-105 -106l-129 129q-119 -86 -265 -86zM377 666q0 -127 90 -217
q90 -91 217 -91t217 90t90 218q0 127 -90 217t-217 90t-217 -90t-90 -217z" />
    <glyph glyph-name="yen" unicode="&#xa5;" horiz-adv-x="1323" 
d="M551 500l45 182h-444l34 127h367l-203 668h193l182 -580l449 580h235l-514 -668h377l-35 -127h-440l-45 -182h444l-35 -127h-440l-92 -373h-199l90 373h-444l35 127h440z" />
    <glyph glyph-name="brokenbar" unicode="&#xa6;" horiz-adv-x="1118" 
d="M520 666v716h160v-716h-160zM520 -358v716h160v-716h-160z" />
    <glyph glyph-name="section" unicode="&#xa7;" horiz-adv-x="1085" 
d="M764 -70q0 -137 -102 -222t-274 -85t-261 94q-39 41 -53 89t-15 137l168 37q-8 -223 187 -224q78 0 131 47t53 117t-52 126t-233 192q-109 82 -155 158t-45 175q0 238 299 369q-86 113 -86 234q0 154 110 248t287 96q299 0 326 -301l-164 -41q-8 213 -187 213
q-88 1 -144 -53t-56 -134t46 -140t174 -152t191 -175q63 -82 64 -205q0 -226 -301 -346q92 -117 92 -254zM807 506q0 78 -56 146t-194 159q-37 25 -55 39q-233 -70 -234 -244q0 -72 42 -124t130 -110t140 -98q127 46 177 100t50 132z" />
    <glyph glyph-name="dieresis" unicode="&#xa8;" horiz-adv-x="681" 
d="M782 1174h-188l43 204h188zM414 1174h-189l43 204h189z" />
    <glyph glyph-name="copyright" unicode="&#xa9;" horiz-adv-x="1511" 
d="M127 736q0 -261 183 -445q184 -185 444 -185t444 184t184 447q0 261 -183 445t-444 184t-445 -184q-183 -185 -183 -446zM0 736q0 312 221 534t533 221q312 0 534 -221q221 -222 221 -534t-221 -533t-533 -221t-534 221q-221 221 -221 533zM760 1049q-121 0 -193 -87
q-71 -88 -71 -232t68 -226t174 -82q104 0 170 51t89 141l123 -36q-31 -127 -128 -201t-234 -74q-182 0 -290 117q-108 116 -108 314t108 312t292 113q133 0 221 -60t123 -175l-119 -29q-61 154 -225 154z" />
    <glyph glyph-name="ordfeminine" unicode="&#xaa;" horiz-adv-x="618" 
d="M547 838q-80 0 -86 96q-88 -94 -167 -94t-123 46t-44 136q1 90 65 156t205 88q92 16 156 45q8 75 -34 94q-42 18 -77 18q-67 0 -143 -63l-72 53q45 53 92 76t135 23t150 -42q62 -41 62 -110q0 -12 -4 -33l-82 -330q-4 -11 -4 -35t12 -31q14 -7 53 -7l-18 -76
q-39 -10 -76 -10zM532 1231q-49 -23 -116 -35q-182 -39 -183 -176q0 -43 25 -70q25 -26 75 -26t92 45t59 97t48 165z" />
    <glyph glyph-name="guillemotleft" unicode="&#xab;" 
d="M440 575l348 486h179l-365 -510l156 -469h-152zM55 571l348 490h177l-363 -512l156 -467h-152z" />
    <glyph glyph-name="logicalnot" unicode="&#xac;" horiz-adv-x="1366" 
d="M135 836v157h1096v-645h-158v488h-938z" />
    <glyph glyph-name="registered" unicode="&#xae;" horiz-adv-x="1511" 
d="M555 1020v-244h160q197 0 196 123q0 69 -46 95t-160 26h-150zM555 319h-131v811h278q154 0 214 -24t98 -79q37 -54 37 -132t-66 -141t-168 -72q47 -18 88 -62t103 -143l98 -158h-160l-74 127q-78 137 -120 178q-43 40 -119 40h-78v-345zM127 736q0 -261 183 -445
q184 -185 444 -185t444 184t184 447q0 261 -183 445t-444 184t-445 -184q-183 -185 -183 -446zM0 736q0 312 221 534t533 221q312 0 534 -221q221 -222 221 -534t-221 -533t-533 -221t-534 221q-221 221 -221 533z" />
    <glyph glyph-name="macron" unicode="&#xaf;" horiz-adv-x="681" 
d="M780 1176h-620l30 137h621z" />
    <glyph glyph-name="macron" unicode="&#x2c9;" horiz-adv-x="681" 
d="M780 1176h-620l30 137h621z" />
    <glyph glyph-name="degree" unicode="&#xb0;" horiz-adv-x="819" 
d="M324 1214q0 -70 49 -120t119 -50t118 50t49 120q0 70 -49 119q-48 49 -118 49t-119 -49t-49 -119zM215 1214q0 115 81 196t196 81q116 0 196 -81t80 -196q0 -114 -81 -196t-195 -82t-196 82q-81 82 -81 196z" />
    <glyph glyph-name="plusminus" unicode="&#xb1;" horiz-adv-x="1366" 
d="M135 -49v158h1096v-158h-1096zM135 758v157h467v471h158v-471h471v-157h-471v-467h-158v467h-467z" />
    <glyph glyph-name="twosuperior" unicode="&#xb2;" horiz-adv-x="661" 
d="M600 1310q0 98 -100 99q-52 0 -99 -48t-47 -114q0 -14 4 -51l-127 -70q-8 49 -8 95q0 115 93 201q92 86 204 87q112 0 172 -48t60 -132q0 -211 -326 -393q-76 -44 -102 -64t-62 -63h356l-30 -125h-512q35 109 86 169q51 61 137 117q224 147 273 241q28 51 28 99z" />
    <glyph glyph-name="threesuperior" unicode="&#xb3;" horiz-adv-x="661" 
d="M721 1354q0 -145 -182 -234q111 -46 111 -156t-102 -201q-101 -91 -235 -91q-98 0 -152 46q-55 46 -55 118t50 149l120 -51q-56 -94 -6 -142q23 -22 62 -22q66 0 112 56t45 139q0 106 -163 106l24 98h35q76 1 129 49t53 113q0 84 -73 84q-105 0 -109 -104l-143 -49
q-4 120 80 186t200 65q199 0 199 -159z" />
    <glyph glyph-name="acute" unicode="&#xb4;" horiz-adv-x="681" 
d="M487 1137h-149l186 274h230z" />
    <glyph glyph-name="mu" unicode="&#xb5;" horiz-adv-x="1138" 
d="M476 127q85 0 154 42t103 112q35 70 66 208l119 572h180l-228 -1061h-159l16 84q-127 -109 -268 -109q-67 0 -135 37t-101 88l-108 -510h-176l309 1471h180l-119 -553q-27 -119 -27 -201t55 -131q54 -49 139 -49z" />
    <glyph glyph-name="mu" unicode="&#x3bc;" horiz-adv-x="1138" 
d="M476 127q85 0 154 42t103 112q35 70 66 208l119 572h180l-228 -1061h-159l16 84q-127 -109 -268 -109q-67 0 -135 37t-101 88l-108 -510h-176l309 1471h180l-119 -553q-27 -119 -27 -201t55 -131q54 -49 139 -49z" />
    <glyph glyph-name="paragraph" unicode="&#xb6;" horiz-adv-x="1101" 
d="M598 -397h-164v1044q-188 10 -297 122t-108 292q0 125 58 222q116 194 415 194h633v-174h-144v-1700h-170v1700h-223v-1700z" />
    <glyph glyph-name="periodcentered" unicode="&#xb7;" horiz-adv-x="555" 
d="M178 444v258h199v-258h-199z" />
    <glyph glyph-name="periodcentered" unicode="&#x2219;" horiz-adv-x="555" 
d="M178 444v258h199v-258h-199z" />
    <glyph glyph-name="cedilla" unicode="&#xb8;" horiz-adv-x="757" 
d="M205 -315q174 0 174 69q0 82 -162 86l41 160h139l-24 -90q84 -12 132 -57t48 -113q0 -176 -342 -176q-98 0 -170 10l22 113q45 -2 142 -2z" />
    <glyph glyph-name="onesuperior" unicode="&#xb9;" horiz-adv-x="661" 
d="M262 1233l27 102q166 94 254 193h104l-209 -844h-143l158 637q-101 -68 -191 -88z" />
    <glyph glyph-name="ordmasculine" unicode="&#xba;" horiz-adv-x="681" 
d="M496 1425q-106 0 -180 -93t-72 -230q0 -80 41 -128t108 -48q115 0 188 91t72 236q-1 78 -43 125t-114 47zM502 1511q122 1 192 -71t70 -197q0 -174 -106 -288t-265 -113q-121 0 -191 70t-71 188q1 176 107 294t264 117z" />
    <glyph glyph-name="guillemotright" unicode="&#xbb;" 
d="M379 592l-156 469h154l164 -494l-348 -485h-177zM764 596l-156 465h152l164 -490l-346 -487h-175z" />
    <glyph glyph-name="onequarter" unicode="&#xbc;" horiz-adv-x="1748" 
d="M365 1186l26 104q160 82 254 191h107l-211 -844h-142l158 639q-104 -72 -192 -90zM1731 1481h131l-1835 -1827h-140zM858 2l471 494h133l-137 -543h100l-28 -119h-99l-47 -182h-135l45 182h-344zM1276 299l-326 -342h240z" />
    <glyph glyph-name="onehalf" unicode="&#xbd;" horiz-adv-x="1748" 
d="M369 1190l24 106q143 61 246 185h111l-211 -844h-142l162 643q-100 -70 -190 -90zM1018 217q0 115 95 197t226 82q89 0 147 -50t58 -126q0 -142 -121 -249q-86 -75 -193 -141q-107 -65 -177 -133h360l-31 -125h-512q38 108 94 174t145 124t117 79t72 63q94 90 95 195
q0 41 -25 66t-76 25t-99 -49q-48 -48 -38 -165l-129 -69q-8 55 -8 102zM1729 1481h131l-1831 -1827h-140z" />
    <glyph glyph-name="threequarters" unicode="&#xbe;" horiz-adv-x="1748" 
d="M860 4l469 492h131l-135 -543h100l-30 -121h-99l-45 -180h-135l43 180h-344zM1276 297l-324 -342h238zM592 1481q199 0 199 -160q0 -147 -183 -236q111 -43 111 -155q1 -112 -101 -202q-102 -91 -235 -91q-96 0 -152 47q-55 48 -55 120t49 146l121 -51q-29 -49 -29 -84
t23 -57t61 -21q66 -1 112 55t46 138q0 106 -164 106l25 99h35q76 0 129 48q53 47 53 123t-74 76q-51 0 -80 -28q-28 -29 -28 -78l-144 -47q-4 119 80 185t201 67zM1733 1481h127l-1835 -1827h-136z" />
    <glyph glyph-name="questiondown" unicode="&#xbf;" 
d="M337 -377q-142 0 -227 91t-85 233q0 178 131 323q63 72 105 109t123 101t119 115q38 50 72 155h89q-20 -156 -74 -256t-177 -218q-122 -118 -165 -188q-43 -72 -43 -153t39 -125t104 -46q168 1 158 267l162 -58q-8 -174 -99 -260q-90 -90 -232 -90zM561 879l64 254h166
l-64 -254h-166z" />
    <glyph glyph-name="Agrave" unicode="&#xc0;" horiz-adv-x="1429" 
d="M967 1602h-142l-194 274h219zM-41 0l860 1516h178l215 -1516h-192l-49 352h-594l-201 -352h-217zM946 530l-92 664l-377 -664h469z" />
    <glyph glyph-name="Aacute" unicode="&#xc1;" horiz-adv-x="1429" 
d="M965 1602h-150l186 274h230zM-41 0l860 1516h178l215 -1516h-192l-49 352h-594l-201 -352h-217zM946 530l-92 664l-377 -664h469z" />
    <glyph glyph-name="Acircumflex" unicode="&#xc2;" horiz-adv-x="1429" 
d="M793 1602h-187l266 274h199l125 -274h-160l-80 178zM-41 0l860 1516h178l215 -1516h-192l-49 352h-594l-201 -352h-217zM946 530l-92 664l-377 -664h469z" />
    <glyph glyph-name="Atilde" unicode="&#xc3;" horiz-adv-x="1429" 
d="M811 1716q-68 0 -82 -84h-125q33 127 76 176q42 50 112 50t168 -44t127 -42q51 0 72 77h121q-10 -96 -64 -156t-135 -61q-39 0 -98 25l-57 24l-39 15q-51 20 -76 20zM-41 0l860 1516h178l215 -1516h-192l-49 352h-594l-201 -352h-217zM946 530l-92 664l-377 -664h469z
" />
    <glyph glyph-name="Adieresis" unicode="&#xc4;" horiz-adv-x="1429" 
d="M1239 1638h-188l43 205h188zM870 1638h-188l43 205h188zM-41 0l860 1516h178l215 -1516h-192l-49 352h-594l-201 -352h-217zM946 530l-92 664l-377 -664h469z" />
    <glyph glyph-name="Aring" unicode="&#xc5;" horiz-adv-x="1429" 
d="M834 1731q0 -45 32 -77t76 -32q45 0 76 32t31 77t-31 75t-76 31q-44 -1 -76 -31t-32 -75zM760 1731q0 76 53 129t129 53t129 -53t53 -129t-53 -129q-53 -54 -129 -54t-129 54t-53 129zM-41 0l860 1516h178l215 -1516h-192l-49 352h-594l-201 -352h-217zM946 530l-92 664
l-377 -664h469z" />
    <glyph glyph-name="AE" unicode="&#xc6;" horiz-adv-x="1961" 
d="M-76 0l957 1477h1003l-43 -179h-612l-113 -452h586l-45 -178h-586l-121 -490h783l-45 -178h-973l86 352h-439l-231 -352h-207zM1036 1294h-69l-500 -776h377z" />
    <glyph glyph-name="Ccedilla" unicode="&#xc7;" horiz-adv-x="1536" 
d="M901 1341q-115 0 -210 -45q-95 -44 -156 -118t-107 -160q-76 -141 -105 -344q-11 -72 -12 -127q-1 -197 97 -307t270 -111q214 0 402 199q34 35 77 88l111 -162q-141 -170 -279 -239q-137 -68 -317 -66q-31 0 -45 4l-19 -64q84 -12 132 -57t48 -113q0 -176 -342 -176
q-98 0 -170 11l23 112q45 -2 141 -2q174 0 174 70q0 82 -161 86l41 155q-184 49 -289 201t-105 391t127 489q66 128 157 230t226 166q136 64 272 64t229 -26t159 -76t96 -82t70 -85l-133 -160q-147 254 -402 254z" />
    <glyph glyph-name="Egrave" unicode="&#xc8;" horiz-adv-x="1216" 
d="M860 1602h-141l-195 274h219zM14 0l363 1477h815l-43 -179h-614l-113 -452h584l-43 -178h-584l-121 -490h774l-45 -178h-973z" />
    <glyph glyph-name="Eacute" unicode="&#xc9;" horiz-adv-x="1216" 
d="M756 1602h-150l187 274h229zM14 0l363 1477h815l-43 -179h-614l-113 -452h584l-43 -178h-584l-121 -490h774l-45 -178h-973z" />
    <glyph glyph-name="Ecircumflex" unicode="&#xca;" horiz-adv-x="1216" 
d="M666 1602h-187l266 274h199l125 -274h-160l-80 178zM14 0l363 1477h815l-43 -179h-614l-113 -452h584l-43 -178h-584l-121 -490h774l-45 -178h-973z" />
    <glyph glyph-name="Edieresis" unicode="&#xcb;" horiz-adv-x="1216" 
d="M1071 1638h-188l43 205h188zM702 1638h-188l43 205h188zM14 0l363 1477h815l-43 -179h-614l-113 -452h584l-43 -178h-584l-121 -490h774l-45 -178h-973z" />
    <glyph glyph-name="Igrave" unicode="&#xcc;" horiz-adv-x="661" 
d="M582 1602h-142l-194 274h219zM74 0l362 1477h201l-367 -1477h-196z" />
    <glyph glyph-name="Iacute" unicode="&#xcd;" horiz-adv-x="661" 
d="M580 1602h-150l186 274h230zM74 0l362 1477h201l-367 -1477h-196z" />
    <glyph glyph-name="Icircumflex" unicode="&#xce;" horiz-adv-x="661" 
d="M408 1602h-187l266 274h199l125 -274h-160l-80 178zM74 0l362 1477h201l-367 -1477h-196z" />
    <glyph glyph-name="Idieresis" unicode="&#xcf;" horiz-adv-x="661" 
d="M813 1638h-188l43 205h188zM444 1638h-188l43 205h188zM74 0l362 1477h201l-367 -1477h-196z" />
    <glyph glyph-name="Eth" unicode="&#xd0;" horiz-adv-x="1536" 
d="M713 182q251 0 417 184t166 465q0 211 -106 337t-287 126h-344l-115 -471h455l-41 -174h-457l-114 -467h426zM856 1477q172 1 300 -55t193 -130t103 -175t45 -163q8 -62 8 -148q0 -210 -110 -414q-61 -114 -153 -198t-245 -140q-152 -54 -340 -54h-618l160 649h-150
l41 174h152l161 654h453z" />
    <glyph glyph-name="Ntilde" unicode="&#xd1;" horiz-adv-x="1536" 
d="M864 1716q-68 0 -82 -84h-125q33 127 76 176q43 50 113 50t168 -44t127 -42q51 0 71 77h121q-10 -96 -64 -156t-134 -61q-39 0 -99 25l-57 24l-39 15q-51 20 -76 20zM37 0l362 1477h246l428 -1194l295 1194h182l-360 -1477h-205l-455 1257l-309 -1257h-184z" />
    <glyph glyph-name="Ograve" unicode="&#xd2;" horiz-adv-x="1536" 
d="M1020 1602h-141l-195 274h219zM889 1333q-233 0 -393 -232t-160 -573q0 -174 96 -286t232 -111q136 0 238 57q102 58 164 146q186 263 185 581q0 184 -101 301t-261 117zM897 1513q245 -1 403 -169t158 -430t-106 -483q-106 -222 -286 -352t-392 -130q-248 0 -396 167
t-148 434t102 486t280 348t385 129z" />
    <glyph glyph-name="Oacute" unicode="&#xd3;" horiz-adv-x="1536" 
d="M915 1602h-149l186 274h230zM889 1333q-233 0 -393 -232t-160 -573q0 -174 96 -286t232 -111q136 0 238 57q102 58 164 146q186 263 185 581q0 184 -101 301t-261 117zM897 1513q245 -1 403 -169t158 -430t-106 -483q-106 -222 -286 -352t-392 -130q-248 0 -396 167
t-148 434t102 486t280 348t385 129z" />
    <glyph glyph-name="Ocircumflex" unicode="&#xd4;" horiz-adv-x="1536" 
d="M825 1602h-186l266 274h199l125 -274h-160l-80 178zM889 1333q-233 0 -393 -232t-160 -573q0 -174 96 -286t232 -111q136 0 238 57q102 58 164 146q186 263 185 581q0 184 -101 301t-261 117zM897 1513q245 -1 403 -169t158 -430t-106 -483q-106 -222 -286 -352
t-392 -130q-248 0 -396 167t-148 434t102 486t280 348t385 129z" />
    <glyph glyph-name="Otilde" unicode="&#xd5;" horiz-adv-x="1536" 
d="M844 1716q-68 0 -82 -84h-125q33 127 76 176q43 50 113 50t168 -44t126 -42q51 0 72 77h121q-11 -96 -65 -156t-134 -61q-39 0 -98 25l-96 39q-51 20 -76 20zM889 1333q-233 0 -393 -232t-160 -573q0 -174 96 -286t232 -111q136 0 238 57q102 58 164 146q186 263 185 581
q0 184 -101 301t-261 117zM897 1513q245 -1 403 -169t158 -430t-106 -483q-106 -222 -286 -352t-392 -130q-248 0 -396 167t-148 434t102 486t280 348t385 129z" />
    <glyph glyph-name="Odieresis" unicode="&#xd6;" horiz-adv-x="1536" 
d="M1231 1638h-189l43 205h189zM862 1638h-188l43 205h188zM889 1333q-233 0 -393 -232t-160 -573q0 -174 96 -286t232 -111q136 0 238 57q102 58 164 146q186 263 185 581q0 184 -101 301t-261 117zM897 1513q245 -1 403 -169t158 -430t-106 -483q-106 -222 -286 -352
t-392 -130q-248 0 -396 167t-148 434t102 486t280 348t385 129z" />
    <glyph glyph-name="multiply" unicode="&#xd7;" horiz-adv-x="1368" 
d="M573 666l-397 397l111 111l397 -398l397 398l113 -111l-397 -397l393 -396l-111 -110l-393 395l-397 -395l-111 110z" />
    <glyph glyph-name="Oslash" unicode="&#xd8;" horiz-adv-x="1536" 
d="M887 1513q207 0 350 -120l100 123l131 -111l-116 -141q96 -152 96 -353q0 -258 -106 -480t-287 -352t-377 -130t-332 96l-96 -117l-133 111l110 133q-109 154 -109 400t104 464q102 219 280 348t385 129zM673 131q118 0 219 57q102 58 164 146q186 263 185 581
q0 98 -31 179l-739 -897q84 -66 202 -66zM879 1333q-233 0 -393 -232t-160 -573q0 -109 39 -192l749 907q-100 90 -235 90z" />
    <glyph glyph-name="Ugrave" unicode="&#xd9;" horiz-adv-x="1640" 
d="M1071 1602h-141l-195 274h219zM740 129q159 0 267 90t148 258l242 1000h200l-237 -969q-70 -297 -224 -427t-431 -130q-223 0 -366 125q-142 125 -142 321q0 70 18 144l231 936h201l-227 -922q-20 -92 -21 -143q0 -131 91 -207t250 -76z" />
    <glyph glyph-name="Uacute" unicode="&#xda;" horiz-adv-x="1640" 
d="M1008 1602h-150l186 274h230zM740 129q159 0 267 90t148 258l242 1000h200l-237 -969q-70 -297 -224 -427t-431 -130q-223 0 -366 125q-142 125 -142 321q0 70 18 144l231 936h201l-227 -922q-20 -92 -21 -143q0 -131 91 -207t250 -76z" />
    <glyph glyph-name="Ucircumflex" unicode="&#xdb;" horiz-adv-x="1640" 
d="M877 1602h-187l266 274h199l125 -274h-160l-80 178zM740 129q159 0 267 90t148 258l242 1000h200l-237 -969q-70 -297 -224 -427t-431 -130q-223 0 -366 125q-142 125 -142 321q0 70 18 144l231 936h201l-227 -922q-20 -92 -21 -143q0 -131 91 -207t250 -76z" />
    <glyph glyph-name="Udieresis" unicode="&#xdc;" horiz-adv-x="1640" 
d="M1282 1638h-188l43 205h188zM913 1638h-188l43 205h188zM740 129q159 0 267 90t148 258l242 1000h200l-237 -969q-70 -297 -224 -427t-431 -130q-223 0 -366 125q-142 125 -142 321q0 70 18 144l231 936h201l-227 -922q-20 -92 -21 -143q0 -131 91 -207t250 -76z" />
    <glyph glyph-name="Yacute" unicode="&#xdd;" horiz-adv-x="1323" 
d="M809 1602h-150l187 274h229zM569 686l-247 791h194l182 -578l447 578h235l-612 -793l-166 -684h-201z" />
    <glyph glyph-name="Thorn" unicode="&#xde;" horiz-adv-x="1323" 
d="M762 1176q205 0 331 -110t126 -286q0 -221 -155 -350t-419 -129h-321l-72 -301h-201l361 1477h198l-73 -301h225zM770 999h-276l-127 -522h280q170 0 267 80t98 219q0 104 -64 164t-178 59z" />
    <glyph glyph-name="germandbls" unicode="&#xdf;" horiz-adv-x="1087" 
d="M971 526q0 -231 -110 -391t-271 -160q-102 0 -169 65t-67 165q0 14 4 71h140v-47q0 -51 28 -84t80 -33q53 0 97 64q44 63 72 190t28 195q0 225 -262 250l34 135q162 6 240 82t78 168t-45 140t-122 48q-76 0 -142 -63t-92 -174l-355 -1428h-168l361 1455q39 162 143 252
q103 90 249 92q146 0 240 -84t95 -215q-1 -262 -275 -340l-43 -13q168 -75 209 -192q23 -63 23 -148z" />
    <glyph glyph-name="agrave" unicode="&#xe0;" horiz-adv-x="978" 
d="M741 1137h-141l-194 274h219zM545 1038q170 0 265 -63t95 -178q0 -33 -10 -78l-127 -508q-6 -25 -6 -55q0 -54 108 -52l-30 -120q-72 -16 -95 -17q-160 0 -161 152q-84 -84 -142 -116t-129 -32q-119 0 -189 75q-70 76 -71 188q0 112 49 200t134 139q86 51 224 73t173 32
t92 37q6 31 6 45q0 63 -46 99t-128 36q-135 0 -229 -100l-115 88q107 120 184 137q78 18 148 18zM366 104q64 0 115 34t82 76q70 95 129 376q-96 -37 -168 -52t-116 -30q-184 -82 -185 -256q0 -66 40 -107q39 -41 103 -41z" />
    <glyph glyph-name="aacute" unicode="&#xe1;" horiz-adv-x="978" 
d="M637 1137h-150l187 274h229zM545 1038q170 0 265 -63t95 -178q0 -33 -10 -78l-127 -508q-6 -25 -6 -55q0 -54 108 -52l-30 -120q-72 -16 -95 -17q-160 0 -161 152q-84 -84 -142 -116t-129 -32q-119 0 -189 75q-70 76 -71 188q0 112 49 200t134 139q86 51 224 73t173 32
t92 37q6 31 6 45q0 63 -46 99t-128 36q-135 0 -229 -100l-115 88q107 120 184 137q78 18 148 18zM366 104q64 0 115 34t82 76q70 95 129 376q-96 -37 -168 -52t-116 -30q-184 -82 -185 -256q0 -66 40 -107q39 -41 103 -41z" />
    <glyph glyph-name="acircumflex" unicode="&#xe2;" horiz-adv-x="978" 
d="M526 1137h-186l266 274h199l125 -274h-160l-80 178zM545 1038q170 0 265 -63t95 -178q0 -33 -10 -78l-127 -508q-6 -25 -6 -55q0 -54 108 -52l-30 -120q-72 -16 -95 -17q-160 0 -161 152q-84 -84 -142 -116t-129 -32q-119 0 -189 75q-70 76 -71 188q0 112 49 200t134 139
q86 51 224 73t173 32t92 37q6 31 6 45q0 63 -46 99t-128 36q-135 0 -229 -100l-115 88q107 120 184 137q78 18 148 18zM366 104q64 0 115 34t82 76q70 95 129 376q-96 -37 -168 -52t-116 -30q-184 -82 -185 -256q0 -66 40 -107q39 -41 103 -41z" />
    <glyph glyph-name="atilde" unicode="&#xe3;" horiz-adv-x="978" 
d="M545 1251q-68 0 -82 -84h-125q33 127 76 176q42 49 112 49t168 -42q98 -44 127 -43q51 0 72 77h121q-10 -96 -64 -156t-135 -61q-39 0 -98 25l-58 25l-38 14q-51 20 -76 20zM545 1038q170 0 265 -63t95 -178q0 -33 -10 -78l-127 -508q-6 -25 -6 -55q0 -54 108 -52
l-30 -120q-72 -16 -95 -17q-160 0 -161 152q-84 -84 -142 -116t-129 -32q-119 0 -189 75q-70 76 -71 188q0 112 49 200t134 139q86 51 224 73t173 32t92 37q6 31 6 45q0 63 -46 99t-128 36q-135 0 -229 -100l-115 88q107 120 184 137q78 18 148 18zM366 104q64 0 115 34
t82 76q70 95 129 376q-96 -37 -168 -52t-116 -30q-184 -82 -185 -256q0 -66 40 -107q39 -41 103 -41z" />
    <glyph glyph-name="adieresis" unicode="&#xe4;" horiz-adv-x="978" 
d="M932 1174h-189l43 204h189zM563 1174h-188l43 204h188zM545 1038q170 0 265 -63t95 -178q0 -33 -10 -78l-127 -508q-6 -25 -6 -55q0 -54 108 -52l-30 -120q-72 -16 -95 -17q-160 0 -161 152q-84 -84 -142 -116t-129 -32q-119 0 -189 75q-70 76 -71 188q0 112 49 200
t134 139q86 51 224 73t173 32t92 37q6 31 6 45q0 63 -46 99t-128 36q-135 0 -229 -100l-115 88q107 120 184 137q78 18 148 18zM366 104q64 0 115 34t82 76q70 95 129 376q-96 -37 -168 -52t-116 -30q-184 -82 -185 -256q0 -66 40 -107q39 -41 103 -41z" />
    <glyph glyph-name="aring" unicode="&#xe5;" horiz-adv-x="978" 
d="M588 1266q0 -45 32 -77t76 -32t76 32q31 32 31 77q0 46 -31 76t-76 30q-44 0 -76 -30t-32 -76zM514 1266q0 76 53 129t129 53t129 -53t53 -129t-52 -129q-54 -53 -130 -53t-129 52q-53 54 -53 130zM545 1038q170 0 265 -63t95 -178q0 -33 -10 -78l-127 -508
q-6 -25 -6 -55q0 -54 108 -52l-30 -120q-72 -16 -95 -17q-160 0 -161 152q-84 -84 -142 -116t-129 -32q-119 0 -189 75q-70 76 -71 188q0 112 49 200t134 139q86 51 224 73t173 32t92 37q6 31 6 45q0 63 -46 99t-128 36q-135 0 -229 -100l-115 88q107 120 184 137
q78 18 148 18zM366 104q64 0 115 34t82 76q70 95 129 376q-96 -37 -168 -52t-116 -30q-184 -82 -185 -256q0 -66 40 -107q39 -41 103 -41z" />
    <glyph glyph-name="ae" unicode="&#xe6;" horiz-adv-x="1642" 
d="M1234 1038q167 0 254 -87t87 -255q0 -96 -33 -243h-696q-6 -43 -2 -82q10 -131 67 -196t176 -64q143 0 269 143l114 -86q-51 -57 -91 -93t-121 -70t-177 -34q-301 0 -389 258q-27 -45 -47 -73q-19 -28 -69 -78q-104 -107 -267 -107q-119 0 -191 74t-71 199q0 160 111 270
q46 47 110 76t108 38t140 23q96 15 139 27t95 41q4 37 4 43q0 133 -183 133q-81 1 -135 -21t-117 -77l-112 84q41 47 69 73t103 57q77 29 193 29t190 -28t133 -107q172 133 339 133zM217 254q0 -66 40 -108t102 -42q63 0 111 18q76 27 143 136q37 57 62 158q25 100 42 182
q-77 -35 -149 -48q-72 -12 -101 -20t-81 -30t-85 -52q-33 -28 -59 -78t-25 -116zM1417 694q0 100 -53 154t-154 55q-133 0 -233 -117q-55 -67 -96 -196h524q12 70 12 104z" />
    <glyph glyph-name="ccedilla" unicode="&#xe7;" 
d="M55 356q0 122 35 235q35 112 98 213t171 167t237 65q281 0 330 -288l-135 -50q-41 197 -211 197q-138 0 -244 -158t-107 -366q-1 -121 59 -191t163 -69q125 0 227 135l125 -82q-151 -192 -336 -194q-43 0 -47 1l-17 -61q85 -12 133 -57t48 -113q0 -176 -342 -176
q-98 0 -170 10l22 113q45 -2 142 -2q174 0 174 69q0 82 -162 86l41 156q-111 38 -173 138t-61 222z" />
    <glyph glyph-name="egrave" unicode="&#xe8;" 
d="M741 1137h-141l-194 274h219zM66 362q0 295 150 486q151 190 386 190q141 0 228 -96t88 -252q0 -94 -33 -239h-645q-8 -45 -9 -95q1 -112 59 -180t152 -67q131 0 254 141l115 -86q-65 -74 -132 -122q-98 -71 -262 -72q-165 0 -258 102t-93 290zM575 899q-211 0 -301 -311
h471q12 68 13 102q0 98 -49 154t-134 55z" />
    <glyph glyph-name="eacute" unicode="&#xe9;" 
d="M637 1137h-150l187 274h229zM66 362q0 295 150 486q151 190 386 190q141 0 228 -96t88 -252q0 -94 -33 -239h-645q-8 -45 -9 -95q1 -112 59 -180t152 -67q131 0 254 141l115 -86q-65 -74 -132 -122q-98 -71 -262 -72q-165 0 -258 102t-93 290zM575 899q-211 0 -301 -311
h471q12 68 13 102q0 98 -49 154t-134 55z" />
    <glyph glyph-name="ecircumflex" unicode="&#xea;" 
d="M526 1137h-186l266 274h199l125 -274h-160l-80 178zM66 362q0 295 150 486q151 190 386 190q141 0 228 -96t88 -252q0 -94 -33 -239h-645q-8 -45 -9 -95q1 -112 59 -180t152 -67q131 0 254 141l115 -86q-65 -74 -132 -122q-98 -71 -262 -72q-165 0 -258 102t-93 290z
M575 899q-211 0 -301 -311h471q12 68 13 102q0 98 -49 154t-134 55z" />
    <glyph glyph-name="edieresis" unicode="&#xeb;" 
d="M932 1174h-189l43 204h189zM563 1174h-188l43 204h188zM66 362q0 295 150 486q151 190 386 190q141 0 228 -96t88 -252q0 -94 -33 -239h-645q-8 -45 -9 -95q1 -112 59 -180t152 -67q131 0 254 141l115 -86q-65 -74 -132 -122q-98 -71 -262 -72q-165 0 -258 102t-93 290z
M575 899q-211 0 -301 -311h471q12 68 13 102q0 98 -49 154t-134 55z" />
    <glyph glyph-name="igrave" unicode="&#xec;" horiz-adv-x="555" 
d="M487 1137h-141l-194 274h219zM68 0l251 1012h168l-249 -1012h-170z" />
    <glyph glyph-name="iacute" unicode="&#xed;" horiz-adv-x="555" 
d="M485 1137h-149l186 274h230zM68 0l251 1012h168l-249 -1012h-170z" />
    <glyph glyph-name="icircumflex" unicode="&#xee;" horiz-adv-x="555" 
d="M313 1137h-186l266 274h199l125 -274h-160l-80 178zM68 0l251 1012h168l-249 -1012h-170z" />
    <glyph glyph-name="idieresis" unicode="&#xef;" horiz-adv-x="555" 
d="M719 1174h-189l43 204h189zM350 1174h-188l43 204h188zM68 0l251 1012h168l-249 -1012h-170z" />
    <glyph glyph-name="eth" unicode="&#xf0;" horiz-adv-x="1087" 
d="M61 410q0 256 172 443t406 187q113 0 209 -73q-31 143 -113 243l-282 -94l-37 111l223 76q-74 59 -174 98l76 108q160 -61 254 -151l237 80l37 -113l-180 -59q76 -92 116 -236t39 -262q0 -350 -162 -573t-407 -224q-193 0 -303 118t-111 321zM473 111q155 1 269 163
t114 379q0 109 -61 177t-158 69q-164 0 -282 -146t-117 -352q0 -131 64 -211q65 -79 171 -79z" />
    <glyph glyph-name="ntilde" unicode="&#xf1;" horiz-adv-x="1214" 
d="M662 1251q-68 0 -82 -84h-125q33 127 75 176t112 49t168 -42q98 -44 128 -43q51 0 72 77h120q-10 -96 -64 -156t-134 -61q-39 0 -98 25l-58 25l-39 14q-51 20 -75 20zM795 1026q119 0 195 -76t75 -190q0 -45 -12 -88l-162 -672h-166l156 651q10 33 10 95t-46 103
q-45 42 -143 42t-183 -85t-122 -231l-141 -575h-168l252 1012h164l-41 -172q55 57 90 88q35 30 103 64t139 34z" />
    <glyph glyph-name="ograve" unicode="&#xf2;" horiz-adv-x="1087" 
d="M795 1137h-142l-194 274h219zM463 104q174 0 290 148t115 366q0 125 -67 202q-68 77 -176 77q-174 0 -290 -146t-116 -366q-1 -129 65 -205t179 -76zM471 -29q-201 0 -315 111t-113 307q0 273 169 459t419 186q195 0 305 -114t108 -316q0 -264 -166 -448t-407 -185z" />
    <glyph glyph-name="oacute" unicode="&#xf3;" horiz-adv-x="1087" 
d="M690 1137h-149l186 274h229zM463 104q174 0 290 148t115 366q0 125 -67 202q-68 77 -176 77q-174 0 -290 -146t-116 -366q-1 -129 65 -205t179 -76zM471 -29q-201 0 -315 111t-113 307q0 273 169 459t419 186q195 0 305 -114t108 -316q0 -264 -166 -448t-407 -185z" />
    <glyph glyph-name="ocircumflex" unicode="&#xf4;" horiz-adv-x="1087" 
d="M580 1137h-187l266 274h199l125 -274h-160l-80 178zM463 104q174 0 290 148t115 366q0 125 -67 202q-68 77 -176 77q-174 0 -290 -146t-116 -366q-1 -129 65 -205t179 -76zM471 -29q-201 0 -315 111t-113 307q0 273 169 459t419 186q195 0 305 -114t108 -316
q0 -264 -166 -448t-407 -185z" />
    <glyph glyph-name="otilde" unicode="&#xf5;" horiz-adv-x="1087" 
d="M618 1251q-67 0 -81 -84h-125q34 127 76 176t112 49t168 -42q98 -44 127 -43q51 0 72 77h120q-10 -96 -64 -156t-134 -61q-39 0 -98 25l-58 25l-39 14q-51 20 -76 20zM463 104q174 0 290 148t115 366q0 125 -67 202q-68 77 -176 77q-174 0 -290 -146t-116 -366
q-1 -129 65 -205t179 -76zM471 -29q-201 0 -315 111t-113 307q0 273 169 459t419 186q195 0 305 -114t108 -316q0 -264 -166 -448t-407 -185z" />
    <glyph glyph-name="odieresis" unicode="&#xf6;" horiz-adv-x="1087" 
d="M985 1174h-188l43 204h188zM616 1174h-188l43 204h188zM463 104q174 0 290 148t115 366q0 125 -67 202q-68 77 -176 77q-174 0 -290 -146t-116 -366q-1 -129 65 -205t179 -76zM471 -29q-201 0 -315 111t-113 307q0 273 169 459t419 186q195 0 305 -114t108 -316
q0 -264 -166 -448t-407 -185z" />
    <glyph glyph-name="divide" unicode="&#xf7;" horiz-adv-x="1368" 
d="M135 588v157h1098v-157h-1098zM582 250q0 42 30 70t70 28q41 0 70 -28q28 -28 28 -68q0 -41 -28 -71q-28 -29 -70 -29q-41 0 -71 28q-29 29 -29 70zM681 985q-39 -1 -69 29t-30 71t28 69q29 28 70 28t70 -29q28 -29 28 -70t-28 -69t-69 -29z" />
    <glyph glyph-name="oslash" unicode="&#xf8;" horiz-adv-x="1087" 
d="M618 897q-174 0 -290 -146t-115 -366q0 -74 25 -133l520 602q-59 43 -140 43zM862 618q0 85 -31 146l-524 -610q61 -49 150 -50q173 0 289 148t116 366zM1038 604q0 -264 -167 -448t-406 -185q-156 0 -258 68l-84 -98l-88 77l86 101q-84 102 -84 270q0 273 169 459
t419 186q141 0 237 -61l86 100l86 -76l-88 -100q92 -111 92 -293z" />
    <glyph glyph-name="ugrave" unicode="&#xf9;" horiz-adv-x="1214" 
d="M858 1137h-141l-195 274h219zM322 276q0 -62 48 -107q48 -46 146 -46t178 76t115 215l149 598h168l-252 -1012h-167l38 162q-164 -174 -335 -174q-115 0 -188 76t-72 196q-1 59 28 184l146 568h165l-147 -588q-20 -86 -20 -148z" />
    <glyph glyph-name="uacute" unicode="&#xfa;" horiz-adv-x="1214" 
d="M754 1137h-150l187 274h229zM322 276q0 -62 48 -107q48 -46 146 -46t178 76t115 215l149 598h168l-252 -1012h-167l38 162q-164 -174 -335 -174q-115 0 -188 76t-72 196q-1 59 28 184l146 568h165l-147 -588q-20 -86 -20 -148z" />
    <glyph glyph-name="ucircumflex" unicode="&#xfb;" horiz-adv-x="1214" 
d="M643 1137h-186l266 274h199l125 -274h-160l-80 178zM322 276q0 -62 48 -107q48 -46 146 -46t178 76t115 215l149 598h168l-252 -1012h-167l38 162q-164 -174 -335 -174q-115 0 -188 76t-72 196q-1 59 28 184l146 568h165l-147 -588q-20 -86 -20 -148z" />
    <glyph glyph-name="udieresis" unicode="&#xfc;" horiz-adv-x="1214" 
d="M1049 1174h-189l43 204h189zM680 1174h-188l43 204h188zM322 276q0 -62 48 -107q48 -46 146 -46t178 76t115 215l149 598h168l-252 -1012h-167l38 162q-164 -174 -335 -174q-115 0 -188 76t-72 196q-1 59 28 184l146 568h165l-147 -588q-20 -86 -20 -148z" />
    <glyph glyph-name="yacute" unicode="&#xfd;" 
d="M637 1137h-150l187 274h229zM84 -391q-82 0 -166 10l39 133q55 -6 107 -6t90 22t64 59q26 39 40 67l49 98l-106 1020h145l84 -776l387 776h164l-559 -1118q-35 -70 -52 -102q-18 -32 -52 -76t-65 -61q-87 -46 -169 -46z" />
    <glyph glyph-name="thorn" unicode="&#xfe;" horiz-adv-x="1087" 
d="M702 1030q131 0 214 -105t83 -276q0 -270 -142 -474t-333 -204q-115 -1 -178 53t-92 164l-141 -581h-170l460 1870h170l-155 -623q74 98 137 137t147 39zM637 895q-88 0 -160 -76q-71 -76 -107 -180q-70 -207 -71 -309q0 -102 51 -162t135 -59q84 0 155 61q71 60 109 152
q78 188 78 316q0 127 -51 192t-139 65z" />
    <glyph glyph-name="ydieresis" unicode="&#xff;" 
d="M932 1174h-189l43 204h189zM563 1174h-188l43 204h188zM84 -391q-82 0 -166 10l39 133q55 -6 107 -6t90 22t64 59q26 39 40 67l49 98l-106 1020h145l84 -776l387 776h164l-559 -1118q-35 -70 -52 -102q-18 -32 -52 -76t-65 -61q-87 -46 -169 -46z" />
    <glyph glyph-name="dotlessi" unicode="&#x131;" horiz-adv-x="555" 
d="M68 0l251 1012h168l-249 -1012h-170z" />
    <glyph glyph-name="Lslash" unicode="&#x141;" 
d="M254 764l174 713h199l-129 -527l215 166l-60 -246l-215 -165l-129 -529h617l-43 -176h-815l125 518l-130 -102l29 223z" />
    <glyph glyph-name="lslash" unicode="&#x142;" horiz-adv-x="555" 
d="M260 764l172 713h172l-133 -543l100 80l-55 -226l-100 -83l-174 -705h-168l131 539l-103 -80l56 223z" />
    <glyph glyph-name="OE" unicode="&#x152;" horiz-adv-x="1961" 
d="M965 1477h1026l-43 -179h-607l-112 -452h577l-43 -178h-577l-123 -490h778l-43 -178h-1112q-283 -6 -453 157t-170 431q-1 141 47 281q48 139 103 233t155 183t236 141q134 52 361 51zM279 627q-1 -219 115 -340t325 -121q41 0 143 8l283 1124q-117 10 -180 11
q-150 0 -273 -49q-124 -49 -198 -125q-147 -149 -195 -350q-20 -85 -20 -158z" />
    <glyph glyph-name="oe" unicode="&#x153;" horiz-adv-x="1642" 
d="M1104 -31q-94 0 -160 43t-117 140q-67 -58 -105 -88t-117 -62t-163 -33q-180 0 -290 117t-109 307q0 256 174 450t406 193q184 0 275 -123q17 -23 40 -59q51 55 85 85q33 29 107 63t156 34q135 0 215 -91t80 -227t-31 -265h-589q-6 -43 -7 -93q0 -112 50 -178t131 -65
q104 0 225 133l117 -84q-170 -197 -373 -197zM610 901q-160 1 -274 -153t-115 -365q1 -125 63 -199t158 -74t180 60q130 92 185 317q25 98 24 160q-1 111 -63 183t-158 71zM1421 690q0 96 -40 152t-99 55q-146 0 -224 -157q-36 -69 -61 -150h412q12 57 12 100z" />
    <glyph glyph-name="Scaron" unicode="&#x160;" horiz-adv-x="1216" 
d="M920 1876h188l-264 -274h-201l-123 274h158l76 -178zM825 408q0 84 -54 152t-192 159q-138 92 -210 181t-72 244t124 261t316 106q236 0 359 -151q41 -51 65 -137l-151 -115q-12 109 -89 170t-194 61t-185 -57t-67 -149q0 -61 46 -115t163 -129q150 -92 239 -201t89 -268
q0 -211 -144 -341t-361 -130q-218 0 -347 104q-50 45 -78 97t-57 153l172 133q15 -307 311 -307q150 0 234 77q83 77 83 202z" />
    <glyph glyph-name="scaron" unicode="&#x161;" 
d="M821 1411h189l-265 -274h-200l-123 274h158l75 -178zM534 899q-78 0 -130 -43t-52 -103q0 -59 43 -97t117 -63t98 -35t75 -37q50 -27 80 -57q31 -30 55 -80t24 -108q0 -143 -109 -226t-313 -83t-287 84q-45 45 -66 87t-46 116l137 59q39 -104 96 -155q56 -52 176 -52
t180 39t60 103t-43 104q-43 38 -126 68t-119 48t-87 52q-106 73 -105 207q1 135 105 222t270 87t254 -90q61 -61 97 -133l-138 -70q-53 84 -110 120q-58 36 -136 36z" />
    <glyph glyph-name="Ydieresis" unicode="&#x178;" horiz-adv-x="1323" 
d="M1104 1638h-189l43 205h189zM735 1638h-188l43 205h188zM569 686l-247 791h194l182 -578l447 578h235l-612 -793l-166 -684h-201z" />
    <glyph glyph-name="Zcaron" unicode="&#x17d;" horiz-adv-x="1323" 
d="M1014 1876h188l-264 -274h-201l-123 274h158l76 -178zM369 1303l43 174h934l-25 -97l-971 -1206h688l-41 -174h-970l24 102l967 1201h-649z" />
    <glyph glyph-name="zcaron" unicode="&#x17e;" 
d="M801 1411h188l-264 -274h-201l-123 274h158l76 -178zM211 868l35 144h686l-29 -121l-616 -748h485l-35 -143h-727l23 96l637 772h-459z" />
    <glyph glyph-name="florin" unicode="&#x192;" horiz-adv-x="661" 
d="M725 1356q-172 0 -205 -148l-49 -196h176l-35 -135h-172l-266 -1158h-170l268 1158h-190l37 135h184l62 254q59 248 352 247q66 0 145 -8l-39 -155q-61 6 -98 6z" />
    <glyph glyph-name="circumflex" unicode="&#x2c6;" horiz-adv-x="681" 
d="M377 1137h-187l267 274h198l125 -274h-159l-80 178z" />
    <glyph glyph-name="caron" unicode="&#x2c7;" horiz-adv-x="681" 
d="M651 1411h189l-265 -274h-200l-123 274h158l75 -178z" />
    <glyph glyph-name="breve" unicode="&#x2d8;" horiz-adv-x="681" 
d="M455 1108q-119 0 -191 70t-78 190h119q20 -139 162 -139t199 139h118q-34 -120 -122 -190t-207 -70z" />
    <glyph glyph-name="dotaccent" unicode="&#x2d9;" horiz-adv-x="681" 
d="M573 1155h-223l47 223h224z" />
    <glyph glyph-name="ring" unicode="&#x2da;" horiz-adv-x="681" 
d="M438 1266q0 -45 32 -77t77 -32t76 32t30 77q-1 46 -31 76t-75 30t-77 -30t-32 -76zM365 1266q0 76 53 129t129 53t129 -53t53 -129t-53 -129t-129 -53t-129 52q-53 54 -53 130z" />
    <glyph glyph-name="ogonek" unicode="&#x2db;" horiz-adv-x="681" 
d="M319 -479q-186 1 -186 195q0 100 74 257h112q-59 -131 -59 -192t32 -94t92 -33t167 43l-25 -121q-117 -55 -207 -55z" />
    <glyph glyph-name="tilde" unicode="&#x2dc;" horiz-adv-x="681" 
d="M436 1251q-68 0 -82 -84h-125q33 127 76 176t113 49t168 -42q98 -44 127 -43q51 0 71 77h121q-10 -96 -64 -156t-134 -61q-39 0 -99 25l-57 25l-39 14q-51 20 -76 20z" />
    <glyph glyph-name="hungarumlaut" unicode="&#x2dd;" horiz-adv-x="681" 
d="M549 1137h-143l182 274h233zM217 1137h-149l186 274h231z" />
    <glyph glyph-name="endash" unicode="&#x2013;" horiz-adv-x="1024" 
d="M-10 422v180h1042v-180h-1042z" />
    <glyph glyph-name="emdash" unicode="&#x2014;" horiz-adv-x="2048" 
d="M-10 420v182h2066v-182h-2066z" />
    <glyph glyph-name="quoteleft" unicode="&#x2018;" horiz-adv-x="555" 
d="M258 922l78 315q29 123 83 180t146 60l-28 -111q-45 -20 -67 -58t-44 -128h66l-66 -258h-168z" />
    <glyph glyph-name="quoteright" unicode="&#x2019;" horiz-adv-x="555" 
d="M332 1219l63 258h170l-82 -330q-27 -115 -77 -165t-148 -60l29 114q49 27 68 60t40 123h-63z" />
    <glyph glyph-name="quotesinglbase" unicode="&#x201a;" horiz-adv-x="555" 
d="M59 0l64 260h170l-80 -319q-33 -131 -79 -179t-146 -55l28 109q43 18 65 54t44 130h-66z" />
    <glyph glyph-name="quotedblleft" unicode="&#x201c;" 
d="M248 922l78 315q29 123 83 180t146 60l-27 -111q-44 -22 -68 -60t-44 -126h65l-63 -258h-170zM672 922l76 315q31 123 85 180t146 60l-29 -111q-46 -20 -68 -58t-44 -128h67l-65 -258h-168z" />
    <glyph glyph-name="quotedblright" unicode="&#x201d;" 
d="M334 1221l57 256h166l-72 -316q-31 -131 -75 -180t-142 -63l27 118q47 20 67 58t35 127h-63zM756 1219l59 258h164l-74 -314q-31 -135 -75 -185t-142 -60l27 114q45 23 67 63t37 124h-63z" />
    <glyph glyph-name="quotedblbase" unicode="&#x201e;" 
d="M500 0l61 260h170l-80 -319q-33 -131 -79 -179t-146 -55l29 109q45 18 67 54t43 130h-65zM76 0l61 260h170l-80 -319q-33 -131 -79 -179t-146 -55l29 109q45 18 67 54t43 130h-65z" />
    <glyph glyph-name="dagger" unicode="&#x2020;" horiz-adv-x="1087" 
d="M567 969l90 508h172l-157 -506l372 28l-40 -168l-359 31l-242 -1198h-206l346 1200l-375 -33l39 166z" />
    <glyph glyph-name="daggerdbl" unicode="&#x2021;" horiz-adv-x="1087" 
d="M395 -348h-164l148 469l-350 -31l41 164l331 -25l62 340l98 328l-346 -29l45 164l328 -28l88 473h168l-152 -473l346 28l-41 -164l-333 33l-56 -328l-104 -344l348 31l-39 -164l-334 23z" />
    <glyph glyph-name="bullet" unicode="&#x2022;" horiz-adv-x="716" 
d="M125 718q0 105 75 179t179 74t179 -74t75 -179t-75 -179t-179 -74t-179 74t-75 179z" />
    <glyph glyph-name="ellipsis" unicode="&#x2026;" horiz-adv-x="1748" 
d="M655 0l62 258h170l-64 -258h-168zM1241 0l62 258h170l-64 -258h-168zM70 0l61 258h170l-63 -258h-168z" />
    <glyph glyph-name="perthousand" unicode="&#x2030;" horiz-adv-x="2134" 
d="M74 -76l1153 1587h116l-1150 -1587h-119zM1812 598q-82 0 -139 -167t-57 -261q0 -131 80 -131q61 0 108 102q46 101 64 197t18 144t-20 82q-21 34 -54 34zM2023 468q0 -103 -33 -209q-32 -105 -68 -173t-98 -115t-149 -47q-86 0 -142 70t-56 180t63 297q33 98 106 167
t168 69t152 -68t57 -171zM1145 598q-82 0 -139 -167t-58 -261q0 -131 80 -131q61 0 109 102q47 101 64 197t17 144t-20 82t-53 34zM1008 -76q-86 0 -143 70q-56 70 -56 180t63 297q33 98 106 167t168 69t152 -68q58 -68 58 -171t-33 -209q-33 -105 -69 -173t-98 -115
t-148 -47zM473 1407q-82 0 -139 -167t-58 -261q0 -131 80 -131q61 0 109 102q47 102 64 198t17 143q0 48 -20 82t-53 34zM474 1516q94 0 152 -68t58 -171t-33 -209t-69 -174t-98 -114q-62 -47 -148 -47t-142 70t-56 178t63 299q33 98 105 167q73 69 168 69z" />
    <glyph glyph-name="guilsinglleft" unicode="&#x2039;" horiz-adv-x="598" 
d="M57 575l349 486h178l-367 -510l158 -469h-152z" />
    <glyph glyph-name="guilsinglright" unicode="&#x203a;" horiz-adv-x="598" 
d="M338 594l-156 465h152l166 -490l-348 -487h-175z" />
    <glyph glyph-name="fraction" unicode="&#x2044;" horiz-adv-x="448" 
d="M-322 -184l984 1712h110l-981 -1712h-113z" />
    <glyph glyph-name="fraction" unicode="&#x2215;" horiz-adv-x="448" 
d="M-322 -184l984 1712h110l-981 -1712h-113z" />
    <glyph glyph-name="Euro" unicode="&#x20ac;" 
d="M826 1274q-152 0 -254 -99t-158 -272h487l-72 -127h-460q-2 -12 -14 -47t-23 -102h413l-71 -127h-361q-59 -379 227 -379q148 0 263 90l-41 -164q-100 -72 -295 -72q-387 0 -313 525h-136l72 127h82q2 6 10 50t27 99h-121l70 127h94q186 518 577 518q184 1 256 -75
l-38 -160q-69 88 -221 88z" />
    <glyph glyph-name="trademark" unicode="&#x2122;" horiz-adv-x="2048" 
d="M1126 662h-125v815h201l205 -652l199 652h196v-815h-125v684l-209 -684h-122l-220 694v-694zM643 662h-135v694h-264v121h665v-121h-266v-694z" />
    <glyph glyph-name="minus" unicode="&#x2212;" horiz-adv-x="1366" 
d="M135 588v157h1096v-157h-1096z" />
    <glyph glyph-name="fi" unicode="&#xfb01;" horiz-adv-x="1214" 
d="M737 0l248 1012h168l-248 -1012h-168zM844 1520q178 0 258 -69t88 -142q4 -37 9 -69t-1 -50h-168q16 43 17 67q-1 55 -57 91t-142 34q-168 -1 -232 -94q-54 -81 -71 -186l-23 -90h195l-31 -135h-199l-286 -1158h-166l287 1158h-183l35 135h182l33 129q94 379 455 379z
" />
    <glyph glyph-name="fl" unicode="&#xfb02;" horiz-adv-x="1216" 
d="M838 1516q117 0 243 -41h174l-362 -1475h-168l326 1325q-139 55 -221 55t-136 -22q-55 -22 -86 -66q-31 -45 -43 -78t-26 -88l-29 -114h197l-35 -135h-197l-287 -1158h-165l286 1158h-182l33 135h182l16 67q27 104 58 176q31 71 84 135t137 95t201 31z" />
    </font>
</defs>
</svg>
