<?xml version="1.0" standalone="no"?>
<!DOCTYPE svg PUBLIC "-//W3C//DTD SVG 1.1//EN" "http://www.w3.org/Graphics/SVG/1.1/DTD/svg11.dtd" >
<svg xmlns="http://www.w3.org/2000/svg">
<metadata>
Created by FontPrep 20130207 at Mon Apr  6 14:54:39 2015
 By Callum Flack
(c)2010 Kai Bernau and Commercial Type.
</metadata>
<defs>
<font id="9117ed447f46e9100489ec4f9f4beffb" horiz-adv-x='1024' >
  <font-face 
    font-family="LyonDisplay-RegularItalic"
    font-weight="400"
    font-style="italic"
    font-stretch="normal"
    units-per-em="2048"
    panose-1="2 0 6 3 8 0 0 9 0 4"
    ascent="1556"
    descent="-492"
    x-height="997"
    cap-height="1360"
    bbox="-391 -544 2658 2222"
    underline-thickness="102"
    underline-position="-102"
    slope="-12"
    unicode-range="U+0020-FB04"
  />
<missing-glyph horiz-adv-x="309" 
 />
    <glyph glyph-name="f_f" unicode="ff" horiz-adv-x="1153" 
d="M745 1352q-81 0 -151 -82t-129 -301h336q43 141 135 268q-84 115 -191 115zM831 1444q111 0 199 -96q182 182 352 182q74 0 127 -36t54 -79q-2 -66 -82 -139q-119 152 -219 151q-60 0 -125 -85q-82 -102 -144 -373h242l-21 -82h-237l-152 -756q-55 -270 -192 -430
t-285 -160q-55 0 -94 36t-39 83q0 72 74 113q39 -70 82 -108t83 -38t72 72t70 250l186 938h-338l-163 -819q-53 -262 -189 -429t-303 -167q-49 0 -95 34t-46 84q0 82 84 127q90 -158 172 -157q45 0 78 74t67 247l191 942q2 12 16 64h-184l14 82h199q82 195 239 335
q158 140 307 140z" />
    <glyph glyph-name="f_i" unicode="fi" horiz-adv-x="1050" 
d="M897 1530q76 0 132 -37t56 -82q0 -70 -79 -135q-51 63 -118 106t-109 43t-59 -3q-17 -2 -55 -26q-120 -74 -202 -427h461l61 30h23l-238 -849h6q47 31 102 91q54 60 89 119l43 -14q-61 -131 -173 -250t-184 -119q-117 0 -71 166l213 744h-351l-163 -819
q-55 -274 -193 -436t-299 -160q-45 0 -93 32t-48 86q0 80 84 127q86 -158 172 -157q47 0 79 78t66 243l203 1006h-180l14 82h184q66 237 242 399t385 162z" />
    <glyph glyph-name="f_l" unicode="fl" horiz-adv-x="1064" 
d="M756 1436q-82 0 -157 -100t-136 -367h342l104 393q-71 74 -153 74zM662 -23q-117 0 -72 166l194 744h-340l-163 -819q-53 -262 -189 -429t-303 -167q-49 0 -95 34t-46 84q0 82 84 127q90 -158 172 -157q45 0 78 74t67 249l203 1004h-180l14 82h184q64 219 238 390
t342 171q70 0 127 -47l151 47l-350 -1380h6q84 53 195 208l37 -14q-59 -139 -169 -253t-185 -114z" />
    <glyph glyph-name="f_f_i" unicode="ffi" horiz-adv-x="1581" 
d="M756 1352q-90 0 -162 -82q-70 -82 -129 -301h336q45 152 133 274q-88 109 -178 109zM831 1444q109 0 197 -92q184 178 402 178q76 0 131 -37t55 -82q0 -72 -78 -135q-51 63 -118 106t-109 43t-59 -3q-17 -2 -55 -26q-123 -76 -202 -427h461l62 30h22l-240 -849h7
q100 63 192 210l43 -14q-63 -131 -175 -250t-183 -119q-117 0 -72 166l213 744h-348l-152 -754q-53 -264 -188 -428t-289 -164q-55 0 -94 36t-39 83q0 72 74 113q39 -70 82 -108t80 -38q82 0 143 320l188 940h-338l-163 -819q-53 -262 -189 -429t-303 -167q-49 0 -95 34
t-46 84q0 82 84 127q90 -158 172 -157q45 0 78 74t67 247l191 942q2 12 16 64h-186l16 82h199q82 195 239 335q158 140 307 140z" />
    <glyph glyph-name="f_f_l" unicode="ffl" horiz-adv-x="1597" 
d="M745 1352q-81 0 -151 -82t-129 -301h338q41 141 133 268q-84 115 -191 115zM1289 1436q-83 0 -159 -98t-137 -369h342l103 395q-66 72 -149 72zM831 1444q109 0 199 -94q180 180 350 180q70 0 127 -47l154 47l-352 -1380h6q88 55 196 208l37 -14q-61 -139 -171 -253
t-183 -114q-117 0 -72 166l193 744h-340l-150 -754q-57 -281 -194 -437t-283 -155q-55 0 -94 36t-39 83q0 72 74 113q39 -70 82 -108t80 -38q82 0 145 322l188 938h-340l-163 -819q-53 -262 -189 -429t-303 -167q-49 0 -95 34t-46 84q0 82 84 127q90 -158 172 -157
q45 0 78 74t67 247l191 942q2 12 16 64h-184l14 82h199q82 195 239 335q158 140 307 140z" />
    <glyph glyph-name="f_b" unicode="fb" horiz-adv-x="1546" 
d="M1239 842q-74 0 -168 -106q-93 -106 -163 -236q-70 -132 -99 -232l-37 -135q45 -109 152 -108q86 1 177 111t149 264t67 288q6 154 -78 154zM883 -33q-158 0 -277 135l-16 21l317 1241q-65 72 -149 72t-161 -100t-136 -367h219l-23 -82h-213l-163 -819
q-53 -262 -189 -429t-303 -167q-49 0 -95 34t-46 84q0 82 84 127q90 -158 172 -157q45 0 78 74t67 249l203 1004h-180l14 82h184q64 219 238 390t342 171q70 0 125 -45l158 45l-248 -946h8q98 170 226 293t239 122q80 1 126 -73t41 -190t-57 -248q-120 -300 -340 -442
q-120 -79 -245 -79z" />
    <glyph glyph-name="f_f_b" unicode="ffb" horiz-adv-x="2076" 
d="M745 1352q-81 0 -151 -82t-129 -301h338q41 141 133 268q-84 115 -191 115zM1772 842q-74 0 -168 -106t-164 -236q-70 -132 -99 -232l-36 -135q41 -109 151 -108q86 1 177 111t149 264t64 260q9 182 -74 182zM1418 -33q-163 0 -281 135l-17 21l318 1241q-66 72 -149 72
t-159 -98t-137 -369h217l-20 -82h-215l-150 -752q-55 -272 -192 -433t-285 -161q-55 0 -94 36t-39 83q0 72 74 113q39 -70 82 -108t83 -38t72 72t70 252l188 936h-340l-163 -819q-53 -262 -189 -429t-303 -167q-49 0 -95 34t-46 84q0 82 84 127q90 -158 172 -157q45 0 78 74
t67 247l191 942q2 12 16 64h-186l16 82h199q82 195 239 335q158 140 307 140q109 0 199 -94q180 180 350 180q70 0 125 -45l158 45l-248 -946h8q97 170 227 293t240 122q80 -1 126 -75t40 -209t-90 -309t-234 -307q-151 -132 -314 -132z" />
    <glyph glyph-name="f_f_h" unicode="ffh" horiz-adv-x="2117" 
d="M745 1352q-81 0 -151 -82t-129 -301h338q41 141 133 268q-84 115 -191 115zM1901 997q168 0 106 -221l-174 -626h6q86 55 195 208l39 -14q-70 -137 -179 -252t-172 -115q-125 0 -77 166l180 623q29 84 -35 84q-94 0 -245 -207t-214 -442l-49 -185l-166 -45l-26 27
l354 1358q-68 80 -153 80t-161 -98t-137 -369h217l-20 -82h-215l-150 -754q-55 -272 -192 -432t-285 -160q-55 0 -94 36t-39 83q0 72 74 113q39 -70 82 -108t83 -38t72 72t70 252l188 936h-340l-163 -819q-53 -262 -189 -429t-303 -167q-49 0 -95 34t-46 84q0 82 84 127
q90 -158 172 -157q45 0 78 74t67 247l191 942q2 12 16 64h-186l16 82h199q82 195 239 335q158 140 307 140q109 0 199 -94q180 180 350 180q72 0 127 -45l164 45l-254 -975h10q103 182 231 312t243 130z" />
    <glyph glyph-name="f_f_j" unicode="ffj" horiz-adv-x="1546" 
d="M745 1352q-81 0 -151 -82t-129 -301h336q45 152 131 272q-80 111 -187 111zM831 1444q109 0 197 -92q184 178 402 178q76 0 131 -37t55 -82q0 -72 -78 -135q-51 63 -118 106t-109 43t-59 -3q-17 -2 -55 -26q-123 -76 -202 -427h459l62 30h18l-170 -809
q-58 -284 -192 -434t-279 -149q-47 0 -90 33q-43 32 -43 94t74 104q38 -72 82 -108t79 -37q43 0 77 73t71 252l178 869h-344l-152 -754q-57 -281 -195 -437t-282 -155q-55 0 -94 36t-39 83q0 72 74 113q39 -70 82 -108t80 -38q43 0 75 73t68 247l188 940h-338l-163 -819
q-53 -262 -189 -429t-303 -167q-49 0 -95 34t-46 84q0 82 84 127q90 -158 172 -157q45 0 78 74t67 247l191 942q2 12 16 64h-184l14 82h199q82 195 239 335q158 140 307 140z" />
    <glyph glyph-name="f_f_k" unicode="ffk" horiz-adv-x="2054" 
d="M1806 858q-76 0 -202 -147t-218 -338q219 86 355 198q135 113 135 200t-70 87zM745 1352q-81 0 -151 -82t-129 -301h338q41 141 133 268q-84 115 -191 115zM1870 -86q-68 0 -109 24t-106 101l-275 319q-49 -109 -69 -200l-33 -144l-162 -43l-26 27l354 1358
q-68 80 -153 80t-161 -98t-137 -369h217l-20 -82h-215l-150 -752q-57 -281 -194 -437t-283 -157q-55 0 -94 36t-39 83q0 72 74 113q78 -145 162 -146q43 0 75 72t70 252l188 936h-340l-163 -819q-53 -262 -189 -429t-303 -167q-49 0 -95 34t-46 84q0 82 84 127
q90 -158 172 -157q45 0 78 74t67 247l191 942q2 12 16 64h-184l14 82h199q82 195 239 335q158 140 307 140q109 0 199 -94q180 180 350 180q72 0 127 -45l164 45l-256 -971h10q256 438 471 438q66 0 105 -43t39 -112q0 -252 -479 -445l413 -440v-12q-36 -31 -104 -31z" />
    <glyph glyph-name="f_f_t" unicode="fft" horiz-adv-x="1716" 
d="M745 1352q-81 0 -151 -82t-129 -301h336q41 143 135 268q-84 115 -191 115zM348 -459q-47 0 -90 34q-43 35 -43 95t74 103q82 -145 163 -145t142 319l188 940h-338l-163 -819q-53 -262 -189 -429t-303 -167q-49 0 -95 34t-46 84q0 82 84 127q90 -158 172 -157q47 0 80 76
t65 245l189 942q2 12 16 64h-182l14 82h197q84 195 241 335q158 140 307 140q113 0 201 -96q188 182 357 182q51 0 88 -32t37 -71t-30 -73q-28 -34 -65 -49q-83 129 -151 129t-143 -104t-132 -361h350l148 282h84l-62 -282h269l-15 -82h-270l-192 -737h6q59 16 147 104
t150 170l41 -23q-103 -170 -227 -298t-230 -128q-47 0 -71 36q-23 36 -9 93l199 783h-336l-150 -756q-51 -256 -186 -423t-291 -167z" />
    <glyph glyph-name="f_h" unicode="fh" horiz-adv-x="1585" 
d="M1370 997q168 0 107 -221l-177 -626h7q86 53 196 208l37 -14q-61 -133 -172 -250t-184 -117q-119 0 -72 166l182 623q25 84 -34 84q-94 0 -245 -207t-214 -442l-51 -185l-164 -45l-29 27l356 1360q-71 78 -155 78t-159 -100t-136 -367h217l-21 -82h-215l-163 -819
q-53 -262 -189 -429t-303 -167q-49 0 -95 34t-46 84q0 82 84 127q90 -158 172 -157q45 0 78 74t67 249l203 1004h-178l12 82h184q64 219 238 390t342 171q70 0 125 -45l164 45l-254 -975h12q104 182 230 312t243 130z" />
    <glyph glyph-name="f_j" unicode="fj" horiz-adv-x="1013" 
d="M-352 -410q0 80 84 127q86 -158 172 -157q47 0 79 78t66 243l203 1006h-180l14 82h184q66 237 242 399t385 162q76 0 132 -37t56 -82q0 -70 -79 -135q-51 63 -118 106t-109 43t-59 -3q-17 -2 -55 -26q-120 -74 -202 -427h459l61 30h21l-183 -872q-55 -264 -188 -425
t-285 -161q-49 0 -91 33q-42 32 -42 94t74 105q39 -72 82 -109t75 -37q88 0 154 328l188 932h-344l-163 -819q-55 -274 -193 -436t-299 -160q-45 0 -93 32t-48 86z" />
    <glyph glyph-name="f_k" unicode="fk" horiz-adv-x="1521" 
d="M1276 858q-76 0 -203 -147t-217 -338q217 87 353 199q137 112 137 199t-70 87zM1339 -86q-67 0 -109 25t-106 100l-274 317q-49 -104 -70 -198l-35 -144l-159 -43l-29 27l356 1360q-71 78 -155 78t-159 -100t-136 -367h217l-21 -82h-215l-163 -819q-53 -262 -189 -429
t-303 -167q-49 0 -95 34t-46 84q0 82 84 127q90 -158 172 -157q45 0 78 74t67 249l203 1004h-178l12 82h184q64 219 238 390t342 171q70 0 125 -45l164 45l-256 -971h12q256 438 469 438q66 0 104 -43t39 -112q0 -256 -479 -445l414 -440v-12q-35 -31 -103 -31z" />
    <glyph glyph-name="f_t" unicode="ft" horiz-adv-x="1183" 
d="M-211 -528q-49 0 -95 34t-46 84q0 82 84 127q90 -158 170 -157q47 0 80 74t67 247l203 1006h-178l12 82h184q72 261 256 411t332 150q51 0 87 -31t36 -71t-29 -74t-65 -49q-82 129 -146 129t-141 -94q-76 -94 -137 -371h348l147 282h86l-61 -282h266l-14 -82h-268
l-193 -737h6q57 16 148 105q90 89 147 169l41 -23q-102 -170 -225 -298t-232 -128q-47 0 -70 36t-9 93l198 783h-334l-163 -819q-53 -260 -189 -428t-303 -168z" />
    <glyph glyph-name=".notdef" horiz-adv-x="309" 
 />
    <glyph glyph-name=".null" horiz-adv-x="0" 
 />
    <glyph glyph-name="nonmarkingreturn" horiz-adv-x="681" 
 />
    <glyph glyph-name="space" unicode=" " horiz-adv-x="309" 
 />
    <glyph glyph-name="exclam" unicode="!" horiz-adv-x="595" 
d="M213 -18q-57 0 -96 38t-39 98q0 58 39 98t96 40t97 -41t40 -98t-40 -96t-97 -39zM354 1427h215l-284 -1030h-52z" />
    <glyph glyph-name="quotedbl" unicode="&#x22;" horiz-adv-x="757" 
d="M604 979l21 504h213l-197 -504h-37zM250 979l20 504h213l-196 -504h-37z" />
    <glyph glyph-name="numbersign" unicode="#" horiz-adv-x="1214" 
d="M545 823l-148 -395h320l147 395h-319zM233 823l17 80h250l116 314h76l-117 -314h320l117 314h75l-116 -314h243l-18 -80h-256l-147 -395h235l-16 -80h-250l-129 -348h-76l129 348h-319l-129 -348h-76l129 348h-242l17 80h256l147 395h-236z" />
    <glyph glyph-name="dollar" unicode="$" horiz-adv-x="1077" 
d="M670 1245q-114 -11 -182 -75t-71 -146t33 -132t125 -101zM483 29q123 7 203 77t85 200t-181 237zM119 422h49l16 -305q115 -74 236 -86l112 544l-53 29q-121 63 -181 137t-57 201t128 238t315 129l47 227h66l-47 -223q113 0 309 -58l-70 -344h-53l-27 271q-94 59 -174 63
l-100 -487l31 -17q166 -90 234 -169t67 -203q-4 -160 -154 -274t-344 -132l-43 -215h-64l44 211q-119 2 -361 80z" />
    <glyph glyph-name="percent" unicode="%" horiz-adv-x="1609" 
d="M1100 -35q-117 0 -189 80t-71 199q0 160 114 278t267 119q115 0 187 -80t71 -199q-1 -156 -113 -276t-266 -121zM1214 590q-86 0 -154 -116t-67 -271q0 -186 109 -187q84 0 154 113t69 272q0 85 -28 137t-83 52zM373 563q-117 0 -189 81t-71 200q-1 158 113 276t268 119
q114 0 186 -80t72 -198q0 -156 -112 -277t-267 -121zM1438 1290l-1211 -1392h-86l1209 1392h88zM487 1188q-85 0 -153 -116t-68 -271q0 -184 109 -185q83 0 153 112t70 271q0 189 -111 189z" />
    <glyph glyph-name="ampersand" unicode="&#x26;" horiz-adv-x="1822" 
d="M231 575q0 -76 17 -131l327 398q23 49 -2 99t-86 50q-94 1 -175 -111t-81 -305zM985 866q0 -80 100 -152q18 -13 23 -16q-59 -92 -125 -92q-92 0 -92 133t101 267t249 133q51 1 100 -17q78 -28 197 -110t146 -91q26 -8 50 -8t43 26t19 67q0 100 -55 206q41 20 84 21
q92 -2 92 -90q1 -139 -105 -253t-204 -114t-199 72q-57 -558 -368 -792q-165 -124 -392 -124t-383 144t-156 393q0 250 158 452t332 201q96 0 133 -96l324 449l71 -60l-858 -1036q53 -119 169 -187t276 -67q264 0 430 212t217 544l-47 30q-32 25 -61 39l-51 25
q-40 18 -92 18t-89 -39t-37 -88z" />
    <glyph glyph-name="quotesingle" unicode="'" horiz-adv-x="403" 
d="M250 979l20 504h213l-196 -504h-37z" />
    <glyph glyph-name="parenleft" unicode="(" horiz-adv-x="677" 
d="M461 -369h-53q-322 434 -224 953q41 240 196 478t384 437h65q-213 -223 -333 -444t-168 -508q-50 -287 -18 -491t151 -425z" />
    <glyph glyph-name="parenright" unicode=")" horiz-adv-x="677" 
d="M205 1499h55q319 -428 223 -952q-43 -241 -199 -481t-380 -435h-68q213 223 333 445t169 506q49 286 17 492q-31 206 -150 425z" />
    <glyph glyph-name="asterisk" unicode="*" horiz-adv-x="765" 
d="M848 1069l-277 -22l27 -277l-27 -6l-102 258l-256 -111l-12 23l213 178l-181 207l15 18l233 -143l146 236l18 -9l-65 -268l270 -57z" />
    <glyph glyph-name="plus" unicode="+" horiz-adv-x="1144" 
d="M1036 449h-440v-447h-88v447h-442v79h442v445h88v-445h440v-79z" />
    <glyph glyph-name="comma" unicode="," horiz-adv-x="518" 
d="M168 -33q0 125 -125 152q-12 63 23 111t101 48q65 0 115 -52q50 -54 50 -140q0 -132 -102 -238t-306 -176l-14 43q258 122 258 252z" />
    <glyph glyph-name="hyphen" unicode="-" horiz-adv-x="710" 
d="M96 494l27 122h516l-25 -122h-518z" />
    <glyph glyph-name="period" unicode="." horiz-adv-x="464" 
d="M139 -18q-57 0 -97 38t-40 96t40 99t97 41t97 -41t40 -98t-39 -97q-41 -38 -98 -38z" />
    <glyph glyph-name="slash" unicode="/" horiz-adv-x="845" 
d="M-143 -412l-66 33l1079 1901l66 -33z" />
    <glyph glyph-name="zero" unicode="0" horiz-adv-x="1228" 
d="M524 -31q-192 0 -318 125q-126 124 -126 358t186 416t439 183q203 -1 323 -135t119 -330q-1 -248 -181 -432t-442 -185zM700 995q-152 0 -276 -186t-125 -440q0 -348 236 -349q147 0 270 180t123 441q0 162 -60 258t-168 96z" />
    <glyph glyph-name="one" unicode="1" horiz-adv-x="759" 
d="M614 1047l-190 -965l194 -39l-6 -43h-614l6 43l225 39l160 815l-270 -14l8 49l479 115h8z" />
    <glyph glyph-name="two" unicode="2" horiz-adv-x="915" 
d="M614 722q0 85 -49 133t-121 48q-125 0 -260 -133l-28 23q57 115 149 191t217 75q125 0 204 -79t79 -201t-87 -225t-304 -259l-168 -121h555l-49 -174h-742l15 59l141 123q262 225 355 340t93 200z" />
    <glyph glyph-name="three" unicode="3" horiz-adv-x="806" 
d="M170 301h-31l8 84l72 35q141 72 223 148t82 180q0 70 -46 116t-118 47q-102 0 -229 -118l-29 24q86 131 166 187t188 55q108 0 182 -69t73 -179q0 -199 -254 -330l-121 -63q135 -23 218 -102t83 -199q1 -195 -175 -337t-532 -247l-16 41q221 82 374 213t152 293
q0 104 -75 163q-76 58 -195 58z" />
    <glyph glyph-name="four" unicode="4" horiz-adv-x="1169" 
d="M178 199h447l104 546zM510 -399l86 448h-590l8 70l922 923h35l-164 -843h262l-25 -150h-268l-86 -448h-180z" />
    <glyph glyph-name="five" unicode="5" horiz-adv-x="798" 
d="M412 125q0 117 -60 231t-225 269l180 376l471 27l-35 -184l-467 -25l-20 -37q199 -172 279 -304t79 -290q0 -434 -684 -655l-16 41q498 209 498 551z" />
    <glyph glyph-name="six" unicode="6" horiz-adv-x="1120" 
d="M612 772q-147 0 -272 -184q-39 -115 -39 -250q0 -328 199 -328q129 0 222 140t93 333q0 125 -52 207q-53 82 -151 82zM1028 470q0 -186 -146 -349q-146 -162 -388 -162q-186 0 -295 117t-109 295q0 177 75 331t190 266q116 112 270 207q261 161 583 252l13 -43
q-242 -101 -454 -251q-252 -177 -380 -428h4q123 150 301 149q136 0 236 -99t100 -285z" />
    <glyph glyph-name="seven" unicode="7" horiz-adv-x="946" 
d="M88 -424l-102 64l786 1200h-663l36 190h807l-2 -18l-690 -1143z" />
    <glyph glyph-name="eight" unicode="8" horiz-adv-x="1042" 
d="M453 1087q1 -72 29 -128t102 -132l63 -65q100 88 154 170q53 82 53 179t-49 159t-138 63q-89 0 -152 -63q-62 -64 -62 -183zM252 260q0 -100 56 -171t164 -71t180 66q73 66 73 163t-40 164t-146 173l-62 61q-225 -170 -225 -385zM53 250q0 66 28 126t62 99q83 93 303 201
l-43 45q-77 81 -109 145t-32 152q0 145 122 259t296 114t268 -75t94 -200t-129 -230q-103 -85 -233 -157l43 -41q98 -92 147 -169t50 -175q0 -162 -148 -274t-323 -111q-174 0 -285 78t-111 213z" />
    <glyph glyph-name="nine" unicode="9" horiz-adv-x="1122" 
d="M510 231q125 0 256 158q55 150 55 305q0 309 -190 310q-133 0 -229 -138t-97 -298q0 -162 55 -250q56 -87 150 -87zM649 1055q164 0 274 -114q109 -114 109 -290q0 -175 -70 -329t-182 -265q-295 -295 -878 -473l-13 45q283 109 506 281t334 395q-68 -76 -131 -114
t-162 -37q-137 0 -239 100q-103 100 -103 292t153 350q153 159 402 159z" />
    <glyph glyph-name="colon" unicode=":" horiz-adv-x="464" 
d="M274 696q-57 0 -96 39t-39 96t39 97t96 41q58 0 98 -40q40 -39 40 -97t-40 -97t-98 -39zM139 -18q-57 0 -97 38t-40 96t40 99t97 41t97 -41t40 -98t-39 -97q-41 -38 -98 -38z" />
    <glyph glyph-name="semicolon" unicode=";" horiz-adv-x="516" 
d="M168 -32q0 124 -125 151q-12 63 22 111t101 48q66 0 116 -52q50 -54 50 -140q0 -132 -102 -238t-306 -176l-14 43q130 63 194 125t64 128zM311 696q-57 0 -97 39t-40 96t40 97t97 41q57 0 97 -40q40 -39 41 -97q-1 -58 -41 -97t-97 -39z" />
    <glyph glyph-name="less" unicode="&#x3c;" horiz-adv-x="1146" 
d="M1055 883l-867 -400l867 -397v-88l-967 451v71l967 451v-88z" />
    <glyph glyph-name="equal" unicode="=" horiz-adv-x="1144" 
d="M1059 324h-971v79h971v-79zM1059 612h-971v80h971v-80z" />
    <glyph glyph-name="greater" unicode="&#x3e;" horiz-adv-x="1146" 
d="M90 84l868 399l-868 398v90l967 -453v-72l-967 -448v86z" />
    <glyph glyph-name="question" unicode="?" horiz-adv-x="794" 
d="M154 -18q-57 0 -97 38q-39 40 -39 98t39 98t97 40t97 -41q40 -41 40 -98t-40 -96t-97 -39zM758 924q0 -150 -65 -224t-206 -98l-200 -35l-56 -170h-51l51 342l289 41q82 12 123 43t41 88q0 178 -362 267l-52 12l35 225l72 -24q153 -51 267 -183q114 -134 114 -284z" />
    <glyph glyph-name="at" unicode="@" horiz-adv-x="1902" 
d="M760 176q80 0 212 182t181 336l39 121q-61 80 -133 80t-162 -97t-149 -247t-60 -287q0 -88 72 -88zM492 211q0 180 108 358q109 179 257 285t271 107q61 0 132 -50l22 74h131l-203 -674q-63 -217 76 -217q115 0 250 135q66 66 109 181t43 254q0 256 -174 435t-441 179
q-154 0 -302 -66t-266 -180t-191 -287q-73 -172 -72 -368q0 -303 194 -480t496 -178q150 0 297 56v-35q-51 -31 -169 -62t-194 -30q-368 0 -574 181t-206 493q0 210 94 404t245 328t340 214t378 80q315 0 494 -180t180 -455q-1 -147 -59 -277q-109 -242 -340 -352
q-102 -49 -210 -49t-162 75t-10 214l27 82h-4l-64 -91q-190 -279 -344 -278q-75 0 -117 51t-42 123z" />
    <glyph glyph-name="A" unicode="A" horiz-adv-x="1409" 
d="M764 1174l-326 -605h412l-84 605h-2zM-80 0l8 45l135 39l725 1280l144 29l190 -1301l131 -49l-6 -43h-512l6 45l177 45l-54 379h-481l-201 -375l193 -51l-6 -43h-449z" />
    <glyph glyph-name="B" unicode="B" horiz-adv-x="1228" 
d="M913 1046q0 126 -93 199q-93 72 -255 68l-110 -568l135 11q147 10 235 87t88 203zM541 49q141 0 243 84q102 83 101 239q0 156 -125 236t-318 76l-110 -565q68 -70 209 -70zM614 1360q270 0 394 -81t125 -216q0 -135 -128 -227t-311 -115v-6q170 -13 289 -99t119 -227
q0 -193 -176 -296t-492 -99l-481 6l8 45l156 45l233 1176l-137 51l6 43h395z" />
    <glyph glyph-name="C" unicode="C" horiz-adv-x="1449" 
d="M733 -35q-270 0 -439 155t-169 435q0 152 61 299t173 267t286 195q175 75 371 75t414 -115l-48 -369h-49l-61 307q-119 111 -271 111q-231 0 -426 -201q-94 -96 -152 -252t-58 -342q-1 -240 113 -368t281 -129q167 0 283 88l207 334h49l-110 -394q-256 -96 -455 -96z" />
    <glyph glyph-name="D" unicode="D" horiz-adv-x="1472" 
d="M1399 784q0 -374 -265 -584t-716 -206l-465 6l8 45l156 45l233 1176l-137 51l6 43l354 2q397 2 611 -150t215 -428zM1174 774q0 264 -163 398t-446 135l-235 -1192q80 -53 207 -52q209 3 356 107q281 198 281 604z" />
    <glyph glyph-name="E" unicode="E" horiz-adv-x="1183" 
d="M711 680h-271l-112 -574q43 -35 127 -34h344l221 334h53l-125 -406h-995l8 45l156 45l233 1176l-137 51l6 43h817l131 8l-49 -387h-51l-66 309h-440l-106 -538h272l100 180h47l-86 -436h-53z" />
    <glyph glyph-name="F" unicode="F" horiz-adv-x="1116" 
d="M713 662h-275l-112 -572l159 -47l-6 -43h-526l8 45l156 45l233 1176l-137 51l6 43h803l143 8l-61 -397h-51l-64 319h-428l-108 -555h274l102 185h50l-88 -457h-48z" />
    <glyph glyph-name="G" unicode="G" horiz-adv-x="1468" 
d="M756 29q104 0 179 48t93 138l49 250l-196 41l8 49h508l-8 -49l-107 -41l-72 -371q-2 0 -82 -36t-116 -48t-122 -28q-85 -16 -173 -17q-256 0 -424 164t-168 432q0 154 61 301t172 265t282 191q172 73 366 73t415 -117l-57 -367h-51l-62 326q-102 92 -231 92
q-252 0 -446 -207q-93 -98 -151 -255t-58 -343q-1 -233 113 -362t278 -129z" />
    <glyph glyph-name="H" unicode="H" horiz-adv-x="1478" 
d="M776 0l6 45l174 45l117 592h-631l-116 -592l153 -47l-8 -43h-518l8 45l156 45l233 1176l-139 51l8 43h518l-8 -45l-172 -49l-102 -518h630l105 522l-154 47l6 43h519l-9 -45l-153 -45l-236 -1180l142 -47l-9 -43h-520z" />
    <glyph glyph-name="I" unicode="I" horiz-adv-x="638" 
d="M-47 0l8 45l156 45l233 1176l-137 51l6 43h502l-8 -45l-156 -45l-233 -1180l139 -47l-6 -43h-504z" />
    <glyph glyph-name="J" unicode="J" horiz-adv-x="667" 
d="M586 1270l-236 -1182q-47 -244 -166 -370t-381 -169l-10 39q115 45 187 121t104 159q33 83 59 214l234 1188l-168 47l6 43h535l-11 -45z" />
    <glyph glyph-name="K" unicode="K" horiz-adv-x="1343" 
d="M1247 43l-8 -43q-210 -22 -300 20q-30 14 -75 56t-76 86q-31 45 -92 143t-145 249q-84 152 -86 156t-8 15v2l684 537l-162 49l6 47h414l-8 -47l-142 -49l-604 -473q109 -185 170 -291t121 -198t91 -129q30 -38 72 -70q43 -32 69 -40t79 -20zM-47 0l8 45l156 45l233 1176
l-137 51l6 43h520l-8 -45l-174 -49l-231 -1176l153 -47l-8 -43h-518z" />
    <glyph glyph-name="L" unicode="L" horiz-adv-x="1142" 
d="M328 106q39 -35 127 -34h301l252 385h61l-151 -457h-965l8 45l156 45l233 1176l-137 51l6 43h520l-8 -45l-174 -49z" />
    <glyph glyph-name="M" unicode="M" horiz-adv-x="1753" 
d="M-68 0l11 45l153 45l310 1174l-140 53l6 43h375l189 -1016l573 956l25 60h364l-8 -45l-154 -45l-180 -1180l141 -47l-8 -43h-520l8 45l172 45l176 1092l-604 -998l-65 -129h-74l-14 127l-203 1030l-275 -1122l162 -47l-8 -43h-412z" />
    <glyph glyph-name="N" unicode="N" horiz-adv-x="1419" 
d="M1090 -20h-54l-637 1159l-190 -1047l160 -49l-7 -43h-409l8 45l156 45l225 1131q-45 55 -115 79l-37 17l9 43h319l559 -1014l168 922l-160 49l7 43h409l-10 -45l-154 -45l-196 -994z" />
    <glyph glyph-name="O" unicode="O" horiz-adv-x="1568" 
d="M1262 910q0 166 -88 293q-88 128 -248 128q-129 0 -242 -81q-114 -81 -184 -207q-152 -273 -152 -560q0 -201 85 -333t235 -132t265 83q114 83 183 213q146 272 146 596zM916 1393q232 0 401 -169q168 -169 168 -452q0 -142 -55 -286q-123 -321 -411 -455
q-157 -74 -341 -74q-221 0 -387 168t-166 448q0 199 93 384q94 185 280 311t418 125z" />
    <glyph glyph-name="P" unicode="P" horiz-adv-x="1208" 
d="M956 1001q0 135 -101 217t-290 91l-241 -1219l182 -47l-6 -43h-547l8 45l156 45l233 1176l-137 51l6 43h459q225 -4 365 -96t141 -244q0 -206 -198 -320t-488 -98l10 55q188 2 318 84t130 260z" />
    <glyph glyph-name="Q" unicode="Q" horiz-adv-x="1568" 
d="M1262 913q0 169 -87 293t-249 125q-129 0 -242 -81q-114 -81 -184 -207q-152 -273 -152 -560q0 -201 85 -333t235 -132t265 83q114 83 183 213q146 271 146 599zM916 1393q232 0 401 -169q168 -168 168 -448q1 -280 -185 -520t-493 -287q121 -94 164 -126
q176 -131 269 -157q92 -26 167 -26q170 0 365 119l20 -31q-252 -219 -469 -219q-139 -1 -281 65t-226 131q-82 65 -188 158t-120 105q-166 57 -275 210q-109 154 -109 364t94 395t280 311t418 125z" />
    <glyph glyph-name="R" unicode="R" horiz-adv-x="1343" 
d="M942 1025q0 140 -94 216q-95 76 -283 68l-121 -609q240 -6 369 90t129 235zM670 1360q221 0 359 -82t138 -226q-1 -144 -115 -234q-114 -89 -282 -128q68 -139 109 -220t79 -158q38 -78 66 -114t52 -69q46 -63 169 -86l-8 -43q-246 -27 -328 49t-288 504q-8 16 -20 39
t-21 45h-148l-108 -547l180 -47l-6 -43h-545l8 45l156 45l233 1176l-137 51l6 43h451z" />
    <glyph glyph-name="S" unicode="S" horiz-adv-x="1085" 
d="M439 33q128 0 221 80t94 196q0 83 -45 145t-160 138l-88 57q-131 84 -177 157t-46 183q0 166 148 285t366 119q127 0 315 -72l-78 -367h-47l-37 303q-98 68 -213 68q-116 0 -192 -72t-76 -165t36 -147t134 -118l82 -53q154 -98 216 -172t62 -188q0 -193 -162 -319
t-360 -126t-393 103l74 397h49l45 -346q104 -86 232 -86z" />
    <glyph glyph-name="T" unicode="T" horiz-adv-x="1337" 
d="M393 1360h867l137 14l-94 -377h-54l-22 295h-320l-239 -1202l143 -47l-8 -43h-506l8 45l156 45l239 1202h-303l-147 -295h-53l63 377z" />
    <glyph glyph-name="U" unicode="U" horiz-adv-x="1466" 
d="M655 -49q-258 -1 -383 155t-57 488l137 672l-139 51l6 43h522l-10 -45l-172 -49l-145 -725q-43 -219 40 -342t263 -123q365 0 450 495l123 689l-160 53l7 47h417l-6 -47l-155 -49l-146 -740q-115 -573 -592 -573z" />
    <glyph glyph-name="V" unicode="V" horiz-adv-x="1343" 
d="M512 -14l-221 1282l-113 49l6 43h504l-10 -45l-178 -51l166 -1024l559 1026l-176 51l6 43h403l-10 -45l-107 -39l-757 -1290h-72z" />
    <glyph glyph-name="W" unicode="W" horiz-adv-x="1882" 
d="M1147 -14l-125 946l-508 -946h-92l-131 1282l-111 49l8 43h494l-8 -45l-178 -51l90 -1004l418 815l-25 191l-100 51l6 43h487l-8 -45l-180 -51l123 -1004l469 1006l-174 51l6 43h387l-8 -45l-107 -39l-639 -1290h-94z" />
    <glyph glyph-name="X" unicode="X" horiz-adv-x="1437" 
d="M-55 45l137 33l561 596l-278 592l-127 51l6 43h532l-10 -45l-172 -49l203 -463h4l413 461l-188 53l6 43h443l-9 -45l-133 -45l-506 -539l297 -641l140 -47l-9 -43h-540l6 45l176 45l-225 512h-4l-461 -520l207 -39l-8 -43h-469z" />
    <glyph glyph-name="Y" unicode="Y" horiz-adv-x="1312" 
d="M1292 1274l-522 -731l-90 -455l129 -47l-8 -41h-479l10 43l141 45l86 432l-250 746l-116 51l8 43h506l-11 -45l-168 -49l209 -658l449 652l-180 57l8 43h399l-8 -45z" />
    <glyph glyph-name="Z" unicode="Z" horiz-adv-x="1259" 
d="M-18 0l12 45l995 1245h-577l-172 -346h-54l66 426l156 -10h870l-2 -17l-1016 -1269h623l231 344h53l-133 -428l-155 10h-897z" />
    <glyph glyph-name="bracketleft" unicode="[" horiz-adv-x="636" 
d="M399 -371h-364l371 1872h362l-12 -61h-197l-342 -1749h197z" />
    <glyph glyph-name="backslash" unicode="\" horiz-adv-x="874" 
d="M731 -397l-69 -13l-420 1917l69 15z" />
    <glyph glyph-name="bracketright" unicode="]" horiz-adv-x="616" 
d="M233 1501h363l-371 -1872h-360l12 62h195l346 1749h-199z" />
    <glyph glyph-name="asciicircum" unicode="^" horiz-adv-x="870" 
d="M233 958h-77l428 590h30l222 -590h-74l-184 461z" />
    <glyph glyph-name="underscore" unicode="_" horiz-adv-x="835" 
d="M-145 -424l14 66h776l-12 -66h-778z" />
    <glyph glyph-name="grave" unicode="`" horiz-adv-x="516" 
d="M262 1550h162l57 -415h-49l-170 397v18z" />
    <glyph glyph-name="a" unicode="a" horiz-adv-x="1040" 
d="M279 123q85 0 237 213t201 364l45 136q-55 76 -135 76t-174 -107q-94 -106 -159 -268t-73 -312q-1 -102 58 -102zM630 -25q-68 1 -83 57q-14 56 10 111l94 285h-14q-209 -330 -336 -414q-65 -43 -135 -43q-70 1 -114 51t-38 152q6 154 79 306t174 259q101 106 213 174
t200 68t145 -35l54 101h112l-250 -900h7q96 59 194 211l41 -14q-63 -139 -174 -254t-179 -115z" />
    <glyph glyph-name="b" unicode="b" horiz-adv-x="978" 
d="M672 842q-74 0 -168 -106t-164 -236q-70 -132 -98 -232l-37 -135q16 -45 56 -77t93 -31q131 0 257 225t139 438q6 154 -78 154zM315 -33q-158 0 -276 135l-16 21l313 1223l-133 90l6 16l356 78l-248 -946h9q96 170 225 293t242 122q80 1 125 -73q46 -74 40 -190t-58 -248
q-52 -130 -135 -246t-203 -196q-120 -79 -247 -79z" />
    <glyph glyph-name="c" unicode="c" horiz-adv-x="811" 
d="M524 893q-68 0 -134 -93q-66 -94 -104 -232q-40 -138 -42 -271q-2 -178 118 -178q139 0 316 248l35 -23q-193 -369 -447 -369q-111 0 -173 76t-60 189q4 182 87 349t247 288q156 123 303 122q68 1 118 -35t50 -81t-28 -85t-42 -48q-144 143 -244 143z" />
    <glyph glyph-name="d" unicode="d" horiz-adv-x="1050" 
d="M625 936q-141 0 -265 -217t-133 -465q-3 -72 17 -106t53 -33q83 1 239 209t205 401l29 113q-57 98 -145 98zM645 997q88 0 158 -32l98 381l-137 90l8 16l358 76l-358 -1378h6q84 51 197 208l37 -14q-66 -141 -174 -254t-172 -113q-127 0 -78 166l80 271h-11
q-51 -90 -112 -178t-163 -176t-186 -89q-82 1 -133 61t-45 187q8 183 96 363t233 298q144 118 298 117z" />
    <glyph glyph-name="e" unicode="e" horiz-adv-x="802" 
d="M573 918q-80 0 -175 -113t-138 -268q133 23 249 113t122 200q3 68 -58 68zM282 -25q-133 0 -193 85t-56 216q8 172 96 324t219 258q168 141 324 141q72 0 114 -40t41 -107q-6 -131 -180 -232t-399 -137q-10 -45 -15 -106q-12 -258 154 -258q65 0 139 56t127 136l39 -18
q-63 -119 -170 -219t-240 -99z" />
    <glyph glyph-name="f" unicode="f" horiz-adv-x="622" 
d="M850 1530q74 0 128 -36t54 -79q-2 -66 -82 -139q-119 152 -221 151q-58 0 -133 -94t-135 -364h244l-23 -82h-238l-163 -819q-53 -262 -189 -429t-303 -167q-49 0 -95 34t-46 84q0 82 84 127q90 -158 172 -157q45 0 78 74t67 247l203 1006h-180l14 82h184q66 221 241 391
t339 170z" />
    <glyph glyph-name="g" unicode="g" horiz-adv-x="882" 
d="M539 938q-93 0 -179 -153t-92 -314q-10 -147 76 -147q98 0 183 158t94 329q5 51 -15 89t-67 38zM471 -168l-180 86q-143 -43 -203 -85q-60 -41 -64 -113t80 -121t220 -49t215 46q80 46 84 103q2 33 -30 61t-122 72zM549 995q61 0 153 -20l265 12l-29 -125l-197 43v-6
q21 -25 37 -81t13 -113q-7 -164 -139 -299t-306 -136h-27q-63 -33 -63 -73t29 -58l315 -157q98 -48 135 -96t35 -103q-6 -123 -161 -214t-359 -91t-311 53q-106 53 -103 147q8 170 397 261v6l-32 14q-109 47 -103 145q2 41 30 76t52 50t76 49v8q-78 33 -121 109t-39 165
q6 168 129 301t324 133z" />
    <glyph glyph-name="h" unicode="h" horiz-adv-x="1015" 
d="M799 997q168 0 106 -221l-174 -626h6q86 53 197 208l37 -14q-69 -139 -177 -253t-180 -114q-119 0 -71 166l180 623q25 84 -35 84q-94 0 -244 -207t-213 -442l-51 -185l-166 -45l-26 27l354 1348l-115 90l6 16l336 78l-254 -975h11q106 184 232 313t241 129z" />
    <glyph glyph-name="i" unicode="i" horiz-adv-x="526" 
d="M420 1489q47 0 81 -34q35 -34 33 -81t-36 -81q-34 -33 -82 -33q-47 0 -80 34t-33 80q2 47 36 81t81 34zM127 -23q-115 0 -72 166l203 699q-55 43 -178 10l4 27q123 119 240 118q66 0 96 -51t4 -153l-180 -643h8q104 68 188 208l43 -14q-61 -131 -172 -249t-184 -118z" />
    <glyph glyph-name="j" unicode="j" horiz-adv-x="495" 
d="M301 1374q0 47 35 81t82 34t81 -34q35 -34 33 -81t-36 -81q-34 -33 -82 -33q-47 0 -80 34t-33 80zM-391 -410q0 84 82 127q80 -158 168 -157q49 0 82 76t82 270l235 934q-61 45 -178 12v27q123 119 239 118q68 0 101 -54t4 -169l-197 -772q-51 -207 -181 -369t-288 -161
q-49 0 -99 32t-50 86z" />
    <glyph glyph-name="k" unicode="k" horiz-adv-x="952" 
d="M705 858q-76 0 -203 -147t-217 -338q219 87 354 199t135 199t-69 87zM769 -86q-67 0 -109 24t-107 101l-274 319q-49 -109 -70 -200l-33 -144l-162 -43l-26 27l354 1348l-115 90l6 16l336 78l-256 -971h11q256 438 471 438q67 0 105 -43t38 -112q0 -252 -479 -445
l413 -440v-12q-36 -31 -103 -31z" />
    <glyph glyph-name="l" unicode="l" horiz-adv-x="499" 
d="M96 -23q-117 0 -71 166l313 1203l-135 90l6 16l354 78l-352 -1380h6q88 55 197 208l37 -14q-61 -139 -171 -253t-184 -114z" />
    <glyph glyph-name="m" unicode="m" horiz-adv-x="1564" 
d="M834 997q78 -1 102 -65t-12 -184l-64 -195h10q276 444 478 444q166 0 106 -221l-174 -626h6q86 55 195 208l37 -14q-70 -141 -178 -254t-179 -113q-119 0 -71 168l184 623q10 34 0 58t-37 24q-95 0 -241 -207t-218 -442l-53 -185l-162 -45l-28 27l221 768q23 84 -35 84
q-100 0 -250 -211t-215 -459l-43 -164l-170 -45l-27 27l244 850q-20 12 -70 14t-104 -10l4 27q123 119 234 118q78 0 104 -59t-6 -164l-62 -201h13q256 424 461 424z" />
    <glyph glyph-name="n" unicode="n" horiz-adv-x="1048" 
d="M831 997q168 0 107 -221l-174 -626h6q86 53 197 208l37 -14q-70 -141 -178 -254t-179 -113q-119 0 -72 166l181 623q29 84 -35 84q-95 0 -241 -205t-216 -444l-55 -185l-166 -45l-27 27l244 848q-51 39 -172 6l2 27q123 119 234 118q78 0 104 -59t-6 -164l-62 -201h13
q256 424 458 424z" />
    <glyph glyph-name="o" unicode="o" horiz-adv-x="960" 
d="M615 997q161 -1 233 -111t64 -262t-76 -296t-201 -248t-291 -104t-232 110q-74 111 -65 267q8 157 75 299t200 244t293 101zM598 948q-84 0 -167 -114t-132 -266q-49 -153 -57 -285q-14 -258 102 -258q123 0 239 220t130 443q14 260 -115 260z" />
    <glyph glyph-name="p" unicode="p" horiz-adv-x="985" 
d="M381 31q84 -1 171 107t140 258q54 150 56 266q2 114 -46 172t-117 59q-70 0 -149 -27l-188 -749q49 -86 133 -86zM647 997q151 0 227 -81t74 -197q-2 -180 -88 -354t-222 -284t-278 -110q-70 0 -139 37l-102 -411l262 -13l-16 -71h-578l8 41l142 49l292 1165
q-90 -49 -192 -113l-21 35q100 88 238 170l51 203h141l-32 -121q131 55 233 55z" />
    <glyph glyph-name="q" unicode="q" horiz-adv-x="993" 
d="M295 115q84 0 243 212t203 398l27 111q-57 98 -145 98q-129 0 -258 -219t-140 -459q-8 -141 70 -141zM185 -29q-71 1 -123 61t-46 187q8 181 102 363t239 299q144 117 288 116q111 0 191 -59l22 61h135l-356 -1402l180 -13l-12 -71h-541l8 41l185 45l170 675l41 140h-13
q-70 -125 -188 -270q-63 -77 -137 -125t-145 -48z" />
    <glyph glyph-name="r" unicode="r" horiz-adv-x="770" 
d="M840 907q0 -117 -144 -213h-45q31 51 29 89t-33 38q-61 0 -183 -205t-194 -413l-65 -187l-162 -45l-27 27l236 850q-55 35 -174 6l4 27q121 117 240 116q70 0 96 -50t-4 -144l-119 -357h20q154 308 246 432t178 123q47 1 74 -25t27 -69z" />
    <glyph glyph-name="s" unicode="s" horiz-adv-x="657" 
d="M557 287q0 -107 -117 -211t-254 -105q-100 1 -159 51t-59 114t52 122h5q90 -104 151 -149q62 -45 114 -45t83 29q31 30 33 69q0 66 -70 160l-107 147q-68 92 -86 128t-16 83q4 121 131 221t242 100q82 1 128 -37t43 -96t-48 -114h-2q-145 145 -244 145q-41 0 -72 -28
q-31 -29 -31 -77t68 -141l107 -145q68 -94 88 -132t20 -89z" />
    <glyph glyph-name="t" unicode="t" horiz-adv-x="663" 
d="M133 -25q-47 0 -72 36t-8 93l201 783h-182l8 57l201 27l127 280h108l-61 -282h274l-16 -82h-275l-192 -737h6q59 16 148 104t147 170l41 -23q-102 -170 -226 -298t-229 -128z" />
    <glyph glyph-name="u" unicode="u" horiz-adv-x="1034" 
d="M635 -23q-119 0 -70 166l94 332h-6q-8 -12 -52 -85q-132 -220 -198 -281q-31 -29 -73 -67q-75 -67 -174 -69q-68 1 -94 53t4 185l174 635q-51 39 -170 6l2 27q123 119 237 118q147 0 92 -217l-153 -587q-16 -59 28 -60q98 0 256 229t205 416l47 185l166 22l17 -18
l-211 -817h6q82 53 192 208l37 -14q-69 -139 -177 -253t-179 -114z" />
    <glyph glyph-name="v" unicode="v" horiz-adv-x="880" 
d="M883 816q0 -91 -99 -239t-290 -366l-203 -240h-19l-55 31l-31 842q-36 20 -78 20t-81 -12l2 27q121 121 219 120q125 0 127 -184l14 -653q197 252 273 378t76 196t-36 101q-59 50 -178 15l4 29q119 119 213 118q68 0 105 -46t37 -137z" />
    <glyph glyph-name="w" unicode="w" horiz-adv-x="1331" 
d="M1188 750q0 57 -35 87q-63 54 -176 15l2 29q119 119 213 118q68 0 104 -46t37 -122q0 -76 -56 -179t-166 -240t-169 -203l-199 -238h-18l-66 31l3 453h-7q-113 -143 -266 -359l-90 -125h-18l-74 31l-8 836q-69 48 -172 14l2 27q117 121 225 120q121 0 123 -184l4 -637h6
q154 199 268 373l-2 287q-59 46 -172 14l4 27q117 121 224 120q120 0 120 -186l2 -647h7q350 414 350 584z" />
    <glyph glyph-name="x" unicode="x" horiz-adv-x="960" 
d="M555 -23q-39 0 -59 23t-33 72l-62 299l-92 -138q-100 -153 -155 -207q-54 -54 -110 -54t-91 29q-35 30 -35 84t37 108l14 16l58 -51q61 -55 127 -8t192 241l39 58l-57 280q-12 59 -28 84t-46 25q-76 0 -131 -238h-39q14 178 87 288t171 109q68 0 100 -45t58 -153l35 -185
l118 187q72 117 125 157q54 40 102 39q100 -4 99 -100q0 -59 -41 -119t-84 -88h-55q29 39 40 79t2 64q-9 23 -34 23t-53 -31t-62 -81t-39 -54l-104 -153l78 -404h8q94 25 239 227l39 -14q-70 -141 -178 -255t-180 -114z" />
    <glyph glyph-name="y" unicode="y" horiz-adv-x="944" 
d="M-156 -524q-70 0 -109 32q-38 32 -39 88t32 91t84 35q50 0 80 -36q30 -34 55 -108h8q100 43 176 144q76 100 117 230q78 246 79 472t-32 320t-84 94q-84 0 -137 -242h-37q10 176 77 288t169 112t160 -118q58 -116 63 -346q6 -319 -86 -567h14q264 332 322 537
q29 102 26 205q-4 150 -96 256q55 37 117 36q104 -1 107 -157t-80 -355t-214 -371t-279 -320q-147 -148 -285 -234t-208 -86z" />
    <glyph glyph-name="z" unicode="z" horiz-adv-x="892" 
d="M528 -35q-49 0 -139 37l-270 111l-115 -152l-70 57l695 717l-240 86q-154 55 -178 13q-31 -59 100 -152q-63 -96 -133 -96q-36 0 -62 26t-26 74q2 94 110 205t210 110q70 0 159 -40l195 -82l94 122l70 -59l-672 -688l252 -94q100 -39 158 -3q57 36 153 160l39 -18
q-90 -170 -169 -252t-161 -82z" />
    <glyph glyph-name="braceleft" unicode="{" horiz-adv-x="692" 
d="M242 598v-4q88 -30 122 -98t11 -211l-60 -348q-29 -163 1 -215t141 -52l-6 -41h-29q-203 -1 -262 99t0 307l88 344q23 86 -10 135t-99 51l-73 2l12 68l74 2q156 2 176 149l57 394q23 158 116 240t290 81h30l-8 -41q-113 0 -163 -50t-87 -216l-71 -320q-32 -138 -90 -200
t-160 -76z" />
    <glyph glyph-name="bar" unicode="|" horiz-adv-x="505" 
d="M88 -416h-76l385 1925h74z" />
    <glyph glyph-name="braceright" unicode="}" horiz-adv-x="692" 
d="M403 532v5q-87 31 -121 99t-10 210l58 348q29 164 -1 215t-141 51l7 41h28q203 2 262 -98t0 -307l-86 -344q-23 -88 9 -136t98 -51l74 -2l-13 -67l-71 -2q-158 -4 -179 -150l-57 -393q-23 -158 -115 -241t-288 -81h-33l10 41q113 0 163 50t85 217l72 319q31 134 90 198
t159 78z" />
    <glyph glyph-name="asciitilde" unicode="~" horiz-adv-x="915" 
d="M59 424l-39 16l13 31q90 224 234 215q67 -4 147 -27l164 -51q143 -42 201 -22t114 121l39 -19l-10 -26q-62 -160 -154 -207t-231 -4l-138 43q-165 52 -225 40t-115 -110z" />
    <glyph glyph-name="uni00A0" unicode="&#xa0;" horiz-adv-x="309" 
 />
    <glyph glyph-name="exclamdown" unicode="&#xa1;" horiz-adv-x="595" 
d="M395 1202q57 0 97 -39t38 -96q0 -57 -38 -97t-96 -40t-98 40t-40 97t40 96t97 39zM254 -242h-215l283 1030h51z" />
    <glyph glyph-name="cent" unicode="&#xa2;" horiz-adv-x="868" 
d="M268 301q-2 -174 107 -188l178 786q-105 -11 -193 -201t-92 -397zM716 999q50 1 100 -35t50 -90q0 -27 -21 -67t-46 -53q-104 109 -183 137l-176 -772q111 27 269 248l34 -23q-150 -281 -329 -348l-56 -240h-63l51 224q-29 -4 -47 -5q-111 0 -174 76t-62 191
q2 184 91 354q88 170 252 289q76 57 163 90l58 250h65l-53 -232q27 6 77 6z" />
    <glyph glyph-name="sterling" unicode="&#xa3;" horiz-adv-x="1224" 
d="M981 1337q80 0 142 -44t63 -111q0 -92 -144 -125q-18 104 -54 157t-79 54q-109 0 -176 -262l-106 -398h393l-14 -67h-398q-80 -324 -325 -486q127 -61 252 -145l73 -49q231 -158 264 -172t62 -15q61 0 81 81q19 81 -11 200q78 2 118 -15t39 -73q0 -84 -101 -180t-243 -97
q-76 0 -174 52t-163 106q-65 53 -177 154l-113 100q-98 -43 -151 -43t-82 23q-29 22 -29 60t30 62t90 25q60 0 173 -47q98 94 156 321l35 138h-242l12 67h246l47 187q63 258 219 400t287 142z" />
    <glyph glyph-name="yen" unicode="&#xa5;" horiz-adv-x="1193" 
d="M127 535l12 63h350l-239 614l-98 48l8 43h477l-8 -46l-158 -45l201 -575h2l413 565l-186 58l6 43h391l-10 -46l-96 -40l-469 -619h367l-13 -63h-379l-30 -156h374l-12 -64h-375l-45 -235l150 -39l-6 -41h-518l10 43l160 37l45 235h-369l10 64h371l31 156h-367z" />
    <glyph glyph-name="brokenbar" unicode="&#xa6;" horiz-adv-x="507" 
d="M88 -416h-76l174 867h74zM297 641h-74l174 868h74z" />
    <glyph glyph-name="section" unicode="&#xa7;" horiz-adv-x="976" 
d="M332 758q0 -115 69 -295l74 -191q74 -188 74 -296t-51 -177h10q156 131 156 363q0 98 -72 293l-72 192q-76 207 -76 301t52 172h-9q-155 -131 -155 -362zM395 -24q-41 88 -73 184l-89 221q-67 169 -67 279t57 223t147 197q193 180 389 249q95 35 163 35t104 -33t37 -75
q0 -42 -29 -72t-73 -31q-23 31 -69 55q-46 25 -95 27q-109 0 -211 -51q-27 -35 -27 -88q1 -53 25 -112q68 -162 90 -224l88 -223q66 -168 66 -278q0 -111 -58 -223q-99 -196 -336 -345q-212 -137 -360 -135q-68 0 -105 32t-37 74q0 43 29 73t72 32q24 -32 70 -56
q46 -25 96 -26q106 0 211 51q26 35 26 93q0 59 -41 147z" />
    <glyph glyph-name="dieresis" unicode="&#xa8;" 
d="M727 1374q0 -44 -32 -76t-78 -32q-47 0 -77 32t-30 76q0 45 31 78t75 33t78 -33q33 -33 33 -78zM262 1266q-45 0 -77 30q-31 30 -31 77q0 46 31 79q32 33 77 33t77 -33t32 -78q0 -44 -32 -76t-77 -32z" />
    <glyph glyph-name="copyright" unicode="&#xa9;" horiz-adv-x="1595" 
d="M799 270q-201 0 -291 113t-78 264q14 186 152 305t325 119q109 0 244 -65l-18 -209h-35l-56 166q-58 63 -160 63t-183 -95t-95 -260t49 -258t185 -94q86 0 153 58l94 176h37l-32 -205q-66 -29 -93 -40q-93 -38 -198 -38zM842 1327q-268 1 -464 -191t-204 -464t174 -464
t451 -192q175 0 327 87t244 239t98 330q8 272 -175 464t-451 191zM797 -37q-295 0 -495 206q-199 206 -190 502t223 503q214 206 509 206q296 0 496 -206t190 -503q-10 -296 -224 -502t-509 -206z" />
    <glyph glyph-name="ordfeminine" unicode="&#xaa;" horiz-adv-x="940" 
d="M342 618q70 0 182 146t148 272l37 121q-47 68 -109 68t-135 -84q-72 -84 -123 -213t-51 -246q-1 -28 15 -46t36 -18zM621 481q-104 0 -58 158l55 186h-8q-129 -199 -213 -274q-84 -74 -152 -74q-67 0 -100 39t-32 107q0 145 86 302t212 259t238 102q55 0 121 -37l29 58
h102l-192 -695l6 -2q90 39 182 170l31 -14q-50 -111 -140 -198t-167 -87z" />
    <glyph glyph-name="guillemotleft" unicode="&#xab;" horiz-adv-x="942" 
d="M831 803l37 -43l-319 -336l205 -328l-45 -35l-326 347v34zM494 803l36 -43l-319 -336l205 -328l-45 -35l-326 347v34z" />
    <glyph glyph-name="logicalnot" unicode="&#xac;" horiz-adv-x="1144" 
d="M86 528h971v-403h-88v324h-883v79z" />
    <glyph glyph-name="registered" unicode="&#xae;" horiz-adv-x="862" 
d="M553 1335l-35 -176h53q104 8 105 92q0 37 -31 61t-92 23zM578 1364q197 0 196 -100q0 -82 -135 -119q67 -125 89 -152t71 -32l-4 -21q-98 -10 -135 17q-36 28 -109 169h-39l-27 -147l45 -14l-4 -21h-198l6 23l59 14l70 350l-57 10l6 23h166zM215 1143q0 -150 101 -251
t250 -101t250 101t102 251q0 150 -102 251t-251 101q-150 0 -250 -101t-100 -251zM158 1142q0 170 121 286t291 116t288 -117q119 -117 119 -285t-122 -283q-122 -116 -292 -116t-288 115q-117 115 -117 284z" />
    <glyph glyph-name="macron" unicode="&#xaf;" 
d="M129 1282l25 121h555l-25 -121h-555z" />
    <glyph glyph-name="degree" unicode="&#xb0;" horiz-adv-x="581" 
d="M180 1235q0 -87 56 -147t139 -60q84 0 139 59t55 147t-55 148t-139 60q-83 0 -139 -60t-56 -147zM102 1234q0 114 81 192t196 79q115 0 191 -79q76 -80 75 -192q0 -112 -81 -192q-80 -80 -194 -80t-191 80q-77 78 -77 192z" />
    <glyph glyph-name="plusminus" unicode="&#xb1;" horiz-adv-x="1142" 
d="M86 0v80h971v-80h-971zM1057 672h-441v-447h-88v447h-442v78h442v446h88v-446h441v-78z" />
    <glyph glyph-name="acute" unicode="&#xb4;" horiz-adv-x="516" 
d="M602 1550v-16l-283 -399h-53l178 415h158z" />
    <glyph glyph-name="paragraph" unicode="&#xb6;" horiz-adv-x="1073" 
d="M298 -422q-158 0 -254 91q-95 91 -95 229t93 227q94 90 204 90t168 -51t59 -124q0 -73 -41 -114t-96 -41t-90 30t-35 81q70 51 106 113v6q-25 33 -91 33t-132 -66t-66 -174t73 -186q73 -76 200 -76t219 87t125 253l258 1308h-108l-160 -817h-94q-166 0 -271 110
q-104 110 -106 271q-2 214 165 358t371 144h465l-10 -45l-141 -45l-244 -1245q-45 -227 -179 -337q-135 -110 -293 -110z" />
    <glyph glyph-name="periodcentered" unicode="&#xb7;" horiz-adv-x="540" 
d="M260 418q-55 0 -96 42t-41 96t41 96t96 42t96 -42t41 -96t-41 -96t-96 -42z" />
    <glyph glyph-name="cedilla" unicode="&#xb8;" horiz-adv-x="516" 
d="M143 -315q0 74 -84 104l164 234h56l-95 -144q117 -45 117 -137q0 -197 -367 -260l-2 33q211 63 211 170z" />
    <glyph glyph-name="ordmasculine" unicode="&#xba;" horiz-adv-x="851" 
d="M582 1300q118 0 184 -87t65 -207q0 -207 -138 -368t-324 -161q-117 0 -184 87t-66 218q0 205 137 362q138 156 326 156zM565 1251q-102 0 -189 -188t-91 -352q0 -184 90 -185q102 0 191 184t90 363q1 178 -91 178z" />
    <glyph glyph-name="guillemotright" unicode="&#xbb;" horiz-adv-x="942" 
d="M393 61l-39 41l322 334l-207 330l45 37l326 -350l-2 -33zM55 61l-39 41l322 334l-207 330l45 37l326 -350l-2 -33z" />
    <glyph glyph-name="onequarter" unicode="&#xbc;" horiz-adv-x="1447" 
d="M817 289h246l67 297zM127 -168l-49 45l1235 1602l51 -45zM510 1378l-152 -704l131 -25l-6 -39h-446l6 39l156 25l125 575l-160 -4v37l330 96h16zM905 35l107 22l28 133h-346l13 56l559 526l57 -12l-104 -471h147l-18 -99h-152l-29 -133l95 -24l-7 -33h-356z" />
    <glyph glyph-name="onehalf" unicode="&#xbd;" horiz-adv-x="1511" 
d="M127 -168l-49 45l1235 1602l51 -45zM510 1378l-152 -704l131 -25l-6 -39h-446l6 39l156 25l125 575l-160 -4v37l330 96h16zM1268 535q0 59 -39 94t-103 35q-98 0 -182 -117l-37 22q100 203 303 203q100 0 160 -56t60 -139q2 -83 -63 -154t-202 -167l-176 -125h408
l-33 -131h-561l10 41l240 203q215 178 215 291z" />
    <glyph glyph-name="threequarters" unicode="&#xbe;" horiz-adv-x="1519" 
d="M889 289h246l67 297zM199 -168l-49 45l1234 1602l52 -45zM260 592q-90 0 -147 33t-58 82q-2 31 21 57t65 33q76 -158 187 -158q57 0 100 43q43 42 42 110t-66 115t-189 54l10 53q125 22 199 68t74 106q2 42 -29 70t-80 28q-92 0 -196 -121l-35 25q111 195 291 194
q88 0 145 -42t57 -105q-1 -135 -237 -203l-2 -10q100 -4 158 -52t59 -120q2 -116 -111 -188t-258 -72zM977 35l106 22l29 133h-346l12 56l559 526l58 -12l-105 -471h148l-19 -99h-151l-29 -133l94 -24l-6 -33h-356z" />
    <glyph glyph-name="questiondown" unicode="&#xbf;" horiz-adv-x="794" 
d="M659 1202q57 0 97 -39t39 -96q0 -57 -39 -97q-38 -40 -96 -40t-98 40t-40 97t40 96t97 39zM55 260q0 150 65 224q65 75 206 100l200 34l54 170h53l-51 -342l-291 -43q-162 -23 -162 -129q0 -100 108 -166t255 -100l51 -12l-35 -225l-72 22q-152 51 -266 184t-115 283z
" />
    <glyph glyph-name="Agrave" unicode="&#xc0;" horiz-adv-x="1409" 
d="M614 1790h179l118 -287h-71l-226 264v23zM764 1174l-326 -605h412l-84 605h-2zM-80 0l8 45l135 39l725 1280l144 29l190 -1301l131 -49l-6 -43h-512l6 45l177 45l-54 379h-481l-201 -375l193 -51l-6 -43h-449z" />
    <glyph glyph-name="Aacute" unicode="&#xc1;" horiz-adv-x="1409" 
d="M1188 1790v-23l-295 -264h-74l187 287h182zM764 1174l-326 -605h412l-84 605h-2zM-80 0l8 45l135 39l725 1280l144 29l190 -1301l131 -49l-6 -43h-512l6 45l177 45l-54 379h-481l-201 -375l193 -51l-6 -43h-449z" />
    <glyph glyph-name="Acircumflex" unicode="&#xc2;" horiz-adv-x="1409" 
d="M635 1503h-84l315 287h131l191 -287h-80l-199 176zM764 1174l-326 -605h412l-84 605h-2zM-80 0l8 45l135 39l725 1280l144 29l190 -1301l131 -49l-6 -43h-512l6 45l177 45l-54 379h-481l-201 -375l193 -51l-6 -43h-449z" />
    <glyph glyph-name="Atilde" unicode="&#xc3;" horiz-adv-x="1409" 
d="M606 1536l-33 14l13 31q72 183 197 177q58 -3 132 -29l60 -23q82 -39 133 -28t100 104l31 -17l-14 -34q-61 -147 -137 -179t-195 21l-57 22q-94 41 -140 32t-90 -91zM764 1174l-326 -605h412l-84 605h-2zM-80 0l8 45l135 39l725 1280l144 29l190 -1301l131 -49l-6 -43
h-512l6 45l177 45l-54 379h-481l-201 -375l193 -51l-6 -43h-449z" />
    <glyph glyph-name="Adieresis" unicode="&#xc4;" horiz-adv-x="1409" 
d="M1112 1544q-45 0 -77 32t-31 77q0 45 31 78q32 33 77 33t77 -34q32 -32 32 -77t-32 -77t-77 -32zM676 1544q-45 0 -77 32t-32 77t32 78t77 33t78 -34q32 -32 32 -77t-32 -77t-78 -32zM764 1174l-326 -605h412l-84 605h-2zM-80 0l8 45l135 39l725 1280l144 29l190 -1301
l131 -49l-6 -43h-512l6 45l177 45l-54 379h-481l-201 -375l193 -51l-6 -43h-449z" />
    <glyph glyph-name="Aring" unicode="&#xc5;" horiz-adv-x="1409" 
d="M762 1704q0 -59 38 -97t93 -38t93 38t38 97t-38 97t-93 38t-93 -38t-38 -97zM764 1174l-326 -605h412l-84 605h-2zM688 1703q0 85 60 143t146 58q87 0 145 -56q59 -58 59 -143t-60 -143t-146 -58q-88 0 -146 56q-58 58 -58 143zM-80 0l8 45l135 39l725 1280l144 29
l190 -1301l131 -49l-6 -43h-512l6 45l177 45l-54 379h-481l-201 -375l193 -51l-6 -43h-449z" />
    <glyph glyph-name="AE" unicode="&#xc6;" horiz-adv-x="1890" 
d="M1061 1288h-19l-397 -536h309zM1417 678h-270l-111 -572q41 -33 125 -32h342l223 332h54l-127 -406h-981l10 45l141 45l115 586h-348l-420 -582l201 -51l-9 -43h-444l8 43l115 39l895 1186l-156 49l6 43h957l131 8l-51 -387h-51l-66 309h-438l-107 -540h275l96 178h49
l-86 -432h-55z" />
    <glyph glyph-name="Ccedilla" unicode="&#xc7;" horiz-adv-x="1449" 
d="M125 555q0 152 61 299t173 267t286 195q175 75 371 75t414 -115l-48 -369h-49l-61 307q-119 111 -271 111q-231 0 -426 -201q-94 -96 -152 -252t-58 -342q-1 -240 113 -368t281 -129q167 0 283 88l207 334h49l-110 -394q-256 -96 -455 -96h-20l-56 -86q117 -45 117 -137
q1 -197 -366 -260l-2 33q211 63 210 170q0 74 -84 104l125 180q-240 20 -386 173t-146 413z" />
    <glyph glyph-name="Egrave" unicode="&#xc8;" horiz-adv-x="1183" 
d="M526 1790h179l118 -287h-71l-226 264v23zM711 680h-269l-114 -574q43 -35 127 -34h344l221 334h53l-125 -406h-995l8 45l156 45l233 1176l-137 51l6 43h817l131 8l-49 -387h-51l-66 309h-440l-104 -538h270l100 180h47l-86 -436h-53z" />
    <glyph glyph-name="Eacute" unicode="&#xc9;" horiz-adv-x="1183" 
d="M1098 1790v-23l-295 -264h-74l186 287h183zM711 680h-269l-114 -574q43 -35 127 -34h344l221 334h53l-125 -406h-995l8 45l156 45l233 1176l-137 51l6 43h817l131 8l-49 -387h-51l-66 309h-440l-104 -538h270l100 180h47l-86 -436h-53z" />
    <glyph glyph-name="Ecircumflex" unicode="&#xca;" horiz-adv-x="1183" 
d="M524 1503h-84l316 287h131l190 -287h-80l-198 176zM711 680h-269l-114 -574q43 -35 127 -34h344l221 334h53l-125 -406h-995l8 45l156 45l233 1176l-137 51l6 43h817l131 8l-49 -387h-51l-66 309h-440l-104 -538h270l100 180h47l-86 -436h-53z" />
    <glyph glyph-name="Edieresis" unicode="&#xcb;" horiz-adv-x="1183" 
d="M983 1544q-45 0 -77 32t-32 77t32 78t77 33t77 -34q32 -32 32 -77t-32 -77t-77 -32zM547 1544q-45 0 -77 32t-32 77t32 78t77 33t78 -34q33 -32 33 -77t-34 -77q-32 -32 -77 -32zM711 680h-269l-114 -574q43 -35 127 -34h344l221 334h53l-125 -406h-995l8 45l156 45
l233 1176l-137 51l6 43h817l131 8l-49 -387h-51l-66 309h-440l-104 -538h270l100 180h47l-86 -436h-53z" />
    <glyph glyph-name="Igrave" unicode="&#xcc;" horiz-adv-x="638" 
d="M252 1790h178l119 -287h-72l-225 264v23zM-47 0l8 45l156 45l233 1176l-137 51l6 43h502l-8 -45l-156 -45l-233 -1180l139 -47l-6 -43h-504z" />
    <glyph glyph-name="Iacute" unicode="&#xcd;" horiz-adv-x="638" 
d="M823 1790v-23l-295 -264h-73l186 287h182zM-47 0l8 45l156 45l233 1176l-137 51l6 43h502l-8 -45l-156 -45l-233 -1180l139 -47l-6 -43h-504z" />
    <glyph glyph-name="Icircumflex" unicode="&#xce;" horiz-adv-x="638" 
d="M254 1503h-84l315 287h131l191 -287h-80l-199 176zM-47 0l8 45l156 45l233 1176l-137 51l6 43h502l-8 -45l-156 -45l-233 -1180l139 -47l-6 -43h-504z" />
    <glyph glyph-name="Idieresis" unicode="&#xcf;" horiz-adv-x="638" 
d="M-47 0l8 45l156 45l233 1176l-137 51l6 43h502l-8 -45l-156 -45l-233 -1180l139 -47l-6 -43h-504zM689 1544q-46 0 -77 31t-30 76q0 45 30 77t76 31q45 0 78 -32q33 -33 33 -77t-32 -75t-78 -31zM335 1544q-46 0 -78 31t-32 76t32 77t77 31q45 0 78 -32q32 -33 32 -77
t-32 -75t-77 -31z" />
    <glyph glyph-name="Eth" unicode="&#xd0;" horiz-adv-x="1472" 
d="M1174 774q0 264 -163 397t-446 136l-119 -596h347l-15 -70h-344l-104 -526q80 -53 207 -52q209 3 356 107q281 198 281 604zM1399 784q0 -374 -265 -584t-716 -206l-465 6l8 45l156 45l108 551h-196l14 70h197l110 555l-139 51l8 43l354 2q397 2 611 -150t215 -428z" />
    <glyph glyph-name="Ntilde" unicode="&#xd1;" horiz-adv-x="1419" 
d="M612 1536l-32 14l12 31q72 183 198 177q58 -3 132 -29l59 -23q82 -39 133 -28t100 104l31 -17l-14 -34q-61 -147 -137 -179t-195 21l-57 22q-94 41 -140 32t-90 -91zM1090 -20h-54l-637 1159l-190 -1047l160 -49l-7 -43h-409l8 45l156 45l225 1131q-45 55 -115 79l-37 17
l9 43h319l559 -1014l168 922l-160 49l7 43h409l-10 -45l-154 -45l-196 -994z" />
    <glyph glyph-name="Ograve" unicode="&#xd2;" horiz-adv-x="1568" 
d="M1262 910q0 166 -88 293q-88 128 -248 128q-129 0 -242 -81q-114 -81 -184 -207q-152 -273 -152 -560q0 -201 85 -333t235 -132t265 83q114 83 183 213q146 272 146 596zM916 1393q232 0 401 -169q168 -169 168 -452q0 -142 -55 -286q-123 -321 -411 -455
q-157 -74 -341 -74q-221 0 -387 168t-166 448q0 199 93 384q94 185 280 311t418 125zM678 1790h178l119 -287h-72l-225 264v23z" />
    <glyph glyph-name="Oacute" unicode="&#xd3;" horiz-adv-x="1568" 
d="M1262 910q0 166 -88 293q-88 128 -248 128q-129 0 -242 -81q-114 -81 -184 -207q-152 -273 -152 -560q0 -201 85 -333t235 -132t265 83q114 83 183 213q146 272 146 596zM916 1393q232 0 401 -169q168 -169 168 -452q0 -142 -55 -286q-123 -321 -411 -455
q-157 -74 -341 -74q-221 0 -387 168t-166 448q0 199 93 384q94 185 280 311t418 125zM1247 1790v-23l-295 -264h-73l186 287h182z" />
    <glyph glyph-name="Ocircumflex" unicode="&#xd4;" horiz-adv-x="1568" 
d="M696 1503h-84l316 287h131l190 -287h-80l-198 176zM1262 910q0 166 -88 293q-88 128 -248 128q-129 0 -242 -81q-114 -81 -184 -207q-152 -273 -152 -560q0 -201 85 -333t235 -132t265 83q114 83 183 213q146 272 146 596zM916 1393q232 0 401 -169q168 -169 168 -452
q0 -142 -55 -286q-123 -321 -411 -455q-157 -74 -341 -74q-221 0 -387 168t-166 448q0 199 93 384q94 185 280 311t418 125z" />
    <glyph glyph-name="Otilde" unicode="&#xd5;" horiz-adv-x="1568" 
d="M1262 910q0 166 -88 293q-88 128 -248 128q-129 0 -242 -81q-114 -81 -184 -207q-152 -273 -152 -560q0 -201 85 -333t235 -132t265 83q114 83 183 213q146 272 146 596zM916 1393q232 0 401 -169q168 -169 168 -452q0 -142 -55 -286q-123 -321 -411 -455
q-157 -74 -341 -74q-221 0 -387 168t-166 448q0 199 93 384q94 185 280 311t418 125zM666 1536l-33 14l12 31q72 183 198 177q58 -3 132 -29l59 -23q82 -39 133 -28t101 104l30 -17l-14 -34q-61 -147 -137 -179t-195 21l-57 22q-94 41 -139 32t-90 -91z" />
    <glyph glyph-name="Odieresis" unicode="&#xd6;" horiz-adv-x="1568" 
d="M1262 910q0 166 -88 293q-88 128 -248 128q-129 0 -242 -81q-114 -81 -184 -207q-152 -273 -152 -560q0 -201 85 -333t235 -132t265 83q114 83 183 213q146 272 146 596zM916 1393q232 0 401 -169q168 -169 168 -452q0 -142 -55 -286q-123 -321 -411 -455
q-157 -74 -341 -74q-221 0 -387 168t-166 448q0 199 93 384q94 185 280 311t418 125zM1171 1544q-45 0 -77 32t-31 77q0 45 32 78q33 33 77 33t76 -34q32 -32 32 -77t-32 -77t-77 -32zM735 1544q-45 0 -77 32t-31 77q0 45 31 78q32 33 77 33t78 -34q33 -32 33 -77t-33 -77
t-78 -32z" />
    <glyph glyph-name="multiply" unicode="&#xd7;" horiz-adv-x="1144" 
d="M911 41l-389 391l-385 -393l-59 59l387 391l-383 388l61 59l383 -385l387 397l58 -59l-387 -395l389 -394z" />
    <glyph glyph-name="Oslash" unicode="&#xd8;" horiz-adv-x="1568" 
d="M348 481q0 -141 41 -245l768 989q-90 106 -225 106t-248 -81t-183 -207q-153 -272 -153 -562zM686 18q176 0 313 142t201 338q64 194 64 372t-66 297l-778 -999q90 -150 266 -150zM125 573q0 199 93 384q94 185 280 311t424 125q158 0 297 -88l106 137h86l-137 -178
q211 -176 211 -492q0 -142 -55 -286q-123 -321 -411 -455q-157 -74 -340 -74t-331 117l-115 -148h-86l150 193q-172 178 -172 454z" />
    <glyph glyph-name="Ugrave" unicode="&#xd9;" horiz-adv-x="1466" 
d="M655 -49q-258 -1 -383 155t-57 488l137 672l-139 51l6 43h522l-10 -45l-172 -49l-145 -725q-43 -219 40 -342t263 -123q365 0 450 495l123 689l-160 53l7 47h417l-6 -47l-155 -49l-146 -740q-115 -573 -592 -573zM692 1790h178l119 -287h-71l-226 264v23z" />
    <glyph glyph-name="Uacute" unicode="&#xda;" horiz-adv-x="1466" 
d="M655 -49q-258 -1 -383 155t-57 488l137 672l-139 51l6 43h522l-10 -45l-172 -49l-145 -725q-43 -219 40 -342t263 -123q365 0 450 495l123 689l-160 53l7 47h417l-6 -47l-155 -49l-146 -740q-115 -573 -592 -573zM1266 1790v-23l-295 -264h-74l186 287h183z" />
    <glyph glyph-name="Ucircumflex" unicode="&#xdb;" horiz-adv-x="1466" 
d="M715 1503h-84l315 287h131l191 -287h-80l-199 176zM655 -49q-258 -1 -383 155t-57 488l137 672l-139 51l6 43h522l-10 -45l-172 -49l-145 -725q-43 -219 40 -342t263 -123q365 0 450 495l123 689l-160 53l7 47h417l-6 -47l-155 -49l-146 -740q-115 -573 -592 -573z" />
    <glyph glyph-name="Udieresis" unicode="&#xdc;" horiz-adv-x="1466" 
d="M1192 1544q-45 0 -77 32t-32 77t32 78t77 33t77 -34q31 -32 31 -77t-32 -77t-76 -32zM756 1544q-45 0 -77 32t-32 77t32 78t77 33t78 -34q32 -32 32 -77t-32 -77t-78 -32zM655 -49q-258 -1 -383 155t-57 488l137 672l-139 51l6 43h522l-10 -45l-172 -49l-145 -725
q-43 -219 40 -342t263 -123q365 0 450 495l123 689l-160 53l7 47h417l-6 -47l-155 -49l-146 -740q-115 -573 -592 -573z" />
    <glyph glyph-name="Yacute" unicode="&#xdd;" horiz-adv-x="1312" 
d="M1206 1790v-23l-295 -264h-73l186 287h182zM1292 1274l-522 -731l-90 -455l129 -47l-8 -41h-479l10 43l141 45l86 432l-250 746l-116 51l8 43h506l-11 -45l-168 -49l209 -658l449 652l-180 57l8 43h399l-8 -45z" />
    <glyph glyph-name="Thorn" unicode="&#xde;" horiz-adv-x="1196" 
d="M1126 727q0 -102 -62 -182q-109 -141 -384 -185q-119 -18 -240 -12l9 49q229 10 347 93t118 206t-107 204q-106 81 -305 83l-176 -893l153 -47l-8 -43h-518l8 45l156 45l233 1176l-137 51l6 43h518l-8 -45l-172 -49l-45 -230l68 2q260 2 403 -85t143 -226z" />
    <glyph glyph-name="germandbls" unicode="&#xdf;" horiz-adv-x="991" 
d="M1024 1308q0 -82 -38 -139t-92 -96t-110 -74q-132 -83 -131 -163q0 -51 64 -158l102 -170q4 -8 18 -29t23 -40q10 -19 14 -26t10 -21t9 -22q2 -9 6 -26t4 -43q1 -121 -111 -223t-245 -103q-82 0 -131 34t-49 93q0 31 10 59t16 32q68 -45 102 -67q87 -56 149 -56t88 28
t26 78q0 49 -72 168l-94 154q-57 94 -78 141q-20 47 -20 105t38 115q38 56 94 95t110 79q132 97 128 231q-2 70 -43 118t-103 50q-62 0 -110 -28q-203 -117 -270 -599l-105 -735q-20 -147 -66 -261q-46 -113 -98 -175t-130 -112t-148 -50q-71 0 -114 31q-42 33 -45 95
t81 119q76 -160 168 -159q88 0 127 274l125 891q25 176 103 334t175 257t198 157t179 59q120 0 178 -70t58 -152z" />
    <glyph glyph-name="agrave" unicode="&#xe0;" horiz-adv-x="1040" 
d="M514 1550h162l57 -415h-49l-170 397v18zM279 123q85 0 237 213t201 364l45 136q-55 76 -135 76t-174 -107q-94 -106 -159 -268t-73 -312q-1 -102 58 -102zM630 -25q-68 1 -83 57q-14 56 10 111l94 285h-14q-209 -330 -336 -414q-65 -43 -135 -43q-70 1 -114 51t-38 152
q6 154 79 306t174 259q101 106 213 174t200 68t145 -35l54 101h112l-250 -900h7q96 59 194 211l41 -14q-63 -139 -174 -254t-179 -115z" />
    <glyph glyph-name="aacute" unicode="&#xe1;" horiz-adv-x="1040" 
d="M1008 1550v-16l-283 -399h-53l178 415h158zM279 123q85 0 237 213t201 364l45 136q-55 76 -135 76t-174 -107q-94 -106 -159 -268t-73 -312q-1 -102 58 -102zM630 -25q-68 1 -83 57q-14 56 10 111l94 285h-14q-209 -330 -336 -414q-65 -43 -135 -43q-70 1 -114 51
t-38 152q6 154 79 306t174 259q101 106 213 174t200 68t145 -35l54 101h112l-250 -900h7q96 59 194 211l41 -14q-63 -139 -174 -254t-179 -115z" />
    <glyph glyph-name="acircumflex" unicode="&#xe2;" horiz-adv-x="1040" 
d="M526 1135h-63l282 415h86l105 -415h-59l-119 268zM279 123q85 0 237 213t201 364l45 136q-55 76 -135 76t-174 -107q-94 -106 -159 -268t-73 -312q-1 -102 58 -102zM630 -25q-68 1 -83 57q-14 56 10 111l94 285h-14q-209 -330 -336 -414q-65 -43 -135 -43q-70 1 -114 51
t-38 152q6 154 79 306t174 259q101 106 213 174t200 68t145 -35l54 101h112l-250 -900h7q96 59 194 211l41 -14q-63 -139 -174 -254t-179 -115z" />
    <glyph glyph-name="atilde" unicode="&#xe3;" horiz-adv-x="1040" 
d="M438 1194l-30 16l10 27q102 268 334 149l55 -28q53 -29 86 -34t72 21t75 95l33 -15l-16 -39q-66 -154 -150 -184t-184 31l-55 27q-94 46 -138 32t-92 -98zM279 123q85 0 237 213t201 364l45 136q-55 76 -135 76t-174 -107q-94 -106 -159 -268t-73 -312q-1 -102 58 -102z
M630 -25q-68 1 -83 57q-14 56 10 111l94 285h-14q-209 -330 -336 -414q-65 -43 -135 -43q-70 1 -114 51t-38 152q6 154 79 306t174 259q101 106 213 174t200 68t145 -35l54 101h112l-250 -900h7q96 59 194 211l41 -14q-63 -139 -174 -254t-179 -115z" />
    <glyph glyph-name="adieresis" unicode="&#xe4;" horiz-adv-x="1040" 
d="M688 1374q0 -44 -32 -76t-77 -32q-46 0 -77 30t-31 77q0 46 32 79t77 33q44 0 76 -33t32 -78zM935 1266q-46 0 -77 32t-31 76q0 45 31 78t76 33t78 -33q32 -33 32 -78t-31 -77q-32 -31 -78 -31zM279 123q85 0 237 213t201 364l43 136q-55 76 -134 76t-173 -107
q-94 -106 -159 -268t-73 -312q-1 -102 58 -102zM630 -25q-68 1 -83 57q-14 56 10 111l94 285h-14q-209 -330 -336 -414q-65 -43 -135 -43q-70 1 -114 51t-38 152q6 154 79 306t174 259q101 106 213 174t200 68t145 -35l54 101h112l-250 -900h7q96 59 194 211l41 -14
q-63 -139 -174 -254t-179 -115z" />
    <glyph glyph-name="aring" unicode="&#xe5;" horiz-adv-x="1040" 
d="M635 1380q0 -59 38 -98t93 -39t94 39t39 98q0 60 -39 98t-94 38t-93 -38t-38 -98zM765 1180q-87 0 -145 56t-59 142t59 144t147 57q87 0 145 -56q58 -55 58 -141t-58 -144q-60 -58 -147 -58zM279 123q85 0 237 213t201 364l45 136q-55 76 -135 76t-174 -107
q-94 -106 -159 -268t-73 -312q-1 -102 58 -102zM630 -25q-68 1 -83 57q-14 56 10 111l94 285h-14q-209 -330 -336 -414q-65 -43 -135 -43q-70 1 -114 51t-38 152q6 154 79 306t174 259q101 106 213 174t200 68t145 -35l54 101h112l-250 -900h7q96 59 194 211l41 -14
q-63 -139 -174 -254t-179 -115z" />
    <glyph glyph-name="ae" unicode="&#xe6;" horiz-adv-x="1263" 
d="M1038 915q-82 1 -179 -115t-142 -278q379 127 385 322q4 71 -64 71zM295 86q90 0 205 137q-7 97 18 189l8 32l-149 -49q-176 -57 -182 -180q-3 -55 23 -92t77 -37zM733 -25q-176 0 -223 183h-4q-61 -68 -97 -100q-93 -83 -210 -83q-77 -1 -139 49t-60 156q4 164 264 238
l277 80l39 149q0 262 -156 262q-66 0 -115 -45l-26 -200q-2 0 -21 -8t-55 -7q-35 1 -60 17t-22 59q2 82 130 173t265 101q215 0 211 -223h4q78 98 187 160t196 63q88 0 130 -40t40 -105q-4 -227 -583 -387q-5 -31 -11 -123t34 -159t110 -66q139 0 278 192l37 -18
q-53 -113 -171 -215t-249 -103z" />
    <glyph glyph-name="ccedilla" unicode="&#xe7;" horiz-adv-x="811" 
d="M211 -315q0 74 -84 104l131 186q-106 2 -167 78q-60 76 -58 187q4 180 88 348t246 290t303 121q68 1 118 -35t50 -81t-28 -85t-42 -48q-143 143 -244 143q-68 0 -134 -93q-66 -94 -104 -232q-40 -138 -42 -271q-2 -178 118 -178q139 0 316 248l35 -23
q-176 -330 -396 -364l-65 -101q117 -45 117 -137q0 -197 -367 -260l-2 33q211 63 211 170z" />
    <glyph glyph-name="egrave" unicode="&#xe8;" horiz-adv-x="802" 
d="M449 1550h161l58 -415h-50l-169 397v18zM573 918q-80 0 -175 -113t-138 -268q133 23 249 113t122 200q3 68 -58 68zM282 -25q-133 0 -193 85t-56 216q8 172 96 324t219 258q168 141 324 141q72 0 114 -40t41 -107q-6 -131 -180 -232t-399 -137q-10 -45 -15 -106
q-12 -258 154 -258q65 0 139 56t127 136l39 -18q-63 -119 -170 -219t-240 -99z" />
    <glyph glyph-name="eacute" unicode="&#xe9;" horiz-adv-x="802" 
d="M940 1550v-16l-283 -399h-53l178 415h158zM573 918q-80 0 -175 -113t-138 -268q133 23 249 113t122 200q3 68 -58 68zM282 -25q-133 0 -193 85t-56 216q8 172 96 324t219 258q168 141 324 141q72 0 114 -40t41 -107q-6 -131 -180 -232t-399 -137q-10 -45 -15 -106
q-12 -258 154 -258q65 0 139 56t127 136l39 -18q-63 -119 -170 -219t-240 -99z" />
    <glyph glyph-name="ecircumflex" unicode="&#xea;" horiz-adv-x="802" 
d="M459 1135h-64l283 415h86l104 -415h-59l-119 268zM573 918q-80 0 -175 -113t-138 -268q133 23 249 113t122 200q3 68 -58 68zM282 -25q-133 0 -193 85t-56 216q8 172 96 324t219 258q168 141 324 141q72 0 114 -40t41 -107q-6 -131 -180 -232t-399 -137q-10 -45 -15 -106
q-12 -258 154 -258q65 0 139 56t127 136l39 -18q-63 -119 -170 -219t-240 -99z" />
    <glyph glyph-name="edieresis" unicode="&#xeb;" horiz-adv-x="802" 
d="M479 1266q-45 0 -77 30t-32 77q0 46 32 79t77 33t77 -33t32 -78q0 -44 -32 -76t-77 -32zM944 1374q0 -44 -32 -76t-77 -32q-46 0 -77 32t-31 76q0 45 31 78t76 33q46 0 78 -33t32 -78zM573 918q-80 0 -175 -113t-138 -268q133 23 249 113t122 200q3 68 -58 68zM282 -25
q-133 0 -193 85t-56 216q8 172 96 324t219 258q168 141 324 141q72 0 114 -40t41 -107q-6 -131 -180 -232t-399 -137q-10 -45 -15 -106q-12 -258 154 -258q65 0 139 56t127 136l39 -18q-63 -119 -170 -219t-240 -99z" />
    <glyph glyph-name="igrave" unicode="&#xec;" horiz-adv-x="526" 
d="M195 1550h161l58 -415h-49l-170 397v18zM127 -23q-115 0 -70 166l201 699q-55 43 -176 10l2 27q123 119 242 118q63 0 95 -51t5 -153l-180 -643h6q100 66 190 208l41 -14q-61 -131 -172 -249t-184 -118z" />
    <glyph glyph-name="iacute" unicode="&#xed;" horiz-adv-x="526" 
d="M127 -23q-115 0 -70 166l201 699q-55 43 -176 10l2 27q123 119 242 118q63 0 95 -51t5 -153l-180 -643h6q100 66 190 208l41 -14q-61 -131 -172 -249t-184 -118zM688 1550v-16l-282 -399h-54l178 415h158z" />
    <glyph glyph-name="icircumflex" unicode="&#xee;" horiz-adv-x="526" 
d="M207 1135h-64l283 415h86l104 -415h-59l-119 268zM127 -23q-115 0 -70 166l201 699q-55 43 -176 10l2 27q123 119 242 118q63 0 95 -51t5 -153l-180 -643h6q100 66 190 208l41 -14q-61 -131 -172 -249t-184 -118z" />
    <glyph glyph-name="idieresis" unicode="&#xef;" horiz-adv-x="526" 
d="M127 -23q-115 0 -70 166l201 699q-55 43 -176 10l2 27q123 119 242 118q63 0 95 -51t5 -153l-180 -643h6q100 66 190 208l41 -14q-61 -131 -172 -249t-184 -118zM707 1375q0 -47 -32 -77t-78 -30t-78 30t-32 76q0 45 32 78t78 33t78 -32t32 -78zM281 1268q-45 0 -77 30
t-32 77q0 46 32 78t77 32t77 -33t31 -78q1 -46 -31 -76t-77 -30z" />
    <glyph glyph-name="eth" unicode="&#xf0;" horiz-adv-x="995" 
d="M365 25q83 -1 167 107t138 260t65 294q16 262 -114 262q-86 0 -168 -114t-130 -267q-48 -152 -57 -284q-14 -258 99 -258zM631 997q53 0 102 -28q-29 154 -143 309l-297 -154l-27 56l285 147q-78 88 -191 186l27 39q143 -72 262 -174l252 131l27 -55l-232 -119
q258 -254 248 -612q-10 -307 -171 -527t-408 -221q-154 0 -230 113q-77 113 -67 270q10 156 80 298t198 242q129 100 285 99z" />
    <glyph glyph-name="ntilde" unicode="&#xf1;" horiz-adv-x="1048" 
d="M399 1194l-30 16l10 27q102 268 334 149l55 -28q53 -29 86 -34t72 21t75 95l33 -15l-16 -39q-66 -154 -150 -184t-184 31l-55 27q-95 46 -139 32t-91 -98zM831 997q168 0 107 -221l-174 -626h6q86 53 197 208l37 -14q-70 -141 -178 -254t-179 -113q-119 0 -72 166
l181 623q29 84 -35 84q-95 0 -241 -205t-216 -444l-55 -185l-166 -45l-27 27l244 848q-51 39 -172 6l2 27q123 119 234 118q78 0 104 -59t-6 -164l-62 -201h13q256 424 458 424z" />
    <glyph glyph-name="ograve" unicode="&#xf2;" horiz-adv-x="960" 
d="M449 1550h161l58 -415h-50l-169 397v18zM615 997q161 -1 233 -111t64 -262t-76 -296t-201 -248t-291 -104t-232 110q-74 111 -65 267q8 157 75 299t200 244t293 101zM598 948q-84 0 -167 -114t-132 -266q-49 -153 -57 -285q-14 -258 102 -258q123 0 239 220t130 443
q14 260 -115 260z" />
    <glyph glyph-name="oacute" unicode="&#xf3;" horiz-adv-x="960" 
d="M615 997q161 -1 233 -111t64 -262t-76 -296t-201 -248t-291 -104t-232 110q-74 111 -65 267q8 157 75 299t200 244t293 101zM598 948q-84 0 -167 -114t-132 -266q-49 -153 -57 -285q-14 -258 102 -258q123 0 239 220t130 443q14 260 -115 260zM940 1550v-16l-283 -399
h-53l178 415h158z" />
    <glyph glyph-name="ocircumflex" unicode="&#xf4;" horiz-adv-x="960" 
d="M461 1135h-64l283 415h86l104 -415h-59l-119 268zM598 948q-84 0 -167 -114t-132 -266q-49 -153 -57 -285q-14 -258 102 -258q123 0 239 220t130 443q14 260 -115 260zM615 997q161 -1 233 -111t64 -262t-76 -296t-201 -248t-291 -104t-232 110q-74 111 -65 267
q8 157 75 299t200 244t293 101z" />
    <glyph glyph-name="otilde" unicode="&#xf5;" horiz-adv-x="960" 
d="M373 1194l-31 16l10 27q102 268 334 149l55 -28q53 -29 86 -34q79 -12 148 116l33 -15l-17 -39q-65 -154 -149 -184t-185 31l-55 27q-94 46 -138 32t-91 -98zM615 997q161 -1 233 -111t64 -262t-76 -296t-201 -248t-291 -104t-232 110q-74 111 -65 267q8 157 75 299
t200 244t293 101zM598 948q-84 0 -167 -114t-132 -266q-49 -153 -57 -285q-14 -258 102 -258q123 0 239 220t130 443q14 260 -115 260z" />
    <glyph glyph-name="odieresis" unicode="&#xf6;" horiz-adv-x="960" 
d="M615 997q161 -1 233 -111t64 -262t-76 -296t-201 -248t-291 -104t-232 110q-74 111 -65 267q8 157 75 299t200 244t293 101zM598 948q-84 0 -167 -114t-132 -266q-49 -153 -57 -285q-14 -258 102 -258q123 0 239 220t130 443q14 260 -115 260zM977 1374q0 -44 -32 -76
t-78 -32q-47 0 -77 32t-30 76q0 45 31 78t75 33t78 -33q33 -33 33 -78zM512 1266q-45 0 -77 30t-32 77q0 46 32 79t77 33t77 -33t32 -78q0 -44 -32 -76t-77 -32z" />
    <glyph glyph-name="divide" unicode="&#xf7;" horiz-adv-x="1144" 
d="M550 35q-50 0 -87 38t-37 87t38 86t87 37t87 -37t38 -87t-38 -87t-88 -37zM553 690q-49 0 -87 38t-38 87t38 86t87 37t87 -37t38 -86t-38 -87t-87 -38zM1036 449h-970v79h970v-79z" />
    <glyph glyph-name="oslash" unicode="&#xf8;" horiz-adv-x="960" 
d="M599 948q-83 0 -167 -116t-138 -284q-54 -169 -54 -319l469 627q-27 92 -110 92zM657 394q79 219 64 384l-477 -635q20 -119 102 -118q84 -1 170 107t141 262zM625 997q84 0 155 -47l99 131h71l-127 -170q100 -106 95 -286q-10 -154 -79 -298q-69 -143 -201 -247
t-296 -105q-102 0 -176 64l-107 -141h-69l137 182q-88 111 -78 273q21 346 280 544q132 100 296 100z" />
    <glyph glyph-name="ugrave" unicode="&#xf9;" horiz-adv-x="1034" 
d="M444 1550h162l58 -415h-50l-170 397v18zM635 -23q-119 0 -70 166l94 332h-6q-8 -12 -52 -85q-132 -220 -198 -281q-31 -29 -73 -67q-75 -67 -174 -69q-68 1 -94 53t4 185l174 635q-51 39 -170 6l2 27q123 119 237 118q147 0 92 -217l-153 -587q-16 -59 28 -60
q98 0 256 229t205 416l47 185l166 22l17 -18l-211 -817h6q82 53 192 208l37 -14q-69 -139 -177 -253t-179 -114z" />
    <glyph glyph-name="uacute" unicode="&#xfa;" horiz-adv-x="1034" 
d="M635 -23q-119 0 -70 166l94 332h-6q-8 -12 -52 -85q-132 -220 -198 -281q-31 -29 -73 -67q-75 -67 -174 -69q-68 1 -94 53t4 185l174 635q-51 39 -170 6l2 27q123 119 237 118q147 0 92 -217l-153 -587q-16 -59 28 -60q98 0 256 229t205 416l47 185l166 22l17 -18
l-211 -817h6q82 53 192 208l37 -14q-69 -139 -177 -253t-179 -114zM920 1550v-16l-283 -399h-53l178 415h158z" />
    <glyph glyph-name="ucircumflex" unicode="&#xfb;" horiz-adv-x="1034" 
d="M457 1135h-64l283 415h86l104 -415h-59l-119 268zM635 -23q-119 0 -70 166l94 332h-6q-8 -12 -52 -85q-132 -220 -198 -281q-31 -29 -73 -67q-75 -67 -174 -69q-68 1 -94 53t4 185l174 635q-51 39 -170 6l2 27q123 119 237 118q147 0 92 -217l-153 -587q-16 -59 28 -60
q98 0 256 229t205 416l47 185l166 22l17 -18l-211 -817h6q82 53 192 208l37 -14q-69 -139 -177 -253t-179 -114z" />
    <glyph glyph-name="udieresis" unicode="&#xfc;" horiz-adv-x="1034" 
d="M635 -23q-119 0 -70 166l94 332h-6q-8 -12 -52 -85q-132 -220 -198 -281q-31 -29 -73 -67q-75 -67 -174 -69q-68 1 -94 53t4 185l174 635q-51 39 -170 6l2 27q123 119 237 118q147 0 92 -217l-153 -587q-16 -59 28 -60q98 0 256 229t205 416l47 185l166 22l17 -18
l-211 -817h6q82 53 192 208l37 -14q-69 -139 -177 -253t-179 -114zM847 1266q-46 0 -77 32t-31 76q0 45 31 78t76 33t78 -33q32 -33 32 -78t-31 -77q-32 -31 -78 -31zM492 1266q-45 0 -77 30t-32 77q0 46 32 79t77 33q44 0 76 -33t32 -78q0 -44 -32 -76t-76 -32z" />
    <glyph glyph-name="yacute" unicode="&#xfd;" horiz-adv-x="944" 
d="M874 1550v-16l-282 -399h-53l178 415h157zM-156 -524q-70 0 -109 32q-38 32 -39 88t32 91t84 35q50 0 80 -36q30 -34 55 -108h8q100 43 176 144q76 100 117 230q78 246 79 472t-32 320t-84 94q-84 0 -137 -242h-37q10 176 77 288t169 112t160 -118q58 -116 63 -346
q6 -319 -86 -567h14q264 332 322 537q29 102 26 205q-4 150 -96 256q55 37 117 36q104 -1 107 -157t-80 -355t-214 -371t-279 -320q-147 -148 -285 -234t-208 -86z" />
    <glyph glyph-name="thorn" unicode="&#xfe;" horiz-adv-x="991" 
d="M360 25q96 1 188 111q91 110 149 264q57 154 63 260q10 182 -74 182q-109 0 -247 -205t-185 -375l-35 -131q45 -106 141 -106zM330 -31q-74 0 -146 37l-108 -420l274 -2l-14 -71h-580l8 41l144 49l440 1743l-131 90l6 16l355 78l-248 -946h8q98 170 227 293t240 122
q80 -1 126 -75t40 -209t-90 -308t-235 -305t-316 -133z" />
    <glyph glyph-name="ydieresis" unicode="&#xff;" horiz-adv-x="944" 
d="M798 1266q-46 0 -77 32t-31 76q0 45 31 78t76 33t77 -33t33 -78q0 -45 -31 -77q-32 -31 -78 -31zM442 1266q-44 0 -76 30t-32 77q0 46 32 79t76 33t77 -33q32 -33 32 -78q0 -44 -32 -76t-77 -32zM-156 -524q-70 0 -109 32q-38 32 -39 88t32 91t84 35q50 0 80 -36
q30 -34 55 -108h8q100 43 176 144q76 100 117 230q78 246 79 472t-32 320t-84 94q-84 0 -137 -242h-37q10 176 77 288t169 112t160 -118q58 -116 63 -346q6 -319 -86 -567h14q264 332 322 537q29 102 26 205q-4 150 -96 256q55 37 117 36q104 -1 107 -157t-80 -355
t-214 -371t-279 -320q-147 -148 -285 -234t-208 -86z" />
    <glyph glyph-name="Amacron" unicode="&#x100;" horiz-adv-x="1409" 
d="M596 1579l25 121h581l-24 -121h-582zM764 1174l-326 -605h412l-84 605h-2zM-80 0l8 45l135 39l725 1280l144 29l190 -1301l131 -49l-6 -43h-512l6 45l177 45l-54 379h-481l-201 -375l193 -51l-6 -43h-449z" />
    <glyph glyph-name="amacron" unicode="&#x101;" horiz-adv-x="1040" 
d="M457 1282l24 121h555l-24 -121h-555zM279 123q85 0 237 213t201 364l43 136q-55 76 -134 76t-173 -107q-94 -106 -159 -268t-73 -312q-1 -102 58 -102zM630 -25q-68 1 -83 57q-14 56 10 111l94 285h-14q-209 -330 -336 -414q-65 -43 -135 -43q-70 1 -114 51t-38 152
q6 154 79 306t174 259q101 106 213 174t200 68t145 -35l54 101h112l-250 -900h7q96 59 194 211l41 -14q-63 -139 -174 -254t-179 -115z" />
    <glyph glyph-name="Abreve" unicode="&#x102;" horiz-adv-x="1409" 
d="M873 1495q-116 0 -174 73t-60 204h43q33 -80 80 -117t129 -37q143 0 235 154h41q-25 -123 -101 -200t-193 -77zM764 1174l-326 -605h412l-84 605h-2zM-80 0l8 45l135 39l725 1280l144 29l190 -1301l131 -49l-6 -43h-512l6 45l177 45l-54 379h-481l-201 -375l193 -51
l-6 -43h-449z" />
    <glyph glyph-name="abreve" unicode="&#x103;" horiz-adv-x="1040" 
d="M719 1161q-113 0 -164 87t-37 253h39q20 -207 174 -207q143 0 223 207h39q-23 -158 -92 -249t-182 -91zM279 123q85 0 237 213t201 364l43 136q-55 76 -134 76t-173 -107q-94 -106 -159 -268t-73 -312q-1 -102 58 -102zM630 -25q-68 1 -83 57q-14 56 10 111l94 285h-14
q-209 -330 -336 -414q-65 -43 -135 -43q-70 1 -114 51t-38 152q6 154 79 306t174 259q101 106 213 174t200 68t145 -35l54 101h112l-250 -900h7q96 59 194 211l41 -14q-63 -139 -174 -254t-179 -115z" />
    <glyph glyph-name="Aogonek" unicode="&#x104;" horiz-adv-x="1409" 
d="M764 1174l-326 -605h412l-84 605h-2zM778 -377q41 -1 76 19t94 77l27 -24q-135 -205 -275 -205q-80 0 -122 43t-41 102q0 88 77 163q78 75 312 237l-62 434h-481l-201 -375l193 -51l-6 -43h-449l8 45l135 39l725 1280l144 29l190 -1301l131 -49l-6 -43h-284
q-274 -170 -275 -285q0 -92 90 -92z" />
    <glyph glyph-name="aogonek" unicode="&#x105;" horiz-adv-x="1040" 
d="M279 123q83 0 237 213t201 364l43 136q-55 76 -134 76t-173 -107q-94 -106 -159 -268t-73 -312q-1 -102 58 -102zM627 -23q-66 -1 -80 55t10 111l94 285h-14q-209 -330 -336 -414q-65 -43 -135 -43q-70 1 -114 51t-38 152q6 154 79 306t174 259q101 106 213 174t200 68
t145 -35l54 101h112l-250 -900h7q96 59 194 211l41 -14q-66 -141 -178 -260q-242 -254 -275 -299q-32 -45 -32 -82t22 -59t64 -21q72 0 170 96l26 -24q-135 -205 -274 -205q-80 0 -122 43t-42 115t65 138q65 67 236 187l-2 4h-14z" />
    <glyph glyph-name="Cacute" unicode="&#x106;" horiz-adv-x="1449" 
d="M1323 1790v-23l-295 -264h-74l187 287h182zM733 -35q-270 0 -439 155t-169 435q0 152 61 299t173 267t286 195q175 75 371 75t414 -115l-48 -369h-49l-61 307q-119 111 -271 111q-231 0 -426 -201q-94 -96 -152 -252t-58 -342q-1 -240 113 -368t281 -129q167 0 283 88
l207 334h49l-110 -394q-256 -96 -455 -96z" />
    <glyph glyph-name="cacute" unicode="&#x107;" horiz-adv-x="811" 
d="M524 893q-68 0 -134 -93q-66 -94 -104 -232q-40 -138 -42 -271q-2 -178 118 -178q139 0 316 248l35 -23q-193 -369 -447 -369q-111 0 -173 76t-60 189q4 182 87 349t247 288q156 123 303 122q68 1 118 -35t50 -81t-28 -85t-42 -48q-144 143 -244 143zM936 1550v-16
l-283 -399h-53l178 415h158z" />
    <glyph glyph-name="Ccircumflex" unicode="&#x108;" horiz-adv-x="1449" 
d="M754 1503h-84l315 287h131l191 -287h-80l-199 176zM733 -35q-270 0 -439 155t-169 435q0 152 61 299t173 267t286 195q175 75 371 75t414 -115l-48 -369h-49l-61 307q-119 111 -271 111q-231 0 -426 -201q-94 -96 -152 -252t-58 -342q-1 -240 113 -368t281 -129
q167 0 283 88l207 334h49l-110 -394q-256 -96 -455 -96z" />
    <glyph glyph-name="ccircumflex" unicode="&#x109;" horiz-adv-x="811" 
d="M455 1135h-64l283 415h86l104 -415h-59l-119 268zM524 893q-68 0 -134 -93q-66 -94 -104 -232q-40 -138 -42 -271q-2 -178 118 -178q139 0 316 248l35 -23q-193 -369 -447 -369q-111 0 -173 76t-60 189q4 182 87 349t247 288q156 123 303 122q68 1 118 -35t50 -81
t-28 -85t-42 -48q-144 143 -244 143z" />
    <glyph glyph-name="Cdotaccent" unicode="&#x10a;" horiz-adv-x="1449" 
d="M926 1655q0 47 35 81t81 34t81 -36q34 -34 34 -80t-34 -80t-81 -34q-48 0 -82 34t-34 81zM733 -35q-270 0 -439 155t-169 435q0 152 61 299t173 267t286 195q175 75 371 75t414 -115l-48 -369h-49l-61 307q-119 111 -271 111q-231 0 -426 -201q-94 -96 -152 -252
t-58 -342q-1 -240 113 -368t281 -129q167 0 283 88l207 334h49l-110 -394q-256 -96 -455 -96z" />
    <glyph glyph-name="cdotaccent" unicode="&#x10b;" horiz-adv-x="811" 
d="M569 1374q0 47 34 81t81 34t81 -34t34 -81t-34 -81q-34 -33 -81 -33t-81 34t-34 80zM524 893q-68 0 -134 -93q-66 -94 -104 -232q-40 -138 -42 -271q-2 -178 118 -178q139 0 316 248l35 -23q-193 -369 -447 -369q-111 0 -173 76t-60 189q4 182 87 349t247 288
q156 123 303 122q68 1 118 -35t50 -81t-28 -85t-42 -48q-144 143 -244 143z" />
    <glyph glyph-name="Ccaron" unicode="&#x10c;" horiz-adv-x="1449" 
d="M1300 1790h84l-317 -287h-129l-190 287h79l197 -180zM733 -35q-270 0 -439 155t-169 435q0 152 61 299t173 267t286 195q175 75 371 75t414 -115l-48 -369h-49l-61 307q-119 111 -271 111q-231 0 -426 -201q-94 -96 -152 -252t-58 -342q-1 -240 113 -368t281 -129
q167 0 283 88l207 334h49l-110 -394q-256 -96 -455 -96z" />
    <glyph glyph-name="ccaron" unicode="&#x10d;" horiz-adv-x="811" 
d="M891 1550h61l-282 -415h-86l-105 415h58l118 -274zM524 893q-68 0 -134 -93q-66 -94 -104 -232q-40 -138 -42 -271q-2 -178 118 -178q139 0 316 248l35 -23q-193 -369 -447 -369q-111 0 -173 76t-60 189q4 182 87 349t247 288q156 123 303 122q68 1 118 -35t50 -81
t-28 -85t-42 -48q-144 143 -244 143z" />
    <glyph glyph-name="Dcaron" unicode="&#x10e;" horiz-adv-x="1472" 
d="M1098 1790h84l-318 -287h-129l-190 287h80l196 -180zM1174 774q0 264 -163 398t-446 135l-235 -1192q80 -53 207 -52q209 3 356 107q281 198 281 604zM1399 784q0 -374 -265 -584t-716 -206l-465 6l8 45l156 45l233 1176l-137 51l6 43l354 2q397 2 611 -150t215 -428z
" />
    <glyph glyph-name="dcaron" unicode="&#x10f;" horiz-adv-x="1050" 
d="M1171 1081h-41l113 406h176l-2 -12zM625 936q-141 0 -265 -217t-133 -465q-3 -72 17 -106t53 -33q83 1 239 209t205 401l29 113q-57 98 -145 98zM645 997q88 0 158 -32l98 381l-137 90l8 16l358 76l-358 -1378h6q84 51 197 208l37 -14q-66 -141 -174 -254t-172 -113
q-127 0 -78 166l80 271h-11q-51 -90 -112 -178t-163 -176t-186 -89q-82 1 -133 61t-45 187q8 183 96 363t233 298q144 118 298 117z" />
    <glyph glyph-name="Dcroat" unicode="&#x110;" horiz-adv-x="1472" 
d="M1174 774q0 264 -163 397t-446 136l-119 -596h347l-15 -70h-344l-104 -526q80 -53 207 -52q209 3 356 107q281 198 281 604zM1399 784q0 -374 -265 -584t-716 -206l-465 6l8 45l156 45l108 551h-196l14 70h197l110 555l-139 51l8 43l354 2q397 2 611 -150t215 -428z" />
    <glyph glyph-name="dcroat" unicode="&#x111;" horiz-adv-x="1050" 
d="M625 936q-141 0 -265 -217t-133 -465q-3 -72 17 -106t53 -33q83 1 239 209t205 401l29 113q-57 98 -145 98zM666 -23q-127 0 -78 166l80 271h-11q-51 -90 -112 -178t-163 -176t-186 -89q-82 1 -133 61t-45 187q8 183 96 363t233 298q144 118 298 117q88 0 158 -32l47 178
h-363l19 69h362l37 144l-141 80l8 16l358 76l-81 -316h143l-18 -69h-144l-258 -993h6q84 51 197 208l37 -14q-66 -141 -174 -254t-172 -113z" />
    <glyph glyph-name="Emacron" unicode="&#x112;" horiz-adv-x="1183" 
d="M483 1579l25 121h582l-25 -121h-582zM711 680h-269l-114 -574q43 -35 127 -34h344l221 334h53l-125 -406h-995l8 45l156 45l233 1176l-137 51l6 43h817l131 8l-49 -387h-51l-66 309h-440l-104 -538h270l100 180h47l-86 -436h-53z" />
    <glyph glyph-name="emacron" unicode="&#x113;" horiz-adv-x="802" 
d="M387 1282l25 121h555l-25 -121h-555zM573 918q-80 0 -175 -113t-138 -268q133 23 249 113t122 200q3 68 -58 68zM282 -25q-133 0 -193 85t-56 216q8 172 96 324t219 258q168 141 324 141q72 0 114 -40t41 -107q-6 -131 -180 -232t-399 -137q-10 -45 -15 -106
q-12 -258 154 -258q65 0 139 56t127 136l39 -18q-63 -119 -170 -219t-240 -99z" />
    <glyph glyph-name="Ebreve" unicode="&#x114;" horiz-adv-x="1183" 
d="M765 1495q-116 0 -174 73t-61 204h43q33 -80 80 -117t129 -37q143 0 236 154h41q-25 -123 -101 -200t-193 -77zM711 680h-269l-114 -574q43 -35 127 -34h344l221 334h53l-125 -406h-995l8 45l156 45l233 1176l-137 51l6 43h817l131 8l-49 -387h-51l-66 309h-440
l-104 -538h270l100 180h47l-86 -436h-53z" />
    <glyph glyph-name="ebreve" unicode="&#x115;" horiz-adv-x="802" 
d="M573 918q-80 0 -175 -113t-138 -268q133 23 249 113t122 200q3 68 -58 68zM625 1161q-113 0 -164 87t-37 253h39q20 -207 174 -207q143 0 223 207h39q-23 -158 -92 -249t-182 -91zM282 -25q-133 0 -193 85t-56 216q8 172 96 324t219 258q168 141 324 141q72 0 114 -40
t41 -107q-6 -131 -180 -232t-399 -137q-10 -45 -15 -106q-12 -258 154 -258q65 0 139 56t127 136l39 -18q-63 -119 -170 -219t-240 -99z" />
    <glyph glyph-name="Edotaccent" unicode="&#x116;" horiz-adv-x="1183" 
d="M690 1655q0 47 35 81t81 34t81 -36q35 -34 35 -80t-34 -80t-81 -34t-82 34t-35 81zM711 680h-269l-114 -574q43 -35 127 -34h344l221 334h53l-125 -406h-995l8 45l156 45l233 1176l-137 51l6 43h817l131 8l-49 -387h-51l-66 309h-440l-104 -538h270l100 180h47l-86 -436
h-53z" />
    <glyph glyph-name="edotaccent" unicode="&#x117;" horiz-adv-x="802" 
d="M573 1374q0 47 34 81t81 34t81 -34t34 -81t-34 -81q-34 -33 -81 -33t-81 34t-34 80zM573 918q-80 0 -175 -113t-138 -268q133 23 249 113t122 200q3 68 -58 68zM282 -25q-133 0 -193 85t-56 216q8 172 96 324t219 258q168 141 324 141q72 0 114 -40t41 -107
q-6 -131 -180 -232t-399 -137q-10 -45 -15 -106q-12 -258 154 -258q65 0 139 56t127 136l39 -18q-63 -119 -170 -219t-240 -99z" />
    <glyph glyph-name="Eogonek" unicode="&#x118;" horiz-adv-x="1183" 
d="M555 -288q0 -88 88 -89q39 1 75 21t95 75l27 -24q-139 -205 -277 -205q-80 0 -122 43t-42 117t74 145q74 72 277 205h-797l8 45l156 45l233 1176l-137 51l6 43h817l131 8l-49 -387h-51l-66 309h-440l-104 -538h270l100 180h47l-86 -436h-53l-24 184h-269l-114 -574
q43 -35 127 -34h344l221 334h53l-125 -406h-147q-152 -135 -199 -190q-47 -54 -47 -98z" />
    <glyph glyph-name="eogonek" unicode="&#x119;" horiz-adv-x="802" 
d="M573 918q-80 0 -175 -113t-138 -268q133 23 249 113t122 200q3 68 -58 68zM276 -25q-127 0 -187 85t-56 216q8 172 96 324t219 258q168 141 324 141q72 0 114 -40t41 -107q-6 -131 -180 -232t-399 -137q-10 -45 -15 -106q-12 -258 154 -258q65 0 139 56t127 136l39 -18
q-78 -133 -184 -240q-229 -225 -262 -265t-33 -80q0 -85 86 -85q72 0 170 96l27 -24q-135 -205 -275 -205q-80 0 -122 43t-42 102q-1 90 71 161t267 196l-2 6q-61 -23 -117 -23z" />
    <glyph glyph-name="Ecaron" unicode="&#x11a;" horiz-adv-x="1183" 
d="M1073 1790h84l-317 -287h-129l-191 287h80l197 -180zM711 680h-269l-114 -574q43 -35 127 -34h344l221 334h53l-125 -406h-995l8 45l156 45l233 1176l-137 51l6 43h817l131 8l-49 -387h-51l-66 309h-440l-104 -538h270l100 180h47l-86 -436h-53z" />
    <glyph glyph-name="ecaron" unicode="&#x11b;" horiz-adv-x="802" 
d="M866 1550h62l-283 -415h-86l-104 415h57l119 -274zM573 918q-80 0 -175 -113t-138 -268q133 23 249 113t122 200q3 68 -58 68zM282 -25q-133 0 -193 85t-56 216q8 172 96 324t219 258q168 141 324 141q72 0 114 -40t41 -107q-6 -131 -180 -232t-399 -137
q-10 -45 -15 -106q-12 -258 154 -258q65 0 139 56t127 136l39 -18q-63 -119 -170 -219t-240 -99z" />
    <glyph glyph-name="Gcircumflex" unicode="&#x11c;" horiz-adv-x="1468" 
d="M756 1503h-84l315 287h131l191 -287h-80l-199 176zM756 29q104 0 179 48t93 138l49 250l-196 41l8 49h508l-8 -49l-107 -41l-72 -371q-2 0 -82 -36t-116 -48t-122 -28q-85 -16 -173 -17q-256 0 -424 164t-168 432q0 154 61 301t172 265t282 191q172 73 366 73t415 -117
l-57 -367h-51l-62 326q-102 92 -231 92q-252 0 -446 -207q-93 -98 -151 -255t-58 -343q-1 -233 113 -362t278 -129z" />
    <glyph glyph-name="gcircumflex" unicode="&#x11d;" horiz-adv-x="882" 
d="M412 1135h-64l283 415h86l104 -415h-59l-119 268zM539 938q-93 0 -179 -153t-92 -314q-10 -147 76 -147q98 0 183 158t94 329q5 51 -15 89t-67 38zM471 -168l-180 86q-143 -43 -203 -85q-60 -41 -64 -113t80 -121t220 -49t215 46q80 46 84 103q2 31 -30 59t-122 74z
M549 995q61 0 153 -20l265 12l-29 -125l-197 43v-6q21 -25 37 -81t13 -113q-7 -164 -139 -299t-306 -136h-27q-63 -33 -63 -73t29 -58l315 -157q98 -48 135 -96t35 -103q-6 -123 -161 -214t-359 -91t-311 53q-106 53 -103 147q8 170 397 261v6l-32 14q-109 47 -103 145
q2 41 30 76t52 50t76 49v8q-78 33 -121 109t-39 165q6 168 129 301t324 133z" />
    <glyph glyph-name="Gbreve" unicode="&#x11e;" horiz-adv-x="1468" 
d="M756 29q104 0 179 48t93 138l49 250l-196 41l8 49h508l-8 -49l-107 -41l-72 -371q-2 0 -82 -36t-116 -48t-122 -28q-85 -16 -173 -17q-256 0 -424 164t-168 432q0 154 61 301t172 265t282 191q172 73 366 73t415 -117l-57 -367h-51l-62 326q-102 92 -231 92
q-252 0 -446 -207q-93 -98 -151 -255t-58 -343q-1 -233 113 -362t278 -129zM1007 1495q-116 0 -174 73t-61 204h43q33 -80 80 -117t129 -37q143 0 236 154h40q-25 -123 -101 -200t-192 -77z" />
    <glyph glyph-name="gbreve" unicode="&#x11f;" horiz-adv-x="882" 
d="M604 1161q-113 0 -164 87t-37 253h39q20 -207 174 -207q143 0 224 207h39q-23 -158 -93 -249t-182 -91zM539 938q-93 0 -179 -153t-92 -314q-10 -147 76 -147q98 0 183 158t94 329q5 51 -15 89t-67 38zM471 -168l-180 86q-143 -43 -203 -85q-60 -41 -64 -113t80 -121
t220 -49t215 46q80 46 84 103q2 31 -30 59t-122 74zM549 995q61 0 153 -20l265 12l-29 -125l-197 43v-6q21 -25 37 -81t13 -113q-7 -164 -139 -299t-306 -136h-27q-63 -33 -63 -73t29 -58l315 -157q98 -48 135 -96t35 -103q-6 -123 -161 -214t-359 -91t-311 53
q-106 53 -103 147q8 170 397 261v6l-32 14q-109 47 -103 145q2 41 30 76t52 50t76 49v8q-78 33 -121 109t-39 165q6 168 129 301t324 133z" />
    <glyph glyph-name="Gdotaccent" unicode="&#x120;" horiz-adv-x="1468" 
d="M756 29q104 0 179 48t93 138l49 250l-196 41l8 49h508l-8 -49l-107 -41l-72 -371q-2 0 -82 -36t-116 -48t-122 -28q-85 -16 -173 -17q-256 0 -424 164t-168 432q0 154 61 301t172 265t282 191q172 73 366 73t415 -117l-57 -367h-51l-62 326q-102 92 -231 92
q-252 0 -446 -207q-93 -98 -151 -255t-58 -343q-1 -233 113 -362t278 -129zM924 1655q0 47 34 81q35 34 81 34t81 -36q35 -34 35 -80t-34 -80t-81 -34t-82 34q-34 34 -34 81z" />
    <glyph glyph-name="gdotaccent" unicode="&#x121;" horiz-adv-x="882" 
d="M526 1374q0 47 34 81t81 34t81 -34t34 -81t-34 -81q-34 -33 -81 -33t-81 34t-34 80zM539 938q-93 0 -179 -153t-92 -314q-10 -147 76 -147q98 0 183 158t94 329q5 51 -15 89t-67 38zM471 -168l-180 86q-143 -43 -203 -85q-60 -41 -64 -113t80 -121t220 -49t215 46
q80 46 84 103q2 31 -30 59t-122 74zM549 995q61 0 153 -20l265 12l-29 -125l-197 43v-6q21 -25 37 -81t13 -113q-7 -164 -139 -299t-306 -136h-27q-63 -33 -63 -73t29 -58l315 -157q98 -48 135 -96t35 -103q-6 -123 -161 -214t-359 -91t-311 53q-106 53 -103 147
q8 170 397 261v6l-32 14q-109 47 -103 145q2 41 30 76t52 50t76 49v8q-78 33 -121 109t-39 165q6 168 129 301t324 133z" />
    <glyph glyph-name="Gcommaaccent" unicode="&#x122;" horiz-adv-x="1468" 
d="M756 29q104 0 179 48t93 138l49 250l-196 41l8 49h508l-8 -49l-107 -41l-72 -371q-2 0 -82 -36t-116 -48t-122 -28q-85 -16 -173 -17q-256 0 -424 164t-168 432q0 154 61 301t172 265t282 191q172 73 366 73t415 -117l-57 -367h-51l-62 326q-102 92 -231 92
q-252 0 -446 -207q-93 -98 -151 -255t-58 -343q-1 -233 113 -362t278 -129zM672 -337q0 80 -101 95v6q4 47 40 79q35 32 95 32t99 -40t39 -95q-1 -174 -355 -270l-16 41q109 41 154 77t45 75z" />
    <glyph glyph-name="gcommaaccent" unicode="&#x123;" horiz-adv-x="882" 
d="M686 1456q0 -79 100 -96v-4q-4 -47 -40 -80t-94 -33t-97 41t-39 96q0 177 354 269l15 -41q-109 -39 -154 -75t-45 -77zM539 938q-93 0 -179 -153t-92 -314q-10 -147 76 -147q98 0 183 158t94 329q5 51 -15 89t-67 38zM471 -168l-180 86q-143 -43 -203 -85
q-60 -41 -64 -113t80 -121t220 -49t215 46q80 46 84 103q2 31 -30 59t-122 74zM549 995q61 0 153 -20l265 12l-29 -125l-197 43v-6q21 -25 37 -81t13 -113q-7 -164 -139 -299t-306 -136h-27q-63 -33 -63 -73t29 -58l315 -157q98 -48 135 -96t35 -103q-6 -123 -161 -214
t-359 -91t-311 53q-106 53 -103 147q8 170 397 261v6l-32 14q-109 47 -103 145q2 41 30 76t52 50t76 49v8q-78 33 -121 109t-39 165q6 168 129 301t324 133z" />
    <glyph glyph-name="Hcircumflex" unicode="&#x124;" horiz-adv-x="1478" 
d="M682 1503h-84l315 287h131l191 -287h-80l-199 176zM776 0l6 45l174 45l117 592h-631l-116 -592l153 -47l-8 -43h-518l8 45l156 45l233 1176l-139 51l8 43h518l-8 -45l-172 -49l-102 -518h630l105 522l-154 47l6 43h519l-9 -45l-153 -45l-236 -1180l142 -47l-9 -43h-520z
" />
    <glyph glyph-name="hcircumflex" unicode="&#x125;" horiz-adv-x="1015" 
d="M496 1567h-84l315 286h131l191 -286h-80l-199 176zM799 997q168 0 106 -221l-174 -626h6q86 53 197 208l37 -14q-69 -139 -177 -253t-180 -114q-119 0 -71 166l180 623q29 84 -35 84q-94 0 -244 -207t-213 -442l-51 -185l-166 -45l-26 27l354 1348l-115 90l6 16l336 78
l-254 -975h11q106 184 232 313t241 129z" />
    <glyph glyph-name="Hbar" unicode="&#x126;" horiz-adv-x="1478" 
d="M504 1001l-47 -245h630l50 245h-633zM776 0l6 45l174 45l117 592h-631l-116 -592l153 -47l-8 -43h-518l8 45l156 45l180 911h-195l13 68h196l39 197l-137 51l6 43h518l-8 -45l-172 -49l-39 -197h631l41 201l-154 47l6 43h519l-9 -45l-153 -45l-41 -201h198l-14 -68h-196
l-183 -911l142 -47l-9 -43h-520z" />
    <glyph glyph-name="hbar" unicode="&#x127;" horiz-adv-x="1015" 
d="M799 997q168 0 106 -221l-174 -626h6q86 53 197 208l39 -14q-73 -141 -181 -254t-178 -113q-119 0 -71 166l180 623q25 84 -35 84q-94 0 -244 -207t-213 -442l-51 -185l-166 -45l-26 27l301 1145h-142l19 69h141l37 144l-117 80l6 16l336 78l-82 -318h363l-19 -69h-362
l-154 -588h11q106 184 232 313t241 129z" />
    <glyph glyph-name="Itilde" unicode="&#x128;" horiz-adv-x="638" 
d="M215 1536l-33 14l13 31q72 183 197 177q58 -3 132 -29l60 -23q82 -39 133 -28t100 104l31 -17l-14 -34q-62 -147 -138 -179t-194 21l-58 22q-94 41 -139 32t-90 -91zM-47 0l8 45l156 45l233 1176l-137 51l6 43h502l-8 -45l-156 -45l-233 -1180l139 -47l-6 -43h-504z" />
    <glyph glyph-name="itilde" unicode="&#x129;" horiz-adv-x="526" 
d="M127 -23q-115 0 -70 166l201 699q-55 43 -176 10l2 27q123 119 242 118q63 0 95 -51t5 -153l-180 -643h6q100 66 190 208l41 -14q-61 -131 -172 -249t-184 -118zM168 1192l-35 18l12 29q39 92 91 134t107 40q54 -2 124 -37l33 -16q113 -78 205 82l32 -17l-16 -34
q-127 -272 -305 -158l-43 22q-66 39 -112 27t-93 -90z" />
    <glyph glyph-name="Imacron" unicode="&#x12a;" horiz-adv-x="638" 
d="M-47 0l8 45l156 45l233 1176l-137 51l6 43h502l-8 -45l-156 -45l-233 -1180l139 -47l-6 -43h-504zM254 1579l25 121h507l-26 -121h-506z" />
    <glyph glyph-name="imacron" unicode="&#x12b;" horiz-adv-x="526" 
d="M127 -23q-115 0 -70 166l201 699q-55 43 -176 10l2 27q123 119 242 118q63 0 95 -51t5 -153l-180 -643h6q100 66 190 208l41 -14q-61 -131 -172 -249t-184 -118zM178 1284l25 119h463l-25 -119h-463z" />
    <glyph glyph-name="Ibreve" unicode="&#x12c;" horiz-adv-x="638" 
d="M501 1495q-116 0 -174 73t-61 204h43q33 -80 80 -117t129 -37q143 0 236 154h41q-25 -123 -101 -200t-193 -77zM-47 0l8 45l156 45l233 1176l-137 51l6 43h502l-8 -45l-156 -45l-233 -1180l139 -47l-6 -43h-504z" />
    <glyph glyph-name="ibreve" unicode="&#x12d;" horiz-adv-x="526" 
d="M399 1161q-113 0 -163 87t-37 253h39q20 -207 174 -207q143 0 223 207h39q-22 -158 -92 -249t-183 -91zM127 -23q-115 0 -70 166l201 699q-55 43 -176 10l2 27q123 119 242 118q63 0 95 -51t5 -153l-180 -643h6q100 66 190 208l41 -14q-61 -131 -172 -249t-184 -118z" />
    <glyph glyph-name="Iogonek" unicode="&#x12e;" horiz-adv-x="638" 
d="M154 -377q76 0 174 96l26 -24q-135 -205 -274 -205q-80 0 -122 44t-42 96t12 80t25 57q13 30 63 77q50 48 63 61t48 46t51 49h-225l8 45l156 45l233 1176l-137 51l6 43h502l-8 -45l-156 -45l-233 -1180l139 -47l-6 -43h-224q-96 -129 -129 -186q-32 -58 -32 -102t22 -66
t60 -23z" />
    <glyph glyph-name="iogonek" unicode="&#x12f;" horiz-adv-x="526" 
d="M418 1260q-47 0 -80 34t-33 80q0 47 35 81t83 34t80 -33t32 -81q0 -47 -35 -81t-82 -34zM-2 -295q0 -39 22 -61t64 -21q41 -1 76 19t94 77l27 -24q-135 -205 -277 -205q-78 0 -120 43t-42 115t65 138q65 67 236 187l-2 4h-12q-117 0 -74 166l203 699q-55 43 -178 10l4 27
q123 119 240 118q66 0 96 -51t4 -153l-180 -643h8q104 68 188 208l43 -14q-68 -143 -180 -260q-27 -28 -129 -134t-138 -156q-38 -50 -38 -89z" />
    <glyph glyph-name="Idotaccent" unicode="&#x130;" horiz-adv-x="638" 
d="M385 1655q0 47 35 81t82 34t81 -36q33 -34 33 -80t-34 -80t-80 -34q-47 0 -82 34t-35 81zM-47 0l8 45l156 45l233 1176l-137 51l6 43h502l-8 -45l-156 -45l-233 -1180l139 -47l-6 -43h-504z" />
    <glyph glyph-name="dotlessi" unicode="&#x131;" horiz-adv-x="526" 
d="M127 -23q-115 0 -70 166l201 699q-55 43 -176 10l2 27q123 119 242 118q63 0 95 -51t5 -153l-180 -643h6q100 66 190 208l41 -14q-61 -131 -172 -249t-184 -118z" />
    <glyph glyph-name="IJ" unicode="&#x132;" horiz-adv-x="1267" 
d="M1186 1270l-236 -1182q-47 -244 -166 -370t-381 -169l-10 39q115 45 187 121t104 159q33 83 59 214l234 1188l-168 47l6 43h535l-11 -45zM-47 0l8 45l156 45l233 1176l-137 51l6 43h502l-8 -45l-156 -45l-233 -1180l139 -47l-6 -43h-504z" />
    <glyph glyph-name="ij" unicode="&#x133;" horiz-adv-x="980" 
d="M786 1374q0 47 35 81t82 34t81 -34t33 -81t-36 -81q-35 -33 -82 -33t-80 34t-33 80zM94 -410q0 84 82 127q80 -158 168 -157q49 0 82 76t82 270l235 934q-61 45 -178 12v27q123 119 240 118q69 0 101 -54t3 -169l-196 -772q-51 -207 -181 -369t-288 -161q-49 0 -100 32
q-50 33 -50 86zM420 1489q47 0 81 -34q35 -34 33 -81t-36 -81q-34 -33 -82 -33q-47 0 -80 34t-33 80q2 47 36 81t81 34zM127 -23q-115 0 -72 166l203 699q-55 43 -178 10l4 27q123 119 240 118q66 0 96 -51t4 -153l-180 -643h8q104 68 188 208l43 -14q-61 -131 -172 -249
t-184 -118z" />
    <glyph glyph-name="Jcircumflex" unicode="&#x134;" horiz-adv-x="667" 
d="M287 1503h-84l315 287h131l191 -287h-80l-199 176zM586 1270l-236 -1182q-47 -244 -166 -370t-381 -169l-10 39q115 45 187 121t104 159q33 83 59 214l234 1188l-168 47l6 43h535l-11 -45z" />
    <glyph glyph-name="jcircumflex" unicode="&#x135;" horiz-adv-x="495" 
d="M186 1135h-63l283 415h86l104 -415h-59l-119 268zM-391 -410q0 84 82 127q80 -158 168 -157q49 0 82 76t82 270l235 934q-61 45 -178 12v27q123 119 239 118q68 0 101 -54t4 -169l-197 -772q-51 -207 -181 -369t-288 -161q-49 0 -99 32t-50 86z" />
    <glyph glyph-name="Kcommaaccent" unicode="&#x136;" horiz-adv-x="1343" 
d="M598 -337q0 80 -100 95v6q4 47 40 79t95 32t98 -40t39 -95q0 -174 -354 -270l-17 41q109 41 154 77t45 75zM1247 43l-8 -43q-210 -22 -300 20q-30 14 -75 56t-76 86q-31 45 -92 143t-145 249q-84 152 -86 156t-8 15v2l684 537l-162 49l6 47h414l-8 -47l-142 -49
l-604 -473q109 -185 170 -291t121 -198t91 -129q30 -38 72 -70q43 -32 69 -40t79 -20zM-47 0l8 45l156 45l233 1176l-137 51l6 43h520l-8 -45l-174 -49l-231 -1176l153 -47l-8 -43h-518z" />
    <glyph glyph-name="kcommaaccent" unicode="&#x137;" horiz-adv-x="952" 
d="M303 -337q0 80 -100 95v6q4 47 40 79t95 32t98 -40t39 -95q0 -174 -354 -270l-17 41q109 41 154 77t45 75zM705 858q-76 0 -203 -147t-217 -338q219 87 354 199t135 199t-69 87zM769 -86q-67 0 -109 24t-107 101l-274 319q-49 -109 -70 -200l-33 -144l-162 -43l-26 27
l354 1348l-115 90l6 16l336 78l-256 -971h11q256 438 471 438q67 0 105 -43t38 -112q0 -252 -479 -445l413 -440v-12q-36 -31 -103 -31z" />
    <glyph glyph-name="kgreenlandic" unicode="&#x138;" horiz-adv-x="983" 
d="M735 858q-76 0 -203 -147t-217 -338q217 86 354 198q136 113 136 200t-70 87zM823 997q66 0 105 -43t39 -112q0 -256 -480 -445l414 -440v-12q-31 -31 -101 -31t-111 25q-42 25 -105 100l-275 317q-49 -104 -69 -198l-35 -144l-162 -43l-27 27l244 848q-51 39 -172 6
l2 27q123 119 234 118q78 0 104 -60t-6 -163l-68 -199h13q238 422 456 422z" />
    <glyph glyph-name="Lacute" unicode="&#x139;" horiz-adv-x="1142" 
d="M328 106q39 -35 127 -34h301l252 385h61l-151 -457h-965l8 45l156 45l233 1176l-137 51l6 43h520l-8 -45l-174 -49zM827 1790v-23l-295 -264h-73l186 287h182z" />
    <glyph glyph-name="lacute" unicode="&#x13a;" horiz-adv-x="499" 
d="M96 -23q-117 0 -71 166l313 1203l-135 90l6 16l354 78l-352 -1380h6q88 55 197 208l37 -14q-61 -139 -171 -253t-184 -114zM815 1853v-22l-295 -264h-74l187 286h182z" />
    <glyph glyph-name="Lcommaaccent" unicode="&#x13b;" horiz-adv-x="1142" 
d="M328 106q39 -35 127 -34h301l252 385h61l-151 -457h-965l8 45l156 45l233 1176l-137 51l6 43h520l-8 -45l-174 -49zM451 -337q0 80 -101 95v6q4 47 40 79t95 32t99 -40t39 -95q-1 -174 -355 -270l-16 41q109 41 154 77t45 75z" />
    <glyph glyph-name="lcommaaccent" unicode="&#x13c;" horiz-adv-x="499" 
d="M96 -23q-117 0 -71 166l313 1203l-135 90l6 16l354 78l-352 -1380h6q88 55 197 208l37 -14q-61 -139 -171 -253t-184 -114zM47 -337q0 80 -100 95v6q4 47 40 79t95 32t98 -40t39 -95q0 -174 -354 -270l-17 41q109 41 154 77t45 75z" />
    <glyph glyph-name="Lcaron" unicode="&#x13d;" horiz-adv-x="1142" 
d="M328 106q39 -35 127 -34h301l252 385h61l-151 -457h-965l8 45l156 45l233 1176l-137 51l6 43h520l-8 -45l-174 -49zM942 1081h-41l113 406h176l-2 -12z" />
    <glyph glyph-name="lcaron" unicode="&#x13e;" horiz-adv-x="499" 
d="M96 -23q-117 0 -71 166l313 1203l-135 90l6 16l354 78l-352 -1380h6q88 55 197 208l37 -14q-61 -139 -171 -253t-184 -114zM606 1081h-41l113 406h176l-2 -12z" />
    <glyph glyph-name="Ldot" unicode="&#x13f;" horiz-adv-x="1142" 
d="M978 614q-52 0 -90 39t-38 90t38 89t90 38t91 -38t39 -90t-39 -90t-91 -38zM328 106q39 -35 127 -34h301l239 356h62l-139 -428h-965l8 45l156 45l233 1176l-137 51l6 43h520l-8 -45l-174 -49z" />
    <glyph glyph-name="ldot" unicode="&#x140;" horiz-adv-x="630" 
d="M94 -23q-117 0 -71 166l313 1203l-135 90l6 16l354 78l-352 -1380h6q88 55 197 208l37 -14q-61 -139 -171 -253t-184 -114zM589 637q-48 0 -82 35t-34 82t34 82q34 34 82 34t83 -34t35 -82q0 -47 -35 -82t-83 -35z" />
    <glyph glyph-name="Lslash" unicode="&#x141;" horiz-adv-x="1142" 
d="M29 522l14 72l182 49l125 623l-137 51l6 43h520l-8 -45l-174 -49l-111 -564l474 127l-15 -69l-473 -129l-104 -525q39 -35 127 -34h301l252 385h61l-151 -457h-965l8 45l156 45l94 481z" />
    <glyph glyph-name="lslash" unicode="&#x142;" horiz-adv-x="499" 
d="M94 -23q-117 0 -71 166l137 531l-164 -80l16 76l168 80l156 596l-135 90l6 16l354 78l-174 -680l182 88l-16 -74l-184 -90l-160 -624h6q88 55 197 208l37 -14q-61 -139 -171 -253t-184 -114z" />
    <glyph glyph-name="Nacute" unicode="&#x143;" horiz-adv-x="1419" 
d="M1196 1790v-23l-295 -264h-74l187 287h182zM1090 -20h-54l-637 1159l-190 -1047l160 -49l-7 -43h-409l8 45l156 45l225 1131q-45 55 -115 79l-37 17l9 43h319l559 -1014l168 922l-160 49l7 43h409l-10 -45l-154 -45l-196 -994z" />
    <glyph glyph-name="nacute" unicode="&#x144;" horiz-adv-x="1048" 
d="M831 997q168 0 107 -221l-174 -626h6q86 53 197 208l37 -14q-70 -141 -178 -254t-179 -113q-119 0 -72 166l181 623q29 84 -35 84q-95 0 -241 -205t-216 -444l-55 -185l-166 -45l-27 27l244 848q-51 39 -172 6l2 27q123 119 234 118q78 0 104 -59t-6 -164l-62 -201h13
q256 424 458 424zM967 1550v-16l-283 -399h-53l178 415h158z" />
    <glyph glyph-name="Ncommaaccent" unicode="&#x145;" horiz-adv-x="1419" 
d="M584 -337q0 80 -101 95v6q4 47 40 79t95 32q58 0 98 -40t40 -95q-1 -174 -355 -270l-16 41q109 41 154 77t45 75zM1090 -20h-54l-637 1159l-190 -1047l160 -49l-7 -43h-409l8 45l156 45l225 1131q-45 55 -115 79l-37 17l9 43h319l559 -1014l168 922l-160 49l7 43h409
l-10 -45l-154 -45l-196 -994z" />
    <glyph glyph-name="ncommaaccent" unicode="&#x146;" horiz-adv-x="1048" 
d="M831 997q168 0 107 -221l-174 -626h6q86 53 197 208l37 -14q-70 -141 -178 -254t-179 -113q-119 0 -72 166l181 623q29 84 -35 84q-95 0 -241 -205t-216 -444l-55 -185l-166 -45l-27 27l244 848q-51 39 -172 6l2 27q123 119 234 118q78 0 104 -59t-6 -164l-62 -201h13
q256 424 458 424zM350 -337q0 80 -100 95v6q4 47 40 79t95 32t98 -40t39 -95q0 -174 -354 -270l-16 41q110 41 154 77t44 75z" />
    <glyph glyph-name="Ncaron" unicode="&#x147;" horiz-adv-x="1419" 
d="M1174 1790h83l-317 -287h-129l-190 287h79l197 -180zM1090 -20h-54l-637 1159l-190 -1047l160 -49l-7 -43h-409l8 45l156 45l225 1131q-45 55 -115 79l-37 17l9 43h319l559 -1014l168 922l-160 49l7 43h409l-10 -45l-154 -45l-196 -994z" />
    <glyph glyph-name="ncaron" unicode="&#x148;" horiz-adv-x="1048" 
d="M924 1550h61l-283 -415h-86l-104 415h57l119 -274zM831 997q168 0 107 -221l-174 -626h6q86 53 197 208l37 -14q-70 -141 -178 -254t-179 -113q-119 0 -72 166l181 623q29 84 -35 84q-95 0 -241 -205t-216 -444l-55 -185l-166 -45l-27 27l244 848q-51 39 -172 6l2 27
q123 119 234 118q78 0 104 -59t-6 -164l-62 -201h13q256 424 458 424z" />
    <glyph glyph-name="napostrophe" unicode="&#x149;" horiz-adv-x="1048" 
d="M831 997q168 0 107 -221l-174 -626h6q86 53 197 208l37 -14q-70 -141 -178 -254t-179 -113q-119 0 -72 166l181 623q29 84 -35 84q-95 0 -241 -205t-216 -444l-55 -185l-166 -45l-27 27l244 848q-51 39 -172 6l2 27q123 119 234 118q78 0 104 -59t-6 -164l-62 -201h13
q256 424 458 424zM291 1304q0 78 -101 95v6q4 47 40 79t96 32t98 -40q39 -40 39 -96q0 -174 -354 -270l-17 41q109 41 154 77t45 76z" />
    <glyph glyph-name="Eng" unicode="&#x14a;" horiz-adv-x="1419" 
d="M1337 1270l-233 -1172q-51 -254 -165 -378t-376 -169l-10 39q209 74 295 183t125 293l4 22l-578 1051l-190 -1047l160 -49l-7 -43h-409l8 45l156 45l225 1131q-45 55 -115 79l-37 17l9 43h319l559 -1014l168 922l-160 49l7 43h409l-10 -45z" />
    <glyph glyph-name="eng" unicode="&#x14b;" horiz-adv-x="1011" 
d="M203 -283q81 -157 173 -157q44 0 77 76t82 270l221 860q29 84 -35 84q-95 0 -241 -205t-216 -444l-55 -185l-166 -45l-27 27l244 848q-51 39 -172 6l2 27q123 119 234 118q78 0 104 -59t-6 -164l-62 -201h13q256 424 458 424q168 0 107 -221l-197 -774
q-53 -207 -183 -369t-288 -161q-51 0 -100 32t-49 86q0 86 82 127z" />
    <glyph glyph-name="Omacron" unicode="&#x14c;" horiz-adv-x="1568" 
d="M1262 910q0 166 -88 293q-88 128 -248 128q-129 0 -242 -81q-114 -81 -184 -207q-152 -273 -152 -560q0 -201 85 -333t235 -132t265 83q114 83 183 213q146 272 146 596zM916 1393q232 0 401 -169q168 -169 168 -452q0 -142 -55 -286q-123 -321 -411 -455
q-157 -74 -341 -74q-221 0 -387 168t-166 448q0 199 93 384q94 185 280 311t418 125zM657 1579l25 121h582l-25 -121h-582z" />
    <glyph glyph-name="omacron" unicode="&#x14d;" horiz-adv-x="960" 
d="M615 997q161 -1 233 -111t64 -262t-76 -296t-201 -248t-291 -104t-232 110q-74 111 -65 267q8 157 75 299t200 244t293 101zM598 948q-84 0 -167 -114t-132 -266q-49 -153 -57 -285q-14 -258 102 -258q123 0 239 220t130 443q14 260 -115 260zM391 1282l25 121h555
l-25 -121h-555z" />
    <glyph glyph-name="Obreve" unicode="&#x14e;" horiz-adv-x="1568" 
d="M1262 910q0 166 -88 293q-88 128 -248 128q-129 0 -242 -81q-114 -81 -184 -207q-152 -273 -152 -560q0 -201 85 -333t235 -132t265 83q114 83 183 213q146 272 146 596zM916 1393q232 0 401 -169q168 -169 168 -452q0 -142 -55 -286q-123 -321 -411 -455
q-157 -74 -341 -74q-221 0 -387 168t-166 448q0 199 93 384q94 185 280 311t418 125zM964 1495q-116 0 -174 73t-61 204h43q33 -80 80 -117t129 -37q143 0 236 154h40q-25 -123 -101 -200t-192 -77z" />
    <glyph glyph-name="obreve" unicode="&#x14f;" horiz-adv-x="960" 
d="M653 1161q-113 0 -164 87t-36 253h39q20 -207 174 -207q143 0 223 207h39q-22 -158 -92 -249t-183 -91zM615 997q161 -1 233 -111t64 -262t-76 -296t-201 -248t-291 -104t-232 110q-74 111 -65 267q8 157 75 299t200 244t293 101zM598 948q-84 0 -167 -114t-132 -266
q-49 -153 -57 -285q-14 -258 102 -258q123 0 239 220t130 443q14 260 -115 260z" />
    <glyph glyph-name="Ohungarumlaut" unicode="&#x150;" horiz-adv-x="1568" 
d="M1262 910q0 166 -88 293q-88 128 -248 128q-129 0 -242 -81q-114 -81 -184 -207q-152 -273 -152 -560q0 -201 85 -333t235 -132t265 83q114 83 183 213q146 272 146 596zM916 1393q232 0 401 -169q168 -169 168 -452q0 -142 -55 -286q-123 -321 -411 -455
q-157 -74 -341 -74q-221 0 -387 168t-166 448q0 199 93 384q94 185 280 311t418 125zM1012 1790v-18l-238 -269h-76l150 287h164zM1335 1790v-18l-237 -269h-76l152 287h161z" />
    <glyph glyph-name="ohungarumlaut" unicode="&#x151;" horiz-adv-x="960" 
d="M615 997q161 -1 233 -111t64 -262t-76 -296t-201 -248t-291 -104t-232 110q-74 111 -65 267q8 157 75 299t200 244t293 101zM598 948q-84 0 -167 -114t-132 -266q-49 -153 -57 -285q-14 -258 102 -258q123 0 239 220t130 443q14 260 -115 260zM1055 1550v-18l-260 -397
h-50l160 415h150zM758 1550v-18l-260 -397h-49l159 415h150z" />
    <glyph glyph-name="OE" unicode="&#x152;" horiz-adv-x="2011" 
d="M702 41q242 0 291 256l191 960q-94 61 -257 61t-299 -124q-136 -125 -208 -315t-72 -379t71 -315q39 -67 111 -105t172 -39zM1157 0q-121 0 -475 -6q-244 -4 -400 152t-157 427q0 339 239 569t568 230q92 0 269 -6t376 -6h287l131 8l-51 -387h-52l-65 309h-438l-105 -538
h262l107 180h47l-84 -436h-55l-23 184h-270l-113 -574q41 -33 127 -32h342l223 332h54l-127 -406h-617z" />
    <glyph glyph-name="oe" unicode="&#x153;" horiz-adv-x="1417" 
d="M1188 918q-80 0 -174 -112t-140 -269q133 23 250 113t121 200q4 68 -57 68zM602 948q-84 0 -167 -114t-132 -267q-49 -154 -57 -284q-18 -258 100 -258q84 -1 168 107t138 262t65 294q14 260 -115 260zM915 -25q-172 0 -225 168q-141 -168 -348 -168q-152 0 -226 112
t-66 270q19 340 277 539q132 101 298 101q105 0 165 -63t78 -166q86 106 192 168t202 63q185 0 180 -147q-6 -131 -180 -232t-400 -137q-10 -45 -14 -106q-10 -264 149 -264q66 0 142 59t129 139l39 -18q-59 -117 -163 -217t-229 -101z" />
    <glyph glyph-name="Racute" unicode="&#x154;" horiz-adv-x="1343" 
d="M1077 1790v-23l-295 -264h-73l186 287h182zM942 1025q0 140 -94 216q-95 76 -283 68l-121 -609q240 -6 369 90t129 235zM670 1360q221 0 359 -82t138 -226q-1 -144 -115 -234q-114 -89 -282 -128q68 -139 109 -220t79 -158q38 -78 66 -114t52 -69q46 -63 169 -86l-8 -43
q-246 -27 -328 49t-288 504q-8 16 -20 39t-21 45h-148l-108 -547l180 -47l-6 -43h-545l8 45l156 45l233 1176l-137 51l6 43h451z" />
    <glyph glyph-name="racute" unicode="&#x155;" horiz-adv-x="770" 
d="M840 907q0 -117 -144 -213h-45q31 51 29 89t-33 38q-61 0 -183 -205t-194 -413l-65 -187l-162 -45l-27 27l236 850q-55 35 -174 6l4 27q121 117 240 116q70 0 96 -50t-4 -144l-119 -357h20q154 308 246 432t178 123q47 1 74 -25t27 -69zM870 1550v-16l-282 -399h-53
l178 415h157z" />
    <glyph glyph-name="Rcommaaccent" unicode="&#x156;" horiz-adv-x="1343" 
d="M600 -337q0 80 -100 95v6q4 47 40 79t95 32t98 -40t39 -95q0 -174 -354 -270l-17 41q109 41 154 77t45 75zM942 1025q0 140 -94 216q-95 76 -283 68l-121 -609q240 -6 369 90t129 235zM670 1360q221 0 359 -82t138 -226q-1 -144 -115 -234q-114 -89 -282 -128
q68 -139 109 -220t79 -158q38 -78 66 -114t52 -69q46 -63 169 -86l-8 -43q-246 -27 -328 49t-288 504q-8 16 -20 39t-21 45h-148l-108 -547l180 -47l-6 -43h-545l8 45l156 45l233 1176l-137 51l6 43h451z" />
    <glyph glyph-name="rcommaaccent" unicode="&#x157;" horiz-adv-x="770" 
d="M840 907q0 -117 -144 -213h-45q31 51 29 89t-33 38q-61 0 -183 -205t-194 -413l-65 -187l-162 -45l-27 27l236 850q-55 35 -174 6l4 27q121 117 240 116q70 0 96 -50t-4 -144l-119 -357h20q154 308 246 432t178 123q47 1 74 -25t27 -69zM37 -337q0 80 -100 95v6
q4 47 39 79q36 32 96 32t98 -40q39 -40 39 -95q0 -174 -354 -270l-17 41q109 41 154 77t45 75z" />
    <glyph glyph-name="Rcaron" unicode="&#x158;" horiz-adv-x="1343" 
d="M1053 1790h84l-318 -287h-129l-190 287h80l196 -180zM942 1025q0 140 -94 216q-95 76 -283 68l-121 -609q240 -6 369 90t129 235zM670 1360q221 0 359 -82t138 -226q-1 -144 -115 -234q-114 -89 -282 -128q68 -139 109 -220t79 -158q38 -78 66 -114t52 -69
q46 -63 169 -86l-8 -43q-246 -27 -328 49t-288 504q-8 16 -20 39t-21 45h-148l-108 -547l180 -47l-6 -43h-545l8 45l156 45l233 1176l-137 51l6 43h451z" />
    <glyph glyph-name="rcaron" unicode="&#x159;" horiz-adv-x="770" 
d="M827 1550h62l-283 -415h-86l-104 415h57l119 -274zM840 907q0 -117 -144 -213h-45q31 51 29 89t-33 38q-61 0 -183 -205t-194 -413l-65 -187l-162 -45l-27 27l236 850q-55 35 -174 6l4 27q121 117 240 116q70 0 96 -50t-4 -144l-119 -357h20q154 308 246 432t178 123
q47 1 74 -25t27 -69z" />
    <glyph glyph-name="Sacute" unicode="&#x15a;" horiz-adv-x="1085" 
d="M1053 1790v-23l-295 -264h-74l186 287h183zM439 33q128 0 221 80t94 196q0 83 -44 143t-161 140l-88 57q-131 92 -177 163t-46 177q0 166 148 285t366 119q127 0 315 -72l-78 -367h-47l-37 303q-98 68 -213 68q-116 0 -192 -72t-76 -164t36 -146t134 -120l82 -53
q156 -102 217 -174t61 -186q0 -193 -162 -319t-360 -126t-393 103l74 397h49l45 -346q104 -86 232 -86z" />
    <glyph glyph-name="sacute" unicode="&#x15b;" horiz-adv-x="657" 
d="M557 287q0 -107 -117 -211t-254 -105q-100 1 -159 51t-59 114t52 122h5q90 -104 151 -149q62 -45 114 -45t83 29q31 30 33 69q0 66 -70 160l-107 147q-68 92 -86 128t-16 83q4 121 131 221t242 100q82 1 128 -37t43 -96t-48 -114h-2q-145 145 -244 145q-41 0 -72 -28
q-31 -29 -31 -77t68 -141l107 -145q68 -94 88 -132t20 -89zM801 1550v-16l-283 -399h-53l178 415h158z" />
    <glyph glyph-name="Scircumflex" unicode="&#x15c;" horiz-adv-x="1085" 
d="M502 1503h-84l315 287h131l191 -287h-80l-199 176zM439 33q128 0 221 80t94 196q0 83 -44 143t-161 140l-88 57q-131 92 -177 163t-46 177q0 166 148 285t366 119q127 0 315 -72l-78 -367h-47l-37 303q-98 68 -213 68q-116 0 -192 -72t-76 -164t36 -146t134 -120l82 -53
q156 -102 217 -174t61 -186q0 -193 -162 -319t-360 -126t-393 103l74 397h49l45 -346q104 -86 232 -86z" />
    <glyph glyph-name="scircumflex" unicode="&#x15d;" horiz-adv-x="657" 
d="M319 1135h-63l283 415h86l104 -415h-59l-119 268zM557 287q0 -107 -117 -211t-254 -105q-100 1 -159 51t-59 114t52 122h5q90 -104 151 -149q62 -45 114 -45t83 29q31 30 33 69q0 66 -70 160l-107 147q-68 92 -86 128t-16 83q4 121 131 221t242 100q82 1 128 -37t43 -96
t-48 -114h-2q-145 145 -244 145q-41 0 -72 -28q-31 -29 -31 -77t68 -141l107 -145q68 -94 88 -132t20 -89z" />
    <glyph glyph-name="Scedilla" unicode="&#x15e;" horiz-adv-x="1085" 
d="M350 -315q0 74 -84 104l123 176q-170 6 -350 103l74 397h49l45 -346q104 -86 232 -86t221 80t94 196q0 83 -44 143t-161 140l-88 57q-131 92 -177 163t-46 177q0 166 148 285t366 119q127 0 315 -72l-78 -367h-47l-37 303q-98 68 -213 68q-116 0 -192 -72t-76 -164
t36 -146t134 -120l82 -53q156 -102 217 -174t61 -186q0 -184 -151 -309q-152 -124 -354 -134l-58 -88q117 -45 117 -137q0 -197 -367 -260l-2 33q211 63 211 170z" />
    <glyph glyph-name="scedilla" unicode="&#x15f;" horiz-adv-x="657" 
d="M109 -315q0 74 -84 104l129 184q-86 9 -136 57t-50 108q1 60 52 120h5q90 -104 151 -149q62 -45 114 -45t83 29q31 30 33 69q0 66 -70 160l-107 147q-68 92 -86 128t-16 83q4 121 131 221t242 100q82 1 128 -37t43 -96t-48 -114h-2q-145 145 -244 145q-41 0 -72 -28
q-31 -29 -31 -77t68 -141l107 -145q68 -94 88 -132t20 -89q0 -100 -107 -202q-108 -101 -239 -112l-61 -94q117 -45 116 -137q1 -197 -366 -260l-2 33q211 63 211 170z" />
    <glyph glyph-name="Scaron" unicode="&#x160;" horiz-adv-x="1085" 
d="M1028 1790h84l-317 -287h-129l-191 287h80l197 -180zM439 33q128 0 221 80t94 196q0 83 -45 145t-160 138l-64 41q-147 96 -197 171t-50 185q0 166 148 285t366 119q127 0 315 -72l-78 -367h-47l-37 303q-98 68 -213 68q-116 0 -192 -72t-76 -164t36 -146t134 -120
l82 -53q156 -102 217 -174t61 -186q0 -193 -162 -319t-360 -126t-393 103l74 397h49l45 -346q104 -86 232 -86z" />
    <glyph glyph-name="scaron" unicode="&#x161;" horiz-adv-x="657" 
d="M737 1550h62l-283 -415h-86l-104 415h57l119 -274zM557 287q0 -107 -117 -211t-254 -105q-100 1 -159 51t-59 114t52 122h5q90 -104 151 -149q62 -45 114 -45t83 29q31 30 33 69q0 66 -70 160l-107 147q-68 92 -86 128t-16 83q4 121 131 221t242 100q82 1 128 -37t43 -96
t-48 -114h-2q-145 145 -244 145q-41 0 -72 -28q-31 -29 -31 -77t68 -141l107 -145q68 -94 88 -132t20 -89z" />
    <glyph glyph-name="Tcommaaccent" unicode="&#x162;" horiz-adv-x="1337" 
d="M465 -337q0 80 -100 95v6q4 47 39 79q36 32 96 32t98 -40q39 -40 39 -95q0 -174 -354 -270l-17 41q109 41 154 77t45 75zM393 1360h867l137 14l-94 -377h-54l-22 295h-320l-239 -1202l143 -47l-8 -43h-506l8 45l156 45l239 1202h-303l-147 -295h-53l63 377z" />
    <glyph glyph-name="tcommaaccent" unicode="&#x163;" horiz-adv-x="663" 
d="M133 -25q-47 0 -72 36t-8 93l201 783h-182l8 57l201 27l127 280h108l-61 -282h274l-16 -82h-275l-192 -737h6q59 16 148 104t147 170l41 -23q-102 -170 -226 -298t-229 -128zM76 -337q0 80 -101 95v6q4 47 40 79q35 32 95 32t99 -40t39 -95q0 -174 -354 -270l-17 41
q109 41 154 77t45 75z" />
    <glyph glyph-name="Tcaron" unicode="&#x164;" horiz-adv-x="1337" 
d="M1161 1790h84l-317 -287h-129l-191 287h80l197 -180zM393 1360h867l137 14l-94 -377h-54l-22 295h-320l-239 -1202l143 -47l-8 -43h-506l8 45l156 45l239 1202h-303l-147 -295h-53l63 377z" />
    <glyph glyph-name="tcaron" unicode="&#x165;" horiz-adv-x="663" 
d="M133 -25q-47 0 -72 36t-8 93l201 783h-182l8 57l201 27l127 280h108l-61 -282h274l-16 -82h-275l-192 -737h6q59 16 148 104t147 170l41 -23q-102 -170 -226 -298t-229 -128zM664 1083h-41l112 406h176l-2 -12z" />
    <glyph glyph-name="Tbar" unicode="&#x166;" horiz-adv-x="1337" 
d="M244 705l12 65h340l104 520h-303l-147 -293h-53l63 377l133 -14h867l137 14l-94 -377h-54l-22 293h-320l-104 -520h366l-14 -65h-364l-123 -615l143 -47l-8 -43h-506l8 45l156 45l123 615h-340z" />
    <glyph glyph-name="tbar" unicode="&#x167;" horiz-adv-x="663" 
d="M135 -25q-47 0 -72 36t-8 93l129 504h-135l12 78h144l51 201h-182l8 57l201 27l127 280h108l-61 -282h274l-16 -82h-275l-53 -201h289l-12 -78h-297l-119 -458h6q59 16 148 104t147 170l41 -23q-102 -170 -225 -298t-230 -128z" />
    <glyph glyph-name="Utilde" unicode="&#x168;" horiz-adv-x="1466" 
d="M684 1536l-33 14l13 31q72 183 197 177q58 -3 132 -29l60 -23q82 -39 133 -28t100 104l31 -17l-14 -34q-61 -147 -137 -179t-195 21l-58 22q-94 41 -139 32t-90 -91zM655 -49q-258 -1 -383 155t-57 488l137 672l-139 51l6 43h522l-10 -45l-172 -49l-145 -725
q-43 -219 40 -342t263 -123q365 0 450 495l123 689l-160 53l7 47h417l-6 -47l-155 -49l-146 -740q-115 -573 -592 -573z" />
    <glyph glyph-name="utilde" unicode="&#x169;" horiz-adv-x="1034" 
d="M356 1194l-30 16l10 27q102 268 334 149l55 -28q53 -29 86 -34t72 21t75 95l33 -15l-16 -39q-66 -154 -150 -184t-184 31l-55 27q-94 46 -138 32t-92 -98zM635 -23q-119 0 -70 166l94 332h-6q-8 -12 -52 -85q-132 -220 -198 -281q-31 -29 -73 -67q-75 -67 -174 -69
q-68 1 -94 53t4 185l174 635q-51 39 -170 6l2 27q123 119 237 118q147 0 92 -217l-153 -587q-16 -59 28 -60q98 0 256 229t205 416l47 185l166 22l17 -18l-211 -817h6q82 53 192 208l37 -14q-69 -139 -177 -253t-179 -114z" />
    <glyph glyph-name="Umacron" unicode="&#x16a;" horiz-adv-x="1466" 
d="M674 1579l24 121h582l-25 -121h-581zM655 -49q-258 -1 -383 155t-57 488l137 672l-139 51l6 43h522l-10 -45l-172 -49l-145 -725q-43 -219 40 -342t263 -123q365 0 450 495l123 689l-160 53l7 47h417l-6 -47l-155 -49l-146 -740q-115 -573 -592 -573z" />
    <glyph glyph-name="umacron" unicode="&#x16b;" horiz-adv-x="1034" 
d="M635 -23q-119 0 -70 166l94 332h-6q-8 -12 -52 -85q-132 -220 -198 -281q-31 -29 -73 -67q-75 -67 -174 -69q-68 1 -94 53t4 185l174 635q-51 39 -170 6l2 27q123 119 237 118q147 0 92 -217l-153 -587q-16 -59 28 -60q98 0 256 229t205 416l47 185l166 22l17 -18
l-211 -817h6q82 53 192 208l37 -14q-69 -139 -177 -253t-179 -114zM387 1284l25 121h526l-25 -121h-526z" />
    <glyph glyph-name="Ubreve" unicode="&#x16c;" horiz-adv-x="1466" 
d="M951 1495q-116 0 -174 73t-60 204h43q33 -80 80 -117t129 -37q143 0 235 154h41q-25 -123 -101 -200t-193 -77zM655 -49q-258 -1 -383 155t-57 488l137 672l-139 51l6 43h522l-10 -45l-172 -49l-145 -725q-43 -219 40 -342t263 -123q365 0 450 495l123 689l-160 53l7 47
h417l-6 -47l-155 -49l-146 -740q-115 -573 -592 -573z" />
    <glyph glyph-name="ubreve" unicode="&#x16d;" horiz-adv-x="1034" 
d="M649 1161q-113 0 -164 87t-36 253h38q20 -207 175 -207q143 0 223 207h39q-22 -158 -92 -249t-183 -91zM635 -23q-119 0 -70 166l94 332h-6q-8 -12 -52 -85q-132 -220 -198 -281q-31 -29 -73 -67q-75 -67 -174 -69q-68 1 -94 53t4 185l174 635q-51 39 -170 6l2 27
q123 119 237 118q147 0 92 -217l-153 -587q-16 -59 28 -60q98 0 256 229t205 416l47 185l166 22l17 -18l-211 -817h6q82 53 192 208l37 -14q-69 -139 -177 -253t-179 -114z" />
    <glyph glyph-name="Uring" unicode="&#x16e;" horiz-adv-x="1466" 
d="M836 1663q0 -59 38 -97t92 -38q56 0 94 38t38 97t-38 97t-93 38t-93 -38t-38 -97zM762 1662q0 85 59 143q59 59 147 59t145 -58q58 -58 58 -142q0 -85 -59 -143q-59 -59 -146 -59q-88 0 -146 58t-58 142zM655 -49q-258 -1 -383 155t-57 488l137 672l-139 51l6 43h522
l-10 -45l-172 -49l-145 -725q-43 -219 40 -342t263 -123q365 0 450 495l123 689l-160 53l7 47h417l-6 -47l-155 -49l-146 -740q-115 -573 -592 -573z" />
    <glyph glyph-name="uring" unicode="&#x16f;" horiz-adv-x="1034" 
d="M635 -23q-119 0 -70 166l94 332h-6q-8 -12 -52 -85q-132 -220 -198 -281q-31 -29 -73 -67q-75 -67 -174 -69q-68 1 -94 53t4 185l174 635q-51 39 -170 6l2 27q123 119 237 118q147 0 92 -217l-153 -587q-16 -59 28 -60q98 0 256 229t205 416l47 185l166 22l17 -18
l-211 -817h6q82 53 192 208l37 -14q-69 -139 -177 -253t-179 -114zM522 1380q0 -59 38 -98t93 -39t95 39q39 39 38 98q0 59 -38 98q-38 38 -94 38t-94 -38t-38 -98zM449 1378q0 86 59 144t146 57q88 0 146 -56q58 -55 58 -141t-59 -144t-147 -58t-145 56q-58 56 -58 142z
" />
    <glyph glyph-name="Uhungarumlaut" unicode="&#x170;" horiz-adv-x="1466" 
d="M655 -49q-258 -1 -383 155t-57 488l137 672l-139 51l6 43h522l-10 -45l-172 -49l-145 -725q-43 -219 40 -342t263 -123q365 0 450 495l123 689l-160 53l7 47h417l-6 -47l-155 -49l-146 -740q-115 -573 -592 -573zM1030 1790v-18l-237 -269h-76l149 287h164zM1354 1790
v-18l-238 -269h-76l152 287h162z" />
    <glyph glyph-name="uhungarumlaut" unicode="&#x171;" horiz-adv-x="1034" 
d="M1053 1550v-18l-260 -397h-50l160 415h150zM756 1550v-18l-260 -397h-50l160 415h150zM635 -23q-119 0 -70 166l94 332h-6q-8 -12 -52 -85q-132 -220 -198 -281q-31 -29 -73 -67q-75 -67 -174 -69q-68 1 -94 53t4 185l174 635q-51 39 -170 6l2 27q123 119 237 118
q147 0 92 -217l-153 -587q-16 -59 28 -60q98 0 256 229t205 416l47 185l166 22l17 -18l-211 -817h6q82 53 192 208l37 -14q-69 -139 -177 -253t-179 -114z" />
    <glyph glyph-name="Uogonek" unicode="&#x172;" horiz-adv-x="1466" 
d="M342 -354q0 70 60 137q60 66 216 170q-240 10 -354 166t-49 475l137 672l-139 51l6 43h522l-10 -45l-172 -49l-145 -725q-43 -219 40 -342t263 -123q365 0 450 495l123 689l-160 53l7 47h417l-6 -47l-155 -49l-146 -740q-111 -551 -557 -571q-116 -105 -154 -155t-38 -90
t22 -62t64 -23q40 1 76 21t96 75l26 -24q-139 -205 -276 -205q-80 0 -122 43t-42 113z" />
    <glyph glyph-name="uogonek" unicode="&#x173;" horiz-adv-x="1034" 
d="M635 -23q-119 0 -70 166l94 332h-6q-8 -12 -52 -85q-132 -220 -198 -281q-31 -29 -73 -67q-75 -67 -174 -69q-68 1 -95 53t5 185l174 635q-51 39 -170 6l2 27q123 119 237 118q147 0 92 -217l-153 -587q-16 -59 28 -60q98 0 256 229t205 416l47 185l166 22l17 -18
l-211 -817h6q82 53 192 208l37 -14q-70 -143 -180 -260q-27 -28 -129 -134t-138 -156q-38 -50 -38 -89q0 -82 86 -82q39 1 75 21t95 75l26 -24q-139 -205 -276 -205q-80 0 -122 43t-42 115t65 138q65 67 236 187l-2 4h-12z" />
    <glyph glyph-name="Wcircumflex" unicode="&#x174;" horiz-adv-x="1882" 
d="M891 1503h-84l315 287h131l191 -287h-80l-199 176zM1147 -14l-125 946l-508 -946h-92l-131 1282l-111 49l8 43h494l-8 -45l-178 -51l90 -1004l418 815l-25 191l-100 51l6 43h487l-8 -45l-180 -51l123 -1004l469 1006l-174 51l6 43h387l-8 -45l-107 -39l-639 -1290h-94z
" />
    <glyph glyph-name="wcircumflex" unicode="&#x175;" horiz-adv-x="1331" 
d="M580 1135h-64l283 415h86l104 -415h-59l-119 268zM1188 750q0 57 -35 87q-63 54 -176 15l2 29q119 119 213 118q68 0 104 -46t37 -122q0 -76 -56 -179t-166 -240t-169 -203l-199 -238h-18l-66 31l3 453h-7q-113 -143 -266 -359l-90 -125h-18l-74 31l-8 836
q-69 48 -172 14l2 27q117 121 225 120q121 0 123 -184l4 -637h6q154 199 268 373l-2 287q-59 46 -172 14l4 27q117 121 224 120q120 0 120 -186l2 -647h7q350 414 350 584z" />
    <glyph glyph-name="Ycircumflex" unicode="&#x176;" horiz-adv-x="1312" 
d="M641 1503h-84l315 287h132l190 -287h-80l-199 176zM1292 1274l-522 -731l-90 -455l129 -47l-8 -41h-479l10 43l141 45l86 432l-250 746l-116 51l8 43h506l-11 -45l-168 -49l209 -658l449 652l-180 57l8 43h399l-8 -45z" />
    <glyph glyph-name="ycircumflex" unicode="&#x177;" horiz-adv-x="944" 
d="M391 1135h-63l282 415h86l105 -415h-60l-118 268zM-156 -524q-70 0 -109 32q-38 32 -39 88t32 91t84 35q50 0 80 -36q30 -34 55 -108h8q100 43 176 144q76 100 117 230q78 246 79 472t-32 320t-84 94q-84 0 -137 -242h-37q10 176 77 288t169 112t160 -118
q58 -116 63 -346q6 -319 -86 -567h14q264 332 322 537q29 102 26 205q-4 150 -96 256q55 37 117 36q104 -1 107 -157t-80 -355t-214 -371t-279 -320q-147 -148 -285 -234t-208 -86z" />
    <glyph glyph-name="Ydieresis" unicode="&#x178;" horiz-adv-x="1312" 
d="M1102 1544q-45 0 -77 32t-32 77t32 78t77 33t77 -34q31 -32 31 -77t-32 -77t-76 -32zM666 1544q-45 0 -77 32t-32 77t32 78t77 33q46 0 78 -34q32 -32 32 -77t-32 -77t-78 -32zM1292 1274l-522 -731l-90 -455l129 -47l-8 -41h-479l10 43l141 45l86 432l-250 746l-116 51
l8 43h506l-11 -45l-168 -49l209 -658l449 652l-180 57l8 43h399l-8 -45z" />
    <glyph glyph-name="Zacute" unicode="&#x179;" horiz-adv-x="1259" 
d="M1087 1790v-23l-294 -264h-74l186 287h182zM-18 0l12 45l995 1245h-577l-172 -346h-54l66 426l156 -10h870l-2 -17l-1016 -1269h623l231 344h53l-133 -428l-155 10h-897z" />
    <glyph glyph-name="zacute" unicode="&#x17a;" horiz-adv-x="892" 
d="M907 1550v-16l-282 -399h-54l179 415h157zM528 -35q-49 0 -139 37l-270 111l-115 -152l-70 57l695 717l-240 86q-154 55 -178 13q-31 -59 100 -152q-63 -96 -133 -96q-36 0 -62 26t-26 74q2 94 110 205t210 110q70 0 159 -40l195 -82l94 122l70 -59l-672 -688l252 -94
q100 -39 158 -3q57 36 153 160l39 -18q-90 -170 -169 -252t-161 -82z" />
    <glyph glyph-name="Zdotaccent" unicode="&#x17b;" horiz-adv-x="1259" 
d="M680 1655q0 47 35 81t82 34t81 -36q34 -34 34 -80t-34 -80t-81 -34t-82 34t-35 81zM-18 0l12 45l995 1245h-577l-172 -346h-54l66 426l156 -10h870l-2 -17l-1016 -1269h623l231 344h53l-133 -428l-155 10h-897z" />
    <glyph glyph-name="zdotaccent" unicode="&#x17c;" horiz-adv-x="892" 
d="M541 1374q0 47 33 81q34 34 81 34t81 -34t34 -81t-34 -81q-34 -33 -81 -33t-81 33q-33 34 -33 81zM528 -35q-49 0 -139 37l-270 111l-115 -152l-70 57l695 717l-240 86q-154 55 -178 13q-31 -59 100 -152q-63 -96 -133 -96q-36 0 -62 26t-26 74q2 94 110 205t210 110
q70 0 159 -40l195 -82l94 122l70 -59l-672 -688l252 -94q100 -39 158 -3q57 36 153 160l39 -18q-90 -170 -169 -252t-161 -82z" />
    <glyph glyph-name="Zcaron" unicode="&#x17d;" horiz-adv-x="1259" 
d="M1069 1790h84l-317 -287h-129l-191 287h80l197 -180zM-18 0l12 45l995 1245h-577l-172 -346h-54l66 426l156 -10h870l-2 -17l-1016 -1269h623l231 344h53l-133 -428l-155 10h-897z" />
    <glyph glyph-name="zcaron" unicode="&#x17e;" horiz-adv-x="892" 
d="M856 1550h62l-283 -415h-86l-105 415h58l119 -274zM528 -35q-49 0 -139 37l-270 111l-115 -152l-70 57l695 717l-240 86q-154 55 -178 13q-31 -59 100 -152q-63 -96 -133 -96q-36 0 -62 26t-26 74q2 94 110 205t210 110q63 0 159 -40l195 -82l94 122l70 -59l-672 -688
l252 -94q100 -39 158 -3q57 36 153 160l39 -18q-90 -170 -169 -252t-161 -82z" />
    <glyph glyph-name="florin" unicode="&#x192;" horiz-adv-x="950" 
d="M-219 -410q0 84 80 127q82 -158 172 -157q92 0 153 321l136 692h-183l13 70h186q68 250 228 420q161 170 331 170q133 0 133 -109q0 -76 -78 -137q-114 152 -184 152q-39 0 -72 -32t-78 -148t-88 -316h273l-15 -70h-272l-119 -577q-45 -211 -179 -368t-290 -156
q-49 0 -98 32t-49 86z" />
    <glyph glyph-name="Aringacute" unicode="&#x1fa;" horiz-adv-x="1409" 
d="M1284 2214v-23l-295 -264h-74l187 287h182zM772 1659q0 -59 38 -97t93 -38t93 38t38 97t-38 97t-93 38t-93 -38t-38 -97zM764 1174l-326 -605h412l-84 605h-2zM698 1658q0 85 60 143q60 59 146 59q88 0 146 -58t58 -142q0 -85 -59 -143q-59 -59 -147 -59t-146 58t-58 142
zM-80 0l8 45l135 39l725 1280l144 29l190 -1301l131 -49l-6 -43h-512l6 45l177 45l-54 379h-481l-201 -375l193 -51l-6 -43h-449z" />
    <glyph glyph-name="aringacute" unicode="&#x1fb;" horiz-adv-x="1040" 
d="M1157 1839v-22l-295 -265h-74l187 287h182zM633 1284q0 -59 38 -98t93 -39t94 39t39 98t-39 97t-94 38t-93 -38t-38 -97zM559 1282q0 86 59 143q58 57 146 57t146 -56t58 -141t-58 -143q-60 -58 -147 -58t-145 56t-59 142zM279 123q85 0 237 213t201 364l43 136
q-55 76 -134 76t-173 -107q-94 -106 -159 -268t-73 -312q-1 -102 58 -102zM630 -25q-68 1 -83 57q-14 56 10 111l94 285h-14q-209 -330 -336 -414q-65 -43 -135 -43q-70 1 -114 51t-38 152q6 154 79 306t174 259q101 106 213 174t200 68t145 -35l54 101h112l-250 -900h7
q96 59 194 211l41 -14q-63 -139 -174 -254t-179 -115z" />
    <glyph glyph-name="AEacute" unicode="&#x1fc;" horiz-adv-x="1890" 
d="M1624 1790v-23l-295 -264h-74l187 287h182zM1061 1288h-19l-397 -536h309zM1417 678h-270l-111 -572q41 -33 125 -32h342l223 332h54l-127 -406h-981l10 45l141 45l115 586h-348l-420 -582l201 -51l-9 -43h-444l8 43l115 39l895 1186l-156 49l6 43h957l131 8l-51 -387
h-51l-66 309h-438l-107 -540h275l96 178h49l-86 -432h-55z" />
    <glyph glyph-name="aeacute" unicode="&#x1fd;" horiz-adv-x="1263" 
d="M1128 1550v-16l-282 -399h-53l178 415h157zM1038 915q-82 1 -179 -115t-142 -278q379 127 385 322q4 71 -64 71zM295 86q90 0 205 137q-7 97 18 189l8 32l-149 -49q-176 -57 -182 -180q-3 -55 23 -92t77 -37zM733 -25q-176 0 -223 183h-4q-61 -68 -97 -100
q-93 -83 -210 -83q-77 -1 -139 49t-60 156q4 164 264 238l277 80l39 149q0 262 -156 262q-66 0 -115 -45l-26 -200q-2 0 -21 -8t-55 -7q-35 1 -60 17t-22 59q2 82 130 173t265 101q215 0 211 -223h4q78 98 187 160t196 63q88 0 130 -40t40 -105q-4 -227 -583 -387
q-5 -31 -11 -123t34 -159t110 -66q139 0 278 192l37 -18q-53 -113 -171 -215t-249 -103z" />
    <glyph glyph-name="Oslashacute" unicode="&#x1fe;" horiz-adv-x="1568" 
d="M1247 1790v-23l-295 -264h-73l186 287h182zM348 481q0 -141 41 -245l768 989q-90 106 -225 106t-248 -81t-183 -207q-153 -272 -153 -562zM686 18q176 0 313 142t201 338q64 194 64 372t-66 297l-778 -999q90 -150 266 -150zM125 573q0 199 93 384q94 185 280 311
t424 125q158 0 297 -88l106 137h86l-137 -178q211 -176 211 -492q0 -142 -55 -286q-123 -321 -411 -455q-157 -74 -340 -74t-331 117l-115 -148h-86l150 193q-172 178 -172 454z" />
    <glyph glyph-name="oslashacute" unicode="&#x1ff;" horiz-adv-x="960" 
d="M940 1550v-16l-283 -399h-53l178 415h158zM599 948q-83 0 -167 -116t-138 -284q-54 -169 -54 -319l469 627q-27 92 -110 92zM657 394q79 219 64 384l-477 -635q20 -119 102 -118q84 -1 170 107t141 262zM625 997q84 0 155 -47l99 131h71l-127 -170q100 -106 95 -286
q-10 -154 -79 -298q-69 -143 -201 -247t-296 -105q-102 0 -176 64l-107 -141h-69l137 182q-88 111 -78 273q21 346 280 544q132 100 296 100z" />
    <glyph glyph-name="Scommaaccent" unicode="&#x218;" horiz-adv-x="1085" 
d="M375 -337q0 80 -101 95v6q4 47 40 79t96 32t98 -40q39 -40 39 -95q0 -174 -354 -270l-17 41q109 41 154 77t45 75zM439 33q128 0 221 80t94 196q0 83 -44 143t-161 140l-88 57q-131 92 -177 163t-46 177q0 166 148 285t366 119q127 0 315 -72l-78 -367h-47l-37 303
q-98 68 -213 68q-116 0 -192 -72t-76 -164t36 -146t134 -120l82 -53q156 -102 217 -174t61 -186q0 -193 -162 -319t-360 -126t-393 103l74 397h49l45 -346q104 -86 232 -86z" />
    <glyph glyph-name="scommaaccent" unicode="&#x219;" horiz-adv-x="657" 
d="M557 287q0 -107 -117 -211t-254 -105q-100 1 -159 51t-59 114t52 122h5q90 -104 151 -149q62 -45 114 -45t83 29q31 30 33 69q0 66 -70 160l-107 147q-68 92 -86 128t-16 83q4 121 131 221t242 100q82 1 128 -37t43 -96t-48 -114h-2q-145 145 -244 145q-41 0 -72 -28
q-31 -29 -31 -77t68 -141l107 -145q68 -94 88 -132t20 -89zM111 -337q0 80 -101 95v6q4 47 40 79t95 32t99 -40t39 -95q-1 -174 -355 -270l-16 41q109 41 154 77t45 75z" />
    <glyph glyph-name="uni021A" unicode="&#x21a;" horiz-adv-x="1337" 
d="M465 -337q0 80 -100 95v6q4 47 39 79q36 32 96 32t98 -40q39 -40 39 -95q0 -174 -354 -270l-17 41q109 41 154 77t45 75zM393 1360h867l137 14l-94 -377h-54l-22 295h-320l-239 -1202l143 -47l-8 -43h-506l8 45l156 45l239 1202h-303l-147 -295h-53l63 377z" />
    <glyph glyph-name="uni021B" unicode="&#x21b;" horiz-adv-x="663" 
d="M133 -25q-47 0 -72 36t-8 93l201 783h-182l8 57l201 27l127 280h108l-61 -282h274l-16 -82h-275l-192 -737h6q59 16 148 104t147 170l41 -23q-102 -170 -226 -298t-229 -128zM76 -337q0 80 -101 95v6q4 47 40 79q35 32 95 32t99 -40t39 -95q0 -174 -354 -270l-17 41
q109 41 154 77t45 75z" />
    <glyph glyph-name="uni0237" unicode="&#x237;" horiz-adv-x="495" 
d="M-391 -410q0 84 82 127q80 -158 168 -157q49 0 82 76t82 270l235 934q-61 45 -178 12v27q123 119 239 118q68 0 101 -54t4 -169l-197 -772q-51 -207 -181 -369t-288 -161q-49 0 -99 32t-50 86z" />
    <glyph glyph-name="circumflex" unicode="&#x2c6;" 
d="M246 1135h-64l283 415h86l104 -415h-59l-119 268z" />
    <glyph glyph-name="caron" unicode="&#x2c7;" 
d="M604 1550h62l-283 -415h-86l-104 415h57l119 -274z" />
    <glyph glyph-name="breve" unicode="&#x2d8;" 
d="M389 1161q-113 0 -164 87t-37 253h39q20 -207 174 -207q143 0 224 207h39q-22 -158 -92 -249t-183 -91z" />
    <glyph glyph-name="dotaccent" unicode="&#x2d9;" 
d="M319 1374q0 47 34 81t81 34t81 -34t34 -81t-34 -81q-34 -33 -81 -33t-81 34t-34 80z" />
    <glyph glyph-name="ring" unicode="&#x2da;" horiz-adv-x="536" 
d="M291 1380q0 -59 38 -98t93 -39t94 39t39 98q0 60 -39 98t-94 38t-93 -38t-38 -98zM217 1378q0 86 59 144q58 58 146 57q88 0 146 -56q58 -55 58 -141t-58 -144q-60 -58 -147 -58t-146 56q-58 56 -58 142z" />
    <glyph glyph-name="ogonek" unicode="&#x2db;" horiz-adv-x="841" 
d="M371 -290q0 -87 88 -87q39 1 75 21t95 75l26 -24q-139 -205 -276 -205q-80 0 -122 43t-42 102q1 90 75 162t285 209h50q-158 -142 -206 -198t-48 -98z" />
    <glyph glyph-name="tilde" unicode="&#x2dc;" 
d="M123 1194l-31 16l10 27q102 268 334 149l56 -28q53 -29 86 -34q78 -12 147 116l33 -15l-17 -39q-65 -154 -149 -184t-184 31l-56 27q-94 46 -138 32t-91 -98z" />
    <glyph glyph-name="hungarumlaut" unicode="&#x2dd;" 
d="M737 1550v-18l-260 -397h-49l160 415h149zM440 1550v-18l-260 -397h-49l160 415h149z" />
    <glyph glyph-name="Wgrave" unicode="&#x1e80;" horiz-adv-x="1882" 
d="M868 1790h179l118 -287h-71l-226 264v23zM1147 -14l-125 946l-508 -946h-92l-131 1282l-111 49l8 43h494l-8 -45l-178 -51l90 -1004l418 815l-25 191l-100 51l6 43h487l-8 -45l-180 -51l123 -1004l469 1006l-174 51l6 43h387l-8 -45l-107 -39l-639 -1290h-94z" />
    <glyph glyph-name="wgrave" unicode="&#x1e81;" horiz-adv-x="1331" 
d="M567 1550h162l57 -415h-49l-170 397v18zM1188 750q0 57 -35 87q-63 54 -176 15l2 29q119 119 213 118q68 0 104 -46t37 -122q0 -76 -56 -179t-166 -240t-169 -203l-199 -238h-18l-66 31l3 453h-7q-113 -143 -266 -359l-90 -125h-18l-74 31l-8 836q-69 48 -172 14l2 27
q117 121 225 120q121 0 123 -184l4 -637h6q154 199 268 373l-2 287q-59 46 -172 14l4 27q117 121 224 120q120 0 120 -186l2 -647h7q350 414 350 584z" />
    <glyph glyph-name="Wacute" unicode="&#x1e82;" horiz-adv-x="1882" 
d="M1442 1790v-23l-295 -264h-74l187 287h182zM1147 -14l-125 946l-508 -946h-92l-131 1282l-111 49l8 43h494l-8 -45l-178 -51l90 -1004l418 815l-25 191l-100 51l6 43h487l-8 -45l-180 -51l123 -1004l469 1006l-174 51l6 43h387l-8 -45l-107 -39l-639 -1290h-94z" />
    <glyph glyph-name="wacute" unicode="&#x1e83;" horiz-adv-x="1331" 
d="M1188 750q0 57 -35 87q-63 54 -176 15l2 29q119 119 213 118q68 0 104 -46t37 -122q0 -76 -56 -179t-166 -240t-169 -203l-199 -238h-18l-66 31l3 453h-7q-113 -143 -266 -359l-90 -125h-18l-74 31l-8 836q-69 48 -172 14l2 27q117 121 225 120q121 0 123 -184l4 -637h6
q154 199 268 373l-2 287q-59 46 -172 14l4 27q117 121 224 120q120 0 120 -186l2 -647h7q350 414 350 584zM1061 1550v-16l-283 -399h-53l178 415h158z" />
    <glyph glyph-name="Wdieresis" unicode="&#x1e84;" horiz-adv-x="1882" 
d="M1370 1544q-45 0 -77 32t-31 77q0 45 31 78q32 33 77 33t77 -34q32 -32 32 -77t-32 -77t-77 -32zM934 1544q-45 0 -77 32t-32 77t32 78t77 33t78 -34q32 -32 32 -77t-32 -77t-78 -32zM1147 -14l-125 946l-508 -946h-92l-131 1282l-111 49l8 43h494l-8 -45l-178 -51
l90 -1004l418 815l-25 191l-100 51l6 43h487l-8 -45l-180 -51l123 -1004l469 1006l-174 51l6 43h387l-8 -45l-107 -39l-639 -1290h-94z" />
    <glyph glyph-name="wdieresis" unicode="&#x1e85;" horiz-adv-x="1331" 
d="M1188 750q0 57 -35 87q-63 54 -176 15l2 29q119 119 213 118q68 0 104 -46t37 -122q0 -76 -56 -179t-166 -240t-169 -203l-199 -238h-18l-66 31l3 453h-7q-113 -143 -266 -359l-90 -125h-18l-74 31l-8 836q-69 48 -172 14l2 27q117 121 225 120q121 0 123 -184l4 -637h6
q154 199 268 373l-2 287q-59 46 -172 14l4 27q117 121 224 120q120 0 120 -186l2 -647h7q350 414 350 584zM1098 1374q0 -44 -32 -76t-78 -32t-77 32t-30 76q0 45 30 78q31 33 76 33t78 -33t33 -78zM632 1266q-46 0 -77 30t-31 77q0 46 32 79t77 33t77 -33t32 -78t-32 -77
q-32 -31 -78 -31z" />
    <glyph glyph-name="Ygrave" unicode="&#x1ef2;" horiz-adv-x="1312" 
d="M633 1790h178l119 -287h-72l-225 264v23zM1292 1274l-522 -731l-90 -455l129 -47l-8 -41h-479l10 43l141 45l86 432l-250 746l-116 51l8 43h506l-11 -45l-168 -49l209 -658l449 652l-180 57l8 43h399l-8 -45z" />
    <glyph glyph-name="ygrave" unicode="&#x1ef3;" horiz-adv-x="944" 
d="M379 1550h162l57 -415h-49l-170 397v18zM-156 -524q-70 0 -109 32q-38 32 -39 88t32 91t84 35q50 0 80 -36q30 -34 55 -108h8q100 43 176 144q76 100 117 230q78 246 79 472t-32 320t-84 94q-84 0 -137 -242h-37q10 176 77 288t169 112t160 -118q58 -116 63 -346
q6 -319 -86 -567h14q264 332 322 537q29 102 26 205q-4 150 -96 256q55 37 117 36q104 -1 107 -157t-80 -355t-214 -371t-279 -320q-147 -148 -285 -234t-208 -86z" />
    <glyph glyph-name="uni2009" unicode="&#x2009;" horiz-adv-x="86" 
 />
    <glyph glyph-name="endash" unicode="&#x2013;" horiz-adv-x="917" 
d="M61 514l17 78h778l-16 -78h-779z" />
    <glyph glyph-name="emdash" unicode="&#x2014;" horiz-adv-x="1695" 
d="M61 514l17 78h1558l-16 -78h-1559z" />
    <glyph glyph-name="quoteleft" unicode="&#x2018;" horiz-adv-x="497" 
d="M389 1286q0 -98 109 -127q-6 -139 -125 -139q-47 0 -85 43t-38 123q0 115 83 214t199 156q17 -28 19 -32q-162 -119 -162 -238z" />
    <glyph glyph-name="quoteright" unicode="&#x2019;" horiz-adv-x="497" 
d="M379 1276q0 94 -111 127q10 141 127 141q47 0 85 -43t38 -141t-83 -198q-83 -99 -199 -156q-14 27 -21 30q164 123 164 240z" />
    <glyph glyph-name="quotesinglbase" unicode="&#x201a;" horiz-adv-x="497" 
d="M170 43q0 106 -111 137q10 139 127 139q47 0 85 -43t38 -141t-83 -197t-199 -155q-17 29 -19 31q162 123 162 229z" />
    <glyph glyph-name="quotedblleft" unicode="&#x201c;" horiz-adv-x="872" 
d="M764 1286q0 -98 108 -127q-6 -139 -124 -139q-47 0 -85 43t-38 123q0 115 83 214t199 156q17 -28 19 -32q-162 -119 -162 -238zM389 1286q0 -98 109 -127q-6 -139 -125 -139q-47 0 -85 43t-38 123q0 115 83 214t199 156q17 -28 19 -32q-162 -119 -162 -238z" />
    <glyph glyph-name="quotedblright" unicode="&#x201d;" horiz-adv-x="872" 
d="M754 1276q0 94 -111 127q10 141 127 141q47 0 85 -43t38 -141t-83 -198q-83 -99 -200 -156q-14 27 -20 30q164 123 164 240zM379 1276q0 94 -111 127q10 141 127 141q47 0 85 -43t38 -141t-83 -198q-83 -99 -199 -156q-14 27 -21 30q164 123 164 240z" />
    <glyph glyph-name="quotedblbase" unicode="&#x201e;" horiz-adv-x="872" 
d="M545 43q0 106 -111 137q10 139 127 139q47 0 85 -43t38 -141t-83 -197t-200 -155q-16 29 -18 31q162 123 162 229zM170 43q0 106 -111 137q10 139 127 139q47 0 85 -43t38 -141t-83 -197t-199 -155q-17 29 -19 31q162 123 162 229z" />
    <glyph glyph-name="dagger" unicode="&#x2020;" horiz-adv-x="587" 
d="M174 1194l19 106l202 -18l27 219h110l-63 -219l211 18l-18 -106l-207 16l-82 -514h-115l123 512z" />
    <glyph glyph-name="daggerdbl" unicode="&#x2021;" horiz-adv-x="587" 
d="M174 1194l21 106q109 -16 202 -20q18 118 23 193l2 28h110q-37 -102 -63 -221l211 20l-18 -106q-121 14 -207 18l-45 -223l213 19l-19 -105q-119 14 -207 19q-17 -86 -24 -197l-2 -31l-111 -2q37 111 64 228l-207 -17l20 105q109 -16 201 -19l45 223z" />
    <glyph glyph-name="bullet" unicode="&#x2022;" horiz-adv-x="618" 
d="M294 395q-67 0 -114 48q-47 47 -47 113t48 114t114 49q66 0 114 -47t48 -114t-48 -115t-115 -48z" />
    <glyph glyph-name="ellipsis" unicode="&#x2026;" horiz-adv-x="1507" 
d="M1184 -18q-57 0 -97 38q-39 40 -39 98t39 98t97 40t97 -41q40 -41 40 -98t-40 -96t-97 -39zM664 -18q-57 0 -98 38q-40 38 -40 96t40 99t98 41t97 -41q40 -41 40 -98t-40 -96t-97 -39zM141 -18q-57 0 -96 38t-39 98q0 58 39 98t96 40t97 -40t41 -98q0 -58 -40 -98
q-41 -38 -98 -38z" />
    <glyph glyph-name="perthousand" unicode="&#x2030;" horiz-adv-x="2344" 
d="M1835 -35q-117 0 -189 80t-71 199q0 160 114 278t265 119q116 0 188 -80t72 -199q0 -156 -112 -276t-267 -121zM1950 590q-86 0 -154 -116t-67 -271q0 -186 108 -187q84 0 154 113t69 272q0 189 -110 189zM1100 -35q-117 0 -189 80t-71 199q0 160 114 278t267 119
q115 0 187 -80t71 -199q-1 -156 -113 -276t-266 -121zM1214 590q-86 0 -154 -116t-67 -271q0 -186 109 -187q84 0 154 113t69 272q0 85 -28 137t-83 52zM373 563q-117 0 -189 81t-71 200q-1 158 113 276t268 119q114 0 186 -80t72 -198q0 -156 -112 -277t-267 -121z
M1438 1290l-1211 -1392h-86l1209 1392h88zM487 1188q-85 0 -153 -116t-68 -271q0 -184 109 -185q83 0 153 112t70 271q0 189 -111 189z" />
    <glyph glyph-name="uni2032" unicode="&#x2032;" horiz-adv-x="419" 
d="M473 1528v-17l-287 -462h-47l150 479h184z" />
    <glyph glyph-name="uni2033" unicode="&#x2033;" horiz-adv-x="765" 
d="M819 1528v-17l-287 -462h-47l148 479h186zM473 1528v-17l-287 -462h-47l150 479h184z" />
    <glyph glyph-name="guilsinglleft" unicode="&#x2039;" horiz-adv-x="604" 
d="M494 803l36 -43l-319 -336l205 -328l-45 -35l-326 347v34z" />
    <glyph glyph-name="guilsinglright" unicode="&#x203a;" horiz-adv-x="604" 
d="M55 61l-39 41l322 334l-207 330l45 37l326 -350l-2 -33z" />
    <glyph glyph-name="fraction" unicode="&#x2044;" horiz-adv-x="475" 
d="M-305 -168l-49 45l1235 1602l51 -45z" />
    <glyph glyph-name="Euro" unicode="&#x20ac;" horiz-adv-x="1216" 
d="M944 1241q116 0 180 -49t64 -118t-88 -132q-84 131 -121 166q-57 49 -129 49q-100 0 -198 -113t-158 -280h469l-17 -66h-473q-29 -106 -37 -178h461l-18 -65h-447v-25q0 -334 266 -334q90 0 165 42t165 128l31 -28q-109 -139 -214 -211t-266 -72t-257 119t-97 303
q0 51 2 78h-174l19 65h164q14 90 47 178h-162l18 66h170q103 217 289 347t346 130z" />
    <glyph glyph-name="trademark" unicode="&#x2122;" horiz-adv-x="1478" 
d="M250 1360h502l-29 -184h-33l-24 139h-111l-96 -477l71 -17l-6 -33h-278l6 33l80 17l96 477h-109l-79 -139h-33zM690 788l6 33l68 15l96 477l-59 16l8 31h219l64 -375l215 375h225l-6 -31l-70 -16l-98 -477l67 -15l-8 -33h-268l6 35l76 15l92 456h-6l-240 -415l-37 -70
h-45l-8 68l-74 417h-8l-90 -452l82 -23l-8 -31h-199z" />
    <glyph glyph-name="onethird" unicode="&#x2153;" horiz-adv-x="1486" 
d="M125 -168l-49 45l1235 1602l51 -45zM508 1378l-152 -704l131 -25l-6 -39h-446l6 39l156 25l125 575l-160 -4v37l330 96h16zM1151 676q-94 0 -195 -121l-36 23q53 92 120 144q68 52 164 52t152 -43t57 -106q-1 -131 -237 -203v-8q98 -4 157 -52t60 -120q2 -115 -112 -188
t-259 -72q-88 0 -145 32t-58 82q-2 29 21 56t65 34q76 -160 187 -159q57 0 100 44q43 45 42 111t-67 114t-190 54l10 51q125 25 199 71t74 106q2 42 -29 70t-80 28z" />
    <glyph glyph-name="twothirds" unicode="&#x2154;" horiz-adv-x="1607" 
d="M246 -168l-49 45l1235 1602l51 -45zM1272 676q-94 0 -195 -121l-37 23q53 92 121 144t164 52q97 0 153 -43t56 -106q-2 -131 -238 -203v-8q98 -4 158 -52t59 -120q3 -115 -111 -188t-259 -72q-88 0 -146 32q-57 33 -57 82q-2 29 21 56t65 34q76 -160 186 -159
q57 0 101 44q43 45 42 111t-67 114t-190 54l10 51q125 25 199 71t73 106q2 42 -28 70t-80 28zM506 1145q0 57 -39 93t-105 36q-96 0 -180 -115l-37 21q100 203 304 202q100 0 159 -55q58 -55 60 -138t-63 -155t-202 -168l-176 -125h408l-33 -131h-561l10 43l240 201
q215 178 215 291z" />
    <glyph glyph-name="oneeighth" unicode="&#x215b;" horiz-adv-x="1513" 
d="M1337 614q0 51 -37 86t-90 35t-90 -35t-36 -95t85 -120l62 -43q106 76 106 172zM973 176q0 -63 38 -108t99 -45q61 1 103 35t42 106t-106 147l-57 37q-119 -72 -119 -172zM127 -168l-49 45l1235 1602l51 -45zM510 1378l-152 -704l131 -25l-6 -39h-446l6 39l156 25
l125 575l-160 -4v37l330 96h16zM825 164q1 82 61 130t173 79q-63 43 -88 81t-25 91q0 92 83 161q83 68 197 68t180 -45q64 -45 64 -111t-51 -112q-51 -45 -155 -86l51 -35q96 -70 96 -152q2 -109 -96 -181q-99 -72 -221 -70q-122 0 -196 50t-73 132z" />
    <glyph glyph-name="threeeighths" unicode="&#x215c;" horiz-adv-x="1585" 
d="M1409 614q0 51 -37 86t-90 35t-90 -35t-36 -95t85 -120l62 -43q106 76 106 172zM1044 176q0 -63 38 -108t100 -45q62 1 103 35q42 34 42 106t-106 147l-58 37q-119 -72 -119 -172zM199 -168l-49 45l1234 1602l52 -45zM260 592q-90 0 -147 33t-58 82q-2 31 21 57t65 33
q76 -158 187 -158q57 0 100 43q43 42 42 110t-66 115t-189 54l10 53q125 22 199 68t74 106q2 42 -29 70t-80 28q-92 0 -196 -121l-35 25q111 195 291 194q88 0 145 -42t57 -105q-1 -135 -237 -203l-2 -10q100 -4 158 -52t59 -120q2 -116 -111 -188t-258 -72zM897 164
q0 82 60 130t173 79q-63 43 -88 81t-24 91q0 92 83 161q83 68 197 68t180 -45q64 -45 64 -111t-51 -112q-51 -45 -156 -86l51 -35q96 -70 97 -152q1 -109 -97 -181t-220 -70q-122 0 -196 50t-73 132z" />
    <glyph glyph-name="fiveeighths" unicode="&#x215d;" horiz-adv-x="1587" 
d="M1411 614q0 51 -37 86t-90 35t-90 -35t-36 -95t85 -120l62 -43q106 76 106 172zM1184 23q62 1 103 35q42 34 42 106t-106 147l-58 37q-119 -72 -118 -172q-1 -63 37 -108t100 -45zM201 -168l-49 45l1234 1602l52 -45zM401 1075q100 0 173 -52t73 -142q0 -125 -115 -207
t-264 -82q-82 0 -141 33t-59 84q0 63 86 88q39 -76 82 -114t103 -38t107 41q48 41 48 115q0 75 -54 113t-125 38q-72 0 -153 -34l-15 4l121 438h426l-28 -139h-385l-48 -177q68 31 168 31zM899 164q0 82 60 130t174 79q-63 43 -89 81q-25 38 -24 91q0 92 83 161
q83 68 197 68t180 -45q64 -45 64 -111t-51 -112q-51 -45 -156 -86l52 -35q96 -70 96 -152q2 -109 -96 -181q-99 -72 -221 -70q-122 0 -196 50t-73 132z" />
    <glyph glyph-name="seveneighths" unicode="&#x215e;" horiz-adv-x="1429" 
d="M1251 614q0 51 -37 86t-90 35t-90 -35t-36 -95t85 -120l62 -43q106 76 106 172zM887 176q0 -63 38 -108t99 -45q61 1 103 35t42 106t-106 147l-57 37q-119 -72 -119 -172zM246 610h-127l456 607h-421l30 143h533l-2 -8zM41 -168l-49 45l1235 1602l51 -45zM739 164
q1 82 61 130t173 79q-63 43 -88 81t-25 91q0 92 83 161q83 68 197 68t180 -45q64 -45 64 -111t-51 -112q-51 -45 -155 -86l51 -35q96 -70 96 -152q2 -109 -96 -181q-99 -72 -221 -70q-122 0 -196 50t-73 132z" />
    <glyph glyph-name="minus" unicode="&#x2212;" horiz-adv-x="1144" 
d="M1036 449h-970v79h970v-79z" />
    <glyph glyph-name="approxequal" unicode="&#x2248;" horiz-adv-x="1144" 
d="M821 690q104 0 174 127l64 -31q-51 -90 -107 -133t-140 -43q-83 0 -208 37l-100 31q-129 39 -180 39q-101 0 -177 -131l-63 30q92 180 256 181q72 0 201 -41l98 -31q109 -35 182 -35zM821 385q104 0 174 127l64 -31q-51 -90 -107 -133t-140 -43q-83 0 -208 37l-100 31
q-129 39 -180 39q-103 0 -177 -131l-63 30q92 180 256 181q86 0 201 -39l98 -33q102 -35 182 -35z" />
    <glyph glyph-name="notequal" unicode="&#x2260;" horiz-adv-x="1144" 
d="M88 319v80h344l193 209h-537v80h608l228 248h88l-230 -248h277v-80h-350l-191 -209h541v-80h-615l-227 -245h-82l225 245h-272z" />
    <glyph glyph-name="lessequal" unicode="&#x2264;" horiz-adv-x="1146" 
d="M1055 965l-836 -318l836 -317v-86l-969 370v66l969 369v-84zM1055 0h-967v80h967v-80z" />
    <glyph glyph-name="greaterequal" unicode="&#x2265;" horiz-adv-x="1146" 
d="M90 328l838 317l-838 318v86l969 -369v-66l-969 -370v84zM1057 0h-967v80h967v-80z" />
    <glyph glyph-name="uni24C5" unicode="&#x24c5;" horiz-adv-x="1595" 
d="M1069 838q0 96 -69 139t-171 45l-129 -670l146 -26l-6 -35h-416l6 37l121 24l125 647l-113 29l6 35h334q143 -5 237 -65t93 -156q0 -133 -135 -199q-136 -65 -310 -51l9 33q123 6 197 62q74 55 75 151zM842 1327q-268 1 -464 -191t-204 -464t174 -464t451 -192
q175 0 327 87t244 239t98 330q8 272 -175 464t-451 191zM797 -37q-295 0 -495 206q-199 206 -190 502t223 503q214 206 509 206q296 0 496 -206t190 -503q-10 -296 -224 -502t-509 -206z" />
    <glyph glyph-name="space_uni0326" 
d="M399 -337q0 80 -100 95v6q4 47 40 79t95 32t98 -40t39 -95q0 -174 -354 -270l-16 41q109 41 153 77t45 75z" />
    <glyph glyph-name="caron.alt" 
d="M350 1081h-41l113 406h176l-2 -12z" />
    <glyph glyph-name="space_uni0326.alt" 
d="M455 1456q0 -79 100 -96v-4q-4 -47 -40 -80t-94 -33t-97 41t-39 96q0 177 354 269l14 -41q-109 -39 -153 -75t-45 -77z" />
    <glyph glyph-name="grave.uc" 
d="M240 1790h178l119 -287h-72l-225 264v23z" />
    <glyph glyph-name="dieresis.uc" 
d="M772 1544q-45 0 -77 32t-31 77q0 45 31 78q32 33 77 33t77 -34q32 -32 32 -77t-32 -77t-77 -32zM336 1544q-45 0 -77 32t-32 77t32 78t77 33t78 -34q32 -32 32 -77t-32 -77t-78 -32z" />
    <glyph glyph-name="macron.uc" 
d="M184 1579l25 121h582l-25 -121h-582z" />
    <glyph glyph-name="acute.uc" 
d="M827 1790v-23l-295 -264h-73l186 287h182z" />
    <glyph glyph-name="circumflex.uc" 
d="M342 1503h-84l315 287h132l190 -287h-80l-199 176z" />
    <glyph glyph-name="caron.uc" 
d="M811 1790h84l-317 -287h-129l-191 287h80l197 -180z" />
    <glyph glyph-name="breve.uc" 
d="M538 1495q-116 0 -174 73t-61 204h43q33 -80 80 -117t129 -37q143 0 236 154h40q-25 -123 -101 -200t-192 -77z" />
    <glyph glyph-name="dotaccent.uc" 
d="M446 1655q0 47 35 81t82 34t81 -36q34 -34 34 -80t-34 -80t-81 -34t-82 34t-35 81z" />
    <glyph glyph-name="ring.uc" 
d="M451 1720q-1 -59 37 -97t94 -38t93 38q38 38 38 97q0 60 -38 98t-93 38t-94 -38q-37 -39 -37 -98zM377 1719q0 85 59 143q58 58 146 59q88 0 146 -57q58 -56 58 -142t-59 -144t-146 -58t-146 57q-58 57 -58 142z" />
    <glyph glyph-name="tilde.uc" 
d="M272 1536l-32 14l12 31q72 183 198 177q58 -3 132 -29l59 -23q82 -39 133 -28t100 104l31 -17l-14 -34q-61 -147 -137 -179t-195 21l-57 22q-94 41 -140 32t-90 -91z" />
    <glyph glyph-name="hungarumlaut.uc" 
d="M610 1790v-18l-237 -269h-76l149 287h164zM934 1790v-18l-238 -269h-75l151 287h162z" />
    <glyph glyph-name="cedilla.uc" horiz-adv-x="516" 
d="M143 -315q0 68 -84 104l164 207l72 12l-102 -133q109 -41 108 -133q0 -197 -367 -260l-2 33q211 63 211 170z" />
    <glyph glyph-name="idotaccent" horiz-adv-x="526" 
d="M305 1374q0 47 35 81t82 34t81 -34t33 -81t-36 -81q-35 -33 -82 -33t-80 34t-33 80zM135 -23q-123 0 -80 166l203 699q-55 43 -178 10l4 27q123 119 240 118q66 0 98 -51t2 -153l-180 -643h8q47 31 101 91t89 119l43 -14q-63 -131 -175 -250t-175 -119z" />
    <glyph glyph-name="dollar.lin" horiz-adv-x="1079" 
d="M406 1070q0 -96 38 -148q38 -53 127 -99l103 492q-120 -5 -194 -77t-74 -168zM768 326q0 147 -184 247l-113 -540q121 10 209 92t88 201zM217 971q0 165 135 279t334 130l47 226h66l-47 -224q152 -2 317 -75l-80 -334h-47l-20 266q-86 63 -185 74l-106 -518l80 -39
q258 -127 258 -326t-153 -325t-359 -138l-45 -223h-64l45 221q-186 8 -370 103l73 395h49l31 -330q104 -90 232 -100l118 571l-84 43q-121 61 -173 138t-52 186z" />
    <glyph glyph-name="Euro.lin" horiz-adv-x="1234" 
d="M899 1307q-115 0 -229 -125t-185 -316h529l-19 -65h-532q-33 -111 -45 -209h512l-19 -66h-499v-51q0 -172 84 -266t194 -94t188 46t183 142l35 -37q-215 -301 -488 -301q-197 0 -302 126t-105 341q0 33 4 94h-158l21 66h145q18 115 57 209h-139l19 65h149
q115 236 323 380t386 145q102 1 172 -51t69 -119q0 -37 -20 -66t-70 -65q-121 217 -260 217z" />
    <glyph glyph-name="sterling.lin" horiz-adv-x="1263" 
d="M1012 1495q80 0 142 -44t63 -114q0 -94 -146 -123q-41 211 -137 211q-115 0 -180 -290l-113 -506h403l-14 -68h-403q-70 -313 -351 -487q168 -63 267 -121l82 -47q175 -100 239 -130t105 -30q61 0 80 82q18 82 -13 199q80 1 120 -15t40 -73q0 -85 -102 -181t-236 -96
t-262 62q-127 62 -283 176l-151 112q-96 -39 -152 -39q-111 0 -110 78q0 35 32 60q70 53 281 -17q119 102 172 326l33 141h-234l13 68h235l76 325q41 178 137 308q95 130 191 181q96 52 176 52z" />
    <glyph glyph-name="yen.lin" horiz-adv-x="1269" 
d="M188 557l15 66h334l-228 643l-114 51l6 43h499l-8 -45l-166 -49l195 -607h6l416 601l-180 57l8 43h397l-8 -45l-111 -41l-471 -651h338l-12 -66h-354l-31 -156h352l-12 -65h-352l-50 -248l156 -49l-6 -39h-533l9 43l168 45l49 248h-355l13 65h354l31 156h-355z" />
    <glyph glyph-name="florin.lin" horiz-adv-x="954" 
d="M895 1391q135 1 135 -119q0 -58 -78 -129q-10 10 -43 53t-43 51q-10 7 -24 19t-33 21t-50 9q-32 0 -66 -32t-79 -151q-45 -118 -88 -322l-30 -148h274l-12 -70h-277l-106 -526q-55 -268 -191 -422t-290 -153q-49 0 -99 32q-49 33 -49 86q0 86 82 127q82 -157 172 -157
t150 311l139 702h-183l11 70h186l19 88q55 274 224 467t349 193z" />
    <glyph glyph-name="zero.lin" horiz-adv-x="1314" 
d="M539 20q133 0 245 158t171 373q58 215 59 412q0 371 -199 370q-135 1 -248 -151t-171 -361t-58 -403q0 -398 201 -398zM811 1391q199 0 311 -156t111 -408q0 -137 -47 -285t-130 -278t-218 -215q-135 -84 -293 -84q-197 0 -311 153t-113 394q0 143 47 295t130 283
t218 216t295 85z" />
    <glyph glyph-name="one.lin" horiz-adv-x="790" 
d="M674 1395l-258 -1305l196 -45l-8 -45h-618l6 45l223 45l223 1116l-258 -10l6 51l476 148h12z" />
    <glyph glyph-name="two.lin" horiz-adv-x="1015" 
d="M530 1237q-90 0 -160 -52t-157 -155l-45 27q82 162 184 249t256 87q154 -1 248 -99t94 -233t-91 -265t-290 -304l-364 -316h667l-41 -176h-874l4 47l371 348q186 174 300 326t114 275t-64 182q-62 59 -152 59z" />
    <glyph glyph-name="three.lin" horiz-adv-x="960" 
d="M868 444q0 -196 -180 -336t-405 -141q-119 0 -198 50t-79 135t113 141q82 -244 272 -244q113 0 198 77t85 213t-109 220t-272 107l14 59q225 119 314 201q88 82 88 161q-1 79 -49 117t-128 39q-80 0 -152 -55q-73 -55 -157 -162l-45 27q84 168 186 253t238 85
q137 0 215 -68q78 -67 78 -185q1 -118 -97 -198t-278 -156v-4q156 -35 252 -121t96 -215z" />
    <glyph glyph-name="four.lin" horiz-adv-x="1136" 
d="M182 504h426l115 583zM350 45l176 45l54 272h-566l11 62l878 948l72 -12l-170 -856h260l-25 -142h-264l-53 -272l151 -47l-6 -43h-526z" />
    <glyph glyph-name="five.lin" horiz-adv-x="1009" 
d="M528 831q143 0 258 -93t115 -257q0 -219 -189 -366t-411 -148q-113 0 -193 42t-81 128q0 86 106 146q61 -125 126 -175t169 -50t198 84q95 86 95 232t-87 218t-206 72t-246 -91l-28 7l194 780h641l-39 -182h-571l-98 -406q104 59 247 59z" />
    <glyph glyph-name="six.lin" horiz-adv-x="1136" 
d="M588 743q-135 0 -248 -161q-29 -110 -29 -250q1 -140 53 -227t146 -87q133 0 216 129t83 308q0 127 -60 208q-61 80 -161 80zM1024 483q0 -211 -147 -365t-383 -153q-166 0 -279 116q-113 117 -113 313t89 365q163 309 565 509q180 90 374 135l11 -43
q-258 -106 -463 -276t-299 -390h4q125 148 281 148t258 -98t102 -261z" />
    <glyph glyph-name="seven.lin" horiz-adv-x="954" 
d="M205 0h-137l770 1167h-695l39 193h828l-4 -19z" />
    <glyph glyph-name="eight.lin" horiz-adv-x="1044" 
d="M410 1096q0 -74 36 -130t119 -143l62 -61q221 152 219 360q0 94 -58 152t-147 57q-87 0 -159 -60t-72 -175zM215 284q-1 -106 63 -185t172 -79t181 66q72 66 71 178q0 58 -30 116t-59 92t-103 112l-53 55q-123 -78 -183 -164q-60 -85 -59 -191zM25 260q0 182 183 299
q91 58 216 115l-39 41q-82 85 -118 149t-36 148q-1 139 135 260t298 121t262 -78t100 -205t-125 -231q-95 -79 -239 -150l55 -55q63 -63 93 -97q30 -35 58 -95t29 -124q0 -160 -156 -280q-157 -120 -329 -119q-172 0 -280 83q-107 83 -107 218z" />
    <glyph glyph-name="nine.lin" horiz-adv-x="1120" 
d="M555 582q131 0 266 172q45 141 45 287q0 147 -47 229t-143 82q-134 0 -230 -136t-96 -300q0 -162 56 -248t149 -86zM464 504q-122 0 -224 100t-102 290t153 350q154 159 391 159q168 0 281 -120q113 -119 113 -321t-98 -377q-97 -175 -259 -297q-309 -233 -699 -333
l-14 51q590 219 782 658h-6q-70 -82 -133 -121t-185 -39z" />
    <glyph glyph-name="percent.lin" horiz-adv-x="1658" 
d="M1239 588q-88 0 -155 -115t-66 -270q0 -184 108 -185q84 0 154 112t70 271q0 187 -111 187zM1126 -35q-118 0 -190 80t-72 199q0 160 114 278t267 119q115 0 187 -80t71 -199q-1 -156 -113 -276t-264 -121zM123 -102l1302 1495h88l-1302 -1495h-88zM561 1333
q-89 -1 -155 -115t-66 -270q0 -184 109 -184q83 0 153 112t70 271q0 84 -28 135t-83 51zM446 711q-116 0 -188 80t-72 198q0 160 114 279t265 118q115 0 188 -80t72 -198q0 -156 -112 -277q-113 -120 -267 -120z" />
    <glyph glyph-name="perthousand.lin" horiz-adv-x="2412" 
d="M2015 571q-85 -1 -153 -115t-68 -270q0 -184 111 -184q83 0 153 112t70 271q0 84 -29 135t-84 51zM1903 -51q-117 0 -190 80t-73 198q0 160 114 279t267 119q115 0 187 -80t71 -199q0 -156 -112 -276t-264 -121zM1239 588q-88 0 -155 -115t-66 -270q0 -184 108 -185
q84 0 154 112t70 271q0 187 -111 187zM1126 -35q-118 0 -190 80t-72 199q0 160 114 278t267 119q115 0 187 -80t71 -199q-1 -156 -113 -276t-264 -121zM123 -102l1302 1495h88l-1302 -1495h-88zM561 1333q-89 -1 -155 -115t-66 -270q0 -184 109 -184q83 0 153 112t70 271
q0 84 -28 135t-83 51zM446 711q-116 0 -188 80t-72 198q0 160 114 279t265 118q115 0 188 -80t72 -198q0 -156 -112 -277q-113 -120 -267 -120z" />
    <glyph glyph-name="plus.lin" horiz-adv-x="1144" 
d="M1085 590h-442v-445h-86v445h-442v80h442v444h86v-444h442v-80z" />
    <glyph glyph-name="minus.lin" horiz-adv-x="1144" 
d="M1085 590h-970v80h970v-80z" />
    <glyph glyph-name="multiply.lin" horiz-adv-x="1144" 
d="M981 184l-389 389l-383 -391l-59 58l387 391l-383 389l59 59l385 -387l387 398l57 -60l-389 -395l389 -391z" />
    <glyph glyph-name="divide.lin" horiz-adv-x="1144" 
d="M599 176q-50 0 -87 38t-37 87t37 87t87 38t87 -38t37 -87t-37 -87t-87 -38zM601 831q-50 0 -87 38t-37 87t37 87t87 38t87 -37t37 -87t-37 -88t-87 -38zM1085 590h-970v80h970v-80z" />
    <glyph glyph-name="equal.lin" horiz-adv-x="1144" 
d="M1085 465h-970v80h970v-80zM1085 754h-970v80h970v-80z" />
    <glyph glyph-name="less.lin" horiz-adv-x="1146" 
d="M1081 1026l-866 -399l866 -400v-88l-966 453v70l966 450v-86z" />
    <glyph glyph-name="greater.lin" horiz-adv-x="1146" 
d="M117 227l866 400l-866 397v88l966 -453v-69l-966 -451v88z" />
    <glyph glyph-name="plusminus.lin" horiz-adv-x="1142" 
d="M86 0v78h971v-78h-971zM1083 813h-440v-446h-88v446h-442v80h442v444h88v-444h440v-80z" />
    <glyph glyph-name="notequal.lin" horiz-adv-x="1144" 
d="M115 463v80h346l188 207h-534v79h608l227 248h88l-229 -248h276v-79h-350l-190 -207h540v-80h-614l-227 -248h-82l225 248h-272z" />
    <glyph glyph-name="approxequal.lin" horiz-adv-x="1144" 
d="M367 633q72 0 200 -39l101 -31q117 -37 182 -37q102 0 174 129l61 -32q-51 -89 -107 -133t-134 -44t-211 39l-103 31q-121 37 -178 37q-104 0 -178 -131l-61 31q90 180 254 180zM367 938q66 0 200 -41l101 -31q119 -35 182 -35q102 0 174 127l61 -30q-51 -90 -106 -133
t-143 -43t-203 36l-103 33q-121 37 -178 37q-104 0 -178 -131l-61 31q92 180 254 180z" />
    <glyph glyph-name="lessequal.lin" horiz-adv-x="1146" 
d="M1081 1106l-835 -318l835 -317v-84l-968 369v65l968 369v-84zM1057 0h-969v78h969v-78z" />
    <glyph glyph-name="greaterequal.lin" horiz-adv-x="1146" 
d="M115 471l837 317l-837 318v84l968 -369v-65l-968 -369v84zM1055 0h-967v78h967v-78z" />
    <glyph glyph-name="numbersign.lin" horiz-adv-x="1210" 
d="M571 965l-147 -396h317l148 396h-318zM260 965l16 79h248l119 314h76l-117 -314h316l118 314h76l-117 -314h246l-18 -79h-258l-148 -396h238l-17 -80h-252l-129 -348h-75l129 348h-318l-129 -348h-76l129 348h-241l16 80h256l148 396h-236z" />
    <glyph glyph-name="ordfeminine.lin" horiz-adv-x="937" 
d="M360 727q70 0 183 146t149 272l37 121q-49 68 -113 67q-94 0 -199 -182t-106 -360q1 -29 15 -47t34 -17zM639 588q-102 0 -55 157l55 187h-8q-123 -186 -193 -252q-100 -96 -188 -96q-53 0 -85 40t-32 107q0 143 86 300t212 259t237 103q57 0 118 -37l33 59h101
l-191 -696l6 -2q92 43 183 172l30 -15q-53 -114 -141 -200t-168 -86z" />
    <glyph glyph-name="ordmasculine.lin" horiz-adv-x="851" 
d="M600 1407q118 0 184 -86t66 -207q0 -209 -138 -369t-325 -159q-117 0 -183 87t-67 216q-1 205 137 361t326 157zM393 635q67 0 135 91t107 216t41 229q6 186 -90 187q-70 0 -138 -95t-105 -221q-38 -126 -40 -225q0 -182 90 -182z" />
    <glyph glyph-name="zero.num" horiz-adv-x="808" 
d="M410 631q72 0 134 98t93 222t31 225q0 172 -102 172t-180 -180q-76 -180 -76 -358q0 -179 100 -179zM565 1384q127 0 200 -87t73 -224q0 -180 -120 -331t-308 -150q-129 0 -202 87t-73 245t120 310q120 150 310 150z" />
    <glyph glyph-name="one.num" horiz-adv-x="481" 
d="M510 1378l-152 -704l131 -25l-6 -39h-446l6 39l156 25l125 575l-160 -4v37l330 96h16z" />
    <glyph glyph-name="two.num" horiz-adv-x="624" 
d="M506 1145q0 57 -39 93t-105 36q-96 0 -180 -115l-37 21q100 203 304 202q100 0 159 -55q58 -55 60 -138t-63 -155t-202 -168l-176 -125h408l-33 -131h-561l10 43l240 201q215 178 215 291z" />
    <glyph glyph-name="three.num" horiz-adv-x="600" 
d="M260 592q-90 0 -147 33t-58 82q-2 31 21 57t65 33q76 -158 187 -158q57 0 100 43q43 42 42 110t-66 115t-189 54l10 53q125 22 199 68t74 106q2 42 -29 70t-80 28q-92 0 -196 -121l-35 25q111 195 291 194q88 0 145 -42t57 -105q-1 -135 -237 -203l-2 -10q100 -4 158 -52
t59 -120q2 -116 -111 -188t-258 -72z" />
    <glyph glyph-name="four.num" horiz-adv-x="688" 
d="M180 901h248l66 293zM270 645l107 23l29 135h-347l11 53l559 526l59 -10l-106 -471h149l-20 -98h-150l-31 -135l97 -25l-6 -33h-357z" />
    <glyph glyph-name="five.num" horiz-adv-x="620" 
d="M401 1075q100 0 173 -52t73 -142q0 -125 -115 -207t-264 -82q-82 0 -141 33t-59 84q0 63 86 88q39 -76 82 -114t103 -38t107 41q48 41 48 115q0 75 -54 113t-125 38q-72 0 -153 -34l-15 4l121 438h426l-28 -139h-385l-48 -177q68 31 168 31z" />
    <glyph glyph-name="six.num" horiz-adv-x="696" 
d="M559 874q1 162 -127 162q-64 0 -119 -75q-25 -80 -25 -160t30 -126q28 -46 79 -46q74 0 118 77t44 168zM725 889q0 -127 -92 -213q-93 -86 -227 -86t-206 76t-71 200q0 207 177 358t444 169l4 -39q-299 -80 -412 -316h10q62 62 158 62t156 -60t59 -151z" />
    <glyph glyph-name="seven.num" horiz-adv-x="591" 
d="M246 610h-127l456 607h-421l30 143h533l-2 -8z" />
    <glyph glyph-name="eight.num" horiz-adv-x="647" 
d="M470 1346q-54 0 -91 -35t-36 -95t85 -118l61 -45q106 78 107 172q0 53 -36 87t-90 34zM231 788q0 -63 38 -109q39 -46 99 -46t103 36t41 97q0 82 -104 156l-60 39q-117 -72 -117 -173zM353 592q-121 0 -195 50t-74 132q-2 82 57 129t172 80q-111 80 -111 172t84 161
q84 68 198 68t179 -45t65 -111t-52 -112q-51 -45 -154 -86l51 -35q96 -66 97 -151q0 -108 -98 -180t-219 -72z" />
    <glyph glyph-name="nine.num" horiz-adv-x="700" 
d="M313 1108q1 -162 129 -162q64 0 117 76q20 76 21 158q0 170 -109 170q-70 0 -114 -76t-44 -166zM365 883q-94 0 -155 60q-60 60 -60 169t91 193t222 84t204 -76t72 -201q0 -212 -173 -362t-449 -164l-4 39q311 63 419 319h-12q-61 -61 -155 -61z" />
    <glyph glyph-name="zero.den" horiz-adv-x="808" 
d="M285 20q72 0 134 98t93 222q31 123 31 223q0 174 -101 174q-70 0 -131 -90t-94 -213t-33 -231q1 -183 101 -183zM440 774q127 0 201 -87t74 -224q0 -182 -121 -332t-309 -149q-129 0 -201 87t-72 245t120 310q120 150 308 150z" />
    <glyph glyph-name="one.den" horiz-adv-x="481" 
d="M385 766l-149 -703l129 -24l-7 -39h-446l8 39l156 24l125 576l-160 -6v39l330 94h14z" />
    <glyph glyph-name="two.den" horiz-adv-x="624" 
d="M381 535q0 59 -39 94t-102 35q-98 0 -183 -117l-37 22q100 203 304 203q100 0 159 -56t61 -139t-64 -154q-64 -71 -201 -167l-177 -125h408l-33 -131h-561l10 41l240 203q215 178 215 291z" />
    <glyph glyph-name="three.den" horiz-adv-x="600" 
d="M264 676q-94 0 -194 -121l-37 23q53 92 121 144t164 52t152 -43t56 -106q-1 -131 -237 -203v-8q98 -4 157 -52t60 -120q2 -115 -112 -188t-259 -72q-88 0 -145 32t-58 82q-2 29 21 56t65 34q76 -160 187 -159q57 0 100 44q43 45 42 111t-66 114q-66 48 -191 54l10 51
q125 25 199 71t74 106q2 42 -29 70t-80 28z" />
    <glyph glyph-name="four.den" horiz-adv-x="688" 
d="M57 289h246l68 297zM145 35l107 22l29 133h-347l13 56l559 526l57 -12l-104 -471h147l-18 -99h-152l-28 -133l94 -24l-6 -33h-357z" />
    <glyph glyph-name="five.den" horiz-adv-x="620" 
d="M279 465q98 0 171 -52t72 -143q0 -127 -114 -208t-265 -80q-82 0 -140 32t-58 82q0 63 84 88q78 -152 188 -151q57 0 105 41q47 42 47 116q-1 74 -53 113t-126 39t-153 -37l-12 4l118 441h428l-30 -140h-385l-47 -178q72 33 170 33z" />
    <glyph glyph-name="six.den" horiz-adv-x="696" 
d="M434 264q0 162 -128 162q-64 0 -118 -74q-22 -76 -22 -159t29 -129t77 -46q74 0 118 77t44 169zM384 489q96 0 156 -59t60 -169q0 -109 -91 -195t-225 -86t-206 74t-72 202q0 208 177 358t444 168l4 -39q-303 -82 -412 -315h8q61 61 157 61z" />
    <glyph glyph-name="seven.den" horiz-adv-x="591" 
d="M121 0h-127l457 606h-422l30 144h533l-2 -11z" />
    <glyph glyph-name="eight.den" horiz-adv-x="647" 
d="M471 614q0 51 -37 86t-90 35t-90 -35t-36 -95t85 -120l62 -43q106 76 106 172zM106 176q0 -63 38 -108t100 -45q62 1 103 35q42 34 42 106t-106 147l-58 37q-119 -72 -119 -172zM-41 164q0 82 60 130t174 79q-63 43 -89 81q-25 38 -24 91q0 92 83 161q83 68 197 68
t180 -45q64 -45 64 -111t-51 -112q-51 -45 -156 -86l52 -35q96 -70 96 -152q2 -109 -96 -181q-99 -72 -221 -70q-122 0 -196 50t-73 132z" />
    <glyph glyph-name="nine.den" horiz-adv-x="700" 
d="M190 505q0 -171 124 -171q60 0 120 76q20 76 21 159q0 170 -107 170q-70 1 -114 -75t-44 -159zM25 485q0 125 91 209t223 84t204 -76t71 -200q0 -211 -172 -363t-448 -164l-4 39q315 66 418 318h-11q-59 -60 -156 -60t-157 60t-59 153z" />
    <glyph glyph-name="zero.sub" horiz-adv-x="808" 
d="M264 -82q72 0 134 98t94 222t30 223q0 174 -100 174q-70 0 -131 -90t-94 -213t-33 -232q0 -182 100 -182zM420 672q127 0 201 -87t73 -225q0 -182 -121 -332t-309 -149q-129 0 -201 87t-71 229q0 177 120 327t308 150z" />
    <glyph glyph-name="one.sub" horiz-adv-x="481" 
d="M367 664l-152 -703l129 -24l-6 -39h-444l6 39l155 24l125 576l-160 -7v39l330 95h17z" />
    <glyph glyph-name="two.sub" horiz-adv-x="624" 
d="M360 432q0 59 -38 94q-39 35 -103 35q-100 0 -180 -117l-39 23q102 203 303 203q99 0 159 -56t61 -140t-63 -154t-202 -166l-176 -125h407l-30 -131h-561l8 41l239 202q215 178 215 291z" />
    <glyph glyph-name="three.sub" horiz-adv-x="600" 
d="M115 -121q-88 0 -146 33q-57 33 -57 82q-2 30 20 56t66 34q76 -160 186 -160q57 0 101 44q43 44 42 111t-67 115t-190 54l10 51q125 25 199 71t73 105q2 43 -28 71q-31 28 -80 27q-94 0 -195 -120l-37 22q53 93 121 145t164 52q97 0 153 -43t56 -107q-3 -131 -236 -203
l-2 -10q98 -4 158 -51t59 -119q3 -115 -111 -187t-259 -73z" />
    <glyph glyph-name="four.sub" horiz-adv-x="688" 
d="M37 186h248l65 297zM125 -68l108 23l29 133h-348l12 55l559 527l58 -13l-105 -471h148l-19 -98h-151l-29 -133l96 -25l-8 -32h-356z" />
    <glyph glyph-name="five.sub" horiz-adv-x="620" 
d="M502 168q0 -127 -115 -208t-264 -81q-82 0 -140 32t-59 83q0 63 84 88q78 -152 189 -152q57 0 104 41t47 116t-52 114t-126 39t-154 -37l-12 4l119 440h428l-31 -139h-385l-47 -178q72 32 171 32t171 -52t72 -142z" />
    <glyph glyph-name="six.sub" horiz-adv-x="696" 
d="M414 162q0 162 -128 162q-64 0 -118 -76q-23 -74 -23 -157t29 -129t78 -46q76 0 119 77t43 169zM364 387q96 0 156 -59t60 -169t-92 -196t-225 -86q-134 0 -206 75t-71 202q0 208 177 358t443 168l4 -39q-303 -82 -411 -315h8q61 61 157 61z" />
    <glyph glyph-name="seven.sub" horiz-adv-x="591" 
d="M100 -102h-127l457 606h-422l33 143h530l-2 -10z" />
    <glyph glyph-name="eight.sub" horiz-adv-x="647" 
d="M326 633q-53 0 -91 -36t-36 -95t84 -119l61 -43q109 78 109 172q-2 51 -38 86t-89 35zM86 74q0 -62 38 -108t99 -46t104 35q42 35 42 96q-1 84 -107 158l-57 37q-119 -72 -119 -172zM-61 61q0 82 61 130t172 79q-63 43 -88 81t-25 91q0 92 83 161q84 69 198 69t179 -45
t65 -112t-52 -112t-155 -86l51 -34q96 -70 98 -152q0 -109 -97 -181t-219 -71q-122 0 -197 50q-74 50 -74 132z" />
    <glyph glyph-name="nine.sub" horiz-adv-x="700" 
d="M170 402q0 -171 126 -171q62 0 120 80q20 74 20 156q0 170 -108 170q-70 0 -114 -76t-44 -159zM220 170q-98 0 -157 60t-59 169t91 193t223 84t204 -76t72 -201q0 -211 -172 -363t-449 -163l-4 39q313 63 420 317h-12q-59 -59 -157 -59z" />
    <glyph glyph-name="plus.sub" horiz-adv-x="681" 
d="M573 215h-256v-235h-69v235h-256v64h256v235h69v-235h256v-64z" />
    <glyph glyph-name="minus.sub" horiz-adv-x="681" 
d="M573 215h-581v64h581v-64z" />
    <glyph glyph-name="zero.sup" horiz-adv-x="808" 
d="M442 799q72 0 135 98q62 98 93 222t30 224q0 174 -100 175q-70 0 -131 -90t-94 -214q-33 -123 -33 -231q0 -184 100 -184zM598 1552q127 0 200 -87t72 -224q0 -180 -120 -330t-308 -149q-130 0 -202 87t-72 245t120 308t310 150z" />
    <glyph glyph-name="one.sup" horiz-adv-x="481" 
d="M543 1546l-152 -704l131 -25l-6 -37h-446l6 37l155 25l125 575l-159 -4v39l329 94h17z" />
    <glyph glyph-name="two.sup" horiz-adv-x="624" 
d="M539 1313q0 57 -39 93t-105 36q-96 0 -180 -115l-37 23q100 203 303 202q99 0 159 -56t61 -139t-65 -155t-200 -166l-176 -127h408l-33 -129h-561l10 41l240 201q215 178 215 291z" />
    <glyph glyph-name="three.sup" horiz-adv-x="600" 
d="M293 760q-88 0 -147 34q-58 34 -58 83q-2 29 22 55t66 33q74 -158 184 -158q57 0 101 44q43 45 42 111t-66 113t-189 53l10 54q125 24 199 70t73 104q2 44 -28 72t-80 28q-92 0 -197 -121l-35 23q109 195 291 194q87 0 145 -42t58 -105q-2 -135 -238 -203l-2 -10
q100 -4 160 -51t60 -121q0 -112 -113 -186t-258 -74z" />
    <glyph glyph-name="four.sup" horiz-adv-x="688" 
d="M215 1069h246l65 295zM303 813l107 23l28 135h-346l10 53l560 526l59 -10l-107 -471h150l-21 -98h-149l-31 -135l96 -23l-6 -33h-356z" />
    <glyph glyph-name="five.sup" horiz-adv-x="620" 
d="M434 1243q100 0 173 -51t73 -141q0 -127 -115 -209t-264 -82q-82 0 -140 33t-59 84q0 66 84 88q39 -76 82 -114q44 -38 104 -38t107 41t47 115q0 75 -53 113t-125 38t-153 -35l-15 5l121 438h426l-29 -139h-385l-47 -177q68 31 168 31z" />
    <glyph glyph-name="six.sup" horiz-adv-x="696" 
d="M475 1206q-76 0 -131 -80q-22 -74 -22 -154t28 -128q28 -47 80 -47q74 1 118 77t44 160t-32 128t-85 44zM440 760q-136 0 -207 75q-72 75 -71 199q0 207 177 358t443 169l4 -39q-299 -80 -411 -314h10q59 60 157 60t156 -60q60 -60 60 -168q0 -110 -91 -195t-227 -85z
" />
    <glyph glyph-name="seven.sup" horiz-adv-x="591" 
d="M279 780h-127l456 604h-422l31 144h533l-2 -8z" />
    <glyph glyph-name="eight.sup" horiz-adv-x="647" 
d="M503 1516q-54 0 -91 -35t-36 -97t85 -118l61 -43q106 74 107 170q0 53 -36 88t-90 35zM264 956q0 -63 38 -109t98 -46t104 36q43 36 41 97q-1 82 -105 156l-59 38q-117 -72 -117 -172zM760 1396q0 -66 -50 -112q-50 -47 -153 -86l49 -33q96 -70 96 -151q0 -111 -97 -183
q-97 -71 -219 -71t-196 50q-73 50 -73 132q-2 82 58 130t171 79q-61 45 -86 84t-24 90q0 90 82 159q84 68 198 68t179 -45t65 -111z" />
    <glyph glyph-name="nine.sup" horiz-adv-x="700" 
d="M346 1283q0 -169 126 -169q62 0 120 74q20 76 20 160q0 170 -108 170q-70 0 -114 -76t-44 -159zM398 1051q-94 0 -155 60t-61 169t91 193q91 83 223 83t204 -76t72 -200q0 -212 -173 -362t-449 -162l-5 37q311 63 420 319h-12q-61 -61 -155 -61z" />
    <glyph glyph-name="plus.sup" horiz-adv-x="681" 
d="M750 1098h-254v-236h-72v236h-254v63h254v236h72v-236h254v-63z" />
    <glyph glyph-name="minus.sup" horiz-adv-x="681" 
d="M750 1098h-580v63h580v-63z" />
    <glyph glyph-name="A.alt" horiz-adv-x="1351" 
d="M868 1171l-389 -569h389l2 569h-2zM868 518h-446l-289 -424l193 -51l-9 -43h-440l8 45l121 39l916 1280l67 12l82 17v-1301l119 -49l-6 -43h-498l6 45l176 45v428z" />
    <glyph glyph-name="M.alt" horiz-adv-x="1865" 
d="M-63 0l10 45l141 45l377 1174l-127 53l8 43h365l155 -998l598 998h328l-10 -45l-142 -45l-61 -1180l127 -47l-6 -43h-508l6 45l176 45l64 1077l-584 -983l-66 -129h-73l-15 129l-176 1041l-344 -1135l162 -47l-6 -43h-399z" />
    <glyph glyph-name="V.alt" horiz-adv-x="1302" 
d="M303 -14l-22 1282l-101 49l8 43h490l-8 -45l-178 -51l6 -1002h4l715 1004l-177 51l7 43h391l-8 -45l-97 -39l-958 -1290h-72z" />
    <glyph glyph-name="W.alt" horiz-adv-x="1839" 
d="M965 -14l4 964l-637 -964h-92l43 1282l-103 49l8 43h494l-8 -45l-178 -51l-47 -992l522 822v172l-101 51l7 43h491l-10 -45l-178 -51l-15 -996l602 998l-186 51l6 43h389l-8 -45l-98 -39l-811 -1290h-94z" />
    <glyph glyph-name="h.alt" horiz-adv-x="974" 
d="M424 -20q-32 0 -54 20t-22 54t35 77q33 -27 83 -42t75 -11q61 98 128 280t70 381q0 102 -61 103q-90 0 -236 -201t-211 -440l-51 -185l-168 -45l-24 27l354 1348l-115 90l6 16l336 78l-256 -983h9q270 451 481 450q147 0 141 -192q-2 -176 -87 -372q-85 -197 -207 -325
t-226 -128z" />
    <glyph glyph-name="v.alt" horiz-adv-x="1044" 
d="M500 799h-269q-72 0 -71 -37q0 -22 19 -40q45 -41 83 -67q-35 -104 -121 -104q-37 0 -63 28t-25 66q-1 96 101 210t208 114h283v-19l-100 -170q-158 -266 -158 -424q-4 -90 43 -138t121 -48q125 0 217 136t92 323q0 128 -40 217q-13 31 -46 94q53 43 119 43
q113 0 113 -172t-85 -365q-85 -192 -225 -330t-272 -139q-92 -1 -150 59t-57 171q2 164 211 481l72 109v2z" />
    <glyph glyph-name="w.alt" horiz-adv-x="1435" 
d="M236 799q-74 0 -74 -35t98 -109q-35 -104 -119 -104q-39 0 -63 28t-25 66q1 96 103 210t206 114h285v-19l-98 -166q-63 -106 -95 -163t-68 -143t-41 -158q-5 -70 25 -116t95 -46q127 0 264 188q29 346 96 588q35 49 89 49t72 -41t-1 -88q-182 -479 -190 -500
q12 -92 63 -141t131 -49q117 0 195 119t78 303t-109 352q45 45 121 45q113 0 112 -221q0 -84 -30 -210q-80 -329 -236 -480q-94 -92 -202 -92q-203 0 -187 280h-6q-79 -123 -189 -203t-198 -80q-88 -1 -140 63q-123 150 95 475q45 67 125 175l80 107v2h-262z" />
    <glyph glyph-name="Aacute.alt" horiz-adv-x="1351" 
d="M1323 1790v-23l-295 -264h-74l187 287h182zM868 1171l-389 -569h389l2 569h-2zM868 518h-446l-289 -424l193 -51l-9 -43h-440l8 45l121 39l916 1280l67 12l82 17v-1301l119 -49l-6 -43h-498l6 45l176 45v428z" />
    <glyph glyph-name="Abreve.alt" horiz-adv-x="1351" 
d="M1009 1495q-116 0 -174 73t-61 204h43q33 -80 80 -117t129 -37q143 0 236 154h41q-25 -123 -101 -200t-193 -77zM868 1171l-389 -569h389l2 569h-2zM868 518h-446l-289 -424l193 -51l-9 -43h-440l8 45l121 39l916 1280l67 12l82 17v-1301l119 -49l-6 -43h-498l6 45
l176 45v428z" />
    <glyph glyph-name="Acircumflex.alt" horiz-adv-x="1351" 
d="M770 1503h-84l315 287h132l190 -287h-80l-199 176zM868 1171l-389 -569h389l2 569h-2zM868 518h-446l-289 -424l193 -51l-9 -43h-440l8 45l121 39l916 1280l67 12l82 17v-1301l119 -49l-6 -43h-498l6 45l176 45v428z" />
    <glyph glyph-name="Adieresis.alt" horiz-adv-x="1351" 
d="M1249 1544q-45 0 -77 32t-31 77q0 45 31 78q32 33 77 33t77 -34q32 -32 32 -77t-32 -77t-77 -32zM813 1544q-45 0 -77 32t-31 77q0 45 31 78q32 33 77 33t78 -34q33 -32 33 -77t-33 -77t-78 -32zM868 1171l-389 -569h389l2 569h-2zM868 518h-446l-289 -424l193 -51
l-9 -43h-440l8 45l121 39l916 1280l67 12l82 17v-1301l119 -49l-6 -43h-498l6 45l176 45v428z" />
    <glyph glyph-name="Agrave.alt" horiz-adv-x="1351" 
d="M750 1790h178l119 -287h-72l-225 264v23zM868 1171l-389 -569h389l2 569h-2zM868 518h-446l-289 -424l193 -51l-9 -43h-440l8 45l121 39l916 1280l67 12l82 17v-1301l119 -49l-6 -43h-498l6 45l176 45v428z" />
    <glyph glyph-name="Amacron.alt" horiz-adv-x="1351" 
d="M731 1579l25 121h581l-24 -121h-582zM868 1171l-389 -569h389l2 569h-2zM868 518h-446l-289 -424l193 -51l-9 -43h-440l8 45l121 39l916 1280l67 12l82 17v-1301l119 -49l-6 -43h-498l6 45l176 45v428z" />
    <glyph glyph-name="Aogonek.alt" horiz-adv-x="1351" 
d="M868 1171l-389 -569h389l2 569h-2zM629 -285q0 -92 90 -92q41 -1 76 19t94 77l26 -24q-139 -205 -276 -205q-78 0 -120 43t-42 102q0 90 77 164t314 238v481h-446l-289 -424l193 -51l-9 -43h-440l8 45l121 39l916 1280l67 12l82 17v-1301l119 -49l-6 -43h-281
q-274 -170 -274 -285z" />
    <glyph glyph-name="Aring.alt" horiz-adv-x="1351" 
d="M922 1720q0 -59 38 -97t92 -38q56 0 94 38t38 97q0 60 -38 98t-93 38t-94 -38q-37 -39 -37 -98zM868 1171l-389 -569h389l2 569h-2zM848 1719q0 85 59 143t147 59q88 0 145 -57q58 -56 58 -142t-59 -144t-146 -58t-146 57q-58 57 -58 142zM868 518h-446l-289 -424
l193 -51l-9 -43h-440l8 45l121 39l916 1280l67 12l82 17v-1301l119 -49l-6 -43h-498l6 45l176 45v428z" />
    <glyph glyph-name="Aringacute.alt" horiz-adv-x="1351" 
d="M1444 2222v-22l-295 -265h-74l187 287h182zM928 1677q0 -59 38 -97t93 -38t93 38t38 97t-38 97t-93 38t-93 -38t-38 -97zM868 1171l-389 -569h389l2 569h-2zM854 1676q0 86 59 144t147 58t145 -57q59 -57 59 -143t-60 -143q-60 -58 -146 -58q-87 0 -146 57
q-58 57 -58 142zM868 518h-446l-289 -424l193 -51l-9 -43h-440l8 45l121 39l916 1280l67 12l82 17v-1301l119 -49l-6 -43h-498l6 45l176 45v428z" />
    <glyph glyph-name="Atilde.alt" horiz-adv-x="1351" 
d="M739 1536l-32 14l12 31q72 183 197 177q58 -3 133 -29l59 -23q82 -39 133 -28t100 104l31 -17l-14 -34q-61 -147 -137 -179t-195 21l-57 22q-93 41 -139 32t-91 -91zM868 1171l-389 -569h389l2 569h-2zM868 518h-446l-289 -424l193 -51l-9 -43h-440l8 45l121 39l916 1280
l67 12l82 17v-1301l119 -49l-6 -43h-498l6 45l176 45v428z" />
    <glyph glyph-name="Wacute.alt" horiz-adv-x="1839" 
d="M1450 1790v-23l-295 -264h-74l187 287h182zM965 -14l4 964l-637 -964h-92l43 1282l-103 49l8 43h494l-8 -45l-178 -51l-47 -992l522 822v172l-101 51l7 43h491l-10 -45l-178 -51l-15 -996l602 998l-186 51l6 43h389l-8 -45l-98 -39l-811 -1290h-94z" />
    <glyph glyph-name="Wcircumflex.alt" horiz-adv-x="1839" 
d="M877 1503h-84l315 287h131l191 -287h-80l-199 176zM965 -14l4 964l-637 -964h-92l43 1282l-103 49l8 43h494l-8 -45l-178 -51l-47 -992l522 822v172l-101 51l7 43h491l-10 -45l-178 -51l-15 -996l602 998l-186 51l6 43h389l-8 -45l-98 -39l-811 -1290h-94z" />
    <glyph glyph-name="Wdieresis.alt" horiz-adv-x="1839" 
d="M1366 1544q-45 0 -77 32t-32 77t32 78t77 33t77 -34q32 -32 32 -77t-32 -77t-77 -32zM930 1544q-45 0 -77 32t-32 77t32 78t77 33t78 -34q32 -32 32 -77t-32 -77t-78 -32zM965 -14l4 964l-637 -964h-92l43 1282l-103 49l8 43h494l-8 -45l-178 -51l-47 -992l522 822v172
l-101 51l7 43h491l-10 -45l-178 -51l-15 -996l602 998l-186 51l6 43h389l-8 -45l-98 -39l-811 -1290h-94z" />
    <glyph glyph-name="Wgrave.alt" horiz-adv-x="1839" 
d="M877 1790h178l119 -287h-72l-225 264v23zM965 -14l4 964l-637 -964h-92l43 1282l-103 49l8 43h494l-8 -45l-178 -51l-47 -992l522 822v172l-101 51l7 43h491l-10 -45l-178 -51l-15 -996l602 998l-186 51l6 43h389l-8 -45l-98 -39l-811 -1290h-94z" />
    <glyph glyph-name="hbar.alt" horiz-adv-x="974" 
d="M424 -20q-32 0 -54 20t-22 52t35 79q35 -27 84 -42t74 -11q61 98 128 280t70 381q0 102 -59 103q-92 0 -238 -201t-211 -440l-51 -185l-168 -45l-24 27l301 1145h-139l18 69h139l37 144l-117 80l6 16l336 78l-82 -318h363l-19 -69h-362l-156 -596h9q270 451 481 450
q147 0 141 -192q-2 -176 -87 -372q-85 -197 -207 -325t-226 -128z" />
    <glyph glyph-name="hcircumflex.alt" horiz-adv-x="974" 
d="M506 1567h-84l315 286h131l191 -286h-80l-199 176zM424 -20q-32 0 -54 20t-22 54t35 77q33 -27 83 -42t75 -11q61 98 128 280t70 381q0 102 -61 103q-90 0 -236 -201t-211 -440l-51 -185l-168 -45l-24 27l354 1348l-115 90l6 16l336 78l-256 -983h9q270 451 481 450
q147 0 141 -192q-2 -176 -87 -372q-85 -197 -207 -325t-226 -128z" />
    <glyph glyph-name="wacute.alt" horiz-adv-x="1435" 
d="M236 799q-74 0 -74 -35t98 -109q-35 -104 -119 -104q-39 0 -63 28t-25 66q1 96 103 210t206 114h285v-19l-98 -166q-193 -313 -203 -454q-6 -80 24 -126t95 -46q127 0 264 188q29 346 96 588q35 49 89 49t72 -41t-1 -88q-182 -479 -190 -500q12 -92 63 -141t131 -49
q117 0 195 119t78 303t-109 352q45 45 121 45q113 0 112 -221q0 -84 -30 -210q-80 -329 -236 -480q-94 -92 -202 -92q-203 0 -187 280h-6q-79 -123 -189 -203t-198 -80q-88 -1 -140 63q-108 132 31 376q70 121 189 274l80 107v2h-262zM1247 1550v-16l-282 -399h-54l179 415
h157z" />
    <glyph glyph-name="wcircumflex.alt" horiz-adv-x="1435" 
d="M768 1135h-63l282 415h86l105 -415h-60l-119 268zM236 799q-74 0 -74 -35t98 -109q-35 -104 -119 -104q-39 0 -63 28t-25 66q1 96 103 210t206 114h285v-19l-98 -166q-63 -106 -95 -163t-68 -143t-41 -158q-5 -70 25 -116t95 -46q127 0 264 188q29 346 96 588
q35 49 89 49t72 -41t-1 -88q-182 -479 -190 -500q12 -92 63 -141t131 -49q117 0 195 119t78 303t-109 352q45 45 121 45q113 0 112 -221q0 -84 -30 -210q-80 -329 -236 -480q-94 -92 -202 -92q-203 0 -187 280h-6q-79 -123 -189 -203t-198 -80q-88 -1 -140 63
q-108 132 31 376q70 121 189 274l80 107v2h-262z" />
    <glyph glyph-name="wdieresis.alt" horiz-adv-x="1435" 
d="M236 799q-74 0 -74 -35t98 -109q-35 -104 -119 -104q-39 0 -63 28t-25 66q1 96 103 210t206 114h285v-19l-98 -166q-193 -313 -203 -454q-6 -80 24 -126t95 -46q127 0 264 188q29 346 96 588q35 49 89 49t72 -41t-1 -88q-182 -479 -190 -500q12 -92 63 -141t131 -49
q117 0 195 119t78 303t-109 352q45 45 121 45q113 0 112 -221q0 -84 -30 -210q-80 -329 -236 -480q-94 -92 -202 -92q-203 0 -187 280h-6q-79 -123 -189 -203t-198 -80q-88 -1 -140 63q-108 132 31 376q70 121 189 274l80 107v2h-262zM1284 1374q0 -44 -32 -76t-77 -32
q-46 0 -77 32t-31 76q0 45 31 78t76 33q46 0 78 -33t32 -78zM819 1266q-45 0 -77 30t-32 77q0 46 32 79t77 33t77 -33t32 -78q0 -44 -32 -76t-77 -32z" />
    <glyph glyph-name="wgrave.alt" horiz-adv-x="1435" 
d="M754 1550h161l58 -415h-49l-170 397v18zM236 799q-74 0 -74 -35t98 -109q-35 -104 -119 -104q-39 0 -63 28t-25 66q1 96 103 210t206 114h285v-19l-98 -166q-193 -313 -203 -454q-6 -80 24 -126t95 -46q127 0 264 188q29 346 96 588q35 49 89 49t72 -41t-1 -88
q-182 -479 -190 -500q12 -92 63 -141t131 -49q117 0 195 119t78 303t-109 352q45 45 121 45q113 0 112 -221q0 -84 -30 -210q-80 -329 -236 -480q-94 -92 -202 -92q-203 0 -187 280h-6q-79 -123 -189 -203t-198 -80q-88 -1 -140 63q-108 132 31 376q70 121 189 274l80 107v2
h-262z" />
    <glyph glyph-name="bullet.alt" horiz-adv-x="690" 
d="M276 1305q32 0 63 -9q30 -9 59 -44q28 -34 34 -44t24 -36t23 -33h15q76 59 112 79t81 19q46 0 77 -32t31 -84t-37 -90t-80 -38q-42 -1 -62 11q-57 34 -83 63q-25 29 -46 45h-6q-49 -45 -49 -94t56 -102q19 -17 59 -50q121 -96 121 -164t-50 -103q-50 -34 -108 -17
q-23 -50 -72 -50q-48 0 -74 23q-37 33 -72 117q-34 84 -95 84q-68 0 -84 -82h-21q-12 68 26 114t90 46q90 1 137 -79q17 -30 42 -55t49 -24q57 0 58 59q0 43 -69 113t-69 136t90 134l-2 4q-102 -32 -154 -32t-81 30t-29 79q0 48 32 77t64 29zM537 1481q47 0 75 -30t27 -67
q0 -79 -115 -172l-18 -18h-14q-6 6 -21 38q-15 34 -31 68t-16 76t33 74q33 31 80 31z" />
    <glyph glyph-name="f.short" horiz-adv-x="622" 
d="M754 1530q63 0 101 -28t37 -76t-81 -117q-72 94 -100 108q-20 12 -41 13q-52 0 -100 -98t-107 -363h242l-21 -82h-240l-163 -819q-53 -262 -189 -429t-303 -167q-49 0 -95 34t-46 84q0 82 84 127q90 -158 172 -157q45 0 78 74t67 247l201 1006h-176l12 82h186
q70 227 215 394t267 167z" />
    <glyph glyph-name="f_f.short" horiz-adv-x="1155" 
d="M745 1352q-81 0 -151 -82t-129 -301h340q39 137 125 274q-81 109 -185 109zM831 1444q100 0 187 -82q141 168 268 168q64 0 102 -28t36 -76t-81 -117q-37 49 -53 67q-46 52 -90 54q-51 0 -98 -98t-107 -363h240l-18 -82h-240l-152 -754q-57 -283 -195 -437t-282 -155
q-55 0 -94 36t-39 83q0 76 74 113q80 -145 162 -146q43 0 75 71t70 251l188 938h-340l-163 -819q-53 -260 -189 -428t-301 -168q-49 0 -96 34t-47 84q0 82 84 127q90 -158 172 -157q47 0 80 76t65 245l189 942q2 12 16 64h-182l14 82h197q84 195 241 335q158 140 307 140z
" />
    <glyph glyph-name="f_h.alt" horiz-adv-x="1544" 
d="M758 1436q-84 0 -161 -100t-136 -367h219l-21 -82h-215l-163 -819q-53 -262 -189 -429t-303 -167q-49 0 -95 34t-46 84q0 82 84 127q90 -158 172 -157q45 0 78 74t67 249l203 1004h-178l12 82h184q64 219 238 390t342 171q66 0 125 -45l162 45l-256 -983h10
q266 451 481 450q145 0 141 -184t-89 -380q-84 -197 -206 -325t-227 -128q-31 0 -53 20t-23 54q0 34 35 77q35 -27 85 -42t75 -11q87 142 141 333q54 190 56 328q0 102 -60 103q-92 0 -237 -201t-211 -440l-51 -185l-168 -45l-25 27l358 1362q-71 76 -155 76z" />
    <glyph glyph-name="f_f_h.alt" horiz-adv-x="2076" 
d="M745 1352q-81 0 -151 -82t-129 -301h338q41 141 133 270q-82 113 -191 113zM1291 1436q-85 0 -161 -98t-137 -369h219l-22 -82h-215l-150 -754q-57 -283 -194 -437t-283 -155q-55 0 -94 36t-39 83q0 72 74 113q78 -143 162 -144q43 0 77 72t68 248l188 938h-340
l-163 -819q-53 -262 -189 -429t-303 -167q-49 0 -95 34t-46 84q0 82 84 127q90 -158 172 -157q47 0 80 76t65 245l189 942q2 12 16 64h-182l14 82h197q84 195 241 335q158 140 307 140q109 0 199 -94q180 180 350 180q72 0 127 -45l164 45l-256 -983h8q270 451 482 450
q147 0 141 -192q-2 -176 -87 -372q-85 -197 -208 -325t-227 -128q-31 0 -53 20q-50 46 12 131q35 -27 85 -42t74 -11q61 98 128 280t71 381q0 102 -61 103q-90 0 -236 -201t-211 -440l-51 -185l-170 -45l-22 27l356 1360q-70 78 -155 78z" />
    <glyph glyph-name="i.ger" horiz-adv-x="526" 
d="M399 1440q47 0 81 -34t33 -81t-36 -82t-82 -35t-80 35q-32 35 -32 82q2 47 35 81q34 34 81 34zM136 -23q-124 0 -81 166l203 699q-55 43 -178 10l4 27q123 119 240 118q66 0 98 -51t2 -153l-180 -643h8q104 68 188 208l43 -14q-61 -131 -172 -249t-175 -118z" />
    <glyph glyph-name="j.ger" horiz-adv-x="495" 
d="M397 1440q47 0 81 -34t34 -81t-36 -82t-83 -35t-80 35q-32 35 -32 82q2 47 35 81q34 34 81 34zM-391 -410q0 84 82 127q80 -158 168 -157q49 0 82 76t82 270l235 934q-61 45 -178 12v27q123 119 239 118q68 0 101 -54t4 -169l-197 -772q-51 -207 -181 -369t-288 -161
q-49 0 -99 32t-50 86z" />
    <glyph glyph-name="adieresis.ger" horiz-adv-x="1040" 
d="M557 1208q-45 0 -77 31t-32 77t32 79t77 33t77 -34q32 -32 32 -77t-32 -77t-77 -32zM912 1208q-46 0 -76 32t-31 77q0 45 31 78q32 33 76 33t77 -34q33 -32 33 -77t-32 -77t-78 -32zM279 123q85 0 237 213t201 364l43 136q-55 76 -134 76t-173 -107q-94 -106 -159 -268
t-73 -312q-1 -102 58 -102zM630 -25q-68 1 -83 57q-14 56 10 111l94 285h-14q-209 -330 -336 -414q-65 -43 -135 -43q-70 1 -114 51t-38 152q6 154 79 306t174 259q101 106 213 174t200 68t145 -35l54 101h112l-250 -900h7q96 59 194 211l41 -14q-63 -139 -174 -254
t-179 -115z" />
    <glyph glyph-name="odieresis.ger" horiz-adv-x="960" 
d="M615 997q161 -1 233 -111t64 -262t-76 -296t-201 -248t-291 -104t-232 110q-74 111 -65 267q8 157 75 299t200 244t293 101zM598 948q-84 0 -167 -114t-132 -266q-49 -153 -57 -285q-14 -258 102 -258q123 0 239 220t130 443q14 260 -115 260zM843 1208q-46 0 -77 32
t-31 77t31 78t76 33t78 -34q32 -32 32 -77t-32 -77t-77 -32zM487 1208q-45 0 -77 31t-31 77q0 46 32 79q33 33 77 33t76 -34q32 -32 32 -77t-32 -77t-77 -32z" />
    <glyph glyph-name="udieresis.ger" horiz-adv-x="1034" 
d="M635 -23q-119 0 -70 166l94 332h-6q-8 -12 -52 -85q-132 -220 -198 -281q-31 -29 -73 -67q-75 -67 -174 -69q-68 1 -94 53t4 185l174 635q-51 39 -170 6l2 27q123 119 237 118q147 0 92 -217l-153 -587q-16 -59 28 -60q98 0 256 229t205 416l47 185l166 22l17 -18
l-211 -817h6q82 53 192 208l37 -14q-69 -139 -177 -253t-179 -114zM822 1208q-46 0 -77 32t-30 77q0 45 30 78q31 33 76 33t78 -34q33 -32 33 -77t-32 -77t-78 -32zM467 1208q-45 0 -77 31t-32 77t32 79t77 33t77 -34q32 -32 32 -77t-32 -77t-77 -32z" />
    <glyph glyph-name="j.short" horiz-adv-x="497" 
d="M301 1374q0 47 35 81t82 34t81 -34q35 -34 33 -81t-36 -81q-34 -33 -82 -33q-47 0 -80 34t-33 80zM-166 -520l-18 28q84 68 132 149t83 230l227 953q-61 45 -178 12v27q123 119 239 118q68 0 101 -54t4 -169l-184 -772q-56 -225 -146 -343t-260 -179z" />
    <glyph glyph-name="j.gershort" horiz-adv-x="497" 
d="M397 1440q47 0 81 -34t34 -81t-36 -82t-83 -35t-80 35q-32 35 -32 82q2 47 35 81q34 34 81 34zM-166 -520l-18 28q84 68 131 147t80 220l231 965q-61 45 -178 12v27q123 119 239 118q68 0 100 -54t5 -169l-184 -772q-52 -223 -144 -342t-262 -180z" />
    <glyph glyph-name="y.short" horiz-adv-x="942" 
d="M782 692q0 156 -96 271q55 37 117 36q106 0 106 -149q0 -367 -372 -856q-170 -226 -329 -372t-247 -146q-47 0 -82 32t-35 84q0 54 33 88t84 33q72 0 117 -121h8q88 90 143 251t71 295q15 134 15 308q1 174 -29 282q-30 110 -77 110q-82 0 -135 -242h-37q10 174 77 287
t170 113t160 -134q58 -134 58 -410t-78 -513h12q346 467 346 753z" />
    <glyph glyph-name="yacute.short" horiz-adv-x="942" 
d="M782 692q0 156 -96 271q55 37 117 36q106 0 106 -149q0 -367 -372 -856q-170 -226 -329 -372t-247 -146q-47 0 -82 32t-35 84q0 54 33 88t84 33q72 0 117 -121h8q88 90 143 251t71 295q15 134 15 308q1 174 -29 282q-30 110 -77 110q-82 0 -135 -242h-37q10 174 77 287
t170 113t160 -134q58 -134 58 -410t-78 -513h12q346 467 346 753zM874 1550v-16l-282 -399h-53l178 415h157z" />
    <glyph glyph-name="ycircumflex.short" horiz-adv-x="942" 
d="M393 1135h-63l282 415h86l105 -415h-60l-118 268zM782 692q0 156 -96 271q55 37 117 36q106 0 106 -149q0 -367 -372 -856q-170 -226 -329 -372t-247 -146q-47 0 -82 32t-35 84q0 54 33 88t84 33q72 0 117 -121h8q88 90 143 251t71 295q15 134 15 308q1 174 -29 282
q-30 110 -77 110q-82 0 -135 -242h-37q10 174 77 287t170 113t160 -134q58 -134 58 -410t-78 -513h12q346 467 346 753z" />
    <glyph glyph-name="ydieresis.short" horiz-adv-x="942" 
d="M782 692q0 156 -96 271q55 37 117 36q106 0 106 -149q0 -367 -372 -856q-170 -226 -329 -372t-247 -146q-47 0 -82 32t-35 84q0 54 33 88t84 33q72 0 117 -121h8q88 90 143 251t71 295q15 134 15 308q1 174 -29 282q-30 110 -77 110q-82 0 -135 -242h-37q10 174 77 287
t170 113t160 -134q58 -134 58 -410t-78 -513h12q346 467 346 753zM802 1266q-46 0 -77 32t-31 76q0 45 31 78t76 33t78 -33t33 -78t-32 -77q-32 -31 -78 -31zM446 1266q-44 0 -76 30t-32 77q0 46 32 79t76 33t77 -33q32 -33 32 -78q0 -44 -32 -76t-77 -32z" />
    <glyph glyph-name="ygrave.short" horiz-adv-x="942" 
d="M381 1550h162l57 -415h-49l-170 397v18zM782 692q0 156 -96 271q55 37 117 36q106 0 106 -149q0 -367 -372 -856q-170 -226 -329 -372t-247 -146q-47 0 -82 32t-35 84q0 54 33 88t84 33q72 0 117 -121h8q88 90 143 251t71 295q15 134 15 308q1 174 -29 282
q-30 110 -77 110q-82 0 -135 -242h-37q10 174 77 287t170 113t160 -134q58 -134 58 -410t-78 -513h12q346 467 346 753z" />
    <glyph glyph-name="uni0237.short" horiz-adv-x="497" 
d="M-166 -520l-18 28q84 68 132 149t83 230l227 953q-61 45 -178 12v27q123 119 239 118q68 0 101 -54t4 -169l-184 -772q-56 -225 -146 -343t-260 -179z" />
    <glyph glyph-name="jcircumflex.short" horiz-adv-x="497" 
d="M188 1135h-63l283 415h86l104 -415h-59l-119 268zM-166 -520l-18 28q84 68 132 149t83 230l227 953q-61 45 -178 12v27q123 119 239 118q68 0 101 -54t4 -169l-184 -772q-56 -225 -146 -343t-260 -179z" />
    <glyph glyph-name="ampersand.uc" horiz-adv-x="1525" 
d="M698 1333q-80 -1 -143 -57t-63 -140t28 -137t103 -151q129 82 189 152t60 151q0 80 -47 131t-127 51zM221 390q-1 -108 87 -198t234 -90t269 119q-152 239 -352 494q-131 -80 -185 -148q-54 -69 -53 -177zM1116 -29q-72 0 -133 43q-59 43 -131 148q-204 -205 -406 -205
t-313 103q-111 104 -111 244t107 248q106 108 297 206q-66 90 -94 152q-29 62 -29 137q0 157 133 251q134 94 288 94t240 -58q86 -60 85 -161t-95 -185t-301 -181q109 -139 156 -211l139 -211q43 55 129 190l189 304l-160 43l10 47h434l-8 -47l-176 -45l-291 -431
q-39 -61 -86 -122q76 -113 131 -163t119 -50q88 0 186 104l31 -25q-7 -21 -49 -67q-43 -47 -80 -78t-88 -53t-123 -21z" />
    <glyph glyph-name="questiondown.uc" horiz-adv-x="794" 
d="M727 1401q57 0 96 -40t39 -97q0 -58 -39 -98t-96 -40t-98 40t-41 98t41 97q41 40 98 40zM123 456q0 150 64 225q65 75 204 99l203 35l53 170h53l-51 -342l-291 -43q-162 -23 -161 -129q0 -100 106 -166t254 -100l51 -12l-33 -226l-71 23q-152 51 -266 183
q-114 133 -115 283z" />
    <glyph glyph-name="exclamdown.uc" horiz-adv-x="595" 
d="M432 1401q57 0 96 -40t39 -97q0 -58 -39 -98t-96 -40t-97 40t-40 98t40 97q40 40 97 40zM291 -45h-213l280 1030h54z" />
    <glyph glyph-name="hyphen.uc" horiz-adv-x="710" 
d="M119 604l24 123h516l-24 -123h-516z" />
    <glyph glyph-name="endash.uc" horiz-adv-x="917" 
d="M82 625l16 80h779l-17 -80h-778z" />
    <glyph glyph-name="emdash.uc" horiz-adv-x="1695" 
d="M82 625l16 80h1559l-17 -80h-1558z" />
    <glyph glyph-name="guilsinglleft.uc" horiz-adv-x="602" 
d="M514 915l37 -43l-320 -335l207 -326l-47 -37l-325 348v35z" />
    <glyph glyph-name="guilsinglright.uc" horiz-adv-x="602" 
d="M78 174l-37 43l319 334l-206 328l47 36l323 -348v-35z" />
    <glyph glyph-name="guillemotleft.uc" horiz-adv-x="940" 
d="M852 915l37 -43l-320 -335l207 -326l-47 -37l-326 348v35zM514 915l37 -43l-320 -335l207 -326l-47 -37l-325 348v35z" />
    <glyph glyph-name="guillemotright.uc" horiz-adv-x="942" 
d="M416 174l-37 43l319 334l-206 328l47 36l323 -348v-35zM78 174l-37 43l319 334l-206 328l47 36l323 -348v-35z" />
    <glyph glyph-name="parenleft.uc" horiz-adv-x="681" 
d="M483 -287h-53q-319 438 -223 953q43 240 197 478t382 437h66q-211 -223 -331 -444t-169 -508q-50 -287 -18 -492t149 -424z" />
    <glyph glyph-name="parenright.uc" horiz-adv-x="677" 
d="M221 1581h55q319 -428 224 -952q-43 -239 -200 -479t-380 -437h-67q213 223 333 445t168 506q49 286 18 492q-32 206 -151 425z" />
    <glyph glyph-name="bracketleft.uc" horiz-adv-x="645" 
d="M420 -289h-367l371 1872h364l-14 -61h-194l-342 -1749h194z" />
    <glyph glyph-name="bracketright.uc" horiz-adv-x="624" 
d="M258 1583h365l-371 -1872h-363l15 62h194l344 1749h-196z" />
    <glyph glyph-name="braceleft.uc" horiz-adv-x="700" 
d="M262 680v-4q88 -30 122 -98t9 -211l-57 -349q-29 -164 1 -215t140 -51l-6 -41h-29q-203 -1 -262 99t0 307l86 344q23 88 -9 136t-97 50l-74 2l12 68l72 2q158 4 178 149l58 394q22 158 114 240t289 81h33l-11 -41q-113 0 -163 -50t-84 -216l-72 -320q-30 -134 -90 -198
t-160 -78z" />
    <glyph glyph-name="braceright.uc" horiz-adv-x="700" 
d="M430 614v4q-88 31 -122 99t-11 211l59 348q29 164 -1 215t-142 51l8 41h29q203 2 262 -98t0 -307l-88 -344q-23 -86 10 -136t98 -51l74 -2l-12 -67l-74 -3q-158 -4 -178 -149l-55 -393q-23 -158 -116 -241t-290 -81h-31l9 41q113 0 163 50t87 216l71 320q31 137 89 200
q59 62 161 76z" />
    <glyph glyph-name="slash.uc" horiz-adv-x="845" 
d="M-84 -330l-66 33l1080 1901l63 -33z" />
    <glyph glyph-name="backslash.uc" horiz-adv-x="874" 
d="M717 -315l-70 -13l-420 1917l70 15z" />
    <glyph glyph-name="bar.uc" horiz-adv-x="505" 
d="M109 -334h-76l383 1925h73z" />
    <glyph glyph-name="at.uc" horiz-adv-x="1900" 
d="M782 299q80 0 213 184t181 336l38 121q-61 80 -120 80q-82 0 -172 -97t-150 -247t-59 -287q-1 -90 69 -90zM516 336q0 135 66 275q127 268 367 408q112 65 191 65t142 -50l23 76h131l-203 -674q-63 -217 78 -217q116 0 249 135q65 66 107 181q43 115 43 253
q0 258 -172 436t-442 179q-154 0 -302 -66q-319 -142 -455 -467q-73 -172 -73 -368q0 -303 194 -480t496 -178q147 0 295 56v-35q-52 -31 -169 -62t-193 -30q-367 0 -573 181t-205 492q0 211 94 405q180 371 582 542q189 80 378 80q315 -1 495 -181t179 -454
q0 -146 -58 -278q-59 -132 -147 -217t-191 -134t-211 -49t-162 74t-9 215l24 81h-4l-61 -90q-195 -279 -346 -278q-76 0 -117 50t-41 124z" />
    <glyph glyph-name="Q.cap" horiz-adv-x="1568" 
d="M1262 913q0 169 -87 293t-249 125q-129 0 -242 -81q-114 -81 -184 -207q-152 -273 -152 -560q0 -201 85 -333t235 -132t265 83q114 83 183 213q146 271 146 599zM916 1393q232 0 401 -169q168 -169 168 -451q1 -283 -189 -523t-503 -283q233 -186 397 -259t377 -73
q289 0 536 152l23 -37q-311 -248 -674 -248q-242 0 -438 96t-529 398q-158 61 -259 212q-101 152 -101 358t93 391q94 185 280 311t418 125z" />
    <glyph glyph-name="Q.short" horiz-adv-x="1568" 
d="M1262 913q0 169 -87 293t-249 125q-129 0 -242 -81q-114 -81 -184 -207q-152 -273 -152 -560q0 -201 85 -333t235 -132t265 83q114 83 183 213q146 271 146 599zM1393 -258q-147 -135 -279 -135q-152 0 -243 59q-42 27 -71 44t-93 76q-63 60 -129 122t-93 88
q-158 61 -259 212q-101 152 -101 358t93 391q94 185 280 311t418 125q232 0 401 -169q168 -169 168 -452q0 -180 -81 -353t-246 -301t-380 -153q67 -63 180 -160q94 -74 138 -85q43 -11 86 -11q100 0 188 64z" />
    <glyph glyph-name="ampersand.alt1" horiz-adv-x="1650" 
d="M614 1319q-100 0 -153 -71t-53 -163t28 -163h8q109 63 159 63q97 0 95 -70q0 -39 -32 -61q-73 -50 -234 16q-164 -132 -164 -334t138 -335t370 -133q231 0 376 146q144 146 144 347q0 131 -66 208q-67 77 -158 77t-141 -49t-50 -117t34 -106q35 -36 86 -44h11l32 162
l24 6q10 2 34 2t50 -24t26 -73q0 -50 -50 -89t-128 -39t-136 52q-57 52 -57 165t118 235t302 122h213q227 0 227 108q0 86 -158 176q53 88 117 88t94 -49q29 -49 29 -123q0 -167 -121 -277t-278 -104l-150 9l-2 -7q80 -32 134 -114t54 -205q0 -257 -190 -445t-520 -188
q-272 0 -439 152t-167 364q0 139 83 259t222 196v8q-119 84 -119 190q0 137 146 223t300 87q154 2 233 -54q50 -35 50 -90q0 -88 -104 -127q-117 193 -267 193z" />
    <glyph glyph-name="ampersand.alt2" horiz-adv-x="2316" 
d="M993 938q-82 0 -171 -118t-130 -285q164 84 326 198q32 73 32 139t-57 66zM1341 911v23q-279 -283 -661 -465q-12 -68 -12 -137q0 -128 48 -190t130 -62q127 0 243 122t184 315t68 394zM1536 1582q0 46 28 73t72 27t68 -30q23 -30 22 -73q0 -88 -87 -251t-242 -335
q4 -49 4 -78q0 -219 -82 -443t-229 -379t-316 -154q-133 0 -210 88t-77 247q1 268 183 498t374 229q61 0 96 -38q34 -39 38 -103q88 76 155 146q-20 134 -103 208q-82 74 -216 75t-264 -76q-292 -174 -422 -531q-72 -195 -72 -408q0 -300 146 -452t378 -152q172 0 324 75
t260 195q219 242 320 583q46 157 61 306q0 33 -23 55q-24 22 -72 22t-83 -35q-35 -33 -35 -99t72 -137q-31 -49 -76 -49q-68 0 -68 98q0 165 131 283q74 65 156 65t146 -24q63 -24 83 -33l265 -98l16 106q11 68 31 82t47 14t43 -17t16 -44q0 -68 -97 -160t-192 -92
q-47 0 -141 33l-152 59l-4 -2q-33 -423 -232 -759q-211 -359 -521 -496q-166 -74 -348 -74q-283 0 -463 185q-180 186 -180 502t132 580q134 264 355 418q221 156 467 156q146 0 242 -80t126 -225q171 193 224 369q-74 104 -74 150z" />
    <glyph glyph-name="ampersand.alt3" horiz-adv-x="1613" 
d="M610 1194q-68 0 -150 -95t-141 -245q145 37 248 110q102 73 103 160q0 30 -18 50t-42 20zM709 1282q55 0 87 -34t31 -87q0 -170 -305 -274v-8h301l181 333h77l-104 -331h276l-10 -66h-280l-199 -557h8q60 16 154 106t153 171l41 -23q-272 -426 -465 -426q-49 0 -69 40
t0 99l207 590h-488q-68 -188 -67 -381q0 -254 120 -385t316 -131q145 0 278 66t231 173q206 230 279 518q37 142 37 273q0 215 -68 343q-69 128 -182 214q8 43 36 70t61 27q68 0 124 -88t82 -206q27 -118 27 -233q0 -362 -118 -665q-117 -302 -337 -484t-482 -178t-414 162
q-151 158 -150 434q0 211 98 432q98 222 246 364t287 142z" />
    <glyph glyph-name="A.swash" horiz-adv-x="1845" 
d="M1540 1202l-379 -596h262l125 594zM378 -49q-203 0 -302 97q-98 97 -98 253t102 248q104 92 219 92t179 -58q64 -59 65 -143q-1 -84 -53 -122t-112 -38t-93 36t-35 73l125 137v9q-31 37 -105 37t-144 -70q-71 -68 -71 -186t77 -203q78 -86 200 -86t204 40t197 144
q203 186 617 801l233 348l164 22l18 -12l-245 -1280l127 -47l-7 -43h-501l6 45l172 45l90 434h-299q-201 -303 -364 -438t-366 -135z" />
    <glyph glyph-name="E.swash" horiz-adv-x="1114" 
d="M554 637q110 0 110 68q0 53 -88 53t-175 -49q43 -72 153 -72zM375 842q0 -45 6 -78q141 66 262 65q74 -1 119 -29t45 -73q0 -67 -72 -103t-164 -36q-137 0 -231 78q-117 -98 -117 -242t93 -230q93 -85 245 -85q152 -1 249 81t171 234l47 -16q-57 -211 -194 -338
t-365 -127q-168 0 -289 100t-121 268q0 242 234 402q-74 90 -74 217q0 194 155 328t396 135q146 0 246 -81t100 -186q0 -63 -38 -107t-85 -44t-84 37q68 96 68 192q0 127 -137 127q-166 0 -316 -151q-149 -152 -149 -338z" />
    <glyph glyph-name="J.swash" horiz-adv-x="962" 
d="M106 1006q0 126 127 240t357 114h266l66 59q43 39 84 39q53 0 53 -51t-125 -109l-74 -32l-129 -561h174l-16 -70h-174l-137 -594q-58 -263 -194 -407t-331 -144q-91 0 -159 45t-68 115q0 96 133 102q12 -209 127 -209q102 0 162 110q59 110 106 314l156 668h-221l20 70
h217q72 311 232 542l-4 8q-66 -31 -310 -43q-76 -4 -127 -13t-87 -36t-35 -69q0 -80 141 -152q-6 -47 -37 -74q-31 -26 -74 -26t-81 43t-38 121z" />
    <glyph glyph-name="K.swash" horiz-adv-x="1601" 
d="M135 1085q0 -116 174 -139q-2 -66 -35 -98t-86 -31q-53 0 -95 47t-42 125q0 119 77 207q143 164 382 164h541l-11 -45l-172 -49l-233 -1176l153 -47l-6 -43h-520l10 45l154 45l229 1157h-231q-152 0 -220 -49t-69 -113zM1870 -504q-111 0 -199 25t-192 99t-207 210
q-226 299 -506 893v4l684 537l-162 49l8 47h412l-8 -47l-141 -49l-605 -473q311 -620 510 -905q234 -332 420 -331t242 232q30 18 66 18q36 1 58 -21t21 -56q1 -82 -117 -157t-284 -75z" />
    <glyph glyph-name="K.midswash" horiz-adv-x="1292" 
d="M-47 0l8 45l156 45l233 1176l-137 51l6 43h520l-8 -45l-174 -49l-231 -1176l153 -47l-8 -43h-518zM1960 -272q0 -82 -116 -157t-270 -75t-263 43t-241 169t-280 374t-333 641v4l684 537l-162 49l6 47h414l-8 -47l-142 -49l-604 -473q315 -635 531 -935t400 -300
q185 0 239 231q31 18 67 18q36 1 56 -21q22 -22 22 -56z" />
    <glyph glyph-name="M.swash" horiz-adv-x="2627" 
d="M1087 1360h553l-16 -1051h6l570 850q68 99 100 176l10 25h348l-14 -45l-160 -49l-153 -1176l123 -47l-11 -43h-506l11 45l178 45l141 1038l-672 -1001l-77 -127h-82l2 127l8 1108h-35q-169 -552 -311 -793q-142 -240 -303 -354q-200 -139 -449 -135q-193 4 -295 96
q-102 91 -100 229t81 206t157 67q77 -2 113 -38t35 -85t-35 -85t-85 -38l-141 66h-19q-20 -31 -20 -80q-2 -104 74 -182t215 -81q139 -2 275 66t249 185q279 289 487 923h-329q-252 0 -267 -65q-10 -61 136 -109q-9 -40 -19 -64t-35 -49t-59 -24q-51 -2 -78 45t-26 92
q4 144 112 238t313 94z" />
    <glyph glyph-name="N.swash" horiz-adv-x="2207" 
d="M684 1227q-207 0 -219 -58q-8 -50 133 -96q-27 -115 -106 -115q-39 0 -68 30t-29 75q0 123 84 210t197 87h508q238 -709 407 -1096q58 673 198 921q69 122 145 172q77 50 171 51q93 1 155 -46q62 -48 62 -108t-34 -97t-94 -37t-87 25v198q-315 -18 -469 -1185
q291 -621 527 -621q90 0 125 73t49 220q37 27 80 25q92 -5 92 -97t-99 -185t-284 -93q-233 0 -434 223q-141 156 -299 495t-396 1037h-12q-72 -897 -387 -1147q-150 -119 -362 -119q-121 0 -210 72t-89 182q0 61 37 101q38 38 88 38t80 -30t38 -80l-67 -141v-9
q12 -28 47 -50t84 -21q180 0 333 179q153 178 239 448t110 569h-244z" />
    <glyph glyph-name="Q.swash" horiz-adv-x="1615" 
d="M184 -111q195 0 379 68q-297 131 -424 131q-73 0 -111 -27t-38 -65q-1 -107 194 -107zM2472 -252q0 -92 -141 -192t-341 -100t-377 56q-177 58 -426 168t-377 167q-128 58 -171 77q-262 -102 -487 -102q-260 0 -261 141q0 84 121 157t248 73t235 -31t277 -103
q260 160 419 420t159 522q0 176 -73 287t-200 111q-170 0 -314 -125t-218 -289t-74 -307q0 -262 195 -262q152 0 244 136t94 279q0 68 -31 102t-77 34t-76 -28t-29 -69q0 -82 92 -139q-33 -57 -86 -57q-78 0 -78 104t79 206t171 103q139 0 139 -167q0 -126 -72 -264
t-190 -235t-254 -97t-220 91t-85 264q0 173 115 357q116 184 304 299t376 115q186 0 330 -108q73 -54 116 -151t43 -226q0 -269 -204 -521t-513 -419l309 -138q49 -20 301 -133t413 -155q162 -41 266 -41q103 0 148 64q44 65 29 214q68 4 110 -20t42 -68z" />
    <glyph glyph-name="R.swash" horiz-adv-x="1624" 
d="M1251 1020q0 140 -94 218q-95 77 -285 69l-120 -609q242 -4 370 89t129 233zM188 817q-53 0 -95 47t-42 125q0 162 138 266t417 105h373q219 0 357 -82t138 -225t-109 -229q-110 -86 -290 -136v-2q299 -563 529 -852t419 -289q80 1 127 53t68 171q43 16 77 16
q35 0 57 -24t22 -56q0 -83 -114 -151t-270 -68q-319 0 -526 238q-301 346 -577 913h-148l-108 -547l182 -47l-8 -43h-545l10 45l154 45l242 1213q-236 -7 -384 -71t-149 -151q0 -106 176 -135q2 -63 -33 -96t-88 -33z" />
    <glyph glyph-name="R.midswash" horiz-adv-x="1316" 
d="M944 1022q0 140 -95 217q-96 76 -284 68l-121 -609q240 -6 370 89t130 235zM672 1360q217 0 356 -81t139 -222q0 -260 -399 -369v-6q355 -673 582 -915q202 -220 366 -222q150 0 197 224q37 16 73 16t58 -23q23 -23 22 -57q0 -83 -114 -151t-287 -68q-295 0 -510 238
q-281 319 -575 913h-148l-108 -547l180 -47l-6 -43h-545l8 45l156 45l233 1176l-137 51l6 43h453z" />
    <glyph glyph-name="T.swash" horiz-adv-x="1388" 
d="M74 924q0 172 101 301t314 164q117 18 259 2l634 -76l41 176h39q102 0 103 -61q0 -76 -115 -140t-270 -63q-68 0 -224 12l-229 -1149l141 -47l-8 -43h-506l8 45l158 45l234 1172q-170 18 -248 18q-156 0 -257 -81t-101 -180t68 -147t177 -22l4 -25q-12 -51 -52 -84
q-39 -33 -105 -33t-116 63t-50 153z" />
    <glyph glyph-name="Y.swash" horiz-adv-x="1421" 
d="M1460 987q-37 293 -255 293q-110 0 -204 -142t-165 -489l-113 -561l127 -47l-6 -41h-479l8 43l143 45l111 576q53 279 6 434q-55 164 -201 164q-100 0 -165 -81t-126 -253l-41 12q31 213 142 351q110 139 264 139t236 -128t44 -405h23q96 285 193 409q98 124 236 124
t205 -114t58 -323z" />
    <glyph glyph-name="AE.swash" horiz-adv-x="2439" 
d="M1612 1288h-29l-315 -536h235zM348 -49q-178 0 -274 97t-96 252t102 248t218 93t180 -58q64 -57 65 -137q0 -80 -48 -122q-49 -42 -109 -43q-60 1 -97 35t-39 73l125 137v9q-31 37 -105 37t-144 -70q-71 -70 -71 -188t77 -202t216 -85q100 1 179 35q344 150 831 966
l141 236l-170 53l6 43h957l131 8l-49 -387h-52l-65 309h-440l-105 -540h273l98 178h47l-86 -432h-53l-25 182h-268l-113 -572q41 -33 127 -32h342l221 332h54l-127 -406h-979l8 45l141 45l117 586h-268q-172 -280 -297 -430t-262 -222q-136 -72 -314 -73z" />
    <glyph glyph-name="k.swash" horiz-adv-x="956" 
d="M766 764q0 86 -68 86t-172 -112t-194 -276t-123 -304l-33 -144l-164 -43l-24 27l354 1348l-115 90l6 16l336 78l-256 -971h11q68 109 109 168q134 188 225 238q60 33 127 33t111 -47q44 -46 43 -112t-30 -118q-29 -51 -78 -101t-90 -80t-63 -46q-53 -39 -139 -89
q-86 -49 -90 -53q283 -408 463 -594t292 -186q63 0 101 55q37 55 71 164q51 5 83 -23t30 -61q-1 -84 -105 -136t-227 -52q-217 0 -419 182q-201 182 -480 602l41 23q225 116 346 234t121 204z" />
    <glyph glyph-name="v.swash" horiz-adv-x="862" 
d="M729 741q0 61 -33 95t-78 34q-96 0 -212 -129q0 -395 -29 -569l12 -4q340 410 340 573zM127 1270q254 0 276 -467q101 119 161 159t134 40t127 -53q53 -52 53 -134t-35 -144q-35 -63 -55 -96t-71 -97t-129 -155q-78 -90 -96 -112l-203 -240h-19l-55 31l-18 8
q35 289 34 582q0 539 -178 538q-84 0 -178 -161l-35 14q45 143 122 215t165 72z" />
    <glyph glyph-name="w.swash" horiz-adv-x="1323" 
d="M1192 754q0 54 -30 86t-78 32t-91 -34t-123 -136q0 -257 -26 -530l12 -4q190 236 263 366t73 220zM698 639q0 168 -29 257q-30 89 -107 89t-165 -108q9 -63 9 -283t-29 -422l12 -2l309 397v72zM127 1270q211 0 262 -328q113 166 246 166q205 0 231 -322q94 121 154 168
t135 47q76 0 130 -50t54 -125t-27 -136q-27 -62 -53 -99q-27 -38 -43 -61q-16 -24 -54 -70q-40 -46 -62 -72t-71 -85q-50 -59 -77 -92l-202 -240h-19l-67 39q27 248 32 473l-403 -512h-19l-77 39q35 289 34 582q0 539 -178 538q-84 0 -178 -161l-35 14q45 143 122 215
t165 72z" />
    <glyph glyph-name="z.swash" horiz-adv-x="868" 
d="M1282 -336q0 -72 -85 -122t-175 -50q-133 0 -240 80q-106 80 -233 289l-111 180q-70 115 -108 154q-39 39 -84 38q-66 0 -84 -77l37 -95q-4 -39 -31 -67t-69 -27q-43 0 -69 28t-26 74t22 70q22 23 27 31q7 8 27 28l528 541l-219 82q-166 61 -190 10q-33 -57 96 -153
q-66 -94 -127 -94q-39 0 -65 26t-25 80q2 86 108 199t207 112q68 1 156 -36l194 -84l101 118l63 -59l-651 -649v-6q141 2 226 -43t188 -207l108 -174q127 -201 176 -259q50 -58 96 -58t74 52t62 156q96 -16 96 -88z" />
    <glyph glyph-name="v.altinitial" horiz-adv-x="1351" 
d="M803 801h-424q-123 0 -184 -38t-62 -95q0 -82 121 -148q-10 -55 -43 -86t-79 -31t-79 40q-33 41 -33 103q0 126 134 268q61 67 160 111t210 44h426v-19l-100 -170q-160 -274 -160 -424q0 -92 46 -139t120 -47q125 0 217 135t92 324q0 132 -40 215q-13 29 -46 96
q53 43 121 43q111 0 111 -172t-85 -365q-84 -192 -224 -330t-273 -139q-92 1 -150 61q-59 60 -57 186t144 351l137 220v6z" />
    <glyph glyph-name="w.altinitial" horiz-adv-x="1732" 
d="M768 156q127 0 264 190q31 360 96 588q36 49 90 49t71 -41t-1 -88q-182 -477 -190 -500q29 -190 196 -190q115 0 192 117t77 297t-111 358q16 18 53 32t79 15q42 0 71 -47q29 -48 29 -152t-30 -229q-76 -333 -227 -483q-92 -92 -197 -92q-214 0 -198 284h-2
q-78 -129 -188 -209t-199 -80q-88 0 -140 65q-123 154 95 475q47 69 125 175l78 105v6h-422q-123 0 -184 -38t-62 -95q0 -82 121 -148q-10 -55 -43 -86t-78 -31t-79 40q-34 39 -34 101q0 127 134 270q61 67 160 111t210 44h428v-19l-100 -166q-193 -315 -203 -454
q-6 -80 25 -127t94 -47z" />
    <glyph glyph-name="e.final" horiz-adv-x="2033" 
d="M571 918q-74 0 -172 -110t-145 -271q131 20 251 112t126 201q-1 68 -60 68zM809 -104q-399 0 -579 105q-179 105 -193 300q8 154 92 301t217 256q172 141 326 141q72 0 114 -40t39 -107q-2 -88 -91 -167q-172 -152 -492 -204q-14 -72 -15 -131q15 -137 187 -215t479 -78
q473 0 749 155t277 425q0 95 -37 157t-113 111q57 92 127 92q49 0 87 -59t38 -176q-1 -117 -33 -222q-32 -106 -120 -224t-219 -208t-349 -152q-218 -60 -491 -60z" />
    <glyph glyph-name="ae.hist" horiz-adv-x="1128" 
d="M883 922q-90 0 -172 -157t-82 -390q158 158 235 263q78 105 78 204q0 36 -17 58t-42 22zM195 238q-1 -47 21 -76t52 -29q80 0 201 115q0 150 48 297t122 256h-6q-225 -176 -331 -309t-107 -254zM1124 852q0 -67 -53 -133q-85 -109 -227 -225q-39 -33 -105 -88t-106 -93
q16 -100 61 -138t113 -38q119 0 231 193l37 -19q-45 -127 -135 -231t-225 -105q-205 0 -234 209h-4q-57 -68 -97 -106t-101 -72q-61 -35 -125 -35q-64 1 -108 51t-44 134q0 114 133 276t301 293q344 274 529 274q159 0 159 -147z" />
    <glyph glyph-name="T_h.swash" horiz-adv-x="2142" 
d="M74 924q0 172 101 301t314 164q117 18 259 2l512 -62l57 180h43q102 0 102 -63q0 -74 -114 -140t-287 -65q-31 0 -105 4l-229 -1155l141 -47l-8 -43h-506l8 45l158 45l234 1174q-176 16 -248 16q-156 0 -257 -81t-101 -180t68 -147t177 -22l4 -25q-12 -51 -52 -84
q-39 -33 -105 -33t-116 63t-50 153zM1927 997q168 0 107 -221l-174 -626h6q86 55 194 208l37 -14q-65 -135 -175 -251t-181 -116q-119 0 -72 166l182 623q25 84 -34 84q-94 0 -245 -207t-214 -442l-51 -185l-164 -45l-27 27l381 1460l199 72l-252 -975h10q104 182 232 312
t241 130z" />
    <glyph glyph-name="T_h.altswash" horiz-adv-x="2103" 
d="M74 924q0 172 101 301t314 164q117 18 259 2l512 -62l57 180h43q102 0 102 -63q0 -74 -114 -140t-287 -65q-31 0 -105 4l-229 -1155l141 -47l-8 -43h-506l8 45l158 45l234 1174q-176 16 -248 16q-156 0 -257 -81t-101 -180t68 -147t177 -22l4 -25q-12 -51 -52 -84
q-39 -33 -105 -33t-116 63t-50 153zM1550 -20q-32 0 -54 20t-22 54t35 77q35 -27 84 -42t74 -11q93 146 145 334q52 189 54 327q0 102 -60 103q-92 0 -237 -201t-211 -440l-51 -185l-168 -45l-25 27l383 1460l199 72l-256 -983h10q266 451 481 450q147 0 143 -184t-90 -380
q-86 -197 -208 -325t-226 -128z" />
    <glyph glyph-name="f_k.swash" horiz-adv-x="1525" 
d="M827 303l43 23q225 119 347 235q121 117 120 213q0 37 -19 56t-48 20q-90 0 -226 -172t-217 -375zM758 1436q-84 0 -161 -100t-136 -367h219l-21 -82h-215l-163 -819q-53 -262 -189 -429t-303 -167q-49 0 -95 34t-46 84q0 82 84 127q90 -158 172 -157q47 0 80 76t65 247
l203 1004h-178l12 82h184q64 219 238 390t342 171q70 0 125 -45l164 45l-256 -971h10q68 109 109 168q132 186 227 238q59 33 126 33t111 -47q44 -46 42 -112q-1 -66 -30 -118q-52 -93 -171 -183t-199 -133t-90 -53q285 -410 465 -595t291 -185q44 0 78 34t52 72t44 113
q51 5 82 -23t30 -61q-2 -84 -106 -136t-228 -52q-216 0 -418 182t-481 602q-33 -82 -47 -145l-35 -144l-161 -43l-27 27l356 1360q-71 78 -155 78z" />
    <glyph glyph-name="f_f_k.swash" horiz-adv-x="2058" 
d="M745 1352q-81 0 -151 -82t-129 -301h338q41 141 133 268q-84 115 -191 115zM1868 774q0 76 -68 76q-106 0 -272 -237t-217 -455l-33 -144l-164 -43l-24 27l354 1358q-68 80 -153 80t-161 -98t-137 -369h219l-22 -82h-215l-150 -752q-57 -281 -194 -437t-283 -157
q-55 0 -94 36t-39 83q0 72 74 113q78 -145 162 -146q43 0 75 72t70 252l188 936h-340l-163 -819q-53 -262 -189 -429t-303 -167q-49 0 -95 34t-46 84q0 82 84 127q90 -158 172 -157q47 0 80 76t65 245l189 942q2 12 16 64h-182l14 82h197q84 195 241 335q158 140 307 140
q109 0 199 -94q180 180 350 180q72 0 127 -45l164 45l-256 -971h10q70 111 110 169q126 183 224 237q59 33 127 33t112 -47q44 -46 43 -112t-30 -118q-29 -51 -78 -101t-90 -80t-63 -46t-68 -45q-47 -29 -103 -62q-57 -33 -59 -35q283 -408 463 -594t293 -186q63 0 100 55
t72 164q51 5 83 -23t30 -61q-1 -84 -105 -136t-227 -52q-219 0 -421 182t-478 602l41 23q225 120 346 236t121 212z" />
    </font>
</defs>
</svg>
