<?xml version="1.0" standalone="no"?>
<!DOCTYPE svg PUBLIC "-//W3C//DTD SVG 1.1//EN" "http://www.w3.org/Graphics/SVG/1.1/DTD/svg11.dtd" >
<svg xmlns="http://www.w3.org/2000/svg">
<metadata>
Created by FontPrep 20130207 at Mon Aug 11 22:33:51 2014
 By Callum Flack
(c)2010 Kai Bernau and Commercial Type.
</metadata>
<defs>
<font id="23ccc205ccd53c9d5b16ba41884b60bc" >
  <font-face 
    font-family="LyonDisplay-LightItalic"
    font-weight="300"
    font-style="italic"
    font-stretch="normal"
    units-per-em="2048"
    panose-1="2 0 3 3 8 0 0 9 0 4"
    ascent="1556"
    descent="-492"
    x-height="977"
    cap-height="1360"
    bbox="-387 -552 2630 2163"
    underline-thickness="102"
    underline-position="-102"
    slope="-12"
    unicode-range="U+0020-FB04"
  />
<missing-glyph horiz-adv-x="348" 
 />
    <glyph glyph-name="f_f" unicode="ff" horiz-adv-x="1036" 
d="M716 1348q-104 0 -182 -92t-131 -308h328q45 160 166 314q-77 86 -181 86zM791 1444q111 0 182 -94q168 172 315 172q68 0 119 -30t51 -79t-51 -100q-127 106 -229 106q-68 0 -141 -80q-92 -98 -152 -391h266l-18 -78h-265l-131 -649q-69 -342 -187 -520t-257 -178
q-51 0 -96 31q-45 30 -45 74t57 102q90 -135 153 -136q37 0 65 41q56 81 136 480l152 755h-328l-137 -690q-74 -367 -194 -546t-269 -179q-53 0 -100 32t-47 79t61 108q98 -147 162 -147q43 0 74 49q60 95 163 623l133 671h-159l14 78h170q66 174 228 335q163 161 305 161z
" />
    <glyph glyph-name="f_i" unicode="fi" horiz-adv-x="952" 
d="M979 1410q0 -50 -51 -97q-125 106 -230 106q-193 0 -292 -471h430l61 27h14l-239 -856h6q44 31 110 99t99 122l28 -16q-80 -134 -177 -240t-151 -106q-105 -1 -69 128l219 764h-348l-139 -692q-74 -365 -194 -544t-269 -179q-53 0 -100 32t-47 79t61 108
q98 -147 162 -147q43 0 74 48q56 87 163 622l136 673h-162l14 78h166q61 213 232 393t321 181q74 0 123 -31t49 -81z" />
    <glyph glyph-name="f_l" unicode="fl" horiz-adv-x="983" 
d="M742 1423q-62 0 -101 -17q-156 -68 -238 -458h355l112 424q-66 51 -128 51zM592 -23q-43 0 -60 36q-16 36 0 93l205 764h-348l-139 -690q-74 -365 -194 -545t-269 -180q-53 0 -100 32t-47 79t61 108q100 -147 162 -147q43 0 74 49q57 90 163 623l136 671h-162l14 78h166
q61 213 232 393t321 181q70 0 125 -35l129 41l-375 -1409h6q109 80 209 221l29 -16q-70 -125 -172 -236t-166 -111z" />
    <glyph glyph-name="f_f_i" unicode="ffi" horiz-adv-x="1431" 
d="M716 1348q-104 0 -182 -92t-131 -308h328q45 160 166 314q-77 86 -181 86zM791 1444q111 0 182 -94q168 172 315 172q68 0 119 -30t51 -79t-51 -100q-127 106 -229 106q-68 0 -141 -80q-92 -98 -152 -391h430l61 27h15l-240 -856h6q45 31 111 99t98 122l29 -16
q-80 -134 -177 -240q-98 -106 -152 -106q-106 -1 -69 128l220 764h-349l-131 -647q-73 -352 -189 -526t-255 -174q-51 0 -96 31q-45 30 -45 74t57 102q90 -135 153 -136q54 0 96 106t105 419l152 751h-328l-137 -690q-74 -367 -194 -546t-269 -179q-53 0 -100 32t-47 79
t61 108q98 -147 162 -147q43 0 74 49q60 95 163 623l133 671h-159l14 78h170q66 174 228 335q163 161 305 161z" />
    <glyph glyph-name="f_f_l" unicode="ffl" horiz-adv-x="1462" 
d="M716 1348q-104 0 -182 -92t-131 -308h328q47 164 164 314q-75 86 -179 86zM1220 1423q-62 0 -99 -17q-157 -70 -236 -458h352l113 424q-68 51 -130 51zM791 1444q106 0 182 -94q168 172 315 172q63 0 123 -35l129 41l-375 -1409h6q109 80 209 221l29 -16
q-70 -125 -172 -236t-166 -111q-43 0 -59 36t0 93l205 764h-349l-131 -649q-69 -342 -187 -520t-257 -178q-51 0 -96 31q-45 30 -45 74t57 102q90 -135 153 -136q53 0 98 112q44 112 103 409l152 755h-328l-137 -690q-74 -367 -194 -546t-269 -179q-53 0 -100 32t-47 79
t61 108q98 -147 162 -147q43 0 74 49q60 95 163 623l133 671h-159l14 78h170q66 174 228 335q163 161 305 161z" />
    <glyph glyph-name="f_b" unicode="fb" horiz-adv-x="1433" 
d="M1171 860q-69 0 -163 -100t-165 -226t-98 -217l-53 -180q45 -115 156 -114q90 0 182 104t152 258q59 155 68 315t-79 160zM800 -29q-151 0 -251 142l-10 14l329 1247q-70 49 -143 49q-98 0 -179 -98t-140 -377h243l-20 -78h-240l-139 -690q-74 -365 -194 -545t-269 -180
q-53 0 -100 32t-47 83t61 98q102 -141 162 -141q43 0 74 49q57 90 163 623l136 671h-162l14 78h166q61 213 232 393t321 181q68 0 123 -35l129 41l-254 -963h12q236 412 455 412q76 0 116 -66t35 -176q-4 -151 -91 -327t-234 -306t-298 -131z" />
    <glyph glyph-name="f_f_b" unicode="ffb" horiz-adv-x="1912" 
d="M716 1348q-104 0 -182 -92t-131 -308h328q45 160 166 314q-77 86 -181 86zM1651 860q-70 0 -164 -100q-95 -100 -165 -226t-97 -217l-54 -180q45 -115 156 -114q90 0 182 104t152 258q59 155 69 315t-79 160zM1279 -29q-151 0 -251 142l-10 14l330 1247q-66 49 -128 49
t-99 -17q-157 -70 -236 -458h243l-20 -78h-240l-131 -647q-73 -348 -189 -524t-255 -176q-51 0 -96 31q-45 30 -45 74t57 102q90 -135 153 -136q54 0 96 106t105 417l152 753h-328l-137 -690q-74 -367 -194 -546t-269 -179q-53 0 -100 32t-47 79t61 108q98 -147 162 -147
q43 0 74 49q60 95 163 623l133 671h-159l14 78h170q66 174 228 335q163 161 305 161q111 0 182 -94q168 172 315 172q61 0 121 -35l129 41l-254 -963h12q236 412 455 412q76 0 116 -66t36 -197q-3 -130 -91 -306t-235 -306t-298 -131z" />
    <glyph glyph-name="f_f_h" unicode="ffh" horiz-adv-x="1947" 
d="M716 1348q-104 0 -182 -92t-131 -308h328q45 160 166 314q-77 86 -181 86zM1753 977q71 0 99 -49t8 -125l-191 -684h6q106 80 209 221l29 -16q-82 -138 -179 -242t-159 -105q-37 0 -57 32t-2 95l198 695q14 63 -41 63q-106 0 -260 -204t-233 -488l-45 -160l-123 -35
l-29 25l365 1374q-66 49 -128 49t-99 -17q-157 -70 -236 -458h243l-20 -78h-240l-131 -649q-69 -348 -187 -523t-257 -175q-51 0 -96 31q-45 30 -45 74t57 102q90 -135 153 -136q53 0 97 109q43 109 104 416l152 751h-328l-137 -690q-74 -367 -194 -546t-269 -179
q-53 0 -100 32t-47 79t61 108q98 -147 162 -147q43 0 74 49q60 95 163 623l133 671h-159l14 78h170q66 174 228 335q163 161 305 161q111 0 182 -94q168 172 315 172q61 0 121 -35l127 41l-260 -983h12q106 184 228 308t237 124z" />
    <glyph glyph-name="f_f_j" unicode="ffj" horiz-adv-x="1423" 
d="M716 1348q-104 0 -182 -92t-131 -308h328q47 164 164 314q-75 86 -179 86zM791 1444q106 0 182 -94q168 172 315 172q68 0 119 -30t51 -79t-51 -100q-127 106 -229 106q-68 0 -141 -80q-92 -98 -152 -391h440l59 27h17l-174 -744q-70 -293 -185 -468t-256 -175
q-53 0 -97 31t-44 77t57 99q88 -133 154 -133q49 0 89 81t95 318l189 809h-361l-131 -649q-69 -344 -187 -521t-257 -177q-51 0 -96 31q-45 30 -45 74t57 102q90 -135 153 -136q53 0 97 108q43 108 104 413l152 755h-328l-137 -690q-74 -367 -194 -546t-269 -179
q-53 0 -100 32t-47 79t61 108q98 -147 162 -147q43 0 74 49q60 95 163 623l133 671h-159l14 78h170q66 174 228 335q163 161 305 161z" />
    <glyph glyph-name="f_f_k" unicode="ffk" horiz-adv-x="1857" 
d="M1659 860q-96 0 -213 -143t-199 -342q236 113 358 212t121 195q1 78 -67 78zM716 1348q-104 0 -182 -92t-131 -308h328q47 164 164 314q-75 86 -179 86zM1671 -68q-84 0 -153 86l-279 338q-33 -86 -53 -157l-51 -189l-123 -35l-29 25l365 1374q-66 49 -128 49t-99 -17
q-157 -70 -236 -458h243l-20 -78h-240l-131 -649q-69 -344 -187 -521t-257 -177q-51 0 -96 31q-45 30 -45 74t57 102q90 -135 153 -136q53 0 97 109q43 109 104 412l152 755h-328l-137 -690q-74 -367 -194 -546t-269 -179q-53 0 -100 32t-47 79t61 108q98 -147 162 -147
q43 0 74 49q60 95 163 623l133 671h-159l14 78h170q66 174 228 335q163 161 305 161q106 0 182 -94q168 172 315 172q61 0 121 -35l127 41l-260 -983h10q217 432 451 432q57 0 97 -37t40 -98q0 -119 -119 -219t-377 -228l381 -432v-6q-31 -25 -88 -25z" />
    <glyph glyph-name="f_f_t" unicode="fft" horiz-adv-x="1579" 
d="M716 1348q-104 0 -182 -92t-131 -308h330q47 168 162 314q-75 86 -179 86zM293 -477q-51 0 -96 31q-45 30 -45 74t57 102q90 -135 153 -136q55 0 99 111q43 111 102 410l152 755h-328l-137 -690q-74 -367 -194 -546t-269 -179q-53 0 -100 32t-47 79t61 108
q98 -147 162 -147q43 0 74 49q60 95 163 623l133 671h-159l14 78h170q66 174 228 335q163 161 305 161q106 0 182 -94q166 170 321 170q45 0 80 -25t35 -67t-57 -97q-90 90 -160 90q-207 0 -307 -473h354l121 281h76l-62 -281h289l-16 -78h-291l-199 -751h4q53 20 137 94
t162 172l31 -23q-92 -147 -213 -266t-213 -119q-39 0 -59 31t-9 70l213 792h-342l-131 -649q-73 -356 -191 -527t-253 -171z" />
    <glyph glyph-name="f_h" unicode="fh" horiz-adv-x="1468" 
d="M1274 977q72 0 100 -49t6 -125l-190 -684h6q106 80 209 221l29 -16q-82 -138 -180 -242t-158 -105q-37 0 -58 32q-20 32 -2 95l199 695q14 63 -41 63q-106 0 -260 -204t-234 -488l-45 -160l-123 -35l-28 25l364 1374q-70 49 -143 49q-98 0 -179 -98t-140 -377h243
l-20 -78h-240l-139 -690q-74 -365 -194 -545t-269 -180q-53 0 -100 32t-47 80t61 105q55 -80 91 -112t75 -33q39 0 70 49q57 90 163 623l136 671h-162l14 78h166q61 213 232 393t321 181q68 0 123 -35l127 41l-260 -983h12q106 184 227 308t238 124z" />
    <glyph glyph-name="f_j" unicode="fj" horiz-adv-x="942" 
d="M-213 -545q-53 0 -100 32t-47 79t61 108q98 -147 162 -147q43 0 74 49q56 88 163 625l136 669h-162l14 78h166q61 213 232 393t321 181q74 0 123 -31t49 -81t-51 -97q-125 106 -230 106q-193 0 -292 -471h440l59 27h17l-209 -873q-59 -250 -170 -414t-250 -165
q-53 0 -97 31q-44 30 -44 76t57 100q88 -135 153 -136q91 1 152 261l236 1015h-361l-139 -692q-74 -365 -194 -544t-269 -179z" />
    <glyph glyph-name="f_k" unicode="fk" horiz-adv-x="1378" 
d="M1178 860q-94 0 -211 -143t-199 -342q480 229 480 398q0 87 -70 87zM1192 -68q-84 0 -154 86l-278 338q-33 -86 -53 -157l-52 -189l-123 -35l-28 25l364 1374q-70 49 -143 49q-98 0 -179 -98t-140 -377h243l-20 -78h-240l-139 -690q-74 -365 -194 -545t-269 -180
q-53 0 -100 32t-47 83t61 98q102 -141 162 -141q43 0 74 49q57 90 163 623l136 671h-162l14 78h166q61 213 232 393t321 181q68 0 123 -35l127 41l-260 -983h10q217 432 450 432q57 0 97 -37t41 -98q0 -119 -119 -219t-377 -228l381 -432v-6q-31 -25 -88 -25z" />
    <glyph glyph-name="f_t" unicode="ft" horiz-adv-x="1099" 
d="M-213 -545q-53 0 -100 32t-47 79t61 108q98 -147 162 -147q43 0 74 48q61 94 165 626l134 669h-162l14 78h166q59 215 230 393t331 179q45 0 80 -25t35 -67t-58 -97q-90 90 -159 90q-207 0 -307 -473h354l121 281h75l-61 -281h289l-17 -78h-290l-199 -751h4q53 20 137 94
t162 172l31 -23q-92 -147 -213 -266t-213 -119q-39 0 -59 31q-19 31 -9 70l213 792h-342l-139 -692q-74 -365 -194 -544t-269 -179z" />
    <glyph glyph-name=".notdef" horiz-adv-x="348" 
 />
    <glyph glyph-name=".null" horiz-adv-x="0" 
 />
    <glyph glyph-name="nonmarkingreturn" horiz-adv-x="681" 
 />
    <glyph glyph-name="space" unicode=" " horiz-adv-x="348" 
 />
    <glyph glyph-name="exclam" unicode="!" horiz-adv-x="462" 
d="M156 -27q-51 0 -86 35t-35 86t35 86t86 35t86 -35q34 -35 34 -86t-34 -86t-86 -35zM324 1413h176l-275 -1034h-41z" />
    <glyph glyph-name="quotedbl" unicode="&#x22;" horiz-adv-x="692" 
d="M563 1010l35 479h190l-192 -479h-33zM244 1010l35 479h190l-193 -479h-32z" />
    <glyph glyph-name="numbersign" unicode="#" horiz-adv-x="1189" 
d="M530 834l-151 -404h328l151 404h-328zM221 834l15 65h251l119 318h68l-119 -318h328l118 318h68l-119 -318h250l-16 -65h-258l-152 -404h242l-15 -65h-251l-136 -365h-67l135 365h-328l-135 -365h-67l135 365h-248l14 65h258l152 404h-242z" />
    <glyph glyph-name="dollar" unicode="$" horiz-adv-x="1036" 
d="M670 1262q-120 -6 -188 -70t-71 -158t31 -147t131 -111zM764 333q0 136 -168 247l-111 -551q121 12 200 90t79 214zM268 944q0 143 117 252t295 119l47 244h64l-50 -242q99 -4 188 -32q89 -27 103 -34l-65 -323h-33l-14 248q-80 72 -189 86l-102 -519l6 -2
q164 -94 225 -172t64 -190q2 -162 -129 -275t-320 -131l-47 -239h-57l45 235h-6q-180 0 -371 72l74 369h30l11 -301q119 -80 274 -82l115 583l-62 35q-113 61 -163 126t-50 173z" />
    <glyph glyph-name="percent" unicode="%" horiz-adv-x="1507" 
d="M1030 -31q-110 0 -182 80t-72 193q0 158 114 270t259 113q111 0 181 -81t71 -194q0 -152 -114 -266t-257 -115zM1139 580q-92 0 -160 -100t-68 -255q0 -211 131 -211q86 0 155 94t69 257q0 99 -33 157t-94 58zM350 580q-110 0 -182 80t-72 192q0 158 114 270t259 113
q111 0 181 -81t71 -193q0 -153 -114 -267t-257 -114zM1405 1290l-1243 -1392h-84l1243 1392h84zM459 1190q-92 0 -160 -100t-68 -254q0 -211 131 -211q86 0 155 94t69 256q0 99 -33 157t-94 58z" />
    <glyph glyph-name="ampersand" unicode="&#x26;" horiz-adv-x="1783" 
d="M190 547q0 -74 15 -131l348 422q31 61 3 119t-95 59q-99 0 -185 -127t-86 -342zM971 604q-88 0 -88 133t91 253t232 120q85 0 154 -39t125 -75q55 -36 71 -46t38 -22t32 -18t26 -12q16 -7 46 -7q31 0 51 27t20 73q0 102 -45 193q37 18 74 18q88 -6 88 -94t-91 -203
t-216 -114q-70 0 -142 46q-26 15 -75 50q-21 -307 -133 -550t-334 -344q-119 -54 -264 -54q-241 0 -393 137t-152 398q0 260 151 450t322 190q55 0 94 -29t49 -75l353 454l59 -51l-889 -1055q49 -122 164 -196t277 -74q258 0 434 214t215 616l-8 6q-204 129 -297 31
q-41 -42 -41 -94t13 -73q13 -22 22 -36q10 -14 28 -28q20 -13 37 -28l21 -12q-53 -80 -119 -80z" />
    <glyph glyph-name="quotesingle" unicode="'" horiz-adv-x="372" 
d="M244 1010l35 479h190l-193 -479h-32z" />
    <glyph glyph-name="parenleft" unicode="(" horiz-adv-x="636" 
d="M147 397q0 305 156 573t438 529h60q-291 -303 -415 -591t-124 -607q0 -190 42 -345t128 -325h-47q-238 354 -238 766z" />
    <glyph glyph-name="parenright" unicode=")" horiz-adv-x="636" 
d="M365 829q0 190 -42 345t-128 325h47q238 -354 237 -766q1 -305 -155 -572t-439 -530h-59q291 303 415 591t124 607z" />
    <glyph glyph-name="asterisk" unicode="*" horiz-adv-x="745" 
d="M836 1061l-279 -14l29 -281l-23 -4l-102 266l-256 -121l-12 21l213 174l-181 209l17 18l233 -153l139 243l23 -8l-72 -270l273 -56z" />
    <glyph glyph-name="plus" unicode="+" horiz-adv-x="1187" 
d="M1079 442h-444v-442h-82v442h-444v72h444v442h82v-442h444v-72z" />
    <glyph glyph-name="comma" unicode="," horiz-adv-x="456" 
d="M121 -33q0 100 -115 125q-10 49 19 89t88 40t104 -48t45 -124q0 -230 -387 -373l-16 35q133 68 197 125t65 131z" />
    <glyph glyph-name="hyphen" unicode="-" horiz-adv-x="718" 
d="M102 487l27 113h516l-24 -113h-519z" />
    <glyph glyph-name="period" unicode="." horiz-adv-x="403" 
d="M115 -27q-51 0 -86 35t-35 86t35 86t86 35t86 -35t35 -86t-35 -86t-86 -35z" />
    <glyph glyph-name="slash" unicode="/" horiz-adv-x="819" 
d="M-158 -418l-51 29l1098 1917l51 -27z" />
    <glyph glyph-name="zero" unicode="0" horiz-adv-x="1187" 
d="M508 -31q-186 0 -310 124q-124 123 -124 351t175 406t435 178q198 0 314 -135t116 -328q0 -242 -174 -419t-432 -177zM676 985q-162 0 -292 -170t-138 -420q-4 -161 60 -271t216 -110q150 0 280 165t138 425q5 206 -106 318q-64 63 -158 63z" />
    <glyph glyph-name="one" unicode="1" horiz-adv-x="716" 
d="M555 1024l-184 -952l202 -35l-4 -37h-589l6 37l231 35l160 823l-268 -18l4 38l434 109h8z" />
    <glyph glyph-name="two" unicode="2" horiz-adv-x="864" 
d="M594 750q0 72 -50 120t-122 50q-72 0 -128 -31t-136 -105l-25 21q143 233 342 233q127 0 203 -78t76 -191q0 -114 -72 -205t-238 -226l-239 -197h528l-31 -141h-710l14 43l109 96q287 254 383 377t96 234z" />
    <glyph glyph-name="three" unicode="3" horiz-adv-x="757" 
d="M442 100q0 100 -76 159q-77 58 -194 58h-35l4 58l62 37q173 102 243 172t70 178q0 70 -46 118t-128 48t-219 -115l-23 18q88 115 162 161t171 46t168 -63t71 -172q0 -174 -234 -307l-145 -84q127 -10 219 -92t92 -195q0 -195 -158 -333t-528 -255l-14 35q226 92 371 207
q167 129 167 321z" />
    <glyph glyph-name="four" unicode="4" horiz-adv-x="1112" 
d="M152 168h456l117 596zM512 -332l74 381h-584l8 37l895 934h19l-164 -852h260l-21 -119h-262l-73 -381h-152z" />
    <glyph glyph-name="five" unicode="5" horiz-adv-x="747" 
d="M399 144q0 106 -59 229t-231 307l176 321l454 15l-30 -144l-449 -12l-37 -69q195 -207 269 -336t73 -287q0 -106 -38 -196t-95 -154q-144 -159 -520 -289l-14 39q84 36 139 64t131 80q231 159 231 432z" />
    <glyph glyph-name="six" unicode="6" horiz-adv-x="1050" 
d="M579 774q-100 0 -184 -66t-141 -178q-23 -86 -23 -174q0 -348 226 -348q139 0 240 132t102 341q0 127 -60 210t-160 83zM625 842q143 0 240 -100t98 -267q-1 -117 -55 -229t-175 -194q-121 -83 -279 -83q-158 1 -269 105t-111 274q1 319 218 557q279 307 853 504l10 -35
q-664 -317 -850 -702h6q143 170 314 170z" />
    <glyph glyph-name="seven" unicode="7" horiz-adv-x="888" 
d="M895 1016v-12l-655 -1117l-172 -303l-76 47l772 1243h-680l29 142h782z" />
    <glyph glyph-name="eight" unicode="8" horiz-adv-x="968" 
d="M395 1071q0 -74 37 -132t131 -153l35 -34q242 188 242 374q0 96 -54 158t-150 64q-97 0 -169 -72t-72 -205zM207 272q0 -110 61 -184q60 -74 176 -74t192 73t75 202q0 129 -166 295l-76 75q-139 -98 -201 -188q-62 -89 -61 -199zM254 1028q0 141 119 255t271 114t250 -72
t99 -204q0 -132 -150 -247q-72 -55 -141 -96q-70 -40 -81 -49l55 -53q96 -96 143 -169t47 -167q0 -154 -140 -264t-304 -109q-164 0 -268 82t-103 223q0 141 132 245q69 54 118 84t143 81l-61 63q-73 71 -101 135t-28 148z" />
    <glyph glyph-name="nine" unicode="9" horiz-adv-x="1064" 
d="M487 236q102 0 190 71q87 72 136 195q16 86 16 166q0 150 -55 236t-164 85q-141 0 -242 -132t-102 -341q0 -124 60 -202t161 -78zM438 168q-141 0 -238 95t-98 259q0 117 55 229q54 113 177 195t289 82t267 -108t101 -298q0 -188 -89 -361q-160 -312 -581 -522
q-187 -93 -401 -151l-10 35q672 281 854 719h-6q-135 -174 -320 -174z" />
    <glyph glyph-name="colon" unicode=":" horiz-adv-x="403" 
d="M254 707q-51 1 -86 35t-35 85t35 86t86 35t86 -35t35 -86t-35 -85t-86 -35zM115 -27q-51 0 -86 35t-35 86t35 86t86 35t86 -35t35 -86t-35 -86t-86 -35z" />
    <glyph glyph-name="semicolon" unicode=";" horiz-adv-x="456" 
d="M256 707q-51 1 -86 35t-35 85t35 86t86 35t86 -35t35 -86t-35 -85t-86 -35zM123 221q59 0 104 -48t45 -124q0 -230 -387 -373l-16 35q133 68 198 125t64 131q0 100 -115 125q-10 49 19 89t88 40z" />
    <glyph glyph-name="less" unicode="&#x3c;" horiz-adv-x="1187" 
d="M1073 881l-878 -408l878 -405v-78l-967 448v72l967 446v-75z" />
    <glyph glyph-name="equal" unicode="=" horiz-adv-x="1187" 
d="M1079 295h-970v72h970v-72zM1079 584h-970v71h970v-71z" />
    <glyph glyph-name="greater" unicode="&#x3e;" horiz-adv-x="1187" 
d="M115 63l878 408l-878 406v79l966 -448v-72l-966 -446v73z" />
    <glyph glyph-name="question" unicode="?" horiz-adv-x="731" 
d="M27 94q0 51 34 86q35 35 86 35t86 -35t35 -86t-35 -86t-86 -35t-86 35q-34 35 -34 86zM723 899q0 -133 -60 -202t-208 -89l-181 -24l-63 -205h-41l47 340l272 37q96 14 139 48q42 34 42 99q0 182 -342 297l-60 21l31 180l59 -29q166 -80 266 -210t99 -263z" />
    <glyph glyph-name="at" unicode="@" horiz-adv-x="1857" 
d="M710 139q66 1 162 107t175 238q78 132 108 225l45 137q-61 70 -121 69q-111 1 -213 -111t-161 -268t-60 -296q-1 -101 65 -101zM638 29q-81 0 -122 50t-41 116q0 147 69 294t168 249t211 168q113 65 195 65t162 -53l49 73h55l-215 -712q-68 -201 72 -201q119 0 259 128
q71 64 118 186t47 276q0 254 -174 432t-436 178q-358 0 -598 -243t-240 -615q0 -330 187 -518t495 -189q141 0 301 54v-27q-32 -22 -142 -52t-218 -30q-356 0 -561 196t-205 521q0 258 148 483t387 356t501 132q314 0 492 -186t178 -462q0 -164 -60 -296
q-104 -231 -341 -328q-99 -41 -196 -41q-97 1 -145 75t-14 193l35 119h-10l-64 -98q-70 -109 -168 -201t-179 -92z" />
    <glyph glyph-name="A" unicode="A" horiz-adv-x="1275" 
d="M721 1223l-340 -658h436l-92 658h-4zM-102 0l8 39l127 35l696 1282l64 12l69 10l191 -1306l121 -37l-7 -35h-475l8 37l187 35l-60 415h-487l-211 -409l190 -39l-8 -39h-413z" />
    <glyph glyph-name="B" unicode="B" horiz-adv-x="1134" 
d="M907 1047q1 131 -105 205t-282 67l-112 -576l127 5q168 4 270 86t102 213zM866 379q0 117 -66 191q-122 135 -405 116l-116 -602q121 -43 256 -43t233 85t98 253zM567 1360q254 0 382 -82t128 -194q1 -112 -65 -191q-66 -78 -158 -117t-207 -57v-6q164 -9 283 -95
t119 -221q0 -183 -159 -293t-433 -108l-531 4l8 37l175 35l239 1216l-162 37l7 35h374z" />
    <glyph glyph-name="C" unicode="C" horiz-adv-x="1368" 
d="M676 -33q-262 0 -423 159t-161 435q0 232 151 458t405 318q142 51 268 51q204 1 340 -61q46 -20 116 -57l-55 -361h-33l-49 305q-127 123 -291 123q-116 0 -234 -55q-263 -123 -376 -409q-61 -157 -62 -341q0 -244 121 -376t297 -133q176 0 326 104l186 328h35l-104 -387
q-80 -31 -120 -45q-39 -14 -139 -35t-198 -21z" />
    <glyph glyph-name="D" unicode="D" horiz-adv-x="1404" 
d="M633 1360q342 0 542 -148q199 -148 199 -408q0 -261 -149 -469q-149 -209 -444 -292q-161 -45 -355 -45l-500 2l8 37l175 35l239 1216l-162 37l7 35h440zM518 49q148 0 286 66t220 172q166 215 166 483t-162 410t-508 135l-237 -1217q87 -49 235 -49z" />
    <glyph glyph-name="E" unicode="E" horiz-adv-x="1128" 
d="M412 55h366l226 340h38l-135 -395h-977l9 37l174 35l235 1216l-162 37l7 35h811l122 10l-51 -387h-33l-57 322h-467l-110 -564h301l106 220h35l-96 -490h-35l-23 207h-301l-114 -586q35 -37 131 -37z" />
    <glyph glyph-name="F" unicode="F" horiz-adv-x="1056" 
d="M692 657h-301l-115 -585l179 -35l-6 -37h-519l9 37l174 35l235 1216l-162 37l7 35h811l122 10l-61 -403h-35l-45 338h-467l-117 -584h304l106 219h35l-96 -489h-35z" />
    <glyph glyph-name="G" unicode="G" horiz-adv-x="1388" 
d="M262 532q0 -233 124 -374t302 -142q123 0 205 52t102 145l60 295l-211 37l6 35h512l-4 -35l-135 -37l-80 -406q-217 -139 -467 -139t-417 166q-167 167 -167 399t105 423q104 191 305 315t452 123q127 0 218 -30t198 -87l-72 -350h-38l-31 307q-117 109 -291 108
q-121 0 -241 -60q-260 -130 -374 -420q-61 -153 -61 -325z" />
    <glyph glyph-name="H" unicode="H" horiz-adv-x="1388" 
d="M752 0l8 37l176 35l121 616h-660l-121 -616l160 -35l-6 -37h-504l8 37l175 35l239 1216l-162 37l7 35h505l-6 -35l-176 -37l-106 -538h659l107 538l-162 37l6 35h504l-6 -35l-175 -37l-239 -1216l158 -35l-7 -37h-503z" />
    <glyph glyph-name="I" unicode="I" horiz-adv-x="561" 
d="M-74 0l8 37l175 35l239 1216l-162 37l7 35h503l-6 -35l-174 -37l-240 -1216l158 -35l-6 -37h-502z" />
    <glyph glyph-name="J" unicode="J" horiz-adv-x="579" 
d="M535 1288l-240 -1218q-25 -121 -53 -197q-67 -184 -228 -259q-90 -42 -227 -65l-10 39q163 58 235 156t109 293l246 1251l-162 37l6 35h504l-6 -35z" />
    <glyph glyph-name="K" unicode="K" horiz-adv-x="1257" 
d="M1192 35l-6 -35q-236 -26 -338 70t-438 647v4l688 561l-160 43l6 35h438l-6 -35l-176 -43l-643 -508q186 -292 261 -406t152 -203q76 -89 110 -101t112 -29zM-74 0l8 37l175 35l239 1216l-162 37l7 35h505l-6 -35l-176 -37l-240 -1216l160 -35l-6 -37h-504z" />
    <glyph glyph-name="L" unicode="L" horiz-adv-x="1093" 
d="M403 55h345l247 367h39l-147 -422h-961l8 37l175 35l239 1216l-162 37l7 35h505l-6 -35l-176 -37l-240 -1196q33 -37 127 -37z" />
    <glyph glyph-name="M" unicode="M" horiz-adv-x="1683" 
d="M-88 0l8 37l174 35l299 1216l-162 37l7 35h356l209 -1069l608 1028l16 41h338l-6 -35l-174 -37l-182 -1216l158 -35l-7 -37h-501l8 37l176 35l170 1122l-621 -1047l-51 -96h-47l-12 96l-230 1104l-266 -1179l160 -35l-6 -37h-422z" />
    <glyph glyph-name="N" unicode="N" horiz-adv-x="1376" 
d="M1069 -29h-29l-649 1211l-209 -1108l160 -37l-6 -37h-408l9 37l174 37l231 1175q-33 43 -100 62l-60 14l6 35h293l572 -1067l186 991l-162 41l6 35h410l-6 -35l-174 -41l-203 -1036z" />
    <glyph glyph-name="O" unicode="O" horiz-adv-x="1490" 
d="M1284 856q0 209 -104 344t-293 135q-246 0 -432 -257t-187 -586q0 -208 104 -344t282 -136q176 0 320 123t227 317t83 404zM891 1389q252 0 411 -169t158 -413q0 -338 -233 -593t-565 -255q-244 0 -407 168t-163 418q0 338 234 591t565 253z" />
    <glyph glyph-name="P" unicode="P" horiz-adv-x="1087" 
d="M950 1024q0 131 -110 214q-111 83 -312 83l-245 -1249l200 -35l-6 -37h-545l9 37l174 35l239 1216l-161 37l6 35h454q197 -4 334 -87t137 -235q0 -200 -192 -308t-469 -85l8 43q209 0 344 84t135 252z" />
    <glyph glyph-name="Q" unicode="Q" horiz-adv-x="1490" 
d="M1284 858q0 209 -104 343t-280 134q-176 -1 -318 -119t-228 -313t-86 -407t104 -350q104 -136 282 -136q176 0 320 124t227 320t83 404zM891 1389q252 0 411 -169t158 -413q0 -317 -216 -565t-521 -275q22 -19 145 -112q122 -93 144 -104t65 -38t69 -36t72 -25t128 -19
q180 0 380 136l17 -21q-147 -127 -247 -174t-206 -47q-196 1 -368 109t-447 360q-167 58 -275 206t-108 343q0 338 234 591t565 253z" />
    <glyph glyph-name="R" unicode="R" horiz-adv-x="1214" 
d="M520 1319l-121 -617q246 -14 383 80t138 256q0 129 -100 209t-300 72zM657 1360q195 0 315 -80t120 -217q0 -281 -381 -377l102 -249q83 -197 139 -278q20 -30 60 -62t68 -41t85 -23l-6 -33q-245 -25 -317 50t-258 530l-19 44q-6 13 -10 25h-166l-113 -577l189 -39
l-6 -33h-533l8 37l175 35l239 1216l-162 37l7 35h464z" />
    <glyph glyph-name="S" unicode="S" horiz-adv-x="983" 
d="M737 313q0 88 -51 158t-162 143l-71 48q-135 90 -187 158q-51 69 -51 175q0 158 147 276t351 118q125 0 299 -66l-74 -360h-33l-12 288q-111 78 -237 78t-208 -75t-82 -176t42 -154q41 -53 145 -123l51 -33q158 -104 226 -185t69 -186q0 -176 -156 -302t-347 -126
t-373 97l69 393h31l22 -324q119 -109 259 -109t236 78q97 76 97 209z" />
    <glyph glyph-name="T" unicode="T" horiz-adv-x="1232" 
d="M350 1360h869l120 12l-98 -389h-35l-2 322h-352l-244 -1233l180 -35l-6 -37h-544l8 37l194 35l244 1233h-336l-149 -322h-35l63 389z" />
    <glyph glyph-name="U" unicode="U" horiz-adv-x="1308" 
d="M634 70q179 0 297 116t167 383l137 715l-160 41l6 35h383l-6 -35l-149 -43l-152 -758q-49 -258 -192 -406t-380 -147q-237 0 -360 144q-122 144 -61 487l141 686l-135 37l6 35h479l-6 -35l-176 -37l-151 -735q-49 -239 42 -361t270 -122z" />
    <glyph glyph-name="V" unicode="V" horiz-adv-x="1150" 
d="M426 -23l-217 1315l-115 33l6 35h459l-6 -35l-176 -37l166 -1075h8l604 1075l-164 37l6 35h373l-8 -35l-127 -39l-756 -1309h-53z" />
    <glyph glyph-name="W" unicode="W" horiz-adv-x="1683" 
d="M1049 -12l-129 989l-517 -989h-69l-125 1304l-115 33l6 35h457l-6 -35l-176 -37l92 -1061l438 850l-26 215l-142 33l6 35h482l-6 -35l-179 -37l131 -1077l492 1077l-164 37l6 35h383l-8 -35l-127 -39l-631 -1298h-73z" />
    <glyph glyph-name="X" unicode="X" horiz-adv-x="1308" 
d="M-66 37l140 33l547 610l-259 608l-137 37l6 35h490l-6 -35l-176 -37l206 -500h5l421 500l-157 37l8 35h405l-6 -35l-155 -39l-492 -561l279 -653l131 -35l-8 -37h-486l8 37l181 35l-230 544h-4l-469 -544l158 -35l-6 -37h-402z" />
    <glyph glyph-name="Y" unicode="Y" horiz-adv-x="1212" 
d="M1231 1286l-506 -680l-107 -534l158 -35l-6 -37h-502l8 37l175 35l104 522l-272 698l-115 33l6 35h465l-6 -35l-176 -37l231 -626h6l451 626l-164 37l6 35h379l-8 -35z" />
    <glyph glyph-name="Z" unicode="Z" horiz-adv-x="1216" 
d="M1255 1360v-14l-1056 -1289h694l221 365h39l-133 -434l-131 12h-905l4 27l1044 1276h-635l-174 -363h-35l74 432l144 -12h849z" />
    <glyph glyph-name="bracketleft" unicode="[" horiz-adv-x="595" 
d="M389 -371h-338l371 1872h336l-10 -51h-201l-346 -1769h200z" />
    <glyph glyph-name="backslash" unicode="\" horiz-adv-x="841" 
d="M721 -408l-57 -12l-414 1933l55 15z" />
    <glyph glyph-name="bracketright" unicode="]" horiz-adv-x="595" 
d="M221 1501h338l-371 -1872h-335l10 52h200l349 1769h-201z" />
    <glyph glyph-name="asciicircum" unicode="^" horiz-adv-x="821" 
d="M276 993h-63l387 555h37l186 -555h-53l-176 422z" />
    <glyph glyph-name="underscore" unicode="_" horiz-adv-x="811" 
d="M-158 -408l17 70h784l-14 -70h-787z" />
    <glyph glyph-name="grave" unicode="`" horiz-adv-x="481" 
d="M236 1540h139l57 -426h-45l-151 404v22z" />
    <glyph glyph-name="a" unicode="a" horiz-adv-x="966" 
d="M233 84q90 0 251 225t206 363l49 149q-55 78 -125 78q-145 0 -285 -223t-155 -477q-7 -115 59 -115zM655 956q82 0 146 -38l69 114h62l-254 -913h6q104 78 209 221l29 -16q-82 -142 -178 -244t-160 -103q-89 0 -54 150l95 305h-9q-191 -295 -263 -358
q-109 -101 -211 -101q-60 1 -102 51t-36 148q10 160 84 312q132 270 380 412q105 60 187 60z" />
    <glyph glyph-name="b" unicode="b" horiz-adv-x="907" 
d="M645 860q-70 0 -164 -100q-95 -100 -165 -226t-97 -217l-53 -180q45 -115 156 -114q90 0 182 104t151 258q59 155 69 315t-79 160zM273 -29q-151 0 -250 142l-11 14l330 1241l-125 84l4 14l311 62l-253 -963h12q236 412 454 412q76 0 116 -66t36 -197q-4 -130 -91 -306
q-86 -176 -234 -306t-299 -131z" />
    <glyph glyph-name="c" unicode="c" horiz-adv-x="749" 
d="M510 891q-68 0 -146 -97q-78 -96 -128 -242q-52 -146 -52 -255t38 -158t110 -49t143 65q72 65 168 193l35 -20q-94 -162 -194 -259t-240 -98q-102 0 -163 75q-60 75 -61 187q0 165 94 343t238 290t289 113q66 0 111 -32t45 -64q-1 -31 -17 -63t-35 -48q-114 119 -235 119
z" />
    <glyph glyph-name="d" unicode="d" horiz-adv-x="993" 
d="M588 922q-144 0 -270 -211t-138 -471q-6 -84 18 -122t58 -38q88 0 250 212t211 400l28 115q-25 51 -66 83q-42 32 -91 32zM618 979q92 0 162 -39l111 428l-152 84l4 14l338 62l-370 -1409h6q104 78 209 221l28 -16q-82 -138 -179 -242t-147 -104t-68 31q-17 32 3 118
l90 301h-8q-281 -455 -471 -455q-74 -1 -124 57t-44 179q10 180 94 357t224 295t294 118z" />
    <glyph glyph-name="e" unicode="e" horiz-adv-x="739" 
d="M542 907q-73 -1 -172 -109t-151 -270q139 29 267 120t128 192q1 67 -72 67zM255 -29q-120 0 -179 75q-60 76 -60 214t94 306t238 289q142 122 283 122t141 -121q0 -122 -179 -230t-388 -145q-27 -107 -27 -197t39 -144t107 -54t142 55q73 55 134 158l37 -14
q-63 -137 -163 -225t-219 -89z" />
    <glyph glyph-name="f" unicode="f" horiz-adv-x="557" 
d="M979 1413q0 -49 -51 -100q-127 106 -230 106q-67 0 -140 -80q-92 -98 -152 -391h266l-19 -78h-264l-139 -692q-74 -365 -194 -544t-269 -179q-53 0 -100 32t-47 79t61 108q98 -147 162 -147q43 0 74 49q56 89 163 621l136 673h-162l14 78h166q61 211 232 392t321 182
q70 0 121 -30t51 -79z" />
    <glyph glyph-name="g" unicode="g" horiz-adv-x="806" 
d="M284 -471q142 0 218 46t80 106q2 33 -31 65t-133 84l-142 76q-162 -54 -230 -102t-66 -116q0 -68 80 -114q82 -45 224 -45zM512 928q-100 0 -190 -152t-100 -320t91 -167q100 0 192 153q91 154 97 312q4 88 -16 131q-21 43 -74 43zM524 977q72 0 113 -31l287 27l-27 -113
l-199 21l2 -9q39 -74 39 -172q0 -174 -126 -316t-304 -144q-76 -41 -76 -99q0 -31 21 -47l307 -168q94 -51 124 -92t30 -86q0 -104 -151 -192t-359 -88q-391 0 -391 175t419 285v2l-51 27q-80 43 -80 128t136 159v6q-76 26 -114 104t-38 160q0 174 125 318t313 145z" />
    <glyph glyph-name="h" unicode="h" horiz-adv-x="954" 
d="M760 977q72 0 100 -49t6 -125l-190 -684h6q106 80 209 221l29 -16q-82 -138 -180 -242t-158 -105q-37 0 -58 32q-20 32 -2 95l199 695q14 63 -41 63q-106 0 -260 -204t-234 -488l-45 -160l-123 -35l-28 25l362 1368l-125 84l4 14l312 62l-260 -983h12q106 184 227 308
t238 124z" />
    <glyph glyph-name="i" unicode="i" horiz-adv-x="473" 
d="M276 1321q0 39 30 69t69 30t69 -30t29 -69q0 -39 -30 -69q-31 -30 -69 -30t-68 30t-30 69zM254 852q-66 29 -166 -2v22q113 104 207 105q61 0 87 -44t5 -120l-194 -694h6q45 31 111 99t98 122l28 -16q-80 -134 -177 -240t-151 -106q-105 -1 -69 128z" />
    <glyph glyph-name="j" unicode="j" horiz-adv-x="450" 
d="M276 1321q0 39 30 69t69 30t69 -30t29 -69q0 -39 -30 -69q-31 -30 -69 -30t-68 30t-30 69zM-387 -426q0 45 19 66t32 32l10 13q98 -147 164 -148q101 0 164 260l254 1055q-66 29 -166 -2v22q113 104 207 105q61 0 86 -43t6 -121l-211 -893q-38 -162 -156 -308t-262 -147
q-53 0 -100 32t-47 77z" />
    <glyph glyph-name="k" unicode="k" horiz-adv-x="864" 
d="M664 860q-94 0 -212 -144t-200 -343q482 232 482 400q0 87 -70 87zM678 -68q-84 0 -154 86l-278 342q-35 -96 -53 -161l-52 -189l-123 -35l-28 25l362 1368l-125 84l4 14l312 62l-260 -983h10q217 432 450 432q57 0 97 -37t41 -98q0 -119 -119 -219t-377 -228l381 -432
v-6q-31 -25 -88 -25z" />
    <glyph glyph-name="l" unicode="l" horiz-adv-x="485" 
d="M96 -23q-43 0 -59 35t0 92l336 1264l-125 84l4 14l311 62l-373 -1409h7q109 80 209 221l28 -16q-70 -125 -172 -236t-166 -111z" />
    <glyph glyph-name="m" unicode="m" horiz-adv-x="1476" 
d="M179 862q-52 0 -89 -12v20q106 106 219 107q55 0 82 -42t8 -104l-84 -280h9q106 188 224 307t234 119q155 0 97 -213l-68 -213h8q109 188 230 307t233 119q74 0 100 -50t7 -124l-191 -684h6q104 78 209 221l29 -16q-82 -142 -178 -244t-160 -103q-37 0 -57 32t-3 95
l199 695q14 63 -41 63q-102 0 -253 -192t-232 -473l-53 -187l-125 -37l-27 25l231 801q10 63 -41 63q-104 0 -254 -192t-231 -475l-53 -185l-127 -35l-29 25l248 852q-25 10 -77 10z" />
    <glyph glyph-name="n" unicode="n" horiz-adv-x="976" 
d="M179 862q-52 0 -89 -12v20q106 106 219 107q55 0 82 -42t8 -104l-84 -280h9q104 186 224 306t234 120q72 0 100 -50t7 -124l-191 -684h7q104 78 208 221l29 -16q-82 -142 -178 -244t-160 -103q-37 0 -57 32t-2 95l198 695q14 63 -41 63q-102 0 -252 -192t-233 -475
l-53 -185l-127 -35l-29 25l248 852q-25 10 -77 10z" />
    <glyph glyph-name="o" unicode="o" horiz-adv-x="880" 
d="M560 977q284 -1 284 -325q0 -148 -64 -302t-192 -266q-130 -112 -276 -113t-213 95t-67 242t61 294q60 148 188 261q127 114 279 114zM561 936q-98 0 -188 -119q-89 -119 -139 -285t-50 -315q0 -205 117 -205q102 0 196 122q93 122 144 286t51 280t-34 176t-97 60z" />
    <glyph glyph-name="p" unicode="p" horiz-adv-x="909" 
d="M334 23q133 -1 258 211t125 432q0 111 -55 167t-128 56t-141 -25l-190 -755q45 -86 131 -86zM624 975q112 0 185 -70q74 -70 74 -190q0 -174 -86 -348q-85 -174 -223 -284t-275 -110q-68 0 -123 31l-110 -440l260 -25l-11 -45h-548l8 27l145 51l307 1208
q-41 -25 -180 -114l-12 24q119 100 209 156l47 182h117l-27 -108q131 55 243 55z" />
    <glyph glyph-name="q" unicode="q" horiz-adv-x="923" 
d="M262 78q82 0 239 213t206 401l28 115q-67 117 -157 117t-186 -109t-156 -277q-61 -168 -62 -327q0 -133 88 -133zM6 182q0 170 88 356t230 314q142 127 284 127q102 0 189 -59l22 88h115l-367 -1444l183 -15l-11 -55h-501l6 31l180 43l154 639q27 114 57 194l10 27h-12
q-69 -123 -181 -270q-65 -84 -137 -134q-152 -105 -257 2q-52 52 -52 156z" />
    <glyph glyph-name="r" unicode="r" horiz-adv-x="716" 
d="M175 862q-52 0 -89 -12v20q106 106 219 107q63 0 86 -46t-2 -118l-110 -350h16q141 301 235 407t179 107q41 0 65 -24t25 -62q0 -90 -105 -182h-35q45 139 -30 139q-70 0 -198 -212t-200 -425l-65 -201l-127 -35l-29 25l242 852q-25 10 -77 10z" />
    <glyph glyph-name="s" unicode="s" horiz-adv-x="602" 
d="M500 258q0 -94 -108 -190t-219 -96t-165 44q-53 45 -51 99q0 31 14 61t31 41h2q47 -70 114 -116t125 -46t91 35t33 82t-68 158l-86 145q-80 135 -86 161t-6 50q0 111 123 201t229 90q147 0 148 -113q0 -49 -39 -98h-4q-115 125 -207 125q-47 0 -83 -34t-36 -84t57 -146
l107 -174q58 -92 71 -128t13 -67z" />
    <glyph glyph-name="t" unicode="t" horiz-adv-x="604" 
d="M90 -23q-37 0 -57 31t-10 70l210 792h-161l8 45l178 33l123 281h80l-62 -281h289l-16 -78h-291l-199 -751h4q53 20 138 94q84 74 161 172l31 -23q-92 -147 -213 -266t-213 -119z" />
    <glyph glyph-name="u" unicode="u" horiz-adv-x="991" 
d="M173 862q-52 0 -89 -12v20q106 106 219 107q59 0 79 -46t3 -114l-178 -672q-4 -23 8 -40t39 -17q98 0 265 238t216 432l49 190l136 13l14 -17l-219 -825h6q113 82 209 221l28 -16q-80 -138 -176 -242t-161 -105q-37 0 -58 30q-20 30 -4 91l105 373h-9
q-114 -212 -192 -313t-146 -143t-134 -42t-105 42t-23 114l195 723q-25 10 -77 10z" />
    <glyph glyph-name="v" unicode="v" horiz-adv-x="813" 
d="M711 744q0 66 -33 98q-61 57 -193 10v22q109 102 201 103q59 0 97 -38q38 -39 38 -117q-1 -78 -67 -198t-275 -380l-221 -273h-18l-37 23l-13 856q-32 12 -76 12t-81 -10v22q109 102 209 103q98 0 102 -143l-2 -691h6q221 283 292 409t71 192z" />
    <glyph glyph-name="w" unicode="w" horiz-adv-x="1261" 
d="M1159 746q0 64 -33 96q-60 56 -192 10v22q109 102 201 103q59 0 97 -38q38 -39 38 -115t-66 -190t-276 -390l-209 -273h-17l-53 23l6 498h-6q-35 -52 -133 -182t-158 -216l-84 -123h-18l-57 23l-2 854q-39 14 -85 14t-79 -10v22q113 102 209 103q59 0 85 -37t23 -129
l-8 -661h6q227 313 303 432l-4 258q-46 46 -164 12v22q111 102 209 103q51 0 74 -39t25 -131l6 -655h6q356 452 356 594z" />
    <glyph glyph-name="x" unicode="x" horiz-adv-x="888" 
d="M517 -23q-62 0 -77 80l-61 316l-82 -125q-113 -168 -169 -221t-108 -53t-84 25q-30 26 -30 67t39 94l26 -25q39 -37 68 -45q56 -16 147 97q41 52 115 157l66 94l-60 314q-10 52 -23 76t-42 24q-80 0 -133 -227h-37q20 156 88 254t153 98q61 0 93 -41t47 -135l34 -205
l138 227q51 84 93 119t93 35t78 -23t26 -61q0 -80 -106 -172h-39q35 49 31 97t-39 48q-22 0 -52 -32t-96 -132l-114 -172l75 -430h5q46 16 120 92t125 148l29 -16q-82 -141 -178 -244t-159 -103z" />
    <glyph glyph-name="y" unicode="y" horiz-adv-x="890" 
d="M473 508q0 -303 -92 -576h10q164 186 262 386t99 378q0 135 -88 252q49 31 106 31q96 0 94 -154q-2 -155 -64 -325t-160 -316q-202 -304 -454 -510q-253 -206 -374 -206q-45 0 -74 26t-29 70t27 72t67 28q90 0 113 -110h4q294 114 380 647q22 135 22 268t-20 222
q-34 159 -103 159q-47 0 -76 -50t-62 -175h-36q16 154 83 254q66 100 158 98t150 -128t57 -341z" />
    <glyph glyph-name="z" unicode="z" horiz-adv-x="815" 
d="M467 -43q-39 0 -115 31l-278 110l-109 -139l-59 45l704 744l-278 106q-106 41 -137 2q-41 -51 75 -156q-55 -66 -112 -65q-33 -1 -57 23t-23 67q2 86 98 172t191 86q63 0 141 -29l213 -88l92 117l53 -45l-684 -721l283 -106q76 -29 124 1t134 138q10 14 16 20l33 -18
q-102 -164 -162 -230t-143 -65z" />
    <glyph glyph-name="braceleft" unicode="{" horiz-adv-x="667" 
d="M426 -371q-201 0 -254 88t10 299l105 365q27 90 -15 135t-125 47l-73 2l12 60l72 2q180 2 198 149l52 414q18 150 107 230t280 81h26l-6 -31q-115 0 -170 -53t-90 -229l-63 -320q-50 -243 -234 -274l-2 -8q80 -31 113 -97t6 -206l-64 -340q-33 -175 2 -229t150 -54
l-4 -31h-33z" />
    <glyph glyph-name="bar" unicode="|" horiz-adv-x="487" 
d="M100 -410h-71l383 1911h67z" />
    <glyph glyph-name="braceright" unicode="}" horiz-adv-x="657" 
d="M254 1501q199 0 252 -88t-8 -297l-105 -366q-27 -90 15 -136t124 -47l74 -2l-12 -59l-72 -2q-180 -2 -198 -150l-52 -413q-18 -150 -107 -231t-280 -81h-26l6 31q115 0 170 53t90 230l63 319q50 244 234 275l2 8q-80 31 -113 97t-6 206l64 340q33 176 -2 229t-150 53
l4 31h33z" />
    <glyph glyph-name="asciitilde" unicode="~" horiz-adv-x="944" 
d="M98 393l-35 13l9 20q121 303 381 203l157 -60q124 -45 183 -15q58 30 106 124l35 -12l-8 -21q-119 -303 -381 -203l-133 52q-129 49 -197 25t-117 -126z" />
    <glyph glyph-name="uni00A0" unicode="&#xa0;" horiz-adv-x="348" 
 />
    <glyph glyph-name="exclamdown" unicode="&#xa1;" horiz-adv-x="462" 
d="M338 1165q51 0 86 -35t35 -86t-35 -86q-35 -34 -86 -34t-86 34t-35 86q0 51 35 86t86 35zM170 -274h-176l274 1034h41z" />
    <glyph glyph-name="cent" unicode="&#xa2;" horiz-adv-x="780" 
d="M322 82h4l172 811q-114 -37 -212 -231t-102 -379q-2 -101 39 -151t99 -50zM244 -29q-104 0 -163 76q-58 76 -58 189q0 168 92 343t258 302q57 45 137 73l55 256h58l-52 -241q33 8 86 8t99 -29t45 -71q0 -42 -49 -107q-36 47 -94 85t-101 44l-172 -807q33 8 55 26t41 30
q19 13 59 63q40 49 48 59t29 38q22 28 30 38l33 -18q-49 -86 -87 -140t-100 -113q-62 -58 -131 -83l-49 -236h-55l45 221q-29 -6 -59 -6z" />
    <glyph glyph-name="sterling" unicode="&#xa3;" horiz-adv-x="1112" 
d="M932 1337q72 0 129 -42t57 -101q0 -72 -114 -107q-39 188 -142 189q-127 0 -192 -264l-103 -414h359l-13 -53h-360l-8 -37q-74 -303 -301 -459q127 -59 270 -164l70 -47q172 -122 223 -152t88 -30q61 0 79 83q17 83 -13 183q141 27 141 -80q0 -72 -85 -158t-207 -87
q-122 0 -269 106q-91 65 -164 127q-74 61 -90 74l-115 100q-88 -41 -144 -41q-104 0 -104 70q0 35 30 57t86 21q56 0 153 -41q102 92 159 317l39 158h-241l10 53h243l56 219q63 252 207 386t266 134z" />
    <glyph glyph-name="yen" unicode="&#xa5;" horiz-adv-x="1017" 
d="M80 541l10 55h344l-235 639l-95 33l7 35h444l-6 -35l-176 -37l188 -590h8l412 590l-164 37l6 35h355l-9 -35l-106 -39l-459 -633h334l-10 -55h-336l-31 -156h336l-10 -55h-336l-51 -258l157 -37l-6 -35h-501l8 39l174 33l51 258h-344l10 55h344l31 156h-344z" />
    <glyph glyph-name="brokenbar" unicode="&#xa6;" horiz-adv-x="487" 
d="M98 -410h-67l170 854h65zM305 641h-65l174 860h63z" />
    <glyph glyph-name="section" unicode="&#xa7;" horiz-adv-x="927" 
d="M303 729q0 -96 64 -283l67 -194q62 -180 62 -278t-58 -173h11q168 150 167 389q0 96 -63 283l-68 195q-61 180 -61 282t51 168h-6q-166 -147 -166 -389zM389 -164q0 60 -96 332l-94 266q-41 112 -41 232t86 256q152 241 449 384q125 58 195 58t100 -24t30 -58t-27 -58
q-27 -26 -61 -30q-52 59 -146 59t-213 -65q-41 -46 -41 -106t97 -330l94 -267q41 -111 41 -231t-86 -257q-153 -242 -454 -383q-126 -58 -194 -58t-94 28t-26 61t24 55t58 26q53 -60 146 -60t210 66q43 44 43 104z" />
    <glyph glyph-name="dieresis" unicode="&#xa8;" 
d="M711 1229q-39 1 -66 27t-27 65t27 67t66 28t67 -28t27 -67q1 -39 -27 -65t-67 -27zM498 1321q0 -39 -28 -65t-68 -27q-40 1 -66 27t-25 65q0 39 26 67q27 28 65 28t67 -28t29 -67z" />
    <glyph glyph-name="copyright" unicode="&#xa9;" horiz-adv-x="1642" 
d="M814 268q-78 0 -158 38q-140 67 -183 228q-18 69 -10 138q16 166 150 278t329 111q125 0 242 -66l-35 -221h-25l-34 195q-80 55 -160 55q-117 0 -208 -90q-92 -90 -108 -254t49 -268t195 -105q82 0 154 55l88 209h26l-24 -223q-61 -31 -89 -44q-28 -12 -75 -24
q-46 -12 -124 -12zM816 4q270 0 470 194q199 194 207 467t-177 467q-186 194 -456 194t-468 -194t-206 -468t176 -467t454 -193zM817 -39q-293 0 -493 205t-190 499q9 293 221 499t506 206t494 -206q199 -206 191 -500t-222 -498q-214 -205 -507 -205z" />
    <glyph glyph-name="ordfeminine" unicode="&#xaa;" horiz-adv-x="892" 
d="M317 586q70 0 196 165t161 281l37 113q-41 69 -111 69t-148 -86t-134 -221q-54 -135 -54 -258q0 -27 15 -45t38 -18zM610 477q-84 0 -53 123l59 221h-8q-213 -350 -379 -350q-49 0 -79 37t-31 96q0 139 85 297t211 264q126 107 222 107t141 -45l33 61h61l-198 -719l6 -2
q45 23 100 77t92 108l25 -15q-59 -109 -137 -185t-150 -75z" />
    <glyph glyph-name="guillemotleft" unicode="&#xab;" horiz-adv-x="833" 
d="M750 776l26 -33l-321 -331l217 -316l-35 -28l-318 335v19zM438 776l27 -33l-322 -331l217 -316l-34 -28l-318 335v19z" />
    <glyph glyph-name="logicalnot" unicode="&#xac;" horiz-adv-x="1187" 
d="M109 514h970v-397h-75v325h-895v72z" />
    <glyph glyph-name="registered" unicode="&#xae;" horiz-adv-x="864" 
d="M686 1264q0 36 -30 62t-93 26l-37 -185h54q106 4 106 97zM588 1370q186 0 186 -106q0 -84 -133 -115q57 -117 81 -141t79 -29l-4 -16q-104 -14 -138 9q-33 24 -96 167h-43l-26 -142l49 -14l-4 -14h-195l4 16l64 14l67 340l-57 15l2 16h164zM227 1159q-1 -145 101 -245
t250 -99q148 0 248 98q102 99 102 245t-102 246t-250 99q-148 1 -248 -99t-101 -245zM977 1159q0 -161 -118 -271t-285 -110q-166 0 -280 108t-114 271q0 162 118 274q118 111 283 111t281 -110t115 -273z" />
    <glyph glyph-name="macron" unicode="&#xaf;" 
d="M115 1266l20 96h510l-22 -96h-508z" />
    <glyph glyph-name="degree" unicode="&#xb0;" horiz-adv-x="598" 
d="M248 1235q0 -93 58 -157t150 -64t149 63q59 63 59 157t-58 158t-150 64q-91 0 -150 -63q-58 -64 -58 -158zM184 1234q0 114 81 192t196 79q115 0 191 -79q76 -80 75 -192q0 -112 -81 -192q-80 -80 -194 -80t-191 80q-77 78 -77 192z" />
    <glyph glyph-name="plusminus" unicode="&#xb1;" horiz-adv-x="1185" 
d="M109 0v72h970v-72h-970zM1079 674h-444v-443h-82v443h-444v71h444v443h82v-443h444v-71z" />
    <glyph glyph-name="acute" unicode="&#xb4;" horiz-adv-x="481" 
d="M555 1540v-20l-279 -406h-49l189 426h139z" />
    <glyph glyph-name="paragraph" unicode="&#xb6;" horiz-adv-x="1038" 
d="M264 -420q-139 0 -233 88t-94 222t93 224q94 90 202 91q108 0 164 -48t56 -117t-38 -105q-39 -35 -91 -35t-86 28t-34 70q63 55 94 111v6q-18 27 -86 27q-67 0 -133 -68q-66 -66 -66 -173t72 -185t201 -76q129 0 227 87t131 242l260 1334h-108l-154 -785h-90
q-160 0 -258 106t-100 265q-4 203 153 337q158 134 356 134h472l-7 -35l-174 -37l-250 -1280q-43 -220 -169 -324t-310 -104z" />
    <glyph glyph-name="periodcentered" unicode="&#xb7;" horiz-adv-x="497" 
d="M248 432q-51 0 -86 35t-35 86t35 86t86 35t86 -35t35 -86t-35 -86t-86 -35z" />
    <glyph glyph-name="cedilla" unicode="&#xb8;" horiz-adv-x="481" 
d="M238 -266q0 -195 -344 -258l2 30q209 57 208 177q0 31 -19 55t-31 30l-36 15l39 57q37 55 76 113l39 57h53l-96 -145q51 -18 80 -54t29 -77z" />
    <glyph glyph-name="ordmasculine" unicode="&#xba;" horiz-adv-x="798" 
d="M571 1278q113 0 172 -81t60 -191q0 -209 -136 -370t-309 -161q-109 0 -169 84t-60 201q0 206 134 362t308 156zM365 516q106 0 200 174t97 338q8 209 -100 209t-198 -179t-96 -341q0 -201 97 -201z" />
    <glyph glyph-name="guillemotright" unicode="&#xbb;" horiz-adv-x="833" 
d="M342 68l-27 32l322 332l-217 316l35 28l317 -336v-18zM31 68l-27 32l322 332l-217 316l34 28l318 -336v-18z" />
    <glyph glyph-name="onequarter" unicode="&#xbc;" horiz-adv-x="1400" 
d="M811 276h264l72 334zM477 1378l-153 -712l122 -25l-4 -29h-383l4 29l140 25l131 604l-156 -8l6 32l287 84h6zM96 -164l-41 37l1231 1604l43 -35zM911 31l115 22l31 144h-350l6 41l520 518l57 -8l-102 -472h151l-14 -79h-154l-30 -144l106 -24l-6 -29h-336z" />
    <glyph glyph-name="onehalf" unicode="&#xbd;" horiz-adv-x="1462" 
d="M477 1378l-153 -712l122 -25l-4 -29h-383l4 29l140 25l131 604l-156 -8l6 32l287 84h6zM96 -164l-41 37l1231 1604l43 -35zM1278 557q0 61 -37 91t-83 30t-85 -20t-58 -36q-19 -17 -61 -59l-26 15q47 88 108 138q60 50 154 50t150 -56t56 -134t-56 -144t-212 -190
l-186 -146h404l-23 -96h-520l4 31l170 151q14 12 52 44t52 44t45 40t43 41q58 63 67 80q33 62 37 82q5 21 5 44z" />
    <glyph glyph-name="threequarters" unicode="&#xbe;" horiz-adv-x="1478" 
d="M889 276h264l72 334zM174 -164l-41 37l1231 1604l43 -35zM606 856q0 -118 -112 -190t-254 -72q-76 0 -125 28t-49 78t69 84q59 -143 180 -143q70 0 120 48t48 114q0 158 -260 168l6 33q156 43 210 91q55 48 53 99t-30 77t-75 25q-98 0 -190 -114l-29 20q98 176 268 176
q82 0 129 -40t48 -108t-58 -117q-59 -50 -168 -89v-6q95 -4 157 -46t62 -116zM989 31l115 22l31 144h-351l7 41l520 518l57 -8l-102 -472h151l-14 -79h-154l-30 -144l106 -24l-6 -29h-336z" />
    <glyph glyph-name="questiondown" unicode="&#xbf;" horiz-adv-x="731" 
d="M748 1042q0 -51 -35 -86q-35 -34 -86 -34t-86 34t-35 86q0 51 35 86t86 35t86 -35t35 -86zM104 233q0 -182 342 -296l60 -21l-31 -180l-59 28q-166 80 -265 210t-99 264t60 202t207 88l181 25l63 205h41l-47 -340l-272 -37q-97 -14 -139 -48t-42 -100z" />
    <glyph glyph-name="Agrave" unicode="&#xc0;" horiz-adv-x="1275" 
d="M547 1772h158l129 -281h-50l-237 266v15zM721 1223l-340 -658h436l-92 658h-4zM-102 0l8 39l127 35l696 1282l64 12l69 10l191 -1306l121 -37l-7 -35h-475l8 37l187 35l-60 415h-487l-211 -409l190 -39l-8 -39h-413z" />
    <glyph glyph-name="Aacute" unicode="&#xc1;" horiz-adv-x="1275" 
d="M1114 1772v-15l-280 -266h-50l172 281h158zM721 1223l-340 -658h436l-92 658h-4zM-102 0l8 39l127 35l696 1282l64 12l69 10l191 -1306l121 -37l-7 -35h-475l8 37l187 35l-60 415h-487l-211 -409l190 -39l-8 -39h-413z" />
    <glyph glyph-name="Acircumflex" unicode="&#xc2;" horiz-adv-x="1275" 
d="M592 1491h-70l287 260h104l185 -260h-60l-196 170zM721 1223l-340 -658h436l-92 658h-4zM-102 0l8 39l127 35l696 1282l64 12l69 10l191 -1306l121 -37l-7 -35h-475l8 37l187 35l-60 415h-487l-211 -409l190 -39l-8 -39h-413z" />
    <glyph glyph-name="Atilde" unicode="&#xc3;" horiz-adv-x="1275" 
d="M537 1511l-27 11l10 28q82 231 281 144l114 -52q66 -40 112 -26t93 110l29 -10l-12 -39q-82 -246 -279 -155l-110 53q-84 41 -125 31t-86 -95zM721 1223l-340 -658h436l-92 658h-4zM-102 0l8 39l127 35l696 1282l64 12l69 10l191 -1306l121 -37l-7 -35h-475l8 37l187 35
l-60 415h-487l-211 -409l190 -39l-8 -39h-413z" />
    <glyph glyph-name="Adieresis" unicode="&#xc4;" horiz-adv-x="1275" 
d="M1038 1556q-40 0 -66 27t-26 66t27 67t65 27q38 0 67 -28q28 -29 28 -67t-28 -65t-67 -27zM629 1743q39 0 67 -28q28 -29 29 -67t-27 -65t-68 -27t-66 27t-25 66q-1 39 25 67t65 27zM721 1223l-340 -658h436l-92 658h-4zM-102 0l8 39l127 35l696 1282l64 12l69 10
l191 -1306l121 -37l-7 -35h-475l8 37l187 35l-60 415h-487l-211 -409l190 -39l-8 -39h-413z" />
    <glyph glyph-name="Aring" unicode="&#xc5;" horiz-adv-x="1275" 
d="M696 1711q0 -62 41 -105t99 -43t101 43q42 43 42 104q0 60 -42 104t-100 44t-100 -42q-41 -43 -41 -105zM633 1709q0 87 58 143q57 56 145 56t146 -54q58 -56 58 -143t-58 -144t-145 -57t-145 56t-59 143zM721 1223l-340 -658h436l-92 658h-4zM-102 0l8 39l127 35
l696 1282l64 12l69 10l191 -1306l121 -37l-7 -35h-475l8 37l187 35l-60 415h-487l-211 -409l190 -39l-8 -39h-413z" />
    <glyph glyph-name="AE" unicode="&#xc6;" horiz-adv-x="1765" 
d="M989 1307h-18l-400 -553h310zM1044 55h369l227 340h39l-135 -395h-977l8 39l175 33l118 618h-344l-428 -612l191 -39l-8 -39h-424l8 39l127 35l887 1204l-172 47l6 35h927l125 10l-51 -387h-33l-57 322h-467l-108 -551h301l106 219h35l-96 -490h-35l-23 207h-301
l-116 -598q35 -37 126 -37z" />
    <glyph glyph-name="Ccedilla" unicode="&#xc7;" horiz-adv-x="1368" 
d="M582 -317q0 31 -20 55t-30 30l-36 15q84 123 127 188q-231 23 -370 179q-138 156 -138 400t151 470q151 227 405 317q142 51 268 51q204 1 340 -61q46 -20 116 -57l-56 -361h-32l-50 305q-127 123 -290 123q-117 0 -235 -55q-263 -123 -376 -409q-61 -157 -61 -341
q0 -244 121 -376t297 -133q176 0 325 104l187 328h35l-105 -387q-80 -31 -120 -45q-40 -15 -139 -35t-198 -21h-24l-68 -102q51 -18 80 -54t29 -77q0 -195 -344 -258l2 30q209 57 209 177z" />
    <glyph glyph-name="Egrave" unicode="&#xc8;" horiz-adv-x="1128" 
d="M487 1772h158l129 -281h-49l-238 266v15zM412 55h366l226 340h38l-135 -395h-977l9 37l174 35l235 1216l-162 37l7 35h811l122 10l-51 -387h-33l-57 322h-467l-110 -564h301l106 220h35l-96 -490h-35l-23 207h-301l-114 -586q35 -37 131 -37z" />
    <glyph glyph-name="Eacute" unicode="&#xc9;" horiz-adv-x="1128" 
d="M1032 1772v-15l-280 -266h-50l172 281h158zM412 55h366l226 340h38l-135 -395h-977l9 37l174 35l235 1216l-162 37l7 35h811l122 10l-51 -387h-33l-57 322h-467l-110 -564h301l106 220h35l-96 -490h-35l-23 207h-301l-114 -586q35 -37 131 -37z" />
    <glyph glyph-name="Ecircumflex" unicode="&#xca;" horiz-adv-x="1128" 
d="M518 1491h-69l286 260h105l184 -260h-59l-197 170zM412 55h366l226 340h38l-135 -395h-977l9 37l174 35l235 1216l-162 37l7 35h811l122 10l-51 -387h-33l-57 322h-467l-110 -564h301l106 220h35l-96 -490h-35l-23 207h-301l-114 -586q35 -37 131 -37z" />
    <glyph glyph-name="Edieresis" unicode="&#xcb;" horiz-adv-x="1128" 
d="M956 1556q-40 0 -66 27t-26 66t27 67t65 27q38 0 67 -28q28 -29 28 -67t-28 -65t-67 -27zM547 1743q39 0 67 -28q28 -29 29 -67t-27 -65t-68 -27t-66 27t-25 66q-1 39 25 67t65 27zM412 55h366l226 340h38l-135 -395h-977l9 37l174 35l235 1216l-162 37l7 35h811l122 10
l-51 -387h-33l-57 322h-467l-110 -564h301l106 220h35l-96 -490h-35l-23 207h-301l-114 -586q35 -37 131 -37z" />
    <glyph glyph-name="Igrave" unicode="&#xcc;" horiz-adv-x="561" 
d="M215 1772h158l129 -281h-49l-238 266v15zM-74 0l8 37l175 35l239 1216l-162 37l7 35h503l-6 -35l-174 -37l-240 -1216l158 -35l-6 -37h-502z" />
    <glyph glyph-name="Iacute" unicode="&#xcd;" horiz-adv-x="561" 
d="M784 1772v-15l-280 -266h-49l172 281h157zM-74 0l8 37l175 35l239 1216l-162 37l7 35h503l-6 -35l-174 -37l-240 -1216l158 -35l-6 -37h-502z" />
    <glyph glyph-name="Icircumflex" unicode="&#xce;" horiz-adv-x="561" 
d="M250 1491h-70l287 260h104l185 -260h-60l-196 170zM-74 0l8 37l175 35l239 1216l-162 37l7 35h503l-6 -35l-174 -37l-240 -1216l158 -35l-6 -37h-502z" />
    <glyph glyph-name="Idieresis" unicode="&#xcf;" horiz-adv-x="561" 
d="M-74 0l8 37l175 35l239 1216l-162 37l7 35h503l-6 -35l-174 -37l-240 -1216l158 -35l-6 -37h-502zM653 1556q-39 0 -65 27t-27 66q0 39 27 67q28 28 66 27q38 0 66 -28q28 -29 28 -67t-28 -65t-67 -27zM328 1743q40 0 68 -28q28 -29 28 -67t-28 -65t-67 -27q-40 0 -66 27
t-25 66q0 39 26 67t64 27z" />
    <glyph glyph-name="Eth" unicode="&#xd0;" horiz-adv-x="1404" 
d="M518 49q148 0 286 66t220 172q166 215 166 483t-162 410t-508 135l-121 -619h367l-12 -61h-367l-104 -537q87 -49 235 -49zM633 1360q342 0 542 -148q199 -148 199 -408q0 -261 -149 -469q-149 -209 -444 -292q-161 -45 -355 -45l-500 2l8 37l175 35l110 563h-184l14 61
h182l117 592l-162 37l7 35h440z" />
    <glyph glyph-name="Ntilde" unicode="&#xd1;" horiz-adv-x="1376" 
d="M594 1511l-27 11l11 28q82 231 280 144l115 -52q65 -40 111 -26t94 110l28 -10l-12 -39q-82 -246 -279 -155l-110 53q-84 41 -125 31t-86 -95zM1069 -29h-29l-649 1211l-209 -1108l160 -37l-6 -37h-408l9 37l174 37l231 1175q-33 43 -100 62l-60 14l6 35h293l572 -1067
l186 991l-162 41l6 35h410l-6 -35l-174 -41l-203 -1036z" />
    <glyph glyph-name="Ograve" unicode="&#xd2;" horiz-adv-x="1490" 
d="M645 1772h158l129 -281h-49l-238 266v15zM1284 856q0 209 -104 344t-293 135q-246 0 -432 -257t-187 -586q0 -208 104 -344t282 -136q176 0 320 123t227 317t83 404zM891 1389q252 0 411 -169t158 -413q0 -338 -233 -593t-565 -255q-244 0 -407 168t-163 418
q0 338 234 591t565 253z" />
    <glyph glyph-name="Oacute" unicode="&#xd3;" horiz-adv-x="1490" 
d="M1210 1772v-15l-280 -266h-49l172 281h157zM1284 856q0 209 -104 344t-293 135q-246 0 -432 -257t-187 -586q0 -208 104 -344t282 -136q176 0 320 123t227 317t83 404zM891 1389q252 0 411 -169t158 -413q0 -338 -233 -593t-565 -255q-244 0 -407 168t-163 418
q0 338 234 591t565 253z" />
    <glyph glyph-name="Ocircumflex" unicode="&#xd4;" horiz-adv-x="1490" 
d="M688 1491h-70l287 260h105l184 -260h-59l-197 170zM1284 856q0 209 -104 344t-293 135q-246 0 -432 -257t-187 -586q0 -208 104 -344t282 -136q176 0 320 123t227 317t83 404zM891 1389q252 0 411 -169t158 -413q0 -338 -233 -593t-565 -255q-244 0 -407 168t-163 418
q0 338 234 591t565 253z" />
    <glyph glyph-name="Otilde" unicode="&#xd5;" horiz-adv-x="1490" 
d="M686 1511l-27 11l11 28q82 231 280 144l115 -52q66 -40 112 -26t93 110l28 -10l-12 -39q-82 -246 -278 -155l-111 53q-84 41 -125 31t-86 -95zM1284 856q0 209 -104 344t-293 135q-246 0 -432 -257t-187 -586q0 -208 104 -344t282 -136q176 0 320 123t227 317t83 404z
M891 1389q252 0 411 -169t158 -413q0 -338 -233 -593t-565 -255q-244 0 -407 168t-163 418q0 338 234 591t565 253z" />
    <glyph glyph-name="Odieresis" unicode="&#xd6;" horiz-adv-x="1490" 
d="M1135 1556q-39 0 -66 27t-27 66t27 67t66 27q39 0 67 -28q28 -29 27 -67q1 -38 -27 -65t-67 -27zM726 1556q-40 0 -66 27t-25 66q-1 39 25 67t65 27q39 0 68 -28q29 -29 29 -67t-28 -65t-68 -27zM1284 856q0 209 -104 344t-293 135q-246 0 -432 -257t-187 -586
q0 -208 104 -344t282 -136q176 0 320 123t227 317t83 404zM891 1389q252 0 411 -169t158 -413q0 -338 -233 -593t-565 -255q-244 0 -407 168t-163 418q0 338 234 591t565 253z" />
    <glyph glyph-name="multiply" unicode="&#xd7;" horiz-adv-x="1187" 
d="M979 39l-389 393l-385 -395l-55 53l387 391l-385 393l55 52l387 -389l391 403l53 -53l-391 -402l389 -395z" />
    <glyph glyph-name="Oslash" unicode="&#xd8;" horiz-adv-x="1490" 
d="M268 506q0 -202 80 -328l809 1049q-104 109 -268 109t-307 -120q-142 -118 -228 -314q-86 -194 -86 -396zM1284 844q0 198 -86 330l-809 -1049q101 -113 271 -113t314 123t227 317t83 392zM92 545q0 338 234 591t565 253q180 0 319 -95l111 146h82l-141 -185
q199 -170 198 -448q0 -338 -233 -593t-565 -255q-180 0 -324 98l-115 -149h-82l146 188q-195 172 -195 449z" />
    <glyph glyph-name="Ugrave" unicode="&#xd9;" horiz-adv-x="1308" 
d="M635 1772h158l129 -281h-50l-237 266v15zM634 70q179 0 297 116t167 383l137 715l-160 41l6 35h383l-6 -35l-149 -43l-152 -758q-49 -258 -192 -406t-380 -147q-237 0 -360 144q-122 144 -61 487l141 686l-135 37l6 35h479l-6 -35l-176 -37l-151 -735q-49 -239 42 -361
t270 -122z" />
    <glyph glyph-name="Uacute" unicode="&#xda;" horiz-adv-x="1308" 
d="M1180 1772v-15l-281 -266h-49l172 281h158zM634 70q179 0 297 116t167 383l137 715l-160 41l6 35h383l-6 -35l-149 -43l-152 -758q-49 -258 -192 -406t-380 -147q-237 0 -360 144q-122 144 -61 487l141 686l-135 37l6 35h479l-6 -35l-176 -37l-151 -735q-49 -239 42 -361
t270 -122z" />
    <glyph glyph-name="Ucircumflex" unicode="&#xdb;" horiz-adv-x="1308" 
d="M659 1491h-69l287 260h104l184 -260h-59l-197 170zM634 70q179 0 297 116t167 383l137 715l-160 41l6 35h383l-6 -35l-149 -43l-152 -758q-49 -258 -192 -406t-380 -147q-237 0 -360 144q-122 144 -61 487l141 686l-135 37l6 35h479l-6 -35l-176 -37l-151 -735
q-49 -239 42 -361t270 -122z" />
    <glyph glyph-name="Udieresis" unicode="&#xdc;" horiz-adv-x="1308" 
d="M1104 1556q-39 0 -66 27t-26 66q0 39 26 67t66 27q38 0 66 -28q28 -29 28 -67t-28 -65t-66 -27zM695 1556q-39 0 -65 27t-26 66t26 67t64 27q38 0 68 -28q29 -29 29 -67t-28 -65t-68 -27zM634 70q179 0 297 116t167 383l137 715l-160 41l6 35h383l-6 -35l-149 -43
l-152 -758q-49 -258 -192 -406t-380 -147q-237 0 -360 144q-122 144 -61 487l141 686l-135 37l6 35h479l-6 -35l-176 -37l-151 -735q-49 -239 42 -361t270 -122z" />
    <glyph glyph-name="Yacute" unicode="&#xdd;" horiz-adv-x="1212" 
d="M1128 1772v-15l-280 -266h-49l172 281h157zM1231 1286l-506 -680l-107 -534l158 -35l-6 -37h-502l8 37l175 35l104 522l-272 698l-115 33l6 35h465l-6 -35l-176 -37l231 -626h6l451 626l-164 37l6 35h379l-8 -35z" />
    <glyph glyph-name="Thorn" unicode="&#xde;" horiz-adv-x="1077" 
d="M1073 718q0 -101 -61 -177q-60 -76 -160 -117q-206 -85 -457 -62l8 41q248 0 371 78t123 209t-116 218t-324 87l-183 -923l203 -35l-6 -37h-545l8 37l175 35l239 1216l-162 37l7 35h499l-6 -35l-170 -37l-51 -254l117 2q276 4 418 -142q72 -75 73 -176z" />
    <glyph glyph-name="germandbls" unicode="&#xdf;" horiz-adv-x="942" 
d="M784 1522q114 0 168 -66t54 -138q0 -128 -130 -236q-54 -44 -108 -84q-130 -96 -131 -177q0 -55 51 -157l96 -187q4 -8 18 -33t30 -60t17 -48q1 -12 3 -26t2 -25q0 -109 -104 -206t-226 -97q-74 0 -121 28t-47 70q0 43 31 90q82 -61 125 -84t95 -23t89 36q37 37 37 95
t-55 160l-90 168q-54 100 -72 146t-18 96q0 51 40 102t96 92t112 83q137 102 133 233q-2 59 -44 107q-41 49 -107 49t-120 -32q-227 -133 -295 -650l-71 -564q-25 -195 -70 -338t-90 -215q-45 -73 -100 -115q-56 -42 -90 -52t-78 -9q-44 0 -87 33q-44 33 -45 84t60 102
q21 -31 33 -46t24 -32q49 -69 94 -69t75 50q61 104 124 618l66 520q43 335 253 571t373 236z" />
    <glyph glyph-name="agrave" unicode="&#xe0;" horiz-adv-x="966" 
d="M502 1540h139l57 -426h-45l-151 404v22zM233 84q90 0 251 225t206 363l49 149q-55 78 -125 78q-145 0 -285 -223t-155 -477q-7 -115 59 -115zM655 956q82 0 146 -38l69 114h62l-254 -913h6q104 78 209 221l29 -16q-82 -142 -178 -244t-160 -103q-89 0 -54 150l95 305h-9
q-191 -295 -263 -358q-109 -101 -211 -101q-60 1 -102 51t-36 148q10 160 84 312q132 270 380 412q105 60 187 60z" />
    <glyph glyph-name="aacute" unicode="&#xe1;" horiz-adv-x="966" 
d="M963 1540v-20l-279 -406h-49l188 426h140zM233 84q90 0 251 225t206 363l49 149q-55 78 -125 78q-145 0 -285 -223t-155 -477q-7 -115 59 -115zM655 956q82 0 146 -38l69 114h62l-254 -913h6q104 78 209 221l29 -16q-82 -142 -178 -244t-160 -103q-89 0 -54 150l95 305
h-9q-191 -295 -263 -358q-109 -101 -211 -101q-60 1 -102 51t-36 148q10 160 84 312q132 270 380 412q105 60 187 60z" />
    <glyph glyph-name="acircumflex" unicode="&#xe2;" horiz-adv-x="966" 
d="M487 1114h-55l283 426h78l98 -426h-47l-119 279zM233 84q90 0 251 225t206 363l49 149q-55 78 -125 78q-145 0 -285 -223t-155 -477q-7 -115 59 -115zM655 956q82 0 146 -38l69 114h62l-254 -913h6q104 78 209 221l29 -16q-82 -142 -178 -244t-160 -103q-89 0 -54 150
l95 305h-9q-191 -295 -263 -358q-109 -101 -211 -101q-60 1 -102 51t-36 148q10 160 84 312q132 270 380 412q105 60 187 60z" />
    <glyph glyph-name="atilde" unicode="&#xe3;" horiz-adv-x="966" 
d="M408 1204l-27 10l10 29q82 231 281 143l114 -51q66 -39 112 -25t93 109l29 -10l-12 -39q-82 -246 -279 -156l-111 54q-84 40 -124 30t-86 -94zM233 84q90 0 251 225t206 363l49 149q-55 78 -125 78q-145 0 -285 -223t-155 -477q-7 -115 59 -115zM655 956q82 0 146 -38
l69 114h62l-254 -913h6q104 78 209 221l29 -16q-82 -142 -178 -244t-160 -103q-89 0 -54 150l95 305h-9q-191 -295 -263 -358q-109 -101 -211 -101q-60 1 -102 51t-36 148q10 160 84 312q132 270 380 412q105 60 187 60z" />
    <glyph glyph-name="adieresis" unicode="&#xe4;" horiz-adv-x="966" 
d="M852 1229q-39 1 -66 27t-26 65q0 39 26 67q27 28 66 28t67 -28q27 -28 27 -67t-27 -66q-28 -26 -67 -26zM639 1321q1 -39 -27 -65t-68 -27q-40 1 -66 27t-25 65q0 39 25 67q26 28 65 28t67 -28t29 -67zM233 84q90 0 251 225t206 363l49 149q-55 78 -125 78
q-145 0 -285 -223t-155 -477q-7 -115 59 -115zM655 956q82 0 146 -38l69 114h62l-254 -913h6q104 78 209 221l29 -16q-82 -142 -178 -244t-160 -103q-89 0 -54 150l95 305h-9q-191 -295 -263 -358q-109 -101 -211 -101q-60 1 -102 51t-36 148q10 160 84 312q132 270 380 412
q105 60 187 60z" />
    <glyph glyph-name="aring" unicode="&#xe5;" horiz-adv-x="966" 
d="M578 1344q0 -62 40 -105t100 -43q58 0 100 43t42 104t-42 105t-100 43q-58 0 -100 -42q-40 -43 -40 -105zM514 1342q0 88 58 144t146 56t145 -55q59 -55 59 -143t-58 -144q-58 -57 -146 -57q-87 0 -146 56q-58 56 -58 143zM233 84q90 0 251 225t206 363l49 149
q-55 78 -125 78q-145 0 -285 -223t-155 -477q-7 -115 59 -115zM655 956q82 0 146 -38l69 114h62l-254 -913h6q104 78 209 221l29 -16q-82 -142 -178 -244t-160 -103q-89 0 -54 150l95 305h-9q-191 -295 -263 -358q-109 -101 -211 -101q-60 1 -102 51t-36 148q10 160 84 312
q132 270 380 412q105 60 187 60z" />
    <glyph glyph-name="ae" unicode="&#xe6;" horiz-adv-x="1177" 
d="M978 905q-72 1 -171 -111q-100 -112 -150 -276q168 52 281 144t113 182q-1 61 -73 61zM256 76q63 0 121 49q57 49 94 106q-6 86 23 201l-156 -55q-100 -37 -145 -79t-46 -99q0 -123 109 -123zM702 -29q-80 0 -138 49t-81 136h-10q-139 -184 -305 -185q-68 0 -129 49
q-61 50 -59 144t76 150q75 56 241 106l209 61l47 168q14 111 -28 183t-117 71q-75 0 -125 -51l-17 -180q-29 -18 -71 -19q-78 0 -78 66q0 72 123 161t249 97q93 -1 147 -61t48 -162h8q72 94 177 158t191 65q162 0 161 -125q0 -117 -167 -217t-409 -160q-18 -81 -21 -167
t38 -154t112 -68q150 0 270 213l37 -14q-55 -127 -151 -221t-228 -93z" />
    <glyph glyph-name="ccedilla" unicode="&#xe7;" horiz-adv-x="749" 
d="M205 -317q1 31 -19 55t-31 30q-11 5 -36 15l127 188h-2q-102 0 -163 75q-60 75 -61 187q0 165 94 343t238 290t289 113q66 0 111 -32t45 -64q-1 -31 -17 -63t-35 -48q-115 119 -235 119q-68 0 -146 -97q-78 -96 -128 -242q-52 -146 -52 -255t38 -158t110 -49t143 65
q72 65 168 193l35 -20q-82 -142 -170 -236t-205 -115l-74 -112q51 -18 80 -54t29 -77q0 -195 -344 -258l2 30q209 57 209 177z" />
    <glyph glyph-name="egrave" unicode="&#xe8;" horiz-adv-x="739" 
d="M444 1540h140l57 -426h-45l-152 404v22zM542 907q-73 -1 -172 -109t-151 -270q139 29 267 120t128 192q1 67 -72 67zM255 -29q-120 0 -179 75q-60 76 -60 214t94 306t238 289q142 122 283 122t141 -121q0 -122 -179 -230t-388 -145q-27 -107 -27 -197t39 -144t107 -54
t142 55q73 55 134 158l37 -14q-63 -137 -163 -225t-219 -89z" />
    <glyph glyph-name="eacute" unicode="&#xe9;" horiz-adv-x="739" 
d="M926 1540v-20l-279 -406h-49l188 426h140zM542 907q-73 -1 -172 -109t-151 -270q139 29 267 120t128 192q1 67 -72 67zM255 -29q-120 0 -179 75q-60 76 -60 214t94 306t238 289q142 122 283 122t141 -121q0 -122 -179 -230t-388 -145q-27 -107 -27 -197t39 -144t107 -54
t142 55q73 55 134 158l37 -14q-63 -137 -163 -225t-219 -89z" />
    <glyph glyph-name="ecircumflex" unicode="&#xea;" horiz-adv-x="739" 
d="M430 1114h-55l282 426h78l99 -426h-48l-118 279zM542 907q-73 -1 -172 -109t-151 -270q139 29 267 120t128 192q1 67 -72 67zM255 -29q-120 0 -179 75q-60 76 -60 214t94 306t238 289q142 122 283 122t141 -121q0 -122 -179 -230t-388 -145q-27 -107 -27 -197t39 -144
t107 -54t142 55q73 55 134 158l37 -14q-63 -137 -163 -225t-219 -89z" />
    <glyph glyph-name="edieresis" unicode="&#xeb;" horiz-adv-x="739" 
d="M805 1229q-39 1 -66 27t-26 65q0 39 26 67q27 28 66 28t67 -28t27 -67q1 -39 -27 -65t-67 -27zM592 1321q0 -39 -28 -65t-67 -27q-40 1 -66 27t-25 65q0 39 25 67q26 28 65 28q40 0 68 -28t28 -67zM542 907q-73 -1 -172 -109t-151 -270q139 29 267 120t128 192
q1 67 -72 67zM255 -29q-120 0 -179 75q-60 76 -60 214t94 306t238 289q142 122 283 122t141 -121q0 -122 -179 -230t-388 -145q-27 -107 -27 -197t39 -144t107 -54t142 55q73 55 134 158l37 -14q-63 -137 -163 -225t-219 -89z" />
    <glyph glyph-name="igrave" unicode="&#xec;" horiz-adv-x="473" 
d="M186 1540h140l57 -426h-45l-152 404v22zM254 852q-66 29 -166 -2v22q113 104 207 105q61 0 87 -44t5 -120l-194 -694h6q45 31 111 99t98 122l28 -16q-80 -134 -177 -240t-151 -106q-105 -1 -69 128z" />
    <glyph glyph-name="iacute" unicode="&#xed;" horiz-adv-x="473" 
d="M653 1540v-20l-278 -406h-49l188 426h139zM254 852q-66 29 -166 -2v22q113 104 207 105q61 0 87 -44t5 -120l-194 -694h6q45 31 111 99t98 122l28 -16q-80 -134 -177 -240t-151 -106q-105 -1 -69 128z" />
    <glyph glyph-name="icircumflex" unicode="&#xee;" horiz-adv-x="473" 
d="M158 1114h-56l283 426h78l98 -426h-47l-119 279zM254 852q-66 29 -166 -2v22q113 104 207 105q61 0 87 -44t5 -120l-194 -694h6q45 31 111 99t98 122l28 -16q-80 -134 -177 -240t-151 -106q-105 -1 -69 128z" />
    <glyph glyph-name="idieresis" unicode="&#xef;" horiz-adv-x="473" 
d="M254 852q-66 29 -166 -2v22q113 104 207 105q61 0 87 -44t5 -120l-194 -694h6q45 31 111 99t98 122l28 -16q-80 -134 -177 -240t-151 -106q-105 -1 -69 128zM524 1229q-40 1 -66 27t-26 65t27 67t65 28t67 -28q27 -28 27 -67t-27 -66q-28 -26 -67 -26zM344 1321
q0 -39 -28 -65t-67 -27q-40 1 -66 27t-25 65q0 39 25 67q26 28 65 28q40 0 68 -28t28 -67z" />
    <glyph glyph-name="eth" unicode="&#xf0;" horiz-adv-x="925" 
d="M715 725v39q-16 170 -135 170q-100 0 -190 -123t-137 -288q-48 -165 -48 -306q0 -205 117 -205q108 0 202 131t143 294q48 163 48 288zM332 -29q-148 1 -214 99t-65 240q0 142 64 292q63 150 191 262t284 113q53 0 106 -29q-31 193 -143 342l-293 -162l-26 43l288 158
q-66 78 -194 187l20 28q150 -88 244 -176l244 135l24 -43l-229 -127q242 -244 241 -596q0 -193 -66 -365t-197 -287q-131 -114 -279 -114z" />
    <glyph glyph-name="ntilde" unicode="&#xf1;" horiz-adv-x="976" 
d="M375 1204l-27 10l10 29q82 231 281 143l115 -51q66 -39 112 -25t92 109l29 -10l-12 -39q-82 -246 -279 -156l-110 54q-84 40 -125 30t-86 -94zM179 862q-52 0 -89 -12v20q106 106 219 107q55 0 82 -42t8 -104l-84 -280h9q104 186 224 306t234 120q72 0 100 -50t7 -124
l-191 -684h7q104 78 208 221l29 -16q-82 -142 -178 -244t-160 -103q-37 0 -57 32t-2 95l198 695q14 63 -41 63q-102 0 -252 -192t-233 -475l-53 -185l-127 -35l-29 25l248 852q-25 10 -77 10z" />
    <glyph glyph-name="ograve" unicode="&#xf2;" horiz-adv-x="880" 
d="M430 1540h139l58 -426h-45l-152 404v22zM560 977q284 -1 284 -325q0 -148 -64 -302t-192 -266q-130 -112 -276 -113t-213 95t-67 242t61 294q60 148 188 261q127 114 279 114zM561 936q-98 0 -188 -119q-89 -119 -139 -285t-50 -315q0 -205 117 -205q102 0 196 122
q93 122 144 286t51 280t-34 176t-97 60z" />
    <glyph glyph-name="oacute" unicode="&#xf3;" horiz-adv-x="880" 
d="M889 1540v-20l-279 -406h-49l189 426h139zM560 977q284 -1 284 -325q0 -148 -64 -302t-192 -266q-130 -112 -276 -113t-213 95t-67 242t61 294q60 148 188 261q127 114 279 114zM561 936q-98 0 -188 -119q-89 -119 -139 -285t-50 -315q0 -205 117 -205q102 0 196 122
q93 122 144 286t51 280t-34 176t-97 60z" />
    <glyph glyph-name="ocircumflex" unicode="&#xf4;" horiz-adv-x="880" 
d="M414 1114h-56l283 426h78l98 -426h-47l-119 279zM561 936q-98 0 -188 -119q-89 -119 -139 -285t-50 -315q0 -205 117 -205q102 0 196 122q93 122 144 286t51 280t-34 176t-97 60zM560 977q284 -1 284 -325q0 -148 -64 -302t-192 -266q-130 -112 -276 -113t-213 95
t-67 242t61 294q60 148 188 261q127 114 279 114z" />
    <glyph glyph-name="otilde" unicode="&#xf5;" horiz-adv-x="880" 
d="M340 1204l-27 10l11 29q82 231 280 143l115 -51q65 -39 111 -25t94 109l28 -10l-12 -39q-82 -246 -278 -156l-111 54q-84 40 -125 30t-86 -94zM560 977q284 -1 284 -325q0 -148 -64 -302t-192 -266q-130 -112 -276 -113t-213 95t-67 242t61 294q60 148 188 261
q127 114 279 114zM561 936q-98 0 -188 -119q-89 -119 -139 -285t-50 -315q0 -205 117 -205q102 0 196 122q93 122 144 286t51 280t-34 176t-97 60z" />
    <glyph glyph-name="odieresis" unicode="&#xf6;" horiz-adv-x="880" 
d="M791 1229q-39 1 -66 27t-27 65t27 67t66 28t67 -28t27 -67q1 -39 -27 -65t-67 -27zM578 1321q0 -39 -28 -65t-68 -27q-40 1 -66 27t-25 65q0 39 26 67q27 28 65 28t67 -28t29 -67zM560 977q284 -1 284 -325q0 -148 -64 -302t-192 -266q-130 -112 -276 -113t-213 95
t-67 242t61 294q60 148 188 261q127 114 279 114zM561 936q-98 0 -188 -119q-89 -119 -139 -285t-50 -315q0 -205 117 -205q102 0 196 122q93 122 144 286t51 280t-34 176t-97 60z" />
    <glyph glyph-name="divide" unicode="&#xf7;" horiz-adv-x="1187" 
d="M594 61q-41 0 -69 29t-27 68q0 40 28 68t68 28q41 0 69 -29q27 -29 27 -67t-28 -68q-28 -29 -68 -29zM594 702q-41 0 -69 28t-27 69q0 41 28 69t68 27q41 0 69 -28q27 -29 27 -69t-28 -68t-68 -28zM1079 442h-970v72h970v-72z" />
    <glyph glyph-name="oslash" unicode="&#xf8;" horiz-adv-x="880" 
d="M180 207v-8l496 657q-37 80 -125 80t-179 -122q-92 -122 -142 -290t-50 -317zM698 737q0 20 -4 58l-508 -672q18 -111 118 -111t194 125t147 292t53 308zM33 317q0 137 60 285q61 148 189 261q128 114 289 114q88 0 158 -49l102 135h66l-129 -172q76 -87 76 -237
t-64 -304t-192 -266q-129 -112 -289 -113q-106 0 -174 72l-109 -145h-63l141 186q-61 96 -61 233z" />
    <glyph glyph-name="ugrave" unicode="&#xf9;" horiz-adv-x="991" 
d="M457 1540h139l57 -426h-45l-151 404v22zM173 862q-52 0 -89 -12v20q106 106 219 107q59 0 79 -46t3 -114l-178 -672q-4 -23 8 -40t39 -17q98 0 265 238t216 432l49 190l136 13l14 -17l-219 -825h6q113 82 209 221l28 -16q-80 -138 -176 -242t-161 -105q-37 0 -58 30
q-20 30 -4 91l105 373h-9q-114 -212 -192 -313t-146 -143t-134 -42t-105 42t-23 114l195 723q-25 10 -77 10z" />
    <glyph glyph-name="uacute" unicode="&#xfa;" horiz-adv-x="991" 
d="M922 1540v-20l-279 -406h-49l188 426h140zM173 862q-52 0 -89 -12v20q106 106 219 107q59 0 79 -46t3 -114l-178 -672q-4 -23 8 -40t39 -17q98 0 265 238t216 432l49 190l136 13l14 -17l-219 -825h6q113 82 209 221l28 -16q-80 -138 -176 -242t-161 -105q-37 0 -58 30
q-20 30 -4 91l105 373h-9q-114 -212 -192 -313t-146 -143t-134 -42t-105 42t-23 114l195 723q-25 10 -77 10z" />
    <glyph glyph-name="ucircumflex" unicode="&#xfb;" horiz-adv-x="991" 
d="M428 1114h-55l282 426h78l98 -426h-47l-118 279zM173 862q-52 0 -89 -12v20q106 106 219 107q59 0 79 -46t3 -114l-178 -672q-4 -23 8 -40t39 -17q98 0 265 238t216 432l49 190l136 13l14 -17l-219 -825h6q113 82 209 221l28 -16q-80 -138 -176 -242t-161 -105
q-37 0 -58 30q-20 30 -4 91l105 373h-9q-114 -212 -192 -313t-146 -143t-134 -42t-105 42t-23 114l195 723q-25 10 -77 10z" />
    <glyph glyph-name="udieresis" unicode="&#xfc;" horiz-adv-x="991" 
d="M801 1229q-39 1 -66 27t-26 65q0 39 26 67q27 28 66 28t67 -28t27 -67q1 -39 -27 -65t-67 -27zM588 1321q0 -39 -28 -65t-67 -27q-40 1 -66 27t-26 65t26 67t65 28q40 0 68 -28t28 -67zM173 862q-52 0 -89 -12v20q106 106 219 107q59 0 79 -46t3 -114l-178 -672
q-4 -23 8 -40t39 -17q98 0 265 238t216 432l49 190l136 13l14 -17l-219 -825h6q113 82 209 221l28 -16q-80 -138 -176 -242t-161 -105q-37 0 -58 30q-20 30 -4 91l105 373h-9q-114 -212 -192 -313t-146 -143t-134 -42t-105 42t-23 114l195 723q-25 10 -77 10z" />
    <glyph glyph-name="yacute" unicode="&#xfd;" horiz-adv-x="890" 
d="M848 1540v-20l-279 -406h-49l189 426h139zM473 508q0 -303 -92 -576h10q164 186 262 386t99 378q0 135 -88 252q49 31 106 31q96 0 94 -154q-2 -155 -64 -325t-160 -316q-202 -304 -454 -510q-253 -206 -374 -206q-45 0 -74 26t-29 70t27 72t67 28q90 0 113 -110h4
q294 114 380 647q22 135 22 268t-20 222q-34 159 -103 159q-47 0 -76 -50t-62 -175h-36q16 154 83 254q66 100 158 98t150 -128t57 -341z" />
    <glyph glyph-name="thorn" unicode="&#xfe;" horiz-adv-x="919" 
d="M657 860q-69 0 -163 -100t-165 -226t-98 -217l-53 -180q45 -115 156 -114q133 0 261 218t140 445q10 174 -78 174zM758 977q76 0 116 -66t35 -197q-4 -130 -91 -306t-234 -306t-299 -131q-78 0 -140 52l-122 -457l260 -27l-11 -45h-548l8 27l145 51l477 1796l-127 84
l4 14l314 62l-254 -963h12q236 412 455 412z" />
    <glyph glyph-name="ydieresis" unicode="&#xff;" horiz-adv-x="890" 
d="M729 1229q-39 1 -65 27t-27 65q0 39 27 67q28 28 66 28t66 -28t28 -67t-28 -66q-28 -26 -67 -26zM516 1321q0 -39 -28 -65t-67 -27q-40 1 -66 27t-25 65q0 39 25 67q26 28 65 28q40 0 68 -28t28 -67zM473 508q0 -303 -92 -576h10q164 186 262 386t99 378q0 135 -88 252
q49 31 106 31q96 0 94 -154q-2 -155 -64 -325t-160 -316q-202 -304 -454 -510q-253 -206 -374 -206q-45 0 -74 26t-29 70t27 72t67 28q90 0 113 -110h4q294 114 380 647q22 135 22 268t-20 222q-34 159 -103 159q-47 0 -76 -50t-62 -175h-36q16 154 83 254q66 100 158 98
t150 -128t57 -341z" />
    <glyph glyph-name="Amacron" unicode="&#x100;" horiz-adv-x="1275" 
d="M535 1556l20 99h573l-22 -99h-571zM721 1223l-340 -658h436l-92 658h-4zM-102 0l8 39l127 35l696 1282l64 12l69 10l191 -1306l121 -37l-7 -35h-475l8 37l187 35l-60 415h-487l-211 -409l190 -39l-8 -39h-413z" />
    <glyph glyph-name="amacron" unicode="&#x101;" horiz-adv-x="966" 
d="M446 1266l21 96h510l-23 -96h-508zM233 84q90 0 251 225t206 363l49 149q-55 78 -125 78q-145 0 -285 -223t-155 -477q-7 -115 59 -115zM655 956q82 0 146 -38l69 114h62l-254 -913h6q104 78 209 221l29 -16q-82 -142 -178 -244t-160 -103q-89 0 -54 150l95 305h-9
q-191 -295 -263 -358q-109 -101 -211 -101q-60 1 -102 51t-36 148q10 160 84 312q132 270 380 412q105 60 187 60z" />
    <glyph glyph-name="Abreve" unicode="&#x102;" horiz-adv-x="1275" 
d="M822 1495q-110 1 -166 63t-62 199h35q35 -86 82 -124t129 -38q145 0 237 162h33q-26 -121 -102 -191t-186 -71zM721 1223l-340 -658h436l-92 658h-4zM-102 0l8 39l127 35l696 1282l64 12l69 10l191 -1306l121 -37l-7 -35h-475l8 37l187 35l-60 415h-487l-211 -409
l190 -39l-8 -39h-413z" />
    <glyph glyph-name="abreve" unicode="&#x103;" horiz-adv-x="966" 
d="M692 1151q-210 0 -182 319h33q12 -110 50 -162t114 -53q137 0 223 215h33q-27 -145 -97 -232q-68 -87 -174 -87zM233 84q90 0 251 225t206 363l49 149q-55 78 -125 78q-145 0 -285 -223t-155 -477q-7 -115 59 -115zM655 956q82 0 146 -38l69 114h62l-254 -913h6
q104 78 209 221l29 -16q-82 -142 -178 -244t-160 -103q-89 0 -54 150l95 305h-9q-191 -295 -263 -358q-109 -101 -211 -101q-60 1 -102 51t-36 148q10 160 84 312q132 270 380 412q105 60 187 60z" />
    <glyph glyph-name="Aogonek" unicode="&#x104;" horiz-adv-x="1275" 
d="M741 1223l-340 -658h437l-93 658h-4zM788 -410q78 0 168 111l31 -16q-129 -195 -276 -195q-70 0 -108 43t-38 113t70 142q70 73 280 241l-65 458h-490l-210 -409l190 -39l-8 -39h-414l8 39l127 35l697 1282l63 12l70 10l190 -1306l121 -37l-6 -35h-246
q-242 -213 -244 -309q0 -47 23 -74t67 -27z" />
    <glyph glyph-name="aogonek" unicode="&#x105;" horiz-adv-x="966" 
d="M233 84q90 0 251 225t206 363l49 149q-55 78 -138 78t-182 -103q-99 -102 -168 -268t-77 -329q-7 -115 59 -115zM596 -23h-10q-50 1 -64 47t8 103l95 305h-9q-191 -295 -263 -358q-109 -101 -190 -101q-81 1 -123 51t-36 148q10 160 84 312q132 270 380 412
q105 60 187 60t146 -38l69 114h62l-254 -913h6q96 72 209 221l29 -16q-82 -143 -174 -238q-208 -211 -262 -283t-54 -120q0 -49 27 -71t67 -22t75 24q36 24 89 87l31 -16q-127 -195 -277 -195q-66 0 -106 42t-39 112q-1 70 65 140q66 68 232 187v6z" />
    <glyph glyph-name="Cacute" unicode="&#x106;" horiz-adv-x="1368" 
d="M1268 1772v-15l-281 -266h-49l172 281h158zM676 -33q-262 0 -423 159t-161 435q0 232 151 458t405 318q142 51 268 51q204 1 340 -61q46 -20 116 -57l-55 -361h-33l-49 305q-127 123 -291 123q-116 0 -234 -55q-263 -123 -376 -409q-61 -157 -62 -341q0 -244 121 -376
t297 -133q176 0 326 104l186 328h35l-104 -387q-80 -31 -120 -45q-39 -14 -139 -35t-198 -21z" />
    <glyph glyph-name="cacute" unicode="&#x107;" horiz-adv-x="749" 
d="M915 1540v-20l-278 -406h-49l188 426h139zM510 891q-68 0 -146 -97q-78 -96 -128 -242q-52 -146 -52 -255t38 -158t110 -49t143 65q72 65 168 193l35 -20q-94 -162 -194 -259t-240 -98q-102 0 -163 75q-60 75 -61 187q0 165 94 343t238 290t289 113q66 0 111 -32t45 -64
q-1 -31 -17 -63t-35 -48q-114 119 -235 119z" />
    <glyph glyph-name="Ccircumflex" unicode="&#x108;" horiz-adv-x="1368" 
d="M745 1491h-69l287 260h104l184 -260h-59l-197 170zM676 -33q-262 0 -423 159t-161 435q0 232 151 458t405 318q142 51 268 51q204 1 340 -61q46 -20 116 -57l-55 -361h-33l-49 305q-127 123 -291 123q-116 0 -234 -55q-263 -123 -376 -409q-61 -157 -62 -341
q0 -244 121 -376t297 -133q176 0 326 104l186 328h35l-104 -387q-80 -31 -120 -45q-39 -14 -139 -35t-198 -21z" />
    <glyph glyph-name="ccircumflex" unicode="&#x109;" horiz-adv-x="749" 
d="M420 1114h-55l282 426h78l98 -426h-47l-119 279zM510 891q-68 0 -146 -97q-78 -96 -128 -242q-52 -146 -52 -255t38 -158t110 -49t143 65q72 65 168 193l35 -20q-94 -162 -194 -259t-240 -98q-102 0 -163 75q-60 75 -61 187q0 165 94 343t238 290t289 113q66 0 111 -32
t45 -64q-1 -31 -17 -63t-35 -48q-114 119 -235 119z" />
    <glyph glyph-name="Cdotaccent" unicode="&#x10a;" horiz-adv-x="1368" 
d="M897 1651q0 41 29 69q30 28 70 29q40 0 69 -29q29 -30 29 -70t-29 -69t-70 -29t-69 29t-29 70zM676 -33q-262 0 -423 159t-161 435q0 232 151 458t405 318q142 51 268 51q204 1 340 -61q46 -20 116 -57l-55 -361h-33l-49 305q-127 123 -291 123q-116 0 -234 -55
q-263 -123 -376 -409q-61 -157 -62 -341q0 -244 121 -376t297 -133q176 0 326 104l186 328h35l-104 -387q-80 -31 -120 -45q-39 -14 -139 -35t-198 -21z" />
    <glyph glyph-name="cdotaccent" unicode="&#x10b;" horiz-adv-x="749" 
d="M537 1321q0 39 28 69q29 30 70 30t70 -30t29 -69t-30 -69q-28 -30 -69 -30t-70 30q-28 30 -28 69zM510 891q-68 0 -146 -97q-78 -96 -128 -242q-52 -146 -52 -255t38 -158t110 -49t143 65q72 65 168 193l35 -20q-94 -162 -194 -259t-240 -98q-102 0 -163 75
q-60 75 -61 187q0 165 94 343t238 290t289 113q66 0 111 -32t45 -64q-1 -31 -17 -63t-35 -48q-114 119 -235 119z" />
    <glyph glyph-name="Ccaron" unicode="&#x10c;" horiz-adv-x="1368" 
d="M1233 1751h70l-287 -260h-105l-184 260h59l197 -170zM676 -33q-262 0 -423 159t-161 435q0 232 151 458t405 318q142 51 268 51q204 1 340 -61q46 -20 116 -57l-55 -361h-33l-49 305q-127 123 -291 123q-116 0 -234 -55q-263 -123 -376 -409q-61 -157 -62 -341
q0 -244 121 -376t297 -133q176 0 326 104l186 328h35l-104 -387q-80 -31 -120 -45q-39 -14 -139 -35t-198 -21z" />
    <glyph glyph-name="ccaron" unicode="&#x10d;" horiz-adv-x="749" 
d="M868 1540h56l-283 -426h-78l-98 426h47l117 -278zM510 891q-68 0 -146 -97q-78 -96 -128 -242q-52 -146 -52 -255t38 -158t110 -49t143 65q72 65 168 193l35 -20q-94 -162 -194 -259t-240 -98q-102 0 -163 75q-60 75 -61 187q0 165 94 343t238 290t289 113q66 0 111 -32
t45 -64q-1 -31 -17 -63t-35 -48q-114 119 -235 119z" />
    <glyph glyph-name="Dcaron" unicode="&#x10e;" horiz-adv-x="1404" 
d="M1094 1751h69l-286 -260h-105l-184 260h59l197 -170zM518 49q148 0 286 66t220 172q166 215 166 483t-162 410t-508 135l-237 -1217q87 -49 235 -49zM633 1360q342 0 542 -148q199 -148 199 -408q0 -261 -149 -469q-149 -209 -444 -292q-161 -45 -355 -45l-500 2l8 37
l175 35l239 1216l-162 37l7 35h440z" />
    <glyph glyph-name="dcaron" unicode="&#x10f;" horiz-adv-x="993" 
d="M1116 1090h-31l111 411h158l-2 -12zM588 922q-144 0 -270 -211t-138 -471q-6 -84 18 -122t58 -38q88 0 250 212t211 400l28 115q-25 51 -66 83q-42 32 -91 32zM618 979q92 0 162 -39l111 428l-152 84l4 14l338 62l-370 -1409h6q104 78 209 221l28 -16q-82 -138 -179 -242
t-147 -104t-68 31q-17 32 3 118l90 301h-8q-281 -455 -471 -455q-74 -1 -124 57t-44 179q10 180 94 357t224 295t294 118z" />
    <glyph glyph-name="Dcroat" unicode="&#x110;" horiz-adv-x="1404" 
d="M518 49q148 0 286 66t220 172q166 215 166 483t-162 410t-508 135l-121 -619h367l-12 -61h-367l-104 -537q87 -49 235 -49zM633 1360q342 0 542 -148q199 -148 199 -408q0 -261 -149 -469q-149 -209 -444 -292q-161 -45 -355 -45l-500 2l8 37l175 35l110 563h-184l14 61
h182l117 592l-162 37l7 35h440z" />
    <glyph glyph-name="dcroat" unicode="&#x111;" horiz-adv-x="993" 
d="M588 922q-144 0 -270 -211t-138 -471q-6 -84 18 -122t58 -38q88 0 250 212t211 400l28 115q-25 51 -66 83q-42 32 -91 32zM174 -27q-74 -1 -124 57t-44 179q10 180 94 357t224 295t294 118q92 0 162 -39l56 211h-375l14 55h375l41 162l-152 84l4 14l338 62l-86 -322h140
l-15 -55h-139l-270 -1032h6q104 78 209 221l28 -16q-82 -138 -179 -242t-147 -104t-68 31q-17 32 3 118l90 301h-8q-281 -455 -471 -455z" />
    <glyph glyph-name="Emacron" unicode="&#x112;" horiz-adv-x="1128" 
d="M461 1556l20 99h574l-23 -99h-571zM412 55h366l226 340h38l-135 -395h-977l9 37l174 35l235 1216l-162 37l7 35h811l122 10l-51 -387h-33l-57 322h-467l-110 -564h301l106 220h35l-96 -490h-35l-23 207h-301l-114 -586q35 -37 131 -37z" />
    <glyph glyph-name="emacron" unicode="&#x113;" horiz-adv-x="739" 
d="M387 1266l21 96h510l-23 -96h-508zM542 907q-73 -1 -172 -109t-151 -270q139 29 267 120t128 192q1 67 -72 67zM255 -29q-120 0 -179 75q-60 76 -60 214t94 306t238 289q142 122 283 122t141 -121q0 -122 -179 -230t-388 -145q-27 -107 -27 -197t39 -144t107 -54t142 55
q73 55 134 158l37 -14q-63 -137 -163 -225t-219 -89z" />
    <glyph glyph-name="Ebreve" unicode="&#x114;" horiz-adv-x="1128" 
d="M749 1495q-110 1 -166 63t-63 199h35q35 -86 82 -124t129 -38q145 0 238 162h32q-25 -121 -101 -191t-186 -71zM412 55h366l226 340h38l-135 -395h-977l9 37l174 35l235 1216l-162 37l7 35h811l122 10l-51 -387h-33l-57 322h-467l-110 -564h301l106 220h35l-96 -490h-35
l-23 207h-301l-114 -586q35 -37 131 -37z" />
    <glyph glyph-name="ebreve" unicode="&#x115;" horiz-adv-x="739" 
d="M634 1151q-212 0 -181 319h32q13 -110 51 -162t113 -53q137 0 223 215h33q-27 -145 -96 -232t-175 -87zM542 907q-73 -1 -172 -109t-151 -270q139 29 267 120t128 192q1 67 -72 67zM255 -29q-120 0 -179 75q-60 76 -60 214t94 306t238 289q142 122 283 122t141 -121
q0 -122 -179 -230t-388 -145q-27 -107 -27 -197t39 -144t107 -54t142 55q73 55 134 158l37 -14q-63 -137 -163 -225t-219 -89z" />
    <glyph glyph-name="Edotaccent" unicode="&#x116;" horiz-adv-x="1128" 
d="M657 1651q0 41 30 69t69 29q38 0 68 -29q30 -30 30 -70t-30 -69t-68 -29t-69 29q-30 29 -30 70zM412 55h366l226 340h38l-135 -395h-977l9 37l174 35l235 1216l-162 37l7 35h811l122 10l-51 -387h-33l-57 322h-467l-110 -564h301l106 220h35l-96 -490h-35l-23 207h-301
l-114 -586q35 -37 131 -37z" />
    <glyph glyph-name="edotaccent" unicode="&#x117;" horiz-adv-x="739" 
d="M547 1321q0 39 30 69q31 30 69 30t68 -30t30 -69t-30 -69t-69 -30t-69 30t-29 69zM542 907q-73 -1 -172 -109t-151 -270q139 29 267 120t128 192q1 67 -72 67zM255 -29q-120 0 -179 75q-60 76 -60 214t94 306t238 289q142 122 283 122t141 -121q0 -122 -179 -230
t-388 -145q-27 -107 -27 -197t39 -144t107 -54t142 55q73 55 134 158l37 -14q-63 -137 -163 -225t-219 -89z" />
    <glyph glyph-name="Eogonek" unicode="&#x118;" horiz-adv-x="1128" 
d="M412 55h366l226 340h38l-135 -395h-112q-147 -139 -191 -206t-43 -113q0 -47 27 -69q26 -22 66 -22t76 24t89 87l31 -16q-127 -195 -277 -195q-65 0 -105 42t-40 100q0 102 139 223q53 45 181 145h-818l9 37l174 35l235 1216l-162 37l7 35h811l122 10l-51 -387h-33
l-57 322h-467l-110 -564h301l106 220h35l-96 -490h-35l-23 207h-301l-114 -586q35 -37 131 -37z" />
    <glyph glyph-name="eogonek" unicode="&#x119;" horiz-adv-x="739" 
d="M542 907q-73 1 -172 -109t-151 -272q139 29 267 121t128 193q1 67 -72 67zM631 977q141 0 141 -121q0 -122 -179 -230t-388 -145q-27 -107 -27 -197t39 -144t107 -54t142 55q73 55 134 158l37 -14q-51 -104 -109 -173q-58 -70 -176 -166t-160 -153t-42 -107t26 -74
q26 -22 67 -22q39 0 75 24t90 87l30 -16q-127 -195 -276 -195q-66 0 -106 42t-40 112t76 146q76 75 256 196l-4 8q-57 -20 -98 -21q-119 0 -174 80q-56 81 -56 213t94 300t238 289q142 122 283 122z" />
    <glyph glyph-name="Ecaron" unicode="&#x11a;" horiz-adv-x="1128" 
d="M1006 1751h69l-287 -260h-104l-184 260h59l197 -170zM412 55h366l226 340h38l-135 -395h-977l9 37l174 35l235 1216l-162 37l7 35h811l122 10l-51 -387h-33l-57 322h-467l-110 -564h301l106 220h35l-96 -490h-35l-23 207h-301l-114 -586q35 -37 131 -37z" />
    <glyph glyph-name="ecaron" unicode="&#x11b;" horiz-adv-x="739" 
d="M877 1540h55l-283 -426h-78l-98 426h47l117 -278zM542 907q-73 -1 -172 -109t-151 -270q139 29 267 120t128 192q1 67 -72 67zM255 -29q-120 0 -179 75q-60 76 -60 214t94 306t238 289q142 122 283 122t141 -121q0 -122 -179 -230t-388 -145q-27 -107 -27 -197t39 -144
t107 -54t142 55q73 55 134 158l37 -14q-63 -137 -163 -225t-219 -89z" />
    <glyph glyph-name="Gcircumflex" unicode="&#x11c;" horiz-adv-x="1388" 
d="M741 1491h-69l286 260h105l184 -260h-59l-197 170zM262 532q0 -233 124 -374t302 -142q123 0 205 52t102 145l60 295l-211 37l6 35h512l-4 -35l-135 -37l-80 -406q-217 -139 -467 -139t-417 166q-167 167 -167 399t105 423q104 191 305 315t452 123q127 0 218 -30
t198 -87l-72 -350h-38l-31 307q-117 109 -291 108q-121 0 -241 -60q-260 -130 -374 -420q-61 -153 -61 -325z" />
    <glyph glyph-name="gcircumflex" unicode="&#x11d;" horiz-adv-x="806" 
d="M369 1114h-56l283 426h78l98 -426h-47l-119 279zM284 -471q142 0 218 46t80 106q2 33 -31 65t-133 84l-142 76q-162 -54 -230 -102t-66 -116q0 -68 80 -114q82 -45 224 -45zM512 928q-100 0 -190 -152t-100 -320t91 -167q100 0 192 153q91 154 97 312q4 88 -16 131
q-21 43 -74 43zM524 977q72 0 113 -31l287 27l-27 -113l-199 21l2 -9q39 -74 39 -172q0 -174 -126 -316t-304 -144q-76 -41 -76 -99q0 -31 21 -47l307 -168q94 -51 124 -92t30 -86q0 -104 -151 -192t-359 -88q-391 0 -391 175t419 285v2l-51 27q-80 43 -80 128t136 159v6
q-76 26 -114 104t-38 160q0 174 125 318t313 145z" />
    <glyph glyph-name="Gbreve" unicode="&#x11e;" horiz-adv-x="1388" 
d="M972 1495q-110 1 -166 63t-63 199h35q35 -86 82 -124t129 -38q145 0 238 162h33q-26 -121 -102 -191t-186 -71zM262 532q0 -233 124 -374t302 -142q123 0 205 52t102 145l60 295l-211 37l6 35h512l-4 -35l-135 -37l-80 -406q-217 -139 -467 -139t-417 166
q-167 167 -167 399t105 423q104 191 305 315t452 123q127 0 218 -30t198 -87l-72 -350h-38l-31 307q-117 109 -291 108q-121 0 -241 -60q-260 -130 -374 -420q-61 -153 -61 -325z" />
    <glyph glyph-name="gbreve" unicode="&#x11f;" horiz-adv-x="806" 
d="M572 1151q-210 0 -181 319h33q12 -110 50 -162t114 -53q137 0 223 215h33q-26 -145 -96 -232t-176 -87zM284 -471q142 0 218 46t80 106q2 33 -31 65t-133 84l-142 76q-162 -54 -230 -102t-66 -116q0 -68 80 -114q82 -45 224 -45zM512 928q-100 0 -190 -152t-100 -320
t91 -167q100 0 192 153q91 154 97 312q4 88 -16 131q-21 43 -74 43zM524 977q72 0 113 -31l287 27l-27 -113l-199 21l2 -9q39 -74 39 -172q0 -174 -126 -316t-304 -144q-76 -41 -76 -99q0 -31 21 -47l307 -168q94 -51 124 -92t30 -86q0 -104 -151 -192t-359 -88
q-391 0 -391 175t419 285v2l-51 27q-80 43 -80 128t136 159v6q-76 26 -114 104t-38 160q0 174 125 318t313 145z" />
    <glyph glyph-name="Gdotaccent" unicode="&#x120;" horiz-adv-x="1388" 
d="M881 1651q1 41 29 69t69 29q41 0 70 -29q29 -30 29 -70t-30 -69q-28 -29 -69 -29t-70 29q-28 29 -28 70zM262 532q0 -233 124 -374t302 -142q123 0 205 52t102 145l60 295l-211 37l6 35h512l-4 -35l-135 -37l-80 -406q-217 -139 -467 -139t-417 166q-167 167 -167 399
t105 423q104 191 305 315t452 123q127 0 218 -30t198 -87l-72 -350h-38l-31 307q-117 109 -291 108q-121 0 -241 -60q-260 -130 -374 -420q-61 -153 -61 -325z" />
    <glyph glyph-name="gdotaccent" unicode="&#x121;" horiz-adv-x="806" 
d="M485 1321q0 39 30 69t69 30q38 0 68 -30t30 -69t-30 -69t-68 -30t-69 30q-30 30 -30 69zM284 -471q142 0 218 46t80 106q2 33 -31 65t-133 84l-142 76q-162 -54 -230 -102t-66 -116q0 -68 80 -114q82 -45 224 -45zM512 928q-100 0 -190 -152t-100 -320t91 -167
q100 0 192 153q91 154 97 312q4 88 -16 131q-21 43 -74 43zM524 977q72 0 113 -31l287 27l-27 -113l-199 21l2 -9q39 -74 39 -172q0 -174 -126 -316t-304 -144q-76 -41 -76 -99q0 -31 21 -47l307 -168q94 -51 124 -92t30 -86q0 -104 -151 -192t-359 -88q-391 0 -391 175
t419 285v2l-51 27q-80 43 -80 128t136 159v6q-76 26 -114 104t-38 160q0 174 125 318t313 145z" />
    <glyph glyph-name="Gcommaaccent" unicode="&#x122;" horiz-adv-x="1388" 
d="M594 -334q0 76 -105 74v8q16 111 125 111q53 0 84 -33t31 -84q0 -198 -334 -270l-6 30q205 70 205 164zM262 532q0 -233 124 -374t302 -142q123 0 205 52t102 145l60 295l-211 37l6 35h512l-4 -35l-135 -37l-80 -406q-217 -139 -467 -139t-417 166q-167 167 -167 399
t105 423q104 191 305 315t452 123q127 0 218 -30t198 -87l-72 -350h-38l-31 307q-117 109 -291 108q-121 0 -241 -60q-260 -130 -374 -420q-61 -153 -61 -325z" />
    <glyph glyph-name="gcommaaccent" unicode="&#x123;" horiz-adv-x="806" 
d="M596 1401q0 -76 104 -74v-8q-16 -111 -125 -111q-53 0 -83 33t-31 84q0 198 334 270l6 -30q-205 -70 -205 -164zM284 -471q142 0 218 46t80 106q2 33 -31 65t-133 84l-142 76q-162 -54 -230 -102t-66 -116q0 -68 80 -114q82 -45 224 -45zM512 928q-100 0 -190 -152
t-100 -320t91 -167q100 0 192 153q91 154 97 312q4 88 -16 131q-21 43 -74 43zM524 977q72 0 113 -31l287 27l-27 -113l-199 21l2 -9q39 -74 39 -172q0 -174 -126 -316t-304 -144q-76 -41 -76 -99q0 -31 21 -47l307 -168q94 -51 124 -92t30 -86q0 -104 -151 -192t-359 -88
q-391 0 -391 175t419 285v2l-51 27q-80 43 -80 128t136 159v6q-76 26 -114 104t-38 160q0 174 125 318t313 145z" />
    <glyph glyph-name="Hcircumflex" unicode="&#x124;" horiz-adv-x="1388" 
d="M666 1491h-70l287 260h104l184 -260h-59l-197 170zM752 0l8 37l176 35l121 616h-660l-121 -616l160 -35l-6 -37h-504l8 37l175 35l239 1216l-162 37l7 35h505l-6 -35l-176 -37l-106 -538h659l107 538l-162 37l6 35h504l-6 -35l-175 -37l-239 -1216l158 -35l-7 -37h-503z
" />
    <glyph glyph-name="hcircumflex" unicode="&#x125;" horiz-adv-x="954" 
d="M494 1573h-70l287 260h104l184 -260h-59l-197 170zM760 977q72 0 100 -49t6 -125l-190 -684h6q106 80 209 221l29 -16q-82 -138 -180 -242t-158 -105q-37 0 -58 32q-20 32 -2 95l199 695q14 63 -41 63q-106 0 -260 -204t-234 -488l-45 -160l-123 -35l-28 25l362 1368
l-125 84l4 14l312 62l-260 -983h12q106 184 227 308t238 124z" />
    <glyph glyph-name="Hbar" unicode="&#x126;" horiz-adv-x="1388" 
d="M463 1018l-53 -268h659l53 268h-659zM752 0l8 37l176 35l121 616h-660l-121 -616l160 -35l-6 -37h-504l8 37l175 35l186 946h-197l11 51h196l43 219l-162 37l7 35h505l-6 -35l-176 -37l-43 -219h660l43 219l-162 37l6 35h504l-6 -35l-175 -37l-43 -219h201l-12 -51h-199
l-186 -946l158 -35l-7 -37h-503z" />
    <glyph glyph-name="hbar" unicode="&#x127;" horiz-adv-x="954" 
d="M760 977q72 0 100 -49t6 -125l-190 -684h6q106 80 209 221l29 -16q-82 -138 -180 -242t-158 -105q-37 0 -58 32q-20 32 -2 95l199 695q14 63 -41 63q-106 0 -260 -204t-234 -488l-45 -160l-123 -35l-28 25l305 1151h-135l16 55h133l43 162l-125 84l4 14l312 62l-86 -322
h379l-17 -55h-377l-159 -606h12q106 184 227 308t238 124z" />
    <glyph glyph-name="Itilde" unicode="&#x128;" horiz-adv-x="561" 
d="M209 1511l-27 11l11 28q82 231 280 144l115 -52q66 -40 112 -26t93 110l28 -10l-12 -39q-82 -246 -279 -155l-110 53q-84 41 -125 31t-86 -95zM-74 0l8 37l175 35l239 1216l-162 37l7 35h503l-6 -35l-174 -37l-240 -1216l158 -35l-6 -37h-502z" />
    <glyph glyph-name="itilde" unicode="&#x129;" horiz-adv-x="473" 
d="M254 852q-66 29 -166 -2v22q113 104 207 105q61 0 87 -44t5 -120l-194 -694h6q45 31 111 99t98 122l28 -16q-80 -134 -177 -240t-151 -106q-105 -1 -69 128zM129 1198l-27 12l11 29q33 88 74 129q42 41 84 36t89 -22l115 -51q59 -35 105 -21t88 101l28 -12l-12 -39
q-58 -175 -164 -169q-51 3 -112 30l-82 39q-78 42 -115 32t-82 -94z" />
    <glyph glyph-name="Imacron" unicode="&#x12a;" horiz-adv-x="561" 
d="M-68 0l9 37l174 35l239 1216l-161 37l6 35h503l-6 -35l-174 -37l-239 -1216l157 -35l-6 -37h-502zM256 1556l20 99h463l-20 -99h-463z" />
    <glyph glyph-name="imacron" unicode="&#x12b;" horiz-adv-x="473" 
d="M254 852q-66 29 -166 -2v22q113 104 207 105q61 0 87 -44t5 -120l-194 -694h6q45 31 111 99t98 122l28 -16q-80 -134 -177 -240t-151 -106q-105 -1 -69 128zM172 1266l25 96h401l-25 -96h-401z" />
    <glyph glyph-name="Ibreve" unicode="&#x12c;" horiz-adv-x="561" 
d="M493 1495q-110 1 -166 63t-63 199h35q35 -86 82 -124t129 -38q145 0 238 162h32q-25 -121 -101 -191t-186 -71zM-74 0l8 37l175 35l239 1216l-162 37l7 35h503l-6 -35l-174 -37l-240 -1216l158 -35l-6 -37h-502z" />
    <glyph glyph-name="ibreve" unicode="&#x12d;" horiz-adv-x="473" 
d="M368 1151q-210 0 -182 319h33q12 -110 50 -162t114 -53q137 0 223 215h33q-27 -145 -97 -232q-68 -87 -174 -87zM254 852q-66 29 -166 -2v22q113 104 207 105q61 0 87 -44t5 -120l-194 -694h6q45 31 111 99t98 122l28 -16q-80 -134 -177 -240t-151 -106q-105 -1 -69 128z
" />
    <glyph glyph-name="Iogonek" unicode="&#x12e;" horiz-adv-x="561" 
d="M20 -307q0 -53 28 -78t67 -25q74 0 168 111l30 -16q-129 -195 -276 -195q-70 0 -108 44t-38 108t60 141q59 78 199 217h-224l8 37l175 35l239 1216l-162 37l7 35h503l-6 -35l-174 -37l-240 -1216l158 -35l-6 -37h-223q-109 -122 -147 -188t-38 -119z" />
    <glyph glyph-name="iogonek" unicode="&#x12f;" horiz-adv-x="473" 
d="M276 1321q0 39 30 69t69 30t69 -30t29 -69q0 -39 -30 -69q-31 -30 -69 -30t-68 30t-30 69zM-57 -326q-1 -32 23 -58t67 -26q76 0 168 111l30 -16q-133 -195 -276 -195q-70 0 -108 43q-37 43 -37 93t15 86t69 90t204 173v5h-4q-37 0 -54 34t-1 92l215 746q-66 29 -166 -2
v22q113 104 207 105q61 0 87 -44t5 -120l-194 -694h6q45 31 111 99t98 122l28 -16q-104 -170 -217 -281q-168 -163 -222 -231t-54 -138z" />
    <glyph glyph-name="Idotaccent" unicode="&#x130;" horiz-adv-x="561" 
d="M395 1651q0 41 30 69t69 29q38 0 68 -29q30 -30 30 -70t-30 -69t-68 -29t-69 29q-30 29 -30 70zM-74 0l8 37l175 35l239 1216l-162 37l7 35h503l-6 -35l-174 -37l-240 -1216l158 -35l-6 -37h-502z" />
    <glyph glyph-name="dotlessi" unicode="&#x131;" horiz-adv-x="473" 
d="M254 852q-66 29 -166 -2v22q113 104 207 105q61 0 87 -44t5 -120l-194 -694h6q45 31 111 99t98 122l28 -16q-80 -134 -177 -240t-151 -106q-105 -1 -69 128z" />
    <glyph glyph-name="IJ" unicode="&#x132;" horiz-adv-x="1140" 
d="M1096 1288l-240 -1218q-24 -121 -52 -197q-67 -184 -229 -259q-90 -42 -227 -65l-10 39q162 58 234 156t110 293l246 1251l-162 37l6 35h504l-6 -35zM-74 0l8 37l175 35l239 1216l-162 37l7 35h503l-6 -35l-174 -37l-240 -1216l158 -35l-6 -37h-502z" />
    <glyph glyph-name="ij" unicode="&#x133;" horiz-adv-x="923" 
d="M750 1321q0 39 28 69q29 30 70 30t70 -30q28 -30 28 -69t-28 -69t-70 -30q-41 0 -70 30q-28 30 -28 69zM86 -426q0 44 18 64l43 47q98 -147 164 -148q101 0 164 260l254 1055q-66 29 -166 -2v22q113 104 207 105q61 0 86 -43t6 -121l-211 -893q-37 -162 -155 -308
t-263 -147q-53 0 -100 32t-47 77zM276 1321q0 39 30 69t69 30t69 -30t29 -69q0 -39 -30 -69q-31 -30 -69 -30t-68 30t-30 69zM254 852q-66 29 -166 -2v22q113 104 207 105q61 0 87 -44t5 -120l-194 -694h6q45 31 111 99t98 122l28 -16q-80 -134 -177 -240t-151 -106
q-105 -1 -69 128z" />
    <glyph glyph-name="Jcircumflex" unicode="&#x134;" horiz-adv-x="579" 
d="M262 1491h-69l286 260h105l184 -260h-59l-197 170zM535 1288l-240 -1218q-25 -121 -53 -197q-67 -184 -228 -259q-90 -42 -227 -65l-10 39q163 58 235 156t109 293l246 1251l-162 37l6 35h504l-6 -35z" />
    <glyph glyph-name="jcircumflex" unicode="&#x135;" horiz-adv-x="450" 
d="M160 1114h-56l283 426h78l98 -426h-47l-119 279zM-387 -426q0 45 19 66t32 32l10 13q98 -147 164 -148q101 0 164 260l254 1055q-66 29 -166 -2v22q113 104 207 105q61 0 86 -43t6 -121l-211 -893q-38 -162 -156 -308t-262 -147q-53 0 -100 32t-47 77z" />
    <glyph glyph-name="Kcommaaccent" unicode="&#x136;" horiz-adv-x="1257" 
d="M580 -334q0 76 -105 74v8q16 111 125 111q53 0 84 -33t31 -84q0 -198 -334 -270l-6 30q205 70 205 164zM1192 35l-6 -35q-236 -26 -338 70t-438 647v4l688 561l-160 43l6 35h438l-6 -35l-176 -43l-643 -508q186 -292 261 -406t152 -203q76 -89 110 -101t112 -29zM-74 0
l8 37l175 35l239 1216l-162 37l7 35h505l-6 -35l-176 -37l-240 -1216l160 -35l-6 -37h-504z" />
    <glyph glyph-name="kcommaaccent" unicode="&#x137;" horiz-adv-x="864" 
d="M299 -334q0 76 -104 74v8q16 111 124 111q53 0 84 -33t31 -84q0 -198 -334 -270l-6 30q205 70 205 164zM664 860q-94 0 -212 -144t-200 -343q482 232 482 400q0 87 -70 87zM678 -68q-84 0 -154 86l-278 342q-35 -96 -53 -161l-52 -189l-123 -35l-28 25l362 1368l-125 84
l4 14l312 62l-260 -983h10q217 432 450 432q57 0 97 -37t41 -98q0 -119 -119 -219t-377 -228l381 -432v-6q-31 -25 -88 -25z" />
    <glyph glyph-name="kgreenlandic" unicode="&#x138;" horiz-adv-x="882" 
d="M268 373q482 233 482 400q0 87 -70 87q-94 0 -212 -144t-200 -343zM179 862q-52 0 -89 -12v20q106 106 219 107q55 0 83 -42t7 -104l-98 -286h8q217 432 451 432q55 0 96 -37t41 -98q0 -119 -119 -219t-375 -226l381 -434v-6q-31 -25 -88 -25q-92 0 -161 86l-275 334
q-31 -78 -49 -153l-47 -189l-127 -35l-29 25l248 852q-25 10 -77 10z" />
    <glyph glyph-name="Lacute" unicode="&#x139;" horiz-adv-x="1093" 
d="M403 55h345l247 367h39l-147 -422h-961l8 37l175 35l239 1216l-162 37l7 35h505l-6 -35l-176 -37l-240 -1196q33 -37 127 -37zM756 1772v-15l-281 -266h-49l172 281h158z" />
    <glyph glyph-name="lacute" unicode="&#x13a;" horiz-adv-x="485" 
d="M797 1853v-14l-281 -266h-49l172 280h158zM96 -23q-43 0 -59 35t0 92l336 1264l-125 84l4 14l311 62l-373 -1409h7q109 80 209 221l28 -16q-70 -125 -172 -236t-166 -111z" />
    <glyph glyph-name="Lcommaaccent" unicode="&#x13b;" horiz-adv-x="1093" 
d="M403 55h345l247 367h39l-147 -422h-961l8 37l175 35l239 1216l-162 37l7 35h505l-6 -35l-176 -37l-240 -1196q33 -37 127 -37zM463 -141q53 0 84 -33t31 -84q0 -198 -334 -270l-6 30q205 70 204 164q0 76 -104 74v8q16 111 125 111z" />
    <glyph glyph-name="lcommaaccent" unicode="&#x13c;" horiz-adv-x="485" 
d="M53 -334q0 76 -104 74v8q16 111 125 111q53 0 84 -33t30 -84q1 -198 -333 -270l-7 30q205 70 205 164zM96 -23q-43 0 -59 35t0 92l336 1264l-125 84l4 14l311 62l-373 -1409h7q109 80 209 221l28 -16q-70 -125 -172 -236t-166 -111z" />
    <glyph glyph-name="Lcaron" unicode="&#x13d;" horiz-adv-x="1093" 
d="M403 55h345l247 367h39l-147 -422h-961l8 37l175 35l239 1216l-162 37l7 35h505l-6 -35l-176 -37l-240 -1196q33 -37 127 -37zM852 1090h-31l111 411h158l-3 -12z" />
    <glyph glyph-name="lcaron" unicode="&#x13e;" horiz-adv-x="485" 
d="M96 -23q-43 0 -59 35t0 92l336 1264l-125 84l4 14l311 62l-373 -1409h7q109 80 209 221l28 -16q-70 -125 -172 -236t-166 -111zM598 1090h-31l111 411h158l-2 -12z" />
    <glyph glyph-name="Ldot" unicode="&#x13f;" horiz-adv-x="1093" 
d="M829 754q0 46 31 76t76 30t76 -31q30 -31 30 -75t-30 -76q-30 -31 -76 -31q-45 0 -76 31t-31 76zM403 55h345l247 367h39l-147 -422h-961l8 37l175 35l239 1216l-162 37l7 35h505l-6 -35l-176 -37l-240 -1196q33 -37 127 -37z" />
    <glyph glyph-name="ldot" unicode="&#x140;" horiz-adv-x="546" 
d="M96 -23q-43 0 -59 35t0 92l336 1264l-125 84l4 14l311 62l-373 -1409h7q109 80 209 221l28 -16q-70 -125 -172 -236t-166 -111zM557 651q-43 0 -73 30t-29 73q-1 42 29 72t73 30t73 -30t30 -72t-30 -73q-30 -30 -73 -30z" />
    <glyph glyph-name="Lslash" unicode="&#x141;" horiz-adv-x="1093" 
d="M403 55h345l247 367h39l-147 -422h-961l8 37l175 35l100 514l-189 -49l13 59l188 49l127 643l-162 37l7 35h505l-6 -35l-176 -37l-121 -598l502 129l-14 -59l-500 -129l-107 -539q33 -37 127 -37z" />
    <glyph glyph-name="lslash" unicode="&#x142;" horiz-adv-x="485" 
d="M96 -23q-43 0 -59 35t0 92l153 582l-167 -86l16 62l168 86l166 620l-125 84l4 14l311 62l-184 -694l184 94l-16 -62l-185 -94l-172 -653h7q109 80 209 221l28 -16q-70 -125 -172 -236t-166 -111z" />
    <glyph glyph-name="Nacute" unicode="&#x143;" horiz-adv-x="1376" 
d="M1169 1772v-15l-280 -266h-49l172 281h157zM1069 -29h-29l-649 1211l-209 -1108l160 -37l-6 -37h-408l9 37l174 37l231 1175q-33 43 -100 62l-60 14l6 35h293l572 -1067l186 991l-162 41l6 35h410l-6 -35l-174 -41l-203 -1036z" />
    <glyph glyph-name="nacute" unicode="&#x144;" horiz-adv-x="976" 
d="M920 1540v-20l-279 -406h-49l188 426h140zM179 862q-52 0 -89 -12v20q106 106 219 107q55 0 82 -42t8 -104l-84 -280h9q104 186 224 306t234 120q72 0 100 -50t7 -124l-191 -684h7q104 78 208 221l29 -16q-82 -142 -178 -244t-160 -103q-37 0 -57 32t-2 95l198 695
q14 63 -41 63q-102 0 -252 -192t-233 -475l-53 -185l-127 -35l-29 25l248 852q-25 10 -77 10z" />
    <glyph glyph-name="Ncommaaccent" unicode="&#x145;" horiz-adv-x="1376" 
d="M588 -334q0 76 -105 74v8q16 111 125 111q53 0 84 -33t31 -84q0 -198 -334 -270l-6 30q205 70 205 164zM1069 -29h-29l-649 1211l-209 -1108l160 -37l-6 -37h-408l9 37l174 37l231 1175q-33 43 -100 62l-60 14l6 35h293l572 -1067l186 991l-162 41l6 35h410l-6 -35
l-174 -41l-203 -1036z" />
    <glyph glyph-name="ncommaaccent" unicode="&#x146;" horiz-adv-x="976" 
d="M340 -141q53 0 84 -33t31 -84q0 -198 -334 -270l-6 30q205 70 204 164q0 76 -104 74v8q16 111 125 111zM179 862q-52 0 -89 -12v20q106 106 219 107q55 0 82 -42t8 -104l-84 -280h9q104 186 224 306t234 120q72 0 100 -50t7 -124l-191 -684h7q104 78 208 221l29 -16
q-82 -142 -178 -244t-160 -103q-37 0 -57 32t-2 95l198 695q14 63 -41 63q-102 0 -252 -192t-233 -475l-53 -185l-127 -35l-29 25l248 852q-25 10 -77 10z" />
    <glyph glyph-name="Ncaron" unicode="&#x147;" horiz-adv-x="1376" 
d="M1135 1751h69l-286 -260h-105l-184 260h59l197 -170zM1069 -29h-29l-649 1211l-209 -1108l160 -37l-6 -37h-408l9 37l174 37l231 1175q-33 43 -100 62l-60 14l6 35h293l572 -1067l186 991l-162 41l6 35h410l-6 -35l-174 -41l-203 -1036z" />
    <glyph glyph-name="ncaron" unicode="&#x148;" horiz-adv-x="976" 
d="M895 1540h55l-282 -426h-78l-98 426h47l116 -278zM179 862q-52 0 -89 -12v20q106 106 219 107q55 0 82 -42t8 -104l-84 -280h9q104 186 224 306t234 120q72 0 100 -50t7 -124l-191 -684h7q104 78 208 221l29 -16q-82 -142 -178 -244t-160 -103q-37 0 -57 32t-2 95
l198 695q14 63 -41 63q-102 0 -252 -192t-233 -475l-53 -185l-127 -35l-29 25l248 852q-25 10 -77 10z" />
    <glyph glyph-name="napostrophe" unicode="&#x149;" horiz-adv-x="976" 
d="M179 862q-52 0 -89 -12v20q106 106 219 107q55 0 82 -42t8 -104l-84 -280h9q104 186 224 306t234 120q72 0 100 -50t7 -124l-191 -684h7q104 78 208 221l29 -16q-82 -142 -178 -244t-160 -103q-37 0 -57 32t-2 95l198 695q14 63 -41 63q-102 0 -252 -192t-233 -475
l-53 -185l-127 -35l-29 25l248 852q-25 10 -77 10zM309 1315q0 76 -104 74v8q16 111 125 110q53 -1 84 -33t30 -83q1 -199 -333 -271l-7 31q205 70 205 164z" />
    <glyph glyph-name="Eng" unicode="&#x14a;" horiz-adv-x="1376" 
d="M1313 1284l-240 -1214q-51 -252 -155 -365t-353 -156l-10 35q182 56 274 160t138 285l12 55l-588 1098l-209 -1108l160 -37l-6 -37h-408l9 37l174 37l231 1175q-37 47 -100 62l-60 14l6 35h293l572 -1065l186 989l-162 41l6 35h410l-6 -35z" />
    <glyph glyph-name="eng" unicode="&#x14b;" horiz-adv-x="948" 
d="M702 862q-102 0 -252 -192t-233 -475l-53 -185l-127 -35l-29 25l248 852q-25 10 -77 10t-89 -12v20q106 106 219 107q55 0 82 -42t8 -104l-84 -280h9q104 186 224 306t234 120q76 0 100 -47t-3 -162l-207 -848q-41 -164 -155 -309t-257 -146q-53 0 -100 32q-47 33 -47 73
t14 61t29 35q14 14 18 19q98 -147 164 -148q101 0 164 260l235 977q25 88 -35 88z" />
    <glyph glyph-name="Omacron" unicode="&#x14c;" horiz-adv-x="1490" 
d="M631 1556l20 99h574l-23 -99h-571zM1284 856q0 209 -104 344t-293 135q-246 0 -432 -257t-187 -586q0 -208 104 -344t282 -136q176 0 320 123t227 317t83 404zM891 1389q252 0 411 -169t158 -413q0 -338 -233 -593t-565 -255q-244 0 -407 168t-163 418q0 338 234 591
t565 253z" />
    <glyph glyph-name="omacron" unicode="&#x14d;" horiz-adv-x="880" 
d="M362 1266l21 96h510l-23 -96h-508zM560 977q284 -1 284 -325q0 -148 -64 -302t-192 -266q-130 -112 -276 -113t-213 95t-67 242t61 294q60 148 188 261q127 114 279 114zM561 936q-98 0 -188 -119q-89 -119 -139 -285t-50 -315q0 -205 117 -205q102 0 196 122
q93 122 144 286t51 280t-34 176t-97 60z" />
    <glyph glyph-name="Obreve" unicode="&#x14e;" horiz-adv-x="1490" 
d="M919 1495q-110 1 -166 63t-63 199h35q35 -86 82 -124t129 -38q145 0 238 162h32q-25 -121 -101 -191t-186 -71zM1284 856q0 209 -104 344t-293 135q-246 0 -432 -257t-187 -586q0 -208 104 -344t282 -136q176 0 320 123t227 317t83 404zM891 1389q252 0 411 -169
t158 -413q0 -338 -233 -593t-565 -255q-244 0 -407 168t-163 418q0 338 234 591t565 253z" />
    <glyph glyph-name="obreve" unicode="&#x14f;" horiz-adv-x="880" 
d="M620 1151q-210 0 -182 319h33q12 -110 50 -162t114 -53q137 0 223 215h33q-27 -145 -97 -232q-68 -87 -174 -87zM560 977q284 -1 284 -325q0 -148 -64 -302t-192 -266q-130 -112 -276 -113t-213 95t-67 242t61 294q60 148 188 261q127 114 279 114zM561 936
q-98 0 -188 -119q-89 -119 -139 -285t-50 -315q0 -205 117 -205q102 0 196 122q93 122 144 286t51 280t-34 176t-97 60z" />
    <glyph glyph-name="Ohungarumlaut" unicode="&#x150;" horiz-adv-x="1490" 
d="M985 1772v-17l-235 -264h-56l156 281h135zM1307 1772v-17l-236 -264h-57l155 281h138zM1284 856q0 209 -104 344t-293 135q-246 0 -432 -257t-187 -586q0 -208 104 -344t282 -136q176 0 320 123t227 317t83 404zM891 1389q252 0 411 -169t158 -413q0 -338 -233 -593
t-565 -255q-244 0 -407 168t-163 418q0 338 234 591t565 253z" />
    <glyph glyph-name="ohungarumlaut" unicode="&#x151;" horiz-adv-x="880" 
d="M1012 1540v-18l-256 -408h-49l176 426h129zM725 1540v-18l-256 -408h-49l174 426h131zM560 977q284 -1 284 -325q0 -148 -64 -302t-192 -266q-130 -112 -276 -113t-213 95t-67 242t61 294q60 148 188 261q127 114 279 114zM561 936q-98 0 -188 -119q-89 -119 -139 -285
t-50 -315q0 -205 117 -205q102 0 196 122q93 122 144 286t51 280t-34 176t-97 60z" />
    <glyph glyph-name="OE" unicode="&#x152;" horiz-adv-x="1935" 
d="M884 1327q-160 0 -305 -119t-227 -297q-82 -177 -82 -383t94 -352t308 -147q245 0 284 209l201 1038q-113 51 -273 51zM1157 0q-123 0 -261 -5t-224 -7q-248 -6 -414 144t-166 433q0 227 117 413t313 290t428 104q84 0 232 -6t331 -6h297l123 10l-51 -387h-33l-57 322
h-467l-111 -564h302l106 220h35l-96 -490h-35l-23 207h-301l-115 -586q35 -37 130 -37h368l225 340h39l-135 -395h-557z" />
    <glyph glyph-name="oe" unicode="&#x153;" horiz-adv-x="1349" 
d="M1146 907q-70 -1 -171 -113q-102 -112 -154 -268q135 25 265 122t131 198q-1 61 -71 61zM563 936q-98 0 -188 -119t-139 -285t-50 -315q0 -205 117 -205q102 0 196 122q93 122 144 286t51 280t-34 176t-97 60zM870 -29q-174 0 -221 191q-150 -190 -348 -191
q-133 -1 -200 95t-67 242t61 294t189 261q128 114 289 114q219 0 252 -260q203 260 416 260q70 0 108 -34t37 -91q0 -120 -183 -228t-396 -145q-23 -84 -23 -179q0 -94 40 -154t116 -60q143 0 270 213l37 -14q-63 -135 -161 -225t-216 -89z" />
    <glyph glyph-name="Racute" unicode="&#x154;" horiz-adv-x="1214" 
d="M1001 1772v-15l-280 -266h-49l172 281h157zM520 1319l-121 -617q246 -14 383 80t138 256q0 129 -100 209t-300 72zM657 1360q195 0 315 -80t120 -217q0 -281 -381 -377l102 -249q83 -197 139 -278q20 -30 60 -62t68 -41t85 -23l-6 -33q-245 -25 -317 50t-258 530l-19 44
q-6 13 -10 25h-166l-113 -577l189 -39l-6 -33h-533l8 37l175 35l239 1216l-162 37l7 35h464z" />
    <glyph glyph-name="racute" unicode="&#x155;" horiz-adv-x="716" 
d="M834 1540v-20l-279 -406h-49l188 426h140zM175 862q-52 0 -89 -12v20q106 106 219 107q63 0 86 -46t-2 -118l-110 -350h16q141 301 235 407t179 107q41 0 65 -24t25 -62q0 -90 -105 -182h-35q45 139 -30 139q-70 0 -198 -212t-200 -425l-65 -201l-127 -35l-29 25l242 852
q-25 10 -77 10z" />
    <glyph glyph-name="Rcommaaccent" unicode="&#x156;" horiz-adv-x="1280" 
d="M582 -334q0 76 -105 74v8q16 111 125 111q53 0 84 -33t31 -84q0 -198 -334 -270l-6 30q205 70 205 164zM520 1319l-121 -617q246 -14 383 80t138 256q0 129 -100 209t-300 72zM657 1360q195 0 315 -80t120 -217q0 -281 -381 -377l102 -249q83 -197 139 -278
q20 -30 60 -62t68 -41t85 -23l-6 -33q-245 -25 -317 50t-258 530l-19 44q-6 13 -10 25h-166l-113 -577l189 -39l-6 -33h-533l8 37l175 35l239 1216l-162 37l7 35h464z" />
    <glyph glyph-name="rcommaaccent" unicode="&#x157;" horiz-adv-x="696" 
d="M175 862q-52 0 -89 -12v20q106 106 219 107q63 0 86 -46t-2 -118l-110 -350h16q141 301 235 407t179 107q41 0 65 -24t25 -62q0 -90 -105 -182h-35q45 139 -30 139q-70 0 -198 -212t-200 -425l-65 -201l-127 -35l-29 25l242 852q-25 10 -77 10zM25 -334q0 76 -105 74v8
q16 111 125 111q53 0 84 -33t31 -84q0 -198 -334 -270l-6 30q205 70 205 164z" />
    <glyph glyph-name="Rcaron" unicode="&#x158;" horiz-adv-x="1214" 
d="M977 1751h70l-287 -260h-105l-184 260h59l197 -170zM520 1319l-121 -617q246 -14 383 80t138 256q0 129 -100 209t-300 72zM657 1360q195 0 315 -80t120 -217q0 -281 -381 -377l102 -249q83 -197 139 -278q20 -30 60 -62t68 -41t85 -23l-6 -33q-245 -25 -317 50t-258 530
l-19 44q-6 13 -10 25h-166l-113 -577l189 -39l-6 -33h-533l8 37l175 35l239 1216l-162 37l7 35h464z" />
    <glyph glyph-name="rcaron" unicode="&#x159;" horiz-adv-x="716" 
d="M807 1540h55l-282 -426h-78l-99 426h48l116 -278zM175 862q-52 0 -89 -12v20q106 106 219 107q63 0 86 -46t-2 -118l-110 -350h16q141 301 235 407t179 107q41 0 65 -24t25 -62q0 -90 -105 -182h-35q45 139 -30 139q-70 0 -198 -212t-200 -425l-65 -201l-127 -35l-29 25
l242 852q-25 10 -77 10z" />
    <glyph glyph-name="Sacute" unicode="&#x15a;" horiz-adv-x="983" 
d="M995 1772v-15l-280 -266h-49l172 281h157zM737 313q0 88 -51 158t-162 143l-71 48q-135 90 -187 158q-51 69 -51 175q0 158 147 276t351 118q125 0 299 -66l-74 -360h-33l-12 288q-111 78 -237 78t-208 -75t-82 -176t42 -154q41 -53 145 -123l51 -33q158 -104 226 -185
t69 -186q0 -176 -156 -302t-347 -126t-373 97l69 393h31l22 -324q119 -109 259 -109t236 78q97 76 97 209z" />
    <glyph glyph-name="sacute" unicode="&#x15b;" horiz-adv-x="602" 
d="M770 1540v-20l-278 -406h-50l189 426h139zM500 258q0 -94 -108 -190t-219 -96t-165 44q-53 45 -51 99q0 31 14 61t31 41h2q47 -70 114 -116t125 -46t91 35t33 82t-68 158l-86 145q-80 135 -86 161t-6 50q0 111 123 201t229 90q147 0 148 -113q0 -49 -39 -98h-4
q-115 125 -207 125q-47 0 -83 -34t-36 -84t57 -146l107 -174q58 -92 71 -128t13 -67z" />
    <glyph glyph-name="Scircumflex" unicode="&#x15c;" horiz-adv-x="983" 
d="M473 1491h-70l287 260h105l184 -260h-59l-197 170zM737 313q0 88 -51 158t-162 143l-71 48q-135 90 -187 158q-51 69 -51 175q0 158 147 276t351 118q125 0 299 -66l-74 -360h-33l-12 288q-111 78 -237 78t-208 -75t-82 -176t42 -154q41 -53 145 -123l51 -33
q158 -104 226 -185t69 -186q0 -176 -156 -302t-347 -126t-373 97l69 393h31l22 -324q119 -109 259 -109t236 78q97 76 97 209z" />
    <glyph glyph-name="scircumflex" unicode="&#x15d;" horiz-adv-x="602" 
d="M285 1114h-56l283 426h78l98 -426h-47l-119 279zM500 258q0 -94 -108 -190t-219 -96t-165 44q-53 45 -51 99q0 31 14 61t31 41h2q47 -70 114 -116t125 -46t91 35t33 82t-68 158l-86 145q-80 135 -86 161t-6 50q0 111 123 201t229 90q147 0 148 -113q0 -49 -39 -98h-4
q-115 125 -207 125q-47 0 -83 -34t-36 -84t57 -146l107 -174q58 -92 71 -128t13 -67z" />
    <glyph glyph-name="Scedilla" unicode="&#x15e;" horiz-adv-x="983" 
d="M344 -317q0 31 -19 55t-31 30l-36 15q82 121 127 186h-4q-176 0 -358 97l69 393h31l22 -324q119 -109 259 -109t236 78q97 76 97 209q0 88 -51 158t-162 143l-71 48q-135 88 -187 158q-51 71 -51 175q0 158 147 276t351 118q125 0 299 -66l-74 -360h-33l-12 288
q-111 78 -237 78t-208 -75t-82 -176t42 -156q41 -55 145 -121l51 -33q156 -100 224 -183t71 -188q0 -163 -135 -285t-326 -141l-69 -106q51 -18 80 -54t28 -77q0 -195 -344 -258l2 30q209 57 209 177z" />
    <glyph glyph-name="scedilla" unicode="&#x15f;" horiz-adv-x="602" 
d="M82 -317q0 31 -20 55t-30 30q-11 5 -36 15l129 190q-80 9 -125 51q-70 66 -29 151q14 30 31 42h2q47 -70 114 -116t125 -46t91 35t33 82t-68 158l-86 145q-80 135 -86 161t-6 50q0 111 123 201t229 90q147 0 148 -113q0 -49 -39 -98h-4q-115 125 -207 125q-47 0 -83 -34
t-36 -84t57 -146l107 -174q58 -92 71 -128q12 -37 13 -67q0 -90 -100 -184t-224 -103l-70 -106q51 -18 80 -54t29 -77q0 -195 -344 -258l2 30q209 57 209 177z" />
    <glyph glyph-name="Scaron" unicode="&#x160;" horiz-adv-x="983" 
d="M961 1751h69l-287 -260h-104l-184 260h59l197 -170zM737 313q0 88 -51 158t-162 143l-71 48q-135 90 -187 158q-51 69 -51 175q0 158 147 276t351 118q125 0 299 -66l-74 -360h-33l-12 288q-111 78 -237 78t-208 -75t-82 -176t41 -154q40 -53 146 -123l53 -35
q160 -104 227 -184t66 -185q0 -176 -156 -302t-347 -126t-373 97l69 393h31l22 -324q119 -109 259 -109t236 78q97 76 97 209z" />
    <glyph glyph-name="scaron" unicode="&#x161;" horiz-adv-x="602" 
d="M723 1540h55l-282 -426h-78l-99 426h48l116 -278zM500 258q0 -94 -108 -190t-219 -96t-165 44q-53 45 -51 99q0 31 14 61t31 41h2q47 -70 114 -116t125 -46t91 35t33 82t-68 158l-86 145q-80 135 -86 161t-6 50q0 111 123 201t229 90q147 0 148 -113q0 -49 -39 -98h-4
q-115 125 -207 125q-47 0 -83 -34t-36 -84t57 -146l107 -174q58 -92 71 -128t13 -67z" />
    <glyph glyph-name="Tcommaaccent" unicode="&#x162;" horiz-adv-x="1232" 
d="M459 -334q0 76 -105 74v8q16 111 125 111q53 0 84 -33t31 -84q0 -198 -334 -270l-6 30q205 70 205 164zM350 1360h869l120 12l-98 -389h-35l-2 322h-352l-244 -1233l180 -35l-6 -37h-544l8 37l194 35l244 1233h-336l-149 -322h-35l63 389z" />
    <glyph glyph-name="tcommaaccent" unicode="&#x163;" horiz-adv-x="604" 
d="M35 -334q0 76 -105 74v8q16 111 125 111q53 0 84 -33t31 -84q0 -198 -334 -270l-6 30q205 70 205 164zM90 -23q-37 0 -57 31t-10 70l210 792h-161l8 45l178 33l123 281h80l-62 -281h289l-16 -78h-291l-199 -751h4q53 20 138 94q84 74 161 172l31 -23q-92 -147 -213 -266
t-213 -119z" />
    <glyph glyph-name="Tcaron" unicode="&#x164;" horiz-adv-x="1232" 
d="M1083 1751h70l-287 -260h-104l-184 260h59l197 -170zM350 1360h869l120 12l-98 -389h-35l-2 322h-352l-244 -1233l180 -35l-6 -37h-544l8 37l194 35l244 1233h-336l-149 -322h-35l63 389z" />
    <glyph glyph-name="tcaron" unicode="&#x165;" horiz-adv-x="604" 
d="M90 -23q-37 0 -57 31t-10 70l210 792h-161l8 45l178 33l123 281h80l-62 -281h289l-16 -78h-291l-199 -751h4q53 20 138 94q84 74 161 172l31 -23q-92 -147 -213 -266t-213 -119zM596 1085h-31l111 412h158l-3 -12z" />
    <glyph glyph-name="Tbar" unicode="&#x166;" horiz-adv-x="1232" 
d="M260 707l12 55h306l106 543h-336l-149 -322h-35l63 389l123 -12h869l120 12l-98 -389h-35l-2 322h-352l-107 -543h336l-10 -55h-338l-125 -635l180 -35l-6 -37h-544l8 37l194 35l125 635h-305z" />
    <glyph glyph-name="tbar" unicode="&#x167;" horiz-adv-x="604" 
d="M90 -23q-37 0 -57 31t-10 70l129 487h-127l10 72h137l61 233h-161l8 45l178 33l123 281h80l-62 -281h289l-16 -78h-291l-62 -233h306l-15 -72h-311l-117 -446h4q53 20 138 94q84 74 161 172l31 -23q-92 -147 -213 -266t-213 -119z" />
    <glyph glyph-name="Utilde" unicode="&#x168;" horiz-adv-x="1308" 
d="M604 1511l-26 11l10 28q82 231 280 144l115 -52q66 -40 112 -26t93 110l29 -10l-13 -39q-82 -246 -278 -155l-111 53q-84 41 -125 31t-86 -95zM634 70q179 0 297 116t167 383l137 715l-160 41l6 35h383l-6 -35l-149 -43l-152 -758q-49 -258 -192 -406t-380 -147
q-237 0 -360 144q-122 144 -61 487l141 686l-135 37l6 35h479l-6 -35l-176 -37l-151 -735q-49 -239 42 -361t270 -122z" />
    <glyph glyph-name="utilde" unicode="&#x169;" horiz-adv-x="991" 
d="M362 1204l-26 10l10 29q82 231 281 143l114 -51q66 -39 112 -25t93 109l29 -10l-12 -39q-82 -246 -279 -156l-111 54q-84 40 -125 30t-86 -94zM173 862q-52 0 -89 -12v20q106 106 219 107q59 0 79 -46t3 -114l-178 -672q-4 -23 8 -40t39 -17q98 0 265 238t216 432l49 190
l136 13l14 -17l-219 -825h6q113 82 209 221l28 -16q-80 -138 -176 -242t-161 -105q-37 0 -58 30q-20 30 -4 91l105 373h-9q-114 -212 -192 -313t-146 -143t-134 -42t-105 42t-23 114l195 723q-25 10 -77 10z" />
    <glyph glyph-name="Umacron" unicode="&#x16a;" horiz-adv-x="1308" 
d="M602 1556l21 99h573l-22 -99h-572zM634 70q179 0 297 116t167 383l137 715l-160 41l6 35h383l-6 -35l-149 -43l-152 -758q-49 -258 -192 -406t-380 -147q-237 0 -360 144q-122 144 -61 487l141 686l-135 37l6 35h479l-6 -35l-176 -37l-151 -735q-49 -239 42 -361
t270 -122z" />
    <glyph glyph-name="umacron" unicode="&#x16b;" horiz-adv-x="991" 
d="M173 862q-52 0 -89 -12v20q106 106 219 107q59 0 79 -46t3 -114l-178 -672q-4 -23 8 -40t39 -17q98 0 265 238t216 432l49 190l136 13l14 -17l-219 -825h6q113 82 209 221l28 -16q-80 -138 -176 -242t-161 -105q-37 0 -58 30q-20 30 -4 91l105 373h-9
q-114 -212 -192 -313t-146 -143t-134 -42t-105 42t-23 114l195 723q-25 10 -77 10zM397 1266l21 96h489l-22 -96h-488z" />
    <glyph glyph-name="Ubreve" unicode="&#x16c;" horiz-adv-x="1308" 
d="M878 1495q-110 1 -166 63t-63 199h35q35 -86 82 -124t129 -38q145 0 238 162h32q-25 -121 -101 -191t-186 -71zM634 70q179 0 297 116t167 383l137 715l-160 41l6 35h383l-6 -35l-149 -43l-152 -758q-49 -258 -192 -406t-380 -147q-237 0 -360 144q-122 144 -61 487
l141 686l-135 37l6 35h479l-6 -35l-176 -37l-151 -735q-49 -239 42 -361t270 -122z" />
    <glyph glyph-name="ubreve" unicode="&#x16d;" horiz-adv-x="991" 
d="M636 1151q-212 0 -181 319h32q13 -110 51 -162t113 -53q137 0 223 215h33q-27 -145 -96 -232t-175 -87zM173 862q-52 0 -89 -12v20q106 106 219 107q59 0 79 -46t3 -114l-178 -672q-4 -23 8 -40t39 -17q98 0 265 238t216 432l49 190l136 13l14 -17l-219 -825h6
q113 82 209 221l28 -16q-80 -138 -176 -242t-161 -105q-37 0 -58 30q-20 30 -4 91l105 373h-9q-114 -212 -192 -313t-146 -143t-134 -42t-105 42t-23 114l195 723q-25 10 -77 10z" />
    <glyph glyph-name="Uring" unicode="&#x16e;" horiz-adv-x="1308" 
d="M1036 1669q0 61 -42 105t-100 43t-99 -43t-41 -104t41 -105t99 -43t100 43t42 104zM690 1668q0 87 58 143q58 57 146 57q87 0 145 -56q59 -56 59 -142q0 -87 -58 -144q-58 -58 -146 -58t-146 56t-58 144zM634 70q179 0 297 116t167 383l137 715l-160 41l6 35h383l-6 -35
l-149 -43l-152 -758q-49 -258 -192 -406t-380 -147q-237 0 -360 144q-122 144 -61 487l141 686l-135 37l6 35h479l-6 -35l-176 -37l-151 -735q-49 -239 42 -361t270 -122z" />
    <glyph glyph-name="uring" unicode="&#x16f;" horiz-adv-x="991" 
d="M782 1343q0 61 -42 105t-100 43t-99 -43t-41 -104t41 -105t99 -43t100 43t42 104zM640 1143q-88 0 -146 56t-58 143q0 88 58 144t146 56q87 0 145 -55q59 -55 59 -143t-58 -144q-58 -57 -146 -57zM173 862q-52 0 -89 -12v20q106 106 219 107q59 0 79 -46t3 -114
l-178 -672q-4 -23 8 -40t39 -17q98 0 265 238t216 432l49 190l136 13l14 -17l-219 -825h6q113 82 209 221l28 -16q-80 -138 -176 -242t-161 -105q-37 0 -58 30q-20 30 -4 91l105 373h-9q-114 -212 -192 -313t-146 -143t-134 -42t-105 42t-23 114l195 723q-25 10 -77 10z" />
    <glyph glyph-name="Uhungarumlaut" unicode="&#x170;" horiz-adv-x="1308" 
d="M956 1772v-17l-235 -264h-55l155 281h135zM1278 1772v-17l-236 -264h-57l156 281h137zM634 70q179 0 297 116t167 383l137 715l-160 41l6 35h383l-6 -35l-149 -43l-152 -758q-49 -258 -192 -406t-380 -147q-237 0 -360 144q-122 144 -61 487l141 686l-135 37l6 35h479
l-6 -35l-176 -37l-151 -735q-49 -239 42 -361t270 -122z" />
    <glyph glyph-name="uhungarumlaut" unicode="&#x171;" horiz-adv-x="991" 
d="M1038 1540v-18l-256 -408h-49l176 426h129zM752 1540v-18l-256 -408h-50l175 426h131zM173 862q-52 0 -89 -12v20q106 106 219 107q59 0 79 -46t3 -114l-178 -672q-4 -23 8 -40t39 -17q98 0 265 238t216 432l49 190l136 13l14 -17l-219 -825h6q113 82 209 221l28 -16
q-80 -138 -176 -242t-161 -105q-37 0 -58 30q-20 30 -4 91l105 373h-9q-114 -212 -192 -313t-146 -143t-134 -42t-105 42t-23 114l195 723q-25 10 -77 10z" />
    <glyph glyph-name="Uogonek" unicode="&#x172;" horiz-adv-x="1308" 
d="M584 -29q-237 0 -359 144t-61 487l141 686l-135 37l6 35h479l-6 -35l-176 -37l-151 -735q-49 -239 42 -361t270 -122t297 116t167 383l137 715l-160 41l6 35h383l-6 -35l-149 -43l-152 -758q-47 -242 -174 -386t-338 -163q-129 -125 -168 -187t-39 -108t27 -68t67 -22
t75 24q36 24 89 87l31 -16q-127 -195 -276 -195q-66 0 -106 42t-40 110q1 68 63 138q62 69 220 191h-4z" />
    <glyph glyph-name="uogonek" unicode="&#x173;" horiz-adv-x="991" 
d="M621 -20h-5q-37 0 -54 34t-3 86l105 371h-9q-114 -212 -192 -313t-146 -143t-133 -42t-106 43t-23 115l195 721q-25 10 -77 10t-89 -12v20q106 106 219 107q59 0 79 -46t3 -114l-178 -672q-4 -23 8 -40t39 -17q98 0 264 238t217 432l49 190l136 13l14 -17l-219 -825h6
q45 31 111 99t98 122l28 -16q-109 -176 -217 -281q-168 -163 -222 -231t-54 -138q-1 -32 23 -58t67 -26q76 0 168 111l31 -16q-133 -195 -277 -195q-69 0 -107 43t-38 93t15 86t70 90t204 173v5z" />
    <glyph glyph-name="Wcircumflex" unicode="&#x174;" horiz-adv-x="1683" 
d="M776 1491h-69l286 260h105l184 -260h-59l-197 170zM1049 -12l-129 989l-517 -989h-69l-125 1304l-115 33l6 35h457l-6 -35l-176 -37l92 -1061l438 850l-26 215l-142 33l6 35h482l-6 -35l-179 -37l131 -1077l492 1077l-164 37l6 35h383l-8 -35l-127 -39l-631 -1298h-73z
" />
    <glyph glyph-name="wcircumflex" unicode="&#x175;" horiz-adv-x="1261" 
d="M549 1114h-55l282 426h78l98 -426h-47l-119 279zM1159 746q0 64 -33 96q-60 56 -192 10v22q109 102 201 103q59 0 97 -38q38 -39 38 -115t-66 -190t-276 -390l-209 -273h-17l-53 23l6 498h-6q-35 -52 -133 -182t-158 -216l-84 -123h-18l-57 23l-2 854q-39 14 -85 14
t-79 -10v22q113 102 209 103q59 0 85 -37t23 -129l-8 -661h6q227 313 303 432l-4 258q-46 46 -164 12v22q111 102 209 103q51 0 74 -39t25 -131l6 -655h6q356 452 356 594z" />
    <glyph glyph-name="Ycircumflex" unicode="&#x176;" horiz-adv-x="1212" 
d="M606 1491h-69l286 260h105l184 -260h-59l-197 170zM1231 1286l-506 -680l-107 -534l158 -35l-6 -37h-502l8 37l175 35l104 522l-272 698l-115 33l6 35h465l-6 -35l-176 -37l231 -626h6l451 626l-164 37l6 35h379l-8 -35z" />
    <glyph glyph-name="ycircumflex" unicode="&#x177;" horiz-adv-x="890" 
d="M377 1114h-55l282 426h78l98 -426h-47l-119 279zM473 508q0 -303 -92 -576h10q164 186 262 386t99 378q0 135 -88 252q49 31 106 31q96 0 94 -154q-2 -155 -64 -325t-160 -316q-202 -304 -454 -510q-253 -206 -374 -206q-45 0 -74 26t-29 70t27 72t67 28q90 0 113 -110h4
q294 114 380 647q22 135 22 268t-20 222q-34 159 -103 159q-47 0 -76 -50t-62 -175h-36q16 154 83 254q66 100 158 98t150 -128t57 -341z" />
    <glyph glyph-name="Ydieresis" unicode="&#x178;" horiz-adv-x="1212" 
d="M1053 1556q-39 0 -66 27t-26 66t27 67t65 27q39 0 67 -28q28 -29 27 -67q1 -38 -27 -65t-67 -27zM644 1556q-40 0 -66 27t-25 66q0 39 26 67q27 28 65 27q38 0 67 -28q29 -29 29 -67t-28 -65t-68 -27zM1231 1286l-506 -680l-107 -534l158 -35l-6 -37h-502l8 37l175 35
l104 522l-272 698l-115 33l6 35h465l-6 -35l-176 -37l231 -626h6l451 626l-164 37l6 35h379l-8 -35z" />
    <glyph glyph-name="Zacute" unicode="&#x179;" horiz-adv-x="1216" 
d="M1063 1772v-15l-281 -266h-49l172 281h158zM1255 1360v-14l-1056 -1289h694l221 365h39l-133 -434l-131 12h-905l4 27l1044 1276h-635l-174 -363h-35l74 432l144 -12h849z" />
    <glyph glyph-name="zacute" unicode="&#x17a;" horiz-adv-x="815" 
d="M866 1540v-20l-278 -406h-49l188 426h139zM467 -43q-39 0 -115 31l-278 110l-109 -139l-59 45l704 744l-278 106q-106 41 -137 2q-41 -51 75 -156q-55 -66 -112 -65q-33 -1 -57 23t-23 67q2 86 98 172t191 86q63 0 141 -29l213 -88l92 117l53 -45l-684 -721l283 -106
q76 -29 124 1t134 138q10 14 16 20l33 -18q-102 -164 -162 -230t-143 -65z" />
    <glyph glyph-name="Zdotaccent" unicode="&#x17b;" horiz-adv-x="1216" 
d="M692 1651q0 41 29 69t70 29q41 0 69 -29q28 -30 29 -70q0 -40 -29 -69q-30 -29 -70 -29t-69 29t-29 70zM1255 1360v-14l-1056 -1289h694l221 365h39l-133 -434l-131 12h-905l4 27l1044 1276h-635l-174 -363h-35l74 432l144 -12h849z" />
    <glyph glyph-name="zdotaccent" unicode="&#x17c;" horiz-adv-x="815" 
d="M492 1321q0 39 28 69q29 30 70 30q42 0 70 -30t28 -69t-29 -69t-69 -30t-70 30q-28 30 -28 69zM467 -43q-39 0 -115 31l-278 110l-109 -139l-59 45l704 744l-278 106q-106 41 -137 2q-41 -51 75 -156q-55 -66 -112 -65q-33 -1 -57 23t-23 67q2 86 98 172t191 86
q63 0 141 -29l213 -88l92 117l53 -45l-684 -721l283 -106q76 -29 124 1t134 138q10 14 16 20l33 -18q-102 -164 -162 -230t-143 -65z" />
    <glyph glyph-name="Zcaron" unicode="&#x17d;" horiz-adv-x="1216" 
d="M1030 1751h70l-287 -260h-104l-185 260h60l196 -170zM1255 1360v-14l-1056 -1289h694l221 365h39l-133 -434l-131 12h-905l4 27l1044 1276h-635l-174 -363h-35l74 432l144 -12h849z" />
    <glyph glyph-name="zcaron" unicode="&#x17e;" horiz-adv-x="815" 
d="M813 1540h55l-282 -426h-78l-98 426h47l116 -278zM467 -43q-39 0 -115 31l-278 110l-109 -139l-59 45l704 744l-278 106q-106 41 -137 2q-41 -51 75 -156q-55 -66 -112 -65q-33 -1 -57 23t-23 67q2 86 98 172t191 86q63 0 141 -29l213 -88l92 117l53 -45l-684 -721
l283 -106q76 -29 124 1t134 138q10 14 16 20l33 -18q-102 -164 -162 -230t-143 -65z" />
    <glyph glyph-name="florin" unicode="&#x192;" horiz-adv-x="888" 
d="M858 1231q59 0 95 -34t36 -69q0 -61 -61 -118q-113 137 -180 137q-49 0 -86 -29q-37 -28 -83 -138t-87 -308l-9 -41h275l-15 -62h-274l-113 -553q-46 -231 -160 -396t-270 -165q-51 0 -99 31t-48 82t61 106q88 -150 166 -149q53 0 89 82t73 262l143 700h-186l12 62h187
q66 260 213 430t321 170z" />
    <glyph glyph-name="Aringacute" unicode="&#x1fa;" horiz-adv-x="1275" 
d="M1174 2163v-15l-281 -266h-49l172 281h158zM967 1634q0 60 -42 104q-43 44 -101 44t-99 -42t-41 -105q0 -62 41 -105t99 -43t101 43q42 43 42 104zM621 1633q0 87 58 143t145 57q88 0 146 -55q58 -54 58 -142t-58 -145t-146 -57t-145 56q-58 56 -58 143zM721 1223
l-340 -658h436l-92 658h-4zM-102 0l8 39l127 35l696 1282l64 12l69 10l191 -1306l121 -37l-7 -35h-475l8 37l187 35l-60 415h-487l-211 -409l190 -39l-8 -39h-413z" />
    <glyph glyph-name="aringacute" unicode="&#x1fb;" horiz-adv-x="966" 
d="M1120 1819v-15l-280 -266h-49l172 281h157zM749 1411q-57 0 -99 -42t-42 -104q0 -61 41 -105t99 -44t101 43q42 43 42 105t-42 104q-42 43 -100 43zM545 1263q0 87 58 143q57 56 145 56t146 -55t58 -142t-58 -145t-145 -57q-87 0 -146 56q-58 57 -58 144zM233 84
q90 0 251 225t206 363l49 149q-55 78 -125 78q-145 0 -285 -223t-155 -477q-7 -115 59 -115zM655 956q82 0 146 -38l69 114h62l-254 -913h6q104 78 209 221l29 -16q-82 -142 -178 -244t-160 -103q-89 0 -54 150l95 305h-9q-191 -295 -263 -358q-109 -101 -211 -101
q-60 1 -102 51t-36 148q10 160 84 312q132 270 380 412q105 60 187 60z" />
    <glyph glyph-name="AEacute" unicode="&#x1fc;" horiz-adv-x="1765" 
d="M1487 1772v-15l-281 -266h-49l172 281h158zM989 1307h-18l-400 -553h310zM1044 55h369l227 340h39l-135 -395h-977l8 39l175 33l118 618h-344l-428 -612l191 -39l-8 -39h-424l8 39l127 35l887 1204l-172 47l6 35h927l125 10l-51 -387h-33l-57 322h-467l-108 -551h301
l106 219h35l-96 -490h-35l-23 207h-301l-116 -598q35 -37 126 -37z" />
    <glyph glyph-name="aeacute" unicode="&#x1fd;" horiz-adv-x="1177" 
d="M1071 1540v-20l-278 -406h-50l189 426h139zM978 905q-72 1 -171 -111q-100 -112 -150 -276q168 52 281 144t113 182q-1 61 -73 61zM256 76q63 0 121 49q57 49 94 106q-6 86 23 201l-156 -55q-100 -37 -145 -79t-46 -99q0 -123 109 -123zM702 -29q-80 0 -138 49t-81 136
h-10q-139 -184 -305 -185q-68 0 -129 49q-61 50 -59 144t76 150q75 56 241 106l209 61l47 168q14 111 -28 183t-117 71q-75 0 -125 -51l-17 -180q-29 -18 -71 -19q-78 0 -78 66q0 72 123 161t249 97q93 -1 147 -61t48 -162h8q72 94 177 158t191 65q162 0 161 -125
q0 -117 -167 -217t-409 -160q-18 -81 -21 -167t38 -154t112 -68q150 0 270 213l37 -14q-55 -127 -151 -221t-228 -93z" />
    <glyph glyph-name="Oslashacute" unicode="&#x1fe;" horiz-adv-x="1490" 
d="M1210 1772v-15l-280 -266h-49l172 281h157zM268 506q0 -202 80 -328l809 1049q-104 109 -268 109t-307 -120q-142 -118 -228 -314q-86 -194 -86 -396zM1284 844q0 198 -86 330l-809 -1049q101 -113 271 -113t314 123t227 317t83 392zM92 545q0 338 234 591t565 253
q180 0 319 -95l111 146h82l-141 -185q199 -170 198 -448q0 -338 -233 -593t-565 -255q-180 0 -324 98l-115 -149h-82l146 188q-195 172 -195 449z" />
    <glyph glyph-name="oslashacute" unicode="&#x1ff;" horiz-adv-x="880" 
d="M889 1540v-20l-279 -406h-49l189 426h139zM180 207v-8l496 657q-37 80 -125 80t-179 -122q-92 -122 -142 -290t-50 -317zM698 737q0 20 -4 58l-508 -672q18 -111 118 -111t194 125t147 292t53 308zM33 317q0 137 60 285q61 148 189 261q128 114 289 114q88 0 158 -49
l102 135h66l-129 -172q76 -87 76 -237t-64 -304t-192 -266q-129 -112 -289 -113q-106 0 -174 72l-109 -145h-63l141 186q-61 96 -61 233z" />
    <glyph glyph-name="Scommaaccent" unicode="&#x218;" horiz-adv-x="1044" 
d="M383 -141q53 0 84 -33t31 -84q0 -198 -334 -270l-6 30q205 70 204 164q0 76 -104 74v8q16 111 125 111zM737 313q0 88 -51 158t-162 143l-71 48q-135 90 -187 158q-51 69 -51 175q0 158 147 276t351 118q125 0 299 -66l-74 -360h-33l-12 288q-111 78 -237 78t-208 -75
t-82 -176t42 -154q41 -53 145 -123l51 -33q158 -104 226 -185t69 -186q0 -176 -156 -302t-347 -126t-373 97l69 393h31l22 -324q119 -109 259 -109t236 78q97 76 97 209z" />
    <glyph glyph-name="scommaaccent" unicode="&#x219;" horiz-adv-x="602" 
d="M500 258q0 -94 -108 -190t-219 -96t-165 44q-53 45 -51 99q0 31 14 61t31 41h2q47 -70 114 -116t125 -46t91 35t33 82t-68 158l-86 145q-80 135 -86 161t-6 50q0 111 123 201t229 90q147 0 148 -113q0 -49 -39 -98h-4q-115 125 -207 125q-47 0 -83 -34t-36 -84t57 -146
l107 -174q58 -92 71 -128t13 -67zM123 -141q53 0 84 -33t31 -84q0 -198 -334 -270l-6 30q205 70 204 164q0 76 -104 74v8q16 111 125 111z" />
    <glyph glyph-name="uni021A" unicode="&#x21a;" horiz-adv-x="1232" 
d="M459 -334q0 76 -105 74v8q16 111 125 111q53 0 84 -33t31 -84q0 -198 -334 -270l-6 30q205 70 205 164zM350 1360h869l120 12l-98 -389h-35l-2 322h-352l-244 -1233l180 -35l-6 -37h-544l8 37l194 35l244 1233h-336l-149 -322h-35l63 389z" />
    <glyph glyph-name="uni021B" unicode="&#x21b;" horiz-adv-x="604" 
d="M35 -334q0 76 -105 74v8q16 111 125 111q53 0 84 -33t31 -84q0 -198 -334 -270l-6 30q205 70 205 164zM90 -23q-37 0 -57 31t-10 70l210 792h-161l8 45l178 33l123 281h80l-62 -281h289l-16 -78h-291l-199 -751h4q53 20 138 94q84 74 161 172l31 -23q-92 -147 -213 -266
t-213 -119z" />
    <glyph glyph-name="uni0237" unicode="&#x237;" horiz-adv-x="450" 
d="M-387 -426q0 45 19 66t32 32l10 13q98 -147 164 -148q101 0 164 260l254 1055q-66 29 -166 -2v22q113 104 207 105q61 0 86 -43t6 -121l-211 -893q-38 -162 -156 -308t-262 -147q-53 0 -100 32t-47 77z" />
    <glyph glyph-name="circumflex" unicode="&#x2c6;" 
d="M207 1114h-55l282 426h78l98 -426h-47l-119 279z" />
    <glyph glyph-name="caron" unicode="&#x2c7;" 
d="M545 1540h55l-283 -426h-77l-99 426h47l117 -278z" />
    <glyph glyph-name="breve" unicode="&#x2d8;" 
d="M342 1151q-212 0 -182 319h33q12 -110 50 -162t113 -53q137 0 224 215h32q-27 -145 -96 -232q-68 -87 -174 -87z" />
    <glyph glyph-name="dotaccent" unicode="&#x2d9;" 
d="M463 1321q0 39 29 69q30 30 70 30t69 -30t29 -69t-30 -69q-28 -30 -69 -30t-69 30t-29 69z" />
    <glyph glyph-name="ring" unicode="&#x2da;" horiz-adv-x="456" 
d="M227 1344q0 -62 41 -105q42 -43 100 -43t100 43t42 104t-42 105t-100 43q-58 0 -100 -42q-41 -43 -41 -105zM164 1342q0 88 58 144t146 56t145 -55q58 -55 58 -143t-58 -144q-58 -57 -145 -57t-146 56q-58 56 -58 143z" />
    <glyph glyph-name="ogonek" unicode="&#x2db;" horiz-adv-x="768" 
d="M311 -319q0 -47 27 -69q26 -22 66 -22t76 24t89 87l31 -16q-127 -195 -276 -195q-66 0 -106 42t-40 100q0 102 139 223q54 45 181 145h47q-147 -139 -191 -206t-43 -113z" />
    <glyph glyph-name="tilde" unicode="&#x2dc;" 
d="M94 1204l-26 10l10 29q82 231 280 143l115 -51q66 -39 112 -25t93 109l29 -10l-13 -39q-82 -246 -278 -156l-111 54q-84 40 -125 30t-86 -94z" />
    <glyph glyph-name="hungarumlaut" unicode="&#x2dd;" 
d="M670 1540v-18l-256 -408h-49l176 426h129zM383 1540v-18l-256 -408h-49l174 426h131z" />
    <glyph glyph-name="Wgrave" unicode="&#x1e80;" horiz-adv-x="1683" 
d="M733 1772h158l129 -281h-49l-238 266v15zM1049 -12l-129 989l-517 -989h-69l-125 1304l-115 33l6 35h457l-6 -35l-176 -37l92 -1061l438 850l-26 215l-142 33l6 35h482l-6 -35l-179 -37l131 -1077l492 1077l-164 37l6 35h383l-8 -35l-127 -39l-631 -1298h-73z" />
    <glyph glyph-name="wgrave" unicode="&#x1e81;" horiz-adv-x="1261" 
d="M565 1540h140l57 -426h-45l-152 404v22zM1159 746q0 64 -33 96q-60 56 -192 10v22q109 102 201 103q59 0 97 -38q38 -39 38 -115t-66 -190t-276 -390l-209 -273h-17l-53 23l6 498h-6q-35 -52 -133 -182t-158 -216l-84 -123h-18l-57 23l-2 854q-39 14 -85 14t-79 -10v22
q113 102 209 103q59 0 85 -37t23 -129l-8 -661h6q227 313 303 432l-4 258q-46 46 -164 12v22q111 102 209 103q51 0 74 -39t25 -131l6 -655h6q356 452 356 594z" />
    <glyph glyph-name="Wacute" unicode="&#x1e82;" horiz-adv-x="1683" 
d="M1298 1772v-15l-280 -266h-49l172 281h157zM1049 -12l-129 989l-517 -989h-69l-125 1304l-115 33l6 35h457l-6 -35l-176 -37l92 -1061l438 850l-26 215l-142 33l6 35h482l-6 -35l-179 -37l131 -1077l492 1077l-164 37l6 35h383l-8 -35l-127 -39l-631 -1298h-73z" />
    <glyph glyph-name="wacute" unicode="&#x1e83;" horiz-adv-x="1261" 
d="M1044 1540v-20l-278 -406h-49l188 426h139zM1159 746q0 64 -33 96q-60 56 -192 10v22q109 102 201 103q59 0 97 -38q38 -39 38 -115t-66 -190t-276 -390l-209 -273h-17l-53 23l6 498h-6q-35 -52 -133 -182t-158 -216l-84 -123h-18l-57 23l-2 854q-39 14 -85 14t-79 -10
v22q113 102 209 103q59 0 85 -37t23 -129l-8 -661h6q227 313 303 432l-4 258q-46 46 -164 12v22q111 102 209 103q51 0 74 -39t25 -131l6 -655h6q356 452 356 594z" />
    <glyph glyph-name="Wdieresis" unicode="&#x1e84;" horiz-adv-x="1683" 
d="M1223 1556q-39 0 -66 27t-27 66t27 67t66 27q39 0 67 -28q28 -29 27 -67q1 -38 -27 -65t-67 -27zM814 1556q-40 0 -66 27t-25 66q0 39 26 67q27 28 65 27q38 0 67 -28q29 -29 29 -67t-28 -65t-68 -27zM1049 -12l-129 989l-517 -989h-69l-125 1304l-115 33l6 35h457
l-6 -35l-176 -37l92 -1061l438 850l-26 215l-142 33l6 35h482l-6 -35l-179 -37l131 -1077l492 1077l-164 37l6 35h383l-8 -35l-127 -39l-631 -1298h-73z" />
    <glyph glyph-name="wdieresis" unicode="&#x1e85;" horiz-adv-x="1261" 
d="M926 1229q-39 1 -66 27t-26 65q0 39 26 67q27 28 66 28q38 0 66 -28t28 -67t-28 -65t-66 -27zM713 1321q0 -39 -28 -65t-68 -27q-39 1 -65 27t-26 65t26 67t64 28t68 -28q29 -28 29 -67zM1159 746q0 64 -33 96q-60 56 -192 10v22q109 102 201 103q59 0 97 -38
q38 -39 38 -115t-66 -190t-276 -390l-209 -273h-17l-53 23l6 498h-6q-35 -52 -133 -182t-158 -216l-84 -123h-18l-57 23l-2 854q-39 14 -85 14t-79 -10v22q113 102 209 103q59 0 85 -37t23 -129l-8 -661h6q227 313 303 432l-4 258q-46 46 -164 12v22q111 102 209 103
q51 0 74 -39t25 -131l6 -655h6q356 452 356 594z" />
    <glyph glyph-name="Ygrave" unicode="&#x1ef2;" horiz-adv-x="1212" 
d="M594 1772h158l129 -281h-50l-237 266v15zM1231 1286l-506 -680l-107 -534l158 -35l-6 -37h-502l8 37l175 35l104 522l-272 698l-115 33l6 35h465l-6 -35l-176 -37l231 -626h6l451 626l-164 37l6 35h379l-8 -35z" />
    <glyph glyph-name="ygrave" unicode="&#x1ef3;" horiz-adv-x="890" 
d="M369 1540h139l57 -426h-45l-151 404v22zM473 508q0 -303 -92 -576h10q164 186 262 386t99 378q0 135 -88 252q49 31 106 31q96 0 94 -154q-2 -155 -64 -325t-160 -316q-202 -304 -454 -510q-253 -206 -374 -206q-45 0 -74 26t-29 70t27 72t67 28q90 0 113 -110h4
q294 114 380 647q22 135 22 268t-20 222q-34 159 -103 159q-47 0 -76 -50t-62 -175h-36q16 154 83 254q66 100 158 98t150 -128t57 -341z" />
    <glyph glyph-name="uni2009" unicode="&#x2009;" horiz-adv-x="81" 
 />
    <glyph glyph-name="endash" unicode="&#x2013;" horiz-adv-x="958" 
d="M80 508l14 70h787l-15 -70h-786z" />
    <glyph glyph-name="emdash" unicode="&#x2014;" horiz-adv-x="1777" 
d="M80 508l14 70h1606l-14 -70h-1606z" />
    <glyph glyph-name="quoteleft" unicode="&#x2018;" horiz-adv-x="436" 
d="M365 1245q0 -94 108 -133q-2 -47 -28 -74q-25 -26 -73 -26t-88 45t-40 133t82 171t215 122l12 -31q-188 -88 -188 -207z" />
    <glyph glyph-name="quoteright" unicode="&#x2019;" horiz-adv-x="436" 
d="M366 1483q48 0 88 -45t40 -133t-82 -171t-215 -122l-13 30q188 88 189 207q0 94 -109 133q2 47 28 74t74 27z" />
    <glyph glyph-name="quotesinglbase" unicode="&#x201a;" horiz-adv-x="442" 
d="M137 41q0 94 -108 133q4 102 101 100q48 0 88 -45t40 -133t-82 -171t-215 -122l-12 31q188 88 188 207z" />
    <glyph glyph-name="quotedblleft" unicode="&#x201c;" horiz-adv-x="774" 
d="M582 1190q0 88 82 171t215 122l12 -31q-188 -88 -189 -207q0 -94 109 -133q-2 -47 -28 -74q-25 -26 -73 -26t-88 45t-40 133zM365 1245q0 -94 108 -133q-2 -47 -28 -74q-25 -26 -73 -26t-88 45t-40 133t82 171t215 122l12 -31q-188 -88 -188 -207z" />
    <glyph glyph-name="quotedblright" unicode="&#x201d;" horiz-adv-x="774" 
d="M704 1483q48 0 88 -45t40 -133t-82 -171t-215 -122l-13 30q188 88 189 207q0 94 -109 133q2 47 28 74t74 27zM366 1483q48 0 88 -45t40 -133t-82 -171t-215 -122l-13 30q188 88 189 207q0 94 -109 133q2 47 28 74t74 27z" />
    <glyph glyph-name="quotedblbase" unicode="&#x201e;" horiz-adv-x="780" 
d="M475 41q0 94 -108 133q4 102 101 100q48 0 88 -45t40 -133t-82 -171t-215 -122l-12 31q188 88 188 207zM137 41q0 94 -108 133q4 102 101 100q48 0 88 -45t40 -133t-82 -171t-215 -122l-12 31q188 88 188 207z" />
    <glyph glyph-name="dagger" unicode="&#x2020;" horiz-adv-x="612" 
d="M209 1214l14 89l203 -21l27 217h94l-66 -217l211 21l-16 -89l-205 19l-86 -531h-98l129 531z" />
    <glyph glyph-name="daggerdbl" unicode="&#x2021;" horiz-adv-x="610" 
d="M207 1214l16 89l199 -21l29 217h94l-62 -217l207 21l-16 -89l-201 19l-49 -242l209 23l-19 -90l-196 20l-31 -231h-96l61 231l-205 -20l19 90l199 -23l49 240z" />
    <glyph glyph-name="bullet" unicode="&#x2022;" horiz-adv-x="643" 
d="M334 414q-59 0 -100 41q-40 41 -39 98q0 57 39 98q40 41 100 41t99 -41q40 -41 40 -98t-40 -98t-99 -41z" />
    <glyph glyph-name="ellipsis" unicode="&#x2026;" horiz-adv-x="1259" 
d="M971 -27q-51 0 -86 35t-35 86t35 86t86 35t86 -35t35 -86t-35 -86t-86 -35zM543 -27q-51 0 -86 35t-35 86t35 86t86 35t86 -35t35 -86t-35 -86t-86 -35zM115 -27q-51 0 -86 35t-35 86t35 86t86 35t86 -35t35 -86t-35 -86t-86 -35z" />
    <glyph glyph-name="perthousand" unicode="&#x2030;" horiz-adv-x="2209" 
d="M1737 -31q-111 0 -183 80t-71 193q-1 158 113 270t259 113q111 0 182 -81t70 -194q1 -152 -113 -266t-257 -115zM1845 580q-91 0 -159 -100t-68 -255q0 -211 131 -211q86 0 155 94t68 257q0 99 -33 157t-94 58zM1030 -31q-110 0 -182 80t-72 193q0 158 114 270t259 113
q111 0 181 -81t71 -194q0 -152 -114 -266t-257 -115zM1139 580q-92 0 -160 -100t-68 -255q0 -211 131 -211q86 0 155 94t69 257q0 99 -33 157t-94 58zM350 580q-110 0 -182 80t-72 192q0 158 114 270t259 113q111 0 181 -81t71 -193q0 -153 -114 -267t-257 -114zM1405 1290
l-1243 -1392h-84l1243 1392h84zM459 1190q-92 0 -160 -100t-68 -254q0 -211 131 -211q86 0 155 94t69 256q0 99 -33 157t-94 58z" />
    <glyph glyph-name="uni2032" unicode="&#x2032;" horiz-adv-x="376" 
d="M438 1526v-15l-278 -446h-45l164 461h159z" />
    <glyph glyph-name="uni2033" unicode="&#x2033;" horiz-adv-x="704" 
d="M766 1526v-15l-279 -446h-45l164 461h160zM438 1526v-15l-278 -446h-45l164 461h159z" />
    <glyph glyph-name="guilsinglleft" unicode="&#x2039;" horiz-adv-x="522" 
d="M438 776l27 -33l-322 -331l217 -316l-34 -28l-318 335v19z" />
    <glyph glyph-name="guilsinglright" unicode="&#x203a;" horiz-adv-x="522" 
d="M31 68l-27 32l322 332l-217 316l34 28l318 -336v-18z" />
    <glyph glyph-name="fraction" unicode="&#x2044;" horiz-adv-x="464" 
d="M-319 -164l-41 37l1230 1604l43 -35z" />
    <glyph glyph-name="Euro" unicode="&#x20ac;" horiz-adv-x="1159" 
d="M922 1237q96 0 166 -51q70 -50 69 -106q0 -56 -74 -103q-115 184 -260 184q-106 0 -210 -115q-103 -116 -167 -288h500l-14 -56h-502q-29 -98 -41 -188h488l-17 -55h-475v-37q0 -184 79 -269t212 -85q162 0 321 172l27 -25q-172 -199 -272 -231q-76 -25 -150 -25
q-178 0 -277 122t-100 298q0 53 2 80h-180l16 55h173q16 100 49 188h-168l16 56h176q99 213 279 346t334 133z" />
    <glyph glyph-name="trademark" unicode="&#x2122;" horiz-adv-x="1390" 
d="M233 1360h484l-29 -178h-22l-15 143h-127l-98 -473l78 -16l-6 -27h-275l6 27l86 16l99 473h-127l-76 -143h-23zM664 809l6 27l73 14l97 469l-66 16l4 25h215l60 -365h6l215 365h209l-4 -25l-74 -16l-96 -469l69 -14l-6 -27h-260l6 29l82 14l94 459h-6l-248 -412l-32 -68
h-31l-8 60l-82 420h-6l-95 -459l91 -18l-7 -25h-206z" />
    <glyph glyph-name="onethird" unicode="&#x2153;" horiz-adv-x="1439" 
d="M477 1378l-153 -712l122 -25l-4 -29h-383l4 29l140 25l131 604l-156 -8l6 32l287 84h6zM96 -164l-41 37l1231 1604l43 -35zM817 87q0 50 70 85q59 -143 180 -143q70 0 120 48t48 113q0 158 -260 168l6 33q156 43 210 91t52 100q-4 102 -103 102t-192 -115l-28 21
q98 176 268 176q82 0 129 -40t48 -108t-58 -117q-59 -50 -168 -89v-6q94 -4 156 -46t63 -116q0 -117 -112 -190t-255 -72q-76 0 -125 28t-49 77z" />
    <glyph glyph-name="twothirds" unicode="&#x2154;" horiz-adv-x="1562" 
d="M219 -164l-41 37l1231 1604l43 -35zM441 1378q93 0 149 -56t57 -134q0 -78 -56 -144t-212 -190l-186 -145h403l-23 -97h-520l4 31l170 152q15 12 53 44t52 44t45 40t43 41q12 14 35 38t31 41q10 17 26 48t16 85t-36 85q-37 29 -83 29q-82 -1 -144 -56q-19 -17 -60 -58
l-27 14q46 88 108 138t155 50zM940 87q0 50 70 85q59 -143 180 -143q70 0 120 48t48 113q0 158 -260 168l6 33q156 43 210 91t52 100q-4 102 -103 102t-192 -115l-29 21q98 176 269 176q82 0 129 -40t48 -108t-58 -117q-59 -50 -168 -89v-6q94 -4 156 -46t63 -116
q0 -117 -112 -190t-255 -72q-76 0 -125 28t-49 77z" />
    <glyph glyph-name="oneeighth" unicode="&#x215b;" horiz-adv-x="1441" 
d="M1178 731q-52 1 -94 -33t-42 -103t76 -134l47 -41q135 63 135 188q0 59 -35 91q-36 32 -87 32zM926 158q0 -54 38 -98t103 -44t105 34t40 102t-110 159l-43 35q-133 -72 -133 -188zM477 1378l-153 -712l122 -25l-4 -29h-383l4 29l140 25l131 604l-156 -8l6 32l287 84h6z
M96 -164l-41 37l1231 1604l43 -35zM807 160q0 82 62 129t165 80l-4 4q-104 90 -104 178t79 151q79 64 182 64t165 -45t61 -111q0 -129 -223 -213l24 -20q119 -100 119 -183t-86 -149q-87 -65 -197 -65t-177 49q-66 49 -66 131z" />
    <glyph glyph-name="threeeighths" unicode="&#x215c;" horiz-adv-x="1519" 
d="M1256 731q-50 1 -94 -33q-42 -34 -42 -103t76 -134l47 -41q135 63 135 188q0 59 -36 91t-86 32zM1004 158q0 -53 37 -98q37 -44 103 -44t106 34t40 102t-110 159l-43 35q-133 -72 -133 -188zM174 -164l-41 37l1231 1604l43 -35zM606 856q0 -118 -112 -190t-254 -72
q-76 0 -125 28t-49 78t69 84q59 -143 180 -143q70 0 120 48t48 114q0 158 -260 168l6 33q156 43 210 91q55 48 53 99t-30 77t-75 25q-98 0 -190 -114l-29 20q98 176 268 176q82 0 129 -40t48 -108t-58 -117q-59 -50 -168 -89v-6q95 -4 157 -46t62 -116zM885 160q0 82 62 129
t165 80l-4 4q-104 90 -104 178t78 151q78 64 182 64t166 -45t61 -111q0 -129 -223 -213l24 -20q119 -100 119 -183t-86 -149q-87 -65 -197 -65t-177 49q-66 49 -66 131z" />
    <glyph glyph-name="fiveeighths" unicode="&#x215d;" horiz-adv-x="1533" 
d="M1270 731q-51 1 -93 -33t-42 -103t75 -134l47 -41q135 63 136 188q0 59 -36 91t-87 32zM1018 158q0 -54 38 -98t103 -44t106 34q40 34 40 102t-111 159l-43 35q-133 -72 -133 -188zM188 -164l-41 37l1231 1604l43 -35zM404 1073q92 0 161 -51q68 -52 70 -158t-110 -187
t-255 -81q-68 0 -124 26t-59 78t65 82q38 -72 82 -104t111 -31q67 0 120 48t50 122t-47 118t-126 44t-166 -57l-14 6l114 432h402l-25 -109h-358l-57 -221q74 43 166 43zM899 160q1 82 63 129t164 80l-4 4q-104 90 -104 178t79 151q79 64 182 64t165 -45t61 -111
q0 -129 -223 -213l25 -20q222 -186 32 -332q-87 -65 -197 -65t-176 49t-67 131z" />
    <glyph glyph-name="seveneighths" unicode="&#x215e;" horiz-adv-x="1359" 
d="M1096 731q-51 1 -93 -33t-42 -103t75 -134l47 -41q135 63 136 188q0 59 -36 91t-87 32zM844 158q0 -54 38 -98t103 -44t106 34q40 34 40 102t-111 159l-43 35q-133 -72 -133 -188zM211 612h-90l454 637h-403l25 111h495l-2 -8zM14 -164l-41 37l1231 1604l43 -35zM725 160
q0 82 62 129t165 80l-4 4q-104 90 -104 178t79 151q79 64 182 64t165 -45t61 -111q0 -129 -223 -213l25 -20q222 -186 32 -332q-87 -65 -197 -65t-176 49t-67 131z" />
    <glyph glyph-name="minus" unicode="&#x2212;" horiz-adv-x="1187" 
d="M1079 442h-970v72h970v-72z" />
    <glyph glyph-name="approxequal" unicode="&#x2248;" horiz-adv-x="1187" 
d="M369 446q78 0 200 -38l101 -31q119 -35 182 -35q104 0 176 127l59 -31q-98 -172 -249 -172q-76 0 -201 37l-102 31q-119 37 -181 37q-98 0 -176 -129l-61 28q96 176 252 176zM852 647q104 0 176 127l59 -31q-98 -172 -249 -172q-76 0 -201 37l-102 31q-119 37 -181 37
q-98 0 -176 -129l-61 28q96 176 252 177q78 0 200 -39l101 -31q119 -35 182 -35z" />
    <glyph glyph-name="notequal" unicode="&#x2260;" horiz-adv-x="1187" 
d="M109 295v72h380l138 217h-518v71h563l159 250h74l-160 -250h334v-71h-379l-139 -217h518v-72h-563l-160 -252h-73l159 252h-333z" />
    <glyph glyph-name="lessequal" unicode="&#x2264;" horiz-adv-x="1183" 
d="M1077 956l-848 -317l848 -317v-72l-968 358v66l968 358v-76zM1077 0h-966v72h966v-72z" />
    <glyph glyph-name="greaterequal" unicode="&#x2265;" horiz-adv-x="1183" 
d="M111 326l847 317l-847 318v71l968 -358v-66l-968 -358v76zM1077 0h-966v72h966v-72z" />
    <glyph glyph-name="uni24C5" unicode="&#x24c5;" horiz-adv-x="1642" 
d="M1096 838q0 102 -75 145t-183 39l-131 -678l153 -27l-6 -32h-399l6 32l123 27l125 653l-113 31l6 29h328q135 -5 220 -61t85 -150t-71 -158q-136 -121 -369 -98l6 33q125 0 210 56q85 57 85 159zM816 4q270 0 470 194q199 194 207 467t-177 467q-186 194 -456 194
t-468 -194t-206 -468t176 -467t454 -193zM817 -39q-293 0 -493 205t-190 499q9 293 221 499t506 206t494 -206q199 -206 191 -500t-222 -498q-214 -205 -507 -205z" />
    <glyph glyph-name="space_uni0326" 
d="M412 -334q0 76 -105 74v8q16 111 125 111q53 0 84 -33t31 -84q0 -198 -334 -270l-6 30q205 70 205 164z" />
    <glyph glyph-name="caron.alt" 
d="M354 1090h-30l110 411h158l-2 -12z" />
    <glyph glyph-name="space_uni0326.alt" 
d="M416 1401q0 -76 104 -74v-8q-16 -111 -125 -111q-53 0 -84 33t-30 84q-1 198 333 270l7 -30q-205 -70 -205 -164z" />
    <glyph glyph-name="grave.uc" 
d="M197 1772h157l129 -281h-49l-237 266v15z" />
    <glyph glyph-name="dieresis.uc" 
d="M756 1556q-39 0 -66 27t-26 66q0 39 26 67t66 27q38 0 66 -28q28 -29 28 -67t-28 -65t-66 -27zM347 1556q-39 0 -65 27t-26 66t26 67t64 27q38 0 68 -28q28 -29 28 -67t-28 -65t-67 -27z" />
    <glyph glyph-name="macron.uc" 
d="M143 1556l21 99h573l-22 -99h-572z" />
    <glyph glyph-name="acute.uc" 
d="M762 1772v-15l-281 -266h-49l172 281h158z" />
    <glyph glyph-name="circumflex.uc" 
d="M350 1491h-69l286 260h105l184 -260h-59l-197 170z" />
    <glyph glyph-name="caron.uc" 
d="M786 1751h70l-287 -260h-104l-184 260h59l197 -170z" />
    <glyph glyph-name="breve.uc" 
d="M509 1495q-110 1 -166 63t-62 199h34q35 -86 82 -124t129 -38q145 0 238 162h33q-25 -121 -101 -191t-187 -71z" />
    <glyph glyph-name="dotaccent.uc" 
d="M444 1651q0 41 30 69t69 29q39 0 69 -29q30 -30 29 -70q0 -40 -30 -69q-31 -29 -69 -29t-68 29t-30 70z" />
    <glyph glyph-name="ring.uc" 
d="M694 1710q0 60 -42 104t-100 44t-99 -42t-41 -105q0 -62 41 -105t99 -43t100 43t42 104zM348 1709q0 87 58 143t146 56q87 0 145 -54q59 -56 59 -143t-58 -144t-146 -57t-146 56t-58 143z" />
    <glyph glyph-name="tilde.uc" 
d="M236 1511l-27 11l10 28q82 231 281 144l114 -52q66 -40 112 -26t93 110l29 -10l-12 -39q-82 -246 -279 -155l-111 53q-84 41 -124 31t-86 -95z" />
    <glyph glyph-name="hungarumlaut.uc" 
d="M549 1772v-17l-236 -264h-55l156 281h135zM870 1772v-17l-235 -264h-57l155 281h137z" />
    <glyph glyph-name="cedilla.uc" horiz-adv-x="481" 
d="M238 -266q0 -195 -344 -258l2 30q209 57 208 177q0 31 -19 55t-31 30l-36 15l39 57q37 55 76 113l39 57h53l-96 -145q51 -18 80 -54t29 -77z" />
    <glyph glyph-name="idotaccent" horiz-adv-x="473" 
d="M276 1321q0 39 30 69t69 30t69 -30t29 -69q0 -39 -30 -69q-31 -30 -69 -30t-68 30t-30 69zM254 852q-66 29 -166 -2v22q113 104 207 105q61 0 87 -44t5 -120l-194 -694h6q45 31 111 99t98 122l28 -16q-80 -134 -177 -240t-151 -106q-105 -1 -69 128z" />
    <glyph glyph-name="dollar.lin" horiz-adv-x="972" 
d="M348 1072q0 -100 41 -158t135 -111l99 532q-117 -11 -196 -87t-79 -176zM735 314q0 106 -45 168t-145 122l-109 -581q127 14 213 99q86 86 86 192zM195 991q0 159 127 267t311 126l41 228h57l-43 -223h12q133 0 304 -74l-74 -340h-31l-14 287q-111 68 -205 73l-105 -561
l95 -49q229 -123 229 -308t-141 -305t-332 -141l-39 -215h-55l39 211h-4q-193 0 -367 94l72 392h30l29 -347q106 -84 250 -86l113 613l-66 37q-129 72 -181 148t-52 173z" />
    <glyph glyph-name="Euro.lin" horiz-adv-x="1130" 
d="M938 1386q96 0 170 -47t74 -109t-88 -114q-115 193 -243 193t-248 -128t-193 -325h563l-17 -59h-569q-33 -100 -45 -215h543l-19 -60h-530v-51q0 -189 89 -289t219 -100t232 79q38 30 109 95l23 -23q-109 -141 -210 -204t-237 -64q-186 0 -290 130q-103 130 -103 339
q0 59 4 88h-152l21 60h137q18 119 58 215h-127l18 59h135q111 233 307 382q197 148 369 148z" />
    <glyph glyph-name="sterling.lin" horiz-adv-x="1159" 
d="M938 1481q62 0 120 -40t58 -104q0 -70 -115 -108q-39 190 -139 190q-61 -1 -106 -65t-86 -238l-115 -493h416l-10 -52h-418l-11 -47q-68 -299 -305 -467q133 -47 267 -118l104 -56q74 -38 92 -48q18 -11 64 -35t60 -29q13 -3 32 -11q19 -7 47 -8q61 0 80 85
q18 85 -10 188q67 3 105 -15t38 -80t-87 -153q-87 -90 -206 -90t-223 48q-43 19 -65 28q-21 9 -69 38t-64 38t-67 43q-52 34 -63 40l-125 80q-88 -43 -151 -43q-94 0 -95 70q0 33 28 55q60 48 251 -8q113 96 170 350l33 145h-226l11 52h227l80 346q31 131 90 234t127 161
q140 117 256 117z" />
    <glyph glyph-name="yen.lin" horiz-adv-x="1069" 
d="M133 555l12 57h324l-227 680l-90 33l6 35h434l-6 -35l-172 -35l192 -649h6l422 647l-164 37l7 35h350l-8 -35l-103 -39l-463 -674h326l-12 -57h-334l-29 -145h336l-12 -58h-334l-55 -280l157 -35l-6 -37h-502l9 37l174 35l55 280h-334l12 58h334l29 145h-334z" />
    <glyph glyph-name="florin.lin" horiz-adv-x="882" 
d="M879 1386q59 0 95 -34t36 -68q0 -61 -62 -119q-113 137 -180 138q-49 0 -86 -29q-37 -28 -83 -138t-87 -309l-41 -196h277l-15 -62h-274l-113 -553q-47 -231 -161 -396t-269 -165q-51 0 -99 31t-48 82t61 106q88 -150 166 -149q53 0 90 83t72 261l141 700h-225l12 62h225
l23 104q57 275 211 463t334 188z" />
    <glyph glyph-name="zero.lin" horiz-adv-x="1224" 
d="M508 12q131 0 251 148t185 361q66 212 66 413q0 403 -224 403q-106 0 -203 -92t-162 -231t-104 -299q-39 -159 -39 -325t50 -272q49 -106 180 -106zM786 1384q190 0 293 -141q105 -141 105 -365t-85 -431q-85 -206 -246 -344t-351 -138t-294 140q-104 141 -104 367
t85 431t246 343t351 138z" />
    <glyph glyph-name="one.lin" horiz-adv-x="727" 
d="M631 1401l-258 -1321l198 -43l-4 -37h-590l7 37l229 43l223 1161l-264 -27l4 39l447 148h8z" />
    <glyph glyph-name="two.lin" horiz-adv-x="960" 
d="M745 1000q0 122 -64 188q-65 66 -161 66t-168 -52q-72 -51 -151 -162l-41 25q84 162 185 243t245 81q144 1 237 -95q92 -96 93 -229q-1 -229 -306 -510l-440 -401h678l-37 -154h-868l2 25l440 415q356 335 356 560z" />
    <glyph glyph-name="three.lin" horiz-adv-x="894" 
d="M811 424q0 -178 -173 -318t-390 -139q-110 0 -184 48t-74 124t102 121q78 -213 268 -213q117 0 203 84t86 209t-97 219t-280 119l13 55q229 119 313 199t84 162t-47 124t-123 42q-156 0 -324 -220l-36 21q156 328 423 328q113 0 189 -68t76 -153t-32 -143
q-64 -115 -345 -243v-6q348 -84 348 -352z" />
    <glyph glyph-name="four.lin" horiz-adv-x="1089" 
d="M170 483h440l121 625zM342 37l190 43l58 297h-572l7 31l874 968l39 -6l-172 -887h266l-18 -106h-269l-57 -297l168 -43l-6 -37h-514z" />
    <glyph glyph-name="five.lin" horiz-adv-x="950" 
d="M508 821q142 0 249 -92q108 -92 107 -250q0 -213 -180 -363t-389 -149q-111 0 -187 47t-77 124q0 77 96 116q88 -209 272 -209q121 0 219 93q98 94 98 240t-80 225q-81 79 -213 79t-239 -86l-22 6l186 758h613l-33 -152h-549l-107 -444q94 57 236 57z" />
    <glyph glyph-name="six.lin" horiz-adv-x="1038" 
d="M557 729q-174 0 -291 -205q-14 -74 -14 -164q0 -350 225 -350q129 0 219 124t90 306q0 133 -62 211q-63 78 -167 78zM956 443q0 -174 -143 -326t-346 -152q-135 0 -255 97q-58 48 -94 134t-36 197q0 186 83 353t224 290q276 241 668 353l12 -39q-276 -117 -485 -299
t-289 -422h6q143 193 322 192q141 0 237 -102t96 -276z" />
    <glyph glyph-name="seven.lin" horiz-adv-x="907" 
d="M205 0h-133l782 1208h-688l33 152h798l-4 -21q-261 -415 -457 -749t-264 -463z" />
    <glyph glyph-name="eight.lin" horiz-adv-x="956" 
d="M375 1083q0 -81 40 -147t132 -156l39 -39q129 99 189 191q61 92 61 188t-60 158q-60 61 -153 61q-94 -1 -171 -69t-77 -187zM182 266q0 -108 65 -184t181 -76t195 73q80 73 79 195q0 82 -40 148t-158 184l-49 47q-143 -102 -208 -190q-65 -89 -65 -197zM27 252
q0 167 170 285q100 71 165 103q64 32 70 36l-61 61q-72 72 -107 134t-35 145q0 135 130 254q131 119 283 119t250 -74t97 -203q0 -129 -134 -238q-91 -72 -245 -157l49 -47q72 -72 104 -108q33 -36 65 -97t32 -121q0 -160 -144 -272t-314 -113q-170 0 -272 82
q-103 82 -103 211z" />
    <glyph glyph-name="nine.lin" horiz-adv-x="1026" 
d="M545 621q170 0 280 202q25 99 25 231t-54 215t-157 83q-139 0 -231 -128t-93 -313q0 -127 64 -209t166 -81zM649 1397q154 0 260 -112q107 -111 107 -307t-88 -371t-232 -302q-295 -259 -678 -344l-12 39q272 98 484 280t303 427h-9q-133 -178 -305 -179q-143 0 -238 104
t-95 282q0 179 146 331q148 152 357 152z" />
    <glyph glyph-name="percent.lin" horiz-adv-x="1540" 
d="M1149 578q-92 0 -160 -100t-67 -255q0 -211 131 -211q87 0 155 94t68 256q0 98 -33 157t-94 59zM1040 -33q-110 0 -182 80t-72 193q0 158 114 270t259 113q111 0 181 -81t71 -194q0 -152 -114 -266t-257 -115zM72 -102l1405 1566h84l-1405 -1566h-84zM569 1341
q-91 0 -159 -100t-68 -254q0 -211 131 -211q86 0 155 94t68 256q0 98 -32 157q-34 58 -95 58zM461 731q-111 0 -183 80t-71 193q0 158 114 270t259 112q112 0 182 -80t69 -194q1 -152 -113 -266t-257 -115z" />
    <glyph glyph-name="perthousand.lin" horiz-adv-x="2246" 
d="M1855 578q-91 0 -159 -100t-68 -255q0 -211 131 -211q86 0 155 94t68 256q0 98 -32 157q-34 59 -95 59zM1747 -33q-111 0 -183 80t-71 193q0 158 114 270t259 113q112 0 182 -81t70 -194q0 -152 -114 -266t-257 -115zM1149 578q-92 0 -160 -100t-67 -255q0 -211 131 -211
q87 0 155 94t68 256q0 98 -33 157t-94 59zM1040 -33q-110 0 -182 80t-72 193q0 158 114 270t259 113q111 0 181 -81t71 -194q0 -152 -114 -266t-257 -115zM72 -102l1405 1566h84l-1405 -1566h-84zM569 1341q-91 0 -159 -100t-68 -254q0 -211 131 -211q86 0 155 94t68 256
q0 98 -32 157q-34 58 -95 58zM461 731q-111 0 -183 80t-71 193q0 158 114 270t259 112q112 0 182 -80t69 -194q1 -152 -113 -266t-257 -115z" />
    <glyph glyph-name="plus.lin" horiz-adv-x="1204" 
d="M1108 586h-444v-443h-82v443h-445v71h445v443h82v-443h444v-71z" />
    <glyph glyph-name="minus.lin" horiz-adv-x="1204" 
d="M1106 586h-971v71h971v-71z" />
    <glyph glyph-name="multiply.lin" horiz-adv-x="1204" 
d="M1008 182l-390 393l-385 -395l-55 53l387 392l-385 393l56 51l387 -389l391 403l53 -53l-391 -401l389 -396z" />
    <glyph glyph-name="divide.lin" horiz-adv-x="1204" 
d="M623 205q-41 1 -69 29t-28 67t28 68t69 29t69 -30q28 -28 27 -67q1 -39 -27 -67t-69 -29zM623 846q-41 0 -69 28t-28 68q0 41 28 69q28 27 69 27t69 -28t27 -68q1 -40 -27 -68t-69 -28zM1108 586h-971v71h971v-71z" />
    <glyph glyph-name="equal.lin" horiz-adv-x="1204" 
d="M1108 438h-971v72h971v-72zM1108 727h-971v72h971v-72z" />
    <glyph glyph-name="less.lin" horiz-adv-x="1204" 
d="M1104 1024l-879 -408l879 -405v-78l-967 449v71l967 447v-76z" />
    <glyph glyph-name="greater.lin" horiz-adv-x="1204" 
d="M139 207l879 407l-879 406v80l967 -449v-71l-967 -447v74z" />
    <glyph glyph-name="plusminus.lin" horiz-adv-x="1202" 
d="M137 0v72h971v-72h-971zM1108 817h-444v-442h-82v442h-445v72h445v442h82v-442h444v-72z" />
    <glyph glyph-name="notequal.lin" horiz-adv-x="1204" 
d="M137 438v72h381l137 217h-518v72h563l160 250h74l-160 -250h334v-72h-379l-139 -217h518v-72h-563l-160 -252h-74l160 252h-334z" />
    <glyph glyph-name="approxequal.lin" horiz-adv-x="1204" 
d="M381 590q78 0 201 -39l100 -31q119 -35 182 -35q104 0 176 127l60 -30q-98 -172 -250 -172q-76 0 -201 36l-102 31q-119 37 -180 37q-99 0 -177 -129l-61 29q96 176 252 176zM381 895q78 0 201 -39l100 -31q119 -35 182 -34q104 0 176 127l60 -31q-98 -172 -250 -172
q-76 0 -201 37l-102 30q-119 37 -180 37q-99 0 -177 -129l-61 29q96 176 252 176z" />
    <glyph glyph-name="lessequal.lin" horiz-adv-x="1204" 
d="M1106 1100l-848 -318l848 -317v-72l-969 359v65l969 359v-76zM1106 0h-967v72h967v-72z" />
    <glyph glyph-name="greaterequal.lin" horiz-adv-x="1204" 
d="M139 469l848 317l-848 318v72l969 -359v-65l-969 -359v76zM1106 0h-967v72h967v-72z" />
    <glyph glyph-name="numbersign.lin" horiz-adv-x="1214" 
d="M557 977l-151 -404h327l152 404h-328zM248 977l14 65h252l119 318h67l-118 -318h327l119 318h68l-119 -318h250l-17 -65h-258l-151 -404h241l-14 -65h-252l-135 -365h-68l136 365h-328l-135 -365h-68l135 365h-247l14 65h258l151 404h-241z" />
    <glyph glyph-name="ordfeminine.lin" horiz-adv-x="892" 
d="M338 698q70 0 196 165t160 282l37 112q-41 70 -111 70t-148 -86t-133 -221q-54 -135 -54 -258q0 -28 15 -46t38 -18zM631 590q-84 0 -53 123l59 221h-8q-87 -136 -146 -207q-118 -143 -233 -143q-49 0 -80 37t-31 96q0 139 85 297t211 264t239 106q80 0 125 -45l32 62h62
l-199 -719l6 -2q45 23 101 77q55 54 92 107l25 -14q-60 -108 -138 -184t-149 -76z" />
    <glyph glyph-name="ordmasculine.lin" horiz-adv-x="798" 
d="M614 1391q113 0 172 -81t60 -192q0 -210 -136 -370t-309 -160q-109 0 -169 84t-60 200q0 207 134 363t308 156zM605 1350q-108 0 -198 -180t-96 -341q0 -201 97 -200q106 0 200 174t97 338q8 209 -100 209z" />
    <glyph glyph-name="zero.num" horiz-adv-x="749" 
d="M399 627q113 0 190 173t77 357q0 82 -32 134t-100 52q-68 -1 -134 -83t-98 -200t-32 -216t32 -157q32 -60 97 -60zM554 1378q108 0 178 -85t69 -227q0 -142 -95 -301q-46 -75 -129 -123t-192 -48t-177 86t-69 229q0 143 97 296q47 75 128 124q82 49 190 49z" />
    <glyph glyph-name="one.num" horiz-adv-x="446" 
d="M477 1378l-153 -712l122 -25l-4 -29h-383l4 29l140 25l131 604l-156 -8l6 32l287 84h6z" />
    <glyph glyph-name="two.num" horiz-adv-x="591" 
d="M528 1180q0 50 -36 81q-37 29 -83 29q-82 -1 -144 -56q-19 -17 -60 -58l-27 14q46 88 108 138t155 50t149 -56t57 -134q0 -78 -56 -144t-212 -190l-186 -145h403l-23 -97h-520l4 31l170 152q20 18 88 76q67 58 89 80t61 66t51 79q12 34 12 84z" />
    <glyph glyph-name="three.num" horiz-adv-x="567" 
d="M606 856q0 -118 -112 -190t-254 -72q-76 0 -125 28t-49 78t69 84q59 -143 180 -143q70 0 119 48t49 114q0 158 -260 168l6 33q156 43 210 91q55 48 53 99t-30 77t-75 25q-98 0 -190 -114l-29 20q98 176 268 176q82 0 129 -40t48 -108t-58 -117q-59 -50 -168 -89v-6
q95 -4 157 -46t62 -116z" />
    <glyph glyph-name="four.num" horiz-adv-x="657" 
d="M188 889h265l71 334zM289 643l114 23l31 143h-350l6 41l520 518l58 -8l-103 -471h152l-15 -80h-153l-31 -143l107 -25l-7 -29h-335z" />
    <glyph glyph-name="five.num" horiz-adv-x="595" 
d="M404 1073q92 0 161 -51q68 -52 70 -158t-110 -187t-255 -81q-68 0 -124 26t-59 78t65 82q38 -72 82 -104t111 -31q67 0 120 48t50 122t-47 118t-126 44t-166 -57l-14 6l114 432h402l-25 -109h-358l-57 -221q74 43 166 43z" />
    <glyph glyph-name="six.num" horiz-adv-x="657" 
d="M563 858q-1 164 -139 164q-70 0 -139 -82q-15 -57 -15 -135t35 -129t101 -51q66 -1 111 69q46 70 46 164zM694 864q0 -108 -82 -189t-208 -81t-192 69t-67 189q0 203 160 349t432 181l4 -30q-338 -86 -436 -340h6q84 68 171 68q88 0 150 -55q62 -53 62 -161z" />
    <glyph glyph-name="seven.num" horiz-adv-x="546" 
d="M211 612h-90l454 637h-403l25 111h495l-2 -8z" />
    <glyph glyph-name="eight.num" horiz-adv-x="612" 
d="M334 1207q0 -69 76 -134l47 -41q135 63 135 189q0 59 -36 91t-87 32t-93 -34t-42 -103zM217 770q0 -53 38 -97t103 -44t106 34q40 33 40 101t-111 160l-43 34q-133 -72 -133 -188zM98 772q0 82 62 129t166 80l-4 4q-104 90 -104 178q0 87 78 151q79 64 182 64
q102 0 164 -45t63 -110q0 -129 -224 -213l25 -21q119 -100 119 -183t-86 -149q-86 -65 -197 -65q-112 0 -178 49t-66 131z" />
    <glyph glyph-name="nine.num" horiz-adv-x="647" 
d="M418 963q76 0 145 77q59 314 -119 314q-66 0 -113 -70q-46 -70 -46 -160q0 -161 133 -161zM368 905q-87 0 -149 52q-61 52 -61 159t84 190t202 83t189 -70q70 -70 69 -191q0 -208 -160 -362t-431 -168l-5 35q156 29 271 117t166 223h-4q-84 -68 -171 -68z" />
    <glyph glyph-name="zero.den" horiz-adv-x="749" 
d="M279 14q113 0 189 173t77 358q0 82 -32 134q-33 52 -101 52t-132 -83t-98 -201q-68 -243 -1 -372q32 -61 98 -61zM432 766q108 0 178 -85t70 -228t-95 -300q-46 -75 -129 -123t-192 -48q-110 0 -178 86t-68 228t97 297q47 75 128 124t189 49z" />
    <glyph glyph-name="one.den" horiz-adv-x="446" 
d="M356 766l-153 -713l123 -24l-4 -29h-383l4 29l139 24l131 604l-156 -8l6 33l287 84h6z" />
    <glyph glyph-name="two.den" horiz-adv-x="591" 
d="M371 648q-37 30 -99 30t-128 -56q-19 -17 -60 -59l-27 15q47 88 109 138t154 50q94 0 150 -56t56 -134t-56 -144t-212 -190l-186 -146h403l-22 -96h-521l5 31l169 151q20 18 88 76t90 81q22 22 72 78t51 129q1 72 -36 102z" />
    <glyph glyph-name="three.den" horiz-adv-x="567" 
d="M485 244q1 -117 -111 -190t-255 -72q-76 0 -125 28t-49 77q0 50 69 85q59 -143 181 -143q69 0 119 48t48 113q0 158 -260 168l7 33q155 43 209 91t52 100q-3 102 -102 102q-100 0 -192 -115l-29 21q98 176 268 176q82 0 129 -40q46 -40 48 -108t-58 -117
q-60 -50 -168 -89v-6q94 -4 156 -46t63 -116z" />
    <glyph glyph-name="four.den" horiz-adv-x="657" 
d="M68 276h264l71 334zM168 31l115 22l30 144h-350l6 41l520 518l58 -8l-103 -472h152l-14 -79h-154l-31 -144l107 -24l-6 -29h-336z" />
    <glyph glyph-name="five.den" horiz-adv-x="595" 
d="M284 461q92 0 160 -51t70 -158q2 -108 -110 -188t-254 -80q-68 0 -124 26t-60 78q-4 53 65 82q37 -72 82 -104t111 -31q66 0 120 48q53 48 50 122t-47 118t-126 44t-166 -58l-14 6l115 433h401l-25 -109h-358l-57 -221q74 43 167 43z" />
    <glyph glyph-name="six.den" horiz-adv-x="657" 
d="M442 246q0 164 -138 164q-70 0 -140 -82q-14 -57 -14 -135t34 -130q34 -51 100 -51t112 70t46 164zM361 467q87 0 149 -54t63 -162t-81 -189q-82 -80 -208 -80t-194 68q-66 68 -65 190q0 203 159 349q160 146 432 181l5 -31q-338 -86 -437 -340h6q84 68 171 68z" />
    <glyph glyph-name="seven.den" horiz-adv-x="546" 
d="M90 0h-90l455 637h-404l25 111h495l-2 -9z" />
    <glyph glyph-name="eight.den" horiz-adv-x="612" 
d="M348 731q-51 1 -93 -33t-42 -103t76 -134l47 -41q135 63 135 188q0 59 -36 91t-87 32zM96 158q0 -54 38 -98t104 -44t105 34q40 34 40 102t-111 159l-43 35q-133 -72 -133 -188zM-23 160q1 82 63 129t165 80l-4 4q-105 90 -105 178t79 151q79 64 183 64t164 -45
q61 -45 62 -111q0 -129 -224 -213l25 -20q119 -100 119 -183t-86 -149q-86 -65 -197 -65t-177 49t-67 131z" />
    <glyph glyph-name="nine.den" horiz-adv-x="647" 
d="M297 350q76 0 145 78q58 313 -120 313q-66 1 -112 -69t-46 -160q0 -162 133 -162zM37 504q0 108 84 190q85 82 203 82t188 -70t70 -190q0 -208 -161 -362t-431 -168l-4 34q156 29 270 117t166 223h-4q-84 -68 -171 -68t-149 53q-61 52 -61 159z" />
    <glyph glyph-name="zero.sub" horiz-adv-x="749" 
d="M448 85q76 173 76 359t-132 185q-70 0 -134 -83t-96 -201t-33 -215q-1 -98 31 -158t98 -60q114 0 190 173zM244 -121q-108 0 -178 86q-68 86 -68 228q0 141 96 297q46 74 128 124t190 50t178 -85t70 -230t-96 -299q-46 -75 -129 -123t-191 -48z" />
    <glyph glyph-name="one.sub" horiz-adv-x="446" 
d="M336 664l-154 -713l123 -25l-4 -28h-383l4 28l139 25l132 604l-156 -8l6 33l287 84h6z" />
    <glyph glyph-name="two.sub" horiz-adv-x="591" 
d="M387 466q0 50 -37 80t-83 30t-85 -20q-39 -18 -58 -36t-61 -59l-26 14q47 88 108 138q61 51 155 51t150 -56t56 -135t-56 -145t-212 -189l-187 -145h404l-23 -96h-520l4 30l170 152q20 18 88 76q176 151 201 225q12 35 12 85z" />
    <glyph glyph-name="three.sub" horiz-adv-x="567" 
d="M98 -121q-76 0 -125 28q-49 27 -49 77t70 86q59 -143 180 -144q70 0 120 48t48 114q0 158 -260 168l6 33q156 43 210 91t52 99q-4 103 -103 103t-192 -115l-28 20q98 176 268 177q82 0 129 -40t48 -108t-58 -118t-168 -89v-6q94 -4 156 -46t63 -116q0 -117 -112 -189
t-255 -73z" />
    <glyph glyph-name="four.sub" horiz-adv-x="657" 
d="M47 174h264l72 334zM147 -72l115 23l31 143h-350l6 41l520 518l57 -8l-102 -471h151l-14 -80h-153l-31 -143l106 -25l-6 -28h-336z" />
    <glyph glyph-name="five.sub" horiz-adv-x="595" 
d="M263 358q93 0 161 -51t70 -157t-110 -188q-112 -81 -255 -81q-68 0 -124 26t-59 79t64 82q37 -72 82 -104t112 -32t120 48t50 123q-3 73 -47 117t-126 44t-166 -57l-15 6l115 432h402l-25 -108h-358l-58 -222q74 43 167 43z" />
    <glyph glyph-name="six.sub" horiz-adv-x="657" 
d="M422 143q0 164 -138 164q-70 0 -141 -82q-14 -57 -14 -135t35 -129q34 -51 100 -51t112 70t46 163zM341 365q87 -1 149 -55t63 -144q0 -125 -82 -206t-208 -81q-127 0 -193 69t-66 189q0 203 160 349t432 182l4 -31q-338 -86 -436 -340h6q84 68 171 68z" />
    <glyph glyph-name="seven.sub" horiz-adv-x="546" 
d="M70 -102h-90l454 637h-403l24 110h496l-2 -8z" />
    <glyph glyph-name="eight.sub" horiz-adv-x="612" 
d="M328 629q-51 1 -93 -33t-42 -103t75 -135l47 -41q135 63 136 189q0 59 -36 91t-87 32zM76 55q0 -53 38 -97t103 -44t106 34q40 34 40 102t-111 159l-43 35q-133 -72 -133 -189zM200 -123q-110 0 -176 49t-67 131q0 82 62 129t165 80l-4 4q-104 90 -104 178t79 152t182 64
t165 -46t61 -110q0 -129 -223 -213l25 -21q119 -100 119 -183t-87 -149t-197 -65z" />
    <glyph glyph-name="nine.sub" horiz-adv-x="647" 
d="M276 248q76 0 146 78q14 76 14 148t-34 118q-34 47 -100 47t-113 -70q-46 -70 -46 -159q0 -162 133 -162zM226 190q-87 0 -148 52q-62 52 -62 160q0 106 84 189t202 83t190 -70q70 -70 69 -190q0 -209 -161 -363t-431 -168l-4 35q156 29 271 117t165 223h-4
q-84 -68 -171 -68z" />
    <glyph glyph-name="plus.sub" horiz-adv-x="608" 
d="M551 217h-260v-240h-60v240h-262v51h262v242h60v-242h260v-51z" />
    <glyph glyph-name="minus.sub" horiz-adv-x="608" 
d="M551 217h-582v51h582v-51z" />
    <glyph glyph-name="zero.sup" horiz-adv-x="749" 
d="M622 968q76 173 76 358t-132 185q-70 0 -134 -83q-64 -82 -96 -200t-33 -216t31 -157q32 -60 98 -60q113 0 190 173zM418 762q-108 0 -178 86q-68 86 -68 228t96 298q46 74 128 123t190 49t178 -85t70 -228t-96 -300q-46 -75 -129 -123t-191 -48z" />
    <glyph glyph-name="one.sup" horiz-adv-x="446" 
d="M510 1546l-154 -712l123 -25l-4 -29h-383l4 29l140 25l131 604l-156 -8l6 32l287 84h6z" />
    <glyph glyph-name="two.sup" horiz-adv-x="591" 
d="M561 1348q0 50 -37 80t-83 30t-85 -19t-58 -37t-60 -59l-27 15q47 88 108 138t155 50t150 -56t56 -134t-56 -144t-212 -190l-187 -145h404l-23 -97h-520l4 31l170 152q20 18 88 76t90 80t60 66q39 44 51 79q12 34 12 84z" />
    <glyph glyph-name="three.sup" horiz-adv-x="567" 
d="M639 1024q0 -118 -112 -190t-255 -72q-76 0 -125 28t-49 78t70 84q59 -143 180 -143q70 0 120 48t48 114q0 158 -260 168l6 32q156 43 210 91t52 100q-4 104 -104 102q-98 0 -191 -114l-28 20q98 176 268 176q82 0 129 -40t48 -108t-58 -117q-59 -50 -168 -89v-6
q94 -4 156 -46t63 -116z" />
    <glyph glyph-name="four.sup" horiz-adv-x="657" 
d="M221 1057h264l72 334zM322 811l114 23l31 143h-350l6 41l520 518l57 -8l-102 -471h152l-15 -80h-153l-31 -143l106 -25l-6 -29h-336z" />
    <glyph glyph-name="five.sup" horiz-adv-x="595" 
d="M437 1241q93 0 161 -51t70 -158q2 -108 -110 -188t-255 -80q-68 0 -124 26t-59 78t64 82q37 -72 82 -104t112 -31q67 0 120 48t50 122t-47 118t-126 44t-166 -57l-14 6l114 432h402l-25 -109h-358l-58 -221q74 43 167 43z" />
    <glyph glyph-name="six.sup" horiz-adv-x="657" 
d="M596 1026q0 164 -138 164q-70 0 -141 -82q-14 -57 -14 -135t35 -129q34 -51 100 -51q66 -1 112 69t46 164zM727 1032q0 -108 -82 -189t-208 -81q-127 0 -193 68t-66 190q0 203 160 349t432 181l4 -30q-338 -86 -436 -340h6q84 68 171 68t149 -55q62 -53 63 -161z" />
    <glyph glyph-name="seven.sup" horiz-adv-x="546" 
d="M244 780h-90l454 637h-403l24 111h496l-2 -8z" />
    <glyph glyph-name="eight.sup" horiz-adv-x="612" 
d="M367 1375q0 -69 75 -134l47 -41q135 63 136 189q0 59 -36 91t-87 32t-93 -34t-42 -103zM250 938q0 -53 38 -97t103 -44t106 33q40 34 40 102t-111 160l-43 34q-133 -72 -133 -188zM131 940q1 82 63 129t164 80l-4 4q-104 90 -104 178q0 87 79 151t182 64t165 -45t61 -110
q0 -129 -223 -213l25 -21q222 -186 32 -332q-87 -65 -197 -65t-176 49t-67 131z" />
    <glyph glyph-name="nine.sup" horiz-adv-x="647" 
d="M451 1130q76 0 145 78q14 76 14 148t-33 119q-34 47 -101 47q-66 0 -112 -70t-47 -160q1 -162 134 -162zM400 1073q-87 0 -148 52q-62 52 -62 159t84 190q84 82 202 82t190 -69q70 -70 69 -191q0 -208 -161 -362t-431 -168l-4 35q156 29 271 117t165 223h-4
q-84 -68 -171 -68z" />
    <glyph glyph-name="plus.sup" horiz-adv-x="608" 
d="M725 1100h-260v-240h-59v240h-263v51h263v242h59v-242h260v-51z" />
    <glyph glyph-name="minus.sup" horiz-adv-x="608" 
d="M725 1100h-582v51h582v-51z" />
    <glyph glyph-name="A.alt" horiz-adv-x="1228" 
d="M862 1237l-407 -619h405l6 617zM-133 0l8 39l113 35l901 1288l63 12l72 10v-1310l133 -37l-6 -37h-489l8 37l186 35l4 471h-457l-305 -465l191 -39l-8 -39h-414z" />
    <glyph glyph-name="M.alt" horiz-adv-x="1738" 
d="M-74 0l8 39l146 37l362 1212l-161 37l6 35h362l166 -1067l612 1067h316l-6 -35l-174 -37l-78 -1216l127 -35l-6 -37h-471l8 37l176 35l78 1120l-647 -1137h-56l-10 92l-186 1102l-328 -1173l158 -37l-6 -39h-396z" />
    <glyph glyph-name="V.alt" horiz-adv-x="1128" 
d="M250 -12l-2 1304l-94 33l6 35h436l-6 -35l-176 -37l-15 -1061h4l762 1061l-164 37l7 35h340l-9 -35l-77 -33l-963 -1304h-49z" />
    <glyph glyph-name="W.alt" horiz-adv-x="1622" 
d="M879 -12l8 1005l-629 -1005h-68l58 1304l-94 33l6 35h434l-6 -35l-176 -37l-60 -1048l535 870l2 182l-148 33l7 35h487l-6 -35l-178 -37l-23 -1052l610 1052l-163 37l6 35h342l-8 -35l-80 -33l-789 -1304h-67z" />
    <glyph glyph-name="h.alt" horiz-adv-x="911" 
d="M764 981q61 0 95 -47t34 -127q0 -178 -80 -375q-79 -198 -193 -324t-210 -126q-33 0 -58 16q-24 16 -24 50t32 69q70 -53 146 -49q66 86 144 286t79 381q0 121 -67 121q-98 0 -246 -201t-226 -473l-49 -172l-123 -35l-28 25l362 1368l-125 84l4 14l312 62l-262 -998h8
q268 451 475 451z" />
    <glyph glyph-name="v.alt" horiz-adv-x="1003" 
d="M498 825h-256q-54 0 -74 -10q-20 -11 -20 -31t18 -40q20 -20 80 -58q-47 -78 -111 -78q-35 0 -59 25t-23 59q0 72 90 164t193 92h274v-14l-110 -195q-160 -283 -162 -426q-6 -92 41 -136t113 -44q147 0 252 162q106 162 106 340t-82 297q45 31 90 31q111 -1 111 -167
t-82 -354t-218 -325t-270 -137q-90 0 -149 60t-58 172t94 269q36 61 74 121t42 66t10 14t10 16l76 119v8z" />
    <glyph glyph-name="w.alt" horiz-adv-x="1351" 
d="M395 115q139 0 281 211q35 336 108 594q29 43 79 43q49 0 59 -43t-11 -84l-182 -517q14 -94 58 -139t126 -45q117 0 205 125q88 124 88 320t-92 352q43 31 90 31q113 0 113 -200t-119 -477q-55 -128 -145 -217t-191 -89q-199 0 -182 278h-6q-195 -279 -387 -278
q-82 0 -131 62t-42 138t64 181q58 105 100 165l214 297v2h-250q-94 0 -95 -43q0 -20 22 -40t77 -56q-45 -78 -111 -78q-35 0 -59 25t-23 59q0 74 92 165t191 91h272l-4 -16l-125 -205q-184 -307 -200 -455q-7 -70 29 -114t87 -43z" />
    <glyph glyph-name="Aacute.alt" horiz-adv-x="1228" 
d="M1272 1772v-15l-281 -266h-49l172 281h158zM862 1237l-407 -619h405l6 617zM-133 0l8 39l113 35l901 1288l63 12l72 10v-1310l133 -37l-6 -37h-489l8 37l186 35l4 471h-457l-305 -465l191 -39l-8 -39h-414z" />
    <glyph glyph-name="Abreve.alt" horiz-adv-x="1228" 
d="M982 1495q-110 1 -166 63t-62 199h34q35 -86 82 -124t129 -38q145 0 238 162h33q-26 -121 -102 -191t-186 -71zM862 1237l-407 -619h405l6 617zM-133 0l8 39l113 35l901 1288l63 12l72 10v-1310l133 -37l-6 -37h-489l8 37l186 35l4 471h-457l-305 -465l191 -39l-8 -39
h-414z" />
    <glyph glyph-name="Acircumflex.alt" horiz-adv-x="1228" 
d="M752 1491h-70l287 260h104l184 -260h-59l-197 170zM862 1237l-407 -619h405l6 617zM-133 0l8 39l113 35l901 1288l63 12l72 10v-1310l133 -37l-6 -37h-489l8 37l186 35l4 471h-457l-305 -465l191 -39l-8 -39h-414z" />
    <glyph glyph-name="Adieresis.alt" horiz-adv-x="1228" 
d="M1196 1556q-39 0 -66 27t-26 66q0 39 26 67t66 27q39 0 67 -28q27 -29 27 -67t-28 -65t-66 -27zM787 1556q-39 0 -65 27t-26 66t26 67t64 27q38 0 68 -28q29 -29 29 -67t-28 -65t-68 -27zM862 1237l-407 -619h405l6 617zM-133 0l8 39l113 35l901 1288l63 12l72 10v-1310
l133 -37l-6 -37h-489l8 37l186 35l4 471h-457l-305 -465l191 -39l-8 -39h-414z" />
    <glyph glyph-name="Agrave.alt" horiz-adv-x="1228" 
d="M707 1772h157l129 -281h-49l-237 266v15zM862 1237l-407 -619h405l6 617zM-133 0l8 39l113 35l901 1288l63 12l72 10v-1310l133 -37l-6 -37h-489l8 37l186 35l4 471h-457l-305 -465l191 -39l-8 -39h-414z" />
    <glyph glyph-name="Amacron.alt" horiz-adv-x="1228" 
d="M694 1556l21 99h573l-22 -99h-572zM862 1237l-407 -619h405l6 617zM-133 0l8 39l113 35l901 1288l63 12l72 10v-1310l133 -37l-6 -37h-489l8 37l186 35l4 471h-457l-305 -465l191 -39l-8 -39h-414z" />
    <glyph glyph-name="Aogonek.alt" horiz-adv-x="1228" 
d="M862 1237l-407 -619h405l6 617zM641 -308q0 -102 90 -102q78 0 168 111l31 -16q-129 -195 -277 -195q-69 0 -107 43t-38 113t67 142q68 71 281 237v2l4 516h-457l-305 -465l191 -39l-8 -39h-414l8 39l113 35l901 1288l63 12l72 10v-1310l133 -37l-8 -37h-258
q-139 -119 -195 -189q-55 -71 -55 -119z" />
    <glyph glyph-name="Aring.alt" horiz-adv-x="1228" 
d="M866 1711q0 -62 41 -105t99 -43t101 43q42 43 42 104q0 60 -42 104t-100 44t-100 -42q-41 -43 -41 -105zM862 1237l-407 -619h405l6 617zM803 1709q0 87 58 143q57 56 145 56t146 -54q58 -56 58 -143t-58 -144t-145 -57t-145 56t-59 143zM-133 0l8 39l113 35l901 1288
l63 12l72 10v-1310l133 -37l-6 -37h-489l8 37l186 35l4 471h-457l-305 -465l191 -39l-8 -39h-414z" />
    <glyph glyph-name="Aringacute.alt" horiz-adv-x="1228" 
d="M1356 2163v-15l-281 -266h-49l172 281h158zM866 1635q0 -62 41 -105t99 -43t101 43q42 43 42 104q0 60 -42 104t-100 44t-100 -42q-41 -43 -41 -105zM862 1237l-407 -619h405l6 617zM803 1633q0 87 58 143q57 56 145 57q88 0 146 -55q58 -54 58 -142t-58 -145t-145 -57
t-146 56q-58 56 -58 143zM-133 0l8 39l113 35l901 1288l63 12l72 10v-1310l133 -37l-6 -37h-489l8 37l186 35l4 471h-457l-305 -465l191 -39l-8 -39h-414z" />
    <glyph glyph-name="Atilde.alt" horiz-adv-x="1228" 
d="M696 1511l-26 11l10 28q82 231 281 144l114 -52q66 -40 112 -26t93 110l29 -10l-13 -39q-82 -246 -278 -155l-111 51q-84 43 -125 33t-86 -95zM862 1237l-407 -619h405l6 617zM-133 0l8 39l113 35l901 1288l63 12l72 10v-1310l133 -37l-6 -37h-489l8 37l186 35l4 471
h-457l-305 -465l191 -39l-8 -39h-414z" />
    <glyph glyph-name="Wacute.alt" horiz-adv-x="1622" 
d="M1313 1772v-15l-281 -266h-49l172 281h158zM879 -12l8 1005l-629 -1005h-68l58 1304l-94 33l6 35h434l-6 -35l-176 -37l-60 -1048l535 870l2 182l-148 33l7 35h487l-6 -35l-178 -37l-23 -1052l610 1052l-163 37l6 35h342l-8 -35l-80 -33l-789 -1304h-67z" />
    <glyph glyph-name="Wcircumflex.alt" horiz-adv-x="1622" 
d="M791 1491h-70l287 260h104l184 -260h-59l-197 170zM879 -12l8 1005l-629 -1005h-68l58 1304l-94 33l6 35h434l-6 -35l-176 -37l-60 -1048l535 870l2 182l-148 33l7 35h487l-6 -35l-178 -37l-23 -1052l610 1052l-163 37l6 35h342l-8 -35l-80 -33l-789 -1304h-67z" />
    <glyph glyph-name="Wdieresis.alt" horiz-adv-x="1622" 
d="M1237 1556q-39 0 -66 27t-26 66t27 67t65 27q39 0 67 -28q28 -29 28 -67t-28 -65t-67 -27zM828 1556q-40 0 -66 27t-25 66q0 39 26 67q27 28 65 27q38 0 67 -28q29 -29 29 -67t-28 -65t-68 -27zM879 -12l8 1005l-629 -1005h-68l58 1304l-94 33l6 35h434l-6 -35l-176 -37
l-60 -1048l535 870l2 182l-148 33l7 35h487l-6 -35l-178 -37l-23 -1052l610 1052l-163 37l6 35h342l-8 -35l-80 -33l-789 -1304h-67z" />
    <glyph glyph-name="Wgrave.alt" horiz-adv-x="1622" 
d="M748 1772h157l129 -281h-49l-237 266v15zM879 -12l8 1005l-629 -1005h-68l58 1304l-94 33l6 35h434l-6 -35l-176 -37l-60 -1048l535 870l2 182l-148 33l7 35h487l-6 -35l-178 -37l-23 -1052l610 1052l-163 37l6 35h342l-8 -35l-80 -33l-789 -1304h-67z" />
    <glyph glyph-name="hbar.alt" horiz-adv-x="911" 
d="M764 981q61 0 95 -47t34 -127q0 -178 -80 -375q-79 -198 -193 -324t-210 -126q-33 0 -58 16q-24 16 -24 50t32 69q70 -53 146 -49q66 86 144 286t79 381q0 121 -67 121q-98 0 -246 -201t-226 -473l-49 -172l-123 -35l-28 25l305 1151h-135l16 55h133l43 162l-125 84l4 14
l312 62l-86 -322h379l-17 -55h-377l-161 -621h8q268 451 475 451z" />
    <glyph glyph-name="hcircumflex.alt" horiz-adv-x="911" 
d="M494 1573h-70l287 260h104l184 -260h-59l-197 170zM764 981q61 0 95 -47t34 -127q0 -178 -80 -375q-79 -198 -193 -324t-210 -126q-33 0 -58 16q-24 16 -24 50t32 69q70 -53 146 -49q66 86 144 286t79 381q0 121 -67 121q-98 0 -246 -201t-226 -473l-49 -172l-123 -35
l-28 25l362 1368l-125 84l4 14l312 62l-262 -998h8q268 451 475 451z" />
    <glyph glyph-name="wacute.alt" horiz-adv-x="1351" 
d="M1204 1540v-20l-278 -406h-49l188 426h139zM395 115q139 0 281 211q35 336 108 594q29 43 79 43q49 0 59 -43t-11 -84l-182 -517q14 -94 58 -139t126 -45q117 0 205 125q88 124 88 320t-92 352q43 31 90 31q113 0 113 -200t-119 -477q-55 -128 -145 -217t-191 -89
q-199 0 -182 278h-6q-195 -279 -387 -278q-82 0 -131 62t-42 138t64 181q58 105 100 165l214 297v2h-250q-94 0 -95 -43q0 -20 22 -40t77 -56q-45 -78 -111 -78q-35 0 -59 25t-23 59q0 74 92 165t191 91h272l-4 -16l-125 -205q-184 -307 -200 -455q-7 -70 29 -114t87 -43z
" />
    <glyph glyph-name="wcircumflex.alt" horiz-adv-x="1351" 
d="M709 1114h-56l283 426h78l98 -426h-47l-119 279zM395 115q139 0 281 211q35 336 108 594q29 43 79 43q49 0 59 -43t-11 -84l-182 -517q14 -94 58 -139t126 -45q117 0 205 125q88 124 88 320t-92 352q43 31 90 31q113 0 113 -200t-119 -477q-55 -128 -145 -217t-191 -89
q-199 0 -182 278h-6q-195 -279 -387 -278q-82 0 -131 62t-42 138t64 181q58 105 100 165l214 297v2h-250q-94 0 -95 -43q0 -20 22 -40t77 -56q-45 -78 -111 -78q-35 0 -59 25t-23 59q0 74 92 165t191 91h272l-4 -16l-125 -205q-184 -307 -200 -455q-7 -70 29 -114t87 -43z
" />
    <glyph glyph-name="wdieresis.alt" horiz-adv-x="1351" 
d="M1083 1229q-39 1 -65 27t-27 65q0 39 27 67q28 28 66 28t66 -28t28 -67t-28 -65t-67 -27zM775 1229q-39 1 -65 27t-26 65t26 67t64 28t68 -28q28 -28 28 -67t-27 -66q-28 -26 -68 -26zM395 115q139 0 281 211q35 336 108 594q29 43 79 43q49 0 59 -43t-11 -84l-182 -517
q14 -94 58 -139t126 -45q117 0 205 125q88 124 88 320t-92 352q43 31 90 31q113 0 113 -200t-119 -477q-55 -128 -145 -217t-191 -89q-199 0 -182 278h-6q-195 -279 -387 -278q-82 0 -131 62t-42 138t64 181q58 105 100 165l214 297v2h-250q-94 0 -95 -43q0 -20 22 -40
t77 -56q-45 -78 -111 -78q-35 0 -59 25t-23 59q0 74 92 165t191 91h272l-4 -16l-125 -205q-184 -307 -200 -455q-7 -70 29 -114t87 -43z" />
    <glyph glyph-name="wgrave.alt" horiz-adv-x="1351" 
d="M723 1540h139l58 -426h-46l-151 404v22zM395 115q139 0 281 211q35 336 108 594q29 43 79 43q49 0 59 -43t-11 -84l-182 -517q14 -94 58 -139t126 -45q117 0 205 125q88 124 88 320t-92 352q43 31 90 31q113 0 113 -200t-119 -477q-55 -128 -145 -217t-191 -89
q-199 0 -182 278h-6q-195 -279 -387 -278q-82 0 -131 62t-42 138t64 181q58 105 100 165l214 297v2h-250q-94 0 -95 -43q0 -20 22 -40t77 -56q-45 -78 -111 -78q-35 0 -59 25t-23 59q0 74 92 165t191 91h272l-4 -16l-125 -205q-184 -307 -200 -455q-7 -70 29 -114t87 -43z
" />
    <glyph glyph-name="bullet.alt" horiz-adv-x="647" 
d="M627 1399q0 -82 -133 -189h-11l-11 22q-56 106 -56 151t32 77t77 31q46 -1 74 -29t28 -63zM178 1214q0 46 31 74t73 27q42 0 78 -27t53 -50q17 -24 56 -81h14q76 61 112 81t83 19t77 -31q29 -30 29 -81t-36 -89t-86 -38q-52 0 -91 29t-96 90h-4q-49 -53 -49 -109
t116 -148q116 -91 115 -167q0 -57 -48 -92t-107 -19q-20 -49 -70 -49t-78 24q-29 24 -54 76q-26 53 -30 61q-29 55 -58 62q-9 2 -22 2q-66 0 -82 -82h-16q-10 60 25 106t87 46q89 0 134 -79q46 -79 97 -79q52 0 52 55q0 43 -68 115q-69 72 -69 138t96 139l-2 4
q-92 -29 -150 -29t-85 28t-27 74z" />
    <glyph glyph-name="f.short" horiz-adv-x="557" 
d="M729 1522q41 0 72 -22q72 -51 -21 -165q-77 77 -121 88q-14 2 -28 2q-127 0 -228 -477h269l-19 -78h-264l-139 -692q-74 -365 -194 -544t-269 -179q-53 0 -100 32t-47 79t61 108q98 -147 162 -147q43 0 74 48q60 92 163 622l136 673h-162l14 78h166q68 226 209 400
t266 174z" />
    <glyph glyph-name="f_f.short" horiz-adv-x="1036" 
d="M712 1348q-212 0 -309 -400h330q53 174 154 324q-75 76 -175 76zM791 1444q96 0 167 -76q133 154 250 154q41 0 72 -22t31 -62t-51 -103q-77 77 -121 88q-14 2 -29 2q-125 0 -227 -477h268l-18 -78h-265l-131 -645q-73 -354 -189 -528t-255 -174q-51 0 -96 31t-45 66
t6 45q6 11 8 17t10 14q8 9 20 20q11 11 13 14q51 -76 85 -106t68 -30q57 0 100 111q42 111 101 410l152 755h-326l-139 -690q-74 -367 -194 -546t-269 -179q-53 0 -100 32t-47 79t61 108q98 -147 162 -147q33 1 55 23q67 67 182 649l136 671h-162l14 78h170q66 174 228 335
q163 161 305 161z" />
    <glyph glyph-name="f_h.alt" horiz-adv-x="1425" 
d="M725 1423q-98 0 -179 -98t-140 -377h243l-20 -78h-240l-139 -690q-74 -365 -194 -545t-269 -180q-53 0 -100 32t-47 83t61 98q102 -141 162 -141q43 0 74 49q57 90 163 623l136 671h-162l14 78h166q61 213 232 393t321 181q68 0 123 -35l127 41l-262 -998h8
q268 451 475 451q61 0 95 -47t34 -127q0 -178 -80 -375q-79 -198 -193 -324t-210 -126q-33 0 -58 16q-24 16 -24 50t32 69q70 -53 146 -49q66 86 144 286t79 381q0 121 -67 121q-98 0 -246 -201t-225 -473l-50 -172l-123 -35l-28 25l364 1374q-70 49 -143 49z" />
    <glyph glyph-name="f_f_h.alt" horiz-adv-x="1904" 
d="M716 1348q-104 0 -182 -92t-131 -308h328q45 160 166 314q-77 86 -181 86zM1220 1423q-62 0 -99 -17q-157 -70 -236 -458h243l-20 -78h-240l-131 -649q-69 -346 -187 -522t-257 -176q-51 0 -96 31q-45 30 -45 74t57 102q90 -135 153 -136q54 0 96 106t105 417l152 753
h-328l-137 -690q-74 -367 -194 -546t-269 -179q-53 0 -100 32t-47 79t61 108q98 -147 162 -147q43 0 74 49q60 95 163 623l133 671h-159l14 78h170q66 174 228 335q163 161 305 161q111 0 182 -94q168 172 315 172q61 0 121 -35l127 41l-262 -998h8q268 451 475 451
q61 0 95 -47t34 -127q0 -178 -80 -375q-80 -198 -194 -324t-209 -126q-33 0 -57 16t-25 50q0 34 33 69q70 -53 145 -49q66 86 145 286t78 381q0 121 -67 121q-97 0 -245 -201t-226 -473l-49 -172l-123 -35l-29 25l365 1374q-66 49 -128 49z" />
    <glyph glyph-name="i.ger" horiz-adv-x="473" 
d="M268 1290q0 41 30 70t69 29t69 -29t29 -70q0 -42 -30 -70q-31 -28 -69 -28t-68 28t-30 70zM254 852q-66 29 -166 -2v22q113 104 207 105q61 0 87 -44t5 -120l-194 -694h6q45 31 111 99t98 122l28 -16q-80 -134 -177 -240t-151 -106q-105 -1 -69 128z" />
    <glyph glyph-name="j.ger" horiz-adv-x="450" 
d="M268 1290q0 41 30 70t69 29t69 -29t29 -70q0 -42 -30 -70q-31 -28 -69 -28t-68 28t-30 70zM-387 -426q0 45 19 66t32 32l10 13q98 -147 164 -148q101 0 164 260l254 1055q-66 29 -166 -2v22q113 104 207 105q61 0 86 -43t6 -121l-211 -893q-38 -162 -156 -308t-262 -147
q-53 0 -100 32t-47 77z" />
    <glyph glyph-name="adieresis.ger" horiz-adv-x="966" 
d="M854 1198q-39 0 -66 27q-26 27 -26 65t26 67q27 27 66 27t67 -28q27 -28 27 -66q0 -40 -28 -66t-66 -26zM641 1290q1 -40 -27 -66t-68 -26t-66 27t-26 65t26 67q26 27 65 27t67 -28t29 -66zM233 84q90 0 251 225t206 363l49 149q-55 78 -125 78q-145 0 -285 -223
t-155 -477q-7 -115 59 -115zM655 956q82 0 146 -38l69 114h62l-254 -913h6q104 78 209 221l29 -16q-82 -142 -178 -244t-160 -103q-89 0 -54 150l95 305h-9q-191 -295 -263 -358q-109 -101 -211 -101q-60 1 -102 51t-36 148q10 160 84 312q132 270 380 412q105 60 187 60z
" />
    <glyph glyph-name="odieresis.ger" horiz-adv-x="882" 
d="M562 977q284 -1 284 -325q0 -148 -64 -302t-192 -266q-130 -112 -276 -113t-213 95t-67 242t61 294q60 148 188 261q127 114 279 114zM563 936q-98 0 -188 -119t-139 -285t-50 -315q0 -205 117 -205q102 0 196 122q93 122 144 286t51 280t-34 176t-97 60zM786 1198
q-40 0 -66 27t-26 65t27 67q27 27 65 27t67 -28q28 -28 28 -66q0 -40 -28 -66t-67 -26zM478 1198q-40 0 -66 27t-25 65q0 38 26 67q27 27 65 27t67 -28t29 -66q0 -40 -28 -66t-68 -26z" />
    <glyph glyph-name="udieresis.ger" horiz-adv-x="991" 
d="M173 862q-52 0 -89 -12v20q106 106 219 107q59 0 79 -46t3 -114l-178 -672q-4 -23 8 -40t39 -17q98 0 265 238t216 432l49 190l136 13l14 -17l-219 -825h6q113 82 209 221l28 -16q-80 -138 -176 -242t-161 -105q-37 0 -58 30q-20 30 -4 91l105 373h-9
q-114 -212 -192 -313t-146 -143t-134 -42t-105 42t-23 114l195 723q-25 10 -77 10zM778 1198q-40 0 -66 27t-26 65t27 67q27 27 65 27t67 -28q27 -28 27 -66q0 -40 -28 -66t-66 -26zM470 1198q-40 0 -66 27t-26 65t26 67q26 27 65 27t68 -28t29 -66q0 -40 -28 -66t-68 -26z
" />
    <glyph glyph-name="j.short" horiz-adv-x="454" 
d="M276 1321q0 39 30 69t69 30t69 -30t29 -69q0 -39 -30 -69q-31 -30 -69 -30t-68 30t-30 69zM-178 -528l-12 20q90 63 134 138t74 202l238 1020q-66 25 -166 -2v22q113 104 207 105q133 0 88 -195l-203 -872q-40 -174 -124 -278t-236 -160z" />
    <glyph glyph-name="j.gershort" horiz-adv-x="454" 
d="M268 1290q0 41 30 70t69 29t69 -29t29 -70q0 -42 -30 -70q-31 -28 -69 -28t-68 28t-30 70zM-178 -528l-12 20q90 63 134 138t74 202l238 1020q-66 25 -166 -2v22q113 104 207 105q133 0 88 -195l-203 -872q-40 -174 -124 -278t-236 -160z" />
    <glyph glyph-name="y.short" horiz-adv-x="890" 
d="M467 544q0 -337 -98 -638h10q373 473 373 790q0 135 -88 252q49 31 106 31q96 0 94 -150q-8 -379 -375 -860q-387 -502 -532 -501q-43 0 -73 26t-30 70t28 72q26 28 67 28q74 0 112 -92h5q123 113 185 368t62 478t-32 327q-33 105 -81 105t-77 -50t-62 -175h-36
q16 154 83 254q68 100 158 98t146 -127t55 -306z" />
    <glyph glyph-name="yacute.short" horiz-adv-x="890" 
d="M848 1540v-20l-279 -406h-49l189 426h139zM467 544q0 -337 -98 -638h10q373 473 373 790q0 135 -88 252q49 31 106 31q96 0 94 -150q-8 -379 -375 -860q-387 -502 -532 -501q-43 0 -73 26t-30 70t28 72q26 28 67 28q74 0 112 -92h5q123 113 185 368t62 478t-32 327
q-33 105 -81 105t-77 -50t-62 -175h-36q16 154 83 254q68 100 158 98t146 -127t55 -306z" />
    <glyph glyph-name="ycircumflex.short" horiz-adv-x="890" 
d="M377 1114h-55l282 426h78l98 -426h-47l-119 279zM467 544q0 -337 -98 -638h10q373 473 373 790q0 135 -88 252q49 31 106 31q96 0 94 -150q-8 -379 -375 -860q-387 -502 -532 -501q-43 0 -73 26t-30 70t28 72q26 28 67 28q74 0 112 -92h5q123 113 185 368t62 478t-32 327
q-33 105 -81 105t-77 -50t-62 -175h-36q16 154 83 254q68 100 158 98t146 -127t55 -306z" />
    <glyph glyph-name="ydieresis.short" horiz-adv-x="890" 
d="M729 1229q-39 1 -65 27t-27 65q0 39 27 67q28 28 66 28t66 -28t28 -67t-28 -66q-28 -26 -67 -26zM516 1321q0 -39 -28 -65t-67 -27q-40 1 -66 27t-25 65q0 39 25 67q26 28 65 28q40 0 68 -28t28 -67zM467 544q0 -337 -98 -638h10q373 473 373 790q0 135 -88 252
q49 31 106 31q96 0 94 -150q-8 -379 -375 -860q-387 -502 -532 -501q-43 0 -73 26t-30 70t28 72q26 28 67 28q74 0 112 -92h5q123 113 185 368t62 478t-32 327q-33 105 -81 105t-77 -50t-62 -175h-36q16 154 83 254q68 100 158 98t146 -127t55 -306z" />
    <glyph glyph-name="ygrave.short" horiz-adv-x="890" 
d="M369 1540h139l57 -426h-45l-151 404v22zM467 544q0 -337 -98 -638h10q373 473 373 790q0 135 -88 252q49 31 106 31q96 0 94 -150q-8 -379 -375 -860q-387 -502 -532 -501q-43 0 -73 26t-30 70t28 72q26 28 67 28q74 0 112 -92h5q123 113 185 368t62 478t-32 327
q-33 105 -81 105t-77 -50t-62 -175h-36q16 154 83 254q68 100 158 98t146 -127t55 -306z" />
    <glyph glyph-name="uni0237.short" horiz-adv-x="454" 
d="M-178 -528l-12 20q90 63 134 138t74 202l238 1020q-66 25 -166 -2v22q113 104 207 105q133 0 88 -195l-203 -872q-40 -174 -124 -278t-236 -160z" />
    <glyph glyph-name="jcircumflex.short" horiz-adv-x="454" 
d="M160 1114h-56l283 426h78l98 -426h-47l-119 279zM-178 -528l-12 20q90 63 134 138t74 202l238 1020q-66 25 -166 -2v22q113 104 207 105q133 0 88 -195l-203 -872q-40 -174 -124 -278t-236 -160z" />
    <glyph glyph-name="ampersand.uc" horiz-adv-x="1454" 
d="M430 1104q0 -68 29 -125t98 -154q147 88 212 163t65 163t-50 142q-50 55 -140 55t-152 -64t-62 -180zM504 80q156 0 284 123q-122 197 -156 245t-198 271q-135 -76 -190 -152q-56 -75 -56 -187t80 -206t236 -94zM406 -41q-178 -1 -282 105t-104 240t100 242t288 208
q-74 96 -104 159t-30 159t67 174q122 142 325 143q133 1 220 -59t87 -168t-93 -187q-93 -80 -298 -182q106 -147 155 -220l162 -241q70 98 143 233l166 309l-151 39l8 35h389l-8 -35l-170 -43l-242 -419q-49 -86 -104 -164q76 -105 128 -151t122 -46t142 71l27 27
q21 23 25 27l25 -18q-147 -225 -316 -226q-90 0 -144 41t-120 144q-190 -197 -413 -197z" />
    <glyph glyph-name="questiondown.uc" horiz-adv-x="731" 
d="M766 1282q0 -51 -35 -86t-86 -35t-86 35t-35 86t35 86t86 35t86 -35t35 -86zM70 477q0 133 60 202t208 89l180 25l64 204h41l-48 -340l-272 -36q-96 -15 -138 -49t-42 -99q0 -182 342 -297l59 -20l-30 -181l-60 29q-166 80 -265 210t-99 263z" />
    <glyph glyph-name="exclamdown.uc" horiz-adv-x="462" 
d="M395 1403q51 0 86 -35t35 -86t-35 -86t-86 -35t-86 35t-35 86t35 86t86 35zM227 -37h-176l275 1034h41z" />
    <glyph glyph-name="hyphen.uc" horiz-adv-x="718" 
d="M127 600l27 113h516l-25 -113h-518z" />
    <glyph glyph-name="endash.uc" horiz-adv-x="958" 
d="M102 621l15 69h786l-14 -69h-787z" />
    <glyph glyph-name="emdash.uc" horiz-adv-x="1777" 
d="M104 621l15 69h1605l-14 -69h-1606z" />
    <glyph glyph-name="guilsinglleft.uc" horiz-adv-x="522" 
d="M471 889l27 -33l-322 -332l217 -315l-35 -29l-317 336v19z" />
    <glyph glyph-name="guilsinglright.uc" horiz-adv-x="522" 
d="M47 180l-27 33l322 332l-217 315l35 29l317 -336v-18z" />
    <glyph glyph-name="guillemotleft.uc" horiz-adv-x="833" 
d="M780 889l27 -33l-322 -332l217 -315l-34 -29l-318 336v19zM469 889l27 -33l-322 -332l217 -315l-35 -29l-317 336v19z" />
    <glyph glyph-name="guillemotright.uc" horiz-adv-x="833" 
d="M358 180l-26 33l321 332l-217 315l35 29l317 -336v-18zM47 180l-27 33l322 332l-217 315l35 29l317 -336v-18z" />
    <glyph glyph-name="parenleft.uc" horiz-adv-x="647" 
d="M264 383q0 -190 42 -345t128 -325h-47q-238 354 -237 766q0 305 156 573t437 529h60q-291 -303 -415 -591t-124 -607z" />
    <glyph glyph-name="parenright.uc" horiz-adv-x="647" 
d="M510 815q0 -305 -156 -572t-438 -530h-59q291 303 414 591q124 288 124 607q0 190 -42 345t-128 325h47q238 -354 238 -766z" />
    <glyph glyph-name="bracketleft.uc" horiz-adv-x="595" 
d="M406 -289h-338l370 1872h336l-10 -51h-201l-346 -1770h201z" />
    <glyph glyph-name="bracketright.uc" horiz-adv-x="595" 
d="M238 1583h337l-370 -1872h-336l10 51h201l348 1770h-201z" />
    <glyph glyph-name="braceleft.uc" horiz-adv-x="663" 
d="M446 -289q-202 0 -254 88t11 299l104 365q27 90 -15 135t-124 47l-74 2l12 60l72 2q180 2 199 149l51 414q18 150 108 230t279 81h27l-6 -31q-115 0 -170 -53t-91 -229l-63 -320q-49 -243 -233 -274l-3 -8q80 -31 113 -97t6 -206l-63 -340q-33 -175 2 -229t149 -54
l-4 -31h-33z" />
    <glyph glyph-name="braceright.uc" horiz-adv-x="663" 
d="M270 1583q199 0 252 -88t-8 -297l-104 -367q-27 -90 15 -135t124 -47l74 -2l-13 -59l-71 -2q-180 -2 -199 -150l-51 -413q-17 -150 -107 -231t-280 -81h-27l6 31q115 0 170 53t90 230l64 319q49 243 233 274l2 9q-80 31 -112 97t-6 206l63 340q33 176 -2 229t-150 53
l5 31h32z" />
    <glyph glyph-name="slash.uc" horiz-adv-x="819" 
d="M-109 -336l-51 29l1098 1917l51 -27z" />
    <glyph glyph-name="backslash.uc" horiz-adv-x="841" 
d="M715 -326l-58 -12l-413 1933l55 15z" />
    <glyph glyph-name="bar.uc" horiz-adv-x="487" 
d="M98 -328h-67l383 1911h63z" />
    <glyph glyph-name="at.uc" horiz-adv-x="1857" 
d="M686 362q0 -100 66 -100t161 106q96 106 174 239q78 132 109 224l45 138q-61 70 -121 69q-111 0 -213 -112q-101 -112 -161 -268q-60 -157 -60 -296zM679 152q-81 0 -122 50t-41 115q0 147 69 295t168 250t211 167t194 65t163 -54l49 74h55l-215 -713q-61 -205 74 -204
q121 0 258 131q70 66 117 188t47 275q0 254 -174 432t-436 178q-358 0 -598 -243t-240 -615q0 -330 187 -518t495 -189q141 0 301 53v-26q-33 -23 -143 -53t-217 -29q-356 0 -562 195q-205 196 -204 522q0 258 148 483t387 356t501 131q315 0 493 -185t177 -462
q1 -164 -59 -296q-105 -234 -342 -328q-99 -41 -196 -41t-146 74q-48 75 -13 194l35 119h-10l-64 -99q-70 -108 -168 -200t-179 -92z" />
    <glyph glyph-name="Q.cap" horiz-adv-x="1490" 
d="M1284 858q0 209 -104 343t-280 134q-176 -1 -318 -119t-228 -313t-86 -407t104 -350q104 -136 282 -136q176 0 320 124t227 320t83 404zM891 1389q252 0 411 -169t158 -413q0 -317 -217 -566t-522 -274q258 -209 417 -285t390 -75q295 0 573 170l19 -25
q-130 -102 -314 -177t-384 -75t-410 98q-209 98 -537 398q-167 58 -275 206t-108 343q0 338 234 591t565 253z" />
    <glyph glyph-name="Q.short" horiz-adv-x="1490" 
d="M1284 858q0 209 -104 343t-280 134q-176 -1 -318 -119t-228 -313t-86 -407t104 -350q104 -136 282 -136q176 0 320 124t227 320t83 404zM891 1389q252 0 411 -169q158 -168 158 -396t-99 -416t-272 -308t-376 -135q201 -188 275 -238q74 -51 166 -51q91 0 185 68l17 -20
q-72 -66 -134 -99t-132 -33t-143 22q-109 33 -274 193q-165 159 -198 189q-170 58 -276 206t-107 343q0 338 234 591t565 253z" />
    <glyph glyph-name="ampersand.alt1" horiz-adv-x="1615" 
d="M584 1309q-102 -1 -156 -63t-53 -152q0 -90 35 -172h4q115 57 163 57q49 0 71 -18t22 -46q0 -74 -113 -73q-59 0 -151 39q-178 -123 -179 -369q1 -211 137 -345t380 -134q244 -1 398 151t152 359q0 141 -73 226t-173 85t-149 -50t-49 -120t38 -112q38 -40 91 -44h10
l39 152q16 2 43 2t51 -20t25 -66q0 -46 -44 -81q-44 -36 -119 -36t-133 50t-58 163t115 230q116 117 292 116h240q197 0 196 133q0 100 -147 179q51 66 111 66q108 -1 108 -162t-113 -257t-249 -96h-195l-2 -6q213 -104 213 -347t-194 -431q-194 -189 -488 -189t-461 152
q-168 152 -168 356q0 143 84 267t219 198v8q-102 74 -102 176q0 127 135 212t273 85t202 -45q66 -45 66 -106t-78 -96q-39 53 -66 83t-82 60t-118 31z" />
    <glyph glyph-name="ampersand.alt2" horiz-adv-x="2187" 
d="M963 944q-85 0 -179 -118t-143 -287q176 86 344 206q35 61 35 130t-57 69zM1298 934v20q-281 -281 -671 -469q-53 -272 28 -371q49 -60 133 -61q125 0 245 137t193 342q72 205 72 402zM1354 926q0 -156 -49 -328q-110 -385 -337 -563q-124 -96 -247 -96q-123 -1 -196 71
t-73 235t86 341q85 178 217 296t257 117q111 0 118 -139q86 74 162 156q-33 276 -305 276q-131 0 -265 -77q-297 -171 -425 -542q-70 -200 -70 -423q0 -299 132 -456t366 -156q168 0 321 82q152 82 262 212q110 131 194 297q159 310 192 641q-4 14 -29 32t-72 18t-81 -42
t-34 -107t66 -148q-33 -33 -69 -33q-63 0 -63 112t81 216q82 102 217 102q55 0 205 -51l231 -82v94q0 88 70 88q53 1 53 -59t-74 -134t-161 -75q-51 0 -140 30l-135 50l-4 -2q-67 -538 -349 -936q-136 -193 -329 -307t-413 -113q-268 0 -439 176q-170 176 -170 491
q0 246 85 469t219 375t300 242t328 90q295 0 354 -295q161 184 222 356q-63 99 -63 133t22 56q24 22 60 20q36 0 55 -22t20 -55q0 -84 -79 -236t-228 -315q4 -53 4 -82z" />
    <glyph glyph-name="ampersand.alt3" horiz-adv-x="1591" 
d="M709 1130q0 66 -74 66t-163 -91t-150 -243q86 24 164 54t150 88q73 60 73 126zM1546 1006q0 -322 -114 -602t-323 -450q-208 -170 -466 -169q-258 0 -397 160q-140 160 -140 390t95 446q94 217 240 353t286 136q121 0 121 -113q0 -158 -332 -274v-6h303l170 321h70
l-105 -321h271l-13 -52h-268l-194 -546h4q68 27 156 113t149 169l28 -22q-260 -395 -425 -396q-39 0 -58 35q-18 35 -2 80l201 567h-498q-69 -187 -69 -421t120 -369t340 -135q219 0 404 157q184 158 280 395t97 486q0 395 -277 573q6 27 33 51t57 23q92 0 174 -173t82 -406
z" />
    <glyph glyph-name="A.swash" horiz-adv-x="1806" 
d="M1577 1217l-399 -611h284l127 608zM332 -43q-164 0 -263 96q-99 95 -99 243t96 244q98 96 224 97q126 0 188 -54q62 -53 62 -121t-36 -112q-37 -44 -92 -43q-94 0 -123 88l133 123v17q-47 47 -134 47t-167 -73t-80 -198t79 -208t224 -83q102 0 190 40t204 140
q118 100 278 306q160 207 411 573l193 281l141 20h15l-254 -1306l133 -37l-6 -37h-490l8 37l187 35l94 463h-320q-145 -211 -257 -330q-111 -119 -243 -183t-296 -65z" />
    <glyph glyph-name="E.swash" horiz-adv-x="1069" 
d="M526 631q47 0 79 17t32 50q0 60 -92 60t-176 -53q40 -74 157 -74zM342 836q0 -51 8 -86q141 74 271 73q71 1 113 -29t42 -75q0 -65 -70 -99t-161 -34q-139 0 -230 80q-121 -106 -121 -261t90 -241q89 -86 224 -86q295 0 457 344l34 -10q-127 -461 -542 -461
q-166 0 -286 98t-120 264q0 242 225 394q-68 86 -67 213q0 184 152 323q153 139 380 139q162 0 255 -70t94 -179q0 -59 -33 -103t-82 -45q-49 0 -80 41q70 70 70 160q0 137 -166 137q-165 0 -311 -145t-146 -342z" />
    <glyph glyph-name="J.swash" horiz-adv-x="860" 
d="M-109 -281q25 -190 131 -190q99 0 151 69q83 110 144 386l166 704h-217l17 55h213q33 141 76 251q44 110 65 145t80 127l-4 4q-84 -31 -248 -34t-236 -32q-71 -28 -71 -108t139 -148q-2 -34 -27 -56q-24 -22 -64 -22t-78 43t-38 127q0 124 118 222t361 98h238l43 37
q50 43 76 43t38 -14t13 -27q0 -57 -107 -94l-79 -27l-125 -535h176l-17 -55h-174l-151 -647q-66 -285 -184 -419t-318 -134q-86 0 -155 38t-68 101q0 86 116 92z" />
    <glyph glyph-name="K.swash" horiz-adv-x="1593" 
d="M473 1360h561l-6 -35l-176 -37l-240 -1216l160 -35l-6 -37h-504l8 37l174 35l238 1212h-279q-129 0 -197 -53t-69 -127q0 -129 180 -143q1 -53 -31 -83t-85 -30t-97 50q-43 50 -43 146t68 172q128 144 344 144zM1924 -506q-140 0 -240 40t-235 167q-134 127 -301 371
t-403 645v4l689 561l-160 43l6 35h438l-6 -35l-176 -43l-647 -510q403 -666 640 -948t427 -283q160 0 194 203q29 18 58 18t47 -16t18 -45q-2 -71 -105 -139q-104 -68 -244 -68z" />
    <glyph glyph-name="K.midswash" horiz-adv-x="1257" 
d="M-74 0l8 37l175 35l239 1216l-162 37l7 35h505l-6 -35l-176 -37l-240 -1216l160 -35l-6 -37h-504zM1588 -506q-140 0 -240 40t-235 167q-134 127 -301 371t-402 645v4l688 561l-160 43l6 35h438l-6 -35l-176 -43l-647 -510q403 -666 640 -948t427 -283q160 0 195 203
q29 18 57 18t47 -16q18 -16 18 -45q-2 -71 -105 -139q-104 -68 -244 -68z" />
    <glyph glyph-name="M.swash" horiz-adv-x="2535" 
d="M1116 1360h502l-25 -1120h6l603 919q76 113 104 176l14 25h310l-7 -35l-172 -37l-167 -1216l124 -35l-6 -37h-471l8 37l175 35l157 1091l-692 -1057l-76 -106h-76l7 104l20 1156h-18q-242 -588 -346 -781q-176 -330 -381 -444q-150 -84 -354 -84t-297 97q-93 98 -93 232
t72 210t148 77q75 1 109 -31t34 -76t-24 -77t-58 -45l-183 61h-10q-25 -29 -24 -96q0 -121 80 -197t245 -75q236 0 418 169q182 170 312 414t284 627h-276q-150 0 -211 -16t-70 -54q-4 -27 24 -51t93 -45q-29 -119 -99 -119q-41 0 -65 37t-25 82q-1 127 97 206t280 79z" />
    <glyph glyph-name="N.swash" horiz-adv-x="2142" 
d="M643 1260q-201 0 -211 -58q-13 -61 125 -106q-31 -102 -108 -103q-33 0 -58 31t-24 80q0 112 83 184t189 72h459q293 -741 450 -1086q74 1122 510 1123q80 -2 126 -40t46 -84t-26 -75t-73 -29q-46 0 -69 19v160q-166 4 -297 -316t-168 -860q160 -330 294 -493t266 -162
q84 1 132 71t56 197q41 20 80 20q86 1 86 -77q-1 -78 -103 -166t-266 -88q-217 0 -401 194q-152 160 -327 502t-451 1090h-11q-61 -500 -155 -786q-93 -286 -225 -400t-328 -115q-129 0 -215 67t-86 162q0 51 31 82q32 31 87 31t86 -65l-65 -146v-4q49 -76 172 -76
q124 0 232 92q272 231 417 1158h-260z" />
    <glyph glyph-name="Q.swash" horiz-adv-x="1509" 
d="M8 -16q0 -107 196 -107t386 76q-164 73 -255 101t-168 28t-118 -30t-41 -68zM2408 -252q0 -88 -135 -194t-321 -106t-455 103q-262 106 -538 234q-277 127 -314 143q-254 -113 -463 -112q-264 0 -264 129q0 79 114 149t240 70t220 -28q92 -28 262 -103q264 160 432 424
t168 530q0 203 -79 307t-216 105q-179 0 -327 -124t-223 -290t-75 -315q0 -268 195 -269q111 0 195 75t120 171q37 96 37 171q0 140 -107 138q-46 0 -76 -30t-30 -70q0 -80 88 -133q-35 -47 -82 -47q-74 0 -74 99t76 191t154 91q145 0 145 -164q0 -184 -156 -375
q-157 -190 -341 -190q-137 0 -214 84t-77 252q1 168 111 352t295 306t379 122t322 -121q130 -121 130 -346q0 -273 -205 -533t-510 -434q221 -100 297 -133t268 -119q190 -86 266 -116t209 -64q133 -35 241 -35q108 -1 154 61t23 222q141 4 141 -78z" />
    <glyph glyph-name="R.swash" horiz-adv-x="1622" 
d="M862 1317l-121 -615q250 -16 385 80q136 96 136 244t-102 224q-102 75 -298 67zM72 1028q0 136 137 234t403 98h387q197 0 316 -81t119 -214q0 -297 -428 -389v-10q358 -581 542 -799q184 -219 311 -285q79 -41 150 -41q156 0 195 203q28 18 58 18t47 -17t18 -44
q4 -67 -106 -137t-253 -70q-301 0 -520 260q-268 313 -612 895h-105l-113 -577l189 -39l-6 -33h-533l8 37l175 35l243 1239q-258 -5 -403 -67t-146 -154q0 -117 189 -136q4 -110 -116 -110q-60 0 -104 50q-42 50 -42 134z" />
    <glyph glyph-name="R.midswash" horiz-adv-x="1273" 
d="M520 1317l-121 -615q250 -16 385 80q136 96 136 244t-102 224q-102 75 -298 67zM657 1360q197 0 316 -81t119 -214q0 -297 -428 -389v-10q358 -581 542 -799q184 -219 311 -285q79 -41 150 -41q156 0 195 203q28 18 58 18t47 -17t18 -44q4 -67 -106 -137t-253 -70
q-301 0 -520 260q-268 313 -612 895h-105l-113 -577l189 -39l-6 -33h-533l8 37l175 35l239 1216l-162 37l7 35h464z" />
    <glyph glyph-name="T.swash" horiz-adv-x="1390" 
d="M270 743q-62 -1 -110 59q-49 60 -49 161q-1 207 157 329t475 88l590 -69l45 151h21q102 0 102 -53q0 -63 -102 -117t-228 -53q-126 0 -270 18l-233 -1185l180 -35l-6 -37h-545l8 37l195 35l239 1206q-137 18 -215 18q-150 0 -252 -70t-102 -194q0 -96 70 -146t172 -20
l6 -20q-12 -45 -49 -74t-99 -29z" />
    <glyph glyph-name="Y.swash" horiz-adv-x="1325" 
d="M434 1278q-195 0 -289 -348l-32 4q27 211 131 343t245 132q319 0 248 -563h23q152 563 428 563q127 0 189 -103t46 -298l-28 -4q-11 139 -67 216t-154 76q-119 0 -226 -152q-106 -153 -174 -497l-112 -575l180 -35l-6 -37h-545l8 37l195 35l114 577q66 321 15 475
t-189 154z" />
    <glyph glyph-name="AE.swash" horiz-adv-x="2373" 
d="M1597 1307h-20l-320 -553h234zM1653 55h368l209 318h49l-122 -373h-951l8 39l144 33l121 620h-258q-242 -403 -437 -569t-452 -166q-164 0 -263 96q-99 97 -99 243t96 244q98 98 224 97q126 0 188 -55t62 -128t-38 -110q-39 -37 -90 -37q-94 0 -123 88l133 123v17
q-41 47 -132 47t-170 -72t-79 -198t79 -209t209 -83t213 42t187 131q281 238 604 800l162 283l-182 49l6 35h930l123 10l-52 -387h-32l-58 322h-467l-108 -551h301l106 219h35l-96 -490h-35l-22 207h-302l-116 -598q35 -37 127 -37z" />
    <glyph glyph-name="k.swash" horiz-adv-x="872" 
d="M737 770q0 96 -69 96q-117 0 -260 -204t-215 -463l-52 -189l-123 -35l-28 25l362 1368l-125 84l4 14l312 62l-260 -983h10q92 193 211 313t239 119q59 0 99 -38q40 -37 39 -101q0 -64 -32 -124t-115 -129t-126 -99t-122 -79t-95 -59q291 -426 467 -606t287 -180
q129 0 162 202q43 0 71 -22t27 -53q0 -74 -91 -120t-202 -46q-206 0 -404 178t-468 598l69 43q233 144 331 238t97 190z" />
    <glyph glyph-name="v.swash" horiz-adv-x="804" 
d="M338 145l14 -6q356 418 357 600q0 63 -37 97q-73 66 -177 5q-46 -28 -122 -114q0 -337 -35 -582zM104 1237q125 0 192 -119t75 -332q100 119 153 156t127 37t128 -53t55 -140q0 -129 -196 -367q-132 -161 -171 -204l-203 -244h-18l-51 25q37 326 36 602q0 535 -180 535
q-96 0 -184 -162l-27 12q40 125 112 189t152 65z" />
    <glyph glyph-name="w.swash" horiz-adv-x="1247" 
d="M1157 728q0 74 -33 108t-83 34t-96 -41t-134 -153q0 -291 -27 -531l15 -6q358 431 358 589zM373 704q0 -313 -35 -559l14 -4l324 426v60q0 275 -69 331q-32 27 -81 27q-78 0 -161 -102q8 -93 8 -179zM104 1237q203 0 252 -305q117 154 231 154t165 -82q51 -80 57 -259
q146 198 211 222q33 12 72 12q82 0 135 -52t53 -131t-26 -127q-26 -49 -49 -87q-22 -38 -141 -181t-153 -184l-202 -246h-23l-43 25q27 266 31 502l-404 -527h-18l-57 25q37 326 36 602q0 535 -180 535q-94 0 -184 -162l-27 12q36 125 110 189t154 65z" />
    <glyph glyph-name="z.swash" horiz-adv-x="798" 
d="M977 -500q-119 0 -219 83t-244 302l-102 156q-72 109 -106 143t-74 33q-40 0 -62 -26t-23 -50l27 -84q-10 -76 -86 -75q-38 0 -60 24t-22 67q0 42 103 150l489 531l-264 100q-109 39 -139 2q-41 -51 75 -156q-55 -66 -112 -65q-33 -1 -57 23t-23 67q2 86 98 172t191 86
q63 0 141 -29l197 -80l86 109l55 -45l-617 -668v-6q117 -4 197 -51t184 -205l109 -162q131 -194 179 -248t93 -54t77 40q32 41 69 127q67 -20 67 -72q0 -51 -77 -95t-150 -44z" />
    <glyph glyph-name="v.altinitial" horiz-adv-x="1302" 
d="M797 825h-412q-264 0 -264 -147q0 -72 102 -131q-18 -96 -102 -96q-35 -1 -68 35t-33 94q0 124 134 246t338 122h417v-14l-110 -195q-84 -149 -122 -245t-40 -186t43 -132q45 -43 113 -43q147 0 251 162t104 340t-81 297q45 31 90 31q111 -1 111 -167t-82 -354t-217 -325
t-269 -137q-86 0 -148 60t-60 165q0 73 34 157t69 138q34 54 126 198l76 119v8z" />
    <glyph glyph-name="w.altinitial" horiz-adv-x="1656" 
d="M1511 580q0 196 -92 352q43 31 90 31q113 0 113 -200t-119 -477q-55 -128 -145 -217t-191 -89q-199 0 -182 278h-8q-193 -279 -385 -278q-82 0 -131 62t-42 138t67 186t98 164t131 181l82 112v2h-412q-264 0 -264 -147q0 -74 102 -131q-18 -96 -102 -96q-35 -1 -68 35
t-33 94q0 124 132 246t340 122h421l-4 -16l-125 -205q-273 -442 -171 -568q36 -44 87 -44q139 0 281 211q35 336 109 594q29 43 77 43q92 0 50 -127l-183 -517q27 -184 185 -184q117 0 205 125q88 124 87 320z" />
    <glyph glyph-name="e.final" horiz-adv-x="2000" 
d="M549 907q-80 -1 -178 -109t-152 -268q131 23 260 113t135 193q3 71 -65 71zM784 -98q-401 0 -581 98t-187 262q10 160 100 318t234 278t281 119q71 0 107 -35t34 -86q-4 -127 -185 -233t-384 -142q-20 -82 -25 -176q12 -127 178 -208t482 -81q475 0 766 162t290 459
q0 82 -34 157q-35 75 -88 113q49 72 108 72q28 0 50 -17q22 -16 42 -76t20 -154t-31 -194q-32 -99 -118 -216t-216 -208q-129 -92 -349 -152t-494 -60z" />
    <glyph glyph-name="ae.hist" horiz-adv-x="1038" 
d="M829 907q-94 -1 -180 -159t-86 -404q176 172 255 276t79 203q0 41 -20 63q-21 21 -48 21zM430 242q0 152 47 290t119 238l-8 6q-166 -143 -251 -227q-194 -192 -196 -342q0 -43 23 -70t57 -26q78 0 209 131zM657 -23q-186 0 -219 213h-4q-10 -10 -41 -45t-66 -72t-89 -68
q-55 -31 -114 -31q-58 -1 -98 43t-40 118q0 102 140 265q140 164 320 314t282 206q101 56 178 57q77 0 114 -36t37 -93q1 -57 -25 -99q-52 -83 -91 -122t-63 -64t-70 -65t-87 -76q-41 -37 -156 -133q31 -183 161 -183t243 185l30 -15q-125 -299 -342 -299z" />
    <glyph glyph-name="T_h.swash" horiz-adv-x="2013" 
d="M270 743q-62 -1 -110 59q-49 60 -49 161q-1 207 157 329t475 88l488 -55l51 172h2q61 0 87 -13t26 -46q-1 -72 -103 -129t-254 -58q-74 0 -139 6l-233 -1185l180 -35l-6 -37h-545l8 37l195 35l239 1206q-125 18 -215 18q-150 0 -252 -70t-102 -194q0 -96 70 -146t172 -20
l6 -20q-12 -45 -49 -74t-99 -29zM1819 977q71 0 99 -49t7 -125l-190 -684h6q106 80 209 221l28 -16q-82 -138 -179 -242t-159 -105q-37 0 -57 32t-2 95l199 695q14 63 -41 63q-106 0 -260 -204t-234 -488l-45 -160l-123 -35l-28 25l387 1458l166 70l-261 -983h13
q106 184 227 308t238 124z" />
    <glyph glyph-name="T_h.altswash" horiz-adv-x="1970" 
d="M270 743q-62 -1 -110 59q-49 60 -49 161q-1 207 157 329t475 88l488 -55l51 172h2q61 0 87 -13t26 -46q-1 -72 -103 -129t-254 -58q-74 0 -139 6l-233 -1185l180 -35l-6 -37h-545l8 37l195 35l239 1206q-125 18 -215 18q-150 0 -252 -70t-102 -194q0 -96 70 -146t172 -20
l6 -20q-12 -45 -49 -74t-99 -29zM1823 981q61 0 95 -47t34 -127q0 -178 -80 -375q-80 -198 -194 -324t-210 -126q-34 0 -58 16t-24 50t33 69q70 -53 146 -49q67 86 145 286t78 381q0 121 -68 121q-98 0 -245 -201t-226 -473l-49 -172l-123 -35l-28 25l387 1458l166 70
l-263 -998h9q268 451 475 451z" />
    <glyph glyph-name="f_k.swash" horiz-adv-x="1386" 
d="M1251 770q0 96 -69 96q-117 0 -260 -204t-215 -463l-52 -189l-123 -35l-28 25l364 1374q-70 49 -143 49q-98 0 -179 -98t-140 -377h243l-20 -78h-240l-139 -690q-74 -365 -194 -545t-269 -180q-53 0 -100 32t-47 83t61 98q102 -141 162 -141q43 0 74 49q57 90 163 623
l136 671h-162l14 78h166q61 213 232 393t321 181q68 0 123 -35l127 41l-260 -983h10q92 193 211 313t239 119q59 0 99 -38q40 -37 39 -101q0 -64 -32 -124t-115 -129t-126 -99t-122 -79t-95 -59q291 -426 467 -606t287 -180q129 0 162 202q43 0 71 -22t27 -53
q0 -74 -91 -120t-202 -46q-206 0 -404 178t-468 598l69 43q233 144 331 238t97 190z" />
    <glyph glyph-name="f_f_k.swash" horiz-adv-x="1865" 
d="M716 1348q-104 0 -182 -92t-131 -308h328q47 164 164 314q-75 86 -179 86zM1661 866q-117 0 -260 -204t-215 -463l-51 -189l-123 -35l-29 25l365 1374q-66 49 -128 49t-99 -17q-157 -70 -236 -458h243l-20 -78h-240l-131 -649q-69 -344 -187 -521t-257 -177q-51 0 -96 31
q-45 30 -45 74t57 102q90 -135 153 -136q53 0 97 109q43 109 104 412l152 755h-328l-137 -690q-74 -367 -194 -546t-269 -179q-53 0 -100 32t-47 79t61 108q98 -147 162 -147q43 0 74 49q60 95 163 623l133 671h-159l14 78h170q66 174 228 335q163 161 305 161
q106 0 182 -94q168 172 315 172q61 0 121 -35l127 41l-260 -983h10q92 193 211 313t240 119q59 0 98 -38q39 -37 39 -101t-32 -124q-49 -91 -240 -228q-89 -62 -218 -138q291 -426 467 -606t287 -180q129 0 162 202q43 0 71 -22t27 -53q0 -74 -91 -120t-202 -46
q-205 0 -403 178t-469 598l70 43q233 144 330 238t97 190t-69 96z" />
    <glyph glyph-name="Aacute.swash" horiz-adv-x="1806" 
d="M2021 1772v-15l-280 -266h-49l172 281h157zM1577 1217l-399 -611h284l127 608zM332 -43q-164 0 -263 96q-99 95 -99 243t96 244q98 96 224 97q126 0 188 -54q62 -53 62 -121t-36 -112q-37 -44 -92 -43q-94 0 -123 88l133 123v17q-47 47 -134 47t-167 -73t-80 -198
t79 -208t224 -83q102 0 190 40t204 140q118 100 278 306q160 207 411 573l193 281l141 20h15l-254 -1306l133 -37l-6 -37h-490l8 37l187 35l94 463h-320q-145 -211 -257 -330q-111 -119 -243 -183t-296 -65z" />
    <glyph glyph-name="Abreve.swash" horiz-adv-x="1806" 
d="M1730 1495q-110 1 -166 63t-63 199h35q35 -86 82 -124t129 -38q145 0 238 162h32q-25 -121 -101 -191t-186 -71zM1577 1217l-399 -611h284l127 608zM332 -43q-164 0 -263 96q-99 95 -99 243t96 244q98 96 224 97q126 0 188 -54q62 -53 62 -121t-36 -112q-37 -44 -92 -43
q-94 0 -123 88l133 123v17q-47 47 -134 47t-167 -73t-80 -198t79 -208t224 -83q102 0 190 40t204 140q118 100 278 306q160 207 411 573l193 281l141 20h15l-254 -1306l133 -37l-6 -37h-490l8 37l187 35l94 463h-320q-145 -211 -257 -330q-111 -119 -243 -183t-296 -65z" />
    </font>
</defs>
</svg>
