<?xml version="1.0" standalone="no"?>
<!DOCTYPE svg PUBLIC "-//W3C//DTD SVG 1.1//EN" "http://www.w3.org/Graphics/SVG/1.1/DTD/svg11.dtd" >
<svg xmlns="http://www.w3.org/2000/svg">
<metadata>
Created by FontPrep 20130207 at Tue Sep 30 22:15:51 2014
 By Callum Flack
(c)2009 Kai Bernau and Commercial Type.
</metadata>
<defs>
<font id="a1ef0a3d363dc638bbc0a37ede333260" horiz-adv-x='1024' >
  <font-face 
    font-family="LyonText-Black"
    font-weight="900"
    font-stretch="normal"
    units-per-em="2048"
    panose-1="2 0 5 5 8 0 0 2 0 4"
    ascent="1556"
    descent="-492"
    x-height="1012"
    cap-height="1360"
    bbox="-393 -586 2818 2288"
    underline-thickness="102"
    underline-position="-102"
    unicode-range="U+0020-FB04"
  />
<missing-glyph horiz-adv-x="1024" 
 />
    <glyph glyph-name="f_f" unicode="ff" horiz-adv-x="1576" 
d="M915 1042q0 59 19 115l-88 186q-66 43 -131 43q-94 0 -142 -78q-47 -79 -45 -280v-16h387v30zM786 0v113l129 24v742h-385v-742l132 -26v-111h-625v111l139 26v744h-139v108l141 47q37 209 190 340t381 131t324 -129q170 164 393 164q140 0 230 -72t90 -152t-37 -117
q-37 -36 -125 -36l-80 11l-61 221q-33 18 -84 18q-137 0 -135 -248v-155h256v-133h-254v-742l188 -24v-113h-668z" />
    <glyph glyph-name="f_i" unicode="fi" horiz-adv-x="1435" 
d="M772 0v113l139 24v742h-381v-740l152 -26v-113h-645v113l139 24v744h-139v108l141 47q16 164 114 282q185 222 505 222q197 0 298 -69t101 -164q0 -68 -42 -105t-120 -37l-80 11l-77 188q-61 57 -153 57t-143 -62q-50 -62 -51 -220v-127h525l211 39v-914l125 -24v-113
h-619z" />
    <glyph glyph-name="f_l" unicode="fl" horiz-adv-x="1439" 
d="M680 1421q-86 -1 -122 -65t-32 -217l2 -127h383v245q-45 78 -95 121t-136 43zM772 0v113l139 24v742h-381v-742l152 -24v-113h-645v113l139 24v744h-139v108l139 47q16 214 178 360t391 146q156 0 252 -61l269 47v-1391l147 -26v-111h-641z" />
    <glyph glyph-name="f_f_i" unicode="ffi" horiz-adv-x="2172" 
d="M913 1012q0 72 23 143l-90 188q-66 43 -131 43q-94 0 -142 -78q-47 -79 -45 -280v-16h385zM1509 0v113l140 24v742h-381v-740l151 -26v-113h-633v113l127 24v742h-383v-742l132 -26v-111h-625v111l139 26v744h-139v108l141 47q37 209 190 340t385 131t324 -135
q90 82 213 125t244 43q197 0 298 -69t101 -164q0 -68 -42 -105t-119 -37l-80 11l-78 188q-66 57 -159 57q-93 1 -142 -75t-47 -283v-51h538l199 39v-914l125 -24v-113h-619z" />
    <glyph glyph-name="f_f_l" unicode="ffl" horiz-adv-x="2177" 
d="M913 1036q0 72 17 127l-84 180q-66 43 -131 43q-94 0 -142 -78q-47 -79 -45 -280v-16h385v24zM1417 1421q-86 0 -121 -63t-32 -219l2 -127h383v245q-45 78 -95 121t-137 43zM1509 0v113l140 24v742h-381v-742l151 -24v-113h-633v111l127 26v742h-383v-742l132 -26v-111
h-625v111l139 26v744h-139v108l141 47q37 209 190 340t378 131t323 -123q172 158 414 158q156 0 252 -61l268 47v-1391l147 -26v-111h-641z" />
    <glyph glyph-name="f_b" unicode="fb" horiz-adv-x="2052" 
d="M1384 838q-66 0 -118 -29v-655q59 -64 156 -64t163 99t66 275t-72 274q-72 100 -195 100zM37 0v113l139 24v744h-139v108l139 47q16 214 173 360t386 146q154 0 258 -61l273 47v-631q119 145 302 145t308 -118t125 -364q0 -245 -207 -418t-475 -173q-180 0 -342 66
l-66 26v1196q-45 78 -95 121t-134 43q-156 0 -154 -282v-127h254v-144h-252v-731l152 -24v-113h-645z" />
    <glyph glyph-name="f_f_b" unicode="ffb" horiz-adv-x="2789" 
d="M715 1386q-94 0 -142 -78q-47 -79 -45 -280v-16h385q6 70 25 135l-92 196q-66 43 -131 43zM2122 838q-66 0 -119 -29v-655q59 -64 157 -64t162 99q66 99 66 275t-72 274q-72 100 -194 100zM913 879h-383v-742l132 -26v-111h-625v111l139 26v744h-139v108l141 47
q37 209 190 340t381 131t324 -129q164 164 400 164q152 0 258 -61l272 47v-631q119 145 302 145t308 -118t125 -364q0 -245 -207 -418t-475 -173q-180 0 -342 66l-65 26v1196q-43 80 -88 122t-126 42t-126 -79t-43 -279v-51h254v-133h-252v-742l151 -24v-113h-631v113
l125 24v742z" />
    <glyph glyph-name="f_f_h" unicode="ffh" horiz-adv-x="2842" 
d="M715 1386q-94 0 -142 -78q-47 -79 -45 -280v-16h385q6 70 25 135l-92 196q-66 43 -131 43zM2322 612q0 228 -192 226q-72 -2 -127 -35v-666l113 -26v-111h-594v111l127 26v1120q-43 80 -88 122t-126 42t-126 -79t-43 -279v-51h254v-133h-252v-742l139 -24v-113h-619v113
l125 24v742h-383v-742l132 -26v-111h-625v111l139 26v744h-139v108l141 47q37 209 190 340t381 131t324 -129q164 164 400 164q152 0 258 -61l272 47v-637q150 160 330 160q344 0 344 -342v-572l141 -26v-111h-604v113l108 24v475z" />
    <glyph glyph-name="f_f_j" unicode="ffj" horiz-adv-x="2156" 
d="M715 1386q-94 0 -142 -78q-47 -79 -45 -280v-16h385q0 72 23 143l-90 188q-65 43 -131 43zM913 879h-383v-742l132 -26v-111h-625v111l139 26v744h-139v108l141 47q37 209 190 340t385 131t324 -135q90 82 213 125t244 43q197 0 298 -69t101 -164q0 -68 -42 -105
t-119 -37l-80 11l-78 188q-66 57 -159 57q-93 1 -142 -75t-47 -283v-51h526l211 39v-901q0 -372 -211 -543q-82 -67 -189 -92q-42 -10 -67 -11l-25 -2l-47 107q86 51 135 163t50 341v766h-381v-740l151 -26v-113h-633v113l127 24v742z" />
    <glyph glyph-name="f_f_k" unicode="ffk" horiz-adv-x="2793" 
d="M715 1386q-94 0 -142 -78q-47 -79 -45 -280v-16h385q6 70 25 135l-92 196q-66 43 -131 43zM2173 1012h582v-105l-158 -41l-246 -237l442 -578q-41 -83 -204 -90q-109 -2 -166 35t-115 127l-283 444v21l125 33l217 241l-194 43v107zM1522 0v111l127 26v1120
q-43 80 -88 122t-126 42t-126 -79t-43 -279v-51h254v-133h-252v-742l139 -24v-113h-619v113l125 24v742h-383v-742l132 -26v-111h-625v111l139 26v744h-139v108l141 47q37 209 190 340t381 131t324 -129q164 164 400 164q152 0 258 -61l272 47v-1391l113 -26v-111h-594z" />
    <glyph glyph-name="f_h" unicode="fh" horiz-adv-x="2105" 
d="M1585 612q0 228 -192 226q-72 -2 -127 -35v-666l112 -26v-111h-606v111l139 26v1120q-45 78 -95 121t-134 43q-156 0 -154 -282v-127h254v-144h-252v-731l152 -24v-113h-645v113l139 24v744h-139v108l139 47q16 214 173 360t386 146q154 0 258 -61l273 47v-637
q150 160 329 160q344 0 344 -342v-572l142 -26v-111h-604v113l108 24v475z" />
    <glyph glyph-name="f_j" unicode="fj" horiz-adv-x="1419" 
d="M911 113v766h-381v-740l152 -26v-113h-645v113l139 24v744h-139v108l141 47q16 164 114 282q185 222 505 222q197 0 298 -69t101 -164q0 -68 -42 -105t-120 -37l-80 11l-77 188q-61 57 -153 57t-143 -62q-50 -62 -51 -220v-127h525l211 39v-901q0 -372 -211 -543
q-82 -66 -190 -92q-42 -10 -66 -11l-25 -2l-47 107q86 51 135 163t49 341z" />
    <glyph glyph-name="f_k" unicode="fk" horiz-adv-x="2056" 
d="M1436 1012h581v-105l-157 -41l-246 -237l442 -578q-41 -83 -205 -90q-109 -2 -165 35t-115 127l-283 444v21l125 33l217 241l-194 43v107zM772 0v111l139 26v1120q-45 78 -95 121t-134 43q-156 0 -154 -282v-127h254v-144h-252v-731l152 -24v-113h-645v113l139 24v744
h-139v108l139 47q16 214 173 360t386 146q154 0 258 -61l273 47v-1391l123 -26v-111h-617z" />
    <glyph glyph-name=".notdef" horiz-adv-x="1024" 
 />
    <glyph glyph-name=".null" horiz-adv-x="0" 
 />
    <glyph glyph-name="nonmarkingreturn" horiz-adv-x="681" 
 />
    <glyph glyph-name="space" unicode=" " horiz-adv-x="325" 
 />
    <glyph glyph-name="exclam" unicode="!" horiz-adv-x="638" 
d="M317 -29q-69 1 -119 51t-50 118t50 119q50 50 120 50t119 -50q50 -50 50 -119t-50 -119t-120 -50zM123 1423h393l-137 -987h-123z" />
    <glyph glyph-name="quotedbl" unicode="&#x22;" horiz-adv-x="987" 
d="M674 961l-111 643h332l-111 -643h-110zM203 961l-111 643h332l-111 -643h-110z" />
    <glyph glyph-name="numbersign" unicode="#" horiz-adv-x="1214" 
d="M494 780l-62 -348h293l61 348h-292zM168 780v123h223l58 314h122l-57 -314h293l57 314h123l-57 -314h219v-123h-240l-61 -348h211v-123h-234l-53 -309h-123l53 309h-292l-54 -309h-123l54 309h-209v123h231l62 348h-203z" />
    <glyph glyph-name="dollar" unicode="$" horiz-adv-x="1335" 
d="M498 1030q0 -145 157 -184l52 381q-93 -3 -151 -57t-58 -140zM889 285q0 78 -39 123t-131 63l-49 -369q92 0 156 52t63 131zM164 901q0 168 143 300t416 145l35 260h114l-34 -263q119 -12 311 -79l14 -375h-112l-111 260q-55 45 -121 63l-53 -391l131 -28
q336 -74 336 -351q0 -128 -92 -236t-222 -164t-266 -62l-30 -236h-115l31 240q-199 12 -379 102l-37 408h110l148 -289q86 -61 176 -88l51 379l-104 24q-158 37 -249 140t-91 241z" />
    <glyph glyph-name="percent" unicode="%" horiz-adv-x="1972" 
d="M1538 66q113 0 113 244q0 128 -48 227q-47 100 -109 100q-122 0 -122 -209q0 -115 43 -239t123 -123zM1503 -41q-175 0 -283 111q-108 112 -108 276t119 282t287 117q168 0 280 -105t113 -275q0 -170 -116 -288t-292 -118zM494 569q112 0 112 244q0 127 -48 227t-110 101
q-123 0 -120 -209q0 -115 43 -239t123 -124zM420 -102l995 1409h150l-996 -1409h-149zM473 1249q168 0 281 -105q112 -106 112 -276t-116 -288t-291 -117q-176 1 -284 111q-107 110 -107 275t118 283q119 117 287 117z" />
    <glyph glyph-name="ampersand" unicode="&#x26;" horiz-adv-x="1798" 
d="M702 1296q-70 0 -116 -44q-47 -44 -47 -108q0 -66 34 -110q35 -43 181 -172q117 100 116 236q0 94 -49 146t-119 52zM412 440q0 -124 81 -196t212 -72t239 68q-27 24 -108 106t-136 135l-184 172q-104 -88 -104 -213zM565 -41q-211 0 -342 93t-131 263q0 115 68 195
q35 41 62 69q59 59 227 140q-125 119 -162 177t-37 151q0 141 132 256t341 115t305 -83q96 -82 96 -208t-99 -202q-99 -77 -204 -124l172 -156q63 -59 170 -166q25 39 51 88l166 303l-159 21v121h499v-113l-164 -29l-299 -473q-4 -4 -4 -6q198 -190 286 -194t134 45l17 16
l47 -59q-9 -23 -60 -81q-131 -151 -321 -151q-78 0 -147 40t-171 138q-219 -186 -473 -186z" />
    <glyph glyph-name="quotesingle" unicode="'" horiz-adv-x="516" 
d="M203 961l-111 643h332l-111 -643h-110z" />
    <glyph glyph-name="parenleft" unicode="(" horiz-adv-x="712" 
d="M379 564q0 -278 85 -502t257 -431h-189q-195 178 -307 421q-113 243 -113 508t114 511t306 428h197q-176 -211 -263 -434t-87 -501z" />
    <glyph glyph-name="parenright" unicode=")" horiz-adv-x="712" 
d="M600 571q0 -266 -114 -512t-306 -428h-196q176 211 263 435t87 500q0 278 -85 502t-257 431h203q193 -176 299 -419t106 -509z" />
    <glyph glyph-name="asterisk" unicode="*" horiz-adv-x="837" 
d="M764 1069l-238 -51l-12 -250l-55 -12l-115 219l-244 -70l-28 47l180 178l-146 207l33 39l232 -104l147 194l47 -16l-28 -248l229 -80z" />
    <glyph glyph-name="plus" unicode="+" horiz-adv-x="1142" 
d="M1057 416h-412v-416h-147v416h-412v139h412v416h147v-416h412v-139z" />
    <glyph glyph-name="comma" unicode="," horiz-adv-x="595" 
d="M258 -43q0 133 -143 203q0 92 48 158t145 65q96 0 156 -71t60 -193q0 -352 -444 -545l-55 90q233 115 233 293z" />
    <glyph glyph-name="hyphen" unicode="-" horiz-adv-x="786" 
d="M123 457v239h541v-239h-541z" />
    <glyph glyph-name="period" unicode="." horiz-adv-x="585" 
d="M307 -29q-76 1 -130 55t-54 129t54 130t131 55t131 -55q55 -55 55 -130t-56 -129t-131 -55z" />
    <glyph glyph-name="slash" unicode="/" horiz-adv-x="1089" 
d="M135 -424l-125 57l826 1895l125 -58z" />
    <glyph glyph-name="zero" unicode="0" horiz-adv-x="1355" 
d="M666 -37q-270 0 -428 160q-156 161 -156 401t172 410t431 170t424 -153t165 -401t-169 -417q-169 -170 -439 -170zM621 969q-91 -10 -129 -137t-12 -326q26 -200 94 -312t161 -98q92 10 129 137t13 326q-25 199 -94 311t-162 99z" />
    <glyph glyph-name="one" unicode="1" horiz-adv-x="964" 
d="M707 1104v-967l215 -24v-113h-816v113l242 24v707h-264v114l608 146h15z" />
    <glyph glyph-name="two" unicode="2" horiz-adv-x="1044" 
d="M983 264v-264h-911v135l84 72q233 201 320 296t87 181t-51 134t-145 48t-209 -108l-80 69q98 139 188 208t251 69t262 -94t101 -222t-62 -208q-64 -82 -224 -201l-154 -115h543z" />
    <glyph glyph-name="three" unicode="3" horiz-adv-x="1060" 
d="M643 -66q0 112 -92 191q-92 80 -285 94v170l60 25q264 106 264 278q0 82 -53 130t-147 48t-212 -108l-76 69q92 131 188 202t260 71q163 0 266 -89t104 -229q0 -207 -285 -342l-51 -24v-6q184 -23 298 -124t114 -252q0 -150 -110 -264q-204 -213 -599 -214
q-115 0 -186 49t-70 127q0 51 35 85t81 46l207 -193q117 0 203 74t86 186z" />
    <glyph glyph-name="four" unicode="4" horiz-adv-x="1296" 
d="M680 254v541l-412 -541h412zM680 -391v411h-645v146l762 981l198 -14v-879h260v-234h-260v-411h-315z" />
    <glyph glyph-name="five" unicode="5" horiz-adv-x="1024" 
d="M-35 -262q0 51 35 85t82 46l207 -193q121 0 207 75t86 211t-134 245t-366 151l209 707h631v-287h-584l-47 -160q170 -40 303 -104t225 -174t92 -246q0 -137 -61 -245t-164 -167q-204 -120 -459 -120q-121 0 -191 49t-71 127z" />
    <glyph glyph-name="six" unicode="6" horiz-adv-x="1335" 
d="M481 541q1 -165 63 -310t173 -145q88 0 127 88t39 215q0 174 -92 302q-93 128 -236 128l-41 -2q-33 -111 -33 -276zM756 971q219 0 361 -136t143 -333q0 -300 -271 -456q-143 -81 -321 -83q-246 0 -416 154t-170 428q0 151 49 283t133 230q178 209 402 314
q224 104 432 144l28 -89q-186 -69 -340 -193t-233 -306q111 43 203 43z" />
    <glyph glyph-name="seven" unicode="7" horiz-adv-x="1126" 
d="M66 741v324h1060v-59l-667 -1086l-236 -397l-174 106l750 1112h-733z" />
    <glyph glyph-name="eight" unicode="8" horiz-adv-x="1148" 
d="M561 1274q-74 0 -118 -44t-44 -110q0 -64 39 -110t125 -99l103 -63q70 96 69 227q0 91 -50 145t-124 54zM348 338q0 -98 64 -167t172 -69q72 0 124 41t52 111q-1 131 -189 254l-125 76q-98 -106 -98 -246zM43 315q0 211 297 338q-233 162 -234 375q0 145 121 260t341 115
t341 -94t121 -234q0 -193 -262 -291q160 -102 234 -199t75 -216q1 -184 -159 -297t-378 -113t-358 92q-139 92 -139 264z" />
    <glyph glyph-name="nine" unicode="9" horiz-adv-x="1320" 
d="M795 227h26q29 115 29 240q0 201 -67 353t-177 151q-84 0 -121 -88t-36 -213q0 -186 90 -314t256 -129zM559 74q-231 0 -359 135t-128 342q0 135 55 244q96 190 334 268q100 33 203 33q258 0 422 -159t163 -415q-1 -184 -73 -349t-183 -277t-250 -201
q-254 -161 -505 -199l-29 88q193 70 347 207t230 330q-123 -47 -227 -47z" />
    <glyph glyph-name="colon" unicode=":" horiz-adv-x="585" 
d="M308 664q-77 0 -131 55t-54 130t54 130t130 55t131 -55q56 -55 56 -130t-54 -130t-132 -55zM307 -29q-76 1 -130 55t-54 129t54 130t131 55t131 -55q55 -55 55 -130t-56 -129t-131 -55z" />
    <glyph glyph-name="semicolon" unicode=";" horiz-adv-x="585" 
d="M258 -43q0 133 -143 203q0 92 48 158t145 65q96 0 156 -71t60 -193q0 -352 -444 -545l-55 90q233 115 233 293zM319 1034q75 0 131 -55t56 -130t-54 -130t-132 -55q-77 0 -131 55t-54 130t54 130t130 55z" />
    <glyph glyph-name="less" unicode="&#x3c;" horiz-adv-x="1142" 
d="M1055 846l-799 -365l799 -360v-150l-967 451v121l967 450v-147z" />
    <glyph glyph-name="equal" unicode="=" horiz-adv-x="1142" 
d="M86 281v133h971v-133h-971zM86 600v133h971v-133h-971z" />
    <glyph glyph-name="greater" unicode="&#x3e;" horiz-adv-x="1142" 
d="M88 119l799 364l-799 361v149l967 -450v-121l-967 -451v148z" />
    <glyph glyph-name="question" unicode="?" horiz-adv-x="831" 
d="M281 -29q-70 1 -120 51t-50 118t50 119q50 50 120 50q69 0 119 -50t50 -119t-49 -119q-50 -50 -120 -50zM336 436h-119l-63 365l381 80q89 23 123 45t34 55q0 63 -106 90t-365 45l-88 6v355l131 -23q246 -41 400 -186t153 -338q0 -141 -55 -219t-205 -113l-221 -47v-115z
" />
    <glyph glyph-name="at" unicode="@" horiz-adv-x="1998" 
d="M860 242q49 0 161 174t155 334l12 45q-43 16 -66 16q-49 0 -120 -84q-70 -84 -122 -206q-52 -123 -52 -201t32 -78zM1151 1266q-317 0 -562 -249t-261 -628q-12 -313 169 -489t476 -176q184 0 352 69l-4 -84q-213 -80 -440 -80q-367 0 -578 204t-197 519q8 208 106 396
q190 365 603 528q197 78 395 78q336 0 530 -190t183 -462q-6 -150 -72 -282q-121 -241 -360 -350q-106 -49 -203 -50q-143 0 -192 88t-4 238l22 78h-6l-51 -80q-8 -12 -45 -70q-107 -166 -164 -203q-78 -49 -150 -50t-114 51t-45 135q-6 131 67 268q133 246 394 391
q110 61 178 62q31 0 71 -8l15 55h252l-177 -688q-48 -162 43 -162q99 0 213 128q55 62 96 173q40 111 46 246q10 250 -163 422t-423 172z" />
    <glyph glyph-name="A" unicode="A" horiz-adv-x="1615" 
d="M686 1106l-194 -537h389l-193 537h-2zM12 0v106l140 44l475 1191l151 9l164 43l506 -1258l156 -24v-111h-742v115l174 24l-98 273h-502l-88 -246l217 -51v-115h-553z" />
    <glyph glyph-name="B" unicode="B" horiz-adv-x="1452" 
d="M944 993q0 111 -86 181t-248 79v-491q334 31 334 231zM610 674v-449q0 -57 48 -90t130 -33t147 62t65 187q0 124 -79 211q-80 87 -223 112h-88zM57 0v113l179 26v1080l-168 28v113l661 4q575 4 577 -303q0 -151 -128 -229q-129 -78 -330 -99v-8q238 4 388 -83t148 -263
q0 -205 -183 -293t-517 -88z" />
    <glyph glyph-name="C" unicode="C" horiz-adv-x="1486" 
d="M831 -37q-195 0 -345 55q-150 54 -236 148q-176 188 -176 448q0 342 249 566t613 223q219 0 428 -111l12 -374h-108l-138 296q-94 53 -194 54q-186 0 -314 -144t-128 -412q0 -270 132 -437t330 -166q102 0 189 43l174 319h111l-50 -389q-260 -119 -549 -119z" />
    <glyph glyph-name="D" unicode="D" horiz-adv-x="1667" 
d="M612 1247l2 -1042q2 -43 44 -73t135 -28q176 2 279 160t104 385q0 330 -159 472t-405 126zM1599 735q1 -356 -251 -553t-646 -190l-645 8v113l179 26v1080l-168 28v113l737 10q358 4 576 -175t218 -460z" />
    <glyph glyph-name="E" unicode="E" horiz-adv-x="1441" 
d="M629 629v-490h454l183 303h106l-72 -442h-1232v113l178 26v1080l-168 28v113h1018l204 14v-403h-106l-107 264h-458v-481h239l54 174h98v-461h-102l-50 162h-239z" />
    <glyph glyph-name="F" unicode="F" horiz-adv-x="1331" 
d="M629 625v-486l248 -22v-117h-822v113l191 26v1080l-168 28v113h997l207 14v-424h-106l-107 285h-440v-485h221l53 174h98v-461h-102l-49 162h-221z" />
    <glyph glyph-name="G" unicode="G" horiz-adv-x="1587" 
d="M831 -37q-188 0 -336 54q-149 53 -239 147q-182 189 -182 448q0 342 254 566t620 225q236 0 445 -111l12 -374h-109l-133 292q-90 57 -231 58q-180 0 -309 -144t-129 -389q0 -297 134 -462t339 -164q61 0 123 16v393l-175 23v110h611v-110l-99 -29v-424l-77 -31
q-240 -94 -519 -94z" />
    <glyph glyph-name="H" unicode="H" horiz-adv-x="1763" 
d="M973 0v113l172 26v451h-527v-451l173 -26v-113h-734v113l179 26v1080l-168 28v113h708v-113l-158 -28v-465h527v465l-158 28v113h709v-113l-168 -28v-1080l178 -26v-113h-733z" />
    <glyph glyph-name="I" unicode="I" horiz-adv-x="854" 
d="M57 0v113l179 26v1080l-168 28v113h718v-113l-168 -28v-1080l179 -26v-113h-740z" />
    <glyph glyph-name="J" unicode="J" horiz-adv-x="897" 
d="M649 223q1 -301 -155 -487t-422 -187l-29 107q61 16 105 53t67 80q53 99 53 385v1045l-172 28v113h725v-113l-172 -28v-996z" />
    <glyph glyph-name="K" unicode="K" horiz-adv-x="1624" 
d="M1028 1360h541v-107l-176 -47l-383 -383l477 -684l160 -26v-113h-527l-483 731v21l143 41l404 413l-156 43v111zM57 0v113l179 26v1080l-168 28v113h712v-113l-162 -28v-1080l138 -26v-113h-699z" />
    <glyph glyph-name="L" unicode="L" horiz-adv-x="1329" 
d="M618 139h363l203 355h106l-82 -494h-1151v113l179 26v1080l-168 28v113h725v-113l-175 -28v-1080z" />
    <glyph glyph-name="M" unicode="M" horiz-adv-x="2105" 
d="M51 0v113l176 41l15 1065l-185 28v113h684l338 -754l275 670l12 84h670v-113l-168 -28l8 -1082l178 -24v-113h-756v115l191 24l6 1026l-397 -915l-74 -227h-131l-70 223l-407 930l-13 -1006l265 -61v-109h-617z" />
    <glyph glyph-name="N" unicode="N" horiz-adv-x="1701" 
d="M692 0h-635v113l179 39l2 1034l-183 63v111h516l752 -895l-6 725l-285 63v107h623v-113l-168 -45v-1044l6 -158h-272l-824 977l11 -813l284 -58v-106z" />
    <glyph glyph-name="O" unicode="O" horiz-adv-x="1613" 
d="M818 1403q314 1 518 -189t204 -515t-218 -533t-530 -209q-312 0 -516 190q-202 190 -202 517t215 533t529 206zM489 711q1 -263 99 -439t235 -176t219 146t82 405q0 258 -94 438t-252 181q-131 0 -210 -146t-79 -409z" />
    <glyph glyph-name="P" unicode="P" horiz-adv-x="1370" 
d="M967 937q0 130 -88 222t-261 92v-1112l218 -26v-113h-779v113l179 26v1080l-168 28v113l634 2q300 2 472 -97t172 -290q0 -147 -100 -253t-244 -150q-146 -44 -300 -23v84q119 14 192 94t73 210z" />
    <glyph glyph-name="Q" unicode="Q" horiz-adv-x="1615" 
d="M782 1266q-135 0 -217 -146t-82 -403q-1 -258 95 -436q96 -179 246 -179t230 142q81 142 81 392q1 250 -93 440t-260 190zM820 1403q312 1 518 -187q204 -188 204 -505q0 -246 -135 -428t-350 -256q213 -160 360 -235t319 -75t324 78l47 -61q-209 -215 -559 -215
t-682 227q-118 80 -194 141t-197 164q-186 78 -293 240q-106 162 -106 383q0 315 216 522t528 207z" />
    <glyph glyph-name="R" unicode="R" horiz-adv-x="1560" 
d="M618 1251v-598l89 2q123 23 195 102t71 199q0 120 -89 207q-90 88 -266 88zM57 0v113l179 26v1082l-168 26v113l637 4q285 4 463 -91t178 -286q0 -219 -283 -340v-6l350 -510l158 -22v-109h-473l-240 354l-131 201l-109 -4v-412l138 -26v-113h-699z" />
    <glyph glyph-name="S" unicode="S" horiz-adv-x="1214" 
d="M550 100q112 0 170 50t58 137q0 131 -180 205l-164 65q-168 66 -246 159q-78 92 -78 254t151 299q151 136 417 136q178 0 393 -96l12 -389h-108l-127 284q-84 66 -179 66t-153 -51t-57 -129q0 -78 45 -126t149 -92l172 -69q180 -74 250 -162t70 -213q0 -207 -178 -339
t-420 -132t-449 131l-32 414h106l166 -328q100 -74 212 -74z" />
    <glyph glyph-name="T" unicode="T" horiz-adv-x="1495" 
d="M938 1235v-1094l213 -28v-113h-807v113l213 26v1096h-266l-123 -285h-107l11 424l202 -14h943l206 14l11 -424h-107l-123 285h-266z" />
    <glyph glyph-name="U" unicode="U" horiz-adv-x="1601" 
d="M1405 600q1 -299 -143 -471t-454 -172t-460 141t-149 451v670l-168 28v113h712v-113l-161 -28v-699q0 -180 80 -278t240 -98t244 106q85 106 83 313l-6 631l-258 59v107h606v-113l-166 -43v-604z" />
    <glyph glyph-name="V" unicode="V" horiz-adv-x="1560" 
d="M12 1360h719v-115l-160 -31l330 -911l332 895l-223 47v115h538v-115l-141 -35l-487 -1233h-277l-483 1242l-148 26v115z" />
    <glyph glyph-name="W" unicode="W" horiz-adv-x="2318" 
d="M12 1360h723v-115l-155 -26l288 -863l222 680l-66 185l-147 24v115h708v-115l-153 -28l288 -859l252 834l-172 53v115h506v-115l-158 -41l-413 -1227h-267l-305 850l-280 -850h-267l-444 1242l-160 26v115z" />
    <glyph glyph-name="X" unicode="X" horiz-adv-x="1515" 
d="M12 0v115l138 26l423 508l-374 572l-133 26v113h741v-113l-148 -26l211 -353h4l246 342l-176 37v113h520v-113l-135 -28l-385 -471l404 -611l155 -24v-113h-780v115l164 24l-240 393h-4l-276 -382l178 -37v-113h-533z" />
    <glyph glyph-name="Y" unicode="Y" horiz-adv-x="1447" 
d="M1104 0h-760v113l188 26v359l-389 729l-131 18v115h746v-111l-174 -26l247 -547l273 536l-178 37v111h510v-111l-160 -37l-361 -641v-432l189 -26v-113z" />
    <glyph glyph-name="Z" unicode="Z" horiz-adv-x="1318" 
d="M45 0v133l739 1090h-465l-137 -308h-102l26 459l203 -14h969v-35l-801 -1186h490l196 355h101l-76 -508l-219 14h-924z" />
    <glyph glyph-name="bracketleft" unicode="[" horiz-adv-x="727" 
d="M655 -371h-454v1872h454v-121h-204v-1630h204v-121z" />
    <glyph glyph-name="backslash" unicode="\" horiz-adv-x="1089" 
d="M1079 -367l-125 -57l-825 1894l125 58z" />
    <glyph glyph-name="bracketright" unicode="]" horiz-adv-x="727" 
d="M72 1501h454v-1872h-454v121h204v1630h-204v121z" />
    <glyph glyph-name="asciicircum" unicode="^" horiz-adv-x="1048" 
d="M215 958h-113l330 590h174l340 -590h-131l-303 404z" />
    <glyph glyph-name="underscore" unicode="_" horiz-adv-x="835" 
d="M8 -461v162h819v-162h-819z" />
    <glyph glyph-name="grave" unicode="`" horiz-adv-x="819" 
d="M227 1579h271l98 -399h-131l-238 362v37z" />
    <glyph glyph-name="a" unicode="a" horiz-adv-x="1187" 
d="M554 174q58 0 105 47v281l-77 -21q-94 -27 -131 -65t-37 -98q0 -62 41 -103t99 -41zM375 -27q-129 0 -216 79t-87 203q0 123 84 189t243 103l260 59v66q0 244 -170 243q-57 0 -98 -18v-219q-80 -33 -153 -33q-129 0 -129 119q0 98 157 189q158 91 362 91t296 -91
q90 -91 90 -283v-449q0 -53 17 -66t67 -14h73v-86q-166 -82 -278 -82q-113 1 -157 49t-64 140h-8q-34 -47 -52 -69q-66 -83 -137 -105q-45 -15 -100 -15z" />
    <glyph glyph-name="b" unicode="b" horiz-adv-x="1273" 
d="M606 838q-66 0 -119 -29v-655q59 -64 157 -64t163 99t65 275t-72 274q-72 100 -194 100zM541 -31q-180 0 -342 66l-66 26v1264l-145 35v106l499 62v-631q119 145 303 145t308 -118q125 -118 125 -364q0 -245 -207 -418t-475 -173z" />
    <glyph glyph-name="c" unicode="c" horiz-adv-x="1036" 
d="M553 -31q-227 -1 -360 143t-134 357q0 264 172 423t410 159q154 0 244 -77t90 -179q0 -74 -44 -114t-122 -40l-100 10l-29 258q-43 14 -78 15q-106 0 -160 -94t-55 -199q0 -201 94 -304t236 -104q57 0 115 24t90 46l28 22l47 -61q-95 -139 -197 -212t-247 -73z" />
    <glyph glyph-name="d" unicode="d" horiz-adv-x="1323" 
d="M690 178q55 0 105 25v592q-70 109 -179 108q-84 0 -137 -77t-53 -254q0 -178 74 -286t190 -108zM489 -31q-180 1 -305 139t-125 384q-1 246 183 400q184 155 420 155q59 0 133 -25v295l-234 53v113l588 45v-1356l147 -33v-106l-393 -53l-80 159q-69 -82 -141 -126
t-193 -44z" />
    <glyph glyph-name="e" unicode="e" horiz-adv-x="1136" 
d="M559 918q-74 0 -126 -68t-58 -191h346q0 259 -162 259zM567 -31q-246 -1 -377 147t-131 353q0 266 175 424q174 158 390 158q216 1 326 -145t115 -376h-682q25 -160 123 -238t237 -79q72 0 142 26t102 52l33 24l51 -61q-51 -66 -81 -98q-114 -124 -238 -162
q-83 -25 -185 -25z" />
    <glyph glyph-name="f" unicode="f" horiz-adv-x="837" 
d="M37 0v111l139 26v744h-139v108l139 47v6q0 186 166 343t385 157q141 0 230 -72t89 -152t-36 -117q-37 -36 -125 -36l-80 11l-62 221q-35 18 -84 18q-137 0 -135 -248l2 -155h256v-144h-252v-731l185 -26v-111h-678z" />
    <glyph glyph-name="g" unicode="g" horiz-adv-x="1196" 
d="M322 -186q0 -84 88 -138t218 -53q130 0 200 45t71 109q0 78 -98 92l-467 16q-12 -31 -12 -71zM470 468q56 -68 127 -58t99 88t6 192t-78 184q-56 68 -126 56q-72 -8 -102 -86t-6 -193t80 -183zM1012 641q0 -141 -129 -245t-336 -105q-119 0 -209 33q-37 -53 -37 -88
q0 -36 28 -46t101 -12l336 -12q182 -6 271 -86t89 -207q0 -164 -208 -301t-467 -137q-209 0 -320 76t-111 180q0 141 222 233l8 4v4l-168 160q8 55 54 138t104 141q-164 105 -164 283t137 286t334 107q125 0 287 -64l337 43v-178l-245 26l-4 -6q90 -86 90 -227z" />
    <glyph glyph-name="h" unicode="h" horiz-adv-x="1376" 
d="M856 612q0 228 -192 226q-72 -2 -127 -35v-666l112 -26v-111h-606v111l139 26v1188l-145 35v106l500 62v-637q150 160 329 160q344 0 344 -342v-572l142 -26v-111h-604v113l108 24v475z" />
    <glyph glyph-name="i" unicode="i" horiz-adv-x="700" 
d="M553 1356q1 -80 -55 -136t-145 -55q-89 -1 -143 55t-54 135t55 133t144 54t143 -53t55 -133zM37 0v113l139 24v674l-139 27v112l493 101v-914l125 -24v-113h-618z" />
    <glyph glyph-name="j" unicode="j" horiz-adv-x="677" 
d="M547 1356q1 -80 -55 -136t-145 -55q-89 -1 -143 55t-54 135t55 133t144 54t143 -53t55 -133zM170 113v698l-139 27v112l493 101v-901q0 -375 -211 -543q-82 -67 -189 -92q-42 -10 -67 -11l-24 -2l-47 107q86 51 135 163t49 341z" />
    <glyph glyph-name="k" unicode="k" horiz-adv-x="1327" 
d="M707 1012h581v-105l-158 -41l-245 -237l442 -578q-41 -83 -205 -90q-109 -2 -166 35t-114 127l-283 444v21l125 33l217 241l-194 43v107zM659 0h-616v111l139 26v1188l-145 35v106l500 62v-1391l122 -26v-111z" />
    <glyph glyph-name="l" unicode="l" horiz-adv-x="710" 
d="M43 0v111l139 26v1188l-145 35v106l500 62v-1391l147 -26v-111h-641z" />
    <glyph glyph-name="m" unicode="m" horiz-adv-x="2043" 
d="M850 623q0 217 -178 215q-68 -2 -142 -50v-651l113 -26v-111h-606v113l139 24v674l-139 27v102l418 115h10l45 -181h8q120 174 358 174t306 -174h4q123 176 358 176t306 -173q24 -57 24 -134v-606l141 -26v-111h-602v113l107 24v486q0 217 -174 215q-70 -2 -142 -47v-654
l111 -26v-111h-574v113l109 24v486z" />
    <glyph glyph-name="n" unicode="n" horiz-adv-x="1372" 
d="M850 612q0 228 -193 226q-72 -2 -127 -35v-666l113 -26v-111h-606v111l139 26v674l-139 27v102l418 115h10l45 -181h4q160 176 346 177q344 0 344 -342v-572l142 -26v-111h-605v113l109 24v475z" />
    <glyph glyph-name="o" unicode="o" horiz-adv-x="1232" 
d="M622 1047q248 1 405 -145t157 -382t-162 -396t-418 -161q-256 0 -406 152t-149 381q0 229 163 390q162 161 410 161zM443 782q-34 -119 -10 -303q24 -183 86 -289t151 -94q86 10 120 129t11 303q-25 184 -87 290t-151 93q-86 -10 -120 -129z" />
    <glyph glyph-name="p" unicode="p" horiz-adv-x="1316" 
d="M639 838q-47 0 -109 -29v-631q54 -82 156 -82t166 94q63 94 63 268q-1 174 -73 276q-72 104 -203 104zM37 -492v111l139 27v1165l-139 27v102l418 115h10l45 -181h6q136 168 314 168t307 -120t129 -366q0 -245 -175 -416t-440 -171q-57 0 -121 19v-342l244 -27v-111h-737
z" />
    <glyph glyph-name="q" unicode="q" horiz-adv-x="1312" 
d="M690 178q55 0 105 25v592q-70 109 -179 108q-84 0 -137 -77t-53 -254q0 -178 74 -286t190 -108zM557 -492v109l238 29v458q-127 -135 -307 -135q-180 1 -304 139q-125 138 -125 384q-1 246 183 400q184 155 420 155q125 0 282 -93l195 97h10v-1403l145 -29v-111h-737z
" />
    <glyph glyph-name="r" unicode="r" horiz-adv-x="946" 
d="M725 0h-688v111l139 26v674l-139 27v102l399 111h13l67 -205h4q102 204 254 205q82 -1 129 -51t42 -116t-35 -113q-30 -48 -58 -71l-27 -20l-256 125l-39 -14v-654l195 -26v-111z" />
    <glyph glyph-name="s" unicode="s" horiz-adv-x="1021" 
d="M485 -39q-111 0 -189 17t-202 65l-37 348h103l121 -221q76 -86 182 -86q67 0 107 33t40 84q0 92 -161 164l-134 59q-117 53 -167 122t-50 169q0 143 125 239t307 96t359 -75l8 -309h-98l-86 186q-63 72 -158 72q-59 0 -96 -31t-37 -77t29 -77t110 -65l129 -56
q146 -63 202 -129t56 -172q0 -150 -131 -253t-332 -103z" />
    <glyph glyph-name="t" unicode="t" horiz-adv-x="772" 
d="M393 -31q-141 0 -202 69q-60 69 -56 200l12 643h-143v108l143 49l242 289h100v-315h250v-144h-243v-551q0 -145 159 -145l88 4l25 -110q-176 -97 -375 -97z" />
    <glyph glyph-name="u" unicode="u" horiz-adv-x="1363" 
d="M168 291v565l-139 27v102l493 55v-645q0 -215 160 -215q96 0 152 51v623l-152 27v104l506 55v-862l141 -28v-109l-379 -76l-96 189q-131 -184 -346 -185q-84 0 -156 26q-72 25 -128 101t-56 195z" />
    <glyph glyph-name="v" unicode="v" horiz-adv-x="1206" 
d="M8 1012h625v-119l-146 -19l187 -555l6 -30h4l8 30l201 535l-137 39v119h442v-119l-113 -19l-354 -892h-282l-336 892l-105 21v117z" />
    <glyph glyph-name="w" unicode="w" horiz-adv-x="1822" 
d="M1358 1012h457v-119l-113 -19l-309 -890h-265l-188 508l-20 59h-5q-12 -35 -22 -59l-209 -508h-285l-288 890l-103 21v117h635v-119l-158 -19l150 -595h4q16 47 25 69l254 664h182l219 -664l12 -49h4q6 25 15 49l155 496l-147 49v119z" />
    <glyph glyph-name="x" unicode="x" horiz-adv-x="1243" 
d="M1217 0h-633v111l106 18l-166 258h-2l-145 -250l90 -26v-111h-430v111l119 20l282 375l-270 375l-90 14v117h600v-117l-94 -14l153 -238h2l133 229l-94 23v117h412v-111l-111 -29l-256 -348l277 -393l117 -20v-111z" />
    <glyph glyph-name="y" unicode="y" horiz-adv-x="1167" 
d="M756 1012h399v-119l-86 -19l-424 -1071q-81 -203 -145 -273t-162 -69t-158 53t-61 131q0 79 46 123t120 44q96 0 161 -119h11l71 166l-430 1015l-86 21v117h604v-119l-133 -19l203 -591h10l201 577l-141 33v119z" />
    <glyph glyph-name="z" unicode="z" horiz-adv-x="1134" 
d="M61 0v111l547 774h-284l-142 -250h-92l25 393l221 -16h725v-54l-596 -827h334l151 260h99l-48 -399l-202 8h-738z" />
    <glyph glyph-name="braceleft" unicode="{" horiz-adv-x="747" 
d="M717 1501v-106q-115 0 -152 -43t-41 -189l-10 -360q-6 -207 -217 -236v-4q211 -29 217 -235l10 -361q4 -145 41 -188t152 -43v-107h-31q-416 0 -416 359v356q0 78 -23 109q-24 31 -77 32l-78 2v156l78 2q53 2 77 33t23 108v357q-4 358 416 358h31z" />
    <glyph glyph-name="bar" unicode="|" horiz-adv-x="491" 
d="M317 -410h-143v1913h143v-1913z" />
    <glyph glyph-name="braceright" unicode="}" horiz-adv-x="747" 
d="M31 -371v107q115 0 151 43t41 188l10 361q7 206 218 235v4q-211 29 -218 236l-10 360q-4 145 -41 189t-151 43v106h30q416 0 416 -358v-357q0 -78 24 -108t77 -33l77 -2v-156l-77 -2q-53 -3 -77 -33t-24 -108v-356q4 -359 -416 -359h-30z" />
    <glyph glyph-name="asciitilde" unicode="~" horiz-adv-x="1044" 
d="M152 387l-91 45l11 29q82 190 184 234t248 -11l63 -18q153 -55 219 -46t107 115l90 -47l-10 -33q-57 -139 -122 -199t-147 -60t-192 34l-61 19q-141 49 -201 41q-59 -7 -98 -103z" />
    <glyph glyph-name="exclamdown" unicode="&#xa1;" horiz-adv-x="638" 
d="M322 1184q70 0 120 -50t50 -119t-50 -119t-120 -50t-120 50t-50 119t50 119t120 50zM516 -268h-393l137 987h123z" />
    <glyph glyph-name="cent" unicode="&#xa2;" horiz-adv-x="1069" 
d="M399 567q0 -248 131 -338l95 707q-94 -16 -160 -120t-66 -249zM92 469q0 252 161 409t386 171l31 225h102l-31 -227q129 -17 207 -89t78 -146t-39 -113q-39 -38 -94 -37l-88 10l-23 241q-33 14 -55 19l-98 -742q35 -8 93 -8t128 31t104 61l37 31l47 -61
q-92 -135 -193 -204t-247 -71l-29 -225h-102l31 233q-186 29 -296 166t-110 326z" />
    <glyph glyph-name="sterling" unicode="&#xa3;" horiz-adv-x="1566" 
d="M330 496v145h278l23 121q25 141 103 257q134 196 370 281q94 35 166 35q121 1 204 -65t82 -164q0 -131 -210 -154q-20 111 -62 180t-94 68q-119 0 -168 -272l-55 -287h358v-145h-387q-72 -248 -322 -400q145 -80 242 -151l60 -43q124 -92 190 -130t115 -38q86 0 100 284
q203 0 215 -124q10 -104 -139 -210q-150 -105 -322 -106q-279 0 -514 262l-145 160q-135 -43 -215 -43q-166 0 -166 135q0 58 49 100q110 93 395 -30q61 109 97 299l6 35h-254z" />
    <glyph glyph-name="yen" unicode="&#xa5;" horiz-adv-x="1431" 
d="M176 543v112h291l-311 516l-111 19v115h705v-111l-154 -27l238 -460h4l237 450l-157 37v111h468v-111l-139 -37l-299 -502h309v-112h-350v-142h350v-112h-350v-150l189 -26v-113h-760v113l188 26v150h-348v112h348v142h-348z" />
    <glyph glyph-name="brokenbar" unicode="&#xa6;" horiz-adv-x="491" 
d="M317 -410h-143v859h143v-859zM317 641h-143v862h143v-862z" />
    <glyph glyph-name="section" unicode="&#xa7;" horiz-adv-x="1245" 
d="M311 815q0 -158 176 -340l150 -156q162 -168 162 -303q0 -104 -64 -213h21q178 102 178 299q0 86 -42 165t-134 175l-150 156q-164 170 -164 303q0 100 66 213h-21q-178 -102 -178 -299zM908 1364q100 0 160 -46t60 -104t-36 -99q-36 -40 -93 -40l-225 129
q-98 -14 -174 -41v-18q-4 -84 40 -176t167 -221l158 -166q178 -188 178 -396q0 -131 -87 -253q-87 -123 -214 -203t-265 -128q-137 -48 -239 -48t-162 46q-59 46 -59 104t36 98t93 40l225 -127q94 14 172 39q10 95 -36 191t-169 225l-157 166q-178 186 -179 395
q0 131 87 253t214 203t265 129t240 48z" />
    <glyph glyph-name="dieresis" unicode="&#xa8;" horiz-adv-x="819" 
d="M643 1198q-66 0 -113 47t-47 113t47 114t113 48t114 -48t48 -114t-48 -113t-114 -47zM174 1198q-66 0 -113 47t-47 113t47 114t113 48t113 -48t47 -114t-47 -113t-113 -47z" />
    <glyph glyph-name="copyright" unicode="&#xa9;" horiz-adv-x="1660" 
d="M895 272q-231 0 -343 112t-112 282t138 288t333 119q113 0 224 -37l12 -231h-66l-84 147q-57 31 -106 31q-84 0 -136 -72q-53 -72 -53 -212t65 -236t175 -96q29 0 53 6l101 176h69l-30 -242q-146 -35 -240 -35zM209 670q0 -260 182 -444t438 -183q256 0 439 183
q182 184 182 444t-182 443t-438 183t-439 -183q-182 -183 -182 -443zM829 -37q-295 0 -501 206t-205 502q0 295 207 501q206 206 500 206t501 -207t207 -501t-207 -501q-207 -206 -502 -206z" />
    <glyph glyph-name="ordfeminine" unicode="&#xaa;" horiz-adv-x="942" 
d="M338 778q0 -48 30 -80t73 -32q42 0 79 32v224l-51 -13q-75 -23 -103 -53t-28 -78zM303 506q-100 0 -166 62q-65 62 -65 160t62 148t183 78l203 50v51q0 193 -127 192q-47 0 -76 -12l2 -174q-53 -31 -112 -31q-100 0 -101 96q0 80 118 153t278 73t226 -73t67 -230v-349
q0 -41 13 -52t52 -11h53v-68q-121 -63 -209 -63t-122 37t-52 110h-4q-26 -43 -50 -71t-70 -52t-103 -24z" />
    <glyph glyph-name="guillemotleft" unicode="&#xab;" horiz-adv-x="1462" 
d="M1196 983l82 -70l-332 -401l332 -424l-82 -70l-526 445v76zM608 983l82 -70l-332 -401l332 -424l-82 -70l-526 445v76z" />
    <glyph glyph-name="registered" unicode="&#xae;" horiz-adv-x="1015" 
d="M457 1085h73q49 37 50 97q0 100 -123 106v-203zM248 856v53l59 11v356l-53 8v57l246 5q119 0 177 -37t58 -99q0 -90 -119 -133v-4l123 -153l49 -11v-53h-184l-63 88l-66 84h-18v-113l43 -8v-51h-252zM506 1479q-168 0 -280 -114t-113 -281q-1 -168 113 -282t281 -114
t281 114t115 282q0 168 -115 281q-114 114 -282 114zM31 1083q0 197 141 333t339 136t336 -136t138 -333t-141 -331t-339 -136q-198 0 -336 135t-138 332z" />
    <glyph glyph-name="macron" unicode="&#xaf;" horiz-adv-x="819" 
d="M113 1253v170h594v-170h-594z" />
    <glyph glyph-name="degree" unicode="&#xb0;" horiz-adv-x="628" 
d="M135 1235q0 -80 52 -136q52 -57 128 -57t128 56t53 137q0 80 -52 136t-129 56q-76 0 -128 -56t-52 -136zM10 1235q0 129 89 215t217 86t215 -86t87 -215t-88 -216t-216 -87t-216 87t-88 216z" />
    <glyph glyph-name="plusminus" unicode="&#xb1;" horiz-adv-x="1140" 
d="M1057 0h-971v139h971v-139zM1057 723h-412v-416h-147v416h-412v139h412v416h147v-416h412v-139z" />
    <glyph glyph-name="acute" unicode="&#xb4;" horiz-adv-x="819" 
d="M592 1579v-37l-238 -362h-131l96 399h273z" />
    <glyph glyph-name="paragraph" unicode="&#xb6;" 
d="M154 -113q0 78 47 124t111 46t104 -43t41 -110l-64 -137v-21q17 -18 57 -34t89 -17q123 0 191 83t67 249v1210h-185v-850h-80q-201 0 -343 142t-142 344q0 203 142 345t343 142h639v-113l-167 -28v-1131q0 -136 -43 -238t-115 -157q-143 -109 -312 -109q-170 0 -275 85
t-105 218z" />
    <glyph glyph-name="periodcentered" unicode="&#xb7;" horiz-adv-x="616" 
d="M307 373q-76 0 -130 54t-54 129t54 130t131 55t131 -55q55 -55 55 -130t-56 -129t-131 -54z" />
    <glyph glyph-name="cedilla" unicode="&#xb8;" horiz-adv-x="819" 
d="M387 -307q0 61 -72 119l129 196h109l-57 -112q61 -18 104 -62t43 -106q0 -213 -412 -281l-26 84q182 61 182 162z" />
    <glyph glyph-name="ordmasculine" unicode="&#xba;" horiz-adv-x="972" 
d="M920 935q0 -187 -122 -314t-322 -127q-198 0 -310 118t-113 303q0 183 123 311q122 128 314 128t311 -116t119 -303zM442 1245q-62 -7 -86 -105t-5 -242t69 -226t110 -72q63 8 87 106t5 240q-20 143 -68 226t-112 73z" />
    <glyph glyph-name="guillemotright" unicode="&#xbb;" horiz-adv-x="1462" 
d="M854 18l-82 70l332 401l-332 424l82 70l526 -444v-76zM266 18l-82 70l332 401l-332 424l82 70l527 -444v-76z" />
    <glyph glyph-name="onequarter" unicode="&#xbc;" horiz-adv-x="2009" 
d="M1526 328v260l-234 -260h234zM1122 170v117l492 557l186 -37v-479h168v-158h-168v-170h-274v170h-404zM535 -170l-105 64l1102 1593l104 -64zM563 1372v-710l182 -17v-100h-686v100l207 21v489h-207l-10 98l500 119h14z" />
    <glyph glyph-name="onehalf" unicode="&#xbd;" horiz-adv-x="2029" 
d="M1206 0v84l217 178q201 166 205 262q2 57 -34 93t-112 36t-192 -108l-63 67q90 115 176 171q86 57 215 57t210 -65t81 -165t-78 -173t-234 -179l-71 -49h416v-209h-736zM514 -170l-104 64l1101 1593l105 -64zM563 1372v-710l182 -17v-100h-686v100l207 21v489h-207
l-10 98l500 119h14z" />
    <glyph glyph-name="threequarters" unicode="&#xbe;" horiz-adv-x="2009" 
d="M1526 328v260l-234 -260h234zM1122 170v117l492 557l186 -37v-479h168v-158h-168v-170h-274v170h-404zM549 -170l-105 64l1102 1593l105 -64zM348 508q-141 0 -219 49t-78 133q0 45 37 81t113 44l82 -172q39 -27 100 -27t102 34t41 94t-58 100t-167 43v94l35 10
q150 45 149 139q0 37 -28 63q-29 26 -87 26t-102 -23t-108 -80l-70 64q82 106 173 155t220 49t208 -50t79 -136q0 -115 -195 -180v-10q256 -37 256 -197q0 -141 -139 -222t-344 -81z" />
    <glyph glyph-name="questiondown" unicode="&#xbf;" horiz-adv-x="831" 
d="M551 1182q70 0 120 -50t50 -119t-50 -119t-120 -50t-120 50t-50 119t50 119t120 50zM14 223q0 141 56 219t204 113l222 47v115h118l64 -365l-381 -80q-90 -24 -124 -46t-34 -54q1 -63 107 -90t364 -45l88 -6v-355l-131 23q-245 41 -399 186t-154 338z" />
    <glyph glyph-name="Agrave" unicode="&#xc0;" horiz-adv-x="1615" 
d="M465 1792h295l139 -285h-172l-262 240v45zM686 1106l-194 -537h389l-193 537h-2zM12 0v106l140 44l475 1191l151 9l164 43l506 -1258l156 -24v-111h-742v115l174 24l-98 273h-502l-88 -246l217 -51v-115h-553z" />
    <glyph glyph-name="Aacute" unicode="&#xc1;" horiz-adv-x="1615" 
d="M1141 1792v-45l-262 -240h-172l139 285h295zM686 1106l-194 -537h389l-193 537h-2zM12 0v106l140 44l475 1191l151 9l164 43l506 -1258l156 -24v-111h-742v115l174 24l-98 273h-502l-88 -246l217 -51v-115h-553z" />
    <glyph glyph-name="Acircumflex" unicode="&#xc2;" horiz-adv-x="1615" 
d="M633 1507h-144l209 285h220l217 -285h-156l-174 119zM686 1106l-194 -537h389l-193 537h-2zM12 0v106l140 44l475 1191l151 9l164 43l506 -1258l156 -24v-111h-742v115l174 24l-98 273h-502l-88 -246l217 -51v-115h-553z" />
    <glyph glyph-name="Atilde" unicode="&#xc3;" horiz-adv-x="1615" 
d="M803 1546l-55 15q-172 47 -216 18q-18 -12 -51 -78l-78 31l7 27q29 123 85 178t128 51t163 -27l56 -14q88 -25 137 -34t79 5t40 28t32 62l82 -22l-8 -35q-29 -125 -87 -181t-136 -54t-178 30zM686 1106l-194 -537h389l-193 537h-2zM12 0v106l140 44l475 1191l151 9
l164 43l506 -1258l156 -24v-111h-742v115l174 24l-98 273h-502l-88 -246l217 -51v-115h-553z" />
    <glyph glyph-name="Adieresis" unicode="&#xc4;" horiz-adv-x="1615" 
d="M1061 1470q-66 0 -113 48t-47 112q0 66 47 114t113 48t114 -48t48 -114t-48 -113t-114 -47zM551 1470q-66 0 -113 48t-47 112q0 66 47 114t113 48t113 -48t47 -114t-47 -113t-113 -47zM686 1106l-194 -537h389l-193 537h-2zM12 0v106l140 44l475 1191l151 9l164 43
l506 -1258l156 -24v-111h-742v115l174 24l-98 273h-502l-88 -246l217 -51v-115h-553z" />
    <glyph glyph-name="Aring" unicode="&#xc5;" horiz-adv-x="1615" 
d="M680 1694q0 -56 37 -94t90 -38t90 38q37 36 37 94t-37 94q-37 37 -90 37t-90 -37t-37 -94zM559 1693q0 103 72 173t176 70t176 -70q72 -68 72 -171t-72 -173t-176 -70t-176 69t-72 172zM686 1106l-194 -537h389l-193 537h-2zM12 0v106l140 44l475 1191l151 9l164 43
l506 -1258l156 -24v-111h-742v115l174 24l-98 273h-502l-88 -246l217 -51v-115h-553z" />
    <glyph glyph-name="AE" unicode="&#xc6;" horiz-adv-x="2185" 
d="M999 1235h-47l-303 -526h350v526zM1374 584v-445h453l182 303h107l-72 -442h-1221v113l176 26v447h-415l-215 -418l215 -53v-115h-572v106l140 44l604 1054l-232 43v113h1315l205 14v-403h-107l-106 264h-457v-526h238l53 174h98v-461h-102l-49 162h-238z" />
    <glyph glyph-name="Ccedilla" unicode="&#xc7;" horiz-adv-x="1486" 
d="M74 614q0 342 249 566t613 223q219 0 428 -111l12 -374h-108l-138 296q-94 53 -194 54q-186 0 -314 -144t-128 -412q0 -270 132 -437t330 -166q102 0 189 43l174 319h111l-50 -389q-246 -113 -520 -119l-45 -88q61 -18 105 -62t43 -106q0 -212 -412 -280l-27 84
q182 61 183 161q0 61 -72 119l115 174q-172 13 -306 71q-244 107 -330 349q-40 109 -40 229z" />
    <glyph glyph-name="Egrave" unicode="&#xc8;" horiz-adv-x="1441" 
d="M416 1792h295l139 -285h-172l-262 240v45zM629 629v-490h454l183 303h106l-72 -442h-1232v113l178 26v1080l-168 28v113h1018l204 14v-403h-106l-107 264h-458v-481h239l54 174h98v-461h-102l-50 162h-239z" />
    <glyph glyph-name="Eacute" unicode="&#xc9;" horiz-adv-x="1441" 
d="M1092 1792v-45l-263 -240h-172l140 285h295zM629 629v-490h454l183 303h106l-72 -442h-1232v113l178 26v1080l-168 28v113h1018l204 14v-403h-106l-107 264h-458v-481h239l54 174h98v-461h-102l-50 162h-239z" />
    <glyph glyph-name="Ecircumflex" unicode="&#xca;" horiz-adv-x="1441" 
d="M584 1507h-144l209 285h219l217 -285h-155l-174 119zM629 629v-490h454l183 303h106l-72 -442h-1232v113l178 26v1080l-168 28v113h1018l204 14v-403h-106l-107 264h-458v-481h239l54 174h98v-461h-102l-50 162h-239z" />
    <glyph glyph-name="Edieresis" unicode="&#xcb;" horiz-adv-x="1441" 
d="M1001 1470q-67 0 -113 48t-46 112q0 66 47 114t113 48t113 -48q48 -48 48 -114t-48 -113t-114 -47zM492 1470q-66 0 -113 48t-47 112q0 66 47 114t113 48t112 -48t47 -114q-1 -66 -47 -113t-112 -47zM629 629v-490h454l183 303h106l-72 -442h-1232v113l178 26v1080
l-168 28v113h1018l204 14v-403h-106l-107 264h-458v-481h239l54 174h98v-461h-102l-50 162h-239z" />
    <glyph glyph-name="Igrave" unicode="&#xcc;" horiz-adv-x="854" 
d="M84 1792h295l139 -285h-172l-262 240v45zM57 0v113l179 26v1080l-168 28v113h718v-113l-168 -28v-1080l179 -26v-113h-740z" />
    <glyph glyph-name="Iacute" unicode="&#xcd;" horiz-adv-x="854" 
d="M760 1792v-45l-262 -240h-172l139 285h295zM57 0v113l179 26v1080l-168 28v113h718v-113l-168 -28v-1080l179 -26v-113h-740z" />
    <glyph glyph-name="Icircumflex" unicode="&#xce;" horiz-adv-x="854" 
d="M252 1507h-143l208 285h220l217 -285h-156l-174 119zM57 0v113l179 26v1080l-168 28v113h718v-113l-168 -28v-1080l179 -26v-113h-740z" />
    <glyph glyph-name="Idieresis" unicode="&#xcf;" horiz-adv-x="854" 
d="M680 1470q-66 0 -113 48t-47 112q0 66 47 114t113 48t114 -48t48 -114t-48 -113t-114 -47zM170 1470q-66 0 -113 48t-47 112q0 66 47 114t113 48t113 -48t47 -114t-47 -113t-113 -47zM57 0v113l179 26v1080l-168 28v113h718v-113l-168 -28v-1080l179 -26v-113h-740z" />
    <glyph glyph-name="Eth" unicode="&#xd0;" horiz-adv-x="1667" 
d="M870 627h-258l2 -422q2 -43 44 -73t135 -28q176 2 279 160t104 385q0 330 -159 472t-405 126v-487h258v-133zM236 627h-193v133h193v459l-168 28v113l737 10q358 4 576 -175t218 -460q1 -356 -251 -553t-646 -190l-645 8v113l179 26v488z" />
    <glyph glyph-name="Ntilde" unicode="&#xd1;" horiz-adv-x="1701" 
d="M850 1546l-55 15q-160 37 -194 27t-66 -75q-4 -8 -7 -12l-77 31l6 27q29 123 85 178t128 51t164 -27l55 -14q88 -25 137 -34t79 5t40 28t33 62l82 -22l-9 -35q-29 -125 -87 -181t-136 -54t-178 30zM692 0h-635v113l179 39l2 1034l-183 63v111h516l752 -895l-6 725
l-285 63v107h623v-113l-168 -45v-1044l6 -158h-272l-824 977l11 -813l284 -58v-106z" />
    <glyph glyph-name="Ograve" unicode="&#xd2;" horiz-adv-x="1613" 
d="M465 1792h295l139 -285h-172l-262 240v45zM818 1403q314 1 518 -189t204 -515t-218 -533t-530 -209q-312 0 -516 190q-202 190 -202 517t215 533t529 206zM489 711q1 -263 99 -439t235 -176t219 146t82 405q0 258 -94 438t-252 181q-131 0 -210 -146t-79 -409z" />
    <glyph glyph-name="Oacute" unicode="&#xd3;" horiz-adv-x="1613" 
d="M1141 1792v-45l-262 -240h-172l139 285h295zM818 1403q314 1 518 -189t204 -515t-218 -533t-530 -209q-312 0 -516 190q-202 190 -202 517t215 533t529 206zM489 711q1 -263 99 -439t235 -176t219 146t82 405q0 258 -94 438t-252 181q-131 0 -210 -146t-79 -409z" />
    <glyph glyph-name="Ocircumflex" unicode="&#xd4;" horiz-adv-x="1613" 
d="M633 1507h-144l209 285h220l217 -285h-156l-174 119zM818 1403q314 1 518 -189t204 -515t-218 -533t-530 -209q-312 0 -516 190q-202 190 -202 517t215 533t529 206zM489 711q1 -263 99 -439t235 -176t219 146t82 405q0 258 -94 438t-252 181q-131 0 -210 -146t-79 -409z
" />
    <glyph glyph-name="Otilde" unicode="&#xd5;" horiz-adv-x="1613" 
d="M803 1546l-55 15q-172 47 -216 18q-18 -12 -51 -78l-78 31l7 27q29 123 85 178t128 51t163 -27l56 -14q88 -25 137 -34t79 5t40 28t32 62l82 -22l-8 -35q-29 -125 -87 -181t-136 -54t-178 30zM818 1403q314 1 518 -189t204 -515t-218 -533t-530 -209q-312 0 -516 190
q-202 190 -202 517t215 533t529 206zM489 711q1 -263 99 -439t235 -176t219 146t82 405q0 258 -94 438t-252 181q-131 0 -210 -146t-79 -409z" />
    <glyph glyph-name="Odieresis" unicode="&#xd6;" horiz-adv-x="1613" 
d="M1061 1470q-66 0 -113 48t-47 112q0 66 47 114t113 48t114 -48t48 -114t-48 -113t-114 -47zM551 1470q-66 0 -113 48t-47 112q0 66 47 114t113 48t113 -48t47 -114t-47 -113t-113 -47zM818 1403q314 1 518 -189t204 -515t-218 -533t-530 -209q-312 0 -516 190
q-202 190 -202 517t215 533t529 206zM489 711q1 -263 99 -439t235 -176t219 146t82 405q0 258 -94 438t-252 181q-131 0 -210 -146t-79 -409z" />
    <glyph glyph-name="multiply" unicode="&#xd7;" horiz-adv-x="1142" 
d="M930 14l-369 371l-360 -367l-97 97l369 370l-369 369l101 100l366 -368l369 379l94 -99l-366 -372l368 -371z" />
    <glyph glyph-name="Oslash" unicode="&#xd8;" horiz-adv-x="1613" 
d="M786 1268q-141 0 -225 -155t-84 -437q0 -123 25 -234l563 607q-49 103 -122 161t-157 58zM1143 655q0 152 -35 279l-567 -610q100 -238 297 -238q150 0 228 152t77 417zM76 657q0 328 216 537t517 209q262 0 455 -141l135 145h149l-200 -217q190 -195 190 -488
q0 -338 -214 -542t-525 -203q-266 0 -461 147l-158 -170h-149l225 242q-180 190 -180 481z" />
    <glyph glyph-name="Ugrave" unicode="&#xd9;" horiz-adv-x="1601" 
d="M520 1792h295l139 -285h-172l-262 240v45zM1405 600q1 -299 -143 -471t-454 -172t-460 141t-149 451v670l-168 28v113h712v-113l-161 -28v-699q0 -180 80 -278t240 -98t244 106q85 106 83 313l-6 631l-258 59v107h606v-113l-166 -43v-604z" />
    <glyph glyph-name="Uacute" unicode="&#xda;" horiz-adv-x="1601" 
d="M1196 1792v-45l-262 -240h-172l139 285h295zM1405 600q1 -299 -143 -471t-454 -172t-460 141t-149 451v670l-168 28v113h712v-113l-161 -28v-699q0 -180 80 -278t240 -98t244 106q85 106 83 313l-6 631l-258 59v107h606v-113l-166 -43v-604z" />
    <glyph glyph-name="Ucircumflex" unicode="&#xdb;" horiz-adv-x="1601" 
d="M688 1507h-143l209 285h219l217 -285h-156l-174 119zM1405 600q1 -299 -143 -471t-454 -172t-460 141t-149 451v670l-168 28v113h712v-113l-161 -28v-699q0 -180 80 -278t240 -98t244 106q85 106 83 313l-6 631l-258 59v107h606v-113l-166 -43v-604z" />
    <glyph glyph-name="Udieresis" unicode="&#xdc;" horiz-adv-x="1601" 
d="M1116 1470q-66 0 -112 48t-48 112q0 66 48 114t112 48q66 0 114 -48t48 -114t-48 -113t-114 -47zM606 1470q-66 0 -112 48t-48 112q0 66 48 114t112 48q66 0 113 -48t47 -114t-47 -113t-113 -47zM1405 600q1 -299 -143 -471t-454 -172t-460 141t-149 451v670l-168 28v113
h712v-113l-161 -28v-699q0 -180 80 -278t240 -98t244 106q85 106 83 313l-6 631l-258 59v107h606v-113l-166 -43v-604z" />
    <glyph glyph-name="Yacute" unicode="&#xdd;" horiz-adv-x="1447" 
d="M1167 1792v-45l-262 -240h-172l139 285h295zM1104 0h-760v113l188 26v359l-389 729l-131 18v115h746v-111l-174 -26l247 -547l273 536l-178 37v111h510v-111l-160 -37l-361 -641v-432l189 -26v-113z" />
    <glyph glyph-name="Thorn" unicode="&#xde;" horiz-adv-x="1402" 
d="M57 0v113l179 26v1080l-168 28v113h718v-113l-168 -28v-150h39q341 2 523 -97t182 -284q0 -137 -106 -233t-251 -133q-146 -37 -303 -25v84q281 63 281 281q0 124 -102 210t-263 86v-819l179 -26v-113h-740z" />
    <glyph glyph-name="germandbls" unicode="&#xdf;" horiz-adv-x="1454" 
d="M37 0v113l139 24v744h-139v108l143 47q45 238 217 365t439 127q178 0 300 -86t121 -217q1 -61 -31 -115t-62 -78q-30 -25 -89 -65t-83 -65q-25 -25 -25 -50q0 -57 131 -137l86 -53q106 -66 155 -134t50 -163q1 -164 -139 -284t-349 -120q-117 0 -258 66l-4 321h94
l70 -233q61 -37 127 -37t106 43t41 100q0 57 -26 94q-27 37 -86 72l-125 78q-152 96 -152 217q0 98 143 236q82 76 118 133t36 149t-63 148t-160 57q-98 0 -164 -81t-66 -232l-4 -1092h-491z" />
    <glyph glyph-name="agrave" unicode="&#xe0;" horiz-adv-x="1187" 
d="M291 1579h270l98 -399h-131l-237 362v37zM554 174q58 0 105 47v281l-77 -21q-94 -27 -131 -65t-37 -98q0 -62 41 -103t99 -41zM375 -27q-129 0 -216 79t-87 203q0 123 84 189t243 103l260 59v66q0 244 -170 243q-57 0 -98 -18v-219q-80 -33 -153 -33q-129 0 -129 119
q0 98 157 189q158 91 362 91t296 -91q90 -91 90 -283v-449q0 -53 17 -66t67 -14h73v-86q-166 -82 -278 -82q-113 1 -157 49t-64 140h-8q-34 -47 -52 -69q-66 -83 -137 -105q-45 -15 -100 -15z" />
    <glyph glyph-name="aacute" unicode="&#xe1;" horiz-adv-x="1187" 
d="M885 1579v-37l-238 -362h-131l96 399h273zM554 174q58 0 105 47v281l-77 -21q-94 -27 -131 -65t-37 -98q0 -62 41 -103t99 -41zM375 -27q-129 0 -216 79t-87 203q0 123 84 189t243 103l260 59v66q0 244 -170 243q-57 0 -98 -18v-219q-80 -33 -153 -33q-129 0 -129 119
q0 98 157 189q158 91 362 91t296 -91q90 -91 90 -283v-449q0 -53 17 -66t67 -14h73v-86q-166 -82 -278 -82q-113 1 -157 49t-64 140h-8q-34 -47 -52 -69q-66 -83 -137 -105q-45 -15 -100 -15z" />
    <glyph glyph-name="acircumflex" unicode="&#xe2;" horiz-adv-x="1187" 
d="M426 1180h-123l199 399h194l199 -399h-139l-166 180zM554 174q58 0 105 47v281l-77 -21q-94 -27 -131 -65t-37 -98q0 -62 41 -103t99 -41zM375 -27q-129 0 -216 79t-87 203q0 123 84 189t243 103l260 59v66q0 244 -170 243q-57 0 -98 -18v-219q-80 -33 -153 -33
q-129 0 -129 119q0 98 157 189q158 91 362 91t296 -91q90 -91 90 -283v-449q0 -53 17 -66t67 -14h73v-86q-166 -82 -278 -82q-113 1 -157 49t-64 140h-8q-34 -47 -52 -69q-66 -83 -137 -105q-45 -15 -100 -15z" />
    <glyph glyph-name="atilde" unicode="&#xe3;" horiz-adv-x="1187" 
d="M590 1223l-55 16q-150 45 -185 39q-51 -8 -84 -94l-78 41l11 26q47 121 100 175t118 58t152 -24l56 -16q137 -49 196 -42t97 103l77 -41l-10 -30q-72 -186 -163 -225t-232 14zM554 174q58 0 105 47v281l-77 -21q-94 -27 -131 -65t-37 -98q0 -62 41 -103t99 -41zM375 -27
q-129 0 -216 79t-87 203q0 123 84 189t243 103l260 59v66q0 244 -170 243q-57 0 -98 -18v-219q-80 -33 -153 -33q-129 0 -129 119q0 98 157 189q158 91 362 91t296 -91q90 -91 90 -283v-449q0 -53 17 -66t67 -14h73v-86q-166 -82 -278 -82q-113 1 -157 49t-64 140h-8
q-34 -47 -52 -69q-66 -83 -137 -105q-45 -15 -100 -15z" />
    <glyph glyph-name="adieresis" unicode="&#xe4;" horiz-adv-x="1187" 
d="M825 1198q-67 0 -113 47t-46 113t47 114t113 48t113 -48q48 -48 48 -114t-48 -113t-114 -47zM356 1198q-66 0 -112 47t-47 113q0 66 47 114q46 48 112 48t113 -48t47 -114t-47 -113t-113 -47zM554 174q58 0 105 47v281l-77 -21q-94 -27 -131 -65t-37 -98q0 -62 41 -103
t99 -41zM375 -27q-129 0 -216 79t-87 203q0 123 84 189t243 103l260 59v66q0 244 -170 243q-57 0 -98 -18v-219q-80 -33 -153 -33q-129 0 -129 119q0 98 157 189q158 91 362 91t296 -91q90 -91 90 -283v-449q0 -53 17 -66t67 -14h73v-86q-166 -82 -278 -82q-113 1 -157 49
t-64 140h-8q-34 -47 -52 -69q-66 -83 -137 -105q-45 -15 -100 -15z" />
    <glyph glyph-name="aring" unicode="&#xe5;" horiz-adv-x="1187" 
d="M465 1380q0 -57 37 -94t90 -37t90 37t37 94q0 56 -37 94t-90 38t-90 -38q-37 -37 -37 -94zM344 1379q0 103 72 173t176 70t176 -69t72 -172t-72 -173t-176 -70t-176 70q-72 68 -72 171zM554 174q58 0 105 47v281l-77 -21q-94 -27 -131 -65t-37 -98q0 -62 41 -103t99 -41z
M375 -27q-129 0 -216 79t-87 203q0 123 84 189t243 103l260 59v66q0 244 -170 243q-57 0 -98 -18v-219q-80 -33 -153 -33q-129 0 -129 119q0 98 157 189q158 91 362 91t296 -91q90 -91 90 -283v-449q0 -53 17 -66t67 -14h73v-86q-166 -82 -278 -82q-113 1 -157 49t-64 140
h-8q-34 -47 -52 -69q-66 -83 -137 -105q-45 -15 -100 -15z" />
    <glyph glyph-name="ae" unicode="&#xe6;" horiz-adv-x="1695" 
d="M1149 918q-68 0 -120 -75t-54 -198l315 33q0 112 -36 176t-105 64zM557 176q92 0 143 82q-41 106 -41 227v17l-67 -17q-90 -23 -134 -59t-44 -104q0 -66 41 -106t102 -40zM377 -27q-139 0 -222 82t-83 202q0 121 83 187t244 103l260 57v68q0 244 -170 243q-43 0 -98 -18
v-219q-80 -33 -144 -33q-140 0 -138 117q0 102 155 192q156 90 330 90q223 0 315 -139q119 145 299 146q134 0 230 -70q171 -125 180 -373q-59 -12 -643 -63v-41q33 -141 123 -216t225 -75q73 0 137 26t92 52l27 24l51 -61q-42 -61 -72 -97t-88 -87q-116 -101 -323 -101
q-289 0 -412 219q-61 -66 -103 -104t-114 -74q-72 -37 -141 -37z" />
    <glyph glyph-name="ccedilla" unicode="&#xe7;" horiz-adv-x="1036" 
d="M438 -328q0 61 -71 119l118 182q-197 19 -311 159t-115 337q0 264 172 423t410 159q154 0 244 -77t90 -179q0 -74 -44 -114t-122 -40l-100 10l-29 258q-43 14 -78 15q-106 0 -160 -94t-55 -199q0 -201 94 -304t236 -104q57 0 115 24t90 46l28 22l47 -61
q-86 -127 -180 -199t-221 -84l-49 -96q61 -18 104 -62t43 -106q1 -212 -411 -280l-27 84q182 61 182 161z" />
    <glyph glyph-name="egrave" unicode="&#xe8;" horiz-adv-x="1136" 
d="M297 1579h270l99 -399h-131l-238 362v37zM559 918q-74 0 -126 -68t-58 -191h346q0 259 -162 259zM567 -31q-246 -1 -377 147t-131 353q0 266 175 424q174 158 390 158q216 1 326 -145t115 -376h-682q25 -160 123 -238t237 -79q72 0 142 26t102 52l33 24l51 -61
q-51 -66 -81 -98q-114 -124 -238 -162q-83 -25 -185 -25z" />
    <glyph glyph-name="eacute" unicode="&#xe9;" horiz-adv-x="1136" 
d="M891 1579v-37l-238 -362h-131l96 399h273zM559 918q-74 0 -126 -68t-58 -191h346q0 259 -162 259zM567 -31q-246 -1 -377 147t-131 353q0 266 175 424q174 158 390 158q216 1 326 -145t115 -376h-682q25 -160 123 -238t237 -79q72 0 142 26t102 52l33 24l51 -61
q-51 -66 -81 -98q-114 -124 -238 -162q-83 -25 -185 -25z" />
    <glyph glyph-name="ecircumflex" unicode="&#xea;" horiz-adv-x="1136" 
d="M432 1180h-123l199 399h194l199 -399h-139l-166 180zM559 918q-74 0 -126 -68t-58 -191h346q0 259 -162 259zM567 -31q-246 -1 -377 147t-131 353q0 266 175 424q174 158 390 158q216 1 326 -145t115 -376h-682q25 -160 123 -238t237 -79q72 0 142 26t102 52l33 24
l51 -61q-51 -66 -81 -98q-114 -124 -238 -162q-83 -25 -185 -25z" />
    <glyph glyph-name="edieresis" unicode="&#xeb;" horiz-adv-x="1136" 
d="M831 1198q-67 0 -113 47t-46 113t47 114t113 48t113 -48q48 -48 48 -114t-48 -113t-114 -47zM362 1198q-66 0 -112 47t-47 113q0 66 47 114q46 48 112 48t113 -48t47 -114t-47 -113t-113 -47zM559 918q-74 0 -126 -68t-58 -191h346q0 259 -162 259zM567 -31
q-246 -1 -377 147t-131 353q0 266 175 424q174 158 390 158q216 1 326 -145t115 -376h-682q25 -160 123 -238t237 -79q72 0 142 26t102 52l33 24l51 -61q-51 -66 -81 -98q-114 -124 -238 -162q-83 -25 -185 -25z" />
    <glyph glyph-name="igrave" unicode="&#xec;" horiz-adv-x="700" 
d="M45 1610h270l99 -400h-131l-238 363v37zM37 0v113l139 24v674l-139 27v112l493 101v-914l125 -24v-113h-618z" />
    <glyph glyph-name="iacute" unicode="&#xed;" horiz-adv-x="700" 
d="M639 1610v-37l-238 -363h-131l97 400h272zM37 0v113l139 24v674l-139 27v112l493 101v-914l125 -24v-113h-618z" />
    <glyph glyph-name="icircumflex" unicode="&#xee;" horiz-adv-x="700" 
d="M180 1210h-123l199 400h195l198 -400h-139l-166 181zM37 0v113l139 24v674l-139 27v112l493 101v-914l125 -24v-113h-618z" />
    <glyph glyph-name="idieresis" unicode="&#xef;" horiz-adv-x="700" 
d="M37 0v113l139 24v674l-139 27v112l493 101v-914l125 -24v-113h-618zM549 1202q-66 0 -112 46t-46 110t46 110q46 48 112 48q65 0 111 -48t46 -110q0 -64 -45 -110q-46 -46 -112 -46zM299 1358q0 -64 -46 -110q-47 -46 -111 -46t-110 46t-46 111t46 111t109 46t111 -48
t47 -110z" />
    <glyph glyph-name="eth" unicode="&#xf0;" horiz-adv-x="1253" 
d="M430 588q0 -194 68 -344t168 -150t133 116q28 98 28 273t-57 336q-76 99 -157 99t-132 -68t-51 -262zM1190 559q0 -287 -162 -441t-416 -155t-404 147q-151 148 -151 379q0 127 49 231t128 166q165 130 350 130q47 0 100 -17q-76 121 -190 232l-299 -131l-45 94l256 113
q-80 66 -242 178l45 74q209 -70 393 -166l309 137l45 -96l-241 -107q475 -301 475 -768z" />
    <glyph glyph-name="ntilde" unicode="&#xf1;" horiz-adv-x="1372" 
d="M678 1223l-55 16q-150 45 -185 39q-51 -8 -84 -94l-78 41l11 26q47 121 100 175t118 58t152 -24l56 -16q137 -49 196 -42t97 103l77 -41l-10 -30q-72 -186 -163 -225t-232 14zM850 612q0 228 -193 226q-72 -2 -127 -35v-666l113 -26v-111h-606v111l139 26v674l-139 27
v102l418 115h10l45 -181h4q160 176 346 177q344 0 344 -342v-572l142 -26v-111h-605v113l109 24v475z" />
    <glyph glyph-name="ograve" unicode="&#xf2;" horiz-adv-x="1232" 
d="M315 1579h271l98 -399h-131l-238 362v37zM622 1047q248 1 405 -145t157 -382t-162 -396t-418 -161q-256 0 -406 152t-149 381q0 229 163 390q162 161 410 161zM443 782q-34 -119 -10 -303q24 -183 86 -289t151 -94q86 10 120 129t11 303q-25 184 -87 290t-151 93
q-86 -10 -120 -129z" />
    <glyph glyph-name="oacute" unicode="&#xf3;" horiz-adv-x="1232" 
d="M909 1579v-37l-237 -362h-131l96 399h272zM622 1047q248 1 405 -145t157 -382t-162 -396t-418 -161q-256 0 -406 152t-149 381q0 229 163 390q162 161 410 161zM443 782q-34 -119 -10 -303q24 -183 86 -289t151 -94q86 10 120 129t11 303q-25 184 -87 290t-151 93
q-86 -10 -120 -129z" />
    <glyph glyph-name="ocircumflex" unicode="&#xf4;" horiz-adv-x="1232" 
d="M451 1180h-123l198 399h195l199 -399h-140l-166 180zM622 1047q248 1 405 -145t157 -382t-162 -396t-418 -161q-256 0 -406 152t-149 381q0 229 163 390q162 161 410 161zM443 782q-34 -119 -10 -303q24 -183 86 -289t151 -94q86 10 120 129t11 303q-25 184 -87 290
t-151 93q-86 -10 -120 -129z" />
    <glyph glyph-name="otilde" unicode="&#xf5;" horiz-adv-x="1232" 
d="M614 1223l-55 16q-150 45 -184 39q-51 -8 -84 -94l-78 41l10 26q87 225 218 233q65 3 153 -24l55 -16q137 -49 197 -42q59 7 96 103l78 -41l-10 -30q-72 -186 -163 -226q-92 -38 -233 15zM622 1047q248 1 405 -145t157 -382t-162 -396t-418 -161q-256 0 -406 152
t-149 381q0 229 163 390q162 161 410 161zM443 782q-34 -119 -10 -303q24 -183 86 -289t151 -94q86 10 120 129t11 303q-25 184 -87 290t-151 93q-86 -10 -120 -129z" />
    <glyph glyph-name="odieresis" unicode="&#xf6;" horiz-adv-x="1232" 
d="M850 1198q-66 0 -113 47t-47 113t47 114t113 48t114 -48t48 -114t-48 -113t-114 -47zM381 1198q-66 0 -113 47t-47 113t47 114t113 48t113 -48t47 -114t-47 -113t-113 -47zM622 1047q248 1 405 -145t157 -382t-162 -396t-418 -161q-256 0 -406 152t-149 381
q0 229 163 390q162 161 410 161zM443 782q-34 -119 -10 -303q24 -183 86 -289t151 -94q86 10 120 129t11 303q-25 184 -87 290t-151 93q-86 -10 -120 -129z" />
    <glyph glyph-name="divide" unicode="&#xf7;" horiz-adv-x="1142" 
d="M571 643q-69 0 -119 51t-50 120t50 120t120 51t120 -51q51 -51 51 -120t-51 -120t-121 -51zM569 -16q-69 0 -119 51t-50 120t50 119t120 52q70 0 120 -52q51 -52 51 -120t-51 -119t-121 -51zM1057 418h-971v135h971v-135z" />
    <glyph glyph-name="oslash" unicode="&#xf8;" horiz-adv-x="1232" 
d="M647 94q51 0 88 34q86 79 86 312q0 109 -18 199l-342 -391q69 -154 186 -154zM408 589q0 -138 18 -229l346 394q-66 160 -186 159q-84 0 -131 -93t-47 -231zM49 490q0 234 163 396q163 161 404 161q186 0 334 -89l115 132h133l-168 -193q154 -147 154 -380t-162 -393
t-406 -161q-193 0 -331 84l-115 -133h-133l168 192q-156 150 -156 384z" />
    <glyph glyph-name="ugrave" unicode="&#xf9;" horiz-adv-x="1363" 
d="M385 1579h270l99 -399h-131l-238 362v37zM168 291v565l-139 27v102l493 55v-645q0 -215 160 -215q96 0 152 51v623l-152 27v104l506 55v-862l141 -28v-109l-379 -76l-96 189q-131 -184 -346 -185q-84 0 -156 26q-72 25 -128 101t-56 195z" />
    <glyph glyph-name="uacute" unicode="&#xfa;" horiz-adv-x="1363" 
d="M979 1579v-37l-238 -362h-131l97 399h272zM168 291v565l-139 27v102l493 55v-645q0 -215 160 -215q96 0 152 51v623l-152 27v104l506 55v-862l141 -28v-109l-379 -76l-96 189q-131 -184 -346 -185q-84 0 -156 26q-72 25 -128 101t-56 195z" />
    <glyph glyph-name="ucircumflex" unicode="&#xfb;" horiz-adv-x="1363" 
d="M520 1180h-123l199 399h195l198 -399h-139l-166 180zM168 291v565l-139 27v102l493 55v-645q0 -215 160 -215q96 0 152 51v623l-152 27v104l506 55v-862l141 -28v-109l-379 -76l-96 189q-131 -184 -346 -185q-84 0 -156 26q-72 25 -128 101t-56 195z" />
    <glyph glyph-name="udieresis" unicode="&#xfc;" horiz-adv-x="1363" 
d="M920 1198q-66 0 -113 47t-47 113t47 114t113 48t114 -48t47 -114q1 -66 -47 -113t-114 -47zM451 1198q-66 0 -113 47t-47 113t47 114t113 48q67 0 113 -48t46 -114t-46 -113t-113 -47zM168 291v565l-139 27v102l493 55v-645q0 -215 160 -215q96 0 152 51v623l-152 27v104
l506 55v-862l141 -28v-109l-379 -76l-96 189q-131 -184 -346 -185q-84 0 -156 26q-72 25 -128 101t-56 195z" />
    <glyph glyph-name="yacute" unicode="&#xfd;" horiz-adv-x="1167" 
d="M981 1579v-37l-238 -362h-131l97 399h272zM756 1012h399v-119l-86 -19l-424 -1071q-81 -203 -145 -273t-162 -69t-158 53t-61 131q0 79 46 123t120 44q96 0 161 -119h11l71 166l-430 1015l-86 21v117h604v-119l-133 -19l203 -591h10l201 577l-141 33v119z" />
    <glyph glyph-name="thorn" unicode="&#xfe;" horiz-adv-x="1273" 
d="M596 838q-47 0 -109 -29v-631q55 -82 157 -82t165 94t63 268t-72 276q-72 104 -204 104zM1223 556q0 -245 -175 -416t-440 -171q-57 0 -121 19v-342l244 -27v-111h-737v111l139 27v1679l-145 35v106l499 62v-639q141 153 309 153t298 -120q129 -120 129 -366z" />
    <glyph glyph-name="ydieresis" unicode="&#xff;" horiz-adv-x="1167" 
d="M922 1198q-66 0 -113 47t-47 113t47 114t113 48t114 -48t47 -114q1 -66 -47 -113t-114 -47zM453 1198q-66 0 -113 47t-47 113t47 114t113 48q67 0 113 -48t46 -114t-46 -113t-113 -47zM756 1012h399v-119l-86 -19l-424 -1071q-81 -203 -145 -273t-162 -69t-158 53
t-61 131q0 79 46 123t120 44q96 0 161 -119h11l71 166l-430 1015l-86 21v117h604v-119l-133 -19l203 -591h10l201 577l-141 33v119z" />
    <glyph glyph-name="Amacron" unicode="&#x100;" horiz-adv-x="1615" 
d="M510 1556v164h594v-164h-594zM686 1106l-194 -537h389l-193 537h-2zM12 0v106l140 44l475 1191l151 9l164 43l506 -1258l156 -24v-111h-742v115l174 24l-98 273h-502l-88 -246l217 -51v-115h-553z" />
    <glyph glyph-name="amacron" unicode="&#x101;" horiz-adv-x="1187" 
d="M295 1253v170h594v-170h-594zM554 174q58 0 105 47v281l-77 -21q-94 -27 -131 -65t-37 -98q0 -62 41 -103t99 -41zM375 -27q-129 0 -216 79t-87 203q0 123 84 189t243 103l260 59v66q0 244 -170 243q-57 0 -98 -18v-219q-80 -33 -153 -33q-129 0 -129 119q0 98 157 189
q158 91 362 91t296 -91q90 -91 90 -283v-449q0 -53 17 -66t67 -14h73v-86q-166 -82 -278 -82q-113 1 -157 49t-64 140h-8q-34 -47 -52 -69q-66 -83 -137 -105q-45 -15 -100 -15z" />
    <glyph glyph-name="Abreve" unicode="&#x102;" horiz-adv-x="1615" 
d="M803 1483q-154 0 -229 92t-78 223h110q55 -127 208 -127t200 127h106q-6 -131 -84 -223t-233 -92zM686 1106l-194 -537h389l-193 537h-2zM12 0v106l140 44l475 1191l151 9l164 43l506 -1258l156 -24v-111h-742v115l174 24l-98 273h-502l-88 -246l217 -51v-115h-553z" />
    <glyph glyph-name="abreve" unicode="&#x103;" horiz-adv-x="1187" 
d="M879 1493q1 -145 -73 -239t-222 -95q-148 0 -214 94q-65 94 -65 240h111q33 -156 178 -156t178 156h107zM554 174q58 0 105 47v281l-77 -21q-94 -27 -131 -65t-37 -98q0 -62 41 -103t99 -41zM375 -27q-129 0 -216 79t-87 203q0 123 84 189t243 103l260 59v66
q0 244 -170 243q-57 0 -98 -18v-219q-80 -33 -153 -33q-129 0 -129 119q0 98 157 189q158 91 362 91t296 -91q90 -91 90 -283v-449q0 -53 17 -66t67 -14h73v-86q-166 -82 -278 -82q-113 1 -157 49t-64 140h-8q-34 -47 -52 -69q-66 -83 -137 -105q-45 -15 -100 -15z" />
    <glyph glyph-name="Aogonek" unicode="&#x104;" horiz-adv-x="1615" 
d="M686 1106l-194 -537h389l-193 537h-2zM12 0v106l140 44l475 1191l151 9l164 43l506 -1258l156 -24v-111h-435q-203 -96 -202 -231q1 -51 35 -82t80 -31t85 22t97 74l51 -47q-41 -63 -61 -91t-63 -76q-80 -87 -198 -88q-118 0 -186 60t-68 145t64 165t256 252l-123 340
h-500l-88 -246l217 -51v-115h-553z" />
    <glyph glyph-name="aogonek" unicode="&#x105;" horiz-adv-x="1187" 
d="M554 174q58 0 105 47v281l-77 -21q-94 -27 -131 -65t-37 -98q0 -62 41 -103t99 -41zM1171 141v-86q-217 -94 -287 -151q-70 -58 -71 -112q0 -54 29 -85t73 -31q80 0 187 97l51 -47q-41 -64 -60 -92t-63 -76q-83 -88 -200 -88t-183 60q-65 60 -65 152t61 152
q61 61 203 137v9q-84 8 -123 54t-51 128h-8q-63 -84 -107 -126q-66 -61 -188 -62q-123 -1 -210 78t-87 203q0 123 84 189t243 103l260 59v66q0 244 -170 243q-57 0 -98 -18v-219q-80 -33 -153 -33q-129 0 -129 119q0 98 158 189q159 91 363 91t294 -91t90 -283v-449
q0 -53 17 -66t67 -14h73z" />
    <glyph glyph-name="Cacute" unicode="&#x106;" horiz-adv-x="1486" 
d="M1229 1792v-45l-262 -240h-172l139 285h295zM831 -37q-195 0 -345 55q-150 54 -236 148q-176 188 -176 448q0 342 249 566t613 223q219 0 428 -111l12 -374h-108l-138 296q-94 53 -194 54q-186 0 -314 -144t-128 -412q0 -270 132 -437t330 -166q102 0 189 43l174 319h111
l-50 -389q-260 -119 -549 -119z" />
    <glyph glyph-name="cacute" unicode="&#x107;" horiz-adv-x="1036" 
d="M879 1579v-37l-238 -362h-131l96 399h273zM553 -31q-227 -1 -360 143t-134 357q0 264 172 423t410 159q154 0 244 -77t90 -179q0 -74 -44 -114t-122 -40l-100 10l-29 258q-43 14 -78 15q-106 0 -160 -94t-55 -199q0 -201 94 -304t236 -104q57 0 115 24t90 46l28 22
l47 -61q-95 -139 -197 -212t-247 -73z" />
    <glyph glyph-name="Ccircumflex" unicode="&#x108;" horiz-adv-x="1486" 
d="M721 1507h-143l208 285h220l217 -285h-156l-174 119zM831 -37q-195 0 -345 55q-150 54 -236 148q-176 188 -176 448q0 342 249 566t613 223q219 0 428 -111l12 -374h-108l-138 296q-94 53 -194 54q-186 0 -314 -144t-128 -412q0 -270 132 -437t330 -166q102 0 189 43
l174 319h111l-50 -389q-260 -119 -549 -119z" />
    <glyph glyph-name="ccircumflex" unicode="&#x109;" horiz-adv-x="1036" 
d="M420 1180h-123l199 399h194l199 -399h-139l-166 180zM553 -31q-227 -1 -360 143t-134 357q0 264 172 423t410 159q154 0 244 -77t90 -179q0 -74 -44 -114t-122 -40l-100 10l-29 258q-43 14 -78 15q-106 0 -160 -94t-55 -199q0 -201 94 -304t236 -104q57 0 115 24t90 46
l28 22l47 -61q-95 -139 -197 -212t-247 -73z" />
    <glyph glyph-name="Cdotaccent" unicode="&#x10a;" horiz-adv-x="1486" 
d="M894 1505q-89 -1 -143 55q-55 56 -55 135t56 133t144 54q89 0 143 -53q55 -53 55 -133t-56 -136t-144 -55zM831 -37q-195 0 -345 55q-150 54 -236 148q-176 188 -176 448q0 342 249 566t613 223q219 0 428 -111l12 -374h-108l-138 296q-94 53 -194 54q-186 0 -314 -144
t-128 -412q0 -270 132 -437t330 -166q102 0 189 43l174 319h111l-50 -389q-260 -119 -549 -119z" />
    <glyph glyph-name="cdotaccent" unicode="&#x10b;" horiz-adv-x="1036" 
d="M784 1356q0 -80 -55 -136t-144 -55q-89 -1 -143 55t-55 135q0 79 55 133q54 54 144 54t144 -53t54 -133zM553 -31q-227 -1 -360 143t-134 357q0 264 172 423t410 159q154 0 244 -77t90 -179q0 -74 -44 -114t-122 -40l-100 10l-29 258q-43 14 -78 15q-106 0 -160 -94
t-55 -199q0 -201 94 -304t236 -104q57 0 115 24t90 46l28 22l47 -61q-95 -139 -197 -212t-247 -73z" />
    <glyph glyph-name="Ccaron" unicode="&#x10c;" horiz-adv-x="1486" 
d="M1069 1792h139l-209 -285h-219l-209 285h144l178 -121zM831 -37q-195 0 -345 55q-150 54 -236 148q-176 188 -176 448q0 342 249 566t613 223q219 0 428 -111l12 -374h-108l-138 296q-94 53 -194 54q-186 0 -314 -144t-128 -412q0 -270 132 -437t330 -166q102 0 189 43
l174 319h111l-50 -389q-260 -119 -549 -119z" />
    <glyph glyph-name="ccaron" unicode="&#x10d;" horiz-adv-x="1036" 
d="M752 1579h122l-198 -399h-195l-198 399h139l164 -182zM553 -31q-227 -1 -360 143t-134 357q0 264 172 423t410 159q154 0 244 -77t90 -179q0 -74 -44 -114t-122 -40l-100 10l-29 258q-43 14 -78 15q-106 0 -160 -94t-55 -199q0 -201 94 -304t236 -104q57 0 115 24t90 46
l28 22l47 -61q-95 -139 -197 -212t-247 -73z" />
    <glyph glyph-name="Dcaron" unicode="&#x10e;" horiz-adv-x="1667" 
d="M977 1792h139l-209 -285h-219l-209 285h144l178 -121zM612 1247l2 -1042q2 -43 44 -73t135 -28q176 2 279 160t104 385q0 330 -159 472t-405 126zM1599 735q1 -356 -251 -553t-646 -190l-645 8v113l179 26v1080l-168 28v113l737 10q358 4 576 -175t218 -460z" />
    <glyph glyph-name="dcaron" unicode="&#x10f;" horiz-adv-x="1323" 
d="M1548 1530v-64l-200 -368h-86l49 432h237zM690 178q55 0 105 25v592q-70 109 -179 108q-84 0 -137 -77t-53 -254q0 -178 74 -286t190 -108zM489 -31q-180 1 -305 139t-125 384q-1 246 183 400q184 155 420 155q59 0 133 -25v295l-234 53v113l588 45v-1356l147 -33v-106
l-393 -53l-80 159q-69 -82 -141 -126t-193 -44z" />
    <glyph glyph-name="Dcroat" unicode="&#x110;" horiz-adv-x="1667" 
d="M870 627h-258l2 -422q2 -43 44 -73t135 -28q176 2 279 160t104 385q0 330 -159 472t-405 126v-487h258v-133zM236 627h-193v133h193v459l-168 28v113l737 10q358 4 576 -175t218 -460q1 -356 -251 -553t-646 -190l-645 8v113l179 26v488z" />
    <glyph glyph-name="dcroat" unicode="&#x111;" horiz-adv-x="1323" 
d="M690 178q55 0 105 25v592q-70 109 -179 108q-84 0 -137 -77t-53 -254q0 -178 74 -286t190 -108zM1149 1237h151v-102h-151v-963l147 -33v-106l-393 -53l-80 159q-69 -82 -141 -126t-193 -44q-180 1 -305 139t-125 371q-1 174 91 305q92 130 226 194t286 64q55 0 133 -22
v115h-365v102h365v100l-234 33v113l588 45v-291z" />
    <glyph glyph-name="Emacron" unicode="&#x112;" horiz-adv-x="1441" 
d="M461 1556v164h594v-164h-594zM629 629v-490h454l183 303h106l-72 -442h-1232v113l178 26v1080l-168 28v113h1018l204 14v-403h-106l-107 264h-458v-481h239l54 174h98v-461h-102l-50 162h-239z" />
    <glyph glyph-name="emacron" unicode="&#x113;" horiz-adv-x="1136" 
d="M301 1253v170h594v-170h-594zM559 918q-74 0 -126 -68t-58 -191h346q0 259 -162 259zM567 -31q-246 -1 -377 147t-131 353q0 266 175 424q174 158 390 158q216 1 326 -145t115 -376h-682q25 -160 123 -238t237 -79q72 0 142 26t102 52l33 24l51 -61q-51 -66 -81 -98
q-114 -124 -238 -162q-83 -25 -185 -25z" />
    <glyph glyph-name="Ebreve" unicode="&#x114;" horiz-adv-x="1441" 
d="M754 1483q-154 0 -229 92t-79 223h111q55 -127 208 -127t200 127h106q-7 -131 -85 -223t-232 -92zM629 629v-490h454l183 303h106l-72 -442h-1232v113l178 26v1080l-168 28v113h1018l204 14v-403h-106l-107 264h-458v-481h239l54 174h98v-461h-102l-50 162h-239z" />
    <glyph glyph-name="ebreve" unicode="&#x115;" horiz-adv-x="1136" 
d="M885 1493q1 -145 -73 -239t-222 -95q-148 0 -214 94q-65 94 -65 240h111q33 -156 178 -156t178 156h107zM559 918q-74 0 -126 -68t-58 -191h346q0 259 -162 259zM567 -31q-246 -1 -377 147t-131 353q0 266 175 424q174 158 390 158q216 1 326 -145t115 -376h-682
q25 -160 123 -238t237 -79q72 0 142 26t102 52l33 24l51 -61q-51 -66 -81 -98q-114 -124 -238 -162q-83 -25 -185 -25z" />
    <glyph glyph-name="Edotaccent" unicode="&#x116;" horiz-adv-x="1441" 
d="M956 1696q0 -80 -55 -136t-144 -55q-89 -1 -143 55t-55 135q0 79 55 133q54 54 144 54t144 -53t54 -133zM629 629v-490h454l183 303h106l-72 -442h-1232v113l178 26v1080l-168 28v113h1018l204 14v-403h-106l-107 264h-458v-481h239l54 174h98v-461h-102l-50 162h-239z
" />
    <glyph glyph-name="edotaccent" unicode="&#x117;" horiz-adv-x="1136" 
d="M597 1165q-89 -1 -143 55t-54 135t54 133q56 54 145 54t143 -53t54 -133t-54 -136q-56 -56 -145 -55zM559 918q-74 0 -126 -68t-58 -191h346q0 259 -162 259zM567 -31q-246 -1 -377 147t-131 353q0 266 175 424q174 158 390 158q216 1 326 -145t115 -376h-682
q25 -160 123 -238t237 -79q72 0 142 26t102 52l33 24l51 -61q-51 -66 -81 -98q-114 -124 -238 -162q-83 -25 -185 -25z" />
    <glyph glyph-name="Eogonek" unicode="&#x118;" horiz-adv-x="1441" 
d="M629 629v-490h454l183 303h106l-72 -442h-251q-141 -143 -142 -238q0 -50 32 -78t77 -28t84 22t96 74l51 -47q-41 -63 -60 -91t-63 -76q-81 -87 -199 -88q-118 0 -184 60q-65 60 -65 146t55 163t191 181h-854v113l178 26v1080l-168 28v113h1018l204 14v-403h-106
l-107 264h-458v-481h239l54 174h98v-461h-102l-50 162h-239z" />
    <glyph glyph-name="eogonek" unicode="&#x119;" horiz-adv-x="1136" 
d="M559 918q-74 0 -126 -68t-58 -191h346q0 259 -162 259zM567 -31q-246 -1 -377 147t-131 353q0 266 175 424q174 158 390 158q216 1 326 -145t115 -376h-682q25 -160 123 -238t237 -79q72 0 142 26t102 52l33 24l51 -61q-102 -137 -188 -195q-113 -88 -160 -148
q-47 -59 -47 -115t30 -88t76 -32t85 23q38 23 98 76l51 -49q-40 -64 -60 -92q-113 -164 -263 -164q-117 0 -183 60t-66 142t50 148t172 157q-62 -8 -99 -8z" />
    <glyph glyph-name="Ecaron" unicode="&#x11a;" horiz-adv-x="1441" 
d="M934 1792h139l-209 -285h-219l-209 285h144l178 -121zM629 629v-490h454l183 303h106l-72 -442h-1232v113l178 26v1080l-168 28v113h1018l204 14v-403h-106l-107 264h-458v-481h239l54 174h98v-461h-102l-50 162h-239z" />
    <glyph glyph-name="ecaron" unicode="&#x11b;" horiz-adv-x="1136" 
d="M764 1579h123l-199 -399h-194l-199 399h139l164 -182zM559 918q-74 0 -126 -68t-58 -191h346q0 259 -162 259zM567 -31q-246 -1 -377 147t-131 353q0 266 175 424q174 158 390 158q216 1 326 -145t115 -376h-682q25 -160 123 -238t237 -79q72 0 142 26t102 52l33 24
l51 -61q-51 -66 -81 -98q-114 -124 -238 -162q-83 -25 -185 -25z" />
    <glyph glyph-name="Gcircumflex" unicode="&#x11c;" horiz-adv-x="1587" 
d="M739 1507h-143l209 285h219l217 -285h-156l-174 119zM831 -37q-188 0 -336 54q-149 53 -239 147q-182 189 -182 448q0 342 254 566t620 225q236 0 445 -111l12 -374h-109l-133 292q-90 57 -231 58q-180 0 -309 -144t-129 -389q0 -297 134 -462t339 -164q61 0 123 16v393
l-175 23v110h611v-110l-99 -29v-424l-77 -31q-240 -94 -519 -94z" />
    <glyph glyph-name="gcircumflex" unicode="&#x11d;" horiz-adv-x="1196" 
d="M393 1180h-123l199 399h195l198 -399h-139l-166 180zM322 -186q0 -84 88 -138t218 -53q130 0 200 45t71 109q0 78 -98 92l-467 16q-12 -31 -12 -71zM470 468q56 -68 127 -58t99 88t6 192t-78 184q-56 68 -126 56q-72 -8 -102 -86t-6 -193t80 -183zM1012 641
q0 -141 -129 -245t-336 -105q-119 0 -209 33q-37 -53 -37 -88q0 -36 28 -46t101 -12l336 -12q182 -6 271 -86t89 -207q0 -164 -208 -301t-467 -137q-209 0 -320 76t-111 180q0 141 222 233l8 4v4l-168 160q8 55 54 138t104 141q-164 105 -164 283t137 286t334 107
q125 0 287 -64l337 43v-178l-245 26l-4 -6q90 -86 90 -227z" />
    <glyph glyph-name="Gbreve" unicode="&#x11e;" horiz-adv-x="1587" 
d="M909 1483q-155 0 -229 92t-78 223h111q55 -127 208 -127t199 127h107q-6 -131 -85 -223t-233 -92zM831 -37q-188 0 -336 54q-149 53 -239 147q-182 189 -182 448q0 342 254 566t620 225q236 0 445 -111l12 -374h-109l-133 292q-90 57 -231 58q-180 0 -309 -144t-129 -389
q0 -297 134 -462t339 -164q61 0 123 16v393l-175 23v110h611v-110l-99 -29v-424l-77 -31q-240 -94 -519 -94z" />
    <glyph glyph-name="gbreve" unicode="&#x11f;" horiz-adv-x="1196" 
d="M846 1493q0 -145 -74 -239t-222 -95q-148 0 -213 94t-65 240h111q33 -156 178 -156t178 156h107zM322 -186q0 -84 88 -138t218 -53q130 0 200 45t71 109q0 78 -98 92l-467 16q-12 -31 -12 -71zM470 468q56 -68 127 -58t99 88t6 192t-78 184q-56 68 -126 56
q-72 -8 -102 -86t-6 -193t80 -183zM1012 641q0 -141 -129 -245t-336 -105q-119 0 -209 33q-37 -53 -37 -88q0 -36 28 -46t101 -12l336 -12q182 -6 271 -86t89 -207q0 -164 -208 -301t-467 -137q-209 0 -320 76t-111 180q0 141 222 233l8 4v4l-168 160q8 55 54 138t104 141
q-164 105 -164 283t137 286t334 107q125 0 287 -64l337 43v-178l-245 26l-4 -6q90 -86 90 -227z" />
    <glyph glyph-name="Gdotaccent" unicode="&#x120;" horiz-adv-x="1587" 
d="M1112 1696q0 -80 -56 -136t-144 -55q-89 -1 -143 55t-54 135t55 133t144 54q90 0 144 -53t54 -133zM831 -37q-188 0 -336 54q-149 53 -239 147q-182 189 -182 448q0 342 254 566t620 225q236 0 445 -111l12 -374h-109l-133 292q-90 57 -231 58q-180 0 -309 -144
t-129 -389q0 -297 134 -462t339 -164q61 0 123 16v393l-175 23v110h611v-110l-99 -29v-424l-77 -31q-240 -94 -519 -94z" />
    <glyph glyph-name="gdotaccent" unicode="&#x121;" horiz-adv-x="1196" 
d="M558 1165q-89 -1 -143 55q-55 56 -55 135t56 133t144 54q89 0 143 -53q55 -53 55 -133t-56 -136t-144 -55zM322 -186q0 -84 88 -138t218 -53q130 0 200 45t71 109q0 78 -98 92l-467 16q-12 -31 -12 -71zM470 468q56 -68 127 -58t99 88t6 192t-78 184q-56 68 -126 56
q-72 -8 -102 -86t-6 -193t80 -183zM1012 641q0 -141 -129 -245t-336 -105q-119 0 -209 33q-37 -53 -37 -88q0 -36 28 -46t101 -12l336 -12q182 -6 271 -86t89 -207q0 -164 -208 -301t-467 -137q-209 0 -320 76t-111 180q0 141 222 233l8 4v4l-168 160q8 55 54 138t104 141
q-164 105 -164 283t137 286t334 107q125 0 287 -64l337 43v-178l-245 26l-4 -6q90 -86 90 -227z" />
    <glyph glyph-name="Gcommaaccent" unicode="&#x122;" horiz-adv-x="1587" 
d="M627 -260v22q27 127 174 127q86 0 137 -48t51 -126q0 -211 -385 -301l-29 76q178 63 179 158q0 44 -39 68t-88 24zM831 -37q-188 0 -336 54q-149 53 -239 147q-182 189 -182 448q0 342 254 566t620 225q236 0 445 -111l12 -374h-109l-133 292q-90 57 -231 58
q-180 0 -309 -144t-129 -389q0 -297 134 -462t339 -164q61 0 123 16v393l-175 23v110h611v-110l-99 -29v-424l-77 -31q-240 -94 -519 -94z" />
    <glyph glyph-name="gcommaaccent" unicode="&#x123;" horiz-adv-x="1196" 
d="M588 1427q0 -45 39 -69t88 -23v-22q-27 -127 -174 -127q-86 0 -138 48q-51 48 -51 126q0 211 385 301l29 -76q-178 -63 -178 -158zM322 -186q0 -84 88 -138t218 -53q130 0 200 45t71 109q0 78 -98 92l-467 16q-12 -31 -12 -71zM470 468q56 -68 127 -58t99 88t6 192
t-78 184q-56 68 -126 56q-72 -8 -102 -86t-6 -193t80 -183zM1012 641q0 -141 -129 -245t-336 -105q-119 0 -209 33q-37 -53 -37 -88q0 -36 28 -46t101 -12l336 -12q182 -6 271 -86t89 -207q0 -164 -208 -301t-467 -137q-209 0 -320 76t-111 180q0 141 222 233l8 4v4
l-168 160q8 55 54 138t104 141q-164 105 -164 283t137 286t334 107q125 0 287 -64l337 43v-178l-245 26l-4 -6q90 -86 90 -227z" />
    <glyph glyph-name="Hcircumflex" unicode="&#x124;" horiz-adv-x="1763" 
d="M707 1507h-144l209 285h219l217 -285h-155l-174 119zM973 0v113l172 26v451h-527v-451l173 -26v-113h-734v113l179 26v1080l-168 28v113h708v-113l-158 -28v-465h527v465l-158 28v113h709v-113l-168 -28v-1080l178 -26v-113h-733z" />
    <glyph glyph-name="hcircumflex" unicode="&#x125;" horiz-adv-x="1376" 
d="M520 1599h-143l209 285h219l217 -285h-156l-174 119zM856 612q0 228 -192 226q-72 -2 -127 -35v-666l112 -26v-111h-606v111l139 26v1188l-145 35v106l500 62v-637q150 160 329 160q344 0 344 -342v-572l142 -26v-111h-604v113l108 24v475z" />
    <glyph glyph-name="Hbar" unicode="&#x126;" horiz-adv-x="1763" 
d="M618 928v-174h527v174h-527zM973 0v113l172 26v451h-527v-451l173 -26v-113h-734v113l179 26v789h-197v135h197v156l-168 28v113h708v-113l-158 -28v-156h527v156l-158 28v113h709v-113l-168 -28v-156h198v-135h-198v-789l178 -26v-113h-733z" />
    <glyph glyph-name="hbar" unicode="&#x127;" horiz-adv-x="1376" 
d="M856 612q0 228 -192 226q-72 -2 -127 -35v-666l112 -26v-111h-606v111l139 26v998h-151v102h151v100l-145 23v106l500 62v-291h364v-102h-364v-244q150 160 329 160q344 0 344 -342v-572l142 -26v-111h-604v113l108 24v475z" />
    <glyph glyph-name="Itilde" unicode="&#x128;" horiz-adv-x="854" 
d="M57 0v113l179 26v1080l-168 28v113h718v-113l-168 -28v-1080l179 -26v-113h-740zM436 1538l-55 14q-123 33 -162 25t-74 -76l-77 31l6 27q29 123 82 179q52 56 118 53t146 -22l55 -14q131 -37 177 -28t81 81l82 -22l-8 -35q-29 -123 -86 -181t-128 -56t-157 24z" />
    <glyph glyph-name="itilde" unicode="&#x129;" horiz-adv-x="700" 
d="M37 0v113l139 24v674l-139 27v112l493 101v-914l125 -24v-113h-618zM698 1434q-66 -168 -141 -212t-254 13q-121 39 -168 28t-74 -79l-77 41l10 26q59 152 135 195t221 6l17 -4q135 -39 184 -31t80 88l78 -41z" />
    <glyph glyph-name="Imacron" unicode="&#x12a;" horiz-adv-x="854" 
d="M129 1556v164h594v-164h-594zM57 0v113l179 26v1080l-168 28v113h718v-113l-168 -28v-1080l179 -26v-113h-740z" />
    <glyph glyph-name="imacron" unicode="&#x12b;" horiz-adv-x="700" 
d="M37 0v113l139 24v674l-139 27v112l493 101v-914l125 -24v-113h-618zM59 1223v170h553v-170h-553z" />
    <glyph glyph-name="Ibreve" unicode="&#x12c;" horiz-adv-x="854" 
d="M422 1483q-154 0 -228 92t-79 223h110q55 -127 208 -127t200 127h106q-7 -131 -85 -223t-232 -92zM57 0v113l179 26v1080l-168 28v113h718v-113l-168 -28v-1080l179 -26v-113h-740z" />
    <glyph glyph-name="ibreve" unicode="&#x12d;" horiz-adv-x="700" 
d="M633 1524q1 -146 -73 -240t-222 -94t-214 94q-65 94 -65 240h111q33 -156 178 -156t178 156h107zM37 0v113l139 24v674l-139 27v112l493 101v-914l125 -24v-113h-618z" />
    <glyph glyph-name="Iogonek" unicode="&#x12e;" horiz-adv-x="854" 
d="M57 0v113l179 26v1080l-168 28v113h718v-113l-168 -28v-1080l179 -26v-113h-316q-115 -139 -114 -238q-1 -50 31 -78t77 -28t84 22t96 74l52 -47q-41 -63 -61 -91t-63 -76q-80 -87 -198 -88q-118 0 -184 60t-66 146t48 163t165 181h-291z" />
    <glyph glyph-name="iogonek" unicode="&#x12f;" horiz-adv-x="700" 
d="M553 1356q1 -80 -55 -136t-145 -55q-89 -1 -143 55t-54 135t55 133t144 54t143 -53t55 -133zM37 0v113l139 24v674l-139 27v112l493 101v-914l125 -24v-113h-231q-131 -145 -131 -238q0 -50 32 -78q33 -28 77 -28t83 22t97 74l51 -47q-41 -63 -61 -91t-63 -76
q-80 -87 -198 -88q-118 0 -184 60t-66 150q0 152 218 340h-242z" />
    <glyph glyph-name="Idotaccent" unicode="&#x130;" horiz-adv-x="854" 
d="M425 1505q-89 -1 -143 55t-54 135t54 133q56 54 145 54t143 -53t54 -133t-54 -136q-56 -56 -145 -55zM57 0v113l179 26v1080l-168 28v113h718v-113l-168 -28v-1080l179 -26v-113h-740z" />
    <glyph glyph-name="dotlessi" unicode="&#x131;" horiz-adv-x="700" 
d="M37 0v113l139 24v674l-139 27v112l493 101v-914l125 -24v-113h-618z" />
    <glyph glyph-name="IJ" unicode="&#x132;" horiz-adv-x="1740" 
d="M1473 223q0 -301 -156 -487t-422 -187l-29 107q173 45 207 247q19 112 19 271v1045l-172 28v113h725v-113l-172 -28v-996zM57 0v113l179 26v1080l-168 28v113h718v-113l-168 -28v-1080l179 -26v-113h-740z" />
    <glyph glyph-name="ij" unicode="&#x133;" horiz-adv-x="1366" 
d="M1235 1356q1 -80 -55 -136t-145 -55q-89 -1 -143 55t-54 135t55 133t144 54t143 -53t55 -133zM858 113v698l-139 27v112l493 101v-901q0 -375 -211 -543q-82 -67 -189 -92q-42 -10 -67 -11l-24 -2l-47 107q86 51 135 163t49 341zM553 1356q1 -80 -55 -136t-145 -55
q-89 -1 -143 55t-54 135t55 133t144 54t143 -53t55 -133zM37 0v113l139 24v674l-139 27v112l493 101v-914l125 -24v-113h-618z" />
    <glyph glyph-name="Jcircumflex" unicode="&#x134;" horiz-adv-x="897" 
d="M291 1507h-144l209 285h219l218 -285h-156l-174 119zM649 223q1 -301 -155 -487t-422 -187l-29 107q61 16 105 53t67 80q53 99 53 385v1045l-172 28v113h725v-113l-172 -28v-996z" />
    <glyph glyph-name="jcircumflex" unicode="&#x135;" horiz-adv-x="677" 
d="M174 1210h-123l199 400h194l199 -400h-139l-166 181zM170 113v698l-139 27v112l493 101v-901q0 -375 -211 -543q-82 -67 -189 -92q-42 -10 -67 -11l-24 -2l-47 107q86 51 135 163t49 341z" />
    <glyph glyph-name="Kcommaaccent" unicode="&#x136;" horiz-adv-x="1624" 
d="M864 -352q0 44 -39 68t-88 24v22q27 127 174 127q85 0 137 -48t52 -126q0 -211 -385 -301l-29 76q178 63 178 158zM1028 1360h541v-107l-176 -47l-383 -383l477 -684l160 -26v-113h-527l-483 731v21l143 41l404 413l-156 43v111zM57 0v113l179 26v1080l-168 28v113h712
v-113l-162 -28v-1080l138 -26v-113h-699z" />
    <glyph glyph-name="kcommaaccent" unicode="&#x137;" horiz-adv-x="1327" 
d="M690 -352q0 44 -39 68t-88 24v22q27 127 174 127q86 0 137 -48t52 -126q0 -211 -385 -301l-29 76q178 63 178 158zM707 1012h581v-105l-158 -41l-245 -237l442 -578q-41 -83 -205 -90q-109 -2 -166 35t-114 127l-283 444v21l125 33l217 241l-194 43v107zM659 0h-616v111
l139 26v1188l-145 35v106l500 62v-1391l122 -26v-111z" />
    <glyph glyph-name="kgreenlandic" unicode="&#x138;" horiz-adv-x="1327" 
d="M700 1012h582v-105l-158 -41l-245 -237l442 -578q-41 -83 -205 -90q-109 -2 -166 35t-114 127l-283 444v21l125 33l217 241l-195 43v107zM530 1055v-918l123 -26v-111h-616v111l139 26v674l-139 27v104l481 113h12z" />
    <glyph glyph-name="Lacute" unicode="&#x139;" horiz-adv-x="1329" 
d="M786 1792v-45l-262 -240h-172l140 285h294zM618 139h363l203 355h106l-82 -494h-1151v113l179 26v1080l-168 28v113h725v-113l-175 -28v-1080z" />
    <glyph glyph-name="lacute" unicode="&#x13a;" horiz-adv-x="710" 
d="M694 1884v-45l-262 -240h-172l139 285h295zM43 0v111l139 26v1188l-145 35v106l500 62v-1391l147 -26v-111h-641z" />
    <glyph glyph-name="Lcommaaccent" unicode="&#x13b;" horiz-adv-x="1329" 
d="M629 -352q0 44 -39 68t-88 24v22q27 127 174 127q86 0 137 -48t51 -126q0 -211 -385 -301l-28 76q178 63 178 158zM618 139h363l203 355h106l-82 -494h-1151v113l179 26v1080l-168 28v113h725v-113l-175 -28v-1080z" />
    <glyph glyph-name="lcommaaccent" unicode="&#x13c;" horiz-adv-x="710" 
d="M315 -352q0 44 -39 68t-88 24v22q27 127 174 127q86 0 138 -48t51 -126q0 -211 -385 -301l-29 76q178 63 178 158zM43 0v111l139 26v1188l-145 35v106l500 62v-1391l147 -26v-111h-641z" />
    <glyph glyph-name="Lcaron" unicode="&#x13d;" horiz-adv-x="1329" 
d="M1212 1407v-64l-200 -368h-86l49 432h237zM618 139h363l203 355h106l-82 -494h-1151v113l179 26v1080l-168 28v113h725v-113l-175 -28v-1080z" />
    <glyph glyph-name="lcaron" unicode="&#x13e;" horiz-adv-x="710" 
d="M936 1528v-64l-201 -368h-86l49 432h238zM43 0v111l139 26v1188l-145 35v106l500 62v-1391l147 -26v-111h-641z" />
    <glyph glyph-name="Ldot" unicode="&#x13f;" horiz-adv-x="1329" 
d="M1101 623q-71 0 -123 51t-52 122t51 123t123 52t124 -52t52 -123t-52 -122t-123 -51zM618 139h363l203 314h106l-82 -453h-1151v113l179 26v1080l-168 28v113h725v-113l-175 -28v-1080z" />
    <glyph glyph-name="ldot" unicode="&#x140;" horiz-adv-x="962" 
d="M43 0v111l139 26v1188l-145 35v106l500 62v-1391l147 -26v-111h-641zM845 602q-71 0 -123 51t-52 122t51 123t123 52t124 -52t52 -123t-52 -122t-123 -51z" />
    <glyph glyph-name="Lslash" unicode="&#x141;" horiz-adv-x="1329" 
d="M68 1360h725v-113l-175 -28v-441l392 96v-124l-392 -97v-514h363l203 355h106l-82 -494h-1151v113l179 26v420l-177 -43v125l177 43v535l-168 28v113z" />
    <glyph glyph-name="lslash" unicode="&#x142;" horiz-adv-x="710" 
d="M684 0h-641v111l139 26v477l-168 -73v149l168 74v561l-145 35v106l500 62v-608l190 84v-150l-190 -84v-633l147 -26v-111z" />
    <glyph glyph-name="Nacute" unicode="&#x143;" horiz-adv-x="1701" 
d="M1188 1792v-45l-262 -240h-172l139 285h295zM692 0h-635v113l179 39l2 1034l-183 63v111h516l752 -895l-6 725l-285 63v107h623v-113l-168 -45v-1044l6 -158h-272l-824 977l11 -813l284 -58v-106z" />
    <glyph glyph-name="nacute" unicode="&#x144;" horiz-adv-x="1372" 
d="M1004 1579v-37l-238 -362h-131l96 399h273zM850 612q0 228 -193 226q-72 -2 -127 -35v-666l113 -26v-111h-606v111l139 26v674l-139 27v102l418 115h10l45 -181h4q160 176 346 177q344 0 344 -342v-572l142 -26v-111h-605v113l109 24v475z" />
    <glyph glyph-name="Ncommaaccent" unicode="&#x145;" horiz-adv-x="1701" 
d="M809 -352q0 44 -39 68t-88 24v22q27 127 174 127q86 0 137 -48t51 -126q0 -211 -385 -301l-28 76q178 63 178 158zM692 0h-635v113l179 39l2 1034l-183 63v111h516l752 -895l-6 725l-285 63v107h623v-113l-168 -45v-1044l6 -158h-272l-824 977l11 -813l284 -58v-106z" />
    <glyph glyph-name="ncommaaccent" unicode="&#x146;" horiz-adv-x="1372" 
d="M539 -260v22q27 127 174 127q86 0 137 -48t51 -126q0 -211 -385 -301l-29 76q178 63 179 158q0 44 -39 68t-88 24zM850 612q0 228 -193 226q-72 -2 -127 -35v-666l113 -26v-111h-606v111l139 26v674l-139 27v102l418 115h10l45 -181h4q160 176 346 177q344 0 344 -342
v-572l142 -26v-111h-605v113l109 24v475z" />
    <glyph glyph-name="Ncaron" unicode="&#x147;" horiz-adv-x="1701" 
d="M1028 1792h139l-209 -285h-219l-209 285h144l178 -121zM692 0h-635v113l179 39l2 1034l-183 63v111h516l752 -895l-6 725l-285 63v107h623v-113l-168 -45v-1044l6 -158h-272l-824 977l11 -813l284 -58v-106z" />
    <glyph glyph-name="ncaron" unicode="&#x148;" horiz-adv-x="1372" 
d="M877 1579h122l-198 -399h-195l-198 399h139l164 -182zM850 612q0 228 -193 226q-72 -2 -127 -35v-666l113 -26v-111h-606v111l139 26v674l-139 27v102l418 115h10l45 -181h4q160 176 346 177q344 0 344 -342v-572l142 -26v-111h-605v113l109 24v475z" />
    <glyph glyph-name="napostrophe" unicode="&#x149;" horiz-adv-x="1372" 
d="M25 1430v22q27 127 174 127q86 0 137 -48t51 -126q0 -211 -385 -301l-29 76q178 63 179 157q0 45 -39 69t-88 24zM850 612q0 228 -193 226q-72 -2 -127 -35v-666l113 -26v-111h-606v111l139 26v674l-139 27v102l418 115h10l45 -181h4q160 176 346 177q344 0 344 -342
v-572l142 -26v-111h-605v113l109 24v475z" />
    <glyph glyph-name="Eng" unicode="&#x14a;" horiz-adv-x="1699" 
d="M1487 223q-1 -303 -149 -488t-416 -194l-33 105q147 30 221 108t98 197l-813 1093l13 -880l268 -58v-106h-619v113l179 39l2 1034l-183 63v111h568l702 -965l-8 795l-270 63v107h608v-113l-168 -45v-979z" />
    <glyph glyph-name="eng" unicode="&#x14b;" horiz-adv-x="1331" 
d="M850 612q0 228 -193 226q-72 -2 -127 -35v-666l113 -26v-111h-606v111l139 26v674l-139 27v102l418 115h10l45 -181h4q160 176 346 177q344 0 344 -342v-559q0 -372 -211 -543q-82 -67 -189 -92q-42 -10 -67 -11l-24 -2l-47 107q86 51 135 163t49 341v499z" />
    <glyph glyph-name="Omacron" unicode="&#x14c;" horiz-adv-x="1613" 
d="M510 1556v164h594v-164h-594zM818 1403q314 1 518 -189t204 -515t-218 -533t-530 -209q-312 0 -516 190q-202 190 -202 517t215 533t529 206zM489 711q1 -263 99 -439t235 -176t219 146t82 405q0 258 -94 438t-252 181q-131 0 -210 -146t-79 -409z" />
    <glyph glyph-name="omacron" unicode="&#x14d;" horiz-adv-x="1232" 
d="M319 1253v170h594v-170h-594zM622 1047q248 1 405 -145t157 -382t-162 -396t-418 -161q-256 0 -406 152t-149 381q0 229 163 390q162 161 410 161zM443 782q-34 -119 -10 -303q24 -183 86 -289t151 -94q86 10 120 129t11 303q-25 184 -87 290t-151 93q-86 -10 -120 -129z
" />
    <glyph glyph-name="Obreve" unicode="&#x14e;" horiz-adv-x="1613" 
d="M803 1483q-154 0 -229 92t-78 223h110q55 -127 208 -127t200 127h106q-6 -131 -84 -223t-233 -92zM818 1403q314 1 518 -189t204 -515t-218 -533t-530 -209q-312 0 -516 190q-202 190 -202 517t215 533t529 206zM489 711q1 -263 99 -439t235 -176t219 146t82 405
q0 258 -94 438t-252 181q-131 0 -210 -146t-79 -409z" />
    <glyph glyph-name="obreve" unicode="&#x14f;" horiz-adv-x="1232" 
d="M903 1493q1 -145 -73 -239t-222 -95q-148 0 -214 94q-65 94 -64 240h110q33 -156 178 -156t179 156h106zM622 1047q248 1 405 -145t157 -382t-162 -396t-418 -161q-256 0 -406 152t-149 381q0 229 163 390q162 161 410 161zM443 782q-34 -119 -10 -303q24 -183 86 -289
t151 -94q86 10 120 129t11 303q-25 184 -87 290t-151 93q-86 -10 -120 -129z" />
    <glyph glyph-name="Ohungarumlaut" unicode="&#x150;" horiz-adv-x="1613" 
d="M1243 1792v-39l-227 -246h-139l116 285h250zM918 1792v-39l-228 -246h-139l117 285h250zM818 1403q314 1 518 -189t204 -515t-218 -533t-530 -209q-312 0 -516 190q-202 190 -202 517t215 533t529 206zM489 711q1 -263 99 -439t235 -176t219 146t82 405q0 258 -94 438
t-252 181q-131 0 -210 -146t-79 -409z" />
    <glyph glyph-name="ohungarumlaut" unicode="&#x151;" horiz-adv-x="1232" 
d="M1057 1579v-35l-226 -364h-110l102 399h234zM711 1579v-35l-226 -364h-110l102 399h234zM622 1047q248 1 405 -145t157 -382t-162 -396t-418 -161q-256 0 -406 152t-149 381q0 229 163 390q162 161 410 161zM443 782q-34 -119 -10 -303q24 -183 86 -289t151 -94
q86 10 120 129t11 303q-25 184 -87 290t-151 93q-86 -10 -120 -129z" />
    <glyph glyph-name="OE" unicode="&#x152;" horiz-adv-x="2277" 
d="M1094 379v829q-109 47 -232 47q-195 0 -298 -139t-103 -408q0 -268 104 -434t312 -165q101 -1 159 67t58 203zM1618 0q-236 0 -496 -10t-311 -10q-331 0 -533 173t-202 504q0 211 108 379q109 168 279 256t360 88q55 0 302 -10t522 -10h284l205 14v-403h-106l-107 264
h-459v-481h240l53 174h98v-461h-102l-49 162h-240v-490h455l182 303h107l-72 -442h-518z" />
    <glyph glyph-name="oe" unicode="&#x153;" horiz-adv-x="1900" 
d="M1323 918q-74 0 -126 -68t-58 -191h346q0 259 -162 259zM670 96q86 10 120 129t11 303q-25 184 -87 290t-151 93q-86 -10 -120 -129t-10 -303t86 -290q63 -105 151 -93zM1331 -31q-231 0 -344 166q-139 -172 -371 -172q-268 0 -418 152t-149 381q0 229 163 390
q164 161 416 161t388 -189q70 92 168 142t200 51q219 1 329 -145t116 -376h-682q25 -160 123 -238t237 -79q72 0 142 26t102 52l33 24l51 -61q-51 -66 -81 -98q-114 -124 -238 -162q-83 -25 -185 -25z" />
    <glyph glyph-name="Racute" unicode="&#x154;" horiz-adv-x="1560" 
d="M1098 1792v-45l-262 -240h-172l139 285h295zM618 1251v-598l89 2q123 23 195 102t71 199q0 120 -89 207q-90 88 -266 88zM57 0v113l179 26v1082l-168 26v113l637 4q285 4 463 -91t178 -286q0 -219 -283 -340v-6l350 -510l158 -22v-109h-473l-240 354l-131 201l-109 -4
v-412l138 -26v-113h-699z" />
    <glyph glyph-name="racute" unicode="&#x155;" horiz-adv-x="946" 
d="M858 1579v-37l-237 -362h-132l97 399h272zM725 0h-688v111l139 26v674l-139 27v102l399 111h13l67 -205h4q102 204 254 205q82 -1 129 -51t42 -116t-35 -113q-30 -48 -58 -71l-27 -20l-256 125l-39 -14v-654l195 -26v-111z" />
    <glyph glyph-name="Rcommaaccent" unicode="&#x156;" horiz-adv-x="1560" 
d="M846 -352q0 44 -39 68t-88 24v22q27 127 174 127q86 0 137 -48t51 -126q0 -211 -385 -301l-28 76q178 63 178 158zM618 1251v-598l89 2q123 23 195 102t71 199q0 120 -89 207q-90 88 -266 88zM57 0v113l179 26v1082l-168 26v113l637 4q285 4 463 -91t178 -286
q0 -219 -283 -340v-6l350 -510l158 -22v-109h-473l-240 354l-131 201l-109 -4v-412l138 -26v-113h-699z" />
    <glyph glyph-name="rcommaaccent" unicode="&#x157;" horiz-adv-x="946" 
d="M307 -352q0 44 -39 68t-88 24v22q27 127 174 127q86 0 138 -48t51 -126q0 -211 -385 -301l-29 76q178 63 178 158zM725 0h-688v111l139 26v674l-139 27v102l399 111h13l67 -205h4q102 204 254 205q82 -1 129 -51t42 -116t-35 -113q-30 -48 -58 -71l-27 -20l-256 125
l-39 -14v-654l195 -26v-111z" />
    <glyph glyph-name="Rcaron" unicode="&#x158;" horiz-adv-x="1560" 
d="M938 1792h139l-209 -285h-219l-209 285h144l178 -121zM618 1251v-598l89 2q123 23 195 102t71 199q0 120 -89 207q-90 88 -266 88zM57 0v113l179 26v1082l-168 26v113l637 4q285 4 463 -91t178 -286q0 -219 -283 -340v-6l350 -510l158 -22v-109h-473l-240 354l-131 201
l-109 -4v-412l138 -26v-113h-699z" />
    <glyph glyph-name="rcaron" unicode="&#x159;" horiz-adv-x="946" 
d="M731 1579h123l-199 -399h-194l-199 399h139l164 -182zM725 0h-688v111l139 26v674l-139 27v102l399 111h13l67 -205h4q102 204 254 205q82 -1 129 -51t42 -116t-35 -113q-30 -48 -58 -71l-27 -20l-256 125l-39 -14v-654l195 -26v-111z" />
    <glyph glyph-name="Sacute" unicode="&#x15a;" horiz-adv-x="1214" 
d="M1004 1792v-45l-263 -240h-172l140 285h295zM550 100q112 0 170 50t58 137q0 131 -180 205l-164 65q-168 66 -246 159q-78 92 -78 254t151 299q151 136 417 136q178 0 393 -96l12 -389h-108l-127 284q-84 66 -179 66t-153 -51t-57 -129q0 -78 45 -126t149 -92l172 -69
q180 -74 250 -162t70 -213q0 -207 -178 -339t-420 -132t-449 131l-32 414h106l166 -328q100 -74 212 -74z" />
    <glyph glyph-name="sacute" unicode="&#x15b;" horiz-adv-x="1021" 
d="M807 1579v-37l-238 -362h-131l97 399h272zM485 -39q-111 0 -189 17t-202 65l-37 348h103l121 -221q76 -86 182 -86q67 0 107 33t40 84q0 92 -161 164l-134 59q-117 53 -167 122t-50 169q0 143 125 239t307 96t359 -75l8 -309h-98l-86 186q-63 72 -158 72q-59 0 -96 -31
t-37 -77t29 -77t110 -65l129 -56q146 -63 202 -129t56 -172q0 -150 -131 -253t-332 -103z" />
    <glyph glyph-name="Scircumflex" unicode="&#x15c;" horiz-adv-x="1214" 
d="M496 1507h-144l209 285h219l217 -285h-155l-174 119zM550 100q112 0 170 50t58 137q0 131 -180 205l-164 65q-168 66 -246 159q-78 92 -78 254t151 299q151 136 417 136q178 0 393 -96l12 -389h-108l-127 284q-84 66 -179 66t-153 -51t-57 -129q0 -78 45 -126t149 -92
l172 -69q180 -74 250 -162t70 -213q0 -207 -178 -339t-420 -132t-449 131l-32 414h106l166 -328q100 -74 212 -74z" />
    <glyph glyph-name="scircumflex" unicode="&#x15d;" horiz-adv-x="1021" 
d="M348 1180h-123l199 399h194l199 -399h-139l-166 180zM485 -39q-111 0 -189 17t-202 65l-37 348h103l121 -221q76 -86 182 -86q67 0 107 33t40 84q0 92 -161 164l-134 59q-117 53 -167 122t-50 169q0 143 125 239t307 96t359 -75l8 -309h-98l-86 186q-63 72 -158 72
q-59 0 -96 -31t-37 -77t29 -77t110 -65l129 -56q146 -63 202 -129t56 -172q0 -150 -131 -253t-332 -103z" />
    <glyph glyph-name="Scedilla" unicode="&#x15e;" horiz-adv-x="1214" 
d="M489 -328q0 61 -71 119l108 166q-236 8 -428 131l-32 414h106l166 -328q100 -74 212 -74t170 50t58 137q0 131 -180 205l-164 65q-168 66 -246 159q-78 92 -78 254t151 299q151 136 417 136q178 0 393 -96l12 -389h-108l-127 284q-84 66 -179 66t-153 -51t-57 -129
q0 -78 45 -126t149 -92l172 -69q180 -74 250 -162t70 -213q0 -190 -151 -317t-353 -150l-43 -86q61 -18 104 -62t43 -106q1 -212 -411 -280l-27 84q182 61 182 161z" />
    <glyph glyph-name="scedilla" unicode="&#x15f;" horiz-adv-x="1021" 
d="M401 -328q0 61 -71 119l110 170q-141 4 -346 82l-37 348h103l121 -221q76 -86 182 -86q67 0 107 33t40 84q0 92 -161 164l-134 59q-117 53 -167 122t-50 169q0 143 125 239t307 96t359 -75l8 -309h-98l-86 186q-63 72 -158 72q-59 0 -96 -31t-37 -77t29 -77t110 -65
l129 -56q146 -63 202 -129q56 -67 56 -187t-110 -218t-283 -119l-45 -90q61 -18 104 -62t43 -106q1 -212 -411 -280l-27 84q182 61 182 161z" />
    <glyph glyph-name="Scaron" unicode="&#x160;" horiz-adv-x="1214" 
d="M844 1792h139l-209 -285h-219l-209 285h143l179 -121zM550 100q112 0 170 50t58 137q0 131 -180 205l-164 65q-168 66 -246 159q-78 92 -78 254t151 299q151 136 417 136q178 0 393 -96l12 -389h-108l-127 284q-84 66 -179 66t-153 -51t-57 -129q0 -78 45 -126t149 -92
l172 -69q180 -74 250 -162t70 -213q0 -207 -178 -339t-420 -132t-449 131l-32 414h106l166 -328q100 -74 212 -74z" />
    <glyph glyph-name="scaron" unicode="&#x161;" horiz-adv-x="1021" 
d="M680 1579h123l-199 -399h-194l-199 399h139l164 -182zM485 -39q-111 0 -189 17t-202 65l-37 348h103l121 -221q76 -86 182 -86q67 0 107 33t40 84q0 92 -161 164l-134 59q-117 53 -167 122t-50 169q0 143 125 239t307 96t359 -75l8 -309h-98l-86 186q-63 72 -158 72
q-59 0 -96 -31t-37 -77t29 -77t110 -65l129 -56q146 -63 202 -129t56 -172q0 -150 -131 -253t-332 -103z" />
    <glyph glyph-name="Tcommaaccent" unicode="&#x162;" horiz-adv-x="1495" 
d="M702 -352q0 44 -38 68t-89 24v22q27 127 175 127q86 0 137 -48t51 -126q0 -211 -385 -301l-29 76q178 63 178 158zM938 1235v-1094l213 -28v-113h-807v113l213 26v1096h-266l-123 -285h-107l11 424l202 -14h943l206 14l11 -424h-107l-123 285h-266z" />
    <glyph glyph-name="tcommaaccent" unicode="&#x163;" horiz-adv-x="772" 
d="M340 -352q0 44 -39 68t-88 24v22q27 127 174 127q86 0 137 -48t51 -126q0 -211 -385 -301l-28 76q178 63 178 158zM393 -31q-141 0 -202 69q-60 69 -56 200l12 643h-143v108l143 49l242 289h100v-315h250v-144h-243v-551q0 -145 159 -145l88 4l25 -110q-176 -97 -375 -97
z" />
    <glyph glyph-name="Tcaron" unicode="&#x164;" horiz-adv-x="1495" 
d="M922 1792h139l-209 -285h-219l-209 285h143l178 -121zM938 1235v-1094l213 -28v-113h-807v113l213 26v1096h-266l-123 -285h-107l11 424l202 -14h943l206 14l11 -424h-107l-123 285h-266z" />
    <glyph glyph-name="tcaron" unicode="&#x165;" horiz-adv-x="772" 
d="M922 1530v-53l-195 -314h-84l49 367h230zM393 -31q-141 0 -202 69q-60 69 -56 200l12 643h-143v108l143 49l242 289h100v-315h250v-144h-243v-551q0 -145 159 -145l88 4l25 -110q-176 -97 -375 -97z" />
    <glyph glyph-name="Tbar" unicode="&#x166;" horiz-adv-x="1495" 
d="M285 668v125h272v442h-266l-123 -285h-107l11 424l202 -14h943l206 14l11 -424h-107l-123 285h-266v-442h268v-125h-268v-527l213 -28v-113h-807v113l213 26v529h-272z" />
    <glyph glyph-name="tbar" unicode="&#x167;" horiz-adv-x="772" 
d="M4 588v137h139l4 156h-143v108l143 49l242 289h100v-315h250v-144h-243v-143h243v-137h-243v-271q0 -145 159 -145l88 4l25 -110q-176 -96 -375 -97q-141 0 -202 69q-60 69 -56 200l6 350h-137z" />
    <glyph glyph-name="Utilde" unicode="&#x168;" horiz-adv-x="1601" 
d="M858 1546l-55 15q-160 37 -193 28t-73 -88l-78 31l6 27q29 123 85 178t128 51t164 -27l55 -14q88 -25 137 -34t79 5t40 28t33 62l82 -22l-8 -35q-30 -125 -88 -181t-136 -54t-178 30zM1405 600q1 -299 -143 -471t-454 -172t-460 141t-149 451v670l-168 28v113h712v-113
l-161 -28v-699q0 -180 80 -278t240 -98t244 106q85 106 83 313l-6 631l-258 59v107h606v-113l-166 -43v-604z" />
    <glyph glyph-name="utilde" unicode="&#x169;" horiz-adv-x="1363" 
d="M684 1223l-55 16q-150 45 -185 39q-51 -8 -84 -94l-77 41l10 26q47 121 100 175t118 58t153 -24l55 -16q137 -49 196 -42t97 103l78 -41l-11 -30q-72 -186 -163 -225t-232 14zM168 291v565l-139 27v102l493 55v-645q0 -215 160 -215q96 0 152 51v623l-152 27v104l506 55
v-862l141 -28v-109l-379 -76l-96 189q-131 -184 -346 -185q-84 0 -156 26q-72 25 -128 101t-56 195z" />
    <glyph glyph-name="Umacron" unicode="&#x16a;" horiz-adv-x="1601" 
d="M565 1556v164h594v-164h-594zM1405 600q1 -299 -143 -471t-454 -172t-460 141t-149 451v670l-168 28v113h712v-113l-161 -28v-699q0 -180 80 -278t240 -98t244 106q85 106 83 313l-6 631l-258 59v107h606v-113l-166 -43v-604z" />
    <glyph glyph-name="umacron" unicode="&#x16b;" horiz-adv-x="1363" 
d="M389 1253v170h594v-170h-594zM168 291v565l-139 27v102l493 55v-645q0 -215 160 -215q96 0 152 51v623l-152 27v104l506 55v-862l141 -28v-109l-379 -76l-96 189q-131 -184 -346 -185q-84 0 -156 26q-72 25 -128 101t-56 195z" />
    <glyph glyph-name="Ubreve" unicode="&#x16c;" horiz-adv-x="1601" 
d="M858 1483q-154 0 -228 92t-79 223h111q56 -127 208 -127t199 127h107q-6 -131 -85 -223t-233 -92zM1405 600q1 -299 -143 -471t-454 -172t-460 141t-149 451v670l-168 28v113h712v-113l-161 -28v-699q0 -180 80 -278t240 -98t244 106q85 106 83 313l-6 631l-258 59v107
h606v-113l-166 -43v-604z" />
    <glyph glyph-name="ubreve" unicode="&#x16d;" horiz-adv-x="1363" 
d="M973 1493q1 -145 -73 -239t-222 -95q-148 0 -214 94q-65 94 -65 240h111q33 -156 178 -156t178 156h107zM168 291v565l-139 27v102l493 55v-645q0 -215 160 -215q96 0 152 51v623l-152 27v104l506 55v-862l141 -28v-109l-379 -76l-96 189q-131 -184 -346 -185
q-84 0 -156 26q-72 25 -128 101t-56 195z" />
    <glyph glyph-name="Uring" unicode="&#x16e;" horiz-adv-x="1601" 
d="M735 1694q0 -56 37 -94t90 -38t90 38q37 36 37 94t-37 94q-37 37 -90 37t-90 -37t-37 -94zM614 1693q0 103 72 173t176 70t176 -70q72 -68 72 -171t-72 -173t-176 -70t-176 69t-72 172zM1405 600q1 -299 -143 -471t-454 -172t-460 141t-149 451v670l-168 28v113h712v-113
l-161 -28v-699q0 -180 80 -278t240 -98t244 106q85 106 83 313l-6 631l-258 59v107h606v-113l-166 -43v-604z" />
    <glyph glyph-name="uring" unicode="&#x16f;" horiz-adv-x="1363" 
d="M559 1380q0 -57 37 -94t90 -37t90 37t37 94q0 56 -37 94t-90 38t-90 -38q-37 -37 -37 -94zM438 1379q0 103 72 173t176 70t176 -69t72 -172t-72 -173t-176 -70t-176 70q-72 68 -72 171zM168 291v565l-139 27v102l493 55v-645q0 -215 160 -215q96 0 152 51v623l-152 27
v104l506 55v-862l141 -28v-109l-379 -76l-96 189q-131 -184 -346 -185q-84 0 -156 26q-72 25 -128 101t-56 195z" />
    <glyph glyph-name="Uhungarumlaut" unicode="&#x170;" horiz-adv-x="1601" 
d="M1298 1792v-39l-227 -246h-139l117 285h249zM973 1792v-39l-228 -246h-139l117 285h250zM1405 600q1 -299 -143 -471t-454 -172t-460 141t-149 451v670l-168 28v113h712v-113l-161 -28v-699q0 -180 80 -278t240 -98t244 106q85 106 83 313l-6 631l-258 59v107h606v-113
l-166 -43v-604z" />
    <glyph glyph-name="uhungarumlaut" unicode="&#x171;" horiz-adv-x="1363" 
d="M1126 1579v-35l-225 -364h-110l102 399h233zM780 1579v-35l-225 -364h-111l103 399h233zM168 291v565l-139 27v102l493 55v-645q0 -215 160 -215q96 0 152 51v623l-152 27v104l506 55v-862l141 -28v-109l-379 -76l-96 189q-131 -184 -346 -185q-84 0 -156 26
q-72 25 -128 101t-56 195z" />
    <glyph glyph-name="Uogonek" unicode="&#x172;" horiz-adv-x="1601" 
d="M1405 600q0 -268 -116 -436t-359 -199q-106 -117 -107 -203q0 -50 32 -78t77 -28t84 22t96 74l51 -47q-41 -63 -60 -91t-63 -76q-81 -87 -199 -88q-118 0 -184 60q-65 60 -65 142t44 150t146 155q-301 8 -442 149t-141 443v670l-168 28v113h712v-113l-161 -28v-699
q0 -180 80 -278t240 -98t244 106q85 106 83 313l-6 631l-258 59v107h606v-113l-166 -43v-604z" />
    <glyph glyph-name="uogonek" unicode="&#x173;" horiz-adv-x="1363" 
d="M934 -238q0 -50 32 -78t76 -28t84 22q39 22 97 74l51 -47q-40 -63 -60 -91t-64 -76q-80 -87 -198 -88q-118 0 -184 60t-66 145t54 161t180 176l-82 162q-131 -184 -346 -185q-84 0 -156 26q-72 25 -128 101t-56 195v565l-139 27v102l493 55v-645q0 -215 160 -215
q96 0 152 51v623l-152 27v104l506 55v-862l141 -28v-109l-266 -53q-129 -135 -129 -226z" />
    <glyph glyph-name="Wcircumflex" unicode="&#x174;" horiz-adv-x="2318" 
d="M1061 1507h-143l208 285h220l217 -285h-156l-174 119zM12 1360h723v-115l-155 -26l288 -863l222 680l-66 185l-147 24v115h708v-115l-153 -28l288 -859l252 834l-172 53v115h506v-115l-158 -41l-413 -1227h-267l-305 850l-280 -850h-267l-444 1242l-160 26v115z" />
    <glyph glyph-name="wcircumflex" unicode="&#x175;" horiz-adv-x="1822" 
d="M842 1180h-123l199 399h194l199 -399h-140l-165 180zM1358 1012h457v-119l-113 -19l-309 -890h-265l-188 508l-20 59h-5q-12 -35 -22 -59l-209 -508h-285l-288 890l-103 21v117h635v-119l-158 -19l150 -595h4q16 47 25 69l254 664h182l219 -664l12 -49h4q6 25 15 49
l155 496l-147 49v119z" />
    <glyph glyph-name="Ycircumflex" unicode="&#x176;" horiz-adv-x="1447" 
d="M659 1507h-143l209 285h219l217 -285h-155l-175 119zM1104 0h-760v113l188 26v359l-389 729l-131 18v115h746v-111l-174 -26l247 -547l273 536l-178 37v111h510v-111l-160 -37l-361 -641v-432l189 -26v-113z" />
    <glyph glyph-name="ycircumflex" unicode="&#x177;" horiz-adv-x="1167" 
d="M522 1180h-123l199 399h195l198 -399h-139l-166 180zM756 1012h399v-119l-86 -19l-424 -1071q-81 -203 -145 -273t-162 -69t-158 53t-61 131q0 79 46 123t120 44q96 0 161 -119h11l71 166l-430 1015l-86 21v117h604v-119l-133 -19l203 -591h10l201 577l-141 33v119z" />
    <glyph glyph-name="Ydieresis" unicode="&#x178;" horiz-adv-x="1447" 
d="M1087 1470q-67 0 -113 48t-46 112q0 66 47 114t113 48t113 -48q48 -48 48 -114t-48 -113t-114 -47zM578 1470q-66 0 -113 48t-47 112q0 66 47 114t113 48t112 -48t47 -114q-1 -66 -47 -113t-112 -47zM1104 0h-760v113l188 26v359l-389 729l-131 18v115h746v-111l-174 -26
l247 -547l273 536l-178 37v111h510v-111l-160 -37l-361 -641v-432l189 -26v-113z" />
    <glyph glyph-name="Zacute" unicode="&#x179;" horiz-adv-x="1318" 
d="M1034 1792v-45l-262 -240h-172l139 285h295zM45 0v133l739 1090h-465l-137 -308h-102l26 459l203 -14h969v-35l-801 -1186h490l196 355h101l-76 -508l-219 14h-924z" />
    <glyph glyph-name="zacute" unicode="&#x17a;" horiz-adv-x="1134" 
d="M874 1579v-37l-237 -362h-131l96 399h272zM61 0v111l547 774h-284l-142 -250h-92l25 393l221 -16h725v-54l-596 -827h334l151 260h99l-48 -399l-202 8h-738z" />
    <glyph glyph-name="Zdotaccent" unicode="&#x17b;" horiz-adv-x="1318" 
d="M899 1696q1 -80 -55 -136t-145 -55q-89 -1 -143 55t-54 135t55 133t144 54t143 -53t55 -133zM45 0v133l739 1090h-465l-137 -308h-102l26 459l203 -14h969v-35l-801 -1186h490l196 355h101l-76 -508l-219 14h-924z" />
    <glyph glyph-name="zdotaccent" unicode="&#x17c;" horiz-adv-x="1134" 
d="M780 1356q0 -80 -55 -136t-144 -55q-89 -1 -143 55t-55 135q0 79 55 133q54 54 144 54t144 -53t54 -133zM61 0v111l547 774h-284l-142 -250h-92l25 393l221 -16h725v-54l-596 -827h334l151 260h99l-48 -399l-202 8h-738z" />
    <glyph glyph-name="Zcaron" unicode="&#x17d;" horiz-adv-x="1318" 
d="M874 1792h140l-209 -285h-219l-209 285h143l178 -121zM45 0v133l739 1090h-465l-137 -308h-102l26 459l203 -14h969v-35l-801 -1186h490l196 355h101l-76 -508l-219 14h-924z" />
    <glyph glyph-name="zcaron" unicode="&#x17e;" horiz-adv-x="1134" 
d="M748 1579h122l-198 -399h-195l-198 399h139l164 -182zM61 0v111l547 774h-284l-142 -250h-92l25 393l221 -16h725v-54l-596 -827h334l151 260h99l-48 -399l-202 8h-738z" />
    <glyph glyph-name="florin" unicode="&#x192;" horiz-adv-x="1140" 
d="M993 1245q178 0 178 -153q0 -68 -53 -127t-125 -82q-41 205 -119 204q-131 0 -176 -419h312l-23 -133h-301l-20 -193q-20 -196 -82 -356t-140 -253q-76 -93 -166 -155q-160 -112 -286 -110q-88 0 -143 50q-54 50 -54 119t54 115t141 66q52 -187 93 -203q15 -6 30 -6
q96 0 135 266l92 660h-219l22 133h219q37 139 124 257q140 190 369 284q85 36 138 36z" />
    <glyph glyph-name="Aringacute" unicode="&#x1fa;" horiz-adv-x="1615" 
d="M1153 2288v-45l-262 -240h-172l139 285h295zM680 1694q0 -56 37 -94t90 -38t90 38q37 36 37 94t-37 94q-37 37 -90 37t-90 -37t-37 -94zM559 1693q0 103 72 173t176 70t176 -70q72 -68 72 -171t-72 -173t-176 -70t-176 69t-72 172zM686 1106l-194 -537h389l-193 537h-2z
M12 0v106l140 44l475 1191l151 9l164 43l506 -1258l156 -24v-111h-742v115l174 24l-98 273h-502l-88 -246l217 -51v-115h-553z" />
    <glyph glyph-name="aringacute" unicode="&#x1fb;" horiz-adv-x="1187" 
d="M465 1372q0 -57 37 -94t90 -37t90 37t37 94t-37 94t-90 37t-90 -37t-37 -94zM344 1371q0 103 72 173t176 70t176 -69t72 -172t-72 -173t-176 -70t-176 69t-72 172zM938 1976v-45l-262 -239h-172l139 284h295zM554 174q58 0 105 47v281l-77 -21q-94 -27 -131 -65t-37 -98
q0 -62 41 -103t99 -41zM375 -27q-129 0 -216 79t-87 203q0 123 84 189t243 103l260 59v66q0 244 -170 243q-57 0 -98 -18v-219q-80 -33 -153 -33q-129 0 -129 119q0 98 157 189q158 91 362 91t296 -91q90 -91 90 -283v-449q0 -53 17 -66t67 -14h73v-86q-166 -82 -278 -82
q-113 1 -157 49t-64 140h-8q-34 -47 -52 -69q-66 -83 -137 -105q-45 -15 -100 -15z" />
    <glyph glyph-name="AEacute" unicode="&#x1fc;" horiz-adv-x="2185" 
d="M1593 1792v-45l-262 -240h-172l139 285h295zM999 1235h-47l-303 -526h350v526zM1374 584v-445h453l182 303h107l-72 -442h-1221v113l176 26v447h-415l-215 -418l215 -53v-115h-572v106l140 44l604 1054l-232 43v113h1315l205 14v-403h-107l-106 264h-457v-526h238l53 174
h98v-461h-102l-49 162h-238z" />
    <glyph glyph-name="aeacute" unicode="&#x1fd;" horiz-adv-x="1695" 
d="M1204 1579v-37l-237 -362h-131l96 399h272zM1149 918q-68 0 -120 -75t-54 -198l315 33q0 112 -36 176t-105 64zM557 176q92 0 143 82q-41 106 -41 227v17l-67 -17q-90 -23 -134 -59t-44 -104q0 -66 41 -106t102 -40zM377 -27q-139 0 -222 82t-83 202q0 121 83 187
t244 103l260 57v68q0 244 -170 243q-43 0 -98 -18v-219q-80 -33 -144 -33q-140 0 -138 117q0 102 155 192q156 90 330 90q223 0 315 -139q119 145 299 146q134 0 230 -70q171 -125 180 -373q-59 -12 -643 -63v-41q33 -141 123 -216t225 -75q73 0 137 26t92 52l27 24l51 -61
q-42 -61 -72 -97t-88 -87q-116 -101 -323 -101q-289 0 -412 219q-61 -66 -103 -104t-114 -74q-72 -37 -141 -37z" />
    <glyph glyph-name="Oslashacute" unicode="&#x1fe;" horiz-adv-x="1613" 
d="M1130 1792v-45l-262 -240h-172l140 285h294zM786 1268q-141 0 -225 -155t-84 -437q0 -123 25 -234l563 607q-49 103 -122 161t-157 58zM1143 655q0 152 -35 279l-567 -610q100 -238 297 -238q150 0 228 152t77 417zM76 657q0 328 216 537t517 209q262 0 455 -141l135 145
h149l-200 -217q190 -195 190 -488q0 -338 -214 -542t-525 -203q-266 0 -461 147l-158 -170h-149l225 242q-180 190 -180 481z" />
    <glyph glyph-name="oslashacute" unicode="&#x1ff;" horiz-adv-x="1232" 
d="M909 1579v-37l-237 -362h-131l96 399h272zM647 94q51 0 88 34q86 79 86 312q0 109 -18 199l-342 -391q69 -154 186 -154zM408 589q0 -138 18 -229l346 394q-66 160 -186 159q-84 0 -131 -93t-47 -231zM49 490q0 234 163 396q163 161 404 161q186 0 334 -89l115 132h133
l-168 -193q154 -147 154 -380t-162 -393t-406 -161q-193 0 -331 84l-115 -133h-133l168 192q-156 150 -156 384z" />
    <glyph glyph-name="Scommaaccent" unicode="&#x218;" horiz-adv-x="1214" 
d="M555 -352q0 44 -39 68t-88 24v22q27 127 174 127q86 0 137 -48t52 -126q0 -211 -385 -301l-29 76q178 63 178 158zM550 100q112 0 170 50t58 137q0 131 -180 205l-164 65q-168 66 -246 159q-78 92 -78 254t151 299q151 136 417 136q178 0 393 -96l12 -389h-108l-127 284
q-84 66 -179 66t-153 -51t-57 -129q0 -78 45 -126t149 -92l172 -69q180 -74 250 -162t70 -213q0 -207 -178 -339t-420 -132t-449 131l-32 414h106l166 -328q100 -74 212 -74z" />
    <glyph glyph-name="scommaaccent" unicode="&#x219;" horiz-adv-x="1021" 
d="M459 -352q0 44 -39 68t-88 24v22q27 127 174 127q86 0 137 -48t51 -126q0 -211 -385 -301l-28 76q178 63 178 158zM485 -39q-111 0 -189 17t-202 65l-37 348h103l121 -221q76 -86 182 -86q67 0 107 33t40 84q0 92 -161 164l-134 59q-117 53 -167 122t-50 169
q0 143 125 239t307 96t359 -75l8 -309h-98l-86 186q-63 72 -158 72q-59 0 -96 -31t-37 -77t29 -77t110 -65l129 -56q146 -63 202 -129t56 -172q0 -150 -131 -253t-332 -103z" />
    <glyph glyph-name="uni0237" unicode="&#x237;" horiz-adv-x="677" 
d="M170 113v698l-139 27v112l493 101v-901q0 -375 -211 -543q-82 -67 -189 -92q-42 -10 -67 -11l-24 -2l-47 107q86 51 135 163t49 341z" />
    <glyph glyph-name="circumflex" unicode="&#x2c6;" horiz-adv-x="819" 
d="M236 1180h-123l198 399h195l199 -399h-140l-166 180z" />
    <glyph glyph-name="caron" unicode="&#x2c7;" horiz-adv-x="819" 
d="M582 1579h123l-199 -399h-195l-198 399h139l164 -182z" />
    <glyph glyph-name="breve" unicode="&#x2d8;" horiz-adv-x="819" 
d="M400 1159q-148 0 -213 94t-64 240h110q33 -156 179 -156t178 156h106q0 -145 -73 -240q-75 -94 -223 -94z" />
    <glyph glyph-name="dotaccent" unicode="&#x2d9;" horiz-adv-x="819" 
d="M608 1356q0 -80 -55 -136t-144 -55q-89 -1 -143 55t-55 135q0 79 55 133q54 54 144 54t144 -53t54 -133z" />
    <glyph glyph-name="ring" unicode="&#x2da;" horiz-adv-x="819" 
d="M283 1380q1 -57 37 -94t90 -37t90 37q37 37 37 94q0 56 -37 94t-90 38t-91 -37q-36 -38 -36 -95zM162 1379q0 103 71 173q73 70 177 70t176 -69t72 -172t-72 -173t-176 -70t-177 69q-71 69 -71 172z" />
    <glyph glyph-name="ogonek" unicode="&#x2db;" horiz-adv-x="819" 
d="M352 -211q0 -55 32 -84t77 -29t84 22t96 75l51 -47q-41 -64 -60 -92q-20 -28 -64 -76q-83 -89 -199 -88q-117 0 -183 60t-66 154t82 188q81 94 290 241h96q-140 -129 -188 -199t-48 -125z" />
    <glyph glyph-name="tilde" unicode="&#x2dc;" horiz-adv-x="819" 
d="M408 1223l-56 16q-150 45 -184 39q-51 -8 -84 -94l-78 41l10 26q87 225 218 233q65 3 153 -24l55 -16q137 -49 197 -42q59 7 96 103l78 -41l-10 -30q-72 -186 -163 -225t-232 14z" />
    <glyph glyph-name="hungarumlaut" unicode="&#x2dd;" horiz-adv-x="819" 
d="M756 1579v-35l-226 -364h-110l102 399h234zM410 1579v-35l-226 -364h-110l102 399h234z" />
    <glyph glyph-name="Wgrave" unicode="&#x1e80;" horiz-adv-x="2318" 
d="M893 1792h295l139 -285h-172l-262 240v45zM12 1360h723v-115l-155 -26l288 -863l222 680l-66 185l-147 24v115h708v-115l-153 -28l288 -859l252 834l-172 53v115h506v-115l-158 -41l-413 -1227h-267l-305 850l-280 -850h-267l-444 1242l-160 26v115z" />
    <glyph glyph-name="wgrave" unicode="&#x1e81;" horiz-adv-x="1822" 
d="M707 1579h270l98 -399h-131l-237 362v37zM1358 1012h457v-119l-113 -19l-309 -890h-265l-188 508l-20 59h-5q-12 -35 -22 -59l-209 -508h-285l-288 890l-103 21v117h635v-119l-158 -19l150 -595h4q16 47 25 69l254 664h182l219 -664l12 -49h4q6 25 15 49l155 496l-147 49
v119z" />
    <glyph glyph-name="Wacute" unicode="&#x1e82;" horiz-adv-x="2318" 
d="M1569 1792v-45l-262 -240h-172l139 285h295zM12 1360h723v-115l-155 -26l288 -863l222 680l-66 185l-147 24v115h708v-115l-153 -28l288 -859l252 834l-172 53v115h506v-115l-158 -41l-413 -1227h-267l-305 850l-280 -850h-267l-444 1242l-160 26v115z" />
    <glyph glyph-name="wacute" unicode="&#x1e83;" horiz-adv-x="1822" 
d="M1300 1579v-37l-237 -362h-131l96 399h272zM1358 1012h457v-119l-113 -19l-309 -890h-265l-188 508l-20 59h-5q-12 -35 -22 -59l-209 -508h-285l-288 890l-103 21v117h635v-119l-158 -19l150 -595h4q16 47 25 69l254 664h182l219 -664l12 -49h4q6 25 15 49l155 496
l-147 49v119z" />
    <glyph glyph-name="Wdieresis" unicode="&#x1e84;" horiz-adv-x="2318" 
d="M1489 1470q-66 0 -113 48t-47 112q0 66 47 114t113 48t114 -48t48 -114t-48 -113t-114 -47zM979 1470q-66 0 -113 48t-47 112q0 66 47 114t113 48t113 -48t47 -114t-47 -113t-113 -47zM12 1360h723v-115l-155 -26l288 -863l222 680l-66 185l-147 24v115h708v-115
l-153 -28l288 -859l252 834l-172 53v115h506v-115l-158 -41l-413 -1227h-267l-305 850l-280 -850h-267l-444 1242l-160 26v115z" />
    <glyph glyph-name="wdieresis" unicode="&#x1e85;" horiz-adv-x="1822" 
d="M1241 1198q-66 0 -113 47t-47 113t47 114t113 48t114 -48t48 -114t-48 -113t-114 -47zM772 1198q-66 0 -113 47t-47 113t47 114t113 48t113 -48t47 -114t-47 -113t-113 -47zM1358 1012h457v-119l-113 -19l-309 -890h-265l-188 508l-20 59h-5q-12 -35 -22 -59l-209 -508
h-285l-288 890l-103 21v117h635v-119l-158 -19l150 -595h4q16 47 25 69l254 664h182l219 -664l12 -49h4q6 25 15 49l155 496l-147 49v119z" />
    <glyph glyph-name="Ygrave" unicode="&#x1ef2;" horiz-adv-x="1447" 
d="M492 1792h294l140 -285h-172l-262 240v45zM1104 0h-760v113l188 26v359l-389 729l-131 18v115h746v-111l-174 -26l247 -547l273 536l-178 37v111h510v-111l-160 -37l-361 -641v-432l189 -26v-113z" />
    <glyph glyph-name="ygrave" unicode="&#x1ef3;" horiz-adv-x="1167" 
d="M387 1579h270l99 -399h-131l-238 362v37zM756 1012h399v-119l-86 -19l-424 -1071q-81 -203 -145 -273t-162 -69t-158 53t-61 131q0 79 46 123t120 44q96 0 161 -119h11l71 166l-430 1015l-86 21v117h604v-119l-133 -19l203 -591h10l201 577l-141 33v119z" />
    <glyph glyph-name="uni2009" unicode="&#x2009;" horiz-adv-x="225" 
 />
    <glyph glyph-name="endash" unicode="&#x2013;" horiz-adv-x="835" 
d="M8 528v142h819v-142h-819z" />
    <glyph glyph-name="emdash" unicode="&#x2014;" horiz-adv-x="1654" 
d="M8 528v142h1639v-142h-1639z" />
    <glyph glyph-name="quoteleft" unicode="&#x2018;" horiz-adv-x="548" 
d="M334 1298q0 -109 139 -184q-10 -88 -58 -141t-132 -53t-139 73q-54 74 -54 176q0 262 369 461l57 -94q-182 -109 -182 -238z" />
    <glyph glyph-name="quoteright" unicode="&#x2019;" horiz-adv-x="548" 
d="M215 1251q0 109 -139 185q10 88 58 141t132 53t138 -74t55 -176q0 -261 -369 -460l-57 94q182 109 182 237z" />
    <glyph glyph-name="quotesinglbase" unicode="&#x201a;" horiz-adv-x="548" 
d="M215 25q0 109 -139 184q10 88 58 141t132 53q84 1 138 -73t55 -176q0 -262 -369 -461l-57 94q182 109 182 238z" />
    <glyph glyph-name="quotedblleft" unicode="&#x201c;" horiz-adv-x="1060" 
d="M846 1298q0 -109 139 -184q-10 -88 -58 -141t-132 -53t-139 73q-54 74 -54 176q0 262 369 461l57 -94q-182 -109 -182 -238zM334 1298q0 -109 139 -184q-10 -88 -58 -141t-132 -53t-139 73q-54 74 -54 176q0 262 369 461l57 -94q-182 -109 -182 -238z" />
    <glyph glyph-name="quotedblright" unicode="&#x201d;" horiz-adv-x="1060" 
d="M727 1251q0 109 -139 185q10 88 58 141t132 53t138 -74t55 -176q0 -261 -369 -460l-57 94q182 109 182 237zM215 1251q0 109 -139 185q10 88 58 141t132 53t138 -74t55 -176q0 -261 -369 -460l-57 94q182 109 182 237z" />
    <glyph glyph-name="quotedblbase" unicode="&#x201e;" horiz-adv-x="1060" 
d="M727 25q0 109 -139 184q10 88 58 141t132 53q84 1 138 -73t55 -176q0 -262 -369 -461l-57 94q182 109 182 238zM215 25q0 109 -139 184q10 88 58 141t132 53q84 1 138 -73t55 -176q0 -262 -369 -461l-57 94q182 109 182 238z" />
    <glyph glyph-name="dagger" unicode="&#x2020;" horiz-adv-x="700" 
d="M51 1116v164l213 -8l-8 235h186l-10 -235l217 8v-164l-217 6l10 -516h-186l10 516z" />
    <glyph glyph-name="daggerdbl" unicode="&#x2021;" horiz-adv-x="700" 
d="M51 1116v164l213 -8l-8 235h186l-10 -235l217 8v-164l-219 6v-176l219 8v-163l-217 6l10 -234h-186l8 234l-213 -6v163l217 -8v176z" />
    <glyph glyph-name="bullet" unicode="&#x2022;" horiz-adv-x="679" 
d="M340 328q-94 0 -161 66t-66 161q0 94 66 161q67 66 161 66t161 -66t67 -161q0 -94 -67 -161q-67 -66 -161 -66z" />
    <glyph glyph-name="ellipsis" unicode="&#x2026;" horiz-adv-x="1757" 
d="M1479 -29q-76 1 -130 55q-55 54 -55 129t54 130t132 55q77 0 131 -55t54 -130t-55 -129t-131 -55zM893 -29q-76 1 -130 55t-54 129t54 130t131 55t131 -55t54 -130t-55 -129t-131 -55zM307 -29q-76 1 -130 55t-54 129t54 130t131 55t131 -55q55 -55 55 -130t-56 -129
t-131 -55z" />
    <glyph glyph-name="perthousand" unicode="&#x2030;" horiz-adv-x="2867" 
d="M420 -102l995 1409h150l-996 -1409h-149zM2427 66q113 0 113 244q0 128 -49 227q-47 100 -109 100q-122 0 -121 -209q0 -115 43 -239t123 -123zM2406 745q168 0 281 -105t113 -275t-116 -288t-292 -118t-284 111q-108 112 -108 276t120 282q118 118 286 117zM1538 66
q113 0 113 244q0 128 -48 227q-47 100 -109 100q-122 0 -122 -209q0 -115 43 -239t123 -123zM1503 -41q-175 0 -283 111q-108 112 -108 276t119 282t287 117q168 0 280 -105t113 -275q0 -170 -116 -288t-292 -118zM494 569q112 0 112 244q0 127 -48 227t-110 101
q-123 0 -120 -209q0 -115 43 -239t123 -124zM473 1249q168 0 281 -105q112 -106 112 -276t-116 -288t-291 -117q-176 1 -284 111q-107 110 -107 275t118 283q119 117 287 117z" />
    <glyph glyph-name="minute" unicode="&#x2032;" horiz-adv-x="559" 
d="M459 1528v-66l-207 -461h-107l50 527h264z" />
    <glyph glyph-name="second" unicode="&#x2033;" horiz-adv-x="899" 
d="M799 1528v-66l-207 -461h-107l50 527h264zM459 1528v-66l-207 -461h-107l50 527h264z" />
    <glyph glyph-name="guilsinglleft" unicode="&#x2039;" horiz-adv-x="874" 
d="M608 983l82 -70l-332 -401l332 -424l-82 -70l-526 445v76z" />
    <glyph glyph-name="guilsinglright" unicode="&#x203a;" horiz-adv-x="874" 
d="M266 18l-82 70l332 401l-332 424l82 70l527 -444v-76z" />
    <glyph glyph-name="fraction" unicode="&#x2044;" horiz-adv-x="419" 
d="M-289 -170l-104 64l1102 1593l104 -64z" />
    <glyph glyph-name="Euro" unicode="&#x20ac;" horiz-adv-x="1427" 
d="M954 1282q162 0 266 -62t105 -149q0 -61 -55 -105t-131 -61q-127 250 -308 250q-97 0 -169 -81t-95 -259h441l-17 -113h-430v-20q0 -72 8 -121h404l-15 -112h-360q47 -129 145 -189t218 -59q162 0 319 125l63 -64q-115 -160 -229 -230t-295 -69q-241 0 -397 132t-195 354
h-174l15 112h147v29q0 63 8 112h-137l16 113h150q78 217 282 342t420 125z" />
    <glyph glyph-name="trademark" unicode="&#x2122;" horiz-adv-x="1951" 
d="M518 1255v-505l94 -13v-78h-401v78l94 13v505h-123l-37 -153h-84l9 258h684l8 -258h-84l-37 153h-123zM827 659v78l78 13v512l-78 12v86h428l113 -352l127 352h391v-86l-78 -12v-512l82 -13v-78h-391v78l88 13v493h-10l-176 -471l-27 -78h-137l-190 549h-11v-493l86 -13
v-78h-295z" />
    <glyph glyph-name="onethird" unicode="&#x2153;" horiz-adv-x="2072" 
d="M1526 -37q-141 0 -219 49t-78 133q0 45 37 81t112 44l82 -172q38 -26 100 -26t103 34t41 94t-58 99t-167 43v94l34 10q150 45 150 140q0 36 -29 62t-87 26t-102 -23t-108 -80l-69 64q82 105 173 155t220 50t208 -50t79 -137q0 -115 -195 -180v-10q256 -37 256 -197
q0 -141 -139 -222t-344 -81zM530 -170l-104 64l1102 1593l104 -64zM563 1372v-710l182 -17v-100h-686v100l207 21v489h-207l-10 98l500 119h14z" />
    <glyph glyph-name="twothirds" unicode="&#x2154;" horiz-adv-x="2115" 
d="M1569 -37q-141 0 -219 49t-78 133q0 45 37 81t112 44l82 -172q39 -26 101 -26t102 34q41 34 41 94t-58 99t-167 43v94l34 10q150 45 150 140q0 36 -29 62t-87 26t-102 -23t-108 -80l-69 64q82 105 173 155t220 50t208 -50t79 -137q0 -115 -195 -180v-10q256 -37 256 -197
q0 -141 -139 -222t-344 -81zM563 -170l-104 64l1102 1593l104 -64zM39 545v84l217 178q201 166 205 262q2 57 -34 93q-35 36 -111 36t-193 -108l-64 67q91 115 177 171t215 56t209 -64t81 -166q0 -101 -77 -172t-234 -179l-72 -49h416v-209h-735z" />
    <glyph glyph-name="oneeighth" unicode="&#x215b;" horiz-adv-x="2134" 
d="M1788 610q0 54 -44 94t-104 40t-92 -26q-31 -26 -30 -59q0 -86 131 -120l114 -31q25 47 25 102zM1483 223q0 -70 52 -116q53 -46 125 -46t110 31t38 80q0 74 -100 104l-192 58q-33 -41 -33 -111zM2064 258q0 -131 -123 -214t-299 -83t-296 57t-119 166q0 135 207 185v2
q-170 61 -170 200q0 115 115 193q116 78 282 78t265 -54t99 -149q0 -121 -186 -158v-4q225 -59 225 -219zM524 -170l-104 64l1102 1593l104 -64zM563 1372v-710l182 -17v-100h-686v100l207 21v489h-207l-10 98l500 119h14z" />
    <glyph glyph-name="threeeighths" unicode="&#x215c;" horiz-adv-x="2154" 
d="M1538 659q0 -86 131 -120l115 -31q24 47 24 102q0 54 -44 94t-104 40t-91 -26t-31 -59zM1503 223q1 -70 53 -116t124 -46t111 31q38 31 38 80q0 74 -100 104l-193 58q-33 -41 -33 -111zM1663 -39q-176 0 -296 57t-120 166q0 135 207 185v2q-170 61 -170 200
q0 115 116 193t282 78t265 -54t99 -149q0 -121 -186 -158v-4q225 -59 225 -219q0 -131 -123 -214t-299 -83zM535 -170l-105 64l1102 1593l104 -64zM348 508q-141 0 -219 49t-78 133q0 45 37 81t113 44l82 -172q39 -27 100 -27t102 34t41 94t-58 100t-167 43v94l35 10
q150 45 149 139q0 37 -28 63q-29 26 -87 26t-102 -23t-108 -80l-70 64q82 106 173 155t220 49t208 -50t79 -136q0 -115 -195 -180v-10q256 -37 256 -197q0 -141 -139 -222t-344 -81z" />
    <glyph glyph-name="fiveeighths" unicode="&#x215d;" horiz-adv-x="2119" 
d="M1774 610q0 54 -44 94t-104 40t-92 -26q-31 -26 -31 -59q0 -86 131 -120l115 -31q25 47 25 102zM1468 223q0 -70 52 -116t126 -46q72 0 110 31t38 80q0 74 -100 104l-193 58q-33 -41 -33 -111zM1628 -39q-176 0 -296 57t-120 166q0 135 207 185v2q-170 61 -170 200
q0 115 116 193t282 78t265 -54t99 -149q0 -121 -186 -158v-4q225 -59 225 -219q0 -131 -123 -214t-299 -83zM500 -170l-105 64l1102 1593l105 -64zM512 727q0 123 -195 123q-106 0 -170 -37h-26v547h606v-203h-483v-135q90 47 216 47t220 -64q94 -65 94 -179t-68 -185
q-127 -133 -378 -133q-117 0 -190 39t-72 106q0 88 124 109l109 -137q29 -15 80 -15t92 33t41 84z" />
    <glyph glyph-name="seveneighths" unicode="&#x215e;" horiz-adv-x="1996" 
d="M1651 610q0 54 -44 94q-45 40 -105 40t-91 -26t-31 -59q0 -86 131 -120l115 -31q25 47 25 102zM1522 61q72 0 111 31q38 31 38 80q0 74 -100 104l-193 58q-32 -41 -32 -111t52 -116t124 -46zM1505 -39q-176 0 -296 57t-119 166q0 135 206 185v2q-170 61 -170 200
q0 115 116 193t282 78t265 -54t99 -149q0 -121 -186 -158v-4q225 -59 225 -219q0 -131 -123 -214t-299 -83zM356 -170l-104 64l1102 1593l104 -64zM61 1122v238h727v-35l-405 -780h-252l442 577h-512z" />
    <glyph glyph-name="minus" unicode="&#x2212;" horiz-adv-x="1142" 
d="M1057 416h-971v139h971v-139z" />
    <glyph glyph-name="approxequal" unicode="&#x2248;" horiz-adv-x="1142" 
d="M340 479q57 0 156 -22l135 -33q141 -33 185 -33t75 29t65 92l99 -49q-47 -99 -107 -149t-142 -50q-83 0 -206 31l-133 35q-94 24 -138 24t-76 -32t-67 -95l-98 49q94 203 252 203zM340 807q57 0 156 -23l135 -32q141 -33 185 -33t75 29t65 92l99 -49q-47 -99 -107 -149
t-142 -50q-83 0 -206 31l-133 34q-94 25 -138 25t-76 -32t-67 -95l-98 49q94 203 252 203z" />
    <glyph glyph-name="notequal" unicode="&#x2260;" horiz-adv-x="1142" 
d="M86 600v133h600l164 205h133l-166 -205h240v-133h-346l-152 -186h498v-133h-604l-166 -205h-127l164 205h-238v133h344l150 186h-494z" />
    <glyph glyph-name="lessequal" unicode="&#x2264;" horiz-adv-x="1142" 
d="M1057 0h-971v139h971v-139zM1057 932l-770 -287l770 -285v-143l-967 369v121l967 368v-143z" />
    <glyph glyph-name="greaterequal" unicode="&#x2265;" horiz-adv-x="1142" 
d="M1057 0h-971v139h971v-139zM856 645l-770 287v143l967 -368v-121l-967 -369v143z" />
    <glyph glyph-name="Pcircle" unicode="&#x24c5;" horiz-adv-x="1660" 
d="M1014 810q0 67 -52 119t-145 56v-600l123 -14v-86h-465v86l105 14v569l-97 17v86l389 6q172 2 270 -58q98 -59 99 -177q0 -118 -111 -192t-258 -58v67q59 12 101 55q41 43 41 110zM209 670q0 -260 182 -444t438 -183q256 0 439 183q182 184 182 444t-182 443t-438 183
t-439 -183q-182 -183 -182 -443zM829 -37q-295 0 -501 206t-205 502q0 295 207 501q206 206 500 206t501 -207t207 -501t-207 -501q-207 -206 -502 -206z" />
    <glyph glyph-name="space_uni0326" horiz-adv-x="819" 
d="M393 -332q0 45 -39 69t-88 23v23q27 127 174 127q86 0 138 -48t51 -126q0 -211 -385 -301l-29 76q178 63 178 157z" />
    <glyph glyph-name="caron.alt" horiz-adv-x="819" 
d="M539 1528v-64l-201 -368h-86l49 432h238z" />
    <glyph glyph-name="space_uni0326.alt" horiz-adv-x="819" 
d="M434 1427q0 -45 39 -69t88 -23v-22q-27 -127 -174 -127q-86 0 -137 48t-51 126q0 211 385 301l28 -76q-178 -63 -178 -158z" />
    <glyph glyph-name="grave.uc" horiz-adv-x="819" 
d="M164 1792h295l139 -285h-172l-262 240v45z" />
    <glyph glyph-name="dieresis.uc" horiz-adv-x="819" 
d="M664 1470q-66 0 -113 48t-47 112q0 66 47 114t113 48t114 -48t47 -114q1 -66 -47 -113t-114 -47zM154 1470q-66 0 -113 48t-47 112q0 66 47 114t113 48t112 -48t47 -114q-1 -66 -47 -113t-112 -47z" />
    <glyph glyph-name="macron.uc" horiz-adv-x="819" 
d="M113 1556v164h594v-164h-594z" />
    <glyph glyph-name="acute.uc" horiz-adv-x="819" 
d="M592 1792v-45l-262 -240h-172l139 285h295z" />
    <glyph glyph-name="circumflex.uc" horiz-adv-x="819" 
d="M233 1507h-143l209 285h219l217 -285h-155l-174 119z" />
    <glyph glyph-name="caron.uc" horiz-adv-x="819" 
d="M588 1792h139l-209 -285h-219l-209 285h143l179 -121z" />
    <glyph glyph-name="breve.uc" horiz-adv-x="819" 
d="M403 1483q-155 0 -229 92t-78 223h111q55 -127 208 -127t199 127h107q-6 -131 -85 -223t-233 -92z" />
    <glyph glyph-name="dotaccent.uc" horiz-adv-x="819" 
d="M606 1696q0 -80 -55 -136t-144 -55q-89 -1 -143 55t-55 135q0 79 55 133q54 54 144 54t144 -53t54 -133z" />
    <glyph glyph-name="ring.uc" horiz-adv-x="819" 
d="M283 1694q0 -57 36 -95q37 -37 91 -37t90 38q37 36 37 94t-37 94q-37 37 -90 37t-90 -37t-37 -94zM162 1693q0 103 71 173q73 70 177 70t176 -70q72 -68 72 -171t-72 -173t-176 -70t-177 69q-71 69 -71 172z" />
    <glyph glyph-name="tilde.uc" horiz-adv-x="819" 
d="M406 1546l-56 15q-160 37 -194 27q-33 -10 -72 -87l-78 31l6 27q29 123 85 178t128 51t164 -27l55 -14q88 -25 138 -34t78 5q30 14 40 28t33 62l82 -22l-8 -35q-29 -125 -87 -181t-136 -54t-178 30z" />
    <glyph glyph-name="hungarumlaut.uc" horiz-adv-x="819" 
d="M752 1792v-39l-228 -246h-139l117 285h250zM426 1792v-39l-227 -246h-140l117 285h250z" />
    <glyph glyph-name="cedilla.uc" horiz-adv-x="819" 
d="M387 -307q0 61 -72 119l129 196h109l-57 -112q61 -18 104 -62t43 -106q0 -213 -412 -281l-26 84q182 61 182 162z" />
    <glyph glyph-name="idotaccent" horiz-adv-x="700" 
d="M553 1356q1 -80 -55 -136t-145 -55q-89 -1 -143 55t-54 135t55 133t144 54t143 -53t55 -133zM37 0v113l139 24v674l-139 27v112l493 101v-914l125 -24v-113h-618z" />
    <glyph glyph-name="dollar.lin" horiz-adv-x="1316" 
d="M469 1085q0 -141 170 -204l55 401q-100 -2 -163 -58q-62 -57 -62 -139zM651 88q100 0 164 58t64 140q0 81 -41 126t-136 75l-53 -399h2zM641 -37h-8l-29 -219h-115l29 225q-209 20 -362 119l-45 414h106l160 -316q72 -59 160 -82l55 420l-109 35q-328 102 -327 395
q0 170 147 304t406 143l28 205h115l-29 -211q133 -12 305 -86l25 -389h-98l-140 290q-47 37 -108 56l-57 -422l141 -45q324 -106 323 -350q0 -147 -89 -263t-218 -169q-129 -54 -266 -54z" />
    <glyph glyph-name="Euro.lin" horiz-adv-x="1445" 
d="M1001 1407q173 0 267 -69t94 -150q0 -119 -191 -172q-57 125 -120 188q-63 64 -168 64t-188 -93t-103 -294h438l-16 -113h-428v-20q0 -80 12 -148h389l-14 -113h-346q53 -139 158 -207t215 -69q110 0 178 33t145 102l68 -70q-211 -319 -535 -319q-258 0 -419 144
t-204 386h-182l15 113h155v47q0 70 8 121h-149l16 113h160q78 246 297 386t448 140z" />
    <glyph glyph-name="sterling.lin" horiz-adv-x="1601" 
d="M365 496v145h264l33 254q20 158 90 285q121 219 355 310q97 38 192 38t175 -67t78 -163q0 -131 -211 -153q-20 111 -61 179t-94 69q-100 0 -137 -279l-66 -471v-2h356v-145h-391q-86 -248 -319 -398q135 -76 245 -153l60 -43q94 -68 135 -96q108 -74 170 -72q84 0 98 284
q102 0 160 -33q57 -34 57 -98q0 -105 -141 -207t-319 -102q-264 0 -514 266l-148 158q-127 -45 -206 -45t-126 40t-47 91q0 143 187 143q94 0 264 -73q80 119 102 309l4 29h-245z" />
    <glyph glyph-name="yen.lin" horiz-adv-x="1431" 
d="M176 563v113h311l-331 551l-111 18v115h705v-111l-154 -26l238 -461h4l237 450l-157 37v111h468v-111l-139 -37l-319 -536h329v-113h-350v-141h350v-113h-350v-170l189 -26v-113h-760v113l188 26v170h-348v113h348v141h-348z" />
    <glyph glyph-name="florin.lin" horiz-adv-x="1140" 
d="M1018 1407q178 0 178 -154q0 -68 -53 -127t-125 -82q-41 205 -119 205q-65 0 -107 -99t-69 -331l-18 -151h305l-23 -133h-299l-22 -193q-25 -198 -87 -356q-61 -158 -139 -252t-166 -156q-157 -112 -282 -110q-88 0 -143 50q-54 50 -54 119t54 115t141 66
q52 -187 93 -203q15 -6 30 -6q96 0 135 266l92 660h-219l22 133h217l11 73q23 162 108 297q87 135 191 211t197 117t151 41z" />
    <glyph glyph-name="zero.lin" horiz-adv-x="1437" 
d="M666 1262q-100 -6 -146 -154t-38 -340q19 -393 140 -578q65 -98 144 -94q100 6 148 154t40 368q-14 270 -94 460t-194 184zM717 1401q279 0 449 -200q170 -201 169 -525q0 -324 -183 -522t-427 -197q-283 0 -453 200q-170 199 -170 525t184 522t431 197z" />
    <glyph glyph-name="one.lin" horiz-adv-x="968" 
d="M696 1386v-1251l232 -24v-111h-842v111l248 22v987l-238 -26l-24 104l579 188h45z" />
    <glyph glyph-name="two.lin" horiz-adv-x="1148" 
d="M1087 289v-289h-1036v129l295 285q200 196 250 324q25 65 31 101t6 89q0 111 -67 172t-168 61t-253 -139l-79 70q112 154 224 234t297 79t309 -105t124 -264t-102 -282q-56 -68 -104 -112t-152 -132t-166 -143l-86 -78h677z" />
    <glyph glyph-name="three.lin" horiz-adv-x="1140" 
d="M505 63q87 1 149 61t62 170t-115 194q-116 84 -316 92v137q176 61 282 147q107 86 107 164t-45 119t-123 41t-152 -34t-182 -116l-66 84q236 285 521 285q182 0 274 -79t92 -206q0 -225 -336 -358v-8q195 -23 303 -115t107 -244q0 -109 -60 -197q-106 -155 -353 -216
q-103 -27 -199 -27q-193 0 -298 69t-106 173q0 61 52 110t149 49l113 -262q54 -33 140 -33z" />
    <glyph glyph-name="four.lin" horiz-adv-x="1323" 
d="M684 551v506l-405 -506h405zM1022 551h260v-234h-260v-178l197 -28v-111h-742v111l207 22v184h-643v146l741 923l240 -26v-809z" />
    <glyph glyph-name="five.lin" horiz-adv-x="1116" 
d="M979 1057h-680l-12 -226q139 41 278 41q236 0 368 -118t132 -305q0 -154 -102 -271q-103 -117 -235 -169t-255 -52q-180 0 -295 74t-115 188q1 61 45 105t144 45l127 -273q49 -24 134 -24t154 59t69 178t-91 204q-90 85 -266 85q-117 0 -191 -33l-26 -10h-33l41 805h809
v-303z" />
    <glyph glyph-name="six.lin" horiz-adv-x="1300" 
d="M575 782q-66 0 -114 -49q-8 -49 -8 -119q0 -220 63 -376t170 -154q82 2 120 81t38 181q0 192 -82 314t-187 122zM766 930q188 0 317 -127t129 -303t-87 -300q-87 -122 -216 -182t-270 -59q-237 0 -397 158t-160 424q0 184 70 337q70 152 178 252t248 174q253 134 540 160
l12 -102q-524 -150 -645 -522q131 90 281 90z" />
    <glyph glyph-name="seven.lin" horiz-adv-x="1058" 
d="M61 1036v324h977v-60l-618 -1300h-250l582 1036h-691z" />
    <glyph glyph-name="eight.lin" horiz-adv-x="1273" 
d="M633 1282q-87 0 -141 -46t-54 -118t46 -120t139 -95l135 -72q80 100 80 242q0 93 -60 151t-145 58zM406 372q0 -128 74 -206q74 -76 196 -76q84 0 136 50t52 134q1 134 -202 240l-160 82q-96 -96 -96 -224zM74 315q0 129 96 212t225 124q-139 80 -200 164t-61 217
t140 254q141 121 382 121t367 -87t126 -224q0 -213 -297 -312q182 -96 267 -190t85 -219t-87 -224t-215 -147t-269 -47q-248 0 -404 93q-155 93 -155 265z" />
    <glyph glyph-name="nine.lin" horiz-adv-x="1300" 
d="M723 563q63 0 100 37q14 74 15 174q0 209 -67 362t-175 148q-152 -4 -152 -297q0 -166 83 -295t196 -129zM549 422q-217 0 -335 124t-118 322q0 260 164 396t390 137q226 0 398 -165t171 -415q0 -199 -73 -361q-72 -162 -184 -261q-112 -100 -253 -168
q-256 -123 -527 -119l-14 92q504 94 627 479q-104 -61 -246 -61z" />
    <glyph glyph-name="percent.lin" horiz-adv-x="1902" 
d="M1448 66q113 0 113 244q0 128 -49 227q-46 100 -108 100q-122 0 -122 -209q0 -115 43 -239t123 -123zM1427 745q168 0 281 -105t113 -275t-116 -288t-292 -118t-284 111q-107 112 -107 276t118 282t287 117zM508 711q113 -1 113 243q0 128 -49 228q-46 100 -108 100
q-122 0 -122 -209q0 -115 43 -239t123 -123zM330 -102l1054 1493h150l-1055 -1493h-149zM487 1391q168 1 281 -105t113 -276t-116 -288t-292 -118t-284 111q-107 111 -107 275t118 283q118 118 287 118z" />
    <glyph glyph-name="perthousand.lin" horiz-adv-x="2791" 
d="M2292 637q-122 0 -121 -209q0 -115 43 -239t123 -123q113 0 113 244q0 128 -48 227q-48 100 -110 100zM2316 745q168 0 281 -105t113 -275t-116 -288t-292 -118t-284 111q-108 112 -108 276t120 282q118 118 286 117zM1448 66q113 0 113 244q0 128 -49 227
q-46 100 -108 100q-122 0 -122 -209q0 -115 43 -239t123 -123zM1427 745q168 0 281 -105t113 -275t-116 -288t-292 -118t-284 111q-107 112 -107 276t118 282t287 117zM508 711q113 -1 113 243q0 128 -49 228q-46 100 -108 100q-122 0 -122 -209q0 -115 43 -239t123 -123z
M330 -102l1054 1493h150l-1055 -1493h-149zM487 1391q168 1 281 -105t113 -276t-116 -288t-292 -118t-284 111q-107 111 -107 275t118 283q118 118 287 118z" />
    <glyph glyph-name="plus.lin" horiz-adv-x="1142" 
d="M1057 559h-412v-416h-147v416h-412v139h412v416h147v-416h412v-139z" />
    <glyph glyph-name="minus.lin" horiz-adv-x="1142" 
d="M1057 559h-971v139h971v-139z" />
    <glyph glyph-name="multiply.lin" horiz-adv-x="1142" 
d="M930 158l-369 370l-360 -366l-97 96l369 371l-369 368l101 101l366 -369l369 379l94 -98l-366 -373l368 -371z" />
    <glyph glyph-name="divide.lin" horiz-adv-x="1142" 
d="M571 786q-69 0 -119 52t-50 120t50 119t120 51t120 -51q51 -51 51 -120t-51 -120t-121 -51zM569 127q-69 0 -119 51t-50 120t50 120t120 51t120 -51q51 -51 51 -120t-51 -120t-121 -51zM1057 561h-971v135h971v-135z" />
    <glyph glyph-name="equal.lin" horiz-adv-x="1142" 
d="M86 424v133h971v-133h-971zM86 743v134h971v-134h-971z" />
    <glyph glyph-name="less.lin" horiz-adv-x="1142" 
d="M1055 989l-799 -364l799 -361v-149l-967 450v121l967 451v-148z" />
    <glyph glyph-name="greater.lin" horiz-adv-x="1142" 
d="M88 262l799 365l-799 360v150l967 -451v-121l-967 -450v147z" />
    <glyph glyph-name="plusminus.lin" horiz-adv-x="1140" 
d="M1057 0h-971v139h971v-139zM1057 866h-412v-415h-147v415h-412v140h412v415h147v-415h412v-140z" />
    <glyph glyph-name="notequal.lin" horiz-adv-x="1142" 
d="M86 743v134h600l164 204h133l-166 -204h240v-134h-346l-152 -186h498v-133h-604l-166 -205h-127l164 205h-238v133h344l150 186h-494z" />
    <glyph glyph-name="approxequal.lin" horiz-adv-x="1142" 
d="M340 623q57 0 156 -23l135 -33q141 -33 185 -33t75 30q31 28 65 91l99 -49q-47 -100 -107 -149t-142 -49q-83 0 -206 30l-133 35q-94 25 -138 25t-76 -32t-67 -95l-98 49q94 203 252 203zM816 862q44 0 75 29t65 92l99 -49q-47 -100 -107 -150t-142 -49q-83 0 -206 31
l-133 35q-94 25 -138 25t-76 -33q-32 -32 -67 -95l-98 50q94 203 252 202q57 0 156 -22l135 -33q141 -33 185 -33z" />
    <glyph glyph-name="lessequal.lin" horiz-adv-x="1142" 
d="M1057 0h-971v139h971v-139zM1057 1075l-770 -287l770 -284v-144l-967 369v121l967 369v-144z" />
    <glyph glyph-name="greaterequal.lin" horiz-adv-x="1142" 
d="M1057 0h-971v139h971v-139zM856 788l-770 287v144l967 -369v-121l-967 -369v144z" />
    <glyph glyph-name="numbersign.lin" horiz-adv-x="1214" 
d="M494 924l-62 -349h293l61 349h-292zM168 924v123h223l58 313h122l-57 -313h293l57 313h123l-57 -313h219v-123h-240l-61 -349h211v-122h-234l-53 -310h-123l53 310h-292l-54 -310h-123l54 310h-209v122h231l62 349h-203z" />
    <glyph glyph-name="ordfeminine.lin" horiz-adv-x="942" 
d="M338 832q0 -48 30 -81q30 -32 73 -32q42 0 79 33v223l-51 -12q-75 -23 -103 -53t-28 -78zM303 559q-100 1 -166 63q-65 62 -65 159t62 147t183 80l203 49v51q0 193 -127 192q-47 0 -76 -12l2 -174q-53 -31 -112 -31q-100 0 -101 97q0 80 118 152t278 73q160 0 226 -73
t67 -230v-348q0 -40 13 -52t52 -12h53v-67q-121 -63 -209 -63t-122 36q-34 37 -52 111h-4q-26 -43 -50 -71t-70 -52t-103 -25z" />
    <glyph glyph-name="ordmasculine.lin" horiz-adv-x="972" 
d="M920 988q0 -187 -122 -314t-322 -127q-198 0 -310 119t-113 303q0 184 123 311q122 127 314 127t311 -116t119 -303zM442 1298q-62 -8 -86 -106t-5 -241q19 -144 69 -226t110 -72q63 7 87 105t5 241q-20 143 -68 227t-112 72z" />
    <glyph glyph-name="dollar.tab" 
d="M451 1022q0 -145 147 -186l51 383q-90 -3 -144 -57t-54 -140zM825 279q0 150 -161 186l-50 -371q90 0 151 52q60 53 60 133zM123 893q0 170 137 301t406 143l36 269h115l-37 -271q102 -10 299 -80l15 -374h-107l-115 270q-55 41 -108 55l-53 -397l123 -29
q180 -39 255 -126t74 -220q0 -192 -178 -324t-387 -139l-31 -227h-114l30 231q-186 12 -364 103l-37 407h104l152 -297q78 -55 164 -79l51 383l-96 24q-158 37 -246 138t-88 239z" />
    <glyph glyph-name="Euro.tab" 
d="M784 1282q166 0 268 -70t101 -157q0 -106 -182 -156q-66 127 -122 188t-132 61t-135 -79q-59 -80 -76 -254h375l-17 -113h-364v-14q0 -72 6 -127h338l-17 -112h-297q76 -238 306 -238q127 0 256 115l61 -54q-170 -309 -469 -309q-199 0 -333 135t-171 351h-151l16 112
h125v27q0 66 8 114h-112l16 113h121q68 215 241 341q174 126 340 126z" />
    <glyph glyph-name="sterling.tab" 
d="M172 496v145h264l17 139q31 258 205 407q175 148 356 148q104 -1 190 -71t86 -148t-47 -115t-156 -49q-61 248 -167 248q-47 0 -70 -60t-39 -218l-31 -281h322v-145h-348q-76 -264 -320 -414q111 -70 195 -137l55 -45q172 -138 210 -156t62 -18q61 0 84 72t23 212
q195 -12 194 -123q0 -113 -128 -211t-293 -98q-260 0 -471 250l-140 164q-88 -27 -147 -27t-98 34t-39 93t43 94q42 35 118 35t205 -67q88 119 109 313l2 29h-246z" />
    <glyph glyph-name="yen.tab" 
d="M94 543v112h303l-280 516l-101 19v115h627v-111l-106 -27l184 -422h4l182 412l-110 37v111h415v-111l-133 -37l-264 -502h320v-112h-344v-142h344v-112h-344v-150l192 -26v-113h-739v113l192 26v150h-342v112h342v142h-342z" />
    <glyph glyph-name="florin.tab" 
d="M1028 1245q178 0 178 -153q0 -68 -53 -127t-125 -82q-41 205 -119 204q-67 0 -109 -100t-67 -330l-6 -51h338l-23 -133h-329l-13 -131q-20 -196 -80 -356t-136 -253t-165 -155q-157 -112 -282 -110q-88 0 -142 50q-55 50 -55 119t54 115t141 66q31 -109 46 -138
q15 -28 30 -50t47 -21q86 0 125 266l82 598h-271l23 133h268q27 156 113 285q141 211 384 314q91 40 146 40z" />
    <glyph glyph-name="zero.tab" 
d="M614 -37q-232 0 -384 163q-152 162 -152 402t154 408q155 168 377 168t383 -155t161 -401t-153 -416q-154 -169 -386 -169zM428 647q0 -207 62 -377t161 -170q150 0 150 314q0 233 -67 392t-156 159q-150 -1 -150 -318z" />
    <glyph glyph-name="one.tab" 
d="M848 1104v-954l278 -25v-125h-962v125l319 25v694h-307l-14 114l672 146h14z" />
    <glyph glyph-name="two.tab" 
d="M1100 264v-264h-932v135l84 68q242 195 339 296t97 186t-52 133t-143 48t-229 -116l-80 71q49 68 86 111t91 87q102 83 276 84t274 -94q101 -95 101 -223t-68 -208q-68 -78 -239 -199l-164 -115h559z" />
    <glyph glyph-name="three.tab" 
d="M360 -438q-114 0 -198 54t-84 146t125 132l215 -209q150 -9 240 61t90 182q0 272 -441 299v156l96 33q293 102 291 274q0 80 -56 130t-156 50t-240 -108l-76 69q188 272 467 273q183 0 287 -88t104 -220t-79 -214t-191 -127l-86 -35v-8q200 -16 316 -116t116 -245
q0 -96 -45 -178t-119 -138t-168 -96q-94 -41 -194 -59t-214 -18z" />
    <glyph glyph-name="four.tab" 
d="M662 254v532l-386 -532h386zM662 -391v411h-617v146l731 975l199 -17v-870h213v-234h-213v-411h-313z" />
    <glyph glyph-name="five.tab" 
d="M59 -238q0 54 39 94t84 52l219 -223q125 0 222 75q96 76 96 211q0 297 -549 391l190 703h684v-287h-626l-39 -143q678 -125 678 -524q0 -135 -68 -244t-175 -173q-219 -132 -471 -132q-122 0 -203 59t-81 141z" />
    <glyph glyph-name="six.tab" 
d="M575 774q-61 0 -110 -55q-12 -73 -12 -171q-1 -98 21 -200t72 -178t118 -76t102 76t35 190q0 206 -63 310t-163 104zM731 932q201 0 316 -122t114 -290q0 -270 -161 -414t-382 -145q-222 0 -376 155t-154 429q0 175 67 329q119 275 405 450q249 155 491 177l18 -106
q-201 -68 -351 -207t-216 -332q98 76 229 76z" />
    <glyph glyph-name="seven.tab" 
d="M154 741v324h1007v-49l-676 -1206l-145 -279l-178 98l717 1112h-725z" />
    <glyph glyph-name="eight.tab" 
d="M434 1108q0 -115 174 -211l119 -66q88 96 88 210t-56 171q-55 58 -141 58t-135 -46t-49 -116zM375 352q0 -106 74 -178t174 -72t157 48q58 48 58 116q0 70 -48 128t-157 116l-154 84q-104 -100 -104 -242zM70 326q0 211 315 321q-127 76 -187 161t-60 222t135 255
t365 118t349 -90t119 -228q0 -193 -293 -303l43 -22q158 -88 226 -171t69 -200q0 -190 -169 -310t-396 -120t-372 102q-144 103 -144 265z" />
    <glyph glyph-name="nine.tab" 
d="M668 289q55 0 98 37q16 92 16 180q0 207 -57 340t-154 133q-65 0 -103 -76t-38 -198q0 -199 71 -307t167 -109zM512 135q-200 0 -314 128t-114 319q0 252 161 389t379 137t374 -161t157 -421q0 -412 -378 -712q-185 -148 -428 -224q-99 -31 -179 -34l-18 102
q216 70 368 208t217 337q-94 -68 -225 -68z" />
    <glyph glyph-name="cent.tab" 
d="M459 567q0 -248 131 -338l94 707q-94 -16 -160 -120t-65 -249zM782 182q58 0 128 31t106 61l35 31l47 -61q-92 -135 -194 -204t-247 -71l-28 -225h-103l31 233q-186 29 -296 166t-109 326q0 252 160 409q161 157 386 171l31 225h102l-30 -227q129 -17 207 -89t78 -146
t-40 -113q-38 -38 -94 -37l-88 10l-22 241q-33 14 -56 19l-98 -742q36 -8 94 -8z" />
    <glyph glyph-name="percent.tab" horiz-adv-x="1843" 
d="M1370 637q-106 -6 -96 -213q5 -174 72 -290q39 -69 92 -66q100 2 94 221q-4 152 -51 251q-48 99 -111 97zM1026 348q0 166 110 282t272 115q161 1 266 -107q106 -108 106 -278t-108 -285q-108 -116 -276 -116t-270 112q-100 111 -100 277zM408 1141q-106 -6 -97 -213
q5 -173 72 -290q39 -69 92 -67q100 2 94 222q-4 152 -51 251t-110 97zM348 -102l995 1409h150l-995 -1409h-150zM817 864q1 -170 -107 -286t-277 -115q-169 -1 -269 111t-100 278t110 282t271 115q161 0 267 -107q105 -108 105 -278z" />
    <glyph glyph-name="perthousand.tab" horiz-adv-x="2457" 
d="M2038 637q-98 -6 -88 -213q4 -119 43 -240t108 -118q92 6 86 223q-4 152 -48 251t-101 97zM2068 745q142 1 240 -109t98 -279t-95 -283t-244 -115q-149 0 -243 115q-94 114 -95 278q0 164 98 279q99 114 241 114zM1266 637q-96 -6 -86 -213q4 -119 43 -240t108 -118
q92 6 86 223q-4 152 -49 251t-102 97zM1298 745q142 1 240 -109t98 -279t-95 -283t-245 -115q-150 0 -244 115q-94 114 -94 278t99 278t241 115zM371 1141q-96 -6 -86 -213q4 -108 29 -194q47 -167 124 -163q90 2 84 222q-4 152 -49 251t-102 97zM276 -102l994 1409h149
l-993 -1409h-150zM403 1249q142 1 241 -109t99 -279t-96 -283t-245 -115q-150 0 -244 115q-94 114 -94 278t98 278q99 114 241 115z" />
    <glyph glyph-name="plus.tab" 
d="M1100 416h-412v-416h-147v416h-412v139h412v416h147v-416h412v-139z" />
    <glyph glyph-name="minus.tab" 
d="M1100 416h-971v139h971v-139z" />
    <glyph glyph-name="multiply.tab" 
d="M973 14l-369 371l-360 -367l-97 97l369 370l-369 369l101 100l366 -368l369 379l94 -99l-366 -372l368 -371z" />
    <glyph glyph-name="divide.tab" 
d="M614 643q-70 0 -120 51t-50 120t50 120t120 51t121 -51t51 -120t-51 -120t-121 -51zM612 -16q-70 0 -120 51t-50 120t50 119t120 52q70 0 121 -52t51 -120t-51 -119t-121 -51zM1100 418h-971v135h971v-135z" />
    <glyph glyph-name="equal.tab" 
d="M129 281v133h971v-133h-971zM129 600v133h971v-133h-971z" />
    <glyph glyph-name="less.tab" 
d="M1098 846l-799 -365l799 -360v-150l-967 451v121l967 450v-147z" />
    <glyph glyph-name="greater.tab" 
d="M131 119l799 364l-799 361v149l967 -450v-121l-967 -451v148z" />
    <glyph glyph-name="plusminus.tab" 
d="M1102 0h-971v139h971v-139zM1102 723h-412v-416h-147v416h-412v139h412v416h147v-416h412v-139z" />
    <glyph glyph-name="notequal.tab" 
d="M129 600v133h600l164 205h133l-166 -205h240v-133h-346l-152 -186h498v-133h-604l-166 -205h-127l164 205h-238v133h344l150 186h-494z" />
    <glyph glyph-name="approxequal.tab" 
d="M383 479q57 0 156 -22l135 -33q141 -33 185 -33t75 29t65 92l99 -49q-46 -99 -106 -149t-143 -50t-206 31l-133 35q-94 24 -138 24t-76 -32t-67 -95l-98 49q94 203 252 203zM383 807q57 0 156 -23l135 -32q141 -33 185 -33t75 29t65 92l99 -49q-46 -99 -106 -149
t-143 -50t-206 31l-133 34q-94 25 -138 25t-76 -32t-67 -95l-98 49q94 203 252 203z" />
    <glyph glyph-name="lessequal.tab" 
d="M1100 0h-971v139h971v-139zM1100 932l-770 -287l770 -285v-143l-967 369v121l967 368v-143z" />
    <glyph glyph-name="greaterequal.tab" 
d="M1100 0h-971v139h971v-139zM899 645l-770 287v143l967 -368v-121l-967 -369v143z" />
    <glyph glyph-name="parenleft.tab" horiz-adv-x="735" 
d="M422 564q0 -278 85 -502t257 -431h-189q-193 176 -300 419t-107 510t110 513t297 426h197q-176 -211 -263 -434t-87 -501z" />
    <glyph glyph-name="parenright.tab" horiz-adv-x="735" 
d="M569 572q1 -269 -109 -515t-298 -426h-197q176 211 263 435t87 500q0 278 -85 502t-257 431h203q190 -174 292 -416t101 -511z" />
    <glyph glyph-name="bracketleft.tab" horiz-adv-x="735" 
d="M700 -371h-454v1872h454v-121h-204v-1630h204v-121z" />
    <glyph glyph-name="bracketright.tab" horiz-adv-x="735" 
d="M35 1501h454v-1872h-454v121h205v1630h-205v121z" />
    <glyph glyph-name="braceleft.tab" horiz-adv-x="735" 
d="M741 1501v-106q-115 0 -151 -43t-41 -189l-10 -360q-6 -207 -217 -236v-4q211 -29 217 -235l10 -361q4 -145 41 -188t151 -43v-107h-30q-416 0 -416 359v356q0 78 -24 109t-76 32l-78 2v156l78 2q53 2 77 33t23 108v357q-4 358 416 358h30z" />
    <glyph glyph-name="braceright.tab" horiz-adv-x="735" 
d="M-6 -371v107q116 0 152 43t40 188l11 361q6 206 217 235v4q-211 29 -217 236l-11 360q-4 145 -41 189t-151 43v106h31q416 0 415 -358v-357q0 -78 24 -108t77 -33l77 -2v-156l-77 -2q-53 -3 -77 -33t-24 -108v-356q4 -359 -415 -359h-31z" />
    <glyph glyph-name="numbersign.tab" 
d="M502 780l-62 -348h293l62 348h-293zM176 780v123h223l58 314h123l-58 -314h293l57 314h123l-57 -314h219v-123h-239l-62 -348h211v-123h-233l-54 -309h-123l54 309h-293l-53 -309h-123l53 309h-209v123h231l62 348h-203z" />
    <glyph glyph-name="period.tab" horiz-adv-x="614" 
d="M322 -29q-76 1 -130 55t-55 129q0 75 54 130q55 55 131 55t131 -55t55 -130t-55 -129t-131 -55z" />
    <glyph glyph-name="comma.tab" horiz-adv-x="614" 
d="M272 -43q0 133 -143 203q0 92 48 158q47 66 145 65q98 0 157 -71t60 -193q-1 -352 -445 -545l-55 90q233 115 233 293z" />
    <glyph glyph-name="colon.tab" horiz-adv-x="614" 
d="M322 664q-76 0 -131 55q-54 55 -54 130t54 130q55 55 131 55t131 -55t55 -130t-55 -130t-131 -55zM322 -29q-76 1 -130 55t-55 129q0 75 54 130q55 55 131 55t131 -55t55 -130t-55 -129t-131 -55z" />
    <glyph glyph-name="semicolon.tab" horiz-adv-x="614" 
d="M272 -43q0 133 -143 203q0 92 48 158q47 66 145 65q98 0 157 -71t60 -193q-1 -352 -445 -545l-55 90q233 115 233 293zM334 664q-76 0 -130 55t-54 130t54 130t130 55t131 -55t55 -130t-55 -130t-131 -55z" />
    <glyph glyph-name="space.tab" horiz-adv-x="614" 
 />
    <glyph glyph-name="dollar.lintab" 
d="M436 1077q0 -129 164 -196l53 401q-97 -2 -157 -60t-60 -145zM829 297q0 131 -167 190l-54 -399h2q96 0 158 59q61 60 61 150zM141 954q1 170 139 304t388 143l28 205h115l-29 -209q123 -14 287 -74l16 -403h-96l-139 301q-39 31 -84 45l-57 -424l143 -47
q293 -100 293 -346q0 -217 -166 -349t-387 -137l-29 -219h-114l28 225q-164 16 -340 105l-39 428h105l157 -326q57 -47 136 -72l55 420l-117 39q-293 98 -293 391z" />
    <glyph glyph-name="Euro.lintab" 
d="M842 1401q131 0 231 -69t101 -142q0 -129 -195 -178q-104 256 -223 256q-80 0 -142 -96t-84 -291h379l-14 -113h-373v-70q0 -37 4 -98h342l-14 -113h-307q37 -139 115 -211t168 -72t148 33q60 32 132 105l72 -66q-106 -162 -212 -240t-263 -79q-209 0 -345 145
q-135 145 -172 385h-143l14 113h119v51q0 61 6 117h-110l14 113h117q66 252 250 386t385 134z" />
    <glyph glyph-name="sterling.lintab" 
d="M1309 1286q0 -61 -48 -95t-155 -46q-25 111 -67 179t-92 69q-50 0 -81 -68t-53 -219l-59 -434h387v-137h-412q-70 -272 -293 -437q82 -47 176 -112l86 -60q27 -18 90 -64t107 -73q115 -71 147 -23q23 31 25 98q2 66 2 106v48q96 0 156 -32q59 -33 59 -90
q0 -106 -138 -212t-329 -106t-440 285l-119 135q-104 -39 -173 -39t-109 39q-40 40 -40 100t46 98t116 38t209 -68q45 111 70 309l6 60h-221l2 137h237l29 217q16 137 68 250q90 199 262 302q141 85 289 87q98 0 179 -73t81 -169z" />
    <glyph glyph-name="yen.lintab" 
d="M115 563v113h295l-295 551l-103 18v115h641v-111l-108 -26l176 -420h4l188 409l-106 37v111h410v-111l-132 -37l-278 -536h307v-113h-319v-141h319v-113h-319v-170l198 -26v-113h-760v113l199 26v170h-317v113h317v141h-317z" />
    <glyph glyph-name="florin.lintab" 
d="M1059 1407q178 0 178 -154q0 -68 -53 -127t-125 -82q-41 205 -119 205q-66 0 -108 -99t-68 -331l-19 -151h347l-23 -133h-340l-22 -193q-25 -198 -87 -356t-140 -252t-165 -156q-157 -112 -282 -110q-88 0 -143 50q-54 50 -54 119t54 115t141 66q52 -187 93 -203
q15 -6 30 -6q96 0 135 266l92 660h-281l23 133h278l11 73q23 162 108 297q86 135 190 211t198 117q93 41 151 41z" />
    <glyph glyph-name="zero.lintab" 
d="M618 1401q230 0 386 -212q156 -211 156 -527t-159 -510q-158 -194 -387 -195q-229 0 -384 212q-154 211 -154 527t156 510t386 195zM791 485q-1 309 -63 541t-157 234q-131 0 -131 -380t98 -646q52 -140 119 -140q134 0 134 391z" />
    <glyph glyph-name="one.lintab" 
d="M848 1386v-1239l299 -24v-123h-995v123l333 22v963l-323 -14l-21 104l662 188h45z" />
    <glyph glyph-name="two.lintab" 
d="M1112 289v-289h-1012v129l287 285q190 184 249 299q58 115 58 221t-66 166q-66 61 -168 61t-253 -139l-80 70q76 102 131 160q56 58 152 106t213 47q203 -1 327 -105t123 -265q0 -161 -105 -280q-58 -67 -110 -113t-154 -132q-104 -86 -167 -143l-86 -78h661z" />
    <glyph glyph-name="three.lintab" 
d="M516 63q102 1 164 61t63 170t-115 194t-317 92v137q177 61 283 147t106 164t-45 119t-121 41t-143 -33q-66 -33 -178 -117l-66 84q236 285 506 285q183 0 275 -79t92 -206q0 -225 -336 -358v-8q194 -23 302 -115t108 -244q0 -109 -60 -197q-107 -155 -353 -216
q-103 -27 -200 -27q-193 0 -291 68t-98 174q0 61 52 110t149 49l113 -262q55 -33 110 -33z" />
    <glyph glyph-name="four.lintab" 
d="M627 539v514l-359 -514h359zM965 539h219v-222h-219v-178l196 -28v-111h-741v111l207 22v184h-576v146l674 923l240 -26v-821z" />
    <glyph glyph-name="five.lintab" 
d="M1014 1057h-680l-12 -226q139 41 278 41q236 0 368 -118t132 -305q0 -154 -102 -271t-235 -169q-132 -52 -255 -52q-180 0 -295 74t-115 188q0 61 44 105t145 45l127 -273q49 -24 134 -24q86 0 154 59t68 178t-90 204t-266 85q-120 0 -189 -33l-28 -10h-33l41 805h809
v-303z" />
    <glyph glyph-name="six.lintab" 
d="M561 780q-53 0 -98 -41q-8 -51 -8 -157q1 -106 25 -225t75 -195t123 -76t104 75t31 177q0 198 -75 320t-177 122zM754 930q184 0 301 -125t116 -322q1 -238 -165 -381t-386 -143t-371 157t-151 425q0 184 67 337q67 152 170 252t240 174q245 133 531 160l12 -102
q-506 -145 -629 -510q125 78 265 78z" />
    <glyph glyph-name="seven.lintab" 
d="M147 1036v324h1018v-60l-659 -1300h-250l621 1036h-730z" />
    <glyph glyph-name="eight.lintab" 
d="M434 1110q0 -113 168 -207l123 -69q72 96 72 239q1 93 -53 151t-133 58t-128 -46t-49 -126zM403 376q0 -130 66 -208t160 -78t143 49t49 135q0 134 -186 240l-152 82q-80 -90 -80 -220zM90 315q0 129 92 211t213 121q-133 82 -192 166t-59 218t134 255q136 121 384 121
q198 0 314 -88t116 -223q0 -205 -275 -316q166 -94 246 -188t80 -215q0 -190 -165 -305t-382 -115t-362 94q-144 94 -144 264z" />
    <glyph glyph-name="nine.lintab" 
d="M682 559q51 0 84 27q14 100 14 186q0 215 -58 368t-159 148q-133 -4 -133 -301q0 -170 74 -299t178 -129zM512 422q-215 0 -323 123t-107 323q0 260 157 396t376 137q219 0 381 -165t161 -415q0 -199 -70 -361q-71 -162 -179 -261q-108 -100 -246 -168
q-250 -123 -517 -119l-14 92q492 92 608 469q-102 -51 -227 -51z" />
    <glyph glyph-name="percent.lintab" horiz-adv-x="1843" 
d="M1370 637q-106 -6 -96 -213q5 -174 72 -290q39 -69 92 -66q100 2 94 221q-4 152 -51 251q-48 99 -111 97zM1026 348q0 166 110 282t272 115q161 1 266 -107q106 -108 106 -278t-108 -285q-108 -116 -276 -116t-270 112q-100 111 -100 277zM408 1282q-106 -6 -97 -213
q5 -171 72 -290q39 -69 92 -66q100 2 94 221q-4 152 -51 251t-110 97zM348 -102l1055 1493h149l-1054 -1493h-150zM445 1391q161 0 267 -108q106 -107 105 -277q1 -170 -107 -286t-277 -116t-269 112t-100 278t110 281q110 116 271 116z" />
    <glyph glyph-name="perthousand.lintab" horiz-adv-x="2457" 
d="M2021 637q-98 -6 -88 -213q4 -119 43 -240t109 -118q92 6 86 223q-4 152 -48 251q-45 99 -102 97zM2051 745q142 0 241 -109q98 -110 98 -279t-95 -283t-244 -115q-149 0 -244 115q-95 114 -95 278t98 279q99 114 241 114zM1239 637q-96 -6 -86 -213q4 -119 43 -240
t109 -118q92 6 86 223q-3 152 -49 251t-103 97zM1271 745q142 1 240 -109q99 -110 99 -279t-96 -283t-244 -115q-150 0 -244 115q-94 114 -94 278t98 279q99 114 241 114zM375 1282q-96 -6 -86 -213q4 -106 29 -193q47 -167 124 -163q90 2 84 221q-4 152 -49 251t-102 97z
M229 -102l1055 1493h150l-1055 -1493h-150zM407 1391q142 0 241 -110q100 -111 100 -279t-96 -283t-246 -115q-148 0 -243 115t-95 279t98 278q99 115 241 115z" />
    <glyph glyph-name="numbersign.lintab" 
d="M502 924l-62 -349h293l62 349h-293zM176 924v123h223l58 313h123l-58 -313h293l57 313h123l-57 -313h219v-123h-239l-62 -349h211v-122h-233l-54 -310h-123l54 310h-293l-53 -310h-123l53 310h-209v122h231l62 349h-203z" />
    <glyph glyph-name="plus.lintab" 
d="M1100 559h-412v-416h-147v416h-412v139h412v416h147v-416h412v-139z" />
    <glyph glyph-name="minus.lintab" 
d="M1100 559h-971v139h971v-139z" />
    <glyph glyph-name="multiply.lintab" 
d="M973 158l-369 370l-360 -366l-97 96l369 371l-369 368l101 101l366 -369l369 379l94 -98l-366 -373l368 -371z" />
    <glyph glyph-name="divide.lintab" 
d="M614 786q-70 0 -120 52t-50 120t50 119t120 51t121 -51t51 -120t-51 -120t-121 -51zM612 127q-70 0 -120 51t-50 120t50 120t120 51t121 -51t51 -120t-51 -120t-121 -51zM1100 561h-971v135h971v-135z" />
    <glyph glyph-name="equal.lintab" 
d="M129 424v133h971v-133h-971zM129 743v134h971v-134h-971z" />
    <glyph glyph-name="less.lintab" 
d="M1098 989l-799 -364l799 -361v-149l-967 450v121l967 451v-148z" />
    <glyph glyph-name="greater.lintab" 
d="M131 262l799 365l-799 360v150l967 -451v-121l-967 -450v147z" />
    <glyph glyph-name="plusminus.lintab" 
d="M1102 0h-971v139h971v-139zM1102 866h-412v-415h-147v415h-412v140h412v415h147v-415h412v-140z" />
    <glyph glyph-name="notequal.lintab" 
d="M129 743v134h600l164 204h133l-166 -204h240v-134h-346l-152 -186h498v-133h-604l-166 -205h-127l164 205h-238v133h344l150 186h-494z" />
    <glyph glyph-name="approxequal.lintab" 
d="M383 623q57 0 156 -23l135 -33q141 -33 185 -33t75 30q31 28 65 91l99 -49q-46 -100 -106 -149t-143 -49t-206 30l-133 35q-94 25 -138 25t-76 -32t-67 -95l-98 49q94 203 252 203zM859 862q44 0 75 29t65 92l99 -49q-46 -100 -106 -150t-143 -49q-83 0 -206 31l-133 35
q-94 25 -138 25t-76 -33q-32 -32 -67 -95l-98 50q94 203 252 202q57 0 156 -22l135 -33q141 -33 185 -33z" />
    <glyph glyph-name="lessequal.lintab" 
d="M1100 0h-971v139h971v-139zM1100 1075l-770 -287l770 -284v-144l-967 369v121l967 369v-144z" />
    <glyph glyph-name="greaterequal.lintab" 
d="M1100 0h-971v139h971v-139zM899 788l-770 287v144l967 -369v-121l-967 -369v144z" />
    <glyph glyph-name="parenleft.uctab" horiz-adv-x="735" 
d="M422 646q0 -278 85 -502t257 -431h-189q-193 176 -300 419t-107 510t110 513t297 426h197q-176 -211 -263 -434t-87 -501z" />
    <glyph glyph-name="parenright.uctab" horiz-adv-x="735" 
d="M569 654q1 -269 -109 -515t-298 -426h-197q176 211 263 434t87 501t-85 502t-257 431h203q190 -174 292 -416t101 -511z" />
    <glyph glyph-name="bracketleft.uctab" horiz-adv-x="735" 
d="M700 -289h-454v1872h454v-121h-204v-1630h204v-121z" />
    <glyph glyph-name="bracketright.uctab" horiz-adv-x="735" 
d="M35 1583h454v-1872h-454v121h205v1630h-205v121z" />
    <glyph glyph-name="braceleft.uctab" horiz-adv-x="735" 
d="M741 1583v-106q-115 0 -151 -43t-41 -189l-10 -360q-6 -207 -217 -236v-4q211 -29 217 -235l10 -361q4 -145 41 -188t151 -43v-107h-30q-416 0 -416 359v356q0 78 -24 109t-76 32l-78 2v156l78 2q53 2 77 33t23 108v357q-4 358 416 358h30z" />
    <glyph glyph-name="braceright.uctab" horiz-adv-x="735" 
d="M-6 -289v107q116 0 152 43t40 188l11 361q6 206 217 235v4q-211 29 -217 236l-11 360q-4 145 -41 189t-151 43v106h31q416 0 415 -358v-357q0 -78 24 -108t77 -33l77 -2v-156l-77 -2q-53 -3 -77 -33t-24 -108v-356q4 -359 -415 -359h-31z" />
    <glyph glyph-name="zero.num" horiz-adv-x="1079" 
d="M72 955q0 193 140 311t334 118t328 -114t134 -316q0 -204 -140 -325t-342 -121t-328 127t-126 320zM690 822q0 200 -52 322t-132 122q-119 0 -119 -190t52 -319q52 -128 134 -130q117 -5 117 195z" />
    <glyph glyph-name="one.num" horiz-adv-x="802" 
d="M563 1372v-710l182 -17v-100h-686v100l207 21v489h-207l-10 98l500 119h14z" />
    <glyph glyph-name="two.num" horiz-adv-x="862" 
d="M39 545v84l217 178q201 166 205 262q2 57 -34 93q-35 36 -111 36t-193 -108l-64 67q91 115 177 171t215 56t209 -64t81 -166q0 -101 -77 -172t-234 -179l-72 -49h416v-209h-735z" />
    <glyph glyph-name="three.num" horiz-adv-x="894" 
d="M348 508q-141 0 -219 49t-78 133q0 45 37 81t113 44l82 -172q39 -27 100 -27t102 34t41 94t-58 100t-167 43v94l35 10q150 45 149 139q0 37 -28 63q-29 26 -87 26t-102 -23t-108 -80l-70 64q82 106 173 155t220 49t208 -50t79 -136q0 -115 -195 -180v-10
q256 -37 256 -197q0 -141 -139 -222t-344 -81z" />
    <glyph glyph-name="four.num" horiz-adv-x="942" 
d="M459 872v261l-234 -261h234zM55 715v116l492 558l186 -37v-480h168v-157h-168v-170h-274v170h-404z" />
    <glyph glyph-name="five.num" horiz-adv-x="845" 
d="M512 727q0 123 -195 123q-106 0 -170 -37h-26v547h606v-203h-483v-135q90 47 216 47t220 -64q94 -65 94 -179t-68 -185q-127 -133 -378 -133q-117 0 -190 39t-72 106q0 88 124 109l109 -137q29 -15 80 -15t92 33t41 84z" />
    <glyph glyph-name="six.num" horiz-adv-x="970" 
d="M532 604q39 0 61 40t21 106q0 233 -157 233q-31 0 -68 -20q-2 -35 -2 -70q0 -127 41 -208t104 -81zM899 812q1 -132 -115 -218t-290 -86t-293 101t-119 296q0 227 206 361t486 125l10 -76q-190 -31 -276 -101t-121 -182q76 58 209 58t218 -73t85 -205z" />
    <glyph glyph-name="seven.num" horiz-adv-x="808" 
d="M61 1122v238h727v-35l-405 -780h-252l442 577h-512z" />
    <glyph glyph-name="eight.num" horiz-adv-x="972" 
d="M627 1155q0 55 -44 94q-45 39 -105 39t-91 -26t-31 -58q0 -86 131 -121l115 -30q25 47 25 102zM498 606q72 0 111 31q38 31 38 80q0 74 -100 104l-193 58q-32 -41 -32 -111t52 -116t124 -46zM481 506q-176 0 -296 57t-119 166q0 135 206 184v2q-170 61 -170 201
q0 115 116 193q116 77 282 77t265 -54t99 -148q0 -121 -186 -158v-4q225 -59 225 -219q0 -131 -123 -214t-299 -83z" />
    <glyph glyph-name="nine.num" horiz-adv-x="970" 
d="M455 1288q-37 0 -60 -39t-22 -100q0 -240 159 -240q31 0 68 17q2 35 2 73q0 127 -42 208t-105 81zM493 1384q175 0 293 -101t119 -296q0 -235 -211 -365t-534 -120l-10 67q237 24 338 116q48 44 71 82t41 93q-98 -61 -194 -61q-145 0 -232 68q-86 69 -86 202t115 224
t290 91z" />
    <glyph glyph-name="zero.den" horiz-adv-x="1079" 
d="M546 840q194 0 328 -114t134 -318t-140 -324q-140 -121 -342 -121t-328 127q-126 126 -126 320t140 312t334 118zM690 278q0 200 -52 321q-52 122 -132 122q-119 -1 -119 -191t52 -318t134 -130q117 -4 117 196z" />
    <glyph glyph-name="one.den" horiz-adv-x="802" 
d="M563 827v-710l182 -17v-100h-686v100l207 21v489h-207l-10 99l500 118h14z" />
    <glyph glyph-name="two.den" horiz-adv-x="862" 
d="M39 0v84l217 178q201 166 205 262q2 57 -34 93q-35 36 -111 36t-193 -108l-64 67q91 115 177 171q86 57 215 57t209 -65t81 -166q0 -101 -77 -172t-234 -179l-72 -49h416v-209h-735z" />
    <glyph glyph-name="three.den" horiz-adv-x="894" 
d="M348 -37q-141 0 -219 49t-78 133q0 45 37 81t113 44l82 -172q39 -26 100 -26t102 34t41 94t-58 99t-167 43v94l35 10q150 45 149 140q-1 36 -29 62t-86 26t-102 -23t-108 -80l-70 64q82 105 173 155t220 50t208 -50t79 -137q0 -115 -195 -180v-10q256 -37 256 -197
q0 -141 -139 -222t-344 -81z" />
    <glyph glyph-name="four.den" horiz-adv-x="942" 
d="M459 328v260l-234 -260h234zM55 170v117l492 557l186 -37v-479h168v-158h-168v-170h-274v170h-404z" />
    <glyph glyph-name="five.den" horiz-adv-x="845" 
d="M379 66q51 0 92 32t41 84q0 123 -195 123q-106 0 -170 -37h-26v547h606v-203h-483v-135q90 47 216 47t220 -64t94 -178t-68 -186q-127 -133 -378 -133q-117 0 -190 39t-72 107q0 88 124 108l109 -137q29 -14 80 -14z" />
    <glyph glyph-name="six.den" horiz-adv-x="970" 
d="M532 59q39 0 61 40t21 106q0 233 -157 233q-31 0 -68 -20q-2 -35 -2 -70q0 -127 41 -208t104 -81zM899 268q1 -132 -115 -218t-290 -87t-293 101t-119 296q0 228 206 362t486 124l10 -76q-190 -30 -276 -100t-121 -183q76 57 209 57t218 -72t85 -204z" />
    <glyph glyph-name="seven.den" horiz-adv-x="808" 
d="M61 578v237h727v-35l-405 -780h-252l442 578h-512z" />
    <glyph glyph-name="eight.den" horiz-adv-x="972" 
d="M627 610q0 54 -44 94q-45 40 -105 40t-91 -26t-31 -59q0 -86 131 -120l115 -31q25 47 25 102zM498 61q72 0 111 31q38 31 38 80q0 74 -100 104l-193 58q-32 -41 -32 -111t52 -116t124 -46zM481 -39q-176 0 -296 57t-119 166q0 135 206 185v2q-170 61 -170 200
q0 115 116 193t282 78t265 -54t99 -149q0 -121 -186 -158v-4q225 -59 225 -219q0 -131 -123 -214t-299 -83z" />
    <glyph glyph-name="nine.den" horiz-adv-x="970" 
d="M455 743q-37 -1 -60 -39t-22 -100q0 -240 159 -239q31 0 68 16q2 35 2 74q0 127 -42 207t-105 81zM88 524q0 132 115 224t290 92t293 -102t119 -296q0 -236 -211 -366t-534 -119l-10 68q236 23 338 115q48 44 71 82t41 93q-98 -61 -194 -61q-145 0 -232 69
q-86 69 -86 201z" />
    <glyph glyph-name="zero.sub" horiz-adv-x="1079" 
d="M546 594q194 0 328 -114t134 -317t-140 -325t-342 -121q-202 0 -328 127q-126 126 -126 320t140 312t334 118zM690 32q0 200 -52 322t-132 121q-119 0 -119 -190q0 -191 52 -319t134 -130q117 -4 117 196z" />
    <glyph glyph-name="one.sub" horiz-adv-x="802" 
d="M563 582v-711l182 -16v-101h-686v101l207 20v490h-207l-10 98l500 119h14z" />
    <glyph glyph-name="two.sub" horiz-adv-x="862" 
d="M39 -246v84l217 178q201 166 205 263q2 57 -34 93q-35 36 -111 36t-193 -109l-64 68q91 115 177 171t215 56t209 -65t81 -166q0 -101 -85 -179q-61 -57 -226 -172l-72 -49h416v-209h-735z" />
    <glyph glyph-name="three.sub" horiz-adv-x="894" 
d="M348 -283q-141 -1 -219 49t-78 134q0 45 37 81t113 44l82 -172q39 -27 100 -27t102 34t41 94t-58 99t-167 43v94l35 11q150 45 149 139q-1 36 -29 62t-86 26t-102 -22t-108 -80l-70 63q82 105 173 155t220 50t208 -50t79 -136q0 -115 -195 -181v-10q256 -37 256 -197
q0 -141 -139 -222t-344 -81z" />
    <glyph glyph-name="four.sub" horiz-adv-x="942" 
d="M459 82v260l-234 -260h234zM55 -76v117l492 557l186 -37v-479h168v-158h-168v-170h-274v170h-404z" />
    <glyph glyph-name="five.sub" horiz-adv-x="845" 
d="M379 -180q51 0 92 33t41 84q0 123 -195 122q-106 0 -170 -36h-26v546h606v-202h-483v-136q90 47 216 47t220 -64q94 -65 94 -178t-68 -186q-127 -133 -378 -133q-117 0 -190 39t-72 107q0 88 124 108l109 -137q29 -14 80 -14z" />
    <glyph glyph-name="six.sub" horiz-adv-x="970" 
d="M532 -186q39 0 61 39t21 106q0 233 -157 234q-31 0 -68 -21q-2 -35 -2 -70q0 -128 41 -208t104 -80zM899 22q1 -132 -115 -218t-290 -87t-293 101t-119 297q0 227 206 361t486 124l10 -76q-190 -30 -276 -100t-121 -182q76 57 209 57t218 -73q85 -72 85 -204z" />
    <glyph glyph-name="seven.sub" horiz-adv-x="808" 
d="M61 332v237h727v-34l-405 -781h-252l442 578h-512z" />
    <glyph glyph-name="eight.sub" horiz-adv-x="972" 
d="M627 364q0 54 -44 94q-45 40 -105 40t-91 -26t-31 -58q0 -86 131 -121l115 -31q25 47 25 102zM498 -184q72 0 111 30q38 30 38 80q0 74 -100 105l-193 57q-32 -40 -32 -110t52 -116t124 -46zM481 -285q-176 -1 -296 57t-119 167q0 135 206 184v2q-170 61 -170 201
q0 114 116 192t282 78t265 -54t99 -149q0 -121 -186 -157v-5q225 -59 225 -219q0 -131 -123 -214t-299 -83z" />
    <glyph glyph-name="nine.sub" horiz-adv-x="970" 
d="M455 498q-37 0 -60 -39t-22 -101q0 -240 159 -239q31 0 68 16q2 35 2 74q0 127 -42 208t-105 81zM88 278q0 132 115 224t290 92t293 -101t119 -296q0 -236 -211 -366t-534 -120l-10 68q237 24 338 116q48 43 71 81t41 94q-98 -61 -194 -62q-145 0 -232 69q-86 69 -86 201
z" />
    <glyph glyph-name="plus.sub" horiz-adv-x="880" 
d="M373 -219v305h-291v127h291v305h135v-305h291v-127h-291v-305h-135z" />
    <glyph glyph-name="minus.sub" horiz-adv-x="880" 
d="M799 86h-717v127h717v-127z" />
    <glyph glyph-name="zero.sup" horiz-adv-x="1079" 
d="M72 1037q0 193 140 311t334 118t328 -114t134 -316q0 -204 -140 -325t-342 -121t-328 127t-126 320zM690 904q0 200 -52 322t-132 122q-119 0 -119 -190t52 -319q52 -128 134 -130q117 -5 117 195z" />
    <glyph glyph-name="one.sup" horiz-adv-x="802" 
d="M563 1454v-711l182 -16v-100h-686v100l207 21v489h-207l-10 98l500 119h14z" />
    <glyph glyph-name="two.sup" horiz-adv-x="862" 
d="M39 627v84l217 178q201 166 205 262q2 57 -34 93q-35 36 -111 36t-193 -109l-64 68q91 115 177 171t215 56t209 -64t81 -166q0 -101 -77 -172t-234 -179l-72 -49h416v-209h-735z" />
    <glyph glyph-name="three.sup" horiz-adv-x="894" 
d="M348 590q-141 0 -219 49t-78 133q0 45 37 81t113 44l82 -172q39 -27 100 -27t102 34t41 94t-58 100t-167 43v94l35 10q150 45 149 139q0 37 -28 63q-29 25 -87 25t-102 -22t-108 -80l-70 64q82 106 173 155t220 49t208 -50t79 -136q0 -115 -195 -180v-10
q256 -37 256 -197q0 -141 -139 -222t-344 -81z" />
    <glyph glyph-name="four.sup" horiz-adv-x="942" 
d="M459 954v260l-234 -260h234zM55 797v116l492 557l186 -36v-480h168v-157h-168v-170h-274v170h-404z" />
    <glyph glyph-name="five.sup" horiz-adv-x="845" 
d="M328 590q-117 0 -190 39t-72 106q0 88 124 109l109 -137q29 -15 80 -15t92 33t41 84q0 123 -195 123q-106 0 -170 -37h-26v547h606v-203h-483v-135q90 47 216 47t220 -65t94 -178t-68 -185q-127 -133 -378 -133z" />
    <glyph glyph-name="six.sup" horiz-adv-x="970" 
d="M532 686q39 0 61 40t21 105q0 233 -157 234q-31 0 -68 -21q-2 -35 -2 -69q0 -127 41 -208t104 -81zM596 1171q133 -1 218 -73t85 -204q1 -132 -115 -218t-290 -86t-293 101t-119 296q0 227 206 361t486 125l8 -76q-190 -31 -275 -101t-120 -182q76 57 209 57z" />
    <glyph glyph-name="seven.sup" horiz-adv-x="808" 
d="M61 1204v238h727v-35l-405 -780h-252l442 577h-512z" />
    <glyph glyph-name="eight.sup" horiz-adv-x="972" 
d="M627 1237q0 55 -44 94q-45 39 -105 39t-91 -26t-31 -58q0 -86 131 -121l115 -30q25 47 25 102zM498 688q72 0 111 31q38 31 38 80q0 74 -100 104l-193 58q-32 -41 -32 -111t52 -116t124 -46zM481 588q-176 0 -296 57t-119 166q0 135 206 184v2q-170 61 -170 201
q0 115 116 193q116 77 282 77t265 -54t99 -148q0 -121 -186 -158v-4q225 -59 225 -219q0 -131 -123 -214t-299 -83z" />
    <glyph glyph-name="nine.sup" horiz-adv-x="970" 
d="M455 1368q-37 0 -60 -39t-22 -100q0 -240 159 -240q31 0 68 17q2 35 2 73q0 127 -42 208t-105 81zM493 1464q175 0 293 -101t119 -296q0 -236 -211 -366t-534 -119l-10 67q237 24 338 116q48 44 71 82t41 93q-98 -61 -194 -61q-145 0 -232 68q-86 69 -86 202t115 224
t290 91z" />
    <glyph glyph-name="plus.sup" horiz-adv-x="880" 
d="M373 653v305h-291v127h291v306h135v-306h291v-127h-291v-305h-135z" />
    <glyph glyph-name="minus.sup" horiz-adv-x="880" 
d="M799 958h-717v127h717v-127z" />
    <glyph glyph-name="a.ord" horiz-adv-x="942" 
d="M338 792q0 -46 30 -78t74 -32q43 0 74 31v219l-51 -12q-71 -23 -99 -52q-28 -30 -28 -76zM303 522q-98 0 -165 62q-66 62 -66 158q0 94 63 146t182 81l199 47v45q0 188 -125 188q-45 0 -74 -12l2 -170q-57 -29 -114 -29q-98 0 -99 95q0 79 117 149t275 70t226 -72
q69 -72 69 -223v-336q0 -41 13 -52t50 -12h53v-69q-127 -66 -214 -66t-120 38t-49 110h-6q-31 -47 -51 -72q-19 -24 -65 -50t-101 -26z" />
    <glyph glyph-name="b.ord" horiz-adv-x="1005" 
d="M477 1186q-37 0 -84 -19v-505q43 -48 116 -48t120 76t47 210t-53 210q-54 76 -146 76zM428 520q-133 0 -262 51l-49 21v928l-109 26v86l385 45v-438q91 111 229 111t232 -92t94 -282t-156 -323t-364 -133z" />
    <glyph glyph-name="c.ord" horiz-adv-x="815" 
d="M438 520q-174 0 -274 112t-101 273q1 207 131 330t310 123q118 0 186 -60t68 -130q0 -134 -129 -134l-76 8l-23 205q-33 8 -55 8q-78 -1 -117 -71t-39 -146q0 -158 70 -236t176 -77q41 0 85 16t67 33l22 19l35 -52q-72 -113 -150 -167t-186 -54z" />
    <glyph glyph-name="d.ord" horiz-adv-x="1042" 
d="M545 686q37 0 73 16v455q-52 82 -122 82t-108 -57q-38 -56 -38 -194t56 -220t139 -82zM387 520q-135 0 -229 106t-94 298t138 311q140 119 320 119q41 0 96 -21v176l-178 43v93l455 32v-997l111 -25v-86l-304 -41l-61 123q-49 -61 -104 -96t-150 -35z" />
    <glyph glyph-name="e.ord" horiz-adv-x="899" 
d="M442 1251q-53 0 -92 -52t-41 -146h252q0 198 -119 198zM449 520q-186 0 -286 112q-99 112 -100 273q-1 209 133 331t298 122t246 -115q83 -115 87 -295h-512q23 -119 96 -176t177 -57q53 0 104 18t78 37l25 18l39 -49q-50 -69 -88 -107t-118 -75t-179 -37z" />
    <glyph glyph-name="f.ord" horiz-adv-x="677" 
d="M47 543v88l105 20v572h-105v86l105 37v4q33 170 133 255t233 85t205 -50t72 -122q0 -111 -138 -111l-49 6l-51 174q-79 -6 -107 -49t-26 -133l2 -78h188v-115h-186v-561l137 -18v-90h-518z" />
    <glyph glyph-name="g.ord" horiz-adv-x="946" 
d="M266 426q0 -68 67 -109t162 -41t148 33t53 72q1 51 -69 61l-359 11q-2 -8 -2 -27zM317 1042q19 -86 63 -136t95 -42t71 70t1 147q-17 85 -59 137t-95 44t-72 -68t-4 -152zM434 770q-88 0 -164 27q-42 -67 -9 -92q13 -9 29 -11t58 -4l250 -8q274 -8 274 -182
q0 -141 -156 -248q-158 -106 -338 -106t-262 54q-82 56 -81 134q0 102 160 178l-115 113q4 39 38 103t75 110q-117 84 -117 217t104 216t254 83q94 0 217 -49l256 32v-141l-184 23l-2 -7q65 -66 65 -174t-97 -188t-255 -80z" />
    <glyph glyph-name="h.ord" horiz-adv-x="1085" 
d="M516 543h-465v88l107 20v867l-111 26v86l387 47v-440q117 121 246 121q262 0 262 -264v-443l107 -18v-90h-463v90l80 18v361q4 178 -144 174q-43 -2 -88 -21v-514l82 -20v-88z" />
    <glyph glyph-name="i.ord" horiz-adv-x="573" 
d="M290 1407q-73 0 -117 42t-44 101q0 60 45 100t118 40t117 -40t44 -100t-45 -101q-45 -42 -118 -42zM45 543v90l107 18v516l-107 19v90l383 82v-707l92 -18v-90h-475z" />
    <glyph glyph-name="j.ord" horiz-adv-x="563" 
d="M125 1550q0 60 45 100t118 40q72 0 116 -40t44 -100t-44 -101q-45 -42 -118 -42t-117 42t-44 101zM424 729q0 -213 -92 -352t-254 -154h-31l-37 86q63 41 101 125q37 84 36 262v471l-104 19v90l381 82v-629z" />
    <glyph glyph-name="k.ord" horiz-adv-x="1052" 
d="M557 1327h447v-86l-121 -31l-181 -182l330 -442q-4 -8 -12 -20t-50 -32t-112 -22t-113 28t-86 99l-208 340v18l100 27l156 182l-150 35v86zM524 543h-473v88l107 20v869l-111 24v88l387 45v-1026l90 -20v-88z" />
    <glyph glyph-name="l.ord" horiz-adv-x="581" 
d="M51 543v88l107 20v869l-111 26v86l387 45v-1026l111 -20v-88h-494z" />
    <glyph glyph-name="m.ord" horiz-adv-x="1589" 
d="M512 543h-465v90l105 18v516l-105 21v84l324 90h6l35 -139h6q90 133 270 133t232 -131h4q90 133 264 133q87 0 145 -31q109 -58 109 -203v-473l106 -18v-90h-461v90l78 18v371q4 168 -129 164q-53 -2 -100 -31v-504l82 -18v-90h-438v90l79 18v371q4 168 -131 164
q-45 -2 -100 -35v-500l84 -20v-88z" />
    <glyph glyph-name="n.ord" horiz-adv-x="1083" 
d="M512 543h-465v88l105 20v516l-105 21v84l324 90h6l35 -139h2q119 135 262 135q260 0 260 -264v-443l106 -18v-90h-462v90l79 18v361q4 178 -143 174q-43 -2 -88 -21v-514l84 -20v-88z" />
    <glyph glyph-name="o.ord" horiz-adv-x="972" 
d="M490 1354q188 0 308 -114t120 -295t-124 -306t-318 -125t-308 117t-113 295q0 178 124 303t311 125zM444 1245q-60 -7 -84 -101t-6 -236t66 -220t108 -67q61 8 85 101q23 93 5 233q-18 141 -64 221t-110 69z" />
    <glyph glyph-name="p.ord" horiz-adv-x="1042" 
d="M506 1186q-35 0 -76 -19v-483q43 -63 116 -63q73 1 119 71t46 203q-1 133 -55 212t-150 79zM49 205v90l105 18v854l-105 21v84l324 90h6l35 -139h6q102 127 236 127t231 -94q98 -94 98 -282q0 -190 -132 -322t-333 -132q-53 0 -90 12v-219l186 -18v-90h-567z" />
    <glyph glyph-name="q.ord" horiz-adv-x="1038" 
d="M496 1239q-146 -1 -146 -251q0 -138 56 -219t137 -81q39 0 75 17v448q-54 86 -122 86zM438 205v88l180 20v312q-92 -105 -229 -105t-231 106t-94 296q0 192 138 312q140 120 320 120q100 0 215 -74l152 78h6v-1043l111 -20v-90h-568z" />
    <glyph glyph-name="r.ord" horiz-adv-x="761" 
d="M47 543v88l105 20v516l-105 21v84l307 86h8l56 -154h2l2 6q78 147 186 148q63 0 107 -48t22 -124q-23 -75 -86 -125l-4 -2l-196 104h-7l-16 -2v-510l147 -20v-88h-528z" />
    <glyph glyph-name="s.ord" horiz-adv-x="817" 
d="M400 512q-142 0 -310 63l-29 275h80l90 -170q59 -68 138 -68q49 0 80 24t30 62q0 70 -121 121l-102 49q-88 40 -126 94t-38 132q0 112 95 188t233 76t278 -60l7 -245h-78l-64 145q-45 57 -119 57q-42 -1 -70 -23t-28 -57t20 -57t83 -49l98 -43q111 -49 153 -99t41 -134
q0 -117 -99 -199q-100 -82 -242 -82z" />
    <glyph glyph-name="t.ord" horiz-adv-x="616" 
d="M315 518q-201 0 -196 211l10 494h-106v86l106 39l190 225h76v-246h187v-115h-181v-421q0 -109 121 -109l62 2l20 -92q-137 -74 -289 -74z" />
    <glyph glyph-name="u.ord" horiz-adv-x="1077" 
d="M145 764v440l-102 19v82l379 45v-498q0 -164 117 -164q70 0 110 37v477l-112 21v82l389 45v-664l104 -22v-86l-291 -62l-73 148q-100 -143 -260 -144q-64 0 -118 18t-99 76q-44 57 -44 150z" />
    <glyph glyph-name="v.ord" horiz-adv-x="956" 
d="M27 1327h481v-98l-111 -12l138 -418l4 -23h4l4 23l147 401l-102 29v98h338v-98l-86 -12l-264 -687h-224l-250 687l-79 14v96z" />
    <glyph glyph-name="w.ord" horiz-adv-x="1427" 
d="M1051 1327h350v-98l-86 -12l-234 -685h-207l-155 420h-2q-10 -27 -17 -43l-155 -377h-223l-218 685l-77 14v96h487v-98l-119 -12l99 -398l12 -53h4q12 39 18 53l191 506h141l164 -506l8 -35h4q4 18 11 35l114 373l-110 37v98z" />
    <glyph glyph-name="x.ord" horiz-adv-x="985" 
d="M944 543h-485v88l80 12l-123 195h-2l-105 -187l66 -20v-88h-326v88l88 14l213 289l-205 289l-65 8v96h459v-96l-70 -10l115 -179h2l96 172l-70 17v96h314v-90l-84 -23l-191 -268l207 -301l86 -12v-90z" />
    <glyph glyph-name="y.ord" horiz-adv-x="925" 
d="M592 1327h303v-98l-66 -10l-282 -738q-81 -215 -145 -268q-34 -29 -58 -37t-74 -8t-97 42q-46 42 -46 105t36 99q35 36 101 35q66 0 117 -95h8l31 74l-326 789l-63 14v96h463v-98l-99 -12l148 -443h10l145 432l-106 23v98z" />
    <glyph glyph-name="z.ord" horiz-adv-x="905" 
d="M68 543v88l409 594h-209l-110 -195h-70l18 309l170 -12h551v-43l-444 -637h244l116 203h76l-37 -313l-155 6h-559z" />
    <glyph glyph-name="egrave.ord" horiz-adv-x="899" 
d="M442 1251q-53 0 -92 -52t-41 -146h252q0 198 -119 198zM233 1761h232l78 -305h-127l-183 277v28zM449 520q-186 0 -286 112q-99 112 -100 273q-1 209 133 331t298 122t246 -115q83 -115 87 -295h-512q23 -119 96 -176t177 -57q53 0 104 18t78 37l25 18l39 -49
q-50 -69 -88 -107t-118 -75t-179 -37z" />
    <glyph glyph-name="uacute.ord" horiz-adv-x="1077" 
d="M760 1761v-28l-182 -277h-127l77 305h232zM145 764v440l-102 19v82l379 45v-498q0 -164 117 -164q70 0 110 37v477l-112 21v82l389 45v-664l104 -22v-86l-291 -62l-73 148q-100 -143 -260 -144q-64 0 -118 18t-99 76q-44 57 -44 150z" />
    <glyph glyph-name="bullet.alt" horiz-adv-x="825" 
d="M439 1499q52 0 92 -35t40 -75q0 -63 -118 -195h-43q0 2 -14 21t-25 37q-10 18 -31 57q-21 38 -22 80t34 76t87 34zM66 1161q0 59 38 93t82 34t78 -18t51 -34t51 -61q34 -44 46 -57h32q120 120 162 129q18 4 60 4t78 -39t36 -98t-42 -100t-91 -41t-77 15t-64 46t-62 47
h-14q-29 -45 -29 -90t31 -73t115 -70q156 -80 155 -191q0 -57 -42 -94t-117 -37q-39 -51 -107 -51t-119 73t-65 89q-38 43 -84 43q-45 0 -70 -27t-22 -61h-29q-14 16 -14 65t43 84t105 35q61 0 107 -32t76 -62t52 -31q59 0 59 58q0 39 -41 71t-82 72q-41 41 -41 93t51 147
l-12 2q-119 -58 -168 -58t-83 33q-33 33 -33 92z" />
    <glyph glyph-name="Q.short" horiz-adv-x="1615" 
d="M782 1266q-135 0 -217 -144t-82 -403q-1 -260 95 -438q96 -179 246 -179t230 142q81 142 81 392q1 250 -93 440t-260 190zM820 1403q312 1 518 -187q204 -188 204 -505q0 -253 -140 -437t-364 -254q211 -227 375 -227q96 0 195 55l45 -59q-132 -120 -181 -140
q-117 -46 -215 -46q-186 0 -357 106t-431 344q-184 78 -289 240q-104 162 -104 381q0 315 216 522t528 207z" />
    <glyph glyph-name="f.short" horiz-adv-x="837" 
d="M37 0v111l139 26v744h-139v108l139 47v25q0 180 148 331q148 150 317 150q170 0 257 -56t87 -138t-54 -120q-54 -36 -126 -36l-47 4l-103 229q-71 -1 -111 -67t-32 -184l10 -162h260v-144h-252v-731l185 -26v-111h-678z" />
    <glyph glyph-name="f_f.short" horiz-adv-x="1574" 
d="M710 1415q-70 0 -128 -78q-57 -78 -56 -241l2 -84h385v49q0 68 21 129l-96 194q-58 31 -128 31zM774 0v111l139 26v742h-383v-742l146 -26v-111h-639v111l139 26v744h-139v108l139 47q14 201 200 354q186 152 407 152q222 0 304 -125q141 125 301 125t248 -56
q86 -56 86 -138t-54 -120q-54 -36 -126 -36l-47 4l-102 229q-72 -1 -112 -67t-32 -184l11 -162h262v-133h-254v-742l184 -26v-111h-678z" />
    <glyph glyph-name="i.ger" horiz-adv-x="700" 
d="M553 1356q1 -80 -55 -136t-145 -55q-89 -1 -143 55t-54 135t55 133t144 54t143 -53t55 -133zM37 0v113l139 24v674l-139 27v112l493 101v-914l125 -24v-113h-618z" />
    <glyph glyph-name="j.ger" horiz-adv-x="677" 
d="M547 1356q1 -80 -55 -136t-145 -55q-89 -1 -143 55t-54 135t55 133t144 54t143 -53t55 -133zM170 113v698l-139 27v112l493 101v-901q0 -375 -211 -543q-82 -67 -189 -92q-42 -10 -67 -11l-24 -2l-47 107q86 51 135 163t49 341z" />
    <glyph glyph-name="questiondown.uc" horiz-adv-x="831" 
d="M551 1450q70 0 120 -50t50 -119t-50 -119t-120 -50t-120 50t-50 119t50 119t120 50zM14 492q0 141 56 219t204 112l222 47v115h118l64 -364l-381 -80q-90 -23 -124 -45t-34 -56q1 -63 107 -90t364 -45l88 -6v-354l-131 22q-245 41 -399 187t-154 338z" />
    <glyph glyph-name="exclamdown.uc" horiz-adv-x="638" 
d="M322 1452q70 0 120 -50t50 -119t-50 -119t-120 -50t-120 50t-50 119t50 119t120 50zM516 0h-393l137 987h123z" />
    <glyph glyph-name="hyphen.uc" horiz-adv-x="786" 
d="M123 518v240h541v-240h-541z" />
    <glyph glyph-name="endash.uc" horiz-adv-x="876" 
d="M29 590v141h819v-141h-819z" />
    <glyph glyph-name="emdash.uc" horiz-adv-x="1695" 
d="M29 590v141h1638v-141h-1638z" />
    <glyph glyph-name="guilsinglleft.uc" horiz-adv-x="874" 
d="M608 1044l82 -69l-332 -402l332 -423l-82 -70l-526 444v76z" />
    <glyph glyph-name="guilsinglright.uc" horiz-adv-x="874" 
d="M266 80l-82 70l332 401l-332 424l82 69l527 -444v-76z" />
    <glyph glyph-name="guillemotleft.uc" horiz-adv-x="1462" 
d="M1196 1044l82 -69l-332 -402l332 -423l-82 -70l-526 444v76zM608 1044l82 -69l-332 -402l332 -423l-82 -70l-526 444v76z" />
    <glyph glyph-name="guillemotright.uc" horiz-adv-x="1462" 
d="M854 80l-82 70l332 401l-332 424l82 69l526 -444v-76zM266 80l-82 70l332 401l-332 424l82 69l527 -444v-76z" />
    <glyph glyph-name="parenleft.uc" horiz-adv-x="722" 
d="M123 642q0 265 114 511t306 428h196q-176 -211 -263 -434t-87 -501t85 -502t257 -431h-188q-195 178 -307 421q-113 243 -113 508z" />
    <glyph glyph-name="parenright.uc" horiz-adv-x="722" 
d="M600 653q0 -266 -114 -512t-306 -428h-196q176 211 263 434t87 501t-85 502t-257 431h203q193 -176 299 -419t106 -509z" />
    <glyph glyph-name="bracketleft.uc" horiz-adv-x="727" 
d="M655 -289h-454v1872h454v-121h-204v-1630h204v-121z" />
    <glyph glyph-name="bracketright.uc" horiz-adv-x="727" 
d="M72 1583h454v-1872h-454v121h204v1630h-204v121z" />
    <glyph glyph-name="braceleft.uc" horiz-adv-x="747" 
d="M717 1583v-106q-115 0 -152 -43t-41 -189l-10 -360q-6 -207 -217 -236v-4q211 -29 217 -235l10 -361q4 -145 41 -188t152 -43v-107h-31q-416 0 -416 359v356q0 78 -23 109q-24 31 -77 32l-78 2v156l78 2q53 2 77 33t23 108v357q-4 358 416 358h31z" />
    <glyph glyph-name="braceright.uc" horiz-adv-x="747" 
d="M31 -289v107q115 0 151 43t41 188l10 361q7 206 218 235v4q-211 29 -218 236l-10 360q-4 145 -41 189t-151 43v106h30q416 0 416 -358v-357q0 -78 24 -108t77 -33l77 -2v-156l-77 -2q-53 -3 -77 -33t-24 -108v-356q4 -359 -416 -359h-30z" />
    <glyph glyph-name="slash.uc" horiz-adv-x="1089" 
d="M176 -342l-125 57l826 1895l124 -58z" />
    <glyph glyph-name="backslash.uc" horiz-adv-x="1089" 
d="M1038 -285l-125 -57l-825 1894l125 58z" />
    <glyph glyph-name="bar.uc" horiz-adv-x="491" 
d="M317 -328h-143v1913h143v-1913z" />
    <glyph glyph-name="at.uc" horiz-adv-x="1998" 
d="M860 385q49 0 161 174t155 334l12 45q-43 16 -66 16q-49 0 -120 -84q-70 -84 -122 -206t-52 -200q0 -79 32 -79zM1178 1071q31 0 71 -8l15 55h252l-177 -688q-48 -162 43 -162q46 0 102 33q138 82 207 268q40 111 46 246q10 250 -163 422t-423 172q-317 0 -562 -249
t-261 -628q-12 -313 169 -489t476 -176q184 0 352 70l-4 -84q-213 -80 -440 -80q-367 -1 -578 203t-197 520q8 207 107 395q190 364 602 528q197 78 395 78q336 0 530 -189t183 -462q-6 -150 -72 -282q-121 -241 -360 -351q-106 -49 -203 -49q-143 0 -192 88t-4 237l22 78
h-6l-51 -80q-8 -12 -45 -69q-109 -168 -164 -204q-79 -50 -151 -50q-71 0 -113 51t-45 135q-6 131 67 268q132 244 394 392q110 61 178 61z" />
    <glyph glyph-name="A.sc" horiz-adv-x="1404" 
d="M582 834l-158 -416h321l-161 416h-2zM29 0v115l121 28l403 953l141 8l127 14l420 -985l135 -18v-115h-676v115l154 22l-57 148h-424l-49 -133l149 -37v-115h-444z" />
    <glyph glyph-name="B.sc" horiz-adv-x="1261" 
d="M559 993v-370q125 10 191 61t66 127t-64 125t-193 57zM559 518v-344q41 -72 148 -72q73 0 117 43t44 131t-66 156q-67 68 -188 86h-55zM1147 854q0 -116 -97 -188t-233 -88v-9q393 -18 393 -254q0 -322 -594 -317l-546 2v117l147 20v819l-137 21v121l612 2
q455 2 455 -246z" />
    <glyph glyph-name="C.sc" horiz-adv-x="1277" 
d="M743 -29q-344 0 -509 156q-164 157 -164 409t213 423t557 171q166 0 323 -51l15 -354h-109l-141 254q-61 31 -142 31q-141 0 -236 -108t-95 -312q-1 -204 109 -347q110 -142 276 -143q45 0 92 13l168 288h112l-49 -374q-254 -56 -420 -56z" />
    <glyph glyph-name="D.sc" horiz-adv-x="1449" 
d="M1364 586q0 -289 -211 -442t-559 -148l-524 4v115l147 22v819l-137 21v119l594 4q314 2 502 -142t188 -372zM694 111q123 0 204 104t81 309q1 205 -107 331t-311 136v-831q49 -49 133 -49z" />
    <glyph glyph-name="E.sc" horiz-adv-x="1271" 
d="M565 489v-362h383l142 276h106l-41 -403h-1085v115l147 22v819l-137 21v119h881l186 16v-369h-105l-100 226h-377v-344h172l45 139h95v-410h-97l-43 135h-172z" />
    <glyph glyph-name="F.sc" horiz-adv-x="1181" 
d="M565 440v-301l213 -22v-117h-708v115l147 22v819l-137 21v119h854l186 16v-381h-104l-107 238h-344v-389h176l41 139h97v-410h-99l-39 131h-176z" />
    <glyph glyph-name="G.sc" horiz-adv-x="1396" 
d="M815 516h516v-115l-80 -20v-332l-69 -20q-195 -58 -428 -58q-342 0 -512 154q-170 155 -170 413t223 426t553 166q190 0 358 -65l11 -340h-121l-109 227q-90 60 -216 60t-220 -110t-94 -312q1 -202 109 -346q108 -143 274 -144q66 0 114 19v262l-139 20v115z" />
    <glyph glyph-name="H.sc" horiz-adv-x="1546" 
d="M836 0v117l143 20v348h-414v-348l146 -20v-117h-641v115l147 22v819l-137 21v119h616v-119l-131 -21v-327h414v327l-129 21v119h616v-119l-137 -21v-819l148 -22v-115h-641z" />
    <glyph glyph-name="I.sc" horiz-adv-x="786" 
d="M70 0v115l147 22v819l-137 21v119h627v-119l-142 -21v-819l152 -22v-115h-647z" />
    <glyph glyph-name="J.sc" horiz-adv-x="761" 
d="M565 211q0 -260 -123 -391t-434 -180l-24 108q131 58 181 150t50 243v815l-141 21v119h631v-119l-140 -21v-745z" />
    <glyph glyph-name="K.sc" horiz-adv-x="1427" 
d="M911 1096h447v-119l-139 -29l-318 -305l393 -504l115 -24v-115h-412l-405 524v33l127 66l323 325l-131 29v119zM70 0v115l147 22v819l-137 21v119h616v-119l-131 -21v-819l109 -20v-117h-604z" />
    <glyph glyph-name="L.sc" horiz-adv-x="1163" 
d="M565 127h271l172 354h112l-61 -481h-989v115l147 22v819l-137 21v119h625v-119l-140 -21v-829z" />
    <glyph glyph-name="M.sc" horiz-adv-x="1808" 
d="M66 0v115l149 39l18 802l-139 21v119h584l244 -570l219 512l10 58h563v-119l-139 -21l20 -819l150 -22v-115h-662v115l168 22l-14 758l-291 -653l-65 -185h-142l-61 185l-289 661l-10 -741l160 -47v-115h-473z" />
    <glyph glyph-name="N.sc" horiz-adv-x="1472" 
d="M598 0h-530v115l149 30l2 789l-137 43v119h436l606 -719l-6 561l-231 41v117h520v-119l-139 -33v-825l10 -119l-268 2l-648 752l9 -602l227 -37v-115z" />
    <glyph glyph-name="O.sc" horiz-adv-x="1419" 
d="M722 1133q276 0 450 -158t176 -420q0 -262 -188 -422t-465 -160q-279 0 -451 153t-172 419t186 427q188 161 464 161zM741 98q103 0 159 104t56 305t-74 351t-206 150q-104 0 -160 -104t-55 -305q-1 -201 73 -351t207 -150z" />
    <glyph glyph-name="P.sc" horiz-adv-x="1208" 
d="M831 743q0 96 -67 169q-68 73 -199 83v-858l174 -22v-115h-669v115l147 22v819l-137 21v119l565 6q246 4 388 -82q143 -86 143 -251t-161 -268t-372 -81v84q82 18 135 80t53 159z" />
    <glyph glyph-name="Q.sc" horiz-adv-x="1366" 
d="M655 1004q-94 0 -146 -104t-52 -304q-1 -201 67 -349t187 -149q96 0 148 104t52 304q-1 198 -67 348t-189 150zM72 545q0 270 179 429t440 159t432 -154t171 -418q0 -197 -105 -335t-280 -199q187 -147 313 -214t246 -67t267 72l43 -60q-229 -182 -435 -182
q-133 0 -230 20t-203 78q-106 59 -195 129q-88 70 -246 209q-185 52 -291 190t-106 343z" />
    <glyph glyph-name="R.sc" horiz-adv-x="1341" 
d="M557 502h109q76 31 124 94t48 156t-70 160t-211 71v-481zM70 0v115l147 22v819l-137 21v119l567 6q285 2 413 -83t128 -222t-104 -212q-62 -45 -156 -85v-11l282 -350l113 -24v-115h-408l-141 184l-149 205h-68v-252l111 -20v-117h-598z" />
    <glyph glyph-name="S.sc" horiz-adv-x="1075" 
d="M479 92q96 0 152 39q55 39 55 105q0 111 -135 137l-162 35q-301 66 -301 317q0 162 148 285t382 123q150 0 314 -50l2 -329h-94l-101 202q-75 50 -159 50t-136 -43t-53 -105q0 -113 125 -141l170 -37q295 -63 295 -309q0 -184 -153 -295q-154 -110 -350 -110t-384 59
l-24 362h102l129 -248q82 -47 178 -47z" />
    <glyph glyph-name="T.sc" horiz-adv-x="1284" 
d="M817 969v-832l182 -22v-115h-712v115l180 20v834h-180l-117 -295h-109l7 438l186 -16h776l189 16l8 -438h-111l-119 295h-180z" />
    <glyph glyph-name="U.sc" horiz-adv-x="1404" 
d="M1212 532q0 -264 -116 -414t-378 -149q-262 0 -392 118t-131 390v479l-138 21v119h629v-119l-141 -21l-4 -473q-1 -171 65 -245t195 -74q262 0 260 328l-4 454l-146 31v119h437v-119l-136 -29v-416z" />
    <glyph glyph-name="V.sc" horiz-adv-x="1357" 
d="M27 1096h624v-121l-127 -19l271 -712l256 700l-166 31v121h448v-121l-125 -33l-397 -958h-262l-414 970l-108 23v119z" />
    <glyph glyph-name="W.sc" horiz-adv-x="1976" 
d="M29 1096h618v-119l-123 -23l209 -663l195 512l-56 151l-94 23v119h596v-119l-121 -23l209 -649l221 641l-159 31v119h424v-119l-117 -33l-354 -967h-242l-244 654l-250 -654h-239l-359 977l-114 23v119z" />
    <glyph glyph-name="X.sc" horiz-adv-x="1374" 
d="M891 1096h407v-119l-120 -27l-322 -356l361 -457l135 -22v-115h-690v115l141 12l-213 301h-6l-267 -291l142 -20v-117h-436v115l118 24l377 387l-340 428l-119 23v119h646v-119l-107 -23l188 -262h5l210 260l-110 25v119z" />
    <glyph glyph-name="Y.sc" horiz-adv-x="1296" 
d="M987 0h-659v115l159 22v193l-335 624l-121 23v119h643v-119l-135 -23l221 -440h4l223 442l-129 21v119h408v-119l-121 -21l-318 -575v-244l160 -22v-115z" />
    <glyph glyph-name="Z.sc" horiz-adv-x="1138" 
d="M31 0v141l616 828h-350l-137 -287h-103l37 428l178 -14h820v-45l-684 -926h397l186 328h101l-68 -453h-993z" />
    <glyph glyph-name="Oslash.sc" horiz-adv-x="1404" 
d="M449 594q0 -111 20 -199l432 428q-80 186 -227 187q-106 0 -166 -108t-59 -308zM735 96q104 0 163 110q58 110 58 308q0 94 -20 197l-432 -428q73 -187 231 -187zM711 1135q217 0 385 -119l125 125h149l-194 -193q162 -162 161 -387q0 -268 -186 -429t-457 -161
q-227 0 -389 115l-137 -135h-148l205 203q-156 156 -155 389q0 270 185 431t456 161z" />
    <glyph glyph-name="AE.sc" horiz-adv-x="1884" 
d="M860 977h-24l-252 -395h276v395zM1198 483v-356h375l141 276h94l-47 -403h-1050v115l149 22v324h-352l-184 -309l159 -37v-115h-469v115l119 24l539 817l-158 21v119h1071l176 16v-369h-94l-88 226h-381v-365h186l43 141h86v-395h-88l-41 133h-186z" />
    <glyph glyph-name="OE.sc" horiz-adv-x="1898" 
d="M887 319v619q-84 59 -195 59q-112 0 -186 -97q-74 -98 -74 -324t78 -350t207 -124q74 0 122 60t48 157zM1368 0q-220 0 -454 -8t-269 -8q-262 0 -422 145t-160 413q-1 268 179 421q180 152 475 151q45 0 249 -9t410 -9h213l185 16l2 -369h-107l-100 226h-361v-348h162
l45 145h88v-412h-88l-45 140h-162v-367h367l141 276h107l-41 -403h-414z" />
    <glyph glyph-name="Eth.sc" horiz-adv-x="1449" 
d="M729 502h-168v-342q49 -49 133 -49q123 0 202 103t79 309q1 206 -105 332t-309 136v-383h168v-106zM217 502h-160v106h160v348l-137 21v119l594 4q314 2 502 -142t188 -372q0 -289 -211 -442t-559 -148l-524 4v115l147 22v365z" />
    <glyph glyph-name="Dcroat.sc" horiz-adv-x="1449" 
d="M729 502h-168v-342q49 -49 133 -49q123 0 202 103t79 309q1 206 -105 332t-309 136v-383h168v-106zM217 502h-160v106h160v348l-137 21v119l594 4q314 2 502 -142t188 -372q0 -289 -211 -442t-559 -148l-524 4v115l147 22v365z" />
    <glyph glyph-name="Eng.sc" horiz-adv-x="1472" 
d="M1268 240q0 -520 -502 -590l-25 98q125 47 183 113q57 66 71 157l-633 736l9 -602l227 -37v-115h-530v115l149 30l2 789l-137 43v119h436l606 -719l-6 561l-231 41v117h520v-119l-139 -33v-704z" />
    <glyph glyph-name="IJ.sc" horiz-adv-x="1548" 
d="M1352 211q0 -260 -123 -391t-434 -180l-25 108q131 58 181 150t50 243v815l-141 21v119h631v-119l-139 -21v-745zM70 0v115l147 22v819l-137 21v119h627v-119l-142 -21v-819l152 -22v-115h-647z" />
    <glyph glyph-name="uni0237.sc" horiz-adv-x="761" 
d="M565 211q0 -260 -123 -391t-434 -180l-24 108q131 58 181 150t50 243v815l-141 21v119h631v-119l-140 -21v-745z" />
    <glyph glyph-name="Aacute.sc" horiz-adv-x="1404" 
d="M995 1610v-37l-237 -363h-131l96 400h272zM582 834l-158 -416h321l-161 416h-2zM29 0v115l121 28l403 953l141 8l127 14l420 -985l135 -18v-115h-676v115l154 22l-57 148h-424l-49 -133l149 -37v-115h-444z" />
    <glyph glyph-name="Abreve.sc" horiz-adv-x="1404" 
d="M989 1554q1 -145 -73 -239t-222 -94t-214 94q-65 94 -64 239h110q32 -156 178 -156t179 156h106zM582 834l-158 -416h321l-161 416h-2zM29 0v115l121 28l403 953l141 8l127 14l420 -985l135 -18v-115h-676v115l154 22l-57 148h-424l-49 -133l149 -37v-115h-444z" />
    <glyph glyph-name="Acircumflex.sc" horiz-adv-x="1404" 
d="M537 1210h-123l198 400h195l199 -400h-140l-166 181zM582 834l-158 -416h321l-161 416h-2zM29 0v115l121 28l403 953l141 8l127 14l420 -985l135 -18v-115h-676v115l154 22l-57 148h-424l-49 -133l149 -37v-115h-444z" />
    <glyph glyph-name="Adieresis.sc" horiz-adv-x="1404" 
d="M936 1260q-66 0 -113 47t-47 113t47 113q47 48 113 48t114 -48t48 -114q0 -67 -48 -113t-114 -46zM467 1260q-66 0 -113 47t-47 113t47 113q47 48 113 48t113 -48t47 -114q0 -67 -47 -113t-113 -46zM582 834l-158 -416h321l-161 416h-2zM29 0v115l121 28l403 953l141 8
l127 14l420 -985l135 -18v-115h-676v115l154 22l-57 148h-424l-49 -133l149 -37v-115h-444z" />
    <glyph glyph-name="Agrave.sc" horiz-adv-x="1404" 
d="M401 1610h271l98 -400h-131l-238 363v37zM582 834l-158 -416h321l-161 416h-2zM29 0v115l121 28l403 953l141 8l127 14l420 -985l135 -18v-115h-676v115l154 22l-57 148h-424l-49 -133l149 -37v-115h-444z" />
    <glyph glyph-name="Amacron.sc" horiz-adv-x="1404" 
d="M406 1315v170h593v-170h-593zM582 834l-158 -416h321l-161 416h-2zM29 0v115l121 28l403 953l141 8l127 14l420 -985l135 -18v-115h-676v115l154 22l-57 148h-424l-49 -133l149 -37v-115h-444z" />
    <glyph glyph-name="Aogonek.sc" horiz-adv-x="1404" 
d="M582 834l-158 -416h319l-159 416h-2zM29 0v115l121 28l403 953l141 8l127 14l420 -985l135 -18v-115h-389q-203 -96 -203 -231q0 -51 35 -82t81 -31t85 22t96 74l52 -47q-41 -63 -61 -91t-63 -76q-80 -87 -198 -88q-118 0 -186 60t-68 145t53 153q52 68 150 158t117 106
l-82 213h-422l-49 -133l149 -37v-115h-444z" />
    <glyph glyph-name="Aring.sc" horiz-adv-x="1404" 
d="M575 1442q0 -57 37 -94t90 -37t91 37q37 37 36 94q0 57 -36 94q-37 37 -91 37t-90 -37q-37 -37 -37 -94zM455 1441q0 103 71 173q72 70 176 70t177 -69q71 -69 71 -172t-72 -173t-176 -70t-176 69q-71 69 -71 172zM582 834l-158 -416h321l-161 416h-2zM29 0v115l121 28
l403 953l141 8l127 14l420 -985l135 -18v-115h-676v115l154 22l-57 148h-424l-49 -133l149 -37v-115h-444z" />
    <glyph glyph-name="Aringacute.sc" horiz-adv-x="1404" 
d="M575 1432q0 -56 37 -94t90 -38t91 37q37 37 37 95t-37 94q-37 37 -91 37t-90 -37q-37 -37 -37 -94zM455 1431q0 103 71 173q72 70 176 70t177 -69q71 -69 71 -172t-72 -173t-176 -70t-176 68q-71 70 -71 173zM1049 2036v-45l-263 -240h-172l140 285h295zM582 834
l-158 -416h321l-161 416h-2zM29 0v115l121 28l403 953l141 8l127 14l420 -985l135 -18v-115h-676v115l154 22l-57 148h-424l-49 -133l149 -37v-115h-444z" />
    <glyph glyph-name="AEacute.sc" horiz-adv-x="1884" 
d="M1350 1610v-37l-238 -363h-131l96 400h273zM860 977h-24l-252 -395h276v395zM1198 483v-356h375l141 276h94l-47 -403h-1050v115l149 22v324h-352l-184 -309l159 -37v-115h-469v115l119 24l539 817l-158 21v119h1071l176 16v-369h-94l-88 226h-381v-365h186l43 141h86
v-395h-88l-41 133h-186z" />
    <glyph glyph-name="Atilde.sc" horiz-adv-x="1404" 
d="M700 1284l-55 16q-150 45 -184 39q-51 -8 -84 -94l-78 41l10 27q88 226 218 232q65 3 153 -23l55 -17q137 -49 197 -42q59 7 96 104l78 -41l-10 -31q-72 -186 -164 -225t-232 14zM582 834l-158 -416h321l-161 416h-2zM29 0v115l121 28l403 953l141 8l127 14l420 -985
l135 -18v-115h-676v115l154 22l-57 148h-424l-49 -133l149 -37v-115h-444z" />
    <glyph glyph-name="Cacute.sc" horiz-adv-x="1277" 
d="M1032 1610v-37l-237 -363h-131l96 400h272zM743 -29q-344 0 -509 156q-164 157 -164 409t213 423t557 171q166 0 323 -51l15 -354h-109l-141 254q-61 31 -142 31q-141 0 -236 -108t-95 -312q-1 -204 109 -347q110 -142 276 -143q45 0 92 13l168 288h112l-49 -374
q-254 -56 -420 -56z" />
    <glyph glyph-name="Ccaron.sc" horiz-adv-x="1277" 
d="M905 1610h123l-199 -400h-194l-199 400h139l164 -183zM743 -29q-344 0 -509 156q-164 157 -164 409t213 423t557 171q166 0 323 -51l15 -354h-109l-141 254q-61 31 -142 31q-141 0 -236 -108t-95 -312q-1 -204 109 -347q110 -142 276 -143q45 0 92 13l168 288h112
l-49 -374q-254 -56 -420 -56z" />
    <glyph glyph-name="Ccedilla.sc" horiz-adv-x="1277" 
d="M592 -328q0 61 -72 119l121 184q-293 23 -432 176t-139 377q0 260 213 431t557 171q166 0 323 -51l15 -354h-109l-141 254q-61 31 -142 31q-141 0 -236 -108t-95 -312q-1 -204 109 -347q110 -142 276 -143q45 0 92 13l168 288h112l-49 -374q-240 -53 -413 -56l-50 -96
q60 -18 104 -62t44 -106q0 -212 -412 -280l-26 84q182 61 182 161z" />
    <glyph glyph-name="Ccircumflex.sc" horiz-adv-x="1277" 
d="M573 1210h-122l198 400h195l198 -400h-139l-166 181zM743 -29q-344 0 -509 156q-164 157 -164 409t213 423t557 171q166 0 323 -51l15 -354h-109l-141 254q-61 31 -142 31q-141 0 -236 -108t-95 -312q-1 -204 109 -347q110 -142 276 -143q45 0 92 13l168 288h112
l-49 -374q-254 -56 -420 -56z" />
    <glyph glyph-name="Cdotaccent.sc" horiz-adv-x="1277" 
d="M938 1417q0 -80 -56 -135t-144 -55q-89 0 -143 55t-54 134t55 133q55 55 144 55q90 0 144 -54t54 -133zM743 -29q-344 0 -509 156q-164 157 -164 409t213 423t557 171q166 0 323 -51l15 -354h-109l-141 254q-61 31 -142 31q-141 0 -236 -108t-95 -312q-1 -204 109 -347
q110 -142 276 -143q45 0 92 13l168 288h112l-49 -374q-254 -56 -420 -56z" />
    <glyph glyph-name="Dcaron.sc" horiz-adv-x="1449" 
d="M854 1610h123l-199 -400h-194l-199 400h139l164 -183zM1364 586q0 -289 -211 -442t-559 -148l-524 4v115l147 22v819l-137 21v119l594 4q314 2 502 -142t188 -372zM694 111q123 0 204 104t81 309q1 205 -107 331t-311 136v-831q49 -49 133 -49z" />
    <glyph glyph-name="Eacute.sc" horiz-adv-x="1271" 
d="M946 1610v-37l-237 -363h-131l96 400h272zM565 489v-362h383l142 276h106l-41 -403h-1085v115l147 22v819l-137 21v119h881l186 16v-369h-105l-100 226h-377v-344h172l45 139h95v-410h-97l-43 135h-172z" />
    <glyph glyph-name="Ebreve.sc" horiz-adv-x="1271" 
d="M971 1595q1 -145 -73 -239t-222 -94t-214 94q-65 94 -65 239h111q33 -155 178 -155t178 155h107zM565 489v-362h383l142 276h106l-41 -403h-1085v115l147 22v819l-137 21v119h881l186 16v-369h-105l-100 226h-377v-344h172l45 139h95v-410h-97l-43 135h-172z" />
    <glyph glyph-name="Ecaron.sc" horiz-adv-x="1271" 
d="M819 1610h123l-199 -400h-194l-199 400h139l164 -183zM565 489v-362h383l142 276h106l-41 -403h-1085v115l147 22v819l-137 21v119h881l186 16v-369h-105l-100 226h-377v-344h172l45 139h95v-410h-97l-43 135h-172z" />
    <glyph glyph-name="Ecircumflex.sc" horiz-adv-x="1271" 
d="M487 1210h-122l198 400h195l198 -400h-139l-166 181zM565 489v-362h383l142 276h106l-41 -403h-1085v115l147 22v819l-137 21v119h881l186 16v-369h-105l-100 226h-377v-344h172l45 139h95v-410h-97l-43 135h-172z" />
    <glyph glyph-name="Edieresis.sc" horiz-adv-x="1271" 
d="M887 1260q-66 0 -113 47t-47 113t47 113q47 48 113 48q65 0 113 -48t48 -114q0 -67 -47 -113q-48 -46 -114 -46zM418 1260q-66 0 -113 47t-47 113t47 113q47 48 113 48t112 -48t48 -114q0 -67 -47 -113t-113 -46zM565 489v-362h383l142 276h106l-41 -403h-1085v115
l147 22v819l-137 21v119h881l186 16v-369h-105l-100 226h-377v-344h172l45 139h95v-410h-97l-43 135h-172z" />
    <glyph glyph-name="Edotaccent.sc" horiz-adv-x="1271" 
d="M852 1417q0 -80 -56 -135t-144 -55q-89 0 -143 55t-54 134t55 133q55 55 144 55q90 0 144 -54t54 -133zM565 489v-362h383l142 276h106l-41 -403h-1085v115l147 22v819l-137 21v119h881l186 16v-369h-105l-100 226h-377v-344h172l45 139h95v-410h-97l-43 135h-172z" />
    <glyph glyph-name="Egrave.sc" horiz-adv-x="1271" 
d="M352 1610h271l98 -400h-131l-238 363v37zM565 489v-362h383l142 276h106l-41 -403h-1085v115l147 22v819l-137 21v119h881l186 16v-369h-105l-100 226h-377v-344h172l45 139h95v-410h-97l-43 135h-172z" />
    <glyph glyph-name="Emacron.sc" horiz-adv-x="1271" 
d="M356 1315v170h594v-170h-594zM565 489v-362h383l142 276h106l-41 -403h-1085v115l147 22v819l-137 21v119h881l186 16v-369h-105l-100 226h-377v-344h172l45 139h95v-410h-97l-43 135h-172z" />
    <glyph glyph-name="Eogonek.sc" horiz-adv-x="1271" 
d="M565 489v-362h383l142 276h106l-41 -403h-233q-141 -143 -142 -238q0 -50 32 -78t77 -28t84 22t96 74l51 -47q-41 -63 -60 -91q-20 -28 -64 -76q-81 -87 -198 -88q-118 0 -184 60t-66 146t56 163q55 77 191 181h-725v115l147 22v819l-137 21v119h881l186 16v-369h-105
l-100 226h-377v-344h172l45 139h95v-410h-97l-43 135h-172z" />
    <glyph glyph-name="Gbreve.sc" horiz-adv-x="1396" 
d="M1069 1554q1 -145 -73 -239t-222 -94t-214 94q-65 94 -64 239h110q33 -156 178 -156t179 156h106zM815 516h516v-115l-80 -20v-332l-69 -20q-195 -58 -428 -58q-342 0 -512 154q-170 155 -170 413t223 426t553 166q190 0 358 -65l11 -340h-121l-109 227q-90 60 -216 60
t-220 -110t-94 -312q1 -202 109 -346q108 -143 274 -144q66 0 114 19v262l-139 20v115z" />
    <glyph glyph-name="Gcircumflex.sc" horiz-adv-x="1396" 
d="M616 1210h-122l198 400h195l198 -400h-139l-166 181zM815 516h516v-115l-80 -20v-332l-69 -20q-195 -58 -428 -58q-342 0 -512 154q-170 155 -170 413t223 426t553 166q190 0 358 -65l11 -340h-121l-109 227q-90 60 -216 60t-220 -110t-94 -312q1 -202 109 -346
q108 -143 274 -144q66 0 114 19v262l-139 20v115z" />
    <glyph glyph-name="Gcommaaccent.sc" horiz-adv-x="1396" 
d="M655 -352q0 44 -39 68t-88 24v22q27 127 174 127q86 0 138 -48t51 -126q0 -211 -385 -301l-29 76q178 63 178 158zM815 516h516v-115l-80 -20v-332l-69 -20q-195 -58 -428 -58q-342 0 -512 154q-170 155 -170 413t223 426t553 166q190 0 358 -65l11 -340h-121l-109 227
q-90 60 -216 60t-220 -110t-94 -312q1 -202 109 -346q108 -143 274 -144q66 0 114 19v262l-139 20v115z" />
    <glyph glyph-name="Gdotaccent.sc" horiz-adv-x="1396" 
d="M981 1417q1 -80 -55 -135t-145 -55t-143 55t-54 134t55 133q55 55 144 55t143 -54t55 -133zM815 516h516v-115l-80 -20v-332l-69 -20q-195 -58 -428 -58q-342 0 -512 154q-170 155 -170 413t223 426t553 166q190 0 358 -65l11 -340h-121l-109 227q-90 60 -216 60
t-220 -110t-94 -312q1 -202 109 -346q108 -143 274 -144q66 0 114 19v262l-139 20v115z" />
    <glyph glyph-name="Hbar.sc" horiz-adv-x="1546" 
d="M565 748v-119h414v119h-414zM836 0v117l143 20v348h-414v-348l146 -20v-117h-641v115l147 22v611h-166v108h166v100l-137 21v119h616v-119l-131 -21v-100h414v100l-129 21v119h616v-119l-137 -21v-100h166v-108h-166v-611l148 -22v-115h-641z" />
    <glyph glyph-name="Hcircumflex.sc" horiz-adv-x="1546" 
d="M606 1210h-123l199 400h195l198 -400h-139l-166 181zM836 0v117l143 20v348h-414v-348l146 -20v-117h-641v115l147 22v819l-137 21v119h616v-119l-131 -21v-327h414v327l-129 21v119h616v-119l-137 -21v-819l148 -22v-115h-641z" />
    <glyph glyph-name="Idotaccent.sc" horiz-adv-x="786" 
d="M592 1458q0 -80 -56 -135t-144 -55q-89 0 -143 55t-54 134t55 133t144 54q90 0 144 -52q54 -54 54 -134zM70 0v115l147 22v819l-137 21v119h627v-119l-142 -21v-819l152 -22v-115h-647z" />
    <glyph glyph-name="Iacute.sc" horiz-adv-x="786" 
d="M686 1610v-37l-237 -363h-132l97 400h272zM70 0v115l147 22v819l-137 21v119h627v-119l-142 -21v-819l152 -22v-115h-647z" />
    <glyph glyph-name="Ibreve.sc" horiz-adv-x="786" 
d="M680 1554q0 -145 -74 -239t-222 -94t-213 94t-65 239h111q33 -156 178 -156t178 156h107zM70 0v115l147 22v819l-137 21v119h627v-119l-142 -21v-819l152 -22v-115h-647z" />
    <glyph glyph-name="Icircumflex.sc" horiz-adv-x="786" 
d="M227 1210h-123l199 400h195l198 -400h-139l-166 181zM70 0v115l147 22v819l-137 21v119h627v-119l-142 -21v-819l152 -22v-115h-647z" />
    <glyph glyph-name="Idieresis.sc" horiz-adv-x="786" 
d="M70 0v115l147 22v819l-137 21v119h627v-119l-142 -21v-819l152 -22v-115h-647zM614 1262q-66 0 -112 47t-47 113q0 66 47 113q46 48 112 48t114 -48t48 -114q0 -67 -48 -113t-114 -46zM170 1262q-66 0 -113 47t-47 113t47 113q47 48 113 48t113 -48t47 -114
q0 -67 -47 -113t-113 -46z" />
    <glyph glyph-name="Igrave.sc" horiz-adv-x="786" 
d="M92 1610h270l99 -400h-131l-238 363v37zM70 0v115l147 22v819l-137 21v119h627v-119l-142 -21v-819l152 -22v-115h-647z" />
    <glyph glyph-name="Imacron.sc" horiz-adv-x="786" 
d="M96 1315v170h594v-170h-594zM70 0v115l147 22v819l-137 21v119h627v-119l-142 -21v-819l152 -22v-115h-647z" />
    <glyph glyph-name="Iogonek.sc" horiz-adv-x="786" 
d="M70 0v115l147 22v819l-137 21v119h627v-119l-142 -21v-819l152 -22v-115h-275q-115 -139 -114 -238q0 -50 32 -78t76 -28q45 0 84 22t96 74l52 -47q-40 -63 -60 -91t-64 -76q-80 -87 -198 -88q-118 0 -184 60t-66 146t48 163t165 181h-239z" />
    <glyph glyph-name="Itilde.sc" horiz-adv-x="786" 
d="M391 1284l-55 16q-150 45 -184 39q-51 -8 -84 -94l-78 41l10 27q47 121 100 175t118 57t153 -23l55 -17q137 -49 197 -42q59 7 96 104l78 -41l-11 -31q-72 -186 -163 -225t-232 14zM70 0v115l147 22v819l-137 21v119h627v-119l-142 -21v-819l152 -22v-115h-647z" />
    <glyph glyph-name="Jcircumflex.sc" horiz-adv-x="761" 
d="M227 1210h-123l199 400h195l198 -400h-139l-166 181zM565 211q0 -260 -123 -391t-434 -180l-24 108q131 58 181 150t50 243v815l-141 21v119h631v-119l-140 -21v-745z" />
    <glyph glyph-name="Kcommaaccent.sc" horiz-adv-x="1427" 
d="M625 -260v22q27 127 174 127q86 0 137 -48t51 -126q0 -211 -385 -301l-29 76q178 63 179 158q0 44 -39 68t-88 24zM911 1096h447v-119l-139 -29l-318 -305l393 -504l115 -24v-115h-412l-405 524v33l127 66l323 325l-131 29v119zM70 0v115l147 22v819l-137 21v119h616
v-119l-131 -21v-819l109 -20v-117h-604z" />
    <glyph glyph-name="Lacute.sc" horiz-adv-x="1163" 
d="M702 1651v-37l-237 -363h-131l96 400h272zM565 127h271l172 354h112l-61 -481h-989v115l147 22v819l-137 21v119h625v-119l-140 -21v-829z" />
    <glyph glyph-name="Lcaron.sc" horiz-adv-x="1163" 
d="M1124 1124v-63l-200 -369h-86l49 432h237zM565 127h271l172 354h112l-61 -481h-989v115l147 22v819l-137 21v119h625v-119l-140 -21v-829z" />
    <glyph glyph-name="Lcommaaccent.sc" horiz-adv-x="1163" 
d="M549 -352q0 44 -39 68t-88 24v22q27 127 174 127q86 0 137 -48t51 -126q0 -211 -385 -301l-28 76q178 63 178 158zM565 127h271l172 354h112l-61 -481h-989v115l147 22v819l-137 21v119h625v-119l-140 -21v-829z" />
    </font>
</defs>
</svg>
