<?xml version="1.0" standalone="no"?>
<!DOCTYPE svg PUBLIC "-//W3C//DTD SVG 1.1//EN" "http://www.w3.org/Graphics/SVG/1.1/DTD/svg11.dtd" >
<svg xmlns="http://www.w3.org/2000/svg">
<metadata>
Created by FontPrep 20130207 at Tue Sep 30 22:15:55 2014
 By Callum Flack
(c)2009 Kai Bernau and Commercial Type.
</metadata>
<defs>
<font id="09c6f420fcc74f427a13cf63e9fba8b3" horiz-adv-x='1024' >
  <font-face 
    font-family="LyonText-BlackItalic"
    font-weight="900"
    font-style="italic"
    font-stretch="normal"
    units-per-em="2048"
    panose-1="2 0 5 3 8 0 0 9 0 4"
    ascent="1556"
    descent="-492"
    x-height="1036"
    cap-height="1360"
    bbox="-471 -590 2847 2261"
    underline-thickness="102"
    underline-position="-102"
    slope="-12"
    unicode-range="U+0020-FB04"
  />
<missing-glyph horiz-adv-x="1024" 
 />
    <glyph glyph-name="f_f" unicode="ff" horiz-adv-x="1449" 
d="M950 1012q33 80 88 151q-100 145 -198 146q-72 0 -124 -67t-91 -230h325zM989 1466q139 0 232 -118q115 86 237 133t205 47q81 0 149 -52t68 -102t-59 -118q-59 -67 -109 -91q-150 205 -254 205q-59 0 -100 -86t-80 -270v-2h254l-23 -133h-260l-121 -584
q-43 -207 -129 -366t-185 -243q-196 -166 -351 -165q-78 0 -114 40t-36 97t45 97t115 55q27 -84 49 -118t59 -34t75 68t65 202l190 951h-315l-133 -637q-35 -166 -101 -303t-140 -223q-76 -85 -158 -143q-153 -107 -271 -105q-90 0 -146 50q-57 50 -57 119t54 115t141 66
q33 -111 61 -160t68 -49q88 0 141 266l193 946q10 43 14 58h-170l23 133h198q74 147 209 256q135 110 256 154t211 44z" />
    <glyph glyph-name="f_i" unicode="fi" horiz-adv-x="1314" 
d="M1023 1528q125 0 199 -51t72 -103q0 -52 -62 -120q-62 -67 -122 -85q-158 207 -274 207q-54 0 -112 -87t-99 -277h508l41 20h75l-207 -831h7q102 49 180 151l51 -37q-55 -129 -191 -241t-262 -111q-77 1 -115 63t-1 191l188 662h-301l-135 -637q-43 -205 -132 -365
t-191 -244q-202 -167 -347 -165q-90 0 -146 50q-57 50 -57 119t54 115t141 66q33 -111 61 -160t68 -49q88 0 141 266l201 989l2 15h-166l23 133h186q55 135 159 240q104 106 214 162q224 114 349 114z" />
    <glyph glyph-name="f_l" unicode="fl" horiz-adv-x="1316" 
d="M864 1380q-160 0 -239 -368h301l84 313q-76 55 -146 55zM1020 1528q111 0 174 -47l180 47l-330 -1327h7q102 49 180 151l51 -37q-55 -129 -191 -241t-262 -111q-77 -1 -113 61t-3 193l178 662h-293l-135 -637q-35 -166 -101 -303t-140 -223q-76 -85 -158 -143
q-153 -107 -271 -105q-90 0 -146 50q-57 50 -57 119t54 115t141 66q33 -111 61 -160t68 -49q88 0 141 266l201 989l2 15h-166l23 133h186q55 135 157 240q162 166 412 247q90 29 150 29z" />
    <glyph glyph-name="f_f_i" unicode="ffi" horiz-adv-x="1968" 
d="M840 1309q-72 0 -124 -67t-91 -230h327q35 86 86 151q-100 146 -198 146zM989 1466q139 0 234 -120q123 88 256 135t229 47t168 -51t72 -103t-62 -120q-62 -67 -123 -85q-158 207 -274 207q-59 0 -117 -96t-94 -266v-2h508l41 20h76l-207 -831h6q102 49 180 151l51 -37
q-55 -129 -191 -241t-261 -111q-78 1 -116 63t-1 191l188 662h-303l-121 -584q-43 -207 -129 -366t-185 -243q-196 -166 -351 -165q-78 0 -114 40t-36 97t45 97t115 55q27 -84 49 -118t59 -34t75 68t65 202l190 951h-315l-133 -637q-35 -166 -101 -303t-140 -223
q-76 -85 -158 -143q-153 -107 -271 -105q-90 0 -146 50q-57 50 -57 119t54 115t141 66q33 -111 61 -160t68 -49q88 0 141 266l193 946q10 43 14 58h-170l23 133h198q74 147 209 256q135 110 256 154t211 44z" />
    <glyph glyph-name="f_f_l" unicode="ffl" horiz-adv-x="1968" 
d="M840 1309q-72 0 -124 -67t-91 -230h325q33 80 88 151q-100 146 -198 146zM1278 1012h299l84 313q-74 55 -143 55q-162 1 -240 -366v-2zM989 1466q137 0 234 -118q117 86 243 133t217 47q92 0 162 -47l180 47l-329 -1327h6q102 49 180 151l51 -37q-55 -129 -191 -241
t-261 -111q-78 -1 -114 61t-3 193l178 662h-293l-121 -584q-43 -207 -129 -366t-185 -243q-196 -166 -351 -165q-78 0 -114 40t-36 97t45 97t115 55q27 -84 49 -118t59 -34t75 68t65 202l190 951h-315l-133 -637q-35 -166 -101 -303t-140 -223q-76 -85 -158 -143
q-153 -107 -271 -105q-90 0 -146 50q-57 50 -57 119t54 115t141 66q33 -111 61 -160t68 -49q88 0 141 266l193 946q10 43 14 58h-170l23 133h198q74 147 209 256q135 110 256 154t211 44z" />
    <glyph glyph-name="f_b" unicode="fb" horiz-adv-x="1867" 
d="M1147 61q77 0 151 113t121 279t47 315q0 70 -47 70q-69 0 -149 -111q-140 -193 -230 -475l-22 -86q8 -47 46 -76t83 -29zM1041 1528q81 0 151 -47l182 47l-223 -832h14q95 164 193 254t223 90q242 0 242 -311q0 -190 -76 -361t-239 -288t-382 -117q-82 0 -185 38
t-198 110l-49 36l314 1180q-72 53 -144 53q-160 0 -239 -368h192l-22 -133h-197l-135 -637q-43 -205 -132 -365t-191 -244q-202 -167 -347 -165q-90 0 -146 50q-57 50 -57 119t54 115t141 66q33 -111 61 -160t68 -49q88 0 141 266l201 989l2 15h-166l23 133h186
q55 135 157 240q162 166 412 247q90 29 171 29z" />
    <glyph glyph-name="f_f_b" unicode="ffb" horiz-adv-x="2521" 
d="M840 1309q-72 0 -124 -67t-91 -230h325q33 80 88 151q-100 146 -198 146zM1800 61q76 0 151 113t122 278t47 316q0 70 -47 70q-68 0 -149 -111q-138 -189 -230 -475l-23 -86q8 -47 46 -76t83 -29zM1780 -37q-80 0 -184 38t-199 110l-49 36l313 1178q-74 55 -143 55
q-162 0 -240 -366v-2h192l-22 -133h-199l-121 -584q-43 -207 -129 -366t-185 -243q-196 -166 -351 -165q-78 0 -114 40t-36 97t45 97t115 55q27 -84 49 -118t59 -34t75 68t65 202l190 951h-315l-133 -637q-35 -166 -101 -303t-140 -223q-76 -85 -158 -143
q-153 -107 -271 -105q-90 0 -146 50q-57 50 -57 119t54 115t141 66q33 -111 61 -160t68 -49q88 0 141 266l193 946q10 43 14 58h-170l23 133h198q74 147 209 256q135 110 256 154t211 44q137 0 234 -118q117 86 243 133t217 47q92 0 162 -47l183 47l-224 -832h15
q96 164 193 254t222 90q242 0 242 -311q0 -190 -76 -361t-238 -288t-382 -117z" />
    <glyph glyph-name="f_f_h" unicode="ffh" horiz-adv-x="2582" 
d="M840 1309q-72 0 -124 -67t-91 -230h325q33 80 88 151q-100 146 -198 146zM2330 1042q90 0 130 -56t0 -210l-148 -575h6q102 49 181 151l51 -37q-56 -129 -192 -241t-261 -111q-78 1 -115 63t-2 191l140 520q20 74 -17 74q-59 0 -224 -276t-216 -461l-16 -60l-279 -51
l-57 35l352 1327q-74 55 -145 55q-162 0 -240 -366v-2h192l-22 -133h-199l-121 -584q-43 -207 -129 -366t-185 -243q-196 -166 -351 -165q-78 0 -114 40t-36 97t45 97t115 55q27 -84 49 -118t59 -34t75 68t65 202l190 951h-315l-133 -637q-35 -166 -101 -303t-140 -223
q-76 -85 -158 -143q-153 -107 -271 -105q-90 0 -146 50q-57 50 -57 119t54 115t141 66q33 -111 61 -160t68 -49q88 0 141 266l193 946q10 43 14 58h-170l23 133h198q74 147 209 256q135 110 256 154t211 44q137 0 234 -118q117 86 243 133t222 47t159 -47l181 47l-242 -963
h16q109 187 219 317q138 160 309 160z" />
    <glyph glyph-name="f_f_j" unicode="ffj" horiz-adv-x="1949" 
d="M840 1309q-72 0 -124 -67t-91 -230h327q35 86 86 151q-100 146 -198 146zM581 -342q37 0 75 68t65 202l190 951h-315l-133 -637q-35 -166 -101 -303t-140 -223q-76 -85 -158 -143q-153 -107 -271 -105q-90 0 -146 50q-57 50 -57 119t54 115t141 66q33 -111 61 -160
t68 -49q88 0 141 266l193 946q10 43 14 58h-170l23 133h198q74 147 209 256q135 110 256 154t211 44q139 0 234 -120q123 88 256 135t229 47t168 -51t72 -103t-62 -120q-62 -67 -123 -85q-158 207 -274 207q-59 0 -117 -96t-94 -266v-2h514l39 20h76l-142 -684
q-67 -328 -263 -551t-404 -223q-63 0 -106 40q-42 40 -42 97q0 106 160 152q43 -152 107 -152q37 0 57 40q39 78 53 133q14 56 23 91q8 35 22 97t23 98l166 709h-312l-121 -584q-41 -197 -127 -353t-184 -244q-199 -177 -354 -177q-78 0 -114 40t-36 97q0 58 45 98t115 54
q27 -84 49 -118t59 -34z" />
    <glyph glyph-name="f_f_k" unicode="ffk" horiz-adv-x="2478" 
d="M2124 813q-72 0 -176 -128t-191 -310l10 2q207 74 314 171q106 97 106 181t-63 84zM840 1309q-72 0 -124 -67t-91 -230h325q33 80 88 151q-100 146 -198 146zM2252 -80q-106 0 -214 77t-189 204l-100 155q-68 -143 -98 -280l-15 -62l-266 -51l-57 35l346 1329
q-72 53 -141 53q-162 0 -240 -366v-2h192l-22 -133h-199l-121 -584q-43 -207 -129 -366t-185 -243q-196 -166 -351 -165q-78 0 -114 40t-36 97t45 97t115 55q27 -84 49 -118t59 -34t75 68t65 202l190 951h-315l-133 -637q-35 -166 -101 -303t-140 -223q-76 -85 -158 -143
q-153 -107 -271 -105q-90 0 -146 50q-57 50 -57 119t54 115t141 66q33 -111 61 -160t68 -49q88 0 141 266l193 946q10 43 14 58h-170l23 133h198q74 147 209 256q135 110 256 154t211 44q137 0 234 -118q117 86 243 133t218 47q93 0 163 -47l183 47l-236 -903h16
q236 418 459 417q88 0 140 -55t55 -133q4 -129 -87 -231t-325 -201l361 -445v-32q-55 -25 -161 -25z" />
    <glyph glyph-name="f_h" unicode="fh" horiz-adv-x="1929" 
d="M1020 1528q111 0 174 -47l180 47l-241 -963h16q204 351 361 436q75 41 166 41t130 -56t0 -210l-147 -575h6q102 49 180 151l51 -37q-55 -129 -191 -241t-261 -111q-78 1 -115 63t-2 191l139 520q20 74 -16 74q-59 0 -224 -276t-216 -461l-17 -60l-278 -51l-58 35
l353 1327q-72 55 -146 55q-160 0 -239 -368h192l-22 -133h-197l-135 -637q-35 -166 -101 -303t-140 -223q-76 -85 -158 -143q-153 -107 -271 -105q-90 0 -146 50q-57 50 -57 119t54 115t141 66q33 -111 61 -160t68 -49q88 0 141 266l201 989l2 15h-166l23 133h186
q55 135 157 240q162 166 412 247q90 29 150 29z" />
    <glyph glyph-name="f_j" unicode="fj" horiz-adv-x="1294" 
d="M1023 1528q125 0 199 -51t72 -103q0 -52 -62 -120q-62 -67 -122 -85q-158 207 -274 207q-54 0 -112 -87t-99 -277h514l39 20h75l-153 -737q-68 -328 -264 -551t-404 -223q-63 0 -105 40t-42 97q0 106 159 152q43 -152 107 -152q40 0 64 52q40 87 59 167q18 81 32 143
t23 97l178 762h-309l-135 -637q-43 -205 -132 -365t-191 -244q-202 -167 -347 -165q-90 0 -146 50q-57 50 -57 119t54 115t141 66q33 -111 61 -160t68 -49q88 0 141 266l201 989l2 15h-166l23 133h186q55 135 159 240q104 106 214 162q224 114 349 114z" />
    <glyph glyph-name="f_k" unicode="fk" horiz-adv-x="1824" 
d="M1470 813q-72 0 -176 -128t-190 -310l10 2q207 74 313 171t106 181t-63 84zM1042 1528q82 0 152 -47l182 47l-235 -903h16q236 418 459 417q88 0 140 -55t54 -133q4 -129 -87 -231t-324 -201l360 -445v-32q-53 -25 -159 -25t-216 77q-109 77 -188 204l-100 155
q-68 -143 -99 -280l-14 -62l-266 -51l-58 35l349 1329q-72 53 -144 53q-160 0 -239 -368h192l-22 -133h-197l-135 -637q-35 -166 -101 -303t-140 -223q-76 -85 -158 -143q-153 -107 -271 -105q-90 0 -146 50q-57 50 -57 119t54 115t141 66q33 -111 61 -160t68 -49
q88 0 141 266l201 989l2 15h-166l23 133h186q55 135 157 240q162 166 412 247q90 29 172 29z" />
    <glyph glyph-name=".notdef" horiz-adv-x="1024" 
 />
    <glyph glyph-name=".null" horiz-adv-x="0" 
 />
    <glyph glyph-name="nonmarkingreturn" horiz-adv-x="681" 
 />
    <glyph glyph-name="space" unicode=" " horiz-adv-x="409" 
 />
    <glyph glyph-name="exclam" unicode="!" horiz-adv-x="622" 
d="M266 -29q-76 1 -130 55t-54 129t54 130t131 55t131 -55t54 -130t-54 -129q-56 -54 -132 -55zM291 1423h393l-328 -987h-123z" />
    <glyph glyph-name="quotedbl" unicode="&#x22;" horiz-adv-x="987" 
d="M735 958l27 646h332l-248 -646h-111zM264 958l27 646h332l-248 -646h-111z" />
    <glyph glyph-name="numbersign" unicode="#" horiz-adv-x="1214" 
d="M549 780l-129 -348h268l129 348h-268zM221 780l25 123h221l117 314h129l-117 -314h268l117 314h129l-117 -314h215l-24 -123h-238l-129 -348h207l-25 -123h-229l-115 -309h-129l115 309h-266l-115 -309h-131l115 309h-207l24 123h230l129 348h-199z" />
    <glyph glyph-name="dollar" unicode="$" horiz-adv-x="1187" 
d="M477 1028q0 -127 137 -190l136 401q-14 2 -29 2q-115 -1 -179 -63t-65 -150zM512 78q106 0 184 64t78 147q0 82 -41 126t-125 81l-141 -416q16 -2 45 -2zM190 905q0 168 170 299t422 133l92 269h109l-94 -277q92 -12 163 -33q72 -20 93 -24l-66 -379h-94l-47 272
q-49 33 -88 47l-141 -415l118 -49q254 -106 254 -306q0 -145 -104 -257q-105 -111 -245 -161t-281 -51h-19l-78 -229h-108l80 240q-100 16 -281 75l53 408h99l59 -317q51 -27 111 -48l145 433l-39 16q-143 57 -213 140t-70 214z" />
    <glyph glyph-name="percent" unicode="%" horiz-adv-x="2021" 
d="M1462 -39q-154 0 -244 91t-90 253t130 300t337 138q154 0 244 -92t90 -235q0 -180 -130 -318t-337 -137zM1591 645q-78 1 -135 -153t-57 -292t71 -139q68 -1 129 141t61 292t-69 151zM414 467q-152 0 -242 93t-90 235q0 178 131 316t338 138q152 0 242 -92t90 -235
q0 -180 -131 -318t-338 -137zM545 1151q-78 0 -135 -154q-58 -153 -58 -291t72 -139q68 -1 129 141t61 292t-69 151zM428 -102l995 1409h150l-995 -1409h-150z" />
    <glyph glyph-name="ampersand" unicode="&#x26;" horiz-adv-x="1959" 
d="M287 703q0 -116 39 -201l254 354q-10 47 -41 76t-72 29q-74 0 -127 -71t-53 -187zM1118 934q-53 0 -80 -30q-26 -30 -26 -68t24 -74q24 -35 41 -50q18 -15 74 -57q-27 -43 -41 -62t-48 -42t-75 -23q-121 0 -121 187q0 141 117 295t295 153q85 0 156 -42q28 -15 158 -99
t160 -95q68 -25 97 8q18 19 19 54q0 119 -109 275q78 49 140 49q61 0 101 -48t40 -116q0 -179 -122 -319t-267 -140q-86 0 -219 82q-68 -418 -275 -627t-510 -208q-260 0 -405 142t-146 384q0 147 51 279t128 214t159 129t149 47t148 -42q195 303 217 350h45l84 -72
l-690 -965q121 -147 331 -147t368 103q183 122 257 466q-145 109 -225 109z" />
    <glyph glyph-name="quotesingle" unicode="'" horiz-adv-x="516" 
d="M283 958l26 646h332l-248 -646h-110z" />
    <glyph glyph-name="parenleft" unicode="(" horiz-adv-x="749" 
d="M369 287q0 -361 186 -656h-184q-121 137 -190 338t-68 408q0 323 182 619t463 503h205q-594 -504 -594 -1212z" />
    <glyph glyph-name="parenright" unicode=")" horiz-adv-x="749" 
d="M637 754q0 -322 -182 -619t-463 -504h-205q594 504 594 1213q0 360 -186 655h184q121 -137 189 -338t69 -407z" />
    <glyph glyph-name="asterisk" unicode="*" horiz-adv-x="806" 
d="M922 1069l-238 -51l-12 -250l-56 -12l-114 219l-244 -70l-29 47l181 178l-146 207l33 39l231 -104l148 194l47 -16l-29 -248l230 -80z" />
    <glyph glyph-name="plus" unicode="+" horiz-adv-x="1142" 
d="M1063 416h-412v-416h-147v416h-412v139h412v416h147v-416h412v-139z" />
    <glyph glyph-name="comma" unicode="," horiz-adv-x="735" 
d="M539 125q1 -175 -151 -317t-390 -214l-47 95q170 77 243 143t72 156q0 59 -34 104t-117 88q6 92 55 158t143 66t160 -74q66 -72 66 -205z" />
    <glyph glyph-name="hyphen" unicode="-" horiz-adv-x="786" 
d="M125 457l45 239h510l-45 -239h-510z" />
    <glyph glyph-name="period" unicode="." horiz-adv-x="698" 
d="M287 -29q-76 1 -130 55q-55 54 -55 129t54 130t132 55q77 0 131 -55t54 -130t-55 -129t-131 -55z" />
    <glyph glyph-name="slash" unicode="/" horiz-adv-x="995" 
d="M-8 -424l-117 70l1055 1882l117 -70z" />
    <glyph glyph-name="zero" unicode="0" horiz-adv-x="1331" 
d="M547 -37q-211 0 -338 132t-127 345q0 125 49 244q105 254 362 363q136 57 295 57q207 0 334 -132t127 -345q1 -264 -193 -464t-509 -200zM764 1006q-86 0 -162 -129t-114 -292t-37 -292q0 -231 116 -232q72 1 145 107t118 271q46 165 47 325q0 242 -113 242z" />
    <glyph glyph-name="one" unicode="1" horiz-adv-x="888" 
d="M776 1104l-192 -965l225 -26l-21 -113h-802l20 111l232 28l145 744h-244l17 121l610 100h10z" />
    <glyph glyph-name="two" unicode="2" horiz-adv-x="1024" 
d="M594 698q0 70 -41 118t-130 48t-200 -92l-69 66q47 61 75 94q100 114 199 149q61 23 133 23q170 0 261 -87t91 -225q-1 -138 -113 -254t-333 -241l-59 -33h524l-43 -264h-889l27 133l159 105q209 135 309 240q99 105 99 220z" />
    <glyph glyph-name="three" unicode="3" horiz-adv-x="923" 
d="M442 12q0 115 -84 171t-227 57h-4l25 176l49 16q251 85 320 180q34 47 34 110q0 64 -42 106q-41 42 -143 42t-210 -98l-70 66q47 61 77 94q104 115 215 149q71 23 157 23q155 0 239 -82t84 -195q0 -150 -117 -245q-93 -76 -219 -136l-43 -20q131 -23 215 -115
q84 -93 84 -237t-127 -273q-231 -235 -741 -315l-27 94q270 80 413 183q142 103 142 249z" />
    <glyph glyph-name="four" unicode="4" horiz-adv-x="1304" 
d="M291 254h381l98 491zM539 -424l88 444h-617l27 146l930 938h188l-170 -850h248l-47 -234h-248l-88 -444h-311z" />
    <glyph glyph-name="five" unicode="5" horiz-adv-x="845" 
d="M340 123q0 94 -54 184t-196 209l174 531l582 55l-60 -277l-499 -43l-6 -22q197 -134 303 -270t106 -291q0 -539 -792 -713l-27 94q241 104 355 236t114 307z" />
    <glyph glyph-name="six" unicode="6" horiz-adv-x="1273" 
d="M670 776q-70 0 -133 -45q-103 -205 -103 -437t141 -233q101 -1 173 147t71 353q1 99 -39 157t-110 58zM1178 524q0 -254 -180 -408t-418 -153q-240 0 -367 126t-127 372q0 189 114 371t298 317t409 233t457 142l22 -88q-524 -236 -761 -559h4q74 29 145 28
q174 0 289 -100t115 -281z" />
    <glyph glyph-name="seven" unicode="7" horiz-adv-x="1155" 
d="M115 -485l-150 110l862 1141h-706l61 299h967l-10 -59l-768 -1098z" />
    <glyph glyph-name="eight" unicode="8" horiz-adv-x="1114" 
d="M541 1103q0 -93 131 -212l53 -49q145 139 145 280q0 74 -46 119t-116 45t-118 -45q-49 -45 -49 -138zM297 303q0 -90 51 -157q52 -66 148 -66t154 57t58 147t-100 183l-145 131q-166 -121 -166 -295zM25 266q0 266 370 393l-12 13q-84 76 -123 142t-39 165
q-1 158 143 291t352 133t306 -81t98 -192q0 -201 -329 -348l47 -41q102 -91 147 -157t45 -156q0 -195 -174 -332t-383 -137t-329 82q-119 82 -119 225z" />
    <glyph glyph-name="nine" unicode="9" horiz-adv-x="1273" 
d="M588 279q84 0 155 67q97 203 97 430t-144 228q-96 0 -170 -150t-74 -362t136 -213zM479 150q-171 0 -279 99t-108 279q0 256 174 415t416 159t374 -136t132 -368q0 -188 -114 -368t-298 -316q-184 -135 -409 -232t-457 -141l-23 88q526 233 764 564h-2q-80 -43 -170 -43z
" />
    <glyph glyph-name="colon" unicode=":" horiz-adv-x="532" 
d="M344 662q-76 0 -130 54t-54 129t54 130t131 55t131 -54t54 -130t-55 -130t-131 -54zM209 -29q-76 1 -130 55t-54 129t54 130t131 55t131 -55t54 -130t-55 -129t-131 -55z" />
    <glyph glyph-name="semicolon" unicode=";" horiz-adv-x="532" 
d="M344 662q-76 0 -130 54t-54 129t54 130t131 55t131 -54t54 -130t-55 -130t-131 -54zM170 -33q0 59 -34 105t-118 88q6 92 56 158t143 65q94 0 160 -73t65 -206q0 -174 -151 -316t-389 -214l-47 94q171 78 243 144t72 155z" />
    <glyph glyph-name="less" unicode="&#x3c;" horiz-adv-x="1142" 
d="M1055 846l-799 -365l799 -360v-150l-967 451v121l967 450v-147z" />
    <glyph glyph-name="equal" unicode="=" horiz-adv-x="1142" 
d="M86 281v133h971v-133h-971zM86 600v133h971v-133h-971z" />
    <glyph glyph-name="greater" unicode="&#x3e;" horiz-adv-x="1142" 
d="M88 119l799 364l-799 361v149l967 -450v-121l-967 -451v148z" />
    <glyph glyph-name="question" unicode="?" horiz-adv-x="917" 
d="M229 -29q-76 1 -130 55t-54 129t54 130t131 55t131 -55q55 -55 55 -130t-56 -129t-131 -55zM805 962q0 -156 -69 -248q-69 -91 -230 -134l-158 -41l-29 -103h-122l22 330l275 68q193 45 192 122q0 37 -30 61q-67 53 -449 87l-47 4l26 299l115 -14q262 -35 383 -155
t121 -276z" />
    <glyph glyph-name="at" unicode="@" horiz-adv-x="1998" 
d="M860 242q49 0 161 174t155 334l12 45q-43 16 -66 16q-49 0 -120 -84q-70 -84 -122 -206q-52 -123 -52 -201t32 -78zM1178 928q31 0 71 -8l15 55h252l-177 -688q-48 -162 43 -162q99 0 206 125q52 61 90 171t44 245q10 252 -156 426q-167 174 -415 174q-317 0 -554 -248
t-253 -629q-12 -315 162 -490t467 -175q184 0 352 69l-4 -84q-213 -80 -440 -80q-367 0 -578 204t-197 519q8 208 106 396q190 365 603 528q197 78 395 78q336 0 530 -190t183 -462q-6 -150 -72 -282q-121 -241 -360 -350q-106 -49 -203 -50q-143 0 -192 88t-4 238l22 78h-6
l-51 -80q-8 -12 -45 -70q-107 -166 -164 -203q-78 -49 -150 -50t-114 51t-45 154q-4 104 64 239q129 253 382 398q113 65 193 65z" />
    <glyph glyph-name="A" unicode="A" horiz-adv-x="1615" 
d="M831 1133l-315 -576h389l-71 576h-3zM-39 0l21 106l137 44l700 1191l144 9l165 43l207 -1258l140 -24l-21 -111h-690l24 115l170 24l-32 260h-498l-127 -233l191 -51l-23 -115h-508z" />
    <glyph glyph-name="B" unicode="B" horiz-adv-x="1372" 
d="M981 1036q-1 108 -67 164q-66 57 -205 53l-97 -489h80q139 14 214 89t75 183zM635 102q111 0 191 86t81 217q0 132 -68 194q-69 62 -245 73l-88 -447q-10 -53 31 -88t98 -35zM823 1360q520 0 520 -291q0 -156 -134 -239t-345 -99v-8q240 -25 338 -103t98 -218t-104 -233
q-196 -175 -637 -171l-620 2l20 113l176 26l213 1080l-155 28l22 113h608z" />
    <glyph glyph-name="C" unicode="C" horiz-adv-x="1505" 
d="M784 -37q-309 0 -500 161t-192 472q0 215 132 401t354 296t458 110t412 -111l-43 -374h-102l-82 288q-88 61 -195 62q-210 0 -360 -190t-150 -515q0 -219 99 -340t257 -121q106 0 201 50l211 319h107l-121 -389q-109 -55 -243 -87t-243 -32z" />
    <glyph glyph-name="D" unicode="D" horiz-adv-x="1601" 
d="M-61 0l20 113l174 26l213 1080l-156 28l23 113l559 6q385 -4 585 -168t199 -412q0 -198 -87 -356q-158 -287 -555 -394q-177 -48 -369 -44zM641 104q221 0 367 199q145 199 145 496q1 217 -119 343t-325 118l-201 -1031q-12 -65 22 -95t111 -30z" />
    <glyph glyph-name="E" unicode="E" horiz-adv-x="1370" 
d="M799 629h-203l-98 -490h452l221 303h103l-135 -442h-1200l22 113l174 26l213 1080l-155 28l22 113h967l198 14l-114 -403h-101l-35 264h-415l-94 -481h200l99 174h104l-88 -461h-111z" />
    <glyph glyph-name="F" unicode="F" horiz-adv-x="1288" 
d="M795 625h-201l-96 -486l233 -22l-24 -117h-768l22 113l174 26l213 1080l-153 28l20 113h944l201 14l-117 -424h-100l-29 285h-399l-97 -485h201l92 174h99l-92 -461h-103z" />
    <glyph glyph-name="G" unicode="G" horiz-adv-x="1570" 
d="M805 98q94 0 144 42t69 149l37 215l-162 22l22 111h574l-23 -111l-96 -28l-86 -400q-342 -135 -512 -135q-313 0 -497 158q-183 158 -183 461q0 219 133 408t361 301t491 112q186 0 398 -100l-89 -385h-102l-61 294q-80 55 -205 56q-200 0 -356 -192t-156 -527
q0 -207 88 -329t211 -122z" />
    <glyph glyph-name="H" unicode="H" horiz-adv-x="1669" 
d="M827 0l21 113l170 26l92 471h-520l-92 -471l157 -26l-22 -113h-694l20 113l174 26l213 1080l-153 28l22 113h672l-21 -113l-155 -28l-93 -465h521l92 465l-144 28l21 113h674l-21 -113l-166 -28l-213 -1080l164 -26l-22 -113h-697z" />
    <glyph glyph-name="I" unicode="I" horiz-adv-x="784" 
d="M-61 0l22 113l172 26l213 1080l-153 28l22 113h682l-23 -113l-163 -28l-213 -1080l161 -26l-20 -113h-700z" />
    <glyph glyph-name="J" unicode="J" horiz-adv-x="792" 
d="M715 1219l-195 -996q-60 -301 -244 -487t-436 -187l-8 107q154 39 221 191q35 79 53 146t41 181l205 1045l-157 28l20 113h690l-22 -113z" />
    <glyph glyph-name="K" unicode="K" horiz-adv-x="1554" 
d="M1310 -41q-117 1 -164 15q-111 34 -146 70q-97 98 -131 162q-128 242 -242 507l4 28l176 52l448 413l-141 43l23 111h489l-22 -107l-174 -47l-443 -397q242 -529 298 -619t128 -122q15 -7 35 -15l-21 -94h-117zM-61 0l22 113l172 26l213 1080l-153 28l22 113h676
l-21 -113l-161 -28l-213 -1080l127 -26l-23 -113h-661z" />
    <glyph glyph-name="L" unicode="L" horiz-adv-x="1251" 
d="M498 139h362l215 355h105l-117 -494h-1124l20 113l174 26l211 1080l-151 28l20 113h690l-22 -113l-170 -28z" />
    <glyph glyph-name="M" unicode="M" horiz-adv-x="2025" 
d="M-61 0l22 113l172 41l275 1065l-170 28l22 113h637l160 -725l393 725h588l-23 -113l-164 -28l-112 -1082l162 -24l-21 -113h-719l23 115l186 24l123 989l-485 -858l-117 -227h-119l-29 223l-190 899l-248 -995l209 -61l-22 -109h-553z" />
    <glyph glyph-name="N" unicode="N" horiz-adv-x="1611" 
d="M1303 -27h-279l-539 1090l-172 -899l254 -58l-20 -106h-596l22 113l174 39l207 1034l-159 63l20 111h530l480 -991l147 821l-237 63l18 107h571l-22 -113l-168 -45l-201 -1014z" />
    <glyph glyph-name="O" unicode="O" horiz-adv-x="1589" 
d="M1143 930q0 354 -205 354q-113 0 -216 -120q-104 -120 -166 -314t-62 -404q0 -369 215 -368q125 0 228 147t155 341q51 194 51 364zM938 1403q272 0 439 -167t167 -472q0 -140 -56 -282q-125 -316 -425 -450q-162 -73 -354 -73q-285 0 -450 171t-165 470q0 152 63 296
q132 307 439 438q160 69 342 69z" />
    <glyph glyph-name="P" unicode="P" horiz-adv-x="1337" 
d="M1368 1010q0 -160 -108 -265q-199 -190 -592 -172l16 84q137 11 229 97q93 86 93 219t-83 207t-206 71l-217 -1112l200 -26l-22 -113h-739l22 113l174 26l213 1080l-155 28l22 113l604 2q257 -12 403 -102t146 -250z" />
    <glyph glyph-name="Q" unicode="Q" horiz-adv-x="1589" 
d="M1143 930q0 354 -205 354q-113 0 -216 -120q-104 -120 -166 -314t-62 -404q0 -369 215 -368q125 0 228 147t155 341q51 194 51 364zM938 1403q272 0 439 -167t167 -472q0 -250 -183 -473t-472 -291q176 -147 307 -224t264 -77t334 96l31 -61q-109 -98 -183 -140
q-154 -80 -352 -79q-131 1 -229 25t-207 96t-202 159q-93 86 -255 252q-139 76 -221 220t-82 318q0 173 62 315q134 303 440 434q160 69 342 69z" />
    <glyph glyph-name="R" unicode="R" horiz-adv-x="1507" 
d="M721 1260l-113 -570q203 2 311 87t107 235q0 248 -305 248zM1389 1016q0 -238 -357 -359v-4q180 -395 234 -481t149 -125l-14 -88q-260 0 -333 34q-30 13 -75 47t-72 74q-83 119 -135 230q-51 111 -106 231h-94l-86 -436l168 -26l-25 -113h-704l24 113l172 26l215 1082
l-157 26l24 113l594 4q270 2 424 -89t154 -259z" />
    <glyph glyph-name="S" unicode="S" horiz-adv-x="1214" 
d="M225 928q0 184 168 328t451 145q116 0 224 -35t126 -39l-90 -399h-113l-30 286q-91 62 -191 62t-166 -51t-66 -127t39 -118q38 -42 132 -97l149 -88q121 -72 180 -150q60 -77 60 -197t-62 -218q-106 -168 -362 -241q-104 -30 -220 -30q-147 0 -327 68l-61 22l61 430h113
l59 -327q115 -64 221 -64t169 57t63 135t-46 128q-46 51 -143 106l-121 70q-121 68 -169 144t-48 200z" />
    <glyph glyph-name="T" unicode="T" horiz-adv-x="1482" 
d="M455 1360h895l200 14l-90 -424h-102l-43 285h-254l-217 -1094l196 -28l-20 -113h-768l22 113l209 26l215 1096h-254l-153 -285h-103l78 424z" />
    <glyph glyph-name="U" unicode="U" horiz-adv-x="1556" 
d="M715 -43q-614 0 -498 612l129 650l-153 28l22 113h674l-21 -113l-155 -28l-138 -699q-35 -178 25 -277t217 -100q319 0 397 420l119 641l-248 49l21 107h563l-20 -113l-166 -43l-117 -588q-62 -317 -214 -488t-437 -171z" />
    <glyph glyph-name="V" unicode="V" horiz-adv-x="1556" 
d="M543 -23l-215 1242l-135 26l22 115h678l-23 -115l-157 -31l131 -913h4l491 897l-202 47l22 115h510l-22 -115l-142 -35l-704 -1233h-258z" />
    <glyph glyph-name="W" unicode="W" horiz-adv-x="2271" 
d="M1317 -23l-123 848l-434 -848h-246l-178 1242l-146 26l21 115h680l-23 -115l-151 -26l104 -863l342 678l-26 187l-133 24l22 115h666l-23 -115l-153 -28l108 -871l410 846l-152 53l23 115h479l-21 -115l-159 -41l-635 -1227h-252z" />
    <glyph glyph-name="X" unicode="X" horiz-adv-x="1423" 
d="M-61 0l22 115l127 26l483 504l-245 576l-119 26l22 113h664l-23 -113l-153 -26l133 -361h2l319 354l-161 33l22 113h457l-23 -113l-114 -28l-453 -476l264 -606l144 -24l-23 -113h-694l22 115l162 24l-149 393h-4l-338 -382l159 -37l-20 -113h-483z" />
    <glyph glyph-name="Y" unicode="Y" horiz-adv-x="1413" 
d="M1376 1212l-458 -639l-84 -434l172 -26l-23 -113h-721l23 113l184 26l74 379l-228 709l-122 18l22 115h678l-21 -111l-174 -26l162 -539h4l367 528l-162 37l23 111h436l-23 -111z" />
    <glyph glyph-name="Z" unicode="Z" horiz-adv-x="1327" 
d="M-31 0l23 127l887 1096h-418l-158 -308h-108l84 459l190 -14h930l-8 -39l-955 -1182h488l223 355h102l-139 -508l-205 14h-936z" />
    <glyph glyph-name="bracketleft" unicode="[" horiz-adv-x="604" 
d="M420 -371h-447l379 1872h447l-25 -121h-201l-329 -1630h200z" />
    <glyph glyph-name="backslash" unicode="\" horiz-adv-x="1032" 
d="M844 -397l-133 -27l-432 1925l135 27z" />
    <glyph glyph-name="bracketright" unicode="]" horiz-adv-x="604" 
d="M193 1501h446l-379 -1872h-444l24 121h199l330 1630h-201z" />
    <glyph glyph-name="asciicircum" unicode="^" horiz-adv-x="1048" 
d="M326 958h-140l447 590h192l224 -590h-123l-232 404z" />
    <glyph glyph-name="underscore" unicode="_" horiz-adv-x="835" 
d="M-156 -461l33 162h776l-30 -162h-779z" />
    <glyph glyph-name="grave" unicode="`" horiz-adv-x="819" 
d="M328 1579h272l76 -399h-131l-217 362v37z" />
    <glyph glyph-name="a" unicode="a" horiz-adv-x="1241" 
d="M393 205q74 1 193 153t174 330l51 164q-43 63 -90 63q-66 1 -154 -109t-151 -262t-64 -265q0 -74 41 -74zM776 1020q55 0 119 -35l20 59h283l-227 -843h6q100 43 180 151l51 -37q-55 -127 -191 -235t-252 -107q-116 0 -141 103q-13 55 23 145l53 144h-16
q-242 -403 -463 -404q-100 0 -155 58t-56 153q0 156 73 312q143 306 432 462q136 74 261 74z" />
    <glyph glyph-name="b" unicode="b" horiz-adv-x="1200" 
d="M479 61q76 0 151 113t121 280t46 320q0 63 -45 64q-68 0 -149 -111q-138 -189 -230 -475l-23 -86q8 -47 46 -76t83 -29zM459 -37q-81 0 -185 38t-198 110l-49 36l282 1147l-151 58l12 55l537 121l-224 -832h15q96 164 193 254t222 90q242 0 242 -311q0 -190 -76 -361
q-77 -171 -239 -288t-381 -117z" />
    <glyph glyph-name="c" unicode="c" horiz-adv-x="962" 
d="M608 899q-90 0 -160 -184q-70 -185 -69 -357q0 -172 113 -172q127 0 313 222l57 -48q-57 -121 -186 -244q-160 -153 -383 -153q-119 0 -194 92t-74 232q0 221 107 384q108 163 292 267t336 104q94 0 159 -46q124 -88 12 -219q-52 -60 -104 -85q-74 100 -126 154t-93 53z
" />
    <glyph glyph-name="d" unicode="d" horiz-adv-x="1302" 
d="M701 934q-67 0 -141 -113t-121 -259q-46 -146 -46 -246t45 -99q74 -1 203 193t170 362l14 68q-57 94 -124 94zM702 1034q84 0 160 -45l72 305l-152 58l13 55l532 121l-338 -1327h6q102 49 181 151l51 -37q-55 -127 -193 -235t-264 -107q-86 0 -118 65t10 183l53 144h-17
q-233 -403 -460 -404q-94 0 -154 71q-59 72 -59 222t90 331q91 181 251 315t336 134z" />
    <glyph glyph-name="e" unicode="e" horiz-adv-x="985" 
d="M666 922q-76 0 -159 -117t-116 -275q133 46 231 144t99 186q0 62 -55 62zM780 1042q219 0 219 -189q0 -99 -101 -193q-183 -170 -519 -226q-2 -14 -2 -47q0 -113 34 -158q33 -45 103 -45t153 56t142 125l51 -48q-70 -123 -211 -239t-305 -115q-164 0 -241 87t-76 235
q-1 195 107 361t287 282q179 115 359 114z" />
    <glyph glyph-name="f" unicode="f" horiz-adv-x="796" 
d="M1016 1528q74 0 143 -52q68 -52 68 -102q1 -50 -59 -118q-60 -67 -109 -91q-150 205 -254 205q-59 0 -100 -86t-80 -270v-2h254l-23 -133h-260l-133 -637q-35 -166 -101 -303t-140 -223q-76 -85 -158 -143q-153 -107 -271 -105q-90 0 -146 50q-57 50 -57 119t54 115
t141 66q33 -111 61 -160t68 -49q88 0 141 266l203 1004h-166l23 133h182q51 127 150 231t205 163q220 122 364 122z" />
    <glyph glyph-name="g" unicode="g" horiz-adv-x="1153" 
d="M172 -287q0 -72 85 -119t201 -47t200 37q83 37 83 84q1 28 -25 46t-87 34l-328 92q-53 -12 -91 -44t-38 -83zM645 942q-81 0 -153 -158t-72 -297t75 -139t151 150t75 297q0 147 -76 147zM649 1038q63 0 219 -39l363 27l-68 -207l-186 53l-4 -8q55 -76 55 -178
q0 -178 -162 -304t-377 -126q-45 0 -65 4q-55 -25 -55 -67q0 -47 77 -72l363 -94q109 -29 158 -82t49 -153t-116 -188t-268 -128q-152 -41 -294 -41q-236 0 -369 62q-133 63 -133 153t77 132t267 89v8q-129 57 -129 178q0 162 262 228v6q-92 41 -146 124t-54 187
q0 196 149 316t387 120z" />
    <glyph glyph-name="h" unicode="h" horiz-adv-x="1243" 
d="M990 1042q91 0 130 -56t0 -210l-147 -575h6q102 49 180 151l51 -37q-55 -129 -191 -241t-261 -111q-78 1 -115 63t-2 191l139 520q20 74 -16 74q-59 0 -227 -280t-218 -457l-16 -60l-274 -51l-58 35l330 1296l-151 58l12 55l526 121l-242 -963h17q203 351 361 437
q74 40 166 40z" />
    <glyph glyph-name="i" unicode="i" horiz-adv-x="663" 
d="M311 1360q-1 78 55 132t132 54t131 -54t55 -132t-55 -132t-131 -54t-132 54t-55 132zM422 1047q176 0 117 -252l-146 -594h6q102 49 181 151l51 -37q-55 -129 -191 -241t-262 -111q-78 -1 -114 61t-3 193l152 606l-158 39l13 53q90 55 188 93q98 39 166 39z" />
    <glyph glyph-name="j" unicode="j" horiz-adv-x="671" 
d="M369 1360q0 78 55 132t131 54t131 -54t55 -132t-55 -132t-131 -54t-131 54t-55 132zM486 1047q75 1 109 -61t1 -191l-141 -570q-81 -329 -267 -543t-389 -214q-98 0 -169 52t-70 138q0 59 58 104t149 66q8 -100 38 -160q31 -59 80 -59q49 1 95 121t100 333l190 760
l-157 39l12 53q217 132 361 132z" />
    <glyph glyph-name="k" unicode="k" horiz-adv-x="1134" 
d="M782 811q-70 0 -173 -128t-189 -304q204 76 314 174t110 188q-1 70 -62 70zM912 -80q-106 0 -216 77q-109 77 -188 204l-100 153q-74 -166 -99 -278l-14 -62l-266 -51l-58 35l330 1296l-151 58l12 55l526 121l-235 -903h10q242 418 465 417q90 0 142 -54t52 -136
q0 -129 -92 -231t-321 -199l362 -445v-32q-53 -25 -159 -25z" />
    <glyph glyph-name="l" unicode="l" horiz-adv-x="645" 
d="M160 -37q-78 -1 -114 61t-3 193l266 1077l-151 58l12 55l532 121l-327 -1327h6q102 49 180 151l51 -37q-55 -129 -191 -241t-261 -111z" />
    <glyph glyph-name="m" unicode="m" horiz-adv-x="1880" 
d="M1000 1042q74 0 112 -22t51 -80q14 -59 -24 -164l-80 -241h18q210 361 380 461q79 46 170 46t130 -56t0 -210l-147 -575h6q102 49 180 151l51 -37q-55 -129 -191 -241t-261 -111q-78 1 -115 63t-2 191l139 520q20 74 -16 74q-41 0 -133 -128t-182 -304t-121 -303l-17 -62
l-280 -51l-58 35l197 739q20 74 -16 74q-63 0 -225 -270t-216 -467l-16 -60l-277 -51l-57 35l215 825l-156 39l13 53q223 131 366 132q176 0 90 -269l-79 -243h18q113 194 230 331q149 176 303 176z" />
    <glyph glyph-name="n" unicode="n" horiz-adv-x="1282" 
d="M797 -37q-78 1 -115 63t-2 191l139 520q20 74 -16 74q-63 0 -229 -273t-218 -466l-16 -60l-283 -49l-57 35l215 825l-156 39l13 53q223 131 366 132q176 0 90 -269l-79 -243h18q295 508 549 507q104 0 143 -56t0 -210l-147 -575h6q102 49 180 151l51 -37
q-55 -129 -191 -241t-261 -111z" />
    <glyph glyph-name="o" unicode="o" horiz-adv-x="1191" 
d="M724 1042q194 0 305 -118q112 -118 112 -294q0 -178 -80 -325t-240 -245t-354 -97q-194 0 -305 117t-111 295t81 325q82 146 240 244t352 98zM408 231q0 -170 81 -170q72 0 143 127t111 293q41 167 41 267q0 196 -84 196q-70 0 -140 -127t-112 -293q-40 -166 -40 -293z
" />
    <glyph glyph-name="p" unicode="p" horiz-adv-x="1239" 
d="M530 68q111 0 212 210t102 420q0 82 -34 138t-103 55q-27 0 -80 -17l-183 -753q39 -53 86 -53zM1194 725q0 -115 -47 -245t-129 -244t-209 -190q-127 -75 -268 -75q-68 0 -125 27l-88 -369h250l-29 -121h-737l14 82l174 62l250 1046l-219 -116l-33 80q160 102 285 172
l75 319h295l-39 -160q339 129 496 -23q84 -81 84 -245z" />
    <glyph glyph-name="q" unicode="q" horiz-adv-x="1236" 
d="M438 217q74 0 205 195t168 360l14 68q-57 94 -124 94t-141 -113t-121 -259q-46 -146 -46 -246t45 -99zM25 254q0 150 90 331t251 315t336 134q104 0 197 -69l16 69h291l-348 -1405h176l-37 -121h-653l23 93l155 30l150 586l43 148h-17q-233 -403 -460 -404q-94 0 -154 71
q-59 72 -59 222z" />
    <glyph glyph-name="r" unicode="r" horiz-adv-x="1036" 
d="M1057 878q0 -78 -50 -150q-50 -71 -110 -99h-102q31 53 32 108q2 55 -32 80q-105 -95 -241 -361t-181 -444l-281 -49l-57 35l61 242q73 286 119 514l14 69l-153 37l10 55q75 52 166 91q92 39 154 38q205 0 110 -290l-115 -353h31q133 309 186 400q139 244 289 243
q68 0 109 -44t41 -122z" />
    <glyph glyph-name="s" unicode="s" horiz-adv-x="854" 
d="M762 360q0 -106 -84 -201t-204 -149t-226 -53q-106 0 -194 67q-87 66 -87 160t90 215h15q190 -293 354 -293q90 0 90 76q0 66 -131 156l-98 70q-158 104 -158 235q0 103 90 201t211 152q234 104 365 2q67 -52 67 -143t-76 -202h-14q-70 76 -106 112q-38 36 -98 71
q-60 34 -107 34q-88 -1 -88 -63q1 -33 23 -57t89 -72l117 -82q96 -68 128 -122t32 -114z" />
    <glyph glyph-name="t" unicode="t" horiz-adv-x="847" 
d="M231 -37q-77 0 -121 67t-20 165l170 684h-168l23 133h194l115 241h238l-48 -241h248l-22 -133h-244l-164 -662l6 -4q158 66 293 262l51 -37q-111 -232 -326 -390q-118 -85 -225 -85z" />
    <glyph glyph-name="u" unicode="u" horiz-adv-x="1257" 
d="M388 1049q112 1 146 -61t-6 -236l-129 -478q-20 -74 9 -73q27 0 122 131q96 131 197 318q100 187 125 315l6 30l275 52l57 -35l-203 -811h6q102 49 181 151l51 -37q-55 -129 -191 -241t-262 -111q-86 -1 -117 59t13 209l96 287h-14q-18 -30 -60 -98t-76 -119
q-95 -146 -184 -228q-113 -106 -235 -106q-88 0 -126 67t-6 199l150 592l-156 39l13 54q205 131 318 131z" />
    <glyph glyph-name="v" unicode="v" horiz-adv-x="1058" 
d="M801 717q0 57 -35 90t-86 33t-107 -19l15 76q137 139 295 139q80 0 130 -49t50 -122t-23 -136t-84 -143t-104 -128t-152 -158t-155 -161l-158 -168h-18l-144 49l-53 795q-33 23 -79 23t-97 -19l14 78q139 139 295 139q87 0 137 -50t54 -189l18 -566q156 165 222 271
t65 215z" />
    <glyph glyph-name="w" unicode="w" horiz-adv-x="1595" 
d="M1337 706q0 68 -34 101q-35 33 -86 33t-107 -19l14 76q137 139 295 139q80 0 130 -49t50 -113q0 -117 -72 -232q-72 -116 -159 -211q-86 -94 -174 -181t-113 -113l-172 -174h-35l-124 55l-7 340h-4l-393 -395h-27l-126 41l-25 811q-31 23 -79 23t-93 -19l14 78
q145 139 299 139q86 0 134 -51t46 -182l-4 -565h7q156 152 243 274l-8 303q-31 23 -78 23t-94 -19l14 78q145 139 299 139q80 0 130 -46t49 -183l-5 -578h9q104 115 151 174t91 147t44 156z" />
    <glyph glyph-name="x" unicode="x" horiz-adv-x="1208" 
d="M292 803q-101 0 -120 -264h-80q-6 239 82 369t238 130q94 0 152 -51t100 -178l47 -143l90 151q72 121 134 174t133 53t113 -44t42 -120t-47 -147q-47 -70 -125 -117h-82q20 58 15 110t-36 52q-32 0 -68 -40t-110 -140l-25 -35l121 -358h4q109 45 187 149l51 -37
q-53 -121 -179 -237q-125 -116 -195 -115q-70 0 -101 27t-60 108l-90 260l-47 -81q-98 -172 -170 -245t-151 -73t-127 42q-48 43 -49 109q0 66 27 115q28 49 54 68l29 20l60 -41q90 -57 149 -33t143 142l50 72l-66 194q-29 88 -47 121t-46 33z" />
    <glyph glyph-name="y" unicode="y" horiz-adv-x="1099" 
d="M332 1036q137 0 220 -118t92 -372q9 -255 -83 -546h12q129 182 194 322t97 301q-20 188 -108 346q90 68 194 67q54 0 102 -40t48 -122q0 -168 -132 -420t-316 -474q-184 -223 -397 -384q-212 -161 -359 -161q-113 0 -182 51q-68 51 -70 133t50 135t136 53t126 -55
t69 -153h14q234 109 279 594q11 106 10 204q-10 406 -109 406q-45 1 -77 -69t-40 -195h-79q-4 176 65 325q35 76 98 124t146 48z" />
    <glyph glyph-name="z" unicode="z" horiz-adv-x="1134" 
d="M616 -41q-59 0 -121 25t-186 92l-98 51l-145 -166l-97 94l719 609l-186 73q-115 45 -192 47t-81 -32q-10 -31 44 -68t165 -74q-76 -88 -127 -126t-106 -38t-94 37t-39 91t26 126t74 153q47 81 132 139q86 58 194 58t288 -89l152 -78l139 166l99 -103l-719 -608l133 -55
q163 -68 248 -18q44 28 76 76t65 130l70 -25q-70 -244 -168 -366t-265 -121z" />
    <glyph glyph-name="braceleft" unicode="{" horiz-adv-x="671" 
d="M393 -371q-387 0 -313 359l80 383q16 81 -3 113t-87 36l-54 2l31 156l76 2q102 2 121 108l67 394q29 170 134 244t327 75h39l-23 -106q-114 0 -160 -44t-79 -200l-66 -315q-45 -211 -252 -240v-6q97 -31 137 -93t17 -182l-68 -348q-29 -139 -1 -185t141 -46l-23 -107h-41
z" />
    <glyph glyph-name="bar" unicode="|" horiz-adv-x="559" 
d="M160 -424h-140l388 1952h139z" />
    <glyph glyph-name="braceright" unicode="}" horiz-adv-x="763" 
d="M281 1501q387 0 313 -358l-80 -383q-16 -82 3 -114t87 -36l53 -2l-30 -155l-76 -2q-102 -2 -121 -109l-68 -393q-29 -170 -134 -245t-326 -75h-39l22 107q115 0 161 44t79 200l65 315q45 211 252 240v6q-98 31 -137 93t-16 181l67 348q29 139 1 185t-140 47l23 106h41z
" />
    <glyph glyph-name="asciitilde" unicode="~" horiz-adv-x="1044" 
d="M147 387l-90 45l11 29q82 190 184 234t248 -11l63 -18q153 -55 219 -46t107 115l90 -47l-10 -33q-57 -139 -122 -199t-147 -60t-192 34l-62 19q-140 51 -200 43t-99 -105z" />
    <glyph glyph-name="exclamdown" unicode="&#xa1;" horiz-adv-x="622" 
d="M399 1206q76 0 130 -54q55 -54 55 -129t-54 -130t-131 -55q-76 0 -131 54t-55 130t55 130t131 54zM375 -246h-393l327 987h123z" />
    <glyph glyph-name="cent" unicode="&#xa2;" horiz-adv-x="962" 
d="M608 915q-102 0 -179 -177t-77 -404q0 -104 47 -141l242 718q-21 4 -33 4zM983 887q0 -78 -139 -187q-86 127 -119 160l-231 -692q131 2 331 240l58 -48q-57 -118 -176 -234t-279 -151l-76 -231h-102l74 219q-150 2 -225 91t-74 233q0 221 112 390q113 169 283 265
q133 76 260 90l82 242h102l-80 -240q84 -8 142 -50t57 -97z" />
    <glyph glyph-name="sterling" unicode="&#xa3;" horiz-adv-x="1566" 
d="M1577 1106q0 -131 -211 -154q-20 111 -61 180q-41 68 -93 68t-88 -66q-37 -66 -71 -216l-66 -277h359l-31 -145h-363q-70 -244 -325 -400q123 -70 231 -151l60 -43q124 -92 190 -130t115 -38q86 0 100 284q203 0 215 -124q10 -104 -139 -210q-150 -105 -322 -106
q-279 0 -514 262l-147 160q-137 -43 -223 -43q-162 0 -162 135q0 58 58 100q130 93 396 -24q61 115 103 303l4 25h-252l31 145h254l32 141q33 141 108 253q125 187 353 269q92 32 172 31q121 1 204 -65t83 -164z" />
    <glyph glyph-name="yen" unicode="&#xa5;" horiz-adv-x="1413" 
d="M164 543l22 112h287l-207 516l-123 19l23 115h678l-21 -111l-174 -27l178 -454h4l351 444l-162 37l22 111h437l-23 -111l-129 -37l-401 -502h321l-22 -112h-365l-29 -142h367l-22 -112h-365l-29 -150l183 -26l-23 -113h-721l23 113l194 26l29 150h-352l22 112h352l29 142
h-354z" />
    <glyph glyph-name="brokenbar" unicode="&#xa6;" horiz-adv-x="561" 
d="M162 -410h-142l168 859h144zM371 641h-144l170 862h144z" />
    <glyph glyph-name="section" unicode="&#xa7;" horiz-adv-x="1179" 
d="M354 760q0 -152 119 -291l125 -150q112 -129 106 -252t-120 -264h24q274 133 260 373q-6 123 -133 273l-127 149q-106 129 -101 253t118 263h-29q-242 -121 -242 -354zM121 628q0 158 106 296q186 241 567 382q159 58 263 58t153 -37q50 -37 50 -94t-46 -103t-110 -55
l-197 127q-109 -16 -180 -37l-4 -20q-45 -197 108 -385l134 -160q125 -154 125 -306t-106 -294q-186 -250 -567 -389q-157 -57 -262 -57t-155 39q-49 41 -49 103t43 105t94 47l213 -133q94 14 180 39l4 19q45 195 -110 385l-131 159q-123 153 -123 311z" />
    <glyph glyph-name="dieresis" unicode="&#xa8;" horiz-adv-x="819" 
d="M649 1358q0 66 47 114t113 48t114 -48t48 -114t-48 -113t-114 -47t-113 47t-47 113zM180 1358q0 66 47 114t113 48t113 -48t47 -114t-47 -113t-113 -47t-113 47t-47 113z" />
    <glyph glyph-name="copyright" unicode="&#xa9;" horiz-adv-x="1638" 
d="M838 270q-204 0 -308 98t-104 253q0 197 156 323t360 125q135 0 254 -49l-39 -229h-67l-46 155q-51 33 -102 33q-104 0 -175 -101q-71 -102 -71 -238t52 -207t131 -71q37 0 79 17l115 164h82l-61 -226q-154 -47 -256 -47zM828 43q257 0 445 183q187 184 195 444t-166 443
q-176 183 -432 183t-446 -183t-197 -443q-8 -260 168 -444t433 -183zM824 -37q-294 0 -492 205t-190 501q10 297 224 503t508 206t494 -207t190 -501t-225 -501q-215 -206 -509 -206z" />
    <glyph glyph-name="ordfeminine" unicode="&#xaa;" horiz-adv-x="1001" 
d="M377 688q57 0 144 113t132 258l41 135q-31 51 -65 51q-76 0 -178 -184t-103 -318q0 -55 29 -55zM670 1329q43 0 90 -26l14 45h227l-174 -664h7q80 39 133 115l41 -31q-44 -100 -150 -186t-198 -86t-109 81q-10 44 18 117l41 107h-12q-186 -315 -356 -316q-78 0 -121 46
t-41 122q0 250 194 463q195 213 396 213z" />
    <glyph glyph-name="guillemotleft" unicode="&#xab;" horiz-adv-x="1462" 
d="M1339 1004l64 -78l-412 -418l262 -414l-88 -61l-446 454l12 76zM752 1004l63 -78l-412 -418l263 -414l-88 -61l-447 454l12 76z" />
    <glyph glyph-name="registered" unicode="&#xae;" horiz-adv-x="1036" 
d="M764 1198q0 82 -98 90l-35 -188q49 2 91 24t42 74zM705 1346q109 0 165 -40t56 -96q0 -98 -131 -135v-6q61 -109 85 -137t54 -41l-4 -39q-70 -2 -99 -1t-63 23t-53 56q-20 35 -60 112h-37l-22 -124l39 -11l-8 -51h-258l8 51l67 13l72 362l-67 12l8 52h248zM274 1084
q0 -168 114 -282t281 -114t281 114t115 282q0 168 -115 281q-114 114 -282 114t-281 -114t-113 -281zM193 1083q0 197 141 333t339 136t336 -136t138 -333t-141 -331t-339 -136q-198 0 -336 135t-138 332z" />
    <glyph glyph-name="macron" unicode="&#xaf;" horiz-adv-x="819" 
d="M256 1253l37 170h594l-37 -170h-594z" />
    <glyph glyph-name="degree" unicode="&#xb0;" horiz-adv-x="690" 
d="M315 1235q1 -80 53 -136q52 -57 128 -57t128 56t52 137q0 80 -52 136t-128 56t-128 -56t-53 -136zM190 1235q0 129 90 215t217 86q128 0 215 -86t87 -215t-88 -216t-216 -87q-129 0 -217 87t-88 216z" />
    <glyph glyph-name="plusminus" unicode="&#xb1;" horiz-adv-x="1140" 
d="M1057 0h-971v139h971v-139zM1057 723h-412v-416h-147v416h-412v139h412v416h147v-416h412v-139z" />
    <glyph glyph-name="acute" unicode="&#xb4;" horiz-adv-x="819" 
d="M805 1579v-37l-266 -362h-131l124 399h273z" />
    <glyph glyph-name="paragraph" unicode="&#xb6;" horiz-adv-x="1259" 
d="M403 -426q-170 0 -265 93t-95 225t78 218q78 85 196 85q74 0 122 -45q48 -44 48 -100q-1 -56 -35 -97t-96 -45l-155 88l-15 -4q-16 -47 -14 -90q4 -100 64 -160t179 -59q119 0 203 88t117 256l240 1210h-187l-167 -850h-80q-201 0 -315 142t-74 344t209 345
q171 142 372 142h639l-20 -113l-174 -28l-226 -1131q-51 -260 -215 -387t-334 -127z" />
    <glyph glyph-name="periodcentered" unicode="&#xb7;" horiz-adv-x="616" 
d="M317 373q-76 0 -130 54t-54 129t54 130t130 55q75 0 131 -55t56 -130t-56 -129t-131 -54z" />
    <glyph glyph-name="cedilla" unicode="&#xb8;" horiz-adv-x="819" 
d="M240 -295q0 57 -60 107l154 196h108l-71 -112q129 -35 129 -150q-1 -225 -445 -299l-16 84q201 66 201 174z" />
    <glyph glyph-name="ordmasculine" unicode="&#xba;" horiz-adv-x="968" 
d="M641 1348q145 0 232 -94t88 -253q1 -203 -147 -359t-382 -157q-147 1 -234 95t-87 251q0 203 147 360t383 157zM614 1268q-78 0 -148 -204t-71 -350q0 -146 60 -147q80 0 150 204q71 205 71 351t-62 146z" />
    <glyph glyph-name="guillemotright" unicode="&#xbb;" horiz-adv-x="1462" 
d="M700 27l-63 77l412 416l-263 416l88 61l447 -454l-12 -76zM113 27l-64 77l412 416l-262 416l88 61l446 -454l-12 -76z" />
    <glyph glyph-name="onequarter" unicode="&#xbc;" horiz-adv-x="1966" 
d="M1249 319h238l49 259zM1423 0l33 170h-418l23 113l651 561l150 -23l-103 -502h150l-31 -149h-147l-35 -170h-273zM485 -170l-96 74l1227 1583l96 -74zM98 545l15 100l190 21l100 491h-219l9 98l538 105h19l-142 -698l180 -17l-20 -100h-670z" />
    <glyph glyph-name="onehalf" unicode="&#xbd;" horiz-adv-x="2052" 
d="M1956 608q0 -110 -108 -200t-310 -201h418l-43 -207h-746l23 88l229 156q123 82 191 152t68 134q-1 140 -124 140q-109 0 -223 -113l-71 61q160 229 395 230q129 0 215 -65t86 -175zM483 -170l-96 74l1227 1583l96 -74zM98 545l15 100l190 21l100 491h-219l9 98l538 105
h19l-142 -698l180 -17l-20 -100h-670z" />
    <glyph glyph-name="threequarters" unicode="&#xbe;" horiz-adv-x="2025" 
d="M1309 319h237l49 259zM1483 0l33 170h-418l22 113l652 561l149 -23l-102 -502h149l-31 -149h-147l-35 -170h-272zM526 -170l-96 74l1227 1583l96 -74zM440 510q-168 0 -259 54q-89 54 -91 134q0 100 141 131q80 -225 232 -225q45 0 74 30t28 79q0 160 -264 196l14 97
l66 12q111 20 163 60t52 85q0 88 -112 88t-228 -116l-76 63q88 104 178 145t220 41t212 -49q80 -49 80 -128t-74 -133t-194 -66v-4q134 -23 198 -71t64 -134q0 -125 -128 -207t-296 -82z" />
    <glyph glyph-name="questiondown" unicode="&#xbf;" horiz-adv-x="917" 
d="M641 1202q76 0 130 -54t54 -129t-54 -130t-130 -55t-131 54t-55 130t55 130t131 54zM184 217q0 -37 30 -61q68 -53 450 -86l47 -4l-27 -299l-115 14q-262 35 -383 156q-120 121 -120 276t68 247q69 91 231 134l157 41l29 102h123l-23 -329l-274 -68q-193 -45 -193 -123z
" />
    <glyph glyph-name="Agrave" unicode="&#xc0;" horiz-adv-x="1615" 
d="M696 1792h295l99 -285h-172l-222 240v45zM831 1133l-315 -576h389l-71 576h-3zM-39 0l21 106l137 44l700 1191l144 9l165 43l207 -1258l140 -24l-21 -111h-690l24 115l170 24l-32 260h-498l-127 -233l191 -51l-23 -115h-508z" />
    <glyph glyph-name="Aacute" unicode="&#xc1;" horiz-adv-x="1615" 
d="M1360 1792v-45l-293 -240h-170l170 285h293zM831 1133l-315 -576h389l-71 576h-3zM-39 0l21 106l137 44l700 1191l144 9l165 43l207 -1258l140 -24l-21 -111h-690l24 115l170 24l-32 260h-498l-127 -233l191 -51l-23 -115h-508z" />
    <glyph glyph-name="Acircumflex" unicode="&#xc2;" horiz-adv-x="1615" 
d="M827 1507h-159l272 285h219l154 -285h-142l-149 119zM831 1133l-315 -576h389l-71 576h-3zM-39 0l21 106l137 44l700 1191l144 9l165 43l207 -1258l140 -24l-21 -111h-690l24 115l170 24l-32 260h-498l-127 -233l191 -51l-23 -115h-508z" />
    <glyph glyph-name="Atilde" unicode="&#xc3;" horiz-adv-x="1615" 
d="M831 1133l-315 -576h389l-71 576h-3zM1012 1546l-56 19q-154 51 -210 8q-26 -20 -64 -80l-74 41l10 27q84 233 235 229q71 -2 159 -29l55 -18q158 -47 199 -36t108 103l76 -38l-14 -31q-76 -176 -174 -215t-250 20zM-39 0l21 106l137 44l700 1191l144 9l165 43l207 -1258
l140 -24l-21 -111h-690l24 115l170 24l-32 260h-498l-127 -233l191 -51l-23 -115h-508z" />
    <glyph glyph-name="Adieresis" unicode="&#xc4;" horiz-adv-x="1615" 
d="M1278 1470q-66 0 -113 48t-47 112q0 66 47 114t113 48t114 -48t48 -114t-48 -113t-114 -47zM768 1470q-66 0 -113 48t-47 112q0 66 47 114t113 48t113 -48t47 -114t-47 -113t-113 -47zM831 1133l-315 -576h389l-71 576h-3zM-39 0l21 106l137 44l700 1191l144 9l165 43
l207 -1258l140 -24l-21 -111h-690l24 115l170 24l-32 260h-498l-127 -233l191 -51l-23 -115h-508z" />
    <glyph glyph-name="Aring" unicode="&#xc5;" horiz-adv-x="1615" 
d="M909 1694q0 -56 37 -94t90 -38t90 38q37 36 37 94t-37 94q-37 37 -90 37t-90 -37t-37 -94zM788 1693q0 103 72 173t176 70t176 -70q72 -68 72 -171t-72 -173t-176 -70t-176 69t-72 172zM831 1133l-315 -576h389l-71 576h-3zM-39 0l21 106l137 44l700 1191l144 9l165 43
l207 -1258l140 -24l-21 -111h-690l24 115l170 24l-32 260h-498l-127 -233l191 -51l-23 -115h-508z" />
    <glyph glyph-name="AE" unicode="&#xc6;" horiz-adv-x="2127" 
d="M1116 1235h-45l-407 -526h348zM1548 584h-202l-91 -445h453l221 303h103l-136 -442h-1194l23 113l174 26l88 447h-414l-303 -420l201 -51l-25 -115h-548l22 106l143 44l811 1054l-215 43l23 113h1257l199 14l-115 -403h-100l-35 264h-415l-103 -526h201l98 174h105
l-88 -461h-111z" />
    <glyph glyph-name="Ccedilla" unicode="&#xc7;" horiz-adv-x="1505" 
d="M92 596q0 215 132 401t354 296t458 110t412 -111l-43 -374h-102l-82 288q-88 61 -195 62q-210 0 -360 -190t-150 -515q0 -219 99 -340t257 -121q106 0 201 50l211 319h107l-121 -389q-109 -55 -243 -87t-243 -32h-28l-56 -88q129 -35 129 -149q0 -225 -444 -299l-16 84
q201 66 200 174q0 57 -59 106l141 180q-255 33 -407 191t-152 434z" />
    <glyph glyph-name="Egrave" unicode="&#xc8;" horiz-adv-x="1370" 
d="M516 1792h295l98 -285h-172l-221 240v45zM799 629h-203l-98 -490h452l221 303h103l-135 -442h-1200l22 113l174 26l213 1080l-155 28l22 113h967l198 14l-114 -403h-101l-35 264h-415l-94 -481h200l99 174h104l-88 -461h-111z" />
    <glyph glyph-name="Eacute" unicode="&#xc9;" horiz-adv-x="1370" 
d="M1180 1792v-45l-293 -240h-170l170 285h293zM799 629h-203l-98 -490h452l221 303h103l-135 -442h-1200l22 113l174 26l213 1080l-155 28l22 113h967l198 14l-114 -403h-101l-35 264h-415l-94 -481h200l99 174h104l-88 -461h-111z" />
    <glyph glyph-name="Ecircumflex" unicode="&#xca;" horiz-adv-x="1370" 
d="M647 1507h-160l273 285h219l154 -285h-142l-149 119zM799 629h-203l-98 -490h452l221 303h103l-135 -442h-1200l22 113l174 26l213 1080l-155 28l22 113h967l198 14l-114 -403h-101l-35 264h-415l-94 -481h200l99 174h104l-88 -461h-111z" />
    <glyph glyph-name="Edieresis" unicode="&#xcb;" horiz-adv-x="1370" 
d="M1096 1470q-66 0 -113 48t-47 112q0 66 47 114t113 48t114 -48t47 -114q1 -66 -47 -113t-114 -47zM586 1470q-66 0 -113 48t-47 112q0 66 47 114t113 48t112 -48t47 -114q-1 -66 -47 -113t-112 -47zM799 629h-203l-98 -490h452l221 303h103l-135 -442h-1200l22 113
l174 26l213 1080l-155 28l22 113h967l198 14l-114 -403h-101l-35 264h-415l-94 -481h200l99 174h104l-88 -461h-111z" />
    <glyph glyph-name="Igrave" unicode="&#xcc;" horiz-adv-x="784" 
d="M281 1792h294l99 -285h-172l-221 240v45zM-61 0l22 113l172 26l213 1080l-153 28l22 113h682l-23 -113l-163 -28l-213 -1080l161 -26l-20 -113h-700z" />
    <glyph glyph-name="Iacute" unicode="&#xcd;" horiz-adv-x="784" 
d="M944 1792v-45l-293 -240h-170l170 285h293zM-61 0l22 113l172 26l213 1080l-153 28l22 113h682l-23 -113l-163 -28l-213 -1080l161 -26l-20 -113h-700z" />
    <glyph glyph-name="Icircumflex" unicode="&#xce;" horiz-adv-x="784" 
d="M414 1507h-160l272 285h219l154 -285h-141l-150 119zM-61 0l22 113l172 26l213 1080l-153 28l22 113h682l-23 -113l-163 -28l-213 -1080l161 -26l-20 -113h-700z" />
    <glyph glyph-name="Idieresis" unicode="&#xcf;" horiz-adv-x="784" 
d="M862 1470q-66 0 -112 48t-48 112q0 66 48 114t112 48q66 0 114 -48t48 -114t-48 -113t-114 -47zM352 1470q-66 0 -112 48t-47 112q0 66 47 114q46 48 112 48t113 -48t47 -114t-47 -113t-113 -47zM-61 0l22 113l172 26l213 1080l-153 28l22 113h682l-23 -113l-163 -28
l-213 -1080l161 -26l-20 -113h-700z" />
    <glyph glyph-name="Eth" unicode="&#xd0;" horiz-adv-x="1601" 
d="M641 104q221 0 367 199q145 199 145 496q0 217 -120 343t-324 118l-99 -506h275l-27 -127h-272l-78 -398q-12 -65 22 -95t111 -30zM-61 0l20 113l174 26l96 488h-186l27 127h184l92 465l-156 28l23 113l559 6q385 -4 585 -168t199 -412q0 -198 -87 -356
q-158 -287 -555 -394q-177 -48 -369 -44z" />
    <glyph glyph-name="Ntilde" unicode="&#xd1;" horiz-adv-x="1611" 
d="M1042 1546l-55 19q-154 51 -210 8q-26 -20 -64 -80l-74 41l10 27q84 233 235 229q71 -2 158 -29l56 -18q158 -47 198 -36t109 103l76 -38l-15 -31q-76 -176 -174 -215t-250 20zM1303 -27h-279l-539 1090l-172 -899l254 -58l-20 -106h-596l22 113l174 39l207 1034l-159 63
l20 111h530l480 -991l147 821l-237 63l18 107h571l-22 -113l-168 -45l-201 -1014z" />
    <glyph glyph-name="Ograve" unicode="&#xd2;" horiz-adv-x="1589" 
d="M700 1792h295l99 -285h-172l-222 240v45zM1143 930q0 354 -205 354q-113 0 -216 -120q-104 -120 -166 -314t-62 -404q0 -369 215 -368q125 0 228 147t155 341q51 194 51 364zM938 1403q272 0 439 -167t167 -472q0 -140 -56 -282q-125 -316 -425 -450q-162 -73 -354 -73
q-285 0 -450 171t-165 470q0 152 63 296q132 307 439 438q160 69 342 69z" />
    <glyph glyph-name="Oacute" unicode="&#xd3;" horiz-adv-x="1589" 
d="M1362 1792v-45l-293 -240h-170l170 285h293zM1143 930q0 354 -205 354q-113 0 -216 -120q-104 -120 -166 -314t-62 -404q0 -369 215 -368q125 0 228 147t155 341q51 194 51 364zM938 1403q272 0 439 -167t167 -472q0 -140 -56 -282q-125 -316 -425 -450
q-162 -73 -354 -73q-285 0 -450 171t-165 470q0 152 63 296q132 307 439 438q160 69 342 69z" />
    <glyph glyph-name="Ocircumflex" unicode="&#xd4;" horiz-adv-x="1589" 
d="M831 1507h-159l272 285h219l154 -285h-141l-150 119zM1143 930q0 354 -205 354q-113 0 -216 -120q-104 -120 -166 -314t-62 -404q0 -369 215 -368q125 0 228 147t155 341q51 194 51 364zM938 1403q272 0 439 -167t167 -472q0 -140 -56 -282q-125 -316 -425 -450
q-162 -73 -354 -73q-285 0 -450 171t-165 470q0 152 63 296q132 307 439 438q160 69 342 69z" />
    <glyph glyph-name="Otilde" unicode="&#xd5;" horiz-adv-x="1589" 
d="M1014 1546l-56 19q-155 51 -209 8q-26 -20 -65 -80l-74 41l11 27q84 233 234 229q71 -2 159 -29l55 -18q158 -47 199 -36t108 103l76 -38l-14 -31q-76 -176 -174 -215t-250 20zM1143 930q0 354 -205 354q-113 0 -216 -120q-104 -120 -166 -314t-62 -404q0 -369 215 -368
q125 0 228 147t155 341q51 194 51 364zM938 1403q272 0 439 -167t167 -472q0 -140 -56 -282q-125 -316 -425 -450q-162 -73 -354 -73q-285 0 -450 171t-165 470q0 152 63 296q132 307 439 438q160 69 342 69z" />
    <glyph glyph-name="Odieresis" unicode="&#xd6;" horiz-adv-x="1589" 
d="M1280 1470q-66 0 -113 48t-47 112q0 66 47 114t113 48t114 -48t48 -114t-48 -113t-114 -47zM770 1470q-66 0 -113 48t-47 112q0 66 47 114t113 48t113 -48t47 -114t-47 -113t-113 -47zM1143 930q0 354 -205 354q-113 0 -216 -120q-104 -120 -166 -314t-62 -404
q0 -369 215 -368q125 0 228 147t155 341q51 194 51 364zM938 1403q272 0 439 -167t167 -472q0 -140 -56 -282q-125 -316 -425 -450q-162 -73 -354 -73q-285 0 -450 171t-165 470q0 152 63 296q132 307 439 438q160 69 342 69z" />
    <glyph glyph-name="multiply" unicode="&#xd7;" horiz-adv-x="1142" 
d="M930 14l-369 371l-360 -367l-97 97l369 370l-369 369l101 100l366 -368l369 379l94 -99l-366 -372l368 -371z" />
    <glyph glyph-name="Oslash" unicode="&#xd8;" horiz-adv-x="1589" 
d="M483 438v-63l633 782q-51 127 -171 127t-225 -122t-171 -320t-66 -404zM1151 940q0 33 -4 82l-637 -789q49 -156 199 -155q125 0 230 150t159 346t53 366zM933 1403q177 0 318 -80l127 158h140l-179 -221q205 -178 205 -496q0 -140 -56 -282q-125 -316 -425 -450
q-163 -73 -357 -73t-344 94l-124 -155h-140l181 221q-184 178 -185 481q0 152 63 296q131 306 439 438q160 68 337 69z" />
    <glyph glyph-name="Ugrave" unicode="&#xd9;" horiz-adv-x="1556" 
d="M688 1792h295l98 -285h-172l-221 240v45zM715 -43q-614 0 -498 612l129 650l-153 28l22 113h674l-21 -113l-155 -28l-138 -699q-35 -178 25 -277t217 -100q319 0 397 420l119 641l-248 49l21 107h563l-20 -113l-166 -43l-117 -588q-62 -317 -214 -488t-437 -171z" />
    <glyph glyph-name="Uacute" unicode="&#xda;" horiz-adv-x="1556" 
d="M1350 1792v-45l-293 -240h-170l170 285h293zM715 -43q-614 0 -498 612l129 650l-153 28l22 113h674l-21 -113l-155 -28l-138 -699q-35 -178 25 -277t217 -100q319 0 397 420l119 641l-248 49l21 107h563l-20 -113l-166 -43l-117 -588q-62 -317 -214 -488t-437 -171z" />
    <glyph glyph-name="Ucircumflex" unicode="&#xdb;" horiz-adv-x="1556" 
d="M819 1507h-160l273 285h219l154 -285h-142l-149 119zM715 -43q-614 0 -498 612l129 650l-153 28l22 113h674l-21 -113l-155 -28l-138 -699q-35 -178 25 -277t217 -100q319 0 397 420l119 641l-248 49l21 107h563l-20 -113l-166 -43l-117 -588q-62 -317 -214 -488
t-437 -171z" />
    <glyph glyph-name="Udieresis" unicode="&#xdc;" horiz-adv-x="1556" 
d="M1268 1470q-66 0 -113 48t-47 112q0 66 47 114t113 48t114 -48t48 -114t-48 -113t-114 -47zM758 1470q-66 0 -113 48t-47 112q0 66 47 114t113 48t112 -48t48 -114q0 -66 -47 -113t-113 -47zM715 -43q-614 0 -498 612l129 650l-153 28l22 113h674l-21 -113l-155 -28
l-138 -699q-35 -178 25 -277t217 -100q319 0 397 420l119 641l-248 49l21 107h563l-20 -113l-166 -43l-117 -588q-62 -317 -214 -488t-437 -171z" />
    <glyph glyph-name="Yacute" unicode="&#xdd;" horiz-adv-x="1413" 
d="M1292 1792v-45l-293 -240h-170l170 285h293zM1376 1212l-458 -639l-84 -434l172 -26l-23 -113h-721l23 113l184 26l74 379l-228 709l-122 18l22 115h678l-21 -111l-174 -26l162 -539h4l367 528l-162 37l23 111h436l-23 -111z" />
    <glyph glyph-name="Thorn" unicode="&#xde;" horiz-adv-x="1331" 
d="M711 1059q303 0 461 -94t159 -240q-1 -121 -69 -210q-117 -152 -408 -191q-121 -16 -240 -5l17 82q152 0 251 81t99 209t-91 197t-228 68l-3 2l-161 -819l161 -26l-20 -113h-700l22 113l172 26l213 1080l-153 28l22 113h682l-23 -113l-163 -28l-33 -160h33z" />
    <glyph glyph-name="germandbls" unicode="&#xdf;" horiz-adv-x="1323" 
d="M1323 1272q0 -84 -44 -154q-45 -70 -107 -112t-124 -75q-62 -34 -106 -65q-44 -30 -45 -64q0 -34 88 -102l82 -67q168 -135 168 -254q0 -174 -156 -298t-338 -124q-79 0 -155 49t-76 129t80 182q152 -205 321 -204q33 -1 55 21t22 54t-26 65q-26 32 -90 83l-77 63
q-70 57 -107 107t-44 76q-7 28 -7 74t42 104t101 103q59 46 118 95q142 120 142 248q0 62 -38 108t-111 46q-252 0 -375 -580l-115 -538q-35 -166 -101 -303t-141 -223q-75 -85 -158 -143q-153 -107 -269 -105q-90 0 -147 50q-56 50 -56 119t54 115t141 66q32 -111 60 -160
t69 -49q88 0 141 266l176 858q35 172 136 327t226 254t250 156t219 58q152 0 237 -68t85 -188z" />
    <glyph glyph-name="agrave" unicode="&#xe0;" horiz-adv-x="1241" 
d="M506 1579h272l76 -399h-131l-217 362v37zM393 205q74 1 193 153t174 330l51 164q-43 63 -90 63q-66 1 -154 -109t-151 -262t-64 -265q0 -74 41 -74zM776 1020q55 0 119 -35l20 59h283l-227 -843h6q100 43 180 151l51 -37q-55 -127 -191 -235t-252 -107q-116 0 -141 103
q-13 55 23 145l53 144h-16q-242 -403 -463 -404q-100 0 -155 58t-56 153q0 156 73 312q143 306 432 462q136 74 261 74z" />
    <glyph glyph-name="aacute" unicode="&#xe1;" horiz-adv-x="1241" 
d="M1110 1579v-37l-266 -362h-131l125 399h272zM393 205q74 1 193 153t174 330l51 164q-43 63 -90 63q-66 1 -154 -109t-151 -262t-64 -265q0 -74 41 -74zM776 1020q55 0 119 -35l20 59h283l-227 -843h6q100 43 180 151l51 -37q-55 -127 -191 -235t-252 -107
q-116 0 -141 103q-13 55 23 145l53 144h-16q-242 -403 -463 -404q-100 0 -155 58t-56 153q0 156 73 312q143 306 432 462q136 74 261 74z" />
    <glyph glyph-name="acircumflex" unicode="&#xe2;" horiz-adv-x="1241" 
d="M633 1180h-137l268 399h203l120 -399h-124l-140 180zM393 205q74 1 193 153t174 330l51 164q-43 63 -90 63q-66 1 -154 -109t-151 -262t-64 -265q0 -74 41 -74zM776 1020q55 0 119 -35l20 59h283l-227 -843h6q100 43 180 151l51 -37q-55 -127 -191 -235t-252 -107
q-116 0 -141 103q-13 55 23 145l53 144h-16q-242 -403 -463 -404q-100 0 -155 58t-56 153q0 156 73 312q143 306 432 462q136 74 261 74z" />
    <glyph glyph-name="atilde" unicode="&#xe3;" horiz-adv-x="1241" 
d="M954 1194q-68 0 -159 29l-56 16q-119 41 -170 34t-98 -89l-76 41l15 26q94 176 184 216t217 -7l55 -16q128 -47 182 -40t115 101l80 -43l-20 -35q-73 -125 -137 -179t-132 -54zM393 205q74 1 193 153t174 330l51 164q-43 63 -90 63q-66 1 -154 -109t-151 -262t-64 -265
q0 -74 41 -74zM776 1020q55 0 119 -35l20 59h283l-227 -843h6q100 43 180 151l51 -37q-55 -127 -191 -235t-252 -107q-116 0 -141 103q-13 55 23 145l53 144h-16q-242 -403 -463 -404q-100 0 -155 58t-56 153q0 156 73 312q143 306 432 462q136 74 261 74z" />
    <glyph glyph-name="adieresis" unicode="&#xe4;" horiz-adv-x="1241" 
d="M897 1358q0 66 47 114t113 48q65 0 113 -48t48 -114t-48 -113t-114 -47t-112 47q-47 47 -47 113zM428 1358q0 66 47 114t113 48t112 -48t48 -114q0 -66 -48 -113t-112 -47q-66 0 -113 47t-47 113zM393 205q74 1 193 153t174 330l51 164q-43 63 -90 63q-66 1 -154 -109
t-151 -262t-64 -265q0 -74 41 -74zM776 1020q55 0 119 -35l20 59h283l-227 -843h6q100 43 180 151l51 -37q-55 -127 -191 -235t-252 -107q-116 0 -141 103q-13 55 23 145l53 144h-16q-242 -403 -463 -404q-100 0 -155 58t-56 153q0 156 73 312q143 306 432 462
q136 74 261 74z" />
    <glyph glyph-name="aring" unicode="&#xe5;" horiz-adv-x="1241" 
d="M705 1380q-1 -55 35 -91t87 -36t87 36t36 91t-36 91t-87 36t-87 -36t-35 -91zM588 1379q0 99 69 167q70 68 171 68t170 -67t69 -166t-70 -167t-171 -68t-170 67q-68 67 -68 166zM393 205q74 1 193 153t174 330l51 164q-43 63 -90 63q-66 1 -154 -109t-151 -262t-64 -265
q0 -74 41 -74zM776 1020q55 0 119 -35l20 59h283l-227 -843h6q100 43 180 151l51 -37q-55 -127 -191 -235t-252 -107q-116 0 -141 103q-13 55 23 145l53 144h-16q-242 -403 -463 -404q-100 0 -155 58t-56 153q0 156 73 312q143 306 432 462q136 74 261 74z" />
    <glyph glyph-name="ae" unicode="&#xe6;" horiz-adv-x="1499" 
d="M1180 922q-70 0 -153 -106t-124 -253q166 57 250 131t84 151t-57 77zM311 257q0 -56 38 -92t93 -36q86 0 131 98q-6 100 17 217l-133 -38q-80 -25 -113 -59t-33 -90zM845 -37q-177 0 -243 143q-195 -143 -321 -143q-127 1 -199 61t-72 168t87 180q87 71 294 115l217 48
l23 106q14 125 -22 193t-115 67q-47 0 -91 -33l-43 -221q-70 -16 -116 -16q-46 -1 -73 23q-26 24 -26 59q1 105 149 211t314 120q213 0 297 -157h8q68 75 169 115q100 40 200 40t166 -46t66 -133t-53 -153q-124 -159 -576 -235q-6 -45 -6 -88q0 -203 149 -203q70 0 153 56
t142 125l51 -48q-70 -123 -211 -239t-318 -115z" />
    <glyph glyph-name="ccedilla" unicode="&#xe7;" horiz-adv-x="962" 
d="M221 -315q0 57 -59 106l133 172q-127 4 -199 95t-71 229q0 221 107 384q108 163 292 267t336 104q94 0 159 -46q124 -88 12 -219q-52 -60 -104 -85q-74 100 -126 154t-93 53q-90 0 -160 -184q-70 -185 -69 -357q0 -172 113 -172q127 0 313 222l57 -48q-55 -112 -172 -230
t-274 -153l-64 -102q129 -35 129 -149q0 -225 -444 -299l-17 84q201 66 201 174z" />
    <glyph glyph-name="egrave" unicode="&#xe8;" horiz-adv-x="985" 
d="M440 1579h273l75 -399h-131l-217 362v37zM666 922q-76 0 -159 -117t-116 -275q133 46 231 144t99 186q0 62 -55 62zM780 1042q219 0 219 -189q0 -99 -101 -193q-183 -170 -519 -226q-2 -14 -2 -47q0 -113 34 -158q33 -45 103 -45t153 56t142 125l51 -48
q-70 -123 -211 -239t-305 -115q-164 0 -241 87t-76 235q-1 195 107 361t287 282q179 115 359 114z" />
    <glyph glyph-name="eacute" unicode="&#xe9;" horiz-adv-x="985" 
d="M993 1579v-37l-266 -362h-131l125 399h272zM666 922q-76 0 -159 -117t-116 -275q133 46 231 144t99 186q0 62 -55 62zM780 1042q219 0 219 -189q0 -99 -101 -193q-183 -170 -519 -226q-2 -14 -2 -47q0 -113 34 -158q33 -45 103 -45t153 56t142 125l51 -48
q-70 -123 -211 -239t-305 -115q-164 0 -241 87t-76 235q-1 195 107 361t287 282q179 115 359 114z" />
    <glyph glyph-name="ecircumflex" unicode="&#xea;" horiz-adv-x="985" 
d="M500 1180h-138l269 399h203l120 -399h-125l-139 180zM666 922q-76 0 -159 -117t-116 -275q133 46 231 144t99 186q0 62 -55 62zM780 1042q219 0 219 -189q0 -99 -101 -193q-183 -170 -519 -226q-2 -14 -2 -47q0 -113 34 -158q33 -45 103 -45t153 56t142 125l51 -48
q-70 -123 -211 -239t-305 -115q-164 0 -241 87t-76 235q-1 195 107 361t287 282q179 115 359 114z" />
    <glyph glyph-name="edieresis" unicode="&#xeb;" horiz-adv-x="985" 
d="M776 1358q0 66 47 114t113 48t114 -48t48 -114t-48 -113t-114 -47t-113 47t-47 113zM307 1358q0 66 47 114t113 48t113 -48t47 -114t-47 -113t-113 -47t-113 47t-47 113zM666 922q-76 0 -159 -117t-116 -275q133 46 231 144t99 186q0 62 -55 62zM780 1042q219 0 219 -189
q0 -99 -101 -193q-183 -170 -519 -226q-2 -14 -2 -47q0 -113 34 -158q33 -45 103 -45t153 56t142 125l51 -48q-70 -123 -211 -239t-305 -115q-164 0 -241 87t-76 235q-1 195 107 361t287 282q179 115 359 114z" />
    <glyph glyph-name="igrave" unicode="&#xec;" horiz-adv-x="663" 
d="M168 1610h272l76 -400h-131l-217 363v37zM178 -37q-78 -1 -114 61t-3 193l152 606l-158 39l13 53q90 55 188 93q98 39 166 39q176 0 117 -252l-146 -594h6q102 49 181 151l51 -37q-55 -129 -191 -241t-262 -111z" />
    <glyph glyph-name="iacute" unicode="&#xed;" horiz-adv-x="663" 
d="M772 1610v-37l-266 -363h-131l125 400h272zM178 -37q-78 -1 -114 61t-3 193l152 606l-158 39l13 53q90 55 188 93q98 39 166 39q176 0 117 -252l-146 -594h6q102 49 181 151l51 -37q-55 -129 -191 -241t-262 -111z" />
    <glyph glyph-name="icircumflex" unicode="&#xee;" horiz-adv-x="663" 
d="M295 1210h-137l268 400h203l121 -400h-125l-140 181zM178 -37q-78 -1 -114 61t-3 193l152 606l-158 39l13 53q90 55 188 93q98 39 166 39q176 0 117 -252l-146 -594h6q102 49 181 151l51 -37q-55 -129 -191 -241t-262 -111z" />
    <glyph glyph-name="idieresis" unicode="&#xef;" horiz-adv-x="663" 
d="M178 -37q-78 -1 -114 61t-3 193l152 606l-158 39l13 53q90 55 188 93q98 39 166 39q176 0 117 -252l-146 -594h6q102 49 181 151l51 -37q-55 -129 -191 -241t-262 -111zM684 1198q-66 0 -113 47t-47 113t47 114t113 48t114 -48t48 -114t-48 -113t-114 -47zM256 1198
q-66 0 -113 47t-47 113t47 114t113 48t113 -48t47 -114t-47 -113t-113 -47z" />
    <glyph glyph-name="eth" unicode="&#xf0;" horiz-adv-x="1193" 
d="M489 61q72 0 144 122t113 293q42 172 42 320t-86 148q-72 0 -144 -127t-113 -293q-42 -166 -42 -293q0 -170 86 -170zM1143 702q-1 -309 -189 -524t-493 -215q-180 0 -295 118t-115 308q0 250 180 444t443 193q51 0 94 -18q-23 113 -82 221l-303 -125l-35 98l279 115
q-45 66 -142 168l60 74q141 -72 262 -168l309 129l37 -99l-260 -108q250 -252 250 -611z" />
    <glyph glyph-name="ntilde" unicode="&#xf1;" horiz-adv-x="1282" 
d="M898 1194q-69 0 -159 29l-55 16q-119 41 -170 34t-98 -89l-76 41l14 26q94 176 184 216t218 -7l55 -16q129 -47 182 -40t115 101l80 -43l-21 -35q-74 -125 -137 -179t-132 -54zM797 -37q-78 1 -115 63t-2 191l139 520q20 74 -16 74q-63 0 -229 -273t-218 -466l-16 -60
l-283 -49l-57 35l215 825l-156 39l13 53q223 131 366 132q176 0 90 -269l-79 -243h18q295 508 549 507q104 0 143 -56t0 -210l-147 -575h6q102 49 180 151l51 -37q-55 -129 -191 -241t-261 -111z" />
    <glyph glyph-name="ograve" unicode="&#xf2;" horiz-adv-x="1191" 
d="M465 1579h272l76 -399h-131l-217 362v37zM724 1042q194 0 305 -118q112 -118 112 -294q0 -178 -80 -325t-240 -245t-354 -97q-194 0 -305 117t-111 295t81 325q82 146 240 244t352 98zM408 231q0 -170 81 -170q72 0 143 127t111 293q41 167 41 267q0 196 -84 196
q-70 0 -140 -127t-112 -293q-40 -166 -40 -293z" />
    <glyph glyph-name="oacute" unicode="&#xf3;" horiz-adv-x="1191" 
d="M1069 1579v-37l-266 -362h-131l125 399h272zM724 1042q194 0 305 -118q112 -118 112 -294q0 -178 -80 -325t-240 -245t-354 -97q-194 0 -305 117t-111 295t81 325q82 146 240 244t352 98zM408 231q0 -170 81 -170q72 0 143 127t111 293q41 167 41 267q0 196 -84 196
q-70 0 -140 -127t-112 -293q-40 -166 -40 -293z" />
    <glyph glyph-name="ocircumflex" unicode="&#xf4;" horiz-adv-x="1191" 
d="M592 1180h-137l268 399h203l121 -399h-125l-140 180zM724 1042q194 0 305 -118q112 -118 112 -294q0 -178 -80 -325t-240 -245t-354 -97q-194 0 -305 117t-111 295t81 325q82 146 240 244t352 98zM408 231q0 -170 81 -170q72 0 143 127t111 293q41 167 41 267
q0 196 -84 196q-70 0 -140 -127t-112 -293q-40 -166 -40 -293z" />
    <glyph glyph-name="otilde" unicode="&#xf5;" horiz-adv-x="1191" 
d="M912 1194q-68 0 -158 29l-56 16q-119 41 -170 34t-98 -89l-76 41l15 26q94 176 184 216t217 -7l55 -16q129 -47 183 -40t114 101l80 -43l-20 -35q-74 -125 -138 -179t-132 -54zM408 231q0 -170 81 -170q72 0 143 127t111 293q41 167 41 267q0 196 -84 196
q-70 0 -140 -127t-112 -293q-40 -166 -40 -293zM724 1042q194 0 305 -118q112 -118 112 -294q0 -178 -80 -325t-240 -245t-354 -97q-194 0 -305 117t-111 295t81 325q82 146 240 244t352 98z" />
    <glyph glyph-name="odieresis" unicode="&#xf6;" horiz-adv-x="1191" 
d="M856 1358q0 66 47 114t113 48t114 -48t48 -114t-48 -113t-114 -47t-113 47t-47 113zM387 1358q0 66 47 114t113 48q67 0 113 -48t46 -114t-46 -113q-48 -47 -114 -47t-112 47q-47 47 -47 113zM724 1042q194 0 305 -118q112 -118 112 -294q0 -178 -80 -325t-240 -245
t-354 -97q-194 0 -305 117t-111 295t81 325q82 146 240 244t352 98zM408 231q0 -170 81 -170q72 0 143 127t111 293q41 167 41 267q0 196 -84 196q-70 0 -140 -127t-112 -293q-40 -166 -40 -293z" />
    <glyph glyph-name="divide" unicode="&#xf7;" horiz-adv-x="1142" 
d="M578 643q-70 0 -120 51t-50 120t50 120t120 51t120 -51t52 -120q0 -69 -51 -120t-121 -51zM575 -16q-69 0 -119 51t-50 120t50 119t120 52q70 0 120 -52q52 -52 52 -120t-52 -119t-121 -51zM1063 418h-971v135h971v-135z" />
    <glyph glyph-name="oslash" unicode="&#xf8;" horiz-adv-x="1191" 
d="M700 944q-96 0 -189 -201t-116 -419l400 526q-25 94 -95 94zM483 61q102 0 199 205q96 205 117 428l-404 -532q18 -101 88 -101zM733 1042q92 0 174 -41l92 121h123l-133 -176q152 -125 152 -330q0 -164 -80 -311t-240 -245t-360 -97q-92 0 -182 45l-82 -110h-123
l125 163q-147 127 -148 328q0 164 81 311q81 146 240 244t361 98z" />
    <glyph glyph-name="ugrave" unicode="&#xf9;" horiz-adv-x="1257" 
d="M457 1579h272l76 -399h-131l-217 362v37zM388 1049q112 1 146 -61t-6 -236l-129 -478q-20 -74 9 -73q27 0 122 131q96 131 197 318q100 187 125 315l6 30l275 52l57 -35l-203 -811h6q102 49 181 151l51 -37q-55 -129 -191 -241t-262 -111q-86 -1 -117 59t13 209l96 287
h-14q-18 -30 -60 -98t-76 -119q-95 -146 -184 -228q-113 -106 -235 -106q-88 0 -126 67t-6 199l150 592l-156 39l13 54q205 131 318 131z" />
    <glyph glyph-name="uacute" unicode="&#xfa;" horiz-adv-x="1257" 
d="M1061 1579v-37l-266 -362h-131l124 399h273zM388 1049q112 1 146 -61t-6 -236l-129 -478q-20 -74 9 -73q27 0 122 131q96 131 197 318q100 187 125 315l6 30l275 52l57 -35l-203 -811h6q102 49 181 151l51 -37q-55 -129 -191 -241t-262 -111q-86 -1 -117 59t13 209
l96 287h-14q-18 -30 -60 -98t-76 -119q-95 -146 -184 -228q-113 -106 -235 -106q-88 0 -126 67t-6 199l150 592l-156 39l13 54q205 131 318 131z" />
    <glyph glyph-name="ucircumflex" unicode="&#xfb;" horiz-adv-x="1257" 
d="M584 1180h-138l269 399h203l120 -399h-125l-139 180zM388 1049q112 1 146 -61t-6 -236l-129 -478q-20 -74 9 -73q27 0 122 131q96 131 197 318q100 187 125 315l6 30l275 52l57 -35l-203 -811h6q102 49 181 151l51 -37q-55 -129 -191 -241t-262 -111q-86 -1 -117 59
t13 209l96 287h-14q-18 -30 -60 -98t-76 -119q-95 -146 -184 -228q-113 -106 -235 -106q-88 0 -126 67t-6 199l150 592l-156 39l13 54q205 131 318 131z" />
    <glyph glyph-name="udieresis" unicode="&#xfc;" horiz-adv-x="1257" 
d="M848 1358q0 66 47 114t113 48t114 -48t47 -114q0 -66 -48 -113q-47 -47 -113 -47t-113 47t-47 113zM379 1358q0 66 47 114t113 48q67 0 113 -48t46 -114t-47 -113t-113 -47t-112 47q-47 47 -47 113zM388 1049q112 1 146 -61t-6 -236l-129 -478q-20 -74 9 -73
q27 0 122 131q96 131 197 318q100 187 125 315l6 30l275 52l57 -35l-203 -811h6q102 49 181 151l51 -37q-55 -129 -191 -241t-262 -111q-86 -1 -117 59t13 209l96 287h-14q-18 -30 -60 -98t-76 -119q-95 -146 -184 -228q-113 -106 -235 -106q-88 0 -126 67t-6 199l150 592
l-156 39l13 54q205 131 318 131z" />
    <glyph glyph-name="yacute" unicode="&#xfd;" horiz-adv-x="1099" 
d="M995 1579v-37l-266 -362h-131l125 399h272zM332 1036q137 0 220 -118t92 -372q9 -255 -83 -546h12q129 182 194 322t97 301q-20 188 -108 346q90 68 194 67q54 0 102 -40t48 -122q0 -168 -132 -420t-316 -474q-184 -223 -397 -384q-212 -161 -359 -161q-113 0 -182 51
q-68 51 -70 133t50 135t136 53t126 -55t69 -153h14q234 109 279 594q11 106 10 204q-10 406 -109 406q-45 1 -77 -69t-40 -195h-79q-4 176 65 325q35 76 98 124t146 48z" />
    <glyph glyph-name="thorn" unicode="&#xfe;" horiz-adv-x="1200" 
d="M464 61q79 0 159 113t127 279t47 321q0 63 -45 64q-68 0 -149 -111q-138 -189 -230 -475l-31 -119q43 -72 122 -72zM913 1040q242 0 242 -286q0 -203 -76 -376q-75 -173 -237 -288t-383 -115q-78 0 -150 27l-88 -373h250l-29 -121h-723l15 82l174 62l401 1642l-151 58
l12 55l537 121l-224 -832h15q96 164 193 254t222 90z" />
    <glyph glyph-name="ydieresis" unicode="&#xff;" horiz-adv-x="1099" 
d="M748 1358q0 66 47 114t113 48t113 -48q48 -48 48 -114t-48 -113t-114 -47q-67 0 -113 47t-46 113zM279 1358q0 66 47 114q46 48 112 48t113 -48t47 -114t-47 -113t-113 -47t-112 47t-47 113zM332 1036q137 0 220 -118t92 -372q9 -255 -83 -546h12q129 182 194 322t97 301
q-20 188 -108 346q90 68 194 67q54 0 102 -40t48 -122q0 -168 -132 -420t-316 -474q-184 -223 -397 -384q-212 -161 -359 -161q-113 0 -182 51q-68 51 -70 133t50 135t136 53t126 -55t69 -153h14q234 109 279 594q11 106 10 204q-10 406 -109 406q-45 1 -77 -69t-40 -195
h-79q-4 176 65 325q35 76 98 124t146 48z" />
    <glyph glyph-name="Amacron" unicode="&#x100;" horiz-adv-x="1615" 
d="M711 1556l34 164h594l-34 -164h-594zM831 1133l-315 -576h389l-71 576h-3zM-39 0l21 106l137 44l700 1191l144 9l165 43l207 -1258l140 -24l-21 -111h-690l24 115l170 24l-32 260h-498l-127 -233l191 -51l-23 -115h-508z" />
    <glyph glyph-name="amacron" unicode="&#x101;" horiz-adv-x="1241" 
d="M504 1253l37 170h594l-37 -170h-594zM393 205q74 1 193 153t174 330l51 164q-43 63 -90 63q-66 1 -154 -109t-151 -262t-64 -265q0 -74 41 -74zM776 1020q55 0 119 -35l20 59h283l-227 -843h6q100 43 180 151l51 -37q-55 -127 -191 -235t-252 -107q-116 0 -141 103
q-13 55 23 145l53 144h-16q-242 -403 -463 -404q-100 0 -155 58t-56 153q0 156 73 312q143 306 432 462q136 74 261 74z" />
    <glyph glyph-name="Abreve" unicode="&#x102;" horiz-adv-x="1615" 
d="M992 1483q-150 0 -214 94q-63 94 -51 221h111q32 -129 184 -129t223 129h107q-30 -133 -120 -224t-240 -91zM831 1133l-315 -576h389l-71 576h-3zM-39 0l21 106l137 44l700 1191l144 9l165 43l207 -1258l140 -24l-21 -111h-690l24 115l170 24l-32 260h-498l-127 -233
l191 -51l-23 -115h-508z" />
    <glyph glyph-name="abreve" unicode="&#x103;" horiz-adv-x="1241" 
d="M786 1159q-133 0 -192 95t-49 239h121q27 -139 147 -139q59 0 100 36t80 103h119q-88 -334 -326 -334zM393 205q74 1 193 153t174 330l51 164q-43 63 -90 63q-66 1 -154 -109t-151 -262t-64 -265q0 -74 41 -74zM776 1020q55 0 119 -35l20 59h283l-227 -843h6
q100 43 180 151l51 -37q-55 -127 -191 -235t-252 -107q-116 0 -141 103q-13 55 23 145l53 144h-16q-242 -403 -463 -404q-100 0 -155 58t-56 153q0 156 73 312q143 306 432 462q136 74 261 74z" />
    <glyph glyph-name="Aogonek" unicode="&#x104;" horiz-adv-x="1615" 
d="M831 1133l-315 -576h389l-71 576h-3zM856 -231q0 -51 35 -82t81 -31t85 22t96 74l51 -47q-41 -63 -60 -91q-20 -28 -64 -76q-81 -87 -198 -88q-118 0 -186 60t-68 153t97 196q35 37 242 229l-41 311h-498l-127 -233l191 -51l-23 -115h-508l21 106l137 44l700 1191l144 9
l165 43l207 -1258l140 -24l-21 -111h-395q-203 -96 -203 -231z" />
    <glyph glyph-name="aogonek" unicode="&#x105;" horiz-adv-x="1241" 
d="M393 205q74 1 193 153t174 330l51 164q-43 63 -90 63q-66 1 -154 -109t-151 -262t-64 -265q0 -74 41 -74zM756 -37q-80 1 -115 61t6 197l53 144h-16q-242 -403 -463 -404q-100 0 -155 58t-56 153q0 156 73 312q143 306 432 462q136 74 261 74q55 0 119 -35l20 59h283
l-227 -843h6q100 43 180 151l51 -37q-51 -111 -166 -219l-129 -123q-121 -115 -159 -161t-37 -85q1 -38 23 -64t65 -25q94 0 201 110l53 -41q-53 -102 -145 -181t-197 -79q-104 0 -165 53q-60 52 -60 134t62 154t232 167v10q-10 -2 -30 -2z" />
    <glyph glyph-name="Cacute" unicode="&#x106;" horiz-adv-x="1505" 
d="M1384 1792v-45l-292 -240h-170l170 285h292zM784 -37q-309 0 -500 161t-192 472q0 215 132 401t354 296t458 110t412 -111l-43 -374h-102l-82 288q-88 61 -195 62q-210 0 -360 -190t-150 -515q0 -219 99 -340t257 -121q106 0 201 50l211 319h107l-121 -389
q-109 -55 -243 -87t-243 -32z" />
    <glyph glyph-name="cacute" unicode="&#x107;" horiz-adv-x="962" 
d="M999 1579v-37l-266 -362h-131l125 399h272zM608 899q-90 0 -160 -184q-70 -185 -69 -357q0 -172 113 -172q127 0 313 222l57 -48q-57 -121 -186 -244q-160 -153 -383 -153q-119 0 -194 92t-74 232q0 221 107 384q108 163 292 267t336 104q94 0 159 -46q124 -88 12 -219
q-52 -60 -104 -85q-74 100 -126 154t-93 53z" />
    <glyph glyph-name="Ccircumflex" unicode="&#x108;" horiz-adv-x="1505" 
d="M852 1507h-160l273 285h219l153 -285h-141l-149 119zM784 -37q-309 0 -500 161t-192 472q0 215 132 401t354 296t458 110t412 -111l-43 -374h-102l-82 288q-88 61 -195 62q-210 0 -360 -190t-150 -515q0 -219 99 -340t257 -121q106 0 201 50l211 319h107l-121 -389
q-109 -55 -243 -87t-243 -32z" />
    <glyph glyph-name="ccircumflex" unicode="&#x109;" horiz-adv-x="962" 
d="M522 1180h-137l268 399h203l121 -399h-125l-139 180zM608 899q-90 0 -160 -184q-70 -185 -69 -357q0 -172 113 -172q127 0 313 222l57 -48q-57 -121 -186 -244q-160 -153 -383 -153q-119 0 -194 92t-74 232q0 221 107 384q108 163 292 267t336 104q94 0 159 -46
q124 -88 12 -219q-52 -60 -104 -85q-74 100 -126 154t-93 53z" />
    <glyph glyph-name="Cdotaccent" unicode="&#x10a;" horiz-adv-x="1505" 
d="M836 1696q0 78 55 132t131 54t131 -54t55 -132t-55 -132t-131 -54t-131 54t-55 132zM784 -37q-309 0 -500 161t-192 472q0 215 132 401t354 296t458 110t412 -111l-43 -374h-102l-82 288q-88 61 -195 62q-210 0 -360 -190t-150 -515q0 -219 99 -340t257 -121
q106 0 201 50l211 319h107l-121 -389q-109 -55 -243 -87t-243 -32z" />
    <glyph glyph-name="cdotaccent" unicode="&#x10b;" horiz-adv-x="962" 
d="M524 1356q0 78 56 132t131 54q76 0 131 -54t55 -132t-55 -132t-131 -54q-75 0 -131 54t-56 132zM608 899q-90 0 -160 -184q-70 -185 -69 -357q0 -172 113 -172q127 0 313 222l57 -48q-57 -121 -186 -244q-160 -153 -383 -153q-119 0 -194 92t-74 232q0 221 107 384
q108 163 292 267t336 104q94 0 159 -46q124 -88 12 -219q-52 -60 -104 -85q-74 100 -126 154t-93 53z" />
    <glyph glyph-name="Ccaron" unicode="&#x10c;" horiz-adv-x="1505" 
d="M1214 1792h160l-272 -285h-219l-154 285h141l150 -121zM784 -37q-309 0 -500 161t-192 472q0 215 132 401t354 296t458 110t412 -111l-43 -374h-102l-82 288q-88 61 -195 62q-210 0 -360 -190t-150 -515q0 -219 99 -340t257 -121q106 0 201 50l211 319h107l-121 -389
q-109 -55 -243 -87t-243 -32z" />
    <glyph glyph-name="ccaron" unicode="&#x10d;" horiz-adv-x="962" 
d="M909 1579h138l-269 -399h-203l-120 399h125l137 -182zM608 899q-90 0 -160 -184q-70 -185 -69 -357q0 -172 113 -172q127 0 313 222l57 -48q-57 -121 -186 -244q-160 -153 -383 -153q-119 0 -194 92t-74 232q0 221 107 384q108 163 292 267t336 104q94 0 159 -46
q124 -88 12 -219q-52 -60 -104 -85q-74 100 -126 154t-93 53z" />
    <glyph glyph-name="Dcaron" unicode="&#x10e;" horiz-adv-x="1601" 
d="M1083 1792h160l-272 -285h-219l-154 285h141l150 -121zM-61 0l20 113l174 26l213 1080l-156 28l23 113l559 6q385 -4 585 -168t199 -412q0 -198 -87 -356q-158 -287 -555 -394q-177 -48 -369 -44zM641 104q221 0 367 199q145 199 145 496q1 217 -119 343t-325 118
l-201 -1031q-12 -65 22 -95t111 -30z" />
    <glyph glyph-name="dcaron" unicode="&#x10f;" horiz-adv-x="1302" 
d="M1718 1528v-64l-276 -368h-86l125 432h237zM701 934q-67 0 -141 -113t-121 -259q-46 -146 -46 -246t45 -99q74 -1 203 193t170 362l14 68q-57 94 -124 94zM702 1034q84 0 160 -45l72 305l-152 58l13 55l532 121l-338 -1327h6q102 49 181 151l51 -37q-55 -127 -193 -235
t-264 -107q-86 0 -118 65t10 183l53 144h-17q-233 -403 -460 -404q-94 0 -154 71q-59 72 -59 222t90 331q91 181 251 315t336 134z" />
    <glyph glyph-name="Dcroat" unicode="&#x110;" horiz-adv-x="1601" 
d="M641 104q221 0 367 199q145 199 145 496q0 217 -120 343t-324 118l-99 -506h275l-27 -127h-272l-78 -398q-12 -65 22 -95t111 -30zM-61 0l20 113l174 26l96 488h-186l27 127h184l92 465l-156 28l23 113l559 6q385 -4 585 -168t199 -412q0 -198 -87 -356
q-158 -287 -555 -394q-177 -48 -369 -44z" />
    <glyph glyph-name="dcroat" unicode="&#x111;" horiz-adv-x="1302" 
d="M701 934q-67 0 -141 -113t-121 -259q-46 -146 -46 -246t45 -99q74 1 204 195t169 360l14 68q-57 94 -124 94zM770 -27q-86 0 -118 65t10 183l53 144h-17q-233 -403 -460 -404q-94 0 -154 71q-59 72 -59 222t90 331t251 315t336 134q84 0 160 -45l33 146h-367l23 98h367
l20 82l-156 37l13 55l532 121l-76 -295h150l-23 -98h-151l-238 -934h6q102 49 181 151l51 -37q-55 -127 -193 -235t-264 -107z" />
    <glyph glyph-name="Emacron" unicode="&#x112;" horiz-adv-x="1370" 
d="M530 1556l35 164h594l-35 -164h-594zM799 629h-203l-98 -490h452l221 303h103l-135 -442h-1200l22 113l174 26l213 1080l-155 28l22 113h967l198 14l-114 -403h-101l-35 264h-415l-94 -481h200l99 174h104l-88 -461h-111z" />
    <glyph glyph-name="emacron" unicode="&#x113;" horiz-adv-x="985" 
d="M391 1253l37 170h594l-37 -170h-594zM666 922q-76 0 -159 -117t-116 -275q133 46 231 144t99 186q0 62 -55 62zM780 1042q219 0 219 -189q0 -99 -101 -193q-183 -170 -519 -226q-2 -14 -2 -47q0 -113 34 -158q33 -45 103 -45t153 56t142 125l51 -48q-70 -123 -211 -239
t-305 -115q-164 0 -241 87t-76 235q-1 195 107 361t287 282q179 115 359 114z" />
    <glyph glyph-name="Ebreve" unicode="&#x114;" horiz-adv-x="1370" 
d="M828 1483q-150 0 -214 94q-63 94 -51 221h111q32 -129 184 -129t223 129h107q-31 -133 -120 -224q-90 -91 -240 -91zM799 629h-203l-98 -490h452l221 303h103l-135 -442h-1200l22 113l174 26l213 1080l-155 28l22 113h967l198 14l-114 -403h-101l-35 264h-415l-94 -481
h200l99 174h104l-88 -461h-111z" />
    <glyph glyph-name="ebreve" unicode="&#x115;" horiz-adv-x="985" 
d="M666 1159q-133 0 -193 95q-59 95 -49 239h121q27 -139 147 -139q59 0 101 36q41 36 79 103h119q-87 -334 -325 -334zM666 922q-76 0 -159 -117t-116 -275q133 46 231 144t99 186q0 62 -55 62zM780 1042q219 0 219 -189q0 -99 -101 -193q-183 -170 -519 -226
q-2 -14 -2 -47q0 -113 34 -158q33 -45 103 -45t153 56t142 125l51 -48q-70 -123 -211 -239t-305 -115q-164 0 -241 87t-76 235q-1 195 107 361t287 282q179 115 359 114z" />
    <glyph glyph-name="Edotaccent" unicode="&#x116;" horiz-adv-x="1370" 
d="M670 1696q0 78 54 132t132 54t132 -54t54 -132t-54 -132t-132 -54t-132 54t-54 132zM799 629h-203l-98 -490h452l221 303h103l-135 -442h-1200l22 113l174 26l213 1080l-155 28l22 113h967l198 14l-114 -403h-101l-35 264h-415l-94 -481h200l99 174h104l-88 -461h-111z
" />
    <glyph glyph-name="edotaccent" unicode="&#x117;" horiz-adv-x="985" 
d="M514 1356q0 78 54 132t132 54t132 -54t55 -132q0 -78 -54 -132q-55 -54 -133 -54t-132 54t-54 132zM666 922q-76 0 -159 -117t-116 -275q133 46 231 144t99 186q0 62 -55 62zM780 1042q219 0 219 -189q0 -99 -101 -193q-183 -170 -519 -226q-2 -14 -2 -47q0 -113 34 -158
q33 -45 103 -45t153 56t142 125l51 -48q-70 -123 -211 -239t-305 -115q-164 0 -241 87t-76 235q-1 195 107 361t287 282q179 115 359 114z" />
    <glyph glyph-name="Eogonek" unicode="&#x118;" horiz-adv-x="1370" 
d="M485 -338q-1 94 61 163t222 175h-829l22 113l174 26l213 1080l-155 28l22 113h967l198 14l-114 -403h-101l-35 264h-415l-94 -481h200l99 174h104l-88 -461h-111l-26 162h-203l-98 -490h452l221 303h103l-135 -442h-246q-111 -98 -149 -147t-38 -99t34 -80q34 -28 83 -28
t91 22t100 74l47 -51q-43 -63 -63 -89t-63 -71q-78 -80 -197 -81q-118 -1 -186 58q-68 60 -67 154z" />
    <glyph glyph-name="eogonek" unicode="&#x119;" horiz-adv-x="985" 
d="M666 922q-76 0 -159 -117t-116 -275q133 46 231 144t99 186q0 62 -55 62zM780 1042q219 0 219 -189q0 -99 -101 -193q-183 -170 -519 -226q-2 -14 -2 -47q0 -113 34 -158q33 -45 103 -45t153 56t142 125l51 -48q-59 -106 -186 -229l-121 -115q-121 -115 -159 -161
t-38 -85q0 -38 23 -64t65 -25q94 0 201 110l53 -41q-53 -102 -145 -181q-93 -79 -197 -79t-165 53q-60 52 -60 134q1 82 63 154t236 171v10q-29 -6 -96 -6q-154 0 -231 87t-76 235q-1 195 107 361t287 282q179 115 359 114z" />
    <glyph glyph-name="Ecaron" unicode="&#x11a;" horiz-adv-x="1370" 
d="M1010 1792h159l-272 -285h-219l-154 285h142l149 -121zM799 629h-203l-98 -490h452l221 303h103l-135 -442h-1200l22 113l174 26l213 1080l-155 28l22 113h967l198 14l-114 -403h-101l-35 264h-415l-94 -481h200l99 174h104l-88 -461h-111z" />
    <glyph glyph-name="ecaron" unicode="&#x11b;" horiz-adv-x="985" 
d="M899 1579h137l-268 -399h-203l-121 399h125l138 -182zM666 922q-76 0 -159 -117t-116 -275q133 46 231 144t99 186q0 62 -55 62zM780 1042q219 0 219 -189q0 -99 -101 -193q-183 -170 -519 -226q-2 -14 -2 -47q0 -113 34 -158q33 -45 103 -45t153 56t142 125l51 -48
q-70 -123 -211 -239t-305 -115q-164 0 -241 87t-76 235q-1 195 107 361t287 282q179 115 359 114z" />
    <glyph glyph-name="Gcircumflex" unicode="&#x11c;" horiz-adv-x="1570" 
d="M858 1507h-160l273 285h219l153 -285h-141l-149 119zM805 98q94 0 144 42t69 149l37 215l-162 22l22 111h574l-23 -111l-96 -28l-86 -400q-342 -135 -512 -135q-313 0 -497 158q-183 158 -183 461q0 219 133 408t361 301t491 112q186 0 398 -100l-89 -385h-102l-61 294
q-80 55 -205 56q-200 0 -356 -192t-156 -527q0 -207 88 -329t211 -122z" />
    <glyph glyph-name="gcircumflex" unicode="&#x11d;" horiz-adv-x="1153" 
d="M567 1180h-137l268 399h203l121 -399h-125l-139 180zM172 -287q0 -72 85 -119t201 -47t200 37q83 37 83 84q1 28 -25 46t-87 34l-328 92q-53 -12 -91 -44t-38 -83zM645 942q-81 0 -153 -158t-72 -297t75 -139t151 150t75 297q0 147 -76 147zM649 1038q63 0 219 -39
l363 27l-68 -207l-186 53l-4 -8q55 -76 55 -178q0 -178 -162 -304t-377 -126q-45 0 -65 4q-55 -25 -55 -67q0 -47 77 -72l363 -94q109 -29 158 -82t49 -153t-116 -188t-268 -128q-152 -41 -294 -41q-236 0 -369 62q-133 63 -133 153t77 132t267 89v8q-129 57 -129 178
q0 162 262 228v6q-92 41 -146 124t-54 187q0 196 149 316t387 120z" />
    <glyph glyph-name="Gbreve" unicode="&#x11e;" horiz-adv-x="1570" 
d="M1022 1483q-150 0 -213 94t-51 221h110q31 -129 184 -129t224 129h106q-31 -133 -120 -224q-90 -91 -240 -91zM805 98q94 0 144 42t69 149l37 215l-162 22l22 111h574l-23 -111l-96 -28l-86 -400q-342 -135 -512 -135q-313 0 -497 158q-183 158 -183 461q0 219 133 408
t361 301t491 112q186 0 398 -100l-89 -385h-102l-61 294q-80 55 -205 56q-200 0 -356 -192t-156 -527q0 -207 88 -329t211 -122z" />
    <glyph glyph-name="gbreve" unicode="&#x11f;" horiz-adv-x="1153" 
d="M721 1159q-133 0 -193 95q-59 95 -49 239h121q27 -139 148 -139q59 0 100 36t80 103h119q-88 -334 -326 -334zM172 -287q0 -72 85 -119t201 -47t200 37q83 37 83 84q1 28 -25 46t-87 34l-328 92q-53 -12 -91 -44t-38 -83zM645 942q-81 0 -153 -158t-72 -297t75 -139
t151 150t75 297q0 147 -76 147zM649 1038q63 0 219 -39l363 27l-68 -207l-186 53l-4 -8q55 -76 55 -178q0 -178 -162 -304t-377 -126q-45 0 -65 4q-55 -25 -55 -67q0 -47 77 -72l363 -94q109 -29 158 -82t49 -153t-116 -188t-268 -128q-152 -41 -294 -41q-236 0 -369 62
q-133 63 -133 153t77 132t267 89v8q-129 57 -129 178q0 162 262 228v6q-92 41 -146 124t-54 187q0 196 149 316t387 120z" />
    <glyph glyph-name="Gdotaccent" unicode="&#x120;" horiz-adv-x="1570" 
d="M846 1696q0 78 54 132t132 54t132 -54t54 -132t-54 -132t-132 -54t-132 54t-54 132zM805 98q94 0 144 42t69 149l37 215l-162 22l22 111h574l-23 -111l-96 -28l-86 -400q-342 -135 -512 -135q-313 0 -497 158q-183 158 -183 461q0 219 133 408t361 301t491 112
q186 0 398 -100l-89 -385h-102l-61 294q-80 55 -205 56q-200 0 -356 -192t-156 -527q0 -207 88 -329t211 -122z" />
    <glyph glyph-name="gdotaccent" unicode="&#x121;" horiz-adv-x="1153" 
d="M569 1356q-1 78 55 132t132 54t131 -54t55 -132t-55 -132t-131 -54t-132 54t-55 132zM172 -287q0 -72 85 -119t201 -47t200 37q83 37 83 84q1 28 -25 46t-87 34l-328 92q-53 -12 -91 -44t-38 -83zM645 942q-81 0 -153 -158t-72 -297t75 -139t151 150t75 297
q0 147 -76 147zM649 1038q63 0 219 -39l363 27l-68 -207l-186 53l-4 -8q55 -76 55 -178q0 -178 -162 -304t-377 -126q-45 0 -65 4q-55 -25 -55 -67q0 -47 77 -72l363 -94q109 -29 158 -82t49 -153t-116 -188t-268 -128q-152 -41 -294 -41q-236 0 -369 62q-133 63 -133 153
t77 132t267 89v8q-129 57 -129 178q0 162 262 228v6q-92 41 -146 124t-54 187q0 196 149 316t387 120z" />
    <glyph glyph-name="Gcommaaccent" unicode="&#x122;" horiz-adv-x="1570" 
d="M627 -344q0 74 -103 94q45 141 189 141q76 0 126 -43t50 -114q0 -102 -123 -186t-330 -138l-28 76q125 43 172 82t47 88zM805 98q94 0 144 42t69 149l37 215l-162 22l22 111h574l-23 -111l-96 -28l-86 -400q-342 -135 -512 -135q-313 0 -497 158q-183 158 -183 461
q0 219 133 408t361 301t491 112q186 0 398 -100l-89 -385h-102l-61 294q-80 55 -205 56q-200 0 -356 -192t-156 -527q0 -207 88 -329t211 -122z" />
    <glyph glyph-name="gcommaaccent" unicode="&#x123;" horiz-adv-x="1153" 
d="M809 1421q0 -74 102 -94q-45 -141 -188 -141q-76 0 -126 43t-50 114q1 103 123 187t329 137l29 -76q-125 -43 -172 -82t-47 -88zM172 -287q0 -72 85 -119t201 -47t200 37q83 37 83 84q1 28 -25 46t-87 34l-328 92q-53 -12 -91 -44t-38 -83zM645 942q-81 0 -153 -158
t-72 -297t75 -139t151 150t75 297q0 147 -76 147zM649 1038q63 0 219 -39l363 27l-68 -207l-186 53l-4 -8q55 -76 55 -178q0 -178 -162 -304t-377 -126q-45 0 -65 4q-55 -25 -55 -67q0 -47 77 -72l363 -94q109 -29 158 -82t49 -153t-116 -188t-268 -128q-152 -41 -294 -41
q-236 0 -369 62q-133 63 -133 153t77 132t267 89v8q-129 57 -129 178q0 162 262 228v6q-92 41 -146 124t-54 187q0 196 149 316t387 120z" />
    <glyph glyph-name="Hcircumflex" unicode="&#x124;" horiz-adv-x="1669" 
d="M856 1507h-160l273 285h219l153 -285h-141l-149 119zM827 0l21 113l170 26l92 471h-520l-92 -471l157 -26l-22 -113h-694l20 113l174 26l213 1080l-153 28l22 113h672l-21 -113l-155 -28l-93 -465h521l92 465l-144 28l21 113h674l-21 -113l-166 -28l-213 -1080l164 -26
l-22 -113h-697z" />
    <glyph glyph-name="hcircumflex" unicode="&#x125;" horiz-adv-x="1243" 
d="M641 1579h-160l273 285h219l153 -285h-141l-149 119zM990 1042q91 0 130 -56t0 -210l-147 -575h6q102 49 180 151l51 -37q-55 -129 -191 -241t-261 -111q-78 1 -115 63t-2 191l139 520q20 74 -16 74q-59 0 -227 -280t-218 -457l-16 -60l-274 -51l-58 35l330 1296l-151 58
l12 55l526 121l-242 -963h17q203 351 361 437q74 40 166 40z" />
    <glyph glyph-name="Hbar" unicode="&#x126;" horiz-adv-x="1669" 
d="M618 754h521l35 180h-521zM92 934l27 129h196l31 156l-153 28l22 113h672l-21 -113l-155 -28l-31 -156h520l31 156l-144 28l21 113h674l-21 -113l-166 -28l-30 -156h198l-26 -129h-199l-156 -795l164 -26l-22 -113h-697l21 113l170 26l92 471h-520l-92 -471l157 -26
l-22 -113h-694l20 113l174 26l156 795h-197z" />
    <glyph glyph-name="hbar" unicode="&#x127;" horiz-adv-x="1243" 
d="M990 1042q91 0 130 -56t0 -210l-147 -575h6q102 49 180 151l51 -37q-55 -129 -191 -241t-261 -111q-78 1 -115 63t-2 191l139 520q20 74 -16 74q-59 0 -227 -280t-218 -457l-16 -60l-274 -51l-58 35l289 1137h-158l23 98h162l20 82l-157 37l12 55l526 121l-74 -295h369
l-22 -98h-371l-144 -570h17q203 351 361 437q74 40 166 40z" />
    <glyph glyph-name="Itilde" unicode="&#x128;" horiz-adv-x="784" 
d="M596 1546l-55 19q-156 51 -210 8q-26 -20 -65 -80l-73 41l10 27q84 233 234 229q71 -2 159 -29l55 -18q158 -47 199 -36t108 103l76 -38l-14 -31q-76 -176 -174 -215t-250 20zM-61 0l22 113l172 26l213 1080l-153 28l22 113h682l-23 -113l-163 -28l-213 -1080l161 -26
l-20 -113h-700z" />
    <glyph glyph-name="itilde" unicode="&#x129;" horiz-adv-x="663" 
d="M598 1202q-70 0 -180 37q-109 37 -160 30t-98 -89l-76 41l14 26q94 176 184 216t218 -7q150 -50 199 -43q49 6 110 100l80 -43l-21 -34q-74 -126 -137 -180t-133 -54zM178 -37q-78 -1 -114 61t-3 193l152 606l-158 39l13 53q90 55 188 93q98 39 166 39q176 0 117 -252
l-146 -594h6q102 49 181 151l51 -37q-55 -129 -191 -241t-262 -111z" />
    <glyph glyph-name="Imacron" unicode="&#x12a;" horiz-adv-x="784" 
d="M297 1556l35 164h594l-35 -164h-594zM-61 0l22 113l172 26l213 1080l-153 28l22 113h682l-23 -113l-163 -28l-213 -1080l161 -26l-20 -113h-700z" />
    <glyph glyph-name="imacron" unicode="&#x12b;" horiz-adv-x="663" 
d="M178 -37q-78 -1 -114 61t-3 193l152 606l-158 39l13 53q90 55 188 93q98 39 166 39q176 0 117 -252l-146 -594h6q102 49 181 151l51 -37q-55 -129 -191 -241t-262 -111zM135 1229l35 164h553l-35 -164h-553z" />
    <glyph glyph-name="Ibreve" unicode="&#x12c;" horiz-adv-x="784" 
d="M576 1483q-150 0 -214 94q-63 94 -51 221h111q32 -129 184 -129t223 129h107q-31 -133 -120 -224q-90 -91 -240 -91zM-61 0l22 113l172 26l213 1080l-153 28l22 113h682l-23 -113l-163 -28l-213 -1080l161 -26l-20 -113h-700z" />
    <glyph glyph-name="ibreve" unicode="&#x12d;" horiz-adv-x="663" 
d="M449 1190q-133 0 -193 95q-59 95 -49 239h121q27 -139 147 -140q59 0 100 36t80 104h119q-87 -334 -325 -334zM178 -37q-78 -1 -114 61t-3 193l152 606l-158 39l13 53q90 55 188 93q98 39 166 39q176 0 117 -252l-146 -594h6q102 49 181 151l51 -37q-55 -129 -191 -241
t-262 -111z" />
    <glyph glyph-name="Iogonek" unicode="&#x12e;" horiz-adv-x="784" 
d="M172 -251q0 -50 35 -77q35 -26 83 -26t90 22t99 74l47 -51q-43 -63 -62 -89q-110 -151 -260 -152q-118 -1 -186 58q-68 60 -68 140t40 140q39 60 84 98t94 73t57 41h-286l22 113l172 26l213 1080l-153 28l22 113h682l-23 -113l-163 -28l-213 -1080l161 -26l-20 -113h-274
q-109 -98 -151 -150t-42 -101z" />
    <glyph glyph-name="iogonek" unicode="&#x12f;" horiz-adv-x="663" 
d="M311 1360q-1 78 55 132t132 54t131 -54t55 -132t-55 -132t-131 -54t-132 54t-55 132zM139 -273q0 -38 23 -64t65 -25q94 0 201 110l53 -41q-53 -102 -145 -181t-196 -79t-166 53q-60 52 -60 134t62 154t233 167v10q-10 -2 -31 -2q-78 -1 -114 61t-3 193l152 606l-158 39
l13 53q90 55 188 93q98 39 166 39q176 0 117 -252l-146 -594h6q102 49 181 151l51 -37q-51 -111 -166 -219l-129 -123q-121 -115 -159 -161t-38 -85z" />
    <glyph glyph-name="Idotaccent" unicode="&#x130;" horiz-adv-x="784" 
d="M434 1696q0 78 55 132t131 54t132 -54q55 -54 55 -132t-55 -132t-131 -54q-75 0 -131 54t-56 132zM-61 0l22 113l172 26l213 1080l-153 28l22 113h682l-23 -113l-163 -28l-213 -1080l161 -26l-20 -113h-700z" />
    <glyph glyph-name="dotlessi" unicode="&#x131;" horiz-adv-x="663" 
d="M178 -37q-78 -1 -114 61t-3 193l152 606l-158 39l13 53q90 55 188 93q98 39 166 39q176 0 117 -252l-146 -594h6q102 49 181 151l51 -37q-55 -129 -191 -241t-262 -111z" />
    <glyph glyph-name="IJ" unicode="&#x132;" horiz-adv-x="1556" 
d="M1479 1219l-195 -996q-60 -301 -244 -487t-436 -187l-8 107q154 39 221 191q35 79 53 146t41 181l205 1045l-158 28l21 113h690l-22 -113zM-61 0l22 113l172 26l213 1080l-153 28l22 113h682l-23 -113l-163 -28l-213 -1080l161 -26l-20 -113h-700z" />
    <glyph glyph-name="ij" unicode="&#x133;" horiz-adv-x="1294" 
d="M991 1360q-1 78 55 132t132 54t131 -54t55 -132t-55 -132t-131 -54t-132 54t-55 132zM1109 1047q75 1 109 -61t1 -191l-142 -570q-80 -329 -266 -543t-389 -214q-98 0 -169 52t-71 124q0 135 207 184q8 -100 39 -160t80 -59t95 121t99 333l191 760l-158 39l13 53
q217 132 361 132zM311 1360q-1 78 55 132t132 54t131 -54t55 -132t-55 -132t-131 -54t-132 54t-55 132zM422 1047q176 0 117 -252l-146 -594h6q102 49 181 151l51 -37q-55 -129 -191 -241t-262 -111q-78 -1 -114 61t-3 193l152 606l-158 39l13 53q90 55 188 93q98 39 166 39
z" />
    <glyph glyph-name="Jcircumflex" unicode="&#x134;" horiz-adv-x="792" 
d="M416 1507h-160l272 285h220l153 -285h-141l-150 119zM715 1219l-195 -996q-60 -301 -244 -487t-436 -187l-8 107q154 39 221 191q35 79 53 146t41 181l205 1045l-157 28l20 113h690l-22 -113z" />
    <glyph glyph-name="jcircumflex" unicode="&#x135;" horiz-adv-x="671" 
d="M354 1210h-137l268 400h203l121 -400h-125l-139 181zM486 1047q75 1 109 -61t1 -191l-141 -570q-81 -329 -267 -543t-389 -214q-98 0 -169 52t-70 138q0 59 58 104t149 66q8 -100 38 -160q31 -59 80 -59q49 1 95 121t100 333l190 760l-157 39l12 53q217 132 361 132z" />
    <glyph glyph-name="Kcommaaccent" unicode="&#x136;" horiz-adv-x="1554" 
d="M612 -344q0 74 -102 94q45 141 188 141q76 0 126 -43t50 -114q0 -102 -122 -187q-123 -84 -330 -137l-29 76q125 43 172 82t47 88zM1310 -41q-117 1 -164 15q-111 34 -146 70q-97 98 -131 162q-128 242 -242 507l4 28l176 52l448 413l-141 43l23 111h489l-22 -107
l-174 -47l-443 -397q242 -529 298 -619t128 -122q15 -7 35 -15l-21 -94h-117zM-61 0l22 113l172 26l213 1080l-153 28l22 113h676l-21 -113l-161 -28l-213 -1080l127 -26l-23 -113h-661z" />
    <glyph glyph-name="kcommaaccent" unicode="&#x137;" horiz-adv-x="1134" 
d="M451 -109q76 0 126 -43t50 -114q0 -102 -123 -186t-330 -138l-29 76q125 43 172 82t48 88q0 74 -103 94q45 141 189 141zM782 811q-70 0 -173 -128t-189 -304q204 76 314 174t110 188q-1 70 -62 70zM912 -80q-106 0 -216 77q-109 77 -188 204l-100 153q-74 -166 -99 -278
l-14 -62l-266 -51l-58 35l330 1296l-151 58l12 55l526 121l-235 -903h10q242 418 465 417q90 0 142 -54t52 -136q0 -129 -92 -231t-321 -199l362 -445v-32q-53 -25 -159 -25z" />
    <glyph glyph-name="kgreenlandic" unicode="&#x138;" horiz-adv-x="1198" 
d="M815 811q-70 0 -172 -127t-190 -305q205 76 315 174t109 188q-1 70 -62 70zM961 1042q90 0 142 -54t52 -136q0 -129 -92 -231t-322 -199l363 -445v-32q-54 -25 -160 -25t-215 77t-188 204l-99 153q-74 -152 -102 -280l-16 -62l-267 -49l-57 35l215 825l-154 37l11 55
q75 52 166 91q92 39 153 38q209 0 119 -290l-92 -271h14q254 559 529 559z" />
    <glyph glyph-name="Lacute" unicode="&#x139;" horiz-adv-x="1251" 
d="M946 1792v-45l-293 -240h-170l170 285h293zM498 139h362l215 355h105l-117 -494h-1124l20 113l174 26l211 1080l-151 28l20 113h690l-22 -113l-170 -28z" />
    <glyph glyph-name="lacute" unicode="&#x13a;" horiz-adv-x="645" 
d="M897 1864v-45l-293 -240h-170l170 285h293zM160 -37q-78 -1 -114 61t-3 193l266 1077l-151 58l12 55l532 121l-327 -1327h6q102 49 180 151l51 -37q-55 -129 -191 -241t-261 -111z" />
    <glyph glyph-name="Lcommaaccent" unicode="&#x13b;" horiz-adv-x="1251" 
d="M418 -344q0 74 -103 94q45 141 189 141q76 0 126 -43t50 -114q0 -102 -123 -186t-330 -138l-28 76q125 43 172 82t47 88zM498 139h362l215 355h105l-117 -494h-1124l20 113l174 26l211 1080l-151 28l20 113h690l-22 -113l-170 -28z" />
    <glyph glyph-name="lcommaaccent" unicode="&#x13c;" horiz-adv-x="645" 
d="M88 -344q0 74 -102 94q45 141 188 141q76 0 126 -43t50 -114q0 -102 -122 -186t-330 -138l-29 76q125 43 172 82t47 88zM160 -37q-78 -1 -114 61t-3 193l266 1077l-151 58l12 55l532 121l-327 -1327h6q102 49 180 151l51 -37q-55 -129 -191 -241t-261 -111z" />
    <glyph glyph-name="Lcaron" unicode="&#x13d;" horiz-adv-x="1251" 
d="M1333 1407v-64l-276 -368h-86l125 432h237zM498 139h362l215 355h105l-117 -494h-1124l20 113l174 26l211 1080l-151 28l20 113h690l-22 -113l-170 -28z" />
    <glyph glyph-name="lcaron" unicode="&#x13e;" horiz-adv-x="645" 
d="M1096 1528v-64l-277 -368h-86l125 432h238zM160 -37q-78 -1 -114 61t-3 193l266 1077l-151 58l12 55l532 121l-327 -1327h6q102 49 180 151l51 -37q-55 -129 -191 -241t-261 -111z" />
    <glyph glyph-name="Ldot" unicode="&#x13f;" horiz-adv-x="1251" 
d="M498 139h362l215 355h105l-117 -494h-1124l20 113l174 26l211 1080l-151 28l20 113h690l-22 -113l-170 -28zM1088 623q-70 0 -122 51t-52 122t50 123q52 52 124 52t123 -52q53 -52 53 -123t-52 -122t-124 -51z" />
    <glyph glyph-name="ldot" unicode="&#x140;" horiz-adv-x="937" 
d="M160 -37q-78 -1 -114 61t-3 193l266 1077l-151 58l12 55l532 121l-327 -1327h6q102 49 180 151l51 -37q-55 -129 -191 -241t-261 -111zM824 602q-71 0 -123 51t-52 122t51 123t123 52t124 -52t52 -123t-52 -122t-123 -51z" />
    <glyph glyph-name="Lslash" unicode="&#x141;" horiz-adv-x="1251" 
d="M31 496l24 118l181 48l108 557l-151 28l20 113h690l-22 -113l-170 -28l-90 -453l415 111l-24 -119l-414 -111l-100 -508h362l215 355h105l-117 -494h-1124l20 113l174 26l78 404z" />
    <glyph glyph-name="lslash" unicode="&#x142;" horiz-adv-x="645" 
d="M160 -37q-78 -1 -114 61t-3 193l102 418l-178 -88l29 129l182 90l131 528l-151 58l12 55l532 121l-141 -574l191 95l-29 -129l-195 -97l-153 -622h6q102 49 180 151l51 -37q-55 -129 -191 -241t-261 -111z" />
    <glyph glyph-name="Nacute" unicode="&#x143;" horiz-adv-x="1611" 
d="M1393 1792v-45l-293 -240h-170l170 285h293zM1303 -27h-279l-539 1090l-172 -899l254 -58l-20 -106h-596l22 113l174 39l207 1034l-159 63l20 111h530l480 -991l147 821l-237 63l18 107h571l-22 -113l-168 -45l-201 -1014z" />
    <glyph glyph-name="nacute" unicode="&#x144;" horiz-adv-x="1282" 
d="M1081 1579v-37l-266 -362h-131l125 399h272zM797 -37q-78 1 -115 63t-2 191l139 520q20 74 -16 74q-63 0 -229 -273t-218 -466l-16 -60l-283 -49l-57 35l215 825l-156 39l13 53q223 131 366 132q176 0 90 -269l-79 -243h18q295 508 549 507q104 0 143 -56t0 -210
l-147 -575h6q102 49 180 151l51 -37q-55 -129 -191 -241t-261 -111z" />
    <glyph glyph-name="Ncommaaccent" unicode="&#x145;" horiz-adv-x="1611" 
d="M629 -344q0 74 -103 94q45 141 189 141q76 0 126 -43t50 -114q0 -102 -123 -186t-330 -138l-28 76q125 43 172 82t47 88zM1303 -27h-279l-539 1090l-172 -899l254 -58l-20 -106h-596l22 113l174 39l207 1034l-159 63l20 111h530l480 -991l147 821l-237 63l18 107h571
l-22 -113l-168 -45l-201 -1014z" />
    <glyph glyph-name="ncommaaccent" unicode="&#x146;" horiz-adv-x="1282" 
d="M422 -344q0 74 -103 94q45 141 189 141q76 0 126 -43t50 -114q0 -102 -123 -186t-330 -138l-28 76q125 43 172 82t47 88zM797 -37q-78 1 -115 63t-2 191l139 520q20 74 -16 74q-63 0 -229 -273t-218 -466l-16 -60l-283 -49l-57 35l215 825l-156 39l13 53q223 131 366 132
q176 0 90 -269l-79 -243h18q295 508 549 507q104 0 143 -56t0 -210l-147 -575h6q102 49 180 151l51 -37q-55 -129 -191 -241t-261 -111z" />
    <glyph glyph-name="Ncaron" unicode="&#x147;" horiz-adv-x="1611" 
d="M1223 1792h159l-272 -285h-219l-154 285h142l149 -121zM1303 -27h-279l-539 1090l-172 -899l254 -58l-20 -106h-596l22 113l174 39l207 1034l-159 63l20 111h530l480 -991l147 821l-237 63l18 107h571l-22 -113l-168 -45l-201 -1014z" />
    <glyph glyph-name="ncaron" unicode="&#x148;" horiz-adv-x="1282" 
d="M991 1579h137l-268 -399h-203l-120 399h125l137 -182zM797 -37q-78 1 -115 63t-2 191l139 520q20 74 -16 74q-63 0 -229 -273t-218 -466l-16 -60l-283 -49l-57 35l215 825l-156 39l13 53q223 131 366 132q176 0 90 -269l-79 -243h18q295 508 549 507q104 0 143 -56
t0 -210l-147 -575h6q102 49 180 151l51 -37q-55 -129 -191 -241t-261 -111z" />
    <glyph glyph-name="napostrophe" unicode="&#x149;" horiz-adv-x="1282" 
d="M227 1341q0 74 -102 95q45 141 188 141q76 0 126 -43t50 -115q-1 -102 -123 -186t-329 -137l-29 75q125 43 172 82t47 88zM797 -37q-78 1 -115 63t-2 191l139 520q20 74 -16 74q-63 0 -229 -273t-218 -466l-16 -60l-283 -49l-57 35l215 825l-156 39l13 53
q223 131 366 132q176 0 90 -269l-79 -243h18q295 508 549 507q104 0 143 -56t0 -210l-147 -575h6q102 49 180 151l51 -37q-55 -129 -191 -241t-261 -111z" />
    <glyph glyph-name="Eng" unicode="&#x14a;" horiz-adv-x="1611" 
d="M1534 1202l-195 -979q-61 -301 -245 -487t-437 -187l-8 107q256 53 352 362l-516 1045l-172 -899l254 -58l-20 -106h-596l22 113l174 39l207 1034l-159 63l20 111h530l480 -991l147 821l-237 63l18 107h571l-22 -113z" />
    <glyph glyph-name="eng" unicode="&#x14b;" horiz-adv-x="1218" 
d="M803 811q-63 0 -231 -275t-216 -464l-16 -60l-283 -49l-57 35l215 825l-156 39l13 53q223 131 366 132q176 0 90 -269l-79 -243h18q295 508 549 507q104 0 143 -56t0 -210l-147 -575q-76 -315 -264 -525t-392 -208q-98 0 -169 52t-70 138q0 59 58 104t149 66
q8 -100 38 -160q31 -59 80 -59q48 -1 94 113t97 311l186 704q20 74 -16 74z" />
    <glyph glyph-name="Omacron" unicode="&#x14c;" horiz-adv-x="1589" 
d="M715 1556l35 164h593l-34 -164h-594zM1143 930q0 354 -205 354q-113 0 -216 -120q-104 -120 -166 -314t-62 -404q0 -369 215 -368q125 0 228 147t155 341q51 194 51 364zM938 1403q272 0 439 -167t167 -472q0 -140 -56 -282q-125 -316 -425 -450q-162 -73 -354 -73
q-285 0 -450 171t-165 470q0 152 63 296q132 307 439 438q160 69 342 69z" />
    <glyph glyph-name="omacron" unicode="&#x14d;" horiz-adv-x="1191" 
d="M463 1253l37 170h594l-37 -170h-594zM724 1042q194 0 305 -118q112 -118 112 -294q0 -178 -80 -325t-240 -245t-354 -97q-194 0 -305 117t-111 295t81 325q82 146 240 244t352 98zM408 231q0 -170 81 -170q72 0 143 127t111 293q41 167 41 267q0 196 -84 196
q-70 0 -140 -127t-112 -293q-40 -166 -40 -293z" />
    <glyph glyph-name="Obreve" unicode="&#x14e;" horiz-adv-x="1589" 
d="M994 1483q-150 0 -214 94q-63 94 -51 221h111q32 -129 184 -129t223 129h107q-30 -133 -120 -224t-240 -91zM1143 930q0 354 -205 354q-113 0 -216 -120q-104 -120 -166 -314t-62 -404q0 -369 215 -368q125 0 228 147t155 341q51 194 51 364zM938 1403q272 0 439 -167
t167 -472q0 -140 -56 -282q-125 -316 -425 -450q-162 -73 -354 -73q-285 0 -450 171t-165 470q0 152 63 296q132 307 439 438q160 69 342 69z" />
    <glyph glyph-name="obreve" unicode="&#x14f;" horiz-adv-x="1191" 
d="M745 1159q-133 0 -192 95t-49 239h121q27 -139 147 -139q59 0 100 36t80 103h119q-88 -334 -326 -334zM724 1042q194 0 305 -118q112 -118 112 -294q0 -178 -80 -325t-240 -245t-354 -97q-194 0 -305 117t-111 295t81 325q82 146 240 244t352 98zM408 231q0 -170 81 -170
q72 0 143 127t111 293q41 167 41 267q0 196 -84 196q-70 0 -140 -127t-112 -293q-40 -166 -40 -293z" />
    <glyph glyph-name="Ohungarumlaut" unicode="&#x150;" horiz-adv-x="1589" 
d="M1151 1792v-39l-264 -246h-150l164 285h250zM1477 1792v-39l-265 -246h-149l164 285h250zM1143 930q0 354 -205 354q-113 0 -216 -120q-104 -120 -166 -314t-62 -404q0 -369 215 -368q125 0 228 147t155 341q51 194 51 364zM938 1403q272 0 439 -167t167 -472
q0 -140 -56 -282q-125 -316 -425 -450q-162 -73 -354 -73q-285 0 -450 171t-165 470q0 152 63 296q132 307 439 438q160 69 342 69z" />
    <glyph glyph-name="ohungarumlaut" unicode="&#x151;" horiz-adv-x="1191" 
d="M1214 1579v-35l-247 -364h-111l125 399h233zM868 1579v-35l-247 -364h-111l125 399h233zM724 1042q194 0 305 -118q112 -118 112 -294q0 -178 -80 -325t-240 -245t-354 -97q-194 0 -305 117t-111 295t81 325q82 146 240 244t352 98zM408 231q0 -170 81 -170q72 0 143 127
t111 293q41 167 41 267q0 196 -84 196q-70 0 -140 -127t-112 -293q-40 -166 -40 -293z" />
    <glyph glyph-name="OE" unicode="&#x152;" horiz-adv-x="2160" 
d="M950 1268q-106 0 -200 -80t-150 -205q-118 -262 -119 -528q0 -358 221 -359q117 0 195 88t107 234l153 780q-100 70 -207 70zM1415 0q-256 0 -444 -9t-262 -9q-305 0 -460 175t-155 445q0 332 250 555t621 223q25 0 174 -10t594 -10h239l199 14l-115 -403h-100l-35 264
h-416l-94 -481h201l98 174h105l-89 -461h-110l-27 162h-203l-98 -490h453l221 303h102l-135 -442h-514z" />
    <glyph glyph-name="oe" unicode="&#x153;" horiz-adv-x="1726" 
d="M1407 922q-88 0 -182 -119t-127 -281q135 40 250 144t114 194q0 62 -55 62zM700 944q-70 0 -140 -125t-113 -291q-42 -166 -41 -297q0 -170 83 -170q72 0 143 125t112 291q42 166 42 297q0 170 -86 170zM1079 -37q-170 0 -239 158q-172 -158 -370 -158t-308 117
q-111 117 -111 309q-1 252 189 453t475 200q127 0 210 -63t122 -170q233 233 463 233t231 -182q1 -84 -63 -160q-106 -127 -376 -216q-110 -36 -219 -54v-43q1 -98 51 -150q107 -111 274 4q83 56 142 124l52 -48q-70 -123 -212 -239t-311 -115z" />
    <glyph glyph-name="Racute" unicode="&#x154;" horiz-adv-x="1507" 
d="M1206 1792v-45l-293 -240h-170l170 285h293zM721 1260l-113 -570q203 2 311 87t107 235q0 248 -305 248zM1389 1016q0 -238 -357 -359v-4q180 -395 234 -481t149 -125l-14 -88q-260 0 -333 34q-30 13 -75 47t-72 74q-83 119 -135 230q-51 111 -106 231h-94l-86 -436
l168 -26l-25 -113h-704l24 113l172 26l215 1082l-157 26l24 113l594 4q270 2 424 -89t154 -259z" />
    <glyph glyph-name="racute" unicode="&#x155;" horiz-adv-x="1036" 
d="M967 1579v-37l-267 -362h-131l125 399h273zM1057 878q0 -78 -50 -150q-50 -71 -110 -99h-102q31 53 32 108q2 55 -32 80q-105 -95 -241 -361t-181 -444l-281 -49l-57 35l61 242q73 286 119 514l14 69l-153 37l10 55q75 52 166 91q92 39 154 38q205 0 110 -290l-115 -353
h31q133 309 186 400q139 244 289 243q68 0 109 -44t41 -122z" />
    <glyph glyph-name="Rcommaaccent" unicode="&#x156;" horiz-adv-x="1507" 
d="M639 -344q0 74 -102 94q45 141 188 141q76 0 126 -43t50 -114q-1 -102 -123 -186t-329 -138l-29 76q125 43 172 82t47 88zM721 1260l-113 -570q203 2 311 87t107 235q0 248 -305 248zM1389 1016q0 -238 -357 -359v-4q180 -395 234 -481t149 -125l-14 -88q-260 0 -333 34
q-30 13 -75 47t-72 74q-83 119 -135 230q-51 111 -106 231h-94l-86 -436l168 -26l-25 -113h-704l24 113l172 26l215 1082l-157 26l24 113l594 4q270 2 424 -89t154 -259z" />
    <glyph glyph-name="rcommaaccent" unicode="&#x157;" horiz-adv-x="1036" 
d="M90 -344q0 74 -102 94q45 141 188 141q76 0 126 -43t50 -114q0 -102 -122 -186t-330 -138l-29 76q125 43 172 82t47 88zM1057 878q0 -78 -50 -150q-50 -71 -110 -99h-102q31 53 32 108q2 55 -32 80q-105 -95 -241 -361t-181 -444l-281 -49l-57 35l61 242q73 286 119 514
l14 69l-153 37l10 55q75 52 166 91q92 39 154 38q205 0 110 -290l-115 -353h31q133 309 186 400q139 244 289 243q68 0 109 -44t41 -122z" />
    <glyph glyph-name="Rcaron" unicode="&#x158;" horiz-adv-x="1507" 
d="M1036 1792h160l-272 -285h-219l-154 285h141l150 -121zM721 1260l-113 -570q203 2 311 87t107 235q0 248 -305 248zM1389 1016q0 -238 -357 -359v-4q180 -395 234 -481t149 -125l-14 -88q-260 0 -333 34q-30 13 -75 47t-72 74q-83 119 -135 230q-51 111 -106 231h-94
l-86 -436l168 -26l-25 -113h-704l24 113l172 26l215 1082l-157 26l24 113l594 4q270 2 424 -89t154 -259z" />
    <glyph glyph-name="rcaron" unicode="&#x159;" horiz-adv-x="1036" 
d="M877 1579h137l-269 -399h-202l-121 399h125l137 -182zM1057 878q0 -78 -50 -150q-50 -71 -110 -99h-102q31 53 32 108q2 55 -32 80q-105 -95 -241 -361t-181 -444l-281 -49l-57 35l61 242q73 286 119 514l14 69l-153 37l10 55q75 52 166 91q92 39 154 38q205 0 110 -290
l-115 -353h31q133 309 186 400q139 244 289 243q68 0 109 -44t41 -122z" />
    <glyph glyph-name="Sacute" unicode="&#x15a;" horiz-adv-x="1214" 
d="M1180 1792v-45l-293 -240h-170l170 285h293zM225 928q0 184 168 328t451 145q116 0 224 -35t126 -39l-90 -399h-113l-30 286q-91 62 -191 62t-166 -51t-66 -127t39 -118q38 -42 132 -97l149 -88q121 -72 180 -150q60 -77 60 -197t-62 -218q-106 -168 -362 -241
q-104 -30 -220 -30q-147 0 -327 68l-61 22l61 430h113l59 -327q115 -64 221 -64t169 57t63 135t-46 128q-46 51 -143 106l-121 70q-121 68 -169 144t-48 200z" />
    <glyph glyph-name="sacute" unicode="&#x15b;" horiz-adv-x="854" 
d="M926 1579v-37l-267 -362h-131l125 399h273zM762 360q0 -106 -84 -201t-204 -149t-226 -53q-106 0 -194 67q-87 66 -87 160t90 215h15q190 -293 354 -293q90 0 90 76q0 66 -131 156l-98 70q-158 104 -158 235q0 103 90 201t211 152q234 104 365 2q67 -52 67 -143t-76 -202
h-14q-70 76 -106 112q-38 36 -98 71q-60 34 -107 34q-88 -1 -88 -63q1 -33 23 -57t89 -72l117 -82q96 -68 128 -122t32 -114z" />
    <glyph glyph-name="Scircumflex" unicode="&#x15c;" horiz-adv-x="1214" 
d="M649 1507h-160l273 285h219l154 -285h-142l-149 119zM225 928q0 184 168 328t451 145q116 0 224 -35t126 -39l-90 -399h-113l-30 286q-91 62 -191 62t-166 -51t-66 -127t39 -118q38 -42 132 -97l149 -88q121 -72 180 -150q60 -77 60 -197t-62 -218q-106 -168 -362 -241
q-104 -30 -220 -30q-147 0 -327 68l-61 22l61 430h113l59 -327q115 -64 221 -64t169 57t63 135t-46 128q-46 51 -143 106l-121 70q-121 68 -169 144t-48 200z" />
    <glyph glyph-name="scircumflex" unicode="&#x15d;" horiz-adv-x="854" 
d="M446 1180h-137l269 399h202l121 -399h-125l-139 180zM762 360q0 -106 -84 -201t-204 -149t-226 -53q-106 0 -194 67q-87 66 -87 160t90 215h15q190 -293 354 -293q90 0 90 76q0 66 -131 156l-98 70q-158 104 -158 235q0 103 90 201t211 152q234 104 365 2q67 -52 67 -143
t-76 -202h-14q-70 76 -106 112q-38 36 -98 71q-60 34 -107 34q-88 -1 -88 -63q1 -33 23 -57t89 -72l117 -82q96 -68 128 -122t32 -114z" />
    <glyph glyph-name="Scedilla" unicode="&#x15e;" horiz-adv-x="1214" 
d="M336 -315q0 57 -60 106l134 170q-109 8 -174 28q-66 21 -117 41t-53 19l61 430h113l59 -327q115 -64 221 -64t169 57t63 135t-46 128q-46 51 -143 106l-121 70q-121 68 -169 144t-48 200q0 184 168 328t451 145q116 0 224 -35t126 -39l-90 -399h-113l-30 286
q-91 62 -191 62t-166 -51t-66 -127t39 -118q38 -42 132 -97l149 -88q121 -72 180 -150q60 -77 60 -193t-56 -209t-143 -151q-176 -115 -379 -131l-53 -86q129 -35 129 -149q0 -225 -444 -299l-17 84q201 66 201 174z" />
    <glyph glyph-name="scedilla" unicode="&#x15f;" horiz-adv-x="854" 
d="M115 -315q0 57 -60 106l133 172q-88 15 -154 77t-67 150q0 88 90 209h15q190 -293 354 -293q90 0 90 76q0 66 -131 156l-98 70q-158 104 -158 235q0 103 90 201t211 152q234 104 365 2q67 -52 67 -143t-76 -202h-14q-70 76 -106 112q-38 36 -98 71q-60 34 -107 34
q-88 -1 -88 -63q1 -33 23 -57t89 -72l117 -82q96 -68 128 -121t32 -115q0 -145 -146 -262t-317 -137l-53 -86q129 -35 129 -149q-1 -225 -445 -299l-16 84q201 66 201 174z" />
    <glyph glyph-name="Scaron" unicode="&#x160;" horiz-adv-x="1214" 
d="M1012 1792h159l-272 -285h-219l-154 285h142l149 -121zM225 928q0 184 168 328t451 145q116 0 224 -35t126 -39l-90 -399h-113l-30 286q-91 62 -191 62t-166 -51t-66 -127t39 -118q38 -42 132 -97l149 -88q121 -72 180 -150q60 -77 60 -197t-62 -218q-106 -168 -362 -241
q-104 -30 -220 -30q-147 0 -327 68l-61 22l61 430h113l59 -327q115 -64 221 -64t169 57t63 135t-46 128q-46 51 -143 106l-121 70q-121 68 -169 144t-48 200z" />
    <glyph glyph-name="scaron" unicode="&#x161;" horiz-adv-x="854" 
d="M834 1579h137l-269 -399h-202l-121 399h125l137 -182zM762 360q0 -106 -84 -201t-204 -149t-226 -53q-106 0 -194 67q-87 66 -87 160t90 215h15q190 -293 354 -293q90 0 90 76q0 66 -131 156l-98 70q-158 104 -158 235q0 103 90 201t211 152q234 104 365 2
q67 -52 67 -143t-76 -202h-14q-70 76 -106 112q-38 36 -98 71q-60 34 -107 34q-88 -1 -88 -63q1 -33 23 -57t89 -72l117 -82q96 -68 128 -122t32 -114z" />
    <glyph glyph-name="Tcommaaccent" unicode="&#x162;" horiz-adv-x="1482" 
d="M545 -344q0 74 -103 94q45 141 189 141q76 0 126 -43t50 -114q0 -102 -123 -186t-330 -138l-28 76q125 43 172 82t47 88zM455 1360h895l200 14l-90 -424h-102l-43 285h-254l-217 -1094l196 -28l-20 -113h-768l22 113l209 26l215 1096h-254l-153 -285h-103l78 424z" />
    <glyph glyph-name="tcommaaccent" unicode="&#x163;" horiz-adv-x="847" 
d="M238 -109q76 0 126 -43t50 -114q0 -102 -123 -186t-330 -138l-29 76q125 43 172 82t48 88q0 74 -103 94q45 141 189 141zM231 -37q-77 0 -121 67t-20 165l170 684h-168l23 133h194l115 241h238l-48 -241h248l-22 -133h-244l-164 -662l6 -4q158 66 293 262l51 -37
q-111 -232 -326 -390q-118 -85 -225 -85z" />
    <glyph glyph-name="Tcaron" unicode="&#x164;" horiz-adv-x="1482" 
d="M1139 1792h159l-272 -285h-219l-154 285h142l149 -121zM455 1360h895l200 14l-90 -424h-102l-43 285h-254l-217 -1094l196 -28l-20 -113h-768l22 113l209 26l215 1096h-254l-153 -285h-103l78 424z" />
    <glyph glyph-name="tcaron" unicode="&#x165;" horiz-adv-x="847" 
d="M1145 1530v-53l-264 -314h-82l121 367h225zM231 -37q-77 0 -121 67t-20 165l170 684h-168l23 133h194l115 241h238l-48 -241h248l-22 -133h-244l-164 -662l6 -4q158 66 293 262l51 -37q-111 -232 -326 -390q-118 -85 -225 -85z" />
    <glyph glyph-name="Tbar" unicode="&#x166;" horiz-adv-x="1482" 
d="M455 1360h895l200 14l-90 -424h-102l-43 285h-254l-88 -442h268l-24 -125h-269l-104 -527l196 -28l-20 -113h-768l22 113l209 26l103 529h-271l25 125h270l88 442h-254l-153 -285h-103l78 424z" />
    <glyph glyph-name="tbar" unicode="&#x167;" horiz-adv-x="847" 
d="M231 -37q-77 0 -121 67t-20 165l98 397h-149l27 133h155l39 154h-168l23 133h194l115 241h238l-48 -241h248l-22 -133h-244l-39 -154h252l-25 -133h-260l-92 -375l6 -4q158 66 293 262l51 -37q-111 -232 -326 -390q-118 -85 -225 -85z" />
    <glyph glyph-name="Utilde" unicode="&#x168;" horiz-adv-x="1556" 
d="M1001 1546l-55 19q-154 51 -210 8q-26 -20 -64 -80l-74 41l10 27q84 233 235 229q71 -2 158 -29l56 -18q159 -47 199 -36t108 103l76 -38l-15 -31q-76 -176 -174 -215t-250 20zM715 -43q-614 0 -498 612l129 650l-153 28l22 113h674l-21 -113l-155 -28l-138 -699
q-35 -178 25 -277t217 -100q319 0 397 420l119 641l-248 49l21 107h563l-20 -113l-166 -43l-117 -588q-62 -317 -214 -488t-437 -171z" />
    <glyph glyph-name="utilde" unicode="&#x169;" horiz-adv-x="1257" 
d="M904 1194q-69 0 -159 29l-55 16q-119 41 -170 34t-98 -89l-76 41l14 26q94 176 184 216t218 -7l55 -16q129 -47 182 -40t115 101l80 -43l-20 -35q-74 -125 -138 -179t-132 -54zM388 1049q112 1 146 -61t-6 -236l-129 -478q-20 -74 9 -73q27 0 122 131q96 131 197 318
q100 187 125 315l6 30l275 52l57 -35l-203 -811h6q102 49 181 151l51 -37q-55 -129 -191 -241t-262 -111q-86 -1 -117 59t13 209l96 287h-14q-18 -30 -60 -98t-76 -119q-95 -146 -184 -228q-113 -106 -235 -106q-88 0 -126 67t-6 199l150 592l-156 39l13 54q205 131 318 131
z" />
    <glyph glyph-name="Umacron" unicode="&#x16a;" horiz-adv-x="1556" 
d="M702 1556l35 164h594l-35 -164h-594zM715 -43q-614 0 -498 612l129 650l-153 28l22 113h674l-21 -113l-155 -28l-138 -699q-35 -178 25 -277t217 -100q319 0 397 420l119 641l-248 49l21 107h563l-20 -113l-166 -43l-117 -588q-62 -317 -214 -488t-437 -171z" />
    <glyph glyph-name="umacron" unicode="&#x16b;" horiz-adv-x="1257" 
d="M455 1253l37 170h593l-36 -170h-594zM388 1049q112 1 146 -61t-6 -236l-129 -478q-20 -74 9 -73q27 0 122 131q96 131 197 318q100 187 125 315l6 30l275 52l57 -35l-203 -811h6q102 49 181 151l51 -37q-55 -129 -191 -241t-262 -111q-86 -1 -117 59t13 209l96 287h-14
q-18 -30 -60 -98t-76 -119q-95 -146 -184 -228q-113 -106 -235 -106q-88 0 -126 67t-6 199l150 592l-156 39l13 54q205 131 318 131z" />
    <glyph glyph-name="Ubreve" unicode="&#x16c;" horiz-adv-x="1556" 
d="M982 1483q-150 0 -214 94q-63 94 -51 221h110q31 -129 184 -129t224 129h106q-31 -133 -120 -224t-239 -91zM715 -43q-614 0 -498 612l129 650l-153 28l22 113h674l-21 -113l-155 -28l-138 -699q-35 -178 25 -277t217 -100q319 0 397 420l119 641l-248 49l21 107h563
l-20 -113l-166 -43l-117 -588q-62 -317 -214 -488t-437 -171z" />
    <glyph glyph-name="ubreve" unicode="&#x16d;" horiz-adv-x="1257" 
d="M737 1159q-133 0 -192 95t-49 239h120q27 -139 148 -139q59 0 100 36t80 103h119q-88 -334 -326 -334zM388 1049q112 1 146 -61t-6 -236l-129 -478q-20 -74 9 -73q27 0 122 131q96 131 197 318q100 187 125 315l6 30l275 52l57 -35l-203 -811h6q102 49 181 151l51 -37
q-55 -129 -191 -241t-262 -111q-86 -1 -117 59t13 209l96 287h-14q-18 -30 -60 -98t-76 -119q-95 -146 -184 -228q-113 -106 -235 -106q-88 0 -126 67t-6 199l150 592l-156 39l13 54q205 131 318 131z" />
    <glyph glyph-name="Uring" unicode="&#x16e;" horiz-adv-x="1556" 
d="M899 1694q0 -56 37 -94t90 -38t90 38q37 36 37 94t-37 94q-37 37 -90 37t-90 -37t-37 -94zM778 1693q0 103 72 173t176 70t176 -70q72 -68 72 -171t-72 -173t-176 -70t-176 69t-72 172zM715 -43q-614 0 -498 612l129 650l-153 28l22 113h674l-21 -113l-155 -28l-138 -699
q-35 -178 25 -277t217 -100q319 0 397 420l119 641l-248 49l21 107h563l-20 -113l-166 -43l-117 -588q-62 -317 -214 -488t-437 -171z" />
    <glyph glyph-name="uring" unicode="&#x16f;" horiz-adv-x="1257" 
d="M655 1380q0 -55 36 -91t87 -36t87 36t36 91t-36 91t-87 36t-87 -36t-36 -91zM539 1379q0 99 69 167q70 68 171 68t170 -67t69 -166t-70 -167t-171 -68t-170 67q-68 67 -68 166zM388 1049q112 1 146 -61t-6 -236l-129 -478q-20 -74 9 -73q27 0 122 131q96 131 197 318
q100 187 125 315l6 30l275 52l57 -35l-203 -811h6q102 49 181 151l51 -37q-55 -129 -191 -241t-262 -111q-86 -1 -117 59t13 209l96 287h-14q-18 -30 -60 -98t-76 -119q-95 -146 -184 -228q-113 -106 -235 -106q-88 0 -126 67t-6 199l150 592l-156 39l13 54q205 131 318 131
z" />
    <glyph glyph-name="Uhungarumlaut" unicode="&#x170;" horiz-adv-x="1556" 
d="M1139 1792v-39l-265 -246h-149l164 285h250zM1464 1792v-39l-264 -246h-149l163 285h250zM715 -43q-614 0 -498 612l129 650l-153 28l22 113h674l-21 -113l-155 -28l-138 -699q-35 -178 25 -277t217 -100q319 0 397 420l119 641l-248 49l21 107h563l-20 -113l-166 -43
l-117 -588q-62 -317 -214 -488t-437 -171z" />
    <glyph glyph-name="uhungarumlaut" unicode="&#x171;" horiz-adv-x="1257" 
d="M1206 1579v-35l-248 -364h-110l125 399h233zM860 1579v-35l-248 -364h-110l125 399h233zM388 1049q112 1 146 -61t-6 -236l-129 -478q-20 -74 9 -73q27 0 122 131q96 131 197 318q100 187 125 315l6 30l275 52l57 -35l-203 -811h6q102 49 181 151l51 -37
q-55 -129 -191 -241t-262 -111q-86 -1 -117 59t13 209l96 287h-14q-18 -30 -60 -98t-76 -119q-95 -146 -184 -228q-113 -106 -235 -106q-88 0 -126 67t-6 199l150 592l-156 39l13 54q205 131 318 131z" />
    <glyph glyph-name="Uogonek" unicode="&#x172;" horiz-adv-x="1556" 
d="M1366 616q-57 -288 -185 -454t-362 -197q-86 -78 -117 -122q-30 -44 -30 -92t34 -77q34 -28 82 -28t92 22q42 22 99 74l47 -51q-43 -63 -62 -89q-110 -151 -261 -152q-117 -1 -185 58q-68 58 -68 148t50 155q49 65 170 148q-567 23 -453 610l129 650l-153 28l22 113h674
l-21 -113l-155 -28l-138 -699q-35 -178 25 -277t217 -100q319 0 397 420l119 641l-248 49l21 107h563l-20 -113l-166 -43z" />
    <glyph glyph-name="uogonek" unicode="&#x173;" horiz-adv-x="1257" 
d="M772 -37q-78 0 -110 66t6 202l96 287h-14q-18 -30 -60 -98t-76 -119q-95 -146 -184 -228q-113 -106 -235 -106q-88 0 -126 67t-6 199l150 592l-156 39l13 54q205 131 318 131q112 1 146 -61t-6 -236l-129 -478q-20 -74 9 -73q27 0 122 131q96 131 197 318
q100 187 125 315l6 30l275 52l57 -35l-203 -811h6q102 49 181 151l51 -37q-51 -111 -166 -219l-129 -123q-121 -115 -159 -161t-38 -85q0 -38 23 -64t65 -25q94 0 201 110l53 -41q-53 -102 -145 -181t-196 -79t-166 53q-60 52 -60 134t62 154t233 167v10q-10 -2 -31 -2z" />
    <glyph glyph-name="Wcircumflex" unicode="&#x174;" horiz-adv-x="2271" 
d="M1194 1507h-160l273 285h219l153 -285h-141l-149 119zM1317 -23l-123 848l-434 -848h-246l-178 1242l-146 26l21 115h680l-23 -115l-151 -26l104 -863l342 678l-26 187l-133 24l22 115h666l-23 -115l-153 -28l108 -871l410 846l-152 53l23 115h479l-21 -115l-159 -41
l-635 -1227h-252z" />
    <glyph glyph-name="wcircumflex" unicode="&#x175;" horiz-adv-x="1595" 
d="M735 1180h-137l268 399h203l121 -399h-125l-139 180zM1337 706q0 68 -34 101q-35 33 -86 33t-107 -19l14 76q137 139 295 139q80 0 130 -49t50 -113q0 -117 -72 -232q-72 -116 -159 -211q-86 -94 -174 -181t-113 -113l-172 -174h-35l-124 55l-7 340h-4l-393 -395h-27
l-126 41l-25 811q-31 23 -79 23t-93 -19l14 78q145 139 299 139q86 0 134 -51t46 -182l-4 -565h7q156 152 243 274l-8 303q-31 23 -78 23t-94 -19l14 78q145 139 299 139q80 0 130 -46t49 -183l-5 -578h9q104 115 151 174t91 147t44 156z" />
    <glyph glyph-name="Ycircumflex" unicode="&#x176;" horiz-adv-x="1413" 
d="M762 1507h-160l272 285h220l153 -285h-141l-150 119zM1376 1212l-458 -639l-84 -434l172 -26l-23 -113h-721l23 113l184 26l74 379l-228 709l-122 18l22 115h678l-21 -111l-174 -26l162 -539h4l367 528l-162 37l23 111h436l-23 -111z" />
    <glyph glyph-name="ycircumflex" unicode="&#x177;" horiz-adv-x="1099" 
d="M518 1180h-137l268 399h203l121 -399h-125l-139 180zM332 1036q137 0 220 -118t92 -372q9 -255 -83 -546h12q129 182 194 322t97 301q-20 188 -108 346q90 68 194 67q54 0 102 -40t48 -122q0 -168 -132 -420t-316 -474q-184 -223 -397 -384q-212 -161 -359 -161
q-113 0 -182 51q-68 51 -70 133t50 135t136 53t126 -55t69 -153h14q234 109 279 594q11 106 10 204q-10 406 -109 406q-45 1 -77 -69t-40 -195h-79q-4 176 65 325q35 76 98 124t146 48z" />
    <glyph glyph-name="Ydieresis" unicode="&#x178;" horiz-adv-x="1413" 
d="M1210 1470q-66 0 -112 48t-47 112q0 66 47 114q46 48 112 48t114 -48t48 -114t-48 -113t-114 -47zM700 1470q-66 0 -112 48t-47 112q0 66 47 114q46 48 112 48t113 -48t47 -114t-47 -113t-113 -47zM1376 1212l-458 -639l-84 -434l172 -26l-23 -113h-721l23 113l184 26
l74 379l-228 709l-122 18l22 115h678l-21 -111l-174 -26l162 -539h4l367 528l-162 37l23 111h436l-23 -111z" />
    <glyph glyph-name="Zacute" unicode="&#x179;" horiz-adv-x="1327" 
d="M1186 1792v-45l-293 -240h-170l170 285h293zM-31 0l23 127l887 1096h-418l-158 -308h-108l84 459l190 -14h930l-8 -39l-955 -1182h488l223 355h102l-139 -508l-205 14h-936z" />
    <glyph glyph-name="zacute" unicode="&#x17a;" horiz-adv-x="1134" 
d="M1032 1579v-37l-266 -362h-131l125 399h272zM616 -41q-59 0 -121 25t-186 92l-98 51l-145 -166l-97 94l719 609l-186 73q-115 45 -192 47t-81 -32q-10 -31 44 -68t165 -74q-76 -88 -127 -126t-106 -38t-94 37t-39 91t26 126t74 153q47 81 132 139q86 58 194 58t288 -89
l152 -78l139 166l99 -103l-719 -608l133 -55q163 -68 248 -18q44 28 76 76t65 130l70 -25q-70 -244 -168 -366t-265 -121z" />
    <glyph glyph-name="Zdotaccent" unicode="&#x17b;" horiz-adv-x="1327" 
d="M676 1696q0 78 55 132t131 54t131 -54t55 -132t-54 -132q-56 -54 -132 -54t-131 54t-55 132zM-31 0l23 127l887 1096h-418l-158 -308h-108l84 459l190 -14h930l-8 -39l-955 -1182h488l223 355h102l-139 -508l-205 14h-936z" />
    <glyph glyph-name="zdotaccent" unicode="&#x17c;" horiz-adv-x="1134" 
d="M557 1356q0 78 55 132t131 54t131 -54q56 -54 56 -132t-56 -132t-131 -54q-76 0 -131 54t-55 132zM616 -41q-59 0 -121 25t-186 92l-98 51l-145 -166l-97 94l719 609l-186 73q-115 45 -192 47t-81 -32q-10 -31 44 -68t165 -74q-76 -88 -127 -126t-106 -38t-94 37t-39 91
t26 126t74 153q47 81 132 139q86 58 194 58t288 -89l152 -78l139 166l99 -103l-719 -608l133 -55q163 -68 248 -18q44 28 76 76t65 130l70 -25q-70 -244 -168 -366t-265 -121z" />
    <glyph glyph-name="Zcaron" unicode="&#x17d;" horiz-adv-x="1327" 
d="M1063 1792h160l-273 -285h-219l-153 285h141l149 -121zM-31 0l23 127l887 1096h-418l-158 -308h-108l84 459l190 -14h930l-8 -39l-955 -1182h488l223 355h102l-139 -508l-205 14h-936z" />
    <glyph glyph-name="zcaron" unicode="&#x17e;" horiz-adv-x="1134" 
d="M940 1579h137l-268 -399h-203l-121 399h125l138 -182zM616 -41q-59 0 -121 25t-186 92l-98 51l-145 -166l-97 94l719 609l-186 73q-115 45 -192 47t-81 -32q-10 -31 44 -68t165 -74q-76 -88 -127 -126t-106 -38t-94 37t-39 91t26 126t74 153q47 81 132 139q86 58 194 58
t288 -89l152 -78l139 166l99 -103l-719 -608l133 -55q163 -68 248 -18q44 28 76 76t65 130l70 -25q-70 -244 -168 -366t-265 -121z" />
    <glyph glyph-name="florin" unicode="&#x192;" horiz-adv-x="1140" 
d="M1004 1245q178 0 178 -153q0 -68 -54 -127t-124 -82q-41 205 -119 204q-61 0 -94 -93t-66 -326h295l-23 -133h-290l-29 -199q-28 -196 -92 -354t-141 -251t-163 -155q-152 -110 -280 -108q-88 0 -142 50t-54 119t54 115t140 66q31 -109 46 -138q15 -28 30 -50t47 -21
q72 0 121 274l114 652h-227l23 133h233q41 141 126 258q138 191 355 283q82 36 136 36z" />
    <glyph glyph-name="Aringacute" unicode="&#x1fa;" horiz-adv-x="1615" 
d="M1427 2261v-45l-292 -240h-170l170 285h292zM895 1679q0 -57 37 -94t90 -37t90 37t37 94t-37 95t-90 36q-53 0 -90 -37t-37 -94zM774 1678q0 103 72 173t176 70t176 -69t72 -172t-72 -173q-72 -69 -176 -69t-176 68t-72 172zM831 1133l-315 -576h389l-71 576h-3zM-39 0
l21 106l137 44l700 1191l144 9l165 43l207 -1258l140 -24l-21 -111h-690l24 115l170 24l-32 260h-498l-127 -233l191 -51l-23 -115h-508z" />
    <glyph glyph-name="aringacute" unicode="&#x1fb;" horiz-adv-x="1241" 
d="M1235 1968v-45l-293 -240h-170l170 285h293zM700 1370q0 -55 36 -91t87 -36t87 36t36 91t-36 91t-87 36t-87 -36t-36 -91zM584 1369q0 99 69 167q70 68 171 68t170 -67t69 -166t-70 -167t-171 -68t-170 67q-68 67 -68 166zM393 205q74 1 193 153t174 330l51 164
q-43 63 -90 63q-66 1 -154 -109t-151 -262t-64 -265q0 -74 41 -74zM776 1020q55 0 119 -35l20 59h283l-227 -843h6q100 43 180 151l51 -37q-55 -127 -191 -235t-252 -107q-116 0 -141 103q-13 55 23 145l53 144h-16q-242 -403 -463 -404q-100 0 -155 58t-56 153
q0 156 73 312q143 306 432 462q136 74 261 74z" />
    <glyph glyph-name="AEacute" unicode="&#x1fc;" horiz-adv-x="2127" 
d="M1729 1792v-45l-293 -240h-170l170 285h293zM1116 1235h-45l-407 -526h348zM1548 584h-202l-91 -445h453l221 303h103l-136 -442h-1194l23 113l174 26l88 447h-414l-303 -420l201 -51l-25 -115h-548l22 106l143 44l811 1054l-215 43l23 113h1257l199 14l-115 -403h-100
l-35 264h-415l-103 -526h201l98 174h105l-88 -461h-111z" />
    <glyph glyph-name="aeacute" unicode="&#x1fd;" horiz-adv-x="1499" 
d="M1294 1579v-37l-266 -362h-131l125 399h272zM1180 922q-70 0 -153 -106t-124 -253q166 57 250 131t84 151t-57 77zM311 257q0 -56 38 -92t93 -36q86 0 131 98q-6 100 17 217l-133 -38q-80 -25 -113 -59t-33 -90zM845 -37q-177 0 -243 143q-195 -143 -321 -143
q-127 1 -199 61t-72 168t87 180q87 71 294 115l217 48l23 106q14 125 -22 193t-115 67q-47 0 -91 -33l-43 -221q-70 -16 -116 -16q-46 -1 -73 23q-26 24 -26 59q1 105 149 211t314 120q213 0 297 -157h8q68 75 169 115q100 40 200 40t166 -46t66 -133t-53 -153
q-124 -159 -576 -235q-6 -45 -6 -88q0 -203 149 -203q70 0 153 56t142 125l51 -48q-70 -123 -211 -239t-318 -115z" />
    <glyph glyph-name="Oslashacute" unicode="&#x1fe;" horiz-adv-x="1589" 
d="M1362 1792v-45l-293 -240h-170l170 285h293zM483 438v-63l633 782q-51 127 -171 127t-225 -122t-171 -320t-66 -404zM1151 940q0 33 -4 82l-637 -789q49 -156 199 -155q125 0 230 150t159 346t53 366zM933 1403q177 0 318 -80l127 158h140l-179 -221q205 -178 205 -496
q0 -140 -56 -282q-125 -316 -425 -450q-163 -73 -357 -73t-344 94l-124 -155h-140l181 221q-184 178 -185 481q0 152 63 296q131 306 439 438q160 68 337 69z" />
    <glyph glyph-name="oslashacute" unicode="&#x1ff;" horiz-adv-x="1191" 
d="M1069 1579v-37l-266 -362h-131l125 399h272zM700 944q-96 0 -189 -201t-116 -419l400 526q-25 94 -95 94zM483 61q102 0 199 205q96 205 117 428l-404 -532q18 -101 88 -101zM733 1042q92 0 174 -41l92 121h123l-133 -176q152 -125 152 -330q0 -164 -80 -311t-240 -245
t-360 -97q-92 0 -182 45l-82 -110h-123l125 163q-147 127 -148 328q0 164 81 311q81 146 240 244t361 98z" />
    <glyph glyph-name="Scommaaccent" unicode="&#x218;" horiz-adv-x="1214" 
d="M418 -344q0 74 -103 94q45 141 189 141q76 0 126 -43t50 -114q0 -102 -123 -186t-330 -138l-28 76q125 43 172 82t47 88zM225 928q0 184 168 328t451 145q116 0 224 -35t126 -39l-90 -399h-113l-30 286q-91 62 -191 62t-166 -51t-66 -127t39 -118q38 -42 132 -97l149 -88
q121 -72 180 -150q60 -77 60 -197t-62 -218q-106 -168 -362 -241q-104 -30 -220 -30q-147 0 -327 68l-61 22l61 430h113l59 -327q115 -64 221 -64t169 57t63 135t-46 128q-46 51 -143 106l-121 70q-121 68 -169 144t-48 200z" />
    <glyph glyph-name="scommaaccent" unicode="&#x219;" horiz-adv-x="854" 
d="M129 -344q0 74 -102 94q45 141 188 141q76 0 126 -43t50 -114q-1 -102 -123 -186t-329 -138l-29 76q125 43 172 82t47 88zM762 360q0 -106 -84 -201t-204 -149t-226 -53q-106 0 -194 67q-87 66 -87 160t90 215h15q190 -293 354 -293q90 0 90 76q0 66 -131 156l-98 70
q-158 104 -158 235q0 103 90 201t211 152q234 104 365 2q67 -52 67 -143t-76 -202h-14q-70 76 -106 112q-38 36 -98 71q-60 34 -107 34q-88 -1 -88 -63q1 -33 23 -57t89 -72l117 -82q96 -68 128 -122t32 -114z" />
    <glyph glyph-name="uni0237" unicode="&#x237;" horiz-adv-x="671" 
d="M486 1047q75 1 109 -61t1 -191l-141 -570q-81 -329 -267 -543t-389 -214q-98 0 -169 52t-70 138q0 59 58 104t149 66q8 -100 38 -160q31 -59 80 -59q49 1 95 121t100 333l190 760l-157 39l12 53q217 132 361 132z" />
    <glyph glyph-name="circumflex" unicode="&#x2c6;" horiz-adv-x="819" 
d="M362 1180h-137l269 399h202l121 -399h-125l-139 180z" />
    <glyph glyph-name="caron" unicode="&#x2c7;" horiz-adv-x="819" 
d="M764 1579h137l-268 -399h-203l-121 399h125l137 -182z" />
    <glyph glyph-name="breve" unicode="&#x2d8;" horiz-adv-x="819" 
d="M541 1159q-133 0 -193 95q-59 95 -49 239h121q27 -139 147 -139q59 0 101 36q41 36 80 103h118q-87 -334 -325 -334z" />
    <glyph glyph-name="dotaccent" unicode="&#x2d9;" horiz-adv-x="819" 
d="M360 1356q0 78 56 132t131 54q76 0 131 -54t55 -132t-55 -132t-131 -54q-75 0 -131 54t-56 132z" />
    <glyph glyph-name="ring" unicode="&#x2da;" horiz-adv-x="819" 
d="M434 1380q0 -55 36 -91t87 -36t87 36t36 91t-36 91t-87 36t-87 -36t-36 -91zM317 1379q0 99 70 167t171 68t170 -67t69 -166t-70 -167t-171 -68t-170 68q-69 66 -69 165z" />
    <glyph glyph-name="ogonek" unicode="&#x2db;" horiz-adv-x="1026" 
d="M516 -223q0 -53 34 -82t83 -29t91 23t99 73l47 -51q-43 -63 -62 -89q-111 -152 -261 -152q-117 0 -185 59t-68 143t48 148q47 66 99 106q53 40 153 106q100 67 123 81h92q-185 -159 -239 -221t-54 -115z" />
    <glyph glyph-name="tilde" unicode="&#x2dc;" horiz-adv-x="819" 
d="M691 1194q-69 0 -159 29l-55 16q-119 41 -170 34t-98 -89l-76 41l14 26q95 176 185 216t217 -7l55 -16q129 -47 182 -40t115 101l80 -43l-20 -35q-73 -125 -137 -179t-133 -54z" />
    <glyph glyph-name="hungarumlaut" unicode="&#x2dd;" horiz-adv-x="819" 
d="M973 1579v-35l-248 -364h-111l125 399h234zM627 1579v-35l-248 -364h-111l125 399h234z" />
    <glyph glyph-name="Wgrave" unicode="&#x1e80;" horiz-adv-x="2271" 
d="M1063 1792h295l98 -285h-172l-221 240v45zM1317 -23l-123 848l-434 -848h-246l-178 1242l-146 26l21 115h680l-23 -115l-151 -26l104 -863l342 678l-26 187l-133 24l22 115h666l-23 -115l-153 -28l108 -871l410 846l-152 53l23 115h479l-21 -115l-159 -41l-635 -1227
h-252z" />
    <glyph glyph-name="wgrave" unicode="&#x1e81;" horiz-adv-x="1595" 
d="M608 1579h273l75 -399h-131l-217 362v37zM1337 706q0 68 -34 101q-35 33 -86 33t-107 -19l14 76q137 139 295 139q80 0 130 -49t50 -113q0 -117 -72 -232q-72 -116 -159 -211q-86 -94 -174 -181t-113 -113l-172 -174h-35l-124 55l-7 340h-4l-393 -395h-27l-126 41
l-25 811q-31 23 -79 23t-93 -19l14 78q145 139 299 139q86 0 134 -51t46 -182l-4 -565h7q156 152 243 274l-8 303q-31 23 -78 23t-94 -19l14 78q145 139 299 139q80 0 130 -46t49 -183l-5 -578h9q104 115 151 174t91 147t44 156z" />
    <glyph glyph-name="Wacute" unicode="&#x1e82;" horiz-adv-x="2271" 
d="M1724 1792v-45l-292 -240h-170l170 285h292zM1317 -23l-123 848l-434 -848h-246l-178 1242l-146 26l21 115h680l-23 -115l-151 -26l104 -863l342 678l-26 187l-133 24l22 115h666l-23 -115l-153 -28l108 -871l410 846l-152 53l23 115h479l-21 -115l-159 -41l-635 -1227
h-252z" />
    <glyph glyph-name="wacute" unicode="&#x1e83;" horiz-adv-x="1595" 
d="M1214 1579v-37l-266 -362h-131l125 399h272zM1337 706q0 68 -34 101q-35 33 -86 33t-107 -19l14 76q137 139 295 139q80 0 130 -49t50 -113q0 -117 -72 -232q-72 -116 -159 -211q-86 -94 -174 -181t-113 -113l-172 -174h-35l-124 55l-7 340h-4l-393 -395h-27l-126 41
l-25 811q-31 23 -79 23t-93 -19l14 78q145 139 299 139q86 0 134 -51t46 -182l-4 -565h7q156 152 243 274l-8 303q-31 23 -78 23t-94 -19l14 78q145 139 299 139q80 0 130 -46t49 -183l-5 -578h9q104 115 151 174t91 147t44 156z" />
    <glyph glyph-name="Wdieresis" unicode="&#x1e84;" horiz-adv-x="2271" 
d="M1642 1470q-66 0 -112 48t-47 112q0 66 47 114q46 48 112 48t114 -48t48 -114t-48 -113t-114 -47zM1133 1470q-66 0 -113 48t-47 112q0 66 47 114t113 48q67 0 113 -48t46 -114t-46 -113t-113 -47zM1317 -23l-123 848l-434 -848h-246l-178 1242l-146 26l21 115h680
l-23 -115l-151 -26l104 -863l342 678l-26 187l-133 24l22 115h666l-23 -115l-153 -28l108 -871l410 846l-152 53l23 115h479l-21 -115l-159 -41l-635 -1227h-252z" />
    <glyph glyph-name="wdieresis" unicode="&#x1e85;" horiz-adv-x="1595" 
d="M999 1358q-1 66 47 114t114 48t113 -48q48 -48 48 -114t-48 -113t-114 -47t-113 47t-47 113zM530 1358q0 66 48 114t112 48q66 0 113 -48t47 -114t-47 -113t-113 -47t-113 47t-47 113zM1337 706q0 68 -34 101q-35 33 -86 33t-107 -19l14 76q137 139 295 139q80 0 130 -49
t50 -113q0 -117 -72 -232q-72 -116 -159 -211q-86 -94 -174 -181t-113 -113l-172 -174h-35l-124 55l-7 340h-4l-393 -395h-27l-126 41l-25 811q-31 23 -79 23t-93 -19l14 78q145 139 299 139q86 0 134 -51t46 -182l-4 -565h7q156 152 243 274l-8 303q-31 23 -78 23t-94 -19
l14 78q145 139 299 139q80 0 130 -46t49 -183l-5 -578h9q104 115 151 174t91 147t44 156z" />
    <glyph glyph-name="Ygrave" unicode="&#x1ef2;" horiz-adv-x="1413" 
d="M629 1792h295l98 -285h-172l-221 240v45zM1376 1212l-458 -639l-84 -434l172 -26l-23 -113h-721l23 113l184 26l74 379l-228 709l-122 18l22 115h678l-21 -111l-174 -26l162 -539h4l367 528l-162 37l23 111h436l-23 -111z" />
    <glyph glyph-name="ygrave" unicode="&#x1ef3;" horiz-adv-x="1099" 
d="M412 1579h272l76 -399h-131l-217 362v37zM332 1036q137 0 220 -118t92 -372q9 -255 -83 -546h12q129 182 194 322t97 301q-20 188 -108 346q90 68 194 67q54 0 102 -40t48 -122q0 -168 -132 -420t-316 -474q-184 -223 -397 -384q-212 -161 -359 -161q-113 0 -182 51
q-68 51 -70 133t50 135t136 53t126 -55t69 -153h14q234 109 279 594q11 106 10 204q-10 406 -109 406q-45 1 -77 -69t-40 -195h-79q-4 176 65 325q35 76 98 124t146 48z" />
    <glyph glyph-name="uni2009" unicode="&#x2009;" horiz-adv-x="225" 
 />
    <glyph glyph-name="endash" unicode="&#x2013;" horiz-adv-x="849" 
d="M35 528l31 142h778l-31 -142h-778z" />
    <glyph glyph-name="emdash" unicode="&#x2014;" horiz-adv-x="1630" 
d="M37 528l29 142h1556l-27 -142h-1558z" />
    <glyph glyph-name="quoteleft" unicode="&#x2018;" horiz-adv-x="548" 
d="M430 920q-84 0 -138 74t-54 175q-1 262 368 461l58 -94q-182 -109 -183 -238q0 -109 140 -184q-11 -88 -59 -141t-132 -53z" />
    <glyph glyph-name="quoteright" unicode="&#x2019;" horiz-adv-x="548" 
d="M377 1251q0 109 -139 185q10 88 58 141t132 53t138 -74t55 -176q0 -261 -369 -460l-57 94q182 109 182 237z" />
    <glyph glyph-name="quotesinglbase" unicode="&#x201a;" horiz-adv-x="628" 
d="M190 27q0 113 -137 186q4 82 51 136q48 54 134 54q86 -1 136 -71t50 -158q0 -291 -383 -487q-39 59 -47 73q112 76 154 136t42 131z" />
    <glyph glyph-name="quotedblleft" unicode="&#x201c;" horiz-adv-x="1060" 
d="M942 920q-84 0 -138 74t-54 175q-1 262 368 461l58 -94q-182 -109 -183 -238q0 -109 140 -184q-11 -88 -59 -141t-132 -53zM430 920q-84 0 -138 74t-54 175q-1 262 368 461l58 -94q-182 -109 -183 -238q0 -109 140 -184q-11 -88 -59 -141t-132 -53z" />
    <glyph glyph-name="quotedblright" unicode="&#x201d;" horiz-adv-x="1060" 
d="M870 1251q0 109 -139 185q11 88 59 141t132 53t138 -74t54 -176q0 -261 -369 -460l-57 94q182 109 182 237zM358 1251q0 109 -139 185q11 88 59 141t132 53t138 -74t54 -176q0 -261 -369 -460l-57 94q182 109 182 237z" />
    <glyph glyph-name="quotedblbase" unicode="&#x201e;" horiz-adv-x="1140" 
d="M702 27q0 113 -137 186q4 82 51 136q48 54 134 54q86 -1 136 -71t50 -158q0 -291 -383 -487q-39 59 -47 73q112 76 154 136t42 131zM190 27q0 113 -137 186q4 82 51 136q48 54 134 54q86 -1 136 -71t50 -158q0 -291 -383 -487q-39 59 -47 73q112 76 154 136t42 131z" />
    <glyph glyph-name="dagger" unicode="&#x2020;" horiz-adv-x="679" 
d="M162 1116l33 164l211 -8l38 235h187l-56 -235l218 8l-33 -164l-215 6l-90 -516h-187l111 516z" />
    <glyph glyph-name="daggerdbl" unicode="&#x2021;" horiz-adv-x="679" 
d="M162 1116l33 164l211 -8l38 235h187l-56 -235l218 8l-33 -164l-217 6l-35 -176l221 8l-31 -163l-217 6l-35 -234h-186l53 234l-213 -6l31 163l215 -8l33 176z" />
    <glyph glyph-name="bullet" unicode="&#x2022;" horiz-adv-x="679" 
d="M350 328q-94 0 -161 66t-66 161q0 94 66 161q67 66 161 66t161 -66t67 -161t-67 -161t-161 -66z" />
    <glyph glyph-name="ellipsis" unicode="&#x2026;" horiz-adv-x="2095" 
d="M1683 -29q-76 1 -130 55t-54 129t54 130t131 55q78 0 132 -55t54 -130t-56 -129t-131 -55zM985 -29q-76 1 -130 55t-54 129t54 130t130 55t131 -55t55 -130t-55 -129t-131 -55zM287 -29q-76 1 -130 55q-55 54 -55 129t54 130t132 55q77 0 131 -55t54 -130t-55 -129
t-131 -55z" />
    <glyph glyph-name="perthousand" unicode="&#x2030;" horiz-adv-x="2938" 
d="M428 -102l995 1409h150l-995 -1409h-150zM2380 -39q-154 0 -244 91t-90 253t130 300t337 138q154 0 244 -92t90 -235q0 -180 -130 -318t-337 -137zM2509 645q-78 1 -135 -153q-58 -154 -58 -292t72 -139q68 -1 129 141t61 292t-69 151zM1462 -39q-154 0 -244 91t-90 253
t130 300t337 138q154 0 244 -92t90 -235q0 -180 -130 -318t-337 -137zM1591 645q-78 1 -135 -153t-57 -292t71 -139q68 -1 129 141t61 292t-69 151zM414 467q-152 0 -242 93t-90 235q0 178 131 316t338 138q152 0 242 -92t90 -235q0 -180 -131 -318t-338 -137zM545 1151
q-78 0 -135 -154q-58 -153 -58 -291t72 -139q68 -1 129 141t61 292t-69 151z" />
    <glyph glyph-name="minute" unicode="&#x2032;" horiz-adv-x="559" 
d="M561 1528v-66l-289 -461h-106l131 527h264z" />
    <glyph glyph-name="second" unicode="&#x2033;" horiz-adv-x="899" 
d="M901 1528v-66l-289 -461h-106l131 527h264zM561 1528v-66l-289 -461h-106l131 527h264z" />
    <glyph glyph-name="guilsinglleft" unicode="&#x2039;" horiz-adv-x="874" 
d="M745 1004l64 -78l-412 -418l262 -414l-88 -61l-446 454l12 76z" />
    <glyph glyph-name="guilsinglright" unicode="&#x203a;" horiz-adv-x="874" 
d="M117 27l-64 77l412 416l-262 416l88 61l446 -454l-12 -76z" />
    <glyph glyph-name="fraction" unicode="&#x2044;" horiz-adv-x="419" 
d="M-291 -170l-96 74l1227 1583l96 -74z" />
    <glyph glyph-name="Euro" unicode="&#x20ac;" horiz-adv-x="1333" 
d="M1329 1116q0 -43 -45 -99t-125 -97q-154 217 -282 217q-78 0 -148 -90t-113 -232h406l-25 -113h-407q-14 -63 -21 -141h394l-21 -112h-375q8 -121 79 -191t173 -70q67 0 133 29t101 55t102 84l66 -75q-131 -158 -265 -238t-299 -80q-213 0 -325 126t-111 339v21h-166
l21 112h153q14 80 33 141h-158l23 113h182q66 127 173 224q174 157 422 222q91 24 153 23q106 0 189 -52t83 -116z" />
    <glyph glyph-name="trademark" unicode="&#x2122;" horiz-adv-x="1972" 
d="M240 1360h684l-43 -258h-84l-6 153h-125l-101 -505l90 -13l-14 -78h-401l14 78l98 13l101 505h-121l-68 -153h-84zM856 659l14 78l82 13l105 512l-76 12l16 86h428l41 -354l199 354h391l-16 -86l-80 -12l-105 -512l78 -13l-14 -78h-391l14 78l92 13l101 493h-11
l-315 -549h-137l-8 78l-70 471h-10l-101 -493l82 -13l-14 -78h-295z" />
    <glyph glyph-name="onethird" unicode="&#x2153;" horiz-adv-x="2037" 
d="M1540 -35q-168 0 -259 54q-89 54 -91 135q0 100 141 131q80 -225 232 -226q45 0 73 30t29 79q0 160 -264 197l14 96l66 12q111 21 163 61t52 84q0 88 -112 88t-228 -116l-76 63q88 103 178 145t220 42t211 -49t81 -129t-74 -133q-74 -54 -194 -66v-4q134 -23 198 -71
t64 -134q0 -125 -128 -207t-296 -82zM485 -170l-96 74l1227 1583l96 -74zM98 545l15 100l190 21l100 491h-219l9 98l538 105h19l-142 -698l180 -17l-20 -100h-670z" />
    <glyph glyph-name="twothirds" unicode="&#x2154;" horiz-adv-x="2109" 
d="M1610 -35q-168 0 -257 54t-91 135q0 100 141 131q80 -225 231 -226q45 0 74 30t29 79q0 160 -264 197l14 96l65 12q111 21 163 61t52 84q1 88 -111 88t-229 -116l-75 63q88 103 178 145t220 42t211 -49t81 -129t-74 -133q-74 -54 -194 -66v-4q135 -23 198 -71t64 -134
q0 -125 -128 -207q-130 -82 -298 -82zM557 -170l-96 74l1227 1583l96 -74zM578 1075q0 63 -31 101t-92 38q-109 0 -224 -112l-71 61q160 229 395 230q129 0 215 -65t86 -175t-107 -201q-108 -90 -311 -200h418l-43 -207h-745l22 88l229 155q259 173 259 287z" />
    <glyph glyph-name="oneeighth" unicode="&#x215b;" horiz-adv-x="2086" 
d="M1786 630q0 120 -125 120q-47 0 -75 -26t-28 -64t21 -63q20 -26 74 -50l55 -27q78 48 78 110zM1572 57q68 0 105 30t37 79q0 68 -123 125l-80 37q-94 -43 -94 -146q0 -55 43 -90q44 -35 112 -35zM1573 -35q-175 -1 -277 59t-102 148q0 152 244 203q-144 86 -144 205
q0 118 110 190t278 72t244 -58q75 -58 75 -125q0 -127 -209 -182q201 -98 201 -228t-122 -207t-298 -77zM485 -170l-96 74l1227 1583l96 -74zM98 545l15 100l190 21l100 491h-219l9 98l538 105h19l-142 -698l180 -17l-20 -100h-670z" />
    <glyph glyph-name="threeeighths" unicode="&#x215c;" horiz-adv-x="2086" 
d="M1786 630q0 120 -125 120q-47 0 -75 -26t-28 -64t21 -63q20 -26 74 -50l55 -27q78 48 78 110zM1572 57q68 0 105 30t37 79q0 68 -123 125l-80 37q-94 -43 -94 -146q0 -55 43 -90q44 -35 112 -35zM1573 -35q-175 -1 -277 59t-102 148q0 152 244 203q-144 86 -144 205
q0 118 110 190t278 72t244 -58q75 -58 75 -125q0 -127 -209 -182q201 -98 201 -228t-122 -207t-298 -77zM485 -170l-96 74l1227 1583l96 -74zM440 510q-168 0 -259 54q-89 54 -91 134q0 100 141 131q80 -225 232 -225q45 0 74 30t28 79q0 160 -264 196l14 97l66 12
q111 20 163 60t52 85q0 88 -112 88t-228 -116l-76 63q88 104 178 145t220 41t212 -49q80 -49 80 -128t-74 -133t-194 -66v-4q134 -23 198 -71t64 -134q0 -125 -128 -207t-296 -82z" />
    <glyph glyph-name="fiveeighths" unicode="&#x215d;" horiz-adv-x="2107" 
d="M1686 750q-52 0 -80 -26t-27 -64q0 -38 20 -63q20 -26 74 -50l56 -27q77 48 77 110t-33 91q-35 29 -87 29zM1592 57q68 0 106 30q37 30 37 79q0 68 -123 125l-80 37q-94 -43 -94 -146q0 -55 43 -90t111 -35zM1593 -35q-176 -1 -277 59t-102 148q0 152 244 203
q-143 86 -143 205q-1 118 109 190t279 72t244 -58t74 -125q0 -127 -209 -182q201 -98 201 -228t-122 -207t-298 -77zM502 -170l-96 74l1226 1583l97 -74zM399 508q-124 0 -208 42q-83 42 -80 107q2 80 149 113q35 -84 78 -124t119 -40q77 0 111 37t34 91t-54 90t-139 36
t-202 -49l-27 14l123 535h584l-39 -201h-471l-33 -145q102 53 228 53t211 -59q85 -60 85 -174t-72 -189q-132 -137 -397 -137z" />
    <glyph glyph-name="seveneighths" unicode="&#x215e;" horiz-adv-x="1982" 
d="M1562 750q-52 0 -80 -26t-28 -64t20 -63q20 -26 74 -50l56 -27q78 48 78 110t-34 91t-86 29zM1468 57q68 0 105 30t37 79q0 68 -123 125l-80 37q-94 -43 -94 -146q0 -55 43 -90q44 -35 112 -35zM1468 -35q-176 -1 -277 59t-101 148q0 152 243 203q-143 86 -143 205
q0 118 110 190t278 72q169 0 244 -58t74 -125q0 -127 -208 -182q200 -98 200 -228t-122 -207t-298 -77zM356 -170l-96 74l1227 1583l96 -74zM188 545l490 581h-498l56 234h686l-9 -45l-481 -770h-244z" />
    <glyph glyph-name="minus" unicode="&#x2212;" horiz-adv-x="1142" 
d="M1057 416h-971v139h971v-139z" />
    <glyph glyph-name="approxequal" unicode="&#x2248;" horiz-adv-x="1142" 
d="M340 479q57 0 156 -22l135 -33q141 -33 185 -33t75 29t65 92l99 -49q-47 -99 -107 -149t-142 -50q-83 0 -206 31l-133 35q-94 24 -138 24t-76 -32t-67 -95l-98 49q94 203 252 203zM340 807q57 0 156 -23l135 -32q141 -33 185 -33t75 29t65 92l99 -49q-47 -99 -107 -149
t-142 -50q-83 0 -206 31l-133 34q-94 25 -138 25t-76 -32t-67 -95l-98 49q94 203 252 203z" />
    <glyph glyph-name="notequal" unicode="&#x2260;" horiz-adv-x="1142" 
d="M86 600v133h600l164 205h133l-166 -205h240v-133h-346l-152 -186h498v-133h-604l-166 -205h-127l164 205h-238v133h344l150 186h-494z" />
    <glyph glyph-name="lessequal" unicode="&#x2264;" horiz-adv-x="1142" 
d="M1057 0h-971v139h971v-139zM1057 932l-770 -287l770 -285v-143l-967 369v121l967 368v-143z" />
    <glyph glyph-name="greaterequal" unicode="&#x2265;" horiz-adv-x="1142" 
d="M1057 0h-971v139h971v-139zM856 645l-770 287v143l967 -368v-121l-967 -369v143z" />
    <glyph glyph-name="Pcircle" unicode="&#x24c5;" horiz-adv-x="1638" 
d="M1323 838q0 -128 -115 -194t-293 -66l11 69q160 25 159 180q0 68 -51 111t-123 47l-112 -598l123 -22l-15 -80h-481l14 84l109 18l108 567l-102 21l14 84h379q164 3 270 -57t105 -164zM828 43q257 0 445 183q187 184 195 444t-166 443q-176 183 -432 183t-446 -183
t-197 -443q-8 -260 168 -444t433 -183zM824 -37q-294 0 -492 205t-190 501q10 297 224 503t508 206t494 -207t190 -501t-225 -501q-215 -206 -509 -206z" />
    <glyph glyph-name="space_uni0326" horiz-adv-x="819" 
d="M322 -88q76 0 126 -43t50 -115q0 -102 -123 -186t-330 -137l-29 75q125 43 172 82t48 88q0 74 -103 95q45 141 189 141z" />
    <glyph glyph-name="caron.alt" horiz-adv-x="819" 
d="M573 1528v-64l-276 -368h-86l125 432h237z" />
    <glyph glyph-name="space_uni0326.alt" horiz-adv-x="819" 
d="M465 1421q0 -74 102 -94q-45 -141 -188 -141q-76 0 -126 43t-50 114q1 103 123 187t329 137l29 -76q-125 -43 -172 -82t-47 -88z" />
    <glyph glyph-name="grave.uc" horiz-adv-x="819" 
d="M328 1792h295l98 -285h-172l-221 240v45z" />
    <glyph glyph-name="dieresis.uc" horiz-adv-x="819" 
d="M809 1470q-66 0 -113 48t-47 112q0 66 47 114t113 48t114 -48t48 -114t-48 -113t-114 -47zM299 1470q-66 0 -113 48t-47 112q0 66 47 114t113 48t113 -48t47 -114t-47 -113t-113 -47z" />
    <glyph glyph-name="macron.uc" horiz-adv-x="819" 
d="M297 1556l35 164h594l-35 -164h-594z" />
    <glyph glyph-name="acute.uc" horiz-adv-x="819" 
d="M969 1792v-45l-293 -240h-170l170 285h293z" />
    <glyph glyph-name="circumflex.uc" horiz-adv-x="819" 
d="M414 1507h-160l272 285h219l154 -285h-141l-150 119z" />
    <glyph glyph-name="caron.uc" horiz-adv-x="819" 
d="M805 1792h160l-273 -285h-219l-154 285h142l149 -121z" />
    <glyph glyph-name="breve.uc" horiz-adv-x="819" 
d="M588 1483q-150 0 -213 94t-51 221h110q32 -129 184 -129t224 129h106q-31 -133 -120 -224q-90 -91 -240 -91z" />
    <glyph glyph-name="dotaccent.uc" horiz-adv-x="819" 
d="M446 1696q0 78 56 132t131 54q76 0 131 -54t55 -132t-55 -132t-131 -54q-75 0 -131 54t-56 132z" />
    <glyph glyph-name="ring.uc" horiz-adv-x="819" 
d="M502 1694q0 -56 37 -94t90 -38t90 38q37 36 37 94t-37 94q-37 37 -90 37t-90 -37t-37 -94zM381 1693q0 103 72 173t176 70t176 -70q72 -68 72 -171t-72 -173t-176 -70t-176 69t-72 172z" />
    <glyph glyph-name="tilde.uc" horiz-adv-x="819" 
d="M631 1546l-56 19q-155 51 -209 8q-26 -20 -65 -80l-74 41l11 27q84 233 234 229q71 -2 159 -29l55 -18q158 -47 199 -36t108 103l76 -38l-14 -31q-76 -176 -174 -215t-250 20z" />
    <glyph glyph-name="hungarumlaut.uc" horiz-adv-x="819" 
d="M750 1792v-39l-265 -246h-149l164 285h250zM1075 1792v-39l-264 -246h-149l163 285h250z" />
    <glyph glyph-name="idotaccent" horiz-adv-x="663" 
d="M311 1360q-1 78 55 132t132 54t131 -54t55 -132t-55 -132t-131 -54t-132 54t-55 132zM422 1047q176 0 117 -252l-146 -594h6q102 49 181 151l51 -37q-55 -129 -191 -241t-262 -111q-78 -1 -114 61t-3 193l152 606l-158 39l13 53q90 55 188 93q98 39 166 39z" />
    <glyph glyph-name="f_f_h.alt" horiz-adv-x="2541" 
d="M840 1309q-72 0 -124 -67t-91 -230h325q33 80 88 151q-100 146 -198 146zM581 -342q37 0 75 68t65 202l190 951h-315l-133 -637q-35 -166 -101 -303t-140 -223q-76 -85 -158 -143q-153 -107 -271 -105q-90 0 -146 50q-57 50 -57 119t54 115t141 66q33 -111 61 -160
t68 -49q88 0 141 266l193 946q10 43 14 58h-170l23 133h198q74 147 209 256q135 110 256 154t211 44q137 0 234 -118q117 86 243 133t217 47q92 0 162 -47l183 47l-234 -930h10q137 232 246 338t240 106q199 0 198 -227q0 -162 -64 -325q-119 -300 -359 -458
q-105 -71 -187 -71q-102 0 -102 94q0 63 47 117q98 -45 143 -45q62 101 114 283t52 288q0 70 -55 70q-70 0 -156 -116t-148 -253t-92 -245l-39 -140l-274 -51l-57 35l348 1329q-72 53 -141 53q-162 0 -240 -366v-2h192l-22 -133h-199l-121 -584q-43 -207 -129 -366
t-185 -243q-196 -166 -351 -165q-78 0 -114 40t-36 97q0 58 45 98t115 54q27 -84 49 -118t59 -34z" />
    <glyph glyph-name="f_h.alt" horiz-adv-x="1890" 
d="M1020 1528q111 0 174 -47l182 47l-233 -930h10q137 232 246 338t239 106q199 0 199 -227q-1 -162 -65 -325q-119 -300 -358 -458q-105 -71 -187 -71q-102 0 -103 94q0 63 47 117q98 -45 144 -45q61 101 113 283t53 288q0 70 -56 70q-69 0 -155 -116t-148 -253t-92 -245
l-39 -140l-274 -51l-58 35l349 1329q-72 53 -144 53q-160 0 -239 -368h192l-22 -133h-197l-135 -637q-35 -166 -101 -303t-140 -223q-76 -85 -158 -143q-153 -107 -271 -105q-90 0 -146 50q-57 50 -57 119t54 115t141 66q33 -111 61 -160t68 -49q88 0 141 266l201 989l2 15
h-166l23 133h186q55 135 157 240q162 166 412 247q90 29 150 29z" />
    <glyph glyph-name="dollar.lin" horiz-adv-x="1187" 
d="M479 1087q0 -131 152 -204l139 411q-10 2 -29 2q-119 0 -191 -62t-71 -147zM786 294q0 83 -40 128t-134 90l-145 -432q18 -2 53 -2q106 0 187 66q79 67 79 150zM182 948q0 178 182 318t429 139h14l67 201h109l-72 -209q83 -10 171 -32q87 -23 96 -26l-70 -405h-86
l-47 278q-43 37 -107 58l-145 -430l123 -56q124 -57 188 -134t64 -195q0 -156 -104 -273t-248 -170t-291 -53h-29l-72 -215h-108l76 227q-61 10 -281 78l55 432h90l62 -331q47 -29 119 -50l153 453l-51 25q-147 68 -217 150t-70 220z" />
    <glyph glyph-name="Euro.lin" horiz-adv-x="1327" 
d="M1403 1194q0 -113 -178 -201q-127 233 -264 234q-93 0 -179 -86t-139 -236h420l-29 -127h-428q-16 -74 -22 -141h417l-28 -127h-398v-25q-1 -139 63 -211t177 -71q72 1 147 31q76 30 120 62t118 89l64 -78q-109 -117 -189 -185q-81 -68 -193 -113q-112 -46 -243 -46
q-201 0 -315 130t-113 325q0 61 4 92h-147l28 127h137q20 80 46 141h-162l28 127h199q78 125 197 224t237 153q234 108 359 109q126 0 196 -66t70 -131z" />
    <glyph glyph-name="sterling.lin" horiz-adv-x="1601" 
d="M1352 1528q88 0 168 -74q82 -74 78 -149t-55 -111q-50 -36 -161 -49q-39 246 -131 246q-49 0 -88 -84t-90 -295l-90 -371h397l-28 -137h-412q-98 -254 -324 -404q100 -57 187 -114l92 -62q35 -23 105 -71t121 -78q52 -31 91 -31q86 0 101 285q215 0 215 -135
q0 -96 -142 -206t-296 -110q-313 0 -560 283l-118 139q-121 -43 -202 -43t-123 41t-42 102q0 60 50 102t133 42t245 -72q74 135 117 320l2 12h-236l29 137h240l61 260q39 168 123 296t181 197q98 70 186 102t176 32z" />
    <glyph glyph-name="yen.lin" horiz-adv-x="1413" 
d="M209 563l24 113h306l-220 551l-122 18l22 115h678l-20 -111l-175 -26l179 -461h4l350 450l-162 37l23 111h436l-23 -111l-129 -37l-424 -536h342l-22 -113h-373l-26 -141h368l-24 -113h-365l-33 -170l183 -26l-23 -113h-721l23 113l194 26l33 170h-358l24 113h357l26 141
h-352z" />
    <glyph glyph-name="florin.lin" horiz-adv-x="1140" 
d="M1069 1407q178 0 178 -160q0 -66 -57 -121t-146 -82q-12 100 -33 153q-22 52 -65 52q-66 0 -114 -98t-93 -332l-30 -151h301l-23 -133h-305l-39 -193q-39 -198 -116 -356t-161 -252t-176 -156q-167 -112 -290 -110q-90 0 -137 43q-46 43 -46 113q1 70 63 123
q62 52 150 71q36 -172 68 -197q14 -12 35 -12q94 0 155 266l146 660h-213l22 133h222l16 73q37 162 131 297t203 211t203 117t151 41z" />
    <glyph glyph-name="zero.lin" horiz-adv-x="1411" 
d="M629 61q98 0 183 172q85 173 129 389t44 377t-30 231t-101 68q-88 0 -173 -137t-138 -356t-54 -447q1 -297 140 -297zM874 1403q222 -1 362 -147t140 -435q0 -149 -51 -299t-143 -276t-242 -207q-150 -80 -328 -80q-238 0 -372 157t-136 439q0 207 94 401t274 320
q179 127 402 127z" />
    <glyph glyph-name="one.lin" horiz-adv-x="917" 
d="M846 1386l-248 -1247l225 -26l-20 -113h-807l20 111l232 28l192 985l-264 -8l17 121l634 149h19z" />
    <glyph glyph-name="two.lin" horiz-adv-x="1159" 
d="M760 940q0 104 -56 156t-162 53q-104 0 -272 -131l-73 78q78 92 135 148t158 108t208 53q188 0 300 -102t114 -286q2 -185 -154 -345t-489 -353l-47 -26h629l-58 -293h-1013l43 158l296 213q129 94 216 171q85 78 155 186t70 212z" />
    <glyph glyph-name="three.lin" horiz-adv-x="1058" 
d="M1018 422q0 -94 -44 -173t-114 -129q-210 -150 -482 -152q-169 -1 -274 75q-104 76 -104 199q0 61 48 113t136 75q109 -338 310 -338q78 0 135 52t57 135q0 256 -420 360l19 80q424 150 424 334q0 63 -42 100t-109 37q-66 0 -136 -37t-168 -111l-66 72q92 119 230 206
t297 87q160 0 252 -78t92 -202q-1 -125 -97 -207t-309 -158v-8q365 -55 365 -332z" />
    <glyph glyph-name="four.lin" horiz-adv-x="1273" 
d="M305 580h397l103 518zM401 111l211 22l43 213h-624l28 146l883 894l234 -26l-156 -780h244l-47 -234h-244l-41 -207l190 -28l-22 -111h-721z" />
    <glyph glyph-name="five.lin" horiz-adv-x="1150" 
d="M692 889q176 0 285 -89q109 -88 109 -238t-72 -267t-180 -185t-217 -106q-110 -37 -197 -37q-190 -1 -294 59t-103 164q0 68 47 113t118 53q104 -258 304 -258q112 0 186 80t74 197t-72 185t-163 69q-91 0 -157 -25t-157 -86l-58 25l187 817h817l-55 -293h-678l-51 -252
q151 74 327 74z" />
    <glyph glyph-name="six.lin" horiz-adv-x="1255" 
d="M674 782q-74 0 -156 -77q-78 -188 -78 -355q0 -168 32 -228t99 -61q109 -1 182 147t72 353q0 105 -39 163q-38 58 -112 58zM1208 543q0 -248 -198 -414t-432 -166t-365 128t-131 382q0 168 92 337q190 348 620 536q218 94 455 114l19 -98q-483 -150 -699 -549h6
q121 107 271 107t256 -96t106 -281z" />
    <glyph glyph-name="seven.lin" horiz-adv-x="1073" 
d="M377 0h-256l721 1040h-713l70 320h946l-10 -60z" />
    <glyph glyph-name="eight.lin" horiz-adv-x="1130" 
d="M526 1081q0 -59 36 -104t112 -100l63 -48q160 127 160 273q0 92 -50 142t-127 50q-78 0 -136 -56t-58 -157zM508 72q104 0 171 63t67 143t-37 133q-37 52 -117 109l-119 84q-178 -129 -176 -311q2 -93 55 -157q52 -64 156 -64zM742 1407q223 0 318 -84t95 -199
q0 -215 -342 -350l35 -24q106 -78 160 -148t57 -170q2 -199 -176 -336t-399 -137t-348 83q-126 83 -128 243q-2 129 106 221t279 153q-184 141 -186 317t152 303q154 128 377 128z" />
    <glyph glyph-name="nine.lin" horiz-adv-x="1255" 
d="M635 582q84 0 158 67q94 215 94 389q0 268 -137 269q-104 -1 -178 -149t-72 -362q0 -214 135 -214zM724 1405q242 0 382 -139t141 -383q0 -166 -102 -341q-102 -176 -266 -314t-386 -230t-448 -100l-12 90q457 121 700 542h-2q-101 -78 -245 -78t-253 99
q-109 98 -108 291q0 240 179 402q178 162 420 161z" />
    <glyph glyph-name="percent.lin" horiz-adv-x="1994" 
d="M1423 -39q-151 0 -241 90t-90 254t132 301t343 137q147 0 236 -91t89 -236q0 -180 -131 -318t-338 -137zM1624 494q0 152 -76 151q-76 1 -131 -153t-55 -292t76 -139q68 1 127 141t59 292zM465 618q-152 0 -242 90t-90 254t132 302t343 137q146 0 236 -91t90 -237
q0 -179 -131 -317t-338 -138zM590 1303q-76 0 -131 -154t-55 -292t75 -138q68 0 127 140q60 140 60 292t-76 152zM391 -102l1094 1552h153l-1093 -1552h-154z" />
    <glyph glyph-name="perthousand.lin" horiz-adv-x="2912" 
d="M2472 645q-78 1 -135 -153t-57 -292t71 -139q68 -1 129 141q62 142 62 292t-70 151zM2341 -39q-152 0 -242 90t-90 254t132 301t343 137q146 0 236 -91t90 -236q0 -180 -131 -318t-338 -137zM1554 645q-78 1 -135 -153t-57 -292t72 -139q68 -1 129 141t61 292t-70 151z
M1423 -39q-151 0 -241 90t-90 254t132 301t343 137q147 0 236 -91t89 -236q0 -180 -131 -318t-338 -137zM389 -102l1094 1552h153l-1093 -1552h-154zM596 1303q-78 0 -135 -154t-57 -292t69 -138q70 0 131 141q62 141 62 292t-70 151zM465 618q-152 0 -242 90t-90 254
t132 302t343 137q146 0 236 -91t90 -237q0 -179 -131 -317t-338 -138z" />
    <glyph glyph-name="plus.lin" horiz-adv-x="1142" 
d="M1094 559h-412v-416h-147v416h-412v139h412v416h147v-416h412v-139z" />
    <glyph glyph-name="minus.lin" horiz-adv-x="1142" 
d="M1087 559h-970v139h970v-139z" />
    <glyph glyph-name="multiply.lin" horiz-adv-x="1142" 
d="M961 158l-369 370l-361 -366l-96 96l369 371l-369 368l101 101l366 -369l369 379l94 -98l-367 -373l369 -371z" />
    <glyph glyph-name="divide.lin" horiz-adv-x="1142" 
d="M602 786q-70 0 -120 52t-50 120t50 119t120 51t121 -51t51 -120t-51 -120t-121 -51zM600 127q-70 0 -120 51t-50 120t50 120t120 51t121 -51t51 -120t-51 -120t-121 -51zM1087 561h-970v135h970v-135z" />
    <glyph glyph-name="equal.lin" horiz-adv-x="1142" 
d="M117 424v133h970v-133h-970zM117 743v134h970v-134h-970z" />
    <glyph glyph-name="less.lin" horiz-adv-x="1142" 
d="M1085 989l-798 -364l798 -361v-149l-966 450v121l966 451v-148z" />
    <glyph glyph-name="greater.lin" horiz-adv-x="1142" 
d="M119 262l799 365l-799 360v150l966 -451v-121l-966 -450v147z" />
    <glyph glyph-name="plusminus.lin" horiz-adv-x="1140" 
d="M1087 0h-970v139h970v-139zM1087 866h-411v-415h-148v415h-411v140h411v415h148v-415h411v-140z" />
    <glyph glyph-name="notequal.lin" horiz-adv-x="1142" 
d="M117 743v134h600l164 204h133l-166 -204h239v-134h-346l-151 -186h497v-133h-604l-166 -205h-127l164 205h-237v133h344l149 186h-493z" />
    <glyph glyph-name="approxequal.lin" horiz-adv-x="1142" 
d="M371 623q57 0 155 -23l136 -33q141 -33 185 -33t75 30q31 28 65 91l98 -49q-47 -100 -106 -149t-143 -49t-205 30l-133 35q-94 25 -138 25t-76 -32t-67 -95l-98 49q94 203 252 203zM847 862q44 0 75 29t65 92l98 -49q-47 -100 -106 -150t-143 -49q-84 0 -205 31l-133 35
q-94 25 -138 25t-76 -33q-32 -32 -67 -95l-98 50q94 203 252 202q57 0 155 -22l136 -33q141 -33 185 -33z" />
    <glyph glyph-name="lessequal.lin" horiz-adv-x="1142" 
d="M1087 0h-970v139h970v-139zM1087 1075l-770 -287l770 -284v-144l-966 369v121l966 369v-144z" />
    <glyph glyph-name="greaterequal.lin" horiz-adv-x="1142" 
d="M1087 0h-970v139h970v-139zM887 788l-770 287v144l966 -369v-121l-966 -369v144z" />
    <glyph glyph-name="numbersign.lin" horiz-adv-x="1214" 
d="M573 924l-129 -349h269l129 349h-269zM246 924l24 123h222l116 313h129l-116 -313h268l117 313h129l-117 -313h215l-25 -123h-237l-129 -349h207l-25 -122h-229l-115 -310h-129l115 310h-267l-114 -310h-131l114 310h-207l25 122h229l129 349h-198z" />
    <glyph glyph-name="ordfeminine.lin" horiz-adv-x="1001" 
d="M387 743q57 0 144 113t133 258l41 135q-31 51 -66 51q-76 0 -178 -184t-103 -317q0 -56 29 -56zM252 541q-78 0 -121 46t-41 122q0 251 195 463t395 212q43 0 90 -26l14 45h228l-174 -664h6q80 39 133 115l41 -31q-44 -100 -150 -186t-198 -86t-109 81q-10 44 19 118
l41 106h-13q-186 -315 -356 -315z" />
    <glyph glyph-name="ordmasculine.lin" horiz-adv-x="968" 
d="M651 1403q145 0 233 -94t87 -252q1 -203 -147 -360t-382 -156q-147 0 -234 94t-87 252q0 203 147 359t383 157zM625 1323q-79 1 -149 -203t-70 -350t59 -147q81 -1 151 203t70 350t-61 147z" />
    <glyph glyph-name="dollar.tab" 
d="M477 1028q0 -127 137 -190l136 401q-14 2 -29 2q-115 -1 -179 -63t-65 -150zM512 78q106 0 184 64t78 147q0 82 -41 126t-125 81l-141 -416q16 -2 45 -2zM190 905q0 168 170 299t422 133l92 269h109l-94 -277q92 -12 163 -33q72 -20 93 -24l-66 -379h-94l-47 272
q-49 33 -88 47l-141 -415l118 -49q254 -106 254 -306q0 -145 -104 -257q-105 -111 -245 -161t-281 -51h-19l-78 -229h-108l80 240q-100 16 -281 75l53 408h99l59 -317q51 -27 111 -48l145 433l-39 16q-143 57 -213 140t-70 214z" />
    <glyph glyph-name="Euro.tab" 
d="M1276 1163q0 -45 -44 -103t-126 -102q-147 225 -254 226q-78 0 -153 -95t-119 -245h354l-29 -127h-356q-12 -70 -19 -142h349l-29 -126h-320q14 -119 86 -187t158 -67q164 0 309 122l68 -84q-223 -270 -526 -270q-221 0 -338 131t-117 352v3h-123l29 126h102
q10 74 31 142h-119l29 127h139q66 131 175 232q178 163 433 235q96 27 181 27t157 -54q72 -53 72 -121z" />
    <glyph glyph-name="sterling.tab" 
d="M1333 1106q0 -131 -211 -154q-16 108 -59 178t-94 70t-88 -66t-72 -216l-66 -277h297l-30 -145h-301q-72 -246 -306 -396q63 -35 142 -90l59 -43q70 -51 144 -115t110 -92q36 -27 62 -26q78 0 90 284q203 0 215 -124q10 -100 -129 -208q-138 -108 -272 -108t-252 68
t-271 237l-106 117q-117 -35 -179 -35q-135 0 -135 113q0 51 49 88q50 37 138 37t186 -35q45 102 90 303l4 25h-180l31 145h182l33 141q33 141 107 253q125 187 353 269q92 32 173 31q121 1 203 -65t83 -164z" />
    <glyph glyph-name="yen.tab" 
d="M125 543l22 112h236l-190 516l-123 19l22 115h678l-20 -111l-175 -27l160 -454h4l328 444l-162 37l23 111h436l-23 -111l-129 -37l-376 -502h256l-21 -112h-307l-27 -142h305l-22 -112h-303l-29 -150l182 -26l-22 -113h-721l23 113l194 26l29 150h-297l22 112h297l29 142
h-299z" />
    <glyph glyph-name="florin.tab" 
d="M1026 1245q178 0 178 -153q0 -68 -53 -127t-125 -82q-41 205 -119 204q-61 0 -94 -93t-65 -326h325l-22 -133h-322l-29 -199q-28 -196 -92 -354t-140 -251t-164 -155q-153 -110 -279 -108q-88 0 -143 50q-54 50 -54 119t54 115t141 66q52 -187 94 -203q14 -6 28 -6
q72 0 121 274l115 652h-268l22 133h275q41 141 126 258q138 191 355 283q82 36 135 36z" />
    <glyph glyph-name="zero.tab" 
d="M486 -37q-198 0 -312 131t-115 346q1 264 183 464t483 200q190 0 305 -132t115 -345q0 -170 -76 -320q-77 -150 -231 -247t-352 -97zM690 1006q-82 0 -150 -130t-100 -291t-32 -291t19 -181t73 -52q74 0 142 108q68 109 110 271q41 162 41 308t-22 202t-81 56z" />
    <glyph glyph-name="one.tab" 
d="M920 1104l-189 -946l273 -45l-21 -113h-946l20 111l328 47l141 725h-315l16 121l682 100h11z" />
    <glyph glyph-name="two.tab" 
d="M471 862q-119 0 -227 -90l-70 66q117 150 205 206q87 56 243 58q156 0 254 -92t99 -210q0 -118 -87 -227q-68 -81 -239 -183q-58 -34 -162 -93l-59 -33h586l-43 -264h-951l27 133l160 105q119 78 181 122q185 130 237 225q31 57 31 121t-52 110q-51 46 -133 46z" />
    <glyph glyph-name="three.tab" 
d="M588 12q0 113 -93 170t-239 58h-45l25 176l90 16q196 62 286 133t89 145q-1 76 -49 118t-134 42q-139 0 -254 -102l-69 66q156 199 308 246q75 24 161 24q170 0 257 -81t87 -196q0 -150 -128 -246q-100 -74 -229 -135l-43 -20q136 -23 228 -116t92 -220q0 -160 -138 -291
q-253 -240 -772 -317l-26 94q596 166 596 436z" />
    <glyph glyph-name="four.tab" 
d="M209 250h381l100 502zM457 -424l88 444h-596l26 146l904 938h188l-170 -854h197l-47 -230h-197l-88 -444h-305z" />
    <glyph glyph-name="five.tab" 
d="M551 90q0 72 -52 149q-53 77 -115 129t-187 148l174 531l684 67l-60 -276l-602 -56l-6 -24q219 -133 322 -227q102 -95 144 -176t42 -167q0 -248 -249 -432t-642 -270l-27 94q574 248 574 510z" />
    <glyph glyph-name="six.tab" 
d="M633 776q-70 0 -133 -45q-92 -188 -92 -432q0 -123 30 -180t101 -58q98 -1 160 141q63 142 63 298t-30 216t-99 60zM737 905q171 0 277 -102t106 -295q0 -244 -170 -394t-408 -151q-480 0 -479 498q-1 193 103 369q191 324 669 537q216 97 451 149l25 -97
q-502 -240 -723 -545q82 31 149 31z" />
    <glyph glyph-name="seven.tab" 
d="M193 -485l-150 110l858 1141h-743l61 299h1008l-10 -59l-768 -1098z" />
    <glyph glyph-name="eight.tab" 
d="M582 1103q0 -93 131 -212l53 -49q145 139 145 280q0 74 -46 119q-45 45 -115 45t-119 -45t-49 -138zM338 303q0 -90 51 -157q51 -66 147 -66t155 57q58 57 58 147t-100 183l-145 131q-166 -121 -166 -295zM66 266q0 266 370 393l-12 13q-84 76 -123 142t-39 165
q0 158 144 291t351 133q208 0 306 -81t98 -192q0 -201 -330 -348l48 -41q102 -91 147 -157t45 -156q0 -195 -174 -332t-383 -137t-329 82q-119 82 -119 225z" />
    <glyph glyph-name="nine.tab" 
d="M564 279q72 0 145 65q92 195 92 427t-139 233q-94 0 -159 -148t-65 -354q0 -119 27 -171t99 -52zM444 150q-158 0 -262 101t-104 277q0 258 165 416t405 158t366 -135q125 -135 125 -369q-1 -190 -105 -366t-279 -308q-358 -272 -839 -375l-22 99q508 240 724 547
q-78 -45 -174 -45z" />
    <glyph glyph-name="cent.tab" 
d="M700 915q-102 0 -179 -177t-77 -404q0 -104 48 -141l241 718q-21 4 -33 4zM1075 887q0 -78 -139 -187q-86 127 -119 160l-231 -692q131 2 332 240l57 -48q-57 -118 -176 -234t-279 -151l-76 -231h-102l74 219q-150 2 -225 91t-74 233q0 221 112 390q113 169 283 265
q133 76 260 90l82 242h102l-79 -240q84 -8 141 -50t57 -97z" />
    <glyph glyph-name="percent.tab" horiz-adv-x="1843" 
d="M1288 -39q-150 0 -230 92t-81 236q0 182 122 318t326 136q150 0 231 -90q81 -91 81 -255t-121 -300t-328 -137zM1413 645q-74 -1 -125 -153t-51 -262t14 -139q14 -30 56 -30q61 -1 116 141t55 260t-14 150q-16 32 -51 33zM317 -102l996 1409h149l-995 -1409h-150z
M365 467q-150 0 -231 92t-81 236q0 182 122 318t327 136q150 0 230 -90q80 -91 81 -255t-121 -300t-327 -137zM489 1151q-75 0 -125 -153t-50 -262t14 -139t55 -30q61 -1 117 141t55 260q0 118 -15 150q-16 33 -51 33z" />
    <glyph glyph-name="perthousand.tab" horiz-adv-x="2457" 
d="M1958 -39q-135 0 -208 92t-73 254t114 299t304 137q137 0 214 -91q77 -92 77 -254t-118 -300t-310 -137zM2083 645q-74 -1 -125 -153t-51 -262t14 -139q14 -30 55 -30q60 -1 116 141t56 260t-15 150t-50 33zM1163 -39q-135 0 -208 92t-72 236q0 180 113 317
q114 137 304 137q137 0 214 -91q77 -92 77 -254t-117 -300q-118 -137 -311 -137zM1288 645q-74 -1 -125 -153t-51 -262t14 -139q14 -30 56 -30q61 -1 116 141q56 142 56 260t-16 150t-50 33zM291 467q-135 0 -208 92t-73 254t114 299t304 137q137 0 214 -91q77 -92 77 -254
q1 -162 -117 -300t-311 -137zM416 1151q-74 0 -125 -153t-51 -262t14 -139t55 -30q61 -1 117 141t55 260q0 118 -15 150q-15 33 -50 33zM223 -102l996 1409h149l-995 -1409h-150z" />
    <glyph glyph-name="plus.tab" 
d="M1085 416h-411v-416h-148v416h-411v139h411v416h148v-416h411v-139z" />
    <glyph glyph-name="minus.tab" 
d="M1079 416h-970v139h970v-139z" />
    <glyph glyph-name="multiply.tab" 
d="M932 14l-369 371l-360 -367l-97 97l369 370l-369 369l101 100l366 -368l369 379l94 -99l-366 -372l368 -371z" />
    <glyph glyph-name="divide.tab" 
d="M600 643q-70 0 -120 51t-50 120t50 120t120 51t121 -51t51 -120t-51 -120t-121 -51zM598 -16q-70 0 -120 51t-50 120t50 119t120 52q70 0 121 -52t51 -120t-51 -119t-121 -51zM1085 418h-970v135h970v-135z" />
    <glyph glyph-name="equal.tab" 
d="M109 281v133h970v-133h-970zM109 600v133h970v-133h-970z" />
    <glyph glyph-name="less.tab" 
d="M1077 846l-798 -365l798 -360v-150l-966 451v121l966 450v-147z" />
    <glyph glyph-name="greater.tab" 
d="M113 119l798 364l-798 361v149l966 -450v-121l-966 -451v148z" />
    <glyph glyph-name="plusminus.tab" 
d="M1077 0h-971v139h971v-139zM1077 723h-411v-416h-148v416h-412v139h412v416h148v-416h411v-139z" />
    <glyph glyph-name="notequal.tab" 
d="M109 600v133h600l163 205h134l-166 -205h239v-133h-346l-151 -186h497v-133h-604l-166 -205h-127l164 205h-237v133h344l149 186h-493z" />
    <glyph glyph-name="approxequal.tab" 
d="M362 479q57 0 156 -22l135 -33q141 -33 185 -33t76 29q30 29 65 92l98 -49q-47 -99 -106 -149t-143 -50t-205 31l-134 35q-94 24 -138 24t-76 -31q-31 -33 -66 -96l-98 49q94 203 251 203zM362 807q57 0 156 -23l135 -32q141 -33 185 -33t76 29q30 29 65 92l98 -49
q-47 -99 -106 -149t-143 -50t-205 31l-134 34q-94 25 -138 25q-43 0 -75 -32t-67 -95l-98 49q94 203 251 203z" />
    <glyph glyph-name="lessequal.tab" 
d="M1079 0h-970v139h970v-139zM1079 932l-770 -287l770 -285v-143l-966 369v121l966 368v-143z" />
    <glyph glyph-name="greaterequal.tab" 
d="M1059 0h-971v139h971v-139zM858 645l-770 287v143l967 -368v-121l-967 -369v143z" />
    <glyph glyph-name="parenleft.tab" horiz-adv-x="614" 
d="M98 377q0 323 182 619t463 503h205q-594 -504 -594 -1212q1 -361 187 -656h-185q-121 137 -189 338q-69 201 -69 408z" />
    <glyph glyph-name="parenright.tab" horiz-adv-x="614" 
d="M496 754q0 -322 -182 -619t-464 -504h-204q594 504 594 1213q-1 360 -187 655h185q122 -137 190 -338t68 -407z" />
    <glyph glyph-name="bracketleft.tab" horiz-adv-x="614" 
d="M403 -371h-446l379 1872h446l-24 -121h-201l-330 -1630h201z" />
    <glyph glyph-name="bracketright.tab" horiz-adv-x="614" 
d="M207 1501h446l-379 -1872h-444l25 121h198l330 1630h-201z" />
    <glyph glyph-name="braceleft.tab" horiz-adv-x="614" 
d="M442 -371q-387 0 -313 359l80 383q16 81 -3 113t-87 36l-53 2l30 156l76 2q102 2 121 108l67 394q28 170 134 244t327 75h39l-22 -106q-115 0 -161 -44t-79 -200l-66 -315q-44 -211 -251 -240v-6q98 -31 137 -93t16 -182l-67 -348q-29 -139 -1 -185t140 -46l-23 -107h-41
z" />
    <glyph glyph-name="braceright.tab" horiz-adv-x="614" 
d="M172 1501q387 0 313 -358l-79 -383q-16 -82 3 -114t87 -36l53 -2l-31 -155l-76 -2q-102 -2 -120 -109l-68 -393q-29 -170 -134 -245t-327 -75h-39l23 107q115 0 161 44t78 200l66 315q45 211 252 240v6q-98 31 -137 93t-17 181l68 348q29 139 1 185t-140 47l22 106h41z
" />
    <glyph glyph-name="numbersign.tab" 
d="M549 780l-129 -348h268l129 348h-268zM221 780l25 123h221l117 314h129l-117 -314h268l117 314h129l-117 -314h215l-24 -123h-238l-129 -348h207l-25 -123h-229l-115 -309h-129l115 309h-266l-115 -309h-131l115 309h-207l24 123h230l129 348h-199z" />
    <glyph glyph-name="period.tab" horiz-adv-x="614" 
d="M238 -29q-76 1 -130 55t-54 129t54 130t131 55t131 -55t54 -130t-55 -129t-131 -55z" />
    <glyph glyph-name="comma.tab" horiz-adv-x="614" 
d="M201 -12q0 59 -34 104t-118 88q6 92 55 158q50 66 144 66t160 -74q66 -72 65 -205q1 -175 -151 -317t-390 -214l-47 95q170 77 243 143t73 156z" />
    <glyph glyph-name="colon.tab" horiz-adv-x="614" 
d="M379 662q-76 0 -130 54t-54 129t54 130t130 55t131 -54t55 -130t-55 -130t-131 -54zM244 -29q-76 1 -130 55t-54 129t54 130t130 55t131 -55t55 -130t-55 -129t-131 -55z" />
    <glyph glyph-name="semicolon.tab" horiz-adv-x="614" 
d="M373 682q-76 0 -130 54q-55 54 -55 129t54 130t132 55q77 0 131 -54t54 -130t-55 -130t-131 -54zM199 -12q0 59 -34 104t-118 88q6 92 55 158q50 66 144 66t160 -74q66 -72 65 -205q1 -175 -151 -317t-390 -214l-47 95q170 77 243 143t73 156z" />
    <glyph glyph-name="space.tab" horiz-adv-x="614" 
 />
    <glyph glyph-name="dollar.lintab" 
d="M489 1087q0 -131 152 -204l139 411q-14 2 -28 2q-119 0 -191 -62t-72 -147zM797 294q0 83 -40 128t-134 90l-146 -432q18 -2 53 -2q106 0 187 66q80 67 80 150zM803 1405h14l68 201h108l-71 -209q81 -10 169 -32q88 -23 97 -26l-70 -405h-86l-47 278q-43 37 -106 58
l-146 -430l123 -56q124 -57 188 -134t64 -195q0 -156 -104 -273t-248 -170t-291 -53h-29l-71 -215h-109l76 227q-61 10 -281 78l55 432h91l61 -331q47 -29 119 -50l153 453l-51 25q-147 68 -217 150t-69 220q0 178 181 318t429 139z" />
    <glyph glyph-name="Euro.lintab" 
d="M1120 1391q80 1 136 -59t57 -134q0 -117 -178 -205q-41 115 -113 174t-129 60q-88 0 -167 -86t-128 -236h336l-29 -127h-340q-14 -61 -20 -141h327l-28 -127h-303q0 -307 225 -307q110 -1 174 27t156 102l63 -78q-145 -158 -274 -224t-311 -67q-182 0 -282 128
q-99 128 -99 327q0 31 4 92h-117l29 127h106q14 68 41 141h-127l29 127h161q74 125 187 224t226 154q228 108 388 108z" />
    <glyph glyph-name="sterling.lintab" 
d="M1110 1528q88 0 169 -74t77 -149t-54 -111t-161 -49q-39 246 -131 246q-47 0 -83 -82t-89 -297l-90 -373h376l-28 -137h-391q-96 -252 -316 -404q29 -16 86 -53l92 -61q53 -35 141 -103q88 -69 141 -103q54 -34 91 -34q76 0 90 285q215 0 215 -135q0 -98 -135 -207
t-264 -109q-293 0 -561 318l-88 102q-104 -41 -167 -41t-99 38q-35 38 -35 94t41 98t115 42t200 -57q70 158 104 330h-194l28 137h199l62 262q39 168 121 296q83 128 180 197q186 134 358 134z" />
    <glyph glyph-name="yen.lintab" 
d="M129 563l25 113h254l-191 551l-123 18l23 115h678l-21 -111l-174 -26l154 -463h4l334 452l-162 37l22 111h437l-23 -111l-129 -37l-397 -536h297l-23 -113h-334l-26 -143h325l-26 -111h-320l-33 -170l183 -26l-23 -113h-721l23 113l194 26l33 170h-321l26 111h318l26 143
h-309z" />
    <glyph glyph-name="florin.lintab" 
d="M1108 1407q178 0 178 -160q0 -66 -57 -121t-146 -82q-12 100 -33 153q-22 52 -65 52q-66 0 -114 -98t-93 -332l-30 -151h342l-23 -133h-346l-39 -193q-39 -198 -116 -356q-76 -158 -160 -252t-178 -156q-167 -112 -289 -110q-90 0 -137 43q-46 43 -46 113t62 123
q62 52 151 71q36 -172 68 -197q14 -12 35 -12q94 0 155 266l146 660h-254l22 133h262l17 73q37 162 131 297t203 211q227 158 354 158z" />
    <glyph glyph-name="zero.lintab" 
d="M506 61q74 0 150 172q77 172 124 420q47 249 47 447t-79 198q-68 0 -145 -154t-131 -403q-54 -248 -54 -483q0 -94 24 -146t64 -51zM764 1403q196 0 316 -137t120 -380t-111 -479q-59 -123 -141 -223t-206 -162t-267 -63q-190 0 -306 145q-116 144 -116 376t89 440
t258 346q168 137 364 137z" />
    <glyph glyph-name="one.lintab" 
d="M1001 1386l-243 -1232l264 -35l-23 -119h-909l23 117l295 37l188 970l-326 -8l17 121l696 149h18z" />
    <glyph glyph-name="two.lintab" 
d="M557 1149q-105 0 -272 -131l-74 78q78 92 135 148q56 56 158 108t209 53q188 0 300 -102t113 -271q2 -200 -154 -360t-489 -353l-47 -26h629l-57 -293h-1014l43 158l297 213q129 94 215 171q86 78 156 186t69 212q0 209 -217 209z" />
    <glyph glyph-name="three.lintab" 
d="M268 430q99 -338 277 -338q90 0 147 52t58 135q0 256 -420 360l18 80q424 150 424 334q0 63 -42 100t-108 37t-127 -33q-60 -33 -157 -113l-66 72q221 291 512 291q154 0 246 -78t92 -202q0 -125 -96 -207t-309 -158v-8q365 -55 364 -332q0 -94 -44 -173
q-43 -79 -113 -129t-157 -86q-156 -65 -325 -66q-168 -1 -263 74t-95 200q0 61 48 113t136 75z" />
    <glyph glyph-name="four.lintab" 
d="M279 567h366l98 488zM358 111l201 22l43 213h-573l28 146l832 894l233 -26l-159 -793h176l-47 -221h-172l-41 -207l182 -28l-23 -111h-702z" />
    <glyph glyph-name="five.lintab" 
d="M720 889q169 0 275 -88t107 -250q0 -113 -47 -212t-120 -165q-151 -136 -333 -184q-84 -23 -153 -23q-187 -1 -289 59t-103 164q0 68 47 113t119 53q53 -131 124 -194q71 -64 177 -64t176 79q68 79 68 197t-69 186t-160 69q-91 0 -148 -24t-153 -87l-58 25l187 817h798
l-55 -293h-659l-52 -252q152 74 321 74z" />
    <glyph glyph-name="six.lintab" 
d="M659 782q-86 0 -167 -77q-78 -188 -78 -355t31 -228q32 -60 100 -61q103 -1 163 143t60 357q0 113 -25 167t-84 54zM1151 543q0 -250 -183 -415q-184 -165 -416 -165t-354 127t-122 383q0 168 89 337q184 350 605 536q215 94 453 114l18 -98q-483 -150 -698 -549h6
q121 107 268 107t241 -96t93 -281z" />
    <glyph glyph-name="seven.lintab" 
d="M481 0h-270l735 1040h-774l70 320h1007l-10 -60z" />
    <glyph glyph-name="eight.lintab" 
d="M759 1294q-77 0 -137 -56t-57 -157q0 -61 36 -107t108 -97l65 -50q162 127 162 275q-2 92 -51 142t-126 50zM548 72q104 0 171 63q68 63 65 158q0 68 -34 120q-35 52 -115 107l-121 86q-180 -135 -178 -313q2 -93 55 -157t157 -64zM780 1407q224 0 318 -84t96 -199
q0 -217 -344 -350l33 -24q71 -51 111 -88q40 -36 75 -98t35 -132q2 -199 -176 -336t-400 -137t-347 83q-126 83 -128 243q-2 129 107 222t280 152q-186 143 -188 317t151 303q153 128 377 128z" />
    <glyph glyph-name="nine.lintab" 
d="M611 582q71 0 147 69q92 215 92 387q0 268 -137 269q-101 1 -161 -141t-60 -311t24 -221t95 -52zM117 842q0 244 167 404t405 159q237 0 369 -138t132 -384q0 -168 -97 -343q-97 -176 -255 -314t-372 -228t-433 -98l-13 90q449 139 676 540h-2q-102 -78 -244 -78t-237 97
q-96 96 -96 293z" />
    <glyph glyph-name="percent.lintab" horiz-adv-x="1843" 
d="M1290 -39q-137 0 -224 90t-87 255t123 301t332 136q133 0 219 -92t86 -235q0 -182 -122 -318t-327 -137zM1417 645q-76 1 -127 -151t-51 -292t66 -141q67 -1 121 139t54 292t-63 153zM416 618q-136 0 -224 90t-88 256q0 164 123 300t332 137q133 0 219 -92t86 -236
q0 -183 -120 -319t-328 -136zM543 1303q-76 0 -127 -152t-51 -292q1 -140 67 -140t120 139t54 292t-63 153zM301 -102l1094 1552h153l-1093 -1552h-154z" />
    <glyph glyph-name="perthousand.lintab" horiz-adv-x="2457" 
d="M2095 645q-51 0 -103 -132t-50 -261t16 -160t49 -31q55 -1 105 137t49 262t-17 154q-16 31 -49 31zM1985 -39q-123 0 -207 91t-84 256t112 300q113 135 322 135q119 0 202 -93t83 -234q1 -186 -111 -320t-317 -135zM1280 645q-51 0 -103 -132q-53 -132 -51 -261t16 -160
t50 -31q55 -1 105 137q51 138 49 262t-18 154q-16 31 -48 31zM1167 -39q-123 0 -207 91t-83 256q0 165 112 300q113 135 322 135q119 0 201 -93t83 -234q0 -186 -111 -321q-112 -134 -317 -134zM199 -102l1093 1552h154l-1094 -1552h-153zM444 1303q-51 -1 -103 -133
t-50 -260t16 -160q14 -31 49 -31q55 0 106 137q50 137 48 261t-17 155q-16 31 -49 31zM334 618q-123 0 -207 92t-84 256t113 300t321 135q119 0 202 -93t83 -235q0 -187 -112 -321t-316 -134z" />
    <glyph glyph-name="numbersign.lintab" 
d="M569 924l-129 -349h269l129 349h-269zM242 924l24 123h221l117 313h129l-117 -313h269l116 313h129l-116 -313h215l-25 -123h-237l-129 -349h206l-24 -122h-229l-115 -310h-129l115 310h-267l-114 -310h-131l114 310h-207l25 122h229l129 349h-198z" />
    <glyph glyph-name="plus.lintab" 
d="M1137 559h-412v-416h-147v416h-412v139h412v416h147v-416h412v-139z" />
    <glyph glyph-name="minus.lintab" 
d="M1130 559h-970v139h970v-139z" />
    <glyph glyph-name="multiply.lintab" 
d="M1004 158l-369 370l-361 -366l-96 96l369 371l-369 368l101 101l366 -369l369 379l94 -98l-367 -373l369 -371z" />
    <glyph glyph-name="divide.lintab" 
d="M645 786q-70 0 -120 52t-50 120t50 119t120 51t121 -51t51 -120t-51 -120t-121 -51zM643 127q-70 0 -120 51t-50 120t50 120t120 51t121 -51t51 -120t-51 -120t-121 -51zM1130 561h-970v135h970v-135z" />
    <glyph glyph-name="equal.lintab" 
d="M160 424v133h970v-133h-970zM160 743v134h970v-134h-970z" />
    <glyph glyph-name="less.lintab" 
d="M1128 989l-798 -364l798 -361v-149l-966 450v121l966 451v-148z" />
    <glyph glyph-name="greater.lintab" 
d="M162 262l799 365l-799 360v150l966 -451v-121l-966 -450v147z" />
    <glyph glyph-name="plusminus.lintab" 
d="M1133 0h-971v139h971v-139zM1133 866h-412v-415h-148v415h-411v140h411v415h148v-415h412v-140z" />
    <glyph glyph-name="notequal.lintab" 
d="M160 743v134h600l164 204h133l-166 -204h239v-134h-346l-151 -186h497v-133h-604l-166 -205h-127l164 205h-237v133h344l149 186h-493z" />
    <glyph glyph-name="approxequal.lintab" 
d="M414 623q57 0 155 -23l136 -33q141 -33 185 -33t75 30q31 28 65 91l98 -49q-47 -100 -106 -149q-58 -49 -142 -49t-206 30l-133 35q-94 25 -138 25t-76 -32t-67 -95l-98 49q94 203 252 203zM890 862q44 0 75 29t65 92l98 -49q-47 -100 -106 -150q-58 -50 -142 -49
q-84 0 -206 31l-133 35q-94 25 -138 25t-76 -33q-32 -32 -67 -95l-98 50q94 203 252 202q57 0 155 -22l136 -33q141 -33 185 -33z" />
    <glyph glyph-name="lessequal.lintab" 
d="M1130 0h-970v139h970v-139zM1130 1075l-770 -287l770 -284v-144l-966 369v121l966 369v-144z" />
    <glyph glyph-name="greaterequal.lintab" 
d="M1130 0h-970v139h970v-139zM930 788l-770 287v144l966 -369v-121l-966 -369v144z" />
    <glyph glyph-name="parenleft.uctab" horiz-adv-x="614" 
d="M330 369q0 -361 186 -656h-184q-121 137 -190 338t-68 408q0 323 182 619t463 503h205q-594 -504 -594 -1212z" />
    <glyph glyph-name="parenright.uctab" horiz-adv-x="614" 
d="M131 1581h184q121 -137 190 -338t68 -407q0 -322 -182 -619t-463 -504h-204q594 504 593 1213q0 360 -186 655z" />
    <glyph glyph-name="bracketleft.uctab" horiz-adv-x="614" 
d="M424 -289h-447l379 1872h447l-25 -121h-200l-330 -1630h201z" />
    <glyph glyph-name="bracketright.uctab" horiz-adv-x="614" 
d="M213 1583h446l-378 -1872h-445l25 121h198l330 1630h-201z" />
    <glyph glyph-name="braceleft.uctab" horiz-adv-x="614" 
d="M438 -289q-387 0 -313 359l80 383q16 81 -3 113t-87 36l-54 2l31 156l76 2q102 2 121 108l67 394q29 170 134 244t327 75h39l-22 -106q-115 0 -161 -44t-79 -200l-66 -315q-45 -211 -252 -240v-6q98 -31 138 -93t16 -182l-68 -348q-29 -139 -1 -185t141 -46l-23 -107h-41
z" />
    <glyph glyph-name="braceright.uctab" horiz-adv-x="614" 
d="M215 1583q387 0 313 -358l-79 -383q-16 -82 3 -114t87 -36l53 -2l-31 -155l-76 -3q-102 -2 -120 -108l-68 -393q-29 -170 -134 -245t-327 -75h-39l23 107q115 0 161 44t78 199l66 316q45 210 252 239v7q-98 31 -137 93t-17 181l68 348q29 139 1 185t-140 47l22 106h41z
" />
    <glyph glyph-name="zero.num" horiz-adv-x="1085" 
d="M791 1092q0 88 -27 139t-76 51q-84 0 -147 -136t-64 -335q0 -91 28 -145t73 -56q84 -2 148 138t65 344zM563 510q-186 0 -296 113q-109 113 -109 293t153 324q154 144 391 144q176 0 292 -104t116 -282t-154 -334q-154 -154 -393 -154z" />
    <glyph glyph-name="one.num" horiz-adv-x="776" 
d="M98 545l15 100l190 21l100 491h-219l9 98l538 105h19l-142 -698l180 -17l-20 -100h-670z" />
    <glyph glyph-name="two.num" horiz-adv-x="856" 
d="M578 1075q0 63 -31 101t-92 38q-109 0 -224 -112l-71 61q160 229 395 230q129 0 215 -65t86 -175t-107 -201q-108 -90 -311 -200h418l-43 -207h-745l22 88l229 155q259 173 259 287z" />
    <glyph glyph-name="three.num" horiz-adv-x="841" 
d="M440 510q-168 0 -259 54q-89 54 -91 134q0 100 141 131q80 -225 232 -225q45 0 74 30t28 79q0 160 -264 196l14 97l66 12q111 20 163 60t52 85q0 88 -112 88t-228 -116l-76 63q88 104 178 145t220 41t212 -49q80 -49 80 -128t-74 -133t-194 -66v-4q134 -23 198 -71
t64 -134q0 -125 -128 -207t-296 -82z" />
    <glyph glyph-name="four.num" horiz-adv-x="933" 
d="M313 864h238l49 258zM487 545l33 170h-418l23 112l651 562l150 -23l-103 -502h150l-31 -149h-147l-35 -170h-273z" />
    <glyph glyph-name="five.num" horiz-adv-x="864" 
d="M399 508q-124 0 -208 42q-83 42 -80 107q2 80 149 113q35 -84 78 -124t119 -40q77 0 111 37t34 91t-54 90t-139 36t-202 -49l-27 14l123 535h584l-39 -201h-471l-33 -145q102 53 228 53t211 -59q85 -60 85 -174t-72 -189q-132 -137 -397 -137z" />
    <glyph glyph-name="six.num" horiz-adv-x="978" 
d="M547 604q69 0 111 80t42 160q0 142 -94 143q-66 0 -102 -22q-39 -89 -39 -225t82 -136zM556 508q-187 0 -290 94q-102 94 -102 256q0 232 215 380t575 179l11 -92q-186 -41 -285 -106q-98 -66 -152 -162q55 35 176 35t203 -65t82 -183q0 -152 -123 -244t-310 -92z" />
    <glyph glyph-name="seven.num" horiz-adv-x="823" 
d="M188 545l490 581h-498l56 234h686l-9 -45l-481 -770h-244z" />
    <glyph glyph-name="eight.num" horiz-adv-x="911" 
d="M707 1176q0 121 -125 118q-47 0 -75 -26t-28 -63q1 -37 21 -63t73 -50l56 -27q78 49 78 111zM492 602q68 0 106 30q37 30 37 79q0 68 -123 125l-80 36q-94 -43 -94 -145q0 -55 43 -90t111 -35zM493 510q-176 0 -277 59t-101 148q0 152 243 203q-143 86 -143 204t110 191
q111 71 279 71t243 -57t75 -125q0 -127 -209 -182q201 -98 201 -228t-123 -207q-122 -77 -298 -77z" />
    <glyph glyph-name="nine.num" horiz-adv-x="978" 
d="M616 1290q-70 0 -114 -77t-45 -159t29 -115q30 -32 84 -32t92 23q36 84 36 222t-82 138zM174 1051q0 151 123 243t313 92t289 -95q100 -95 100 -259q0 -229 -231 -386t-575 -175l-15 92q354 84 459 275q-55 -35 -177 -35q-122 1 -204 65t-82 183z" />
    <glyph glyph-name="zero.den" horiz-adv-x="1085" 
d="M592 737q-84 0 -148 -136t-63 -335q-1 -92 27 -145t73 -55q84 -2 149 138t64 343q0 88 -26 139q-27 51 -76 51zM467 -35q-186 0 -296 113t-110 293t154 324t391 145q176 0 292 -104t116 -283q0 -178 -154 -333t-393 -155z" />
    <glyph glyph-name="one.den" horiz-adv-x="776" 
d="M2 0l14 100l191 21l100 491h-219l8 99l539 104h18l-141 -698l180 -17l-20 -100h-670z" />
    <glyph glyph-name="two.den" horiz-adv-x="856" 
d="M760 608q0 -110 -108 -200t-310 -201h418l-43 -207h-746l23 88l229 156q123 82 191 152t68 134q-1 139 -124 140q-109 0 -223 -113l-72 61q160 229 396 230q129 0 215 -65t86 -175z" />
    <glyph glyph-name="three.den" horiz-adv-x="841" 
d="M344 -35q-168 0 -259 54q-89 54 -91 135q0 100 141 131q80 -225 232 -226q45 0 73 30t29 79q0 160 -264 197l14 96l66 12q111 21 163 61t52 84q0 88 -112 88t-228 -116l-76 63q88 103 178 145t220 42t211 -49t81 -129t-74 -133q-74 -54 -194 -66v-4q134 -23 198 -71
t64 -134q0 -125 -128 -207t-296 -82z" />
    <glyph glyph-name="four.den" horiz-adv-x="933" 
d="M217 319h238l49 259zM391 0l33 170h-418l23 113l651 561l149 -23l-102 -502h150l-31 -149h-148l-34 -170h-273z" />
    <glyph glyph-name="five.den" horiz-adv-x="864" 
d="M302 -37q-124 0 -207 42t-81 108q2 80 150 112q35 -84 78 -124q42 -40 118 -40t111 37t35 91q0 55 -54 91q-119 80 -341 -14l-27 15l123 534h584l-39 -201h-471l-33 -145q102 53 228 53t211 -59t85 -173t-73 -190t-173 -106t-224 -31z" />
    <glyph glyph-name="six.den" horiz-adv-x="978" 
d="M451 59q69 0 111 80t42 161q0 144 -94 142q-66 0 -102 -22q-39 -88 -39 -224t82 -137zM460 -37q-187 0 -290 94q-102 94 -102 256q0 231 215 379t575 180l10 -92q-186 -40 -284 -106t-152 -162q55 35 176 35t203 -65t82 -183q0 -152 -123 -244t-310 -92z" />
    <glyph glyph-name="seven.den" horiz-adv-x="823" 
d="M92 0l490 582h-498l55 233h686l-8 -45l-481 -770h-244z" />
    <glyph glyph-name="eight.den" horiz-adv-x="911" 
d="M610 630q0 120 -125 120q-47 0 -75 -26t-27 -64q0 -38 20 -63q20 -26 74 -50l55 -27q78 48 78 110zM396 57q68 0 106 30q37 30 37 79q0 68 -123 125l-80 37q-94 -43 -94 -146q0 -55 43 -90t111 -35zM397 -35q-176 -1 -277 59t-102 148q0 152 244 203q-143 86 -143 205
q-1 118 109 190t279 72t244 -58t74 -125q0 -127 -209 -182q201 -98 201 -228t-122 -207t-298 -77z" />
    <glyph glyph-name="nine.den" horiz-adv-x="978" 
d="M520 745q-70 -1 -114 -77t-46 -185q0 -57 30 -89t84 -32t91 23q37 84 37 222t-82 138zM514 842q190 0 289 -96q100 -96 100 -259q0 -229 -231 -386t-576 -175l-14 92q354 84 459 275q-55 -35 -177 -35t-204 65t-82 183q0 152 123 244t313 92z" />
    <glyph glyph-name="zero.sub" horiz-adv-x="1085" 
d="M442 -180q84 -2 149 138t64 343q0 88 -26 139q-27 51 -76 52q-84 0 -147 -136t-64 -336q0 -92 28 -145t72 -55zM428 -281q-186 0 -296 113q-110 114 -110 294t154 324t391 144q176 0 292 -104t116 -283q1 -178 -153 -333t-394 -155z" />
    <glyph glyph-name="one.sub" horiz-adv-x="776" 
d="M-37 -246l14 101l191 20l100 492h-219l8 98l539 104h18l-141 -698l180 -16l-20 -101h-670z" />
    <glyph glyph-name="two.sub" horiz-adv-x="856" 
d="M420 602q129 0 215 -64t86 -176q0 -110 -108 -200t-310 -201h418l-43 -207h-746l23 88l229 156q258 173 258 287q-1 139 -123 139q-109 0 -223 -113l-71 62q160 229 395 229z" />
    <glyph glyph-name="three.sub" horiz-adv-x="841" 
d="M304 -281q-168 1 -258 55t-91 134q0 100 141 131q80 -225 232 -225q46 0 74 30t28 78q0 160 -264 197l14 96l66 12q111 21 163 61t52 85q0 88 -112 88t-228 -117l-76 64q88 104 178 145t220 41t211 -49t81 -128q1 -79 -73 -133t-195 -67v-4q135 -23 199 -71t63 -134
q0 -125 -128 -207q-129 -82 -297 -82z" />
    <glyph glyph-name="four.sub" horiz-adv-x="933" 
d="M178 74h238l49 258zM352 -246l33 170h-418l23 113l651 561l150 -23l-103 -501h150l-31 -150h-148l-34 -170h-273z" />
    <glyph glyph-name="five.sub" horiz-adv-x="864" 
d="M263 -283q-124 0 -207 42t-81 108q2 80 150 113q35 -84 78 -124t119 -40t110 37t35 91q0 54 -54 90t-139 36t-202 -50l-27 15l123 534h584l-39 -200h-471l-33 -146q102 53 228 53t211 -59t85 -173t-73 -189q-133 -138 -397 -138z" />
    <glyph glyph-name="six.sub" horiz-adv-x="978" 
d="M412 -186q68 0 110 80t43 160q0 142 -94 143q-66 0 -102 -23q-39 -88 -39 -224t82 -136zM854 53q0 -152 -123 -244t-310 -92q-187 1 -289 95t-103 256q0 231 215 379t575 180l10 -92q-186 -41 -284 -107t-152 -162q55 35 176 35q121 -1 203 -65t82 -183z" />
    <glyph glyph-name="seven.sub" horiz-adv-x="823" 
d="M53 -246l490 582h-498l55 233h686l-8 -45l-481 -770h-244z" />
    <glyph glyph-name="eight.sub" horiz-adv-x="911" 
d="M452 504q-52 0 -80 -26t-28 -64t20 -63q20 -26 74 -50l56 -27q78 48 78 110t-34 91t-86 29zM203 -63q0 -55 43 -90q44 -35 112 -35t105 30t37 78q0 68 -123 125l-80 37q-94 -43 -94 -145zM358 -281q-176 -1 -277 59t-101 148q0 152 243 203q-143 86 -143 205
q0 118 110 190t278 72q169 0 244 -57t74 -125q0 -127 -208 -183q200 -98 200 -228t-122 -207t-298 -77z" />
    <glyph glyph-name="nine.sub" horiz-adv-x="978" 
d="M481 500q-71 0 -115 -77t-44 -159t29 -116q31 -32 85 -32t90 23q37 85 37 223t-82 138zM474 596q190 0 290 -95t100 -259q0 -229 -231 -386t-576 -175l-14 92q354 84 459 274q-55 -35 -177 -35t-204 65t-82 183q0 152 123 244q122 92 312 92z" />
    <glyph glyph-name="plus.sub" horiz-adv-x="880" 
d="M242 -219l61 307h-291l27 125h291l61 305h135l-61 -305h291l-27 -125h-291l-61 -307h-135z" />
    <glyph glyph-name="minus.sub" horiz-adv-x="880" 
d="M729 88h-717l27 125h717z" />
    <glyph glyph-name="zero.sup" horiz-adv-x="1085" 
d="M842 1174q0 88 -27 139t-76 51q-84 0 -147 -136t-64 -335q0 -91 28 -145t73 -56q85 -2 149 138t64 344zM614 592q-186 0 -296 113t-110 293t154 324t392 144q176 0 292 -104t116 -282t-154 -334q-154 -154 -394 -154z" />
    <glyph glyph-name="one.sup" horiz-adv-x="776" 
d="M150 627l14 100l190 21l101 491h-219l8 98l538 105h19l-142 -699l181 -16l-21 -100h-669z" />
    <glyph glyph-name="two.sup" horiz-adv-x="856" 
d="M629 1157q0 63 -31 101t-92 38q-109 0 -223 -112l-72 61q160 229 395 230q129 0 215 -65t86 -175t-107 -201q-108 -90 -311 -200h418l-43 -207h-745l22 88l230 155q258 172 258 287z" />
    <glyph glyph-name="three.sup" horiz-adv-x="841" 
d="M490 592q-168 0 -258 54q-89 54 -91 134q0 100 142 131q80 -225 231 -225q45 0 74 30t28 79q0 160 -264 196l15 96l65 13q111 20 163 60t52 85q1 88 -111 88t-229 -116l-76 63q89 104 179 145t220 41t211 -49t81 -128t-74 -133t-195 -66v-5q135 -23 199 -70
q63 -48 63 -134q0 -125 -128 -207q-129 -82 -297 -82z" />
    <glyph glyph-name="four.sup" horiz-adv-x="933" 
d="M365 946h237l49 258zM539 627l32 170h-417l22 112l651 561l150 -22l-103 -502h150l-31 -149h-147l-35 -170h-272z" />
    <glyph glyph-name="five.sup" horiz-adv-x="864" 
d="M450 590q-124 0 -207 42t-81 107q2 80 149 113q35 -84 78 -124t119 -40t110 37t35 91q0 54 -54 90t-139 36t-202 -49l-27 14l123 535h584l-39 -201h-471l-33 -145q103 53 229 53t211 -59q85 -60 85 -174t-73 -189q-132 -137 -397 -137z" />
    <glyph glyph-name="six.sup" horiz-adv-x="978" 
d="M598 686q68 0 111 80t43 160q0 142 -95 143q-66 0 -102 -22q-39 -89 -39 -225t82 -136zM1040 926q0 -152 -123 -244t-310 -92t-290 94q-102 94 -102 256q0 232 215 380t576 179l10 -92q-186 -41 -284 -107t-152 -161q55 35 176 35q120 0 202 -65t82 -183z" />
    <glyph glyph-name="seven.sup" horiz-adv-x="823" 
d="M240 627l489 581h-498l56 234h686l-8 -45l-482 -770h-243z" />
    <glyph glyph-name="eight.sup" horiz-adv-x="911" 
d="M758 1258q0 121 -125 118q-47 0 -75 -26t-28 -63t20 -63t75 -50l55 -27q78 49 78 111zM544 684q68 0 105 30t37 79q0 68 -123 125l-80 36q-94 -43 -94 -145q0 -55 43 -90q44 -35 112 -35zM965 876q0 -130 -122 -208q-122 -76 -298 -76t-278 59q-101 59 -101 148
q0 152 244 202q-144 86 -144 205t110 191q110 71 278 71t244 -57q75 -57 75 -125q0 -127 -209 -182q201 -98 201 -228z" />
    <glyph glyph-name="nine.sup" horiz-adv-x="978" 
d="M668 1372q-70 0 -115 -77t-45 -159t30 -115q30 -32 84 -32t91 23q37 84 37 222t-82 138zM225 1133q0 151 123 243q122 92 312 92t290 -95t101 -259q1 -229 -231 -386t-576 -175l-15 92q354 84 459 275q-55 -35 -177 -35q-122 1 -204 65t-82 183z" />
    <glyph glyph-name="plus.sup" horiz-adv-x="880" 
d="M428 653l61 308h-290l26 124h291l62 306h135l-62 -306h291l-27 -124h-290l-62 -308h-135z" />
    <glyph glyph-name="minus.sup" horiz-adv-x="880" 
d="M915 961h-716l26 124h717z" />
    <glyph glyph-name="a.ord" horiz-adv-x="980" 
d="M422 709q55 -1 141 109t129 251l39 131q-33 49 -63 49q-74 0 -174 -179t-101 -308q0 -53 29 -53zM289 512q-78 0 -120 45t-40 119q0 121 55 243q105 233 327 356q103 56 198 56q39 0 88 -24l14 43h223l-172 -645h6q78 37 131 112l41 -31q-43 -98 -147 -181t-193 -83
t-108 79q-10 42 18 114l39 104h-12q-178 -307 -348 -307z" />
    <glyph glyph-name="b.ord" horiz-adv-x="950" 
d="M487 592q84 0 159 182t75 371q0 43 -31 43q-72 0 -152 -150t-130 -303l-17 -65q8 -38 36 -58t60 -20zM473 514q-139 0 -295 115l-39 28l205 844l-115 45l9 43l417 99l-161 -601h10q72 127 144 194q73 67 167 67q184 0 184 -240t-139 -417t-387 -177z" />
    <glyph glyph-name="c.ord" horiz-adv-x="770" 
d="M584 1237q-68 0 -119 -141t-51 -247q0 -105 22 -131t62 -26q96 0 233 170l45 -37q-41 -92 -141 -192q-121 -121 -293 -121q-90 0 -146 73t-57 181q0 176 82 301q81 125 221 204t256 79q72 0 121 -37t49 -82t-41 -93t-82 -69q-39 55 -60 84q-64 84 -101 84z" />
    <glyph glyph-name="d.ord" horiz-adv-x="1028" 
d="M652 1262q-48 0 -103 -87t-89 -199t-34 -185t31 -72q55 1 150 147t126 275l10 51q-43 70 -91 70zM653 1343q61 0 117 -34l45 192l-115 45l9 43l413 99l-245 -983h4q80 39 133 112l39 -31q-43 -98 -147 -181t-204 -83q-63 0 -89 51t8 142l38 106h-12q-74 -135 -164 -222
t-173 -87q-171 0 -171 223q0 119 68 259t190 245q123 104 256 104z" />
    <glyph glyph-name="e.ord" horiz-adv-x="788" 
d="M668 1206q0 47 -48 47t-110 -90t-86 -211q98 35 171 111t73 143zM383 512q-125 0 -184 68t-59 201t82 263q83 130 219 217q136 88 276 89q166 0 166 -144q1 -123 -145 -212t-324 -122v-28q0 -86 24 -119t78 -33t116 43t107 96l39 -38q-54 -97 -162 -189t-233 -92z" />
    <glyph glyph-name="f.ord" horiz-adv-x="647" 
d="M858 1688q66 0 106 -39t40 -89t-44 -96t-90 -65q-47 92 -75 128q-29 36 -72 36q-80 0 -127 -250l-4 -15h190l-16 -106h-195l-73 -383q-31 -162 -100 -288q-68 -127 -146 -193q-158 -136 -268 -133q-70 0 -114 41t-44 95t43 93t113 51q25 -90 44 -129t50 -39q66 0 104 201
l129 684h-125l19 106h137q51 127 161 222q197 168 357 168z" />
    <glyph glyph-name="g.ord" horiz-adv-x="923" 
d="M287 379q0 -102 205 -103q74 0 134 28t60 66t-82 56l-219 45q-98 -18 -98 -92zM614 1270q-61 0 -113 -122t-52 -228t54 -107q54 0 110 115q56 114 56 228t-55 114zM616 1348q53 0 168 -33l279 22l-53 -166l-140 41l-2 -6q41 -59 41 -139q0 -137 -123 -232t-286 -96
q-39 0 -58 4q-47 -16 -47 -41q0 -33 70 -45l235 -43q199 -37 199 -159q0 -88 -88 -153q-88 -64 -188 -90t-181 -26q-389 0 -389 154q0 55 52 88t169 61v5q-96 31 -96 116q0 47 48 87t136 65v6q-72 32 -112 98t-41 148q-1 152 113 243t294 91z" />
    <glyph glyph-name="h.ord" horiz-adv-x="983" 
d="M874 1350q70 0 100 -44t1 -165l-111 -436h4q80 39 133 112l39 -31q-43 -100 -146 -187t-200 -87q-59 0 -88 49t-2 152l105 395q14 57 -11 57q-41 0 -167 -217t-164 -352l-13 -43l-213 -39l-43 27l238 960l-115 45l8 43l408 99l-172 -707h12q75 132 171 251
q96 118 226 118z" />
    <glyph glyph-name="i.ord" horiz-adv-x="542" 
d="M358 1576q0 62 42 106t102 44t102 -44q43 -44 43 -106t-43 -106t-102 -45q-59 0 -102 44q-42 45 -42 107zM254 512q-59 0 -87 48t-1 153l113 465l-117 30l10 45q156 100 272 101q133 0 88 -199l-108 -450h6q78 37 131 112l39 -31q-43 -100 -146 -187t-200 -87z" />
    <glyph glyph-name="j.ord" horiz-adv-x="552" 
d="M403 1576q0 62 42 106q41 44 101 44t103 -44t43 -106t-43 -106t-102 -45q-59 0 -102 44q-42 45 -42 107zM-170 336q0 62 36 95q36 34 118 54q20 -162 71 -161q55 0 133 315q7 21 9 31l127 508l-117 30l10 45q156 100 272 101q61 0 87 -48t2 -149l-95 -397
q-57 -230 -204 -398t-293 -167q-66 -1 -111 39t-45 102z" />
    <glyph glyph-name="k.ord" horiz-adv-x="901" 
d="M762 1101q0 64 -51 64t-128 -97t-143 -237l11 3q155 57 233 130t78 137zM810 481q-81 0 -167 65t-145 167l-64 104q-51 -115 -76 -223l-10 -41l-207 -39l-43 27l238 960l-115 45l8 43l408 99l-168 -660h12q174 322 346 322q66 0 106 -43t42 -105q4 -98 -64 -176
t-249 -158l10 2l264 -342v-28q-45 -19 -126 -19z" />
    <glyph glyph-name="l.ord" horiz-adv-x="530" 
d="M242 512q-59 0 -87 48t-1 153l188 788l-115 45l9 43l413 99l-237 -983h6q78 39 131 112l39 -31q-42 -100 -146 -187t-200 -87z" />
    <glyph glyph-name="m.ord" horiz-adv-x="1464" 
d="M1176 512q-57 0 -86 49t-3 152l103 395q16 57 -10 57q-45 0 -165 -208t-159 -359l-12 -45l-217 -39l-45 27l147 567q14 57 -12 57q-45 0 -166 -210t-160 -359l-12 -43l-215 -39l-45 27l162 637l-117 30l10 45q174 100 285 101q131 0 67 -209l-61 -193h14q217 397 404 398
q53 0 82 -16t41 -61q12 -46 -19 -130l-61 -191h14q223 397 406 398q82 0 112 -44t-2 -165l-108 -436h4q76 37 133 112l39 -31q-42 -100 -146 -187t-202 -87z" />
    <glyph glyph-name="n.ord" horiz-adv-x="1011" 
d="M723 512q-57 0 -86 49t-2 152l102 395q16 57 -10 57q-45 0 -169 -212t-163 -359l-12 -41l-219 -39l-45 27l162 637l-117 30l10 45q174 100 285 101q131 0 67 -209l-61 -193h14q217 397 414 398q82 0 112 -44t-1 -165l-109 -436h4q76 37 133 112l39 -31
q-43 -100 -146 -187t-202 -87z" />
    <glyph glyph-name="o.ord" horiz-adv-x="948" 
d="M680 1350q141 0 227 -92t86 -244q0 -198 -144 -350t-374 -152q-143 0 -229 92t-86 244q0 198 144 350t376 152zM653 1272q-75 0 -145 -198t-70 -340t60 -142q78 0 147 198q70 198 70 340t-62 142z" />
    <glyph glyph-name="p.ord" horiz-adv-x="983" 
d="M528 598q82 0 157 161t75 324q0 59 -25 103t-73 43q-23 0 -60 -12l-135 -580q28 -39 61 -39zM808 1358q98 0 161 -62t63 -188q0 -125 -58 -257t-176 -231t-259 -100q-55 0 -97 19l-55 -238h186l-22 -96h-561l10 67q16 8 57 22l74 25l176 756l-164 -92l-24 66
q80 55 215 135l59 256h232l-29 -127q114 45 212 45z" />
    <glyph glyph-name="q.ord" horiz-adv-x="983" 
d="M459 719q53 0 151 147t125 275l10 49q-43 72 -91 72t-103 -87t-89 -199t-34 -184t31 -73zM312 512q-171 0 -171 223q0 119 68 259t189 245q122 104 255 104q76 0 148 -55l12 55h227l-252 -1042h132l-31 -96h-498l19 76l114 20l138 520h-13q-74 -135 -164 -222t-173 -87z
" />
    <glyph glyph-name="r.ord" horiz-adv-x="831" 
d="M928 1219q0 -63 -39 -119t-84 -80h-80q23 43 25 86t-23 65q-82 -78 -184 -280q-98 -203 -131 -338l-219 -39l-46 27l46 186l100 451l-115 28l8 47q141 98 246 99q156 0 84 -230l-86 -270h25l28 70q21 50 33 76t33 72q71 163 161 242q41 38 98 39q56 1 88 -34t32 -98z" />
    <glyph glyph-name="s.ord" horiz-adv-x="690" 
d="M406 1165q0 -23 17 -41t71 -57l88 -55q74 -52 98 -94t25 -91q1 -127 -131 -223t-267 -96q-79 0 -145 53t-66 128t70 177h12q141 -240 271 -239q68 0 67 57q0 47 -104 121l-72 45q-123 74 -123 190t138 217q138 100 266 101q55 0 107 -42t52 -115t-59 -167h-12
q-51 61 -80 91t-75 59q-46 28 -97 28t-51 -47z" />
    <glyph glyph-name="t.ord" horiz-adv-x="686" 
d="M301 514q-57 0 -93 52t-18 130l129 527h-126l16 106h147l88 184h185l-35 -184h184l-16 -106h-180l-123 -506l4 -4q119 53 219 205l39 -31q-59 -129 -179 -251t-241 -122z" />
    <glyph glyph-name="u.ord" horiz-adv-x="993" 
d="M432 705q20 0 92 100t141 237t103 271l213 41l45 -29l-152 -620h5q76 37 133 112l39 -31q-43 -100 -147 -187t-199 -87q-66 0 -90 47t10 166l73 223h-10q-12 -20 -53 -91q-70 -121 -162 -231q-93 -110 -205 -110q-68 0 -98 52t-2 157l111 455l-115 30l10 45
q158 101 245 101t111 -48t-6 -190l-94 -356q-18 -57 2 -57z" />
    <glyph glyph-name="v.ord" horiz-adv-x="843" 
d="M727 1074q0 64 -27 88q-28 26 -66 26t-77 -14l10 63q106 109 226 109q59 0 98 -39t39 -95q0 -109 -77 -209t-177 -205q-101 -104 -141 -149l-119 -129h-15l-110 41l-41 608q-54 32 -131 2l12 66q102 109 225 109q68 0 106 -39t40 -152l12 -432q117 131 165 209t48 142z
" />
    <glyph glyph-name="w.ord" horiz-adv-x="1253" 
d="M1135 1078q0 60 -26 84q-25 26 -63 26t-81 -14l12 63q106 109 225 109q62 0 100 -38q60 -59 26 -176q-13 -49 -64 -122q-50 -74 -97 -126l-71 -78q-24 -26 -80 -82q-57 -56 -74 -75l-129 -135h-29l-96 45l-4 254h-4q-39 -41 -150 -147l-147 -152h-21l-98 33l-18 624
q-20 15 -58 15t-69 -15l12 66q109 109 227 109q66 0 103 -41t37 -146l-4 -426h4q117 109 180 203l-8 235q-18 15 -56 15t-69 -15l12 66q109 109 227 109q62 0 100 -36t36 -147l-5 -438h7q137 157 175 225t38 128z" />
    <glyph glyph-name="x.ord" horiz-adv-x="956" 
d="M679 514q-54 0 -78 20t-46 89l-70 196l-30 -57q-74 -134 -128 -192q-55 -58 -115 -58t-99 34t-39 87t21 94q22 41 44 55l23 17l43 -33q67 -47 113 -30t106 102l37 53l-49 143q-23 72 -37 99q-15 27 -35 27q-78 -2 -88 -210h-62q-6 190 61 294t183 104q72 0 117 -40
t78 -141l37 -108l63 112q55 97 102 139t101 42t88 -35q33 -35 33 -100q0 -119 -133 -207h-64q16 47 12 88t-28 41t-50 -32q-28 -32 -56 -74t-42 -54l92 -270h2q84 37 138 110l39 -31q-41 -94 -135 -184t-149 -90z" />
    <glyph glyph-name="y.ord" horiz-adv-x="874" 
d="M375 1346q223 0 237 -369q6 -178 -69 -432h8q102 150 151 255t72 224q-14 139 -82 266q66 55 152 56q39 0 77 -31t37 -94q0 -150 -122 -378t-306 -423q-217 -238 -424 -238q-59 0 -98 36t-39 92t35 92t92 36q104 0 142 -143h10q119 238 119 551t-80 313q-35 0 -58 -55
t-28 -154h-64q-3 144 57 270t181 126z" />
    <glyph glyph-name="z.ord" horiz-adv-x="905" 
d="M586 510q-45 0 -92 20t-148 78l-61 33l-113 -131l-72 76l537 463l-133 53q-88 35 -148 37t-63 -25q-6 -22 37 -52t127 -56q-109 -133 -176 -134q-47 0 -78 30t-31 72q0 92 76 224q37 66 102 113q66 47 149 47t226 -76l111 -59l106 133l74 -84l-537 -461l88 -37
q83 -43 141 -31q58 13 92 55t68 134l54 -21q-55 -201 -131 -301t-205 -100z" />
    <glyph glyph-name="egrave.ord" horiz-adv-x="788" 
d="M668 1206q0 47 -48 47t-110 -90t-86 -211q98 35 171 111t73 143zM471 1735h213l55 -305h-100l-168 276v29zM383 512q-125 0 -184 68t-59 201t82 263q83 130 219 217q136 88 276 89q166 0 166 -144q1 -123 -145 -212t-324 -122v-28q0 -86 24 -119t78 -33t116 43t107 96
l39 -38q-54 -97 -162 -189t-233 -92z" />
    <glyph glyph-name="uacute.ord" horiz-adv-x="993" 
d="M432 705q20 0 92 100t141 237t103 271l213 41l45 -29l-152 -620h5q76 37 133 112l39 -31q-43 -100 -147 -187t-199 -87q-66 0 -90 47t10 166l73 223h-10q-12 -20 -53 -91q-70 -121 -162 -231q-93 -110 -205 -110q-68 0 -98 52t-2 157l111 455l-115 30l10 45
q158 101 245 101t111 -48t-6 -190l-94 -356q-18 -57 2 -57zM928 1735v-29l-199 -276h-102l90 305h211z" />
    <glyph glyph-name="A.alt" horiz-adv-x="1566" 
d="M932 1112l-387 -555h389l2 555h-4zM932 399h-496l-162 -233l213 -51l-22 -115h-526l20 106l117 44l901 1189l129 11l158 43l39 -1258l139 -24l-21 -111h-684l25 115l170 24v260z" />
    <glyph glyph-name="M.alt" horiz-adv-x="2086" 
d="M-61 0l22 113l170 41l318 1065l-170 28l22 113h608l127 -760l402 760h571l-22 -113l-164 -28l-23 -1082l162 -24l-20 -113h-719l22 115l187 24l28 991l-465 -860l-106 -223h-119l-27 219l-165 885h-5l-274 -981l215 -61l-22 -109h-553z" />
    <glyph glyph-name="V.alt" horiz-adv-x="1488" 
d="M383 -23l-55 1242l-135 26l22 115h678l-23 -115l-159 -31l14 -870h4l571 854l-198 47l22 115h480l-23 -115l-102 -35l-856 -1233h-240z" />
    <glyph glyph-name="W.alt" horiz-adv-x="2115" 
d="M1044 -23l56 871l-621 -871h-241l75 1242l-145 26l20 115h662l-23 -115l-151 -26l-66 -854l504 716l10 140l-133 24l23 115h635l-23 -115l-156 -28l-63 -838l539 813l-146 53l23 115h430l-21 -115l-102 -41l-858 -1227h-228z" />
    <glyph glyph-name="h.alt" horiz-adv-x="1202" 
d="M950 1042q199 0 199 -227q0 -162 -65 -325q-120 -301 -358 -458q-105 -71 -187 -71q-102 0 -103 94q0 63 47 117q98 -45 144 -45q61 101 113 283t53 288q0 70 -56 70q-69 0 -155 -116t-148 -253t-92 -245l-39 -140l-274 -51l-58 35l330 1296l-151 58l12 55l526 121
l-233 -930h10q137 232 246 338t239 106z" />
    <glyph glyph-name="v.alt" horiz-adv-x="1361" 
d="M1200 1044q152 0 152 -183q0 -89 -58 -239q-139 -364 -369 -548q-132 -104 -263 -104t-216 76q-84 77 -84 200t48 220q47 97 137 216l49 63h-201q-193 0 -200 -65q-8 -79 165 -111q-32 -111 -64 -153t-95 -41q-63 0 -104 46q-40 45 -40 113q0 120 74 253q74 132 200 191
q73 34 156 34h353v-49l-29 -58q-84 -168 -115 -249q-75 -197 10 -304q48 -59 150 -59t192 96q89 96 107 197q-37 221 -113 403q82 55 158 55z" />
    <glyph glyph-name="w.alt" horiz-adv-x="1787" 
d="M868 1012v-49l-28 -50q-16 -27 -75 -125t-83 -151q-33 -74 -39 -139q-12 -205 166 -205q117 0 201 123q13 289 30 510l7 53q61 66 165 65q64 0 98 -44t17 -117q-55 -178 -199 -477q41 -131 201 -132q113 0 181 71t75 153q-18 254 -117 491q82 55 158 55q152 0 152 -190
q0 -226 -119 -529q-59 -151 -174 -253t-252 -102t-193 62t-55 193q-65 -121 -151 -189t-216 -67q-130 0 -202 71q-72 70 -72 194t63 233q62 109 168 225l50 53h-201q-221 0 -229 -65q-8 -79 163 -111q-30 -111 -62 -153t-95 -41q-63 0 -104 46q-40 45 -40 113q0 120 74 253
q74 132 200 191q73 34 156 34h381z" />
    <glyph glyph-name="Aacute.alt" horiz-adv-x="1566" 
d="M1495 1792v-45l-293 -240h-170l170 285h293zM932 1112l-387 -555h389l2 555h-4zM932 399h-496l-162 -233l213 -51l-22 -115h-526l20 106l117 44l901 1189l129 11l158 43l39 -1258l139 -24l-21 -111h-684l25 115l170 24v260z" />
    <glyph glyph-name="Abreve.alt" horiz-adv-x="1566" 
d="M1128 1483q-150 0 -215 94q-63 94 -51 221h111q31 -129 183 -129t224 129h107q-31 -133 -120 -224t-239 -91zM932 1112l-387 -555h389l2 555h-4zM932 399h-496l-162 -233l213 -51l-22 -115h-526l20 106l117 44l901 1189l129 11l158 43l39 -1258l139 -24l-21 -111h-684
l25 115l170 24v260z" />
    <glyph glyph-name="Acircumflex.alt" horiz-adv-x="1566" 
d="M963 1507h-160l272 285h219l154 -285h-141l-150 119zM932 1112l-387 -555h389l2 555h-4zM932 399h-496l-162 -233l213 -51l-22 -115h-526l20 106l117 44l901 1189l129 11l158 43l39 -1258l139 -24l-21 -111h-684l25 115l170 24v260z" />
    <glyph glyph-name="Adieresis.alt" horiz-adv-x="1566" 
d="M1411 1470q-66 0 -113 48t-47 112q0 66 47 114t113 48t114 -48t48 -114t-48 -113t-114 -47zM901 1470q-66 0 -113 48t-47 112q0 66 47 114t113 48t113 -48t47 -114t-47 -113t-113 -47zM932 1112l-387 -555h389l2 555h-4zM932 399h-496l-162 -233l213 -51l-22 -115h-526
l20 106l117 44l901 1189l129 11l158 43l39 -1258l139 -24l-21 -111h-684l25 115l170 24v260z" />
    <glyph glyph-name="Agrave.alt" horiz-adv-x="1566" 
d="M831 1792h295l99 -285h-172l-222 240v45zM932 1112l-387 -555h389l2 555h-4zM932 399h-496l-162 -233l213 -51l-22 -115h-526l20 106l117 44l901 1189l129 11l158 43l39 -1258l139 -24l-21 -111h-684l25 115l170 24v260z" />
    <glyph glyph-name="Amacron.alt" horiz-adv-x="1566" 
d="M846 1556l35 164h594l-35 -164h-594zM932 1112l-387 -555h389l2 555h-4zM932 399h-496l-162 -233l213 -51l-22 -115h-526l20 106l117 44l901 1189l129 11l158 43l39 -1258l139 -24l-21 -111h-684l25 115l170 24v260z" />
    <glyph glyph-name="Aogonek.alt" horiz-adv-x="1566" 
d="M932 1112l-387 -555h389l2 555h-4zM819 -231q0 -51 35 -82t81 -31t85 22t96 74l51 -47q-41 -63 -60 -91t-63 -76q-81 -87 -199 -88q-117 0 -185 60t-68 150q0 46 20 90t42 69q22 26 48 56t67 66q42 36 88 79t75 70v309h-496l-162 -233l213 -51l-22 -115h-526l20 106
l117 44l901 1189l129 11l158 43l39 -1258l139 -24l-21 -111h-399q-203 -96 -203 -231z" />
    <glyph glyph-name="Aring.alt" horiz-adv-x="1566" 
d="M1044 1694q0 -56 37 -94t90 -38t91 37q36 37 36 95t-36 94q-36 37 -90 37t-91 -37t-37 -94zM924 1693q0 103 71 173q72 70 176 70t177 -69q72 -69 72 -172t-72 -173t-176 -70t-177 69q-71 69 -71 172zM932 1112l-387 -555h389l2 555h-4zM932 399h-496l-162 -233l213 -51
l-22 -115h-526l20 106l117 44l901 1189l129 11l158 43l39 -1258l139 -24l-21 -111h-684l25 115l170 24v260z" />
    <glyph glyph-name="Aringacute.alt" horiz-adv-x="1566" 
d="M1565 2261v-45l-293 -240h-170l170 285h293zM1016 1679q0 -57 37 -94t90 -37t90 37t37 94t-37 95t-90 36q-53 0 -90 -37t-37 -94zM895 1678q0 103 72 173t176 70t176 -69t72 -172t-72 -173q-72 -69 -176 -69t-176 68t-72 172zM932 1112l-387 -555h389l2 555h-4zM932 399
h-496l-162 -233l213 -51l-22 -115h-526l20 106l117 44l901 1189l129 11l158 43l39 -1258l139 -24l-21 -111h-684l25 115l170 24v260z" />
    <glyph glyph-name="Atilde.alt" horiz-adv-x="1566" 
d="M932 1112l-387 -555h389l2 555h-4zM1145 1546l-55 19q-156 51 -210 8q-26 -20 -65 -80l-74 41l11 27q84 233 234 229q71 -2 159 -29l55 -18q158 -47 199 -36t108 103l76 -38l-14 -31q-76 -176 -174 -215t-250 20zM932 399h-496l-162 -233l213 -51l-22 -115h-526l20 106
l117 44l901 1189l129 11l158 43l39 -1258l139 -24l-21 -111h-684l25 115l170 24v260z" />
    <glyph glyph-name="Wacute.alt" horiz-adv-x="2115" 
d="M1724 1792v-45l-292 -240h-170l170 285h292zM1044 -23l56 871l-621 -871h-241l75 1242l-145 26l20 115h662l-23 -115l-151 -26l-66 -854l504 716l10 140l-133 24l23 115h635l-23 -115l-156 -28l-63 -838l539 813l-146 53l23 115h430l-21 -115l-102 -41l-858 -1227h-228z
" />
    <glyph glyph-name="Wcircumflex.alt" horiz-adv-x="2115" 
d="M1194 1507h-160l273 285h219l153 -285h-141l-149 119zM1044 -23l56 871l-621 -871h-241l75 1242l-145 26l20 115h662l-23 -115l-151 -26l-66 -854l504 716l10 140l-133 24l23 115h635l-23 -115l-156 -28l-63 -838l539 813l-146 53l23 115h430l-21 -115l-102 -41
l-858 -1227h-228z" />
    </font>
</defs>
</svg>
