<?xml version="1.0" standalone="no"?>
<!DOCTYPE svg PUBLIC "-//W3C//DTD SVG 1.1//EN" "http://www.w3.org/Graphics/SVG/1.1/DTD/svg11.dtd" >
<svg xmlns="http://www.w3.org/2000/svg">
<metadata>
Created by FontPrep 20130207 at Thu Jul 21 21:11:16 2016
 By Callum Flack
</metadata>
<defs>
<font id="225562436b7cbd1722e89e3baa25dc56" horiz-adv-x='1024' >
  <font-face 
    font-family="b7702d609d3b2508-subsetofNocturnoDisplay-Med"
    font-weight="500"
    font-stretch="normal"
    units-per-em="2048"
    panose-1="2 0 0 0 0 0 0 0 0 0"
    ascent="1573"
    descent="-475"
    x-height="1012"
    cap-height="1434"
    bbox="-113 -510 2343 1890"
    underline-thickness="102"
    underline-position="-205"
    unicode-range="U+0020-2122"
  />
<missing-glyph horiz-adv-x="1357" 
d="M680 647l-244 -244l-47 48l244 241l-238 238l45 45l238 -238l244 244l45 -45l-242 -244l246 -246l-45 -45zM41 41h1276v1249h-1276v-1249zM0 1331h1358v-1331h-1358v1331z" />
    <glyph glyph-name=".notdef" horiz-adv-x="1357" 
d="M680 647l-244 -244l-47 48l244 241l-238 238l45 45l238 -238l244 244l45 -45l-242 -244l246 -246l-45 -45zM41 41h1276v1249h-1276v-1249zM0 1331h1358v-1331h-1358v1331z" />
    <glyph glyph-name=".null" horiz-adv-x="0" 
 />
    <glyph glyph-name="nonmarkingreturn" horiz-adv-x="681" 
 />
    <glyph glyph-name="space" unicode=" " horiz-adv-x="460" 
 />
    <glyph glyph-name="exclam" unicode="!" horiz-adv-x="577" 
d="M117 132q0 75 54 126t129 51t120 -43.5t45 -101.5q0 -95 -56.5 -145t-126.5 -50q-71 0 -118 44t-47 119zM137 1152q0 144 31 214t115 70t115.5 -66t31.5 -215q0 -148 -20.5 -242t-47 -172.5t-51 -144.5t-30.5 -121q-4 63 -28 130t-49.5 143.5t-46 168t-20.5 235.5z" />
    <glyph glyph-name="quotedbl" unicode="&#x22;" horiz-adv-x="735" 
d="M549 823l-119 613q49 31 118.5 30.5t119.5 -30.5zM188 823l-120 613q74 47 144.5 31.5t94.5 -31.5z" />
    <glyph glyph-name="numbersign" unicode="#" horiz-adv-x="1294" 
d="M461 449h315l41 233h-315zM750 303h-316l-55 -303h-162l55 303h-198l20 146h205l41 233h-211l23 147h215l49 263h162l-50 -263h316l49 263h162l-49 -263h213l-21 -147h-219l-41 -233h225l-22 -146h-230l-55 -303h-162z" />
    <glyph glyph-name="dollar" unicode="$" horiz-adv-x="1013" 
d="M375 893q0 -49 22.5 -83t75.5 -75v293q-45 -14 -71.5 -50t-26.5 -85zM647 215q0 53 -23.5 89t-70.5 71v-312q94 37 94 152zM473 49v379l-70 41q-146 82 -194.5 131t-68 93t-19.5 102q0 125 93 212t259 99v156h80v-154q80 -4 156.5 -18.5t144.5 -18.5h16q-2 -33 -2 -41
v-112q0 -103 1 -129.5t1 -43.5q-78 121 -155.5 196.5t-161.5 90.5v-350l35 -20q76 -47 136 -84t127 -99.5t67 -193.5t-94.5 -212t-270.5 -91v-113h-80v111q-92 4 -168 18t-168 16q-20 183 -57 346q130 -157 195 -213.5t108 -77t90 -20.5z" />
    <glyph glyph-name="percent" unicode="%" horiz-adv-x="1411" 
d="M702 553l-352 -469q-88 -122 -153 -64q-37 33 -20.5 77t69.5 85l448 377l322 440q100 139 172 74q53 -48 13 -92.5t-62 -65.5zM942 240q0 -207 105 -207q100 -1 100 201t-81 202t-102.5 -55t-21.5 -141zM1050 494q288 0 287.5 -182.5t-81.5 -258.5t-222 -76t-211.5 64.5
t-70.5 184.5t80 194t218 74zM375 649q98 0 98 202t-102.5 202t-102.5 -202t107 -202zM376 1110q288 0 288 -182.5t-79 -259t-221 -76.5t-214 64.5t-72 184.5t80 194.5t218 74.5z" />
    <glyph glyph-name="ampersand" unicode="&#x26;" horiz-adv-x="1826" 
d="M813.5 1302q-26.5 56 -81.5 56q-56 0 -102 -59t-46 -169t57 -243l14 -35q127 91 156 180.5t29 151.5t-26.5 118zM317 421.5q0 -153.5 82 -227t191 -73.5t235 67q-242 250 -381 508q-127 -121 -127 -274.5zM426 731q-82 146 -82 266q0 211 128.5 336t311.5 125
t257.5 -81.5t74.5 -166.5q0 -84 -42 -142t-130.5 -122t-271.5 -127q127 -252 348 -463q134 186 186 394h-159q-7 42 -7 72t13 61q254 0 425 13t255 19q18 -54 18 -96.5t-2 -56.5l-299 -14q-170 -225 -406 -416q121 -113 253.5 -186.5t239.5 -73.5t187 43q-47 -133 -132 -199
t-183 -66q-235 0 -559 314q-108 -99 -240.5 -163t-306.5 -14t-219 140t-45 205t99 211t288 188z" />
    <glyph glyph-name="quotesingle" unicode="'" horiz-adv-x="374" 
d="M188 823l-120 613q74 47 144.5 31.5t94.5 -31.5z" />
    <glyph glyph-name="parenleft" unicode="(" horiz-adv-x="571" 
d="M297 580q0 -289 63.5 -549.5t174.5 -392.5q-205 117 -338.5 371.5t-133.5 543.5t131.5 543t337.5 372q-172 -192 -203.5 -471.5t-31.5 -416.5z" />
    <glyph glyph-name="parenright" unicode=")" horiz-adv-x="571" 
d="M272 528q0 295 -64 552.5t-173 389.5q203 -116 337 -371t134 -544t-131.5 -543t-337.5 -372q175 195 205 473t30 415z" />
    <glyph glyph-name="asterisk" unicode="*" horiz-adv-x="862" 
d="M432 1141l-96 282h188zM432 1096l92 -301h-188zM451 1133l217 221l94 -164zM668 860l-215 240l309 -76zM100 1026l310 72l-215 -238zM195 1354l213 -219l-308 55z" />
    <glyph glyph-name="plus" unicode="+" horiz-adv-x="964" 
d="M389 496h-307v180h307v319h182v-319h312v-180h-312v-338h-182v338z" />
    <glyph glyph-name="comma" unicode="," horiz-adv-x="559" 
d="M150 235.5q56 49.5 133 49.5q76 0 130 -63.5t54 -157.5q0 -168 -124.5 -289t-315.5 -158q262 158 266 338q-75 0 -137 29t-62 115q0 87 56 136.5z" />
    <glyph glyph-name="hyphen" unicode="-" horiz-adv-x="677" 
d="M563 531.5q0 -59.5 -4 -97.5h-440q-4 18 -4 24v80q0 72 4 93h440q4 -40 4 -99.5z" />
    <glyph glyph-name="period" unicode="." horiz-adv-x="544" 
d="M281 309q78 0 121.5 -45.5t43.5 -101.5q0 -93 -58 -146t-129 -53t-119 45t-48 116t55.5 128t133.5 57z" />
    <glyph glyph-name="slash" unicode="/" horiz-adv-x="907" 
d="M55 -43l658 1554l141 -51l-659 -1554z" />
    <glyph glyph-name="zero" unicode="0" horiz-adv-x="1284" 
d="M381 514q0 -459 258 -459q214 0 237 181.5t23 285.5q0 205 -59.5 325t-190.5 120q-219 0 -243.5 -182.5t-24.5 -270.5zM1059.5 907.5q138.5 -136.5 138.5 -383.5t-166 -394.5t-409 -147.5t-391 127.5t-148 372.5t173 403.5t418.5 158.5t384 -136.5z" />
    <glyph glyph-name="one" unicode="1" horiz-adv-x="782" 
d="M555 582q0 -210 9 -292.5t31.5 -134t63.5 -84t105 -71.5q-63 0 -119 2h-44h-353q-76 -2 -162 -2q63 39 103 72.5t72 106.5t32 315q0 241 -42 314t-89 103.5t-115 61.5l533 69q-25 -250 -25 -460z" />
    <glyph glyph-name="two" unicode="2" horiz-adv-x="1073" 
d="M901 764q0 -299 -616 -537l729 11l-51 -238h-897v106q438 319 483 433t45 182.5t-56.5 108.5t-138.5 40t-156.5 -30.5t-115.5 -79.5q66 150 166 217t258 67t254 -80.5t96 -199.5z" />
    <glyph glyph-name="three" unicode="3" horiz-adv-x="1013" 
d="M657 2q0 266 -438 285l21 116q174 8 259 83.5t85 185.5t-57.5 160.5t-138.5 50.5t-154.5 -29t-120.5 -70q59 146 167 203t206 57q179 0 285 -78.5t106 -209.5t-115 -217t-293 -107q242 -26 361.5 -143.5t119.5 -286.5t-138.5 -290.5t-369.5 -121.5q-221 7 -295.5 96
t-91.5 150q59 -33 145 -55.5t156 -22.5q137 0 219 58.5t82 185.5z" />
    <glyph glyph-name="four" unicode="4" horiz-adv-x="1271" 
d="M686 287v522l-479 -526zM686 61h-653v138l758 835h167v-749h281l-22 -224h-259v-434l-272 -24v458z" />
    <glyph glyph-name="five" unicode="5" horiz-adv-x="1069" 
d="M401 -242q125 0 206 53.5t81 175.5t-129 211.5t-424 190.5l94 637h764l-32 -233h-682l-33 -197q349 -111 541 -245t192 -337q0 -178 -140 -299t-373 -121q-234 0 -317 109t-100 188q118 -133 352 -133z" />
    <glyph glyph-name="six" unicode="6" horiz-adv-x="1263" 
d="M821 385q0 320 -246 320q-102 0 -188 -48v-6q0 -207 56.5 -400.5t196.5 -193.5q94 0 137.5 95.5t43.5 232.5zM723 868q186 0 286.5 -116.5t100.5 -294.5t-126.5 -325.5t-372.5 -147.5q-245 0 -383 163t-138 428q0 162 54.5 315.5t172 273.5t303 195t445.5 79h59
q60 0 101 -4q12 -35 2 -76q-450 7 -643 -175.5t-197 -510.5q59 88 148.5 142t187.5 54z" />
    <glyph glyph-name="seven" unicode="7" horiz-adv-x="1009" 
d="M1010 1026v-65l-701 -1344h-102l618 1176h-794l39 233h940z" />
    <glyph glyph-name="eight" unicode="8" horiz-adv-x="1163" 
d="M670 817q131 96 131 262t-82 209t-133 43q-95 0 -150 -59.5t-55 -139.5q0 -79 78 -150t211 -165zM765 121.5q58 68.5 58 130.5q0 61 -27.5 108.5t-93 112t-251.5 176.5q-61 -55 -93 -137t-32 -150t16 -122t69.5 -120.5t174.5 -66.5t179 68.5zM571 -29q-197 0 -344 81.5
t-147 242.5q0 184 151.5 263t202.5 104q-124 84 -214.5 180t-90.5 217q0 147 141 250.5t329 103.5t306.5 -88t118.5 -213t-75 -173t-136 -73.5t-131 -56.5q63 -41 237.5 -158t174.5 -313q0 -159 -120 -236t-216.5 -104t-186.5 -27z" />
    <glyph glyph-name="nine" unicode="9" horiz-adv-x="1234" 
d="M432 639q0 -324 246 -324q104 0 188 45v17q0 433 -100 513.5t-173.5 80.5t-117 -94.5t-43.5 -237.5zM526 152q-181 0 -281 117.5t-100 296.5t125.5 328.5t372.5 149.5t384.5 -162t137.5 -429q0 -164 -56 -320t-252 -349.5t-699 -193.5q-61 0 -129 4q-6 23 -6 39.5t4 36.5
q444 -7 637 171.5t202 502.5q-51 -84 -145.5 -138t-194.5 -54z" />
    <glyph glyph-name="colon" unicode=":" horiz-adv-x="612" 
d="M318 1004q76 0 120.5 -45.5t44.5 -100.5q0 -91 -57.5 -145t-129.5 -54q-73 0 -120 45t-47 116t56.5 127.5t132.5 56.5zM317 309q77 0 121.5 -45.5t44.5 -101.5q0 -90 -57.5 -144.5t-129.5 -54.5q-73 0 -120 45t-47 116t55.5 128t132.5 57z" />
    <glyph glyph-name="semicolon" unicode=";" horiz-adv-x="595" 
d="M177 235.5q56 49.5 132 49.5t130.5 -63.5t54.5 -157.5q0 -169 -125.5 -290t-315.5 -157q258 156 266 338q-74 0 -136 29t-62 115q0 87 56 136.5zM318 1004q76 0 120.5 -45.5t44.5 -100.5q0 -91 -57.5 -145t-129.5 -54q-73 0 -120 45t-47 116t56.5 127.5t132.5 56.5z" />
    <glyph glyph-name="less" unicode="&#x3c;" horiz-adv-x="704" 
d="M80 561l516 486l-262 -476l260 -477z" />
    <glyph glyph-name="equal" unicode="=" horiz-adv-x="1114" 
d="M127 831h860v-165h-860v165zM127 518h860v-166h-860v166z" />
    <glyph glyph-name="greater" unicode="&#x3e;" horiz-adv-x="704" 
d="M111 94l260 477l-262 476l516 -486z" />
    <glyph glyph-name="question" unicode="?" horiz-adv-x="886" 
d="M213 108q0 88 55.5 144.5t133.5 56.5t122.5 -47.5t44.5 -101.5q0 -92 -58 -144.5t-131 -52.5t-120 46.5t-47 98.5zM376 467q-92 0 -137.5 46.5t-45.5 100.5t28.5 91.5t71.5 70.5t92 64.5t97 74.5t73 89.5t25 107t-80.5 113.5t-197.5 53t-220 -66q31 86 143.5 166
t258.5 80t240.5 -72.5t94.5 -187.5t-86 -169t-211.5 -110.5t-123.5 -169.5q1 -74 50.5 -124t133.5 -58q-114 -100 -206 -100z" />
    <glyph glyph-name="at" unicode="@" horiz-adv-x="1820" 
d="M1030 456q0 5 2 29q-139 -23 -219 -76t-80 -128q0 -98 72 -109.5t102 -7.5q61 0 121 31v21v66zM1030 182q-102 -207 -316 -207q-104 0 -177.5 69t-73.5 179q0 135 124.5 205t325.5 70q57 0 119 -6q8 90 8 147q2 109 -57 158t-142 51q-140 3 -294 -80q144 268 422 268
q231 0 285.5 -128t54.5 -202t-7.5 -157t-7.5 -191t19 -192t78 -84q99 0 159 151t60 312q0 314 -171 503t-483 189q-311 0 -524 -204.5t-213 -567.5q0 -201 66.5 -348.5t173 -243.5t241 -143t257.5 -47q235 0 462 135q-23 -103 -164 -169.5t-313 -66.5t-327.5 58.5
t-272.5 169t-185.5 270.5t-68.5 349t56.5 352t167 288t270.5 198.5t348 73.5q365 0 593 -197t228 -542q0 -252 -123 -437t-352 -185q-181 0 -211.5 79.5t-34.5 122.5z" />
    <glyph glyph-name="A" unicode="A" horiz-adv-x="1439" 
d="M690 559q10 0 44 1t67 2t59 1l-231 649l-246 -651h15l60 -1zM635 471q-35 0 -75 -1l-80 -2t-74.5 -2t-57.5 -1q-49 -141 -49 -225t43 -135.5t133 -104.5l-155 5q-156 5 -233 1t-122 -6q93 89 135.5 176.5t72.5 161.5t75 184t154.5 376.5t207.5 531.5q24 6 120 6t120 -6
q18 -51 51 -139.5t81.5 -222t138 -373.5t109.5 -293q59 -159 93.5 -233t118.5 -169l-165 5q-165 5 -262 1t-159 -6q117 95 117 186q0 39 -15 90l-63 193h-17l-69 1z" />
    <glyph glyph-name="B" unicode="B" horiz-adv-x="1392" 
d="M647 797q264 0 264 245q0 131 -70.5 215t-195.5 84q-56 0 -81 -6t-40 -8q-14 -178 -14 -362v-166q16 -2 20 -2h117zM702 705h-87q-87 0 -105 -3l2 -292q0 -174 24.5 -225.5t66.5 -75t118 -23.5q141 0 227 73.5t86 210.5t-88.5 236t-243.5 99zM760 -10l-382 16
q-130 0 -202 -3t-127 -3q55 45 89 84t52.5 108.5t24.5 188.5t6 321.5t-6 325.5t-24.5 200t-52.5 120t-89 86q185 -7 311 -7l367 11q236 0 363 -81t127 -231q0 -250 -349 -335q312 -39 395 -171.5t83 -223.5q0 -181 -154.5 -293.5t-431.5 -112.5z" />
    <glyph glyph-name="C" unicode="C" horiz-adv-x="1462" 
d="M74 674q0 180 62.5 325.5t171 248t255 156.5t284.5 54t288.5 -29.5t201.5 -29.5h23q-2 -43 -2 -53v-144q0 -135 1 -169t1 -54q-229 383 -500 383q-186 0 -327.5 -154.5t-141.5 -463.5t121 -449.5t210 -183.5t167 -43q141 0 265 112t224 285q-12 -99 -41 -424
q-49 0 -207.5 -34t-313.5 -34q-156 0 -297.5 48.5t-293 187t-151.5 465.5z" />
    <glyph glyph-name="D" unicode="D" horiz-adv-x="1662" 
d="M1270 670q0 286 -158 477.5t-405 191.5q-99 0 -181 -12q-20 -145 -20 -326v-87l2 -500q0 -191 53.5 -259.5t177.5 -68.5q245 0 388 149t143 435zM266 1427h107q89 0 372 7q399 0 620.5 -182.5t221.5 -534.5t-223.5 -535.5t-603.5 -183.5l-398 10q-108 0 -182 -3t-131 -5
q39 33 67.5 59.5t56.5 78t37 175t9 361.5t-4 358.5t-21.5 193t-51 116.5t-93.5 92q199 -7 217 -7z" />
    <glyph glyph-name="E" unicode="E" 
d="M964 1427q92 0 212 15q-5 -98 -5 -148v-58q0 -58 2.5 -114.5t2.5 -97.5q-141 184 -243.5 249.5t-281.5 65.5q-87 0 -139 -8q-14 -192 -14 -377v-176q12 -2 14 -2h23q237 0 312 29t106.5 60.5t62.5 78.5q-8 -188 -8 -241t3 -115t5 -111q-37 55 -67.5 94t-97.5 75t-267 36
h-86l2 -168q0 -127 5 -208t30.5 -128t79 -65.5t144.5 -18.5q173 0 282 64t262 245l-11 -47q-10 -47 -33 -151.5t-42 -214.5q-150 12 -234 12l-278 2h-351q-112 0 -186 -3t-125 -3q84 70 115.5 123t44 172t12.5 365q0 247 -6 371t-24.5 199t-52.5 118t-89 86q192 -7 201 -7
h108q64 2 146 2h466z" />
    <glyph glyph-name="F" unicode="F" horiz-adv-x="1226" 
d="M1174 1304v-69q0 -69 2 -143t2 -97q-119 184 -233.5 264t-301.5 80q-77 0 -129 -8q-18 -194 -14 -377v-213h37q235 0 305.5 25t105.5 58.5t70 86.5q-8 -188 -8 -241.5t3 -125.5t5 -128q-39 66 -69.5 110.5t-94.5 82.5t-272 38l-82 -2l2 -145q0 -241 39 -316t83 -111
t111 -75q-265 8 -375 8t-184 -3t-131 -3q86 72 116.5 123t43 170t12.5 364q0 246 -6 371t-24.5 200t-52.5 118t-89 86q137 -7 161 -7h100l202 1l438 6q117 0 232 10q-4 -78 -4 -138z" />
    <glyph glyph-name="G" unicode="G" horiz-adv-x="1550" 
d="M885 678q204 -6 225 -6h160q141 0 243 6q-53 -59 -86.5 -126.5t-33.5 -330.5v-69q0 -70 2 -111q-53 0 -239 -34t-338 -34t-292.5 47.5t-296 187t-155.5 464.5q0 186 67.5 331.5t180 247t260 154.5t283.5 53t294 -29.5t211 -29.5h23q-2 -43 -2 -56v-131q0 -23 1 -53.5
t2 -64t2 -64.5t1 -51q-139 200 -213 263t-144.5 91.5t-162.5 28.5t-181.5 -37t-197 -155.5t-107.5 -425.5q0 -306 151 -492t373 -186q110 0 201 55q0 117 -5 204t-27.5 152.5t-69.5 112.5t-129 88z" />
    <glyph glyph-name="H" unicode="H" horiz-adv-x="1683" 
d="M320 1427l102 1q102 0 152 2t104 4q-53 -41 -87 -81t-59.5 -133t-25.5 -429q205 -5 369.5 -5t304.5 5q-4 339 -29 430.5t-58.5 131.5t-84.5 81q178 -7 271 -7l102 1q102 0 152 2t103 4q-57 -43 -91 -86t-57.5 -143.5t-23.5 -449.5q0 -348 13 -467t44.5 -171t114.5 -117
l-319 6q-117 0 -189 -3t-120 -3q55 43 88.5 82t58.5 131.5t25 472.5q-168 4 -339 4t-335 -4q0 -384 24.5 -474.5t58.5 -129.5t89 -82l-320 6q-116 0 -188 -3t-121 -3q79 62 113.5 119t46.5 174t12 362q0 246 -6 371t-24.5 202t-52.5 120t-89 86q178 -7 271 -7z" />
    <glyph glyph-name="I" unicode="I" horiz-adv-x="724" 
d="M320 1427l102 1q102 0 152 2t104 4q-57 -43 -91 -86t-57.5 -141t-23.5 -448t12.5 -468.5t44.5 -172t115 -118.5l-320 6q-116 0 -188 -3t-121 -3q79 62 114 120t46.5 184.5t11.5 355.5t-5 359t-23.5 208t-52.5 121t-91 86q178 -7 271 -7z" />
    <glyph glyph-name="J" unicode="J" horiz-adv-x="692" 
d="M211 397v277q0 215 -3 345t-21.5 208t-57.5 121t-111 86q199 -7 292 -7l99 1q99 0 146 2t92 4q-47 -39 -75.5 -74t-50 -114t-21.5 -423v-149l6 -412q0 -226 -158 -351.5t-440 -178.5q226 172 264.5 357t38.5 308z" />
    <glyph glyph-name="K" unicode="K" horiz-adv-x="1468" 
d="M963 122.5q0 64.5 -66 153.5q-129 172 -297 386l-76 73l72 60l203 235q135 159 135 256t-117 148q220 -11 361 -11t290 11q-198 -94 -315.5 -178.5t-280.5 -282.5l-94 -113q476 -608 756 -862q-280 8 -346.5 8t-160.5 -3t-171 -5q107 60 107 124.5zM320 1427l100 1
q100 0 149 2t97 4q-55 -41 -87 -84t-52.5 -133.5t-20.5 -354.5t2 -367.5t10.5 -204.5t41.5 -161.5t118 -128.5l-320 6q-116 0 -188 -3t-121 -3q55 45 89 84t58.5 129.5t24.5 388.5q0 297 -6 424t-24.5 204t-52.5 120t-89 84q178 -7 271 -7z" />
    <glyph glyph-name="L" unicode="L" horiz-adv-x="1230" 
d="M234 1425h116q138 -1 212 3q75 4 134 6q-63 -41 -101 -84t-64.5 -144t-26.5 -532v-174q0 -231 47.5 -322.5t176.5 -91.5q128 0 237 85.5t264 291.5l-11 -57q-11 -57 -31 -157t-48 -263q-150 12 -234 12l-278 2l-277 4l-180 -2q-57 -2 -123 -2q55 45 89 84t52.5 108.5
t24.5 187.5t6 320.5t-6 326.5t-24.5 200t-52.5 120t-89 85q178 -7 187 -7z" />
    <glyph glyph-name="M" unicode="M" horiz-adv-x="1992" 
d="M230 1430h95q95 0 201 4l514 -1147l445 1147q150 -7 186 -7q35 0 73 1.5t80 2.5t76.5 2t45.5 1q-75 -61 -109 -121t-51 -206.5t-17 -390.5t7.5 -354t26 -175.5t52 -104.5t87.5 -82l-340 6q-112 0 -178 -3t-109 -3q79 62 113 119t46.5 182t12.5 373v489l-457 -1177
q-18 -6 -85.5 -6t-82.5 6l-530 1192v-504q0 -361 41 -458t89 -136t120 -80l-289 6q-107 0 -159 -3t-85 -3q53 43 87 82t59.5 129.5t25.5 383.5q0 294 -8 428t-28.5 213t-54.5 119t-85 79z" />
    <glyph glyph-name="N" unicode="N" horiz-adv-x="1636" 
d="M194 1427h70q69 0 146 5q125 -137 236.5 -262.5t221 -247t221 -246.5t234.5 -262v307q0 357 -55.5 469.5t-108.5 157.5t-121 86q179 -7 272 -7l92 1q93 0 131 2t73 4q-57 -45 -91 -90.5t-57.5 -146.5t-23.5 -467q0 -367 8 -765q-18 -4 -58.5 -4t-58.5 4
q-248 281 -488.5 562.5t-498.5 566.5v-392q0 -352 55.5 -462.5t108.5 -153.5t121 -86l-312 6q-109 0 -165 -3t-91 -3q53 43 87 86t59.5 139t25.5 377t-9 408t-30.5 205.5t-60.5 124.5t-96 92z" />
    <glyph glyph-name="O" unicode="O" horiz-adv-x="1646" 
d="M1101.5 155.5q153.5 85.5 153.5 530.5q0 294 -118 486t-332 192q-188 0 -300 -155.5t-112 -469.5t124.5 -491.5t277.5 -177.5t306.5 85.5zM844 1458q162 0 293 -45t228 -134t152.5 -220t55.5 -391t-217.5 -477.5t-569.5 -217.5q-309 0 -509.5 174.5t-200.5 524.5
q0 349 159.5 511.5t303 218.5t305.5 56z" />
    <glyph glyph-name="P" unicode="P" horiz-adv-x="1267" 
d="M504 954v-299q55 -12 114 -12q134 0 220 81t86 232t-81 267t-222 116q-47 0 -103 -8q-14 -179 -14 -377zM727 -2q-263 8 -373 8t-182 -3t-123 -3q55 45 89 84t52.5 108.5t24.5 188.5t6 321.5t-6 325.5t-24.5 199t-52.5 120t-89 85q185 -7 194 -7h105l363 7
q246 0 384 -114t138 -306q0 -234 -174 -347.5t-434 -113.5q-61 0 -119 6v-57q0 -239 33.5 -313t76.5 -112t111 -77z" />
    <glyph glyph-name="Q" unicode="Q" horiz-adv-x="1646" 
d="M1101.5 155.5q153.5 85.5 153.5 530.5q0 294 -118 486t-332 192q-188 0 -300 -155.5t-112 -469.5t124.5 -491.5t277.5 -177.5t306.5 85.5zM812 -27h-26q-309 0 -509.5 174.5t-200.5 524.5q0 349 214.5 567.5t546.5 218.5q333 0 534.5 -185t201.5 -506t-176.5 -532
t-470.5 -251q50 -25 57 -25q234 -111 383 -164t309 -53q76 0 146 14q-173 -213 -371 -213q-283 0 -625 432q-10 -2 -13 -2z" />
    <glyph glyph-name="R" unicode="R" horiz-adv-x="1417" 
d="M635 680q81 0 188 51.5t107 257.5q0 145 -75 247.5t-216 102.5q-78 0 -113 -6q-18 -130 -18 -645q46 -8 127 -8zM508 580q0 -240 8 -310.5t21.5 -105.5t34 -61.5t52 -49t76.5 -53.5l-340 6q-116 0 -188 -3t-121 -3q59 41 93 86t55.5 137t21.5 383t-5 416t-22.5 203
t-51 123t-91.5 86q146 -11 295 -11l383 11q253 0 386.5 -107.5t133.5 -264.5t-90.5 -261t-240.5 -150q99 -165 245 -338t208.5 -210t129.5 -62q-90 -127 -233 -127q-80 0 -158 39.5t-133 102.5t-146.5 204t-135.5 214t-70 116l-117 2v-12z" />
    <glyph glyph-name="S" unicode="S" horiz-adv-x="1177" 
d="M397 1163q0 -41 7.5 -66.5t52.5 -75t188 -140.5t222 -142t156 -126t77 -224q0 -197 -141.5 -306.5t-383.5 -109.5q-70 0 -215 22.5t-221 22.5q-36 281 -71 439q200 -267 325 -329t173 -62q98 0 172.5 61.5t74.5 163.5q0 101 -67 166.5t-201 143.5q-133 79 -204 124
t-145.5 119.5t-74.5 210.5q0 176 141 289.5t359 113.5q111 0 208 -22.5t191 -28.5h22q-4 -86 -4 -137v-63q0 -63 2 -130t2 -88q-222 375 -428 375q-141 0 -179 -80t-38 -121z" />
    <glyph glyph-name="T" unicode="T" horiz-adv-x="1413" 
d="M1272 1430q26 0 104 12q-6 -123 -6 -151t1 -76t2 -98t2 -94t1 -58q-127 267 -272.5 320.5t-226.5 53.5q-21 -173 -21 -491t2 -409t12 -181.5t45.5 -143.5t122.5 -114l-327 6q-119 0 -193 -3t-129 -3q61 45 98 82t56.5 102.5t24.5 180t5 503.5t-16 471q-347 0 -520 -374
l6 323q0 49 -2 81t-4 73q69 -12 231 -12l64 -1l175 -2l207 -1l431 4h127z" />
    <glyph glyph-name="U" unicode="U" horiz-adv-x="1525" 
d="M977 1432q118 -5 242 -5l92 1q92 0 127 2l63 4q-77 -61 -106.5 -120t-38 -167t-8.5 -393v-267q0 -289 -181 -401.5t-389 -112.5q-442 0 -520 171t-78 276v334q0 190 -3 303.5t-18.5 182.5t-45 109t-84.5 83q165 -7 175 -7h122q142 -1 214 3t132 6q-61 -39 -102.5 -73
t-75 -105t-29.5 -312l6 -426q4 -236 110 -334t257 -98q186 0 283.5 118t99.5 335v338q-4 278 -44 359t-86.5 118t-113.5 78z" />
    <glyph glyph-name="V" unicode="V" horiz-adv-x="1406" 
d="M-18 1434q168 -11 305.5 -11t273.5 11q-119 -75 -119 -172q0 -96 51 -224t73 -189t45.5 -123t85 -229.5t98.5 -265.5l223 617q84 240 84 342t-45 154.5t-135 89.5q162 -11 292.5 -11t229.5 11q-95 -91 -162 -223t-225 -565t-182.5 -504.5t-49.5 -141.5q-24 -6 -118.5 -6
t-118.5 6q-37 104 -90.5 245.5t-107.5 286t-104 274.5t-81 209q-68 173 -108.5 253t-114.5 166z" />
    <glyph glyph-name="W" unicode="W" horiz-adv-x="2177" 
d="M584 1434q-121 -74 -121 -160q0 -44 20 -117l74 -264q4 -10 17.5 -55t33 -108.5t72.5 -238.5t82 -255l264 761q-4 16 -11 30.5t-23 60.5q-76 214 -208 346q181 -11 321 -11t265 11q-117 -84 -117 -166q0 -109 97 -377l221 -651l213 610q67 195 67 322t-65.5 181
t-104.5 81q173 -11 301.5 -11t227.5 11q-94 -101 -145 -196t-124 -287q-201 -525 -339 -949q-24 -6 -117 -6t-117 6q-29 82 -93 282.5t-200 577.5q-37 -119 -79 -241.5t-79.5 -236.5t-70.5 -213t-53 -169q-24 -6 -118 -6t-118 6q-78 238 -160.5 497t-146.5 434
q-99 271 -137.5 350.5t-106.5 150.5q168 -11 305 -11t273 11z" />
    <glyph glyph-name="X" unicode="X" horiz-adv-x="1325" 
d="M1380 -2q-252 8 -317.5 8t-153.5 -3t-159 -5q90 76 90 156t-101 229l-135 201l-192 -246q-57 -72 -58 -145q0 -118 127 -193q-188 8 -253.5 8t-139.5 -3t-139 -5q152 118 265.5 254.5t182.5 222.5l152 193l-223 342q-35 53 -129.5 202t-206.5 220q203 -11 347 -11t269 11
q-90 -72 -90 -142t59 -170q29 -53 68 -110.5t80 -118.5l135 170q72 89 72 178q0 116 -129 193q140 -11 269.5 -11t248.5 11q-134 -107 -250.5 -257.5t-185.5 -238.5l-105 -131q62 -98 76 -111l195 -301q72 -111 149.5 -212t181.5 -185z" />
    <glyph glyph-name="Y" unicode="Y" horiz-adv-x="1320" 
d="M524 602v23l-250 407q-39 63 -96 159.5t-188 242.5q209 -11 345.5 -11t246.5 11q-117 -80 -117 -152q0 -44 41 -111q2 -7 77.5 -127t117.5 -188t67 -104l123 225q92 168 92 247t-40 123t-112 87q151 -11 274.5 -11t213.5 11q-114 -96 -202.5 -257t-137.5 -249l-174 -305
q0 -350 35 -436.5t79 -122t80 -64.5l-331 6q-118 0 -200 -3t-138 -3q55 43 92 76t69.5 115.5t32.5 410.5z" />
    <glyph glyph-name="Z" unicode="Z" horiz-adv-x="1335" 
d="M946 0h-885v84q16 25 56.5 86t93.5 146t116.5 186.5t129 206t129 206t116 186.5t91 148.5t55.5 89.5q-351 0 -479.5 -72.5t-180 -134t-94.5 -131.5q4 46 4 61v174q0 161 -4 210q87 -14 225 -14h869v-78q-23 -37 -83.5 -135.5t-141 -227.5t-171 -273.5t-194 -312.5
t-201.5 -317q545 0 700.5 148.5t215.5 209.5q-18 -53 -68 -199t-69 -259q-138 12 -230 12z" />
    <glyph glyph-name="bracketleft" unicode="[" horiz-adv-x="638" 
d="M168 1587h444v-86h-254v-1773h254v-86h-444v1945z" />
    <glyph glyph-name="backslash" unicode="\" horiz-adv-x="909" 
d="M715 -94l-660 1554l142 51l657 -1554z" />
    <glyph glyph-name="bracketright" unicode="]" horiz-adv-x="638" 
d="M471 -358h-444v86h254v1773h-254v86h444v-1945z" />
    <glyph glyph-name="underscore" unicode="_" horiz-adv-x="1044" 
d="M53 -100h936v-174h-936v174z" />
    <glyph glyph-name="a" unicode="a" horiz-adv-x="1026" 
d="M604 403q0 41 4 95q-301 -43 -301 -207q0 -70 50.5 -103t119.5 -24q63 0 127 33q-2 10 -2 13v22v58zM403 840q-150 0 -297 -80q56 190 192 233t252.5 43t224.5 -89t108 -263q0 -53 -7.5 -122.5t-7.5 -161.5q0 -165 34 -223t142 -93q-55 -69 -138.5 -89t-114.5 -20
q-163 0 -187 207q-36 -83 -122 -145t-221.5 -62t-178.5 92.5t-43 160.5t80.5 176t406.5 108q42 0 82 -4q6 62 6 131q2 104 -61.5 152.5t-149.5 48.5z" />
    <glyph glyph-name="b" unicode="b" horiz-adv-x="1228" 
d="M602 846q-100 0 -209 -41v-303q0 -229 6 -355q71 -71 188 -71t199 104t82 312q0 354 -266 354zM393 815q167 221 364 221q187 0 298.5 -134.5t111.5 -356.5q0 -286 -178.5 -428t-443.5 -142q-204 0 -430 82q10 565 10 663t-1 200t-5 172.5t-14.5 114.5t-29 76t-47 54.5
t-69.5 48.5l444 125q-2 -10 -2 -53t-1 -106.5t-2 -139t-2 -149.5t-2 -139.5t-1 -108.5z" />
    <glyph glyph-name="c" unicode="c" horiz-adv-x="1024" 
d="M626 1036q171 0 263 -49t92 -129q0 -59 -43 -96t-97 -37t-82 33t-50.5 72.5t-50 72.5t-72.5 33q-89 0 -159.5 -100.5t-70.5 -274.5t95 -273.5t238.5 -99.5t287.5 91q-33 -135 -144.5 -220.5t-269.5 -85.5q-204 0 -355 125t-151 376t132.5 369t238.5 155.5t198 37.5z" />
    <glyph glyph-name="d" unicode="d" horiz-adv-x="1255" 
d="M360 527q0 -191 73 -275t184 -84t221 45l-2 281v391q-86 53 -164 53q-147 0 -229.5 -110t-82.5 -301zM61 461q0 275 167.5 425t426.5 150q107 0 174 -24q0 182 -23.5 235t-55 81t-82.5 58l442 125q-10 -298 -10 -333v-367q0 -482 17.5 -576t47 -130.5t82.5 -69.5
l-403 -64l4 230h-8q-145 -228 -369 -228q-177 0 -293.5 129t-116.5 359z" />
    <glyph glyph-name="e" unicode="e" horiz-adv-x="1099" 
d="M752 634v42q-7 186 -73.5 228t-113.5 42q-88 0 -145.5 -87t-61.5 -253l392 10q2 14 2 18zM861 55q-100 -82 -299 -82t-351 127.5t-152 377.5q0 249 160 403.5t375 154.5q216 0 333 -123t117 -323q0 -29 -4 -49l-680 -11q21 -340 360 -340q77 0 164 25t154 66
q-10 -37 -43.5 -90.5t-133.5 -135.5z" />
    <glyph glyph-name="f" unicode="f" horiz-adv-x="800" 
d="M180 674v209l-164 22l164 109q0 244 166 370.5t381 126.5t262 -62.5t47 -106.5t-37 -83.5t-93 -39.5t-85.5 30.5t-57.5 67.5t-59.5 67.5t-87.5 30.5q-165 0 -165 -360v-64h350q0 -50 -8 -96q-132 -8 -342 -8l-1 -53l-1 -332q0 -131 4 -212t26.5 -134.5t70.5 -87
t138 -68.5q-264 8 -372 8t-287 -8q55 45 84.5 85t45 106.5t18.5 179t3 303.5z" />
    <glyph glyph-name="g" unicode="g" horiz-adv-x="1165" 
d="M694 649q0 141 -48 221t-129 80t-119 -76t-38 -172q0 -167 45 -254.5t125 -87.5t122 74t42 215zM285 -180q0 -98 73.5 -164t211.5 -66t236.5 57t98.5 126t-62.5 95.5t-160.5 35.5l-344 28q-8 0 -12 2q-41 -52 -41 -114zM899 879q74 -98 74 -225t-93.5 -232.5
t-281.5 -128.5q-66 -20 -115 -41t-49 -55q0 -43 94 -50q6 0 51.5 -4t103.5 -9t112.5 -10t102.5 -11t141.5 -53.5t93.5 -194.5q0 -96 -56.5 -166t-189.5 -136.5t-353 -66.5t-357.5 60.5t-137.5 175.5q0 147 254 209q-53 12 -93 43.5t-40 79.5q0 82 89 128.5t263 96.5
q-297 0 -363.5 126t-66.5 215q0 176 126.5 291t314.5 115t302 -84l322 43v-67q0 -66 -6 -99q-30 4 -119.5 23.5t-122.5 26.5z" />
    <glyph glyph-name="h" unicode="h" horiz-adv-x="1298" 
d="M608 0q-204 8 -314 8t-174 -3t-110 -3q79 66 107.5 121t36.5 161.5t8 320.5t-1 315.5t-5 172t-14.5 114.5t-29 76t-47 54.5t-69.5 48.5l442 125q0 -10 -2 -60t-3 -120.5t-2 -151.5t-2 -155t-1 -88v-115q106 119 200.5 167t202.5 48q164 0 239 -98t76 -288t4 -295
t17.5 -170.5t44 -105.5t84.5 -79q-264 8 -351 8t-143 -3t-95 -5q45 43 107.5 101.5t62.5 285.5q0 158 -10.5 235.5t-48 146.5t-171.5 69q-91 0 -219 -35v-301q0 -133 4 -213t22.5 -130t54.5 -85t99 -74z" />
    <glyph glyph-name="i" unicode="i" horiz-adv-x="622" 
d="M184 1360q0 88 58 143.5t132 55.5q73 0 118 -45.5t45 -96.5q0 -89 -56.5 -143.5t-129.5 -54.5t-120 44.5t-47 96.5zM455 628q0 -235 6 -324t25.5 -143.5t57.5 -88t101 -74.5q-220 8 -329 8q-110 0 -174 -3t-107 -3q55 45 85 82t48 97t18 237t-7 243t-26.5 110t-51 76
t-81.5 68l443 125q-8 -175 -8 -410z" />
    <glyph glyph-name="j" unicode="j" horiz-adv-x="575" 
d="M174 1360q0 89 59.5 144t132.5 55t116.5 -45.5t43.5 -96.5q0 -91 -57 -144.5t-129 -53.5t-119 44.5t-47 96.5zM172 154v335q0 197 -29.5 260.5t-63.5 95.5t-83 68l455 125q-9 -196 -9 -491l7 -510q0 -420 -562 -539q285 283 285 656z" />
    <glyph glyph-name="k" unicode="k" horiz-adv-x="1220" 
d="M754 104q0 41 -27 79t-49 65l-184 213l-62 57l76 51l108 99q111 102 111 183t-92 161q204 -6 217 -6h102q90 0 137 2t105 4q-276 -145 -457 -324l-59 -51l367 -410q25 -27 69 -75t154 -152q-228 8 -296 8t-152 -3t-150 -5q82 40 82 104zM426 1146v-562
q0 -331 19.5 -404.5t46 -107t73.5 -72.5q-165 8 -279 8t-278 -8q55 45 85 85t45.5 106.5t18.5 179t3 280.5t-1 269.5t-5 172t-14.5 114.5t-29 76t-47 54.5t-69.5 48.5l442 125q-10 -297 -10 -365z" />
    <glyph glyph-name="l" unicode="l" horiz-adv-x="604" 
d="M434 1143v-582q0 -156 5 -247t24.5 -147t58.5 -91t105 -78q-336 13 -451 7q-114 -5 -160 -5q55 45 85 85t45.5 106.5t18.5 179t3 280.5t-1 269.5t-5 172t-14.5 114.5t-29 76t-47 54.5t-69.5 48.5l442 125q-10 -297 -10 -368z" />
    <glyph glyph-name="m" unicode="m" horiz-adv-x="1998" 
d="M1309 0q-271 8 -361 8t-146 -3t-95 -5q47 43 79.5 74.5t62.5 96.5t30 280t-46 301t-176 86q-76 0 -202 -35l-2 -27v-274q0 -269 20.5 -331t53 -97t89.5 -74q-286 13 -412 8q-126 -6 -171 -8q51 45 81.5 81t50 94t19.5 223t-5 239t-22.5 123t-50 81.5t-88.5 71.5l433 125
l-9 -227q155 180 247.5 202.5t150.5 22.5q129 0 196.5 -58t93.5 -171q90 121 185.5 175t218.5 54q164 0 236.5 -96t73.5 -288t4 -295t17.5 -168.5t44 -106.5t85.5 -82q-252 8 -345 8q-94 0 -152 -3t-99 -5q47 43 79.5 73.5t64.5 98t32 281.5q0 213 -46 299t-173 86
q-94 0 -223 -41q11 -51 16 -168q2 -168 5 -271.5t18.5 -169t47 -106.5t89.5 -82z" />
    <glyph glyph-name="n" unicode="n" horiz-adv-x="1323" 
d="M1319 0q-264 8 -351 8q-88 0 -146 -3t-99 -5q45 41 79 72.5t66.5 93.5t32.5 279t-52.5 305t-180.5 88q-87 0 -213 -35l-2 -27v-274q0 -269 20.5 -331t53 -97t89.5 -74q-286 13 -412 8q-126 -6 -171 -8q51 45 81.5 81t50 94t19.5 223t-5 239t-22.5 123t-50 81.5
t-88.5 71.5l433 125l-9 -227q111 125 213.5 175t206.5 50q304 0 306 -386q2 -368 19 -447.5t47 -120.5t85 -82z" />
    <glyph glyph-name="o" unicode="o" horiz-adv-x="1204" 
d="M618 70q120 0 173 99t53 314t-67.5 337t-184.5 122t-176.5 -114t-59.5 -320q0 -207 71 -322.5t191 -115.5zM196 103q-137 130 -137 370t156.5 401.5t407.5 161.5q250 0 386 -136t136 -376t-150 -395.5t-406 -155.5t-393 130z" />
    <glyph glyph-name="p" unicode="p" horiz-adv-x="1263" 
d="M612 850q-84 0 -184 -31v-317q0 -218 6 -344q90 -82 198 -82t189.5 106t81.5 310q0 358 -291 358zM424 823q176 213 362 213t302 -133t116 -360q0 -276 -171 -421t-406 -145q-100 0 -197 23q0 -256 34 -318.5t80 -91t120 -65.5q-264 8 -373 8t-174 -3q-64 -3 -107 -3
q55 45 86 83t45.5 104.5t17.5 183t3 319.5t-3 321.5t-19.5 187.5t-50.5 105.5t-95 73.5l432 133l-6 -215h4z" />
    <glyph glyph-name="q" unicode="q" horiz-adv-x="1236" 
d="M641 168q92 0 197 43v659q-80 68 -187 68q-147 0 -219 -105.5t-72 -287.5t66 -279.5t215 -97.5zM838 190q-158 -213 -360 -213q-181 0 -299 128.5t-118 359.5q0 273 166.5 422t419.5 149q85 0 214 -25q130 -25 255 -7q-12 -334 -12 -680t4 -451.5t19.5 -167t45 -97.5
t82.5 -81l-274 6q-128 0 -220 -3t-157 -5q82 41 127 74.5t67.5 89t28 143.5t7.5 180t3 121t1 57z" />
    <glyph glyph-name="r" unicode="r" horiz-adv-x="915" 
d="M686 0q-272 8 -380 8t-273 -8q51 45 81.5 81t50 94t19.5 223t-5 239t-22.5 123t-50 81.5t-88.5 71.5l433 125l-9 -252h4q72 129 154 189.5t150 60.5t110.5 -35t42.5 -101t-36 -111.5t-93 -45.5t-124 30t-111 30q-43 0 -86 -29v-272q0 -133 6 -213t30.5 -130t70.5 -85
t126 -74z" />
    <glyph glyph-name="s" unicode="s" horiz-adv-x="937" 
d="M831 851v-64q0 -64 1.5 -85.5t1.5 -35.5q-153 229 -226 257.5t-104 28.5q-65 0 -111.5 -35.5t-46.5 -89.5t41 -91t130 -83q89 -45 221 -112.5t132 -235.5t-132.5 -250t-299.5 -82q-92 0 -176 19.5t-164 19.5q-11 196 -39 359q207 -308 392 -308q72 0 121 41t49 102
t-56 103t-167 101t-207.5 119t-96.5 192q0 161 123.5 238t290.5 77q80 0 157.5 -14t170.5 -18q-5 -113 -5 -153z" />
    <glyph glyph-name="t" unicode="t" horiz-adv-x="813" 
d="M809 1001q0 -50 -8 -96q-196 -8 -379 -8v-541q0 -100 38 -152t112 -52t131 20t83 39q-23 -94 -141 -166t-245 -72t-190 69t-63 241v19l5 595h-150l430 383l-10 -279h387z" />
    <glyph glyph-name="u" unicode="u" horiz-adv-x="1271" 
d="M143 381v123q0 196 -22.5 253.5t-52 88.5t-78.5 67l444 125q-22 -276 -22 -426t9 -225.5t45 -146t154 -70.5t230 37v256q0 223 -25.5 286.5t-59.5 94t-89 69.5l452 125q-10 -322 -10 -473t5 -234t20.5 -138.5t44.5 -90t78 -67.5l-406 -64v9v52l2 148l-8 13
q-107 -124 -198.5 -172t-196.5 -48q-166 0 -241 101.5t-75 306.5z" />
    <glyph glyph-name="v" unicode="v" horiz-adv-x="1150" 
d="M-27 1012q153 -6 167 -6h138q122 0 248 4q-53 -41 -78.5 -73t-25.5 -77t30 -118q95 -230 232 -541l131 368q64 178 64 247t-42 111t-135 85q147 -6 160 -6h108q93 0 127 2l68 4q-83 -83 -125.5 -168.5t-80 -177t-95.5 -228.5l-186 -442q-32 -8 -95 -8t-91 8l-222 481
q-53 115 -91 200t-86 176t-120 159z" />
    <glyph glyph-name="w" unicode="w" horiz-adv-x="1802" 
d="M1350 1012q147 -6 160 -6h106q92 0 126 2l68 4q-74 -71 -119.5 -169t-82.5 -189t-90 -218l-185 -440q-32 -8 -95 -8t-91 8l-264 584l-219 -584q-32 -8 -92 -8t-89 8l-211 479q-115 259 -172 362t-125 175q153 -6 167 -6h137q123 0 237 4q-55 -39 -79.5 -69t-24.5 -74
t43 -140l213 -491l174 434q-51 113 -95.5 193.5t-109.5 148.5q147 -6 159 -6h120q107 0 247 4q-102 -71 -102 -152q0 -49 33 -121l241 -542l105 309q37 111 59.5 184.5t20.5 130.5t-39 100.5t-131 92.5z" />
    <glyph glyph-name="x" unicode="x" horiz-adv-x="1150" 
d="M377 141q0 -92 74 -141l-183 3q-182 3 -224 0t-73 -3q172 123 272 213.5t220 235.5l-219 290q-94 121 -151.5 177.5t-100.5 95.5q183 -6 196 -6h112q99 0 144 2t97 4q-56 -68 -56 -104q0 -72 150 -261q106 139 106 221t-79 144q165 -6 178 -6h104q90 0 124 2t71 4
q-132 -80 -231 -165.5t-234 -250.5l229 -289q118 -153 183 -211.5t108 -95.5l-190 3q-190 3 -264 0t-136 -3q72 54 72 111q0 35 -23.5 74.5t-58.5 90.5l-90 123q-127 -166 -127 -258z" />
    <glyph glyph-name="y" unicode="y" horiz-adv-x="1153" 
d="M-25 1012q159 -6 173 -6h135q121 0 247 4q-51 -39 -76.5 -74t-25.5 -79.5t16 -80.5t32 -76.5t39.5 -94.5t50 -117.5t51 -120t43 -101.5t26.5 -61l123 338q68 189 68 256q0 68 -39 113.5t-131 99.5q147 -6 160 -6h105q93 0 127 2l68 4q-79 -72 -125.5 -167t-84 -186.5
t-91.5 -222.5l-186 -454q-101 -248 -210 -370t-253 -122q-145 0 -145 121q0 114 136 120q64 3 113.5 5t113.5 26t112 138l-275 575q-132 275 -182 371.5t-115 165.5z" />
    <glyph glyph-name="z" unicode="z" horiz-adv-x="1052" 
d="M376 0h-333q-4 10 -4 30.5t4 35.5l586 864q-235 0 -322.5 -44t-131.5 -96.5t-89 -127.5q12 222 12 360q95 -14 541 -14h322q4 -12 4 -31t-4 -31l-603 -872q281 0 383.5 49t158.5 99t124 122q-57 -158 -100 -358q-39 5 -156 6.5t-240 4.5t-152 3z" />
    <glyph glyph-name="braceleft" unicode="{" horiz-adv-x="602" 
d="M557 -358q-203 0 -296 93t-91 255l18 422q0 82 -43 130t-143 58q104 25 145 68t41 125l-18 454q-2 164 90 250t297 86h49q-158 -46 -192.5 -109t-38.5 -114t-4 -111l18 -336q2 -133 -47 -212.5t-170 -96.5q123 -16 171 -90t46 -197l-18 -329q0 -59 2 -110.5t36.5 -119
t196.5 -116.5h-49z" />
    <glyph glyph-name="bar" unicode="|" horiz-adv-x="497" 
d="M174 1548h150v-1642h-150v1642z" />
    <glyph glyph-name="braceright" unicode="}" horiz-adv-x="595" 
d="M47 1583q203 0 296 -93t91 -255l-18 -422q0 -82 43 -130t143 -58q-104 -25 -145 -68t-41 -125l18 -455q2 -164 -90 -249.5t-297 -85.5h-49q158 46 192.5 109t38.5 114t4 110l-18 336q-2 131 47 212t170 98q-123 16 -171 89.5t-46 196.5l18 330q0 59 -2 110.5t-36 118
t-197 117.5h49z" />
    <glyph glyph-name="exclamdown" unicode="&#xa1;" horiz-adv-x="532" 
d="M436 871q0 -75 -54 -126t-129 -51t-120 44t-45 100q0 97 55.5 146.5t127.5 49.5q71 0 118 -44t47 -119zM416 -150q0 -144 -31 -213t-115 -69t-115.5 65.5t-31.5 213.5q0 147 20.5 242t47 174t51 144.5t30.5 120.5q4 -66 28 -132t49.5 -143t46 -168t20.5 -235z" />
    <glyph glyph-name="cent" unicode="&#xa2;" horiz-adv-x="1105" 
d="M383 536q0 -106 50 -191t132 -124v709q-69 -20 -125.5 -118t-56.5 -276zM674 1036q226 0 280 -68.5t54 -118.5t-43 -87t-95 -37t-78 25.5t-46.5 59.5t-41 67.5t-55.5 48.5v-731q97 -19 192 11t163 73q-31 -117 -122 -201t-233 -101v-149h-84v145q-199 9 -340 133
t-141 357t136.5 380.5t344.5 182.5v154h84v-144h25z" />
    <glyph glyph-name="sterling" unicode="&#xa3;" horiz-adv-x="997" 
d="M496 748v-127h262v-80h-262v-58q0 -98 -33 -146t-80 -78t-127 -50h311q242 0 305 92q25 -53 25 -99q0 -93 -100 -147.5t-256 -54.5h-465q78 137 116.5 231.5t38.5 171.5v138h-147v80h147v143q0 153 112 247.5t261 94.5q88 0 163 -39t120 -119q-106 27 -165 27
q-226 0 -226 -227z" />
    <glyph glyph-name="currency" unicode="&#xa4;" horiz-adv-x="1069" 
d="M410 530.5q0 -53.5 36 -94.5t90 -41t91 40t37 94t-37 94.5t-90.5 40.5t-90 -40t-36.5 -93.5zM533 860q94 0 176 -53l176 170l88 -96l-170 -164q59 -83 59 -184q0 -100 -57 -183l168 -164l-88 -96l-174 168q-80 -51 -177 -51t-176 53l-176 -170l-86 96l170 168
q-55 79 -55 178t55 183l-170 166l86 96l178 -172q79 55 173 55z" />
    <glyph glyph-name="yen" unicode="&#xa5;" horiz-adv-x="1212" 
d="M733 1092q239 -9 281 -9t135 9q-78 -68 -124 -140.5t-75.5 -126t-68.5 -118.5l-74 -123h235v-107h-299l-2 -4v-61q0 -60 2 -93h299v-106h-288q14 -83 39.5 -117.5t49 -52.5t52.5 -43q-37 0 -74 2h-39h-327q-63 -2 -129 -2q69 56 97.5 91t43.5 122h-285v106h293
q4 58 4 138v18l-2 2h-295v107h228l-127 202q-37 59 -61.5 98.5t-54.5 81.5t-110 126q265 -9 313 -9t195 9q-82 -80 -82 -123t35 -97l189 -288h10l86 153q65 119 65 179t-33.5 98.5t-101.5 77.5z" />
    <glyph glyph-name="section" unicode="&#xa7;" horiz-adv-x="968" 
d="M296 1186q-46 -45 -46 -118t52 -179.5t96 -191.5t72 -136t54.5 -107t26.5 -135q0 -80 -57 -151q20 -4 52 -4t98.5 34t66.5 175q0 83 -75 215.5t-123 215.5t-74.5 136t-26.5 117q0 107 65 172q-34 6 -53 6q-82 -4 -128 -49zM676 1212q-123 0 -123 -127q0 -54 36.5 -127.5
t118.5 -215.5q180 -316 181 -458q0 -143 -118.5 -248.5t-309.5 -105.5q-130 0 -230 83.5t-100 250.5q92 -86 170 -86q109 0 109 131q0 53 -27 115t-80 154t-139 236.5t-86 272.5q0 169 126.5 269t283.5 100t259 -85t91 -243q-93 84 -162 84z" />
    <glyph glyph-name="copyright" unicode="&#xa9;" horiz-adv-x="1275" 
d="M649 219q-158 0 -247 76t-89 221t102 236.5t251 91.5q66 0 114.5 -13.5t85.5 -13.5h11v-168q-53 66 -97.5 105t-98.5 39q-96 0 -152 -58t-56 -188t63 -204.5t142 -74.5q80 0 125 44t82 104q-7 -50 -19 -170q-41 0 -89 -13.5t-128 -13.5zM1040 524q0 198 -112 316
t-294 118t-292.5 -118t-110.5 -314t111.5 -314t295.5 -118q182 0 292 116t110 314zM94 523q0 230 158.5 387t394.5 157t383.5 -155.5t147.5 -387t-149.5 -385t-390.5 -153.5q-237 0 -390.5 153.5t-153.5 383.5z" />
    <glyph glyph-name="guillemotleft" unicode="&#xab;" horiz-adv-x="970" 
d="M432 522l422 424l-156 -418l156 -428zM76 522l422 424l-156 -418l156 -428z" />
    <glyph glyph-name="registered" unicode="&#xae;" horiz-adv-x="1275" 
d="M624 958q44 0 64.5 34t20.5 77t-25 82t-82 39h-31q-6 -34 -6 -229q15 -3 59 -3zM371 1233q50 -4 59 -4h68l151 4q100 0 151.5 -40t51.5 -98t-37 -96t-90 -55q130 -198 215 -221q-43 -47 -91 -47q-87 0 -128 51q-41 46 -80 112t-47 83h-29v-2q0 -124 9.5 -148t23.5 -36.5
t39 -30.5h-47l-22 1l-150 -1h-47q37 37 51 65t14 94v199q0 93 -24.5 123.5t-40.5 46.5zM638 528q192 0 290 112t98 304t-98 303t-290 111t-290 -111t-98 -303t98 -304t290 -112zM636 430q-223 0 -367 146t-144 365t146 367t371 148t367 -146.5t142 -365t-146 -366.5
t-369 -148z" />
    <glyph glyph-name="guillemotright" unicode="&#xbb;" horiz-adv-x="968" 
d="M539 524l-422 -424l155 418l-155 428zM893 524l-422 -424l156 418l-156 428z" />
    <glyph glyph-name="questiondown" unicode="&#xbf;" horiz-adv-x="870" 
d="M666 890q0 -88 -56.5 -145t-133.5 -57t-122 47t-45 101q0 89 58 143.5t131 54.5q74 0 121 -46t47 -98zM503 530q91 0 137 -46t46 -100t-28.5 -92t-71.5 -71t-92.5 -64.5t-97.5 -74.5t-72.5 -89t-24.5 -107t80.5 -114t196.5 -53t221 66q-31 -86 -144.5 -166t-258.5 -80
t-240 73.5t-95 186.5t86 168.5t211 113t124 167.5q-1 74 -50 124t-133 58q115 100 206 100z" />
    <glyph glyph-name="Agrave" unicode="&#xc0;" horiz-adv-x="1439" 
d="M690 559q10 0 44 1t67 2t59 1l-231 649l-246 -651h15l60 -1zM635 471q-35 0 -75 -1l-80 -2t-74.5 -2t-57.5 -1q-49 -141 -49 -225t43 -135.5t133 -104.5l-155 5q-156 5 -233 1t-122 -6q93 89 135.5 176.5t72.5 161.5t75 184t154.5 376.5t207.5 531.5q24 6 120 6t120 -6
q18 -51 51 -139.5t81.5 -222t138 -373.5t109.5 -293q59 -159 93.5 -233t118.5 -169l-165 5q-165 5 -262 1t-159 -6q117 95 117 186q0 39 -15 90l-63 193h-17l-69 1zM414 1645q-82 12 -49 112q43 130 108 92l358 -254z" />
    <glyph glyph-name="AE" unicode="&#xc6;" horiz-adv-x="1953" 
d="M472 563h103l265 6v699l-404 -695l-6 -8q33 -2 42 -2zM1800 1442q-4 -78 -4 -195t4 -211q-51 86 -98 144.5t-129.5 108.5t-302.5 50q-93 0 -133 -8q-3 -61 -9 -134t-6 -243v-176q12 -2 14 -2h23q238 0 312.5 29t105.5 60.5t63 78.5q-8 -188 -8 -241t3 -115t5 -111
q-37 57 -68.5 96t-96 74t-273.5 35h-80l2 -168q0 -125 5.5 -206t30 -129t77.5 -66.5t144 -18.5q173 0 279 62t267 247l-10 -47q-10 -47 -35.5 -161.5t-40.5 -204.5q-94 12 -233 12l-279 2h-352q-117 0 -189 -3t-120 -3q47 37 77.5 70.5t57.5 102.5t35 306h-16l-66 1l-160 1
q-104 0 -215 -6q-82 -156 -82 -254q0 -126 145 -219q-281 11 -294 10l-130 -6q-44 -2 -94 -4q137 132 255.5 328.5t159 266t93.5 160.5t198.5 342t194.5 330l13 -2v2q45 -2 99 -2h31l120 1l325 1q265 0 385 15z" />
    <glyph glyph-name="Ccedilla" unicode="&#xc7;" horiz-adv-x="1462" 
d="M1003 -142.5q74 -52.5 74 -133.5t-69 -133t-157 -52q-89 0 -140.5 35t-59.5 117q63 -39 142 -39q106 0 106 72q0 86 -172 120l47 131q-326 16 -513 201t-187 498q0 180 62.5 325.5t171 248t255 156.5t284.5 54t288.5 -29.5t201.5 -29.5h23q-2 -43 -2 -53v-144
q0 -135 1 -169t1 -54q-229 383 -500 383q-186 0 -327.5 -154.5t-141.5 -463.5t121 -449.5t210 -183.5t167 -43q141 0 265 112t224 285q-12 -99 -41 -424q-45 0 -94 -10.5t-156.5 -32.5t-230.5 -25l-31 -45q104 -18 178 -70.5z" />
    <glyph glyph-name="Egrave" unicode="&#xc8;" 
d="M453 1645q-82 12 -50 112q43 131 109 92l358 -254zM964 1427q92 0 212 15q-5 -98 -5 -148v-58q0 -58 2.5 -114.5t2.5 -97.5q-141 184 -243.5 249.5t-281.5 65.5q-87 0 -139 -8q-14 -192 -14 -377v-176q12 -2 14 -2h23q237 0 312 29t106.5 60.5t62.5 78.5q-8 -188 -8 -241
t3 -115t5 -111q-37 55 -67.5 94t-97.5 75t-267 36h-86l2 -168q0 -127 5 -208t30.5 -128t79 -65.5t144.5 -18.5q173 0 282 64t262 245l-11 -47q-10 -47 -33 -151.5t-42 -214.5q-150 12 -234 12l-278 2h-351q-112 0 -186 -3t-125 -3q84 70 115.5 123t44 172t12.5 365
q0 247 -6 371t-24.5 199t-52.5 118t-89 86q192 -7 201 -7h108q64 2 146 2h466z" />
    <glyph glyph-name="Eacute" unicode="&#xc9;" 
d="M541 1595l360 254q67 37 109 -92q33 -100 -49 -112zM964 1427q92 0 212 15q-5 -98 -5 -148v-58q0 -58 2.5 -114.5t2.5 -97.5q-141 184 -243.5 249.5t-281.5 65.5q-87 0 -139 -8q-14 -192 -14 -377v-176q12 -2 14 -2h23q237 0 312 29t106.5 60.5t62.5 78.5
q-8 -188 -8 -241t3 -115t5 -111q-37 55 -67.5 94t-97.5 75t-267 36h-86l2 -168q0 -127 5 -208t30.5 -128t79 -65.5t144.5 -18.5q173 0 282 64t262 245l-11 -47q-10 -47 -33 -151.5t-42 -214.5q-150 12 -234 12l-278 2h-351q-112 0 -186 -3t-125 -3q84 70 115.5 123t44 172
t12.5 365q0 247 -6 371t-24.5 199t-52.5 118t-89 86q192 -7 201 -7h108q64 2 146 2h466z" />
    <glyph glyph-name="Ecircumflex" unicode="&#xca;" 
d="M995 1642q-60 -86 -102 -118l-236 198l-229 -206q-40 22 -53 40l319 334zM964 1427q92 0 212 15q-5 -98 -5 -148v-58q0 -58 2.5 -114.5t2.5 -97.5q-141 184 -243.5 249.5t-281.5 65.5q-87 0 -139 -8q-14 -192 -14 -377v-176q12 -2 14 -2h23q237 0 312 29t106.5 60.5
t62.5 78.5q-8 -188 -8 -241t3 -115t5 -111q-37 55 -67.5 94t-97.5 75t-267 36h-86l2 -168q0 -127 5 -208t30.5 -128t79 -65.5t144.5 -18.5q173 0 282 64t262 245l-11 -47q-10 -47 -33 -151.5t-42 -214.5q-150 12 -234 12l-278 2h-351q-112 0 -186 -3t-125 -3
q84 70 115.5 123t44 172t12.5 365q0 247 -6 371t-24.5 199t-52.5 118t-89 86q192 -7 201 -7h108q64 2 146 2h466z" />
    <glyph glyph-name="Edieresis" unicode="&#xcb;" 
d="M794 1786q49 47 110 47q60 0 96 -38t36 -96t-46 -103.5t-106 -45.5t-99.5 38t-39.5 95q0 56 49 103zM416 1785.5q47 47.5 109 47.5t98 -38t36 -96t-47 -103.5t-106 -45.5t-98 38t-39 94t47 103.5zM964 1427q92 0 212 15q-5 -98 -5 -148v-58q0 -58 2.5 -114.5t2.5 -97.5
q-141 184 -243.5 249.5t-281.5 65.5q-87 0 -139 -8q-14 -192 -14 -377v-176q12 -2 14 -2h23q237 0 312 29t106.5 60.5t62.5 78.5q-8 -188 -8 -241t3 -115t5 -111q-37 55 -67.5 94t-97.5 75t-267 36h-86l2 -168q0 -127 5 -208t30.5 -128t79 -65.5t144.5 -18.5q173 0 282 64
t262 245l-11 -47q-10 -47 -33 -151.5t-42 -214.5q-150 12 -234 12l-278 2h-351q-112 0 -186 -3t-125 -3q84 70 115.5 123t44 172t12.5 365q0 247 -6 371t-24.5 199t-52.5 118t-89 86q192 -7 201 -7h108q64 2 146 2h466z" />
    <glyph glyph-name="Idieresis" unicode="&#xcf;" horiz-adv-x="724" 
d="M462.5 1786.5q48.5 46.5 109.5 46.5t97 -38t36 -96t-46.5 -103.5t-106.5 -45.5t-99 38t-39 95t48.5 103.5zM84.5 1785.5q47.5 47.5 109.5 47.5t98 -38t36 -96t-47.5 -103.5t-106.5 -45.5t-98 38t-39 94t47.5 103.5zM320 1427l102 1q102 0 152 2t104 4q-57 -43 -91 -86
t-57.5 -141t-23.5 -448t12.5 -468.5t44.5 -172t115 -118.5l-320 6q-116 0 -188 -3t-121 -3q79 62 114 120t46.5 184.5t11.5 355.5t-5 359t-23.5 208t-52.5 121t-91 86q178 -7 271 -7z" />
    <glyph glyph-name="Ntilde" unicode="&#xd1;" horiz-adv-x="1636" 
d="M194 1427h70q69 0 146 5q125 -137 236.5 -262.5t221 -247t221 -246.5t234.5 -262v307q0 357 -55.5 469.5t-108.5 157.5t-121 86q179 -7 272 -7l92 1q93 0 131 2t73 4q-57 -45 -91 -90.5t-57.5 -146.5t-23.5 -467q0 -367 8 -765q-18 -4 -58.5 -4t-58.5 4
q-248 281 -488.5 562.5t-498.5 566.5v-392q0 -352 55.5 -462.5t108.5 -153.5t121 -86l-312 6q-109 0 -165 -3t-91 -3q53 43 87 86t59.5 139t25.5 377t-9 408t-30.5 205.5t-60.5 124.5t-96 92zM639 1776q47 0 85 -7.5t78 -14.5t79 -14t75 -7t57 13t38 42q45 -39 46 -90
t-46 -90t-99 -39q-77 0 -175.5 23.5t-131.5 23.5t-60.5 -8t-47.5 -41q-27 45 -26 93t41 82t87 34z" />
    <glyph glyph-name="Ocircumflex" unicode="&#xd4;" horiz-adv-x="1646" 
d="M1122 1642q-60 -86 -102 -118l-236 198l-229 -206q-40 22 -53 40l319 334zM1101.5 155.5q153.5 85.5 153.5 530.5q0 294 -118 486t-332 192q-188 0 -300 -155.5t-112 -469.5t124.5 -491.5t277.5 -177.5t306.5 85.5zM844 1458q162 0 293 -45t228 -134t152.5 -220
t55.5 -391t-217.5 -477.5t-569.5 -217.5q-309 0 -509.5 174.5t-200.5 524.5q0 349 159.5 511.5t303 218.5t305.5 56z" />
    <glyph glyph-name="Odieresis" unicode="&#xd6;" horiz-adv-x="1646" 
d="M1101.5 155.5q153.5 85.5 153.5 530.5q0 294 -118 486t-332 192q-188 0 -300 -155.5t-112 -469.5t124.5 -491.5t277.5 -177.5t306.5 85.5zM844 1458q162 0 293 -45t228 -134t152.5 -220t55.5 -391t-217.5 -477.5t-569.5 -217.5q-309 0 -509.5 174.5t-200.5 524.5
q0 349 159.5 511.5t303 218.5t305.5 56zM905 1786q49 47 110 47q60 0 96 -38t36 -96t-46.5 -103.5t-106.5 -45.5t-99 38t-39 95q0 56 49 103zM526.5 1785.5q47.5 47.5 109.5 47.5t98 -38t36 -96t-47 -103.5t-107 -45.5t-98.5 38t-38.5 94t47.5 103.5z" />
    <glyph glyph-name="agrave" unicode="&#xe0;" horiz-adv-x="1026" 
d="M180 1364q0 33 34 82t69.5 55t58.5 -16l266 -332l-387 160q-41 18 -41 51zM604 403q0 41 4 95q-301 -43 -301 -207q0 -70 50.5 -103t119.5 -24q63 0 127 33q-2 10 -2 13v22v58zM403 840q-150 0 -297 -80q56 190 192 233t252.5 43t224.5 -89t108 -263q0 -53 -7.5 -122.5
t-7.5 -161.5q0 -165 34 -223t142 -93q-55 -69 -138.5 -89t-114.5 -20q-163 0 -187 207q-36 -83 -122 -145t-221.5 -62t-178.5 92.5t-43 160.5t80.5 176t406.5 108q42 0 82 -4q6 62 6 131q2 104 -61.5 152.5t-149.5 48.5z" />
    <glyph glyph-name="ae" unicode="&#xe6;" horiz-adv-x="1644" 
d="M604 477v21q-295 -47 -295 -207q0 -68 67 -110t160 -13t130 47q-62 113 -62 262zM1110 946q-86 0 -144.5 -87t-62.5 -253l393 10v60q-7 186 -73 228t-113 42zM807 920q147 116 347 116t318.5 -122.5t118.5 -323.5q0 -29 -4 -49l-682 -13q11 -177 106 -257.5t261 -80.5
t311 91q-10 -37 -44 -90.5t-133 -135.5t-282 -82q-141 0 -263 56.5t-191 177.5q-71 -153 -181.5 -192.5t-172.5 -39.5q-119 0 -198 68t-79 160q0 163 144.5 235t344.5 72h29q29 0 47 -2q0 41 10 86l2 43q0 209 -219 209q-82 0 -158.5 -29t-129.5 -69q25 126 136.5 207
t264.5 81q193 0 297 -116z" />
    <glyph glyph-name="ccedilla" unicode="&#xe7;" horiz-adv-x="1026" 
d="M57 463q0 262 174.5 417.5t409.5 155.5q234 0 287 -68.5t53 -118.5t-43 -87t-97 -37t-82 33t-50.5 72.5t-50 72.5t-72.5 33q-89 0 -159.5 -100.5t-70.5 -274.5t95 -273.5t238.5 -99.5t287.5 91q-33 -123 -131 -208t-250 -96l-33 -49q104 -18 178 -70.5t74 -133.5
t-69 -133t-158 -52t-140 35t-59 117q63 -39 141 -39q106 0 107 71q0 87 -172 121l49 133q-193 13 -325 139t-132 349z" />
    <glyph glyph-name="egrave" unicode="&#xe8;" horiz-adv-x="1103" 
d="M240 1364q0 33 34 82t69.5 55t57.5 -16l267 -332l-387 160q-41 18 -41 51zM754 634v42q-7 186 -73.5 228t-113.5 42q-88 0 -145 -87t-62 -253l392 10q2 14 2 18zM863 55q-100 -82 -299 -82t-351 127.5t-152 377.5q0 249 160 403.5t375 154.5q216 0 333.5 -123.5
t117.5 -322.5q0 -24 -5 -49l-680 -11q21 -340 360 -340q77 0 164 25t154 66q-10 -37 -43.5 -90.5t-133.5 -135.5z" />
    <glyph glyph-name="eacute" unicode="&#xe9;" horiz-adv-x="1103" 
d="M893 1364q0 -33 -41 -51l-387 -160l266 332q23 23 58.5 16.5t69.5 -55.5t34 -82zM754 634v42q-7 186 -73.5 228t-113.5 42q-88 0 -145 -87t-62 -253l392 10q2 14 2 18zM863 55q-100 -82 -299 -82t-351 127.5t-152 377.5q0 249 160 403.5t375 154.5q216 0 333.5 -123.5
t117.5 -322.5q0 -24 -5 -49l-680 -11q21 -340 360 -340q77 0 164 25t154 66q-10 -37 -43.5 -90.5t-133.5 -135.5z" />
    <glyph glyph-name="ecircumflex" unicode="&#xea;" horiz-adv-x="1103" 
d="M334 1139q-36 22 -49 45l307 352l291 -283q-63 -85 -109 -114l-217 200zM754 634v42q-7 186 -73.5 228t-113.5 42q-88 0 -145 -87t-62 -253l392 10q2 14 2 18zM863 55q-100 -82 -299 -82t-351 127.5t-152 377.5q0 249 160 403.5t375 154.5q216 0 333.5 -123.5
t117.5 -322.5q0 -24 -5 -49l-680 -11q21 -340 360 -340q77 0 164 25t154 66q-10 -37 -43.5 -90.5t-133.5 -135.5z" />
    <glyph glyph-name="edieresis" unicode="&#xeb;" horiz-adv-x="1103" 
d="M664.5 1413.5q48.5 46.5 109.5 46.5t97 -38t36 -96t-46 -103t-106 -45t-99.5 38t-39.5 95q0 56 48.5 102.5zM287 1413q47 47 109 47t98 -38t36 -96t-47 -103t-106 -45t-98 38t-39 94t47 103zM754 634v42q-7 186 -73.5 228t-113.5 42q-88 0 -145 -87t-62 -253l392 10
q2 14 2 18zM863 55q-100 -82 -299 -82t-351 127.5t-152 377.5q0 249 160 403.5t375 154.5q216 0 333.5 -123.5t117.5 -322.5q0 -24 -5 -49l-680 -11q21 -340 360 -340q77 0 164 25t154 66q-10 -37 -43.5 -90.5t-133.5 -135.5z" />
    <glyph glyph-name="idieresis" unicode="&#xef;" horiz-adv-x="622" 
d="M455 628q0 -235 6 -324t25.5 -143.5t57.5 -88t101 -74.5q-351 12 -460 7t-152 -5q55 45 84.5 82t45 87t18.5 125t3 187t-7 178t-26.5 110t-51 76t-81.5 68l445 125q-8 -175 -8 -410zM374 1414q48 46 109 46t97 -38t36 -96t-46 -103t-106 -45t-99 38t-39 95t48 103z
M-4.5 1413q46.5 47 109.5 47t99 -38t36 -96t-47.5 -103t-106.5 -45t-98 38t-39 94t46.5 103z" />
    <glyph glyph-name="ntilde" unicode="&#xf1;" horiz-adv-x="1323" 
d="M502 1260q-77 0 -107 -50q-27 45 -27 93t41.5 82t88.5 34t85 -7t77.5 -14t78.5 -14.5t76 -7.5q63 0 94 56q45 -36 46 -88t-46 -92t-98 -40q-68 0 -175 24t-134 24zM1319 0q-264 8 -351 8q-88 0 -146 -3t-99 -5q45 41 79 72.5t66.5 93.5t32.5 279t-52.5 305t-180.5 88
q-87 0 -213 -35l-2 -27v-274q0 -269 20.5 -331t53 -97t89.5 -74q-286 13 -412 8q-126 -6 -171 -8q51 45 81.5 81t50 94t19.5 223t-5 239t-22.5 123t-50 81.5t-88.5 71.5l433 125l-9 -227q111 125 213.5 175t206.5 50q304 0 306 -386q2 -368 19 -447.5t47 -120.5t85 -82z" />
    <glyph glyph-name="ocircumflex" unicode="&#xf4;" horiz-adv-x="1204" 
d="M618 70q120 0 173 99t53 314t-67.5 337t-184.5 122t-176.5 -114t-59.5 -320q0 -207 71 -322.5t191 -115.5zM196 103q-137 130 -137 370t156.5 401.5t407.5 161.5q250 0 386 -136t136 -376t-150 -395.5t-406 -155.5t-393 130zM352 1139q-36 22 -49 45l307 352l291 -283
q-63 -85 -108 -114l-218 200z" />
    <glyph glyph-name="odieresis" unicode="&#xf6;" horiz-adv-x="1204" 
d="M618 70q120 0 173 99t53 314t-67.5 337t-184.5 122t-176.5 -114t-59.5 -320q0 -207 71 -322.5t191 -115.5zM196 103q-137 130 -137 370t156.5 401.5t407.5 161.5q250 0 386 -136t136 -376t-150 -395.5t-406 -155.5t-393 130zM682 1414.5q49 45.5 109 45.5q61 0 97 -38
t36 -96t-46.5 -103t-106.5 -45t-99 38t-39 95q0 58 49 103.5zM303 1413q47 47 109 47t98.5 -38t36.5 -96t-46.5 -103t-106.5 -45t-99 38t-39 94t47 103z" />
    <glyph glyph-name="OE" unicode="&#x152;" horiz-adv-x="2230" 
d="M1102 1114.5q-12 121.5 -49 198.5q-84 51 -209 51q-215 0 -333 -156.5t-118 -471.5t125 -490.5t334 -175.5q99 0 195 32q41 68 54 193.5t13 411.5t-12 407.5zM1864 1427q93 0 211 15q-4 -78 -4 -138v-66q0 -65 2 -128t2 -86q-141 184 -243.5 249.5t-281.5 65.5
q-87 0 -139 -8q-14 -193 -14 -377v-176q12 -2 15 -2h22q237 0 312 29t106.5 60.5t62.5 78.5q-8 -188 -8 -241t3 -115t5 -111q-37 55 -67.5 94t-97.5 75t-267 36h-86l2 -168q0 -127 5 -208t30.5 -128t79 -65.5t144.5 -18.5q173 0 282 64t262 245l-11 -47q-10 -47 -33 -151.5
t-42 -214.5q-150 12 -234 12l-278 2h-351q-119 0 -213 -4q-148 -27 -274 -27q-125 0 -254 41t-282.5 174.5t-153.5 485.5t217.5 568t564.5 216q140 0 266 -33h127q63 2 145 2h468z" />
    <glyph glyph-name="oe" unicode="&#x153;" horiz-adv-x="1892" 
d="M1542 634v42q-7 185 -73 227.5t-113 42.5q-88 0 -145.5 -87t-61.5 -253l391 10q2 14 2 18zM618 70q120 0 173 99t53 314t-67.5 337t-184.5 122t-176.5 -114t-59.5 -320q0 -207 71 -322.5t191 -115.5zM196 103q-137 130 -137 370t156.5 401.5t411.5 161.5t389 -147
q155 147 370 147t332 -123t117 -323q0 -29 -4 -49l-680 -11q11 -179 106 -259.5t258 -80.5t314 91q-10 -37 -44 -90.5t-134 -135.5t-283 -82q-241 0 -385 144q-152 -144 -401 -144t-386 130z" />
    <glyph glyph-name="endash" unicode="&#x2013;" horiz-adv-x="1089" 
d="M129 621h827v-166h-827v166z" />
    <glyph glyph-name="emdash" unicode="&#x2014;" horiz-adv-x="2023" 
d="M129 618h1761v-165h-1761v165z" />
    <glyph glyph-name="quoteleft" unicode="&#x2018;" horiz-adv-x="526" 
d="M449 1058q0 -68 -55.5 -114.5t-129.5 -46.5t-127 62.5t-53 153.5q0 166 121.5 284t310.5 155q-256 -156 -262 -331q74 0 109.5 -17.5t60.5 -47.5t25 -98z" />
    <glyph glyph-name="quoteright" unicode="&#x2019;" horiz-adv-x="575" 
d="M201.5 1500q54.5 48 130.5 48t129 -62.5t53 -153.5q0 -164 -121 -283t-311 -156q256 156 262 332q-74 0 -135.5 29.5t-61.5 113.5t54.5 132z" />
    <glyph glyph-name="quotedblleft" unicode="&#x201c;" horiz-adv-x="962" 
d="M832 945.5q-55 -48.5 -131 -48.5q-75 0 -128 61.5t-53 152.5q0 166 122.5 285t309.5 156q-256 -160 -260 -333q55 7 125 -23.5t70 -116.5q0 -85 -55 -133.5zM449 1056q0 -68 -55.5 -113.5t-129.5 -45.5t-127 61.5t-53 152.5q0 165 120.5 284.5t311.5 156.5
q-256 -156 -262 -333q55 7 100 -13t70 -51t25 -99z" />
    <glyph glyph-name="quotedblright" unicode="&#x201d;" horiz-adv-x="1013" 
d="M201.5 1500q54.5 48 130.5 48t129 -62.5t53 -153.5q0 -164 -121 -283t-311 -156q256 156 262 332q-74 0 -135.5 29.5t-61.5 113.5t54.5 132zM641 1500.5q55 47.5 130 47.5t128 -62.5t53 -153.5q0 -164 -121 -283t-311 -156q256 158 260 332q-74 0 -134 28.5t-60 114.5
q0 85 55 132.5z" />
    <glyph glyph-name="dagger" unicode="&#x2020;" horiz-adv-x="1148" 
d="M442 212q0 68 9.5 141t23.5 146.5t28.5 147.5t26.5 148l-86 86q-29 -12 -57.5 -24.5t-76.5 -29t-126 -16.5t-100.5 31.5t-22.5 63.5q0 62 27 94t104 32t131 -21.5t113 -43.5l78 80q-17 63 -46.5 149.5t-29.5 146.5t42 86.5t87 26.5t87 -25.5t42 -93.5t-31.5 -154.5
t-46.5 -138.5l82 -81q70 23 136.5 46t139.5 23t91 -33.5t18 -76.5t-20.5 -77t-88.5 -34t-138 24.5t-148 47.5l-86 -84q13 -79 50.5 -268.5t37.5 -280.5q0 -92 -17.5 -145.5t-57.5 -152.5t-48 -173q-11 61 -52.5 158.5t-58 152t-16.5 122.5z" />
    <glyph glyph-name="bullet" unicode="&#x2022;" horiz-adv-x="706" 
d="M164 526q0 39 15.5 74t41 60.5t60 41t73.5 15.5t74 -15.5t60.5 -41t41 -60.5t15.5 -74t-15.5 -73.5t-41 -60t-60.5 -41t-74 -15.5t-73.5 15.5t-60 41t-41 60t-15.5 73.5z" />
    <glyph glyph-name="perthousand" unicode="&#x2030;" horiz-adv-x="2056" 
d="M1675 436q-80 0 -80 -202t107 -201q56 0 77 52.5t21 147.5t-22.5 149t-102.5 54zM1705 494q288 0 288 -182.5t-81.5 -258.5t-222.5 -76t-212.5 64.5t-71.5 184.5t81 194t219 74zM709 553l-353 -469q-94 -118 -155 -64q-35 33 -19.5 77t68.5 85l450 377l322 440
q39 57 84 84t86 -9t19.5 -77t-68.5 -82zM1047 436q-101 0 -101 -202t105 -201q100 0 100 203q0 92 -22.5 146t-81.5 54zM1054 494q288 0 287.5 -182.5t-80 -258.5t-221.5 -76t-213 64.5t-71 184.5t80 194t218 74zM375 1053q-101 0 -101 -202t105 -202q100 0 100 203
q0 90 -22.5 145.5t-81.5 55.5zM368 592q-142 0 -213 64.5t-71 184.5t80 194.5t217 74.5t213 -59.5t76 -182.5t-80 -199.5t-222 -76.5z" />
    <glyph glyph-name="guilsinglleft" unicode="&#x2039;" horiz-adv-x="614" 
d="M76 522l422 424l-156 -418l156 -428z" />
    <glyph glyph-name="guilsinglright" unicode="&#x203a;" horiz-adv-x="614" 
d="M117 100l155 428l-155 418l422 -424z" />
    <glyph glyph-name="Euro" unicode="&#x20ac;" horiz-adv-x="1314" 
d="M786 -20q-254 0 -397 107.5t-174 305.5h-139v82h131v33q0 49 6 98h-137v82h151q53 199 211 309.5t381 110.5q89 0 203 -22.5t149 -22.5h19q-2 -33 -2 -41v-104q0 -97 1 -121.5t1 -38.5q-90 138 -168 207t-203 69q-195 0 -252 -127t-67 -219h426l-19 -82h-413v-18
q0 -61 6 -113h389l-19 -82h-356q39 -162 133 -252t211 -90t196.5 83t149.5 204q-10 -75 -33 -307q-37 0 -146.5 -25.5t-238.5 -25.5z" />
    <glyph glyph-name="trademark" unicode="&#x2122;" horiz-adv-x="2443" 
d="M125 1354q0 44 -4 94q66 -8 151 -8l78 -1l524 1q74 0 152 8q-4 -50 -4 -80v-52q0 -51 2 -110t2 -67q-83 121 -139 171t-152 58q-4 2 -7 2h-28q-12 -123 -12 -330t3 -274.5t15.5 -107.5t36 -63.5t64.5 -51.5q-41 0 -80 2l-37 1l-258 -1q-41 -2 -82 -2q39 29 62.5 52
t40 78.5t16.5 351.5t-10 345h-33q-128 -4 -178.5 -51t-75 -89t-51.5 -91l1 41zM1193 1440h69q69 0 155 4l305 -696l293 696q87 -6 91 -6h46q12 0 41 1t60 2t57.5 2t32.5 1q-27 -29 -71 -71t-44 -286v-120q0 -233 16.5 -288.5t38 -81.5t56.5 -54q-45 0 -88 2l-154 2l-133 -2
q-35 -2 -66 -2q35 29 56.5 54.5t38 81t16.5 288.5v260l-291 -690q-10 -5 -19 -5h-55q-45 0 -53 5l-329 694v-264q0 -222 29.5 -284t59 -87t72.5 -53q-31 0 -63 2l-32 1l-216 -1q-27 -2 -51 -2q35 29 56.5 54.5t37.5 81.5t16 288v120q0 164 -22.5 221.5t-44 82t-47.5 53.5z
" />
    </font>
</defs>
</svg>
