<?xml version="1.0" standalone="no"?>
<!DOCTYPE svg PUBLIC "-//W3C//DTD SVG 20010904//EN"
 "http://www.w3.org/TR/2001/REC-SVG-20010904/DTD/svg10.dtd">
<svg version="1.0" xmlns="http://www.w3.org/2000/svg"
 width="1000.000000pt" height="1000.000000pt" viewBox="0 0 1000.000000 1000.000000"
 preserveAspectRatio="xMidYMid meet">
<metadata>
Created by potrace 1.11, written by Peter Selinger 2001-2013
</metadata>
<g transform="translate(0.000000,1000.000000) scale(0.100000,-0.100000)"
fill="#000000" stroke="none">
<path d="M0 5000 l0 -5000 5000 0 5000 0 0 5000 0 5000 -5000 0 -5000 0 0
-5000z m2558 3739 c346 -14 1641 -7 2464 12 765 18 1070 -4 1463 -102 720
-181 1247 -565 1514 -1104 101 -202 156 -374 198 -610 26 -147 25 -613 0 -775
-63 -393 -199 -701 -444 -1006 -519 -643 -1498 -1005 -2720 -1004 -213 0 -455
11 -565 26 l-48 6 0 -289 c1 -754 49 -1246 156 -1571 133 -408 365 -672 855
-974 l142 -88 -99 0 c-54 0 -299 7 -544 15 -698 22 -1446 28 -1885 15 -214 -6
-531 -14 -704 -17 l-315 -6 110 93 c159 135 363 345 423 435 206 308 301 748
341 1580 22 458 32 1550 21 2249 -12 721 -22 1003 -46 1310 -54 670 -172 1096
-377 1371 -76 101 -227 255 -348 353 -58 47 -109 90 -115 95 -6 6 35 7 110 3
66 -3 252 -11 413 -17z"/>
<path d="M4660 8255 c-183 -23 -180 -22 -180 -53 0 -15 -11 -178 -25 -362 -37
-501 -46 -926 -43 -2090 l3 -1055 130 -23 c164 -29 540 -41 692 -23 288 36
537 124 741 263 104 71 274 244 343 348 193 291 279 609 279 1024 0 563 -185
1110 -503 1485 -199 234 -473 404 -767 473 -113 27 -497 34 -670 13z"/>
</g>
</svg>
