<?xml version="1.0" standalone="no"?>
<!DOCTYPE svg PUBLIC "-//W3C//DTD SVG 1.1//EN" "http://www.w3.org/Graphics/SVG/1.1/DTD/svg11.dtd" >
<svg xmlns="http://www.w3.org/2000/svg">
<metadata>
Created by FontPrep 20130207 at Mon Oct 26 23:45:35 2015
 By Callum Flack
Copyright (c) 1991 Adobe Systems Incorporated.  All Rights Reserved.Gazette is a trademark of Linotype-Hell AG and/or its subsidiaries.
</metadata>
<defs>
<font id="9be407ef29140660fadf03f2062fe168" horiz-adv-x='1024' >
  <font-face 
    font-family="GazetteLH-Bold"
    font-weight="700"
    font-stretch="normal"
    units-per-em="2048"
    panose-1="2 2 8 0 0 0 0 0 0 0"
    ascent="1536"
    descent="-512"
    x-height="1040"
    cap-height="1454"
    bbox="-342 -512 2220 2028"
    underline-thickness="102"
    underline-position="-102"
    unicode-range="U+0020-FB02"
  />
<missing-glyph horiz-adv-x="569" 
 />
    <glyph glyph-name=".notdef" horiz-adv-x="569" 
 />
    <glyph glyph-name=".null" horiz-adv-x="0" 
 />
    <glyph glyph-name="nonmarkingreturn" horiz-adv-x="681" 
 />
    <glyph glyph-name="space" unicode=" " horiz-adv-x="569" 
 />
    <glyph glyph-name="space" unicode="&#xa0;" horiz-adv-x="569" 
 />
    <glyph glyph-name="exclam" unicode="!" horiz-adv-x="681" 
d="M160 152q0 76 52 128t128 52t128 -52t52 -128t-52 -128t-128 -52t-128 52t-52 128zM164 1249q0 119 53 176t123 57t123 -56q53 -58 53 -177q0 -61 -20 -165t-119 -576h-74q-100 471 -120 575q-19 104 -19 166z" />
    <glyph glyph-name="quotedbl" unicode="&#x22;" horiz-adv-x="757" 
d="M643 1404q0 -46 -12 -140l-49 -392h-74l-49 392q-13 94 -13 140t28 77t71 31t71 -32q28 -30 27 -76zM115 1404q0 46 27 77q28 31 71 31t71 -32q28 -30 28 -76t-13 -140l-49 -392h-74l-49 392q-12 94 -12 140z" />
    <glyph glyph-name="numbersign" unicode="#" 
d="M758 866h-232l-37 -278h232zM1061 588v-152h-203l-59 -436h-160l59 436h-231l-59 -436h-160l59 436h-196v152h219l37 278h-197v152h217l62 436h157l-59 -436h231l62 436h157l-59 -436h180v-152h-200l-37 -278h180z" />
    <glyph glyph-name="dollar" unicode="$" 
d="M610 563v-469q119 14 178 80t60 150q0 165 -238 239zM291 1168q-1 -86 59 -136q60 -51 158 -90v449q-104 -13 -160 -75t-57 -148zM82 1059q0 160 113 288t313 148v115h102v-115q164 -4 294 -86t132 -201q0 -59 -38 -100t-96 -41t-93 33t-35 78q0 44 18 78t19 49
q0 43 -69 67t-132 25v-494q446 -152 447 -475q0 -369 -447 -440v-195h-102v195q-159 13 -296 74q-77 34 -124 96t-47 133q0 72 37 118q36 46 102 46t103 -42t37 -84t-17 -71q-16 -29 -16 -45q-1 -51 61 -87t160 -40v520q-174 70 -285 154q-141 107 -141 299z" />
    <glyph glyph-name="percent" unicode="%" horiz-adv-x="2048" 
d="M1331 1489h111l-744 -1555h-110zM1501 602q-69 0 -105 -57t-36 -223t37 -224t105 -57q68 0 104 57q36 58 36 224t-36 223q-37 57 -105 57zM1501 676q145 0 249 -91t105 -263q0 -172 -104 -264q-103 -92 -249 -91q-146 0 -251 91q-104 92 -104 264t104 263q105 91 250 91z
M543 1372q-68 0 -105 -57t-37 -223t37 -224t105 -57q69 0 105 57q36 58 36 224t-36 223t-105 57zM543 1446q145 0 249 -91t105 -263q0 -172 -104 -264q-103 -92 -249 -91q-146 0 -251 91q-105 92 -105 264t105 263t250 91z" />
    <glyph glyph-name="ampersand" unicode="&#x26;" horiz-adv-x="1705" 
d="M352 490q0 -125 109 -252t254 -127q109 0 203 65q-127 132 -210 232t-223 292q-133 -85 -133 -210zM938 1184q0 94 -46 153t-132 59t-140 -58q-54 -60 -55 -148q0 -125 129 -305q94 43 169 124t75 175zM1315 -41q-152 0 -330 158q-127 -92 -222 -125t-210 -33
q-221 0 -350 108t-129 289t140 288q114 85 226 130q-117 203 -116 330q0 160 120 274t286 113q168 0 280 -86t112 -226q0 -141 -100 -225t-277 -143q102 -139 218 -275q117 -135 157 -186l76 113q45 59 45 121t-34 84q-34 23 -117 28v74h512v-74q-115 -6 -203 -123
l-211 -280q152 -145 262 -146q75 0 149 78l56 -43q-145 -223 -340 -223z" />
    <glyph glyph-name="quotesingle" unicode="'" horiz-adv-x="569" 
d="M383 1404q0 -46 -12 -140l-49 -392h-74l-49 392q-13 94 -13 140t28 77t71 31t71 -32q28 -30 27 -76z" />
    <glyph glyph-name="parenleft" unicode="(" horiz-adv-x="720" 
d="M360 541q0 -584 349 -924l-39 -66q-293 211 -459 452t-166 546t173 566q174 261 446 425l43 -63q-49 -47 -81 -82t-87 -121t-90 -177t-62 -239t-27 -317z" />
    <glyph glyph-name="parenright" unicode=")" horiz-adv-x="720" 
d="M676 543q0 -305 -173 -567q-174 -261 -446 -425l-43 64q49 47 81 82t87 121t90 177t62 238t26 318q0 584 -348 924l39 65q293 -212 459 -452t166 -545z" />
    <glyph glyph-name="asterisk" unicode="*" horiz-adv-x="909" 
d="M392 1282q-34 92 -34 127t28 57t66 22t62 -18q24 -20 29 -36q4 -16 4 -40t-37 -120q-33 -108 -33 -134t15 -40q41 2 147 131q43 53 64 69q22 16 60 16q39 0 65 -27q26 -28 26 -70q0 -41 -19 -63t-39 -28t-67 -12q-186 -31 -207 -76q33 -55 189 -69q143 -11 143 -97
q0 -44 -25 -74t-67 -30t-61 15t-56 67q-68 94 -149 131l-17 -12q2 -77 36 -167t34 -111t-3 -37t-27 -36q-24 -22 -66 -22q-100 0 -101 84q0 29 42 131t30 168l-12 6q-82 -47 -124 -103t-57 -72q-39 -42 -83 -42t-66 27t-25 43q-2 16 -2 42q1 26 19 47q18 23 34 27t50 11
q158 25 229 69v15q-43 27 -74 35t-168 30q-94 16 -94 103q0 43 28 69q29 26 67 25q38 1 61 -19t65 -77q52 -80 144 -117l10 8q0 82 -34 174z" />
    <glyph glyph-name="plus" unicode="+" horiz-adv-x="1228" 
d="M508 627v413h213v-413h414v-213h-414v-414h-213v414h-414v213h414z" />
    <glyph glyph-name="comma" unicode="," horiz-adv-x="569" 
d="M303 -82q0 30 -14 42t-47 24q-103 39 -127 100q-13 30 -13 88t52 109t134 51q83 0 141 -70t58 -174q0 -201 -134 -316q-104 -90 -216 -149l-47 80q92 43 153 114q60 71 60 101z" />
    <glyph glyph-name="hyphen" unicode="-" horiz-adv-x="720" 
d="M57 651h570v-262h-570v262z" />
    <glyph glyph-name="hyphen" unicode="&#xad;" horiz-adv-x="720" 
d="M57 651h570v-262h-570v262z" />
    <glyph glyph-name="period" unicode="." horiz-adv-x="569" 
d="M102 152q0 76 52 128t129 52q76 0 128 -52t52 -128t-52 -128t-128 -52q-77 0 -129 52t-52 128z" />
    <glyph glyph-name="slash" unicode="/" horiz-adv-x="569" 
d="M436 1495h137l-450 -1536h-139z" />
    <glyph glyph-name="zero" unicode="0" 
d="M565 1397q-164 0 -164 -402v-536q0 -401 164 -402q164 0 164 402v536q0 402 -164 402zM565 1495q221 0 367 -210t145 -558q0 -348 -145 -558q-144 -210 -366 -210t-367 210t-146 558t145 558t367 210z" />
    <glyph glyph-name="one" unicode="1" 
d="M766 1233v-1030q0 -76 50 -102t136 -27v-74h-704v74q110 10 154 43t44 125v932q0 82 -40 108t-154 29v82q60 8 250 54t280 77q-16 -246 -16 -291z" />
    <glyph glyph-name="two" unicode="2" 
d="M729 266q92 0 144 42t83 149h82q-43 -270 -57 -457h-940v127q324 340 390 436q66 97 127 195q118 193 118 368q0 129 -53 202t-129 73q-117 0 -117 -92q0 -23 20 -80t21 -86q0 -66 -50 -108t-123 -42t-114 50t-41 131q0 129 115 225t327 96t348 -129t136 -314t-143 -322
q-71 -69 -231 -187q-160 -119 -224 -171t-115 -106h426z" />
    <glyph glyph-name="three" unicode="3" 
d="M498 61q202 0 202 330q0 164 -73 244q-74 80 -260 82v123q174 0 237 60t64 237q0 264 -154 264q-100 0 -100 -70q0 -10 18 -63q18 -52 18 -104t-43 -93q-44 -41 -117 -41t-116 51t-43 125q0 113 98 201t311 88q213 1 330 -107t117 -262q0 -248 -289 -338v-4
q142 -35 242 -132t100 -263q0 -199 -150 -315t-342 -115q-191 0 -333 88q-141 88 -141 240q0 82 48 132t121 50t115 -47q42 -48 43 -94q0 -46 -19 -103t-20 -69q0 -39 39 -67t97 -28z" />
    <glyph glyph-name="four" unicode="4" 
d="M594 553v666h-4l-438 -666h442zM893 1255v-702h180v-127h-180v-236q0 -50 35 -74t143 -42v-74h-663v74q186 10 186 116v236h-549v149l608 932h250q-10 -92 -10 -252z" />
    <glyph glyph-name="five" unicode="5" 
d="M940 1454v-254h-647l-23 -346q141 121 297 121q207 0 338 -139t131 -349t-152 -369t-395 -159q-197 0 -313 102t-115 232q1 70 47 122t120 52t116 -44q41 -45 41 -95t-24 -105q-23 -55 -23 -79t34 -57q34 -34 95 -34q229 0 229 396q0 195 -62 289t-173 93
q-61 -1 -111 -31t-68 -52q-16 -22 -36 -56h-105l49 762h750z" />
    <glyph glyph-name="six" unicode="6" 
d="M737 459q0 311 -153 311q-50 0 -96 -33t-72 -78q-14 -57 -15 -208q0 -393 168 -394q86 1 127 95t41 307zM82 711q0 362 165 573t412 211q168 0 279 -98q111 -99 110 -199q-2 -100 -46 -148t-110 -48t-115 40q-48 42 -48 102t28 113t27 66q0 33 -35 53q-36 20 -83 21
q-142 -1 -198 -141t-67 -480q123 125 265 125t267 -98q62 -49 101 -140t39 -208q0 -213 -132 -355t-345 -141q-135 0 -238 65q-179 114 -247 414q-29 130 -29 273z" />
    <glyph glyph-name="seven" unicode="7" 
d="M1081 1466v-118q-352 -629 -403 -1348h-385q29 129 56 220q91 296 262 572q112 181 276 400h-549q-139 0 -184 -162h-80l76 436h931z" />
    <glyph glyph-name="eight" unicode="8" 
d="M274 346q0 -113 76 -199t194 -86t194 74t77 177q0 103 -77 172t-269 155q-195 -115 -195 -293zM580 1393q-116 -1 -176 -63t-60 -147t68 -143t223 -133q49 31 78 53t65 79q37 58 37 136t-60 148t-175 70zM66 346q0 252 309 348q-276 145 -277 381q0 135 102 266
q52 68 150 111t218 43q231 0 332 -110t99 -234q0 -156 -131 -239q-47 -30 -123 -58q130 -71 230 -168t98 -268q0 -201 -157 -330t-351 -129t-347 102q-152 103 -152 285z" />
    <glyph glyph-name="nine" unicode="9" 
d="M397 995q0 -311 154 -311q49 0 95 33t73 78q14 57 14 209q0 393 -168 393q-86 -1 -127 -95t-41 -307zM1053 743q0 -362 -165 -573t-413 -211q-169 0 -279 98q-110 99 -109 199t45 148t110 48t115 -40q49 -42 49 -102t-28 -113t-28 -66q0 -33 36 -53t83 -21q143 1 199 141
t65 480q-123 -125 -264 -125t-267 98q-62 49 -102 141t-39 207q1 213 133 355t345 141q135 -1 237 -65q180 -114 248 -414q29 -130 29 -273z" />
    <glyph glyph-name="colon" unicode=":" horiz-adv-x="569" 
d="M102 152q0 76 52 128t129 52q76 0 128 -52t52 -128t-52 -128t-128 -52q-77 0 -129 52t-52 128zM102 860q0 76 52 128t129 52q76 0 128 -52t52 -128t-52 -128t-128 -52q-77 0 -129 52t-52 128z" />
    <glyph glyph-name="semicolon" unicode=";" horiz-adv-x="569" 
d="M102 860q0 76 52 128t129 52q76 0 128 -52t52 -128t-52 -128t-128 -52q-77 0 -129 52t-52 128zM303 -82q0 30 -14 42t-47 24q-103 39 -127 100q-13 30 -13 88t52 109t134 51q83 0 141 -70t58 -174q0 -201 -134 -316q-104 -90 -216 -149l-47 80q92 43 153 114
q60 71 60 101z" />
    <glyph glyph-name="less" unicode="&#x3c;" horiz-adv-x="1228" 
d="M1135 193v-209l-1041 446v176l1041 447v-209l-764 -326z" />
    <glyph glyph-name="equal" unicode="=" horiz-adv-x="1228" 
d="M1135 414v-213h-1041v213h1041zM1135 840v-213h-1041v213h1041z" />
    <glyph glyph-name="greater" unicode="&#x3e;" horiz-adv-x="1228" 
d="M94 193l764 325l-764 326v209l1041 -447v-176l-1041 -446v209z" />
    <glyph glyph-name="question" unicode="?" horiz-adv-x="985" 
d="M250 152q0 76 52 128t128 52t128 -52t52 -128t-52 -128t-128 -52t-128 52t-52 128zM483 500h-123v286q122 -4 176 58t54 237q0 311 -156 312q-34 -1 -62 -19t-28 -46t20 -66t21 -88q0 -50 -43 -89t-105 -39t-109 44q-46 43 -46 120q0 127 111 204t258 77q199 0 321 -127
t121 -304q0 -178 -113 -272t-297 -88v-200z" />
    <glyph glyph-name="at" unicode="@" horiz-adv-x="1638" 
d="M1126 496q0 -98 72 -99q100 0 172 135t72 306q0 206 -163 374t-407 168t-413 -182q-168 -182 -168 -528q0 -240 172 -414q171 -174 403 -174t439 106l24 -98q-253 -131 -451 -131t-359 72q-161 73 -254 185q-191 231 -191 476q0 352 229 578t541 225q312 0 517 -187
q204 -187 204 -468q0 -201 -110 -365t-290 -164q-94 -1 -145 59t-49 99h-4q-20 -41 -91 -96t-160 -61t-147 68q-57 75 -57 206q0 190 126 365t300 175q54 0 87 -24t41 -46q1 -2 11 -20t10 -20l21 80h156l-115 -478q-23 -98 -23 -122zM688 610q0 -88 33 -136t82 -48
q77 0 149 116t92 326q0 144 -86 144t-178 -117t-92 -285z" />
    <glyph glyph-name="A" unicode="A" horiz-adv-x="1667" 
d="M465 578h483l-237 610zM322 160q0 -84 157 -86v-74h-454v74q88 -4 112 63l570 1317h256l518 -1237q63 -141 161 -143v-74h-690v74q154 0 154 94q0 23 -21 70l-90 221h-581l-74 -199q-18 -59 -18 -100z" />
    <glyph glyph-name="B" unicode="B" horiz-adv-x="1478" 
d="M565 700v-491q0 -57 30 -77t116 -21q281 1 281 295t-287 294h-140zM565 1356v-545h86q155 0 223 71t68 205q0 268 -283 269h-94zM66 1454h772q219 0 352 -96t133 -256q0 -193 -206 -287q-44 -21 -91 -31t-47 -14t39 -10q150 -23 258 -113t108 -254q0 -109 -53 -189
q-91 -136 -323 -185q-94 -19 -195 -19h-756v74q98 2 129 43t31 143v1004q-1 68 -39 90t-112 26v74z" />
    <glyph glyph-name="C" unicode="C" horiz-adv-x="1554" 
d="M1294 1491h82l35 -438h-82q-127 336 -428 336q-203 0 -319 -171q-116 -170 -115 -438q0 -268 92 -452q49 -98 141 -158t218 -59q238 0 473 272l82 -66q-179 -232 -347 -302q-135 -56 -278 -56q-238 0 -417 113q-179 114 -266 284t-87 367q0 322 222 545t542 223
q137 0 254 -38t147 -38q51 0 51 76z" />
    <glyph glyph-name="D" unicode="D" horiz-adv-x="1705" 
d="M557 1356v-1135q0 -55 34 -77t132 -21q274 0 390 162q116 161 116 465t-131 455t-406 151h-135zM61 1454h779q308 0 536 -179q110 -87 176 -223t66 -302q0 -240 -119 -413t-309 -255t-426 -82h-707v74q152 4 152 139v1030q0 79 -34 107t-114 30v74z" />
    <glyph glyph-name="E" unicode="E" horiz-adv-x="1439" 
d="M57 1454h1235v-311h-86q-8 117 -58 165t-157 48h-428v-529h191q92 0 128 37t50 154h86v-492h-86q-6 113 -43 154t-123 41h-203v-461q0 -82 37 -112t133 -29h201q156 0 236 57t120 205h90l-73 -381h-1250v74q96 2 127 44t31 142v981q0 81 -37 109t-121 30v74z" />
    <glyph glyph-name="F" unicode="F" horiz-adv-x="1327" 
d="M57 1454h1219l20 -358h-84q-28 128 -94 192t-203 64h-352v-525h191q92 0 130 43t48 148h86v-492h-86q-6 106 -48 150t-132 45h-189v-461q0 -102 41 -143t146 -43v-74h-693v74q98 2 128 43t30 143v981q0 77 -38 107t-120 32v74z" />
    <glyph glyph-name="G" unicode="G" horiz-adv-x="1667" 
d="M467 702q0 -303 120 -474t326 -171q106 0 158 40q51 40 51 143v262q0 94 -36 127t-152 35v73h672v-73q-84 -2 -110 -35t-26 -119v-250q0 -49 21 -151q-305 -150 -598 -150q-338 0 -577 209t-238 543q0 177 68 327q125 279 423 399q137 54 271 54t279 -42q146 -42 149 -42
q51 0 59 84h80l39 -438h-86q-63 159 -177 247q-115 88 -265 88t-256 -98q-195 -184 -195 -588z" />
    <glyph glyph-name="H" unicode="H" horiz-adv-x="1705" 
d="M561 811h578v432q0 86 -35 111t-121 26v74h666v-74q-92 -2 -127 -26t-35 -111v-1034q0 -76 41 -105t121 -30v-74h-666v74q82 2 119 32t37 107v483h-578v-487q0 -76 41 -105t121 -30v-74h-666v74q82 2 119 32t37 107v1030q0 86 -35 111t-121 26v74h666v-74
q-92 -2 -127 -26t-35 -111v-432z" />
    <glyph glyph-name="I" unicode="I" horiz-adv-x="796" 
d="M66 1454h665v-74q-90 -2 -125 -28t-35 -109v-1034q0 -74 41 -104t119 -31v-74h-665v74q80 2 118 32t39 107v1030q0 86 -36 111t-121 26v74z" />
    <glyph glyph-name="J" unicode="J" horiz-adv-x="1060" 
d="M293 1454h706v-74q-100 -2 -128 -46t-27 -156v-865q0 -152 -114 -253t-298 -101t-296 81t-111 212q0 86 51 134t122 48t123 -45t52 -103t-24 -104q-24 -47 -23 -61q0 -59 82 -59t124 43q42 45 43 111q0 66 -39 183q-40 117 -40 203v606q0 100 -47 135t-156 37v74z" />
    <glyph glyph-name="K" unicode="K" horiz-adv-x="1630" 
d="M45 1454h660v-74q-94 -2 -128 -30t-34 -121v-565l530 561q41 41 41 80q0 76 -164 75v74h594v-74q-145 -2 -246 -102l-352 -358l547 -773q45 -63 121 -73v-74h-721v74q135 12 135 80q0 45 -63 137l-260 377l-162 -166v-289q0 -82 38 -110t124 -29v-74h-664v74q82 2 118 32
t36 107v1030q0 78 -35 107t-115 30v74z" />
    <glyph glyph-name="L" unicode="L" horiz-adv-x="1402" 
d="M57 1454h682v-74q-98 -2 -137 -34t-39 -125v-983q0 -86 42 -106t220 -21q178 0 264 54q85 54 152 238h90l-63 -403h-1211v74q78 2 118 34t40 105v1008q0 79 -41 121t-117 38v74z" />
    <glyph glyph-name="M" unicode="M" horiz-adv-x="2009" 
d="M57 1454h576l375 -977l378 977h566v-74q-82 -2 -117 -28t-35 -103v-1032q0 -80 35 -111t117 -32v-74h-656v74q86 2 121 39t35 125v1065h-4l-502 -1303h-102l-498 1303h-4v-1057q0 -90 33 -130t123 -42v-74h-441v74q154 4 154 151v1016q0 81 -35 109t-119 30v74z" />
    <glyph glyph-name="N" unicode="N" horiz-adv-x="1705" 
d="M53 1454h520l793 -1065h4v819q0 96 -43 133t-141 39v74h467v-74q-90 -2 -123 -46t-33 -138v-948q0 -137 16 -248h-276l-895 1188h-4v-936q0 -92 44 -134t136 -44v-74h-465v74q158 2 158 174v987q0 84 -37 114t-121 31v74z" />
    <glyph glyph-name="O" unicode="O" horiz-adv-x="1667" 
d="M834 1401q-186 0 -276 -180q-90 -179 -91 -493q0 -314 90 -494q91 -180 277 -181q186 0 276 180q90 179 90 493t-90 494t-276 181zM834 1495q184 0 332 -70q270 -128 376 -428q47 -133 47 -270t-47 -270q-107 -304 -376 -428q-148 -70 -332 -70t-332 70
q-270 127 -377 428q-47 133 -47 270t47 270q107 304 376 428q149 70 333 70z" />
    <glyph glyph-name="P" unicode="P" horiz-adv-x="1363" 
d="M565 1352v-643q193 -1 275 67t82 236q0 340 -285 340h-72zM565 238q0 -90 46 -126t141 -38v-74h-695v74q78 2 119 35t41 108v1020q0 80 -39 111t-121 32v74h717q219 0 378 -102t159 -310q0 -337 -400 -415q-102 -21 -175 -21t-171 4v-372z" />
    <glyph glyph-name="Q" unicode="Q" horiz-adv-x="1667" 
d="M834 1401q-186 0 -276 -180q-90 -179 -91 -493q0 -314 90 -494q91 -180 277 -181q186 0 276 180q90 179 90 493t-90 494t-276 181zM1241 -408q-141 0 -237 78q-53 43 -86 76t-97 109q-63 76 -96 112q-158 18 -285 93q-227 134 -321 416q-41 124 -41 256t47 265
q107 304 376 428q149 70 333 70t332 -70q270 -128 376 -428q47 -133 47 -270q0 -248 -144 -462t-409 -281q74 -62 205 -134t193 -72t131 56l47 -72q-180 -170 -371 -170z" />
    <glyph glyph-name="R" unicode="R" horiz-adv-x="1554" 
d="M565 1356v-588h125q125 0 207 83t82 217t-76 211t-217 77h-121zM57 1454h777q268 0 401 -111t133 -272q0 -262 -330 -352l305 -488q41 -63 77 -99t56 -44t50 -14v-74h-441l-395 662h-125v-445q0 -80 37 -111t119 -32v-74h-664v74q82 2 121 32t39 107v1042q0 75 -40 99
t-120 26v74z" />
    <glyph glyph-name="S" unicode="S" horiz-adv-x="1363" 
d="M1030 1405q47 0 60 74h84l6 -422h-84q-51 164 -166 248t-233 84q-119 1 -185 -55t-66 -128q0 -130 126 -195q132 -71 242 -109q188 -65 311 -173q124 -108 124 -303q-1 -195 -151 -331t-412 -136q-156 0 -330 78q-57 27 -75 26q-63 0 -78 -79h-84l-4 450h84
q29 -145 157 -253q128 -107 286 -107t234 72q74 72 74 168t-81 156t-195 103t-230 95t-196 148q-80 97 -80 237q0 203 154 321t344 117q112 0 232 -43t132 -43z" />
    <glyph glyph-name="T" unicode="T" horiz-adv-x="1402" 
d="M1059 0h-711v74q96 2 137 37t43 129v1099h-149q-113 0 -175 -50t-89 -199h-82l26 364h1287l26 -364h-82q-27 150 -89 200t-175 49h-149v-1097q0 -90 45 -128t137 -40v-74z" />
    <glyph glyph-name="U" unicode="U" horiz-adv-x="1667" 
d="M41 1454h666v-74q-94 -6 -127 -34t-33 -107v-711q0 -446 399 -446q190 0 295 111q104 111 105 301v680q0 110 -33 154t-129 52v74h442v-74q-92 -2 -125 -47t-33 -149v-717q0 -250 -166 -379t-437 -129q-270 0 -459 122q-96 62 -152 170q-55 108 -55 251v737q0 80 -36 110
t-122 31v74z" />
    <glyph glyph-name="V" unicode="V" horiz-adv-x="1591" 
d="M702 1380q-147 0 -147 -87q0 -38 27 -113l331 -881l336 885q29 78 29 110q0 80 -154 86v74h451v-74q-67 -10 -101 -39t-61 -98l-495 -1243h-250l-494 1264q-20 53 -55 82t-103 34v74h686v-74z" />
    <glyph glyph-name="W" unicode="W" horiz-adv-x="2236" 
d="M16 1454h629v-74q-43 -4 -67 -10t-51 -28q-25 -22 -25 -49t30 -124l271 -852h4l250 760l-66 191q-41 113 -180 112v74h698v-74q-152 -6 -151 -102q0 -27 20 -94l281 -862h4l264 831q27 84 27 121q0 36 -26 64t-56 34t-84 8v74h432v-74q-45 -2 -76 -34t-55 -105
l-418 -1241h-256l-297 901h-4l-299 -901h-252l-418 1253q-20 59 -46 90t-83 37v74z" />
    <glyph glyph-name="X" unicode="X" horiz-adv-x="1630" 
d="M33 1454h747v-74q-141 0 -141 -98q0 -29 29 -72l223 -303l239 285q60 68 60 109t-36 59t-122 20v74h535v-74q-100 -8 -156 -69l-444 -502l497 -643q63 -82 166 -92v-74h-786v74q80 6 117 25q79 40 -5 157l-247 338l-285 -338q-51 -59 -51 -96q0 -80 155 -86v-74h-528v74
q113 16 215 135l418 475l-477 631q-20 28 -99 57l-24 8v74z" />
    <glyph glyph-name="Y" unicode="Y" horiz-adv-x="1630" 
d="M29 1454h735v-74q-88 -6 -121 -25t-33 -59t27 -77l307 -480l309 471q27 39 27 80q0 84 -158 90v74h480v-74q-60 -10 -96 -41t-87 -106l-430 -639v-385q0 -78 45 -106t142 -29v-74h-732v74q111 2 154 30t43 109v389l-489 717q-41 59 -123 61v74z" />
    <glyph glyph-name="Z" unicode="Z" horiz-adv-x="1478" 
d="M1366 1454v-86l-848 -1249h445q151 -1 227 69t125 199h86l-74 -387h-1249v80l854 1259h-449q-203 0 -250 -233h-86l17 348h1202z" />
    <glyph glyph-name="bracketleft" unicode="[" horiz-adv-x="720" 
d="M707 1540v-74q-158 -4 -207 -30t-49 -90v-1573q0 -65 49 -91t207 -30v-74h-539v1962h539z" />
    <glyph glyph-name="backslash" unicode="\" horiz-adv-x="681" 
d="M45 1495h137l453 -1536h-139z" />
    <glyph glyph-name="bracketright" unicode="]" horiz-adv-x="720" 
d="M18 -422v74q158 4 207 30t49 91v1573q0 66 -49 92t-207 28v74h539v-1962h-539z" />
    <glyph glyph-name="asciicircum" unicode="^" horiz-adv-x="1228" 
d="M350 707h-182l364 747h164l365 -747h-182l-265 557z" />
    <glyph glyph-name="underscore" unicode="_" horiz-adv-x="1024" 
d="M0 -256v102h1024v-102h-1024z" />
    <glyph glyph-name="grave" unicode="`" horiz-adv-x="569" 
d="M453 1208h-125l-312 185q-68 43 -68 94t33 81q32 30 92 30t124 -78z" />
    <glyph glyph-name="a" unicode="a" horiz-adv-x="1175" 
d="M352 289q0 -72 42 -115t96 -43t113 39q58 39 93 86v291q-184 -51 -264 -105t-80 -153zM696 766q0 209 -154 209q-74 0 -112 -27q-37 -27 -37 -61l8 -70q0 -69 -42 -101q-41 -32 -105 -32t-104 40t-39 105q0 111 121 178q122 67 307 66q109 -1 203 -25t170 -97
q75 -73 75 -185v-530q0 -52 11 -72t42 -20t64 28l39 -68q-127 -137 -258 -137q-78 0 -125 46t-53 120q-158 -166 -342 -166q-117 0 -204 67t-87 199q0 77 37 139t88 101t143 74t164 53t190 45v121z" />
    <glyph glyph-name="b" unicode="b" horiz-adv-x="1251" 
d="M442 379q0 -178 40 -244q40 -65 138 -65q211 2 211 432q0 232 -50 315q-50 84 -140 84q-65 1 -131 -57t-68 -146v-319zM152 1294q0 80 -117 86v74q203 23 416 86q-8 -164 -9 -248v-391h4q126 172 306 172t290 -159t109 -393q0 -234 -139 -394t-353 -160q-168 0 -301 133
l-137 -120h-76l7 176v1138z" />
    <glyph glyph-name="c" unicode="c" horiz-adv-x="1099" 
d="M588 -33q-213 0 -360 151q-146 152 -146 396t161 402t386 157q160 0 265 -85t105 -210q0 -76 -41 -124q-40 -48 -114 -48t-115 43t-41 95t24 103q24 53 24 71t-30 40t-79 21q-105 0 -161 -115t-56 -290q0 -443 270 -443q141 0 272 160l78 -60q-96 -135 -202 -199
t-240 -65z" />
    <glyph glyph-name="d" unicode="d" horiz-adv-x="1251" 
d="M778 385v360q0 73 -45 131t-127 58q-205 0 -205 -396t185 -395q94 1 143 65t49 177zM1057 658q0 -429 15 -478t112 -49v-74q-154 -29 -400 -90l7 180l-5 5q-137 -184 -307 -184q-169 0 -283 161q-114 163 -114 393t129 390t321 161q150 0 242 -125h4v295q0 78 -27 106
q-28 27 -104 31v74q162 16 426 86q-16 -453 -16 -882z" />
    <glyph glyph-name="e" unicode="e" 
d="M733 602q0 381 -164 381q-86 0 -128 -86t-44 -295h336zM397 500q0 -156 70 -262t213 -107q78 0 144 36t145 130l75 -55q-59 -109 -174 -192t-276 -83q-216 1 -362 147t-146 387t131 407t356 165q160 0 271 -83q111 -84 158 -208t51 -282h-656z" />
    <glyph glyph-name="f" unicode="f" horiz-adv-x="757" 
d="M27 934v106h141v168q0 156 94 244t252 88q117 0 193 -50t75 -144q0 -58 -37 -102t-97 -44t-96 33t-36 84q0 18 10 51t11 41q1 37 -51 37t-83 -36t-31 -89t41 -135q40 -82 46 -146h262v-106h-262v-707q0 -154 157 -153v-74h-573v74q69 0 97 42t28 126v692h-141z" />
    <glyph glyph-name="g" unicode="g" horiz-adv-x="1212" 
d="M772 -25h-317q-80 0 -126 -42t-46 -121q0 -193 280 -193q154 -1 256 63t103 158q0 66 -41 100t-109 35zM397 725q0 -270 150 -270q141 0 141 264t-143 264q-70 -1 -109 -67t-39 -191zM991 934q0 26 15 86q0 12 -10 22t-29 11q-53 0 -105 -86q45 -33 81 -100t36 -146
q0 -160 -128 -258t-298 -98q-76 0 -150 24q-88 -61 -88 -117q0 -29 36 -46t91 -17h373q115 0 211 -69t96 -201q0 -180 -164 -301t-466 -121q-233 0 -347 69q-113 70 -112 172q0 143 231 236v4q-162 31 -162 172q0 72 48 131t155 123q-86 39 -142 120t-57 181q0 152 118 250
t315 98q145 0 254 -59q96 145 225 145q90 0 144 -49q54 -50 54 -116t-32 -103q-33 -37 -85 -37t-80 27t-28 53z" />
    <glyph glyph-name="h" unicode="h" horiz-adv-x="1288" 
d="M446 870h5q147 203 362 203q131 0 208 -77t77 -212v-583q0 -68 26 -96t93 -31v-74h-527v74q117 0 117 119v522q0 80 -40 121t-101 41q-60 1 -140 -59t-80 -124v-501q0 -66 24 -90t87 -29v-74h-516v74q115 0 115 119v1079q0 56 -29 80t-88 28v74q74 6 215 37t197 49
q0 -81 -5 -311v-359z" />
    <glyph glyph-name="i" unicode="i" horiz-adv-x="645" 
d="M143 1370q-1 72 49 121t122 49t120 -49q49 -49 49 -121t-49 -121t-121 -49t-121 49t-49 121zM459 918v-728q0 -117 114 -116v-74h-522v74q117 2 117 96v655q0 41 -24 61t-93 27v74q113 12 414 86q-6 -154 -6 -155z" />
    <glyph glyph-name="j" unicode="j" horiz-adv-x="645" 
d="M156 1370q0 72 49 121t121 49t120 -49t50 -121q0 -72 -50 -121t-120 -49q-72 0 -121 49t-49 121zM242 -377q35 0 55 28q20 29 20 75q-1 46 -69 170t-68 229v647q0 74 -36 106t-124 35v74q213 27 455 86q-4 -90 -4 -149v-1037q0 -162 -69 -266t-222 -104q-100 0 -163 54
q-62 55 -62 123t34 109t91 41t93 -30t36 -78l-10 -62q0 -51 43 -51z" />
    <glyph glyph-name="k" unicode="k" horiz-adv-x="1288" 
d="M846 903q0 57 -150 64v73h502v-73q-74 -6 -127 -52l-317 -276l364 -487q55 -76 125 -78v-74h-385l-323 455l-89 -78v-211q0 -92 117 -92v-74h-520v74q69 0 91 24t22 80v1114q0 88 -113 88v74q207 25 412 86l-9 -274v-754l359 328q41 37 41 63z" />
    <glyph glyph-name="l" unicode="l" horiz-adv-x="645" 
d="M459 1348v-1155q4 -119 112 -119v-74h-516v74q113 0 113 119v1079q0 54 -27 78t-90 30v74q215 20 414 86q-6 -190 -6 -192z" />
    <glyph glyph-name="m" unicode="m" horiz-adv-x="1896" 
d="M39 913v74q254 35 393 86l-6 -221l4 -4q170 225 383 225q111 0 179 -55t83 -158q164 213 373 213q129 0 199 -76t69 -213v-583q0 -68 27 -96t92 -31v-74h-526v74q117 0 116 119v522q0 162 -122 162q-59 1 -133 -55t-89 -134v-487q0 -68 27 -96t92 -31v-74h-526v74
q117 0 117 119v522q0 162 -123 162q-62 1 -142 -59t-80 -124v-501q0 -66 24 -90t87 -29v-74h-516v74q115 0 115 119v616q0 104 -117 104z" />
    <glyph glyph-name="n" unicode="n" horiz-adv-x="1288" 
d="M39 913v74q254 35 393 86l-6 -221l4 -4q170 225 383 225q131 0 208 -77t77 -212v-583q0 -68 26 -96t93 -31v-74h-527v74q117 0 117 119v522q0 80 -40 121t-101 41q-60 1 -140 -59t-80 -124v-501q0 -66 24 -90t87 -29v-74h-516v74q115 0 115 119v616q0 104 -117 104z" />
    <glyph glyph-name="o" unicode="o" horiz-adv-x="1212" 
d="M594 979q-92 0 -148 -117t-57 -342q0 -225 56 -342q57 -117 149 -117t148 117t57 342q-1 225 -57 342t-148 117zM594 1073q228 0 376 -161t148 -392t-147 -392t-377 -161t-377 161t-147 392t147 392q148 161 377 161z" />
    <glyph glyph-name="p" unicode="p" horiz-adv-x="1251" 
d="M442 731v-487q0 -47 62 -90t121 -43q90 0 146 103t56 316q0 367 -182 367q-59 1 -131 -53t-72 -113zM736 1073q175 0 293 -145t118 -405q0 -259 -136 -407t-306 -149q-141 0 -263 127v-309q0 -98 31 -134t125 -36v-74h-555v74q61 0 85 32t24 97v1073q0 92 -109 96v74
q201 29 399 86l-12 -178l4 -4q127 182 302 182z" />
    <glyph glyph-name="q" unicode="q" horiz-adv-x="1251" 
d="M795 305v477q-1 80 -53 128t-121 48q-211 0 -211 -432q0 -379 208 -379q70 0 124 45t53 113zM1085 -268q0 -59 26 -83t87 -34v-74h-553v74q84 4 117 30t33 97v381h-4q-119 -156 -282 -156t-291 139t-128 409t142 414t318 144t310 -125l168 125l62 -33l-5 -200v-1108z" />
    <glyph glyph-name="r" unicode="r" horiz-adv-x="909" 
d="M891 901q0 -72 -42 -118q-41 -46 -105 -46t-90 28q-26 27 -32 55t-24 28q-35 0 -83 -75t-48 -130v-453q0 -63 33 -90t125 -26v-74h-570v74q121 0 121 108v637q0 80 -127 94v74q209 25 402 86l-5 -229l5 -4q41 96 111 165q71 69 156 69t129 -51q44 -50 44 -122z" />
    <glyph glyph-name="s" unicode="s" horiz-adv-x="985" 
d="M471 82q88 0 134 43t46 107q0 111 -204 167q-85 25 -169 56t-145 102q-59 73 -59 197t93 222t267 97q88 0 180 -32t97 -31q23 0 43 51h77l9 -313h-82q-70 211 -291 210q-72 0 -116 -32t-44 -97q-1 -63 61 -103t150 -64t176 -57q88 -32 150 -105q61 -74 61 -205t-106 -229
t-291 -99q-129 0 -248 52q-39 17 -54 17q-14 0 -26 -18q-12 -20 -12 -34h-78l-8 331h74q39 -121 133 -177t182 -56z" />
    <glyph glyph-name="t" unicode="t" horiz-adv-x="757" 
d="M467 1040h254v-106h-254v-678q0 -109 88 -109q74 0 135 99l76 -43q-115 -236 -328 -236q-130 0 -196 72t-66 201v694h-137v82q260 37 340 360h96l-8 -143v-193z" />
    <glyph glyph-name="u" unicode="u" horiz-adv-x="1288" 
d="M1206 127v-74q-254 -35 -393 -86l6 221l-4 5q-170 -225 -383 -226q-131 0 -208 77t-77 212v551q0 47 -29 77q-30 30 -81 29v74q170 20 409 86l-8 -225v-522q0 -80 40 -121t102 -41t140 59q79 59 79 123v494q0 30 -28 52t-83 21v74q104 12 410 86l-8 -225v-617
q-1 -104 116 -104z" />
    <glyph glyph-name="v" unicode="v" horiz-adv-x="1175" 
d="M-16 1040h571v-73q-125 -6 -125 -74q0 -23 21 -72l217 -551l194 543q18 51 19 78q0 76 -131 76v73h413v-73q-59 -4 -90 -32t-59 -101l-336 -834h-213l-361 864q-23 55 -47 78q-25 23 -73 25v73z" />
    <glyph glyph-name="w" unicode="w" horiz-adv-x="1781" 
d="M12 1040h518v-73q-38 -5 -72 -19t-34 -33q0 -39 14 -73l199 -580h4l186 502l-59 141q-23 53 -113 62v73h541v-73q-115 -6 -115 -72q0 -18 17 -64l202 -563h5l182 527q23 63 23 93t-41 52q-40 22 -105 27v73h389v-73q-47 -8 -66 -31t-38 -70l-332 -866h-211l-223 614
l-232 -614h-209l-323 881q-27 72 -107 86v73z" />
    <glyph glyph-name="x" unicode="x" horiz-adv-x="1251" 
d="M10 1040h625v-73q-117 -2 -117 -49q0 -31 29 -64l151 -195l142 175q29 41 28 65q0 63 -118 68v73h434v-73q-62 -10 -102 -34t-83 -79l-225 -291l338 -422q53 -68 125 -67v-74h-635v74q119 8 119 61q0 23 -27 62l-162 209l-153 -187q-39 -45 -39 -82t27 -49t98 -14v-74
h-461v74q115 4 213 125l242 301l-318 401q-41 51 -131 66v73z" />
    <glyph glyph-name="y" unicode="y" horiz-adv-x="1212" 
d="M-12 1040h585v-73q-69 -3 -97 -19q-51 -28 -3 -149l219 -508l201 508q23 57 23 91t-33 50t-117 27v73h418v-73q-37 -4 -66 -29t-38 -42t-23 -48l-443 -1010q-86 -193 -166 -257t-180 -64t-172 44t-71 148q0 76 42 117q41 41 107 41t98 -31q32 -30 32 -68q3 -99 46 -100
q47 0 84 70l101 190l-431 961q-32 72 -116 78v73z" />
    <glyph glyph-name="z" unicode="z" horiz-adv-x="1099" 
d="M102 1040h885v-69l-584 -869h248q145 0 210 58t87 166h80l-35 -326h-960v72l583 866h-272q-70 0 -110 -42t-54 -142h-78v286z" />
    <glyph glyph-name="braceleft" unicode="{" horiz-adv-x="720" 
d="M172 -70v396q0 113 -32 169t-124 85q92 29 124 85t32 169v395q0 269 285 305q55 6 127 6v-49q-80 -7 -105 -65t-24 -185v-375q0 -130 -33 -194t-133 -90v-4q100 -27 133 -92t33 -193v-375q1 -127 25 -184t104 -66v-49q-150 1 -222 27t-108 60q-82 75 -82 224z" />
    <glyph glyph-name="bar" unicode="|" horiz-adv-x="454" 
d="M121 -512v2048h213v-2048h-213z" />
    <glyph glyph-name="braceright" unicode="}" horiz-adv-x="720" 
d="M549 1229v-395q0 -113 32 -169t124 -85q-92 -29 -124 -85t-32 -169v-396q0 -269 -285 -305q-55 -6 -127 -6v49q80 8 105 66t24 184v375q0 129 33 193t133 92v4q-100 28 -133 92t-33 192v375q0 127 -24 184q-25 57 -105 66v49q149 0 221 -26t109 -61q82 -75 82 -224z" />
    <glyph glyph-name="asciitilde" unicode="~" horiz-adv-x="1228" 
d="M381 504q-100 0 -168 -148l-74 144q92 176 256 176q84 0 238 -70q153 -70 195 -70t78 26q36 24 56 49q19 26 50 73l73 -143q-41 -55 -67 -86t-78 -61q-51 -30 -120 -30t-204 70t-235 70z" />
    <glyph glyph-name="exclamdown" unicode="&#xa1;" horiz-adv-x="681" 
d="M520 901q0 -76 -52 -128t-128 -52t-128 52t-52 128t52 128t128 52t128 -52t52 -128zM516 -197q0 -119 -53 -176t-123 -57t-123 57t-53 176q0 61 19 166q20 105 120 576h74q99 -471 119 -575t20 -167z" />
    <glyph glyph-name="cent" unicode="&#xa2;" 
d="M713 123q141 0 272 160l78 -60q-95 -135 -201 -199t-241 -65q-43 0 -99 10l-104 -274h-101l113 301q-141 57 -228 189t-87 311q1 254 161 412t386 157q88 0 161 -29l86 228h101l-103 -271q125 -86 125 -223q0 -76 -41 -124t-111 -48t-108 35l-180 -477q47 -33 121 -33z
M768 908q0 20 -30 42t-79 21q-104 0 -160 -115q-57 -114 -57 -316t76 -313l207 549q6 33 25 73q18 39 18 59z" />
    <glyph glyph-name="sterling" unicode="&#xa3;" 
d="M29 707v127h168q-12 72 -13 127q0 227 125 381t348 153q164 0 282 -86t118 -219q0 -80 -46 -128t-126 -48t-118 48t-38 91t21 94q20 51 20 78t-33 49t-71 23q-76 0 -121 -65q-45 -64 -45 -186t41 -312h284v-127h-268q6 -143 -51 -259t-127 -192l4 -4q107 43 310 8
q81 -14 108 -14q156 0 211 194l88 -14q-33 -252 -103 -347t-231 -95q-86 0 -250 28t-257 29q-93 0 -212 -47l-37 94q152 72 188 130q62 101 11 489h-180z" />
    <glyph glyph-name="currency" unicode="&#xa4;" 
d="M238 718q0 -140 97 -240t234 -99q137 0 231 101q93 100 93 238t-94 239q-93 101 -231 101t-234 -100t-96 -240zM1073 724q0 -187 -98 -306l112 -115l-104 -104l-113 118q-117 -106 -303 -106t-307 104l-113 -116l-104 104l117 117q-102 122 -102 308t102 290l-117 117
l107 106l116 -115q117 100 300 100t294 -98l117 117l113 -112l-113 -113q96 -109 96 -296z" />
    <glyph glyph-name="yen" unicode="&#xa5;" 
d="M692 557h291v-127h-291v-221q0 -78 33 -106t102 -29v-74h-526v74q80 2 111 30t30 109v217h-290v127h290v45l-47 94h-243v127h180l-244 496q-27 59 -88 61v74h530v-74q-63 -6 -87 -25q-23 -19 -23 -59t18 -77l224 -480l223 471q18 45 18 80q0 84 -115 90v74h349v-74
q-43 -10 -70 -41t-63 -106l-201 -410h180v-127h-242l-49 -102v-37z" />
    <glyph glyph-name="brokenbar" unicode="&#xa6;" horiz-adv-x="454" 
d="M121 666v716h213v-716h-213zM121 -358v716h213v-716h-213z" />
    <glyph glyph-name="section" unicode="&#xa7;" 
d="M836 498q0 76 -94 154t-206 124q-112 45 -170 45t-91 -35q-34 -35 -33 -88q0 -110 194 -218t283 -107q47 0 82 39t35 86zM135 1155q0 164 110 260t289 96q180 -1 290 -73t110 -189q0 -67 -46 -107t-110 -40t-100 39q-35 39 -35 78t11 69q12 30 12 58t-42 48t-110 19
q-68 0 -127 -39q-59 -38 -59 -108t72 -127t176 -105t207 -99q103 -52 176 -135t73 -190q0 -193 -221 -295q176 -111 176 -292t-131 -278t-318 -97t-291 82q-103 82 -104 198q0 64 40 106t110 42q69 0 105 -42t36 -81t-13 -74t-13 -43q0 -30 43 -60t125 -30t144 51t62 121
t-73 128t-179 106t-212 102q-106 55 -179 146q-74 91 -73 210q0 174 141 252q29 16 67 31q-139 98 -139 262z" />
    <glyph glyph-name="dieresis" unicode="&#xa8;" horiz-adv-x="569" 
d="M-80 1370q0 58 43 102t103 44t102 -43q43 -43 43 -103t-43 -102q-43 -43 -102 -43t-103 43q-43 43 -43 102zM360 1370q0 58 43 102t103 44t102 -43q43 -43 43 -103t-43 -102q-43 -43 -102 -43t-103 43q-43 43 -43 102z" />
    <glyph glyph-name="copyright" unicode="&#xa9;" horiz-adv-x="1638" 
d="M862 307q-221 0 -345 113t-124 328q0 154 102 282q52 66 151 106t217 40t239 -39q49 -16 49 -47v-156h-45q-59 188 -225 188q-117 0 -176 -97t-62 -265q-4 -399 238 -400q170 0 260 199h47l-35 -164q-2 -25 -61 -47q-156 -41 -230 -41zM1397 724q0 268 -164 456t-413 188
q-250 0 -412 -187t-162 -455t162 -454t412 -186q249 0 413 185t164 453zM819 -41q-325 0 -537 219t-212 546t214 549t536 222t538 -221q215 -221 215 -549t-215 -547t-539 -219z" />
    <glyph glyph-name="ordfeminine" unicode="&#xaa;" horiz-adv-x="763" 
d="M455 1006v174q-119 -31 -170 -63t-51 -83t26 -78q27 -27 62 -26q72 0 133 76zM455 1311q0 127 -101 127q-48 0 -72 -16t-24 -38l4 -43q0 -39 -28 -59t-68 -20t-66 24q-27 24 -26 64q0 66 80 106t196 39q116 0 205 -43q88 -43 88 -141v-318q0 -55 33 -55q23 0 43 16
l26 -39q-84 -84 -167 -84q-51 0 -82 28t-35 73q-100 -100 -221 -101q-76 0 -134 40q-57 41 -57 109q0 127 129 180q108 46 277 79v72z" />
    <glyph glyph-name="guillemotleft" unicode="&#xab;" 
d="M514 55l-424 469l418 461h100l-233 -461l235 -469h-96zM997 55l-424 469l418 461h101l-234 -461l236 -469h-97z" />
    <glyph glyph-name="logicalnot" unicode="&#xac;" horiz-adv-x="1228" 
d="M922 223v404h-828v213h1041v-617h-213z" />
    <glyph glyph-name="registered" unicode="&#xae;" horiz-adv-x="1638" 
d="M1397 724q0 268 -164 456t-413 188q-250 0 -412 -187t-162 -455t162 -454t412 -186q249 0 413 185t164 453zM819 -41q-325 0 -537 219t-212 546t214 549t536 222t538 -221q215 -221 215 -549t-215 -547t-539 -219zM745 1102v-357h62q119 1 119 179t-113 178h-68z
M459 1155h434q106 0 174 -55t68 -162q0 -72 -45 -133t-123 -86l125 -182q80 -113 135 -177v-28h-193q-30 0 -64 52t-82 154t-83 154h-60v-231q-1 -53 13 -67t82 -17v-45h-381v45q68 2 81 15t13 69v563q0 41 -3 54q-7 29 -91 36v41z" />
    <glyph glyph-name="macron" unicode="&#xaf;" horiz-adv-x="569" 
d="M-16 1286v164h602v-164h-602z" />
    <glyph glyph-name="macron" unicode="&#x2c9;" horiz-adv-x="569" 
d="M-16 1286v164h602v-164h-602z" />
    <glyph glyph-name="degree" unicode="&#xb0;" horiz-adv-x="819" 
d="M412 909q-123 0 -208 85t-85 208t85 208t208 85t208 -85t85 -208t-85 -208t-208 -85zM412 1012q82 0 132 53t50 137t-50 137t-132 53t-132 -52q-50 -54 -50 -138t50 -137t132 -53z" />
    <glyph glyph-name="plusminus" unicode="&#xb1;" horiz-adv-x="1228" 
d="M94 0v213h1041v-213h-1041zM508 772v268h213v-268h414v-213h-414v-268h-213v268h-414v213h414z" />
    <glyph glyph-name="twosuperior" unicode="&#xb2;" horiz-adv-x="737" 
d="M471 754q61 0 95 26t55 88h53q-29 -145 -39 -274h-610v74q73 70 103 100t102 109q73 80 109 133t68 126q31 72 31 142t-35 113t-84 43q-76 0 -75 -56q0 -14 13 -47t13 -63t-32 -54t-80 -24q-47 0 -74 30t-27 78q0 78 75 138q74 60 212 59q138 0 224 -79t87 -181
q0 -103 -52 -163q-53 -60 -207 -166t-201 -152h276z" />
    <glyph glyph-name="threesuperior" unicode="&#xb3;" horiz-adv-x="737" 
d="M240 1102q114 0 154 36t40 131t-23 130q-25 35 -83 35t-58 -37q0 -6 12 -38q12 -33 13 -63q0 -30 -29 -55q-30 -25 -76 -25t-75 32q-29 30 -29 86t65 108q65 53 203 53q138 -1 213 -65q76 -64 76 -156q0 -150 -186 -201v-4q95 -23 159 -81t64 -167t-98 -179t-224 -69
q-126 -1 -217 53q-92 54 -92 144q0 49 31 79t79 30q47 0 75 -28q28 -29 28 -57t-12 -61t-12 -49t26 -32q26 -17 62 -17q133 0 133 188q0 109 -49 156t-170 49v74z" />
    <glyph glyph-name="acute" unicode="&#xb4;" horiz-adv-x="569" 
d="M621 1489q0 -57 -68 -96l-311 -185h-125l256 312q66 78 129 77q41 1 80 -25t39 -83z" />
    <glyph glyph-name="mu" unicode="&#xb5;" horiz-adv-x="1288" 
d="M1206 127v-74q-254 -35 -393 -86l6 221l-4 5q-166 -221 -377 -226v-237l8 -189h-307l8 189v1077q0 47 -29 77q-30 30 -81 29v74q170 20 409 86l-8 -225v-522q0 -80 40 -121t102 -41t140 59q79 59 79 123v494q0 30 -28 52t-83 21v74q104 12 410 86l-8 -225v-617
q-1 -104 116 -104z" />
    <glyph glyph-name="mu" unicode="&#x3bc;" horiz-adv-x="1288" 
d="M1206 127v-74q-254 -35 -393 -86l6 221l-4 5q-166 -221 -377 -226v-237l8 -189h-307l8 189v1077q0 47 -29 77q-30 30 -81 29v74q170 20 409 86l-8 -225v-522q0 -80 40 -121t102 -41t140 59q79 59 79 123v494q0 30 -28 52t-83 21v74q104 12 410 86l-8 -225v-617
q-1 -104 116 -104z" />
    <glyph glyph-name="paragraph" unicode="&#xb6;" horiz-adv-x="1228" 
d="M684 897v-551q0 -496 -97 -620q-44 -55 -128 -91l6 -12q111 33 172 71q138 86 170 322q16 125 16 332v397q0 336 21 457q20 121 67 166h-133q-54 -57 -74 -149t-20 -322zM1190 1454v-86h-70q-33 0 -52 -46q-40 -97 -40 -544v-510q0 -316 -138 -511t-480 -195
q-156 0 -242 55t-86 154q0 63 39 103t102 40t107 -40t43 -108q0 -68 -41 -114q125 8 165 120t40 425v333q-229 0 -380 114t-151 347q0 463 635 463h549z" />
    <glyph glyph-name="periodcentered" unicode="&#xb7;" horiz-adv-x="569" 
d="M139 520q0 58 43 102q42 44 102 44t103 -43t43 -103t-43 -102q-43 -43 -102 -43t-103 43q-43 43 -43 102z" />
    <glyph glyph-name="periodcentered" unicode="&#x2219;" horiz-adv-x="569" 
d="M139 520q0 58 43 102q42 44 102 44t103 -43t43 -103t-43 -102q-43 -43 -102 -43t-103 43q-43 43 -43 102z" />
    <glyph glyph-name="cedilla" unicode="&#xb8;" horiz-adv-x="569" 
d="M215 -365q53 0 83 24t30 58q0 70 -88 70q-37 0 -47 -10l-37 20l96 203h90l-61 -131q31 10 94 10t114 -42t52 -109q0 -94 -82 -138t-200 -45q-118 0 -200 41l31 78q72 -29 125 -29z" />
    <glyph glyph-name="onesuperior" unicode="&#xb9;" horiz-adv-x="737" 
d="M479 715q0 -45 32 -59t87 -13v-49h-457v49q70 3 100 21t29 75v559q0 49 -26 65q-27 15 -101 17v50q39 4 162 32t182 45l-8 -174v-618z" />
    <glyph glyph-name="ordmasculine" unicode="&#xba;" horiz-adv-x="786" 
d="M394 1438q-60 0 -96 -69t-36 -205t36 -206t96 -70t98 70q37 70 36 205q0 135 -36 205q-38 70 -98 70zM394 1495q151 0 247 -96q96 -97 96 -235t-96 -235t-246 -97q-149 0 -245 96t-97 235q0 139 95 235t246 97z" />
    <glyph glyph-name="guillemotright" unicode="&#xbb;" 
d="M625 985l424 -469l-418 -461h-101l234 461l-236 469h97zM141 985l424 -469l-418 -461h-100l234 461l-236 469h96z" />
    <glyph glyph-name="onequarter" unicode="&#xbc;" horiz-adv-x="1705" 
d="M479 715q0 -45 32 -59t87 -13v-49h-457v49q70 3 100 21t29 75v559q0 49 -26 65q-27 15 -101 17v50q39 4 162 32t182 45l-8 -174v-618zM395 -41l918 1536h108l-915 -1536h-111zM1327 332v399h-4l-283 -399h287zM1520 754v-422h118v-74h-118v-143q0 -31 24 -45t92 -25v-45
h-432v45q123 6 123 70v143h-356v88l393 559h164q-8 -49 -8 -151z" />
    <glyph glyph-name="onehalf" unicode="&#xbd;" horiz-adv-x="1705" 
d="M479 715q0 -45 32 -59t87 -13v-49h-457v49q70 3 100 21t29 75v559q0 49 -26 65q-27 15 -101 17v50q39 4 162 32t182 45l-8 -174v-618zM1495 160q61 0 95 26t55 88h53q-29 -145 -39 -274h-610v74q73 70 103 100t102 109q73 80 109 133t68 126q31 72 31 142t-35 113t-84 43
q-76 0 -75 -56q0 -14 13 -47t13 -63t-32 -54t-80 -24q-47 0 -74 30t-27 79q0 78 75 137q74 59 212 59t224 -79t87 -181q0 -103 -52 -163q-53 -60 -207 -166t-201 -152h276zM354 -41l918 1536h108l-915 -1536h-111z" />
    <glyph glyph-name="threequarters" unicode="&#xbe;" horiz-adv-x="1705" 
d="M240 1102q114 0 154 36t40 131t-23 130q-25 35 -83 35t-58 -37q0 -6 12 -38q12 -33 13 -63q0 -30 -29 -55q-30 -25 -76 -25t-75 32q-29 30 -29 86t65 108q65 53 203 53q138 -1 213 -65q76 -64 76 -156q0 -150 -186 -201v-4q95 -23 159 -81t64 -167t-98 -179t-224 -69
q-126 -1 -217 53q-92 54 -92 144q0 49 31 79t79 30q47 0 75 -28q28 -29 28 -57t-12 -61t-12 -49t26 -32q26 -17 62 -17q133 0 133 188q0 109 -49 156t-170 49v74zM395 -41l918 1536h108l-915 -1536h-111zM1327 332v399h-4l-283 -399h287zM1520 754v-422h118v-74h-118v-143
q0 -31 24 -45t92 -25v-45h-432v45q123 6 123 70v143h-356v88l393 559h164q-8 -49 -8 -151z" />
    <glyph glyph-name="questiondown" unicode="&#xbf;" horiz-adv-x="985" 
d="M737 901q0 -76 -52 -128t-128 -52t-128 52t-52 128t52 128t128 52t128 -52t52 -128zM504 553h123v-287q-123 4 -176 -58t-54 -237q0 -311 156 -311q35 0 63 18t27 46q0 28 -20 68q-21 38 -21 88t43 88t105 38t109 -43q46 -43 46 -121q-1 -128 -111 -204t-257 -76
q-199 0 -321 127t-122 304t113 271t297 88v201z" />
    <glyph glyph-name="Agrave" unicode="&#xc0;" horiz-adv-x="1667" 
d="M622 2011q60 0 123 -78l256 -311h-124l-312 184q-67 42 -67 94t32 82t92 29zM465 578h483l-237 610zM322 160q0 -84 157 -86v-74h-454v74q88 -4 112 63l570 1317h256l518 -1237q63 -141 161 -143v-74h-690v74q154 0 154 94q0 23 -21 70l-90 221h-581l-74 -199
q-18 -59 -18 -100z" />
    <glyph glyph-name="Aacute" unicode="&#xc1;" horiz-adv-x="1667" 
d="M1051 2011q41 1 79 -25t39 -83q0 -57 -67 -97l-311 -184h-125l256 311q66 78 129 78zM465 578h483l-237 610zM322 160q0 -84 157 -86v-74h-454v74q88 -4 112 63l570 1317h256l518 -1237q63 -141 161 -143v-74h-690v74q154 0 154 94q0 23 -21 70l-90 221h-581l-74 -199
q-18 -59 -18 -100z" />
    <glyph glyph-name="Acircumflex" unicode="&#xc2;" horiz-adv-x="1667" 
d="M473 1622l252 365h217l252 -365h-135l-225 197l-226 -197h-135zM465 578h483l-237 610zM322 160q0 -84 157 -86v-74h-454v74q88 -4 112 63l570 1317h256l518 -1237q63 -141 161 -143v-74h-690v74q154 0 154 94q0 23 -21 70l-90 221h-581l-74 -199q-18 -59 -18 -100z" />
    <glyph glyph-name="Atilde" unicode="&#xc3;" horiz-adv-x="1667" 
d="M688 1946q68 0 182 -52t160 -51q70 0 94 96h99q-12 -106 -77 -193t-160 -87t-205 53q-111 53 -143 53t-54 -18q-22 -19 -30 -35q-7 -16 -15 -45h-95q16 115 80 197t164 82zM465 578h483l-237 610zM322 160q0 -84 157 -86v-74h-454v74q88 -4 112 63l570 1317h256
l518 -1237q63 -141 161 -143v-74h-690v74q154 0 154 94q0 23 -21 70l-90 221h-581l-74 -199q-18 -59 -18 -100z" />
    <glyph glyph-name="Adieresis" unicode="&#xc4;" horiz-adv-x="1667" 
d="M469 1784q0 59 43 102t102 43q58 0 102 -43t44 -102q0 -58 -43 -102t-103 -44t-102 44q-43 44 -43 102zM909 1784q0 59 43 102q42 43 102 43t103 -43t43 -102q0 -58 -43 -102t-102 -44t-103 43q-43 44 -43 103zM465 578h483l-237 610zM322 160q0 -84 157 -86v-74h-454v74
q88 -4 112 63l570 1317h256l518 -1237q63 -141 161 -143v-74h-690v74q154 0 154 94q0 23 -21 70l-90 221h-581l-74 -199q-18 -59 -18 -100z" />
    <glyph glyph-name="Aring" unicode="&#xc5;" horiz-adv-x="1667" 
d="M721 1808q0 -48 34 -80t81 -32q46 0 80 33t34 79t-34 80q-34 33 -80 33t-81 -33q-34 -33 -34 -80zM614 1808q0 92 65 156t157 64t156 -64t65 -154q0 -92 -66 -156q-67 -64 -157 -65t-155 63t-65 156zM465 578h483l-237 610zM322 160q0 -84 157 -86v-74h-454v74
q88 -4 112 63l570 1317h256l518 -1237q63 -141 161 -143v-74h-690v74q154 0 154 94q0 23 -21 70l-90 221h-581l-74 -199q-18 -59 -18 -100z" />
    <glyph glyph-name="AE" unicode="&#xc6;" horiz-adv-x="2160" 
d="M1020 467h-551l-109 -207q-31 -51 -30 -96q0 -96 141 -90v-74h-455v74q72 -4 109 59l620 1043q37 61 37 102q0 88 -182 102v74h1456v-311h-86q-8 117 -58 165t-157 48h-387v-529h150q92 0 128 37t50 154h86v-492h-86q-6 113 -43 154t-123 41h-162v-461q0 -82 37 -112
t133 -29h160q156 0 236 57t120 205h90l-73 -381h-1215v74q164 14 164 123v270zM1020 584v727q0 39 -13 39t-30 -27l-442 -739h485z" />
    <glyph glyph-name="Ccedilla" unicode="&#xc7;" horiz-adv-x="1554" 
d="M866 -121q64 0 115 -42t51 -109q0 -94 -82 -138t-200 -45q-118 0 -199 41l31 78q72 -29 125 -29t83 24t29 58q0 70 -88 70q-37 0 -47 -10l-37 20l82 172q-301 39 -476 257t-175 497q0 322 222 545t542 223q137 0 254 -38t147 -38q51 0 51 76h82l35 -438h-82
q-127 336 -428 336q-203 0 -319 -171q-116 -170 -115 -438q0 -268 92 -452q49 -98 141 -158t218 -59q237 0 473 272l82 -66q-179 -232 -347 -302q-134 -56 -252 -56q-48 0 -59 2l-43 -92q30 10 94 10z" />
    <glyph glyph-name="Egrave" unicode="&#xc8;" horiz-adv-x="1439" 
d="M385 1900q0 52 32 82q33 30 93 29q60 0 123 -78l256 -311h-125l-311 184q-68 42 -68 94zM57 1454h1235v-311h-86q-8 117 -58 165t-157 48h-428v-529h191q92 0 128 37t50 154h86v-492h-86q-6 113 -43 154t-123 41h-203v-461q0 -82 37 -112t133 -29h201q156 0 236 57
t120 205h90l-73 -381h-1250v74q96 2 127 44t31 142v981q0 81 -37 109t-121 30v74z" />
    <glyph glyph-name="Eacute" unicode="&#xc9;" horiz-adv-x="1439" 
d="M938 2011q41 1 80 -25t39 -83t-68 -97l-311 -184h-125l256 311q66 78 129 78zM57 1454h1235v-311h-86q-8 117 -58 165t-157 48h-428v-529h191q92 0 128 37t50 154h86v-492h-86q-6 113 -43 154t-123 41h-203v-461q0 -82 37 -112t133 -29h201q156 0 236 57t120 205h90
l-73 -381h-1250v74q96 2 127 44t31 142v981q0 81 -37 109t-121 30v74z" />
    <glyph glyph-name="Ecircumflex" unicode="&#xca;" horiz-adv-x="1439" 
d="M360 1622l252 365h217l252 -365h-135l-225 197l-225 -197h-136zM57 1454h1235v-311h-86q-8 117 -58 165t-157 48h-428v-529h191q92 0 128 37t50 154h86v-492h-86q-6 113 -43 154t-123 41h-203v-461q0 -82 37 -112t133 -29h201q156 0 236 57t120 205h90l-73 -381h-1250v74
q96 2 127 44t31 142v981q0 81 -37 109t-121 30v74z" />
    <glyph glyph-name="Edieresis" unicode="&#xcb;" horiz-adv-x="1439" 
d="M356 1784q0 59 43 102t103 43t102 -43q43 -43 43 -102q0 -58 -43 -102t-102 -44t-103 43q-43 44 -43 103zM797 1784q0 59 43 102t102 43t102 -43t43 -102q0 -58 -43 -102t-102 -44t-102 44t-43 102zM57 1454h1235v-311h-86q-8 117 -58 165t-157 48h-428v-529h191
q92 0 128 37t50 154h86v-492h-86q-6 113 -43 154t-123 41h-203v-461q0 -82 37 -112t133 -29h201q156 0 236 57t120 205h90l-73 -381h-1250v74q96 2 127 44t31 142v981q0 81 -37 109t-121 30v74z" />
    <glyph glyph-name="Igrave" unicode="&#xcc;" horiz-adv-x="796" 
d="M63 1900q0 52 32 82q33 30 93 29q60 0 123 -78l256 -311h-125l-311 184q-68 42 -68 94zM66 1454h665v-74q-90 -2 -125 -28t-35 -109v-1034q0 -74 41 -104t119 -31v-74h-665v74q80 2 118 32t39 107v1030q0 86 -36 111t-121 26v74z" />
    <glyph glyph-name="Iacute" unicode="&#xcd;" horiz-adv-x="796" 
d="M616 2011q41 1 80 -25t39 -83t-67 -97l-312 -184h-125l256 311q66 78 129 78zM66 1454h665v-74q-90 -2 -125 -28t-35 -109v-1034q0 -74 41 -104t119 -31v-74h-665v74q80 2 118 32t39 107v1030q0 86 -36 111t-121 26v74z" />
    <glyph glyph-name="Icircumflex" unicode="&#xce;" horiz-adv-x="796" 
d="M39 1622l252 365h217l252 -365h-135l-226 197l-225 -197h-135zM66 1454h665v-74q-90 -2 -125 -28t-35 -109v-1034q0 -74 41 -104t119 -31v-74h-665v74q80 2 118 32t39 107v1030q0 86 -36 111t-121 26v74z" />
    <glyph glyph-name="Idieresis" unicode="&#xcf;" horiz-adv-x="796" 
d="M35 1784q0 59 43 102t102 43q58 0 102 -43t44 -102q0 -58 -43 -102t-103 -44t-102 44q-43 44 -43 102zM475 1784q0 59 43 102q42 43 102 43t103 -43t43 -102q0 -58 -43 -102t-102 -44t-103 43q-43 44 -43 103zM66 1454h665v-74q-90 -2 -125 -28t-35 -109v-1034
q0 -74 41 -104t119 -31v-74h-665v74q80 2 118 32t39 107v1030q0 86 -36 111t-121 26v74z" />
    <glyph glyph-name="Eth" unicode="&#xd0;" horiz-adv-x="1705" 
d="M557 696v-475q0 -55 34 -77t132 -21q274 0 390 162q116 161 116 465t-131 455t-406 151h-135v-545h356v-115h-356zM209 213v483h-148v115h148v432q0 78 -34 107t-114 30v74h779q308 0 536 -179q110 -87 176 -223t66 -302q0 -240 -119 -413t-309 -255t-426 -82h-707v74
q152 4 152 139z" />
    <glyph glyph-name="Ntilde" unicode="&#xd1;" horiz-adv-x="1705" 
d="M709 1946q69 0 183 -52t159 -51q70 0 94 96h98q-12 -106 -77 -193t-160 -87q-94 0 -204 53t-142 53t-56 -18q-23 -19 -30 -35t-15 -45h-94q15 115 79 197t165 82zM53 1454h520l793 -1065h4v819q0 96 -43 133t-141 39v74h467v-74q-90 -2 -123 -46t-33 -138v-948
q0 -137 16 -248h-276l-895 1188h-4v-936q0 -92 44 -134t136 -44v-74h-465v74q158 2 158 174v987q0 84 -37 114t-121 31v74z" />
    <glyph glyph-name="Ograve" unicode="&#xd2;" horiz-adv-x="1667" 
d="M622 2011q60 0 123 -78l256 -311h-124l-312 184q-67 42 -67 94t32 82t92 29zM834 1401q-186 0 -276 -180q-90 -179 -91 -493q0 -314 90 -494q91 -180 277 -181q186 0 276 180q90 179 90 493t-90 494t-276 181zM834 1495q184 0 332 -70q270 -128 376 -428q47 -133 47 -270
t-47 -270q-107 -304 -376 -428q-148 -70 -332 -70t-332 70q-270 127 -377 428q-47 133 -47 270t47 270q107 304 376 428q149 70 333 70z" />
    <glyph glyph-name="Oacute" unicode="&#xd3;" horiz-adv-x="1667" 
d="M1051 2011q41 1 79 -25t39 -83q0 -57 -67 -97l-311 -184h-125l256 311q66 78 129 78zM834 1401q-186 0 -276 -180q-90 -179 -91 -493q0 -314 90 -494q91 -180 277 -181q186 0 276 180q90 179 90 493t-90 494t-276 181zM834 1495q184 0 332 -70q270 -128 376 -428
q47 -133 47 -270t-47 -270q-107 -304 -376 -428q-148 -70 -332 -70t-332 70q-270 127 -377 428q-47 133 -47 270t47 270q107 304 376 428q149 70 333 70z" />
    <glyph glyph-name="Ocircumflex" unicode="&#xd4;" horiz-adv-x="1667" 
d="M473 1622l252 365h217l252 -365h-135l-225 197l-226 -197h-135zM834 1401q-186 0 -276 -180q-90 -179 -91 -493q0 -314 90 -494q91 -180 277 -181q186 0 276 180q90 179 90 493t-90 494t-276 181zM834 1495q184 0 332 -70q270 -128 376 -428q47 -133 47 -270t-47 -270
q-107 -304 -376 -428q-148 -70 -332 -70t-332 70q-270 127 -377 428q-47 133 -47 270t47 270q107 304 376 428q149 70 333 70z" />
    <glyph glyph-name="Otilde" unicode="&#xd5;" horiz-adv-x="1667" 
d="M688 1946q68 0 182 -52t160 -51q70 0 94 96h99q-12 -106 -77 -193t-160 -87t-205 53q-111 53 -143 53t-54 -18q-22 -19 -30 -35q-7 -16 -15 -45h-95q16 115 80 197t164 82zM834 1401q-186 0 -276 -180q-90 -179 -91 -493q0 -314 90 -494q91 -180 277 -181q186 0 276 180
q90 179 90 493t-90 494t-276 181zM834 1495q184 0 332 -70q270 -128 376 -428q47 -133 47 -270t-47 -270q-107 -304 -376 -428q-148 -70 -332 -70t-332 70q-270 127 -377 428q-47 133 -47 270t47 270q107 304 376 428q149 70 333 70z" />
    <glyph glyph-name="Odieresis" unicode="&#xd6;" horiz-adv-x="1667" 
d="M469 1784q0 59 43 102t102 43q58 0 102 -43t44 -102q0 -58 -43 -102t-103 -44t-102 44q-43 44 -43 102zM909 1784q0 59 43 102q42 43 102 43t103 -43t43 -102q0 -58 -43 -102t-102 -44t-103 43q-43 44 -43 103zM834 1401q-186 0 -276 -180q-90 -179 -91 -493
q0 -314 90 -494q91 -180 277 -181q186 0 276 180q90 179 90 493t-90 494t-276 181zM834 1495q184 0 332 -70q270 -128 376 -428q47 -133 47 -270t-47 -270q-107 -304 -376 -428q-148 -70 -332 -70t-332 70q-270 127 -377 428q-47 133 -47 270t47 270q107 304 376 428
q149 70 333 70z" />
    <glyph glyph-name="multiply" unicode="&#xd7;" horiz-adv-x="1228" 
d="M465 520l-371 371l150 149l370 -368l371 368l150 -149l-371 -371l371 -368l-150 -152l-371 371l-370 -371l-150 152z" />
    <glyph glyph-name="Oslash" unicode="&#xd8;" horiz-adv-x="1667" 
d="M809 1495q160 0 276 -39l74 186h107l-88 -223q196 -94 304 -289t107 -403q0 -285 -184 -516q-91 -113 -239 -183t-304 -69q-156 0 -254 33l-84 -213h-108l98 246q-211 93 -324 289t-112 413q0 285 184 516q90 113 238 183t309 69zM1200 736q0 323 -96 497l-447 -1120
q70 -59 177 -60q186 0 276 180t90 503zM834 1401q-367 0 -367 -700q0 -340 115 -508l450 1132q-80 76 -198 76z" />
    <glyph glyph-name="Ugrave" unicode="&#xd9;" horiz-adv-x="1667" 
d="M622 2011q60 0 123 -78l256 -311h-124l-312 184q-67 42 -67 94t32 82t92 29zM41 1454h666v-74q-94 -6 -127 -34t-33 -107v-711q0 -446 399 -446q190 0 295 111q104 111 105 301v680q0 110 -33 154t-129 52v74h442v-74q-92 -2 -125 -47t-33 -149v-717q0 -250 -166 -379
t-437 -129q-270 0 -459 122q-96 62 -152 170q-55 108 -55 251v737q0 80 -36 110t-122 31v74z" />
    <glyph glyph-name="Uacute" unicode="&#xda;" horiz-adv-x="1667" 
d="M1051 2011q41 1 79 -25t39 -83q0 -57 -67 -97l-311 -184h-125l256 311q66 78 129 78zM41 1454h666v-74q-94 -6 -127 -34t-33 -107v-711q0 -446 399 -446q190 0 295 111q104 111 105 301v680q0 110 -33 154t-129 52v74h442v-74q-92 -2 -125 -47t-33 -149v-717
q0 -250 -166 -379t-437 -129q-270 0 -459 122q-96 62 -152 170q-55 108 -55 251v737q0 80 -36 110t-122 31v74z" />
    <glyph glyph-name="Ucircumflex" unicode="&#xdb;" horiz-adv-x="1667" 
d="M473 1622l252 365h217l252 -365h-135l-225 197l-226 -197h-135zM41 1454h666v-74q-94 -6 -127 -34t-33 -107v-711q0 -446 399 -446q190 0 295 111q104 111 105 301v680q0 110 -33 154t-129 52v74h442v-74q-92 -2 -125 -47t-33 -149v-717q0 -250 -166 -379t-437 -129
q-270 0 -459 122q-96 62 -152 170q-55 108 -55 251v737q0 80 -36 110t-122 31v74z" />
    <glyph glyph-name="Udieresis" unicode="&#xdc;" horiz-adv-x="1667" 
d="M469 1784q0 59 43 102t102 43q58 0 102 -43t44 -102q0 -58 -43 -102t-103 -44t-102 44q-43 44 -43 102zM909 1784q0 59 43 102q42 43 102 43t103 -43t43 -102q0 -58 -43 -102t-102 -44t-103 43q-43 44 -43 103zM41 1454h666v-74q-94 -6 -127 -34t-33 -107v-711
q0 -446 399 -446q190 0 295 111q104 111 105 301v680q0 110 -33 154t-129 52v74h442v-74q-92 -2 -125 -47t-33 -149v-717q0 -250 -166 -379t-437 -129q-270 0 -459 122q-96 62 -152 170q-55 108 -55 251v737q0 80 -36 110t-122 31v74z" />
    <glyph glyph-name="Yacute" unicode="&#xdd;" horiz-adv-x="1630" 
d="M1032 2011q41 1 80 -25t39 -83t-68 -97l-311 -184h-125l256 311q66 78 129 78zM29 1454h735v-74q-88 -6 -121 -25t-33 -59t27 -77l307 -480l309 471q27 39 27 80q0 84 -158 90v74h480v-74q-60 -10 -96 -41t-87 -106l-430 -639v-385q0 -78 45 -106t142 -29v-74h-732v74
q111 2 154 30t43 109v389l-489 717q-41 59 -123 61v74z" />
    <glyph glyph-name="Thorn" unicode="&#xde;" horiz-adv-x="1363" 
d="M565 1098v-643q186 2 268 69q81 68 81 234t-69 254q-69 86 -216 86h-64zM565 352v-143q0 -74 41 -104t119 -31v-74h-668v74q82 2 121 32t39 107v1030q0 86 -37 111t-123 26v74h668v-74q-90 -2 -125 -28t-35 -109v-43h201q219 0 378 -102t159 -310q0 -337 -400 -415
q-102 -20 -219 -21h-119z" />
    <glyph glyph-name="germandbls" unicode="&#xdf;" horiz-adv-x="1251" 
d="M43 0v74q63 8 88 35t25 81v857q0 221 105 343t357 121q205 0 316 -86q110 -86 110 -228t-97 -210q-66 -46 -115 -62q-50 -15 -50 -21t43 -15q166 -37 254 -150t88 -282t-92 -318q-47 -76 -133 -124t-196 -48t-174 50q-64 49 -64 131t38 114t86 31q48 0 79 -29
q50 -46 20 -138q-10 -32 -10 -36q0 -29 33 -29t52 31q42 69 42 365q0 207 -58 291t-200 83v95q94 6 135 60t41 194q0 238 -160 237q-84 -1 -122 -69t-38 -254v-1094h-403z" />
    <glyph glyph-name="agrave" unicode="&#xe0;" horiz-adv-x="1175" 
d="M756 1208h-125l-312 185q-67 43 -67 94t32 81t92 30t124 -78zM352 289q0 -72 42 -115t96 -43t113 39q58 39 93 86v291q-184 -51 -264 -105t-80 -153zM696 766q0 209 -154 209q-74 0 -112 -27q-37 -27 -37 -61l8 -70q0 -69 -42 -101q-41 -32 -105 -32t-104 40t-39 105
q0 111 121 178q122 67 307 66q109 -1 203 -25t170 -97q75 -73 75 -185v-530q0 -52 11 -72t42 -20t64 28l39 -68q-127 -137 -258 -137q-78 0 -125 46t-53 120q-158 -166 -342 -166q-117 0 -204 67t-87 199q0 77 37 139t88 101t143 74t164 53t190 45v121z" />
    <glyph glyph-name="aacute" unicode="&#xe1;" horiz-adv-x="1175" 
d="M924 1489q0 -57 -68 -96l-311 -185h-125l256 312q66 78 129 77q41 1 80 -25t39 -83zM352 289q0 -72 42 -115t96 -43t113 39q58 39 93 86v291q-184 -51 -264 -105t-80 -153zM696 766q0 209 -154 209q-74 0 -112 -27q-37 -27 -37 -61l8 -70q0 -69 -42 -101
q-41 -32 -105 -32t-104 40t-39 105q0 111 121 178q122 67 307 66q109 -1 203 -25t170 -97q75 -73 75 -185v-530q0 -52 11 -72t42 -20t64 28l39 -68q-127 -137 -258 -137q-78 0 -125 46t-53 120q-158 -166 -342 -166q-117 0 -204 67t-87 199q0 77 37 139t88 101t143 74
t164 53t190 45v121z" />
    <glyph glyph-name="acircumflex" unicode="&#xe2;" horiz-adv-x="1175" 
d="M227 1208l252 365h217l252 -365h-135l-225 197l-226 -197h-135zM352 289q0 -72 42 -115t96 -43t113 39q58 39 93 86v291q-184 -51 -264 -105t-80 -153zM696 766q0 209 -154 209q-74 0 -112 -27q-37 -27 -37 -61l8 -70q0 -69 -42 -101q-41 -32 -105 -32t-104 40t-39 105
q0 111 121 178q122 67 307 66q109 -1 203 -25t170 -97q75 -73 75 -185v-530q0 -52 11 -72t42 -20t64 28l39 -68q-127 -137 -258 -137q-78 0 -125 46t-53 120q-158 -166 -342 -166q-117 0 -204 67t-87 199q0 77 37 139t88 101t143 74t164 53t190 45v121z" />
    <glyph glyph-name="atilde" unicode="&#xe3;" horiz-adv-x="1175" 
d="M442 1532q68 0 183 -51t159 -51q70 0 95 96h98q-12 -106 -77 -194t-160 -87q-94 0 -204 53q-110 54 -143 54t-55 -18t-30 -36q-7 -16 -15 -45h-94q15 115 79 197t164 82zM352 289q0 -72 42 -115t96 -43t113 39q58 39 93 86v291q-184 -51 -264 -105t-80 -153zM696 766
q0 209 -154 209q-74 0 -112 -27q-37 -27 -37 -61l8 -70q0 -69 -42 -101q-41 -32 -105 -32t-104 40t-39 105q0 111 121 178q122 67 307 66q109 -1 203 -25t170 -97q75 -73 75 -185v-530q0 -52 11 -72t42 -20t64 28l39 -68q-127 -137 -258 -137q-78 0 -125 46t-53 120
q-158 -166 -342 -166q-117 0 -204 67t-87 199q0 77 37 139t88 101t143 74t164 53t190 45v121z" />
    <glyph glyph-name="adieresis" unicode="&#xe4;" horiz-adv-x="1175" 
d="M223 1370q0 58 43 102q42 44 102 44t103 -43t43 -103t-43 -102q-43 -43 -102 -43t-103 43q-43 43 -43 102zM664 1370q0 58 43 102t102 44t102 -43t43 -103t-43 -102q-43 -43 -102 -43t-102 43t-43 102zM352 289q0 -72 42 -115t96 -43t113 39q58 39 93 86v291
q-184 -51 -264 -105t-80 -153zM696 766q0 209 -154 209q-74 0 -112 -27q-37 -27 -37 -61l8 -70q0 -69 -42 -101q-41 -32 -105 -32t-104 40t-39 105q0 111 121 178q122 67 307 66q109 -1 203 -25t170 -97q75 -73 75 -185v-530q0 -52 11 -72t42 -20t64 28l39 -68
q-127 -137 -258 -137q-78 0 -125 46t-53 120q-158 -166 -342 -166q-117 0 -204 67t-87 199q0 77 37 139t88 101t143 74t164 53t190 45v121z" />
    <glyph glyph-name="aring" unicode="&#xe5;" horiz-adv-x="1175" 
d="M475 1395q0 -47 34 -80t81 -33t81 33t34 80t-34 80t-81 33t-81 -34q-34 -32 -34 -79zM369 1395q0 92 64 155q65 64 157 64t156 -64t65 -154q0 -91 -66 -156q-67 -64 -157 -64t-155 63q-64 64 -64 156zM352 289q0 -72 42 -115t96 -43t113 39q58 39 93 86v291
q-184 -51 -264 -105t-80 -153zM696 766q0 209 -154 209q-74 0 -112 -27q-37 -27 -37 -61l8 -70q0 -69 -42 -101q-41 -32 -105 -32t-104 40t-39 105q0 111 121 178q122 67 307 66q109 -1 203 -25t170 -97q75 -73 75 -185v-530q0 -52 11 -72t42 -20t64 28l39 -68
q-127 -137 -258 -137q-78 0 -125 46t-53 120q-158 -166 -342 -166q-117 0 -204 67t-87 199q0 77 37 139t88 101t143 74t164 53t190 45v121z" />
    <glyph glyph-name="ae" unicode="&#xe6;" horiz-adv-x="1781" 
d="M365 289q0 -72 42 -115t97 -43q117 0 291 143q-29 86 -29 279q-143 -14 -272 -89t-129 -175zM266 684q-64 0 -104 40t-39 105q0 111 122 178t306 66q254 0 373 -121q116 121 282 121t277 -83t157 -208t52 -282h-656q0 -156 70 -262t213 -107q79 0 145 36t144 130l75 -55
q-59 -109 -174 -192t-260 -83q-145 1 -257 59t-156 160q-233 -219 -459 -219q-117 0 -204 67t-87 199t98 213t218 118q119 37 364 91v111q0 106 -65 158t-143 51q-78 0 -116 -27t-36 -61l8 -70q0 -69 -42 -101t-106 -32zM1372 602q0 381 -164 381q-86 0 -128 -86t-44 -295
h336z" />
    <glyph glyph-name="ccedilla" unicode="&#xe7;" horiz-adv-x="1099" 
d="M642 -121q64 0 114 -42q51 -42 51 -109q0 -94 -82 -138t-200 -45q-118 0 -199 41l30 78q72 -29 125 -29t83 24t30 58q0 70 -88 70q-37 0 -47 -10l-37 20l84 178q-184 29 -304 173t-120 356q0 254 161 412t386 157q160 0 265 -85t105 -210q0 -76 -41 -124
q-40 -48 -114 -48t-115 43t-41 95t24 103q24 53 24 71t-30 40t-79 21q-105 0 -161 -115t-56 -290q0 -443 270 -443q141 0 272 160l78 -60q-186 -262 -436 -264l-47 -98q31 10 95 10z" />
    <glyph glyph-name="egrave" unicode="&#xe8;" 
d="M233 1487q0 51 32 81q33 30 93 30t123 -78l256 -312h-125l-311 185q-68 43 -68 94zM733 602q0 381 -164 381q-86 0 -128 -86t-44 -295h336zM397 500q0 -156 70 -262t213 -107q78 0 144 36t145 130l75 -55q-59 -109 -174 -192t-276 -83q-216 1 -362 147t-146 387t131 407
t356 165q160 0 271 -83q111 -84 158 -208t51 -282h-656z" />
    <glyph glyph-name="eacute" unicode="&#xe9;" 
d="M905 1489q0 -57 -67 -96l-312 -185h-125l256 312q66 78 129 77q41 1 80 -25t39 -83zM733 602q0 381 -164 381q-86 0 -128 -86t-44 -295h336zM397 500q0 -156 70 -262t213 -107q78 0 144 36t145 130l75 -55q-59 -109 -174 -192t-276 -83q-216 1 -362 147t-146 387t131 407
t356 165q160 0 271 -83q111 -84 158 -208t51 -282h-656z" />
    <glyph glyph-name="ecircumflex" unicode="&#xea;" 
d="M209 1208l252 365h217l252 -365h-135l-226 197l-225 -197h-135zM733 602q0 381 -164 381q-86 0 -128 -86t-44 -295h336zM397 500q0 -156 70 -262t213 -107q78 0 144 36t145 130l75 -55q-59 -109 -174 -192t-276 -83q-216 1 -362 147t-146 387t131 407t356 165
q160 0 271 -83q111 -84 158 -208t51 -282h-656z" />
    <glyph glyph-name="edieresis" unicode="&#xeb;" 
d="M205 1370q0 58 43 102t102 44q58 0 102 -43t44 -103t-43 -102q-43 -43 -103 -43t-102 43q-43 43 -43 102zM645 1370q0 58 43 102q42 44 102 44t103 -43t43 -103t-43 -102q-43 -43 -102 -43t-103 43q-43 43 -43 102zM733 602q0 381 -164 381q-86 0 -128 -86t-44 -295h336z
M397 500q0 -156 70 -262t213 -107q78 0 144 36t145 130l75 -55q-59 -109 -174 -192t-276 -83q-216 1 -362 147t-146 387t131 407t356 165q160 0 271 -83q111 -84 158 -208t51 -282h-656z" />
    <glyph glyph-name="igrave" unicode="&#xec;" horiz-adv-x="645" 
d="M492 1208h-125l-312 185q-67 43 -67 94t31 81q33 30 93 30t124 -78zM459 918v-728q0 -117 114 -116v-74h-522v74q117 2 117 96v655q0 41 -24 61t-93 27v74q113 12 414 86q-6 -154 -6 -155z" />
    <glyph glyph-name="iacute" unicode="&#xed;" horiz-adv-x="645" 
d="M281 1208h-125l256 312q66 78 129 77q41 1 80 -25t39 -83t-68 -96zM459 918v-728q0 -117 114 -116v-74h-522v74q117 2 117 96v655q0 41 -24 61t-93 27v74q113 12 414 86q-6 -154 -6 -155z" />
    <glyph glyph-name="icircumflex" unicode="&#xee;" horiz-adv-x="645" 
d="M-37 1208l252 365h217l252 -365h-135l-225 197l-226 -197h-135zM459 918v-728q0 -117 114 -116v-74h-522v74q117 2 117 96v655q0 41 -24 61t-93 27v74q113 12 414 86q-6 -154 -6 -155z" />
    <glyph glyph-name="idieresis" unicode="&#xef;" horiz-adv-x="645" 
d="M-41 1370q0 58 43 102t102 44q58 0 102 -43t44 -103t-43 -102q-43 -43 -103 -43t-102 43q-43 43 -43 102zM399 1370q0 58 43 102q42 44 102 44t103 -43t43 -103t-43 -102q-43 -43 -102 -43t-103 43q-43 43 -43 102zM459 918v-728q0 -117 114 -116v-74h-522v74
q117 2 117 96v655q0 41 -24 61t-93 27v74q113 12 414 86q-6 -154 -6 -155z" />
    <glyph glyph-name="eth" unicode="&#xf0;" horiz-adv-x="1212" 
d="M1118 545q0 -260 -144 -419t-376 -159q-232 1 -380 147t-148 355t147 355t377 147q31 0 84 -8q-29 106 -150 235l-278 -188l-68 75l273 183q-138 126 -279 194l152 78q145 -57 290 -162l306 207l63 -78l-287 -192q186 -155 302 -355t116 -415zM594 885q-92 1 -148 -105
t-57 -311q0 -205 56 -310q57 -105 149 -105t148 104q56 106 57 311q-1 205 -57 311t-148 105z" />
    <glyph glyph-name="ntilde" unicode="&#xf1;" horiz-adv-x="1288" 
d="M500 1532q68 0 182 -51t160 -51q70 0 94 96h98q-12 -106 -77 -194t-160 -87q-95 0 -205 53q-110 54 -142 54t-55 -18t-30 -36q-7 -16 -15 -45h-94q16 115 80 197t164 82zM39 913v74q254 35 393 86l-6 -221l4 -4q170 225 383 225q131 0 208 -77t77 -212v-583q0 -68 26 -96
t93 -31v-74h-527v74q117 0 117 119v522q0 80 -40 121t-101 41q-60 1 -140 -59t-80 -124v-501q0 -66 24 -90t87 -29v-74h-516v74q115 0 115 119v616q0 104 -117 104z" />
    <glyph glyph-name="ograve" unicode="&#xf2;" horiz-adv-x="1212" 
d="M270 1487q0 51 32 81t92 30t124 -78l256 -312h-125l-311 185q-68 43 -68 94zM594 979q-92 0 -148 -117t-57 -342q0 -225 56 -342q57 -117 149 -117t148 117t57 342q-1 225 -57 342t-148 117zM594 1073q228 0 376 -161t148 -392t-147 -392t-377 -161t-377 161t-147 392
t147 392q148 161 377 161z" />
    <glyph glyph-name="oacute" unicode="&#xf3;" horiz-adv-x="1212" 
d="M942 1489q0 -57 -68 -96l-311 -185h-125l256 312q66 78 129 77q41 1 80 -25t39 -83zM594 979q-92 0 -148 -117t-57 -342q0 -225 56 -342q57 -117 149 -117t148 117t57 342q-1 225 -57 342t-148 117zM594 1073q228 0 376 -161t148 -392t-147 -392t-377 -161t-377 161
t-147 392t147 392q148 161 377 161z" />
    <glyph glyph-name="ocircumflex" unicode="&#xf4;" horiz-adv-x="1212" 
d="M246 1208l252 365h217l252 -365h-136l-225 197l-225 -197h-135zM594 979q-92 0 -148 -117t-57 -342q0 -225 56 -342q57 -117 149 -117t148 117t57 342q-1 225 -57 342t-148 117zM594 1073q228 0 376 -161t148 -392t-147 -392t-377 -161t-377 161t-147 392t147 392
q148 161 377 161z" />
    <glyph glyph-name="otilde" unicode="&#xf5;" horiz-adv-x="1212" 
d="M461 1532q69 0 183 -51t159 -51q70 0 94 96h98q-12 -106 -76 -194q-65 -87 -161 -87t-204 53q-110 54 -142 54t-56 -18q-23 -18 -30 -36q-7 -16 -15 -45h-94q15 115 79 197t165 82zM594 979q-92 0 -148 -117t-57 -342q0 -225 56 -342q57 -117 149 -117t148 117t57 342
q-1 225 -57 342t-148 117zM594 1073q228 0 376 -161t148 -392t-147 -392t-377 -161t-377 161t-147 392t147 392q148 161 377 161z" />
    <glyph glyph-name="odieresis" unicode="&#xf6;" horiz-adv-x="1212" 
d="M242 1370q0 58 43 102t102 44t102 -43t43 -103t-43 -102q-43 -43 -102 -43t-102 43t-43 102zM682 1370q0 58 43 102t102 44t103 -43t43 -103q0 -60 -43 -102q-42 -43 -102 -43t-103 43t-43 102zM594 979q-92 0 -148 -117t-57 -342q0 -225 56 -342q57 -117 149 -117
t148 117t57 342q-1 225 -57 342t-148 117zM594 1073q228 0 376 -161t148 -392t-147 -392t-377 -161t-377 161t-147 392t147 392q148 161 377 161z" />
    <glyph glyph-name="divide" unicode="&#xf7;" horiz-adv-x="1228" 
d="M442 96q0 72 52 122t122 50t121 -51t51 -119t-51 -122t-121 -54t-122 51t-52 123zM616 772q-70 0 -122 51t-52 122t52 122t122 51t121 -52t51 -120t-51 -121t-121 -53zM1135 414h-1041v213h1041v-213z" />
    <glyph glyph-name="oslash" unicode="&#xf8;" horiz-adv-x="1212" 
d="M70 520q0 231 147 392t377 161q127 0 233 -55l121 211h113l-150 -262q99 -76 153 -194t54 -253q0 -231 -147 -392t-377 -161q-123 0 -229 51l-148 -256h-113l179 310q-101 74 -157 192t-56 256zM798 473q0 178 -18 266l-329 -571q51 -106 143 -106t148 116q56 117 56 295
zM593 979q-91 0 -147 -117t-56 -298t20 -271l329 573q-55 113 -146 113z" />
    <glyph glyph-name="ugrave" unicode="&#xf9;" horiz-adv-x="1288" 
d="M309 1487q0 51 32 81q33 30 93 30t123 -78l256 -312h-125l-311 185q-68 43 -68 94zM1206 127v-74q-254 -35 -393 -86l6 221l-4 5q-170 -225 -383 -226q-131 0 -208 77t-77 212v551q0 47 -29 77q-30 30 -81 29v74q170 20 409 86l-8 -225v-522q0 -80 40 -121t102 -41
t140 59q79 59 79 123v494q0 30 -28 52t-83 21v74q104 12 410 86l-8 -225v-617q-1 -104 116 -104z" />
    <glyph glyph-name="uacute" unicode="&#xfa;" horiz-adv-x="1288" 
d="M981 1489q0 -57 -68 -96l-311 -185h-125l256 312q66 78 129 77q41 1 80 -25t39 -83zM1206 127v-74q-254 -35 -393 -86l6 221l-4 5q-170 -225 -383 -226q-131 0 -208 77t-77 212v551q0 47 -29 77q-30 30 -81 29v74q170 20 409 86l-8 -225v-522q0 -80 40 -121t102 -41
t140 59q79 59 79 123v494q0 30 -28 52t-83 21v74q104 12 410 86l-8 -225v-617q-1 -104 116 -104z" />
    <glyph glyph-name="ucircumflex" unicode="&#xfb;" horiz-adv-x="1288" 
d="M285 1208l252 365h217l252 -365h-136l-225 197l-225 -197h-135zM1206 127v-74q-254 -35 -393 -86l6 221l-4 5q-170 -225 -383 -226q-131 0 -208 77t-77 212v551q0 47 -29 77q-30 30 -81 29v74q170 20 409 86l-8 -225v-522q0 -80 40 -121t102 -41t140 59q79 59 79 123v494
q0 30 -28 52t-83 21v74q104 12 410 86l-8 -225v-617q-1 -104 116 -104z" />
    <glyph glyph-name="udieresis" unicode="&#xfc;" horiz-adv-x="1288" 
d="M281 1370q0 58 43 102t102 44t102 -43t43 -103t-43 -102q-43 -43 -102 -43t-102 43t-43 102zM721 1370q0 58 43 102t102 44q58 0 102 -43t44 -103t-43 -102q-43 -43 -103 -43t-102 43q-43 43 -43 102zM1206 127v-74q-254 -35 -393 -86l6 221l-4 5q-170 -225 -383 -226
q-131 0 -208 77t-77 212v551q0 47 -29 77q-30 30 -81 29v74q170 20 409 86l-8 -225v-522q0 -80 40 -121t102 -41t140 59q79 59 79 123v494q0 30 -28 52t-83 21v74q104 12 410 86l-8 -225v-617q-1 -104 116 -104z" />
    <glyph glyph-name="yacute" unicode="&#xfd;" horiz-adv-x="1212" 
d="M942 1489q0 -57 -68 -96l-311 -185h-125l256 312q66 78 129 77q41 1 80 -25t39 -83zM-12 1040h585v-73q-69 -3 -97 -19q-51 -28 -3 -149l219 -508l201 508q23 57 23 91t-33 50t-117 27v73h418v-73q-37 -4 -66 -29t-38 -42t-23 -48l-443 -1010q-86 -193 -166 -257
t-180 -64t-172 44t-71 148q0 76 42 117q41 41 107 41t98 -31q32 -30 32 -68q3 -99 46 -100q47 0 84 70l101 190l-431 961q-32 72 -116 78v73z" />
    <glyph glyph-name="thorn" unicode="&#xfe;" horiz-adv-x="1251" 
d="M442 731v-487q0 -47 62 -90t121 -43q90 0 146 103t56 316q0 367 -182 367q-59 1 -131 -53t-72 -113zM442 -215q0 -98 31 -134t125 -36v-74h-555v74q61 0 85 32t24 97v1540q0 92 -109 96v74q201 29 399 86l-12 -645l4 -4q127 182 302 182t293 -145t118 -405
q0 -259 -136 -407t-306 -149q-142 0 -263 127v-309z" />
    <glyph glyph-name="ydieresis" unicode="&#xff;" horiz-adv-x="1212" 
d="M242 1370q0 58 43 102t102 44t102 -43t43 -103t-43 -102q-43 -43 -102 -43t-102 43t-43 102zM682 1370q0 58 43 102t102 44t103 -43t43 -103q0 -60 -43 -102q-42 -43 -102 -43t-103 43t-43 102zM-12 1040h585v-73q-69 -3 -97 -19q-51 -28 -3 -149l219 -508l201 508
q23 57 23 91t-33 50t-117 27v73h418v-73q-37 -4 -66 -29t-38 -42t-23 -48l-443 -1010q-86 -193 -166 -257t-180 -64t-172 44t-71 148q0 76 42 117q41 41 107 41t98 -31q32 -30 32 -68q3 -99 46 -100q47 0 84 70l101 190l-431 961q-32 72 -116 78v73z" />
    <glyph glyph-name="dotlessi" unicode="&#x131;" horiz-adv-x="645" 
d="M459 918v-728q0 -117 114 -116v-74h-522v74q117 2 117 96v655q0 41 -24 61t-93 27v74q113 12 414 86q-6 -154 -6 -155z" />
    <glyph glyph-name="Lslash" unicode="&#x141;" horiz-adv-x="1402" 
d="M563 238q0 -86 42 -106t220 -21q178 0 264 54q85 54 152 238h90l-63 -403h-1211v74q78 2 118 34t40 105v287l-219 -133v149l219 133v572q0 79 -41 121t-117 38v74h682v-74q-98 -2 -137 -34t-39 -125v-361l348 211v-149l-348 -211v-473z" />
    <glyph glyph-name="lslash" unicode="&#x142;" horiz-adv-x="645" 
d="M168 193v456l-184 -112v131l184 112v492q0 55 -27 79t-90 29v74q215 20 414 86q-6 -190 -6 -192v-390l203 123v-131l-203 -123v-634q4 -119 112 -119v-74h-516v74q113 0 113 119z" />
    <glyph glyph-name="OE" unicode="&#x152;" horiz-adv-x="2160" 
d="M373 728q0 -314 90 -494t276 -181q267 0 314 295v799q-49 135 -124 194t-190 60q-186 0 -276 -180q-90 -179 -90 -493zM2114 1143h-86q-8 117 -58 165t-158 48h-411v-529h174q92 0 128 37t50 154h86v-492h-86q-6 113 -43 154t-123 41h-186v-461q0 -84 30 -113t123 -28
h201q156 0 237 57t119 205h91l-74 -381h-985q-29 -4 -90 -12t-139 -18t-175 -11q-184 0 -332 70q-270 128 -376 428q-47 133 -47 270t47 270q107 304 376 428q148 70 332 70q85 0 231 -19t185 -22h959v-311z" />
    <glyph glyph-name="oe" unicode="&#x153;" horiz-adv-x="1857" 
d="M594 979q-92 0 -148 -117t-57 -342q0 -225 56 -342q57 -117 149 -117t148 117t57 342q-1 225 -57 342t-148 117zM1118 500q0 -156 70 -262t213 -107q79 0 145 36t144 130l75 -55q-59 -109 -174 -192t-276 -83q-221 0 -361 146q-141 -145 -365 -145t-372 160
q-147 161 -147 392t147 392t371 161t366 -145q135 145 340 145q160 0 271 -83q111 -84 158 -208t51 -282h-656zM1454 602q0 381 -164 381q-86 0 -128 -86t-44 -295h336z" />
    <glyph glyph-name="Scaron" unicode="&#x160;" horiz-adv-x="1363" 
d="M1042 1987l-251 -365h-218l-251 365h135l225 -197l225 197h135zM1030 1405q47 0 60 74h84l6 -422h-84q-51 164 -166 248t-233 84q-119 1 -185 -55t-66 -128q0 -130 126 -195q132 -71 242 -109q188 -65 311 -173q124 -108 124 -303q-1 -195 -151 -331t-412 -136
q-156 0 -330 78q-57 27 -75 26q-63 0 -78 -79h-84l-4 450h84q29 -145 157 -253q128 -107 286 -107t234 72q74 72 74 168t-81 156t-195 103t-230 95t-196 148q-80 97 -80 237q0 203 154 321t344 117q112 0 232 -43t132 -43z" />
    <glyph glyph-name="scaron" unicode="&#x161;" horiz-adv-x="985" 
d="M854 1573l-252 -365h-217l-252 365h135l226 -197l225 197h135zM471 82q88 0 134 43t46 107q0 111 -204 167q-85 25 -169 56t-145 102q-59 73 -59 197t93 222t267 97q88 0 180 -32t97 -31q23 0 43 51h77l9 -313h-82q-70 211 -291 210q-72 0 -116 -32t-44 -97
q-1 -63 61 -103t150 -64t176 -57q88 -32 150 -105q61 -74 61 -205t-106 -229t-291 -99q-129 0 -248 52q-39 17 -54 17q-14 0 -26 -18q-12 -20 -12 -34h-78l-8 331h74q39 -121 133 -177t182 -56z" />
    <glyph glyph-name="Ydieresis" unicode="&#x178;" horiz-adv-x="1630" 
d="M451 1784q0 59 43 102t102 43t102 -43t43 -102q0 -58 -43 -102t-102 -44t-102 44t-43 102zM891 1784q0 59 43 102t102 43q58 0 102 -43t44 -102q0 -58 -43 -102t-103 -44t-102 44q-43 44 -43 102zM29 1454h735v-74q-88 -6 -121 -25t-33 -59t27 -77l307 -480l309 471
q27 39 27 80q0 84 -158 90v74h480v-74q-60 -10 -96 -41t-87 -106l-430 -639v-385q0 -78 45 -106t142 -29v-74h-732v74q111 2 154 30t43 109v389l-489 717q-41 59 -123 61v74z" />
    <glyph glyph-name="Zcaron" unicode="&#x17d;" horiz-adv-x="1478" 
d="M1100 1987l-252 -365h-217l-252 365h135l225 -197l226 197h135zM1366 1454v-86l-848 -1249h445q151 -1 227 69t125 199h86l-74 -387h-1249v80l854 1259h-449q-203 0 -250 -233h-86l17 348h1202z" />
    <glyph glyph-name="zcaron" unicode="&#x17e;" horiz-adv-x="1099" 
d="M911 1573l-252 -365h-217l-252 365h136l225 -197l225 197h135zM102 1040h885v-69l-584 -869h248q145 0 210 58t87 166h80l-35 -326h-960v72l583 866h-272q-70 0 -110 -42t-54 -142h-78v286z" />
    <glyph glyph-name="florin" unicode="&#x192;" horiz-adv-x="1175" 
d="M731 1262q0 -44 28 -138t27 -143l-12 -166h242l-12 -131h-244l-90 -889q-12 -109 -89 -195t-217 -87q-140 0 -225 55q-86 55 -86 156q0 57 37 98t92 41t94 -32t39 -80t-20 -118q10 -18 54 -18t74 38t30 88t-28 144t-28 125t13 158l47 516h-219l8 131h225l37 379
q14 147 106 224t216 77t212 -57t88 -162q0 -66 -40 -105t-96 -39t-91 34t-35 81l21 107q-1 16 -17 27t-36 12q-53 0 -79 -43t-26 -88z" />
    <glyph glyph-name="circumflex" unicode="&#x2c6;" horiz-adv-x="569" 
d="M-76 1208l252 365h217l252 -365h-135l-225 197l-226 -197h-135z" />
    <glyph glyph-name="caron" unicode="&#x2c7;" horiz-adv-x="569" 
d="M645 1573l-252 -365h-217l-252 365h135l226 -197l225 197h135z" />
    <glyph glyph-name="breve" unicode="&#x2d8;" horiz-adv-x="569" 
d="M-37 1552h103q18 -168 213 -168q104 0 154 43t71 125h102q-10 -143 -88 -243q-78 -101 -226 -101t-239 84q-90 84 -90 260z" />
    <glyph glyph-name="dotaccent" unicode="&#x2d9;" horiz-adv-x="569" 
d="M143 1370q0 58 43 102q42 44 102 44t103 -43t43 -103t-43 -102q-43 -43 -102 -43t-103 43q-43 43 -43 102z" />
    <glyph glyph-name="ring" unicode="&#x2da;" horiz-adv-x="569" 
d="M172 1395q0 -47 34 -80t81 -33t81 33t33 80q0 47 -33 80q-34 33 -81 33t-81 -34q-34 -32 -34 -79zM66 1395q0 92 64 155q65 64 157 64q93 0 157 -64t64 -154q0 -91 -66 -156q-66 -64 -156 -64t-156 63q-64 64 -64 156z" />
    <glyph glyph-name="ogonek" unicode="&#x2db;" horiz-adv-x="569" 
d="M219 -336q51 0 201 84l33 -67q-199 -131 -324 -132q-78 0 -136 41q-59 41 -59 113t41 127t95 88q132 81 393 125v-25q-69 -22 -137 -54t-138 -91t-69 -119q0 -90 100 -90z" />
    <glyph glyph-name="tilde" unicode="&#x2dc;" horiz-adv-x="569" 
d="M139 1532q68 0 183 -51t159 -51q70 0 94 96h99q-12 -106 -77 -194t-160 -87q-95 0 -205 53q-110 54 -142 54t-56 -18q-22 -18 -29 -36q-7 -16 -15 -45h-94q16 115 79 197t164 82z" />
    <glyph glyph-name="hungarumlaut" unicode="&#x2dd;" horiz-adv-x="569" 
d="M537 1602q39 0 65 -29t27 -72q0 -43 -86 -100l-262 -193h-101l232 322q53 72 125 72zM651 1229h-102l295 321q47 52 93 52t75 -28t28 -61q0 -57 -86 -106z" />
    <glyph glyph-name="endash" unicode="&#x2013;" horiz-adv-x="1024" 
d="M0 618h1024v-196h-1024v196z" />
    <glyph glyph-name="emdash" unicode="&#x2014;" horiz-adv-x="2048" 
d="M0 618h2048v-196h-2048v196z" />
    <glyph glyph-name="quoteleft" unicode="&#x2018;" horiz-adv-x="569" 
d="M467 946q0 -57 -51 -108q-51 -52 -134 -52t-142 70q-58 70 -58 174q0 198 134 317q101 87 216 148l47 -80q-92 -43 -152 -113q-93 -109 -46 -144q14 -11 57 -27t86 -50q43 -35 43 -135z" />
    <glyph glyph-name="quoteright" unicode="&#x2019;" horiz-adv-x="569" 
d="M303 1078q0 30 -14 41t-47 23q-103 39 -127 101q-13 31 -13 89t52 108q52 51 134 51q83 0 141 -70t58 -174q0 -201 -134 -316q-104 -90 -216 -149l-47 80q92 43 153 114q60 72 60 102z" />
    <glyph glyph-name="quotesinglbase" unicode="&#x201a;" horiz-adv-x="569" 
d="M332 -62q0 34 -32 53t-71 31t-71 48q-32 38 -31 106q0 68 44 112t129 44t142 -67q58 -67 58 -171q1 -199 -136 -318q-96 -83 -186 -132l-45 73q109 70 154 129q45 58 45 92z" />
    <glyph glyph-name="quotedblleft" unicode="&#x201c;" 
d="M285 1200q-1 -33 31 -52q32 -18 71 -30t71 -49t32 -105t-45 -113q-45 -44 -129 -44t-142 66q-57 67 -57 171q0 200 136 319q98 84 185 132l45 -74q-109 -70 -153 -129t-45 -92zM786 1200q0 -33 32 -52q32 -18 71 -30t71 -49t31 -105q0 -68 -44 -113q-44 -44 -129 -44
q-85 1 -142 67q-58 66 -58 170q-1 200 137 319q98 84 185 132l45 -74q-109 -70 -154 -129t-45 -92z" />
    <glyph glyph-name="quotedblright" unicode="&#x201d;" 
d="M852 1098q0 33 -32 52q-32 18 -70 30t-71 49q-32 37 -32 105t44 113q44 44 129 44q84 0 142 -67t58 -171q0 -199 -136 -318q-96 -83 -186 -132l-45 74q109 70 154 129t45 92zM350 1098q0 33 -32 52q-32 18 -70 30t-71 49q-32 37 -32 105t44 113q44 44 129 44
q84 0 142 -67t58 -171q0 -199 -136 -318q-98 -84 -185 -132l-45 74q110 70 154 129t44 92z" />
    <glyph glyph-name="quotedblbase" unicode="&#x201e;" 
d="M802 332q84 0 142 -67t57 -171q0 -201 -136 -318q-98 -84 -185 -132l-45 73q109 70 153 129q44 58 46 92q0 34 -32 53t-71 31t-71 48q-32 38 -32 106t45 112t129 44zM332 -62q0 34 -32 53t-71 31t-71 48q-32 38 -31 106q0 68 44 112t129 44t142 -67q58 -67 58 -171
q1 -199 -136 -318q-96 -83 -186 -132l-45 73q109 70 154 129q45 58 45 92z" />
    <glyph glyph-name="dagger" unicode="&#x2020;" 
d="M602 -330h-74q0 565 -143 852q139 209 143 387q-80 -2 -183 -52t-152 -50t-82 40t-33 95t37 93t83 38t147 -45t183 -45q0 123 -54 231t-54 165q0 59 42 95t103 36t104 -36q42 -36 42 -94q-1 -58 -55 -167q-54 -108 -54 -230q84 0 184 45t146 45t84 -38q37 -38 37 -93
t-33 -95t-82 -40q-48 0 -152 50t-184 52q4 -178 143 -387q-143 -287 -143 -852z" />
    <glyph glyph-name="daggerdbl" unicode="&#x2021;" 
d="M197 344q49 0 152 -50t183 -52q-2 74 -28 146t-46 102q-19 30 -61 88q45 61 63 87q17 27 44 99t28 145q-80 -2 -183 -52t-152 -50t-82 40t-33 95t37 93t83 38t147 -45t183 -45q0 123 -54 231t-54 165q0 59 42 95t103 36t104 -36q42 -36 42 -94q-1 -58 -55 -167
q-54 -108 -54 -230q84 0 184 45t146 45t84 -38q37 -38 37 -93t-33 -95t-82 -40t-152 50t-184 52q2 -75 29 -147t44 -98t62 -86q-41 -58 -60 -88t-46 -102t-29 -146q80 2 184 52t152 50q49 0 82 -40t33 -95t-37 -93t-83 -38t-147 45t-184 45q0 -122 54 -230t54 -166t-41 -94
t-103 -36t-104 36t-42 94t54 166t54 230q-84 0 -184 -45t-146 -45t-83 38t-37 93t33 95t82 40z" />
    <glyph glyph-name="bullet" unicode="&#x2022;" horiz-adv-x="1024" 
d="M150 728q0 151 106 257q106 107 257 107t257 -108t106 -258t-106 -255q-106 -106 -258 -106t-257 106t-105 257z" />
    <glyph glyph-name="ellipsis" unicode="&#x2026;" horiz-adv-x="2048" 
d="M1524 152q0 76 52 128t128 52t128 -52t52 -128t-52 -128t-128 -52t-128 52t-52 128zM842 152q0 76 52 128t128 52t128 -52t52 -128t-52 -128t-128 -52t-128 52t-52 128zM160 152q0 76 52 128t128 52t128 -52t52 -128t-52 -128t-128 -52t-128 52t-52 128z" />
    <glyph glyph-name="perthousand" unicode="&#x2030;" horiz-adv-x="2048" 
d="M1026 1491h111l-846 -1557h-111zM1819 315q0 279 -115 279t-115 -279q0 -154 30 -216t85 -62t85 62t30 216zM1709 655q138 0 224 -92t86 -243q0 -152 -86 -248t-227 -96t-229 90q-88 92 -88 248t91 249q91 92 229 92zM1110 315q0 279 -115 279t-114 -279q-1 -154 29 -216
t85 -62t85 62t30 216zM995 655q131 0 223 -91t93 -249q0 -159 -92 -249q-91 -90 -223 -90t-224 90q-92 92 -92 250t92 248q92 91 223 91zM332 1384q-55 0 -85 -62t-30 -216t30 -216t85 -63q116 0 114 279q0 154 -29 216q-30 62 -85 62zM332 1446q131 0 223 -91t92 -249
t-92 -249t-223 -91t-223 91t-93 249q0 158 92 249t224 91z" />
    <glyph glyph-name="guilsinglleft" unicode="&#x2039;" horiz-adv-x="720" 
d="M522 55l-424 469l418 461h100l-233 -461l235 -469h-96z" />
    <glyph glyph-name="guilsinglright" unicode="&#x203a;" horiz-adv-x="720" 
d="M199 985l424 -469l-418 -461h-101l234 461l-236 469h97z" />
    <glyph glyph-name="fraction" unicode="&#x2044;" horiz-adv-x="342" 
d="M-342 -41l917 1536h109l-915 -1536h-111z" />
    <glyph glyph-name="fraction" unicode="&#x2215;" horiz-adv-x="342" 
d="M-342 -41l917 1536h109l-915 -1536h-111z" />
    <glyph glyph-name="Euro" unicode="&#x20ac;" 
d="M696 1495q244 0 336 -104l15 -215h-52q-29 201 -217 200q-127 0 -188 -123t-80 -364h434l-41 -109h-395l-2 -65q0 -49 2 -66h342l-41 -108h-299q10 -223 80 -343t190 -120q182 0 215 196h52l-15 -206q-96 -106 -332 -107q-471 0 -524 580h-141l41 108h86q-4 41 -4 70
l2 61h-125l41 109h92q33 299 158 453q126 154 370 153z" />
    <glyph glyph-name="trademark" unicode="&#x2122;" horiz-adv-x="2033" 
d="M1073 1223v-408q1 -81 19 -109t88 -30v-49h-273v49q68 2 86 30t19 109v485q-20 49 -58 78t-84 29v47h285l291 -592l309 592h242v-47q-69 -2 -91 -24t-22 -74v-537q0 -64 14 -78t93 -18v-49h-398v49q76 4 89 17t14 79v455h-4l-301 -602h-27l-287 598h-4zM512 1405v-633
q0 -64 13 -78t91 -18v-49h-399v49q76 4 89 18t13 78v633h-94q-104 0 -131 -131h-49v180h741v-180h-49q-27 131 -133 131h-92z" />
    <glyph glyph-name="minus" unicode="&#x2212;" horiz-adv-x="1228" 
d="M94 414v213h1041v-213h-1041z" />
    <glyph glyph-name="fi" unicode="&#xfb01;" horiz-adv-x="1363" 
d="M459 934v-707q0 -154 157 -153v-74h-573v74q69 0 97 42t28 126v692h-141v106h141v168q0 156 94 244t252 88q117 0 193 -50t75 -144q0 -58 -37 -102t-97 -44t-96 33t-36 84q0 18 10 51t11 41q1 37 -51 37t-83 -36t-31 -89t41 -135q40 -82 46 -146h299q102 0 236 12t180 21
q-6 -154 -7 -155v-728q0 -117 115 -116v-74h-522v74q117 2 117 96v676q0 88 -107 88h-311zM852 1370q0 72 49 121t121 49t121 -49t49 -121t-49 -121t-121 -49t-121 49t-49 121z" />
    <glyph glyph-name="fl" unicode="&#xfb02;" horiz-adv-x="1363" 
d="M459 934v-707q0 -154 157 -153v-74h-573v74q69 0 97 42t28 126v692h-141v106h141v168q0 156 94 244t254 88t227 -84q240 18 431 84q-6 -190 -7 -192v-1155q4 -119 113 -119v-74h-516v74q113 0 113 119v1079q0 51 -23 74t-76 30q4 -10 4 -30q0 -58 -37 -102t-97 -44
t-96 33t-36 84q0 18 10 51t11 41q1 37 -51 37t-83 -36t-31 -89t41 -135q40 -82 46 -146h262v-106h-262z" />
    </font>
</defs>
</svg>
