<?xml version="1.0" standalone="no"?>
<!DOCTYPE svg PUBLIC "-//W3C//DTD SVG 1.1//EN" "http://www.w3.org/Graphics/SVG/1.1/DTD/svg11.dtd" >
<svg xmlns="http://www.w3.org/2000/svg">
<metadata>
Created by FontPrep 20130207 at Fri Apr  3 17:18:15 2015
 By Callum Flack
Copyright (c) 1989, 1995 Adobe Systems Incorporated.  All Rights Reserved.
</metadata>
<defs>
<font id="d5ce16db3f18054031fbb36da649db41" horiz-adv-x='1024' >
  <font-face 
    font-family="Gothic-Thirteen"
    font-weight="400"
    font-stretch="normal"
    units-per-em="2048"
    panose-1="2 11 5 0 0 0 0 0 0 0"
    ascent="1536"
    descent="-512"
    x-height="1028"
    cap-height="1470"
    bbox="-342 -512 2048 2001"
    underline-thickness="102"
    underline-position="-102"
    unicode-range="U+0020-FB02"
  />
<missing-glyph horiz-adv-x="454" 
 />
    <glyph glyph-name=".notdef" horiz-adv-x="454" 
 />
    <glyph glyph-name=".null" horiz-adv-x="0" 
 />
    <glyph glyph-name="nonmarkingreturn" horiz-adv-x="681" 
 />
    <glyph glyph-name="space" unicode=" " horiz-adv-x="454" 
 />
    <glyph glyph-name="space" unicode="&#xa0;" horiz-adv-x="454" 
 />
    <glyph glyph-name="exclam" unicode="!" horiz-adv-x="569" 
d="M438 0h-307v385h307v-385zM131 1470h307v-372l-116 -574h-74l-117 574v372z" />
    <glyph glyph-name="quotedbl" unicode="&#x22;" horiz-adv-x="681" 
d="M29 918v552h245v-552h-245zM408 918v552h245v-552h-245z" />
    <glyph glyph-name="numbersign" unicode="#" 
d="M547 856h-144l-28 -242h143zM838 614l-9 -200h-143l-47 -414h-193l48 414h-144l-45 -414h-192l45 414h-140l9 200h157l29 242h-143l6 201h160l47 413h190l-47 -413h143l47 413h191l-45 -413h125l-6 -201h-144l-26 -242h127z" />
    <glyph glyph-name="dollar" unicode="$" 
d="M508 238q108 -4 106 135q0 43 -32 85q-33 41 -74 68v-288zM389 1245q-47 0 -74 -33q-27 -32 -27 -80t31 -90q31 -41 70 -57v260zM389 1610h119v-140q200 -24 278 -132t78 -318h-258q0 199 -98 225v-334q172 -113 272 -229t100 -284q0 -170 -96 -278t-276 -120v-164h-119
v164q-217 20 -298 154t-73 362h258q-4 -154 25 -209t88 -69v368q-182 127 -244 193q-123 127 -123 293t95 268q94 102 272 110v140z" />
    <glyph glyph-name="percent" unicode="%" horiz-adv-x="1366" 
d="M33 1171q0 133 95 229t228 95q132 0 228 -95q96 -94 96 -228t-95 -229t-229 -95t-228 95q-95 95 -95 228zM246 1171q0 -45 33 -77t77 -33q44 0 78 33q33 34 33 78t-33 77t-78 33q-46 0 -78 -33t-32 -78zM385 -25h-127l705 1520h129zM899 299q0 -45 32 -78t79 -33t79 33
t31 78q0 45 -31 78q-32 33 -79 33t-79 -33t-32 -78zM686 299q0 133 95 228t229 95t228 -94q95 -96 95 -229t-95 -228t-228 -95q-132 0 -228 94q-96 96 -96 229z" />
    <glyph glyph-name="ampersand" unicode="&#x26;" horiz-adv-x="1024" 
d="M37 393q0 268 213 445q-39 76 -55 110q-50 108 -51 236q0 128 92 220t238 91q146 0 238 -83q91 -83 91 -232q0 -195 -225 -394q78 -158 114 -213q43 132 45 234h230q-18 -301 -136 -502l156 -305h-305l-35 70q-127 -94 -282 -94t-241 117q-86 118 -87 300zM393 1171
q0 -70 60 -157q8 12 41 45t50 69t17 69q1 33 -23 57t-61 24q-84 -1 -84 -107zM319 422q0 -68 36 -110t84 -42t93 33l-135 266q-78 -37 -78 -147z" />
    <glyph glyph-name="quotesingle" unicode="'" horiz-adv-x="454" 
d="M104 918v552h246v-552h-246z" />
    <glyph glyph-name="parenleft" unicode="(" horiz-adv-x="569" 
d="M545 -193h-230q-246 412 -245 832q0 420 245 831h230q-121 -223 -175 -410q-54 -186 -54 -420t54 -422t175 -411z" />
    <glyph glyph-name="parenright" unicode=")" horiz-adv-x="569" 
d="M254 638q0 234 -54 422t-175 410h229q246 -412 246 -832t-246 -831h-229q121 223 175 411q54 186 54 420z" />
    <glyph glyph-name="asterisk" unicode="*" 
d="M348 1470h213l-51 -284l256 137l65 -203l-288 -39l211 -202l-174 -125l-125 262l-125 -262l-174 125l211 202l-289 39l65 203l256 -137z" />
    <glyph glyph-name="plus" unicode="+" horiz-adv-x="1228" 
d="M492 637v391h245v-391h389v-246h-389v-391h-245v391h-390v246h390z" />
    <glyph glyph-name="comma" unicode="," horiz-adv-x="454" 
d="M74 0v410h307v-410l-197 -336h-147l164 336h-127z" />
    <glyph glyph-name="hyphen" unicode="-" horiz-adv-x="681" 
d="M616 377h-550v274h550v-274z" />
    <glyph glyph-name="hyphen" unicode="&#xad;" horiz-adv-x="681" 
d="M616 377h-550v274h550v-274z" />
    <glyph glyph-name="period" unicode="." horiz-adv-x="454" 
d="M381 0h-307v410h307v-410z" />
    <glyph glyph-name="slash" unicode="/" horiz-adv-x="569" 
d="M199 -25h-248l420 1520h247z" />
    <glyph glyph-name="zero" unicode="0" 
d="M872 1010v-551q0 -242 -94 -363t-323 -121t-324 121q-94 121 -94 363v551q0 242 94 364q93 122 323 121q230 1 324 -121t94 -364zM541 401v666q0 133 -86 133t-86 -133v-666q0 -131 86 -131q45 0 65 30t21 101z" />
    <glyph glyph-name="one" unicode="1" 
d="M647 1495v-1495h-319v1110h-209v188q215 -4 289 197h239z" />
    <glyph glyph-name="two" unicode="2" 
d="M827 303v-303h-782v317q132 181 248 330q115 149 157 215t54 110t12 99q0 121 -84 121q-92 0 -92 -127v-88h-299v98q0 186 96 303t294 117q197 0 305 -117t108 -319q0 -113 -50 -227t-102 -181q-52 -69 -160 -185q-106 -116 -143 -163h438z" />
    <glyph glyph-name="three" unicode="3" 
d="M315 655v242h70q79 0 105 38t26 125t-19 124t-67 37q-80 0 -80 -144v-57h-301q0 240 91 358t313 117q180 0 281 -104t102 -310q0 -240 -148 -297q90 -48 129 -118t39 -224q0 -229 -97 -348t-323 -119q-296 0 -368 222q-39 115 -39 325h315v-135q0 -117 80 -117
q100 0 100 181q0 115 -32 159t-115 45h-62z" />
    <glyph glyph-name="four" unicode="4" 
d="M496 582v487h-4l-201 -487h205zM25 287v352l387 856h383v-913h90v-295h-90v-287h-312v287h-458z" />
    <glyph glyph-name="five" unicode="5" 
d="M51 631v839h717v-286h-389v-217q63 61 168 61q326 0 325 -526q0 -252 -91 -389t-330 -138q-311 0 -381 210q-25 73 -31 146t-6 181h319v-121q0 -63 20 -96t74 -33q55 0 75 51q19 51 20 201t-19 201t-78 51q-80 0 -92 -135h-301z" />
    <glyph glyph-name="six" unicode="6" 
d="M553 453q0 199 -96 198q-92 -1 -92 -199t94 -198t94 199zM450 1495q170 0 282 -97t112 -261v-76h-299v35q0 129 -90 129q-86 -13 -90 -148v-229q39 37 61 53q60 45 147 45q143 0 217 -119t74 -344q0 -294 -121 -410q-100 -98 -282 -98t-280 87q-97 87 -130 264
q-20 111 -18 413t20 406q33 176 130 263t267 87z" />
    <glyph glyph-name="seven" unicode="7" 
d="M41 1188v282h807q-16 -82 -93 -427t-111 -575t-38 -468h-332q23 453 205 1188h-438z" />
    <glyph glyph-name="eight" unicode="8" 
d="M444 -25q-231 0 -321 116t-90 335q0 117 34 198t119 146q-76 76 -106 149q-31 73 -31 175q1 178 107 290t288 111q182 0 288 -112t108 -289q0 -102 -31 -175t-107 -149q86 -66 120 -146t34 -198q0 -219 -90 -335t-322 -116zM528 1051q0 106 -16 140t-68 34t-67 -34
q-17 -34 -17 -140q0 -107 16 -141t68 -34q51 0 68 34q16 35 16 141zM444 254q53 0 73 40t20 148q1 108 -19 150t-74 43q-54 0 -72 -42q-20 -42 -20 -150q0 -109 20 -149t72 -40z" />
    <glyph glyph-name="nine" unicode="9" 
d="M440 1208q-96 0 -96 -176t96 -176q90 0 90 176t-90 176zM446 -25q-170 -1 -282 97t-111 262v76h299v-35q0 -129 90 -129q86 12 90 147v230q-38 -37 -60 -53q-57 -44 -148 -46q-143 0 -218 119q-74 119 -73 344q0 293 121 411q99 97 282 97q182 0 280 -87t130 -263
q20 -111 18 -413t-20 -406q-33 -176 -130 -264q-98 -88 -268 -87z" />
    <glyph glyph-name="colon" unicode=":" horiz-adv-x="454" 
d="M381 614h-307v410h307v-410zM381 0h-307v410h307v-410z" />
    <glyph glyph-name="semicolon" unicode=";" horiz-adv-x="454" 
d="M381 614h-307v410h307v-410zM74 0v410h307v-410l-197 -336h-147l164 336h-127z" />
    <glyph glyph-name="less" unicode="&#x3c;" horiz-adv-x="1228" 
d="M1126 217v-233l-1024 434v192l1024 434v-233l-712 -297z" />
    <glyph glyph-name="equal" unicode="=" horiz-adv-x="1228" 
d="M1126 410v-246h-1024v246h1024zM1126 864v-246h-1024v246h1024z" />
    <glyph glyph-name="greater" unicode="&#x3e;" horiz-adv-x="1228" 
d="M102 -16v233l713 297l-713 297v233l1024 -434v-192z" />
    <glyph glyph-name="question" unicode="?" horiz-adv-x="796" 
d="M270 0v385h308v-385h-308zM303 1012h-278v102q0 190 110 286q111 95 269 95t258 -109t100 -294q0 -27 -3 -54t-5 -47t-10 -48t-20 -67q-11 -39 -73 -137q-62 -99 -78 -129v-86h-303v86q42 92 100 192t77 148q19 49 20 117q0 129 -82 129t-82 -117v-67z" />
    <glyph glyph-name="at" unicode="@" horiz-adv-x="1638" 
d="M1384 813q0 238 -147 366t-394 128t-398 -160t-151 -419t164 -412q163 -153 427 -152q227 0 385 119h200q-225 -307 -602 -308q-332 0 -563 215t-231 541t227 545t553 219q285 0 498 -173t213 -445q0 -131 -44 -239q-45 -108 -107 -170t-138 -106q-128 -74 -234 -73
q-46 1 -76 27t-32 73l-4 4q-37 -45 -90 -75t-105 -29q-133 -1 -235 109t-103 257q0 185 116 325t288 140t258 -119l18 99h193l-88 -486q-27 -112 12 -112q74 0 132 80t58 231zM803 518q82 0 139 64t57 145q0 82 -44 127q-45 45 -123 45t-136 -64q-57 -65 -57 -143t41 -126
t123 -48z" />
    <glyph glyph-name="A" unicode="A" 
d="M451 1075l-82 -604h172l-86 604h-4zM662 1470l253 -1470h-327l-29 184h-209l-28 -184h-328l254 1470h414z" />
    <glyph glyph-name="B" unicode="B" horiz-adv-x="1024" 
d="M418 1204v-327h43q65 -1 97 37t32 125t-26 126t-87 39h-59zM418 627v-353h74q66 0 92 40t26 136t-25 137q-26 40 -98 40h-69zM86 0v1470h426q221 0 315 -90t95 -274q0 -256 -154 -326v-4q68 -6 131 -104t64 -256q0 -416 -402 -416h-475z" />
    <glyph glyph-name="C" unicode="C" horiz-adv-x="1024" 
d="M418 1069v-668q0 -123 90 -122q94 0 94 122v258h344q-2 -272 -26 -385q-33 -152 -148 -226t-276 -73q-256 0 -354 171q-97 171 -97 589t97 589t354 171q162 0 274 -72t150 -219q25 -104 26 -352h-344v217q0 123 -92 123t-92 -123z" />
    <glyph glyph-name="D" unicode="D" horiz-adv-x="1024" 
d="M430 1196v-913q112 0 140 57t28 266v266q0 208 -28 266t-140 58zM86 0v1470h348q156 0 245 -24t154 -105q65 -80 87 -222q22 -143 22 -375t-19 -363q-41 -281 -230 -347q-97 -34 -259 -34h-348z" />
    <glyph glyph-name="E" unicode="E" 
d="M852 0h-766v1470h745v-303h-401v-249h332v-316h-332v-287h422v-315z" />
    <glyph glyph-name="F" unicode="F" 
d="M430 0h-344v1470h774v-303h-430v-266h344v-315h-344v-586z" />
    <glyph glyph-name="G" unicode="G" horiz-adv-x="1024" 
d="M414 1069v-672q0 -123 90 -123t90 123v146h-86v274h430v-817h-176l-49 78q-104 -102 -252 -103q-250 0 -329 157t-79 589q-1 432 101 603t350 171q147 1 257 -65t152 -197q25 -76 25 -250h-344v86q0 123 -90 123t-90 -123z" />
    <glyph glyph-name="H" unicode="H" horiz-adv-x="1024" 
d="M938 1470v-1470h-344v561h-164v-561h-344v1470h344v-528h164v528h344z" />
    <glyph glyph-name="I" unicode="I" horiz-adv-x="569" 
d="M457 0h-344v1470h344v-1470z" />
    <glyph glyph-name="J" unicode="J" 
d="M20 627h304v-193q0 -84 17 -120t60 -36t61 36q17 36 17 120v1036h344v-1058q0 -436 -424 -437q-199 -1 -289 95t-90 321v236z" />
    <glyph glyph-name="K" unicode="K" horiz-adv-x="1024" 
d="M430 553v-553h-344v1470h344v-495h4l215 495h357l-334 -704l352 -766h-360l-230 553h-4z" />
    <glyph glyph-name="L" unicode="L" 
d="M872 0h-786v1470h344v-1155h442v-315z" />
    <glyph glyph-name="M" unicode="M" horiz-adv-x="1251" 
d="M371 0h-295v1470h405l144 -700h4l141 700h406v-1470h-295v877h-4l-156 -877h-191l-155 877h-4v-877z" />
    <glyph glyph-name="N" unicode="N" horiz-adv-x="1024" 
d="M381 0h-295v1470h330l223 -651h4v651h295v-1470h-320l-233 762h-4v-762z" />
    <glyph glyph-name="O" unicode="O" horiz-adv-x="1024" 
d="M422 1069v-668q0 -123 90 -122q90 0 90 122v668q0 123 -90 123t-90 -123zM61 735q0 328 23 432q68 328 428 328t428 -328q23 -104 23 -432t-23 -432q-68 -328 -428 -328t-428 328q-23 104 -23 432z" />
    <glyph glyph-name="P" unicode="P" 
d="M418 0h-332v1470h387q217 0 321 -100t103 -351q0 -251 -91 -348t-329 -98h-59v-573zM418 1204v-356q90 0 125 35t35 145t-32 143t-128 33z" />
    <glyph glyph-name="Q" unicode="Q" horiz-adv-x="1024" 
d="M422 1069v-668q0 -123 90 -122q90 0 90 122v668q0 123 -90 123t-90 -123zM61 735q0 328 23 432q68 328 428 328t428 -328q23 -104 23 -432t-23 -432q-51 -250 -274 -309q29 -49 87 -79t101 -30t84 4l14 -28l-284 -189q-188 63 -256 312q-270 39 -328 319q-23 104 -23 432
z" />
    <glyph glyph-name="R" unicode="R" horiz-adv-x="1024" 
d="M418 1204v-352h61q70 0 99 42t28 134q0 92 -28 134q-29 42 -99 42h-61zM770 723q160 -29 160 -443q0 -190 45 -280h-336q-41 172 -41 332t-24 212q-24 54 -107 54h-49v-598h-332v1470h426q226 0 324 -91t98 -322q0 -274 -164 -330v-4z" />
    <glyph glyph-name="S" unicode="S" horiz-adv-x="1024" 
d="M930 1016h-312q-2 115 -33 160q-32 45 -85 45t-80 -29t-27 -73q-1 -44 57 -99q58 -56 139 -114t162 -128t138 -170t57 -215q0 -418 -463 -418q-259 0 -351 161q-77 135 -79 353h320v-67q0 -76 37 -124t94 -48t90 31t33 86q1 55 -57 114t-139 121t-162 131
q-81 70 -138 168t-57 209q0 178 122 282t308 103q186 0 306 -116t120 -300v-63z" />
    <glyph glyph-name="T" unicode="T" 
d="M893 1167h-266v-1167h-344v1167h-267v303h877v-303z" />
    <glyph glyph-name="U" unicode="U" horiz-adv-x="1024" 
d="M594 1470h344v-1110q0 -184 -111 -284t-315 -100t-316 100q-110 100 -110 284v1110h344v-1069q0 -59 18 -87t64 -28q45 0 63 28t19 87v1069z" />
    <glyph glyph-name="V" unicode="V" 
d="M471 623l127 847h317l-268 -1470h-340l-313 1470h330l143 -847h4z" />
    <glyph glyph-name="W" unicode="W" horiz-adv-x="1478" 
d="M1454 1470l-258 -1470h-295l-149 786h-4l-146 -786h-295l-282 1470h319l125 -790h4l119 790h295l137 -790h4l107 790h319z" />
    <glyph glyph-name="X" unicode="X" 
d="M895 1470l-266 -698l282 -772h-331l-125 430h-4l-121 -430h-332l283 774l-267 696h332l105 -380h4l108 380h332z" />
    <glyph glyph-name="Y" unicode="Y" 
d="M627 0h-344v606l-283 864h330l123 -479h4l123 479h329l-282 -864v-606z" />
    <glyph glyph-name="Z" unicode="Z" 
d="M848 0h-787v299l410 868h-393v303h766v-278l-410 -877h414v-315z" />
    <glyph glyph-name="bracketleft" unicode="[" horiz-adv-x="569" 
d="M532 -193h-495v1663h495v-106h-249v-1450h249v-107z" />
    <glyph glyph-name="backslash" unicode="\" horiz-adv-x="569" 
d="M-139 1495h245l603 -1520h-246z" />
    <glyph glyph-name="bracketright" unicode="]" horiz-adv-x="569" 
d="M532 -193h-495v107h250v1450h-250v106h495v-1663z" />
    <glyph glyph-name="asciicircum" unicode="^" horiz-adv-x="1228" 
d="M389 729h-237l354 741h215l356 -741h-237l-226 504z" />
    <glyph glyph-name="underscore" unicode="_" horiz-adv-x="1024" 
d="M1024 -256h-1024v102h1024v-102z" />
    <glyph glyph-name="grave" unicode="`" horiz-adv-x="454" 
d="M229 1458l177 -303h-246l-299 303h368z" />
    <glyph glyph-name="a" unicode="a" 
d="M348 314q0 -72 66 -72q40 0 114 61v168q-80 -8 -130 -47q-50 -38 -50 -110zM352 729h-274q18 166 116 245t257 79q377 0 376 -426v-394q0 -129 13 -233h-285q-18 76 -16 121l-4 4q-41 -57 -67 -83q-65 -65 -189 -67q-98 0 -164 80q-66 81 -66 199q0 223 154 314
q138 84 325 96v65q0 82 -88 82q-40 -1 -64 -23t-24 -59z" />
    <glyph glyph-name="b" unicode="b" 
d="M537 512q-1 142 -19 198t-65 56t-65 -56t-19 -198q0 -142 18 -198q17 -56 65 -56t66 56t19 198zM74 0v1470h295v-561h4q27 41 47 67t61 52t88 25q137 0 202 -129t65 -410t-65 -410t-211 -129t-187 160h-4v-135h-295z" />
    <glyph glyph-name="c" unicode="c" 
d="M836 451q0 -475 -385 -476q-217 1 -303 135t-87 404q0 270 86 404q87 134 293 135q206 0 300 -129t96 -330h-291q-15 106 -31 145t-65 39t-69 -49t-20 -215t20 -215t75 -49q84 0 90 201h291z" />
    <glyph glyph-name="d" unicode="d" 
d="M373 512q0 -142 18 -198q17 -56 65 -56t66 56t18 198t-18 198t-65 56t-66 -56q-18 -57 -18 -198zM836 1470v-1470h-295v135h-4q-41 -160 -187 -160t-212 129q-65 129 -64 410q0 281 64 410q65 129 202 129q47 0 88 -26q41 -25 61 -51t48 -67h4v561h295z" />
    <glyph glyph-name="e" unicode="e" 
d="M836 422h-488q2 -109 26 -149t81 -40q80 0 94 103h282q0 -182 -106 -271q-105 -89 -247 -89q-265 -1 -352 162q-75 141 -76 378q-1 236 98 386t311 151q180 0 278 -132t99 -348v-151zM344 631h193q1 106 -19 143t-78 37t-78 -37q-18 -37 -18 -143z" />
    <glyph glyph-name="f" unicode="f" horiz-adv-x="569" 
d="M532 1495v-283h-45q-74 0 -73 -73v-111h118v-274h-118v-754h-299v754h-107v274h107v180q4 127 80 207t227 80h110z" />
    <glyph glyph-name="g" unicode="g" 
d="M475 702q1 129 -73 129t-74 -129q0 -59 19 -94t54 -35q74 0 74 129zM440 15q-186 0 -186 -73t186 -73t187 72q-1 74 -187 74zM147 27q-114 56 -114 185t160 183q-127 121 -127 288t94 268t264 102q82 0 155 -45t101 -119q72 153 197 155v-270q-88 0 -144 -33q4 -49 4 -63
q0 -326 -334 -326q-77 0 -99 -10t-21 -39q0 -59 156 -52t284 -42q66 -25 110 -95t44 -191q0 -120 -112 -206q-111 -86 -323 -86q-212 -1 -310 63t-99 172q0 108 114 161z" />
    <glyph glyph-name="h" unicode="h" 
d="M383 0h-299v1470h295v-589h4q41 96 94 133t138 38t147 -76t63 -228v-748h-295v657q0 92 -71 93q-35 0 -55 -27t-21 -76v-647z" />
    <glyph glyph-name="i" unicode="i" horiz-adv-x="454" 
d="M377 1188h-299v282h299v-282zM377 0h-299v1028h299v-1028z" />
    <glyph glyph-name="j" unicode="j" horiz-adv-x="454" 
d="M377 1188h-299v282h299v-282zM78 1028h299v-1032q0 -365 -402 -365v287q102 0 103 135v975z" />
    <glyph glyph-name="k" unicode="k" 
d="M377 0h-299v1470h299v-821l4 2l160 377h321l-241 -475l260 -553h-328l-172 446h-4v-446z" />
    <glyph glyph-name="l" unicode="l" horiz-adv-x="454" 
d="M377 0h-299v1470h299v-1470z" />
    <glyph glyph-name="m" unicode="m" horiz-adv-x="1366" 
d="M1280 0h-299v657q0 92 -72 93q-35 0 -55 -27t-20 -76v-647h-304v657q0 92 -71 93q-35 0 -55 -27t-21 -76v-647h-299v1028h285v-145h4q37 76 100 122t133 47t126 -45t81 -135h4q109 178 242 181q97 0 159 -77t62 -228v-748z" />
    <glyph glyph-name="n" unicode="n" 
d="M383 0h-299v1028h285v-145h4q37 76 100 122t145 47t144 -76t63 -228v-748h-295v657q0 92 -71 93q-35 0 -55 -27t-21 -76v-647z" />
    <glyph glyph-name="o" unicode="o" 
d="M549 514q1 166 -19 215t-75 49t-75 -49t-20 -215t20 -215t74 -49q56 0 76 49t19 215zM848 514q0 -168 -25 -256q-37 -135 -132 -209t-236 -74t-237 74q-95 74 -132 209q-25 88 -25 256t25 256q37 135 132 209q94 74 236 74t237 -74t132 -209q25 -88 25 -256z" />
    <glyph glyph-name="p" unicode="p" 
d="M537 516q-1 142 -19 198t-65 56t-65 -56t-19 -198q0 -142 18 -198q17 -56 65 -56t66 56t19 198zM74 -369v1397h295v-135h4q41 160 187 160t211 -129t65 -410t-65 -410t-202 -129q-47 0 -88 26q-41 25 -61 51t-47 67h-4v-488h-295z" />
    <glyph glyph-name="q" unicode="q" 
d="M373 516q0 -142 18 -198q17 -56 65 -56t66 56t18 198t-18 198t-65 56t-66 -56q-18 -57 -18 -198zM836 1028v-1397h-295v488h-4q-27 -41 -47 -67t-62 -52q-41 -26 -88 -25q-137 0 -202 129t-64 410q0 281 64 410q66 129 212 129t187 -160h4v135h295z" />
    <glyph glyph-name="r" unicode="r" horiz-adv-x="681" 
d="M377 0h-299v1028h299v-164h4q47 100 108 144t166 45v-357q-10 2 -39 12t-69 9q-170 0 -170 -158v-559z" />
    <glyph glyph-name="s" unicode="s" horiz-adv-x="796" 
d="M727 707h-254q-12 82 -74 81q-61 0 -61 -55q0 -33 42 -57t102 -46t120 -54t104 -98q42 -67 42 -161q0 -180 -102 -261t-260 -81t-248 108q-89 108 -89 261h262q0 -115 74 -115q33 1 57 19t23 52q0 34 -42 60t-102 50q-61 26 -121 60t-103 100q-42 67 -42 157
q1 152 97 238t242 86q146 1 240 -103t93 -241z" />
    <glyph glyph-name="t" unicode="t" horiz-adv-x="569" 
d="M119 754h-111v274h111v356h299v-356h114v-274h-114v-525q0 -74 59 -229h-313q-45 123 -45 205v549z" />
    <glyph glyph-name="u" unicode="u" 
d="M379 371q-1 -92 73 -92t74 102v647h299v-1028h-284v145h-4q-37 -75 -101 -121t-131 -49q-96 0 -159 77q-62 77 -62 229v747h295v-657z" />
    <glyph glyph-name="v" unicode="v" horiz-adv-x="796" 
d="M532 0h-264l-266 1028h299l98 -577h4l93 577h299z" />
    <glyph glyph-name="w" unicode="w" horiz-adv-x="1138" 
d="M1137 1028l-195 -1028h-270l-97 518h-4l-96 -518h-270l-201 1028h283l67 -553h4l84 553h256l82 -553h4l70 553h283z" />
    <glyph glyph-name="x" unicode="x" horiz-adv-x="796" 
d="M395 313l-92 -313h-299l225 532l-217 496h305l78 -278h4l80 278h305l-221 -496l230 -532h-299l-95 313h-4z" />
    <glyph glyph-name="y" unicode="y" horiz-adv-x="681" 
d="M127 -369h-113v287h78q51 0 82 28t31 76t-45 228l-193 778h295l94 -565h4l97 565h295l-236 -932q-89 -367 -220 -433q-62 -32 -169 -32z" />
    <glyph glyph-name="z" unicode="z" horiz-adv-x="681" 
d="M653 0h-639v172l285 598h-260v258h614v-168l-282 -594h282v-266z" />
    <glyph glyph-name="braceleft" unicode="{" horiz-adv-x="569" 
d="M0 594v106q76 0 76 109v457q0 106 48 155t161 49h288v-106h-167q-84 0 -84 -92v-453q-2 -96 -31 -131t-88 -39v-6q43 -2 65 -12q53 -24 54 -172v-453q0 -92 84 -92h167v-107h-288q-113 -1 -161 49t-48 156v457q0 125 -76 125z" />
    <glyph glyph-name="bar" unicode="|" horiz-adv-x="454" 
d="M104 1536h246v-2048h-246v2048z" />
    <glyph glyph-name="braceright" unicode="}" horiz-adv-x="569" 
d="M569 700v-106q-76 0 -75 -125v-457q0 -106 -48 -155t-161 -50h-289v107h168q84 0 84 92v453q0 147 54 172q22 10 65 12v6q-59 4 -88 39t-31 131v453q0 92 -84 92h-168v106h289q113 0 161 -49t48 -155v-457q-1 -109 75 -109z" />
    <glyph glyph-name="asciitilde" unicode="~" horiz-adv-x="1228" 
d="M390 471q-106 0 -173 -145l-74 194q92 176 254 176q72 0 228 -65q58 -29 82 -38t58 -23t69 -13q34 0 70 26t54 48t54 71l73 -194q-41 -55 -69 -86t-78 -60q-51 -28 -122 -28t-193 65q-127 72 -233 72z" />
    <glyph glyph-name="exclamdown" unicode="&#xa1;" horiz-adv-x="569" 
d="M131 1126h307v-385h-307v385zM438 -344h-307v373l117 573h74l116 -573v-373z" />
    <glyph glyph-name="cent" unicode="&#xa2;" 
d="M836 618h-291q-15 106 -31 146t-65 39q-49 0 -69 -49t-20 -215t20 -215t75 -50q84 0 90 201h291q0 -475 -385 -475q-66 0 -111 12l-90 -266h-166l115 334q-137 115 -138 459q0 270 86 404t304 134q53 0 86 -8l84 242h165l-106 -305q156 -117 156 -388z" />
    <glyph glyph-name="sterling" unicode="&#xa3;" 
d="M33 -25v320q160 33 160 291q0 29 -5 65h-155v201h123q-51 162 -52 274q0 180 108 274t281 95q173 0 275 -96t102 -283v-55h-262v37q0 53 -30 94q-31 41 -77 41t-74 -26q-28 -25 -28 -59t42 -144t38 -152h156v-201h-139q0 -213 -93 -364q86 -57 134 -58q102 0 102 177h238
v-46q0 -217 -74 -301t-211 -84q-86 0 -144 31t-122 100q-111 -131 -293 -131z" />
    <glyph glyph-name="currency" unicode="&#xa4;" 
d="M47 735q0 125 72 230l-99 94l117 112l94 -94q95 66 223 66t224 -66l94 94l117 -112l-98 -94q72 -103 72 -229t-72 -230l98 -92l-117 -115l-94 94q-102 -65 -223 -65t-224 65l-94 -94l-117 115l99 92q-72 104 -72 229zM666 735q0 94 -60 161t-151 67t-151 -67t-60 -161
t59 -161q59 -66 151 -66t152 66t60 161z" />
    <glyph glyph-name="yen" unicode="&#xa5;" 
d="M860 651v-200h-246v-451h-319v451h-246v200h232l-35 111h-197v201h135l-157 507h323l103 -479h4l102 479h324l-158 -507h135v-201h-196l-35 -111h231z" />
    <glyph glyph-name="brokenbar" unicode="&#xa6;" horiz-adv-x="454" 
d="M104 358h246v-716h-246v716zM104 1382h246v-716h-246v716z" />
    <glyph glyph-name="section" unicode="&#xa7;" 
d="M465 1307q-41 0 -71 -29t-30 -69t52 -102q51 -62 124 -129q74 -66 146 -138t123 -156t51 -167t-57 -144t-156 -86q104 -119 105 -230q0 -143 -88 -209t-222 -65q-90 0 -176 51t-143 127l149 111q25 -53 72 -89t97 -36q50 -1 80 25t30 75q0 94 -176 258q-74 70 -149 144
q-177 175 -177 317q0 174 211 238q-96 121 -96 226t87 173q87 67 189 67t187 -44q86 -44 145 -123l-149 -105q-78 109 -158 109zM242 774q0 -32 22 -64t113 -128q90 -96 129 -126t80 -30q42 0 64 23t22 57t-35 81q-35 46 -119 133t-120 115t-66 27q-90 0 -90 -88z" />
    <glyph glyph-name="dieresis" unicode="&#xa8;" horiz-adv-x="454" 
d="M-119 1430h299v-259h-299v259zM573 1171h-299v259h299v-259z" />
    <glyph glyph-name="copyright" unicode="&#xa9;" horiz-adv-x="1638" 
d="M850 305q-188 0 -304 124q-116 125 -116 315t113 313t303 123q141 0 238 -81t122 -231h-186q-23 123 -174 123q-90 1 -140 -65t-50 -179t54 -183t140 -70q162 0 170 131h194q-24 -152 -124 -236t-240 -84zM1356 735q0 250 -157 411t-382 161t-380 -160t-155 -412
q0 -251 156 -411q154 -160 379 -160t382 160t157 411zM818 -25q-208 0 -384 87q-176 88 -289 264t-112 409q0 233 112 410q113 176 289 263t384 87t385 -87t290 -263q113 -175 113 -409t-113 -410t-290 -264t-385 -87z" />
    <glyph glyph-name="ordfeminine" unicode="&#xaa;" horiz-adv-x="544" 
d="M207 1052q0 -42 41 -42q27 0 76 37v100q-51 -4 -84 -29q-33 -24 -33 -66zM209 1303h-178q23 193 241 192q246 0 246 -254v-237q0 -84 8 -140h-186q-12 49 -10 72l-2 4q-39 -50 -72 -70t-96 -20t-106 48q-42 48 -42 130q0 115 90 171t222 63v41q0 49 -58 49q-27 0 -42 -14
t-15 -35z" />
    <glyph glyph-name="guillemotleft" unicode="&#xab;" 
d="M479 813l-190 -299l190 -299h-213l-200 299l200 299h213zM856 813l-190 -299l190 -299h-213l-201 299l201 299h213z" />
    <glyph glyph-name="logicalnot" unicode="&#xac;" horiz-adv-x="1228" 
d="M881 166v452h-779v246h1024v-698h-245z" />
    <glyph glyph-name="registered" unicode="&#xae;" horiz-adv-x="1638" 
d="M696 815h158q57 0 85 22t28 81q0 84 -154 83h-117v-186zM696 668v-344h-188v825h309q172 0 259 -56t87 -196q0 -207 -231 -217l211 -356h-189l-188 344h-70zM1356 735q0 250 -157 411t-382 161t-380 -160t-155 -412q0 -251 156 -411q154 -160 379 -160t382 160t157 411z
M818 -25q-208 0 -384 87q-176 88 -289 264t-113 408t113 410q113 177 289 264t384 87t385 -87t290 -264q113 -178 113 -410t-113 -408t-290 -264t-385 -87z" />
    <glyph glyph-name="macron" unicode="&#xaf;" horiz-adv-x="454" 
d="M-119 1212v172h692v-172h-692z" />
    <glyph glyph-name="macron" unicode="&#x2c9;" horiz-adv-x="454" 
d="M-119 1212v172h692v-172h-692z" />
    <glyph glyph-name="degree" unicode="&#xb0;" horiz-adv-x="819" 
d="M410 909q-123 0 -208 85t-85 208t85 208t208 85q124 0 208 -85t84 -208t-84 -208t-208 -85zM410 1372q-70 0 -114 -50t-44 -120t44 -120t114 -50t114 50t43 120q1 70 -43 120t-114 50z" />
    <glyph glyph-name="plusminus" unicode="&#xb1;" horiz-adv-x="1228" 
d="M102 0v246h1024v-246h-1024zM492 791v237h245v-237h389v-246h-389v-240h-245v240h-390v246h390z" />
    <glyph glyph-name="twosuperior" unicode="&#xb2;" horiz-adv-x="645" 
d="M573 782v-184h-510v190q108 137 197 240t100 142q10 39 11 71q1 70 -57 70t-58 -74v-53h-193v59q-1 113 61 183t191 69q129 0 199 -70t70 -192q0 -69 -33 -137t-67 -107t-103 -111l-92 -96h284z" />
    <glyph glyph-name="threesuperior" unicode="&#xb3;" horiz-adv-x="645" 
d="M242 991v148h45q51 -1 68 21t18 71q1 100 -55 100t-56 -86v-37h-192q0 145 58 216t190 71q260 0 260 -248q0 -145 -95 -178q59 -31 85 -72t26 -133q0 -139 -65 -211q-65 -71 -219 -71t-205 82q-52 82 -52 245h205v-82q0 -70 55 -69q63 0 64 110q1 70 -19 97t-75 26h-41z
" />
    <glyph glyph-name="acute" unicode="&#xb4;" horiz-adv-x="454" 
d="M49 1155l176 303h369l-299 -303h-246z" />
    <glyph glyph-name="mu" unicode="&#xb5;" 
d="M379 371q-1 -92 73 -92t74 102v647h299v-1028h-284v145h-4q-49 -106 -156 -153v-361h-297v1397h295v-657z" />
    <glyph glyph-name="mu" unicode="&#x3bc;" 
d="M379 371q-1 -92 73 -92t74 102v647h299v-1028h-284v145h-4q-49 -106 -156 -153v-361h-297v1397h295v-657z" />
    <glyph glyph-name="paragraph" unicode="&#xb6;" horiz-adv-x="1269" 
d="M496 -217v975q-211 0 -311 96q-99 96 -99 256q0 360 457 360h579v-1687h-245v1503h-136v-1503h-245z" />
    <glyph glyph-name="periodcentered" unicode="&#xb7;" horiz-adv-x="454" 
d="M70 514q0 66 46 112t112 46t111 -46q46 -46 46 -112t-46 -112t-112 -46q-65 0 -111 46t-46 112z" />
    <glyph glyph-name="periodcentered" unicode="&#x2219;" horiz-adv-x="454" 
d="M70 514q0 66 46 112t112 46t111 -46q46 -46 46 -112t-46 -112t-112 -46q-65 0 -111 46t-46 112z" />
    <glyph glyph-name="cedilla" unicode="&#xb8;" horiz-adv-x="454" 
d="M262 -295q0 82 -94 82q-18 0 -76 -14l-45 39l117 188h112l-81 -127q35 10 86 10t112 -40t62 -107q0 -100 -72 -152q-73 -52 -193 -51q-120 0 -235 51l37 92q111 -37 168 -36q102 0 102 65z" />
    <glyph glyph-name="onesuperior" unicode="&#xb9;" horiz-adv-x="645" 
d="M455 1495v-897h-205v668h-135v110q139 0 186 119h154z" />
    <glyph glyph-name="ordmasculine" unicode="&#xba;" horiz-adv-x="544" 
d="M334 1173q0 99 -12 129t-48 30t-50 -30q-13 -30 -13 -128t13 -130t49 -30q36 0 49 29q12 31 12 130zM272 1495q90 0 152 -44q62 -45 82 -111t20 -168t-14 -152q-52 -170 -240 -170t-239 170q-15 50 -15 152t20 168t82 111q62 44 152 44z" />
    <glyph glyph-name="guillemotright" unicode="&#xbb;" 
d="M621 514l-191 299h213l201 -299l-201 -299h-213zM244 514l-191 299h213l201 -299l-201 -299h-213z" />
    <glyph glyph-name="onequarter" unicode="&#xbc;" horiz-adv-x="1363" 
d="M455 1495v-897h-205v668h-135v110q139 0 186 119h154zM1221 1495l-877 -1520h-149l876 1520h150zM1044 348v287h-4l-135 -287h139zM741 172v211l252 514h248v-549h62v-176h-62v-172h-201v172h-299z" />
    <glyph glyph-name="onehalf" unicode="&#xbd;" horiz-adv-x="1363" 
d="M1292 184v-184h-510v190q108 137 197 240t100 142q10 39 11 71q0 70 -58 70t-57 -74v-27q2 -27 0 -26h-193v59q0 113 62 183t190 69q129 0 199 -70t70 -192q0 -69 -33 -137t-67 -107t-103 -111l-92 -96h284zM455 1495v-897h-205v668h-135v110q139 0 186 119h154z
M1176 1495l-877 -1520h-149l876 1520h150z" />
    <glyph glyph-name="threequarters" unicode="&#xbe;" horiz-adv-x="1363" 
d="M242 991v148h45q51 -1 68 21t18 71q1 100 -55 100t-56 -86v-37h-192q0 145 58 216t190 71q260 0 260 -248q0 -145 -95 -178q59 -31 85 -72t26 -133q0 -139 -65 -211q-65 -71 -219 -71t-205 82q-52 82 -52 245h205v-82q0 -70 55 -69q63 0 64 110q1 70 -19 97t-75 26h-41z
M1249 1495l-876 -1520h-150l877 1520h149zM1044 348v287h-4l-135 -287h139zM741 172v211l252 514h248v-549h62v-176h-62v-172h-201v172h-299z" />
    <glyph glyph-name="questiondown" unicode="&#xbf;" horiz-adv-x="796" 
d="M526 1126v-385h-307v385h307zM494 115h278v-103q0 -190 -110 -285t-270 -95q-158 0 -258 108q-99 109 -99 295q0 27 3 53t7 67q4 40 30 93q25 53 29 63q8 20 119 205v86h303v-86q-43 -92 -100 -191q-56 -99 -76 -149t-20 -117q0 -129 82 -129t82 117v68z" />
    <glyph glyph-name="Agrave" unicode="&#xc0;" 
d="M457 1870l176 -303h-246l-299 303h369zM451 1075l-82 -604h172l-86 604h-4zM662 1470l253 -1470h-327l-29 184h-209l-28 -184h-328l254 1470h414z" />
    <glyph glyph-name="Aacute" unicode="&#xc1;" 
d="M276 1567l177 303h368l-299 -303h-246zM451 1075l-82 -604h172l-86 604h-4zM662 1470l253 -1470h-327l-29 184h-209l-28 -184h-328l254 1470h414z" />
    <glyph glyph-name="Acircumflex" unicode="&#xc2;" 
d="M92 1567l207 303h313l205 -303h-262l-100 162l-101 -162h-262zM451 1075l-82 -604h172l-86 604h-4zM662 1470l253 -1470h-327l-29 184h-209l-28 -184h-328l254 1470h414z" />
    <glyph glyph-name="Atilde" unicode="&#xc3;" 
d="M571 1585q-53 0 -137 39t-119 35q-70 -10 -73 -88h-146q10 100 72 187t156 87q66 0 152 -42t128 -42q58 0 64 84h145q-9 -117 -69 -189t-173 -71zM451 1075l-82 -604h172l-86 604h-4zM662 1470l253 -1470h-327l-29 184h-209l-28 -184h-328l254 1470h414z" />
    <glyph glyph-name="Adieresis" unicode="&#xc4;" 
d="M109 1841h299v-258h-299v258zM801 1583h-299v258h299v-258zM451 1075l-82 -604h172l-86 604h-4zM662 1470l253 -1470h-327l-29 184h-209l-28 -184h-328l254 1470h414z" />
    <glyph glyph-name="Aring" unicode="&#xc5;" 
d="M455 2001q89 0 155 -66q66 -67 66 -157t-66 -154t-156 -65q-91 1 -156 65t-65 156t66 156t156 65zM455 1882q-41 0 -72 -31t-31 -73t30 -71q30 -30 72 -30t72 30t31 72q-1 43 -31 73t-71 30zM451 1075l-82 -604h172l-86 604h-4zM662 1470l253 -1470h-327l-29 184h-209
l-28 -184h-328l254 1470h414z" />
    <glyph glyph-name="AE" unicode="&#xc6;" horiz-adv-x="1478" 
d="M1401 1470v-303h-402v-249h332v-316h-332v-287h422v-315h-747v236h-303l-66 -236h-321l419 1470h998zM670 522v674h-35l-191 -674h226z" />
    <glyph glyph-name="Ccedilla" unicode="&#xc7;" horiz-adv-x="1024" 
d="M418 1069v-668q0 -123 90 -122q94 0 94 122v258h344q-2 -272 -28 -398t-127 -200q-100 -74 -244 -81l-68 -107q35 10 66 10q74 0 134 -40t60 -107q0 -100 -71 -152q-72 -51 -192 -51t-236 51l36 92q111 -37 168 -36q102 0 103 65q0 82 -94 82q-18 0 -76 -14l-45 39
l104 170q-221 16 -306 188t-85 578t97 576q97 171 354 171q162 0 274 -72t150 -219q25 -104 26 -352h-344v217q0 123 -92 123t-92 -123z" />
    <glyph glyph-name="Egrave" unicode="&#xc8;" 
d="M457 1870l176 -303h-246l-299 303h369zM852 0h-766v1470h745v-303h-401v-249h332v-316h-332v-287h422v-315z" />
    <glyph glyph-name="Eacute" unicode="&#xc9;" 
d="M276 1567l177 303h368l-299 -303h-246zM852 0h-766v1470h745v-303h-401v-249h332v-316h-332v-287h422v-315z" />
    <glyph glyph-name="Ecircumflex" unicode="&#xca;" 
d="M92 1567l207 303h313l205 -303h-262l-100 162l-101 -162h-262zM852 0h-766v1470h745v-303h-401v-249h332v-316h-332v-287h422v-315z" />
    <glyph glyph-name="Edieresis" unicode="&#xcb;" 
d="M109 1841h299v-258h-299v258zM801 1583h-299v258h299v-258zM852 0h-766v1470h745v-303h-401v-249h332v-316h-332v-287h422v-315z" />
    <glyph glyph-name="Igrave" unicode="&#xcc;" horiz-adv-x="569" 
d="M287 1870l176 -303h-246l-299 303h369zM457 0h-344v1470h344v-1470z" />
    <glyph glyph-name="Iacute" unicode="&#xcd;" horiz-adv-x="569" 
d="M106 1567l177 303h368l-299 -303h-246zM457 0h-344v1470h344v-1470z" />
    <glyph glyph-name="Icircumflex" unicode="&#xce;" horiz-adv-x="569" 
d="M-78 1567l207 303h313l205 -303h-262l-100 162l-101 -162h-262zM457 0h-344v1470h344v-1470z" />
    <glyph glyph-name="Idieresis" unicode="&#xcf;" horiz-adv-x="569" 
d="M-61 1841h299v-258h-299v258zM631 1583h-299v258h299v-258zM457 0h-344v1470h344v-1470z" />
    <glyph glyph-name="Eth" unicode="&#xd0;" horiz-adv-x="1024" 
d="M537 942v-381h-107v-278q112 0 140 57t28 266v266q0 208 -28 266t-140 58v-254h107zM4 561v381h82v528h307q115 0 191 -10q173 -23 251 -124q77 -101 97 -324q10 -112 10 -306t-19 -325q-41 -281 -230 -347q-97 -34 -259 -34h-348v561h-82z" />
    <glyph glyph-name="Ntilde" unicode="&#xd1;" horiz-adv-x="1024" 
d="M629 1585q-53 0 -137 39t-119 35q-70 -10 -74 -88h-145q10 100 71 187t156 87q65 0 151 -42t130 -42q57 0 63 84h145q-8 -117 -68 -189t-173 -71zM381 0h-295v1470h330l223 -651h4v651h295v-1470h-320l-233 762h-4v-762z" />
    <glyph glyph-name="Ograve" unicode="&#xd2;" horiz-adv-x="1024" 
d="M514 1870l176 -303h-246l-299 303h369zM422 1069v-668q0 -123 90 -122q90 0 90 122v668q0 123 -90 123t-90 -123zM61 735q0 328 23 432q68 328 428 328t428 -328q23 -104 23 -432t-23 -432q-68 -328 -428 -328t-428 328q-23 104 -23 432z" />
    <glyph glyph-name="Oacute" unicode="&#xd3;" horiz-adv-x="1024" 
d="M334 1567l176 303h369l-299 -303h-246zM422 1069v-668q0 -123 90 -122q90 0 90 122v668q0 123 -90 123t-90 -123zM61 735q0 328 23 432q68 328 428 328t428 -328q23 -104 23 -432t-23 -432q-68 -328 -428 -328t-428 328q-23 104 -23 432z" />
    <glyph glyph-name="Ocircumflex" unicode="&#xd4;" horiz-adv-x="1024" 
d="M150 1567l206 303h314l204 -303h-262l-100 162l-100 -162h-262zM422 1069v-668q0 -123 90 -122q90 0 90 122v668q0 123 -90 123t-90 -123zM61 735q0 328 23 432q68 328 428 328t428 -328q23 -104 23 -432t-23 -432q-68 -328 -428 -328t-428 328q-23 104 -23 432z" />
    <glyph glyph-name="Otilde" unicode="&#xd5;" horiz-adv-x="1024" 
d="M629 1585q-53 0 -137 39t-119 35q-70 -10 -74 -88h-145q10 100 71 187t156 87q65 0 151 -42t130 -42q57 0 63 84h145q-8 -117 -68 -189t-173 -71zM422 1069v-668q0 -123 90 -122q90 0 90 122v668q0 123 -90 123t-90 -123zM61 735q0 328 23 432q68 328 428 328t428 -328
q23 -104 23 -432t-23 -432q-68 -328 -428 -328t-428 328q-23 104 -23 432z" />
    <glyph glyph-name="Odieresis" unicode="&#xd6;" horiz-adv-x="1024" 
d="M166 1841h299v-258h-299v258zM858 1583h-299v258h299v-258zM422 1069v-668q0 -123 90 -122q90 0 90 122v668q0 123 -90 123t-90 -123zM61 735q0 328 23 432q68 328 428 328t428 -328q23 -104 23 -432t-23 -432q-68 -328 -428 -328t-428 328q-23 104 -23 432z" />
    <glyph glyph-name="multiply" unicode="&#xd7;" horiz-adv-x="1228" 
d="M1126 856l-338 -342l338 -342l-172 -172l-340 340l-340 -340l-172 172l338 342l-338 342l172 172l340 -340l340 340z" />
    <glyph glyph-name="Oslash" unicode="&#xd8;" horiz-adv-x="1024" 
d="M963 735q0 -328 -23 -432q-68 -328 -428 -328q-94 0 -162 21l-92 -266h-172l121 344q-92 80 -123 229q-23 104 -23 432t23 432q68 328 428 328q102 0 182 -27l76 215h168l-104 -301q80 -80 106 -215q23 -104 23 -432zM602 401v318h-4l-141 -418q16 -23 55 -22
q90 0 90 122zM512 1192q-90 0 -90 -123v-381h4l158 463q-20 41 -72 41z" />
    <glyph glyph-name="Ugrave" unicode="&#xd9;" horiz-adv-x="1024" 
d="M514 1870l176 -303h-246l-299 303h369zM594 1470h344v-1110q0 -184 -111 -284t-315 -100t-316 100q-110 100 -110 284v1110h344v-1069q0 -59 18 -87t64 -28q45 0 63 28t19 87v1069z" />
    <glyph glyph-name="Uacute" unicode="&#xda;" horiz-adv-x="1024" 
d="M334 1567l176 303h369l-299 -303h-246zM594 1470h344v-1110q0 -184 -111 -284t-315 -100t-316 100q-110 100 -110 284v1110h344v-1069q0 -59 18 -87t64 -28q45 0 63 28t19 87v1069z" />
    <glyph glyph-name="Ucircumflex" unicode="&#xdb;" horiz-adv-x="1024" 
d="M150 1567l206 303h314l204 -303h-262l-100 162l-100 -162h-262zM594 1470h344v-1110q0 -184 -111 -284t-315 -100t-316 100q-110 100 -110 284v1110h344v-1069q0 -59 18 -87t64 -28q45 0 63 28t19 87v1069z" />
    <glyph glyph-name="Udieresis" unicode="&#xdc;" horiz-adv-x="1024" 
d="M166 1841h299v-258h-299v258zM858 1583h-299v258h299v-258zM594 1470h344v-1110q0 -184 -111 -284t-315 -100t-316 100q-110 100 -110 284v1110h344v-1069q0 -59 18 -87t64 -28q45 0 63 28t19 87v1069z" />
    <glyph glyph-name="Yacute" unicode="&#xdd;" 
d="M276 1567l177 303h368l-299 -303h-246zM627 0h-344v606l-283 864h330l123 -479h4l123 479h329l-282 -864v-606z" />
    <glyph glyph-name="Thorn" unicode="&#xde;" 
d="M418 0h-332v1470h332v-270h55q217 0 321 -100t103 -351q0 -251 -91 -349t-329 -97h-59v-303zM418 934v-356q90 0 125 36t35 144q0 110 -32 143t-128 33z" />
    <glyph glyph-name="germandbls" unicode="&#xdf;" 
d="M377 0h-299v1147q0 348 344 348q174 0 266 -98t92 -271q0 -231 -149 -303q113 -37 163 -129t50 -286t-72 -307q-72 -114 -211 -113q-86 0 -125 24l33 217q53 6 65 38q11 32 11 174q-1 143 -21 193t-80 50v221q37 0 54 35q16 35 16 123t-16 123t-54 35q-68 0 -67 -88
v-1133z" />
    <glyph glyph-name="agrave" unicode="&#xe0;" 
d="M457 1458l176 -303h-246l-299 303h369zM348 314q0 -72 66 -72q40 0 114 61v168q-80 -8 -130 -47q-50 -38 -50 -110zM352 729h-274q18 166 116 245t257 79q377 0 376 -426v-394q0 -129 13 -233h-285q-18 76 -16 121l-4 4q-41 -57 -67 -83q-65 -65 -189 -67q-98 0 -164 80
q-66 81 -66 199q0 223 154 314q138 84 325 96v65q0 82 -88 82q-40 -1 -64 -23t-24 -59z" />
    <glyph glyph-name="aacute" unicode="&#xe1;" 
d="M276 1155l177 303h368l-299 -303h-246zM348 314q0 -72 66 -72q40 0 114 61v168q-80 -8 -130 -47q-50 -38 -50 -110zM352 729h-274q18 166 116 245t257 79q377 0 376 -426v-394q0 -129 13 -233h-285q-18 76 -16 121l-4 4q-41 -57 -67 -83q-65 -65 -189 -67q-98 0 -164 80
q-66 81 -66 199q0 223 154 314q138 84 325 96v65q0 82 -88 82q-40 -1 -64 -23t-24 -59z" />
    <glyph glyph-name="acircumflex" unicode="&#xe2;" 
d="M92 1155l207 303h313l205 -303h-262l-100 162l-101 -162h-262zM348 314q0 -72 66 -72q40 0 114 61v168q-80 -8 -130 -47q-50 -38 -50 -110zM352 729h-274q18 166 116 245t257 79q377 0 376 -426v-394q0 -129 13 -233h-285q-18 76 -16 121l-4 4q-41 -57 -67 -83
q-65 -65 -189 -67q-98 0 -164 80q-66 81 -66 199q0 223 154 314q138 84 325 96v65q0 82 -88 82q-40 -1 -64 -23t-24 -59z" />
    <glyph glyph-name="atilde" unicode="&#xe3;" 
d="M324 1434q66 0 152 -42t128 -42q58 0 64 84h145q-9 -117 -69 -189t-173 -71q-53 0 -137 38t-119 35q-70 -10 -73 -88h-146q10 99 72 187t156 88zM348 314q0 -72 66 -72q40 0 114 61v168q-80 -8 -130 -47q-50 -38 -50 -110zM352 729h-274q18 166 116 245t257 79
q377 0 376 -426v-394q0 -129 13 -233h-285q-18 76 -16 121l-4 4q-41 -57 -67 -83q-65 -65 -189 -67q-98 0 -164 80q-66 81 -66 199q0 223 154 314q138 84 325 96v65q0 82 -88 82q-40 -1 -64 -23t-24 -59z" />
    <glyph glyph-name="adieresis" unicode="&#xe4;" 
d="M109 1430h299v-259h-299v259zM801 1171h-299v259h299v-259zM348 314q0 -72 66 -72q40 0 114 61v168q-80 -8 -130 -47q-50 -38 -50 -110zM352 729h-274q18 166 116 245t257 79q377 0 376 -426v-394q0 -129 13 -233h-285q-18 76 -16 121l-4 4q-41 -57 -67 -83
q-65 -65 -189 -67q-98 0 -164 80q-66 81 -66 199q0 223 154 314q138 84 325 96v65q0 82 -88 82q-40 -1 -64 -23t-24 -59z" />
    <glyph glyph-name="aring" unicode="&#xe5;" 
d="M676 1367q0 -91 -66 -155t-156 -65q-91 1 -156 65t-65 156t66 157t156 65q89 0 155 -66t66 -157zM455 1470q-41 0 -72 -30t-31 -73q0 -42 30 -72q30 -29 72 -29t72 30t31 71q-1 43 -31 73t-71 30zM348 314q0 -72 66 -72q40 0 114 61v168q-80 -8 -130 -47
q-50 -38 -50 -110zM352 729h-274q18 166 116 245t257 79q377 0 376 -426v-394q0 -129 13 -233h-285q-18 76 -16 121l-4 4q-41 -57 -67 -83q-65 -65 -189 -67q-98 0 -164 80q-66 81 -66 199q0 223 154 314q138 84 325 96v65q0 82 -88 82q-40 -1 -64 -23t-24 -59z" />
    <glyph glyph-name="ae" unicode="&#xe6;" horiz-adv-x="1402" 
d="M348 314q0 -72 66 -72q40 0 114 61v168q-80 -8 -130 -47q-50 -38 -50 -110zM78 729q35 324 379 324q164 0 248 -74q95 74 263 74t266 -132t97 -348v-151h-487q2 -109 26 -149t80 -40q80 0 94 103h283q0 -182 -106 -271t-267 -90q-104 0 -175 29t-132 102
q-125 -131 -368 -131q-98 0 -164 80q-66 81 -66 199q0 223 154 314q138 84 325 96v65q0 82 -88 82q-40 -1 -64 -23t-24 -59h-274zM840 631h192q0 106 -19 143t-75 37t-76 -39q-22 -39 -22 -141z" />
    <glyph glyph-name="ccedilla" unicode="&#xe7;" 
d="M836 451q0 -449 -344 -471l-70 -107q35 10 65 10q75 0 135 -40t60 -107q0 -100 -72 -152t-192 -51q-120 0 -236 51l37 92q111 -37 168 -36q102 0 102 65q0 82 -94 82q-18 0 -76 -14l-45 39l107 170q-176 20 -248 152t-72 391t86 393q87 134 293 135q206 0 300 -129
t96 -330h-291q-15 106 -31 145t-65 39t-69 -49t-20 -215t20 -215t75 -49q84 0 90 201h291z" />
    <glyph glyph-name="egrave" unicode="&#xe8;" 
d="M457 1458l176 -303h-246l-299 303h369zM836 422h-488q2 -109 26 -149t81 -40q80 0 94 103h282q0 -182 -106 -271q-105 -89 -247 -89q-265 -1 -352 162q-75 141 -76 378q-1 236 98 386t311 151q180 0 278 -132t99 -348v-151zM344 631h193q1 106 -19 143t-78 37t-78 -37
q-18 -37 -18 -143z" />
    <glyph glyph-name="eacute" unicode="&#xe9;" 
d="M276 1155l177 303h368l-299 -303h-246zM836 422h-488q2 -109 26 -149t81 -40q80 0 94 103h282q0 -182 -106 -271q-105 -89 -247 -89q-265 -1 -352 162q-75 141 -76 378q-1 236 98 386t311 151q180 0 278 -132t99 -348v-151zM344 631h193q1 106 -19 143t-78 37t-78 -37
q-18 -37 -18 -143z" />
    <glyph glyph-name="ecircumflex" unicode="&#xea;" 
d="M92 1155l207 303h313l205 -303h-262l-100 162l-101 -162h-262zM836 422h-488q2 -109 26 -149t81 -40q80 0 94 103h282q0 -182 -106 -271q-105 -89 -247 -89q-265 -1 -352 162q-75 141 -76 378q-1 236 98 386t311 151q180 0 278 -132t99 -348v-151zM344 631h193
q1 106 -19 143t-78 37t-78 -37q-18 -37 -18 -143z" />
    <glyph glyph-name="edieresis" unicode="&#xeb;" 
d="M109 1430h299v-259h-299v259zM801 1171h-299v259h299v-259zM836 422h-488q2 -109 26 -149t81 -40q80 0 94 103h282q0 -182 -106 -271q-105 -89 -247 -89q-265 -1 -352 162q-75 141 -76 378q-1 236 98 386t311 151q180 0 278 -132t99 -348v-151zM344 631h193
q1 106 -19 143t-78 37t-78 -37q-18 -37 -18 -143z" />
    <glyph glyph-name="igrave" unicode="&#xec;" horiz-adv-x="454" 
d="M229 1458l177 -303h-246l-299 303h368zM377 0h-299v1028h299v-1028z" />
    <glyph glyph-name="iacute" unicode="&#xed;" horiz-adv-x="454" 
d="M49 1155l176 303h369l-299 -303h-246zM377 0h-299v1028h299v-1028z" />
    <glyph glyph-name="icircumflex" unicode="&#xee;" horiz-adv-x="454" 
d="M-135 1155l207 303h313l205 -303h-262l-101 162l-100 -162h-262zM377 0h-299v1028h299v-1028z" />
    <glyph glyph-name="idieresis" unicode="&#xef;" horiz-adv-x="454" 
d="M-119 1430h299v-259h-299v259zM573 1171h-299v259h299v-259zM377 0h-299v1028h299v-1028z" />
    <glyph glyph-name="eth" unicode="&#xf0;" 
d="M61 458q0 144 27 236t100 156q98 92 267 92q29 0 43 -4q-20 94 -66 174l-158 -100l-90 135l158 100q-57 72 -104 109l151 114q55 -29 127 -112l170 108l94 -131l-162 -104q229 -326 230 -686q0 -205 -27 -308t-100 -171q-100 -90 -266 -90t-267 90q-74 66 -100 158
q-26 90 -27 234zM455 721q-55 1 -75 -47t-20 -191t20 -188t74 -45q56 0 75 45t19 188t-18 191q-20 48 -75 47z" />
    <glyph glyph-name="ntilde" unicode="&#xf1;" 
d="M324 1434q66 0 152 -42t128 -42q58 0 64 84h145q-9 -117 -69 -189t-173 -71q-53 0 -137 38t-119 35q-70 -10 -73 -88h-146q10 99 72 187t156 88zM383 0h-299v1028h285v-145h4q37 76 100 122t145 47t144 -76t63 -228v-748h-295v657q0 92 -71 93q-35 0 -55 -27t-21 -76
v-647z" />
    <glyph glyph-name="ograve" unicode="&#xf2;" 
d="M457 1458l176 -303h-246l-299 303h369zM549 514q1 166 -19 215t-75 49t-75 -49t-20 -215t20 -215t74 -49q56 0 76 49t19 215zM848 514q0 -168 -25 -256q-37 -135 -132 -209t-236 -74t-237 74q-95 74 -132 209q-25 88 -25 256t25 256q37 135 132 209q94 74 236 74t237 -74
t132 -209q25 -88 25 -256z" />
    <glyph glyph-name="oacute" unicode="&#xf3;" 
d="M276 1155l177 303h368l-299 -303h-246zM549 514q1 166 -19 215t-75 49t-75 -49t-20 -215t20 -215t74 -49q56 0 76 49t19 215zM848 514q0 -168 -25 -256q-37 -135 -132 -209t-236 -74t-237 74q-95 74 -132 209q-25 88 -25 256t25 256q37 135 132 209q94 74 236 74t237 -74
t132 -209q25 -88 25 -256z" />
    <glyph glyph-name="ocircumflex" unicode="&#xf4;" 
d="M92 1155l207 303h313l205 -303h-262l-100 162l-101 -162h-262zM549 514q1 166 -19 215t-75 49t-75 -49t-20 -215t20 -215t74 -49q56 0 76 49t19 215zM848 514q0 -168 -25 -256q-37 -135 -132 -209t-236 -74t-237 74q-95 74 -132 209q-25 88 -25 256t25 256
q37 135 132 209q94 74 236 74t237 -74t132 -209q25 -88 25 -256z" />
    <glyph glyph-name="otilde" unicode="&#xf5;" 
d="M324 1434q66 0 152 -42t128 -42q58 0 64 84h145q-9 -117 -69 -189t-173 -71q-53 0 -137 38t-119 35q-70 -10 -73 -88h-146q10 99 72 187t156 88zM549 514q1 166 -19 215t-75 49t-75 -49t-20 -215t20 -215t74 -49q56 0 76 49t19 215zM848 514q0 -168 -25 -256
q-37 -135 -132 -209t-236 -74t-237 74q-95 74 -132 209q-25 88 -25 256t25 256q37 135 132 209q94 74 236 74t237 -74t132 -209q25 -88 25 -256z" />
    <glyph glyph-name="odieresis" unicode="&#xf6;" 
d="M109 1430h299v-259h-299v259zM801 1171h-299v259h299v-259zM549 514q1 166 -19 215t-75 49t-75 -49t-20 -215t20 -215t74 -49q56 0 76 49t19 215zM848 514q0 -168 -25 -256q-37 -135 -132 -209t-236 -74t-237 74q-95 74 -132 209q-25 88 -25 256t25 256q37 135 132 209
q94 74 236 74t237 -74t132 -209q25 -88 25 -256z" />
    <glyph glyph-name="divide" unicode="&#xf7;" horiz-adv-x="1228" 
d="M430 934q0 78 53 131t131 53t131 -53t53 -131t-52 -131q-54 -53 -132 -53t-131 53t-53 131zM430 94q0 78 53 131t131 53t131 -52q53 -54 53 -132t-52 -131q-54 -53 -132 -53t-131 53t-53 131zM1126 391h-1024v246h1024v-246z" />
    <glyph glyph-name="oslash" unicode="&#xf8;" 
d="M549 514q1 166 -19 215t-75 49t-75 -49t-20 -215t20 -215t74 -49q56 0 76 49t19 215zM848 514q0 -168 -25 -256q-37 -135 -132 -209t-236 -74q-43 0 -95 11l-84 -256h-149l104 311q-104 74 -145 217q-25 88 -25 256t25 256q37 135 132 209t237 74q61 0 106 -15l72 211
h149l-90 -272q94 -72 131 -207q25 -88 25 -256z" />
    <glyph glyph-name="ugrave" unicode="&#xf9;" 
d="M457 1458l176 -303h-246l-299 303h369zM379 371q-1 -92 73 -92t74 102v647h299v-1028h-284v145h-4q-37 -75 -101 -121t-131 -49q-96 0 -159 77q-62 77 -62 229v747h295v-657z" />
    <glyph glyph-name="uacute" unicode="&#xfa;" 
d="M276 1155l177 303h368l-299 -303h-246zM379 371q-1 -92 73 -92t74 102v647h299v-1028h-284v145h-4q-37 -75 -101 -121t-131 -49q-96 0 -159 77q-62 77 -62 229v747h295v-657z" />
    <glyph glyph-name="ucircumflex" unicode="&#xfb;" 
d="M92 1155l207 303h313l205 -303h-262l-100 162l-101 -162h-262zM379 371q-1 -92 73 -92t74 102v647h299v-1028h-284v145h-4q-37 -75 -101 -121t-131 -49q-96 0 -159 77q-62 77 -62 229v747h295v-657z" />
    <glyph glyph-name="udieresis" unicode="&#xfc;" 
d="M109 1430h299v-259h-299v259zM801 1171h-299v259h299v-259zM379 371q-1 -92 73 -92t74 102v647h299v-1028h-284v145h-4q-37 -75 -101 -121t-131 -49q-96 0 -159 77q-62 77 -62 229v747h295v-657z" />
    <glyph glyph-name="yacute" unicode="&#xfd;" horiz-adv-x="681" 
d="M164 1155l176 303h369l-299 -303h-246zM127 -369h-113v287h78q51 0 82 28t31 76t-45 228l-193 778h295l94 -565h4l97 565h295l-236 -932q-89 -367 -220 -433q-62 -32 -169 -32z" />
    <glyph glyph-name="thorn" unicode="&#xfe;" 
d="M537 516q-1 142 -19 198t-65 56t-65 -56t-19 -198q0 -142 18 -198q17 -56 65 -56t66 56t19 198zM74 -369v1839h295v-577h4q41 160 187 160t211 -129t65 -410t-65 -410t-202 -129q-47 0 -88 26q-41 25 -61 51t-47 67h-4v-488h-295z" />
    <glyph glyph-name="ydieresis" unicode="&#xff;" horiz-adv-x="681" 
d="M-4 1430h299v-259h-299v259zM688 1171h-299v259h299v-259zM127 -369h-113v287h78q51 0 82 28t31 76t-45 228l-193 778h295l94 -565h4l97 565h295l-236 -932q-89 -367 -220 -433q-62 -32 -169 -32z" />
    <glyph glyph-name="dotlessi" unicode="&#x131;" horiz-adv-x="454" 
d="M377 0h-299v1028h299v-1028z" />
    <glyph glyph-name="Lslash" unicode="&#x141;" 
d="M430 315h442v-315h-786v547l-86 -31v315l86 31v608h344v-487l225 78v-316l-225 -77v-353z" />
    <glyph glyph-name="lslash" unicode="&#x142;" horiz-adv-x="454" 
d="M377 0h-299v553l-107 -74v266l107 74v651h299v-448l106 72v-267l-106 -71v-756z" />
    <glyph glyph-name="OE" unicode="&#x152;" horiz-adv-x="1478" 
d="M434 1049v-627q0 -74 20 -111t74 -37q53 0 74 37q20 37 21 111v627q-1 75 -21 111t-74 36t-74 -36t-20 -111zM1405 315v-315h-868q-133 0 -215 30q-180 66 -225 335q-24 143 -23 370q0 227 24 371q44 270 224 335q82 30 215 29h847v-303h-401v-249h332v-316h-332v-287
h422z" />
    <glyph glyph-name="oe" unicode="&#x153;" horiz-adv-x="1374" 
d="M1325 422h-489q2 -109 26 -149t74 -40q51 0 73 24t29 79h283q-1 -182 -107 -271t-272 -89t-254 81q-102 -82 -244 -82t-238 74q-95 74 -132 209q-25 88 -25 256t25 256q37 135 132 209t237 74t245 -82q98 82 244 82q190 0 292 -131t101 -349v-151zM836 631h190
q0 106 -18 143t-74 37t-76 -39q-22 -39 -22 -141zM348 514q0 -166 20 -215t74 -49q55 0 75 49q19 49 20 215t-19 215t-76 49t-74 -49q-20 -49 -20 -215z" />
    <glyph glyph-name="Scaron" unicode="&#x160;" horiz-adv-x="1024" 
d="M356 1567l-206 303h262l100 -162l100 162h262l-204 -303h-314zM930 1016h-312q-2 115 -33 160q-32 45 -85 45t-80 -29t-27 -73q-1 -44 57 -99q58 -56 139 -114t162 -128t138 -170t57 -215q0 -418 -463 -418q-259 0 -351 161q-77 135 -79 353h320v-67q0 -76 37 -124
t94 -48t90 31t33 86q1 55 -57 114t-139 121t-162 131q-81 70 -138 168t-57 209q0 178 122 282t308 103q186 0 306 -116t120 -300v-63z" />
    <glyph glyph-name="scaron" unicode="&#x161;" horiz-adv-x="796" 
d="M244 1155l-207 303h262l100 -162l101 162h262l-205 -303h-313zM727 707h-254q-12 82 -74 81q-61 0 -61 -55q0 -33 42 -57t102 -46t120 -54t104 -98q42 -67 42 -161q0 -180 -102 -261t-260 -81t-248 108q-89 108 -89 261h262q0 -115 74 -115q33 1 57 19t23 52q0 34 -42 60
t-102 50q-61 26 -121 60t-103 100q-42 67 -42 157q1 152 97 238t242 86q146 1 240 -103t93 -241z" />
    <glyph glyph-name="Ydieresis" unicode="&#x178;" 
d="M109 1841h299v-258h-299v258zM801 1583h-299v258h299v-258zM627 0h-344v606l-283 864h330l123 -479h4l123 479h329l-282 -864v-606z" />
    <glyph glyph-name="Zcaron" unicode="&#x17d;" 
d="M299 1567l-207 303h262l101 -162l100 162h262l-205 -303h-313zM848 0h-787v299l410 868h-393v303h766v-278l-410 -877h414v-315z" />
    <glyph glyph-name="zcaron" unicode="&#x17e;" horiz-adv-x="681" 
d="M186 1155l-206 303h262l100 -162l100 162h263l-205 -303h-314zM653 0h-639v172l285 598h-260v258h614v-168l-282 -594h282v-266z" />
    <glyph glyph-name="florin" unicode="&#x192;" 
d="M164 721v258h211q23 230 100 363q89 153 318 153q88 0 129 -8l-37 -275q-55 16 -60 17q-55 0 -87 -51t-44 -199h166v-258h-213l-127 -713q-31 -174 -120 -275t-267 -102q-94 0 -158 21l33 289q53 -35 105 -35q70 0 84 74l131 741h-164z" />
    <glyph glyph-name="circumflex" unicode="&#x2c6;" horiz-adv-x="454" 
d="M-135 1155l207 303h313l205 -303h-262l-101 162l-100 -162h-262z" />
    <glyph glyph-name="caron" unicode="&#x2c7;" horiz-adv-x="454" 
d="M72 1155l-207 303h262l100 -162l101 162h262l-205 -303h-313z" />
    <glyph glyph-name="breve" unicode="&#x2d8;" horiz-adv-x="454" 
d="M45 1462q0 -70 49 -104t130 -35q81 0 133 29t53 110h147q-4 -141 -97 -228q-94 -87 -238 -87t-232 84t-92 231h147z" />
    <glyph glyph-name="dotaccent" unicode="&#x2d9;" horiz-adv-x="454" 
d="M377 1171h-299v259h299v-259z" />
    <glyph glyph-name="ring" unicode="&#x2da;" horiz-adv-x="454" 
d="M449 1367q0 -91 -66 -155t-157 -65q-92 1 -156 65t-64 156t66 157t156 65t155 -66q66 -66 66 -157zM227 1470q-41 0 -71 -30t-31 -73q0 -42 30 -72q29 -29 71 -29t73 30t31 71q0 43 -31 73t-72 30z" />
    <glyph glyph-name="ogonek" unicode="&#x2db;" horiz-adv-x="454" 
d="M346 -334q72 0 197 82l39 -74q-180 -123 -293 -123q-113 -1 -174 49t-62 140q0 229 475 303v-25q-283 -106 -282 -256q0 -44 28 -70t72 -26z" />
    <glyph glyph-name="tilde" unicode="&#x2dc;" horiz-adv-x="454" 
d="M96 1434q66 0 152 -42t129 -42q57 0 63 84h146q-8 -117 -68 -189t-174 -71q-53 0 -137 38t-119 35q-70 -10 -74 -88h-145q9 99 71 187t156 88z" />
    <glyph glyph-name="hungarumlaut" unicode="&#x2dd;" horiz-adv-x="454" 
d="M217 1155l176 303h352l-299 -303h-229zM-86 1155l78 303h311l-160 -303h-229z" />
    <glyph glyph-name="endash" unicode="&#x2013;" horiz-adv-x="1024" 
d="M1024 401h-1024v226h1024v-226z" />
    <glyph glyph-name="emdash" unicode="&#x2014;" horiz-adv-x="2048" 
d="M2048 401h-2048v226h2048v-226z" />
    <glyph glyph-name="quoteleft" unicode="&#x2018;" horiz-adv-x="454" 
d="M373 1159v-409h-307v409l196 336h148l-164 -336h127z" />
    <glyph glyph-name="quoteright" unicode="&#x2019;" horiz-adv-x="454" 
d="M82 1061v409h307v-409l-196 -336h-148l164 336h-127z" />
    <glyph glyph-name="quotesinglbase" unicode="&#x201a;" horiz-adv-x="454" 
d="M82 0v410h307v-410l-196 -336h-148l164 336h-127z" />
    <glyph glyph-name="quotedblleft" unicode="&#x201c;" 
d="M373 1159v-409h-307v409l196 336h148l-164 -336h127zM827 1159v-409h-307v409l197 336h147l-164 -336h127z" />
    <glyph glyph-name="quotedblright" unicode="&#x201d;" 
d="M537 1061v409h307v-409l-197 -336h-147l164 336h-127zM82 1061v409h307v-409l-196 -336h-148l164 336h-127z" />
    <glyph glyph-name="quotedblbase" unicode="&#x201e;" 
d="M537 0v410h307v-410l-197 -336h-147l164 336h-127zM82 0v410h307v-410l-196 -336h-148l164 336h-127z" />
    <glyph glyph-name="dagger" unicode="&#x2020;" 
d="M496 -143l-4 -74h-74q-39 627 -70 768q-8 33 -16 55l86 369l-344 -82v233l344 -82l-78 426h229l-77 -426l344 82v-233l-344 82l86 -369q-41 -113 -82 -749z" />
    <glyph glyph-name="daggerdbl" unicode="&#x2021;" 
d="M836 1126v-233l-344 82l81 -348l-81 -348l344 81v-233l-344 82l77 -426h-229l78 426l-344 -82v233l344 -81l-82 348l82 348l-344 -82v233l344 -82l-78 426h229l-77 -426z" />
    <glyph glyph-name="bullet" unicode="&#x2022;" horiz-adv-x="1024" 
d="M145 735q0 151 108 259q107 108 259 108t260 -108t109 -260q0 -152 -109 -260q-108 -108 -260 -108t-260 109q-108 108 -107 260z" />
    <glyph glyph-name="ellipsis" unicode="&#x2026;" horiz-adv-x="2048" 
d="M1860 0h-308v410h308v-410zM1178 0h-308v410h308v-410zM496 0h-308v410h308v-410z" />
    <glyph glyph-name="perthousand" unicode="&#x2030;" horiz-adv-x="2048" 
d="M16 1171q0 133 96 229t228 95q133 0 228 -95q96 -94 96 -228t-96 -229t-228 -95t-228 95t-96 228zM229 1171q0 -45 33 -77t78 -33q45 0 78 33q33 34 33 78t-33 77t-78 33t-78 -33t-33 -78zM369 -25h-127l704 1520h129zM883 299q-1 -45 31 -78t79 -33t79 33t32 78t-32 78
t-79 33t-79 -33t-31 -78zM670 299q0 133 95 228t228 95t229 -94q96 -96 95 -229q0 -133 -95 -228q-94 -95 -228 -95t-229 94q-95 96 -95 229zM1597 299q0 -45 33 -78t78 -33t78 33t33 78t-33 78t-78 33t-78 -33t-33 -78zM1384 299q0 133 96 228t228 95q133 0 228 -94
q96 -96 96 -229t-96 -228t-228 -95t-228 94q-96 96 -96 229z" />
    <glyph glyph-name="guilsinglleft" unicode="&#x2039;" horiz-adv-x="569" 
d="M500 813l-191 -299l191 -299h-213l-201 299l201 299h213z" />
    <glyph glyph-name="guilsinglright" unicode="&#x203a;" horiz-adv-x="569" 
d="M260 514l-190 299h213l200 -299l-200 -299h-213z" />
    <glyph glyph-name="fraction" unicode="&#x2044;" horiz-adv-x="342" 
d="M684 1495l-877 -1520h-149l877 1520h149z" />
    <glyph glyph-name="fraction" unicode="&#x2215;" horiz-adv-x="342" 
d="M684 1495l-877 -1520h-149l877 1520h149z" />
    <glyph glyph-name="Euro" unicode="&#x20ac;" 
d="M662 1225q-162 0 -189 -246h311l-51 -191h-272q-2 -16 -2 -58t2 -58h237l-51 -191h-170q11 -123 57 -178t146 -55t154 61v-278q-66 -53 -246 -53q-367 -1 -426 503h-133l51 191h67q-2 16 -2 56t2 60h-118l51 191h80q59 516 436 516q164 0 238 -59v-283q-53 72 -172 72z
" />
    <glyph glyph-name="trademark" unicode="&#x2122;" horiz-adv-x="2048" 
d="M1974 1470v-843h-221v549l-4 4l-186 -553h-181l-186 549l-4 4v-553h-221v843h319l183 -491l182 491h319zM778 1470v-184h-229v-659h-246v659h-229v184h704z" />
    <glyph glyph-name="minus" unicode="&#x2212;" horiz-adv-x="1228" 
d="M1126 391h-1024v246h1024v-246z" />
    <glyph glyph-name="fi" unicode="&#xfb01;" 
d="M836 1212h-287v283h287v-283zM836 0h-287v1028h287v-1028zM487 1495v-283h-45q-74 0 -73 -73v-111h118v-274h-118v-754h-299v754h-107v274h107v180q4 127 80 207t227 80h110z" />
    <glyph glyph-name="fl" unicode="&#xfb02;" 
d="M836 0h-287v1495h287v-1495zM487 1495v-283h-45q-74 0 -73 -73v-111h118v-274h-118v-754h-299v754h-107v274h107v180q4 127 80 207t227 80h110z" />
    </font>
</defs>
</svg>
