<?xml version="1.0" standalone="no"?>
<!DOCTYPE svg PUBLIC "-//W3C//DTD SVG 1.1//EN" "http://www.w3.org/Graphics/SVG/1.1/DTD/svg11.dtd" >
<svg xmlns="http://www.w3.org/2000/svg">
<metadata>
Created by FontPrep 20130207 at Mon Oct 12 15:31:50 2015
 By Callum Flack
(c) Copyright The Font Bureau, Inc. 2014. All rights reserved.
</metadata>
<defs>
<font id="913c1836a099ab6e6681bfcc06769c13" horiz-adv-x='1024' >
  <font-face 
    font-family="InputMonoCompressed-Bold"
    font-weight="700"
    font-stretch="extra-condensed"
    units-per-em="2048"
    panose-1="2 0 7 9 3 0 0 9 0 4"
    ascent="1583"
    descent="-465"
    x-height="1117"
    cap-height="1489"
    bbox="-443 -838 2057 2607"
    underline-thickness="0"
    underline-position="0"
    unicode-range="U+000D-1F41B"
  />
<missing-glyph 
d="M279 -279h531v1675h-531v-1675zM93 -465v2048h903v-2048h-903z" />
    <glyph glyph-name=".notdef" 
d="M279 -279h531v1675h-531v-1675zM93 -465v2048h903v-2048h-903z" />
    <glyph glyph-name=".null" horiz-adv-x="0" 
 />
    <glyph glyph-name="nonmarkingreturn" unicode="&#xd;" horiz-adv-x="0" 
 />
    <glyph glyph-name="NULL" horiz-adv-x="0" 
 />
    <glyph glyph-name="space" unicode="&#xa0;" 
 />
    <glyph glyph-name="space" unicode=" " 
 />
    <glyph glyph-name="exclam" unicode="!" 
d="M756 138q0 -157 -206.5 -157t-206.5 157v52q1 160 207 160t206 -160v-52zM411 559l-40 930h340l-43 -930h-257z" />
    <glyph glyph-name="quotedbl" unicode="&#x22;" 
d="M143 704l-50 785h341l-52 -785h-239zM707 704l-50 785h341l-50 -785h-241z" />
    <glyph glyph-name="numbersign" unicode="#" 
d="M54 348v199h188l15 395h-203v199h209l14 348h213l-13 -348h165l13 348h214l-14 -348h182v-199h-188l-15 -395h203v-199h-210l-13 -348h-214l14 348h-165l-15 -348h-212l13 348h-181zM620 547l15 395h-166l-15 -395h166z" />
    <glyph glyph-name="dollar" unicode="$" 
d="M631 -93h-171v177q-228 23 -374 143l59 192q157 -124 330 -142v371q-205 48 -289.5 134.5t-84.5 250.5t94 257t265 112v181h171v-177q183 -18 315 -119l-45 -190q-141 93 -285 108v-354q216 -58 304.5 -145.5t88.5 -249.5t-99.5 -259.5t-278.5 -114.5v-175zM748 441
q0 60 -27.5 97t-104.5 67v-329q132 13 132 165zM359 1060q0 -62 24.5 -98.5t91.5 -65.5v307q-63 -11 -89.5 -46t-26.5 -97z" />
    <glyph glyph-name="percent" unicode="%" 
d="M665 212q-1 -95 69 -95t70 95v132q0 99 -70 99t-69 -99v-132zM734 -41q-120 0 -194.5 66t-74.5 204v112q0 140 75.5 206.5t195.5 66.5t194.5 -67t74.5 -206v-112q0 -138 -75.5 -204t-195.5 -66zM17 465l966 686l89 -146l-966 -679zM283 1130q0 -100 73 -100q68 0 68 100
v127q0 98 -68 98q-73 0 -73 -98v-127zM354 871q-121 0 -195.5 68t-74.5 208v106q0 140 75.5 207t196.5 67t194.5 -67t73.5 -207v-106q0 -140 -74.5 -208t-195.5 -68z" />
    <glyph glyph-name="ampersand" unicode="&#x26;" 
d="M337 394q0 -118 35.5 -170.5t85.5 -52.5t83.5 24.5t63.5 70.5q-99 115 -166 226q-26 39 -65 111q-37 -91 -37 -209zM467 931q121 104 121 246q0 143 -72 143t-73 -172q0 -134 24 -217zM84 336q0 165 50 269t155 190q-69 175 -69 342t79 270t219 103t211.5 -85.5
t71.5 -206.5t-65.5 -220t-227.5 -207q13 -49 61 -144t122 -189q51 146 102 337l209 -65q-73 -210 -200 -425l256 -126l-62 -203q-140 51 -272 171q-130 -166 -326 -166q-136 0 -225 95t-89 260z" />
    <glyph glyph-name="quotesingle" unicode="'" 
d="M424 704l-48 785h339l-50 -785h-241z" />
    <glyph glyph-name="parenleft" unicode="(" 
d="M263 558.5q0 418.5 148.5 652.5t457.5 297l28 -188q-184 -61 -266 -242.5t-82 -516.5t82 -516t266 -242l-28 -194q-309 63 -457.5 297t-148.5 652.5z" />
    <glyph glyph-name="parenright" unicode=")" 
d="M542 562q0 334 -83 516t-264 242l28 188q305 -63 455.5 -297t150.5 -652.5t-150.5 -652.5t-455.5 -297l-28 194q181 61 264 243t83 516z" />
    <glyph glyph-name="asterisk" unicode="*" 
d="M851 577l-265 276l71 -447h-229l73 445l-261 -274l-115 218l326 155l-326 154l115 218l261 -276l-73 443h229l-71 -443l265 276l113 -218l-327 -154l327 -155z" />
    <glyph glyph-name="plus" unicode="+" 
d="M432 67v467h-292v235h292v467h227v-467h291v-235h-291v-467h-227z" />
    <glyph glyph-name="comma" unicode="," 
d="M296 -331l102 785h403l-324 -785h-181z" />
    <glyph glyph-name="hyphen" unicode="&#x2011;" 
d="M140 534v244h810v-244h-810z" />
    <glyph glyph-name="hyphen" unicode="&#x2010;" 
d="M140 534v244h810v-244h-810z" />
    <glyph glyph-name="hyphen" unicode="&#xad;" 
d="M140 534v244h810v-244h-810z" />
    <glyph glyph-name="hyphen" unicode="-" 
d="M140 534v244h810v-244h-810z" />
    <glyph glyph-name="period" unicode="." 
d="M544 -19q-93 0 -152 47.5t-59 140.5v103q0 95 59 143.5t153.5 48.5t152.5 -48.5t58 -143.5v-103q0 -93 -59.5 -140.5t-152.5 -47.5z" />
    <glyph glyph-name="slash" unicode="/" 
d="M153 -372l558 1861h227l-558 -1861h-227z" />
    <glyph glyph-name="zero" unicode="0" 
d="M546 896q98 0 98 -99v-106q0 -58 -27.5 -78.5t-72.5 -20.5t-72 20.5t-27 78.5v106q0 56 27 77.5t74 21.5zM545.5 190q93.5 0 128.5 87.5t35 312.5v302q0 229 -35 318.5t-128.5 89.5t-128.5 -89.5t-35 -318.5v-302q0 -225 35 -312.5t128.5 -87.5zM545.5 -19
q-199.5 0 -310 155.5t-110.5 436.5v336q0 287 110.5 443t310 156t310 -156.5t110.5 -442.5v-336q0 -281 -110.5 -436.5t-310 -155.5z" />
    <glyph glyph-name="one" unicode="1" 
d="M166 0v216h277v1002h-41q-20 -108 -89 -168.5t-160 -57.5l-15 224q106 2 192.5 79t116.5 194h281v-1273h236v-216h-798z" />
    <glyph glyph-name="two" unicode="2" 
d="M544 1508q407 0 407 -383v-101q0 -138 -54 -219t-204 -170l-133 -75q-97 -60 -123.5 -103.5t-26.5 -139.5v-101h556v-216h-841v313q0 173 55 267t207 185l132 75q93 54 120.5 94t27.5 127v54q0 95 -29 140t-94 45t-89.5 -58t-31.5 -220l-285 19q9 249 105 358t301 109z
" />
    <glyph glyph-name="three" unicode="3" 
d="M966 380q0 -399 -423 -399q-216 0 -320 108t-113 328l285 19q9 -134 42.5 -188t108 -54t105 44.5t30.5 145.5v102q0 101 -37 146.5t-112 45.5h-141v216h141q69 0 95 30.5t26 118.5v98q0 84 -26 119.5t-83.5 35.5t-85.5 -48.5t-35 -160.5l-285 19q9 205 106.5 303.5
t289.5 98.5t298 -86.5t106 -261.5v-75q0 -108 -56.5 -181.5t-147.5 -86.5v-54q106 -13 169 -103t63 -213v-67z" />
    <glyph glyph-name="four" unicode="4" 
d="M1035 380h-167v-380h-285v380h-473v208l409 901h349v-901h167v-208zM583 588v499l-231 -499h231z" />
    <glyph glyph-name="five" unicode="5" 
d="M607 950q359 0 359 -386v-173q0 -199 -107 -304.5t-327 -105.5t-316.5 101.5t-105.5 353.5l285 18q13 -158 42 -211t107 -53t107.5 46.5t29.5 163.5v125q0 110 -39 156.5t-137 46.5h-352v761h770v-208h-485v-331h169z" />
    <glyph glyph-name="six" unicode="6" 
d="M543 190q72 0 103.5 53t31.5 178v76q0 130 -32 185t-104 55t-102 -55t-30 -185v-76q0 -125 30.5 -178t102.5 -53zM966 421q0 -440 -420.5 -440t-420.5 507v514q0 506 422 506q199 0 293.5 -84.5t112.5 -282.5l-298 -43q-9 119 -38 160.5t-91 41.5t-89 -61.5t-27 -210.5
v-233h13q77 136 251 136q292 0 292 -417v-93z" />
    <glyph glyph-name="seven" unicode="7" 
d="M125 1262v227h841v-227q-147 -328 -213 -576t-120 -686h-300q89 551 151 771.5t197 490.5h-556z" />
    <glyph glyph-name="eight" unicode="8" 
d="M545.5 194q74.5 0 105 44.5t30.5 156.5v80q0 112 -30.5 157.5t-105 45.5t-105 -46t-30.5 -157v-80q0 -112 30.5 -156.5t105 -44.5zM545.5 886q59.5 0 83.5 35.5t24 122.5v97q0 86 -24 120.5t-83.5 34.5t-83.5 -34.5t-24 -120.5v-97q0 -88 24 -123t83.5 -35zM966 380
q0 -399 -420.5 -399t-420.5 399v67q0 128 61.5 212t170.5 99v54q-88 11 -146 79t-58 180v85q0 179 96.5 265.5t296 86.5t296 -86.5t96.5 -265.5v-85q0 -112 -59.5 -180t-146.5 -79v-54q110 -15 172 -100t62 -211v-67z" />
    <glyph glyph-name="nine" unicode="9" 
d="M966 488q0 -507 -424 -507q-199 0 -293 86t-113 281l298 43q9 -119 34 -160t92 -41t94 64t27 221v219h-16q-71 -135 -242 -135q-298 0 -298 417v93q1 439 421 439t420 -506v-514zM546 752q74 0 104.5 55t30.5 185v77q0 125 -30.5 178t-104.5 53t-104.5 -53.5
t-30.5 -177.5v-77q0 -130 30.5 -185t104.5 -55z" />
    <glyph glyph-name="colon" unicode=":" 
d="M544 -15q-84 0 -137 43t-53 128v93q0 86 53 130t138.5 44t137.5 -44t52 -130v-93q0 -86 -53.5 -128.5t-137.5 -42.5zM544 726q-84 0 -137 43t-53 127v93q0 86 53 129.5t138.5 43.5t137.5 -44t52 -129v-93q0 -84 -53.5 -127t-137.5 -43z" />
    <glyph glyph-name="semicolon" unicode=";" 
d="M322 -315l91 753h362l-293 -753h-160zM544 726q-84 0 -137 43t-53 127v93q0 86 53 129.5t138.5 43.5t137.5 -44t52 -129v-93q0 -84 -53.5 -127t-137.5 -43z" />
    <glyph glyph-name="less" unicode="&#x3c;" 
d="M909 20l-728 498v268l728 497v-227l-591 -404l591 -404v-228z" />
    <glyph glyph-name="equal" unicode="=" 
d="M140 268v235h810v-235h-810zM140 801v234h810v-234h-810z" />
    <glyph glyph-name="greater" unicode="&#x3e;" 
d="M181 20v218l605 414l-605 413v218l728 -495v-272z" />
    <glyph glyph-name="question" unicode="?" 
d="M685 138q1 -157 -207 -157t-208 157v52q0 160 208 160t207 -160v-52zM741 1028v48q0 110 -44.5 167t-150.5 57t-150 -59t-55 -219l-285 19q11 244 128.5 355.5t348.5 111.5t362 -112.5t131 -300.5v-75q0 -203 -146 -308t-517 -170l-28 192q231 50 318.5 114t87.5 180z
" />
    <glyph glyph-name="at" unicode="@" 
d="M616 536q0 -130 55 -130t74.5 23t19.5 96v222q0 69 -21.5 100.5t-52.5 31.5q-75 0 -75 -136v-207zM985 521q1 -303 -303 -303q-144 0 -214 80t-70 221v239q0 140 60 224.5t158 84.5q137 0 179 -123h41q-4 210 -63.5 313.5t-214.5 103.5t-219.5 -94t-64.5 -267v-628
q0 -201 84.5 -312.5t280.5 -111.5q156 0 283 43v-153q-155 -43 -283 -43q-263 0 -397 152t-134 412v641q0 231 112.5 369.5t339.5 138.5q425 0 425 -572v-415z" />
    <glyph glyph-name="A" unicode="A" 
d="M756 0l-63 387h-298l-71 -387h-255l302 1489h350l301 -1489h-266zM659 603l-108 656l-117 -656h225z" />
    <glyph glyph-name="B" unicode="B" 
d="M410 209h117q80 0 116.5 46.5t36.5 150.5v74q0 102 -36.5 149t-116.5 47h-117v-467zM410 873h111q69 0 100 40t31 130v69q0 89 -31 129t-100 40h-111v-408zM123 0v1489h443q181 0 275 -89t94 -261v-74q0 -106 -44 -167.5t-141 -82.5v-54q104 -13 159 -90t55 -196v-90
q0 -188 -104 -286.5t-300 -98.5h-437z" />
    <glyph glyph-name="C" unicode="C" 
d="M570 -19q-219 0 -332 130.5t-113 385.5v488q0 261 113.5 392t331.5 131t322 -124.5t115 -396.5l-285 -19q-7 194 -38.5 259t-117.5 65t-121 -70.5t-35 -253.5v-456q0 -168 34 -241.5t121 -73.5t118.5 64.5t38.5 252.5l285 -19q-9 -266 -113.5 -390t-323.5 -124z" />
    <glyph glyph-name="D" unicode="D" 
d="M410 216h108q89 0 126 70.5t37 253.5v402q0 186 -37 258.5t-126 72.5h-108v-1057zM123 0v1489h424q195 0 307 -144t112 -386v-436q0 -238 -112.5 -380.5t-306.5 -142.5h-424z" />
    <glyph glyph-name="E" unicode="E" 
d="M123 0v1489h843v-216h-556v-363h486v-217h-486v-477h556v-216h-843z" />
    <glyph glyph-name="F" unicode="F" 
d="M195 0v1489h801v-216h-516v-487h417v-216h-417v-570h-285z" />
    <glyph glyph-name="G" unicode="G" 
d="M546 -19q-204 0 -312.5 135t-108.5 368v520q0 238 109.5 371t315.5 133t305.5 -114.5t110.5 -352.5l-285 -19q-9 156 -37 213t-106 57t-103 -79t-25 -224v-490q0 -145 25 -223.5t113 -78.5t114.5 85t24.5 241h-134v218h421v-248q0 -249 -112 -380.5t-316 -131.5z" />
    <glyph glyph-name="H" unicode="H" 
d="M123 0v1489h287v-562h271v562h287v-1489h-287v709h-271v-709h-287z" />
    <glyph glyph-name="I" unicode="I" 
d="M123 0v216h279v1057h-279v216h845v-216h-279v-1057h279v-216h-845z" />
    <glyph glyph-name="J" unicode="J" 
d="M520 -19q-220 0 -317 118.5t-106 403.5l285 20q9 -195 39 -260.5t98.5 -65.5t101 60t32.5 192v824h-323v216h608v-1029q0 -227 -99 -353t-319 -126z" />
    <glyph glyph-name="K" unicode="K" 
d="M410 670v-670h-287v1489h287v-601h54l258 601h330l-352 -685l346 -804h-324l-253 670h-59z" />
    <glyph glyph-name="L" unicode="L" 
d="M194 0v1489h284v-1273h490v-216h-774z" />
    <glyph glyph-name="M" unicode="M" 
d="M110 0v1489h262l177 -742l175 742h255v-1489h-251l32 1033l-125 -620h-177l-128 635l31 -1048h-251z" />
    <glyph glyph-name="N" unicode="N" 
d="M365 0h-242v1489h307l294 -1122v1122h244v-1489h-331l-272 1108v-1108z" />
    <glyph glyph-name="O" unicode="O" 
d="M545.5 197q78.5 0 107 63.5t28.5 236.5v488q0 179 -28.5 243t-107 64t-107 -64t-28.5 -243v-488q0 -173 28.5 -236.5t107 -63.5zM545.5 -19q-202.5 0 -311.5 132.5t-109 366.5v522q0 238 109.5 372t311.5 134t311 -134t109 -372v-522q0 -235 -109 -367t-311.5 -132z" />
    <glyph glyph-name="P" unicode="P" 
d="M410 702h134q73 0 106 43t33 151v180q0 110 -33.5 153.5t-105.5 43.5h-134v-571zM560 1489q406 0 406 -392v-226q0 -199 -101.5 -290t-302.5 -91h-152v-490h-287v1489h437z" />
    <glyph glyph-name="Q" unicode="Q" 
d="M545 220q77 0 106.5 62t29.5 236v471q0 171 -29.5 235t-106.5 64t-106 -64t-29 -235v-471q0 -173 29 -235.5t106 -62.5zM125 505v497q0 238 109.5 372t311 134t311 -134t109.5 -372v-497q0 -212 -92 -341.5t-261 -152.5q7 -128 74 -158t190 0l30 -225
q-255 -47 -382.5 42.5t-124.5 361.5q-134 41 -204.5 163t-70.5 310z" />
    <glyph glyph-name="R" unicode="R" 
d="M950 964q0 -310 -198 -381l238 -583h-296l-225 553h-59v-553h-287v1489h463q179 0 271.5 -102t92.5 -298v-125zM410 767h130q69 0 104.5 43t35.5 156v116q0 112 -35.5 151.5t-104.5 39.5h-130v-506z" />
    <glyph glyph-name="S" unicode="S" 
d="M162 337q194 -138 356 -138q178 0 178 192q0 95 -49 140.5t-183 108.5q-181 82 -256.5 181t-75.5 272t110 291t313 118t361 -130l-35 -208q-163 119 -306 119q-76 0 -117 -45.5t-41 -131.5t50.5 -129t206.5 -121t231.5 -177.5t75.5 -250.5q0 -205 -124.5 -325
t-343.5 -120t-399 134z" />
    <glyph glyph-name="T" unicode="T" 
d="M402 0v1273h-314v216h916v-216h-315v-1273h-287z" />
    <glyph glyph-name="U" unicode="U" 
d="M545.5 -19q-215.5 0 -319 128.5t-103.5 395.5v984h287v-988q0 -168 28.5 -231t107 -63t107 63t28.5 231v988h287v-984q0 -266 -103.5 -395t-319 -129z" />
    <glyph glyph-name="V" unicode="V" 
d="M735 0h-379l-287 1489h281l194 -1210l208 1210h270z" />
    <glyph glyph-name="W" unicode="W" 
d="M637 0l-90 702l-87 -702h-250l-143 1489h240l52 -1102l90 730h188l95 -709l50 1081h240l-143 -1489h-242z" />
    <glyph glyph-name="X" unicode="X" 
d="M721 0l-183 443l-177 -443h-272l324 769l-288 720h290l157 -387l156 387h272l-304 -718l300 -771h-275z" />
    <glyph glyph-name="Y" unicode="Y" 
d="M689 0h-287v559l-344 930h283l203 -631l204 631h283l-342 -930v-559z" />
    <glyph glyph-name="Z" unicode="Z" 
d="M966 0h-841v216l568 1057h-568v216h841v-216l-551 -1057h551v-216z" />
    <glyph glyph-name="bracketleft" unicode="[" 
d="M263 -372v1861h634v-208h-348v-1458h348v-195h-634z" />
    <glyph glyph-name="backslash" unicode="\" 
d="M711 -371l-558 1862l227 -2l558 -1861z" />
    <glyph glyph-name="bracketright" unicode="]" 
d="M194 -372v195h348v1458h-348v208h635v-1861h-635z" />
    <glyph glyph-name="asciicircum" unicode="^" 
d="M754 372l-210 728l-211 -728h-251l320 1117h287l318 -1117h-253z" />
    <glyph glyph-name="underscore" unicode="_" 
d="M140 -372v244h810v-244h-810z" />
    <glyph glyph-name="grave" unicode="`" 
d="M605 704l-352 785h402l131 -785h-181z" />
    <glyph glyph-name="a" unicode="a" 
d="M613 784q-1 147 -121 147q-60 0 -88 -38t-43 -139l-229 47q30 175 118.5 255t262.5 80t272 -78.5t98 -258.5v-482q0 -82 31.5 -103.5t90.5 -6.5v-205q-234 -55 -290 153h-41q-41 -74 -117.5 -124t-184.5 -50t-185 89.5t-77 236.5t83 230t218 83h202v164zM367 313
q0 -144 98 -144q85 0 148 92v199h-157q-48 0 -68.5 -31t-20.5 -116z" />
    <glyph glyph-name="b" unicode="b" 
d="M667 372v367q0 175 -95 175q-88 0 -149 -113v-570q49 -39 121 -39t97.5 40t25.5 140zM951 773v-402q0 -188 -105 -287t-310 -99q-117 0 -229 33.5t-169 80.5v1390h285v-528h42q49 175 239 175q125 0 186 -100.5t61 -262.5z" />
    <glyph glyph-name="c" unicode="c" 
d="M554 -19q-198 0 -307 103.5t-109 289.5v367q0 188 108 291.5t300 103.5t288.5 -98t118.5 -303l-275 -18q-7 123 -36.5 165.5t-95.5 42.5t-94.5 -41.5t-28.5 -153.5v-346q0 -110 28.5 -152t96.5 -42t96 35.5t34 137.5l275 -19q-9 -188 -105 -275.5t-294 -87.5z" />
    <glyph glyph-name="d" unicode="d" 
d="M484 1132q101 0 183 -48v405h284v-1489h-284v156h-41q-20 -74 -77 -124.5t-151 -50.5q-130 0 -195 101.5t-65 261.5v403q0 181 92 283t254 102zM423 378q0 -173 93 -173t151 112v551q-68 59 -130 59t-88 -42t-26 -140v-367z" />
    <glyph glyph-name="e" unicode="e" 
d="M423 773v-106h244v100q0 101 -27 142t-95 41t-95 -39t-27 -138zM554 -19q-187 0 -301.5 102.5t-114.5 287.5v385q0 179 110 279.5t298 100.5t296.5 -103.5t108.5 -297.5v-230h-528v-148q0 -93 33.5 -138.5t107.5 -45.5t111.5 31.5t50.5 113.5l233 -65
q-37 -145 -127.5 -208.5t-277.5 -63.5z" />
    <glyph glyph-name="f" unicode="f" 
d="M769 1331q-123 0 -123 -160v-54h305v-208h-305v-909h-285v909h-223v208h223v67q0 162 102.5 255t268.5 93q124 0 232 -50l-28 -190q-92 39 -167 39z" />
    <glyph glyph-name="g" unicode="g" 
d="M765 -97q0 119 -102 119h-298v-110q0 -63 20.5 -96.5t83.5 -33.5h190q47 0 76.5 25t29.5 96zM626 802q0 142 -102 142t-101 -142v-72q0 -73 22 -110t78 -37t79.5 37t23.5 110v72zM434 430q-101 0 -101 -102t99 -101h244q145 0 231.5 -71.5t86.5 -225.5t-88.5 -237.5
t-238.5 -83.5h-239q-169 0 -250 71t-81 197q0 91 45.5 146t108.5 65v37q-123 40 -123 192q0 91 56 154t136 76v34q-74 28 -113 85.5t-39 126.5v30q0 134 97.5 214t255.5 80h473v-184l-231 39v-36q52 -19 86.5 -73.5t34.5 -115.5v-32q0 -132 -99.5 -208.5t-253.5 -76.5h-97z
" />
    <glyph glyph-name="h" unicode="h" 
d="M667 763q0 151 -95 151t-149 -125v-789h-285v1489h285v-528h42q24 80 89.5 127.5t165.5 47.5t165.5 -86.5t65.5 -237.5v-812h-284v763z" />
    <glyph glyph-name="i" unicode="i" 
d="M153 0v209h249v700h-249v208h536v-908h249v-209h-785zM378 1447q0 126 182 126t183 -126v-21q1 -69 -51 -95t-132 -26t-131 26t-51 95v21z" />
    <glyph glyph-name="j" unicode="j" 
d="M348 -182q179 0 179 202v889h-345v208h630v-1124q0 -177 -119 -280q-120 -102 -294 -102t-274 41l28 203q94 -37 195 -37zM473 1447q1 126 183 126t182 -126v-21q0 -69 -52 -95t-131 -26q-80 0 -131 26t-51 95v21z" />
    <glyph glyph-name="k" unicode="k" 
d="M436 484v-484h-287v1489h287v-809h50l210 437h293l-272 -512l268 -605h-304l-195 484h-50z" />
    <glyph glyph-name="l" unicode="l" 
d="M166 0v209h266v1072h-266v208h551v-1280h251v-209h-802z" />
    <glyph glyph-name="m" unicode="m" 
d="M735 946q-49 0 -83 -117v-829h-213v834q0 56 -8 84t-32.5 28t-43.5 -31.5t-38 -85.5v-829h-229v1117h227v-143h44q40 158 155 158q106 0 130 -158h39q43 158 164 158q157 0 157 -263v-869h-231v834q0 112 -38 112z" />
    <glyph glyph-name="n" unicode="n" 
d="M667 761q0 153 -95 153t-149 -126v-788h-285v1117h285v-156h42q30 82 95.5 128.5t148.5 46.5q114 0 178 -86t64 -238v-812h-284v761z" />
    <glyph glyph-name="o" unicode="o" horiz-adv-x="1091" 
d="M547.5 190q63.5 0 92 42t28.5 142v361q0 102 -28.5 147t-92 45t-93.5 -44.5t-30 -145.5v-357q0 -102 30 -146t93.5 -44zM546 -19q-189 0 -297.5 103.5t-108.5 282.5v376q0 184 108.5 288.5t297.5 104.5t298 -106.5t109 -290.5v-376q0 -179 -109 -280.5t-298 -101.5z" />
    <glyph glyph-name="p" unicode="p" 
d="M465 961q42 175 252 175q106 0 170 -87.5t64 -249.5v-428q0 -179 -92 -282.5t-252 -103.5q-104 0 -184 49v-406h-285v1489h285v-156h42zM667 372v395q0 147 -95 147q-90 0 -149 -113v-550q71 -61 131 -61t86.5 43t26.5 139z" />
    <glyph glyph-name="q" unicode="q" 
d="M423 389q0 -184 95 -184q89 0 149 112v569q-52 41 -122 41t-96 -42.5t-26 -139.5v-356zM667 -372v528h-41q-24 -80 -89.5 -127.5t-151.5 -47.5q-114 0 -180.5 98t-66.5 265v403q0 188 107 286.5t308 98.5q101 0 211.5 -27t186.5 -81v-1396h-284z" />
    <glyph glyph-name="r" unicode="r" 
d="M747 1136q219 0 219 -311v-190h-255v104q0 97 -21.5 136t-72.5 39q-114 0 -168 -151v-763h-285v1117h285v-188h43q57 207 255 207z" />
    <glyph glyph-name="s" unicode="s" 
d="M563 944q-125 0 -125 -84t44 -113.5t200 -84.5t218.5 -130.5t62.5 -215.5t-116 -235.5t-326 -95.5q-115 0 -219.5 35.5t-174.5 83.5l63 181q186 -108 337 -108t151 119q0 65 -36.5 94t-191.5 81t-225 128.5t-70 216.5t104 230t297 90t349 -112l-49 -175q-168 95 -293 95z
" />
    <glyph glyph-name="t" unicode="t" 
d="M618 369q0 -174 137 -174q70 0 152 38l28 -207q-76 -45 -241 -45t-263 100t-98 273v555h-195v208h195v372h285v-372h304v-208h-304v-540z" />
    <glyph glyph-name="u" unicode="u" 
d="M423 372q0 -167 87 -167t157 141v771h284v-1117h-284v156h-41q-24 -80 -95 -127.5t-169 -47.5t-161 87.5t-63 236.5v812h285v-745z" />
    <glyph glyph-name="v" unicode="v" 
d="M734 0h-378l-241 1117h269l167 -858l166 858h255z" />
    <glyph glyph-name="w" unicode="w" 
d="M653 0l-107 585l-105 -585h-246l-128 1117h240l65 -735l90 541h160l99 -538l61 732h240l-126 -1117h-243z" />
    <glyph glyph-name="x" unicode="x" 
d="M696 0l-164 324l-148 -324h-282l304 570l-278 547h282l143 -279l123 279h281l-274 -532l300 -585h-287z" />
    <glyph glyph-name="y" unicode="y" 
d="M303 -186q80 0 127.5 47.5t68.5 147.5l6 25h-194l-223 1083h286l173 -875l177 875h278l-252 -1130q-45 -195 -148 -285.5t-272 -90.5q-84 0 -226 20l15 209q104 -26 184 -26z" />
    <glyph glyph-name="z" unicode="z" 
d="M940 0h-789v209l486 700h-486v208h789v-208l-460 -700h460v-209z" />
    <glyph glyph-name="braceleft" unicode="{" 
d="M194 -82q0 144 89 257q48 63 69.5 100.5t21.5 83.5q0 78 -66 110t-254 39v145q188 7 254 39t66 112q0 41 -21.5 72.5t-61.5 75.5t-68.5 98t-28.5 145q0 169 162.5 244t540.5 69v-208q-233 6 -326 -26t-93 -118q0 -52 28 -88.5t62 -72.5t63.5 -79t29.5 -108
q0 -115 -94 -166.5t-321 -58.5v-10q227 -17 321 -72.5t94 -172.5q0 -65 -30.5 -106t-64.5 -77t-61 -75.5t-27 -103.5q0 -91 93.5 -124.5t325.5 -27.5v-205q-378 -6 -540.5 68t-162.5 241z" />
    <glyph glyph-name="bar" unicode="|" 
d="M430 -372v1861h229v-1861h-229z" />
    <glyph glyph-name="braceright" unicode="}" 
d="M897 -82q0 -168 -162.5 -241.5t-540.5 -67.5v205q233 -6 326 27.5t93 124.5q0 63 -26.5 103.5t-60.5 75.5t-65 76.5t-31 106.5q0 117 94 173t321 72v10q-227 7 -321 58.5t-94 166.5q0 65 29 108t63 79t62.5 72.5t28.5 88.5q0 86 -93.5 117.5t-325.5 26.5v208
q378 6 540.5 -68.5t162.5 -244.5q0 -140 -91 -234q-47 -52 -68 -84t-21 -73q0 -80 66 -111.5t254 -39.5v-145q-188 -7 -254 -38.5t-66 -110.5q0 -47 21.5 -84t62.5 -90t68.5 -114.5t27.5 -152.5z" />
    <glyph glyph-name="asciitilde" unicode="~" 
d="M719 631q61 0 61 173v244h170v-257q0 -179 -65 -280t-166 -101q-146 0 -235 216q-45 110 -70 171t-58 61q-60 0 -60 -203v-231h-171v243q0 195 65 304t166 109q148 0 238 -222q41 -104 67 -165.5t58 -61.5z" />
    <glyph glyph-name="exclamdown" unicode="&#xa1;" 
d="M683 931l41 -931h-340l42 931h257zM339 1352q-1 156 207 156t208 -156v-52q0 -161 -207.5 -161t-207.5 161v52z" />
    <glyph glyph-name="cent" unicode="&#xa2;" 
d="M460 -93v266q-162 24 -249.5 135t-87.5 301v279q0 188 90 296t247 132v267h169v-265q155 -20 230.5 -122.5t93.5 -283.5l-260 -20q-6 97 -24.5 146t-59.5 66v-722q41 13 59.5 58.5t24.5 138.5l260 -20q-7 -177 -76 -274t-248 -114v-264h-169zM395 594q0 -101 19.5 -151
t65.5 -67v737q-47 -15 -66 -66t-19 -151v-302z" />
    <glyph glyph-name="sterling" unicode="&#xa3;" 
d="M538 566q0 -153 -141 -263l27 -48q37 15 65.5 15t54.5 -11t47.5 -23.5t50.5 -12.5q58 0 80.5 57t29.5 191l255 -19q-11 -229 -90 -350t-213 -121q-54 0 -108 27.5t-111 63.5t-103.5 47t-89.5 -24l-128 -112l-114 175l149 105q47 41 85 124.5t38 161.5t-24 144h-201v175
h125q-41 93 -41 210q0 194 99.5 312t295.5 118t287.5 -116.5t104.5 -343.5l-257 -18q-7 128 -32.5 188.5t-103.5 60.5q-108 0 -108 -205q0 -97 26 -206h203v-175h-167q9 -126 9 -127z" />
    <glyph glyph-name="currency" unicode="&#xa4;" 
d="M545.5 168q-145.5 0 -232.5 81l-127 -161l-117 134l149 191q-24 81 -24 179v324q0 84 20 164l-145 188l117 134l123 -162q94 82 236 82t239 -84l119 155l117 -134l-143 -185q19 -95 19 -158v-324q0 -80 -15 -153l139 -208l-117 -134l-123 156q-89 -85 -234.5 -85z
M640 916q0 190 -94 190t-95 -190v-324q0 -112 23.5 -160t71.5 -48q94 0 94 208v324z" />
    <glyph glyph-name="yen" unicode="&#xa5;" 
d="M968 186h-279v-186h-285v186h-279v175h279v198h-279v175h203l-332 755h300l259 -724l257 724h281l-330 -755h205v-175h-279v-198h279v-175z" />
    <glyph glyph-name="brokenbar" unicode="&#xa6;" 
d="M430 -372v744h229v-744h-229zM430 745v744h229v-744h-229z" />
    <glyph glyph-name="section" unicode="&#xa7;" 
d="M1046 -24q0 -169 -126.5 -265t-349.5 -96q-140 0 -273 47.5t-217 127.5l69 199q188 -158 428 -158q78 0 136 32.5t58 108.5t-55 118t-202 83q-255 56 -359.5 138t-104.5 206t62.5 191t159.5 98q-222 109 -222 330q0 169 126.5 265t350.5 96q140 0 268 -47.5t222 -127.5
l-84 -192q-99 74 -196.5 112.5t-217.5 38.5q-193 0 -193 -149q0 -73 70.5 -116.5t272.5 -91.5t289.5 -129.5t87.5 -222.5q0 -198 -199 -278q199 -109 199 -318zM335 573q-1 -119 147 -158q64 -17 78.5 -21.5t29.5 -8.5q78 4 124.5 41.5t46.5 109.5t-45.5 111.5t-120 57
t-89.5 21.5q-171 -9 -171 -153z" />
    <glyph glyph-name="dieresis" unicode="&#xa8;" 
d="M728 1573q138 0 138 -126v-21q0 -69 -39 -95t-99 -26t-100 26q-38 26 -38 95v21q0 126 138 126zM363 1573q138 0 138 -126v-21q0 -69 -39 -95q-40 -26 -100 -26t-99 26q-38 26 -38 95v21q0 126 138 126z" />
    <glyph glyph-name="copyright" unicode="&#xa9;" 
d="M285 858q1 358 265 358q132 0 190.5 -87.5t67.5 -272.5l-188 -11q-6 117 -20.5 157.5t-50.5 40.5q-65 0 -65 -188v-332q0 -101 16 -144.5t51 -43.5t49 35.5t20 145.5l188 -11q-9 -179 -67.5 -261t-190.5 -82q-265 0 -265 363v333zM545.5 -108q197.5 0 277.5 151.5
t80 472.5v339q0 320 -80 475.5t-277.5 155.5t-277.5 -155.5t-80 -475.5v-339q0 -320 80 -472t277.5 -152zM545 -205q-237 0 -349 170.5t-112 512.5v414q0 346 111 518.5t349 172.5t349.5 -172.5t111.5 -518.5v-414q0 -343 -111.5 -513t-348.5 -170z" />
    <glyph glyph-name="ordfeminine" unicode="&#xaa;" 
d="M618 1182q0 155 -112 155q-52 0 -80 -27t-46 -117l-220 41q26 141 109 207.5t249 66.5t255 -73.5t89 -241.5v-327q0 -73 31.5 -96t111.5 -10v-177q-121 -22 -190.5 11t-93.5 128h-36q-35 -67 -112 -111.5t-179 -44.5t-176.5 71.5t-74.5 191.5t78.5 188t214.5 68h182v97z
M372 834q0 -106 86 -106q98 0 160 87v131h-164q-41 0 -61.5 -23.5t-20.5 -88.5z" />
    <glyph glyph-name="guillemotleft" unicode="&#xab;" 
d="M510 119l-422 399v268l422 396v-242l-307 -288l307 -289v-244zM1000 119l-421 399v268l421 396v-242l-306 -288l306 -289v-244z" />
    <glyph glyph-name="logicalnot" unicode="&#xac;" 
d="M724 0v534h-584v235h810v-769h-226z" />
    <glyph glyph-name="registered" unicode="&#xae;" 
d="M808 1011q0 -126 -104 -168l126 -275h-199l-97 251h-28v-251h-189v717h258q114 0 173.5 -57t59.5 -163v-54zM506 938h45q24 0 45.5 14t21.5 66v54q0 50 -21.5 68t-45.5 18h-45v-220zM875 767v302q0 231 -74.5 341.5t-255.5 110.5t-256 -110.5t-75 -341.5v-302
q0 -229 75 -336t257 -107t255.5 107t73.5 336zM545.5 240q-215.5 0 -318 131.5t-102.5 386.5v322q0 259 102.5 390t318 131t318 -131t102.5 -390v-322q0 -255 -102.5 -386.5t-318 -131.5z" />
    <glyph glyph-name="macron" unicode="&#x2c9;" 
d="M229 1381v216h633v-216h-633z" />
    <glyph glyph-name="macron" unicode="&#xaf;" 
d="M229 1381v216h633v-216h-633z" />
    <glyph glyph-name="degree" unicode="&#xb0;" 
d="M443 970q0 -156 102 -156q51 0 77 35t26 121v175q0 160 -102 160t-103 -160v-175zM545.5 620q-145.5 0 -234 82t-88.5 251v209q0 171 88.5 255t234.5 84t234.5 -84t88.5 -255v-209q0 -169 -89 -251t-234.5 -82z" />
    <glyph glyph-name="plusminus" unicode="&#xb1;" 
d="M432 253v468h-292v234h292v467h227v-467h291v-234h-291v-468h-227zM140 0v235h810v-235h-810z" />
    <glyph glyph-name="two.sups" unicode="&#xb2;" 
d="M220 566v207q0 220 164 266l169 46q48 13 69.5 39.5t21.5 83.5v25q0 61 -22 87t-80 26t-76.5 -29.5t-22.5 -117.5l-216 13q7 149 84 219t235 70t236 -70t78 -198v-51q0 -102 -43.5 -163.5t-118.5 -80.5l-169 -46q-56 -13 -75.5 -36.5t-19.5 -80.5v-43h434v-166h-648z" />
    <glyph glyph-name="three.sups" unicode="&#xb3;" 
d="M868 819q0 -264 -317 -264q-168 0 -250.5 69t-90.5 208l216 11q6 -73 35 -99.5t90 -26.5q101 0 101 110v29q0 110 -105 110h-163v164h163q47 0 67.5 17.5t20.5 70.5v26q0 54 -23.5 74.5t-77.5 20.5t-70.5 -22.5t-20.5 -80.5l-216 11q14 254 307 254q315 0 315 -231v-24
q0 -161 -147 -175v-34q73 -7 119.5 -57.5t46.5 -139.5v-21z" />
    <glyph glyph-name="acute" unicode="&#xb4;" 
d="M357 1303l146 373h355l-316 -373h-185z" />
    <glyph glyph-name="mu1" unicode="&#xb5;" 
d="M542 -13q-63 0 -104 63v-13l13 -409h-313l15 409v1080h285v-754q0 -84 22 -120t54 -36q67 0 112 89v821h286v-804q0 -80 19 -100t61 -6v-205q-204 -51 -247 141h-43q-58 -156 -160 -156z" />
    <glyph glyph-name="paragraph" unicode="&#xb6;" 
d="M754 633h-140v-1005h-284v1005q-155 0 -238 95t-83 272v97q0 188 83 290t236 102h711v-1861h-285v1005z" />
    <glyph glyph-name="periodcentered" unicode="&#x2219;" 
d="M544 503q-93 0 -152 47.5t-59 140.5v102q0 95 59 143.5t153.5 48.5t152.5 -48.5t58 -143.5v-102q0 -93 -59.5 -140.5t-152.5 -47.5z" />
    <glyph glyph-name="periodcentered" unicode="&#xb7;" 
d="M544 503q-93 0 -152 47.5t-59 140.5v102q0 95 59 143.5t153.5 48.5t152.5 -48.5t58 -143.5v-102q0 -93 -59.5 -140.5t-152.5 -47.5z" />
    <glyph glyph-name="cedilla" unicode="&#xb8;" 
d="M806 -172q0 -112 -83 -175t-225 -63t-224 55t-88 167l238 19q2 -35 17 -49t51 -15t54 21t18 82t-12 89q-12 28 -49 41l28 78q141 -18 208 -78t67 -172z" />
    <glyph glyph-name="one.sups" unicode="&#xb9;" 
d="M289 566v166h189v553h-27q-11 -76 -61.5 -122t-110.5 -50l-7 164q74 9 130 67t80 145h212v-757h174v-166h-579z" />
    <glyph glyph-name="ordmasculine" unicode="&#xba;" 
d="M545 745q66 0 91 42t25 136v229q0 89 -25 133t-91 44t-91.5 -44.5t-25.5 -133.5v-228q0 -95 25.5 -136.5t91.5 -41.5zM545.5 566q-167.5 0 -263.5 92t-96 254v244q0 164 96 258t264 94t262.5 -94t94.5 -258v-244q0 -162 -95 -254t-262.5 -92z" />
    <glyph glyph-name="guillemotright" unicode="&#xbb;" 
d="M577 119v244l307 289l-307 288v242l423 -396v-268zM88 119v244l305 289l-305 288v242l420 -396v-268z" />
    <glyph glyph-name="onequarter" unicode="&#xbc;" 
d="M553 -56v276l-190 -276h190zM897 -210h-130v-181h-214v181h-356v154l317 458h253v-458h130v-154zM609 499v136l424 37v-210zM56 462v210l445 -37v-136zM264 765v149h190v384h-28q-12 -74 -48 -110q-60 -58 -123 -62l-7 164q107 13 152 89.5t58 122.5h212v-588h173v-149
h-579z" />
    <glyph glyph-name="onehalf" unicode="&#xbd;" 
d="M542 395q318 0 318 -224v-50q0 -117 -62.5 -153.5t-99.5 -45.5l-169 -47q-57 -16 -77 -31q-18 -22 -18 -69h434v-166h-648v168q0 96 39 152q41 64 125 86l169 46q75 20 83 43.5t8 44.5v22q0 40 -23 54q-85 50 -144 0q-30 -30 -34 -87l-216 13q8 124 80 184t235 60z
M609 499v136l424 37v-210zM56 462v210l445 -37v-136zM264 765v149h190v384h-28q-12 -74 -48 -110q-60 -58 -123 -62l-7 164q66 9 125 62q60 53 85 150h212v-588h173v-149h-579z" />
    <glyph glyph-name="threequarters" unicode="&#xbe;" 
d="M566 -56v276l-190 -276h190zM910 -210h-130v-181h-214v181h-356v154l317 458h253v-458h130v-154zM609 499v136l424 37v-210zM56 462v210l445 -37v-136zM868 961q0 -209 -317 -209q-242 0 -290.5 90.5t-50.5 149.5l216 12q8 -63 34 -82q27 -23 86 -23q60 0 81 17
q25 13 25 52v30q0 71 -110 71h-158v147h158q73 0 83 24t10 45v26q0 34 -24 45t-76 11q-51 0 -67 -14t-25 -61l-216 11q12 113 91 162q80 47 225 47q144 0 218 -37q88 -39 88 -138v-24q0 -92 -48.5 -118t-72.5 -31v-34q52 -9 82 -37q58 -51 58 -112v-20z" />
    <glyph glyph-name="questiondown" unicode="&#xbf;" 
d="M343 462v-49q0 -112 43.5 -167.5t150.5 -55.5t151 58.5t55 218.5l285 -18q-11 -249 -131.5 -358.5t-350.5 -109.5t-359 116.5t-129 297.5v74q0 201 147 308.5t516 170.5l27 -192q-244 -52 -324.5 -117.5t-80.5 -176.5zM398 1352q0 156 208 156t208 -156v-52
q0 -161 -208 -161t-208 161v52z" />
    <glyph glyph-name="Agrave" unicode="&#xc0;" 
d="M756 0l-63 387h-298l-71 -387h-255l302 1489h350l301 -1489h-266zM659 603l-108 656l-117 -656h225zM516 1676l-317 372h356l147 -372h-186z" />
    <glyph glyph-name="Aacute" unicode="&#xc1;" 
d="M756 0l-63 387h-298l-71 -387h-255l302 1489h350l301 -1489h-266zM659 603l-108 656l-117 -656h225zM356 1676l145 372h355l-316 -372h-184z" />
    <glyph glyph-name="Acircumflex" unicode="&#xc2;" 
d="M756 0l-63 387h-298l-71 -387h-255l302 1489h350l301 -1489h-266zM659 603l-108 656l-117 -656h225zM264 1672l-93 130l263 285h218l264 -285l-91 -128l-283 201z" />
    <glyph glyph-name="Atilde" unicode="&#xc3;" 
d="M756 0l-63 387h-298l-71 -387h-255l302 1489h350l301 -1489h-266zM659 603l-108 656l-117 -656h225zM663 1886q56 0 56 138v39h180v-28q1 -155 -59 -248t-162 -93q-103 0 -162 93q-26 41 -44 72t-44 31t-43 -31t-14 -105v-41h-183v28q0 156 62 249t171 93q89 1 152 -93
q28 -42 47 -73t43 -31z" />
    <glyph glyph-name="Adieresis" unicode="&#xc4;" 
d="M756 0l-63 387h-298l-71 -387h-255l302 1489h350l301 -1489h-266zM659 603l-108 656l-117 -656h225zM864 1799q0 -122 -138 -122q-61 1 -99 27t-39 95v20q0 127 138 127t138 -127v-20zM499 1799q0 -122 -138 -122q-61 1 -99 27t-39 95v20q0 127 138 127t138 -127v-20z
" />
    <glyph glyph-name="Aring" unicode="&#xc5;" 
d="M756 0l-63 387h-298l-71 -387h-255l302 1489h350l301 -1489h-266zM659 603l-108 656l-117 -656h225zM443 1977v-59q1 -131 101 -131t100 131v59q0 138 -100 136q-101 0 -101 -136zM544 1640q-134 0 -216 68t-82 210v59q0 143 82 213t216 70t216 -70t82 -213v-59
q0 -142 -82 -210t-216 -68z" />
    <glyph glyph-name="AE" unicode="&#xc6;" 
d="M516 387h-179l-67 -387h-199l281 1489h653v-197h-247v-393h218v-197h-218v-505h247v-197h-489v387zM516 585v707h-28l-119 -707h147z" />
    <glyph glyph-name="Ccedilla" unicode="&#xc7;" 
d="M827 -169q0 -116 -83 -178q-84 -63 -226 -63t-224 55t-87 167l238 19q2 -35 17 -49t50 -15t54 21t19 95t-29 99q-208 4 -320 132t-111 383v488q0 523 448 523q215 0 319 -125t115 -396l-285 -19q-7 194 -39 259t-118 65q-87 0 -121 -71t-34 -253v-456q0 -168 34 -242
t121 -73t119 65t38 252l285 -19q-9 -266 -113 -390q-56 -66 -144 -97q77 -61 77 -177z" />
    <glyph glyph-name="Egrave" unicode="&#xc8;" 
d="M123 0v1489h843v-216h-556v-363h486v-217h-486v-477h556v-216h-843zM560 1676l-316 372h356l147 -372h-187z" />
    <glyph glyph-name="Eacute" unicode="&#xc9;" 
d="M123 0v1489h843v-216h-556v-363h486v-217h-486v-477h556v-216h-843zM398 1674l146 372h355l-316 -372h-185z" />
    <glyph glyph-name="Ecircumflex" unicode="&#xca;" 
d="M123 0v1489h843v-216h-556v-363h486v-217h-486v-477h556v-216h-843zM279 1672l-93 130l263 285h218l264 -285l-91 -128l-283 201z" />
    <glyph glyph-name="Edieresis" unicode="&#xcb;" 
d="M123 0v1489h843v-216h-556v-363h486v-217h-486v-477h556v-216h-843zM888 1799q0 -122 -138 -122q-61 1 -99 27t-38 95v20q-1 127 137 127t138 -127v-20zM523 1799q0 -122 -138 -122q-61 1 -99 27t-38 95v20q0 127 138 127t137 -127v-20z" />
    <glyph glyph-name="Igrave" unicode="&#xcc;" 
d="M123 0v216h279v1057h-279v216h845v-216h-279v-1057h279v-216h-845zM518 1676l-317 372h356l147 -372h-186z" />
    <glyph glyph-name="Iacute" unicode="&#xcd;" 
d="M123 0v216h279v1057h-279v216h845v-216h-279v-1057h279v-216h-845zM357 1676l146 372h355l-316 -372h-185z" />
    <glyph glyph-name="Icircumflex" unicode="&#xce;" 
d="M123 0v216h279v1057h-279v216h845v-216h-279v-1057h279v-216h-845zM266 1672l-93 130l263 285h217l265 -285l-91 -128l-283 201z" />
    <glyph glyph-name="Idieresis" unicode="&#xcf;" 
d="M123 0v216h279v1057h-279v216h845v-216h-279v-1057h279v-216h-845zM866 1799q0 -122 -138 -122q-62 1 -100 27t-38 95v20q0 127 138 127t138 -127v-20zM501 1799q0 -122 -138 -122q-61 1 -99 27t-39 95v20q0 127 138 127t138 -127v-20z" />
    <glyph glyph-name="Eth" unicode="&#xd0;" 
d="M410 216h108q89 0 126 70.5t37 253.5v402q0 186 -37 258.5t-126 72.5h-108v-357h136v-192h-136v-508zM123 0v724h-93v192h93v573h424q195 0 307 -144t112 -386v-436q0 -238 -112.5 -380.5t-306.5 -142.5h-424z" />
    <glyph glyph-name="Ntilde" unicode="&#xd1;" 
d="M365 0h-242v1489h307l294 -1122v1122h244v-1489h-331l-272 1108v-1108zM663 1886q56 0 56 138v39h180v-28q1 -155 -59 -248t-162 -93q-103 0 -162 93q-26 41 -44 72t-44 31t-43 -31t-14 -105v-41h-183v28q0 156 62 249t171 93q89 1 152 -93q28 -42 47 -73t43 -31z" />
    <glyph glyph-name="Ograve" unicode="&#xd2;" 
d="M546 197q78 -1 107 63t28 237v488q0 179 -28 243q-29 64 -107 64t-108 -64t-28 -243v-488q0 -173 29 -237t107 -63zM546 -19q-203 1 -312 133t-109 366v522q0 238 110 372t312 134q203 0 311 -134t108 -372v-522q0 -235 -108 -367t-312 -132zM518 1676l-317 372h356
l147 -372h-186z" />
    <glyph glyph-name="Oacute" unicode="&#xd3;" 
d="M546 197q78 -1 107 63t28 237v488q0 179 -28 243q-29 64 -107 64t-108 -64t-28 -243v-488q0 -173 29 -237t107 -63zM546 -19q-203 1 -312 133t-109 366v522q0 238 110 372t312 134q203 0 311 -134t108 -372v-522q0 -235 -108 -367t-312 -132zM398 1676l146 372h355
l-316 -372h-185z" />
    <glyph glyph-name="Ocircumflex" unicode="&#xd4;" 
d="M546 197q78 -1 107 63t28 237v488q0 179 -28 243q-29 64 -107 64t-108 -64t-28 -243v-488q0 -173 29 -237t107 -63zM546 -19q-203 1 -312 133t-109 366v522q0 238 110 372t312 134q203 0 311 -134t108 -372v-522q0 -235 -108 -367t-312 -132zM266 1672l-93 130l263 285
h217l265 -285l-91 -128l-283 201z" />
    <glyph glyph-name="Otilde" unicode="&#xd5;" 
d="M546 197q78 -1 107 63t28 237v488q0 179 -28 243q-29 64 -107 64t-108 -64t-28 -243v-488q0 -173 29 -237t107 -63zM546 -19q-203 1 -312 133t-109 366v522q0 238 110 372t312 134q203 0 311 -134t108 -372v-522q0 -235 -108 -367t-312 -132zM665 1886q56 0 56 138v39
h180v-28q1 -155 -59 -248t-162 -93q-103 0 -162 93q-26 41 -44 72t-44 31q-62 0 -58 -136v-41h-182v28q0 156 62 249t171 93q89 1 152 -93q28 -42 47 -73t43 -31z" />
    <glyph glyph-name="Odieresis" unicode="&#xd6;" 
d="M546 197q78 -1 107 63t28 237v488q0 179 -28 243q-29 64 -107 64t-108 -64t-28 -243v-488q0 -173 29 -237t107 -63zM546 -19q-203 1 -312 133t-109 366v522q0 238 110 372t312 134q203 0 311 -134t108 -372v-522q0 -235 -108 -367t-312 -132zM866 1799q0 -122 -138 -122
q-62 1 -100 27t-38 95v20q0 127 138 127t138 -127v-20zM501 1799q0 -122 -138 -122q-61 1 -99 27t-39 95v20q0 127 138 127t138 -127v-20z" />
    <glyph glyph-name="multiply" unicode="&#xd7;" 
d="M305 80l-165 115l258 457l-251 445l158 128l241 -423l240 417l164 -119l-259 -448l259 -449l-164 -119l-240 417z" />
    <glyph glyph-name="Oslash" unicode="&#xd8;" 
d="M966 985v-488q0 -244 -109.5 -380t-310.5 -136q-54 0 -122 17l-59 -184h-197l91 275q-134 130 -134 408v488q0 246 109.5 384.5t311.5 138.5q68 0 121 -15l59 183h197l-87 -281q130 -134 130 -410zM546 197q93 0 128 68t35 247v397q0 60 -9 89l-222 -788q28 -13 68 -13z
M546 1292q-93 0 -128.5 -70t-35.5 -252v-458q0 -36 5 -69l229 834q-32 15 -70 15z" />
    <glyph glyph-name="Ugrave" unicode="&#xd9;" 
d="M546 -19q-216 1 -320 129t-103 395v984h287v-988q0 -168 28 -231t108 -63q78 0 107 63t28 231v988h287v-984q0 -266 -103 -395t-319 -129zM518 1676l-317 372h356l147 -372h-186z" />
    <glyph glyph-name="Uacute" unicode="&#xda;" 
d="M546 -19q-216 1 -320 129t-103 395v984h287v-988q0 -168 28 -231t108 -63q78 0 107 63t28 231v988h287v-984q0 -266 -103 -395t-319 -129zM357 1676l146 372h355l-316 -372h-185z" />
    <glyph glyph-name="Ucircumflex" unicode="&#xdb;" 
d="M546 -19q-216 1 -320 129t-103 395v984h287v-988q0 -168 28 -231t108 -63q78 0 107 63t28 231v988h287v-984q0 -266 -103 -395t-319 -129zM266 1672l-93 130l263 285h217l265 -285l-91 -128l-283 201z" />
    <glyph glyph-name="Udieresis" unicode="&#xdc;" 
d="M546 -19q-216 1 -320 129t-103 395v984h287v-988q0 -168 28 -231t108 -63q78 0 107 63t28 231v988h287v-984q0 -266 -103 -395t-319 -129zM866 1799q0 -122 -138 -122q-62 1 -100 27t-38 95v20q0 127 138 127t138 -127v-20zM501 1799q0 -122 -138 -122q-61 1 -99 27
t-39 95v20q0 127 138 127t138 -127v-20z" />
    <glyph glyph-name="Yacute" unicode="&#xdd;" 
d="M689 0h-287v559l-344 930h283l203 -631l204 631h283l-342 -930v-559zM357 1676l146 372h355l-316 -372h-185z" />
    <glyph glyph-name="Thorn" unicode="&#xde;" 
d="M410 469h104q95 0 130.5 43t35.5 153v182q0 108 -35.5 150t-130.5 42h-104v-570zM123 0v1489h287v-234h150q197 0 301.5 -100.5t104.5 -292.5v-218q0 -188 -104 -288.5t-300 -100.5h-152v-255h-287z" />
    <glyph glyph-name="germandbls" unicode="&#xdf;" 
d="M671 173q79 -1 79 123q0 62 -31 97t-109 81t-116 111t-38 182t51.5 198t136.5 106q-4 123 -34.5 175t-98.5 52t-98.5 -53t-30.5 -173v-1072h-270v1097q0 210 115.5 308.5t291.5 98.5t279 -126.5t103 -325.5v-110q-101 -7 -153 -46.5t-52 -103.5t33.5 -98t107.5 -82
t113.5 -114t39.5 -172q0 -160 -78 -248.5t-210 -88.5q-74 0 -142 31.5t-115 83.5l56 173q43 -39 85.5 -71.5t84.5 -32.5z" />
    <glyph glyph-name="agrave" unicode="&#xe0;" 
d="M372 -19q-108 -1 -185 89t-77 237t83 230t218 83h202v164q0 78 -30 112q-31 34 -91 34t-88 -37q-28 -38 -43 -139l-229 47q30 175 118 255t262 80t273 -78q98 -78 98 -259v-482q0 -82 31 -104q32 -21 91 -6v-205q-234 -55 -290 153h-41q-42 -74 -118 -124t-184 -50z
M367 313q0 -144 98 -144q85 0 148 92v199h-157q-48 0 -68 -31t-21 -116zM503 1303l-317 373h356l147 -373h-186z" />
    <glyph glyph-name="aacute" unicode="&#xe1;" 
d="M372 -19q-108 -1 -185 89t-77 237t83 230t218 83h202v164q0 78 -30 112q-31 34 -91 34t-88 -37q-28 -38 -43 -139l-229 47q30 175 118 255t262 80t273 -78q98 -78 98 -259v-482q0 -82 31 -104q32 -21 91 -6v-205q-234 -55 -290 153h-41q-42 -74 -118 -124t-184 -50z
M367 313q0 -144 98 -144q85 0 148 92v199h-157q-48 0 -68 -31t-21 -116zM343 1303l145 373h355l-316 -373h-184z" />
    <glyph glyph-name="acircumflex" unicode="&#xe2;" 
d="M372 -19q-108 -1 -185 89t-77 237t83 230t218 83h202v164q0 78 -30 112q-31 34 -91 34t-88 -37q-28 -38 -43 -139l-229 47q30 175 118 255t262 80t273 -78q98 -78 98 -259v-482q0 -82 31 -104q32 -21 91 -6v-205q-234 -55 -290 153h-41q-42 -74 -118 -124t-184 -50z
M367 313q0 -144 98 -144q85 0 148 92v199h-157q-48 0 -68 -31t-21 -116zM251 1300l-93 130l263 285h218l264 -285l-91 -129l-283 201z" />
    <glyph glyph-name="atilde" unicode="&#xe3;" 
d="M372 -19q-108 -1 -185 89t-77 237t83 230t218 83h202v164q0 78 -30 112q-31 34 -91 34t-88 -37q-28 -38 -43 -139l-229 47q30 175 118 255t262 80t273 -78q98 -78 98 -259v-482q0 -82 31 -104q32 -21 91 -6v-205q-234 -55 -290 153h-41q-42 -74 -118 -124t-184 -50z
M367 313q0 -144 98 -144q85 0 148 92v199h-157q-48 0 -68 -31t-21 -116zM706 1651v40h180v-28q0 -155 -60 -248t-161 -93q-103 0 -162 93q-26 41 -44 72t-44 30q-62 0 -58 -136v-40h-182v27q0 156 62 250t171 93q89 0 152 -94q28 -42 47 -73t43 -30q56 0 56 137z" />
    <glyph glyph-name="adieresis" unicode="&#xe4;" 
d="M372 -19q-108 -1 -185 89t-77 237t83 230t218 83h202v164q0 78 -30 112q-31 34 -91 34t-88 -37q-28 -38 -43 -139l-229 47q30 175 118 255t262 80t273 -78q98 -78 98 -259v-482q0 -82 31 -104q32 -21 91 -6v-205q-234 -55 -290 153h-41q-42 -74 -118 -124t-184 -50z
M367 313q0 -144 98 -144q85 0 148 92v199h-157q-48 0 -68 -31t-21 -116zM713 1573q138 0 138 -126v-21q0 -69 -39 -95q-40 -26 -100 -26t-99 26q-38 26 -38 95v21q0 126 138 126zM348 1573q138 0 138 -126v-21q0 -69 -39 -95t-99 -26t-99 26q-38 26 -39 95v21q0 126 138 126
z" />
    <glyph glyph-name="aring" unicode="&#xe5;" 
d="M372 -19q-108 -1 -185 89t-77 237t83 230t218 83h202v164q0 78 -30 112q-31 34 -91 34t-88 -37q-28 -38 -43 -139l-229 47q30 175 118 255t262 80t273 -78q98 -78 98 -259v-482q0 -82 31 -104q32 -21 91 -6v-205q-234 -55 -290 153h-41q-42 -74 -118 -124t-184 -50z
M367 313q0 -144 98 -144q85 0 148 92v199h-157q-48 0 -68 -31t-21 -116zM618 1605q0 136 -100 136t-101 -136v-60q-1 -71 25 -101t76 -29q100 0 100 130v60zM518 1268q-134 0 -216 68t-82 209v60q0 143 82 213t216 70t216 -70t81 -213v-60q1 -141 -81 -209t-216 -68z" />
    <glyph glyph-name="ae" unicode="&#xe6;" 
d="M311 313q0 -153 56 -153t93 73v236h-67q-41 0 -61.5 -34.5t-20.5 -121.5zM743 959q-69 0 -69 -173v-131h134v123q0 95 -15 138t-50 43zM734 162q54 0 78 141l193 -27q-32 -151 -101.5 -223t-164.5 -72q-139 0 -199 142h-47q-20 -58 -69.5 -100t-129.5 -42t-145 77.5
t-65 236.5t69 242t190 83h117v155q0 167 -67 167q-34 0 -49.5 -33.5t-38.5 -133.5l-201 46q30 166 93.5 240.5t169.5 74.5q138 0 186 -125q69 125 194 125q124 0 191 -96t67 -280v-255h-331v-207q0 -136 60 -136z" />
    <glyph glyph-name="ccedilla" unicode="&#xe7;" 
d="M558 -233q36 -1 55 21t19 96t-31 99q-21 -2 -44 -2q-201 -1 -310 103t-109 290v367q0 188 108 291q108 104 300 104t288 -98q97 -98 119 -303l-275 -18q-6 123 -36 166t-96 43t-95 -43q-29 -42 -28 -153v-346q1 -110 29 -152t96 -42t96 35t34 138l275 -19
q-12 -243 -177 -322q97 -61 97 -184t-83 -185q-83 -63 -225 -63t-224 55t-88 167l239 19q2 -35 16 -50q14 -14 50 -14z" />
    <glyph glyph-name="egrave" unicode="&#xe8;" 
d="M423 773v-106h244v100q0 101 -27 142t-95 41t-95 -39t-27 -138zM138 756q0 180 111 280t298 100t295 -104t109 -297v-230h-528v-148q-1 -93 33 -139t108 -45q74 0 112 32q37 32 50 113l233 -65q-37 -145 -127 -208t-278 -63q-187 0 -302 102t-114 287v385zM523 1303
l-316 373h355l147 -373h-186z" />
    <glyph glyph-name="eacute" unicode="&#xe9;" 
d="M423 773v-106h244v100q0 101 -27 142t-95 41t-95 -39t-27 -138zM138 756q0 180 111 280t298 100t295 -104t109 -297v-230h-528v-148q-1 -93 33 -139t108 -45q74 0 112 32q37 32 50 113l233 -65q-37 -145 -127 -208t-278 -63q-187 0 -302 102t-114 287v385zM393 1303
l145 373h356l-317 -373h-184z" />
    <glyph glyph-name="ecircumflex" unicode="&#xea;" 
d="M423 773v-106h244v100q0 101 -27 142t-95 41t-95 -39t-27 -138zM138 756q0 180 111 280t298 100t295 -104t109 -297v-230h-528v-148q-1 -93 33 -139t108 -45q74 0 112 32q37 32 50 113l233 -65q-37 -145 -127 -208t-278 -63q-187 0 -302 102t-114 287v385zM272 1300
l-93 130l262 285h218l264 -285l-91 -129l-283 201z" />
    <glyph glyph-name="edieresis" unicode="&#xeb;" 
d="M423 773v-106h244v100q0 101 -27 142t-95 41t-95 -39t-27 -138zM138 756q0 180 111 280t298 100t295 -104t109 -297v-230h-528v-148q-1 -93 33 -139t108 -45q74 0 112 32q37 32 50 113l233 -65q-37 -145 -127 -208t-278 -63q-187 0 -302 102t-114 287v385zM596 1447
q0 126 138 126t137 -126v-21q-1 -69 -39 -95t-98 -26t-100 26q-38 26 -38 95v21zM231 1447q-1 126 137 126t138 -126v-21q0 -69 -38 -95t-100 -26q-60 0 -99 26q-38 26 -38 95v21z" />
    <glyph glyph-name="igrave" unicode="&#xec;" 
d="M153 0v209h249v700h-249v208h536v-908h249v-209h-785zM547 1303l-316 373h355l148 -373h-187z" />
    <glyph glyph-name="iacute" unicode="&#xed;" 
d="M153 0v209h249v700h-249v208h536v-908h249v-209h-785zM357 1303l146 373h355l-316 -373h-185z" />
    <glyph glyph-name="icircumflex" unicode="&#xee;" 
d="M153 0v209h249v700h-249v208h536v-908h249v-209h-785zM266 1300l-93 130l263 285h217l265 -285l-91 -129l-283 201z" />
    <glyph glyph-name="idieresis" unicode="&#xef;" 
d="M153 0v209h249v700h-249v208h536v-908h249v-209h-785zM728 1573q138 0 138 -126v-21q0 -69 -39 -95t-99 -26t-100 26q-38 26 -38 95v21q0 126 138 126zM363 1573q138 0 138 -126v-21q0 -69 -39 -95q-40 -26 -100 -26t-99 26q-38 26 -38 95v21q0 126 138 126z" />
    <glyph glyph-name="eth" unicode="&#xf0;" 
d="M545.5 190q74.5 0 105 52t30.5 158v129q0 95 -30.5 143.5t-105 48.5t-104.5 -48.5t-30 -143.5v-129q0 -106 30 -158t104.5 -52zM968 694v-271q0 -229 -117 -335.5t-305.5 -106.5t-305.5 107t-117 323v131q0 179 88.5 284t229.5 105q88 0 144.5 -41t77.5 -97h30
q-17 215 -127 345l-233 -140v164l119 72q-83 60 -236 118l182 177q180 -61 293 -151l201 119v-164l-95 -58q171 -202 171 -581z" />
    <glyph glyph-name="ntilde" unicode="&#xf1;" 
d="M667 761q0 153 -95 153t-149 -126v-788h-285v1117h285v-156h42q30 83 95 129t149 46q114 0 178 -86t64 -238v-812h-284v761zM748 1651v40h181v-28q0 -155 -60 -248t-162 -93t-161 93q-26 41 -44 72t-44 30q-62 0 -58 -136v-40h-182v27q0 156 62 250t171 93q89 0 152 -94
q28 -42 47 -73t43 -30q55 0 55 137z" />
    <glyph glyph-name="ograve" unicode="&#xf2;" 
d="M547 190q63 0 93 42q29 42 28 142v361q0 102 -28 148q-28 45 -92 45t-94 -46q-30 -44 -30 -145v-357q0 -102 30 -146t93 -44zM953 363q0 -179 -109 -281t-298 -101q-190 -1 -298 103t-108 283v376q0 184 109 288q109 105 297 105t298 -106q109 -106 109 -291v-376z
M518 1303l-317 373h356l147 -373h-186z" />
    <glyph glyph-name="oacute" unicode="&#xf3;" 
d="M547 190q63 0 93 42q29 42 28 142v361q0 102 -28 148q-28 45 -92 45t-94 -46q-30 -44 -30 -145v-357q0 -102 30 -146t93 -44zM953 363q0 -179 -109 -281t-298 -101q-190 -1 -298 103t-108 283v376q0 184 109 288q109 105 297 105t298 -106q109 -106 109 -291v-376z
M357 1303l146 373h355l-316 -373h-185z" />
    <glyph glyph-name="ocircumflex" unicode="&#xf4;" 
d="M547 190q63 0 93 42q29 42 28 142v361q0 102 -28 148q-28 45 -92 45t-94 -46q-30 -44 -30 -145v-357q0 -102 30 -146t93 -44zM953 363q0 -179 -109 -281t-298 -101q-190 -1 -298 103t-108 283v376q0 184 109 288q109 105 297 105t298 -106q109 -106 109 -291v-376z
M266 1300l-93 130l263 285h217l265 -285l-91 -129l-283 201z" />
    <glyph glyph-name="otilde" unicode="&#xf5;" 
d="M547 190q63 0 93 42q29 42 28 142v361q0 102 -28 148q-28 45 -92 45t-94 -46q-30 -44 -30 -145v-357q0 -102 30 -146t93 -44zM953 363q0 -179 -109 -281t-298 -101q-190 -1 -298 103t-108 283v376q0 184 109 288q109 105 297 105t298 -106q109 -106 109 -291v-376z
M721 1651v40h180v-28q1 -155 -59 -248t-162 -93q-103 0 -162 93q-26 41 -44 72t-44 30q-62 0 -58 -136v-40h-182v27q0 156 62 250t171 93q89 0 152 -94q28 -42 47 -73t43 -30q56 0 56 137z" />
    <glyph glyph-name="odieresis" unicode="&#xf6;" 
d="M547 190q63 0 93 42q29 42 28 142v361q0 102 -28 148q-28 45 -92 45t-94 -46q-30 -44 -30 -145v-357q0 -102 30 -146t93 -44zM953 363q0 -179 -109 -281t-298 -101q-190 -1 -298 103t-108 283v376q0 184 109 288q109 105 297 105t298 -106q109 -106 109 -291v-376z
M728 1573q138 0 138 -126v-21q0 -69 -39 -95t-99 -26t-100 26q-38 26 -38 95v21q0 126 138 126zM363 1573q138 0 138 -126v-21q0 -69 -39 -95q-40 -26 -100 -26t-99 26q-38 26 -38 95v21q0 126 138 126z" />
    <glyph glyph-name="divide" unicode="&#xf7;" 
d="M545 37q-64 0 -105.5 31t-41.5 98v35q0 69 41 101.5t105 32.5t104.5 -32.5t40.5 -101.5v-35q0 -67 -40 -98t-104 -31zM140 542v219h810v-219h-810zM545 968q-64 0 -105.5 31t-41.5 98v35q0 69 41 101.5t105 32.5t104.5 -32.5t40.5 -101.5v-35q0 -67 -40 -98t-104 -31z
" />
    <glyph glyph-name="oslash" unicode="&#xf8;" 
d="M546 1136q74 0 122 -13l71 180h170l-95 -244q71 -50 112.5 -140t41.5 -202v-324q0 -195 -114 -303.5t-308 -108.5q-70 0 -122 13l-74 -180h-169l98 242q-73 50 -114.5 138.5t-41.5 198.5v324q0 199 114.5 309t308.5 110zM711 406v307q0 76 -15 117l-219 -638
q22 -10 69 -10q88 0 126.5 50.5t38.5 173.5zM380 711v-305q0 -82 15 -123l225 640q-34 12 -74 12q-88 0 -127 -52.5t-39 -171.5z" />
    <glyph glyph-name="ugrave" unicode="&#xf9;" 
d="M508 205q89 0 159 141v771h284v-1117h-284v156h-41q-24 -80 -95 -128t-169 -47q-98 0 -162 88q-62 88 -62 236v812h285v-745q0 -167 85 -167zM532 1303l-316 373h356l147 -373h-187z" />
    <glyph glyph-name="uacute" unicode="&#xfa;" 
d="M508 205q89 0 159 141v771h284v-1117h-284v156h-41q-24 -80 -95 -128t-169 -47q-98 0 -162 88q-62 88 -62 236v812h285v-745q0 -167 85 -167zM426 1303l146 373h355l-316 -373h-185z" />
    <glyph glyph-name="ucircumflex" unicode="&#xfb;" 
d="M508 205q89 0 159 141v771h284v-1117h-284v156h-41q-24 -80 -95 -128t-169 -47q-98 0 -162 88q-62 88 -62 236v812h285v-745q0 -167 85 -167zM279 1300l-93 130l263 285h218l264 -285l-91 -129l-283 201z" />
    <glyph glyph-name="udieresis" unicode="&#xfc;" 
d="M508 205q89 0 159 141v771h284v-1117h-284v156h-41q-24 -80 -95 -128t-169 -47q-98 0 -162 88q-62 88 -62 236v812h285v-745q0 -167 85 -167zM741 1573q138 0 138 -126v-21q0 -69 -39 -95q-40 -26 -100 -26t-99 26q-38 26 -38 95v21q0 126 138 126zM376 1573
q138 0 138 -126v-21q0 -69 -39 -95t-99 -26t-100 26q-38 26 -38 95v21q0 126 138 126z" />
    <glyph glyph-name="yacute" unicode="&#xfd;" 
d="M330 -389q-86 0 -226 20l15 209q111 -28 188 -27q76 1 124 48q47 47 68 148l6 25h-194l-223 1083h286l173 -875l177 875h278l-252 -1130q-45 -195 -148 -285t-272 -91zM384 1303l145 373h355l-316 -373h-184z" />
    <glyph glyph-name="thorn" unicode="&#xfe;" 
d="M607 -15q-104 0 -184 49v-406h-285v1861h285v-528h42q20 82 83 128.5t170 46.5t170 -86.5t63 -250.5v-428q0 -184 -90 -285t-254 -101zM550 192q62 0 89.5 42t27.5 138v395q0 147 -95 147q-90 0 -149 -113v-550q65 -59 127 -59z" />
    <glyph glyph-name="ydieresis" unicode="&#xff;" 
d="M330 -389q-86 0 -226 20l15 209q111 -28 188 -27q76 1 124 48q47 47 68 148l6 25h-194l-223 1083h286l173 -875l177 875h278l-252 -1130q-45 -195 -148 -285t-272 -91zM728 1573q138 0 138 -126v-21q0 -69 -39 -95t-99 -26t-100 26q-38 26 -38 95v21q0 126 138 126z
M363 1573q138 0 138 -126v-21q0 -69 -39 -95q-40 -26 -100 -26t-99 26q-38 26 -38 95v21q0 126 138 126z" />
    <glyph glyph-name="Amacron" unicode="&#x100;" 
d="M756 0l-63 387h-298l-71 -387h-255l302 1489h350l301 -1489h-266zM659 603l-108 656l-117 -656h225zM227 1754v216h633v-216h-633z" />
    <glyph glyph-name="amacron" unicode="&#x101;" 
d="M372 -19q-108 -1 -185 89t-77 237t83 230t218 83h202v164q0 78 -30 112q-31 34 -91 34t-88 -37q-28 -38 -43 -139l-229 47q30 175 118 255t262 80t273 -78q98 -78 98 -259v-482q0 -82 31 -104q32 -21 91 -6v-205q-234 -55 -290 153h-41q-42 -74 -118 -124t-184 -50z
M367 313q0 -144 98 -144q85 0 148 92v199h-157q-48 0 -68 -31t-21 -116zM201 1381v216h633v-216h-633z" />
    <glyph glyph-name="Abreve" unicode="&#x102;" 
d="M756 0l-63 387h-298l-71 -387h-255l302 1489h350l301 -1489h-266zM659 603l-108 656l-117 -656h225zM544 1663q-188 0 -281 102t-95 313h227q2 -134 34 -185q33 -50 115 -50t114 50t35 185h227q-2 -210 -95 -312t-281 -103z" />
    <glyph glyph-name="abreve" unicode="&#x103;" 
d="M372 -19q-108 -1 -185 89t-77 237t83 230t218 83h202v164q0 78 -30 112q-31 34 -91 34t-88 -37q-28 -38 -43 -139l-229 47q30 175 118 255t262 80t273 -78q98 -78 98 -259v-482q0 -82 31 -104q32 -21 91 -6v-205q-234 -55 -290 153h-41q-42 -74 -118 -124t-184 -50z
M367 313q0 -144 98 -144q85 0 148 92v199h-157q-48 0 -68 -31t-21 -116zM518 1471q82 0 114 50t35 184h227q-4 -415 -376 -415q-373 0 -377 415h228q3 -134 35 -184t114 -50z" />
    <glyph glyph-name="Aogonek" unicode="&#x104;" 
d="M659 603l-108 656l-117 -656h225zM903 -408q-121 0 -188 60t-67 174t102 210l-57 351h-298l-71 -387h-255l302 1489h350l301 -1489h-147q-30 -49 -30 -107q0 -59 25 -83t76 -24t139 19v-192q-121 -21 -182 -21z" />
    <glyph glyph-name="aogonek" unicode="&#x105;" 
d="M635 -179q0 138 127 235q-31 38 -47 99h-41q-42 -74 -118 -124t-184 -50q-108 -1 -185 89t-77 237t83 230t218 83h202v164q0 78 -30 112q-31 34 -91 34t-88 -37q-28 -38 -43 -139l-229 47q30 175 118 255t262 80t273 -78q98 -78 98 -259v-482q0 -82 31 -104q32 -21 91 -6
v-205q-85 -20 -146 -6q-27 -42 -27 -102t25 -84t76 -24t139 19v-192q-121 -21 -182 -21q-121 0 -188 60t-67 169zM367 313q0 -144 98 -144q85 0 148 92v199h-157q-48 0 -68 -31t-21 -116z" />
    <glyph glyph-name="Cacute" unicode="&#x106;" 
d="M125 985q0 523 448 523q215 0 319 -125t115 -396l-285 -19q-7 194 -39 259t-118 65q-87 0 -121 -71t-34 -253v-456q0 -168 34 -242t121 -73t119 65t38 252l285 -19q-9 -266 -113 -390t-324 -124q-218 1 -332 131t-113 385v488zM404 1676l145 372h356l-317 -372h-184z" />
    <glyph glyph-name="cacute" unicode="&#x107;" 
d="M554 -19q-198 -1 -307 103t-109 290v367q0 188 108 291q108 104 300 104t288 -98q97 -98 119 -303l-275 -18q-6 123 -36 166t-96 43t-95 -43q-29 -42 -28 -153v-346q1 -110 29 -152t96 -42t96 35t34 138l275 -19q-9 -188 -105 -276t-294 -87zM423 1303l145 373h355
l-316 -373h-184z" />
    <glyph glyph-name="Ccircumflex" unicode="&#x108;" 
d="M125 985q0 523 448 523q215 0 319 -125t115 -396l-285 -19q-7 194 -39 259t-118 65q-87 0 -121 -71t-34 -253v-456q0 -168 34 -242t121 -73t119 65t38 252l285 -19q-9 -266 -113 -390t-324 -124q-218 1 -332 131t-113 385v488zM287 1672l-93 130l262 285h218l264 -285
l-91 -128l-283 201z" />
    <glyph glyph-name="ccircumflex" unicode="&#x109;" 
d="M554 -19q-198 -1 -307 103t-109 290v367q0 188 108 291q108 104 300 104t288 -98q97 -98 119 -303l-275 -18q-6 123 -36 166t-96 43t-95 -43q-29 -42 -28 -153v-346q1 -110 29 -152t96 -42t96 35t34 138l275 -19q-9 -188 -105 -276t-294 -87zM274 1300l-93 130l262 285
h218l264 -285l-91 -129l-283 201z" />
    <glyph glyph-name="Cdotaccent" unicode="&#x10a;" 
d="M125 985q0 523 448 523q215 0 319 -125t115 -396l-285 -19q-7 194 -39 259t-118 65q-87 0 -121 -71t-34 -253v-456q0 -168 34 -242t121 -73t119 65t38 252l285 -19q-9 -266 -113 -390t-324 -124q-218 1 -332 131t-113 385v488zM566 1946q182 0 182 -127v-20
q0 -69 -51 -95t-131 -27q-80 1 -131 27t-51 95v20q0 127 182 127z" />
    <glyph glyph-name="cdotaccent" unicode="&#x10b;" 
d="M554 -19q-198 -1 -307 103t-109 290v367q0 188 108 291q108 104 300 104t288 -98q97 -98 119 -303l-275 -18q-6 123 -36 166t-96 43t-95 -43q-29 -42 -28 -153v-346q1 -110 29 -152t96 -42t96 35t34 138l275 -19q-9 -188 -105 -276t-294 -87zM553 1573q182 0 182 -126
v-21q0 -69 -51 -95t-131 -26t-131 26t-51 95v21q0 126 182 126z" />
    <glyph glyph-name="Ccaron" unicode="&#x10c;" 
d="M125 985q0 523 448 523q215 0 319 -125t115 -396l-285 -19q-7 194 -39 259t-118 65q-87 0 -121 -71t-34 -253v-456q0 -168 34 -242t121 -73t119 65t38 252l285 -19q-9 -266 -113 -390t-324 -124q-218 1 -332 131t-113 385v488zM458 1683l-264 285l91 130l283 -201
l277 201l93 -130l-262 -285h-218z" />
    <glyph glyph-name="ccaron" unicode="&#x10d;" 
d="M554 -19q-198 -1 -307 103t-109 290v367q0 188 108 291q108 104 300 104t288 -98q97 -98 119 -303l-275 -18q-6 123 -36 166t-96 43t-95 -43q-29 -42 -28 -153v-346q1 -110 29 -152t96 -42t96 35t34 138l275 -19q-9 -188 -105 -276t-294 -87zM445 1311l-264 285l91 130
l283 -201l277 201l93 -130l-262 -285h-218z" />
    <glyph glyph-name="Dcaron" unicode="&#x10e;" 
d="M410 216h108q89 0 126 71t37 253v402q0 186 -37 259t-126 72h-108v-1057zM123 0v1489h424q195 0 307 -144t112 -386v-436q0 -238 -112 -381q-113 -142 -307 -142h-424zM438 1683l-265 285l91 130l283 -201l278 201l93 -130l-263 -285h-217z" />
    <glyph glyph-name="dcaron" unicode="&#x10f;" 
d="M484 1132q101 0 183 -48v405h284v-1489h-284v156h-41q-20 -74 -78 -124t-150 -51q-130 -1 -195 101t-65 262v403q0 181 92 283t254 102zM423 378q0 -173 95 -173q89 0 149 112v551q-68 59 -130 59t-88 -42t-26 -140v-367zM1030 1313l68 549h352l-262 -549h-158z" />
    <glyph glyph-name="Dcroat" unicode="&#x110;" 
d="M410 216h108q89 0 126 70.5t37 253.5v402q0 186 -37 258.5t-126 72.5h-108v-357h136v-192h-136v-508zM123 0v724h-93v192h93v573h424q195 0 307 -144t112 -386v-436q0 -238 -112.5 -380.5t-306.5 -142.5h-424z" />
    <glyph glyph-name="dcroat" unicode="&#x111;" 
d="M626 156q-49 -175 -259 -175q-106 0 -167.5 93.5t-61.5 269.5v293q0 188 82 286.5t238 98.5q111 0 209 -59v186h-222v165h222v175h284v-175h140v-165h-140v-1149h-284v156h-41zM423 378q0 -173 95 -173q87 0 149 112v452q-63 48 -127 48t-90.5 -43.5t-26.5 -138.5v-257z
" />
    <glyph glyph-name="Emacron" unicode="&#x112;" 
d="M123 0v1489h843v-216h-556v-363h486v-217h-486v-477h556v-216h-843zM242 1754v216h633v-216h-633z" />
    <glyph glyph-name="emacron" unicode="&#x113;" 
d="M423 773v-106h244v100q0 101 -27 142t-95 41t-95 -39t-27 -138zM138 756q0 180 111 280t298 100t295 -104t109 -297v-230h-528v-148q-1 -93 33 -139t108 -45q74 0 112 32q37 32 50 113l233 -65q-37 -145 -127 -208t-278 -63q-187 0 -302 102t-114 287v385zM235 1381v216
h633v-216h-633z" />
    <glyph glyph-name="Ebreve" unicode="&#x114;" 
d="M123 0v1489h843v-216h-556v-363h486v-217h-486v-477h556v-216h-843zM559 1663q-188 0 -282 102q-93 102 -95 313h228q2 -134 34 -185q33 -50 115 -50q83 0 115 50t33 185h228q-2 -210 -95 -312t-281 -103z" />
    <glyph glyph-name="ebreve" unicode="&#x115;" 
d="M423 773v-106h244v100q0 101 -27 142t-95 41t-95 -39t-27 -138zM138 756q0 180 111 280t298 100t295 -104t109 -297v-230h-528v-148q-1 -93 33 -139t108 -45q74 0 112 32q37 32 50 113l233 -65q-37 -145 -127 -208t-278 -63q-187 0 -302 102t-114 287v385zM538 1471
q82 0 115 50t34 184h227q-4 -415 -376 -415q-188 0 -281 102t-95 313h227q2 -134 35 -184q32 -50 114 -50z" />
    <glyph glyph-name="Edotaccent" unicode="&#x116;" 
d="M123 0v1489h843v-216h-556v-363h486v-217h-486v-477h556v-216h-843zM376 1819q0 127 182 127t183 -127v-20q0 -69 -51 -95t-131 -27q-79 1 -131 27t-52 95v20z" />
    <glyph glyph-name="edotaccent" unicode="&#x117;" 
d="M423 773v-106h244v100q0 101 -27 142t-95 41t-95 -39t-27 -138zM138 756q0 180 111 280t298 100t295 -104t109 -297v-230h-528v-148q-1 -93 33 -139t108 -45q74 0 112 32q37 32 50 113l233 -65q-37 -145 -127 -208t-278 -63q-187 0 -302 102t-114 287v385zM369 1447
q0 126 182 126t183 -126v-21q0 -69 -52 -95t-131 -26q-80 0 -131 26t-51 95v21z" />
    <glyph glyph-name="Eogonek" unicode="&#x118;" 
d="M786 -408q-121 0 -188 60t-67 162t65 182q2 2 3 4h-476v1489h843v-216h-556v-363h486v-217h-486v-477h556v-216h-208q-30 -49 -30 -107q0 -59 25 -83t76 -24t139 19v-192q-121 -21 -182 -21z" />
    <glyph glyph-name="eogonek" unicode="&#x119;" 
d="M482 -190q0 98 54 172q-177 6 -288 105t-110 284v385q0 180 111 280t298 100t295 -104t109 -297v-230h-528v-148q-1 -93 33 -139t108 -45q74 0 112 32q37 32 50 113l233 -65q-37 -145 -128 -208q-49 -35 -125 -51q-27 -46 -27 -102q1 -58 26 -82t75 -24t140 19v-192
q-121 -21 -183 -21q-121 0 -188 60t-67 158zM423 773v-106h244v100q0 101 -27 142t-95 41t-95 -39t-27 -138z" />
    <glyph glyph-name="Ecaron" unicode="&#x11a;" 
d="M123 0v1489h843v-216h-556v-363h486v-217h-486v-477h556v-216h-843zM449 1683l-265 285l92 130l283 -201l277 201l93 -130l-262 -285h-218z" />
    <glyph glyph-name="ecaron" unicode="&#x11b;" 
d="M423 773v-106h244v100q0 101 -27 142t-95 41t-95 -39t-27 -138zM138 756q0 180 111 280t298 100t295 -104t109 -297v-230h-528v-148q-1 -93 33 -139t108 -45q74 0 112 32q37 32 50 113l233 -65q-37 -145 -127 -208t-278 -63q-187 0 -302 102t-114 287v385zM443 1311
l-264 285l91 130l283 -201l277 201l93 -130l-262 -285h-218z" />
    <glyph glyph-name="Gcircumflex" unicode="&#x11c;" 
d="M974 493q0 -249 -112 -381t-316 -131q-204 0 -313 135q-108 135 -108 368v520q0 238 110 371t315 133q206 0 306 -114t110 -353l-285 -19q-9 156 -37 213t-106 57t-102 -79q-26 -79 -26 -224v-490q0 -145 25 -223t113 -78t115 84q26 85 24 241h-134v218h421v-248z
M264 1672l-93 130l263 285h218l264 -285l-91 -128l-283 201z" />
    <glyph glyph-name="gcircumflex" unicode="&#x11d;" 
d="M765 -97q0 119 -102 119h-298v-110q1 -62 21 -96t83 -34h190q47 0 77 25t29 96zM626 802q0 142 -101 142q-54 0 -78 -35t-24 -107v-72q0 -73 22 -110t78 -37t79 37t24 110v72zM434 430q-101 0 -101 -102t99 -101h244q146 0 232 -72q86 -71 86 -225t-88 -238t-239 -83
h-239q-169 0 -250 71t-81 197q0 91 45 146q46 55 109 65v37q-121 40 -123 192q0 91 56 154t136 76v34q-74 28 -113 86t-39 126v30q0 134 97 214q98 80 256 80h473v-184l-231 39v-36q52 -19 87 -73q34 -55 34 -116v-32q0 -132 -99 -209q-100 -76 -254 -76h-97zM281 1300
l-93 130l263 285h217l265 -285l-91 -129l-283 201z" />
    <glyph glyph-name="Gbreve" unicode="&#x11e;" 
d="M974 493q0 -249 -112 -381t-316 -131q-204 0 -313 135q-108 135 -108 368v520q0 238 110 371t315 133q206 0 306 -114t110 -353l-285 -19q-9 156 -37 213t-106 57t-102 -79q-26 -79 -26 -224v-490q0 -145 25 -223t113 -78t115 84q26 85 24 241h-134v218h421v-248z
M544 1663q-188 0 -281 102t-95 313h227q2 -134 34 -185q33 -50 115 -50t114 50t35 185h227q-2 -210 -95 -312t-281 -103z" />
    <glyph glyph-name="gbreve" unicode="&#x11f;" 
d="M765 -97q0 119 -102 119h-298v-110q1 -62 21 -96t83 -34h190q47 0 77 25t29 96zM626 802q0 142 -101 142q-54 0 -78 -35t-24 -107v-72q0 -73 22 -110t78 -37t79 37t24 110v72zM434 430q-101 0 -101 -102t99 -101h244q146 0 232 -72q86 -71 86 -225t-88 -238t-239 -83
h-239q-169 0 -250 71t-81 197q0 91 45 146q46 55 109 65v37q-121 40 -123 192q0 91 56 154t136 76v34q-74 28 -113 86t-39 126v30q0 134 97 214q98 80 256 80h473v-184l-231 39v-36q52 -19 87 -73q34 -55 34 -116v-32q0 -132 -99 -209q-100 -76 -254 -76h-97zM546 1471
q82 0 114 50t34 184h228q-4 -415 -376 -415q-373 0 -377 415h228q3 -134 35 -184t114 -50z" />
    <glyph glyph-name="Gdotaccent" unicode="&#x120;" 
d="M974 493q0 -249 -112 -381t-316 -131q-204 0 -313 135q-108 135 -108 368v520q0 238 110 371t315 133q206 0 306 -114t110 -353l-285 -19q-9 156 -37 213t-106 57t-102 -79q-26 -79 -26 -224v-490q0 -145 25 -223t113 -78t115 84q26 85 24 241h-134v218h421v-248z
M376 1819q0 127 182 127t183 -127v-20q0 -69 -51 -95t-131 -27q-79 1 -131 27t-52 95v20z" />
    <glyph glyph-name="gdotaccent" unicode="&#x121;" 
d="M765 -97q0 119 -102 119h-298v-110q1 -62 21 -96t83 -34h190q47 0 77 25t29 96zM626 802q0 142 -101 142q-54 0 -78 -35t-24 -107v-72q0 -73 22 -110t78 -37t79 37t24 110v72zM434 430q-101 0 -101 -102t99 -101h244q146 0 232 -72q86 -71 86 -225t-88 -238t-239 -83
h-239q-169 0 -250 71t-81 197q0 91 45 146q46 55 109 65v37q-121 40 -123 192q0 91 56 154t136 76v34q-74 28 -113 86t-39 126v30q0 134 97 214q98 80 256 80h473v-184l-231 39v-36q52 -19 87 -73q34 -55 34 -116v-32q0 -132 -99 -209q-100 -76 -254 -76h-97zM363 1447
q1 126 183 126t182 -126v-21q0 -69 -51 -95t-131 -26t-132 26q-51 26 -51 95v21z" />
    <glyph glyph-name="Gcommaaccent" unicode="&#x122;" 
d="M313 -559l91 373h354l-259 -373h-186zM974 493q0 -249 -112 -381t-316 -131q-204 0 -313 135q-108 135 -108 368v520q0 238 110 371t315 133q206 0 306 -114t110 -353l-285 -19q-9 156 -37 213t-106 57t-102 -79q-26 -79 -26 -224v-490q0 -145 25 -223t113 -78t115 84
q26 85 24 241h-134v218h421v-248z" />
    <glyph glyph-name="gcommaaccent" unicode="&#x123;" 
d="M765 -97q0 119 -102 119h-298v-110q1 -62 21 -96t83 -34h190q47 0 77 25t29 96zM626 802q0 142 -101 142q-54 0 -78 -35t-24 -107v-72q0 -73 22 -110t78 -37t79 37t24 110v72zM434 430q-101 0 -101 -102t99 -101h244q146 0 232 -72q86 -71 86 -225t-88 -238t-239 -83
h-239q-169 0 -250 71t-81 197q0 91 45 146q46 55 109 65v37q-121 40 -123 192q0 91 56 154t136 76v34q-74 28 -113 86t-39 126v30q0 134 97 214q98 80 256 80h473v-184l-231 39v-36q52 -19 87 -73q34 -55 34 -116v-32q0 -132 -99 -209q-100 -76 -254 -76h-97zM356 1303
l260 373h185l-90 -373h-355z" />
    <glyph glyph-name="Hcircumflex" unicode="&#x124;" 
d="M123 0v1489h287v-562h271v562h287v-1489h-287v709h-271v-709h-287zM266 1672l-93 130l263 285h217l265 -285l-91 -128l-283 201z" />
    <glyph glyph-name="hcircumflex" unicode="&#x125;" 
d="M423 0h-285v1489h285v-528h42q23 80 89 127q66 48 166 48t166 -87q65 -87 65 -237v-812h-284v763q0 151 -95 151t-149 -125v-789zM2 1672l-93 130l262 285h218l264 -285l-91 -128l-283 201z" />
    <glyph glyph-name="Hbar" unicode="&#x126;" 
d="M410 575v-575h-287v1035h-140v192h140v262h287v-262h271v262h287v-262h140v-192h-140v-1035h-287v575h-271zM410 793h271v242h-271v-242z" />
    <glyph glyph-name="hbar" unicode="&#x127;" 
d="M465 845q59 181 257 181q102 0 165.5 -80t63.5 -225v-721h-284v650q0 154 -87 154t-157 -149v-655h-285v1149h-140v165h140v175h285v-175h221v-165h-221v-304h42z" />
    <glyph glyph-name="Itilde" unicode="&#x128;" 
d="M123 0v216h279v1057h-279v216h845v-216h-279v-1057h279v-216h-845zM665 1886q56 0 56 138v39h180v-28q1 -155 -59 -248t-162 -93q-103 0 -162 93q-26 41 -44 72t-44 31q-62 0 -58 -136v-41h-182v28q0 156 62 249t171 93q89 1 152 -93q28 -42 47 -73t43 -31z" />
    <glyph glyph-name="itilde" unicode="&#x129;" 
d="M153 0v209h249v700h-249v208h536v-908h249v-209h-785zM721 1651v40h180v-28q1 -155 -59 -248t-162 -93q-103 0 -162 93q-26 41 -44 72t-44 30q-62 0 -58 -136v-40h-182v27q0 156 62 250t171 93q89 0 152 -94q28 -42 47 -73t43 -30q56 0 56 137z" />
    <glyph glyph-name="Imacron" unicode="&#x12a;" 
d="M123 0v216h279v1057h-279v216h845v-216h-279v-1057h279v-216h-845zM229 1754v216h633v-216h-633z" />
    <glyph glyph-name="imacron" unicode="&#x12b;" 
d="M153 0v209h249v700h-249v208h536v-908h249v-209h-785zM229 1381v216h633v-216h-633z" />
    <glyph glyph-name="Ibreve" unicode="&#x12c;" 
d="M123 0v216h279v1057h-279v216h845v-216h-279v-1057h279v-216h-845zM546 1663q-188 0 -282 102q-93 102 -95 313h228q2 -134 34 -185q33 -50 115 -50t114 50t34 185h228q-2 -210 -95 -312t-281 -103z" />
    <glyph glyph-name="ibreve" unicode="&#x12d;" 
d="M153 0v209h249v700h-249v208h536v-908h249v-209h-785zM546 1471q82 0 114 50t34 184h228q-4 -415 -376 -415q-373 0 -377 415h228q3 -134 35 -184t114 -50z" />
    <glyph glyph-name="Iogonek" unicode="&#x12e;" 
d="M668 -408q-121 0 -188 60t-67 162t65 182l4 4h-359v216h279v1057h-279v216h845v-216h-279v-1057h279v-216h-328q-29 -47 -29 -106q0 -60 25 -84t76 -24t139 19v-192q-121 -21 -183 -21z" />
    <glyph glyph-name="iogonek" unicode="&#x12f;" 
d="M378 1447q0 126 182 126t183 -126v-21q1 -69 -51 -95t-132 -26t-131 26t-51 95v21zM629 -408q-121 0 -188 60t-67 162t65 182q2 2 3 4h-289v209h249v700h-249v208h536v-908h249v-209h-337q-30 -49 -30 -107q1 -59 26 -83t75 -24t140 19v-192q-121 -21 -183 -21z" />
    <glyph glyph-name="Idotaccent" unicode="&#x130;" 
d="M123 0v216h279v1057h-279v216h845v-216h-279v-1057h279v-216h-845zM363 1819q1 127 183 127t182 -127v-20q0 -69 -51 -95t-131 -27q-80 1 -132 27t-51 95v20z" />
    <glyph glyph-name="dotlessi" unicode="&#x131;" 
d="M153 0v209h249v700h-249v208h536v-908h249v-209h-785z" />
    <glyph glyph-name="IJ" unicode="&#x132;" 
d="M979 423q0 -442 -276 -442q-146 0 -215 118.5t-67 386.5l212 20q-2 -195 11 -259.5t54 -64.5q67 0 67 241v867h-177v199h391v-1066zM324 0h-214v1489h214v-1489z" />
    <glyph glyph-name="ij" unicode="&#x133;" 
d="M707 20v889h-178v208h435v-1124q0 -199 -107.5 -290.5t-240.5 -91.5t-225 41l28 203q88 -37 154 -37q134 0 134 202zM408 0h-257v1117h257v-1117zM822.5 1573q167.5 0 167.5 -126v-21q0 -69 -47 -95t-121 -26t-120.5 26t-46.5 95v21q0 126 167.5 126zM99 1447
q0 126 166.5 126t166.5 -126v-21q0 -69 -46 -95t-120 -26t-120.5 26t-46.5 95v21z" />
    <glyph glyph-name="Jcircumflex" unicode="&#x134;" 
d="M938 460q0 -227 -100 -353t-318 -126q-220 1 -317 119t-106 403l285 20q9 -195 39 -260q31 -65 99 -65q135 -1 133 251v824h-323v216h608v-1029zM348 1672l-93 130l263 285h217l265 -285l-91 -128l-283 201z" />
    <glyph glyph-name="jcircumflex" unicode="&#x135;" 
d="M348 -182q179 0 179 202v889h-345v208h630v-1124q0 -177 -119 -280q-120 -102 -294 -102t-274 41l28 203q94 -37 195 -37zM341 1300l-93 130l262 285h218l264 -285l-91 -129l-283 201z" />
    <glyph glyph-name="Kcommaaccent" unicode="&#x136;" 
d="M410 670v-670h-287v1489h287v-601h54l258 601h330l-352 -685l346 -804h-324l-253 670h-59zM348 -559l91 373h354l-259 -373h-186z" />
    <glyph glyph-name="kcommaaccent" unicode="&#x137;" 
d="M436 484v-484h-287v1489h287v-809h50l210 437h293l-272 -512l268 -605h-304l-195 484h-50zM348 -559l91 373h354l-259 -373h-186z" />
    <glyph glyph-name="kgreenlandic" unicode="&#x138;" 
d="M436 484v-484h-287v1117h287v-437h50l210 437h293l-272 -512l268 -605h-304l-195 484h-50z" />
    <glyph glyph-name="Lacute" unicode="&#x139;" 
d="M194 0v1489h284v-1273h490v-216h-774zM192 1676l145 372h356l-317 -372h-184z" />
    <glyph glyph-name="lacute" unicode="&#x13a;" 
d="M166 0v209h266v1072h-266v208h551v-1280h251v-209h-802zM348 1676l145 372h356l-317 -372h-184z" />
    <glyph glyph-name="Lcommaaccent" unicode="&#x13b;" 
d="M194 0v1489h284v-1273h490v-216h-774zM378 -559l91 373h354l-259 -373h-186z" />
    <glyph glyph-name="lcommaaccent" unicode="&#x13c;" 
d="M166 0v209h266v1072h-266v208h551v-1280h251v-209h-802zM292 -559l92 373h353l-259 -373h-186z" />
    <glyph glyph-name="Lcaron" unicode="&#x13d;" 
d="M194 0v1489h284v-1273h490v-216h-774zM611 940l69 549h351l-262 -549h-158z" />
    <glyph glyph-name="lcaron" unicode="&#x13e;" 
d="M166 0v209h266v1072h-266v208h551v-1280h251v-209h-802zM821 1313l69 549h352l-263 -549h-158z" />
    <glyph glyph-name="Ldot" unicode="&#x13f;" 
d="M194 0v1489h284v-1273h490v-216h-774zM698 881q0 126 182 126t183 -126v-21q0 -69 -51 -95t-131 -26t-132 26q-51 26 -51 95v21z" />
    <glyph glyph-name="ldot" unicode="&#x140;" 
d="M166 0v209h266v1072h-266v208h551v-1280h251v-209h-802zM860 735q0 127 182 127t183 -127v-20q0 -69 -51 -95t-131 -26t-132 26q-51 26 -51 95v20z" />
    <glyph glyph-name="Lslash" unicode="&#x141;" 
d="M194 0v627l-97 -37v181l97 37v681h284v-567l321 126v-180l-321 -127v-525h490v-216h-774z" />
    <glyph glyph-name="lslash" unicode="&#x142;" 
d="M166 0v209h266v418l-223 -74v181l223 76v471h-266v208h551v-582l121 41v-183l-121 -41v-515h251v-209h-802z" />
    <glyph glyph-name="Nacute" unicode="&#x143;" 
d="M365 0h-242v1489h307l294 -1122v1122h244v-1489h-331l-272 1108v-1108zM398 1676l146 372h355l-316 -372h-185z" />
    <glyph glyph-name="nacute" unicode="&#x144;" 
d="M667 761q0 153 -95 153t-149 -126v-788h-285v1117h285v-156h42q30 83 95 129t149 46q114 0 178 -86t64 -238v-812h-284v761zM385 1303l146 373h355l-316 -373h-185z" />
    <glyph glyph-name="Ncommaaccent" unicode="&#x145;" 
d="M317 -559l91 373h353l-258 -373h-186zM365 0h-242v1489h307l294 -1122v1122h244v-1489h-331l-272 1108v-1108z" />
    <glyph glyph-name="ncommaaccent" unicode="&#x146;" 
d="M315 -559l91 373h354l-259 -373h-186zM667 761q0 153 -95 153t-149 -126v-788h-285v1117h285v-156h42q30 83 95 129t149 46q114 0 178 -86t64 -238v-812h-284v761z" />
    <glyph glyph-name="Ncaron" unicode="&#x147;" 
d="M365 0h-242v1489h307l294 -1122v1122h244v-1489h-331l-272 1108v-1108zM436 1683l-265 285l92 130l283 -201l277 201l93 -130l-263 -285h-217z" />
    <glyph glyph-name="ncaron" unicode="&#x148;" 
d="M667 761q0 153 -95 153t-149 -126v-788h-285v1117h285v-156h42q30 83 95 129t149 46q114 0 178 -86t64 -238v-812h-284v761zM465 1311l-264 285l91 130l283 -201l278 201l93 -130l-263 -285h-218z" />
    <glyph glyph-name="napostrophe" unicode="&#x149;" 
d="M667 761q0 153 -95 153t-149 -126v-788h-285v1117h285v-156h42q30 83 95 129t149 46q114 0 178 -86t64 -238v-812h-284v761zM7 1303l146 373h355l-316 -373h-185z" />
    <glyph glyph-name="Eng" unicode="&#x14a;" 
d="M451 1301q71 207 273 207q100 0 172 -88.5t72 -254.5v-1163q0 -184 -94 -287.5t-260 -103.5q-92 0 -190 52l28 203q76 -48 126 -48q103 0 103 212v1065q0 192 -95 192q-87 0 -176 -175v-1112h-287v1489h287v-188h41z" />
    <glyph glyph-name="eng" unicode="&#x14b;" 
d="M667 761q0 153 -95 153t-149 -126v-788h-285v1117h285v-156h42q30 82 95.5 128.5t148.5 46.5q114 0 178 -86t64 -238l2 -831q0 -192 -105 -281t-217 -89t-212 41l28 203q76 -37 126 -37q94 0 94 191v752z" />
    <glyph glyph-name="Omacron" unicode="&#x14c;" 
d="M546 197q78 -1 107 63t28 237v488q0 179 -28 243q-29 64 -107 64t-108 -64t-28 -243v-488q0 -173 29 -237t107 -63zM546 -19q-203 1 -312 133t-109 366v522q0 238 110 372t312 134q203 0 311 -134t108 -372v-522q0 -235 -108 -367t-312 -132zM229 1754v216h633v-216h-633
z" />
    <glyph glyph-name="omacron" unicode="&#x14d;" 
d="M547 190q63 0 93 42q29 42 28 142v361q0 102 -28 148q-28 45 -92 45t-94 -46q-30 -44 -30 -145v-357q0 -102 30 -146t93 -44zM953 363q0 -179 -109 -281t-298 -101q-190 -1 -298 103t-108 283v376q0 184 109 288q109 105 297 105t298 -106q109 -106 109 -291v-376z
M229 1381v216h633v-216h-633z" />
    <glyph glyph-name="Obreve" unicode="&#x14e;" 
d="M546 197q78 -1 107 63t28 237v488q0 179 -28 243q-29 64 -107 64t-108 -64t-28 -243v-488q0 -173 29 -237t107 -63zM546 -19q-203 1 -312 133t-109 366v522q0 238 110 372t312 134q203 0 311 -134t108 -372v-522q0 -235 -108 -367t-312 -132zM546 1663q-188 0 -282 102
q-93 102 -95 313h228q2 -134 34 -185q33 -50 115 -50t114 50t34 185h228q-2 -210 -95 -312t-281 -103z" />
    <glyph glyph-name="obreve" unicode="&#x14f;" 
d="M547 190q63 0 93 42q29 42 28 142v361q0 102 -28 148q-28 45 -92 45t-94 -46q-30 -44 -30 -145v-357q0 -102 30 -146t93 -44zM953 363q0 -179 -109 -281t-298 -101q-190 -1 -298 103t-108 283v376q0 184 109 288q109 105 297 105t298 -106q109 -106 109 -291v-376z
M559 1471q83 0 115 50t33 184h228q-5 -415 -377 -415q-373 0 -376 415h228q2 -134 34 -184t115 -50z" />
    <glyph glyph-name="Ohungarumlaut" unicode="&#x150;" 
d="M546 197q78 -1 107 63t28 237v488q0 179 -28 243q-29 64 -107 64t-108 -64t-28 -243v-488q0 -173 29 -237t107 -63zM546 -19q-203 1 -312 133t-109 366v522q0 238 110 372t312 134q203 0 311 -134t108 -372v-522q0 -235 -108 -367t-312 -132zM302 1676l63 372h270
l-190 -372h-143zM624 1676l63 372h268l-190 -372h-141z" />
    <glyph glyph-name="ohungarumlaut" unicode="&#x151;" 
d="M547 190q63 0 93 42q29 42 28 142v361q0 102 -28 148q-28 45 -92 45t-94 -46q-30 -44 -30 -145v-357q0 -102 30 -146t93 -44zM953 363q0 -179 -109 -281t-298 -101q-190 -1 -298 103t-108 283v376q0 184 109 288q109 105 297 105t298 -106q109 -106 109 -291v-376z
M287 1303l63 373h270l-190 -373h-143zM609 1303l63 373h268l-190 -373h-141z" />
    <glyph glyph-name="OE" unicode="&#x152;" 
d="M464 207h52v1076h-52q-63 0 -93 -66t-30 -219v-506q0 -153 30 -219t93 -66zM447 0q-162 0 -254 135t-92 360v499q0 225 92 360t254 135h557v-197h-246v-382h175v-199h-175v-514h246v-197h-557z" />
    <glyph glyph-name="oe" unicode="&#x153;" 
d="M384 179q34 0 47.5 39t13.5 128v427q0 84 -13.5 124.5t-47.5 40.5t-45 -41.5t-11 -125.5v-425q0 -89 11 -128t45 -39zM702 946q-58 0 -58 -131v-160h117v157q0 69 -12 101.5t-47 32.5zM732 1136q106 0 177.5 -87.5t71.5 -272.5v-271h-337v-216q0 -65 17 -96t56 -31
t60.5 26t34.5 106l182 -30q-24 -155 -88 -219t-169 -64q-139 0 -206 123q-60 -123 -171 -123q-110 0 -181 93.5t-71 284.5v391q0 195 71.5 290.5t181.5 95.5t170 -123q65 123 201 123z" />
    <glyph glyph-name="Racute" unicode="&#x154;" 
d="M410 0h-287v1489h463q179 0 271 -102t93 -298v-125q0 -310 -198 -381l238 -583h-296l-225 553h-59v-553zM410 767h130q69 0 104 43t36 156v116q0 112 -36 152t-104 39h-130v-506zM389 1676l145 372h356l-317 -372h-184z" />
    <glyph glyph-name="racute" unicode="&#x155;" 
d="M966 825v-190h-255v104q0 97 -21 136q-20 39 -72 39q-117 0 -169 -151v-763h-285v1117h285v-188h43q57 205 255 207q219 0 219 -311zM391 1303l145 373h356l-317 -373h-184z" />
    <glyph glyph-name="Rcommaaccent" unicode="&#x156;" 
d="M410 0h-287v1489h463q179 0 271 -102t93 -298v-125q0 -310 -198 -381l238 -583h-296l-225 553h-59v-553zM410 767h130q69 0 104 43t36 156v116q0 112 -36 152t-104 39h-130v-506zM279 -559l92 373h353l-259 -373h-186z" />
    <glyph glyph-name="rcommaaccent" unicode="&#x157;" 
d="M966 825v-190h-255v104q0 97 -21 136q-20 39 -72 39q-117 0 -169 -151v-763h-285v1117h285v-188h43q57 205 255 207q219 0 219 -311zM91 -559l91 373h354l-259 -373h-186z" />
    <glyph glyph-name="Rcaron" unicode="&#x158;" 
d="M410 0h-287v1489h463q179 0 271 -102t93 -298v-125q0 -310 -198 -381l238 -583h-296l-225 553h-59v-553zM410 767h130q69 0 104 43t36 156v116q0 112 -36 152t-104 39h-130v-506zM413 1683l-264 285l91 130l283 -201l278 201l93 -130l-263 -285h-218z" />
    <glyph glyph-name="rcaron" unicode="&#x159;" 
d="M966 825v-190h-255v104q0 97 -21 136q-20 39 -72 39q-117 0 -169 -151v-763h-285v1117h285v-188h43q57 205 255 207q219 0 219 -311zM471 1311l-264 285l91 130l283 -201l277 201l93 -130l-262 -285h-218z" />
    <glyph glyph-name="Sacute" unicode="&#x15a;" 
d="M162 337q194 -138 356 -138q178 0 178 192q0 95 -49 141t-207 118t-232 171q-76 99 -76 272t110 291t313 118t361 -130l-35 -208q-163 119 -306 119q-76 0 -117 -45q-41 -46 -41 -132t50 -130t207 -120q157 -78 232 -178t75 -250q-1 -205 -125 -325t-343 -120t-399 134z
M354 1676l145 372h356l-317 -372h-184z" />
    <glyph glyph-name="sacute" unicode="&#x15b;" 
d="M563 944q-125 0 -125 -110q0 -58 44 -88t200 -84q156 -55 218 -130t62 -216t-115 -236q-116 -95 -326 -95q-115 0 -219 35t-175 84l63 181q189 -110 339 -109q149 1 149 120q0 65 -36 94t-192 81q-156 53 -226 129t-70 216t105 229q104 91 297 91t349 -112l-49 -175
q-168 95 -293 95zM369 1303l145 373h355l-316 -373h-184z" />
    <glyph glyph-name="Scircumflex" unicode="&#x15c;" 
d="M162 337q194 -138 356 -138q178 0 178 192q0 95 -49 141t-207 118t-232 171q-76 99 -76 272t110 291t313 118t361 -130l-35 -208q-163 119 -306 119q-76 0 -117 -45q-41 -46 -41 -132t50 -130t207 -120q157 -78 232 -178t75 -250q-1 -205 -125 -325t-343 -120t-399 134z
M263 1672l-94 130l263 285h218l264 -285l-91 -128l-283 201z" />
    <glyph glyph-name="scircumflex" unicode="&#x15d;" 
d="M563 944q-125 0 -125 -110q0 -58 44 -88t200 -84q156 -55 218 -130t62 -216t-115 -236q-116 -95 -326 -95q-115 0 -219 35t-175 84l63 181q189 -110 339 -109q149 1 149 120q0 65 -36 94t-192 81q-156 53 -226 129t-70 216t105 229q104 91 297 91t349 -112l-49 -175
q-168 95 -293 95zM263 1300l-94 130l263 285h218l264 -285l-91 -129l-283 201z" />
    <glyph glyph-name="Scedilla" unicode="&#x15e;" 
d="M162 337q194 -138 356 -138q178 0 178 192q0 95 -49 141t-207 118t-232 171q-76 99 -76 272t110 291t313 118t361 -130l-35 -208q-163 119 -306 119q-76 0 -117 -45q-41 -46 -41 -132t50 -130t207 -120q157 -78 232 -178t75 -250q0 -205 -125 -325q-60 -58 -140 -87
q11 -7 19 -16q67 -60 67 -172t-82 -175t-226 -63q-142 0 -224 55t-88 167l239 19q2 -35 17 -49t50 -15t54 21q18 22 18 96t-30 99h-14q-221 0 -402 134z" />
    <glyph glyph-name="scedilla" unicode="&#x15f;" 
d="M678 296q0 65 -36 94t-192 81q-156 53 -226 129t-70 216t105 229q104 91 297 91t349 -112l-49 -175q-168 95 -293 95t-125 -110q0 -58 44 -88t200 -84q156 -55 218 -130t62 -216t-115 -236q-57 -47 -138 -71q79 -53 79 -173q0 -121 -83 -183q-83 -63 -225 -63t-225 55
q-82 55 -87 167l238 19q2 -35 17 -49t50 -15t54 21t19 97t-33 100q-111 1 -213 35t-173 84l63 181q189 -110 339 -109q149 1 149 120z" />
    <glyph glyph-name="Scaron" unicode="&#x160;" 
d="M162 337q194 -138 356 -138q178 0 178 192q0 95 -49 141t-207 118t-232 171q-76 99 -76 272t110 291t313 118t361 -130l-35 -208q-163 119 -306 119q-76 0 -117 -45q-41 -46 -41 -132t50 -130t207 -120q157 -78 232 -178t75 -250q-1 -205 -125 -325t-343 -120t-399 134z
M434 1683l-265 285l92 130l283 -201l277 201l93 -130l-262 -285h-218z" />
    <glyph glyph-name="scaron" unicode="&#x161;" 
d="M563 944q-125 0 -125 -110q0 -58 44 -88t200 -84q156 -55 218 -130t62 -216t-115 -236q-116 -95 -326 -95q-115 0 -219 35t-175 84l63 181q189 -110 339 -109q149 1 149 120q0 65 -36 94t-192 81q-156 53 -226 129t-70 216t105 229q104 91 297 91t349 -112l-49 -175
q-168 95 -293 95zM434 1311l-265 285l92 130l283 -201l277 201l93 -130l-262 -285h-218z" />
    <glyph glyph-name="Tcedilla" unicode="&#x162;" 
d="M791 -160q0 -125 -83 -187q-83 -63 -225 -63t-224 55t-88 167l239 19q2 -35 16 -50q14 -14 50 -14q36 -1 55 21t19 82t-13 89q-12 28 -49 41h-86v1273h-314v216h916v-216h-315v-1247q102 -61 102 -186z" />
    <glyph glyph-name="tcedilla" unicode="&#x163;" 
d="M618 369q0 -174 137 -174q69 0 152 38l28 -207q-44 -26 -127 -37q56 -58 56 -166t-83 -170q-83 -63 -225 -63t-225 55q-82 55 -87 167l238 19q2 -35 17 -49t50 -15t54 21t19 82t-12 89q-12 28 -50 41l1 2q-76 25 -130 79q-98 100 -98 273v555h-195v208h195v372h285v-372
h304v-208h-304v-540z" />
    <glyph glyph-name="Tcaron" unicode="&#x164;" 
d="M402 0v1273h-314v216h916v-216h-315v-1273h-287zM438 1683l-265 285l91 130l283 -201l278 201l93 -130l-263 -285h-217z" />
    <glyph glyph-name="tcaron" unicode="&#x165;" 
d="M618 369q0 -174 137 -174q69 0 152 38l28 -207q-76 -45 -241 -45t-263 100t-98 273v555h-195v208h195v372h285v-372h304v-208h-304v-540zM752 1313l69 549h352l-263 -549h-158z" />
    <glyph glyph-name="Tbar" unicode="&#x166;" 
d="M402 0v560h-221v192h221v521h-314v216h916v-216h-315v-521h220v-192h-220v-560h-287z" />
    <glyph glyph-name="tbar" unicode="&#x167;" 
d="M618 369q0 -174 137 -174q70 0 152 38l28 -207q-76 -45 -241 -45t-263 100t-98 273v143h-167v192h167v220h-195v208h195v372h285v-372h304v-208h-304v-220h278v-192h-278v-128z" />
    <glyph glyph-name="Utilde" unicode="&#x168;" 
d="M546 -19q-216 1 -320 129t-103 395v984h287v-988q0 -168 28 -231t108 -63q78 0 107 63t28 231v988h287v-984q0 -266 -103 -395t-319 -129zM665 1886q56 0 56 138v39h180v-28q1 -155 -59 -248t-162 -93q-103 0 -162 93q-26 41 -44 72t-44 31q-62 0 -58 -136v-41h-182v28
q0 156 62 249t171 93q89 1 152 -93q28 -42 47 -73t43 -31z" />
    <glyph glyph-name="utilde" unicode="&#x169;" 
d="M508 205q89 0 159 141v771h284v-1117h-284v156h-41q-24 -80 -95 -128t-169 -47q-98 0 -162 88q-62 88 -62 236v812h285v-745q0 -167 85 -167zM721 1651v40h180v-28q1 -155 -59 -248t-162 -93q-103 0 -162 93q-26 41 -44 72t-44 30q-62 0 -58 -136v-40h-182v27
q0 156 62 250t171 93q89 0 152 -94q28 -42 47 -73t43 -30q56 0 56 137z" />
    <glyph glyph-name="Umacron" unicode="&#x16a;" 
d="M546 -19q-216 1 -320 129t-103 395v984h287v-988q0 -168 28 -231t108 -63q78 0 107 63t28 231v988h287v-984q0 -266 -103 -395t-319 -129zM229 1754v216h633v-216h-633z" />
    <glyph glyph-name="umacron" unicode="&#x16b;" 
d="M508 205q89 0 159 141v771h284v-1117h-284v156h-41q-24 -80 -95 -128t-169 -47q-98 0 -162 88q-62 88 -62 236v812h285v-745q0 -167 85 -167zM229 1381v216h633v-216h-633z" />
    <glyph glyph-name="Ubreve" unicode="&#x16c;" 
d="M546 -19q-216 1 -320 129t-103 395v984h287v-988q0 -168 28 -231t108 -63q78 0 107 63t28 231v988h287v-984q0 -266 -103 -395t-319 -129zM546 1663q-188 0 -282 102q-93 102 -95 313h228q2 -134 34 -185q33 -50 115 -50t114 50t34 185h228q-2 -210 -95 -312t-281 -103z
" />
    <glyph glyph-name="ubreve" unicode="&#x16d;" 
d="M508 205q89 0 159 141v771h284v-1117h-284v156h-41q-24 -80 -95 -128t-169 -47q-98 0 -162 88q-62 88 -62 236v812h285v-745q0 -167 85 -167zM559 1471q83 0 115 50t33 184h228q-5 -415 -377 -415q-373 0 -376 415h228q2 -134 34 -184t115 -50z" />
    <glyph glyph-name="Uring" unicode="&#x16e;" 
d="M546 -19q-216 1 -320 129t-103 395v984h287v-988q0 -168 28 -231t108 -63q78 0 107 63t28 231v988h287v-984q0 -266 -103 -395t-319 -129zM445 1977v-59q1 -131 101 -131t100 131v59q0 138 -100 136q-101 0 -101 -136zM546 1640q-134 0 -216 68t-82 210v59q0 143 82 213
t216 70t216 -70t81 -213v-59q1 -142 -81 -210t-216 -68z" />
    <glyph glyph-name="uring" unicode="&#x16f;" 
d="M508 205q89 0 159 141v771h284v-1117h-284v156h-41q-24 -80 -95 -128t-169 -47q-98 0 -162 88q-62 88 -62 236v812h285v-745q0 -167 85 -167zM659 1605q-1 136 -101 136t-100 -136v-60q0 -71 26 -101t75 -29q100 0 100 130v60zM559 1268q-134 0 -216 68t-82 209v60
q0 143 82 213t216 70t216 -70t81 -213v-60q0 -141 -82 -209t-215 -68z" />
    <glyph glyph-name="Uhungarumlaut" unicode="&#x170;" 
d="M546 -19q-216 1 -320 129t-103 395v984h287v-988q0 -168 28 -231t108 -63q78 0 107 63t28 231v988h287v-984q0 -266 -103 -395t-319 -129zM315 1676l63 372h270l-190 -372h-143zM637 1676l63 372h268l-190 -372h-141z" />
    <glyph glyph-name="uhungarumlaut" unicode="&#x171;" 
d="M508 205q89 0 159 141v771h284v-1117h-284v156h-41q-24 -80 -95 -128t-169 -47q-98 0 -162 88q-62 88 -62 236v812h285v-745q0 -167 85 -167zM285 1303l63 373h270l-190 -373h-143zM607 1303l63 373h268l-190 -373h-141z" />
    <glyph glyph-name="Uogonek" unicode="&#x172;" 
d="M624 -408q-121 0 -188 60t-67 160t61 180q-131 26 -204 118q-103 128 -103 395v984h287v-988q0 -168 28 -231t108 -63q78 0 107 63t28 231v988h287v-984q0 -267 -98 -389t-284 -133l-11 -27q-9 -22 -9 -72q0 -98 106 -98q45 0 134 19v-192q-121 -21 -182 -21z" />
    <glyph glyph-name="uogonek" unicode="&#x173;" 
d="M843 -408q-121 0 -188 60t-67 162t65 182q6 8 14 15v145h-41q-24 -80 -95 -127t-169 -47t-162 87q-62 88 -62 236v812h285v-745q0 -167 85 -167q89 0 159 141v771h284v-1117h-136q-29 -47 -29 -106q0 -60 25 -84t76 -24t139 19v-192q-121 -21 -183 -21z" />
    <glyph glyph-name="Wcircumflex" unicode="&#x174;" 
d="M637 0l-90 702l-87 -702h-250l-143 1489h240l52 -1102l90 730h188l95 -709l50 1081h240l-143 -1489h-242zM266 1672l-93 130l263 285h217l265 -285l-91 -128l-283 201z" />
    <glyph glyph-name="wcircumflex" unicode="&#x175;" 
d="M653 0l-107 585l-105 -585h-246l-128 1117h240l65 -735l90 541h160l99 -538l61 732h240l-126 -1117h-243zM279 1300l-93 130l263 285h218l264 -285l-91 -129l-283 201z" />
    <glyph glyph-name="Ycircumflex" unicode="&#x176;" 
d="M689 0h-287v559l-344 930h283l203 -631l204 631h283l-342 -930v-559zM266 1672l-93 130l263 285h217l265 -285l-91 -128l-283 201z" />
    <glyph glyph-name="ycircumflex" unicode="&#x177;" 
d="M330 -389q-86 0 -226 20l15 209q111 -28 188 -27q76 1 124 48q47 47 68 148l6 25h-194l-223 1083h286l173 -875l177 875h278l-252 -1130q-45 -195 -148 -285t-272 -91zM266 1300l-93 130l263 285h217l265 -285l-91 -129l-283 201z" />
    <glyph glyph-name="Ydieresis" unicode="&#x178;" 
d="M689 0h-287v559l-344 930h283l203 -631l204 631h283l-342 -930v-559zM866 1799q0 -122 -138 -122q-62 1 -100 27t-38 95v20q0 127 138 127t138 -127v-20zM501 1799q0 -122 -138 -122q-61 1 -99 27t-39 95v20q0 127 138 127t138 -127v-20z" />
    <glyph glyph-name="Zacute" unicode="&#x179;" 
d="M966 0h-841v216l568 1057h-568v216h841v-216l-551 -1057h551v-216zM398 1676l146 372h355l-316 -372h-185z" />
    <glyph glyph-name="zacute" unicode="&#x17a;" 
d="M940 0h-789v209l486 700h-486v208h789v-208l-460 -700h460v-209zM404 1303l145 373h356l-317 -373h-184z" />
    <glyph glyph-name="Zdotaccent" unicode="&#x17b;" 
d="M966 0h-841v216l568 1057h-568v216h841v-216l-551 -1057h551v-216zM363 1819q1 127 183 127t182 -127v-20q0 -69 -51 -95t-131 -27q-80 1 -132 27t-51 95v20z" />
    <glyph glyph-name="zdotaccent" unicode="&#x17c;" 
d="M940 0h-789v209l486 700h-486v208h789v-208l-460 -700h460v-209zM553 1573q182 0 182 -126v-21q0 -69 -51 -95t-131 -26t-131 26t-51 95v21q0 126 182 126z" />
    <glyph glyph-name="Zcaron" unicode="&#x17d;" 
d="M966 0h-841v216l568 1057h-568v216h841v-216l-551 -1057h551v-216zM438 1683l-265 285l91 130l283 -201l278 201l93 -130l-263 -285h-217z" />
    <glyph glyph-name="zcaron" unicode="&#x17e;" 
d="M940 0h-789v209l486 700h-486v208h789v-208l-460 -700h460v-209zM426 1311l-264 285l91 130l283 -201l278 201l93 -130l-263 -285h-218z" />
    <glyph glyph-name="longs" unicode="&#x17f;" 
d="M810 1331q-121 0 -121 -160v-1171h-287v909h-167v208h167v67q0 173 111 260.5t260 87.5q86 0 206 -46l-28 -190q-93 35 -141 35z" />
    <glyph glyph-name="florin" unicode="&#x192;" 
d="M718 1287q-29 -44 -29 -144v-188h277v-208h-277v-410q0 -164 -103 -253q-95 -93 -271 -93q-119 0 -205 43l28 193q82 -37 144 -37t91 45t29 143v369h-277v208h277v229q0 166 103 255q99 93 270 93q108 0 204 -44l-28 -192q-78 35 -141 35t-92 -44z" />
    <glyph glyph-name="Aringacute" unicode="&#x1fa;" 
d="M756 0l-63 387h-298l-71 -387h-255l302 1489h350l301 -1489h-266zM659 603l-108 656l-117 -656h225zM443 1977v-59q1 -131 101 -131t100 131v59q0 138 -100 136q-101 0 -101 -136zM842 1977v-59q0 -142 -82 -210t-216 -68t-216 68t-82 210v59q0 143 82 213q55 47 134 63
l138 354h355l-305 -360q192 -52 192 -270z" />
    <glyph glyph-name="aringacute" unicode="&#x1fb;" 
d="M372 -19q-108 -1 -185 89t-77 237t83 230t218 83h202v164q0 78 -30 112q-31 34 -91 34t-88 -37q-28 -38 -43 -139l-229 47q30 175 118 255t262 80t273 -78q98 -78 98 -259v-482q0 -82 31 -104q32 -21 91 -6v-205q-234 -55 -290 153h-41q-42 -74 -118 -124t-184 -50z
M367 313q0 -144 98 -144q85 0 148 92v199h-157q-48 0 -68 -31t-21 -116zM618 1605q0 136 -100 136t-101 -136v-60q-1 -71 25 -101t76 -29q100 0 100 130v60zM518 1268q-134 0 -216 68t-82 209v60q0 213 183 267l141 362h355l-300 -353q79 -15 135 -63q82 -70 81 -213v-60
q1 -141 -81 -209t-216 -68z" />
    <glyph glyph-name="AEacute" unicode="&#x1fc;" 
d="M516 387h-179l-67 -387h-199l281 1489h653v-197h-247v-393h218v-197h-218v-505h247v-197h-489v387zM516 585v707h-28l-119 -707h147zM523 1676l145 372h356l-317 -372h-184z" />
    <glyph glyph-name="aeacute" unicode="&#x1fd;" 
d="M311 313q0 -153 56 -153t93 73v236h-67q-41 0 -61 -34t-21 -122zM743 959q-69 0 -69 -173v-131h134v123q0 95 -15 138t-50 43zM734 162q54 0 78 141l193 -27q-31 -151 -101 -223t-165 -72q-139 0 -199 142h-47q-20 -58 -69 -100t-130 -42q-82 -1 -146 77t-64 237t69 242
t190 83h117v155q0 167 -67 167q-33 0 -49 -34t-39 -133l-201 46q30 166 93 240t170 75q138 0 186 -125q69 125 194 125q124 0 191 -96t67 -280v-255h-331v-207q0 -136 60 -136zM486 1303l145 373h356l-317 -373h-184z" />
    <glyph glyph-name="Oslashacute" unicode="&#x1fe;" 
d="M966 497q0 -244 -110 -380t-310 -136q-54 0 -122 17l-59 -184h-197l91 275q-134 130 -134 408v488q0 247 110 385t311 138q61 0 121 -15l59 183h197l-87 -281q132 -136 130 -410v-488zM546 197q93 0 128 68t35 247v397q0 55 -9 89l-222 -788q28 -13 68 -13zM546 1292
q-92 0 -128 -70t-36 -252v-458q0 -36 5 -69l229 834q-32 15 -70 15zM398 1676l146 372h355l-316 -372h-185z" />
    <glyph glyph-name="oslashacute" unicode="&#x1ff;" 
d="M546 1136q76 0 122 -13l71 180h170l-95 -244q70 -50 112 -140t42 -202v-324q0 -195 -114 -303t-308 -109q-70 0 -122 13l-74 -180h-169l98 242q-73 50 -115 138t-41 199v324q0 199 114 309q115 110 309 110zM711 406v307q0 70 -15 117l-219 -638q22 -10 69 -10
q88 0 126 50t39 174zM380 711v-305q0 -76 15 -123l225 640q-34 12 -74 12q-88 0 -127 -52t-39 -172zM430 1303l145 373h356l-317 -373h-184z" />
    <glyph glyph-name="Scommaaccent" unicode="&#x218;" 
d="M162 337q194 -138 356 -138q178 0 178 192q0 95 -49 141t-207 118t-232 171q-76 99 -76 272t110 291t313 118t361 -130l-35 -208q-163 119 -306 119q-76 0 -117 -45q-41 -46 -41 -132t50 -130t207 -120q157 -78 232 -178t75 -250q-1 -205 -125 -325t-343 -120t-399 134z
M287 -559l91 373h354l-259 -373h-186z" />
    <glyph glyph-name="scommaaccent" unicode="&#x219;" 
d="M563 944q-125 0 -125 -110q0 -58 44 -88t200 -84q156 -55 218 -130t62 -216t-115 -236q-116 -95 -326 -95q-115 0 -219 35t-175 84l63 181q189 -110 339 -109q149 1 149 120q0 65 -36 94t-192 81q-156 53 -226 129t-70 216t105 229q104 91 297 91t349 -112l-49 -175
q-168 95 -293 95zM300 -559l91 373h354l-259 -373h-186z" />
    <glyph glyph-name="Tcommaaccent" unicode="&#x21a;" 
d="M402 0v1273h-314v216h916v-216h-315v-1273h-287zM300 -559l91 373h354l-259 -373h-186z" />
    <glyph glyph-name="tcommaaccent" unicode="&#x21b;" 
d="M618 369q0 -174 137 -174q69 0 152 38l28 -207q-76 -45 -241 -45t-263 100t-98 273v555h-195v208h195v372h285v-372h304v-208h-304v-540zM357 -559l92 373h353l-258 -373h-187z" />
    <glyph glyph-name="dotlessj" unicode="&#xf6be;" 
d="M341 -182q93 0 139.5 46.5t46.5 155.5v889h-345v208h630v-1124q0 -177 -119.5 -279.5t-291.5 -102.5t-276 41l28 203q95 -37 188 -37z" />
    <glyph glyph-name="dotlessj" unicode="&#x237;" 
d="M341 -182q93 0 139.5 46.5t46.5 155.5v889h-345v208h630v-1124q0 -177 -119.5 -279.5t-291.5 -102.5t-276 41l28 203q95 -37 188 -37z" />
    <glyph glyph-name="quoteleft" unicode="&#x2018;" 
d="M276 704l351 785h181l-132 -785h-400z" />
    <glyph glyph-name="quoteleft" unicode="&#x2bb;" 
d="M276 704l351 785h181l-132 -785h-400z" />
    <glyph glyph-name="circumflex" unicode="&#x2c6;" 
d="M266 1300l-93 130l263 285h217l265 -285l-91 -129l-283 201z" />
    <glyph glyph-name="caron" unicode="&#x2c7;" 
d="M438 1311l-265 285l91 130l283 -201l278 201l93 -130l-263 -285h-217z" />
    <glyph glyph-name="breve" unicode="&#x2d8;" 
d="M546 1471q82 0 114 50t34 184h228q-4 -415 -376 -415q-373 0 -377 415h228q3 -134 35 -184t114 -50z" />
    <glyph glyph-name="dotaccent" unicode="&#x2d9;" 
d="M363 1447q1 126 183 126t182 -126v-21q0 -69 -51 -95t-131 -26t-132 26q-51 26 -51 95v21z" />
    <glyph glyph-name="ring" unicode="&#x2da;" 
d="M646 1605q0 136 -100 136t-101 -136v-60q-1 -71 25 -101t76 -29q100 0 100 130v60zM546 1268q-134 0 -216 68t-82 209v60q0 143 82 213t216 70t216 -70t81 -213v-60q1 -141 -81 -209t-216 -68z" />
    <glyph glyph-name="ogonek" unicode="&#x2db;" 
d="M566 -408q-121 0 -188 60t-67 162t65 182t164 116l37 -69q-69 -56 -69 -156q0 -101 106 -101q45 0 134 19v-192q-121 -21 -182 -21z" />
    <glyph glyph-name="tilde" unicode="&#x2dc;" 
d="M721 1651v40h180v-28q1 -155 -59 -248t-162 -93q-103 0 -162 93q-26 41 -44 72t-44 30q-62 0 -58 -136v-40h-182v27q0 156 62 250t171 93q89 0 152 -94q28 -42 47 -73t43 -30q56 0 56 137z" />
    <glyph glyph-name="hungarumlaut" unicode="&#x2dd;" 
d="M272 1303l63 373h270l-190 -373h-143zM594 1303l63 373h268l-190 -373h-141z" />
    <glyph glyph-name="gravecmb" unicode="&#x300;" horiz-adv-x="0" 
d="M-28 1303l-316 373h355l147 -373h-186z" />
    <glyph glyph-name="acutecmb" unicode="&#x301;" horiz-adv-x="0" 
d="M-188 1303l145 373h356l-317 -373h-184z" />
    <glyph glyph-name="circumflexcmb" unicode="&#x302;" horiz-adv-x="0" 
d="M-279 1300l-93 130l262 285h218l264 -285l-91 -129l-283 201z" />
    <glyph glyph-name="tildecmb" unicode="&#x303;" horiz-adv-x="0" 
d="M119 1514q56 0 56 137v40h181v-28q0 -155 -60 -248t-162 -93q-103 0 -162 93q-26 41 -43.5 71.5t-61.5 30.5t-40 -136v-40h-183v27q0 156 62.5 249.5t170.5 93.5q90 0 153 -94q28 -42 46.5 -72.5t42.5 -30.5z" />
    <glyph glyph-name="macroncmb" unicode="&#x304;" horiz-adv-x="0" 
d="M-317 1381v216h634v-216h-634z" />
    <glyph glyph-name="brevecmb" unicode="&#x306;" horiz-adv-x="0" 
d="M0 1290q-188 0 -281 102.5t-95 312.5h227q2 -134 34.5 -184t114.5 -50t114.5 50t34.5 184h227q-2 -210 -95 -312.5t-281 -102.5z" />
    <glyph glyph-name="dotaccentcmb" unicode="&#x307;" horiz-adv-x="0" 
d="M0 1573q182 0 182 -126v-21q0 -69 -51 -95t-131 -26t-131 26t-51 95v21q0 126 182 126z" />
    <glyph glyph-name="dieresiscmb" unicode="&#x308;" horiz-adv-x="0" 
d="M45 1447q-1 126 137 126t138 -126v-21q0 -69 -39 -95t-99 -26t-98.5 26t-38.5 95v21zM-320 1447q0 126 138 126t137 -126v-21q0 -69 -38.5 -95t-98.5 -26t-99 26t-39 95v21z" />
    <glyph glyph-name="ringcmb" unicode="&#x30a;" horiz-adv-x="0" 
d="M0 1741q-101 0 -101 -136v-60q0 -71 25.5 -100.5t75.5 -29.5q101 0 101 130v60q0 136 -101 136zM0 1268q-134 0 -216 68t-82 209v60q0 143 82 213t216 70t216 -70t82 -213v-60q0 -141 -82 -209t-216 -68z" />
    <glyph glyph-name="hungarumlautcmb" unicode="&#x30b;" horiz-adv-x="0" 
d="M-274 1303l64 373h270l-190 -373h-144zM48 1303l64 373h268l-190 -373h-142z" />
    <glyph glyph-name="caroncmb" unicode="&#x30c;" horiz-adv-x="0" 
d="M-108 1311l-264 285l91 130l283 -201l277 201l93 -130l-262 -285h-218z" />
    <glyph glyph-name="commaturnedabovecmb" unicode="&#x312;" horiz-adv-x="0" 
d="M-216 1303l261 373h184l-89 -373h-356z" />
    <glyph glyph-name="commaaccentcmb" unicode="&#x326;" horiz-adv-x="0" 
d="M-231 -559l91 373h354l-259 -373h-186z" />
    <glyph glyph-name="cedillacmb" unicode="&#x327;" horiz-adv-x="0" 
d="M261 -172q0 -112 -83.5 -175t-225.5 -63t-224 55t-87 167l238 19q2 -35 17 -49.5t50 -14.5t54 21.5t19 81.5t-12.5 88.5t-49.5 41.5l28 78q141 -19 208.5 -78.5t67.5 -171.5z" />
    <glyph glyph-name="ogonekcmb" unicode="&#x328;" horiz-adv-x="0" 
d="M20 -408q-121 0 -188 60t-67 162t65.5 182t163.5 116l38 -69q-69 -56 -69 -156q0 -101 106 -101q52 0 134 19v-192q-121 -21 -183 -21z" />
    <glyph glyph-name="tonos" unicode="&#x384;" 
d="M413 1303l62 373h342l-232 -373h-172z" />
    <glyph glyph-name="dieresistonos" unicode="&#x385;" 
d="M989 1417q0 -121 -125 -121q-56 0 -90 26t-35 95v20q0 125 124 125t126 -125v-20zM227 1562q125 0 125 -125v-20q0 -69 -36 -95t-89 -26q-54 0 -89 26t-36 95v20q0 69 36 97t89 28zM421 1303l63 373h240l-147 -373h-156z" />
    <glyph glyph-name="Alphatonos" unicode="&#x386;" 
d="M756 0l-63 387h-298l-71 -387h-255l302 1489h350l301 -1489h-266zM659 603l-108 656l-117 -656h225zM7 1303l62 373h342l-232 -373h-172z" />
    <glyph glyph-name="anoteleia" unicode="&#x387;" 
d="M784 691q0 -93 -60 -141t-153 -47q-93 0 -151 47t-59 141v102q0 95 59 143q60 48 154 48t152 -48t58 -143v-102z" />
    <glyph glyph-name="Epsilontonos" unicode="&#x388;" 
d="M123 0v1489h843v-216h-556v-363h486v-217h-486v-477h556v-216h-843zM-205 1303l62 373h342l-233 -373h-171z" />
    <glyph glyph-name="Etatonos" unicode="&#x389;" 
d="M123 0v1489h287v-562h271v562h287v-1489h-287v709h-271v-709h-287zM-233 1303l62 373h342l-232 -373h-172z" />
    <glyph glyph-name="Iotatonos" unicode="&#x38a;" 
d="M123 0v216h279v1057h-279v216h845v-216h-279v-1057h279v-216h-845zM-233 1303l62 373h342l-232 -373h-172z" />
    <glyph glyph-name="Omicrontonos" unicode="&#x38c;" 
d="M546 197q78 -1 107 63t28 237v488q0 179 -28 243q-29 64 -107 64t-108 -64t-28 -243v-488q0 -173 29 -237t107 -63zM546 -19q-203 1 -312 133t-109 366v522q0 238 110 372t312 134q203 0 311 -134t108 -372v-522q0 -235 -108 -367t-312 -132zM-61 1303l61 373h343
l-233 -373h-171z" />
    <glyph glyph-name="Upsilontonos" unicode="&#x38e;" 
d="M689 0h-287v559l-344 930h283l203 -631l204 631h283l-342 -930v-559zM-231 1303l62 373h342l-233 -373h-171z" />
    <glyph glyph-name="Omegatonos" unicode="&#x38f;" 
d="M110 985q0 255 112 389t323 134t323 -134t111 -389v-231q-1 -134 -33 -235t-117 -154v-173h150v-192h-394v428q63 24 86 109t23 217v231q0 166 -33 230q-35 64 -117 64t-116 -64t-33 -230v-231q0 -132 23 -217t87 -109v-428h-395v192h153v173q-155 97 -153 389v231z
M-119 1303l61 373h343l-233 -373h-171z" />
    <glyph glyph-name="iotadieresistonos" unicode="&#x390;" 
d="M659 385q0 -183 135 -181q67 0 128 38l42 -203q-121 -50 -232 -50q-162 -1 -260 99t-98 268v553h-221v208h506v-732zM974 1417q0 -121 -125 -121q-56 0 -90 26t-35 95v20q0 125 124 125t126 -125v-20zM212 1562q125 0 125 -125v-20q1 -69 -35 -95t-90 -26t-89 26t-35 95
v20q0 69 35 97t89 28zM406 1303l63 373h240l-147 -373h-156z" />
    <glyph glyph-name="Alpha" unicode="&#x391;" 
d="M756 0l-63 387h-298l-71 -387h-255l302 1489h350l301 -1489h-266zM659 603l-108 656l-117 -656h225z" />
    <glyph glyph-name="Beta" unicode="&#x392;" 
d="M410 209h117q80 1 116 47t37 150v74q0 102 -36 149t-117 47h-117v-467zM410 873h111q69 0 100 40t31 130v69q0 89 -31 129t-100 40h-111v-408zM123 0v1489h443q181 0 275 -89t94 -261v-74q0 -105 -44 -167t-141 -83v-54q104 -13 159 -90t55 -196v-90q0 -189 -104 -287
t-300 -98h-437z" />
    <glyph glyph-name="Gamma" unicode="&#x393;" 
d="M195 0v1489h801v-216h-516v-1273h-285z" />
    <glyph glyph-name="Delta" unicode="&#x394;" 
d="M743 216l-197 1059l-213 -1059h410zM97 0v216l251 1273h410l234 -1273v-216h-895z" />
    <glyph glyph-name="Epsilon" unicode="&#x395;" 
d="M123 0v1489h843v-216h-556v-363h486v-217h-486v-477h556v-216h-843z" />
    <glyph glyph-name="Zeta" unicode="&#x396;" 
d="M966 0h-841v216l568 1057h-568v216h841v-216l-551 -1057h551v-216z" />
    <glyph glyph-name="Eta" unicode="&#x397;" 
d="M123 0v1489h287v-562h271v562h287v-1489h-287v709h-271v-709h-287z" />
    <glyph glyph-name="Theta" unicode="&#x398;" 
d="M439 653v202h216v-202h-216zM545.5 197q93.5 0 129.5 70t36 245v458q0 179 -36 250.5t-129.5 71.5t-130.5 -71.5t-37 -250.5v-458q0 -175 37 -245t130.5 -70zM545 -19q-202 0 -312 136t-110 380v488q0 246 110.5 384.5t312 138.5t312 -138.5t110.5 -384.5v-488
q0 -244 -110.5 -380t-312.5 -136z" />
    <glyph glyph-name="Iota" unicode="&#x399;" 
d="M123 0v216h279v1057h-279v216h845v-216h-279v-1057h279v-216h-845z" />
    <glyph glyph-name="Kappa" unicode="&#x39a;" 
d="M410 670v-670h-287v1489h287v-601h54l258 601h330l-352 -685l346 -804h-324l-253 670h-59z" />
    <glyph glyph-name="Lambda" unicode="&#x39b;" 
d="M756 0l-205 1259l-227 -1259h-255l302 1489h350l301 -1489h-266z" />
    <glyph glyph-name="Mu" unicode="&#x39c;" 
d="M110 0v1489h262l177 -742l175 742h255v-1489h-251l32 1033l-125 -620h-177l-128 635l31 -1048h-251z" />
    <glyph glyph-name="Nu" unicode="&#x39d;" 
d="M365 0h-242v1489h307l294 -1122v1122h244v-1489h-331l-272 1108v-1108z" />
    <glyph glyph-name="Xi" unicode="&#x39e;" 
d="M125 0v216h841v-216h-841zM158 693v217h773v-217h-773zM125 1273v216h841v-216h-841z" />
    <glyph glyph-name="Omicron" unicode="&#x39f;" 
d="M546 197q78 -1 107 63t28 237v488q0 179 -28 243q-29 64 -107 64t-108 -64t-28 -243v-488q0 -173 29 -237t107 -63zM546 -19q-203 1 -312 133t-109 366v522q0 238 110 372t312 134q203 0 311 -134t108 -372v-522q0 -235 -108 -367t-312 -132z" />
    <glyph glyph-name="Pi" unicode="&#x3a0;" 
d="M123 0v1489h845v-1489h-287v1273h-271v-1273h-287z" />
    <glyph glyph-name="Rho" unicode="&#x3a1;" 
d="M410 702h134q72 0 106 43t33 151v180q0 110 -33 154q-34 44 -106 43h-134v-571zM560 1489q406 0 406 -392v-226q0 -199 -101 -290t-303 -91h-152v-490h-287v1489h437z" />
    <glyph glyph-name="Sigma" unicode="&#x3a3;" 
d="M922 0h-767v216l409 547l-409 510v216h767v-216h-483l315 -409v-179l-331 -469h499v-216z" />
    <glyph glyph-name="Tau" unicode="&#x3a4;" 
d="M402 0v1273h-314v216h916v-216h-315v-1273h-287z" />
    <glyph glyph-name="Upsilon" unicode="&#x3a5;" 
d="M689 0h-287v559l-344 930h283l203 -631l204 631h283l-342 -930v-559z" />
    <glyph glyph-name="Phi" unicode="&#x3a6;" 
d="M324 601q0 -225 91 -225h23v737h-23q-91 0 -91 -232v-280zM765 881q0 232 -91 232h-24v-737h24q91 0 91 225v280zM674 168h-17v-187h-225v187h-17q-158 0 -240 117t-82 316v280q0 203 82 322t240 119h17v186h225v-186h17q158 0 240 -119t82 -322v-280q0 -199 -82 -316
t-240 -117z" />
    <glyph glyph-name="Chi" unicode="&#x3a7;" 
d="M721 0l-183 443l-177 -443h-272l324 769l-288 720h290l157 -387l156 387h272l-304 -718l300 -771h-275z" />
    <glyph glyph-name="Psi" unicode="&#x3a8;" 
d="M754 851v638h229v-649q0 -199 -79 -326t-245 -157v-357h-227v357q-168 30 -247 156.5t-79 326.5v649h231v-638q0 -117 21.5 -186t75.5 -90v914h223v-914q97 37 97 276z" />
    <glyph glyph-name="Omega" unicode="&#x3a9;" 
d="M505 0h-395v192h153v173q-86 54 -119.5 154.5t-33.5 234.5v231q0 255 111 389t323 134t323.5 -134t111.5 -389v-231q0 -134 -32.5 -234.5t-117.5 -154.5v-173h150v-192h-394v428q63 24 86 109t23 217v231q0 166 -34 230t-116 64t-115.5 -64t-33.5 -230v-231
q0 -132 23 -217t87 -109v-428z" />
    <glyph glyph-name="Iotadieresis" unicode="&#x3aa;" 
d="M123 0v216h279v1057h-279v216h845v-216h-279v-1057h279v-216h-845zM866 1799q0 -122 -138 -122q-62 1 -100 27t-38 95v20q0 127 138 127t138 -127v-20zM501 1799q0 -122 -138 -122q-61 1 -99 27t-39 95v20q0 127 138 127t138 -127v-20z" />
    <glyph glyph-name="Upsilondieresis" unicode="&#x3ab;" 
d="M689 0h-287v559l-344 930h283l203 -631l204 631h283l-342 -930v-559zM866 1799q0 -122 -138 -122q-62 1 -100 27t-38 95v20q0 127 138 127t138 -127v-20zM501 1799q0 -122 -138 -122q-61 1 -99 27t-39 95v20q0 127 138 127t138 -127v-20z" />
    <glyph glyph-name="alphatonos" unicode="&#x3ac;" 
d="M668 186q-82 -203 -292 -203q-104 1 -171 89t-67 248v462q0 168 61 262t168 94q74 0 128 -40t75 -111h41v130h285v-804q0 -79 24 -99t72 -7v-205q-247 -52 -281 184h-43zM423 357q0 -152 73 -152t115 87v537q-46 87 -118 87t-70 -158v-401zM447 1303l61 373h343
l-233 -373h-171z" />
    <glyph glyph-name="epsilontonos" unicode="&#x3ad;" 
d="M164 840q0 294 400 296q186 0 281 -82t108 -270l-257 -15q-7 101 -36 141t-94 40t-91 -30t-26 -99v-26q0 -71 27 -96t90 -25h78v-166h-78q-88 0 -115 -37t-27 -115v-19q0 -86 32 -123t108 -37t113 43q36 43 45 149l255 -13q-13 -192 -97 -284t-316 -91q-426 0 -426 321
v26q0 91 55 159t163 77v41q-88 7 -140 59t-52 142v34zM443 1303l62 373h342l-233 -373h-171z" />
    <glyph glyph-name="etatonos" unicode="&#x3ae;" 
d="M667 761q0 153 -95 153t-149 -126v-788h-285v1117h285v-156h42q30 83 95 129t149 46q114 0 178 -86t64 -238v-1184h-284v1133zM438 1303l61 373h343l-233 -373h-171z" />
    <glyph glyph-name="iotatonos" unicode="&#x3af;" 
d="M659 385q0 -183 135 -181q67 0 128 38l42 -203q-121 -50 -232 -50q-162 -1 -260 99t-98 268v553h-221v208h506v-732zM419 1303l61 373h343l-233 -373h-171z" />
    <glyph glyph-name="upsilondieresistonos" unicode="&#x3b0;" 
d="M951 369q0 -181 -108 -285t-298 -103q-191 -1 -299 103t-108 285v748h285v-746q0 -89 27 -131t96 -43q68 0 94 42t27 128v750h284v-748zM989 1417q0 -121 -125 -121q-56 0 -90 26t-35 95v20q0 125 124 125t126 -125v-20zM227 1562q125 0 125 -125v-20q0 -69 -36 -95
t-89 -26q-54 0 -89 26t-36 95v20q0 69 36 97t89 28zM421 1303l63 373h240l-147 -373h-156z" />
    <glyph glyph-name="alpha" unicode="&#x3b1;" 
d="M376 -17q-104 0 -171 88.5t-67 248.5v462q0 168 61.5 262t167.5 94q74 0 128 -40t75 -111h41v130h285v-804q0 -78 24 -98.5t72 -7.5v-205q-247 -52 -281 184h-43q-39 -97 -113.5 -150t-178.5 -53zM423 357q0 -152 72 -152t116 87v537q-46 87 -117 87t-71 -158v-401z" />
    <glyph glyph-name="beta" unicode="&#x3b2;" 
d="M951 505v-131q0 -181 -94 -287t-250 -106q-92 0 -184 45v-398h-285v1476q0 194 99 299t277 105t285.5 -85.5t107.5 -242.5v-93q0 -209 -224 -253v-54q268 -30 268 -275zM665 402v114q0 104 -32 146t-102 42h-64v179h56q52 0 77.5 34t25.5 114v112q0 80 -23.5 114.5
t-78.5 34.5t-78 -39t-23 -134v-870q51 -55 112 -55q130 0 130 208z" />
    <glyph glyph-name="gamma" unicode="&#x3b3;" 
d="M717 -372h-343l28 409l-314 1080h283l173 -763l173 763h285l-313 -1080z" />
    <glyph glyph-name="delta" unicode="&#x3b4;" 
d="M423 607v-235q0 -97 30.5 -139.5t122.5 -42.5t92 182v237q0 84 -41 131.5t-115 80.5q-89 -61 -89 -214zM136 577q0 219 214 320q-91 47 -131 109.5t-40 158.5q0 151 98.5 237.5t262.5 86.5h289v-208h-252q-61 0 -92 -23.5t-31 -89.5t66 -99t176 -83t183.5 -132.5
t73.5 -244.5v-237q0 -199 -112.5 -295t-295.5 -96t-296 96t-113 295v205z" />
    <glyph glyph-name="epsilon" unicode="&#x3b5;" 
d="M164 840q0 296 400 296q186 0 281 -82t108 -270l-257 -15q-7 101 -36 141t-94 40t-91 -30t-26 -99v-26q0 -71 27 -96t90 -25h78v-166h-78q-88 0 -115 -37t-27 -115v-19q0 -86 32 -123t108 -37t112.5 43t45.5 149l255 -13q-13 -192 -96.5 -283.5t-316.5 -91.5
q-426 0 -426 321v26q0 91 55 159t163 77v41q-89 7 -140.5 58.5t-51.5 142.5v34z" />
    <glyph glyph-name="zeta" unicode="&#x3b6;" 
d="M613 -372h-198v201h190q47 0 73 21.5t26 90t-26 93t-73 24.5h-89q-182 0 -281 93t-99 249t47.5 271t151.5 267l160 235l-9 22q-155 -7 -252.5 75t-144.5 218l166 76q56 -149 152 -183.5t265 6.5l257 151l60 -261l-295 -78l-162 -331q-56 -128 -82.5 -215t-26.5 -185
q0 -208 145 -209h132q117 0 185 -75.5t68 -234.5t-92 -240t-248 -81z" />
    <glyph glyph-name="eta" unicode="&#x3b7;" 
d="M667 761q0 153 -95 153t-149 -126v-788h-285v1117h285v-156h42q30 82 95.5 128.5t148.5 46.5q114 0 178 -86t64 -238v-1184h-284v1133z" />
    <glyph glyph-name="theta" unicode="&#x3b8;" 
d="M545.5 190q78.5 0 107 53t28.5 174v242h-271v-242q0 -121 28.5 -174t107 -53zM410 1072v-221h271v223q0 112 -28.5 169t-107 57t-107 -57t-28.5 -171zM545.5 -19q-191.5 0 -299.5 112t-108 311v674q0 203 108 316.5t299.5 113.5t298.5 -113.5t107 -316.5v-674
q0 -199 -107 -311t-298.5 -112z" />
    <glyph glyph-name="iota" unicode="&#x3b9;" 
d="M659 385q0 -183 135 -181q67 0 128 38l42 -203q-121 -50 -232 -50q-162 -1 -260 99t-98 268v553h-221v208h506v-732z" />
    <glyph glyph-name="kappa" unicode="&#x3ba;" 
d="M436 484v-484h-287v1117h287v-437h50l210 437h293l-272 -512l268 -605h-304l-195 484h-50z" />
    <glyph glyph-name="lambda" unicode="&#x3bb;" 
d="M326 1501q177 0 276.5 -79.5t136.5 -246.5l263 -1175h-285l-181 920l-167 -920h-281l195 1043h229l-7 41q-24 117 -69 163.5t-116 46.5t-158 -17l-28 207q126 17 192 17z" />
    <glyph glyph-name="mu" unicode="&#x3bc;" 
d="M542 -13q-63 0 -104 63v-13l13 -409h-313l15 409v1080h285v-754q0 -84 22 -120t54 -36q67 0 112 89v821h286v-804q0 -80 19 -99.5t61 -6.5v-205q-204 -51 -247 141h-43q-58 -156 -160 -156z" />
    <glyph glyph-name="nu" unicode="&#x3bd;" 
d="M1002 1117q-42 -556 -311 -1117h-293l-310 1117h284l203 -838q115 382 144 838h283z" />
    <glyph glyph-name="xi" unicode="&#x3be;" 
d="M438 430q0 -171 137 -171h56q151 0 235.5 -75.5t84.5 -234.5t-95 -240t-256 -81h-170v201h160q50 0 81 21.5t31 90t-31 93t-81 24.5h-102q-155 0 -245 93t-90 251v41q0 112 61.5 195.5t183.5 96.5v43q-80 0 -121 55t-41 127t40.5 127.5t131.5 79.5v43q-249 4 -350 278
l137 76q74 -128 156.5 -163.5t244.5 -5.5l296 143l33 -261l-309 -76l-33 -41q-62 -75 -62 -190t93 -115h213v-202h-226q-86 0 -124.5 -52t-38.5 -130v-41z" />
    <glyph glyph-name="omicron" unicode="&#x3bf;" 
d="M547 190q63 0 93 42q29 42 28 142v361q0 102 -28 148q-28 45 -92 45t-94 -46q-30 -44 -30 -145v-357q0 -102 30 -146t93 -44zM953 363q0 -179 -109 -281t-298 -101q-190 -1 -298 103t-108 283v376q0 184 109 288q109 105 297 105t298 -106q109 -106 109 -291v-376z" />
    <glyph glyph-name="pi" unicode="&#x3c0;" 
d="M966 1117v-208h-110v-570q0 -89 31 -118t107 -14v-205q-194 -35 -294 33.5t-100 236.5v637h-179v-909h-257v909h-95v208h897z" />
    <glyph glyph-name="rho" unicode="&#x3c1;" 
d="M138 -372v1117q0 186 105 286.5t299 100.5t301.5 -100.5t107.5 -286.5v-391q0 -166 -69.5 -269.5t-207.5 -103.5q-88 0 -142.5 47.5t-66.5 127.5h-42v-528h-285zM667 389v356q0 180 -122 180t-122 -180v-428q60 -112 149 -112q95 0 95 184z" />
    <glyph glyph-name="sigma1" unicode="&#x3c2;" 
d="M400 -372v208h192q45 0 70 21.5t25 88.5t-25 89.5t-70 22.5h-123q-162 0 -246.5 105t-84.5 299v277q0 190 105 293.5t297 103.5t284 -99t116 -311l-275 -20q-7 128 -32.5 173.5t-93.5 45.5t-92 -43.5t-24 -147.5v-274q0 -104 30.5 -148t116.5 -44h106q130 0 202.5 -75.5
t72.5 -236.5t-106 -244.5t-290 -83.5h-155z" />
    <glyph glyph-name="sigma" unicode="&#x3c3;" 
d="M896 670v-303q0 -184 -102.5 -285t-276 -101t-276.5 100.5t-103 285.5v365q0 181 103 283t277 102h515v-227l-212 22q75 -92 75 -242zM517 190q53 0 73.5 44.5t20.5 145.5v327q0 106 -20.5 157.5t-73.5 51.5t-73.5 -47.5t-20.5 -142.5v-346q0 -101 20.5 -145.5
t73.5 -44.5z" />
    <glyph glyph-name="tau" unicode="&#x3c4;" 
d="M402 272v629h-279v216h858v-216h-292v-573q0 -80 37 -109t130 -12v-205q-222 -37 -338 31.5t-116 238.5z" />
    <glyph glyph-name="upsilon" unicode="&#x3c5;" 
d="M545 -19q-190 0 -298.5 103.5t-108.5 284.5v748h285v-746q0 -89 27 -131.5t95.5 -42.5t95 42t26.5 128v750h284v-748q0 -181 -108 -284.5t-298 -103.5z" />
    <glyph glyph-name="phi" unicode="&#x3c6;" 
d="M655 920v-726q73 24 100 89t27 173v170q0 153 -29 223.5t-98 70.5zM335 706v-209q0 -128 26 -204.5t99 -100.5v925h130q179 0 286 -128.5t107 -362.5v-170q0 -197 -88.5 -315.5t-235.5 -147.5v-365h-203v361q-350 49 -350 508v209q0 286 56 435l225 -59
q-52 -163 -52 -376z" />
    <glyph glyph-name="chi" unicode="&#x3c7;" 
d="M668 -372l-139 383l-144 -383h-281l296 737l-273 752h284l144 -395l151 395h281l-304 -745l274 -744h-289z" />
    <glyph glyph-name="psi" unicode="&#x3c8;" 
d="M983 421q0 -381 -324 -440v-353h-229v355q-324 59 -324 438v696h231v-711q0 -97 24 -151t84 -67v929h199v-929q60 13 84 67t24 151v711h231v-696z" />
    <glyph glyph-name="omega" unicode="&#x3c9;" 
d="M752 687q0 202 -50 402l223 60q20 -61 39 -190.5t19 -271.5v-266q0 -216 -58.5 -328t-159.5 -112q-74 0 -123.5 51.5t-79.5 166.5h-43q-19 -115 -66 -166.5t-127 -51.5q-102 0 -161 112t-59 328v266q0 141 18.5 270.5t39.5 191.5l225 -60q-15 -52 -33.5 -164.5
t-18.5 -237.5v-305q0 -91 15 -138t39 -47q54 0 54 160v483h199v-483q0 -160 54 -160t54 185v305z" />
    <glyph glyph-name="iotadieresis" unicode="&#x3ca;" 
d="M659 385q0 -183 135 -181q67 0 128 38l42 -203q-121 -50 -232 -50q-162 -1 -260 99t-98 268v553h-221v208h506v-732zM583 1447q-1 126 137 126t138 -126v-21q0 -69 -38 -95t-100 -26q-60 0 -99 26q-38 26 -38 95v21zM218 1447q0 126 138 126t137 -126v-21q-1 -69 -39 -95
t-98 -26t-100 26q-38 26 -38 95v21z" />
    <glyph glyph-name="upsilondieresis" unicode="&#x3cb;" 
d="M951 369q0 -181 -108 -285t-298 -103q-191 -1 -299 103t-108 285v748h285v-746q0 -89 27 -131t96 -43q68 0 94 42t27 128v750h284v-748zM728 1573q138 0 138 -126v-21q0 -69 -39 -95t-99 -26t-100 26q-38 26 -38 95v21q0 126 138 126zM363 1573q138 0 138 -126v-21
q0 -69 -39 -95q-40 -26 -100 -26t-99 26q-38 26 -38 95v21q0 126 138 126z" />
    <glyph glyph-name="omicrontonos" unicode="&#x3cc;" 
d="M547 190q63 0 93 42q29 42 28 142v361q0 102 -28 148q-28 45 -92 45t-94 -46q-30 -44 -30 -145v-357q0 -102 30 -146t93 -44zM953 363q0 -179 -109 -281t-298 -101q-190 -1 -298 103t-108 283v376q0 184 109 288q109 105 297 105t298 -106q109 -106 109 -291v-376z
M413 1303l62 373h342l-232 -373h-172z" />
    <glyph glyph-name="upsilontonos" unicode="&#x3cd;" 
d="M951 369q0 -181 -108 -285t-298 -103q-191 -1 -299 103t-108 285v748h285v-746q0 -89 27 -131t96 -43q68 0 94 42t27 128v750h284v-748zM398 1303l62 373h342l-232 -373h-172z" />
    <glyph glyph-name="omegatonos" unicode="&#x3ce;" 
d="M752 687q0 202 -50 402l223 60q20 -61 39 -191t19 -271v-266q0 -216 -59 -328t-159 -112q-73 -1 -123 51t-80 167h-43q-19 -115 -66 -167t-127 -51q-102 0 -161 112t-59 328v266q0 141 19 271t39 191l225 -60q-15 -52 -33 -165t-19 -237v-305q0 -91 15 -138t39 -47
q54 0 54 160v483h199v-483q0 -158 54 -160q54 0 54 185v305zM419 1303l61 373h343l-233 -373h-171z" />
    <glyph glyph-name="IEgravecyrillic" unicode="&#x400;" 
d="M123 0v1489h843v-216h-556v-363h486v-217h-486v-477h556v-216h-843zM486 1676l-317 372h356l147 -372h-186z" />
    <glyph glyph-name="Iocyrillic" unicode="&#x401;" 
d="M123 0v1489h843v-216h-556v-363h486v-217h-486v-477h556v-216h-843zM877 1799q0 -122 -138 -122q-61 1 -99 27t-39 95v20q0 127 138 127t138 -127v-20zM512 1799q0 -122 -138 -122q-61 1 -99 27t-39 95v20q0 127 138 127t138 -127v-20z" />
    <glyph glyph-name="Djecyrillic" unicode="&#x402;" 
d="M220 0v1273h-151v216h640v-216h-204v-305h95q184 0 281.5 -107t97.5 -310v-136q0 -203 -97.5 -309t-281.5 -106v212q54 0 81.5 45.5t27.5 161.5v128q0 115 -28 162t-81 47h-95v-756h-285z" />
    <glyph glyph-name="Gjecyrillic" unicode="&#x403;" 
d="M195 0v1489h801v-216h-516v-1273h-285zM406 1676l145 372h356l-317 -372h-184z" />
    <glyph glyph-name="Ecyrillic" unicode="&#x404;" 
d="M570 -19q-216 0 -330.5 132.5t-114.5 383.5v488q0 255 115.5 389t329.5 134t321 -127.5t116 -393.5l-285 -19q-11 199 -41.5 261.5t-120 62.5t-120 -62.5t-30.5 -261.5v-58h204v-217h-204v-181q0 -194 30 -254.5t120 -60.5t121.5 61.5t40.5 255.5l285 -19
q-9 -263 -115 -388.5t-322 -125.5z" />
    <glyph glyph-name="Dzecyrillic" unicode="&#x405;" 
d="M162 337q194 -138 356 -138q178 0 178 192q0 95 -49 141t-207 118t-232 171q-76 99 -76 272t110 291t313 118t361 -130l-35 -208q-163 119 -306 119q-76 0 -117 -45q-41 -46 -41 -132t50 -130t207 -120q157 -78 232 -178t75 -250q-1 -205 -125 -325t-343 -120t-399 134z
" />
    <glyph glyph-name="Icyrillic" unicode="&#x406;" 
d="M123 0v216h279v1057h-279v216h845v-216h-279v-1057h279v-216h-845z" />
    <glyph glyph-name="Yicyrillic" unicode="&#x407;" 
d="M123 0v216h279v1057h-279v216h845v-216h-279v-1057h279v-216h-845zM866 1799q0 -122 -138 -122q-62 1 -100 27t-38 95v20q0 127 138 127t138 -127v-20zM501 1799q0 -122 -138 -122q-61 1 -99 27t-39 95v20q0 127 138 127t138 -127v-20z" />
    <glyph glyph-name="Jecyrillic" unicode="&#x408;" 
d="M938 460q0 -227 -100 -353t-318 -126q-220 1 -317 119t-106 403l285 20q9 -195 39 -260q31 -65 99 -65q135 -1 133 251v824h-323v216h608v-1029z" />
    <glyph glyph-name="Ljecyrillic" unicode="&#x409;" 
d="M670 201h39q32 0 46 44t14 152v214q0 106 -14 148.5t-46 42.5h-39v-601zM670 1489v-489h75q121 0 179.5 -89.5t58.5 -277.5v-257q0 -194 -58.5 -285t-181.5 -91h-287v1288h-97l-7 -1007q0 -143 -56 -217.5t-160 -74.5q-35 0 -102 18l27 211q25 -11 40 -11q38 4 42 130
l10 1152h517z" />
    <glyph glyph-name="Njecyrillic" unicode="&#x40a;" 
d="M983 376q0 -376 -248 -376h-279v709h-136v-709h-212v1489h212v-562h136v562h214v-489h69q244 0 244 -367v-257zM670 201h34q35 0 50 44.5t15 151.5v214q0 104 -15 147.5t-50 43.5h-34v-601z" />
    <glyph glyph-name="Tshecyrillic" unicode="&#x40b;" 
d="M626 920q353 0 353 -356v-564h-286v534q0 95 -23.5 134t-69.5 39h-94v-707h-284v1273h-153v216h655v-216h-218v-353h120z" />
    <glyph glyph-name="Kjecyrillic" unicode="&#x40c;" 
d="M410 670v-670h-287v1489h287v-601h54l258 601h330l-352 -685l346 -804h-324l-253 670h-59zM454 1676l146 372h355l-316 -372h-185z" />
    <glyph glyph-name="Igravecyrillic" unicode="&#x40d;" 
d="M717 0v1095l-263 -1095h-331v1489h249v-1118l287 1118h309v-1489h-251zM488 1676l-317 372h356l147 -372h-186z" />
    <glyph glyph-name="Ushortcyrillic" unicode="&#x40e;" 
d="M287 -6q-91 0 -198 23l25 216q86 -23 153 -23q138 0 171 155l11 48h-93l-268 1076h279l169 -714l185 714h279l-317 -1200q-41 -155 -141 -225t-255 -70zM546 1663q-175 1 -274 99t-97 297l244 19q-2 -128 25 -182q28 -54 102 -53q74 0 101 53t25 182l244 -19
q2 -199 -96 -297t-274 -99z" />
    <glyph glyph-name="Dzhecyrillic" unicode="&#x40f;" 
d="M402 -279v279h-279v1489h287v-1273h271v1273h287v-1489h-279v-279h-287z" />
    <glyph glyph-name="Acyrillic" unicode="&#x410;" 
d="M756 0l-63 387h-298l-71 -387h-255l302 1489h350l301 -1489h-266zM659 603l-108 656l-117 -656h225z" />
    <glyph glyph-name="Becyrillic" unicode="&#x411;" 
d="M410 216h154q67 0 102.5 45.5t35.5 161.5v70q0 115 -35.5 159t-102.5 44h-154v-480zM123 0v1489h787v-216h-500v-364h182q186 0 290.5 -101.5t104.5 -286.5v-110q0 -194 -104.5 -302.5t-288.5 -108.5h-471z" />
    <glyph glyph-name="Vecyrillic" unicode="&#x412;" 
d="M410 209h117q80 1 116 47t37 150v74q0 102 -36 149t-117 47h-117v-467zM410 873h111q69 0 100 40t31 130v69q0 89 -31 129t-100 40h-111v-408zM123 0v1489h443q181 0 275 -89t94 -261v-74q0 -105 -44 -167t-141 -83v-54q104 -13 159 -90t55 -196v-90q0 -189 -104 -287
t-300 -98h-437z" />
    <glyph glyph-name="Gecyrillic" unicode="&#x413;" 
d="M195 0v1489h801v-216h-516v-1273h-285z" />
    <glyph glyph-name="Decyrillic" unicode="&#x414;" 
d="M311 0v-279h-255v495h82q72 72 76 357l8 916h674v-1273h109v-495h-257v279h-437zM415 216h224v1057h-166l-4 -707q-4 -217 -54 -307v-43z" />
    <glyph glyph-name="Iecyrillic" unicode="&#x415;" 
d="M123 0v1489h843v-216h-556v-363h486v-217h-486v-477h556v-216h-843z" />
    <glyph glyph-name="Zhecyrillic" unicode="&#x416;" 
d="M445 873v616h199v-616h49l100 616h220l-138 -653l132 -836h-216l-87 683h-60v-683h-199v683h-60l-89 -683h-214l147 842l-151 647h220l97 -616h50z" />
    <glyph glyph-name="Zecyrillic" unicode="&#x417;" 
d="M544 -19q-210 0 -317.5 107t-116.5 329l285 19q11 -141 47 -191.5t108 -50.5t101.5 47.5t29.5 142.5v102q0 104 -39 148t-123 44h-128v216h128q78 0 106 29.5t28 119.5v98q0 86 -25 120.5t-89 34.5t-86.5 -46.5t-29.5 -162.5l-285 19q9 205 108.5 303.5t293.5 98.5
t296 -89.5t102 -258.5v-75q0 -121 -59.5 -188.5t-144.5 -79.5v-54q86 -11 159 -95.5t73 -220.5v-67q0 -195 -106 -297t-316 -102z" />
    <glyph glyph-name="Iicyrillic" unicode="&#x418;" 
d="M717 0v1095l-263 -1095h-331v1489h249v-1118l287 1118h309v-1489h-251z" />
    <glyph glyph-name="Iishortcyrillic" unicode="&#x419;" 
d="M717 0v1095l-263 -1095h-331v1489h249v-1118l287 1118h309v-1489h-251zM544 1663q-175 1 -274 99t-97 297l244 19q-2 -128 25 -182q28 -54 102 -53q74 0 101 53t25 182l244 -19q2 -199 -96 -297t-274 -99z" />
    <glyph glyph-name="Kacyrillic" unicode="&#x41a;" 
d="M410 670v-670h-287v1489h287v-601h54l258 601h330l-352 -685l346 -804h-324l-253 670h-59z" />
    <glyph glyph-name="Elcyrillic" unicode="&#x41b;" 
d="M155 203q35 0 53.5 55t18.5 206l8 1025h733v-1489h-287v1273h-167l-4 -834q-4 -461 -301 -461q-63 0 -151 28l28 216q52 -19 69 -19z" />
    <glyph glyph-name="Emcyrillic" unicode="&#x41c;" 
d="M110 0v1489h262l177 -742l175 742h255v-1489h-251l32 1033l-125 -620h-177l-128 635l31 -1048h-251z" />
    <glyph glyph-name="Encyrillic" unicode="&#x41d;" 
d="M123 0v1489h287v-562h271v562h287v-1489h-287v709h-271v-709h-287z" />
    <glyph glyph-name="Ocyrillic" unicode="&#x41e;" 
d="M546 197q78 -1 107 63t28 237v488q0 179 -28 243q-29 64 -107 64t-108 -64t-28 -243v-488q0 -173 29 -237t107 -63zM546 -19q-203 1 -312 133t-109 366v522q0 238 110 372t312 134q203 0 311 -134t108 -372v-522q0 -235 -108 -367t-312 -132z" />
    <glyph glyph-name="Pecyrillic" unicode="&#x41f;" 
d="M123 0v1489h845v-1489h-287v1273h-271v-1273h-287z" />
    <glyph glyph-name="Ercyrillic" unicode="&#x420;" 
d="M410 702h134q72 0 106 43t33 151v180q0 110 -33 154q-34 44 -106 43h-134v-571zM560 1489q406 0 406 -392v-226q0 -199 -101 -290t-303 -91h-152v-490h-287v1489h437z" />
    <glyph glyph-name="Escyrillic" unicode="&#x421;" 
d="M125 985q0 523 448 523q215 0 319 -125t115 -396l-285 -19q-7 194 -39 259t-118 65q-87 0 -121 -71t-34 -253v-456q0 -168 34 -242t121 -73t119 65t38 252l285 -19q-9 -266 -113 -390t-324 -124q-218 1 -332 131t-113 385v488z" />
    <glyph glyph-name="Tecyrillic" unicode="&#x422;" 
d="M402 0v1273h-314v216h916v-216h-315v-1273h-287z" />
    <glyph glyph-name="Ucyrillic" unicode="&#x423;" 
d="M287 -6q-91 0 -198 23l25 216q86 -23 153 -23q138 0 171 155l11 48h-93l-268 1076h279l169 -714l185 714h279l-317 -1200q-41 -155 -141 -225t-255 -70z" />
    <glyph glyph-name="Efcyrillic" unicode="&#x424;" 
d="M324 601q0 -225 91 -225h23v737h-23q-91 0 -91 -232v-280zM765 881q0 232 -91 232h-24v-737h24q91 0 91 225v280zM674 168h-17v-187h-225v187h-17q-158 0 -240 117t-82 316v280q0 203 82 322t240 119h17v186h225v-186h17q158 0 240 -119t82 -322v-280q0 -199 -82 -316
t-240 -117z" />
    <glyph glyph-name="Khacyrillic" unicode="&#x425;" 
d="M721 0l-183 443l-177 -443h-272l324 769l-288 720h290l157 -387l156 387h272l-304 -718l300 -771h-275z" />
    <glyph glyph-name="Tsecyrillic" unicode="&#x426;" 
d="M752 -279v279h-629v1489h287v-1273h230v1273h285v-1273h112v-495h-285z" />
    <glyph glyph-name="Checyrillic" unicode="&#x427;" 
d="M400 909q0 -200 138 -200h136v780h285v-1489h-285v497h-136q-216 0 -319.5 99.5t-103.5 308.5v584h285v-580z" />
    <glyph glyph-name="Shacyrillic" unicode="&#x428;" 
d="M93 0v1489h231v-1284h108v1284h223v-1284h110v1284h231v-1489h-903z" />
    <glyph glyph-name="Shchacyrillic" unicode="&#x429;" 
d="M1056 -320h-241v320h-722v1489h231v-1284h108v1284h223v-1284h110v1284h231v-1284h60v-525z" />
    <glyph glyph-name="Hardsigncyrillic" unicode="&#x42a;" 
d="M510 216h67q63 0 93 46.5t30 158.5v165q0 112 -30 157t-93 45h-67v-572zM616 0h-381v1273h-179v216h454v-489h108q184 0 271.5 -96t87.5 -295v-209q0 -203 -88.5 -301.5t-272.5 -98.5z" />
    <glyph glyph-name="Yericyrillic" unicode="&#x42b;" 
d="M337 205h28q43 0 62.5 46.5t19.5 161.5v181q0 114 -19.5 159.5t-62.5 45.5h-28v-594zM754 0v1489h231v-1489h-231zM670 393q0 -393 -305 -393h-261v1489h233v-489h30q303 0 303 -382v-225z" />
    <glyph glyph-name="Softsigncyrillic" unicode="&#x42c;" 
d="M410 216h147q88 0 127.5 44.5t39.5 152.5v181q0 106 -41 150t-126 44h-147v-572zM1009 393q0 -393 -406 -393h-480v1489h287v-489h195q404 0 404 -382v-225z" />
    <glyph glyph-name="Ereversedcyrillic" unicode="&#x42d;" 
d="M557 1508q450 0 450 -523v-488q0 -249 -110.5 -382.5t-328.5 -133.5t-327 128.5t-116 385.5l285 19q9 -184 39.5 -250.5t118.5 -66.5t121 71t33 244v181h-217v217h217v58q0 190 -32 257t-120 67t-119.5 -67t-40.5 -257l-285 19q14 521 432 521z" />
    <glyph glyph-name="IUcyrillic" unicode="&#x42e;" 
d="M706 195q33 0 46 46t13 169v657q0 128 -13 177.5t-46 49.5t-45.5 -49.5t-12.5 -177.5v-657q0 -123 12.5 -169t45.5 -46zM708 -19q-139 0 -212 113t-73 316v286h-101v-696h-229v1489h229v-582h101v160q0 210 73.5 325.5t213 115.5t213 -115.5t73.5 -325.5v-657
q0 -203 -74.5 -316t-213.5 -113z" />
    <glyph glyph-name="IAcyrillic" unicode="&#x42f;" 
d="M140 1089q0 400 363 400h465v-1489h-287v553h-74l-210 -553h-298l231 590q-190 82 -190 374v125zM549 767h132v506h-132q-74 0 -106 -45.5t-32 -145.5v-116q0 -106 32 -152.5t106 -46.5z" />
    <glyph glyph-name="acyrillic" unicode="&#x430;" 
d="M372 -19q-108 -1 -185 89t-77 237t83 230t218 83h202v164q0 78 -30 112q-31 34 -91 34t-88 -37q-28 -38 -43 -139l-229 47q30 175 118 255t262 80t273 -78q98 -78 98 -259v-482q0 -82 31 -104q32 -21 91 -6v-205q-234 -55 -290 153h-41q-42 -74 -118 -124t-184 -50z
M367 313q0 -144 98 -144q85 0 148 92v199h-157q-48 0 -68 -31t-21 -116z" />
    <glyph glyph-name="becyrillic" unicode="&#x431;" 
d="M544 190q67 0 95.5 46.5t28.5 137.5v255q0 84 -28.5 125t-95.5 41t-94 -41t-27 -125v-255q0 -91 27 -137.5t94 -46.5zM665 1005q128 0 209 -94t81 -254v-272q0 -203 -112.5 -303.5t-297 -100.5t-296 103.5t-111.5 328.5v505q0 249 96.5 379.5t309.5 164.5l337 55l20 -217
l-313 -56q-91 -17 -134.5 -86t-43.5 -205v-84h31q69 136 224 136z" />
    <glyph glyph-name="vecyrillic" unicode="&#x432;" 
d="M410 195h143q82 0 118 35.5t36 110.5v18q0 73 -34 106.5t-126 33.5h-137v-304zM410 665h137q74 0 104 23t30 92v26q0 69 -26 97t-102 28h-143v-266zM536 1117q417 0 417 -287v-33q0 -89 -51 -139.5t-142 -57.5v-41q110 -9 163.5 -73.5t53.5 -154.5v-26q0 -149 -101 -227
t-340 -78h-398v1117h398z" />
    <glyph glyph-name="gecyrillic" unicode="&#x433;" 
d="M194 0v1117h728v-216h-444v-901h-284z" />
    <glyph glyph-name="decyrillic" unicode="&#x434;" 
d="M339 0v-279h-257v495h74q65 65 69 305l10 596h661v-901h111v-495h-257v279h-411zM419 216h221v685h-160l-3 -387q-3 -139 -58 -253v-45z" />
    <glyph glyph-name="iecyrillic" unicode="&#x435;" 
d="M423 773v-106h244v100q0 101 -27 142t-95 41t-95 -39t-27 -138zM138 756q0 180 111 280t298 100t295 -104t109 -297v-230h-528v-148q-1 -93 33 -139t108 -45q74 0 112 32q37 32 50 113l233 -65q-37 -145 -127 -208t-278 -63q-187 0 -302 102t-114 287v385z" />
    <glyph glyph-name="zhecyrillic" unicode="&#x436;" 
d="M447 685v432h197v-432h41l116 432h234l-167 -512l167 -605h-231l-104 503h-56v-503h-197v503h-58l-112 -503h-221l162 609l-168 508h227l127 -432h43z" />
    <glyph glyph-name="zecyrillic" unicode="&#x437;" 
d="M557 -19q-216 0 -314 87.5t-105 287.5l255 13q13 -123 44.5 -162t114.5 -39t111 42.5t28 126.5v19q0 78 -27 115t-117 37h-63v166h63q65 0 92.5 25t27.5 96v26q0 71 -23.5 100t-93.5 29t-98 -35.5t-35 -145.5l-255 15q13 184 106 268t293 84t295 -71t95 -225v-34
q0 -91 -51 -142t-140 -59v-41q108 -9 162.5 -77t54.5 -159v-26q0 -168 -102 -244.5t-318 -76.5z" />
    <glyph glyph-name="iicyrillic" unicode="&#x438;" 
d="M709 0v737l-285 -737h-286v1117h242v-795l307 795h264v-1117h-242z" />
    <glyph glyph-name="iishortcyrillic" unicode="&#x439;" 
d="M709 0v737l-285 -737h-286v1117h242v-795l307 795h264v-1117h-242zM546 1290q-175 0 -274 99t-97 298l244 18q-2 -128 25 -181q28 -53 102 -53t101 53t25 181l244 -18q2 -199 -96 -298t-274 -99z" />
    <glyph glyph-name="kacyrillic" unicode="&#x43a;" 
d="M436 484v-484h-287v1117h287v-437h50l210 437h293l-272 -512l268 -605h-304l-195 484h-50z" />
    <glyph glyph-name="elcyrillic" unicode="&#x43b;" 
d="M153 195q74 0 74 259l6 663h735v-1117h-287v909h-184l-2 -479q-2 -231 -71.5 -341.5t-214.5 -110.5q-57 0 -153 28l28 208q52 -19 69 -19z" />
    <glyph glyph-name="emcyrillic" unicode="&#x43c;" 
d="M125 0v1117h259l165 -571l164 571h253v-1117h-242l30 769l-119 -490h-179l-121 509l30 -788h-240z" />
    <glyph glyph-name="encyrillic" unicode="&#x43d;" 
d="M138 0v1117h285v-383h244v383h284v-1117h-284v518h-244v-518h-285z" />
    <glyph glyph-name="ocyrillic" unicode="&#x43e;" 
d="M547 190q63 0 93 42q29 42 28 142v361q0 102 -28 148q-28 45 -92 45t-94 -46q-30 -44 -30 -145v-357q0 -102 30 -146t93 -44zM953 363q0 -179 -109 -281t-298 -101q-190 -1 -298 103t-108 283v376q0 184 109 288q109 105 297 105t298 -106q109 -106 109 -291v-376z" />
    <glyph glyph-name="pecyrillic" unicode="&#x43f;" 
d="M138 0v1117h813v-1117h-284v901h-244v-901h-285z" />
    <glyph glyph-name="ercyrillic" unicode="&#x440;" 
d="M465 961q41 175 251 175q106 0 171 -88q64 -88 64 -249v-428q0 -179 -92 -283t-252 -103q-106 0 -184 49v-406h-285v1489h285v-156h42zM667 767q0 147 -95 147q-90 0 -149 -113v-550q71 -61 131 -61t86 43t27 139v395z" />
    <glyph glyph-name="escyrillic" unicode="&#x441;" 
d="M554 -19q-198 -1 -307 103t-109 290v367q0 188 108 291q108 104 300 104t288 -98q97 -98 119 -303l-275 -18q-6 123 -36 166t-96 43t-95 -43q-29 -42 -28 -153v-346q1 -110 29 -152t96 -42t96 35t34 138l275 -19q-9 -188 -105 -276t-294 -87z" />
    <glyph glyph-name="tecyrillic" unicode="&#x442;" 
d="M402 0v901h-277v216h841v-216h-277v-901h-287z" />
    <glyph glyph-name="ucyrillic" unicode="&#x443;" 
d="M330 -389q-86 0 -226 20l15 209q111 -28 188 -27q76 1 124 48q47 47 68 148l6 25h-194l-223 1083h286l173 -875l177 875h278l-252 -1130q-45 -195 -148 -285t-272 -91z" />
    <glyph glyph-name="efcyrillic" unicode="&#x444;" 
d="M758 724q0 207 -91 207h-30v-745h30q91 0 91 203v335zM331 389q0 -203 92 -203h29v745h-29q-92 0 -92 -207v-335zM711 0h-52v-372h-229v372h-50q-128 0 -201 102.5t-73 284.5v345q0 182 72.5 283.5t201.5 101.5h50v372h229v-372h52q128 0 200 -101.5t72 -283.5v-347
q0 -181 -72 -283t-200 -102z" />
    <glyph glyph-name="khacyrillic" unicode="&#x445;" 
d="M696 0l-164 324l-148 -324h-282l304 570l-278 547h282l143 -279l123 279h281l-274 -532l300 -585h-287z" />
    <glyph glyph-name="tsecyrillic" unicode="&#x446;" 
d="M758 -279v279h-620v1117h285v-901h225v901h285v-901h97v-495h-272z" />
    <glyph glyph-name="checyrillic" unicode="&#x447;" 
d="M410 743q0 -191 124 -193q61 -1 121 22v545h285v-1117h-285v357q-74 -20 -160 -20q-370 0 -370 402v378h285v-374z" />
    <glyph glyph-name="shacyrillic" unicode="&#x448;" 
d="M106 0v1117h225v-916h103v916h221v-916h103v916h225v-1117h-877z" />
    <glyph glyph-name="shchacyrillic" unicode="&#x449;" 
d="M1035 -279h-225v279h-704v1117h225v-916h103v916h221v-916h103v916h225v-910h52v-486z" />
    <glyph glyph-name="hardsigncyrillic" unicode="&#x44a;" 
d="M551 209h76q52 0 74.5 31.5t22.5 103.5v97q0 73 -22 102t-75 29h-76v-363zM659 0h-393v901h-210v216h495v-341h110q166 0 257 -88t91 -245v-112q0 -156 -92 -243.5t-258 -87.5z" />
    <glyph glyph-name="yericyrillic" unicode="&#x44b;" 
d="M337 197h37q47 0 66.5 32t19.5 112v121q0 78 -19.5 108t-66.5 30h-37v-403zM754 0v1117h231v-1117h-231zM104 0v1117h233v-324h41q138 0 214 -81t76 -228v-160q0 -153 -75 -238.5t-215 -85.5h-274z" />
    <glyph glyph-name="softsigncyrillic" unicode="&#x44c;" 
d="M423 209h132q73 0 105.5 32.5t32.5 112.5v70q0 80 -33 114t-105 34h-132v-363zM136 0v1117h287v-341h178q179 0 278.5 -90t99.5 -256v-86q0 -164 -99.5 -254t-278.5 -90h-465z" />
    <glyph glyph-name="ereversedcyrillic" unicode="&#x44d;" 
d="M536 -19q-205 0 -305.5 89.5t-107.5 281.5l275 19q6 -112 29 -153t103 -41t108.5 44.5t28.5 150.5v120h-216v173h216v85q0 104 -28 147t-102.5 43t-103.5 -40t-35 -152l-275 21q19 188 118.5 277.5t298.5 89.5t305 -103.5t106 -293.5v-354q0 -194 -105 -299t-310 -105z
" />
    <glyph glyph-name="iucyrillic" unicode="&#x44e;" 
d="M706 182q31 0 45 32t14 114v454q0 86 -14 119.5t-45 33.5t-43.5 -33.5t-12.5 -119.5v-454q0 -82 12.5 -114t43.5 -32zM708 -19q-140 0 -212.5 91.5t-72.5 255.5v188h-99v-516h-231v1117h231v-402h99v67q0 168 74.5 261t212.5 93t212 -95t74 -259v-454q0 -160 -74 -253.5
t-214 -93.5z" />
    <glyph glyph-name="iacyrillic" unicode="&#x44f;" 
d="M166 719v50q0 173 78 260.5t229 87.5h478v-1117h-284v367h-67l-174 -367h-301l193 404q-152 72 -152 315zM546 564h121v352h-121q-50 0 -72 -34.5t-22 -116.5v-41q0 -88 22 -124t72 -36z" />
    <glyph glyph-name="iegravecyrillic" unicode="&#x450;" 
d="M423 773v-106h244v100q0 101 -27 142t-95 41t-95 -39t-27 -138zM138 756q0 180 111 280t298 100t295 -104t109 -297v-230h-528v-148q-1 -93 33 -139t108 -45q74 0 112 32q37 32 50 113l233 -65q-37 -145 -127 -208t-278 -63q-187 0 -302 102t-114 287v385zM523 1303
l-316 373h355l147 -373h-186z" />
    <glyph glyph-name="iocyrillic" unicode="&#x451;" 
d="M423 773v-106h244v100q0 101 -27 142t-95 41t-95 -39t-27 -138zM138 756q0 180 111 280t298 100t295 -104t109 -297v-230h-528v-148q-1 -93 33 -139t108 -45q74 0 112 32q37 32 50 113l233 -65q-37 -145 -127 -208t-278 -63q-187 0 -302 102t-114 287v385zM726 1573
q138 0 138 -126v-21q0 -69 -39 -95t-99 -26t-99 26q-38 26 -39 95v21q0 126 138 126zM361 1573q138 0 138 -126v-21q0 -69 -39 -95q-40 -26 -100 -26t-98 26t-39 95v21q0 126 138 126z" />
    <glyph glyph-name="djecyrillic" unicode="&#x452;" 
d="M465 851q62 175 254 175q99 0 165.5 -81t66.5 -219v-760q0 -168 -98.5 -261.5t-254.5 -93.5q-93 0 -194 41l28 203q81 -37 128 -37q107 0 107 176v674q0 136 -88 136q-96 0 -156 -130v-674h-285v1149h-140v165h140v175h285v-175h221v-165h-221v-298h42z" />
    <glyph glyph-name="gjecyrillic" unicode="&#x453;" 
d="M194 0v1117h728v-216h-444v-901h-284zM359 1303l146 373h355l-316 -373h-185z" />
    <glyph glyph-name="ecyrillic" unicode="&#x454;" 
d="M561 -19q-202 0 -312.5 106.5t-110.5 297.5v354q0 188 111 292.5t307 104.5t295 -89.5t117 -277.5l-275 -21q-6 108 -35.5 149t-101.5 41t-102.5 -41.5t-30.5 -146.5v-91h247v-164h-247v-123q0 -106 31.5 -149.5t102 -43.5t100.5 42t36 150l275 -19q-9 -192 -107 -281.5
t-300 -89.5z" />
    <glyph glyph-name="dzecyrillic" unicode="&#x455;" 
d="M563 944q-125 0 -125 -110q0 -58 44 -88t200 -84q156 -55 218 -130t62 -216t-115 -236q-116 -95 -326 -95q-115 0 -219 35t-175 84l63 181q189 -110 339 -109q149 1 149 120q0 65 -36 94t-192 81q-156 53 -226 129t-70 216t105 229q104 91 297 91t349 -112l-49 -175
q-168 95 -293 95z" />
    <glyph glyph-name="icyrillic" unicode="&#x456;" 
d="M153 0v209h249v700h-249v208h536v-908h249v-209h-785zM378 1447q0 126 182 126t183 -126v-21q1 -69 -51 -95t-132 -26t-131 26t-51 95v21z" />
    <glyph glyph-name="yicyrillic" unicode="&#x457;" 
d="M153 0v209h249v700h-249v208h536v-908h249v-209h-785zM728 1573q138 0 138 -126v-21q0 -69 -39 -95t-99 -26t-100 26q-38 26 -38 95v21q0 126 138 126zM363 1573q138 0 138 -126v-21q0 -69 -39 -95q-40 -26 -100 -26t-99 26q-38 26 -38 95v21q0 126 138 126z" />
    <glyph glyph-name="jecyrillic" unicode="&#x458;" 
d="M348 -182q179 0 179 202v889h-345v208h630v-1124q0 -177 -119 -280q-120 -102 -294 -102t-274 41l28 203q94 -37 195 -37zM473 1447q1 126 183 126t182 -126v-21q0 -69 -52 -95t-131 -26q-80 0 -131 26t-51 95v21z" />
    <glyph glyph-name="ljecyrillic" unicode="&#x459;" 
d="M670 188h37q32 2 47 34.5t15 114.5v121q0 74 -15 104t-47 30h-37v-404zM97 203q42 0 44 84l6 830h523v-341h73q114 0 177 -79t63 -224v-156q0 -151 -63.5 -234t-178.5 -83h-285v925h-102l-2 -690q-2 -117 -58 -182.5t-154 -65.5q-48 0 -106 20l27 209q15 -13 36 -13z" />
    <glyph glyph-name="njecyrillic" unicode="&#x45a;" 
d="M320 546v-546h-212v1117h212v-374h136v374h214v-324h80q110 0 171.5 -81t61.5 -228v-169q0 -151 -62.5 -233t-173.5 -82h-291v546h-136zM670 188h37q34 0 48 32.5t14 109.5v132q0 82 -14 114.5t-48 32.5h-37v-421z" />
    <glyph glyph-name="tshecyrillic" unicode="&#x45b;" 
d="M465 845q59 181 257 181q102 0 165 -80q64 -80 64 -225v-721h-284v650q0 154 -84 154q-90 0 -160 -149v-655h-285v1149h-140v165h140v175h285v-175h221v-165h-221v-304h42z" />
    <glyph glyph-name="kjecyrillic" unicode="&#x45c;" 
d="M436 484v-484h-287v1117h287v-437h50l210 437h293l-272 -512l268 -605h-304l-195 484h-50zM445 1303l145 373h356l-317 -373h-184z" />
    <glyph glyph-name="igravecyrillic" unicode="&#x45d;" 
d="M709 0v737l-285 -737h-286v1117h242v-795l307 795h264v-1117h-242zM547 1303l-316 373h355l148 -373h-187z" />
    <glyph glyph-name="ushortcyrillic" unicode="&#x45e;" 
d="M330 -389q-86 0 -226 20l15 209q111 -28 188 -27q76 1 124 48q47 47 68 148l6 25h-194l-223 1083h286l173 -875l177 875h278l-252 -1130q-45 -195 -148 -285t-272 -91zM546 1290q-175 0 -274 99t-97 298l244 18q-2 -128 25 -181q28 -53 102 -53t101 53t25 181l244 -18
q2 -199 -96 -298t-274 -99z" />
    <glyph glyph-name="dzhecyrillic" unicode="&#x45f;" 
d="M410 -279v279h-272v1117h285v-901h244v901h284v-1117h-271v-279h-270z" />
    <glyph glyph-name="Gheupturncyrillic" unicode="&#x490;" 
d="M195 0v1489h514v280h287v-496h-516v-1273h-285z" />
    <glyph glyph-name="gheupturncyrillic" unicode="&#x491;" 
d="M194 0v1117h458v279h270v-495h-444v-901h-284z" />
    <glyph glyph-name="Wgrave" unicode="&#x1e80;" 
d="M637 0l-90 702l-87 -702h-250l-143 1489h240l52 -1102l90 730h188l95 -709l50 1081h240l-143 -1489h-242zM516 1676l-317 372h356l147 -372h-186z" />
    <glyph glyph-name="wgrave" unicode="&#x1e81;" 
d="M653 0l-107 585l-105 -585h-246l-128 1117h240l65 -735l90 541h160l99 -538l61 732h240l-126 -1117h-243zM518 1303l-317 373h356l147 -373h-186z" />
    <glyph glyph-name="Wacute" unicode="&#x1e82;" 
d="M637 0l-90 702l-87 -702h-250l-143 1489h240l52 -1102l90 730h188l95 -709l50 1081h240l-143 -1489h-242zM356 1676l145 372h355l-316 -372h-184z" />
    <glyph glyph-name="wacute" unicode="&#x1e83;" 
d="M653 0l-107 585l-105 -585h-246l-128 1117h240l65 -735l90 541h160l99 -538l61 732h240l-126 -1117h-243zM430 1303l145 373h356l-317 -373h-184z" />
    <glyph glyph-name="Wdieresis" unicode="&#x1e84;" 
d="M637 0l-90 702l-87 -702h-250l-143 1489h240l52 -1102l90 730h188l95 -709l50 1081h240l-143 -1489h-242zM879 1799q0 -122 -138 -122q-61 1 -99 27t-39 95v20q0 127 138 127t138 -127v-20zM514 1799q0 -122 -138 -122q-62 1 -100 27t-38 95v20q0 127 138 127t138 -127
v-20z" />
    <glyph glyph-name="wdieresis" unicode="&#x1e85;" 
d="M653 0l-107 585l-105 -585h-246l-128 1117h240l65 -735l90 541h160l99 -538l61 732h240l-126 -1117h-243zM741 1573q138 0 138 -126v-21q0 -69 -39 -95q-40 -26 -100 -26t-99 26q-38 26 -38 95v21q0 126 138 126zM376 1573q138 0 138 -126v-21q0 -69 -39 -95t-99 -26
t-100 26q-38 26 -38 95v21q0 126 138 126z" />
    <glyph glyph-name="Ygrave" unicode="&#x1ef2;" 
d="M689 0h-287v559l-344 930h283l203 -631l204 631h283l-342 -930v-559zM518 1676l-317 372h356l147 -372h-186z" />
    <glyph glyph-name="ygrave" unicode="&#x1ef3;" 
d="M330 -389q-86 0 -226 20l15 209q111 -28 188 -27q76 1 124 48q47 47 68 148l6 25h-194l-223 1083h286l173 -875l177 875h278l-252 -1130q-45 -195 -148 -285t-272 -91zM518 1303l-317 373h356l147 -373h-186z" />
    <glyph glyph-name="uni2000" unicode="&#x2000;" horiz-adv-x="545" 
 />
    <glyph glyph-name="uni2001" unicode="&#x2001;" 
 />
    <glyph glyph-name="uni2002" unicode="&#x2002;" horiz-adv-x="545" 
 />
    <glyph glyph-name="uni2003" unicode="&#x2003;" 
 />
    <glyph glyph-name="uni2004" unicode="&#x2004;" horiz-adv-x="363" 
 />
    <glyph glyph-name="uni2005" unicode="&#x2005;" horiz-adv-x="271" 
 />
    <glyph glyph-name="uni2007" unicode="&#x2007;" 
 />
    <glyph glyph-name="uni2009" unicode="&#x2009;" horiz-adv-x="180" 
 />
    <glyph glyph-name="uni200A" unicode="&#x200a;" horiz-adv-x="109" 
 />
    <glyph glyph-name="uni200B" unicode="&#x200b;" horiz-adv-x="0" 
 />
    <glyph glyph-name="endash" unicode="&#x2013;" 
d="M108 534v244h873v-244h-873z" />
    <glyph glyph-name="emdash" unicode="&#x2014;" 
d="M56 534v244h977v-244h-977z" />
    <glyph glyph-name="horizontalbar" unicode="&#x2015;" 
d="M56 534v244h977v-244h-977z" />
    <glyph glyph-name="underscoredbl" unicode="&#x2017;" 
d="M140 0v244h810v-244h-810zM140 -428v244h810v-244h-810z" />
    <glyph glyph-name="quoteright" unicode="&#x2019;" 
d="M281 704l132 785h401l-352 -785h-181z" />
    <glyph glyph-name="quotesinglbase" unicode="&#x201a;" 
d="M324 -331l102 785h403l-324 -785h-181z" />
    <glyph glyph-name="quotereversed" unicode="&#x201b;" 
d="M633 704l-352 785h402l131 -785h-181z" />
    <glyph glyph-name="quotedblleft" unicode="&#x201c;" 
d="M7 704l352 785h181l-130 -785h-403zM559 704l351 785h181l-132 -785h-400z" />
    <glyph glyph-name="quotedblright" unicode="&#x201d;" 
d="M-2 704l132 785h401l-352 -785h-181zM549 704l131 785h402l-352 -785h-181z" />
    <glyph glyph-name="quotedblbase" unicode="&#x201e;" 
d="M-214 -331l132 785h400l-352 -785h-180zM337 -331l130 785h402l-351 -785h-181z" />
    <glyph glyph-name="dagger" unicode="&#x2020;" 
d="M423 -372v1281h-88l-56 -399h-184l43 607h283l-10 372h267l-10 -372h285l43 -607h-186l-56 399h-89v-1281h-242z" />
    <glyph glyph-name="daggerdbl" unicode="&#x2021;" 
d="M423 181v755h-95l-56 -243h-184l42 452h291l-10 344h267l-10 -344h291l43 -452h-185l-56 243h-94v-755h94l56 245h185l-43 -454h-291l10 -344h-267l10 344h-291l-42 454h184l56 -245h95z" />
    <glyph glyph-name="bullet" unicode="&#x2022;" 
d="M545 439q-103 0 -168.5 57t-65.5 178v134q0 123 64.5 181.5t170.5 58.5t170 -58.5t64 -181.5v-134q0 -121 -66 -178t-169 -57z" />
    <glyph glyph-name="ellipsis" unicode="&#x2026;" 
d="M210 -17q-50 0 -81.5 38.5t-31.5 118.5v163q0 82 31.5 121.5t83.5 39.5t82 -39.5t30 -121.5v-163q0 -80 -32 -118.5t-82 -38.5zM546 464q111 0 111 -161v-163q0 -80 -31.5 -118.5t-80.5 -38.5t-81 38.5t-32 118.5v163q0 82 31.5 121.5t82.5 39.5zM879 -17q-50 0 -82 38.5
t-32 118.5v163q0 82 32 121.5t83 39.5t81.5 -39.5t30.5 -121.5v-163q0 -80 -31.5 -118.5t-81.5 -38.5z" />
    <glyph glyph-name="perthousand" unicode="&#x2030;" 
d="M873 335q-1 108 -45 108t-44 -108v-117q0 -103 44 -103t45 103v117zM569.5 443q-44.5 0 -44.5 -108v-117q0 -103 44.5 -103t44.5 103v117q0 108 -44.5 108zM1044 326v-86q0 -143 -55 -212t-150 -69t-141 99q-48 -99 -158 -99q-84 0 -134 69t-50 212v86q0 145 54.5 215
t147.5 70t142 -97q44 97 140 97t150 -70t54 -215zM1063 1007l-959 -564l-78 136l959 564zM317 1355q-73 0 -73 -111v-101q0 -113 73 -113q68 0 68 113v101q0 111 -68 111zM316 871q-114 0 -186 71t-72 218v80q0 145 73 216t187 71t184 -71t70 -216v-80q0 -147 -71 -218
t-185 -71z" />
    <glyph glyph-name="minute" unicode="&#x2032;" 
d="M309 704l132 785h401l-352 -785h-181z" />
    <glyph glyph-name="second" unicode="&#x2033;" 
d="M-259 704l132 785h401l-352 -785h-181zM292 704l131 785h402l-352 -785h-181z" />
    <glyph glyph-name="guilsinglleft" unicode="&#x2039;" 
d="M829 121l-566 397v268l566 396v-242l-410 -288l410 -289v-242z" />
    <glyph glyph-name="guilsinglright" unicode="&#x203a;" 
d="M263 121v242l409 289l-409 288v242l566 -396v-268z" />
    <glyph glyph-name="exclamdbl" unicode="&#x203c;" 
d="M469 138q1 -157 -177 -157t-178 157v52q0 160 177.5 160t177.5 -160v-52zM977 138q-1 -157 -179 -157t-178 157v52q0 160 178.5 160t178.5 -160v-52zM184 559l-41 930h283l-42 -930h-200zM691 559l-41 930h283l-43 -930h-199z" />
    <glyph glyph-name="overline" unicode="&#x203e;" 
d="M140 1618v244h810v-244h-810z" />
    <glyph glyph-name="fraction" unicode="&#x2215;" 
d="M153 0l558 1489h227l-558 -1489h-227z" />
    <glyph glyph-name="fraction" unicode="&#x2044;" 
d="M153 0l558 1489h227l-558 -1489h-227z" />
    <glyph glyph-name="zero.sups" unicode="&#x2070;" 
d="M543 709q59 0 82 55t23 204v116q0 151 -24 206.5t-82 55.5t-80.5 -56t-22.5 -206v-116q0 -149 22.5 -204t81.5 -55zM543 555q-152 0 -235 103t-83 288v158q0 188 84 292.5t234.5 104.5t235.5 -104.5t85 -292.5v-158q0 -184 -84.5 -287.5t-236.5 -103.5z" />
    <glyph glyph-name="four.sups" unicode="&#x2074;" 
d="M910 793h-130v-227h-214v227h-356v157l317 539h253v-539h130v-157zM566 950v292l-173 -292h173z" />
    <glyph glyph-name="five.sups" unicode="&#x2075;" 
d="M540 555q-168 0 -245 68t-85 230l216 11q7 -88 32.5 -121.5t89 -33.5t84 30t20.5 106v38q0 73 -24.5 98.5t-93.5 25.5h-298v482h609v-154h-394v-162h137q136 0 208 -64.5t72 -188.5v-105q0 -123 -80 -191.5t-248 -68.5z" />
    <glyph glyph-name="six.sups" unicode="&#x2076;" 
d="M541.5 709q63.5 0 87 32t23.5 104v15q0 78 -23.5 112.5t-85.5 34.5t-85.5 -34.5t-23.5 -112.5v-15q0 -73 22 -104.5t85.5 -31.5zM868 843q0 -288 -324 -288t-324 329v278q0 339 326 339q280 0 312 -242l-221 -28q-7 63 -29 89t-78 26t-76 -37t-20 -147v-97h13
q49 78 176 78q126 0 185.5 -67t59.5 -208v-25z" />
    <glyph glyph-name="seven.sups" unicode="&#x2077;" 
d="M220 1324v165h648v-165q-93 -238 -152 -396.5t-100 -361.5h-223q54 242 112.5 401t146.5 357h-432z" />
    <glyph glyph-name="eight.sups" unicode="&#x2078;" 
d="M544 709q60 0 84 31t24 92v23q0 58 -22.5 92t-86.5 34t-86.5 -34.5t-22.5 -91.5v-23q0 -61 25 -92t85 -31zM451 1218q0 -97 92 -97t92 97v31q0 97 -92 97t-92 -97v-31zM544 555q-180 0 -252 68t-72 192v27q0 82 40 134t109 59v34q-54 7 -93.5 50t-39.5 114v37
q0 121 77.5 176t228.5 55t229 -54t78 -177v-37q0 -71 -37 -114t-93 -50v-34q69 -7 109 -60t40 -133v-27q0 -128 -72 -194t-252 -66z" />
    <glyph glyph-name="nine.sups" unicode="&#x2079;" 
d="M220 1212q0 289 322 289q168 0 247 -80t79 -250v-277q0 -173 -79 -256t-239 -83t-231 55t-92 187l224 28q11 -67 32.5 -91.5t75.5 -24.5t73.5 39.5t19.5 145.5v98h-10q-47 -80 -195 -80q-227 0 -227 276v24zM543.5 1048q63.5 0 86 33.5t22.5 113.5v15q0 73 -22.5 104.5
t-86 31.5t-85.5 -31.5t-22 -104.5v-15q0 -80 22 -113.5t85.5 -33.5z" />
    <glyph glyph-name="nsuperior" unicode="&#x207f;" 
d="M478 1368q44 140 209 140q90 0 153 -82q57 -83 57 -231v-633h-244v613q0 143 -74 143q-33 0 -73 -33t-70 -90v-633h-242v929h242v-123h42z" />
    <glyph glyph-name="zero.sinf" unicode="&#x2080;" 
d="M439 402q1 -149 23 -204t81 -55t82 55t23 204v116q0 150 -23 206t-82 56t-81 -56t-23 -206v-116zM864 380q0 -184 -84 -288t-237 -103q-152 0 -235 103t-83 288v158q0 188 84 292t235 104q152 0 236 -104t84 -292v-158z" />
    <glyph glyph-name="one.sinf" unicode="&#x2081;" 
d="M289 0v166h189v553h-27q-11 -76 -61 -122t-111 -50l-7 164q74 9 130 67t80 145h212v-757h174v-166h-579z" />
    <glyph glyph-name="two.sinf" unicode="&#x2082;" 
d="M220 0v207q0 220 164 266l169 46q47 13 69 39t22 84v25q0 61 -22 87t-80 26t-77 -30t-22 -117l-216 13q7 149 83 219t236 70q158 0 236 -70t78 -198v-51q0 -102 -44 -164t-118 -80l-169 -46q-56 -13 -76 -36t-19 -81v-43h434v-166h-648z" />
    <glyph glyph-name="three.sinf" unicode="&#x2083;" 
d="M868 253q0 -264 -317 -264q-169 0 -251 69t-90 208l216 11q6 -73 35 -99t85 -27q56 0 81 27q24 27 25 83v29q0 110 -105 110h-163v164h163q47 0 67 18t21 70v26q0 54 -23 74q-24 20 -78 20t-70 -22t-21 -80l-216 11q7 129 83 191t230 62q310 1 309 -230v-24
q0 -161 -147 -175v-34q74 -7 120 -57t46 -140v-21z" />
    <glyph glyph-name="four.sinf" unicode="&#x2084;" 
d="M910 227h-130v-227h-214v227h-356v157l317 539h253v-539h130v-157zM566 384v292l-173 -292h173z" />
    <glyph glyph-name="five.sinf" unicode="&#x2085;" 
d="M868 249q0 -123 -80 -191t-248 -69q-168 0 -245 68t-85 230l216 11q6 -88 32 -122t89 -33q63 0 84 30q20 30 21 106v38q0 73 -24 99t-94 25h-298v482h609v-154h-394v-162h137q136 0 208 -64t72 -189v-105z" />
    <glyph glyph-name="six.sinf" unicode="&#x2086;" 
d="M542 143q63 0 86 32t24 104v15q0 78 -24 112t-85 35q-61 0 -85 -34t-24 -113v-15q0 -73 22 -105t86 -31zM868 277q0 -288 -324 -288t-324 329v278q0 339 326 339q278 0 312 -242l-221 -28q-7 63 -29 89t-78 26t-76 -37t-20 -147v-97h13q49 78 176 78q125 0 185 -67
t60 -208v-25z" />
    <glyph glyph-name="seven.sinf" unicode="&#x2087;" 
d="M220 758v165h648v-165q-93 -238 -152 -396t-100 -362h-223q54 242 112 401q59 159 147 357h-432z" />
    <glyph glyph-name="eight.sinf" unicode="&#x2088;" 
d="M544 143q60 0 84 31q23 31 24 92v23q0 58 -22 92t-87 34t-87 -34t-22 -92v-23q0 -61 25 -92t85 -31zM451 652q0 -97 92 -97t92 97v31q0 97 -92 97t-92 -97v-31zM544 -11q-180 0 -253 68q-72 68 -71 192v27q0 82 40 134t109 59v34q-54 7 -93 50t-40 114v37q0 121 78 176
t228 55q151 0 229 -54t78 -177v-37q0 -71 -37 -114t-93 -50v-34q69 -7 109 -60t40 -133v-27q0 -128 -72 -194t-252 -66z" />
    <glyph glyph-name="nine.sinf" unicode="&#x2089;" 
d="M220 646q0 289 322 289q168 0 246 -80t80 -250v-277q0 -173 -79 -256t-239 -83t-231 55q-72 55 -92 187l224 28q11 -67 32 -91t75 -24t74 38q20 39 20 146v98h-10q-47 -80 -195 -80q-229 0 -227 276v24zM544 482q63 0 85 34t23 113v15q0 72 -22 104t-86 32t-86 -32
t-22 -104v-15q0 -79 22 -113t86 -34z" />
    <glyph glyph-name="franc" unicode="&#x20a3;" 
d="M616 311h-206v-311h-287v311h-142v192h142v986h873v-216h-586v-318h487v-216h-487v-236h206v-192z" />
    <glyph glyph-name="lira" unicode="&#x20a4;" 
d="M918.5 45q-143.5 -64 -221.5 -64t-142 32q-15 7 -46 24t-73 39q-81 42 -126.5 48.5t-87.5 -29.5l-129 -112l-113 175l148 105q52 44 85 120q34 75 38 149h-225v166h197l-78 188h-119v166h82q0 228 120 342t334 114q353 0 411 -170.5t64 -289.5l-285 -18q-8 131 -46.5 187
t-133.5 56t-136 -55t-41 -144l245 -22v-166h-197q6 -11 9.5 -21t17.5 -41t23 -48.5t13 -32.5t8 -25.5t5 -19.5h121v-166h-106q-23 -117 -208 -229l28 -48q96 61 174 31q40 -15 90 -46q114 -46 147 39q22 51 30 192l285 -19q-18 -343 -161.5 -407z" />
    <glyph glyph-name="peseta" unicode="&#x20a7;" 
d="M815 138q51 0 51 130q0 89 -32 149.5t-53 103.5t-54.5 110t-33.5 205l1 61q2 13 4 27t4 27h-58v-690q0 -120 36 -120h4q5 0 7 2l13 2l24 50l28 -29q29 -28 59 -28zM862 979q-30 0 -30 -103t19 -149t65 -130t68 -154q21 -69 21 -153q0 -160 -57 -236q-51 -73 -133 -73
q-34 0 -72 17q-16 -8 -52 -13l-51 -2q-137 0 -137 291v677h-54v-130q0 -300 -168 -300h-28v-521h-154v1489h184q166 0 166 -299v-73h54v372h141v-372h149q22 19 52 19q72 0 106 -29t54 -49l-63 -136q-50 57 -80 57zM307 1182q0 142 -56 142h-11v-641h11q56 0 56 142v357z
" />
    <glyph glyph-name="Euro" unicode="&#x20ac;" 
d="M572 -19q-406 0 -406 490v7h-112v162h112v205h-112v164h112v6q0 244 103 368.5t297 124.5t290.5 -115.5t107.5 -353.5l-242 -19q-9 153 -42.5 212.5t-117.5 59.5t-119 -59.5t-35 -215.5v-8h219v-164h-219v-205h219v-162h-219v-9q0 -153 36 -212.5t120 -59.5t116.5 58
t41.5 207l242 -19q-11 -235 -107.5 -348.5t-284.5 -113.5z" />
    <glyph glyph-name="careof" unicode="&#x2105;" 
d="M665 212q0 -95 69.5 -95t69.5 95v132q0 99 -69.5 99t-69.5 -99v-132zM704 -41q-93 0 -166 68t-73 202v112q0 131 72 202t233 71t198 -102t37 -171v-112q0 -199 -104 -234.5t-197 -35.5zM17 465l966 686l89 -146l-966 -679zM84 1147v106q0 131 74 207q69 67 194 67
t184 -58q63 -55 75 -173l-187 -15q0 74 -70.5 74t-70.5 -98v-127q0 -100 70.5 -100t70.5 76l187 -15q-24 -220 -255 -220q-125 0 -198 67q-74 74 -74 209z" />
    <glyph glyph-name="lsquare" unicode="&#x2113;" 
d="M549 210q103 0 263 80l-2 -219q-101 -45 -158 -59q-303 -74 -438 81q-99 114 -69 305l103 810q17 146 124 223t273 77q167 0 249 -82q81 -85 57 -238l-57 -430q-26 -215 -142.5 -254t-182.5 -39t-126 32l-9 -84q-18 -151 33 -177t82 -26zM667 1237.5q0 54.5 -56 54.5
q-35 0 -55 -29t-31 -103l-50 -369q-24 -134 56 -134q34 0 50 26q20 23 32 99l50 367q4 34 4 88.5z" />
    <glyph glyph-name="numero" unicode="&#x2116;" 
d="M709 348q0 110 -75 110t-75 -110v-99q0 -61 18.5 -87t57.5 -26q74 0 74 113v99zM635 -22q-134 0 -216 66t-82 196v117q0 130 82 198.5t216 68.5t215 -68t81 -199v-117q0 -130 -81 -196t-215 -66zM387 739h-227v750h291l251 -474v474h227v-750h-302l-240 440v-440z" />
    <glyph glyph-name="uni2117" unicode="&#x2117;" 
d="M627 869q0 144 -68 144h-40v-339h40q68 0 68 123v72zM307 203v987h253q130 0 198.5 -82t68.5 -239v-72q0 -145 -68 -219.5t-200 -74.5h-40v-300h-212zM545.5 -108q180.5 0 255 151.5t74.5 472.5v339q0 320 -74.5 475.5t-255 155.5t-255 -155.5t-74.5 -475.5v-339
q0 -320 74.5 -472t255 -152zM546 -205q-222 0 -328 170.5t-106 512.5v414q0 346 105 518.5t328 172.5t327.5 -172.5t104.5 -518.5v-414q0 -343 -104.5 -513t-326.5 -170z" />
    <glyph glyph-name="trademark" unicode="&#x2122;" 
d="M490 653v836h182l69 -418l67 418h186v-836h-143l26 688l-80 -432h-116l-76 439l28 -695h-143zM155 653v688h-99v148h352v-148h-86v-688h-167z" />
    <glyph glyph-name="Ohm" unicode="&#x2126;" 
d="M110 985q0 255 112 389t323 134t323 -134t111 -389v-231q-1 -134 -33 -235t-117 -154v-173h150v-192h-394v428q63 24 86 109t23 217v231q0 166 -33 230q-35 64 -117 64t-116 -64t-33 -230v-231q0 -132 23 -217t87 -109v-428h-395v192h153v173q-155 97 -153 389v231z" />
    <glyph glyph-name="estimated" unicode="&#x212e;" 
d="M535 1387q-115 0 -183 -99v-487h376v482q-78 104 -193 104zM538 -22q-201 0 -322 223t-121 548t121 546.5t327 221.5t324 -250t123 -615h-638v-447q72 -97 186 -97q203 0 311 229l67 -106q-58 -117 -154.5 -185t-223.5 -68z" />
    <glyph glyph-name="oneeighth" unicode="&#x215b;" 
d="M665 -168v23q0 46 -18 62q-30 27 -92 27t-85 -23t-23 -66v-23q0 -65 38 -75t109 -10t71 85zM464 151q0 -67 92 -67t92 67v33q0 67 -92 67t-92 -67v-33zM249 203q0 195 306 195q154 0 229 -46q78 -44 78 -149v-37q0 -55 -37 -86q-30 -30 -91 -39v-34q104 -12 125.5 -69
t21.5 -89v-26q0 -110 -73 -165.5t-252 -55.5t-251 56t-72 165v26q-1 67 29 97q53 55 120 61v34q-63 9 -98 41t-35 84v37zM609 499v136l424 37v-210zM56 462v210l445 -37v-136zM251 765v149h190v384h-28q-13 -74 -49 -110q-60 -58 -122 -62l-7 164q66 9 125 62q60 53 85 150
h212v-588h173v-149h-579z" />
    <glyph glyph-name="threeeighths" unicode="&#x215c;" 
d="M665 -168v23q0 46 -18 62q-30 27 -92 27t-85 -23t-23 -66v-23q0 -65 38 -75t109 -10t71 85zM464 151q0 -67 92 -67t92 67v33q0 67 -92 67t-92 -67v-33zM249 203q0 195 306 195q154 0 229 -46q78 -44 78 -149v-37q0 -55 -37 -86q-30 -30 -91 -39v-34q104 -12 125.5 -69
t21.5 -89v-26q0 -110 -73 -165.5t-252 -55.5t-251 56t-72 165v26q-1 67 29 97q53 55 120 61v34q-63 9 -98 41t-35 84v37zM609 499v136l424 37v-210zM56 462v210l445 -37v-136zM868 961q0 -209 -317 -209q-242 0 -290.5 90.5t-50.5 149.5l216 12q8 -63 34 -82q27 -23 86 -23
q60 0 81 17q25 13 25 52v30q0 71 -110 71h-158v147h158q51 0 72 13.5t21 55.5v26q1 34 -17 42q-31 14 -84 14t-70 -16t-21 -59l-216 11q8 113 88 162q80 47 226 47t220 -37q88 -39 88 -138v-24q0 -92 -48.5 -118t-72.5 -31v-34q52 -9 82 -37q58 -51 58 -112v-20z" />
    <glyph glyph-name="fiveeighths" unicode="&#x215d;" 
d="M665 -168v23q0 46 -18 62q-30 27 -92 27t-85 -23t-23 -66v-23q0 -65 38 -75t109 -10t71 85zM464 151q0 -67 92 -67t92 67v33q0 67 -92 67t-92 -67v-33zM249 203q0 195 306 195q154 0 229 -46q78 -44 78 -149v-37q0 -55 -37 -86q-30 -30 -91 -39v-34q104 -12 125.5 -69
t21.5 -89v-26q0 -110 -73 -165.5t-252 -55.5t-251 56t-72 165v26q-1 67 29 97q53 55 120 61v34q-63 9 -98 41t-35 84v37zM609 499v136l424 37v-210zM56 462v210l445 -37v-136zM868 968q0 -223 -318 -223q-179 0 -256 53q-76 53 -84 189l216 11q8 -65 34 -86q26 -20 77 -20
q82 0 98.5 19t16.5 70v36q0 48 -26 59q-32 19 -131 19h-259v407h609v-147h-394v-111h137q280 0 280 -213v-63z" />
    <glyph glyph-name="seveneighths" unicode="&#x215e;" 
d="M665 -168v23q0 46 -18 62q-30 27 -92 27t-85 -23t-23 -66v-23q0 -65 38 -75t109 -10t71 85zM464 151q0 -67 92 -67t92 67v33q0 67 -92 67t-92 -67v-33zM249 203q0 195 306 195q154 0 229 -46q78 -44 78 -149v-37q0 -55 -37 -86q-30 -30 -91 -39v-34q104 -12 125.5 -69
t21.5 -89v-26q0 -110 -73 -165.5t-252 -55.5t-251 56t-72 165v26q-1 67 29 97q53 55 120 61v34q-63 9 -98 41t-35 84v37zM609 499v136l424 37v-210zM56 462v210l445 -37v-136zM263 1335v167h646v-167q-194 -315 -252 -570h-221q61 258 137.5 381.5t122.5 188.5h-433z" />
    <glyph glyph-name="arrowleft" unicode="&#x2190;" 
d="M618 1391v-512h415v-268h-415v-512h-28l-534 627v37l534 628h28z" />
    <glyph glyph-name="arrowup" unicode="&#x2191;" 
d="M402 -41v838h-383v37l512 696h28l512 -696v-37h-384v-838h-285z" />
    <glyph glyph-name="arrowright" unicode="&#x2192;" 
d="M473 99v512h-417v268h417v512h28l532 -628v-37l-532 -627h-28z" />
    <glyph glyph-name="arrowdown" unicode="&#x2193;" 
d="M19 693h383v837h285v-837h384v-38l-512 -696h-28l-512 696v38z" />
    <glyph glyph-name="arrowboth" unicode="&#x2194;" 
d="M432 611v-512h-28l-348 627v37l348 628h28v-512h225v512h28l348 -628v-37l-348 -627h-28v512h-225z" />
    <glyph glyph-name="arrowupdn" unicode="&#x2195;" 
d="M19 465h383v559h-383v37l512 656h28l513 -656v-37h-383v-559h383v-37l-513 -655h-28l-512 655v37z" />
    <glyph glyph-name="arrowupdnbse" unicode="&#x21a8;" 
d="M140 -421v235h359l-480 614v37h383v559h-383v37l512 656h28l513 -656v-37h-383v-559h383v-37l-481 -614h359v-235h-810z" />
    <glyph glyph-name="partialdiff" unicode="&#x2202;" 
d="M521 713q-105 0 -124 -194l-19 -117q-12 -106 15 -160q31 -54 104 -54q72 0 106 52t45 162l19 117q12 101 -14 147q-27 47 -132 47zM408.5 -19q-146.5 0 -243.5 109t-68 323l13 118q22 180 126 284q99 107 234 107t171.5 -54t43.5 -82h28q11 210 -78 333
q-91 118 -333 208l214 187q287 -103 393 -296q105 -186 65 -531l-32 -263q-50 -333 -218.5 -388t-315 -55z" />
    <glyph glyph-name="Delta#1" unicode="&#x2206;" 
d="M743 216l-197 1059l-213 -1059h410zM97 0v216l251 1273h410l234 -1273v-216h-895z" />
    <glyph glyph-name="product" unicode="&#x220f;" 
d="M123 -372v1861h845v-1861h-287v1645h-271v-1645h-287z" />
    <glyph glyph-name="summation" unicode="&#x2211;" 
d="M996 -156v-216h-914v216l557 733l-557 696v216h914v-216h-644l475 -595v-179l-484 -655h653z" />
    <glyph glyph-name="minus" unicode="&#x2212;" 
d="M140 534v235h810v-235h-810z" />
    <glyph glyph-name="radical" unicode="&#x221a;" 
d="M454 0l-205 704l-195 -36v207l356 56l186 -721l231 1466h249l-301 -1676h-321z" />
    <glyph glyph-name="infinity" unicode="&#x221e;" 
d="M372 1085q-76 0 -76 -344q0 -179 21 -261q14 -76 44 -76q53 0 83.5 96t45.5 153q-45 278 -63 339q-17 62 -28.5 77.5t-26.5 15.5zM719 404q76 0 76 340q-1 340 -71 341q-65 0 -124 -253q61 -371 81.5 -399.5t37.5 -28.5zM174.5 1133q77.5 140 186.5 140q77 0 124 -64
t85 -224q57 227 111.5 257.5t94.5 30.5q88 0 153 -140t65 -388t-77.5 -388.5t-192.5 -140.5q-74 0 -121 65.5t-84 217.5q-39 -153 -83 -218t-127 -65q-82 0 -147 140t-65 388.5t77.5 388.5z" />
    <glyph glyph-name="orthogonal" unicode="&#x221f;" 
d="M195 0v1303h285v-1078h442v-225h-727z" />
    <glyph glyph-name="intersection" unicode="&#x2229;" 
d="M153 0v856q0 223 104 343q101 123 289.5 123t290.5 -123q101 -123 101 -343v-856h-285v845q0 142 -24 199q-21 62 -83 62t-84 -63q-24 -59 -24 -201v-842h-285z" />
    <glyph glyph-name="integral" unicode="&#x222b;" 
d="M826 1331q-48 0 -71 -14t-44.5 -54t-21.5 -161v-1096q0 -182 -101 -285q-103 -103 -273 -103q-111 0 -205 43l28 194q82 -37 129 -37q46 0 69 13.5t44.5 53.5t21.5 162v1096q0 180 99 284q99 105 274 105q108 0 204 -44l-28 -192q-77 35 -125 35z" />
    <glyph glyph-name="approxequal" unicode="&#x2248;" 
d="M780 404v155h170v-168q0 -304 -86 -360.5t-145 -56.5t-113 45q-53 45 -113 156q-47 99 -70.5 150t-75 51t-51.5 -203v-156h-171v167q0 304 85.5 360.5t145.5 56.5t117 -44q55 -51 108 -157l64 -128l12 -21q37 -52 80 -52t43 205zM780 1149v154h170v-167
q0 -304 -86 -360.5t-144 -56.5t-115 44q-52 44 -112 157q-58 123 -81 162t-69.5 39t-46.5 -203v-157h-171v168q0 304 85.5 360.5t146.5 56.5t116 -45q56 -51 108 -156l64 -128l12 -21q37 -52 80 -52t43 205z" />
    <glyph glyph-name="notequal" unicode="&#x2260;" 
d="M950 333h-384l-61 -333h-200l64 333h-229v227h271l69 369h-340v227h383l62 333h199l-63 -333h229v-227h-272l-69 -369h341v-227z" />
    <glyph glyph-name="equivalence" unicode="&#x2261;" 
d="M140 104v235h810v-235h-810zM140 525v236h810v-236h-810zM140 948v234h810v-234h-810z" />
    <glyph glyph-name="lessequal" unicode="&#x2264;" 
d="M181 0v205h728v-205h-728zM909 372l-728 425v268l728 424v-225l-566 -333l566 -333v-226z" />
    <glyph glyph-name="greaterequal" unicode="&#x2265;" 
d="M909 0h-728v205h728v-205zM181 372v226l567 333l-567 333v225l728 -424v-268z" />
    <glyph glyph-name="logicalnotreversed" unicode="&#x2310;" 
d="M52 0v769h985v-235h-758v-534h-227z" />
    <glyph glyph-name="integralbt" unicode="&#x2321;" 
d="M352 -182q123 0 123 240v1431h285v-1472q0 -184 -100 -291q-100 -108 -273 -108q-107 0 -205 43l28 194q82 -37 142 -37z" />
    <glyph glyph-name="uni23af" unicode="&#x23af;" 
d="M-56 611v268h1201v-268h-1201z" />
    <glyph glyph-name="lighthorzbxd" unicode="&#x2500;" 
d="M-37 652h1163v-187h-1163v187z" />
    <glyph glyph-name="heavyhorzbxd" unicode="&#x2501;" 
d="M-37 745h1163v-373h-1163v373z" />
    <glyph glyph-name="lightvertbxd" unicode="&#x2502;" 
d="M451 1955h186v-2793h-186v2793z" />
    <glyph glyph-name="heavyvertbxd" unicode="&#x2503;" 
d="M357 1955h373v-2793h-373v2793z" />
    <glyph glyph-name="lighttrpldashhorzbxd" unicode="&#x2504;" 
d="M786 652h242v-187h-242v187zM423 652h242v-187h-242v187zM60 652h242v-187h-242v187z" />
    <glyph glyph-name="heavytrpldashhorzbxd" unicode="&#x2505;" 
d="M786 745h242v-373h-242v373zM423 745h242v-373h-242v373zM60 745h242v-373h-242v373z" />
    <glyph glyph-name="lighttrpldashvertbxd" unicode="&#x2506;" 
d="M451 2147h186v-455h-186v455zM451 1465h186v-454h-186v454zM451 784h186v-454h-186v454zM451 102h186v-454h-186v454z" />
    <glyph glyph-name="heavytrpldashvertbxd" unicode="&#x2507;" 
d="M357 2147h373v-455h-373v455zM357 1465h373v-454h-373v454zM357 784h373v-454h-373v454zM357 102h373v-454h-373v454z" />
    <glyph glyph-name="lightquaddashhorzbxd" unicode="&#x2508;" 
d="M849 652h205v-187h-205v187zM577 652h205v-187h-205v187zM305 652h205v-187h-205v187zM34 652h204v-187h-204v187z" />
    <glyph glyph-name="heavyquaddashhorzbxd" unicode="&#x2509;" 
d="M849 745h205v-373h-205v373zM577 745h205v-373h-205v373zM305 745h205v-373h-205v373zM34 745h204v-373h-204v373z" />
    <glyph glyph-name="lightquaddashvertbxd" unicode="&#x250a;" 
d="M451 1519h186v-385h-186v385zM451 1007h186v-385h-186v385zM451 495h186v-385h-186v385zM451 -17h186v-385h-186v385z" />
    <glyph glyph-name="heavyquaddashvertbxd" unicode="&#x250b;" 
d="M357 1519h373v-385h-373v385zM357 1007h373v-385h-373v385zM357 495h373v-385h-373v385zM357 -17h373v-385h-373v385z" />
    <glyph glyph-name="lightdnrightbxd" unicode="&#x250c;" 
d="M451 652h675v-187h-489v-1303h-186v1490z" />
    <glyph glyph-name="dnlightrightheavybxd" unicode="&#x250d;" 
d="M451 745h675v-373h-489v-1210h-186v1583z" />
    <glyph glyph-name="dnheavyrightlightbxd" unicode="&#x250e;" 
d="M357 652h769v-187h-396v-1303h-373v1490z" />
    <glyph glyph-name="heavydnrightbxd" unicode="&#x250f;" 
d="M357 745h769v-373h-396v-1210h-373v1583z" />
    <glyph glyph-name="lightdnleftbxd" unicode="&#x2510;" 
d="M-37 652h674v-1490h-186v1303h-488v187z" />
    <glyph glyph-name="dnlightleftheavybxd" unicode="&#x2511;" 
d="M-37 745h674v-1583h-186v1210h-488v373z" />
    <glyph glyph-name="dnheavyleftlightbxd" unicode="&#x2512;" 
d="M-37 652h767v-1490h-373v1303h-394v187z" />
    <glyph glyph-name="heavydnleftbxd" unicode="&#x2513;" 
d="M-37 745h767v-1583h-373v1210h-394v373z" />
    <glyph glyph-name="lightuprightbxd" unicode="&#x2514;" 
d="M451 1955h186v-1303h489v-187h-675v1490z" />
    <glyph glyph-name="uplightrightheavybxd" unicode="&#x2515;" 
d="M451 1955h186v-1210h489v-373h-675v1583z" />
    <glyph glyph-name="upheavyrightlightbxd" unicode="&#x2516;" 
d="M357 1955h373v-1303h396v-187h-769v1490z" />
    <glyph glyph-name="heavyuprightbxd" unicode="&#x2517;" 
d="M357 1955h373v-1210h396v-373h-769v1583z" />
    <glyph glyph-name="lightupleftbxd" unicode="&#x2518;" 
d="M-37 652h488v1303h186v-1490h-674v187z" />
    <glyph glyph-name="uplightleftheavybxd" unicode="&#x2519;" 
d="M-37 745h488v1210h186v-1583h-674v373z" />
    <glyph glyph-name="upheavyleftlightbxd" unicode="&#x251a;" 
d="M-37 652h394v1303h373v-1490h-767v187z" />
    <glyph glyph-name="heavyupleftbxd" unicode="&#x251b;" 
d="M-37 745h394v1210h373v-1583h-767v373z" />
    <glyph glyph-name="lightvertrightbxd" unicode="&#x251c;" 
d="M451 1955h186v-1303h489v-187h-489v-1303h-186v2793z" />
    <glyph glyph-name="vertlightrightheavybxd" unicode="&#x251d;" 
d="M451 1955h186v-1210h489v-373h-489v-1210h-186v2793z" />
    <glyph glyph-name="upheavyrightdnlightbxd" unicode="&#x251e;" 
d="M357 1955h373v-1303h396v-187h-489v-1303h-186v1303h-94v1490z" />
    <glyph glyph-name="dnheavyrightuplightbxd" unicode="&#x251f;" 
d="M357 652h94v1303h186v-1303h489v-187h-396v-1303h-373v1490z" />
    <glyph glyph-name="vertheavyrightlightbxd" unicode="&#x2520;" 
d="M357 1955h373v-1303h396v-187h-396v-1303h-373v2793z" />
    <glyph glyph-name="dnlightrightupheavybxd" unicode="&#x2521;" 
d="M357 1955h373v-1210h396v-373h-489v-1210h-186v1210h-94v1583z" />
    <glyph glyph-name="uplightrightdnheavybxd" unicode="&#x2522;" 
d="M357 745h94v1210h186v-1210h489v-373h-396v-1210h-373v1583z" />
    <glyph glyph-name="heavyvertrightbxd" unicode="&#x2523;" 
d="M357 1955h373v-1210h396v-373h-396v-1210h-373v2793z" />
    <glyph glyph-name="lightvertleftbxd" unicode="&#x2524;" 
d="M-37 652h488v1303h186v-2793h-186v1303h-488v187z" />
    <glyph glyph-name="vertlightleftheavybxd" unicode="&#x2525;" 
d="M-37 745h488v1210h186v-2793h-186v1210h-488v373z" />
    <glyph glyph-name="upheavyleftdnlightbxd" unicode="&#x2526;" 
d="M-37 652h394v1303h373v-1490h-93v-1303h-186v1303h-488v187z" />
    <glyph glyph-name="dnheavyleftuplightbxd" unicode="&#x2527;" 
d="M-37 652h488v1303h186v-1303h93v-1490h-373v1303h-394v187z" />
    <glyph glyph-name="vertheavyleftlightbxd" unicode="&#x2528;" 
d="M-37 652h394v1303h373v-2793h-373v1303h-394v187z" />
    <glyph glyph-name="dnlightleftupheavybxd" unicode="&#x2529;" 
d="M-37 745h394v1210h373v-1583h-93v-1210h-186v1210h-488v373z" />
    <glyph glyph-name="uplightleftdnheavybxd" unicode="&#x252a;" 
d="M-37 745h488v1210h186v-1210h93v-1583h-373v1210h-394v373z" />
    <glyph glyph-name="heavyvertleftbxd" unicode="&#x252b;" 
d="M-37 745h394v1210h373v-2793h-373v1210h-394v373z" />
    <glyph glyph-name="lightdnhorzbxd" unicode="&#x252c;" 
d="M-37 652h1163v-187h-489v-1303h-186v1303h-488v187z" />
    <glyph glyph-name="leftheavyrightdnlightbxd" unicode="&#x252d;" 
d="M-37 745h674v-93h489v-187h-489v-1303h-186v1210h-488v373z" />
    <glyph glyph-name="rightheavyleftdnlightbxd" unicode="&#x252e;" 
d="M-37 652h488v93h675v-373h-489v-1210h-186v1303h-488v187z" />
    <glyph glyph-name="dnlighthorzheavybxd" unicode="&#x252f;" 
d="M-37 745h1163v-373h-489v-1210h-186v1210h-488v373z" />
    <glyph glyph-name="dnheavyhorzlightbxd" unicode="&#x2530;" 
d="M-37 652h1163v-187h-396v-1303h-373v1303h-394v187z" />
    <glyph glyph-name="rightlightleftdnheavybxd" unicode="&#x2531;" 
d="M-37 745h767v-93h396v-187h-396v-1303h-373v1210h-394v373z" />
    <glyph glyph-name="leftlightrightdnheavybxd" unicode="&#x2532;" 
d="M-37 652h394v93h769v-373h-396v-1210h-373v1303h-394v187z" />
    <glyph glyph-name="heavydnhorzbxd" unicode="&#x2533;" 
d="M-37 745h1163v-373h-396v-1210h-373v1210h-394v373z" />
    <glyph glyph-name="lightuphorzbxd" unicode="&#x2534;" 
d="M-37 652h488v1303h186v-1303h489v-187h-1163v187z" />
    <glyph glyph-name="leftheavyrightuplightbxd" unicode="&#x2535;" 
d="M-37 745h488v1210h186v-1303h489v-187h-489v-93h-674v373z" />
    <glyph glyph-name="rightheavyleftuplightbxd" unicode="&#x2536;" 
d="M-37 652h488v1303h186v-1210h489v-373h-675v93h-488v187z" />
    <glyph glyph-name="uplighthorzheavybxd" unicode="&#x2537;" 
d="M-37 745h488v1210h186v-1210h489v-373h-1163v373z" />
    <glyph glyph-name="upheavyhorzlightbxd" unicode="&#x2538;" 
d="M-37 652h394v1303h373v-1303h396v-187h-1163v187z" />
    <glyph glyph-name="rightlightleftupheavybxd" unicode="&#x2539;" 
d="M-37 745h394v1210h373v-1303h396v-187h-396v-93h-767v373z" />
    <glyph glyph-name="leftlightrightupheavybxd" unicode="&#x253a;" 
d="M-37 652h394v1303h373v-1210h396v-373h-769v93h-394v187z" />
    <glyph glyph-name="heavyuphorzbxd" unicode="&#x253b;" 
d="M-37 745h394v1210h373v-1210h396v-373h-1163v373z" />
    <glyph glyph-name="lightverthorzbxd" unicode="&#x253c;" 
d="M-37 652h488v1303h186v-1303h489v-187h-489v-1303h-186v1303h-488v187z" />
    <glyph glyph-name="leftheavyrightvertlightbxd" unicode="&#x253d;" 
d="M-37 745h488v1210h186v-1303h489v-187h-489v-1303h-186v1210h-488v373z" />
    <glyph glyph-name="rightheavyleftvertlightbxd" unicode="&#x253e;" 
d="M-37 652h488v1303h186v-1210h489v-373h-489v-1210h-186v1303h-488v187z" />
    <glyph glyph-name="vertlighthorzheavybxd" unicode="&#x253f;" 
d="M-37 745h488v1210h186v-1210h489v-373h-489v-1210h-186v1210h-488v373z" />
    <glyph glyph-name="upheavydnhorzlightbxd" unicode="&#x2540;" 
d="M-37 652h394v1303h373v-1303h396v-187h-489v-1303h-186v1303h-488v187z" />
    <glyph glyph-name="dnheavyuphorzlightbxd" unicode="&#x2541;" 
d="M-37 652h488v1303h186v-1303h489v-187h-396v-1303h-373v1303h-394v187z" />
    <glyph glyph-name="vertheavyhorzlightbxd" unicode="&#x2542;" 
d="M-37 652h394v1303h373v-1303h396v-187h-396v-1303h-373v1303h-394v187z" />
    <glyph glyph-name="leftupheavyrightdnlightbxd" unicode="&#x2543;" 
d="M-37 745h394v1210h373v-1303h396v-187h-396v-93h-93v-1210h-186v1210h-488v373z" />
    <glyph glyph-name="rightupheavyleftdnlightbxd" unicode="&#x2544;" 
d="M-37 652h394v1303h373v-1210h396v-373h-489v-1210h-186v1210h-94v93h-394v187z" />
    <glyph glyph-name="leftdnheavyrightuplightbxd" unicode="&#x2545;" 
d="M-37 745h488v1210h186v-1210h93v-93h396v-187h-396v-1303h-373v1210h-394v373z" />
    <glyph glyph-name="rightdnheavyleftuplightbxd" unicode="&#x2546;" 
d="M-37 652h394v93h94v1210h186v-1210h489v-373h-396v-1210h-373v1303h-394v187z" />
    <glyph glyph-name="dnlightuphorzheavybxd" unicode="&#x2547;" 
d="M-37 745h394v1210h373v-1210h396v-373h-489v-1210h-186v1210h-488v373z" />
    <glyph glyph-name="uplightdnhorzheavybxd" unicode="&#x2548;" 
d="M-37 745h488v1210h186v-1210h489v-373h-396v-1210h-373v1210h-394v373z" />
    <glyph glyph-name="rightlightleftvertheavybxd" unicode="&#x2549;" 
d="M-37 745h394v1210h373v-1303h396v-187h-396v-1303h-373v1210h-394v373z" />
    <glyph glyph-name="leftlightrightvertheavybxd" unicode="&#x254a;" 
d="M-37 652h394v1303h373v-1210h396v-373h-396v-1210h-373v1303h-394v187z" />
    <glyph glyph-name="heavyverthorzbxd" unicode="&#x254b;" 
d="M-37 745h394v1210h373v-1210h396v-373h-396v-1210h-373v1210h-394v373z" />
    <glyph glyph-name="lightdbldashhorzbxd" unicode="&#x254c;" 
d="M680 652h271v-187h-271v187zM136 652h272v-187h-272v187z" />
    <glyph glyph-name="heavydbldashhorzbxd" unicode="&#x254d;" 
d="M680 745h271v-373h-271v373zM136 745h272v-373h-272v373z" />
    <glyph glyph-name="lightdbldashvertbxd" unicode="&#x254e;" 
d="M451 1326h186v-512h-186v512zM451 302h186v-512h-186v512z" />
    <glyph glyph-name="heavydbldashvertbxd" unicode="&#x254f;" 
d="M357 1326h373v-512h-373v512zM357 302h373v-512h-373v512z" />
    <glyph glyph-name="dblhorzbxd" unicode="&#x2550;" 
d="M-37 465h1163v-186h-1163v186zM-37 838h1163v-186h-1163v186z" />
    <glyph glyph-name="dblvertbxd" unicode="&#x2551;" 
d="M637 1955h186v-2793h-186v2793zM264 1955h187v-2793h-187v2793z" />
    <glyph glyph-name="dnsngrightdblbxd" unicode="&#x2552;" 
d="M451 838h675v-186h-489v-187h489v-186h-489v-1117h-186v1676z" />
    <glyph glyph-name="dndblrightsngbxd" unicode="&#x2553;" 
d="M264 652h862v-187h-303v-1303h-186v1303h-186v-1303h-187v1490z" />
    <glyph glyph-name="dbldnrightbxd" unicode="&#x2554;" 
d="M637 465h489v-186h-303v-1117h-186v1303zM264 838h862v-186h-675v-1490h-187v1676z" />
    <glyph glyph-name="dnsngleftdblbxd" unicode="&#x2555;" 
d="M-37 838h674v-1676h-186v1117h-488v186h488v187h-488v186z" />
    <glyph glyph-name="dndblleftsngbxd" unicode="&#x2556;" 
d="M-37 652h860v-1490h-186v1303h-186v-1303h-187v1303h-301v187z" />
    <glyph glyph-name="dbldnleftbxd" unicode="&#x2557;" 
d="M-37 465h488v-1303h-187v1117h-301v186zM-37 838h860v-1676h-186v1490h-674v186z" />
    <glyph glyph-name="upsngrightdblbxd" unicode="&#x2558;" 
d="M451 1955h186v-1117h489v-186h-489v-187h489v-186h-675v1676z" />
    <glyph glyph-name="updblrightsngbxd" unicode="&#x2559;" 
d="M264 1955h187v-1303h186v1303h186v-1303h303v-187h-862v1490z" />
    <glyph glyph-name="dbluprightbxd" unicode="&#x255a;" 
d="M637 1955h186v-1117h303v-186h-489v1303zM264 1955h187v-1490h675v-186h-862v1676z" />
    <glyph glyph-name="upsngleftdblbxd" unicode="&#x255b;" 
d="M-37 838h488v1117h186v-1676h-674v186h488v187h-488v186z" />
    <glyph glyph-name="updblleftsngbxd" unicode="&#x255c;" 
d="M-37 652h301v1303h187v-1303h186v1303h186v-1490h-860v187z" />
    <glyph glyph-name="dblupleftbxd" unicode="&#x255d;" 
d="M-37 838h301v1117h187v-1303h-488v186zM-37 465h674v1490h186v-1676h-860v186z" />
    <glyph glyph-name="vertsngrightdblbxd" unicode="&#x255e;" 
d="M451 1955h186v-1117h489v-186h-489v-187h489v-186h-489v-1117h-186v2793z" />
    <glyph glyph-name="vertdblrightsngbxd" unicode="&#x255f;" 
d="M264 1955h187v-2793h-187v2793zM637 1955h186v-1303h303v-187h-303v-1303h-186v2793z" />
    <glyph glyph-name="dblvertrightbxd" unicode="&#x2560;" 
d="M637 465h489v-186h-303v-1117h-186v1303zM637 1955h186v-1117h303v-186h-489v1303zM264 1955h187v-2793h-187v2793z" />
    <glyph glyph-name="vertsngleftdblbxd" unicode="&#x2561;" 
d="M-37 838h488v1117h186v-2793h-186v1117h-488v186h488v187h-488v186z" />
    <glyph glyph-name="vertdblleftsngbxd" unicode="&#x2562;" 
d="M637 1955h186v-2793h-186v2793zM-37 652h301v1303h187v-2793h-187v1303h-301v187z" />
    <glyph glyph-name="dblvertleftbxd" unicode="&#x2563;" 
d="M-37 838h301v1117h187v-1303h-488v186zM-37 465h488v-1303h-187v1117h-301v186zM637 1955h186v-2793h-186v2793z" />
    <glyph glyph-name="dnsnghorzdblbxd" unicode="&#x2564;" 
d="M-37 838h1163v-186h-1163v186zM-37 465h1163v-186h-489v-1117h-186v1117h-488v186z" />
    <glyph glyph-name="dndblhorzsngbxd" unicode="&#x2565;" 
d="M-37 652h1163v-187h-303v-1303h-186v1303h-186v-1303h-187v1303h-301v187z" />
    <glyph glyph-name="dbldnhorzbxd" unicode="&#x2566;" 
d="M-37 838h1163v-186h-1163v186zM-37 465h488v-1303h-187v1117h-301v186zM637 465h489v-186h-303v-1117h-186v1303z" />
    <glyph glyph-name="upsnghorzdblbxd" unicode="&#x2567;" 
d="M-37 465h1163v-186h-1163v186zM-37 838h488v1117h186v-1117h489v-186h-1163v186z" />
    <glyph glyph-name="updblhorzsngbxd" unicode="&#x2568;" 
d="M-37 652h301v1303h187v-1303h186v1303h186v-1303h303v-187h-1163v187z" />
    <glyph glyph-name="dbluphorzbxd" unicode="&#x2569;" 
d="M-37 465h1163v-186h-1163v186zM-37 838h301v1117h187v-1303h-488v186zM637 1955h186v-1117h303v-186h-489v1303z" />
    <glyph glyph-name="vertsnghorzdblbxd" unicode="&#x256a;" 
d="M-37 838h488v1117h186v-1117h489v-186h-489v-187h489v-186h-489v-1117h-186v1117h-488v186h488v187h-488v186z" />
    <glyph glyph-name="vertdblhorzsngbxd" unicode="&#x256b;" 
d="M-37 652h301v1303h187v-1303h186v1303h186v-1303h303v-187h-303v-1303h-186v1303h-186v-1303h-187v1303h-301v187z" />
    <glyph glyph-name="dblverthorzbxd" unicode="&#x256c;" 
d="M-37 838h301v1117h187v-1303h-488v186zM-37 465h488v-1303h-187v1117h-301v186zM637 465h489v-186h-303v-1117h-186v1303zM637 1955h186v-1117h303v-186h-489v1303z" />
    <glyph glyph-name="lightarcdnrightbxd" unicode="&#x256d;" 
d="M451 15q0 263 186 449t450 188h39v-187h-39q-188 0 -319 -132t-131 -318v-853h-186v853z" />
    <glyph glyph-name="lightarcdnleftbxd" unicode="&#x256e;" 
d="M637 -838h-186v853q-1 187 -133 319q-132 131 -318 131h-37v187h37q261 0 448 -186t189 -451v-853z" />
    <glyph glyph-name="lightarcupleftbxd" unicode="&#x256f;" 
d="M637 1102q0 -260 -187 -447q-187 -188 -450 -190h-37v187h37q188 0 319 131q130 131 132 319v853h186v-853z" />
    <glyph glyph-name="lightarcuprightbxd" unicode="&#x2570;" 
d="M451 1955h186v-853q0 -188 132 -319t318 -131h39v-187h-39q-261 -1 -449 187t-187 450v853z" />
    <glyph glyph-name="lightdiaguprightdnleftbxd" unicode="&#x2571;" 
d="M1089 1583v-198l-983 -1850h-106v197l983 1851h106z" />
    <glyph glyph-name="lightdiagupleftdnrightbxd" unicode="&#x2572;" 
d="M1089 -465h-106l-983 1850v198h106l983 -1851v-197z" />
    <glyph glyph-name="lightdiagcrossbxd" unicode="&#x2573;" 
d="M0 1583h106l438 -827l439 827h106v-198l-439 -826l439 -827v-197h-106l-439 824l-438 -824h-106v197l439 827l-439 826v198z" />
    <glyph glyph-name="lightleftbxd" unicode="&#x2574;" 
d="M-37 652h674v-187h-674v187z" />
    <glyph glyph-name="lightupbxd" unicode="&#x2575;" 
d="M451 1955h186v-1490h-186v1490z" />
    <glyph glyph-name="lightrightbxd" unicode="&#x2576;" 
d="M451 652h675v-187h-675v187z" />
    <glyph glyph-name="lightdnbxd" unicode="&#x2577;" 
d="M451 652h186v-1490h-186v1490z" />
    <glyph glyph-name="heavyleftbxd" unicode="&#x2578;" 
d="M-37 745h674v-373h-674v373z" />
    <glyph glyph-name="heavyupbxd" unicode="&#x2579;" 
d="M357 1955h373v-1490h-373v1490z" />
    <glyph glyph-name="heavyrightbxd" unicode="&#x257a;" 
d="M451 745h675v-373h-675v373z" />
    <glyph glyph-name="heavydnbxd" unicode="&#x257b;" 
d="M357 652h373v-1490h-373v1490z" />
    <glyph glyph-name="lightleftheavyrightbxd" unicode="&#x257c;" 
d="M-37 652h488v93h675v-373h-675v93h-488v187z" />
    <glyph glyph-name="lightupheavydnbxd" unicode="&#x257d;" 
d="M357 652h94v1303h186v-1303h93v-1490h-373v1490z" />
    <glyph glyph-name="heavyleftlightrightbxd" unicode="&#x257e;" 
d="M-37 745h674v-93h489v-187h-489v-93h-674v373z" />
    <glyph glyph-name="heavyuplightdnbxd" unicode="&#x257f;" 
d="M357 1955h373v-1490h-93v-1303h-186v1303h-94v1490z" />
    <glyph glyph-name="uphalfblock" unicode="&#x2580;" 
d="M0 1583h1089v-1024h-1089v1024z" />
    <glyph glyph-name="dneighthblock" unicode="&#x2581;" 
d="M0 -210h1089v-255h-1089v255z" />
    <glyph glyph-name="dnquarterblock" unicode="&#x2582;" 
d="M0 47h1089v-512h-1089v512z" />
    <glyph glyph-name="dnthreeeighthsblock" unicode="&#x2583;" 
d="M0 302h1089v-767h-1089v767z" />
    <glyph glyph-name="dnhalfblock" unicode="&#x2584;" 
d="M0 559h1089v-1024h-1089v1024z" />
    <glyph glyph-name="dnfiveeighthsblock" unicode="&#x2585;" 
d="M0 814h1089v-1279h-1089v1279z" />
    <glyph glyph-name="dnthreequartersblock" unicode="&#x2586;" 
d="M0 1071h1089v-1536h-1089v1536z" />
    <glyph glyph-name="dnseveneighthsblock" unicode="&#x2587;" 
d="M0 1326h1089v-1791h-1089v1791z" />
    <glyph glyph-name="fullblock" unicode="&#x2588;" 
d="M0 1583h1089v-2048h-1089v2048z" />
    <glyph glyph-name="leftseveneighthsblock" unicode="&#x2589;" 
d="M0 1583h951v-2048h-951v2048z" />
    <glyph glyph-name="leftthreequartersblock" unicode="&#x258a;" 
d="M0 1583h815v-2048h-815v2048z" />
    <glyph glyph-name="leftfiveeighthsblock" unicode="&#x258b;" 
d="M0 1583h680v-2048h-680v2048z" />
    <glyph glyph-name="lefthalfblock" unicode="&#x258c;" 
d="M0 1583h544v-2048h-544v2048z" />
    <glyph glyph-name="leftthreeeighthsblock" unicode="&#x258d;" 
d="M0 1583h408v-2048h-408v2048z" />
    <glyph glyph-name="leftquarterblock" unicode="&#x258e;" 
d="M0 1583h272v-2048h-272v2048z" />
    <glyph glyph-name="lefteighthblock" unicode="&#x258f;" 
d="M0 1583h136v-2048h-136v2048z" />
    <glyph glyph-name="righthalfblock" unicode="&#x2590;" 
d="M544 1583h545v-2048h-545v2048z" />
    <glyph glyph-name="lightshade" unicode="&#x2591;" 
d="M1024 1545h37v-56h-37v56zM931 1452h37v-56h-37v56zM1024 1359h37v-56h-37v56zM931 1266h37v-56h-37v56zM1024 1173h37v-56h-37v56zM931 1080h37v-56h-37v56zM1024 987h37v-56h-37v56zM931 894h37v-56h-37v56zM1024 801h37v-56h-37v56zM931 707h37v-55h-37v55zM1024 614
h37v-55h-37v55zM931 521h37v-56h-37v56zM1024 428h37v-56h-37v56zM931 335h37v-56h-37v56zM1024 242h37v-56h-37v56zM931 149h37v-56h-37v56zM1024 56h37v-56h-37v56zM931 -37h37v-56h-37v56zM1024 -130h37v-56h-37v56zM931 -223h37v-56h-37v56zM1024 -317h37v-55h-37v55z
M931 -410h37v-55h-37v55zM838 1545h37v-56h-37v56zM745 1452h37v-56h-37v56zM838 1359h37v-56h-37v56zM745 1266h37v-56h-37v56zM838 1173h37v-56h-37v56zM745 1080h37v-56h-37v56zM838 987h37v-56h-37v56zM745 894h37v-56h-37v56zM838 801h37v-56h-37v56zM745 707h37v-55
h-37v55zM838 614h37v-55h-37v55zM745 521h37v-56h-37v56zM838 428h37v-56h-37v56zM745 335h37v-56h-37v56zM838 242h37v-56h-37v56zM745 149h37v-56h-37v56zM838 56h37v-56h-37v56zM745 -37h37v-56h-37v56zM838 -130h37v-56h-37v56zM745 -223h37v-56h-37v56zM838 -317h37
v-55h-37v55zM745 -410h37v-55h-37v55zM652 1545h37v-56h-37v56zM559 1452h37v-56h-37v56zM652 1359h37v-56h-37v56zM559 1266h37v-56h-37v56zM652 1173h37v-56h-37v56zM559 1080h37v-56h-37v56zM652 987h37v-56h-37v56zM559 894h37v-56h-37v56zM652 801h37v-56h-37v56z
M559 707h37v-55h-37v55zM652 614h37v-55h-37v55zM559 521h37v-56h-37v56zM652 428h37v-56h-37v56zM559 335h37v-56h-37v56zM652 242h37v-56h-37v56zM559 149h37v-56h-37v56zM652 56h37v-56h-37v56zM559 -37h37v-56h-37v56zM652 -130h37v-56h-37v56zM559 -223h37v-56h-37v56z
M652 -317h37v-55h-37v55zM559 -410h37v-55h-37v55zM465 1545h38v-56h-38v56zM372 1452h38v-56h-38v56zM465 1359h38v-56h-38v56zM372 1266h38v-56h-38v56zM465 1173h38v-56h-38v56zM372 1080h38v-56h-38v56zM465 987h38v-56h-38v56zM372 894h38v-56h-38v56zM465 801h38v-56
h-38v56zM372 707h38v-55h-38v55zM465 614h38v-55h-38v55zM372 521h38v-56h-38v56zM465 428h38v-56h-38v56zM372 335h38v-56h-38v56zM465 242h38v-56h-38v56zM372 149h38v-56h-38v56zM465 56h38v-56h-38v56zM372 -37h38v-56h-38v56zM465 -130h38v-56h-38v56zM372 -223h38v-56
h-38v56zM465 -317h38v-55h-38v55zM372 -410h38v-55h-38v55zM279 1545h38v-56h-38v56zM186 1452h37v-56h-37v56zM279 1359h38v-56h-38v56zM186 1266h37v-56h-37v56zM279 1173h38v-56h-38v56zM186 1080h37v-56h-37v56zM279 987h38v-56h-38v56zM186 894h37v-56h-37v56zM279 801
h38v-56h-38v56zM186 707h37v-55h-37v55zM279 614h38v-55h-38v55zM186 521h37v-56h-37v56zM279 428h38v-56h-38v56zM186 335h37v-56h-37v56zM279 242h38v-56h-38v56zM186 149h37v-56h-37v56zM279 56h38v-56h-38v56zM186 -37h37v-56h-37v56zM279 -130h38v-56h-38v56zM186 -223
h37v-56h-37v56zM279 -317h38v-55h-38v55zM186 -410h37v-55h-37v55zM93 1545h37v-56h-37v56zM0 1452h37v-56h-37v56zM93 1359h37v-56h-37v56zM0 1266h37v-56h-37v56zM93 1173h37v-56h-37v56zM0 1080h37v-56h-37v56zM93 987h37v-56h-37v56zM0 894h37v-56h-37v56zM93 801h37
v-56h-37v56zM0 707h37v-55h-37v55zM93 614h37v-55h-37v55zM0 521h37v-56h-37v56zM93 428h37v-56h-37v56zM0 335h37v-56h-37v56zM93 242h37v-56h-37v56zM0 149h37v-56h-37v56zM93 56h37v-56h-37v56zM0 -37h37v-56h-37v56zM93 -130h37v-56h-37v56zM0 -223h37v-56h-37v56z
M93 -317h37v-55h-37v55zM0 -410h37v-55h-37v55z" />
    <glyph glyph-name="mediumshade" unicode="&#x2592;" 
d="M1024 1583h74v-94h-74v94zM931 1489h74v-93h-74v93zM1024 1396h74v-93h-74v93zM931 1303h74v-93h-74v93zM1024 1210h74v-93h-74v93zM931 1117h74v-93h-74v93zM1024 1024h74v-93h-74v93zM931 931h74v-93h-74v93zM1024 838h74v-93h-74v93zM931 745h74v-93h-74v93zM1024 652
h74v-93h-74v93zM931 559h74v-94h-74v94zM1024 465h74v-93h-74v93zM931 372h74v-93h-74v93zM1024 279h74v-93h-74v93zM931 186h74v-93h-74v93zM1024 93h74v-93h-74v93zM931 0h74v-93h-74v93zM1024 -93h74v-93h-74v93zM931 -186h74v-93h-74v93zM1024 -279h74v-93h-74v93z
M931 -372h74v-93h-74v93zM838 1583h74v-94h-74v94zM745 1489h74v-93h-74v93zM838 1396h74v-93h-74v93zM745 1303h74v-93h-74v93zM838 1210h74v-93h-74v93zM745 1117h74v-93h-74v93zM838 1024h74v-93h-74v93zM745 931h74v-93h-74v93zM838 838h74v-93h-74v93zM745 745h74v-93
h-74v93zM838 652h74v-93h-74v93zM745 559h74v-94h-74v94zM838 465h74v-93h-74v93zM745 372h74v-93h-74v93zM838 279h74v-93h-74v93zM745 186h74v-93h-74v93zM838 93h74v-93h-74v93zM745 0h74v-93h-74v93zM838 -93h74v-93h-74v93zM745 -186h74v-93h-74v93zM838 -279h74v-93
h-74v93zM745 -372h74v-93h-74v93zM652 1583h74v-94h-74v94zM559 1489h74v-93h-74v93zM652 1396h74v-93h-74v93zM559 1303h74v-93h-74v93zM652 1210h74v-93h-74v93zM559 1117h74v-93h-74v93zM652 1024h74v-93h-74v93zM559 931h74v-93h-74v93zM652 838h74v-93h-74v93zM559 745
h74v-93h-74v93zM652 652h74v-93h-74v93zM559 559h74v-94h-74v94zM652 465h74v-93h-74v93zM559 372h74v-93h-74v93zM652 279h74v-93h-74v93zM559 186h74v-93h-74v93zM652 93h74v-93h-74v93zM559 0h74v-93h-74v93zM652 -93h74v-93h-74v93zM559 -186h74v-93h-74v93zM652 -279
h74v-93h-74v93zM559 -372h74v-93h-74v93zM465 1583h75v-94h-75v94zM372 1489h75v-93h-75v93zM465 1396h75v-93h-75v93zM372 1303h75v-93h-75v93zM465 1210h75v-93h-75v93zM372 1117h75v-93h-75v93zM465 1024h75v-93h-75v93zM372 931h75v-93h-75v93zM465 838h75v-93h-75v93z
M372 745h75v-93h-75v93zM465 652h75v-93h-75v93zM372 559h75v-94h-75v94zM465 465h75v-93h-75v93zM372 372h75v-93h-75v93zM465 279h75v-93h-75v93zM372 186h75v-93h-75v93zM465 93h75v-93h-75v93zM372 0h75v-93h-75v93zM465 -93h75v-93h-75v93zM372 -186h75v-93h-75v93z
M465 -279h75v-93h-75v93zM372 -372h75v-93h-75v93zM279 1583h75v-94h-75v94zM186 1489h75v-93h-75v93zM279 1396h75v-93h-75v93zM186 1303h75v-93h-75v93zM279 1210h75v-93h-75v93zM186 1117h75v-93h-75v93zM279 1024h75v-93h-75v93zM186 931h75v-93h-75v93zM279 838h75v-93
h-75v93zM186 745h75v-93h-75v93zM279 652h75v-93h-75v93zM186 559h75v-94h-75v94zM279 465h75v-93h-75v93zM186 372h75v-93h-75v93zM279 279h75v-93h-75v93zM186 186h75v-93h-75v93zM279 93h75v-93h-75v93zM186 0h75v-93h-75v93zM279 -93h75v-93h-75v93zM186 -186h75v-93
h-75v93zM279 -279h75v-93h-75v93zM186 -372h75v-93h-75v93zM93 1583h75v-94h-75v94zM0 1489h74v-93h-74v93zM93 1396h75v-93h-75v93zM0 1303h74v-93h-74v93zM93 1210h75v-93h-75v93zM0 1117h74v-93h-74v93zM93 1024h75v-93h-75v93zM0 931h74v-93h-74v93zM93 838h75v-93h-75
v93zM0 745h74v-93h-74v93zM93 652h75v-93h-75v93zM0 559h74v-94h-74v94zM93 465h75v-93h-75v93zM0 372h74v-93h-74v93zM93 279h75v-93h-75v93zM0 186h74v-93h-74v93zM93 93h75v-93h-75v93zM0 0h74v-93h-74v93zM93 -93h75v-93h-75v93zM0 -186h74v-93h-74v93zM93 -279h75v-93
h-75v93zM0 -372h74v-93h-74v93z" />
    <glyph glyph-name="darkshade" unicode="&#x2593;" 
d="M1024 1610h84v-121h-84v121zM931 1517h84v-121h-84v121zM1024 1424h84v-121h-84v121zM931 1331h84v-121h-84v121zM1024 1238h84v-121h-84v121zM931 1145h84v-121h-84v121zM1024 1052h84v-121h-84v121zM931 959h84v-121h-84v121zM1024 866h84v-121h-84v121zM931 773h84
v-121h-84v121zM1024 680h84v-121h-84v121zM931 586h84v-121h-84v121zM1024 493h84v-121h-84v121zM931 400h84v-121h-84v121zM1024 307h84v-121h-84v121zM931 214h84v-121h-84v121zM1024 121h84v-121h-84v121zM931 28h84v-121h-84v121zM1024 -65h84v-121h-84v121zM931 -158
h84v-121h-84v121zM1024 -251h84v-121h-84v121zM931 -344h84v-121h-84v121zM838 1610h84v-121h-84v121zM745 1517h84v-121h-84v121zM838 1424h84v-121h-84v121zM745 1331h84v-121h-84v121zM838 1238h84v-121h-84v121zM745 1145h84v-121h-84v121zM838 1052h84v-121h-84v121z
M745 959h84v-121h-84v121zM838 866h84v-121h-84v121zM745 773h84v-121h-84v121zM838 680h84v-121h-84v121zM745 586h84v-121h-84v121zM838 493h84v-121h-84v121zM745 400h84v-121h-84v121zM838 307h84v-121h-84v121zM745 214h84v-121h-84v121zM838 121h84v-121h-84v121z
M745 28h84v-121h-84v121zM838 -65h84v-121h-84v121zM745 -158h84v-121h-84v121zM838 -251h84v-121h-84v121zM745 -344h84v-121h-84v121zM652 1610h83v-121h-83v121zM559 1517h83v-121h-83v121zM652 1424h83v-121h-83v121zM559 1331h83v-121h-83v121zM652 1238h83v-121h-83
v121zM559 1145h83v-121h-83v121zM652 1052h83v-121h-83v121zM559 959h83v-121h-83v121zM652 866h83v-121h-83v121zM559 773h83v-121h-83v121zM652 680h83v-121h-83v121zM559 586h83v-121h-83v121zM652 493h83v-121h-83v121zM559 400h83v-121h-83v121zM652 307h83v-121h-83
v121zM559 214h83v-121h-83v121zM652 121h83v-121h-83v121zM559 28h83v-121h-83v121zM652 -65h83v-121h-83v121zM559 -158h83v-121h-83v121zM652 -251h83v-121h-83v121zM559 -344h83v-121h-83v121zM465 1610h84v-121h-84v121zM372 1517h84v-121h-84v121zM465 1424h84v-121
h-84v121zM372 1331h84v-121h-84v121zM465 1238h84v-121h-84v121zM372 1145h84v-121h-84v121zM465 1052h84v-121h-84v121zM372 959h84v-121h-84v121zM465 866h84v-121h-84v121zM372 773h84v-121h-84v121zM465 680h84v-121h-84v121zM372 586h84v-121h-84v121zM465 493h84v-121
h-84v121zM372 400h84v-121h-84v121zM465 307h84v-121h-84v121zM372 214h84v-121h-84v121zM465 121h84v-121h-84v121zM372 28h84v-121h-84v121zM465 -65h84v-121h-84v121zM372 -158h84v-121h-84v121zM465 -251h84v-121h-84v121zM372 -344h84v-121h-84v121zM279 1610h84v-121
h-84v121zM186 1517h84v-121h-84v121zM279 1424h84v-121h-84v121zM186 1331h84v-121h-84v121zM279 1238h84v-121h-84v121zM186 1145h84v-121h-84v121zM279 1052h84v-121h-84v121zM186 959h84v-121h-84v121zM279 866h84v-121h-84v121zM186 773h84v-121h-84v121zM279 680h84
v-121h-84v121zM186 586h84v-121h-84v121zM279 493h84v-121h-84v121zM186 400h84v-121h-84v121zM279 307h84v-121h-84v121zM186 214h84v-121h-84v121zM279 121h84v-121h-84v121zM186 28h84v-121h-84v121zM279 -65h84v-121h-84v121zM186 -158h84v-121h-84v121zM279 -251h84
v-121h-84v121zM186 -344h84v-121h-84v121zM93 1610h84v-121h-84v121zM0 1517h84v-121h-84v121zM93 1424h84v-121h-84v121zM0 1331h84v-121h-84v121zM93 1238h84v-121h-84v121zM0 1145h84v-121h-84v121zM93 1052h84v-121h-84v121zM0 959h84v-121h-84v121zM93 866h84v-121h-84
v121zM0 773h84v-121h-84v121zM93 680h84v-121h-84v121zM0 586h84v-121h-84v121zM93 493h84v-121h-84v121zM0 400h84v-121h-84v121zM93 307h84v-121h-84v121zM0 214h84v-121h-84v121zM93 121h84v-121h-84v121zM0 28h84v-121h-84v121zM93 -65h84v-121h-84v121zM0 -158h84v-121
h-84v121zM93 -251h84v-121h-84v121zM0 -344h84v-121h-84v121z" />
    <glyph glyph-name="upeighthblock" unicode="&#x2594;" 
d="M0 1583h1089v-257h-1089v257z" />
    <glyph glyph-name="righteighthblock" unicode="&#x2595;" 
d="M951 1583h138v-2048h-138v2048z" />
    <glyph glyph-name="dnleftquadrant" unicode="&#x2596;" 
d="M0 559h544v-1024h-544v1024z" />
    <glyph glyph-name="dnrightquadrant" unicode="&#x2597;" 
d="M544 559h545v-1024h-545v1024z" />
    <glyph glyph-name="upleftquadrant" unicode="&#x2598;" 
d="M0 1583h544v-1024h-544v1024z" />
    <glyph glyph-name="upleftdnleftdnrightquadrant" unicode="&#x2599;" 
d="M0 1583h544v-1024h545v-1024h-1089v2048z" />
    <glyph glyph-name="upleftdnrightquadrant" unicode="&#x259a;" 
d="M0 1583h544v-1024h-544v1024zM544 559h545v-1024h-545v1024z" />
    <glyph glyph-name="upleftuprightdnleftquadrant" unicode="&#x259b;" 
d="M0 1583h1089v-1024h-545v-1024h-544v2048z" />
    <glyph glyph-name="upleftuprightdnrightquadrant" unicode="&#x259c;" 
d="M0 1583h1089v-2048h-545v1024h-544v1024z" />
    <glyph glyph-name="uprightquadrant" unicode="&#x259d;" 
d="M544 1583h545v-1024h-545v1024z" />
    <glyph glyph-name="uprightdnleftquadrant" unicode="&#x259e;" 
d="M544 1583h545v-1024h-545v1024zM544 559v-1024h-544v1024h544z" />
    <glyph glyph-name="uprightdnleftdnrightquadrant" unicode="&#x259f;" 
d="M0 559h544v1024h545v-2048h-1089v1024z" />
    <glyph glyph-name="blacksquare" unicode="&#x25a0;" 
d="M127 1303h837v-1117h-837v1117z" />
    <glyph glyph-name="H22073" unicode="&#x25a1;" 
d="M302 348h489v793h-489v-793zM127 186v1117h837v-1117h-837z" />
    <glyph glyph-name="blacksmallsquare" unicode="&#x25aa;" 
d="M341 1017h407v-544h-407v544z" />
    <glyph glyph-name="whitesmallsquare" unicode="&#x25ab;" 
d="M655 948h-221v-406h221v406zM804 398h-519v693h519v-693z" />
    <glyph glyph-name="triagup" unicode="&#x25b2;" 
d="M931 372h-773v38l373 893h28l372 -893v-38z" />
    <glyph glyph-name="blackrightpointingpointer" unicode="&#x25ba;" 
d="M195 395v886h28l671 -425v-37l-671 -424h-28z" />
    <glyph glyph-name="blackdownpointingtriangle" unicode="&#x25bc;" 
d="M158 1210h773v-37l-372 -894h-28l-373 894v37z" />
    <glyph glyph-name="triaglf" unicode="&#x25c4;" 
d="M894 1281v-886h-28l-671 424v37l671 425h28z" />
    <glyph glyph-name="lozenge" unicode="&#x25ca;" 
d="M544 112l303 633l-303 633l-293 -633zM465 0l-353 745l353 744h148l366 -744l-366 -745h-148z" />
    <glyph glyph-name="circle" unicode="&#x25cb;" 
d="M843 746.5q0 190.5 -82 309.5t-213 119q-132 0 -213.5 -120t-81.5 -308.5t81.5 -308.5t213.5 -120t213.5 119t81.5 309.5zM233 326q-125 162 -125 419t124 423.5t318 166.5t314 -166q125 -167 125 -422.5t-125 -420.5q-125 -166 -317 -166t-314 166z" />
    <glyph glyph-name="H18533" unicode="&#x25cf;" 
d="M233 326q-125 162 -125 419t124 423.5t318 166.5t314 -166q125 -167 125 -422.5t-125 -420.5q-125 -166 -317 -166t-314 166z" />
    <glyph glyph-name="whitebullet" unicode="&#x25e6;" 
d="M398 674q0 -130 56 -148t110.5 -18t91.5 37t37 129v134q0 134 -55 152.5t-91 18.5q-149 0 -149 -171v-134zM836 674q0 -151 -78 -229q-72 -80 -212 -80q-212 0 -251.5 117.5t-39.5 191.5v134q0 153 75 234t251 81t215.5 -119.5t39.5 -195.5v-134z" />
    <glyph glyph-name="uni2619" unicode="&#x2619;" 
d="M318 -229q90 0 90 121v71l-246 400v171q0 222 69 264t117 42h19l145 -499h47v471h61q102 0 151.5 -61t49.5 -204v-350q0 -263 -113.5 -433t-290.5 -170t-261 115t-82 298l123 -9q0 -168 46.5 -197.5t74.5 -29.5zM449 1100v159q0 239 120 287t196 48l17 -157
q-106 0 -151 -42t-45 -164v-131h168q122 0 193.5 -108t57.5 -298l-117 4q6 195 -48 233.5t-88 38.5h-393q-257 0 -244 378l120 -4q-17 -244 117 -244h97z" />
    <glyph glyph-name="female" unicode="&#x2640;" 
d="M726 713q69 101 69 273.5t-69 273.5q-67 105 -179.5 105t-181.5 -102t-69 -275t69 -276t181.5 -103t179.5 104zM613 -372h-133v389h-283v136h283v318q-146 26 -235.5 168.5t-89.5 358.5t109 365q109 145 281.5 145t281.5 -145q109 -149 109 -365t-89.5 -358.5
t-233.5 -168.5v-318h283v-136h-283v-389z" />
    <glyph glyph-name="male" unicode="&#x2642;" 
d="M698 484q0 170 -69 274t-180 104t-181 -102q-71 -102 -71 -273q0 -172 69.5 -276.5t181.5 -104.5t181 104t69 274zM721 871q119 -149 119 -382t-111 -380q-111 -146 -282 -146t-280 146t-109 375t110 375t281 146q82 0 177 -50l247 404h-354v130h550v-742h-118v530z" />
    <glyph glyph-name="spade" unicode="&#x2660;" 
d="M784 168v-168h-475v168h168l18 484h-39l-78 -280h-75q-99 0 -152 84q-52 84 -52 207v171l394 655h105l394 -655v-171q0 -123 -52 -207t-152 -84h-75l-78 280h-37l18 -484h168z" />
    <glyph glyph-name="club" unicode="&#x2663;" 
d="M346 1123q0 162 53 273.5t145 111.5q91 0 145 -111.5t54 -273.5l-97 -198l37 -52q75 134 149 134t128.5 -78t54.5 -223t-81 -255t-210 -110l-67 320h-57l14 -499h172v-162h-481v162h170l15 499h-56l-69 -320q-128 0 -209 104q-80 104 -80 252t58 226q57 71 134 71
t138 -121l37 52z" />
    <glyph glyph-name="heart" unicode="&#x2665;" 
d="M296 1489q202 0 229 -428h39q14 217 82 323q68 105 160 105t145 -113t41 -270l-28 -320l-340 -786h-159l-338 786l-28 320q-14 157 43 270q58 113 154 113z" />
    <glyph glyph-name="diamond" unicode="&#x2666;" 
d="M464 0l-354 745l354 744h149l364 -744l-364 -745h-149z" />
    <glyph glyph-name="musicalnote" unicode="&#x266a;" 
d="M812 820q0 52 -24.5 97.5t-112 118t-115.5 118.5v-871q0 -131 -73 -216.5t-184 -85.5q-136 0 -160 81t-24 148.5t62.5 140.5t166.5 73h95v1084h99q6 -73 43 -110t146 -125.5t160 -172t51 -212.5q0 -183 -63.5 -276t-98.5 -134l-71 107q76 90 89.5 136.5t13.5 98.5z" />
    <glyph glyph-name="uni26A1" unicode="&#x26a1;" 
d="M527 769l391 93l67 -132l-637 -1058l-115 62l330 782l-407 -95l-61 121l605 1054l106 -66z" />
    <glyph glyph-name="checkmark" unicode="&#x2713;" 
d="M1074 1489q-318 -656 -480 -1489h-320l-270 905h286l142 -495q147 616 361 1079h281z" />
    <glyph glyph-name="uni2767" unicode="&#x2767;" 
d="M680 -108q0 -121 88 -121q122 0 122 227l123 9q4 -177 -81 -295t-262 -118q-178 0 -291 170t-113 433v350q0 209 114 251q37 14 87 14h62v-471h46l146 499h18q186 0 186 -306v-171l-245 -400v-71zM735 1100q136 0 118 244l119 4q13 -277 -129 -352q-48 -26 -115 -26h-393
q-65 0 -102 -71q-36 -71 -34 -201l-117 -4q-14 189 57 298q71 108 194 108h168v131q0 124 -46 165t-150 41l17 157q149 0 232 -87t85 -248v-159h96z" />
    <glyph glyph-name="a.salt_ss" unicode="&#xe000;" 
d="M626 194q-62 -213 -262 -213q-104 0 -165 103.5t-61 297.5v245q0 244 114.5 374.5t338.5 130.5t360 -88v-1044h-284v194h-41zM423 398q0 -193 96 -193q69 0 148 149v551q-46 22 -112 22q-132 0 -132 -303v-226z" />
    <glyph glyph-name="agrave.salt_ss" unicode="&#xe001;" 
d="M138 382v245q0 244 114 375q115 130 341 130t358 -88v-1044h-284v194h-41q-63 -213 -254 -213q-112 -1 -173 103t-61 298zM423 398q0 -193 96 -193q69 0 148 149v551q-50 24 -101 22q-76 -1 -110 -73t-33 -230v-226zM473 1303l-317 373h356l147 -373h-186z" />
    <glyph glyph-name="aacute.salt_ss" unicode="&#xe002;" 
d="M138 382v245q0 244 114 375q115 130 341 130t358 -88v-1044h-284v194h-41q-63 -213 -254 -213q-112 -1 -173 103t-61 298zM423 398q0 -193 96 -193q69 0 148 149v551q-50 24 -101 22q-76 -1 -110 -73t-33 -230v-226zM454 1303l146 373h355l-316 -373h-185z" />
    <glyph glyph-name="acircumflex.salt_ss" unicode="&#xe003;" 
d="M138 382v245q0 244 114 375q115 130 341 130t358 -88v-1044h-284v194h-41q-63 -213 -254 -213q-112 -1 -173 103t-61 298zM423 398q0 -193 96 -193q69 0 148 149v551q-50 24 -101 22q-76 -1 -110 -73t-33 -230v-226zM294 1300l-93 130l263 285h217l265 -285l-91 -129
l-283 201z" />
    <glyph glyph-name="atilde.salt_ss" unicode="&#xe004;" 
d="M138 382v245q0 244 114 375q115 130 341 130t358 -88v-1044h-284v194h-41q-63 -213 -254 -213q-112 -1 -173 103t-61 298zM423 398q0 -193 96 -193q69 0 148 149v551q-50 24 -101 22q-76 -1 -110 -73t-33 -230v-226zM748 1651v40h181v-28q0 -155 -60 -248t-162 -93
t-161 93q-26 41 -44 72t-44 30q-62 0 -58 -136v-40h-182v27q0 156 62 250t171 93q89 0 152 -94q28 -42 47 -73t43 -30q55 0 55 137z" />
    <glyph glyph-name="adieresis.salt_ss" unicode="&#xe005;" 
d="M138 382v245q0 244 114 375q115 130 341 130t358 -88v-1044h-284v194h-41q-63 -213 -254 -213q-112 -1 -173 103t-61 298zM423 398q0 -193 96 -193q69 0 148 149v551q-50 24 -101 22q-76 -1 -110 -73t-33 -230v-226zM618 1447q0 126 137 126t139 -126v-21q0 -69 -39 -95
t-99 -26t-100 26q-38 26 -38 95v21zM391 1573q138 0 138 -126v-21q0 -69 -39 -95q-40 -26 -100 -26t-99 26q-38 26 -38 95v21q0 126 138 126z" />
    <glyph glyph-name="aring.salt_ss" unicode="&#xe006;" 
d="M138 382v245q0 244 114 375q115 130 341 130t358 -88v-1044h-284v194h-41q-63 -213 -254 -213q-112 -1 -173 103t-61 298zM423 398q0 -193 96 -193q69 0 148 149v551q-50 24 -101 22q-76 -1 -110 -73t-33 -230v-226zM473 1545q1 -130 101 -130t100 130v60q0 136 -100 136
t-101 -136v-60zM573 1268q-134 0 -216 68t-81 209v60q0 143 81 213q82 70 216 70t216 -70t82 -213v-60q0 -141 -82 -209t-216 -68z" />
    <glyph glyph-name="amacron.salt_ss" unicode="&#xe007;" 
d="M138 382v245q0 244 114 375q115 130 341 130t358 -88v-1044h-284v194h-41q-63 -213 -254 -213q-112 -1 -173 103t-61 298zM423 398q0 -193 96 -193q69 0 148 149v551q-50 24 -101 22q-76 -1 -110 -73t-33 -230v-226zM257 1381v216h633v-216h-633z" />
    <glyph glyph-name="abreve.salt_ss" unicode="&#xe008;" 
d="M138 382v245q0 244 114 375q115 130 341 130t358 -88v-1044h-284v194h-41q-63 -213 -254 -213q-112 -1 -173 103t-61 298zM423 398q0 -193 96 -193q69 0 148 149v551q-50 24 -101 22q-76 -1 -110 -73t-33 -230v-226zM574 1471q82 0 114 50q33 50 34 184h228
q-4 -415 -377 -415q-188 0 -281 102t-95 313h227q2 -134 35 -184t115 -50z" />
    <glyph glyph-name="aogonek.salt_ss" unicode="&#xe009;" 
d="M827 -408q-121 0 -188 60t-67 171t95 206v165h-41q-63 -213 -254 -213q-112 -1 -173 103t-61 298v245q0 244 114 375q115 130 341 130t358 -88v-1044h-152q-30 -49 -30 -107q0 -59 25 -83t76 -24t139 19v-192q-121 -21 -182 -21zM423 398q0 -193 96 -193q69 0 148 149
v551q-50 24 -101 22q-76 -1 -110 -73t-33 -230v-226z" />
    <glyph glyph-name="acyrillic.salt_ss" unicode="&#xe00a;" 
d="M138 382v245q0 244 114 375q115 130 341 130t358 -88v-1044h-284v194h-41q-63 -213 -254 -213q-112 -1 -173 103t-61 298zM423 398q0 -193 96 -193q69 0 148 149v551q-50 24 -101 22q-76 -1 -110 -73t-33 -230v-226z" />
    <glyph glyph-name="g.salt_ss" unicode="&#xe00b;" 
d="M574 1136q217 0 377 -110v-979q0 -207 -123.5 -320.5t-349.5 -113.5q-154 0 -297 59l28 205q125 -54 273 -54q88 0 136.5 58t48.5 162v199h-41q-30 -80 -90.5 -124t-140.5 -44q-121 0 -189 101.5t-68 286.5v285q0 184 109.5 286.5t326.5 102.5zM423 464q0 -172 87 -172
q102 0 157 118v480q-45 41 -110 41q-134 0 -134 -188v-279z" />
    <glyph glyph-name="gcircumflex.salt_ss" unicode="&#xe00c;" 
d="M951 47q1 -207 -123 -321t-350 -113q-146 0 -297 59l28 205q125 -54 273 -54q88 0 136 58t49 162v199h-41q-30 -80 -91 -124t-140 -44q-121 0 -189 102t-68 286v285q0 184 110 286q110 103 326 103t377 -110v-979zM423 464q0 -172 87 -172q102 0 157 118v480
q-45 41 -110 41q-136 0 -134 -188v-279zM279 1300l-93 130l263 285h218l264 -285l-91 -129l-283 201z" />
    <glyph glyph-name="gbreve.salt_ss" unicode="&#xe00d;" 
d="M951 47q1 -207 -123 -321t-350 -113q-146 0 -297 59l28 205q125 -54 273 -54q88 0 136 58t49 162v199h-41q-30 -80 -91 -124t-140 -44q-121 0 -189 102t-68 286v285q0 184 110 286q110 103 326 103t377 -110v-979zM423 464q0 -172 87 -172q102 0 157 118v480
q-45 41 -110 41q-136 0 -134 -188v-279zM544 1471q82 0 114 50t35 184h227q-4 -415 -376 -415q-188 0 -281 102t-95 313h227q3 -134 35 -184t114 -50z" />
    <glyph glyph-name="gdotaccent.salt_ss" unicode="&#xe00e;" 
d="M951 47q1 -207 -123 -321t-350 -113q-146 0 -297 59l28 205q125 -54 273 -54q88 0 136 58t49 162v199h-41q-30 -80 -91 -124t-140 -44q-121 0 -189 102t-68 286v285q0 184 110 286q110 103 326 103t377 -110v-979zM423 464q0 -172 87 -172q102 0 157 118v480
q-45 41 -110 41q-136 0 -134 -188v-279zM393 1447q0 126 182 126t183 -126v-21q0 -69 -52 -95t-131 -26q-80 0 -131 26t-51 95v21z" />
    <glyph glyph-name="gcommaaccent.salt_ss" unicode="&#xe00f;" 
d="M951 47q1 -207 -123 -321t-350 -113q-146 0 -297 59l28 205q125 -54 273 -54q88 0 136 58t49 162v199h-41q-30 -80 -91 -124t-140 -44q-121 0 -189 102t-68 286v285q0 184 110 286q110 103 326 103t377 -110v-979zM423 464q0 -172 87 -172q102 0 157 118v480
q-45 41 -110 41q-136 0 -134 -188v-279zM398 1303l261 373h184l-89 -373h-356z" />
    <glyph glyph-name="i.salt_serif" unicode="&#xe010;" 
d="M153 0v209h249v700h-249v208h536v-908h249v-209h-785zM363 1447q1 126 183 126t182 -126v-21q0 -69 -51 -95t-131 -26t-132 26q-51 26 -51 95v21z" />
    <glyph glyph-name="dotlessi.salt_serif" unicode="&#xe011;" 
d="M153 0v209h249v700h-249v208h536v-908h249v-209h-785z" />
    <glyph glyph-name="igrave.salt_serif" unicode="&#xe012;" 
d="M153 0v209h249v700h-249v208h536v-908h249v-209h-785zM480 1303l-316 373h355l148 -373h-187z" />
    <glyph glyph-name="iacute.salt_serif" unicode="&#xe013;" 
d="M153 0v209h249v700h-249v208h536v-908h249v-209h-785zM357 1303l146 373h355l-316 -373h-185z" />
    <glyph glyph-name="icircumflex.salt_serif" unicode="&#xe014;" 
d="M153 0v209h249v700h-249v208h536v-908h249v-209h-785zM266 1300l-93 130l263 285h217l265 -285l-91 -129l-283 201z" />
    <glyph glyph-name="idieresis.salt_serif" unicode="&#xe015;" 
d="M153 0v209h249v700h-249v208h536v-908h249v-209h-785zM728 1573q138 0 138 -126v-21q0 -69 -39 -95t-99 -26t-100 26q-38 26 -38 95v21q0 126 138 126zM363 1573q138 0 138 -126v-21q0 -69 -39 -95q-40 -26 -100 -26t-99 26q-38 26 -38 95v21q0 126 138 126z" />
    <glyph glyph-name="itilde.salt_serif" unicode="&#xe016;" 
d="M153 0v209h249v700h-249v208h536v-908h249v-209h-785zM698 1651v40h181v-28q0 -155 -60 -248t-163 -93t-164 99q-22 35 -40 66t-44 30q-62 0 -58 -136v-40h-182v27q0 156 62 250t170 93q90 0 153 -94q28 -42 47 -73t42 -30q56 0 56 137z" />
    <glyph glyph-name="imacron.salt_serif" unicode="&#xe017;" 
d="M153 0v209h249v700h-249v208h536v-908h249v-209h-785zM192 1381v216h633v-216h-633z" />
    <glyph glyph-name="ibreve.salt_serif" unicode="&#xe018;" 
d="M153 0v209h249v700h-249v208h536v-908h249v-209h-785zM546 1471q82 0 114 50t34 184h228q-4 -415 -376 -415q-373 0 -377 415h228q3 -134 35 -184t114 -50z" />
    <glyph glyph-name="iogonek.salt_serif" unicode="&#xe019;" 
d="M663 -408q-121 0 -188 60t-67 162t65 182q2 2 3 4h-323v209h249v700h-249v208h536v-908h249v-209h-303q-30 -49 -30 -107q0 -59 25 -83t76 -24t139 19v-192q-121 -21 -182 -21zM363 1447q1 126 183 126t182 -126v-21q0 -69 -51 -95t-131 -26t-132 26q-51 26 -51 95v21z
" />
    <glyph glyph-name="ij.salt_serif" unicode="&#xe01a;" 
d="M707 20v889h-178v208h435v-1124q0 -199 -108 -291t-240 -91q-133 0 -225 41l28 203q88 -37 153 -37q66 0 101 46q34 47 34 156zM408 0h-257v1117h257v-1117zM655 1447q0 126 168 126t167 -126v-21q0 -69 -47 -95t-121 -26t-120 26q-47 26 -47 95v21zM99 1447
q1 126 167 126t166 -126v-21q0 -69 -46 -95t-120 -26t-121 26t-46 95v21z" />
    <glyph glyph-name="icyrillic.salt_serif" unicode="&#xe01b;" 
d="M153 0v209h249v700h-249v208h536v-908h249v-209h-785zM363 1447q1 126 183 126t182 -126v-21q0 -69 -51 -95t-131 -26t-132 26q-51 26 -51 95v21z" />
    <glyph glyph-name="yicyrillic.salt_serif" unicode="&#xe01c;" 
d="M153 0v209h249v700h-249v208h536v-908h249v-209h-785zM728 1573q138 0 138 -126v-21q0 -69 -39 -95t-99 -26t-100 26q-38 26 -38 95v21q0 126 138 126zM363 1573q138 0 138 -126v-21q0 -69 -39 -95q-40 -26 -100 -26t-99 26q-38 26 -38 95v21q0 126 138 126z" />
    <glyph glyph-name="l.salt_serif" unicode="&#xe01d;" 
d="M123 0v209h279v1072h-279v208h566v-1280h279v-209h-845z" />
    <glyph glyph-name="lacute.salt_serif" unicode="&#xe01e;" 
d="M315 1676l145 372h355l-316 -372h-184zM123 0v209h279v1072h-279v208h566v-1280h279v-209h-845z" />
    <glyph glyph-name="lcommaaccent.salt_serif" unicode="&#xe01f;" 
d="M123 0v209h279v1072h-279v208h566v-1280h279v-209h-845zM302 -559l91 373h354l-259 -373h-186z" />
    <glyph glyph-name="lcaron.salt_serif" unicode="&#xe020;" 
d="M858 1313l69 549h352l-262 -549h-159zM123 0v209h279v1072h-279v208h566v-1280h279v-209h-845z" />
    <glyph glyph-name="ldot.salt_serif" unicode="&#xe021;" 
d="M793 735q1 127 183 127t182 -127v-20q0 -69 -51 -95t-131 -26t-132 26q-51 26 -51 95v20zM123 0v209h279v1072h-279v208h566v-1280h279v-209h-845z" />
    <glyph glyph-name="lslash.salt_serif" unicode="&#xe022;" 
d="M123 0v209h279v404l-180 -60v181l180 61v486h-279v208h566v-597l166 56v-183l-166 -56v-500h279v-209h-845z" />
    <glyph glyph-name="i.salt_serifs" unicode="&#xe023;" 
d="M689 209h247v-209h-534v909h-249v208h536v-908zM363 1447q1 126 183 126t182 -126v-21q0 -69 -51 -95t-131 -26t-132 26q-51 26 -51 95v21z" />
    <glyph glyph-name="dotlessi.salt_serifs" unicode="&#xe024;" 
d="M689 209h247v-209h-534v909h-249v208h536v-908z" />
    </font>
</defs>
</svg>
