<?xml version="1.0" standalone="no"?>
<!DOCTYPE svg PUBLIC "-//W3C//DTD SVG 1.1//EN" "http://www.w3.org/Graphics/SVG/1.1/DTD/svg11.dtd" >
<svg xmlns="http://www.w3.org/2000/svg">
<metadata>
Created by FontPrep 20130207 at Thu Oct 15 15:22:54 2015
 By Callum Flack
(c) Copyright The Font Bureau, Inc. 2014. All rights reserved.
</metadata>
<defs>
<font id="87b3b2b557d0647eb8f3eadafc057960" horiz-adv-x='1024' >
  <font-face 
    font-family="InputSansCompressed-Medium"
    font-weight="500"
    font-stretch="extra-condensed"
    units-per-em="2048"
    panose-1="2 0 6 0 3 0 0 9 0 4"
    ascent="1583"
    descent="-465"
    x-height="1117"
    cap-height="1489"
    bbox="-415.009 -838 2305.02 2607"
    underline-thickness="0"
    underline-position="0"
    unicode-range="U+000D-1F41B"
  />
<missing-glyph horiz-adv-x="1318" 
d="M279 -279h760v1675h-760v-1675zM93 -465v2048h1132v-2048h-1132z" />
    <glyph glyph-name=".notdef" horiz-adv-x="1318" 
d="M279 -279h760v1675h-760v-1675zM93 -465v2048h1132v-2048h-1132z" />
    <glyph glyph-name=".null" horiz-adv-x="0" 
 />
    <glyph glyph-name="nonmarkingreturn" unicode="&#xd;" horiz-adv-x="0" 
 />
    <glyph glyph-name="NULL" horiz-adv-x="0" 
 />
    <glyph glyph-name="space" unicode="&#xa0;" horiz-adv-x="863" 
 />
    <glyph glyph-name="space" unicode=" " horiz-adv-x="863" 
 />
    <glyph glyph-name="exclam" unicode="!" horiz-adv-x="1171" 
d="M784 138q0 -157 -190 -157t-190 157v52q0 160 190 160t190 -160v-52zM475 559l-41 930h307l-43 -930h-223z" />
    <glyph glyph-name="quotedbl" unicode="&#x22;" horiz-adv-x="1610" 
d="M432 721l-48 768h314l-50 -768h-216zM963 721l-47 768h313l-49 -768h-217z" />
    <glyph glyph-name="numbersign" unicode="#" horiz-adv-x="1457" 
d="M184 357v189h214l15 400h-229v186h235l15 357h214l-13 -357h218l13 357h218l-15 -357h206v-186h-212l-15 -400h227v-189h-234l-13 -357h-218l15 357h-218l-15 -357h-214l13 357h-207zM830 546l15 400h-218l-14 -400h217z" />
    <glyph glyph-name="dollar" unicode="$" 
d="M668 -93h-156v179q-216 19 -357 137l54 175q146 -119 318 -134v393q-199 52 -279 139.5t-80 247.5t90 250.5t254 107.5v181h156v-179q181 -19 304 -114l-45 -177q-135 90 -272 105v-376q207 -61 291 -148.5t84 -245.5t-94 -253.5t-268 -110.5v-177zM799 434q0 67 -29 107
t-115 75v-355q144 14 144 173zM397 1065q0 -69 27 -109t103 -73v335q-71 -9 -100.5 -46.5t-29.5 -106.5z" />
    <glyph glyph-name="percent" unicode="%" horiz-adv-x="1884" 
d="M1439.5 147q74.5 0 74.5 138v180q0 73 -28 107.5t-74.5 34.5t-75.5 -34.5t-29 -107.5v-180q0 -74 29 -106t103.5 -32zM1410 -22q-140 0 -228.5 73.5t-88.5 229.5v188q0 156 88.5 231t230 75t229 -74.5t87.5 -231.5v-188q0 -156 -89 -229.5t-229 -73.5zM371 1017
q0 -136 102 -136t102 136v182q0 142 -73.5 142t-102 -34.5t-28.5 -107.5v-182zM478 0l699 1489h231l-699 -1489h-231zM474 711q-142 0 -230 73.5t-88 228.5v190q0 156 88.5 230.5t230 74.5t228 -74.5t86.5 -230.5v-190q0 -155 -86.5 -228.5t-228.5 -73.5z" />
    <glyph glyph-name="ampersand" unicode="&#x26;" horiz-adv-x="1312" 
d="M421 389q0 -225 179 -225q94 0 169 108q-197 188 -285 363q-63 -93 -63 -246zM575 905q173 114 173 268q0 153 -105 153t-105 -207q0 -95 37 -214zM168 365q0 279 225 434q-86 191 -86 327q0 184 87.5 284t245.5 100t241 -89t83 -219t-71.5 -220t-266.5 -198
q72 -166 225 -343q69 158 126 354l192 -67q-47 -128 -103.5 -230.5t-110.5 -192.5l296 -134l-43 -190q-165 59 -320 187q-141 -187 -356 -187q-164 0 -264 100.5t-100 283.5z" />
    <glyph glyph-name="quotesingle" unicode="'" horiz-adv-x="1033" 
d="M410 721l-49 768h313l-48 -768h-216z" />
    <glyph glyph-name="parenleft" unicode="(" 
d="M324 558.5q0 823.5 579 949.5l26 -171q-181 -61 -266.5 -251t-85.5 -526t85.5 -525.5t266.5 -250.5l-26 -175q-579 126 -579 949.5z" />
    <glyph glyph-name="parenright" unicode=")" 
d="M856 558.5q0 -823.5 -579 -949.5l-24 175q179 61 264.5 250.5t85.5 525.5t-85.5 525.5t-264.5 251.5l24 171q579 -126 579 -949.5z" />
    <glyph glyph-name="asterisk" unicode="*" horiz-adv-x="1312" 
d="M966 594l-266 270l63 -436h-216l66 434l-265 -268l-108 203l324 164l-324 164l108 202l265 -268l-66 430h216l-63 -431l266 269l106 -202l-325 -164l325 -164z" />
    <glyph glyph-name="plus" unicode="+" horiz-adv-x="1312" 
d="M551 0v546h-383v212h383v545h212v-545h382v-212h-382v-546h-212z" />
    <glyph glyph-name="comma" unicode="," horiz-adv-x="1033" 
d="M277 -348l108 771h373l-315 -771h-166z" />
    <glyph glyph-name="hyphen" unicode="&#x2011;" horiz-adv-x="1312" 
d="M182 544v221h950v-221h-950z" />
    <glyph glyph-name="hyphen" unicode="&#x2010;" horiz-adv-x="1312" 
d="M182 544v221h950v-221h-950z" />
    <glyph glyph-name="hyphen" unicode="&#xad;" horiz-adv-x="1312" 
d="M182 544v221h950v-221h-950z" />
    <glyph glyph-name="hyphen" unicode="-" horiz-adv-x="1312" 
d="M182 544v221h950v-221h-950z" />
    <glyph glyph-name="period" unicode="." horiz-adv-x="1033" 
d="M516 -19q-88 0 -143 45t-55 136v87q0 93 55 139t145 46t143.5 -45.5t53.5 -139.5v-87q0 -91 -55.5 -136t-143.5 -45z" />
    <glyph glyph-name="slash" unicode="/" horiz-adv-x="1033" 
d="M134 -372l559 1861h208l-558 -1861h-209z" />
    <glyph glyph-name="zero" unicode="0" horiz-adv-x="1318" 
d="M760 707q0 -111 -99 -111q-47 0 -74 23t-27 88v75q0 112 100 112t100 -112v-75zM660 175q124 0 175 104.5t51 362.5v200q0 263 -51 368.5t-175 105.5t-175 -106t-51 -368v-200q0 -259 51 -363t175 -104zM661 -19q-231 0 -355 165t-124 472v248q0 309 124 475.5t355 166.5
t354 -166.5t123 -475.5v-248q0 -307 -123 -472t-354 -165z" />
    <glyph glyph-name="one" unicode="1" horiz-adv-x="1318" 
d="M296 0v197h307v985h-37q-24 -115 -104 -186t-179 -78l-15 207q123 13 214 110.5t125 253.5h249v-1292h280v-197h-840z" />
    <glyph glyph-name="two" unicode="2" horiz-adv-x="1318" 
d="M184 0v315q0 195 61.5 294.5t203.5 138.5l273 75q82 20 114.5 65t32.5 127v82q0 114 -48 166.5t-161 52.5t-156.5 -62t-52.5 -232l-252 19q11 246 120 356.5t338 110.5t346.5 -102.5t117.5 -295.5v-110q0 -164 -58.5 -249.5t-198.5 -121.5l-276 -74q-84 -22 -117 -75.5
t-33 -161.5v-121h698v-197h-952z" />
    <glyph glyph-name="three" unicode="3" horiz-adv-x="1318" 
d="M660 -19q-245 0 -362 103.5t-127 328.5l252 19q13 -155 60 -206t173 -51t176.5 55t50.5 178v50q0 130 -47.5 181.5t-174.5 51.5h-177v195h177q106 0 150 34.5t44 142.5v60q0 108 -50.5 149.5t-156.5 41.5t-148 -52t-49 -171l-252 19q9 209 117 303.5t338 94.5t342 -90.5
t112 -283.5v-52q0 -108 -58 -180t-151 -83v-54q106 -13 171.5 -104t65.5 -210v-45q0 -218 -115.5 -321.5t-360.5 -103.5z" />
    <glyph glyph-name="four" unicode="4" horiz-adv-x="1318" 
d="M1205 384h-209v-384h-253v384h-572v193l509 912h316v-912h209v-193zM743 577v602l-341 -602h341z" />
    <glyph glyph-name="five" unicode="5" horiz-adv-x="1318" 
d="M1136 389q0 -408 -483 -408q-242 0 -358 106.5t-124 338.5l252 19q11 -155 62 -212.5t174 -57.5t173.5 52t50.5 171v108q0 123 -49.5 176t-161.5 53h-460v754h879v-191h-626v-358h256q415 0 415 -413v-138z" />
    <glyph glyph-name="six" unicode="6" horiz-adv-x="1318" 
d="M659.5 175q113.5 0 167.5 65t54 205v24q0 143 -54 210.5t-167.5 67.5t-167.5 -67t-54 -211v-24q0 -140 54 -205t167.5 -65zM1136 488v-41q0 -229 -121 -347.5t-355 -118.5t-355 135t-121 398v471q0 523 479 523q216 0 323 -83t137 -274l-265 -43q-20 123 -65.5 165.5
t-152.5 42.5t-154.5 -72.5t-47.5 -260.5v-190h14q90 138 289 138q395 0 395 -443z" />
    <glyph glyph-name="seven" unicode="7" horiz-adv-x="1318" 
d="M184 1279v210h952v-210q-182 -397 -270 -649t-136 -630h-266q74 456 158 694.5t261 584.5h-699z" />
    <glyph glyph-name="eight" unicode="8" horiz-adv-x="1318" 
d="M661 175q123 0 172.5 54t49.5 186v30q0 132 -49.5 187t-172.5 55t-173 -55t-50 -187v-30q0 -132 50 -186t173 -54zM661 879q106 0 150 44.5t44 150.5v49q0 106 -44 148.5t-150 42.5t-151 -42.5t-45 -148.5v-49q0 -106 45 -150.5t151 -44.5zM660 -19q-260 0 -368 105.5
t-108 304.5v41q0 145 59.5 229t171.5 97v54q-95 11 -149 81t-54 194v60q0 188 113.5 274.5t335.5 86.5t334.5 -85.5t112.5 -275.5v-60q0 -125 -54 -194.5t-149 -80.5v-54q112 -13 171.5 -97t59.5 -229v-41q0 -203 -108 -306.5t-368 -103.5z" />
    <glyph glyph-name="nine" unicode="9" horiz-adv-x="1318" 
d="M184 1043q0 465 476 465t476 -532v-470q0 -249 -113 -387t-347 -138t-341.5 84t-137.5 274l265 43q19 -115 63.5 -161t152.5 -46t156.5 73.5t48.5 257.5v192h-19q-90 -138 -285 -138t-295 111t-100 331v41zM661 743q117 0 169.5 66t52.5 211v24q0 143 -52.5 207.5
t-169.5 64.5t-169.5 -64t-52.5 -208v-24q0 -145 52.5 -211t169.5 -66z" />
    <glyph glyph-name="colon" unicode=":" horiz-adv-x="1033" 
d="M517 -17q-81 0 -131.5 41t-50.5 125v87q0 86 50.5 127t132.5 41t132 -41t50 -127v-87q0 -84 -51 -125t-132 -41zM517 732q-81 0 -131.5 40t-50.5 124v87q0 86 50.5 127t132.5 41t132 -41t50 -127v-87q0 -84 -51 -124t-132 -40z" />
    <glyph glyph-name="semicolon" unicode=";" horiz-adv-x="1033" 
d="M298 -337l99 750h342l-290 -750h-151zM517 732q-81 0 -131.5 40t-50.5 124v87q0 86 50.5 127t132.5 41t132 -41t50 -127v-87q0 -84 -51 -124t-132 -40z" />
    <glyph glyph-name="less" unicode="&#x3c;" horiz-adv-x="1312" 
d="M1076 0l-838 532v239l838 532v-206l-696 -445l696 -445v-207z" />
    <glyph glyph-name="equal" unicode="=" horiz-adv-x="1312" 
d="M168 274v212h977v-212h-977zM168 819v212h977v-212h-977z" />
    <glyph glyph-name="greater" unicode="&#x3e;" horiz-adv-x="1312" 
d="M238 0v203l706 449l-706 450v201l838 -530v-242z" />
    <glyph glyph-name="question" unicode="?" horiz-adv-x="1452" 
d="M855 138q0 -157 -191 -157t-191 157v52q0 160 191 160t191 -160v-52zM942 1028v52q0 117 -49.5 176.5t-164.5 59.5t-162 -60.5t-58 -233.5l-251 19q11 249 122 358t339 109t351.5 -109t123.5 -301v-78q0 -195 -138.5 -296.5t-490.5 -164.5l-28 175q235 50 320.5 115
t85.5 179z" />
    <glyph glyph-name="at" unicode="@" horiz-adv-x="1495" 
d="M814 562q0 -171 84.5 -171t115 30.5t30.5 125.5v172q0 93 -32.5 134t-84.5 41q-113 0 -113 -179v-153zM203 426v499q0 264 138.5 423.5t406.5 159.5t401.5 -151t133.5 -413v-397q0 -333 -363 -333q-177 0 -261 86.5t-84 243.5v190q0 153 73 245t203 92t195 -121h56
q-4 190 -80 287.5t-265 97.5t-271 -108t-82 -302v-489q0 -220 106 -342t350 -122q181 0 311 47v-177q-143 -47 -311 -47q-331 0 -494 172.5t-163 458.5z" />
    <glyph glyph-name="A" unicode="A" horiz-adv-x="1172" 
d="M843 0l-85 404h-363l-86 -404h-236l353 1489h324l350 -1489h-257zM715 601l-138 652l-139 -652h277z" />
    <glyph glyph-name="B" unicode="B" horiz-adv-x="1318" 
d="M438 192h229q123 0 171 47.5t48 164.5v69q0 117 -48.5 163.5t-170.5 46.5h-229v-491zM438 866h227q106 0 148.5 42t42.5 144v61q0 101 -42.5 144t-148.5 43h-227v-434zM1106 1061q0 -200 -201 -246v-54q112 -13 173 -92t61 -198v-87q0 -179 -116 -281.5t-319 -102.5h-520
v1489h520q188 0 295 -93t107 -257v-78z" />
    <glyph glyph-name="C" unicode="C" horiz-adv-x="1318" 
d="M184 471v542q0 238 123 366.5t369 128.5t367.5 -128.5t131.5 -385.5l-252 -18q-11 186 -66 260.5t-183 74.5t-182 -70t-54 -243v-514q0 -169 54 -237t182 -68t183 72.5t66 256.5l252 -18q-18 -509 -490 -509q-255 0 -378 127t-123 363z" />
    <glyph glyph-name="D" unicode="D" horiz-adv-x="1318" 
d="M438 197h191q134 0 194 73t60 238v468q0 169 -60 242.5t-194 73.5h-191v-1095zM184 0v1489h469q227 0 355 -136.5t128 -363.5v-496q0 -225 -128.5 -359t-355.5 -134h-468z" />
    <glyph glyph-name="E" unicode="E" 
d="M184 0v1489h818v-197h-564v-387h493v-199h-493v-509h564v-197h-818z" />
    <glyph glyph-name="F" unicode="F" 
d="M184 0v1489h840v-197h-586v-521h487v-198h-487v-573h-254z" />
    <glyph glyph-name="G" unicode="G" horiz-adv-x="1318" 
d="M662 -19q-230 0 -354 128.5t-124 361.5v542q0 238 121 366.5t349 128.5t340 -110t123 -357l-253 -19q-9 162 -56 225.5t-161 63.5t-161.5 -68t-47.5 -243v-516q0 -171 53 -238t179 -67t172 79t46 280h-227v197h480v-229q0 -249 -124.5 -387t-354.5 -138z" />
    <glyph glyph-name="H" unicode="H" horiz-adv-x="1318" 
d="M184 0v1489h254v-575h445v575h253v-1489h-253v717h-445v-717h-254z" />
    <glyph glyph-name="I" unicode="I" 
d="M184 0v197h280v1095h-280v197h812v-197h-279v-1095h279v-197h-812z" />
    <glyph glyph-name="J" unicode="J" 
d="M558 -19q-228 0 -323 114t-107 398l254 21q9 -201 46 -268t137 -67t139 64t39 226v823h-335v197h588v-1024q0 -248 -105 -366t-333 -118z" />
    <glyph glyph-name="K" unicode="K" 
d="M438 685v-685h-254v1489h254v-605h54l337 605h279l-417 -685l411 -804h-292l-315 685h-57z" />
    <glyph glyph-name="L" unicode="L" horiz-adv-x="1038" 
d="M184 0v1489h254v-1292h491v-197h-745z" />
    <glyph glyph-name="M" unicode="M" horiz-adv-x="1457" 
d="M402 0h-218v1489h328l220 -867l223 867h320v-1489h-217v1179l-207 -807h-242l-207 792v-1164z" />
    <glyph glyph-name="N" unicode="N" horiz-adv-x="1318" 
d="M402 0h-218v1489h341l393 -1118v1118h218v-1489h-337l-397 1171v-1171z" />
    <glyph glyph-name="O" unicode="O" horiz-adv-x="1318" 
d="M661 179q123 0 172.5 70.5t49.5 243.5v507q0 171 -49.5 241t-172.5 70t-173 -70t-50 -241v-507q0 -173 50 -243.5t173 -70.5zM660 -19q-230 0 -353 130.5t-123 368.5v533q0 238 123 366.5t354 128.5t353 -128.5t122 -366.5v-533q0 -238 -123 -368.5t-353 -130.5z" />
    <glyph glyph-name="P" unicode="P" 
d="M438 696h163q95 0 140 49.5t45 168.5v158q0 119 -45 169.5t-140 50.5h-163v-596zM1037 899q0 -398 -400 -398h-199v-501h-254v1489h453q400 0 400 -402v-188z" />
    <glyph glyph-name="Q" unicode="Q" horiz-adv-x="1318" 
d="M660 190q124 0 173.5 68t49.5 241v501q0 173 -49.5 242t-173.5 69t-173 -69t-49 -242v-501q0 -173 49 -241t173 -68zM184 486v527q0 236 124 365.5t353 129.5t352 -129.5t123 -365.5v-527q0 -210 -102.5 -335t-292.5 -147q7 -123 68.5 -162t197.5 -6l28 -203
q-257 -45 -374 45.5t-117 330.5q-173 28 -266.5 151t-93.5 326z" />
    <glyph glyph-name="R" unicode="R" horiz-adv-x="1318" 
d="M1113 972q0 -326 -251 -391l287 -581h-289l-275 562h-147v-562h-254v1489h537q194 0 293 -101t99 -295v-121zM438 758h258q82 0 123 48.5t41 165.5v115q0 114 -41 159.5t-123 45.5h-258v-534z" />
    <glyph glyph-name="S" unicode="S" horiz-adv-x="1318" 
d="M449 1115q0 -90 57.5 -138.5t253.5 -116.5t290.5 -164t94.5 -278t-127.5 -306.5t-360.5 -124.5q-117 0 -240 40t-225 109l52 199q208 -151 434 -151q104 0 159 57t55 150t-60.5 143t-245.5 116t-287 162t-102 276t121 296.5t330 116.5q121 0 234.5 -40t193.5 -106
l-41 -191q-194 141 -382 141q-95 0 -149.5 -50t-54.5 -140z" />
    <glyph glyph-name="T" unicode="T" 
d="M464 0v1292h-349v197h950v-197h-348v-1292h-253z" />
    <glyph glyph-name="U" unicode="U" horiz-adv-x="1318" 
d="M660 -19q-241 0 -358.5 123t-117.5 374v1011h254v-1009q0 -162 50 -229t172 -67t172.5 67t50.5 229v1009h253v-1011q0 -251 -117.5 -374t-358.5 -123z" />
    <glyph glyph-name="V" unicode="V" horiz-adv-x="1172" 
d="M748 0h-325l-350 1489h257l264 -1238l266 1238h240z" />
    <glyph glyph-name="W" unicode="W" horiz-adv-x="1604" 
d="M972 0l-166 851l-171 -851h-274l-223 1489h240l156 -1150l151 843h248l164 -839l156 1146h214l-223 -1489h-272z" />
    <glyph glyph-name="X" unicode="X" horiz-adv-x="1318" 
d="M897 0l-242 503l-236 -503h-272l380 771l-345 718h283l224 -472l216 472h268l-354 -748l350 -741h-272z" />
    <glyph glyph-name="Y" unicode="Y" 
d="M717 0h-253v559l-404 930h266l270 -714l272 714h251l-402 -930v-559z" />
    <glyph glyph-name="Z" unicode="Z" horiz-adv-x="1318" 
d="M1125 0h-928v197l624 1095h-624v197h928v-197l-654 -1095h654v-197z" />
    <glyph glyph-name="bracketleft" unicode="[" 
d="M324 -372v1861h601v-191h-348v-1495h348v-175h-601z" />
    <glyph glyph-name="backslash" unicode="\" horiz-adv-x="1033" 
d="M693 -372l-559 1863l209 -2l558 -1861h-208z" />
    <glyph glyph-name="bracketright" unicode="]" 
d="M255 -372v175h348v1495h-348v191h601v-1861h-601z" />
    <glyph glyph-name="asciicircum" unicode="^" horiz-adv-x="1457" 
d="M1030 372l-300 801l-300 -801h-246l419 1117h253l419 -1117h-245z" />
    <glyph glyph-name="underscore" unicode="_" horiz-adv-x="1312" 
d="M168 -372v221h977v-221h-977z" />
    <glyph glyph-name="grave" unicode="`" horiz-adv-x="1033" 
d="M579 721l-344 768h374l136 -768h-166z" />
    <glyph glyph-name="a" unicode="a" horiz-adv-x="1318" 
d="M821 156q-105 -175 -339 -175q-124 0 -204.5 85t-80.5 235.5t86 233.5t233 83h240v173q0 74 -39 119t-115 45t-113 -40t-57 -154l-216 45q58 330 408 330q383 0 383 -330v-501q0 -86 41 -109t127 -4v-194q-127 -24 -208 10.5t-105 147.5h-41zM555 465q-119 -1 -119 -153
t124 -152q132 0 196 108v197h-201z" />
    <glyph glyph-name="b" unicode="b" 
d="M743 374v369q0 190 -123 190q-110 0 -182 -132v-578q54 -50 144 -50t125.5 46.5t35.5 154.5zM579 -17q-257 0 -395 134v1372h254v-525h40q24 82 88.5 127t157.5 45q130 0 201 -99t71 -283v-383q0 -186 -107 -287t-310 -101z" />
    <glyph glyph-name="c" unicode="c" 
d="M594 -19q-203 0 -306.5 102.5t-103.5 287.5v370q0 199 108 297t304 98q393 0 415 -384l-244 -17q-6 114 -43.5 160.5t-125.5 46.5t-124 -45.5t-36 -157.5v-363q0 -112 37 -156.5t125 -44.5t124.5 42t42.5 146l244 -15q-9 -186 -111.5 -276.5t-305.5 -90.5z" />
    <glyph glyph-name="d" unicode="d" 
d="M546 1134q103 0 197 -50v405h253v-1489h-253v164h-41q-24 -86 -91 -134.5t-162 -48.5q-125 0 -195 100.5t-70 283.5v382q0 184 96 285.5t266 101.5zM438 374q0 -188 121 -188q109 0 184 140v555q-78 65 -156 65q-77 0 -113 -49.5t-36 -151.5v-371z" />
    <glyph glyph-name="e" unicode="e" 
d="M438 739v-74h305v63q0 125 -35.5 179t-117.5 54t-117 -51.5t-35 -170.5zM184 376v365q0 184 109 289.5t298 105.5t297 -108t108 -298v-218h-558v-136q0 -119 38 -167.5t122 -48.5t122 33.5t64 117.5l210 -60q-80 -270 -424 -270q-172 0 -279 105.5t-107 289.5z" />
    <glyph glyph-name="f" unicode="f" horiz-adv-x="1038" 
d="M700 1335q-123 0 -123 -127v-91h279v-192h-279v-925h-253v925h-168v192h168v99q0 145 94 226t249 81q88 0 202 -47l-27 -176q-91 35 -142 35z" />
    <glyph glyph-name="g" unicode="g" horiz-adv-x="1318" 
d="M423 -88q0 -139 108 -139h266q58 0 96 27t38 101q0 127 -130 127h-378v-116zM638 579q75 0 107.5 40t32.5 120v58q0 80 -33.5 118t-106.5 38t-107 -38t-34 -118v-58q0 -80 33 -120t108 -40zM493 430q-93 0 -93 -105t101 -105h316q149 0 234 -72t85 -226t-87.5 -233.5
t-242.5 -79.5h-277q-171 0 -258 69t-87 201q0 91 44 145t109 64v37q-123 35 -123 190q0 86 56 150t141 75v35q-76 28 -116 88.5t-40 125.5v38q0 132 96 211t282 79h495v-177l-227 41v-35q52 -20 85.5 -76t33.5 -120v-35q0 -128 -95 -206.5t-288 -78.5h-144z" />
    <glyph glyph-name="h" unicode="h" 
d="M743 748q0 185 -114 185t-191 -149v-784h-254v1489h254v-525h40q32 80 102 126t155 46q121 0 191 -92.5t70 -254.5v-789h-253v748z" />
    <glyph glyph-name="i" unicode="i" horiz-adv-x="754" 
d="M251 0v1117h254v-1117h-254zM378 1566q168 0 168 -121v-17q0 -65 -47 -90t-121 -25t-121 25t-47 90v17q0 121 168 121z" />
    <glyph glyph-name="j" unicode="j" horiz-adv-x="899" 
d="M266 -199q127 0 129 201v923h-246v192h497v-1136q0 -179 -98 -275t-252 -95q-95 0 -199 41l28 188q84 -39 141 -39zM352 1445q0 121 168 121t167 -121v-17q0 -65 -47 -90t-121 -25t-121 25t-46 90v17z" />
    <glyph glyph-name="k" unicode="k" horiz-adv-x="1038" 
d="M438 493v-493h-254v1489h254v-815h55l213 443h264l-276 -514l270 -603h-270l-201 493h-55z" />
    <glyph glyph-name="l" unicode="l" horiz-adv-x="899" 
d="M255 384v1105h251v-1105q0 -194 120 -194q54 0 122 33l40 -186q-102 -50 -202 -50q-158 0 -244.5 104t-86.5 293z" />
    <glyph glyph-name="m" unicode="m" horiz-adv-x="1597" 
d="M590 933q-96 0 -152 -127v-806h-254v1117h254v-153h40q24 78 86.5 125t137.5 47t127 -46t76 -126h61q26 78 86.5 125t135.5 47q104 0 165.5 -87.5t61.5 -242.5v-806h-253v786q0 147 -86 147q-95 0 -151 -127v-806h-251v786q0 147 -84 147z" />
    <glyph glyph-name="n" unicode="n" 
d="M631 933q-117 0 -193 -149v-784h-254v1117h254v-153h40q30 80 100 126t157 46q119 0 190 -94t71 -253v-789h-253v748q0 185 -112 185z" />
    <glyph glyph-name="o" unicode="o" 
d="M589 175q81 0 117.5 51t36.5 169v327q0 117 -36.5 169.5t-117.5 52.5t-116 -53t-35 -170v-326q0 -117 35 -168.5t116 -51.5zM590 -19q-190 0 -298 108t-108 300v333q0 194 109 304t298 110t297 -110t108 -304v-333q0 -192 -108 -300t-298 -108z" />
    <glyph glyph-name="p" unicode="p" 
d="M635 -17q-107 0 -197 51v-406h-254v1489h254v-153h40q24 82 92.5 127t161.5 45q128 0 196 -100.5t68 -281.5v-383q0 -184 -95 -286t-266 -102zM595 173q77 0 112.5 47.5t35.5 153.5v371q0 99 -28.5 143.5t-90.5 44.5t-104.5 -32t-81.5 -100v-563q80 -65 157 -65z" />
    <glyph glyph-name="q" unicode="q" 
d="M438 385q0 -199 121 -199q114 0 184 131v579q-56 48 -143 48q-86 0 -124 -46.5t-38 -154.5v-358zM623 1134q219 0 373 -123v-1383h-253v527h-41q-24 -84 -87.5 -129t-158.5 -45q-132 0 -202 99t-70 285v382q0 188 110 287.5t329 99.5z" />
    <glyph glyph-name="r" unicode="r" horiz-adv-x="1038" 
d="M693 810q0 123 -90 123q-43 0 -89.5 -41t-75.5 -106v-786h-254v1117h254v-153h40q24 91 87.5 131.5t134.5 40.5q112 0 167.5 -76.5t55.5 -214.5v-203h-230v168z" />
    <glyph glyph-name="s" unicode="s" 
d="M578 957q-140 0 -140 -128q0 -74 54 -106t203 -74t228 -113t79 -221t-108 -241t-300 -91q-123 0 -234.5 40t-190.5 102l62 167q194 -128 362 -128t168 125q0 76 -50.5 105t-190.5 68t-231.5 109.5t-91.5 227t100 247t267 90.5q112 0 215.5 -37.5t171.5 -93.5l-50 -162
q-183 114 -323 114z" />
    <glyph glyph-name="t" unicode="t" horiz-adv-x="1038" 
d="M670 -19q-169 0 -257.5 90.5t-88.5 263.5v590h-168v192h168v372h253v-372h285v-192h-285v-577q0 -89 35.5 -130t96.5 -41t136 37l28 -188q-79 -45 -203 -45z" />
    <glyph glyph-name="u" unicode="u" 
d="M549 186q118 0 194 149v782h253v-1117h-253v155h-41q-24 -80 -94 -127t-161 -47q-123 0 -193 94t-70 255v787h254v-748q0 -183 111 -183z" />
    <glyph glyph-name="v" unicode="v" horiz-adv-x="1038" 
d="M685 0h-331l-276 1117h250l195 -910l198 910h240z" />
    <glyph glyph-name="w" unicode="w" horiz-adv-x="1457" 
d="M881 0l-147 706l-140 -706h-277l-205 1117h221l145 -877l140 691h227l151 -682l140 868h212l-207 -1117h-260z" />
    <glyph glyph-name="x" unicode="x" horiz-adv-x="1038" 
d="M683 0l-175 344l-154 -344h-257l290 573l-279 544h255l164 -320l149 320h255l-283 -553l292 -564h-257z" />
    <glyph glyph-name="y" unicode="y" horiz-adv-x="1038" 
d="M283 -195q102 0 146 49t68 144l4 22h-170l-253 1097h250l203 -948l188 948h242l-248 -1175q-45 -179 -139.5 -254t-247.5 -75q-84 0 -233 20l17 192q116 -20 173 -20z" />
    <glyph glyph-name="z" unicode="z" 
d="M968 0h-756v194l492 731h-492v192h756v-192l-471 -731h471v-194z" />
    <glyph glyph-name="braceleft" unicode="{" 
d="M255 -82q0 93 28 154.5t67 113.5t62.5 90.5t23.5 84.5q0 80 -68 113.5t-253 41.5v132q184 6 252.5 39.5t68.5 114.5q0 41 -23 73.5t-63 76.5t-67.5 99t-27.5 148q0 166 155.5 241.5t514.5 67.5v-192q-231 6 -325 -28.5t-94 -122.5q0 -52 28 -90t62 -76t63.5 -83
t29.5 -110q0 -112 -88.5 -164t-293.5 -59v-10q205 -17 293.5 -74.5t88.5 -170.5q0 -65 -30.5 -107t-64.5 -79t-61 -79.5t-27 -105.5q0 -93 94 -129.5t325 -30.5v-188q-359 -7 -514.5 67.5t-155.5 241.5z" />
    <glyph glyph-name="bar" unicode="|" horiz-adv-x="1033" 
d="M415 -372v1861h205v-1861h-205z" />
    <glyph glyph-name="braceright" unicode="}" 
d="M925 -82q0 -168 -155.5 -242t-514.5 -67v188q231 -6 325 30.5t94 129.5q0 63 -27 105t-61 80t-64 79.5t-30 106.5q0 115 88 172t293 73v10q-205 7 -293 59t-88 164q0 65 28.5 110t63.5 83t62.5 76t27.5 90q0 88 -94 122.5t-325 28.5v192q359 7 514.5 -68t155.5 -241
q0 -93 -28 -148t-67 -99t-62 -76.5t-23 -73.5q0 -82 68 -115.5t252 -38.5v-132q-184 -7 -252 -41t-68 -114q0 -47 22.5 -86t62.5 -90t67.5 -112.5t27.5 -154.5z" />
    <glyph glyph-name="asciitilde" unicode="~" horiz-adv-x="1457" 
d="M970 626q86 0 86 189v267h219v-278q0 -201 -87.5 -307t-232.5 -106q-91 0 -159 55.5t-126 181.5t-95 182t-85 56q-84 0 -84 -183v-273h-222v284q0 194 88.5 300t233.5 106q99 0 170.5 -56.5t127.5 -180.5t89.5 -180.5t76.5 -56.5z" />
    <glyph glyph-name="exclamdown" unicode="&#xa1;" horiz-adv-x="1171" 
d="M706 931l42 -931h-309l43 931h224zM397 1352q1 156 191 156t190 -156v-52q0 -161 -190.5 -161t-190.5 161v52z" />
    <glyph glyph-name="cent" unicode="&#xa2;" 
d="M514 -93v266q-162 22 -246 133t-84 303v279q0 188 86.5 298t243.5 130v267h156v-265q153 -19 227.5 -118.5t91.5 -283.5l-231 -17q-7 108 -30.5 159.5t-75.5 66.5v-760q52 11 75 56.5t31 151.5l231 -16q-9 -179 -78 -275t-241 -111v-264h-156zM426 592q0 -106 25.5 -161
t82.5 -70v769q-58 -15 -83 -70t-25 -161v-307z" />
    <glyph glyph-name="sterling" unicode="&#xa3;" horiz-adv-x="1318" 
d="M631 560q0 -139 -193 -275l24 -41q60 39 105.5 37.5t84.5 -19.5t75 -39.5t75 -21.5q63 0 87.5 57t33.5 194l252 -18q-11 -222 -108 -337.5t-265 -115.5q-69 0 -132 34.5t-120 65.5t-107 42t-97 -28l-128 -112l-106 162l141 99q48 41 85.5 128.5t37.5 168.5t-26 161h-199
v173h125q-43 97 -43 216q0 192 116 304.5t336 112.5t327 -110t118 -331l-253 -19q-7 128 -50 186t-149 58t-148 -58.5t-42 -150.5t56 -208h244v-173h-175q18 -77 18 -142z" />
    <glyph glyph-name="currency" unicode="&#xa4;" horiz-adv-x="1312" 
d="M655.5 168q-169.5 0 -258.5 91l-140 -183l-110 118l160 217q-22 68 -22 161v338q0 82 22 170l-162 221l110 118l142 -190q95 93 260.5 93t260.5 -93l143 184l110 -117l-164 -220q21 -82 21 -166v-338q0 -83 -19 -155l160 -218l-110 -117l-137 181q-97 -95 -266.5 -95z
M799 910q0 215 -142.5 215t-142.5 -215v-338q0 -110 36 -158.5t107 -48.5t106.5 48.5t35.5 158.5v338z" />
    <glyph glyph-name="yen" unicode="&#xa5;" horiz-adv-x="1172" 
d="M992 186h-279v-186h-251v186h-280v173h280v200h-280v173h205l-331 757h266l272 -750l272 750h251l-329 -757h204v-173h-279v-200h279v-173z" />
    <glyph glyph-name="brokenbar" unicode="&#xa6;" horiz-adv-x="1033" 
d="M415 -372v744h205v-744h-205zM415 745v744h205v-744h-205z" />
    <glyph glyph-name="section" unicode="&#xa7;" horiz-adv-x="1604" 
d="M1160 1147q-188 153 -382 153q-193 0 -193 -159q0 -82 66.5 -129.5t258.5 -93.5t277 -126.5t85 -203.5t-57 -190.5t-144 -101.5q97 -52 149 -127.5t52 -192.5q0 -169 -117 -265t-326 -96q-130 0 -254 46.5t-204 128.5l68 180q176 -158 397 -158q76 0 134 35t58 117
t-55 129.5t-200 88.5q-236 52 -334 133.5t-98 207.5q0 213 214 287q-214 105 -214 326q0 169 118 265t327 96q128 0 248 -46.5t208 -128.5zM1020 536q0 78 -48.5 122.5t-206.5 76.5q-74 -2 -122.5 -42t-48.5 -117t41.5 -115t106.5 -55t105 -30q74 4 123.5 43t49.5 117z" />
    <glyph glyph-name="dieresis" unicode="&#xa8;" horiz-adv-x="1033" 
d="M823 1428q0 -115 -127 -115q-58 0 -93 25t-35 90v17q0 121 128 121q58 0 92 -27t35 -94v-17zM212 1445q0 121 128 121t127 -121v-17q0 -65 -36 -90t-92 -25t-91 25t-36 90v17z" />
    <glyph glyph-name="copyright" unicode="&#xa9;" horiz-adv-x="1876" 
d="M937 182q-176 0 -254 99t-78 285v251q0 184 79 282t254 98t258 -89.5t92 -277.5l-217 -11q-6 127 -31.5 168t-87.5 41t-91 -46.5t-29 -156.5v-270q0 -110 29 -156.5t91 -46.5t87.5 36t31.5 154l217 -11q-9 -181 -92 -265t-259 -84zM940.5 -93q273.5 0 390 140.5
t116.5 468.5v339q0 331 -116.5 473.5t-390 142.5t-391 -142.5t-117.5 -473.5v-339q0 -328 117.5 -468.5t391 -140.5zM940.5 -205q-318.5 0 -472 170.5t-153.5 524.5v393q0 357 153.5 528.5t472 171.5t471 -171.5t152.5 -528.5v-393q0 -354 -152.5 -524.5t-471 -170.5z" />
    <glyph glyph-name="ordfeminine" unicode="&#xaa;" 
d="M643 1508q241 0 241 -300v-337q0 -88 35.5 -106t104.5 -7v-166q-93 -13 -163 11t-101 144h-32q-35 -71 -109.5 -119.5t-170.5 -48.5t-170.5 64t-74.5 187t74.5 191t200.5 68h192v106q0 155 -121 155q-54 0 -84.5 -27t-49.5 -120l-193 39q24 134 102 200t319 66zM505 732
q100 0 165 108v115h-171q-43 0 -66 -23t-23 -84t21.5 -88.5t73.5 -27.5z" />
    <glyph glyph-name="guillemotleft" unicode="&#xab;" horiz-adv-x="1604" 
d="M775 147l-531 387v237l531 387v-218l-393 -288l393 -289v-216zM1363 147l-533 387v237l533 387v-218l-395 -288l395 -289v-216z" />
    <glyph glyph-name="logicalnot" unicode="&#xac;" horiz-adv-x="1312" 
d="M938 0v547h-770v213h977v-760h-207z" />
    <glyph glyph-name="registered" unicode="&#xae;" horiz-adv-x="1465" 
d="M985 1009q0 -121 -97 -166l127 -251h-166l-117 233h-64v-233h-150v676h266q86 0 143.5 -50.5t57.5 -156.5v-52zM769 935q63 0 63 74v52q0 54 -19.5 72.5t-43.5 18.5h-101v-217h101zM733.5 357q199.5 0 285 97t85.5 321v294q0 235 -85.5 336t-284.5 101t-286 -101.5
t-87 -335.5v-294q0 -223 86.5 -320.5t286 -97.5zM734 261q-242 0 -358.5 122.5t-116.5 377.5v323q0 263 116.5 390t358.5 127t358 -127.5t116 -389.5v-323q0 -255 -116 -377.5t-358 -122.5z" />
    <glyph glyph-name="macron" unicode="&#x2c9;" horiz-adv-x="1033" 
d="M210 1391v197h615v-197h-615z" />
    <glyph glyph-name="macron" unicode="&#xaf;" horiz-adv-x="1033" 
d="M210 1391v197h615v-197h-615z" />
    <glyph glyph-name="degree" unicode="&#xb0;" horiz-adv-x="893" 
d="M560 1156q0 162 -112 162t-113 -162v-186q0 -86 27 -122t84 -36t85.5 36t28.5 122v186zM446.5 629q-139.5 0 -226 81t-86.5 249v206q0 169 86 252.5t228 83.5t227.5 -83t85.5 -253v-206q0 -168 -87.5 -249t-227 -81z" />
    <glyph glyph-name="plusminus" unicode="&#xb1;" horiz-adv-x="1312" 
d="M168 2v212h383v518h-383v212h383v545h212v-545h382v-212h-382v-518h382v-212h-977z" />
    <glyph glyph-name="two.sups" unicode="&#xb2;" horiz-adv-x="893" 
d="M132 566v203q0 223 164 268l171 47q48 13 69 40t21 84v28q0 61 -24.5 90t-86.5 29t-83.5 -32.5t-27.5 -123.5l-194 13q6 143 77 216t228 73t231.5 -70t74.5 -193v-56q0 -198 -160 -240l-171 -46q-52 -13 -72.5 -37.5t-20.5 -87.5v-50h432v-155h-628z" />
    <glyph glyph-name="three.sups" unicode="&#xb3;" horiz-adv-x="893" 
d="M760 819q0 -264 -308 -264q-166 0 -244 68t-83 207l195 12q6 -74 31 -105t96 -31t95 28.5t24 90.5v30q0 63 -23.5 91t-86.5 28h-158v152h158q52 0 72.5 19t20.5 74v30q0 58 -27 79.5t-82 21.5t-77 -25t-28 -87l-194 11q7 130 80 191t216.5 61t224.5 -52.5t81 -178.5v-26
q0 -74 -33.5 -118t-91.5 -55v-34q65 -7 103.5 -58.5t38.5 -136.5v-23z" />
    <glyph glyph-name="acute" unicode="&#xb4;" horiz-adv-x="1033" 
d="M335 1303l157 373h322l-306 -373h-173z" />
    <glyph glyph-name="mu1" unicode="&#xb5;" horiz-adv-x="1318" 
d="M184 1117h254v-756q0 -93 39 -133t96 -40q113 0 170 106v823h253v-812q0 -80 40 -106t128 -7v-194q-134 -26 -208 12t-107 148h-37q-71 -175 -224 -177q-93 0 -150 88v-32l13 -409h-280l13 409v1080z" />
    <glyph glyph-name="paragraph" unicode="&#xb6;" horiz-adv-x="1604" 
d="M1013 633h-140v-1005h-253v1005q-151 0 -235.5 97t-84.5 270v97q0 188 83.5 290t234.5 102h646v-1861h-251v1005z" />
    <glyph glyph-name="periodcentered" unicode="&#x2219;" horiz-adv-x="1033" 
d="M516 518q-88 0 -143 45.5t-55 136.5v84q0 93 55 139.5t145 46.5t143.5 -46.5t53.5 -139.5v-84q0 -91 -55.5 -136.5t-143.5 -45.5z" />
    <glyph glyph-name="periodcentered" unicode="&#xb7;" horiz-adv-x="1033" 
d="M516 518q-88 0 -143 45.5t-55 136.5v84q0 93 55 139.5t145 46.5t143.5 -46.5t53.5 -139.5v-84q0 -91 -55.5 -136.5t-143.5 -45.5z" />
    <glyph glyph-name="cedilla" unicode="&#xb8;" horiz-adv-x="1033" 
d="M756 -174q0 -112 -79 -174q-79 -60 -207 -60t-207 52q-77 52 -82 161l212 18q2 -35 18 -49t53 -14q36 0 56 22t20 84t-13 90t-52 44l28 78q128 -19 191 -79q62 -61 62 -173z" />
    <glyph glyph-name="one.sups" unicode="&#xb9;" horiz-adv-x="893" 
d="M203 566v155h190v567h-28q-13 -74 -62.5 -120.5t-108.5 -48.5l-10 154q67 7 127.5 62.5t83.5 153.5h191v-768h174v-155h-557z" />
    <glyph glyph-name="ordmasculine" unicode="&#xba;" 
d="M590 743q71 0 101 43t30 139v235q0 93 -30 137.5t-101 44.5t-100.5 -45.5t-29.5 -138.5v-233q0 -97 29.5 -139.5t100.5 -42.5zM590 579q-147 0 -245.5 83t-98.5 256v244q0 173 98.5 259.5t246.5 86.5t246 -86.5t98 -259.5v-244q0 -173 -99 -256t-246 -83z" />
    <glyph glyph-name="guillemotright" unicode="&#xbb;" horiz-adv-x="1604" 
d="M830 147v216l395 289l-395 288v218l533 -387v-237zM244 147v216l393 289l-393 288v218l531 -387v-237z" />
    <glyph glyph-name="onequarter" unicode="&#xbc;" horiz-adv-x="2237" 
d="M2137 231h-130v-231h-195v231h-354v145l314 547h235v-547h130v-145zM1812 376v318l-187 -318h187zM212 566v155h190v567h-28q-13 -74 -62 -121t-109 -48l-9 154q68 7 128 63t82 153h192v-768h173v-155h-557zM735 0l561 1489h206l-558 -1489h-209z" />
    <glyph glyph-name="onehalf" unicode="&#xbd;" horiz-adv-x="2237" 
d="M212 566v155h190v567h-28q-13 -74 -62 -121t-109 -48l-9 154q68 7 128 63t82 153h192v-768h173v-155h-557zM1465 0v203q0 223 164 268l171 47q48 13 69 40q20 27 21 84v28q0 60 -24 90t-86 30t-85 -33q-21 -33 -27 -124l-193 13q6 143 76 216q71 73 228 73t231 -70
t75 -193v-56q0 -106 -44 -164t-116 -76l-171 -46q-52 -14 -72 -38t-21 -87v-50h432v-155h-628zM735 0l561 1489h206l-558 -1489h-209z" />
    <glyph glyph-name="threequarters" unicode="&#xbe;" horiz-adv-x="2237" 
d="M2137 231h-130v-231h-195v231h-354v145l314 547h235v-547h130v-145zM1812 376v318l-187 -318h187zM735 0l561 1489h206l-558 -1489h-209zM769 819q0 -264 -307 -264q-166 0 -244 68t-84 207l196 12q6 -74 30 -106q25 -30 96 -30t95 28t24 91v30q0 63 -23 91t-87 28h-158
v152h158q52 0 73 19q20 19 21 74v30q0 58 -27 79q-27 22 -82 22q-56 0 -78 -25t-28 -87l-193 11q7 130 80 191t216 61q143 -1 224 -53t81 -178v-26q0 -74 -33 -119q-34 -44 -92 -54v-34q65 -7 103 -59t39 -136v-23z" />
    <glyph glyph-name="questiondown" unicode="&#xbf;" horiz-adv-x="1452" 
d="M512 462v-51q0 -121 49 -178.5t165 -57.5t161.5 60.5t56.5 231.5l253 -18q-11 -253 -123 -360.5t-340 -107.5t-350.5 113t-122.5 297v78q0 194 139.5 297.5t489.5 166.5l28 -177q-244 -52 -325 -117.5t-81 -176.5zM598 1352q0 156 192 156t191 -156v-52
q0 -161 -191.5 -161t-191.5 161v52z" />
    <glyph glyph-name="Agrave" unicode="&#xc0;" horiz-adv-x="1172" 
d="M843 0l-85 404h-363l-86 -404h-236l353 1489h324l350 -1489h-257zM715 601l-138 652l-139 -652h277zM566 1676l-307 372h322l156 -372h-171z" />
    <glyph glyph-name="Aacute" unicode="&#xc1;" horiz-adv-x="1172" 
d="M843 0l-85 404h-363l-86 -404h-236l353 1489h324l350 -1489h-257zM715 601l-138 652l-139 -652h277zM404 1676l156 372h323l-306 -372h-173z" />
    <glyph glyph-name="Acircumflex" unicode="&#xc2;" horiz-adv-x="1172" 
d="M843 0l-85 404h-363l-86 -404h-236l353 1489h324l350 -1489h-257zM715 601l-138 652l-139 -652h277zM315 1683l-88 119l263 283h190l266 -283l-88 -119l-273 201z" />
    <glyph glyph-name="Atilde" unicode="&#xc3;" horiz-adv-x="1172" 
d="M843 0l-85 404h-363l-86 -404h-236l353 1489h324l350 -1489h-257zM715 601l-138 652l-139 -652h277zM706 1873q59 0 59 151v33h164v-28q-1 -151 -57 -243t-157 -92t-159 98q-25 42 -43 74t-44 31q-63 0 -59 -149v-35h-164v28q0 151 57 244q58 93 162 93q58 0 96 -31
t103 -142q18 -32 42 -32z" />
    <glyph glyph-name="Adieresis" unicode="&#xc4;" horiz-adv-x="1172" 
d="M843 0l-85 404h-363l-86 -404h-236l353 1489h324l350 -1489h-257zM715 601l-138 652l-139 -652h277zM892 1800q0 -115 -127 -115q-58 0 -93 25t-35 90v17q0 121 128 121q58 0 92 -27t35 -94v-17zM281 1817q-1 121 127 121t128 -121v-17q0 -65 -36 -90t-92 -25t-91 25
t-36 90v17z" />
    <glyph glyph-name="Aring" unicode="&#xc5;" horiz-adv-x="1172" 
d="M843 0l-85 404h-363l-86 -404h-236l353 1489h324l350 -1489h-257zM715 601l-138 652l-139 -652h277zM482 1977v-59q0 -73 26 -103t78 -30q105 0 105 133v59q0 138 -105 140q-104 0 -104 -140zM586 1644q-128 0 -204 67t-77 207v59q-1 141 77 211t204 70t204 -70
q77 -70 78 -211v-59q0 -140 -78 -207t-204 -67z" />
    <glyph glyph-name="AE" unicode="&#xc6;" horiz-adv-x="1744" 
d="M814 404h-369l-106 -404h-233l430 1489h1013v-197h-482v-387h413v-199h-413v-509h482v-197h-735v404zM814 601v691h-133l-184 -691h317z" />
    <glyph glyph-name="Ccedilla" unicode="&#xc7;" horiz-adv-x="1318" 
d="M916 -175q0 -113 -79 -173t-207 -60t-206 52q-77 52 -83 161l212 18q2 -35 18 -49t53 -14q36 0 56 22t20 97t-32 103q-242 4 -363 128t-121 361v542q0 239 123 367t369 128t368 -128t131 -386l-252 -18q-11 186 -66 260t-183 74t-182 -69q-54 -70 -54 -243v-514
q0 -169 54 -237t182 -68q128 1 184 73q54 72 65 256l252 -18q-14 -409 -323 -489q64 -64 64 -176z" />
    <glyph glyph-name="Egrave" unicode="&#xc8;" 
d="M184 0v1489h818v-197h-564v-387h493v-199h-493v-509h564v-197h-818zM583 1676l-307 372h322l156 -372h-171z" />
    <glyph glyph-name="Eacute" unicode="&#xc9;" 
d="M184 0v1489h818v-197h-564v-387h493v-199h-493v-509h564v-197h-818zM421 1676l156 372h322l-305 -372h-173z" />
    <glyph glyph-name="Ecircumflex" unicode="&#xca;" 
d="M184 0v1489h818v-197h-564v-387h493v-199h-493v-509h564v-197h-818zM331 1683l-87 119l262 283h190l267 -283l-88 -119l-274 201z" />
    <glyph glyph-name="Edieresis" unicode="&#xcb;" 
d="M184 0v1489h818v-197h-564v-387h493v-199h-493v-509h564v-197h-818zM909 1800q0 -115 -127 -115q-58 0 -93 25t-36 90v17q0 121 129 121q58 0 92 -27t35 -94v-17zM298 1817q0 121 128 121t127 -121v-17q0 -115 -129 -115q-56 0 -91 25t-35 90v17z" />
    <glyph glyph-name="Igrave" unicode="&#xcc;" 
d="M184 0v197h280v1095h-280v197h812v-197h-279v-1095h279v-197h-812zM568 1676l-307 372h322l156 -372h-171z" />
    <glyph glyph-name="Iacute" unicode="&#xcd;" 
d="M184 0v197h280v1095h-280v197h812v-197h-279v-1095h279v-197h-812zM406 1676l156 372h322l-305 -372h-173z" />
    <glyph glyph-name="Icircumflex" unicode="&#xce;" 
d="M184 0v197h280v1095h-280v197h812v-197h-279v-1095h279v-197h-812zM317 1683l-88 119l263 283h189l267 -283l-88 -119l-274 201z" />
    <glyph glyph-name="Idieresis" unicode="&#xcf;" 
d="M184 0v197h280v1095h-280v197h812v-197h-279v-1095h279v-197h-812zM894 1800q0 -115 -127 -115q-58 0 -93 25t-35 90v17q0 121 128 121q58 0 92 -27t35 -94v-17zM283 1817q-1 121 127 121t128 -121v-17q0 -65 -36 -90t-92 -25t-92 25q-35 25 -35 90v17z" />
    <glyph glyph-name="Eth" unicode="&#xd0;" horiz-adv-x="1318" 
d="M438 197h191q134 0 194 73t60 238v468q0 169 -60 242.5t-194 73.5h-191v-380h223v-184h-223v-531zM184 0v728h-139v184h139v577h469q227 0 355 -136.5t128 -363.5v-496q0 -225 -128.5 -359t-355.5 -134h-468z" />
    <glyph glyph-name="Ntilde" unicode="&#xd1;" horiz-adv-x="1318" 
d="M402 0h-218v1489h341l393 -1118v1118h218v-1489h-337l-397 1171v-1171zM829 1873q59 0 59 151v33h164v-28q0 -151 -56 -243t-158 -92q-101 0 -159 98q-25 42 -43 74t-44 31q-64 0 -60 -149v-35h-163v28q0 151 57 244q58 93 162 93q58 0 97 -32t102 -141q18 -32 42 -32z
" />
    <glyph glyph-name="Ograve" unicode="&#xd2;" horiz-adv-x="1318" 
d="M661 179q123 1 172 71t50 243v507q1 171 -49 241t-173 70t-173 -70t-50 -241v-507q0 -173 50 -243t173 -71zM1136 480q0 -238 -123 -368t-353 -131q-230 1 -353 131t-123 368v533q0 239 123 367t354 128t353 -128t122 -367v-533zM639 1676l-308 372h322l157 -372h-171z
" />
    <glyph glyph-name="Oacute" unicode="&#xd3;" horiz-adv-x="1318" 
d="M661 179q123 1 172 71t50 243v507q1 171 -49 241t-173 70t-173 -70t-50 -241v-507q0 -173 50 -243t173 -71zM1136 480q0 -238 -123 -368t-353 -131q-230 1 -353 131t-123 368v533q0 239 123 367t354 128t353 -128t122 -367v-533zM477 1676l156 372h322l-305 -372h-173z
" />
    <glyph glyph-name="Ocircumflex" unicode="&#xd4;" horiz-adv-x="1318" 
d="M661 179q123 1 172 71t50 243v507q1 171 -49 241t-173 70t-173 -70t-50 -241v-507q0 -173 50 -243t173 -71zM1136 480q0 -238 -123 -368t-353 -131q-230 1 -353 131t-123 368v533q0 239 123 367t354 128t353 -128t122 -367v-533zM387 1683l-87 119l262 283h190l266 -283
l-87 -119l-274 201z" />
    <glyph glyph-name="Otilde" unicode="&#xd5;" horiz-adv-x="1318" 
d="M661 179q123 1 172 71t50 243v507q1 171 -49 241t-173 70t-173 -70t-50 -241v-507q0 -173 50 -243t173 -71zM1136 480q0 -238 -123 -368t-353 -131q-230 1 -353 131t-123 368v533q0 239 123 367t354 128t353 -128t122 -367v-533zM778 1873q60 0 60 151v33h164v-28
q0 -151 -56 -243t-158 -92q-101 0 -159 98q-25 42 -43 74t-44 31q-64 0 -60 -149v-35h-164v28q0 151 58 244t162 93q58 0 96 -31t102 -142q18 -32 42 -32z" />
    <glyph glyph-name="Odieresis" unicode="&#xd6;" horiz-adv-x="1318" 
d="M661 179q123 1 172 71t50 243v507q1 171 -49 241t-173 70t-173 -70t-50 -241v-507q0 -173 50 -243t173 -71zM1136 480q0 -238 -123 -368t-353 -131q-230 1 -353 131t-123 368v533q0 239 123 367t354 128t353 -128t122 -367v-533zM964 1800q0 -115 -126 -115q-58 0 -93 25
t-36 90v17q0 121 129 121q58 0 92 -27t34 -94v-17zM354 1817q0 121 126 121q58 0 93 -27t36 -94v-17q0 -115 -129 -115q-56 0 -91 25t-35 90v17z" />
    <glyph glyph-name="multiply" unicode="&#xd7;" horiz-adv-x="1312" 
d="M343 48l-134 127l331 478l-331 477l134 127l314 -456l317 452l132 -128l-333 -472l333 -471l-134 -128l-315 451z" />
    <glyph glyph-name="Oslash" unicode="&#xd8;" horiz-adv-x="1318" 
d="M1136 1013v-542q0 -227 -120 -358.5t-355 -131.5q-76 0 -132 13l-58 -180h-186l84 246q-185 124 -185 411v542q0 229 121 362t356 133q63 0 125 -11l57 179h187l-79 -244q185 -128 185 -419zM661 179q123 0 172.5 67t49.5 238v516q0 108 -30 160l-278 -970q35 -11 86 -11
zM661 1311q-125 0 -174 -69t-49 -242v-516q0 -124 27 -182l276 999q-28 10 -80 10z" />
    <glyph glyph-name="Ugrave" unicode="&#xd9;" horiz-adv-x="1318" 
d="M1136 478q0 -251 -118 -374t-358 -123q-241 0 -358 123t-118 374v1011h254v-1009q0 -162 50 -229t172 -67t172 67t51 229v1009h253v-1011zM639 1676l-308 372h322l157 -372h-171z" />
    <glyph glyph-name="Uacute" unicode="&#xda;" horiz-adv-x="1318" 
d="M1136 478q0 -251 -118 -374t-358 -123q-241 0 -358 123t-118 374v1011h254v-1009q0 -162 50 -229t172 -67t172 67t51 229v1009h253v-1011zM477 1676l156 372h322l-305 -372h-173z" />
    <glyph glyph-name="Ucircumflex" unicode="&#xdb;" horiz-adv-x="1318" 
d="M1136 478q0 -251 -118 -374t-358 -123q-241 0 -358 123t-118 374v1011h254v-1009q0 -162 50 -229t172 -67t172 67t51 229v1009h253v-1011zM387 1683l-87 119l262 283h190l266 -283l-87 -119l-274 201z" />
    <glyph glyph-name="Udieresis" unicode="&#xdc;" horiz-adv-x="1318" 
d="M1136 478q0 -251 -118 -374t-358 -123q-241 0 -358 123t-118 374v1011h254v-1009q0 -162 50 -229t172 -67t172 67t51 229v1009h253v-1011zM964 1800q0 -115 -126 -115q-58 0 -93 25t-36 90v17q0 121 129 121q58 0 92 -27t34 -94v-17zM354 1817q0 121 126 121q58 0 93 -27
t36 -94v-17q0 -115 -129 -115q-56 0 -91 25t-35 90v17z" />
    <glyph glyph-name="Yacute" unicode="&#xdd;" 
d="M717 0h-253v559l-404 930h266l270 -714l272 714h251l-402 -930v-559zM406 1676l156 372h322l-305 -372h-173z" />
    <glyph glyph-name="Thorn" unicode="&#xde;" 
d="M601 460q185 0 185 223v157q0 115 -46.5 165.5t-138.5 50.5h-163v-596h163zM184 0v1489h254v-236h199q192 0 296 -104.5t104 -303.5v-171q0 -201 -104 -305.5t-296 -104.5h-199v-264h-254z" />
    <glyph glyph-name="germandbls" unicode="&#xdf;" horiz-adv-x="1465" 
d="M676 1305q-104 0 -163 -70.5t-59 -206.5v-1028h-253v1052q0 210 128.5 331t340.5 121t342.5 -124.5t130.5 -323.5v-95q-171 2 -249.5 -30t-78.5 -111t42.5 -112.5t182.5 -73.5t203.5 -111t63.5 -212t-101.5 -231.5t-272.5 -90.5q-102 0 -203 38t-166 98l62 167
q69 -56 154.5 -89.5t165.5 -33.5q132 0 132 125q0 63 -36.5 95t-142.5 62q-173 47 -242 120t-69 213t83 226.5t230 99.5q-24 195 -225 195z" />
    <glyph glyph-name="agrave" unicode="&#xe0;" horiz-adv-x="1318" 
d="M821 156q-105 -175 -339 -175q-124 0 -205 85q-80 85 -80 236q0 152 86 234t233 82h240v173q0 74 -39 119t-115 45t-113 -40q-36 -40 -57 -154l-216 45q58 330 408 330q181 0 282 -78t101 -252v-501q0 -86 41 -109t127 -4v-194q-127 -24 -208 10t-105 148h-41zM555 465
q-121 -1 -120 -153t125 -152q131 0 196 108v197h-201zM592 1303l-307 373h322l156 -373h-171z" />
    <glyph glyph-name="aacute" unicode="&#xe1;" horiz-adv-x="1318" 
d="M821 156q-105 -175 -339 -175q-124 0 -205 85q-80 85 -80 236q0 152 86 234t233 82h240v173q0 74 -39 119t-115 45t-113 -40q-36 -40 -57 -154l-216 45q58 330 408 330q181 0 282 -78t101 -252v-501q0 -86 41 -109t127 -4v-194q-127 -24 -208 10t-105 148h-41zM555 465
q-121 -1 -120 -153t125 -152q131 0 196 108v197h-201zM430 1303l156 373h323l-306 -373h-173z" />
    <glyph glyph-name="acircumflex" unicode="&#xe2;" horiz-adv-x="1318" 
d="M821 156q-105 -175 -339 -175q-124 0 -205 85q-80 85 -80 236q0 152 86 234t233 82h240v173q0 74 -39 119t-115 45t-113 -40q-36 -40 -57 -154l-216 45q58 330 408 330q181 0 282 -78t101 -252v-501q0 -86 41 -109t127 -4v-194q-127 -24 -208 10t-105 148h-41zM555 465
q-121 -1 -120 -153t125 -152q131 0 196 108v197h-201zM341 1311l-88 119l263 283h190l266 -283l-88 -119l-273 201z" />
    <glyph glyph-name="atilde" unicode="&#xe3;" horiz-adv-x="1318" 
d="M821 156q-105 -175 -339 -175q-124 0 -205 85q-80 85 -80 236q0 152 86 234t233 82h240v173q0 74 -39 119t-115 45t-113 -40q-36 -40 -57 -154l-216 45q58 330 408 330q181 0 282 -78t101 -252v-501q0 -86 41 -109t127 -4v-194q-127 -24 -208 10t-105 148h-41zM555 465
q-121 -1 -120 -153t125 -152q131 0 196 108v197h-201zM791 1651v34h164v-28q-1 -151 -57 -243t-157 -92q-100 0 -159 98q-25 42 -43 73q-18 32 -44 32q-63 0 -59 -149v-35h-164v27q0 151 58 244t162 93q58 0 92 -28q34 -29 61 -71t45 -74t42 -31q59 0 59 150z" />
    <glyph glyph-name="adieresis" unicode="&#xe4;" horiz-adv-x="1318" 
d="M821 156q-105 -175 -339 -175q-124 0 -205 85q-80 85 -80 236q0 152 86 234t233 82h240v173q0 74 -39 119t-115 45t-113 -40q-36 -40 -57 -154l-216 45q58 330 408 330q181 0 282 -78t101 -252v-501q0 -86 41 -109t127 -4v-194q-127 -24 -208 10t-105 148h-41zM555 465
q-121 -1 -120 -153t125 -152q131 0 196 108v197h-201zM918 1428q0 -115 -127 -115q-58 0 -93 25t-35 90v17q0 121 128 121q58 0 92 -27t35 -94v-17zM307 1445q-1 121 127 121t128 -121v-17q0 -65 -36 -90t-92 -25t-91 25t-36 90v17z" />
    <glyph glyph-name="aring" unicode="&#xe5;" horiz-adv-x="1318" 
d="M821 156q-105 -175 -339 -175q-124 0 -205 85q-80 85 -80 236q0 152 86 234t233 82h240v173q0 74 -39 119t-115 45t-113 -40q-36 -40 -57 -154l-216 45q58 330 408 330q181 0 282 -78t101 -252v-501q0 -86 41 -109t127 -4v-194q-127 -24 -208 10t-105 148h-41zM555 465
q-121 -1 -120 -153t125 -152q131 0 196 108v197h-201zM508 1605v-60q0 -73 26 -103t79 -29q104 0 104 132v60q0 138 -104 140q-105 0 -105 -140zM613 1272q-127 0 -204 67t-78 206v60q-1 141 77 211t205 70t203 -70t78 -211v-60q0 -141 -77 -207t-204 -66z" />
    <glyph glyph-name="ae" unicode="&#xe6;" horiz-adv-x="1597" 
d="M523 160q99 0 162 89v216h-141q-118 0 -118 -152q0 -76 22.5 -114.5t74.5 -38.5zM936 773v-108h239v91q0 108 -26 156.5t-93 48.5t-93.5 -45.5t-26.5 -142.5zM752 140q-81 -159 -291 -159q-111 0 -194 80t-83 236t91.5 238.5t243.5 82.5h166v170q0 158 -117 158
q-58 0 -86 -31.5t-48 -126.5l-229 46q30 151 111 226.5t253 75.5t252 -123q88 123 249 123t253 -99t92 -285v-240h-479v-192q0 -160 130 -160q68 0 98.5 28t43.5 108l205 -22q-32 -156 -116.5 -224.5t-224.5 -68.5q-214 0 -284 159h-36z" />
    <glyph glyph-name="ccedilla" unicode="&#xe7;" 
d="M821 -175q0 -113 -79 -173q-80 -60 -208 -60t-205 52t-83 161l212 18q2 -35 18 -49t53 -14t57 22t19 97t-33 103q-188 6 -288 105t-100 284v370q0 199 108 297t304 98q391 0 415 -384l-244 -17q-6 114 -43 161q-38 46 -126 46t-124 -46t-36 -157v-363q0 -112 37 -156
t125 -45q88 0 125 42q36 42 42 146l244 -15q-14 -283 -253 -348q63 -63 63 -175z" />
    <glyph glyph-name="egrave" unicode="&#xe8;" 
d="M438 739v-74h305v63q1 125 -35 179t-118 54q-82 1 -117 -51t-35 -171zM184 376v365q0 183 109 289t298 106t297 -108t108 -298v-218h-558v-136q0 -119 38 -167q38 -49 122 -49t122 34t64 117l210 -60q-80 -270 -424 -270q-172 -1 -279 105t-107 290zM573 1303l-307 373
h322l157 -373h-172z" />
    <glyph glyph-name="eacute" unicode="&#xe9;" 
d="M438 739v-74h305v63q1 125 -35 179t-118 54q-82 1 -117 -51t-35 -171zM184 376v365q0 183 109 289t298 106t297 -108t108 -298v-218h-558v-136q0 -119 38 -167q38 -49 122 -49t122 34t64 117l210 -60q-80 -270 -424 -270q-172 -1 -279 105t-107 290zM411 1303l157 373
h322l-305 -373h-174z" />
    <glyph glyph-name="ecircumflex" unicode="&#xea;" 
d="M438 739v-74h305v63q1 125 -35 179t-118 54q-82 1 -117 -51t-35 -171zM184 376v365q0 183 109 289t298 106t297 -108t108 -298v-218h-558v-136q0 -119 38 -167q38 -49 122 -49t122 34t64 117l210 -60q-80 -270 -424 -270q-172 -1 -279 105t-107 290zM322 1311l-87 119
l262 283h190l266 -283l-87 -119l-274 201z" />
    <glyph glyph-name="edieresis" unicode="&#xeb;" 
d="M438 739v-74h305v63q1 125 -35 179t-118 54q-82 1 -117 -51t-35 -171zM184 376v365q0 183 109 289t298 106t297 -108t108 -298v-218h-558v-136q0 -119 38 -167q38 -49 122 -49t122 34t64 117l210 -60q-80 -270 -424 -270q-172 -1 -279 105t-107 290zM899 1428
q0 -115 -126 -115q-58 0 -93 25t-36 90v17q0 121 129 121q58 0 92 -27t34 -94v-17zM544 1428q0 -115 -129 -115q-56 0 -91 25t-35 90v17q0 121 126 121q58 0 93 -27t36 -94v-17z" />
    <glyph glyph-name="igrave" unicode="&#xec;" horiz-adv-x="754" 
d="M251 0v1117h254v-1117h-254zM357 1303l-307 373h322l157 -373h-172z" />
    <glyph glyph-name="iacute" unicode="&#xed;" horiz-adv-x="754" 
d="M251 0v1117h254v-1117h-254zM195 1303l157 373h322l-305 -373h-174z" />
    <glyph glyph-name="icircumflex" unicode="&#xee;" horiz-adv-x="754" 
d="M251 0v1117h254v-1117h-254zM106 1311l-87 119l262 283h190l266 -283l-87 -119l-274 201z" />
    <glyph glyph-name="idieresis" unicode="&#xef;" horiz-adv-x="754" 
d="M251 0v1117h254v-1117h-254zM683 1428q0 -115 -126 -115q-58 0 -93 25t-36 90v17q0 121 129 121q58 0 92 -27t34 -94v-17zM328 1428q0 -115 -129 -115q-56 0 -91 25t-35 90v17q0 121 126 121q58 0 93 -27t36 -94v-17z" />
    <glyph glyph-name="eth" unicode="&#xf0;" 
d="M592 175q80 0 115.5 54t35.5 168v135q0 106 -35.5 155.5t-115.5 49.5t-116.5 -49t-36.5 -156v-135q0 -114 36.5 -168t116.5 -54zM996 698v-281q0 -220 -109 -328t-297 -108t-297 107t-109 318v143q0 175 88.5 278.5t230.5 103.5q88 0 144.5 -41t76.5 -97h32
q-14 218 -119 354l-242 -145v158l139 84q-84 70 -242 126l149 159q189 -67 300 -162l212 128v-158l-113 -69q156 -199 156 -570z" />
    <glyph glyph-name="ntilde" unicode="&#xf1;" 
d="M631 933q-117 0 -193 -149v-784h-254v1117h254v-153h40q30 80 100 126t157 46q119 0 190 -94t71 -253v-789h-253v748q0 185 -112 185zM795 1651v34h164v-28q-1 -151 -57 -243t-157 -92q-100 0 -159 98q-25 42 -43 73q-18 32 -44 32q-64 0 -60 -149v-35h-163v27
q0 151 57 244q58 93 162 93q58 0 92 -28q33 -29 61 -71t46 -74t41 -31q60 0 60 150z" />
    <glyph glyph-name="ograve" unicode="&#xf2;" 
d="M438 395q0 -117 35 -169t116 -51q81 0 118 51q36 51 36 169v327q0 118 -36 170q-35 52 -117 52t-117 -53t-35 -170v-326zM590 -19q-190 0 -298 108t-108 300v333q0 194 109 304t298 110t297 -110t108 -304v-333q0 -192 -108 -300t-298 -108zM568 1303l-307 373h322
l156 -373h-171z" />
    <glyph glyph-name="oacute" unicode="&#xf3;" 
d="M438 395q0 -117 35 -169t116 -51q81 0 118 51q36 51 36 169v327q0 118 -36 170q-35 52 -117 52t-117 -53t-35 -170v-326zM590 -19q-190 0 -298 108t-108 300v333q0 194 109 304t298 110t297 -110t108 -304v-333q0 -192 -108 -300t-298 -108zM406 1303l156 373h322
l-305 -373h-173z" />
    <glyph glyph-name="ocircumflex" unicode="&#xf4;" 
d="M438 395q0 -117 35 -169t116 -51q81 0 118 51q36 51 36 169v327q0 118 -36 170q-35 52 -117 52t-117 -53t-35 -170v-326zM590 -19q-190 0 -298 108t-108 300v333q0 194 109 304t298 110t297 -110t108 -304v-333q0 -192 -108 -300t-298 -108zM317 1311l-88 119l263 283
h189l267 -283l-88 -119l-274 201z" />
    <glyph glyph-name="otilde" unicode="&#xf5;" 
d="M438 395q0 -117 35 -169t116 -51q81 0 118 51q36 51 36 169v327q0 118 -36 170q-35 52 -117 52t-117 -53t-35 -170v-326zM590 -19q-190 0 -298 108t-108 300v333q0 194 109 304t298 110t297 -110t108 -304v-333q0 -192 -108 -300t-298 -108zM767 1651v34h164v-28
q-1 -151 -57 -243t-157 -92q-100 0 -159 98q-25 42 -43 73q-18 32 -44 32q-64 0 -60 -149v-35h-163v27q0 151 57 244q58 93 162 93q58 0 92 -28q33 -29 61 -71t46 -74t41 -31q60 0 60 150z" />
    <glyph glyph-name="odieresis" unicode="&#xf6;" 
d="M438 395q0 -117 35 -169t116 -51q81 0 118 51q36 51 36 169v327q0 118 -36 170q-35 52 -117 52t-117 -53t-35 -170v-326zM590 -19q-190 0 -298 108t-108 300v333q0 194 109 304t298 110t297 -110t108 -304v-333q0 -192 -108 -300t-298 -108zM894 1428q0 -115 -127 -115
q-58 0 -93 25t-35 90v17q0 121 128 121q58 0 92 -27t35 -94v-17zM283 1445q-1 121 127 121t128 -121v-17q0 -65 -36 -90t-92 -25t-92 25q-35 25 -35 90v17z" />
    <glyph glyph-name="divide" unicode="&#xf7;" horiz-adv-x="1312" 
d="M657 41q-141 0 -141 127v33q0 65 39 97.5t101 32.5t100.5 -32.5t38.5 -97.5v-33q0 -65 -38.5 -96t-99.5 -31zM168 551v203h977v-203h-977zM656 972q-62 0 -101 30.5t-39 95.5v34q0 65 39 97.5t101 32.5t100.5 -32.5t38.5 -97.5v-34q0 -65 -38.5 -95.5t-100.5 -30.5z" />
    <glyph glyph-name="oslash" unicode="&#xf8;" 
d="M996 724v-339q0 -197 -110 -300.5t-296 -103.5q-69 0 -125 13l-74 -180h-162l97 244q-142 106 -142 327v339q0 201 110 306.5t298 105.5q65 0 125 -15l71 182h162l-95 -244q141 -106 141 -335zM765 395v327q0 86 -17 127l-232 -668q30 -12 74 -12q95 0 135 51.5t40 174.5
zM590 948q-95 0 -135 -52.5t-40 -174.5v-326q0 -78 17 -129l238 670q-34 12 -80 12z" />
    <glyph glyph-name="ugrave" unicode="&#xf9;" 
d="M549 186q118 0 194 149v782h253v-1117h-253v155h-41q-24 -80 -94 -127t-161 -47q-123 0 -193 94t-70 255v787h254v-748q0 -183 111 -183zM560 1303l-307 373h322l157 -373h-172z" />
    <glyph glyph-name="uacute" unicode="&#xfa;" 
d="M549 186q118 0 194 149v782h253v-1117h-253v155h-41q-24 -80 -94 -127t-161 -47q-123 0 -193 94t-70 255v787h254v-748q0 -183 111 -183zM413 1303l157 373h322l-306 -373h-173z" />
    <glyph glyph-name="ucircumflex" unicode="&#xfb;" 
d="M549 186q118 0 194 149v782h253v-1117h-253v155h-41q-24 -80 -94 -127t-161 -47q-123 0 -193 94t-70 255v787h254v-748q0 -183 111 -183zM317 1311l-88 119l263 283h189l267 -283l-88 -119l-274 201z" />
    <glyph glyph-name="udieresis" unicode="&#xfc;" 
d="M549 186q118 0 194 149v782h253v-1117h-253v155h-41q-24 -80 -94 -127t-161 -47q-123 0 -193 94t-70 255v787h254v-748q0 -183 111 -183zM894 1428q0 -115 -127 -115q-58 0 -93 25t-35 90v17q0 121 128 121q58 0 92 -27t35 -94v-17zM283 1445q-1 121 127 121t128 -121
v-17q0 -65 -36 -90t-92 -25t-92 25q-35 25 -35 90v17z" />
    <glyph glyph-name="yacute" unicode="&#xfd;" horiz-adv-x="1038" 
d="M326 -387q-84 0 -233 20l17 192q124 -21 173 -20q102 0 146 49t68 144l4 22h-170l-253 1097h250l203 -948l188 948h242l-248 -1175q-45 -179 -139 -254t-248 -75zM335 1303l157 373h322l-306 -373h-173z" />
    <glyph glyph-name="thorn" unicode="&#xfe;" 
d="M635 -17q-115 0 -197 51v-406h-254v1861h254v-525h40q24 80 91.5 126t160.5 46q134 0 200 -103.5t66 -278.5v-383q0 -184 -95 -286t-266 -102zM743 374v371q0 97 -28.5 142.5t-90.5 45.5t-104.5 -32t-81.5 -100v-563q76 -65 156 -65t114.5 46.5t34.5 154.5z" />
    <glyph glyph-name="ydieresis" unicode="&#xff;" horiz-adv-x="1038" 
d="M326 -387q-84 0 -233 20l17 192q124 -21 173 -20q102 0 146 49t68 144l4 22h-170l-253 1097h250l203 -948l188 948h242l-248 -1175q-45 -179 -139 -254t-248 -75zM823 1428q0 -115 -127 -115q-58 0 -93 25t-35 90v17q0 121 128 121q58 0 92 -27t35 -94v-17zM212 1445
q0 121 128 121t127 -121v-17q0 -65 -36 -90t-92 -25t-91 25t-36 90v17z" />
    <glyph glyph-name="Amacron" unicode="&#x100;" horiz-adv-x="1172" 
d="M843 0l-85 404h-363l-86 -404h-236l353 1489h324l350 -1489h-257zM715 601l-138 652l-139 -652h277zM279 1763v197h615v-197h-615z" />
    <glyph glyph-name="amacron" unicode="&#x101;" horiz-adv-x="1318" 
d="M821 156q-105 -175 -339 -175q-124 0 -205 85q-80 85 -80 236q0 152 86 234t233 82h240v173q0 74 -39 119t-115 45t-113 -40q-36 -40 -57 -154l-216 45q58 330 408 330q181 0 282 -78t101 -252v-501q0 -86 41 -109t127 -4v-194q-127 -24 -208 10t-105 148h-41zM555 465
q-121 -1 -120 -153t125 -152q131 0 196 108v197h-201zM305 1391v197h615v-197h-615z" />
    <glyph glyph-name="Abreve" unicode="&#x102;" horiz-adv-x="1172" 
d="M843 0l-85 404h-363l-86 -404h-236l353 1489h324l350 -1489h-257zM715 601l-138 652l-139 -652h277zM586 1830q86 0 121 52q34 52 36 186h208q-4 -405 -364 -405q-361 0 -365 405h208q2 -134 36 -186t120 -52z" />
    <glyph glyph-name="abreve" unicode="&#x103;" horiz-adv-x="1318" 
d="M821 156q-105 -175 -339 -175q-124 0 -205 85q-80 85 -80 236q0 152 86 234t233 82h240v173q0 74 -39 119t-115 45t-113 -40q-36 -40 -57 -154l-216 45q58 330 408 330q181 0 282 -78t101 -252v-501q0 -86 41 -109t127 -4v-194q-127 -24 -208 10t-105 148h-41zM555 465
q-121 -1 -120 -153t125 -152q131 0 196 108v197h-201zM612 1458q86 0 121 52q34 52 36 186h208q-4 -406 -364 -406q-361 0 -365 406h208q2 -134 36 -186t120 -52z" />
    <glyph glyph-name="Aogonek" unicode="&#x104;" horiz-adv-x="1172" 
d="M715 601l-138 652l-139 -652h277zM946 -406q-114 0 -180 61t-66 159q0 147 132 241l-74 349h-363l-86 -404h-236l353 1489h324l350 -1489h-185q-34 -49 -32 -119q0 -101 104 -103q23 0 132 19v-182q-110 -21 -173 -21z" />
    <glyph glyph-name="aogonek" unicode="&#x105;" horiz-adv-x="1318" 
d="M821 156q-105 -175 -339 -175q-124 0 -205 85q-80 85 -80 236q0 152 86 234t233 82h240v173q0 74 -39 119t-115 45t-113 -40q-36 -40 -57 -154l-216 45q58 330 408 330q181 0 282 -78t101 -252v-501q0 -86 41 -109t127 -4v-194q-121 -23 -200 7q-37 -51 -37 -124
q0 -101 105 -103q23 0 132 19v-182q-110 -21 -173 -21q-114 0 -180 61t-66 159q0 154 144 250q-26 37 -38 92h-41zM555 465q-121 -1 -120 -153t125 -152q131 0 196 108v197h-201z" />
    <glyph glyph-name="Cacute" unicode="&#x106;" horiz-adv-x="1318" 
d="M184 471v542q0 239 123 367t369 128t368 -128t131 -386l-252 -18q-11 186 -66 260t-183 74t-182 -69q-54 -70 -54 -243v-514q0 -169 54 -237t182 -68q128 1 184 73q54 72 65 256l252 -18q-18 -509 -490 -509q-255 0 -378 127t-123 363zM495 1676l157 372h322l-306 -372
h-173z" />
    <glyph glyph-name="cacute" unicode="&#x107;" 
d="M184 741q0 199 108 297t304 98q391 0 415 -384l-244 -17q-6 114 -43 161q-38 46 -126 46t-124 -46t-36 -157v-363q0 -112 37 -156t125 -45q88 0 125 42q36 42 42 146l244 -15q-18 -367 -413 -367q-207 1 -310 103t-104 287v370zM400 1303l157 373h322l-306 -373h-173z
" />
    <glyph glyph-name="Ccircumflex" unicode="&#x108;" horiz-adv-x="1318" 
d="M184 471v542q0 239 123 367t369 128t368 -128t131 -386l-252 -18q-11 186 -66 260t-183 74t-182 -69q-54 -70 -54 -243v-514q0 -169 54 -237t182 -68q128 1 184 73q54 72 65 256l252 -18q-18 -509 -490 -509q-255 0 -378 127t-123 363zM406 1683l-88 119l263 283h190
l266 -283l-87 -119l-274 201z" />
    <glyph glyph-name="ccircumflex" unicode="&#x109;" 
d="M184 741q0 199 108 297t304 98q391 0 415 -384l-244 -17q-6 114 -43 161q-38 46 -126 46t-124 -46t-36 -157v-363q0 -112 37 -156t125 -45q88 0 125 42q36 42 42 146l244 -15q-18 -367 -413 -367q-207 1 -310 103t-104 287v370zM313 1311l-88 119l263 283h190l266 -283
l-88 -119l-273 201z" />
    <glyph glyph-name="Cdotaccent" unicode="&#x10a;" horiz-adv-x="1318" 
d="M184 471v542q0 239 123 367t369 128t368 -128t131 -386l-252 -18q-11 186 -66 260t-183 74t-182 -69q-54 -70 -54 -243v-514q0 -169 54 -237t182 -68q128 1 184 73q54 72 65 256l252 -18q-18 -509 -490 -509q-255 0 -378 127t-123 363zM510 1817q0 121 168 121t167 -121
v-17q-1 -65 -47 -90t-120 -25t-121 25t-47 90v17z" />
    <glyph glyph-name="cdotaccent" unicode="&#x10b;" 
d="M184 741q0 199 108 297t304 98q391 0 415 -384l-244 -17q-6 114 -43 161q-38 46 -126 46t-124 -46t-36 -157v-363q0 -112 37 -156t125 -45q88 0 125 42q36 42 42 146l244 -15q-18 -367 -413 -367q-207 1 -310 103t-104 287v370zM417 1445q0 121 168 121t167 -121v-17
q0 -65 -46 -90t-121 -25q-74 0 -121 25t-47 90v17z" />
    <glyph glyph-name="Ccaron" unicode="&#x10c;" horiz-adv-x="1318" 
d="M184 471v542q0 239 123 367t369 128t368 -128t131 -386l-252 -18q-11 186 -66 260t-183 74t-182 -69q-54 -70 -54 -243v-514q0 -169 54 -237t182 -68q128 1 184 73q54 72 65 256l252 -18q-18 -509 -490 -509q-255 0 -378 127t-123 363zM585 1683l-267 283l88 119
l274 -201l270 201l87 -119l-262 -283h-190z" />
    <glyph glyph-name="ccaron" unicode="&#x10d;" 
d="M184 741q0 199 108 297t304 98q391 0 415 -384l-244 -17q-6 114 -43 161q-38 46 -126 46t-124 -46t-36 -157v-363q0 -112 37 -156t125 -45q88 0 125 42q36 42 42 146l244 -15q-18 -367 -413 -367q-207 1 -310 103t-104 287v370zM492 1311l-267 283l88 119l273 -201
l270 201l88 -119l-263 -283h-189z" />
    <glyph glyph-name="Dcaron" unicode="&#x10e;" horiz-adv-x="1318" 
d="M438 197h191q134 0 194 73t60 238v468q0 169 -60 243t-194 73h-191v-1095zM184 0v1489h469q227 -1 355 -137t128 -363v-496q0 -225 -128 -359t-356 -134h-468zM566 1683l-266 283l87 119l274 -201l270 201l87 -119l-262 -283h-190z" />
    <glyph glyph-name="dcaron" unicode="&#x10f;" 
d="M743 1489h253v-1489h-253v164h-41q-51 -182 -268 -182q-110 0 -180 100q-70 101 -70 283v382q0 184 96 285t266 102q103 0 197 -50v405zM438 374q0 -188 121 -188q108 0 184 140v555q-78 65 -156 65q-77 0 -113 -50t-36 -151v-371zM1125 1313l80 549h318l-251 -549h-147z
" />
    <glyph glyph-name="Dcroat" unicode="&#x110;" horiz-adv-x="1318" 
d="M438 197h191q134 0 194 73t60 238v468q0 169 -60 242.5t-194 73.5h-191v-380h223v-184h-223v-531zM184 0v728h-139v184h139v577h469q227 0 355 -136.5t128 -363.5v-496q0 -225 -128.5 -359t-355.5 -134h-468z" />
    <glyph glyph-name="dcroat" unicode="&#x111;" 
d="M546 1031q103 0 197 -50v177h-244v160h244v171h253v-171h140v-160h-140v-1158h-253v173h-41q-26 -89 -94 -140.5t-161 -51.5q-123 0 -193 104.5t-70 286.5v254q0 188 97 296.5t265 108.5zM438 408q0 -222 121 -222q101 0 184 149v443q-82 64 -155 64q-150 0 -150 -220
v-214z" />
    <glyph glyph-name="Emacron" unicode="&#x112;" 
d="M184 0v1489h818v-197h-564v-387h493v-199h-493v-509h564v-197h-818zM296 1763v197h614v-197h-614z" />
    <glyph glyph-name="emacron" unicode="&#x113;" 
d="M438 739v-74h305v63q1 125 -35 179t-118 54q-82 1 -117 -51t-35 -171zM184 376v365q0 183 109 289t298 106t297 -108t108 -298v-218h-558v-136q0 -119 38 -167q38 -49 122 -49t122 34t64 117l210 -60q-80 -270 -424 -270q-172 -1 -279 105t-107 290zM287 1391v197h614
v-197h-614z" />
    <glyph glyph-name="Ebreve" unicode="&#x114;" 
d="M184 0v1489h818v-197h-564v-387h493v-199h-493v-509h564v-197h-818zM603 1830q86 0 120 52t37 186h208q-4 -405 -365 -405q-182 0 -273 100q-90 101 -92 305h209q2 -134 36 -186t120 -52z" />
    <glyph glyph-name="ebreve" unicode="&#x115;" 
d="M438 739v-74h305v63q1 125 -35 179t-118 54q-82 1 -117 -51t-35 -171zM184 376v365q0 183 109 289t298 106t297 -108t108 -298v-218h-558v-136q0 -119 38 -167q38 -49 122 -49t122 34t64 117l210 -60q-80 -270 -424 -270q-172 -1 -279 105t-107 290zM594 1458
q86 0 120 52t36 186h209q-4 -406 -365 -406t-365 406h209q2 -134 36 -186t120 -52z" />
    <glyph glyph-name="Edotaccent" unicode="&#x116;" 
d="M184 0v1489h818v-197h-564v-387h493v-199h-493v-509h564v-197h-818zM438 1817q0 121 168 121t167 -121v-17q0 -65 -47 -90t-121 -25t-121 25t-46 90v17z" />
    <glyph glyph-name="edotaccent" unicode="&#x117;" 
d="M438 739v-74h305v63q1 125 -35 179t-118 54q-82 1 -117 -51t-35 -171zM184 376v365q0 183 109 289t298 106t297 -108t108 -298v-218h-558v-136q0 -119 38 -167q38 -49 122 -49t122 34t64 117l210 -60q-80 -270 -424 -270q-172 -1 -279 105t-107 290zM426 1445
q0 121 168 121t167 -121v-17q-1 -65 -47 -90t-120 -25t-121 25t-47 90v17z" />
    <glyph glyph-name="Eogonek" unicode="&#x118;" 
d="M579 -186q0 98 63 176q4 5 9 10h-467v1489h818v-197h-564v-387h493v-199h-493v-509h564v-197h-208q-33 -48 -33 -119q0 -101 105 -103q23 0 132 19v-182q-110 -21 -173 -21q-114 0 -180 61t-66 159z" />
    <glyph glyph-name="eogonek" unicode="&#x119;" 
d="M572 -188q0 96 57 171q-21 -1 -43 -2q-188 -1 -295 105t-107 290v365q0 183 109 289t298 106t297 -108t108 -298v-218h-558v-136q0 -119 38 -167q38 -49 122 -49t122 34t64 117l210 -60q-46 -158 -185 -224q-55 -55 -55 -146q0 -101 104 -103q26 0 132 19v-182
q-110 -21 -173 -21q-113 0 -179 61t-66 157zM438 739v-74h305v63q1 125 -35 179t-118 54q-82 1 -117 -51t-35 -171z" />
    <glyph glyph-name="Ecaron" unicode="&#x11a;" 
d="M184 0v1489h818v-197h-564v-387h493v-199h-493v-509h564v-197h-818zM510 1683l-266 283l87 119l274 -201l270 201l88 -119l-263 -283h-190z" />
    <glyph glyph-name="ecaron" unicode="&#x11b;" 
d="M438 739v-74h305v63q1 125 -35 179t-118 54q-82 1 -117 -51t-35 -171zM184 376v365q0 183 109 289t298 106t297 -108t108 -298v-218h-558v-136q0 -119 38 -167q38 -49 122 -49t122 34t64 117l210 -60q-80 -270 -424 -270q-172 -1 -279 105t-107 290zM501 1311l-266 283
l87 119l274 -201l270 201l87 -119l-262 -283h-190z" />
    <glyph glyph-name="Gcircumflex" unicode="&#x11c;" horiz-adv-x="1318" 
d="M662 -19q-230 1 -354 129t-124 361v542q0 239 121 367t349 128t340 -110t123 -357l-253 -19q-9 162 -56 225t-161 63q-113 0 -161 -67q-48 -68 -48 -243v-516q0 -171 53 -238t179 -67t172 79q47 79 46 280h-227v197h480v-229q0 -249 -124 -387q-125 -138 -355 -138z
M389 1683l-87 119l262 283h190l266 -283l-87 -119l-274 201z" />
    <glyph glyph-name="gcircumflex" unicode="&#x11d;" horiz-adv-x="1318" 
d="M423 -88q0 -139 108 -139h266q58 0 96 27t38 101q0 127 -130 127h-378v-116zM638 579q75 0 108 40t32 120v58q0 80 -33 118q-34 38 -107 38t-107 -38t-34 -118v-58q0 -80 33 -120t108 -40zM493 430q-93 0 -93 -105t101 -105h316q149 0 234 -72t85 -226t-88 -233
q-88 -80 -242 -80h-277q-171 0 -258 69t-87 201q0 91 44 145t109 64v37q-123 35 -123 190q0 86 56 150t141 75v35q-76 28 -116 89t-40 125v38q0 132 96 211t282 79h495v-177l-227 41v-35q52 -20 86 -76t33 -120v-35q0 -129 -95 -207t-288 -78h-144zM387 1311l-87 119
l262 283h190l266 -283l-87 -119l-274 201z" />
    <glyph glyph-name="Gbreve" unicode="&#x11e;" horiz-adv-x="1318" 
d="M662 -19q-230 1 -354 129t-124 361v542q0 239 121 367t349 128t340 -110t123 -357l-253 -19q-9 162 -56 225t-161 63q-113 0 -161 -67q-48 -68 -48 -243v-516q0 -171 53 -238t179 -67t172 79q47 79 46 280h-227v197h480v-229q0 -249 -124 -387q-125 -138 -355 -138z
M661 1830q86 0 120 52t36 186h209q-4 -405 -365 -405q-182 0 -273 100q-90 101 -92 305h209q2 -134 36 -186t120 -52z" />
    <glyph glyph-name="gbreve" unicode="&#x11f;" horiz-adv-x="1318" 
d="M423 -88q0 -139 108 -139h266q58 0 96 27t38 101q0 127 -130 127h-378v-116zM638 579q75 0 108 40t32 120v58q0 80 -33 118q-34 38 -107 38t-107 -38t-34 -118v-58q0 -80 33 -120t108 -40zM493 430q-93 0 -93 -105t101 -105h316q149 0 234 -72t85 -226t-88 -233
q-88 -80 -242 -80h-277q-171 0 -258 69t-87 201q0 91 44 145t109 64v37q-123 35 -123 190q0 86 56 150t141 75v35q-76 28 -116 89t-40 125v38q0 132 96 211t282 79h495v-177l-227 41v-35q52 -20 86 -76t33 -120v-35q0 -129 -95 -207t-288 -78h-144zM659 1458q86 0 120 52
t36 186h209q-4 -406 -365 -406t-365 406h209q2 -134 36 -186t120 -52z" />
    <glyph glyph-name="Gdotaccent" unicode="&#x120;" horiz-adv-x="1318" 
d="M662 -19q-230 1 -354 129t-124 361v542q0 239 121 367t349 128t340 -110t123 -357l-253 -19q-9 162 -56 225t-161 63q-113 0 -161 -67q-48 -68 -48 -243v-516q0 -171 53 -238t179 -67t172 79q47 79 46 280h-227v197h480v-229q0 -249 -124 -387q-125 -138 -355 -138z
M661 1938q168 0 168 -121v-17q0 -65 -47 -90t-121 -25t-121 25t-47 90v17q0 121 168 121z" />
    <glyph glyph-name="gdotaccent" unicode="&#x121;" horiz-adv-x="1318" 
d="M423 -88q0 -139 108 -139h266q58 0 96 27t38 101q0 127 -130 127h-378v-116zM638 579q75 0 108 40t32 120v58q0 80 -33 118q-34 38 -107 38t-107 -38t-34 -118v-58q0 -80 33 -120t108 -40zM493 430q-93 0 -93 -105t101 -105h316q149 0 234 -72t85 -226t-88 -233
q-88 -80 -242 -80h-277q-171 0 -258 69t-87 201q0 91 44 145t109 64v37q-123 35 -123 190q0 86 56 150t141 75v35q-76 28 -116 89t-40 125v38q0 132 96 211t282 79h495v-177l-227 41v-35q52 -20 86 -76t33 -120v-35q0 -129 -95 -207t-288 -78h-144zM492 1445q0 121 168 121
t167 -121v-17q0 -65 -47 -90t-121 -25t-121 25t-46 90v17z" />
    <glyph glyph-name="Gcommaaccent" unicode="&#x122;" horiz-adv-x="1318" 
d="M439 -559l101 373h322l-249 -373h-174zM662 -19q-230 1 -354 129t-124 361v542q0 239 121 367t349 128t340 -110t123 -357l-253 -19q-9 162 -56 225t-161 63q-113 0 -161 -67q-48 -68 -48 -243v-516q0 -171 53 -238t179 -67t172 79q47 79 46 280h-227v197h480v-229
q0 -249 -124 -387q-125 -138 -355 -138z" />
    <glyph glyph-name="gcommaaccent" unicode="&#x123;" horiz-adv-x="1318" 
d="M423 -88q0 -139 108 -139h266q58 0 96 27t38 101q0 127 -130 127h-378v-116zM638 579q75 0 108 40t32 120v58q0 80 -33 118q-34 38 -107 38t-107 -38t-34 -118v-58q0 -80 33 -120t108 -40zM493 430q-93 0 -93 -105t101 -105h316q149 0 234 -72t85 -226t-88 -233
q-88 -80 -242 -80h-277q-171 0 -258 69t-87 201q0 91 44 145t109 64v37q-123 35 -123 190q0 86 56 150t141 75v35q-76 28 -116 89t-40 125v38q0 132 96 211t282 79h495v-177l-227 41v-35q52 -20 86 -76t33 -120v-35q0 -129 -95 -207t-288 -78h-144zM460 1303l251 373h172
l-101 -373h-322z" />
    <glyph glyph-name="Hcircumflex" unicode="&#x124;" horiz-adv-x="1318" 
d="M184 0v1489h254v-575h445v575h253v-1489h-253v717h-445v-717h-254zM387 1683l-87 119l262 283h190l266 -283l-87 -119l-274 201z" />
    <glyph glyph-name="hcircumflex" unicode="&#x125;" 
d="M743 748q0 185 -115 185t-190 -149v-784h-254v1489h254v-525h40q32 80 102 126t155 46q121 0 191 -92t70 -255v-789h-253v748zM37 1683l-87 119l262 283h190l266 -283l-87 -119l-274 201z" />
    <glyph glyph-name="Hbar" unicode="&#x126;" horiz-adv-x="1318" 
d="M438 598v-598h-254v1039h-139v182h139v268h254v-268h445v268h253v-268h139v-182h-139v-1039h-253v598h-445zM438 797h445v242h-445v-242z" />
    <glyph glyph-name="hbar" unicode="&#x127;" 
d="M478 860q68 173 277 173q105 0 173 -85.5t68 -238.5v-709h-253v667q0 162 -114.5 162t-190.5 -149v-680h-254v1158h-139v160h139v171h254v-171h245v-160h-245v-298h40z" />
    <glyph glyph-name="Itilde" unicode="&#x128;" 
d="M184 0v197h280v1095h-280v197h812v-197h-279v-1095h279v-197h-812zM707 1873q60 0 60 151v33h164v-28q-1 -151 -57 -243t-157 -92t-159 98q-25 42 -43 74t-44 31q-64 0 -60 -149v-35h-163v28q0 151 57 244q58 93 162 93q58 0 97 -32t102 -141q18 -32 41 -32z" />
    <glyph glyph-name="itilde" unicode="&#x129;" horiz-adv-x="754" 
d="M251 0v1117h254v-1117h-254zM557 1651v34h164v-28q0 -151 -57 -243t-158 -92q-98 0 -158 98q-26 42 -44 73q-18 32 -43 32q-64 0 -60 -149v-35h-164v27q0 151 58 244t162 93q58 0 92 -28q34 -29 61 -71t45 -74t42 -31q60 0 60 150z" />
    <glyph glyph-name="Imacron" unicode="&#x12a;" 
d="M184 0v197h280v1095h-280v197h812v-197h-279v-1095h279v-197h-812zM281 1763v197h615v-197h-615z" />
    <glyph glyph-name="imacron" unicode="&#x12b;" horiz-adv-x="754" 
d="M251 0v1117h254v-1117h-254zM71 1391v197h614v-197h-614z" />
    <glyph glyph-name="Ibreve" unicode="&#x12c;" 
d="M184 0v197h280v1095h-280v197h812v-197h-279v-1095h279v-197h-812zM588 1830q86 0 120 52t37 186h208q-4 -405 -365 -405q-182 1 -272 101t-93 304h209q2 -134 36 -186t120 -52z" />
    <glyph glyph-name="ibreve" unicode="&#x12d;" horiz-adv-x="754" 
d="M251 0v1117h254v-1117h-254zM378 1458q86 0 120 52t36 186h209q-4 -406 -365 -406t-365 406h209q2 -134 36 -186t120 -52z" />
    <glyph glyph-name="Iogonek" unicode="&#x12e;" 
d="M454 -187q0 97 72 187h-342v197h280v1095h-280v197h812v-197h-279v-1095h279v-197h-326q-33 -48 -33 -119q0 -101 104 -103q26 0 132 19v-182q-110 -21 -173 -21q-114 0 -180 61t-66 158z" />
    <glyph glyph-name="iogonek" unicode="&#x12f;" horiz-adv-x="754" 
d="M378 1566q168 0 168 -121v-17q0 -65 -47 -90t-121 -25t-121 25t-47 90v17q0 121 168 121zM406 -406q-114 0 -180 61t-66 171t91 194v1097h254v-1117h-130q-34 -49 -32 -119q0 -101 104 -103q23 0 132 19v-182q-110 -21 -173 -21z" />
    <glyph glyph-name="Idotaccent" unicode="&#x130;" 
d="M184 0v197h280v1095h-280v197h812v-197h-279v-1095h279v-197h-812zM421 1817q-1 121 167 121t168 -121v-17q0 -65 -47 -90t-121 -25t-121 25t-46 90v17z" />
    <glyph glyph-name="dotlessi" unicode="&#x131;" horiz-adv-x="754" 
d="M251 0v1117h254v-1117h-254z" />
    <glyph glyph-name="IJ" unicode="&#x132;" horiz-adv-x="2303" 
d="M201 0v197h279v1095h-279v197h812v-197h-279v-1095h279v-197h-812zM2104 465q0 -248 -105 -366t-333 -118t-323 114q-96 114 -107 398l253 21q9 -201 47 -268t136 -67q100 0 140 64q39 64 39 226v823h-335v197h588v-1024z" />
    <glyph glyph-name="ij" unicode="&#x133;" horiz-adv-x="1597" 
d="M225 1445q0 121 168 121t167 -121v-17q0 -65 -46 -90t-121 -25q-74 0 -121 25t-47 90v17zM266 0v1117h253v-1117h-253zM1093 2v923h-246v192h497v-1136q0 -179 -98 -275t-252 -95q-93 0 -199 41l28 188q84 -39 141 -39q129 0 129 201zM1050 1445q0 121 168 121t167 -121
v-17q-1 -65 -47 -90t-120 -25t-121 25t-47 90v17z" />
    <glyph glyph-name="Jcircumflex" unicode="&#x134;" 
d="M996 465q0 -248 -105 -366t-333 -118t-322 114q-96 114 -108 398l254 21q9 -201 46 -268t137 -67t139 64t39 226v823h-335v197h588v-1024zM434 1683l-88 119l263 283h190l266 -283l-88 -119l-273 201z" />
    <glyph glyph-name="jcircumflex" unicode="&#x135;" horiz-adv-x="899" 
d="M266 -199q127 0 129 201v923h-246v192h497v-1136q0 -179 -98 -275t-252 -95q-95 0 -199 41l28 188q84 -39 141 -39zM203 1311l-88 119l263 283h190l266 -283l-87 -119l-274 201z" />
    <glyph glyph-name="Kcommaaccent" unicode="&#x136;" 
d="M438 685v-685h-254v1489h254v-605h54l337 605h279l-417 -685l411 -804h-292l-315 685h-57zM389 -559l101 373h322l-250 -373h-173z" />
    <glyph glyph-name="kcommaaccent" unicode="&#x137;" horiz-adv-x="1038" 
d="M438 493v-493h-254v1489h254v-815h55l213 443h264l-276 -514l270 -603h-270l-201 493h-55zM326 -559l100 373h322l-249 -373h-173z" />
    <glyph glyph-name="kgreenlandic" unicode="&#x138;" horiz-adv-x="1038" 
d="M438 512v-512h-254v1117h254v-424h54l217 424h263l-279 -495l271 -622h-268l-203 512h-55z" />
    <glyph glyph-name="Lacute" unicode="&#x139;" horiz-adv-x="1038" 
d="M184 0v1489h254v-1292h491v-197h-745zM140 1676l156 372h322l-305 -372h-173z" />
    <glyph glyph-name="lacute" unicode="&#x13a;" horiz-adv-x="899" 
d="M255 384v1105h251v-1105q0 -194 120 -194q58 0 122 33l40 -186q-102 -50 -202 -50q-158 0 -244 104t-87 293zM195 1676l157 372h322l-305 -372h-174z" />
    <glyph glyph-name="Lcommaaccent" unicode="&#x13b;" horiz-adv-x="1038" 
d="M184 0v1489h254v-1292h491v-197h-745zM354 -559l100 373h322l-249 -373h-173z" />
    <glyph glyph-name="lcommaaccent" unicode="&#x13c;" horiz-adv-x="899" 
d="M255 384v1105h251v-1105q0 -194 120 -194q58 0 122 33l40 -186q-102 -50 -202 -50q-158 0 -244 104t-87 293zM283 -559l101 373h322l-250 -373h-173z" />
    <glyph glyph-name="Lcaron" unicode="&#x13d;" horiz-adv-x="1038" 
d="M184 0v1489h254v-1292h491v-197h-745zM607 940l80 549h318l-251 -549h-147z" />
    <glyph glyph-name="lcaron" unicode="&#x13e;" horiz-adv-x="899" 
d="M255 384v1105h251v-1105q0 -194 120 -194q58 0 122 33l40 -186q-102 -50 -202 -50q-158 0 -244 104t-87 293zM639 1313l80 549h318l-251 -549h-147z" />
    <glyph glyph-name="Ldot" unicode="&#x13f;" horiz-adv-x="1465" 
d="M201 0v1489h253v-1292h492v-197h-745zM1186 864q0 -116 -168 -116t-167 116v17q-1 121 167 121t168 -121v-17z" />
    <glyph glyph-name="ldot" unicode="&#x140;" horiz-adv-x="1318" 
d="M255 384v1105h251v-1105q0 -194 120 -194q58 0 122 33l40 -186q-102 -50 -202 -50q-158 0 -244 104t-87 293zM836 721q0 121 168 121t167 -121v-17q0 -65 -46 -91q-47 -25 -121 -25t-121 25t-47 91v17z" />
    <glyph glyph-name="Lslash" unicode="&#x141;" horiz-adv-x="1038" 
d="M184 0v640l-104 -40v169l104 41v679h254v-579l325 129v-168l-325 -130v-544h491v-197h-745z" />
    <glyph glyph-name="lslash" unicode="&#x142;" horiz-adv-x="899" 
d="M255 384v221l-128 -43v170l128 43v714h251v-627l235 80v-169l-235 -80v-309q0 -194 120 -194q54 0 122 33l40 -186q-102 -50 -202 -50q-158 0 -244.5 104t-86.5 293z" />
    <glyph glyph-name="Nacute" unicode="&#x143;" horiz-adv-x="1318" 
d="M402 0h-218v1489h341l393 -1118v1118h218v-1489h-337l-397 1171v-1171zM527 1676l156 372h322l-305 -372h-173z" />
    <glyph glyph-name="nacute" unicode="&#x144;" 
d="M631 933q-117 0 -193 -149v-784h-254v1117h254v-153h40q30 80 100 126t157 46q119 0 190 -94t71 -253v-789h-253v748q0 185 -112 185zM434 1303l156 373h322l-305 -373h-173z" />
    <glyph glyph-name="Ncommaaccent" unicode="&#x145;" horiz-adv-x="1318" 
d="M387 -559l101 373h322l-250 -373h-173zM402 0h-218v1489h341l393 -1118v1118h218v-1489h-337l-397 1171v-1171z" />
    <glyph glyph-name="ncommaaccent" unicode="&#x146;" 
d="M367 -559l100 373h322l-249 -373h-173zM631 933q-117 0 -193 -149v-784h-254v1117h254v-153h40q30 80 100 126t157 46q119 0 190 -94t71 -253v-789h-253v748q0 185 -112 185z" />
    <glyph glyph-name="Ncaron" unicode="&#x147;" horiz-adv-x="1318" 
d="M402 0h-218v1489h341l393 -1118v1118h218v-1489h-337l-397 1171v-1171zM616 1683l-266 283l88 119l273 -201l270 201l88 -119l-263 -283h-190z" />
    <glyph glyph-name="ncaron" unicode="&#x148;" 
d="M631 933q-117 0 -193 -149v-784h-254v1117h254v-153h40q30 80 100 126t157 46q119 0 190 -94t71 -253v-789h-253v748q0 185 -112 185zM523 1311l-266 283l87 119l274 -201l270 201l88 -119l-263 -283h-190z" />
    <glyph glyph-name="napostrophe" unicode="&#x149;" horiz-adv-x="1033" 
d="M616 933q-117 0 -193 -149v-784h-254v1117h254v-153h41q30 80 99 126q70 46 158 46q119 0 189 -94t71 -253v-789h-253v748q0 185 -112 185zM-15 1303l156 373h323l-306 -373h-173z" />
    <glyph glyph-name="Eng" unicode="&#x14a;" horiz-adv-x="1318" 
d="M737 -194q146 0 146 224v1067q0 97 -45 152.5t-123 55.5q-162 0 -277 -210v-1095h-254v1489h254v-214h40q35 108 126.5 170.5t224.5 62.5t220 -100.5t87 -273.5v-1130q0 -201 -113 -297t-241 -96t-235 56l28 193q106 -54 162 -54z" />
    <glyph glyph-name="eng" unicode="&#x14b;" 
d="M743 769q0 164 -113.5 164t-191.5 -149v-784h-254v1117h254v-153h40q26 80 97 126t178 46t175 -86.5t68 -239.5v-838q0 -186 -102.5 -273.5t-236.5 -87.5q-87 0 -188 41l28 190q76 -39 130 -39q116 0 116 191v775z" />
    <glyph glyph-name="Omacron" unicode="&#x14c;" horiz-adv-x="1318" 
d="M661 179q123 1 172 71t50 243v507q1 171 -49 241t-173 70t-173 -70t-50 -241v-507q0 -173 50 -243t173 -71zM1136 480q0 -238 -123 -368t-353 -131q-230 1 -353 131t-123 368v533q0 239 123 367t354 128t353 -128t122 -367v-533zM352 1763v197h614v-197h-614z" />
    <glyph glyph-name="omacron" unicode="&#x14d;" 
d="M438 395q0 -117 35 -169t116 -51q81 0 118 51q36 51 36 169v327q0 118 -36 170q-35 52 -117 52t-117 -53t-35 -170v-326zM590 -19q-190 0 -298 108t-108 300v333q0 194 109 304t298 110t297 -110t108 -304v-333q0 -192 -108 -300t-298 -108zM281 1391v197h615v-197h-615z
" />
    <glyph glyph-name="Obreve" unicode="&#x14e;" horiz-adv-x="1318" 
d="M661 179q123 1 172 71t50 243v507q1 171 -49 241t-173 70t-173 -70t-50 -241v-507q0 -173 50 -243t173 -71zM1136 480q0 -238 -123 -368t-353 -131q-230 1 -353 131t-123 368v533q0 239 123 367t354 128t353 -128t122 -367v-533zM659 1830q86 0 120 52t36 186h209
q-4 -405 -365 -405q-182 0 -273 100q-90 101 -92 305h209q2 -134 36 -186t120 -52z" />
    <glyph glyph-name="obreve" unicode="&#x14f;" 
d="M438 395q0 -117 35 -169t116 -51q81 0 118 51q36 51 36 169v327q0 118 -36 170q-35 52 -117 52t-117 -53t-35 -170v-326zM590 -19q-190 0 -298 108t-108 300v333q0 194 109 304t298 110t297 -110t108 -304v-333q0 -192 -108 -300t-298 -108zM588 1458q86 0 120 52t37 186
h208q-4 -406 -365 -406q-182 0 -272 101t-93 305h209q2 -134 36 -186t120 -52z" />
    <glyph glyph-name="Ohungarumlaut" unicode="&#x150;" horiz-adv-x="1318" 
d="M661 179q123 1 172 71t50 243v507q1 171 -49 241t-173 70t-173 -70t-50 -241v-507q0 -173 50 -243t173 -71zM1136 480q0 -238 -123 -368t-353 -131q-230 1 -353 131t-123 368v533q0 239 123 367t354 128t353 -128t122 -367v-533zM398 1676l67 372h254l-187 -372h-134z
M721 1676l67 372h251l-186 -372h-132z" />
    <glyph glyph-name="ohungarumlaut" unicode="&#x151;" 
d="M438 395q0 -117 35 -169t116 -51q81 0 118 51q36 51 36 169v327q0 118 -36 170q-35 52 -117 52t-117 -53t-35 -170v-326zM590 -19q-190 0 -298 108t-108 300v333q0 194 109 304t298 110t297 -110t108 -304v-333q0 -192 -108 -300t-298 -108zM328 1303l67 373h253
l-186 -373h-134zM650 1303l67 373h251l-186 -373h-132z" />
    <glyph glyph-name="OE" unicode="&#x152;" horiz-adv-x="1744" 
d="M678 197h139v1095h-139q-117 0 -170.5 -73.5t-53.5 -241.5v-467q0 -168 53.5 -240.5t170.5 -72.5zM653 0q-212 0 -332 134t-120 361v495q0 229 120 364t332 135h896v-197h-480v-387h411v-199h-411v-509h480v-197h-896z" />
    <glyph glyph-name="oe" unicode="&#x153;" horiz-adv-x="1597" 
d="M555 175q63 0 91 46.5t28 154.5v365q0 102 -28 152.5t-91 50.5t-90 -50.5t-27 -154.5v-363q0 -108 27 -154.5t90 -46.5zM925 763v-98h237v82q0 114 -25 164t-93 50t-93.5 -48t-25.5 -150zM1055 1136q165 0 262.5 -96t97.5 -297v-231h-490v-160q0 -101 30.5 -146.5
t102.5 -45.5t104.5 30t47.5 106l205 -22q-32 -156 -115.5 -224.5t-246.5 -68.5t-254 129q-96 -129 -257 -129q-160 0 -259 100t-99 304v339q0 209 100 310.5t260 101.5t253 -129q93 129 258 129z" />
    <glyph glyph-name="Racute" unicode="&#x154;" horiz-adv-x="1318" 
d="M1113 972q0 -328 -251 -391l287 -581h-289l-275 562h-147v-562h-254v1489h537q193 0 293 -101t99 -295v-121zM438 758h258q82 0 123 48t41 166v115q0 113 -41 159t-123 46h-258v-534zM477 1676l156 372h322l-305 -372h-173z" />
    <glyph glyph-name="racute" unicode="&#x155;" horiz-adv-x="1038" 
d="M693 810q0 123 -90 123q-43 0 -89 -41t-76 -106v-786h-254v1117h254v-153h40q24 92 88 132t134 40q112 0 168 -76t55 -215v-203h-230v168zM376 1303l156 373h323l-306 -373h-173z" />
    <glyph glyph-name="Rcommaaccent" unicode="&#x156;" horiz-adv-x="1318" 
d="M1113 972q0 -328 -251 -391l287 -581h-289l-275 562h-147v-562h-254v1489h537q193 0 293 -101t99 -295v-121zM438 758h258q82 0 123 48t41 166v115q0 113 -41 159t-123 46h-258v-534zM404 -559l101 373h322l-250 -373h-173z" />
    <glyph glyph-name="rcommaaccent" unicode="&#x157;" horiz-adv-x="1038" 
d="M693 810q0 123 -90 123q-43 0 -89 -41t-76 -106v-786h-254v1117h254v-153h40q24 92 88 132t134 40q112 0 168 -76t55 -215v-203h-230v168zM82 -559l100 373h323l-250 -373h-173z" />
    <glyph glyph-name="Rcaron" unicode="&#x158;" horiz-adv-x="1318" 
d="M1113 972q0 -328 -251 -391l287 -581h-289l-275 562h-147v-562h-254v1489h537q193 0 293 -101t99 -295v-121zM438 758h258q82 0 123 48t41 166v115q0 113 -41 159t-123 46h-258v-534zM529 1683l-266 283l87 119l274 -201l270 201l87 -119l-262 -283h-190z" />
    <glyph glyph-name="rcaron" unicode="&#x159;" horiz-adv-x="1038" 
d="M693 810q0 123 -90 123q-43 0 -89 -41t-76 -106v-786h-254v1117h254v-153h40q24 92 88 132t134 40q112 0 168 -76t55 -215v-203h-230v168zM465 1311l-266 283l88 119l273 -201l270 201l88 -119l-263 -283h-190z" />
    <glyph glyph-name="Sacute" unicode="&#x15a;" horiz-adv-x="1318" 
d="M449 1115q-1 -90 57 -138q58 -49 254 -117t290 -164q95 -96 95 -279q1 -182 -127 -306t-361 -124q-117 0 -240 40t-225 109l52 199q208 -151 434 -151q104 0 159 57t55 150t-61 142t-220 109q-209 74 -311 170t-102 276t120 296q121 116 330 117q121 0 235 -40t193 -106
l-41 -191q-194 141 -382 141q-95 0 -149 -50t-55 -140zM473 1676l156 372h322l-305 -372h-173z" />
    <glyph glyph-name="sacute" unicode="&#x15b;" 
d="M901 843q-182 114 -323 114q-140 0 -140 -134q0 -69 54 -101t203 -74t228 -112q79 -71 79 -221t-108 -241t-300 -91q-123 0 -235 40t-190 102l62 167q194 -128 363 -128t167 125q0 76 -51 105q-50 29 -190 68t-231 110t-92 227q0 156 100 246t267 91q112 0 215 -38
t172 -93zM402 1303l157 373h322l-306 -373h-173z" />
    <glyph glyph-name="Scircumflex" unicode="&#x15c;" horiz-adv-x="1318" 
d="M449 1115q-1 -90 57 -138q58 -49 254 -117t290 -164q95 -96 95 -279q1 -182 -127 -306t-361 -124q-117 0 -240 40t-225 109l52 199q208 -151 434 -151q104 0 159 57t55 150t-61 142t-220 109q-209 74 -311 170t-102 276t120 296q121 116 330 117q121 0 235 -40t193 -106
l-41 -191q-194 141 -382 141q-95 0 -149 -50t-55 -140zM384 1683l-88 119l263 283h189l267 -283l-88 -119l-274 201z" />
    <glyph glyph-name="scircumflex" unicode="&#x15d;" 
d="M901 843q-182 114 -323 114q-140 0 -140 -134q0 -69 54 -101t203 -74t228 -112q79 -71 79 -221t-108 -241t-300 -91q-123 0 -235 40t-190 102l62 167q194 -128 363 -128t167 125q0 76 -51 105q-50 29 -190 68t-231 110t-92 227q0 156 100 246t267 91q112 0 215 -38
t172 -93zM313 1311l-88 119l263 283h190l266 -283l-88 -119l-273 201z" />
    <glyph glyph-name="Scedilla" unicode="&#x15e;" horiz-adv-x="1318" 
d="M892 391q0 93 -61 142t-220 109q-209 74 -311 170t-102 276t120 296q121 116 330 117q121 0 235 -40t193 -106l-41 -191q-194 141 -382 141q-95 0 -149 -50t-55 -140t57 -138q58 -49 254 -117t290 -164q95 -96 95 -279q0 -182 -128 -306q-77 -75 -193 -105q4 -3 7 -7
q63 -61 63 -173t-79 -174q-79 -60 -207 -60t-207 52q-77 52 -83 161l213 18q1 -35 17 -49t54 -14t56 22q20 22 20 84t-10 85t-30 36q-235 7 -446 149l52 199q208 -151 434 -151q104 0 159 57t55 150z" />
    <glyph glyph-name="scedilla" unicode="&#x15f;" 
d="M901 843q-182 114 -323 114q-140 0 -140 -134q0 -69 54 -101t203 -74t228 -112q79 -71 79 -221t-108 -241q-57 -48 -138 -71q67 -67 67 -179t-79 -172q-80 -60 -208 -60t-206 52q-77 52 -82 161l212 18q2 -35 18 -49t53 -14t57 22t19 84q0 62 -10 84t-25 34
q-111 3 -218 41t-185 100l62 167q194 -128 363 -128t167 125q0 76 -51 105q-50 29 -190 68t-231 110t-92 227q0 156 100 246t267 91q112 0 215 -38t172 -93z" />
    <glyph glyph-name="Scaron" unicode="&#x160;" horiz-adv-x="1318" 
d="M449 1115q-1 -90 57 -138q58 -49 254 -117t290 -164q95 -96 95 -279q1 -182 -127 -306t-361 -124q-117 0 -240 40t-225 109l52 199q208 -151 434 -151q104 0 159 57t55 150t-61 142t-220 109q-209 74 -311 170t-102 276t120 296q121 116 330 117q121 0 235 -40t193 -106
l-41 -191q-194 141 -382 141q-95 0 -149 -50t-55 -140zM562 1683l-266 283l88 119l273 -201l270 201l88 -119l-263 -283h-190z" />
    <glyph glyph-name="scaron" unicode="&#x161;" 
d="M901 843q-182 114 -323 114q-140 0 -140 -134q0 -69 54 -101t203 -74t228 -112q79 -71 79 -221t-108 -241t-300 -91q-123 0 -235 40t-190 102l62 167q194 -128 363 -128t167 125q0 76 -51 105q-50 29 -190 68t-231 110t-92 227q0 156 100 246t267 91q112 0 215 -38
t172 -93zM492 1311l-267 283l88 119l273 -201l270 201l88 -119l-263 -283h-189z" />
    <glyph glyph-name="Tcedilla" unicode="&#x162;" 
d="M823 -157q0 -131 -79 -191q-80 -60 -208 -60t-206 52q-77 52 -82 161l212 18q2 -35 18 -49t53 -14t57 22t19 84q0 62 -13 90t-52 44h-78v1292h-349v197h950v-197h-348v-1260q106 -59 106 -189z" />
    <glyph glyph-name="tcedilla" unicode="&#x163;" horiz-adv-x="1038" 
d="M577 348q-1 -89 35 -130t97 -41t136 37l28 -188q-61 -35 -104 -35q54 -59 54 -169t-79 -170q-80 -60 -208 -60t-206 52q-77 52 -82 161l212 18q2 -35 18 -49t53 -14t57 22t19 84q1 62 -11 88t-40 40q-232 55 -232 341v590h-168v192h168v372h253v-372h285v-192h-285v-577z
" />
    <glyph glyph-name="Tcaron" unicode="&#x164;" 
d="M464 0v1292h-349v197h950v-197h-348v-1292h-253zM495 1683l-266 283l88 119l273 -201l270 201l88 -119l-263 -283h-190z" />
    <glyph glyph-name="tcaron" unicode="&#x165;" horiz-adv-x="1038" 
d="M670 -19q-170 1 -258 91t-88 263v590h-168v192h168v372h253v-372h285v-192h-285v-577q-1 -89 35 -130t97 -41t136 37l28 -188q-79 -45 -203 -45zM706 1313l80 549h318l-251 -549h-147z" />
    <glyph glyph-name="Tbar" unicode="&#x166;" 
d="M464 0v568h-280v182h280v542h-349v197h950v-197h-348v-542h279v-182h-279v-568h-253z" />
    <glyph glyph-name="tbar" unicode="&#x167;" horiz-adv-x="1038" 
d="M670 -19q-169 0 -257.5 90.5t-88.5 263.5v171h-168v183h168v236h-168v192h168v372h253v-372h285v-192h-285v-236h285v-183h-285v-158q0 -89 35.5 -130t96.5 -41t136 37l28 -188q-79 -45 -203 -45z" />
    <glyph glyph-name="Utilde" unicode="&#x168;" horiz-adv-x="1318" 
d="M1136 478q0 -251 -118 -374t-358 -123q-241 0 -358 123t-118 374v1011h254v-1009q0 -162 50 -229t172 -67t172 67t51 229v1009h253v-1011zM778 1873q60 0 60 151v33h164v-28q0 -151 -56 -243t-158 -92q-101 0 -159 98q-25 42 -43 74t-44 31q-64 0 -60 -149v-35h-164v28
q0 151 58 244t162 93q58 0 96 -31t102 -142q18 -32 42 -32z" />
    <glyph glyph-name="utilde" unicode="&#x169;" 
d="M549 186q118 0 194 149v782h253v-1117h-253v155h-41q-24 -80 -94 -127t-161 -47q-123 0 -193 94t-70 255v787h254v-748q0 -183 111 -183zM767 1651v34h164v-28q-1 -151 -57 -243t-157 -92q-100 0 -159 98q-25 42 -43 73q-18 32 -44 32q-64 0 -60 -149v-35h-163v27
q0 151 57 244q58 93 162 93q58 0 92 -28q33 -29 61 -71t46 -74t41 -31q60 0 60 150z" />
    <glyph glyph-name="Umacron" unicode="&#x16a;" horiz-adv-x="1318" 
d="M1136 478q0 -251 -118 -374t-358 -123q-241 0 -358 123t-118 374v1011h254v-1009q0 -162 50 -229t172 -67t172 67t51 229v1009h253v-1011zM352 1763v197h614v-197h-614z" />
    <glyph glyph-name="umacron" unicode="&#x16b;" 
d="M549 186q118 0 194 149v782h253v-1117h-253v155h-41q-24 -80 -94 -127t-161 -47q-123 0 -193 94t-70 255v787h254v-748q0 -183 111 -183zM281 1391v197h615v-197h-615z" />
    <glyph glyph-name="Ubreve" unicode="&#x16c;" horiz-adv-x="1318" 
d="M1136 478q0 -251 -118 -374t-358 -123q-241 0 -358 123t-118 374v1011h254v-1009q0 -162 50 -229t172 -67t172 67t51 229v1009h253v-1011zM659 1830q86 0 120 52t36 186h209q-4 -405 -365 -405q-182 0 -273 100q-90 101 -92 305h209q2 -134 36 -186t120 -52z" />
    <glyph glyph-name="ubreve" unicode="&#x16d;" 
d="M549 186q118 0 194 149v782h253v-1117h-253v155h-41q-24 -80 -94 -127t-161 -47q-123 0 -193 94t-70 255v787h254v-748q0 -183 111 -183zM588 1458q86 0 120 52t37 186h208q-4 -406 -365 -406q-182 0 -272 101t-93 305h209q2 -134 36 -186t120 -52z" />
    <glyph glyph-name="Uring" unicode="&#x16e;" horiz-adv-x="1318" 
d="M1136 478q0 -251 -118 -374t-358 -123q-241 0 -358 123t-118 374v1011h254v-1009q0 -162 50 -229t172 -67t172 67t51 229v1009h253v-1011zM555 1977v-59q0 -73 26 -103t78 -30q104 0 104 133v59q0 138 -104 140q-104 0 -104 -140zM659 1644q-127 0 -204 67t-77 207v59
q0 141 77 211t204 70t204 -70t77 -211v-59q0 -140 -77 -207t-204 -67z" />
    <glyph glyph-name="uring" unicode="&#x16f;" 
d="M549 186q118 0 194 149v782h253v-1117h-253v155h-41q-24 -80 -94 -127t-161 -47q-123 0 -193 94t-70 255v787h254v-748q0 -183 111 -183zM484 1605v-60q0 -73 26 -103t78 -29q105 0 105 132v60q0 138 -105 140q-104 0 -104 -140zM588 1272q-127 0 -204 67t-77 206v60
q0 141 77 211t204 70t204 -70t77 -211v-60q0 -141 -77 -207t-204 -66z" />
    <glyph glyph-name="Uhungarumlaut" unicode="&#x170;" horiz-adv-x="1318" 
d="M1136 478q0 -251 -118 -374t-358 -123q-241 0 -358 123t-118 374v1011h254v-1009q0 -162 50 -229t172 -67t172 67t51 229v1009h253v-1011zM398 1676l67 372h254l-187 -372h-134zM721 1676l67 372h251l-186 -372h-132z" />
    <glyph glyph-name="uhungarumlaut" unicode="&#x171;" 
d="M549 186q118 0 194 149v782h253v-1117h-253v155h-41q-24 -80 -94 -127t-161 -47q-123 0 -193 94t-70 255v787h254v-748q0 -183 111 -183zM328 1303l67 373h253l-186 -373h-134zM650 1303l67 373h251l-186 -373h-132z" />
    <glyph glyph-name="Uogonek" unicode="&#x172;" horiz-adv-x="1318" 
d="M516 -187q0 97 60 173q-178 19 -274 118q-117 123 -118 374v1011h254v-1009q0 -162 50 -229t172 -67t172 67t51 229v1009h253v-1011q0 -251 -110 -366t-305 -129q-23 -46 -23 -102q0 -101 104 -103q24 0 133 19v-182q-110 -21 -174 -21q-113 0 -179 61t-66 158z" />
    <glyph glyph-name="uogonek" unicode="&#x173;" 
d="M644 -175q0 109 99 203v127h-41q-24 -80 -94 -127t-161 -47q-123 0 -193 94t-70 255v787h254v-748q0 -183 111 -183q118 0 194 149v782h253v-1117h-137q-34 -49 -32 -119q0 -101 104 -103q26 0 132 19v-182q-110 -21 -173 -21q-114 0 -180 61t-66 170z" />
    <glyph glyph-name="Wcircumflex" unicode="&#x174;" horiz-adv-x="1604" 
d="M972 0l-166 851l-171 -851h-274l-223 1489h240l156 -1150l151 843h248l164 -839l156 1146h214l-223 -1489h-272zM531 1683l-88 119l263 283h190l266 -283l-88 -119l-273 201z" />
    <glyph glyph-name="wcircumflex" unicode="&#x175;" horiz-adv-x="1457" 
d="M881 0l-147 706l-140 -706h-277l-205 1117h221l145 -877l140 691h227l151 -682l140 868h212l-207 -1117h-260zM456 1311l-87 119l262 283h190l266 -283l-87 -119l-274 201z" />
    <glyph glyph-name="Ycircumflex" unicode="&#x176;" 
d="M717 0h-253v559l-404 930h266l270 -714l272 714h251l-402 -930v-559zM317 1683l-88 119l263 283h189l267 -283l-88 -119l-274 201z" />
    <glyph glyph-name="ycircumflex" unicode="&#x177;" horiz-adv-x="1038" 
d="M326 -387q-84 0 -233 20l17 192q124 -21 173 -20q102 0 146 49t68 144l4 22h-170l-253 1097h250l203 -948l188 948h242l-248 -1175q-45 -179 -139 -254t-248 -75zM246 1311l-88 119l263 283h190l266 -283l-88 -119l-273 201z" />
    <glyph glyph-name="Ydieresis" unicode="&#x178;" 
d="M717 0h-253v559l-404 930h266l270 -714l272 714h251l-402 -930v-559zM894 1800q0 -115 -127 -115q-58 0 -93 25t-35 90v17q0 121 128 121q58 0 92 -27t35 -94v-17zM283 1817q-1 121 127 121t128 -121v-17q0 -65 -36 -90t-92 -25t-92 25q-35 25 -35 90v17z" />
    <glyph glyph-name="Zacute" unicode="&#x179;" horiz-adv-x="1318" 
d="M1125 0h-928v197l624 1095h-624v197h928v-197l-654 -1095h654v-197zM477 1676l156 372h322l-305 -372h-173z" />
    <glyph glyph-name="zacute" unicode="&#x17a;" 
d="M968 0h-756v194l492 731h-492v192h756v-192l-471 -731h471v-194zM406 1303l156 373h322l-305 -373h-173z" />
    <glyph glyph-name="Zdotaccent" unicode="&#x17b;" horiz-adv-x="1318" 
d="M1125 0h-928v197l624 1095h-624v197h928v-197l-654 -1095h654v-197zM492 1817q0 121 168 121t167 -121v-17q0 -65 -47 -90t-121 -25t-121 25t-46 90v17z" />
    <glyph glyph-name="zdotaccent" unicode="&#x17c;" 
d="M968 0h-756v194l492 731h-492v192h756v-192l-471 -731h471v-194zM421 1445q-1 121 167 121t168 -121v-17q0 -65 -47 -90t-121 -25t-121 25t-46 90v17z" />
    <glyph glyph-name="Zcaron" unicode="&#x17d;" horiz-adv-x="1318" 
d="M1125 0h-928v197l624 1095h-624v197h928v-197l-654 -1095h654v-197zM566 1683l-266 283l87 119l274 -201l270 201l87 -119l-262 -283h-190z" />
    <glyph glyph-name="zcaron" unicode="&#x17e;" 
d="M968 0h-756v194l492 731h-492v192h756v-192l-471 -731h471v-194zM495 1311l-266 283l88 119l273 -201l270 201l88 -119l-263 -283h-190z" />
    <glyph glyph-name="longs" unicode="&#x17f;" horiz-adv-x="899" 
d="M700 1335q-123 0 -123 -145v-1190h-253v925h-168v192h168v80q0 153 97 239.5t247 86.5q87 0 201 -47l-27 -176q-91 35 -142 35z" />
    <glyph glyph-name="florin" unicode="&#x192;" 
d="M746 1290q-29 -45 -29 -147v-197h285v-192h-285v-428q0 -153 -95 -248q-97 -89 -232 -89q-134 0 -224 45l28 180q82 -37 130 -37q83 0 112 44q28 44 28 148v385h-282v192h282v242q0 155 95 246q97 89 249 89q111 0 205 -45l-28 -178q-78 35 -144 35t-95 -45z" />
    <glyph glyph-name="Aringacute" unicode="&#x1fa;" horiz-adv-x="1172" 
d="M843 0l-85 404h-363l-86 -404h-236l353 1489h324l350 -1489h-257zM715 601l-138 652l-139 -652h277zM482 1977v-59q0 -73 26 -103t78 -30q105 0 105 133v59q0 138 -105 140q-104 0 -104 -140zM586 1644q-128 0 -204 67t-77 207v59q0 210 169 265l153 365h323l-291 -355
q78 -15 131 -63q77 -70 78 -212v-59q0 -140 -78 -207t-204 -67z" />
    <glyph glyph-name="aringacute" unicode="&#x1fb;" horiz-adv-x="1318" 
d="M821 156q-105 -175 -339 -175q-124 0 -205 85q-80 85 -80 236q0 152 86 234t233 82h240v173q0 74 -39 119t-115 45t-113 -40q-36 -40 -57 -154l-216 45q58 330 408 330q181 0 282 -78t101 -252v-501q0 -86 41 -109t127 -4v-194q-127 -24 -208 10t-105 148h-41zM555 465
q-121 -1 -120 -153t125 -152q131 0 196 108v197h-201zM508 1605v-60q0 -73 26 -103t79 -29q104 0 104 132v60q0 138 -104 140q-105 0 -105 -140zM613 1272q-127 0 -204 67t-78 206v60q0 222 193 271l150 358h322l-294 -358q67 -16 114 -60q77 -70 78 -211v-60
q0 -141 -77 -207t-204 -66z" />
    <glyph glyph-name="AEacute" unicode="&#x1fc;" horiz-adv-x="1744" 
d="M806 1676l157 372h322l-306 -372h-173zM814 404h-369l-106 -404h-233l430 1489h1013v-197h-482v-387h413v-199h-413v-509h482v-197h-735v404zM814 601v691h-133l-184 -691h317z" />
    <glyph glyph-name="aeacute" unicode="&#x1fd;" horiz-adv-x="1597" 
d="M523 160q99 0 162 89v216h-141q-118 0 -118 -152q0 -77 22 -115t75 -38zM936 773v-108h239v91q0 108 -26 156t-93 48q-68 0 -94 -44q-26 -46 -26 -143zM752 140q-82 -159 -292 -159q-110 0 -193 80t-83 236q0 157 92 239t243 82h166v170q0 158 -117 158q-58 0 -86 -32
t-48 -126l-229 46q30 151 111 226q81 76 253 76t252 -123q88 123 249 123t253 -99t92 -285v-240h-479v-192q0 -160 130 -160q68 0 99 28t43 108l205 -22q-32 -156 -116 -225q-85 -68 -225 -68q-217 0 -284 159h-36zM614 1303l157 373h322l-305 -373h-174z" />
    <glyph glyph-name="Oslashacute" unicode="&#x1fe;" horiz-adv-x="1318" 
d="M1136 1013v-542q0 -227 -120 -359t-355 -131q-78 0 -132 13l-58 -180h-186l84 246q-185 124 -185 411v542q0 229 121 362t356 133q63 0 125 -11l57 179h187l-79 -244q185 -128 185 -419zM661 179q123 0 172 67t50 238v516q0 108 -30 160l-278 -970q35 -11 86 -11z
M661 1311q-125 0 -174 -69t-49 -242v-516q0 -124 27 -182l276 999q-28 10 -80 10zM477 1676l156 372h322l-305 -372h-173z" />
    <glyph glyph-name="oslashacute" unicode="&#x1ff;" 
d="M996 724v-339q0 -197 -110 -301t-296 -103q-69 0 -125 13l-74 -180h-162l97 244q-140 104 -142 327v339q0 200 110 306t298 106q65 0 125 -15l71 182h162l-95 -244q141 -106 141 -335zM765 395v327q0 82 -17 127l-232 -668q30 -12 74 -12q95 -1 135 51t40 175zM590 948
q-95 0 -135 -52t-40 -175v-326q0 -71 17 -129l238 670q-34 12 -80 12zM406 1303l156 373h322l-305 -373h-173z" />
    <glyph glyph-name="Scommaaccent" unicode="&#x218;" horiz-adv-x="1318" 
d="M449 1115q-1 -90 57 -138q58 -49 254 -117t290 -164q95 -96 95 -279q1 -182 -127 -306t-361 -124q-117 0 -240 40t-225 109l52 199q208 -151 434 -151q104 0 159 57t55 150t-61 142t-220 109q-209 74 -311 170t-102 276t120 296q121 116 330 117q121 0 235 -40t193 -106
l-41 -191q-194 141 -382 141q-95 0 -149 -50t-55 -140zM387 -559l101 373h322l-250 -373h-173z" />
    <glyph glyph-name="scommaaccent" unicode="&#x219;" 
d="M901 843q-182 114 -323 114q-140 0 -140 -134q0 -69 54 -101t203 -74t228 -112q79 -71 79 -221t-108 -241t-300 -91q-123 0 -235 40t-190 102l62 167q194 -128 363 -128t167 125q0 76 -51 105q-50 29 -190 68t-231 110t-92 227q0 156 100 246t267 91q112 0 215 -38
t172 -93zM300 -559l100 373h322l-249 -373h-173z" />
    <glyph glyph-name="Tcommaaccent" unicode="&#x21a;" 
d="M464 0v1292h-349v197h950v-197h-348v-1292h-253zM328 -559l100 373h322l-249 -373h-173z" />
    <glyph glyph-name="tcommaaccent" unicode="&#x21b;" horiz-adv-x="1038" 
d="M670 -19q-170 1 -258 91t-88 263v590h-168v192h168v372h253v-372h285v-192h-285v-577q-1 -89 35 -130t97 -41t136 37l28 -188q-79 -45 -203 -45zM331 -559l101 373h322l-249 -373h-174z" />
    <glyph glyph-name="dotlessj" unicode="&#xf6be;" horiz-adv-x="899" 
d="M267 -199q57 0 92.5 46.5t35.5 154.5v923h-246v192h497v-1136q0 -179 -97.5 -274.5t-252.5 -95.5q-95 0 -199 41l28 188q85 -39 142 -39z" />
    <glyph glyph-name="dotlessj" unicode="&#x237;" horiz-adv-x="899" 
d="M267 -199q57 0 92.5 46.5t35.5 154.5v923h-246v192h497v-1136q0 -179 -97.5 -274.5t-252.5 -95.5q-95 0 -199 41l28 188q85 -39 142 -39z" />
    <glyph glyph-name="quoteleft" unicode="&#x2018;" horiz-adv-x="1033" 
d="M263 721l342 768h166l-136 -768h-372z" />
    <glyph glyph-name="quoteleft" unicode="&#x2bb;" horiz-adv-x="1033" 
d="M263 721l342 768h166l-136 -768h-372z" />
    <glyph glyph-name="circumflex" unicode="&#x2c6;" horiz-adv-x="1033" 
d="M246 1311l-88 119l263 283h190l266 -283l-88 -119l-273 201z" />
    <glyph glyph-name="caron" unicode="&#x2c7;" horiz-adv-x="1033" 
d="M424 1311l-266 283l88 119l273 -201l270 201l88 -119l-263 -283h-190z" />
    <glyph glyph-name="breve" unicode="&#x2d8;" horiz-adv-x="1033" 
d="M518 1458q86 0 120 52t36 186h209q-4 -406 -365 -406t-365 406h208q2 -134 36 -186q35 -52 121 -52z" />
    <glyph glyph-name="dotaccent" unicode="&#x2d9;" horiz-adv-x="1033" 
d="M350 1445q0 121 168 121t167 -121v-17q-1 -65 -47 -90t-120 -25t-121 25t-47 90v17z" />
    <glyph glyph-name="ring" unicode="&#x2da;" horiz-adv-x="1033" 
d="M413 1605v-60q1 -73 27 -103t78 -29q104 0 104 132v60q0 138 -104 140q-105 0 -105 -140zM518 1272q-127 0 -204 67t-78 206v60q0 141 78 211t204 70q128 0 204 -70t77 -211v-60q0 -141 -77 -207t-204 -66z" />
    <glyph glyph-name="ogonek" unicode="&#x2db;" horiz-adv-x="1033" 
d="M551 -406q-114 0 -180 61t-66 159q-1 98 63 176t155 112l37 -59q-72 -60 -72 -161q0 -102 104 -104q26 0 132 19v-182q-110 -21 -173 -21z" />
    <glyph glyph-name="tilde" unicode="&#x2dc;" horiz-adv-x="1033" 
d="M696 1651v34h164v-28q0 -151 -56 -243t-158 -92q-100 0 -159 98q-25 42 -43 73q-18 32 -44 32q-63 0 -59 -149v-35h-164v27q0 151 58 244t162 93q58 0 92 -28q34 -29 61 -71t45 -74t42 -31q59 0 59 150z" />
    <glyph glyph-name="hungarumlaut" unicode="&#x2dd;" horiz-adv-x="1033" 
d="M257 1303l67 373h253l-186 -373h-134zM579 1303l67 373h251l-186 -373h-132z" />
    <glyph glyph-name="gravecmb" unicode="&#x300;" horiz-adv-x="0" 
d="M-20 1303l-308 373h322l157 -373h-171z" />
    <glyph glyph-name="acutecmb" unicode="&#x301;" horiz-adv-x="0" 
d="M-182 1303l156 373h322l-305 -373h-173z" />
    <glyph glyph-name="circumflexcmb" unicode="&#x302;" horiz-adv-x="0" 
d="M-272 1311l-87 119l262 283h190l266 -283l-87 -119l-274 201z" />
    <glyph glyph-name="tildecmb" unicode="&#x303;" horiz-adv-x="0" 
d="M119 1501q60 0 60 150v34h164v-28q0 -151 -57 -243t-158 -92q-100 0 -159 98q-25 42 -42.5 73.5t-43.5 31.5q-64 0 -60 -149v-35h-164v27q0 151 58 244t162 93q58 0 92.5 -27.5t60.5 -70.5t44.5 -74.5t42.5 -31.5z" />
    <glyph glyph-name="macroncmb" unicode="&#x304;" horiz-adv-x="0" 
d="M-307 1391v197h614v-197h-614z" />
    <glyph glyph-name="brevecmb" unicode="&#x306;" horiz-adv-x="0" 
d="M0 1458q86 0 120.5 52t35.5 186h209q-4 -406 -365 -406t-365 406h209q2 -134 36 -186t120 -52z" />
    <glyph glyph-name="dotaccentcmb" unicode="&#x307;" horiz-adv-x="0" 
d="M0 1566q168 0 168 -121v-17q0 -65 -47 -90t-121 -25t-121 25t-47 90v17q0 121 168 121z" />
    <glyph glyph-name="dieresiscmb" unicode="&#x308;" horiz-adv-x="0" 
d="M305 1428q0 -115 -126 -115q-58 0 -93.5 25t-35.5 90v17q0 121 93 121t127.5 -27t34.5 -94v-17zM-50 1428q0 -115 -92.5 -115t-127.5 25t-35 90v17q-1 121 127 121t128 -121v-17z" />
    <glyph glyph-name="ringcmb" unicode="&#x30a;" horiz-adv-x="0" 
d="M0 1745q-104 0 -104 -140v-60q0 -73 26 -102.5t78 -29.5q104 0 104 132v60q0 140 -104 140zM0 1272q-127 0 -204 67t-77 206v60q0 141 77 211t204 70t204 -70t77 -211v-60q0 -140 -77 -206.5t-204 -66.5z" />
    <glyph glyph-name="hungarumlautcmb" unicode="&#x30b;" horiz-adv-x="0" 
d="M-261 1303l67 373h254l-187 -373h-134zM61 1303l67 373h252l-186 -373h-133z" />
    <glyph glyph-name="caroncmb" unicode="&#x30c;" horiz-adv-x="0" 
d="M-93 1311l-266 283l87 119l274 -201l270 201l87 -119l-262 -283h-190z" />
    <glyph glyph-name="commaturnedabovecmb" unicode="&#x312;" horiz-adv-x="0" 
d="M-210 1303l251 373h171l-100 -373h-322z" />
    <glyph glyph-name="commaaccentcmb" unicode="&#x326;" horiz-adv-x="0" 
d="M-222 -559l101 373h322l-249 -373h-174z" />
    <glyph glyph-name="cedillacmb" unicode="&#x327;" horiz-adv-x="0" 
d="M238 -174q0 -113 -79 -173.5t-207 -60.5t-205.5 52.5t-83.5 160.5l212 18q2 -35 18 -49t53 -14t56.5 22t19.5 84t-13 90.5t-52 43.5l28 78q128 -19 190.5 -79t62.5 -173z" />
    <glyph glyph-name="ogonekcmb" unicode="&#x328;" horiz-adv-x="0" 
d="M34 -406q-114 0 -180 61t-66 159t63 175.5t155 112.5l37 -59q-73 -61 -73 -163t104 -102q27 0 133 19v-182q-110 -21 -173 -21z" />
    <glyph glyph-name="tonos" unicode="&#x384;" horiz-adv-x="1033" 
d="M391 1303l73 373h309l-224 -373h-158z" />
    <glyph glyph-name="dieresistonos" unicode="&#x385;" horiz-adv-x="1033" 
d="M933 1415q0 -115 -114 -115q-52 0 -83 24t-30 91v17q0 67 30 93q31 26 83 26q114 0 114 -119v-17zM216 1551q114 0 114 -119v-17q0 -67 -32 -91t-82 -24t-82 24t-32 91v17q0 119 114 119zM400 1303l64 373h225l-147 -373h-142z" />
    <glyph glyph-name="Alphatonos" unicode="&#x386;" horiz-adv-x="1318" 
d="M972 0l-86 404h-363l-85 -404h-237l354 1489h324l350 -1489h-257zM843 601l-137 652l-140 -652h277zM58 1117l72 372h309l-223 -372h-158z" />
    <glyph glyph-name="anoteleia" unicode="&#x387;" horiz-adv-x="1033" 
d="M715 700q1 -90 -55 -136t-144 -46t-143 45q-55 46 -55 137v84q0 94 55 140t145 46t144 -47q53 -47 53 -139v-84z" />
    <glyph glyph-name="Epsilontonos" unicode="&#x388;" horiz-adv-x="1457" 
d="M464 0v1489h817v-197h-564v-387h493v-199h-493v-509h564v-197h-817zM6 1117l72 372h309l-223 -372h-158z" />
    <glyph glyph-name="Etatonos" unicode="&#x389;" horiz-adv-x="1597" 
d="M464 0v1489h253v-575h445v575h253v-1489h-253v717h-445v-717h-253zM-7 1117l72 372h309l-223 -372h-158z" />
    <glyph glyph-name="Iotatonos" unicode="&#x38a;" horiz-adv-x="1457" 
d="M464 0v197h279v1095h-279v197h811v-197h-279v-1095h279v-197h-811zM2 1117l72 372h310l-224 -372h-158z" />
    <glyph glyph-name="Omicrontonos" unicode="&#x38c;" horiz-adv-x="1457" 
d="M801 179q123 1 172 71t49 243v507q0 171 -49 241t-172 70t-173 -70t-51 -241v-507q0 -173 50 -244q51 -70 174 -70zM1275 480q-1 -238 -123 -368t-352 -131q-230 1 -353 131t-123 368v533q0 239 123 367t354 128t353 -128t121 -367v-533zM15 1117l73 372h309l-224 -372
h-158z" />
    <glyph glyph-name="Upsilontonos" unicode="&#x38e;" horiz-adv-x="1604" 
d="M1126 0h-253v559l-404 930h266l270 -714l272 714h252l-403 -930v-559zM69 1117l72 372h310l-224 -372h-158z" />
    <glyph glyph-name="Omegatonos" unicode="&#x38f;" horiz-adv-x="1597" 
d="M1471 747q0 -283 -224 -397v-168h201v-182h-454v428q128 34 176 112t48 207v238q0 173 -68 249t-224 76t-225 -76q-68 -76 -68 -249v-238q0 -127 47 -205t175 -114v-428h-453v182h201v168q-223 115 -223 397v238q0 523 546 523t545 -523v-238zM15 1117l73 372h309
l-224 -372h-158z" />
    <glyph glyph-name="iotadieresistonos" unicode="&#x390;" horiz-adv-x="899" 
d="M255 363v754h251v-737q0 -194 110 -194q38 -3 121 37l39 -184q-136 -56 -244 -56q-140 -1 -208 103t-69 277zM808 1415q0 -115 -114 -115q-52 0 -82 24t-31 91v17q-1 119 113 119t114 -119v-17zM-22 1432q0 119 114 119t113 -119v-17q0 -67 -32 -91t-82 -24t-82 24
t-31 91v17zM276 1303l63 373h225l-147 -373h-141z" />
    <glyph glyph-name="Alpha" unicode="&#x391;" horiz-adv-x="1172" 
d="M843 0l-85 404h-363l-86 -404h-236l353 1489h324l350 -1489h-257zM715 601l-138 652l-139 -652h277z" />
    <glyph glyph-name="Beta" unicode="&#x392;" horiz-adv-x="1318" 
d="M438 192h229q123 0 171 47t48 165v69q0 117 -48 164t-171 46h-229v-491zM438 866h227q106 0 149 42t42 144v61q0 101 -42 144q-43 43 -149 43h-227v-434zM1106 1061q0 -200 -201 -246v-54q112 -13 173 -92t61 -198v-87q0 -180 -116 -282t-319 -102h-520v1489h520
q188 0 295 -93t107 -257v-78z" />
    <glyph glyph-name="Gamma" unicode="&#x393;" horiz-adv-x="1038" 
d="M184 0v1489h769v-197h-515v-1292h-254z" />
    <glyph glyph-name="Delta" unicode="&#x394;" horiz-adv-x="1172" 
d="M858 197l-277 1090l-291 -1090h568zM73 0v197l344 1292h350l335 -1292v-197h-1029z" />
    <glyph glyph-name="Epsilon" unicode="&#x395;" 
d="M184 0v1489h818v-197h-564v-387h493v-199h-493v-509h564v-197h-818z" />
    <glyph glyph-name="Zeta" unicode="&#x396;" horiz-adv-x="1318" 
d="M1125 0h-928v197l624 1095h-624v197h928v-197l-654 -1095h654v-197z" />
    <glyph glyph-name="Eta" unicode="&#x397;" horiz-adv-x="1318" 
d="M184 0v1489h254v-575h445v575h253v-1489h-253v717h-445v-717h-254z" />
    <glyph glyph-name="Theta" unicode="&#x398;" horiz-adv-x="1318" 
d="M544 661v188h234v-188h-234zM660.5 179q128.5 0 182 72.5t53.5 251.5v478q0 182 -53.5 256t-182 74t-181.5 -73.5t-53 -256.5v-478q0 -179 53 -251.5t181.5 -72.5zM660 -19q-230 0 -353 133.5t-123 375.5v504q0 244 124 379t354 135t352 -135t122 -379v-504
q0 -242 -123 -375.5t-353 -133.5z" />
    <glyph glyph-name="Iota" unicode="&#x399;" 
d="M184 0v197h280v1095h-280v197h812v-197h-279v-1095h279v-197h-812z" />
    <glyph glyph-name="Kappa" unicode="&#x39a;" 
d="M438 685v-685h-254v1489h254v-605h54l337 605h279l-417 -685l411 -804h-292l-315 685h-57z" />
    <glyph glyph-name="Lambda" unicode="&#x39b;" horiz-adv-x="1172" 
d="M843 0l-266 1253l-268 -1253h-236l353 1489h324l350 -1489h-257z" />
    <glyph glyph-name="Mu" unicode="&#x39c;" horiz-adv-x="1457" 
d="M402 0h-218v1489h328l220 -867l223 867h320v-1489h-217v1179l-207 -807h-242l-207 792v-1164z" />
    <glyph glyph-name="Nu" unicode="&#x39d;" horiz-adv-x="1318" 
d="M402 0h-218v1489h341l393 -1118v1118h218v-1489h-337l-397 1171v-1171z" />
    <glyph glyph-name="Xi" unicode="&#x39e;" 
d="M156 0v197h868v-197h-868zM192 706v199h797v-199h-797zM156 1292v197h868v-197h-868z" />
    <glyph glyph-name="Omicron" unicode="&#x39f;" horiz-adv-x="1318" 
d="M661 179q123 1 172 71t50 243v507q1 171 -49 241t-173 70t-173 -70t-50 -241v-507q0 -173 50 -243t173 -71zM1136 480q0 -238 -123 -368t-353 -131q-230 1 -353 131t-123 368v533q0 239 123 367t354 128t353 -128t122 -367v-533z" />
    <glyph glyph-name="Pi" unicode="&#x3a0;" horiz-adv-x="1318" 
d="M184 0v1489h952v-1489h-253v1292h-445v-1292h-254z" />
    <glyph glyph-name="Rho" unicode="&#x3a1;" 
d="M438 696h163q95 0 140 50t45 168v158q0 120 -45 170t-140 50h-163v-596zM637 1489q400 0 400 -402v-188q0 -197 -101 -298t-299 -100h-199v-501h-254v1489h453z" />
    <glyph glyph-name="Sigma" unicode="&#x3a3;" 
d="M1024 0h-881v197l484 581l-484 514v197h881v-197h-573l394 -445v-154l-394 -496h573v-197z" />
    <glyph glyph-name="Tau" unicode="&#x3a4;" 
d="M464 0v1292h-349v197h950v-197h-348v-1292h-253z" />
    <glyph glyph-name="Upsilon" unicode="&#x3a5;" 
d="M717 0h-253v559l-404 930h266l270 -714l272 714h251l-402 -930v-559z" />
    <glyph glyph-name="Phi" unicode="&#x3a6;" horiz-adv-x="1457" 
d="M546 361h65v769h-65q-88 0 -125 -76t-37 -218v-190q0 -140 37 -212t125 -73zM916 1130h-67v-769h67q86 0 123 73t37 212v190q0 142 -37 218t-123 76zM916 168h-60v-202h-253v202h-57q-201 0 -302 128t-101 350v190q0 227 101 356t302 130h57v201h253v-201h60
q199 0 300 -130t100 -356v-190q0 -222 -100 -350t-300 -128z" />
    <glyph glyph-name="Chi" unicode="&#x3a7;" horiz-adv-x="1318" 
d="M897 0l-242 503l-236 -503h-272l380 771l-345 718h283l224 -472l216 472h268l-354 -748l350 -741h-272z" />
    <glyph glyph-name="Psi" unicode="&#x3a8;" horiz-adv-x="1604" 
d="M929 0h-251v356q-235 24 -356 149.5t-121 345.5v638h253v-623q0 -140 53 -213.5t171 -86.5v923h251v-923q117 13 170 86.5t53 213.5v623h252v-638q0 -220 -121 -345.5t-354 -149.5v-356z" />
    <glyph glyph-name="Omega" unicode="&#x3a9;" horiz-adv-x="1312" 
d="M1203 747q0 -281 -224 -397v-168h201v-182h-454v428q128 35 176 112.5t48 206.5v238q0 173 -68 249.5t-224.5 76.5t-224.5 -76.5t-68 -249.5v-238q0 -128 46.5 -205.5t174.5 -113.5v-428h-452v182h201v168q-223 115 -223 397v238q0 523 545.5 523t545.5 -523v-238z" />
    <glyph glyph-name="Iotadieresis" unicode="&#x3aa;" 
d="M184 0v197h280v1095h-280v197h812v-197h-279v-1095h279v-197h-812zM894 1800q0 -115 -127 -115q-58 0 -93 25t-35 90v17q0 121 128 121q58 0 92 -27t35 -94v-17zM283 1817q-1 121 127 121t128 -121v-17q0 -65 -36 -90t-92 -25t-92 25q-35 25 -35 90v17z" />
    <glyph glyph-name="Upsilondieresis" unicode="&#x3ab;" 
d="M717 0h-253v559l-404 930h266l270 -714l272 714h251l-402 -930v-559zM894 1800q0 -115 -127 -115q-58 0 -93 25t-35 90v17q0 121 128 121q58 0 92 -27t35 -94v-17zM283 1817q-1 121 127 121t128 -121v-17q0 -65 -36 -90t-92 -25t-92 25q-35 25 -35 90v17z" />
    <glyph glyph-name="alphatonos" unicode="&#x3ac;" horiz-adv-x="1318" 
d="M184 374v361q0 187 76 295t207 108q81 0 145 -48t90 -135h41v164h253v-795q0 -95 40 -123t128 -9v-194q-134 -30 -224 18t-111 172h-43q-77 -207 -318 -207q-124 -1 -204 103t-80 290zM438 404q0 -115 28 -167q30 -51 93 -51q114 0 184 132v475q-74 140 -184 140
q-63 0 -93 -52t-28 -168v-309zM497 1303l73 373h309l-224 -373h-158z" />
    <glyph glyph-name="epsilontonos" unicode="&#x3ad;" 
d="M205 840q0 296 387 296t404 -345l-233 -15q-11 99 -48 139t-117 40t-114 -31t-35 -101v-26q0 -65 38 -92t118 -27h71v-164h-71q-95 0 -137 -38t-42 -124v-19q0 -85 40 -127t134 -42t136 45t52 154l232 -13q-15 -188 -119 -278t-309 -91q-205 0 -308 84t-103 240v25
q0 95 53 162t164 76v41q-193 14 -193 201v30zM484 1303l73 373h309l-224 -373h-158z" />
    <glyph glyph-name="etatonos" unicode="&#x3ae;" 
d="M743 769q0 164 -114 164t-191 -149v-784h-254v1117h254v-153h40q26 80 97 126t177 46t175 -88t69 -238v-1182h-253v1141zM495 1303l73 373h309l-224 -373h-158z" />
    <glyph glyph-name="iotatonos" unicode="&#x3af;" horiz-adv-x="899" 
d="M255 363v754h251v-737q0 -194 110 -194q38 -3 121 37l39 -184q-136 -56 -244 -56q-140 -1 -208 103t-69 277zM290 1303l73 373h309l-223 -373h-159z" />
    <glyph glyph-name="upsilondieresistonos" unicode="&#x3b0;" 
d="M591 -19q-193 -1 -300 115t-107 327v694h254v-696q0 -134 34 -188t118 -54t118 54t35 186v698h253v-694q0 -210 -106 -326t-299 -116zM1004 1415q0 -115 -114 -115q-52 0 -83 24t-31 91v17q0 119 114 119t114 -119v-17zM173 1432q0 119 114 119t113 -119v-17
q0 -67 -32 -91t-81 -24q-50 0 -82 24t-32 91v17zM471 1303l63 373h226l-147 -373h-142z" />
    <glyph glyph-name="alpha" unicode="&#x3b1;" horiz-adv-x="1318" 
d="M184 374v361q0 188 76.5 295.5t206.5 107.5q82 0 145.5 -47.5t89.5 -135.5h41v164h253v-795q0 -95 40 -123t128 -9v-194q-134 -30 -223.5 18.5t-111.5 171.5h-43q-77 -207 -318 -207q-124 0 -204 103.5t-80 289.5zM438 713v-309q0 -115 29 -166.5t92 -51.5q114 0 184 132
v475q-74 140 -184 140q-63 0 -92 -52t-29 -168z" />
    <glyph glyph-name="beta" unicode="&#x3b2;" 
d="M951 1098q0 -223 -208 -264v-54q117 -13 183 -96.5t70 -195.5v-84q0 -199 -96 -311t-265 -112q-107 0 -197 51v-404h-254v1457q0 212 106.5 317.5t281.5 105.5t277 -97t102 -270v-43zM577 175q164 0 164 248v67q0 117 -41 167t-127 50h-72v174h63q138 0 138 184v33
q0 112 -31.5 162.5t-101.5 50.5t-100.5 -50.5t-30.5 -162.5v-869q62 -54 139 -54z" />
    <glyph glyph-name="gamma" unicode="&#x3b3;" horiz-adv-x="1038" 
d="M672 -372h-303l26 409l-317 1080h255l192 -763l182 763h254l-315 -1080z" />
    <glyph glyph-name="delta" unicode="&#x3b4;" 
d="M438 395q0 -220 152 -220q76 0 114.5 51t38.5 169v199q0 93 -51.5 146t-145.5 89q-108 -76 -108 -244v-190zM184 585q0 215 213 312q-91 50 -130.5 113.5t-39.5 162.5q0 164 90.5 240t268.5 76h282v-191h-282q-58 0 -87.5 -24.5t-29.5 -90.5t55 -101.5t201 -99.5
t208.5 -151.5t62.5 -236.5v-199q0 -210 -111.5 -312t-294 -102t-294.5 101.5t-112 312.5v190z" />
    <glyph glyph-name="epsilon" unicode="&#x3b5;" 
d="M205 810v30q0 151 101.5 223.5t285.5 72.5q387 0 404 -345l-233 -15q-11 99 -48 139t-117 40t-114.5 -30.5t-34.5 -101.5v-26q0 -65 38 -92t118 -27h71v-164h-71q-95 0 -137 -38t-42 -124v-19q0 -86 40 -127.5t133.5 -41.5t136 44.5t52.5 154.5l232 -13
q-15 -188 -119 -278.5t-309 -90.5t-308 84t-103 240v25q0 95 53 162t164 76v41q-193 14 -193 201z" />
    <glyph glyph-name="zeta" unicode="&#x3b6;" 
d="M663 -372h-199v188h197q52 0 82 22t30 93t-30 95t-82 24h-97q-179 0 -279.5 109t-100.5 274t44 271t129 219l183 257l-11 25q-141 -9 -239 68t-139 222l152 60q52 -138 156.5 -176t257.5 2l257 155l56 -240l-276 -84l-208 -357q-110 -197 -110 -373q0 -104 41.5 -174
t123.5 -70h129q125 0 195.5 -73t70.5 -227t-90 -232t-243 -78z" />
    <glyph glyph-name="eta" unicode="&#x3b7;" 
d="M743 769q0 164 -113.5 164t-191.5 -149v-784h-254v1117h254v-153h40q26 80 97 126t177 46t175 -87.5t69 -238.5v-1182h-253v1141z" />
    <glyph glyph-name="theta" unicode="&#x3b8;" 
d="M590.5 175q87.5 0 126.5 55t39 183v250h-330v-250q0 -128 38.5 -183t126 -55zM426 1074v-227h330v229q0 128 -39 184t-126.5 56t-126 -57t-38.5 -185zM590 -19q-192 0 -299 112t-107 311v674q0 205 107 317.5t300 112.5t299 -112.5t106 -317.5v-674q0 -199 -107 -311
t-299 -112z" />
    <glyph glyph-name="iota" unicode="&#x3b9;" horiz-adv-x="899" 
d="M255 363v754h251v-737q0 -194 110 -194q38 -3 121 37l39 -184q-136 -56 -244 -56q-140 0 -208.5 103.5t-68.5 276.5z" />
    <glyph glyph-name="kappa" unicode="&#x3ba;" horiz-adv-x="1038" 
d="M438 512v-512h-254v1117h254v-424h54l217 424h263l-279 -495l271 -622h-268l-203 512h-55z" />
    <glyph glyph-name="lambda" unicode="&#x3bb;" horiz-adv-x="1038" 
d="M317 1502q169 0 266 -79t132 -258l246 -1167h-250l-192 938l-191 -938h-250l242 1084h170l-6 31q-20 101 -63 151t-121 50t-190 -22l-17 190q140 20 224 20z" />
    <glyph glyph-name="mu" unicode="&#x3bc;" horiz-adv-x="1318" 
d="M184 1117h254v-756q0 -93 39 -133t96 -40q113 0 170 106v823h253v-812q0 -80 40 -106t128 -7v-194q-134 -26 -207.5 12t-107.5 148h-37q-72 -177 -228 -177q-90 0 -146 88v-32l13 -409h-280l13 409v1080z" />
    <glyph glyph-name="nu" unicode="&#x3bd;" horiz-adv-x="1038" 
d="M961 1117q-46 -559 -311 -1117h-261l-311 1117h255l214 -879q135 417 164 879h250z" />
    <glyph glyph-name="xi" unicode="&#x3be;" 
d="M521 979q0 -71 30 -100.5t76 -29.5h248v-188h-246q-91 0 -141 -50.5t-50 -141.5v-45q0 -86 42.5 -136t130.5 -50h87q143 0 223.5 -73t80.5 -227t-90.5 -232t-243.5 -78h-199v188h198q52 0 81.5 22t29.5 93t-29.5 95t-81.5 24h-148q-155 0 -245 93t-90 254v44
q0 119 65.5 201t182.5 93v43q-78 0 -121 53t-43 131t42 133.5t118 79.5v43q-130 4 -212 73.5t-127 203.5l155 60q102 -217 389 -170l294 151l58 -240l-315 -86l-54 -43q-95 -77 -95 -188z" />
    <glyph glyph-name="omicron" unicode="&#x3bf;" 
d="M438 395q0 -117 35 -169t116 -51q81 0 118 51q36 51 36 169v327q0 118 -36 170q-35 52 -117 52t-117 -53t-35 -170v-326zM590 -19q-190 0 -298 108t-108 300v333q0 194 109 304t298 110t297 -110t108 -304v-333q0 -192 -108 -300t-298 -108z" />
    <glyph glyph-name="pi" unicode="&#x3c0;" horiz-adv-x="1318" 
d="M1152 1117v-192h-145v-601q0 -91 36.5 -120t131.5 -12v-194q-419 -60 -419 255v672h-250v-925h-251v925h-140v192h1037z" />
    <glyph glyph-name="rho" unicode="&#x3c1;" 
d="M184 -372v1098q0 195 106 301.5t302 106.5t300 -106t104 -302v-348q0 -179 -73.5 -288t-215.5 -109q-93 0 -152.5 51.5t-76.5 140.5h-40v-545h-254zM743 408v327q0 207 -152.5 207t-152.5 -207v-400q80 -149 182 -149q63 0 93 52t30 170z" />
    <glyph glyph-name="sigma1" unicode="&#x3c2;" 
d="M465 -372v191h187q50 0 80.5 22.5t30.5 92.5t-30.5 93t-80.5 23h-123q-164 0 -254.5 113.5t-90.5 309.5v248q0 199 105 307t297 108t290 -99t116 -307l-242 -17q-7 136 -40.5 182.5t-119.5 46.5t-119 -50t-33 -170v-257q0 -119 32.5 -170t117.5 -51h118q147 0 218.5 -74
t71.5 -228t-102.5 -234t-275.5 -80h-153z" />
    <glyph glyph-name="sigma" unicode="&#x3c3;" horiz-adv-x="1318" 
d="M996 659v-274q0 -195 -110.5 -299.5t-295 -104.5t-295.5 104.5t-111 299.5v326q0 192 111 299t297 107h613v-210l-315 29q106 -100 106 -277zM589 175q81 0 117.5 48.5t36.5 171.5v286q0 134 -36.5 191t-117.5 57t-116 -50t-35 -172v-312q0 -123 35 -171.5t116 -48.5z
" />
    <glyph glyph-name="tau" unicode="&#x3c4;" horiz-adv-x="1038" 
d="M395 253v667h-280v197h825v-197h-294v-596q0 -91 37.5 -120t130.5 -12v-194q-419 -60 -419 255z" />
    <glyph glyph-name="upsilon" unicode="&#x3c5;" 
d="M591 -19q-193 0 -300 115.5t-107 326.5v694h254v-696q0 -134 34 -188t118 -54t118.5 54t34.5 186v698h253v-694q0 -210 -106 -326t-299 -116z" />
    <glyph glyph-name="phi" unicode="&#x3c6;" horiz-adv-x="1604" 
d="M929 920v-730q117 22 170 101.5t53 224.5v74q0 171 -55.5 250.5t-167.5 79.5zM454 661v-119q0 -156 53 -242t171 -108v925h177q233 0 391 -130.5t158 -396.5v-74q0 -231 -129.5 -364t-345.5 -163v-361h-251v361q-236 30 -356.5 171.5t-120.5 381.5v119q0 298 104 488
l244 -60q-95 -186 -95 -428z" />
    <glyph glyph-name="chi" unicode="&#x3c7;" horiz-adv-x="1038" 
d="M685 -372l-179 465l-154 -465h-255l292 763l-281 726h253l168 -434l149 434h253l-285 -733l294 -756h-255z" />
    <glyph glyph-name="psi" unicode="&#x3c8;" horiz-adv-x="1604" 
d="M929 -372h-251v355q-249 26 -363 158.5t-114 336.5v639h253v-624q0 -134 50.5 -202.5t173.5 -87.5v914h251v-914q121 19 172 87.5t51 202.5v624h252v-639q0 -205 -113.5 -337t-361.5 -158v-355z" />
    <glyph glyph-name="omega" unicode="&#x3c9;" horiz-adv-x="1604" 
d="M201 480v134q0 164 28 315t60 220l245 -60q-22 -60 -51 -194t-29 -281v-134q0 -301 112 -301t112 225v527h251v-527q0 -225 111.5 -225t111.5 301v134q0 147 -28.5 281.5t-51.5 193.5l244 60q32 -69 60 -220t28 -315v-134q0 -244 -86.5 -371.5t-226.5 -127.5
q-203 0 -272 242h-37q-67 -242 -266 -242q-141 0 -228 127.5t-87 371.5z" />
    <glyph glyph-name="iotadieresis" unicode="&#x3ca;" horiz-adv-x="899" 
d="M255 363v754h251v-737q0 -194 110 -194q38 -3 121 37l39 -184q-136 -56 -244 -56q-140 -1 -208 103t-69 277zM691 1428q0 -115 -127 -115q-58 0 -93 25t-35 90v17q0 121 128 121q58 0 92 -27t35 -94v-17zM80 1445q0 121 128 121t127 -121v-17q0 -65 -36 -90t-92 -25
t-92 25q-35 25 -35 90v17z" />
    <glyph glyph-name="upsilondieresis" unicode="&#x3cb;" 
d="M591 -19q-193 -1 -300 115t-107 327v694h254v-696q0 -134 34 -188t118 -54t118 54t35 186v698h253v-694q0 -210 -106 -326t-299 -116zM894 1428q0 -115 -127 -115q-58 0 -93 25t-35 90v17q0 121 128 121q58 0 92 -27t35 -94v-17zM283 1445q-1 121 127 121t128 -121v-17
q0 -65 -36 -90t-92 -25t-92 25q-35 25 -35 90v17z" />
    <glyph glyph-name="omicrontonos" unicode="&#x3cc;" 
d="M438 395q0 -117 35 -169t116 -51q81 0 118 51q36 51 36 169v327q0 118 -36 170q-35 52 -117 52t-117 -53t-35 -170v-326zM590 -19q-190 0 -298 108t-108 300v333q0 194 109 304t298 110t297 -110t108 -304v-333q0 -192 -108 -300t-298 -108zM478 1303l73 373h309
l-223 -373h-159z" />
    <glyph glyph-name="upsilontonos" unicode="&#x3cd;" 
d="M591 -19q-193 -1 -300 115t-107 327v694h254v-696q0 -134 34 -188t118 -54t118 54t35 186v698h253v-694q0 -210 -106 -326t-299 -116zM490 1303l72 373h309l-223 -373h-158z" />
    <glyph glyph-name="omegatonos" unicode="&#x3ce;" horiz-adv-x="1604" 
d="M201 480v134q0 164 28 315t60 220l245 -60q-22 -59 -51 -193t-29 -282v-134q0 -301 112 -301t112 225v527h251v-527q0 -225 113 -225t110 301v134q0 148 -28 282t-52 193l244 60q32 -69 60 -220t28 -315v-134q0 -244 -87 -372t-226 -127q-203 0 -272 242h-37
q-67 -242 -266 -242q-141 0 -228 128t-87 371zM687 1303l73 373h309l-224 -373h-158z" />
    <glyph glyph-name="IEgravecyrillic" unicode="&#x400;" 
d="M184 0v1489h818v-197h-564v-387h493v-199h-493v-509h564v-197h-818zM553 1676l-307 372h322l156 -372h-171z" />
    <glyph glyph-name="Iocyrillic" unicode="&#x401;" 
d="M184 0v1489h818v-197h-564v-387h493v-199h-493v-509h564v-197h-818zM914 1800q0 -115 -126 -115q-58 0 -94 25q-35 25 -35 90v17q0 67 35 94q36 27 94 27t92 -27t34 -94v-17zM559 1800q0 -115 -129 -115q-56 0 -91 25t-36 90v17q0 121 127 121q58 0 93 -27t36 -94v-17z
" />
    <glyph glyph-name="Djecyrillic" unicode="&#x402;" horiz-adv-x="1457" 
d="M413 0v1292h-298v197h900v-197h-348v-324h214q218 0 323 -99.5t105 -308.5v-152q0 -209 -105.5 -308.5t-322.5 -99.5v194q89 0 133 49t44 168v146q0 119 -44 168.5t-133 49.5h-214v-775h-254z" />
    <glyph glyph-name="Gjecyrillic" unicode="&#x403;" horiz-adv-x="1038" 
d="M184 0v1489h769v-197h-515v-1292h-254zM385 1676l157 372h322l-305 -372h-174z" />
    <glyph glyph-name="Ecyrillic" unicode="&#x404;" horiz-adv-x="1318" 
d="M186 475v534q0 246 126 372.5t366 126.5q476 0 497 -512l-252 -19q-13 190 -64 262t-182 72t-185 -67t-54 -246v-93h355v-199h-355v-222q0 -173 54 -239t186 -66t183 70.5t62 256.5l252 -18q-19 -507 -497 -507q-240 0 -366 126t-126 368z" />
    <glyph glyph-name="Dzecyrillic" unicode="&#x405;" horiz-adv-x="1318" 
d="M449 1115q-1 -90 57 -138q58 -49 254 -117t290 -164q95 -96 95 -279q1 -182 -127 -306t-361 -124q-117 0 -240 40t-225 109l52 199q208 -151 434 -151q104 0 159 57t55 150t-61 142t-220 109q-209 74 -311 170t-102 276t120 296q121 116 330 117q121 0 235 -40t193 -106
l-41 -191q-194 141 -382 141q-95 0 -149 -50t-55 -140z" />
    <glyph glyph-name="Icyrillic" unicode="&#x406;" 
d="M184 0v197h280v1095h-280v197h812v-197h-279v-1095h279v-197h-812z" />
    <glyph glyph-name="Yicyrillic" unicode="&#x407;" 
d="M184 0v197h280v1095h-280v197h812v-197h-279v-1095h279v-197h-812zM894 1800q0 -115 -127 -115q-58 0 -93 25t-35 90v17q0 121 128 121q58 0 92 -27t35 -94v-17zM283 1817q-1 121 127 121t128 -121v-17q0 -65 -36 -90t-92 -25t-92 25q-35 25 -35 90v17z" />
    <glyph glyph-name="Jecyrillic" unicode="&#x408;" 
d="M996 465q0 -248 -105 -366t-333 -118t-322 114q-96 114 -108 398l254 21q9 -201 46 -268t137 -67t139 64t39 226v823h-335v197h588v-1024z" />
    <glyph glyph-name="Ljecyrillic" unicode="&#x409;" horiz-adv-x="1876" 
d="M1136 197h173q91 0 133 51.5t42 170.5v156q0 119 -42 169.5t-133 50.5h-173v-598zM1735 404q0 -404 -391 -404h-461v1292h-313l-2 -853q-2 -236 -86 -347.5t-231 -111.5q-79 0 -163 26l26 195q59 -19 93 -19q56 0 83.5 60.5t27.5 221.5l6 1025h812v-500h208
q391 0 391 -397v-188z" />
    <glyph glyph-name="Njecyrillic" unicode="&#x40a;" horiz-adv-x="1876" 
d="M438 717v-717h-254v1489h254v-575h445v575h253v-500h208q192 0 291.5 -100.5t99.5 -296.5v-188q0 -199 -98.5 -301.5t-292.5 -102.5h-461v717h-445zM1136 197h173q91 0 133 51.5t42 170.5v156q0 119 -42 169.5t-133 50.5h-173v-598z" />
    <glyph glyph-name="Tshecyrillic" unicode="&#x40b;" horiz-adv-x="1457" 
d="M1022 501q0 223 -164 223h-180v-724h-254v1292h-309v197h922v-197h-359v-374h197q400 0 400 -408v-510h-253v501z" />
    <glyph glyph-name="Kjecyrillic" unicode="&#x40c;" 
d="M438 685v-685h-254v1489h254v-605h54l337 605h279l-417 -685l411 -804h-292l-315 685h-57zM499 1676l156 372h322l-305 -372h-173z" />
    <glyph glyph-name="Igravecyrillic" unicode="&#x40d;" horiz-adv-x="1318" 
d="M905 0v1190l-361 -1190h-360v1489h231v-1226l384 1226h337v-1489h-231zM611 1676l-308 372h323l156 -372h-171z" />
    <glyph glyph-name="Ushortcyrillic" unicode="&#x40e;" 
d="M346 182q116 0 160 159l10 30h-92l-346 1118h250l262 -876l263 876h247l-381 -1189q-103 -317 -380 -317q-85 0 -173 24l22 198q98 -23 158 -23zM600 1663q-162 0 -259 94t-95 293l219 18q-2 -128 27 -183q30 -55 108 -55t107 55t27 183l219 -18q1 -199 -95 -293
t-258 -94z" />
    <glyph glyph-name="Dzhecyrillic" unicode="&#x40f;" horiz-adv-x="1318" 
d="M532 -279v279h-348v1489h254v-1292h445v1292h253v-1489h-350v-279h-254z" />
    <glyph glyph-name="Acyrillic" unicode="&#x410;" horiz-adv-x="1172" 
d="M843 0l-85 404h-363l-86 -404h-236l353 1489h324l350 -1489h-257zM715 601l-138 652l-139 -652h277z" />
    <glyph glyph-name="Becyrillic" unicode="&#x411;" horiz-adv-x="1318" 
d="M750 197q153 0 153 220v88q0 117 -39 166.5t-114 49.5h-312v-524h312zM184 0v1489h888v-197h-634v-378h340q184 0 280 -98.5t96 -283.5v-124q0 -199 -95.5 -303.5t-280.5 -104.5h-594z" />
    <glyph glyph-name="Vecyrillic" unicode="&#x412;" horiz-adv-x="1318" 
d="M438 192h229q123 0 171 47t48 165v69q0 117 -48 164t-171 46h-229v-491zM438 866h227q106 0 149 42t42 144v61q0 101 -42 144q-43 43 -149 43h-227v-434zM1106 1061q0 -200 -201 -246v-54q112 -13 173 -92t61 -198v-87q0 -180 -116 -282t-319 -102h-520v1489h520
q188 0 295 -93t107 -257v-78z" />
    <glyph glyph-name="Gecyrillic" unicode="&#x413;" horiz-adv-x="1038" 
d="M184 0v1489h769v-197h-515v-1292h-254z" />
    <glyph glyph-name="Decyrillic" unicode="&#x414;" horiz-adv-x="1457" 
d="M367 0v-279h-252v476h108q80 80 84 378l8 914h821v-1292h139v-476h-253v279h-655zM495 197h388v1095h-321l-5 -726q0 -219 -62 -324v-45z" />
    <glyph glyph-name="Iecyrillic" unicode="&#x415;" 
d="M184 0v1489h818v-197h-564v-387h493v-199h-493v-509h564v-197h-818z" />
    <glyph glyph-name="Zhecyrillic" unicode="&#x416;" horiz-adv-x="1457" 
d="M616 875v614h227v-614h53l245 614h248l-296 -674l292 -815h-253l-218 694h-71v-694h-227v694h-70l-218 -694h-254l298 804l-301 685h247l246 -614h52z" />
    <glyph glyph-name="Zecyrillic" unicode="&#x417;" horiz-adv-x="1318" 
d="M657 -19q-231 0 -353.5 113t-132.5 329l252 18q11 -140 61 -203t175 -63t176 56t51 182v47q0 110 -49 164t-152 54h-132v195h132q93 0 131.5 38.5t38.5 153.5v54q0 106 -45 150.5t-151 44.5t-152.5 -51t-55.5 -185l-252 19q9 205 117 308t330 103t341 -87.5t119 -288.5
v-52q0 -121 -38 -180.5t-128 -84.5v-54q104 -19 151 -94t47 -215v-44q0 -216 -125 -321.5t-356 -105.5z" />
    <glyph glyph-name="Iicyrillic" unicode="&#x418;" horiz-adv-x="1318" 
d="M905 0v1190l-361 -1190h-360v1489h231v-1226l384 1226h337v-1489h-231z" />
    <glyph glyph-name="Iishortcyrillic" unicode="&#x419;" horiz-adv-x="1318" 
d="M905 0v1190l-361 -1190h-360v1489h231v-1226l384 1226h337v-1489h-231zM653 1663q-163 0 -259 94t-94 293l219 18q-2 -128 27 -183t107 -55t108 55q29 55 27 183l219 -18q2 -199 -95 -293t-259 -94z" />
    <glyph glyph-name="Kacyrillic" unicode="&#x41a;" 
d="M438 685v-685h-254v1489h254v-605h54l337 605h279l-417 -685l411 -804h-292l-315 685h-57z" />
    <glyph glyph-name="Elcyrillic" unicode="&#x41b;" horiz-adv-x="1318" 
d="M207 182q63 0 87 61.5t24 220.5l6 1025h812v-1489h-253v1292h-313l-2 -853q-2 -236 -86 -347.5t-231 -111.5q-79 0 -163 26l26 195q63 -19 93 -19z" />
    <glyph glyph-name="Emcyrillic" unicode="&#x41c;" horiz-adv-x="1457" 
d="M402 0h-218v1489h328l220 -867l223 867h320v-1489h-217v1179l-207 -807h-242l-207 792v-1164z" />
    <glyph glyph-name="Encyrillic" unicode="&#x41d;" horiz-adv-x="1318" 
d="M184 0v1489h254v-575h445v575h253v-1489h-253v717h-445v-717h-254z" />
    <glyph glyph-name="Ocyrillic" unicode="&#x41e;" horiz-adv-x="1318" 
d="M661 179q123 1 172 71t50 243v507q1 171 -49 241t-173 70t-173 -70t-50 -241v-507q0 -173 50 -243t173 -71zM1136 480q0 -238 -123 -368t-353 -131q-230 1 -353 131t-123 368v533q0 239 123 367t354 128t353 -128t122 -367v-533z" />
    <glyph glyph-name="Pecyrillic" unicode="&#x41f;" horiz-adv-x="1318" 
d="M184 0v1489h952v-1489h-253v1292h-445v-1292h-254z" />
    <glyph glyph-name="Ercyrillic" unicode="&#x420;" 
d="M438 696h163q95 0 140 50t45 168v158q0 120 -45 170t-140 50h-163v-596zM637 1489q400 0 400 -402v-188q0 -197 -101 -298t-299 -100h-199v-501h-254v1489h453z" />
    <glyph glyph-name="Escyrillic" unicode="&#x421;" horiz-adv-x="1318" 
d="M184 471v542q0 239 123 367t369 128t368 -128t131 -386l-252 -18q-11 186 -66 260t-183 74t-182 -69q-54 -70 -54 -243v-514q0 -169 54 -237t182 -68q128 1 184 73q54 72 65 256l252 -18q-18 -509 -490 -509q-255 0 -378 127t-123 363z" />
    <glyph glyph-name="Tecyrillic" unicode="&#x422;" 
d="M464 0v1292h-349v197h950v-197h-348v-1292h-253z" />
    <glyph glyph-name="Ucyrillic" unicode="&#x423;" 
d="M346 182q116 0 160 159l10 30h-92l-346 1118h250l262 -876l263 876h247l-381 -1189q-103 -317 -380 -317q-92 0 -173 24l22 198q98 -23 158 -23z" />
    <glyph glyph-name="Efcyrillic" unicode="&#x424;" horiz-adv-x="1457" 
d="M546 361h65v769h-65q-88 0 -125 -76.5t-37 -217.5v-190q0 -140 37 -212.5t125 -72.5zM916 1130h-67v-769h67q86 0 123 72.5t37 212.5v190q0 141 -37 217.5t-123 76.5zM916 168h-60v-202h-253v202h-57q-201 0 -302 128t-101 350v190q0 227 100.5 356.5t302.5 129.5h57v201
h253v-201h60q199 0 299.5 -129.5t100.5 -356.5v-190q0 -222 -100.5 -350t-299.5 -128z" />
    <glyph glyph-name="Khacyrillic" unicode="&#x425;" horiz-adv-x="1318" 
d="M897 0l-242 503l-236 -503h-272l380 771l-345 718h283l224 -472l216 472h268l-354 -748l350 -741h-272z" />
    <glyph glyph-name="Tsecyrillic" unicode="&#x426;" horiz-adv-x="1318" 
d="M953 -279v279h-769v1489h254v-1292h376v1292h251v-1292h140v-476h-252z" />
    <glyph glyph-name="Checyrillic" unicode="&#x427;" 
d="M395 929q0 -229 177 -229h171v789h253v-1489h-253v506h-171q-218 0 -323.5 102.5t-105.5 316.5v564h252v-560z" />
    <glyph glyph-name="Shacyrillic" unicode="&#x428;" horiz-adv-x="1597" 
d="M184 0v1489h242v-1292h254v1292h240v-1292h255v1292h240v-1489h-1231z" />
    <glyph glyph-name="Shchacyrillic" unicode="&#x429;" horiz-adv-x="1668" 
d="M1555 -279h-250v279h-1121v1489h242v-1292h254v1292h240v-1292h255v1292h240v-1292h140v-476z" />
    <glyph glyph-name="Hardsigncyrillic" unicode="&#x42a;" horiz-adv-x="1318" 
d="M577 197h173q89 0 132 52.5t43 169.5v156q0 117 -42.5 168.5t-132.5 51.5h-173v-598zM786 0h-462v1292h-279v197h532v-500h209q199 0 295 -97t96 -300v-188q0 -205 -96 -304.5t-295 -99.5z" />
    <glyph glyph-name="Yericyrillic" unicode="&#x42b;" horiz-adv-x="1604" 
d="M454 197h142q84 0 124 52.5t40 169.5v156q0 117 -40 168.5t-124 51.5h-142v-598zM1152 0v1489h252v-1489h-252zM1013 404q0 -404 -382 -404h-430v1489h253v-500h179q380 0 380 -397v-188z" />
    <glyph glyph-name="Softsigncyrillic" unicode="&#x42c;" 
d="M438 197h173q89 0 132 52.5t43 169.5v156q0 117 -43 168.5t-132 51.5h-173v-598zM1037 404q0 -404 -391 -404h-462v1489h254v-500h208q391 0 391 -397v-188z" />
    <glyph glyph-name="Ereversedcyrillic" unicode="&#x42d;" horiz-adv-x="1318" 
d="M1169 469q0 -488 -495 -488q-473 0 -495 512l253 19q9 -186 62.5 -258.5t185.5 -72.5t185 64t53 226v235h-341v199h341v100q0 169 -53 235.5t-183 66.5t-185.5 -76.5t-64.5 -260.5l-253 19q22 519 499 519q248 0 369.5 -123t121.5 -372v-544z" />
    <glyph glyph-name="IUcyrillic" unicode="&#x42e;" horiz-adv-x="1744" 
d="M1103 179q103 0 146 69t43 236v516q0 171 -43 241t-146 70t-146 -70t-43 -241v-516q0 -168 43 -236.5t146 -68.5zM1103 -19q-213 0 -326.5 128.5t-113.5 361.5v235h-209v-706h-253v1489h253v-584h209v108q0 236 114.5 365.5t327.5 129.5t325.5 -129.5t112.5 -365.5v-542
q0 -233 -113.5 -361.5t-326.5 -128.5z" />
    <glyph glyph-name="IAcyrillic" unicode="&#x42f;" horiz-adv-x="1318" 
d="M207 972v121q0 195 95.5 295.5t283.5 100.5h550v-1489h-253v562h-166l-278 -562h-268l287 579q-251 61 -251 393zM624 758h259v534h-259q-80 0 -122 -46.5t-42 -158.5v-115q0 -115 42 -164.5t122 -49.5z" />
    <glyph glyph-name="acyrillic" unicode="&#x430;" horiz-adv-x="1318" 
d="M821 156q-105 -175 -339 -175q-124 0 -205 85q-80 85 -80 236q0 152 86 234t233 82h240v173q0 74 -39 119t-115 45t-113 -40q-36 -40 -57 -154l-216 45q58 330 408 330q181 0 282 -78t101 -252v-501q0 -86 41 -109t127 -4v-194q-127 -24 -208 10t-105 148h-41zM555 465
q-121 -1 -120 -153t125 -152q131 0 196 108v197h-201z" />
    <glyph glyph-name="becyrillic" unicode="&#x431;" 
d="M588.5 175q83.5 0 118 53t34.5 159v229q0 99 -34.5 147.5t-118 48.5t-117 -48.5t-33.5 -147.5v-229q0 -106 33.5 -159t117 -53zM590.5 -19q-182.5 0 -294.5 104.5t-112 331.5v503q0 249 103.5 375.5t338.5 166.5l297 55l23 -195l-296 -60q-123 -24 -175 -101t-52 -232
v-76h33q32 73 97 112.5t154 39.5q125 0 207 -97.5t82 -265.5v-245q0 -210 -111.5 -313t-294 -103z" />
    <glyph glyph-name="vecyrillic" unicode="&#x432;" 
d="M426 182h179q97 0 136 34.5t39 120.5v19q0 82 -40 114.5t-135 32.5h-179v-321zM426 663h179q82 0 115.5 27t33.5 94v26q0 71 -32.5 100.5t-116.5 29.5h-179v-277zM1020 307q0 -307 -426 -307h-410v1117h410q402 0 402 -285v-31q0 -89 -50 -139.5t-144 -58.5v-41
q106 -9 162 -68.5t56 -162.5v-24z" />
    <glyph glyph-name="gecyrillic" unicode="&#x433;" horiz-adv-x="899" 
d="M184 0v1117h630v-197h-376v-920h-254z" />
    <glyph glyph-name="decyrillic" unicode="&#x434;" horiz-adv-x="1318" 
d="M361 0v-279h-240v473h110q74 70 78 298l8 625h690v-923h140v-473h-242v279h-544zM493 194h272v731h-214l-2 -432q-4 -174 -56 -257v-42z" />
    <glyph glyph-name="iecyrillic" unicode="&#x435;" 
d="M438 739v-74h305v63q1 125 -35 179t-118 54q-82 1 -117 -51t-35 -171zM184 376v365q0 183 109 289t298 106t297 -108t108 -298v-218h-558v-136q0 -119 38 -167q38 -49 122 -49t122 34t64 117l210 -60q-80 -270 -424 -270q-172 -1 -279 105t-107 290z" />
    <glyph glyph-name="zhecyrillic" unicode="&#x436;" horiz-adv-x="1318" 
d="M559 663v454h202v-454h62l177 454h227l-237 -521l233 -596h-223l-160 497h-79v-497h-202v497h-79l-160 -497h-223l234 600l-238 517h227l175 -454h64z" />
    <glyph glyph-name="zecyrillic" unicode="&#x437;" 
d="M205 791q18 345 404 345q387 0 387 -296v-30q0 -189 -194 -205v-41q112 -11 165 -75.5t53 -158.5v-25q0 -162 -107 -243t-307 -81t-306 90.5t-119 278.5l230 13q11 -114 52 -156.5t139 -42.5t135.5 40t37.5 129v19q0 80 -37.5 115.5t-123.5 35.5h-78v164h78
q74 0 106 27.5t32 102.5v26q0 74 -32.5 103t-116.5 29t-119 -38t-46 -141z" />
    <glyph glyph-name="iicyrillic" unicode="&#x438;" 
d="M778 0v788l-329 -788h-265v1117h220v-825l346 825h246v-1117h-218z" />
    <glyph glyph-name="iishortcyrillic" unicode="&#x439;" 
d="M778 0v788l-329 -788h-265v1117h220v-825l346 825h246v-1117h-218zM588 1290q-162 0 -258 94t-95 293l219 19q-2 -128 27 -183t107 -55t107 55t27 183l220 -19q2 -199 -95 -293t-259 -94z" />
    <glyph glyph-name="kacyrillic" unicode="&#x43a;" horiz-adv-x="1038" 
d="M438 493v-493h-254v1117h254v-443h55l224 443h253l-303 -508l297 -609h-257l-214 493h-55z" />
    <glyph glyph-name="elcyrillic" unicode="&#x43b;" 
d="M195 177q47 0 70.5 61.5t24.5 219.5l6 659h700v-1117h-253v925h-211l-3 -491q-4 -454 -280 -454q-81 0 -161 26l26 189q62 -18 81 -18z" />
    <glyph glyph-name="emcyrillic" unicode="&#x43c;" horiz-adv-x="1318" 
d="M402 0h-218v1117h308l171 -549l173 549h300v-1117h-218v806l-162 -527h-192l-162 525v-804z" />
    <glyph glyph-name="encyrillic" unicode="&#x43d;" 
d="M184 0v1117h254v-385h305v385h253v-1117h-253v534h-305v-534h-254z" />
    <glyph glyph-name="ocyrillic" unicode="&#x43e;" 
d="M438 395q0 -117 35 -169t116 -51q81 0 118 51q36 51 36 169v327q0 118 -36 170q-35 52 -117 52t-117 -53t-35 -170v-326zM590 -19q-190 0 -298 108t-108 300v333q0 194 109 304t298 110t297 -110t108 -304v-333q0 -192 -108 -300t-298 -108z" />
    <glyph glyph-name="pecyrillic" unicode="&#x43f;" 
d="M184 0v1117h812v-1117h-253v920h-305v-920h-254z" />
    <glyph glyph-name="ercyrillic" unicode="&#x440;" 
d="M635 -17q-107 0 -197 51v-406h-254v1489h254v-153h40q24 82 92 127t162 45q128 0 196 -101t68 -281v-383q0 -184 -95 -286t-266 -102zM595 173q77 -1 112 47t36 154v371q0 99 -29 143t-94 45q-108 0 -182 -132v-563q80 -65 157 -65z" />
    <glyph glyph-name="escyrillic" unicode="&#x441;" 
d="M184 741q0 199 108 297t304 98q391 0 415 -384l-244 -17q-6 114 -43 161q-38 46 -126 46t-124 -46t-36 -157v-363q0 -112 37 -156t125 -45q88 0 125 42q36 42 42 146l244 -15q-18 -367 -413 -367q-207 1 -310 103t-104 287v370z" />
    <glyph glyph-name="tecyrillic" unicode="&#x442;" horiz-adv-x="1038" 
d="M395 0v920h-280v197h810v-197h-279v-920h-251z" />
    <glyph glyph-name="ucyrillic" unicode="&#x443;" horiz-adv-x="1038" 
d="M326 -387q-84 0 -233 20l17 192q124 -21 173 -20q102 0 146 49t68 144l4 22h-170l-253 1097h250l203 -948l188 948h242l-248 -1175q-45 -179 -139 -254t-248 -75z" />
    <glyph glyph-name="efcyrillic" unicode="&#x444;" horiz-adv-x="1604" 
d="M992 923h-70v-728h70q78 0 119 66.5t41 192.5v207q0 128 -41 195t-119 67zM454 454q0 -259 159 -259h70v728h-70q-159 0 -159 -262v-207zM1020 0h-91v-372h-251v372h-93q-182 0 -283 117.5t-101 333.5v217q0 214 100.5 331.5t283.5 117.5h93v372h251v-372h91
q184 0 284 -117t100 -332v-217q0 -216 -100 -333.5t-284 -117.5z" />
    <glyph glyph-name="khacyrillic" unicode="&#x445;" horiz-adv-x="1038" 
d="M683 0l-175 344l-154 -344h-257l290 573l-279 544h255l164 -320l149 320h255l-283 -553l292 -564h-257z" />
    <glyph glyph-name="tsecyrillic" unicode="&#x446;" horiz-adv-x="1253" 
d="M892 -279v279h-698v1117h253v-920h292v920h251v-920h140v-476h-238z" />
    <glyph glyph-name="checyrillic" unicode="&#x447;" 
d="M743 1117h253v-1117h-253v371q-88 -28 -186 -28q-179 0 -276 101.5t-97 289.5v383h254v-380q0 -108 40.5 -153.5t115.5 -45.5q84 -5 149 28v551z" />
    <glyph glyph-name="shacyrillic" unicode="&#x448;" horiz-adv-x="1597" 
d="M184 0v1117h242v-920h254v920h240v-920h255v920h240v-1117h-1231z" />
    <glyph glyph-name="shchacyrillic" unicode="&#x449;" horiz-adv-x="1668" 
d="M1555 -279h-237v279h-1134v1117h242v-920h254v920h240v-920h255v920h240v-920h140v-476z" />
    <glyph glyph-name="hardsigncyrillic" unicode="&#x44a;" horiz-adv-x="1318" 
d="M778 194q147 0 147 154v73q0 80 -36 117t-111 37h-201v-381h201zM819 0h-495v920h-279v197h532v-352h242q173 0 265.5 -88.5t92.5 -252.5v-81q0 -166 -92.5 -254.5t-265.5 -88.5z" />
    <glyph glyph-name="yericyrillic" unicode="&#x44b;" horiz-adv-x="1604" 
d="M760 421q0 154 -147 154h-159v-381h159q147 0 147 154v73zM1152 1117h252v-1115l-252 -2v1117zM201 0v1117h253v-352h201q171 0 264.5 -89.5t93.5 -251.5v-81q0 -164 -94 -253.5t-266 -89.5h-452z" />
    <glyph glyph-name="softsigncyrillic" unicode="&#x44c;" 
d="M786 421q0 154 -147 154h-201v-381h201q147 0 147 154v73zM184 0v1117h254v-352h242q171 0 264 -89.5t93 -251.5v-81q0 -164 -93 -253.5t-264 -89.5h-496z" />
    <glyph glyph-name="ereversedcyrillic" unicode="&#x44d;" 
d="M580 -19q-202 0 -301.5 87t-109.5 271l246 15q6 -106 41.5 -147t125.5 -41t125.5 52t35.5 171v106h-261v166h261v67q0 123 -36.5 174t-124.5 51t-124.5 -44.5t-42.5 -156.5l-246 17q17 188 116 277.5t293 89.5t306 -105.5t112 -306.5v-327q0 -197 -107 -306.5
t-309 -109.5z" />
    <glyph glyph-name="iucyrillic" unicode="&#x44e;" horiz-adv-x="1604" 
d="M1011 179q80 0 111.5 52t31.5 184v281q0 134 -31.5 188t-111.5 54t-111.5 -54t-31.5 -188v-281q0 -132 31.5 -184t111.5 -52zM1012 -19q-187 0 -290.5 111t-103.5 312v106h-164v-510h-253v1117h253v-408h164v6q0 201 103.5 311t290.5 110t289.5 -113t102.5 -317v-302
q0 -201 -102.5 -312t-289.5 -111z" />
    <glyph glyph-name="iacyrillic" unicode="&#x44f;" 
d="M207 771q0 346 309 346h480v-1117h-253v376h-88l-216 -376h-268l226 398q-190 52 -190 326v47zM573 560h170v369h-170q-63 0 -88 -35.5t-25 -122.5v-41q0 -93 25 -131.5t88 -38.5z" />
    <glyph glyph-name="iegravecyrillic" unicode="&#x450;" 
d="M438 739v-74h305v63q1 125 -35 179t-118 54q-82 1 -117 -51t-35 -171zM184 376v365q0 183 109 289t298 106t297 -108t108 -298v-218h-558v-136q0 -119 38 -167q38 -49 122 -49t122 34t64 117l210 -60q-80 -270 -424 -270q-172 -1 -279 105t-107 290zM573 1303l-307 373
h322l157 -373h-172z" />
    <glyph glyph-name="iocyrillic" unicode="&#x451;" 
d="M438 739v-74h305v63q1 125 -35 179t-118 54q-82 1 -117 -51t-35 -171zM184 376v365q0 183 109 289t298 106t297 -108t108 -298v-218h-558v-136q0 -119 38 -167q38 -49 122 -49t122 34t64 117l210 -60q-80 -270 -424 -270q-172 -1 -279 105t-107 290zM894 1428
q0 -115 -127 -115q-58 0 -93 25t-35 90v17q0 121 128 121q58 0 92 -27t35 -94v-17zM283 1445q-1 121 127 121t128 -121v-17q0 -65 -36 -90t-92 -25t-92 25q-35 25 -35 90v17z" />
    <glyph glyph-name="djecyrillic" unicode="&#x452;" 
d="M743 672q0 157 -116 157t-189 -149v-680h-254v1158h-139v160h139v171h254v-171h245v-160h-245v-298h40q24 80 95 126.5t178 46.5t176 -87.5t69 -238.5v-716q0 -195 -102.5 -287.5t-236.5 -92.5q-87 0 -188 41l28 193q76 -39 130 -39q116 0 116 213v653z" />
    <glyph glyph-name="gjecyrillic" unicode="&#x453;" horiz-adv-x="899" 
d="M184 0v1117h630v-197h-376v-920h-254zM337 1303l156 373h322l-305 -373h-173z" />
    <glyph glyph-name="ecyrillic" unicode="&#x454;" 
d="M607 -19q-205 0 -314 107t-109 307v329q0 199 109 305.5t307 106.5t296 -88.5t115 -278.5l-244 -17q-6 112 -43.5 156.5t-127.5 44.5t-124 -52t-34 -171v-73h286v-158h-286v-112q0 -117 35 -169t128 -52t126.5 41.5t39.5 146.5l244 -15q-9 -190 -104 -274t-300 -84z" />
    <glyph glyph-name="dzecyrillic" unicode="&#x455;" 
d="M901 843q-182 114 -323 114q-140 0 -140 -134q0 -69 54 -101t203 -74t228 -112q79 -71 79 -221t-108 -241t-300 -91q-123 0 -235 40t-190 102l62 167q194 -128 363 -128t167 125q0 76 -51 105q-50 29 -190 68t-231 110t-92 227q0 156 100 246t267 91q112 0 215 -38
t172 -93z" />
    <glyph glyph-name="icyrillic" unicode="&#x456;" horiz-adv-x="754" 
d="M251 0v1117h254v-1117h-254zM378 1566q168 0 168 -121v-17q0 -65 -47 -90t-121 -25t-121 25t-47 90v17q0 121 168 121z" />
    <glyph glyph-name="yicyrillic" unicode="&#x457;" horiz-adv-x="754" 
d="M251 0v1117h254v-1117h-254zM683 1428q0 -115 -126 -115q-58 0 -93 25t-36 90v17q0 121 129 121q58 0 92 -27t34 -94v-17zM328 1428q0 -115 -129 -115q-56 0 -91 25t-35 90v17q0 121 126 121q58 0 93 -27t36 -94v-17z" />
    <glyph glyph-name="jecyrillic" unicode="&#x458;" horiz-adv-x="899" 
d="M266 -199q127 0 129 201v923h-246v192h497v-1136q0 -179 -98 -275t-252 -95q-95 0 -199 41l28 188q84 -39 141 -39zM352 1445q0 121 168 121t167 -121v-17q0 -65 -47 -90t-121 -25t-121 25t-46 90v17z" />
    <glyph glyph-name="ljecyrillic" unicode="&#x459;" horiz-adv-x="1737" 
d="M1344 423q0 152 -147 152h-201v-381h201q147 0 147 156v73zM208 177q32 0 56.5 51t25.5 230l6 659h700v-352h242q173 0 265.5 -88.5t92.5 -252.5v-81q0 -166 -92.5 -254.5t-265.5 -88.5h-495v925h-211l-3 -491q-4 -454 -280 -454q-81 0 -161 26l26 189q62 -18 94 -18z
" />
    <glyph glyph-name="njecyrillic" unicode="&#x45a;" horiz-adv-x="1737" 
d="M438 534v-534h-254v1117h254v-385h305v385h253v-352h242q171 0 264.5 -89.5t93.5 -251.5v-81q0 -164 -93.5 -253.5t-264.5 -89.5h-495v534h-305zM1344 423q0 152 -147 152h-201v-381h201q74 0 110.5 37t36.5 119v73z" />
    <glyph glyph-name="tshecyrillic" unicode="&#x45b;" 
d="M631 829q-117 0 -193 -149v-680h-254v1158h-139v160h139v171h254v-171h245v-160h-245v-298h40q32 82 102 128t175 46t173 -86t68 -239v-709h-253v667q0 162 -112 162z" />
    <glyph glyph-name="kjecyrillic" unicode="&#x45c;" horiz-adv-x="1038" 
d="M438 493v-493h-254v1117h254v-443h55l224 443h253l-303 -508l297 -609h-257l-214 493h-55zM415 1303l157 373h322l-306 -373h-173z" />
    <glyph glyph-name="igravecyrillic" unicode="&#x45d;" 
d="M778 0v788l-329 -788h-265v1117h220v-825l346 825h246v-1117h-218zM568 1303l-307 373h322l156 -373h-171z" />
    <glyph glyph-name="ushortcyrillic" unicode="&#x45e;" horiz-adv-x="1038" 
d="M326 -387q-84 0 -233 20l17 192q124 -21 173 -20q102 0 146 49t68 144l4 22h-170l-253 1097h250l203 -948l188 948h242l-248 -1175q-45 -179 -139 -254t-248 -75zM519 1290q-163 0 -259 94t-94 293l219 19q-2 -128 27 -183t107 -55t108 55q29 55 26 183l220 -19
q2 -199 -95 -293t-259 -94z" />
    <glyph glyph-name="dzhecyrillic" unicode="&#x45f;" 
d="M471 -279v279h-287v1117h254v-920h305v920h253v-1117h-287v-279h-238z" />
    <glyph glyph-name="Gheupturncyrillic" unicode="&#x490;" horiz-adv-x="1038" 
d="M184 0v1489h518v280h251v-477h-515v-1292h-254z" />
    <glyph glyph-name="gheupturncyrillic" unicode="&#x491;" horiz-adv-x="899" 
d="M184 0v1117h391v279h239v-476h-376v-920h-254z" />
    <glyph glyph-name="Wgrave" unicode="&#x1e80;" horiz-adv-x="1604" 
d="M972 0l-166 851l-171 -851h-274l-223 1489h240l156 -1150l151 843h248l164 -839l156 1146h214l-223 -1489h-272zM782 1676l-307 372h322l156 -372h-171z" />
    <glyph glyph-name="wgrave" unicode="&#x1e81;" horiz-adv-x="1457" 
d="M881 0l-147 706l-140 -706h-277l-205 1117h221l145 -877l140 691h227l151 -682l140 868h212l-207 -1117h-260zM707 1303l-307 373h322l157 -373h-172z" />
    <glyph glyph-name="Wacute" unicode="&#x1e82;" horiz-adv-x="1604" 
d="M972 0l-166 851l-171 -851h-274l-223 1489h240l156 -1150l151 843h248l164 -839l156 1146h214l-223 -1489h-272zM620 1676l156 372h322l-305 -372h-173z" />
    <glyph glyph-name="wacute" unicode="&#x1e83;" horiz-adv-x="1457" 
d="M881 0l-147 706l-140 -706h-277l-205 1117h221l145 -877l140 691h227l151 -682l140 868h212l-207 -1117h-260zM546 1303l156 373h322l-305 -373h-173z" />
    <glyph glyph-name="Wdieresis" unicode="&#x1e84;" horiz-adv-x="1604" 
d="M972 0l-166 851l-171 -851h-274l-223 1489h240l156 -1150l151 843h248l164 -839l156 1146h214l-223 -1489h-272zM1108 1800q0 -115 -127 -115q-58 0 -93 25t-35 90v17q0 121 128 121q58 0 92 -27t35 -94v-17zM497 1817q-1 121 127 121t128 -121v-17q0 -65 -36 -90
t-92 -25t-92 25q-35 25 -35 90v17z" />
    <glyph glyph-name="wdieresis" unicode="&#x1e85;" horiz-adv-x="1457" 
d="M881 0l-147 706l-140 -706h-277l-205 1117h221l145 -877l140 691h227l151 -682l140 868h212l-207 -1117h-260zM1033 1428q0 -115 -126 -115q-58 0 -93 25t-36 90v17q0 121 129 121q58 0 92 -27t34 -94v-17zM678 1428q0 -115 -129 -115q-56 0 -91 25t-35 90v17
q0 121 126 121q58 0 93 -27t36 -94v-17z" />
    <glyph glyph-name="Ygrave" unicode="&#x1ef2;" 
d="M717 0h-253v559l-404 930h266l270 -714l272 714h251l-402 -930v-559zM568 1676l-307 372h322l156 -372h-171z" />
    <glyph glyph-name="ygrave" unicode="&#x1ef3;" horiz-adv-x="1038" 
d="M326 -387q-84 0 -233 20l17 192q124 -21 173 -20q102 0 146 49t68 144l4 22h-170l-253 1097h250l203 -948l188 948h242l-248 -1175q-45 -179 -139 -254t-248 -75zM497 1303l-307 373h322l156 -373h-171z" />
    <glyph glyph-name="uni2000" unicode="&#x2000;" horiz-adv-x="1024" 
 />
    <glyph glyph-name="uni2001" unicode="&#x2001;" horiz-adv-x="2048" 
 />
    <glyph glyph-name="uni2002" unicode="&#x2002;" horiz-adv-x="1024" 
 />
    <glyph glyph-name="uni2003" unicode="&#x2003;" horiz-adv-x="2048" 
 />
    <glyph glyph-name="uni2004" unicode="&#x2004;" horiz-adv-x="681" 
 />
    <glyph glyph-name="uni2005" unicode="&#x2005;" horiz-adv-x="512" 
 />
    <glyph glyph-name="uni2007" unicode="&#x2007;" horiz-adv-x="1318" 
 />
    <glyph glyph-name="uni2009" unicode="&#x2009;" horiz-adv-x="340" 
 />
    <glyph glyph-name="uni200A" unicode="&#x200a;" horiz-adv-x="204" 
 />
    <glyph glyph-name="uni200B" unicode="&#x200b;" horiz-adv-x="0" 
 />
    <glyph glyph-name="endash" unicode="&#x2013;" horiz-adv-x="1452" 
d="M205 544v221h1044v-221h-1044z" />
    <glyph glyph-name="emdash" unicode="&#x2014;" horiz-adv-x="1871" 
d="M205 544v221h1463v-221h-1463z" />
    <glyph glyph-name="horizontalbar" unicode="&#x2015;" horiz-adv-x="1435" 
d="M20 544v221h1397v-221h-1397z" />
    <glyph glyph-name="underscoredbl" unicode="&#x2017;" horiz-adv-x="1312" 
d="M168 0v222h977v-222h-977zM168 -423v222h977v-222h-977z" />
    <glyph glyph-name="quoteright" unicode="&#x2019;" horiz-adv-x="1033" 
d="M263 721l137 768h373l-345 -768h-165z" />
    <glyph glyph-name="quotesinglbase" unicode="&#x201a;" horiz-adv-x="1033" 
d="M277 -348l108 771h373l-315 -771h-166z" />
    <glyph glyph-name="quotereversed" unicode="&#x201b;" horiz-adv-x="1033" 
d="M579 721l-344 768h374l136 -768h-166z" />
    <glyph glyph-name="quotedblleft" unicode="&#x201c;" horiz-adv-x="1604" 
d="M292 721l345 768h162l-136 -768h-371zM814 721l342 768h164l-138 -768h-368z" />
    <glyph glyph-name="quotedblright" unicode="&#x201d;" horiz-adv-x="1604" 
d="M287 721l136 768h368l-342 -768h-162zM806 721l136 768h371l-343 -768h-164z" />
    <glyph glyph-name="quotedblbase" unicode="&#x201e;" horiz-adv-x="1604" 
d="M287 -346l136 769h368l-342 -769h-162zM806 -346l136 769h371l-343 -769h-164z" />
    <glyph glyph-name="dagger" unicode="&#x2020;" horiz-adv-x="1452" 
d="M609 -372v1297h-177l-56 -396h-179l41 588h365l-9 372h279l-9 -372h365l41 -588h-179l-56 396h-175v-1297h-251z" />
    <glyph glyph-name="daggerdbl" unicode="&#x2021;" horiz-adv-x="1452" 
d="M609 179v761h-177l-56 -251h-179l41 443h365l-9 357h279l-9 -357h365l41 -443h-179l-56 251h-175v-761h175l56 249h179l-41 -443h-365l9 -357h-279l9 357h-365l-41 443h179l56 -249h177z" />
    <glyph glyph-name="bullet" unicode="&#x2022;" horiz-adv-x="1312" 
d="M656 439q-103 0 -168 57t-65 178v134q0 123 65 181.5t170 58.5t169.5 -58.5t64.5 -181.5v-134q0 -121 -66.5 -178t-169.5 -57z" />
    <glyph glyph-name="ellipsis" unicode="&#x2026;" horiz-adv-x="2751" 
d="M2305 162q1 -91 -55 -136t-144 -45t-143 45t-55 136v87q0 93 55 139t145 46t144 -46q53 -46 53 -139v-87zM1521 162q1 -91 -55 -136t-144 -45t-143 45t-54 136v87q0 93 54 139q55 46 145 46t144 -46q53 -46 53 -139v-87zM737 162q1 -91 -55 -136t-144 -45t-142 45
q-55 45 -55 136v87q0 93 55 139t145 46t143 -46t53 -139v-87z" />
    <glyph glyph-name="perthousand" unicode="&#x2030;" horiz-adv-x="2448" 
d="M2063 488q0 132 -87.5 132t-87.5 -132v-198q0 -147 87.5 -147t87.5 147v198zM1413 488q-1 132 -87 132t-86 -132v-198q0 -147 86 -147t87 147v198zM1605 276q0 -151 -77.5 -223.5t-201.5 -72.5t-200 72.5t-76 223.5v214q0 149 77.5 220.5t200 71.5t200 -71.5t77.5 -220.5
v-214zM2253 276q0 -151 -77.5 -223.5t-200 -72.5t-200 72.5t-77.5 223.5v214q0 149 77.5 220.5t200 71.5t200 -71.5t77.5 -220.5v-214zM560 1212q0 134 -86 134t-87 -134v-207q1 -130 87 -130t86 130v207zM1365 1489l-698 -1489h-229l698 1489h229zM474 713
q-124 0 -201.5 71t-77.5 220v210q0 151 78.5 222.5t201.5 71.5t199 -71.5t76 -222.5v-210q0 -149 -76 -220t-200 -71z" />
    <glyph glyph-name="minute" unicode="&#x2032;" horiz-adv-x="1033" 
d="M263 721l137 768h373l-345 -768h-165z" />
    <glyph glyph-name="second" unicode="&#x2033;" horiz-adv-x="1604" 
d="M287 721l136 768h368l-342 -768h-162zM806 721l136 768h371l-343 -768h-164z" />
    <glyph glyph-name="guilsinglleft" unicode="&#x2039;" horiz-adv-x="1033" 
d="M784 147l-533 387v237l533 387v-218l-395 -288l395 -289v-216z" />
    <glyph glyph-name="guilsinglright" unicode="&#x203a;" horiz-adv-x="1033" 
d="M251 147v216l395 289l-395 288v218l533 -387v-237z" />
    <glyph glyph-name="exclamdbl" unicode="&#x203c;" horiz-adv-x="1591" 
d="M1322 138q0 -157 -189 -157t-191 157v52q0 160 189 160t191 -160v-52zM1013 559l-41 930h307l-43 -930h-223zM652 138q0 -157 -190 -157t-190 157v52q0 160 189 160t191 -160v-52zM343 559l-41 930h307l-43 -930h-223z" />
    <glyph glyph-name="overline" unicode="&#x203e;" horiz-adv-x="1312" 
d="M168 1640v222h977v-222h-977z" />
    <glyph glyph-name="fraction" unicode="&#x2215;" horiz-adv-x="562" 
d="M-102 0l560 1489h207l-559 -1489h-208z" />
    <glyph glyph-name="fraction" unicode="&#x2044;" horiz-adv-x="562" 
d="M-102 0l560 1489h207l-559 -1489h-208z" />
    <glyph glyph-name="zero.sups" unicode="&#x2070;" horiz-adv-x="893" 
d="M446.5 700q72.5 0 95 65t22.5 205v112q0 140 -22.5 206.5t-95 66.5t-94.5 -67t-22 -206v-112q0 -140 22 -205t94.5 -65zM447 555q-151 0 -231 105t-80 290v150q0 188 81 294.5t232 106.5t230 -106.5t79 -294.5v-150q0 -184 -80 -289.5t-231 -105.5z" />
    <glyph glyph-name="four.sups" unicode="&#x2074;" horiz-adv-x="893" 
d="M804 797h-130v-231h-196v231h-353v145l314 547h235v-547h130v-145zM478 942v318l-186 -318h186z" />
    <glyph glyph-name="five.sups" unicode="&#x2075;" horiz-adv-x="893" 
d="M488 1167q272 0 272 -255v-98q0 -112 -71 -185.5t-239 -73.5t-244 63t-81 229l195 11q7 -95 34.5 -126.5t99.5 -31.5t92 32.5t20 107.5v41q0 67 -27 98.5t-129 31.5h-261v478h588v-145h-393v-177h144z" />
    <glyph glyph-name="six.sups" unicode="&#x2076;" horiz-adv-x="893" 
d="M447 700q69 0 93 41t24 104v15q0 69 -24 111t-94 42t-94 -42t-24 -111v-15q0 -69 25 -107t94 -38zM132 1164q0 337 306 337q158 0 227 -57t87 -180l-201 -28q-13 73 -37 96t-84 23t-81 -46.5t-21 -144.5v-101h5q52 80 184 80q133 0 188 -70.5t55 -204.5v-25
q0 -134 -75.5 -211t-314 -77t-238.5 329v280z" />
    <glyph glyph-name="seven.sups" unicode="&#x2077;" horiz-adv-x="893" 
d="M132 1333v156h628v-156q-106 -264 -161 -416t-91 -351h-203q52 248 104.5 394t156.5 373h-434z" />
    <glyph glyph-name="eight.sups" unicode="&#x2078;" horiz-adv-x="893" 
d="M446 702q72 0 96 32.5t24 95.5v21q0 65 -24 98.5t-96 33.5t-95 -33.5t-23 -98.5v-21q0 -63 23 -95.5t95 -32.5zM447 1119q52 0 77 23t25 79v32q0 56 -25 79t-77 23t-77.5 -23t-25.5 -79v-32q0 -56 25.5 -79t77.5 -23zM760 840v-26q0 -132 -76.5 -195.5t-236.5 -63.5
t-237.5 63t-77.5 196v26q0 181 147 195v34q-130 17 -130 165v38q0 117 73.5 173t224.5 56t223.5 -56t72.5 -173v-38q0 -147 -129 -165v-34q146 -14 146 -195z" />
    <glyph glyph-name="nine.sups" unicode="&#x2079;" horiz-adv-x="893" 
d="M132 1188v24q0 130 79 209.5t235.5 79.5t235 -87.5t78.5 -242.5v-277q0 -166 -74 -252.5t-232 -86.5t-226 56.5t-87 179.5l202 28q11 -73 37 -96t88 -23t80 45.5t18 148.5v100h-11q-46 -82 -177 -82q-246 0 -246 276zM448 1043q70 0 94 42.5t24 111.5v15q0 69 -24 106
t-93 37t-94 -40t-25 -103v-15q0 -69 24 -111.5t94 -42.5z" />
    <glyph glyph-name="nsuperior" unicode="&#x207f;" horiz-adv-x="1038" 
d="M557.5 1335q-84.5 0 -159.5 -123v-650h-214v931h214v-121h41q22 70 80 104q49 32 109 32q110 0 169 -78q59 -82 59 -222v-646h-214v622q0 151 -84.5 151z" />
    <glyph glyph-name="zero.sinf" unicode="&#x2080;" horiz-adv-x="893" 
d="M447 134q73 0 95 65t22 205v112q0 140 -22 206t-95 67q-73 0 -95 -67t-22 -206v-112q0 -140 22 -205t95 -65zM447 -11q-151 0 -231 105t-80 290v150q0 188 81 294t232 107q151 0 230 -106t79 -295v-150q0 -184 -80 -290t-231 -105z" />
    <glyph glyph-name="one.sinf" unicode="&#x2081;" horiz-adv-x="893" 
d="M203 0v155h190v567h-28q-13 -74 -62 -121t-109 -48l-10 154q67 7 128 63t83 153h191v-768h174v-155h-557z" />
    <glyph glyph-name="two.sinf" unicode="&#x2082;" horiz-adv-x="893" 
d="M132 0v203q0 223 164 268l171 47q48 13 69 40q20 27 21 84v28q-1 60 -25 90t-86 30t-84 -33q-21 -33 -27 -124l-194 13q6 143 77 216t228 73q158 0 232 -70t74 -193v-56q0 -106 -44 -164t-116 -76l-171 -46q-53 -14 -73 -38t-20 -87v-50h432v-155h-628z" />
    <glyph glyph-name="three.sinf" unicode="&#x2083;" horiz-adv-x="893" 
d="M760 253q0 -264 -308 -264q-166 0 -244 68t-83 207l195 12q6 -74 31 -106t96 -30q71 0 95 28t24 91v30q0 63 -23 91t-87 28h-158v152h158q52 0 73 19q20 19 20 74v30q0 58 -27 79q-27 22 -82 22t-77 -25t-28 -87l-194 11q7 130 81 191t216 61q143 0 224 -52t81 -179v-26
q0 -74 -34 -118t-91 -55v-34q65 -7 103 -59t39 -136v-23z" />
    <glyph glyph-name="four.sinf" unicode="&#x2084;" horiz-adv-x="893" 
d="M804 231h-130v-231h-196v231h-353v145l314 547h235v-547h130v-145zM478 376v318l-186 -318h186z" />
    <glyph glyph-name="five.sinf" unicode="&#x2085;" horiz-adv-x="893" 
d="M488 601q272 0 272 -255v-98q0 -112 -71 -186t-239 -73q-168 0 -244 63q-75 63 -81 229l195 11q6 -94 34 -126t100 -32t92 33t20 107v41q0 67 -27 99t-129 31h-261v478h588v-145h-393v-177h144z" />
    <glyph glyph-name="six.sinf" unicode="&#x2086;" horiz-adv-x="893" 
d="M447 134q69 0 93 41t24 104v15q0 69 -24 111t-94 42t-94 -42t-24 -111v-15q0 -69 25 -107t94 -38zM132 598q0 337 306 337q158 0 227 -57t87 -180l-201 -28q-13 73 -37 96t-84 23t-82 -46q-20 -47 -20 -145v-101h5q52 80 184 80q133 0 188 -71t55 -204v-25
q0 -134 -76 -211t-237 -77q-313 0 -315 329v280z" />
    <glyph glyph-name="seven.sinf" unicode="&#x2087;" horiz-adv-x="893" 
d="M132 767v156h628v-156q-106 -264 -161 -416t-91 -351h-203q52 248 105 394q52 146 156 373h-434z" />
    <glyph glyph-name="eight.sinf" unicode="&#x2088;" horiz-adv-x="893" 
d="M328 264q0 -64 23 -96t95 -32t96 32t24 96v21q0 65 -24 99t-96 34t-95 -34t-23 -99v-21zM447 553q52 0 77 23t25 79v32q0 56 -25 79t-77 23t-77 -23t-26 -79v-32q0 -56 26 -79t77 -23zM760 248q0 -132 -76 -196t-237 -63q-160 0 -238 63q-77 63 -77 196v26q0 179 147 195
v34q-130 17 -130 165v38q0 117 73 173q74 56 225 56t223 -56t73 -173v-38q0 -147 -129 -165v-34q144 -14 146 -195v-26z" />
    <glyph glyph-name="nine.sinf" unicode="&#x2089;" horiz-adv-x="893" 
d="M132 622v24q0 130 79 210t235 79q156 0 235 -88q78 -88 79 -242v-277q0 -166 -74 -252t-232 -87q-158 0 -226 57t-87 179l202 28q11 -73 37 -96t88 -23t80 46t18 148v100h-11q-45 -80 -176 -81q-247 -2 -247 275zM330 631q0 -69 24 -111t94 -43q70 1 94 43t24 111v15
q0 69 -24 106t-93 37t-94 -40t-25 -103v-15z" />
    <glyph glyph-name="franc" unicode="&#x20a3;" 
d="M661 331h-223v-331h-254v331h-139v183h139v975h840v-197h-586v-346h487v-198h-487v-234h223v-183z" />
    <glyph glyph-name="lira" unicode="&#x20a4;" horiz-adv-x="1318" 
d="M462 244q55 37 99.5 36.5t74.5 -12.5t55.5 -26.5t55.5 -27.5t58 -13q61 0 84.5 54.5t33.5 196.5l252 -18q-18 -334 -153.5 -393.5t-211.5 -59.5t-144 36.5t-108 58.5q-70 39 -119 47t-93 -28l-128 -112l-106 162l141 99q82 69 101.5 163t19.5 133h-223v158h197
q-6 15 -9.5 25.5t-8.5 20.5t-8.5 21t-9.5 23t-12 24.5t-12 26.5t-11 27t-11 28h-115v158h82q0 134 44 251t167.5 161t233.5 44q224 0 335 -108q107 -111 117 -333l-253 -19q-8 137 -52 191q-44 53 -148 53t-147 -56q-42 -56 -42 -149l277 -35v-158h-231q5 -16 10 -24
q17 -29 41 -94q23 -65 26 -78h154v-158h-136q-13 -102 -80 -162.5t-111 -92.5z" />
    <glyph glyph-name="peseta" unicode="&#x20a7;" horiz-adv-x="1731" 
d="M1000 374q0 -201 54 -201q35 0 62 9.5t29 12.5l4 -22l24 60q71 -71 160 -71q78 0 78 115q0 67 -51 124t-108 117q-127 134 -127 309q0 40 11 111h-136v-564zM1363.5 957q-60.5 0 -60.5 -105t43.5 -152.5t89.5 -93.5q82 -84 119 -154.5t37 -153.5q0 -231 -98.5 -274
t-141.5 -43q-101 0 -172 41l2 -11q-4 -11 -56 -18q-228 -62 -268.5 108.5t-40.5 274.5v562l-96 6v-39q0 -393 -302 -393h-91v-512h-181v1489h274q212 0 254 -135t46 -237h96v372h183v-372h167v-97q62 116 176 116t215 -93l-61 -159q-73 73 -133.5 73zM419 694q121 0 121 224
v162q0 173 -45.5 198t-75.5 25h-91v-609h91z" />
    <glyph glyph-name="Euro" unicode="&#x20ac;" horiz-adv-x="1318" 
d="M240 475v9h-139v156h139v205h-139v159h139v7q0 227 116 362t350 135t346.5 -113.5t122.5 -336.5l-242 -19q-11 156 -59 216.5t-166 60.5t-172 -67t-54 -234v-11h265v-159h-265v-205h265v-156h-265v-13q0 -168 54 -232t174 -64t166 57.5t57 212.5l242 -19
q-18 -445 -458 -445q-244 0 -360.5 133.5t-116.5 360.5z" />
    <glyph glyph-name="careof" unicode="&#x2105;" horiz-adv-x="1884" 
d="M1307 285q0 -138 103.5 -138t103.5 138v184q0 72 -28 106q-25 36 -75.5 36t-77.5 -36q-26 -36 -26 -106v-184zM1410 -22q-148 0 -232 74t-85 229v192q0 228 123 266.5t231.5 38.5t194.5 -74q86 -82 86 -231v-192q0 -153 -85 -228t-233 -75zM371 1017q0 -138 76 -138
t102 28t26 87l214 -28q0 -185 -121.5 -219t-193.5 -34q-149 0 -230 75q-88 76 -88 227v188q0 227 123 266t273.5 39t193.5 -93t43 -158l-214 -34q0 63 -27 91t-102 28t-75 -141v-184zM478 0l699 1489h231l-699 -1489h-231z" />
    <glyph glyph-name="lsquare" unicode="&#x2113;" horiz-adv-x="1027" 
d="M510 194q117 0 253 74l-2 -203q-60 -28 -158 -58q-281 -62 -391 66.5t-84 315.5l105 819q18 146 121.5 223t260.5 77q158 0 232 -86q78 -82 56 -240l-58 -424q-17 -142 -106 -222q-83 -71 -187 -71t-155 43l-13 -104q-12 -104 14 -144t52.5 -53t59.5 -13zM434 683
q13 -35 56 -35q44 0 69 26t37 99l52 385q26 153 -65 153q-66 0 -81.5 -47.5t-21.5 -84.5l-54 -388q-12 -70 8 -108z" />
    <glyph glyph-name="numero" unicode="&#x2116;" horiz-adv-x="2023" 
d="M417 0h-216v1489h305l291 -1174v1174h216v-1489h-324l-272 1084v-1084zM1487.5 735q57.5 0 83 48.5t25.5 160.5v173q0 106 -25 157.5t-83 51.5t-84 -52.5t-26 -158.5v-171q0 -112 26 -160.5t83.5 -48.5zM1487 555q-144 0 -239.5 96t-95.5 295v164q0 201 96 299.5
t240 98.5t239.5 -98.5t95.5 -299.5v-164q0 -199 -96 -295t-240 -96z" />
    <glyph glyph-name="uni2117" unicode="&#x2117;" horiz-adv-x="1876" 
d="M879 659h102q56 0 80 30t24 99v70q0 80 -24 113.5t-80 33.5h-102v-346zM652 218v957h329q160 0 246 -82t86 -235v-70q0 -141 -86 -217t-246 -76h-102v-277h-227zM940 -93q272 0 389.5 141.5t117.5 467.5v339q0 330 -117.5 473t-389.5 143t-390 -143.5t-118 -472.5v-339
q0 -326 118 -467.5t390 -141.5zM940.5 -205q-318.5 0 -472 170.5t-153.5 524.5v393q0 357 153.5 528.5t472 171.5t471 -171.5t152.5 -528.5v-393q0 -354 -152.5 -524.5t-471 -170.5z" />
    <glyph glyph-name="trademark" unicode="&#x2122;" horiz-adv-x="2155" 
d="M1219 644h-167v845h210l159 -489l156 489h212v-845h-167l-2 562l-134 -400h-134l-133 391v-553zM523 644v698h-240v147h642v-147h-225v-698h-177z" />
    <glyph glyph-name="Ohm" unicode="&#x2126;" horiz-adv-x="1312" 
d="M1203 747q0 -283 -224 -397v-168h201v-182h-454v428q128 34 176 112t48 207v238q0 173 -68 249t-224 76t-225 -76q-68 -76 -68 -249v-238q0 -128 46 -206q47 -77 175 -113v-428h-452v182h201v168q-223 115 -223 397v238q0 523 546 523t545 -523v-238z" />
    <glyph glyph-name="estimated" unicode="&#x212e;" horiz-adv-x="1452" 
d="M436 801h571v428q-117 149 -292 149t-279 -144v-433zM166 750q0 316 149 541.5t411 225.5t407.5 -256.5t149.5 -608.5h-847v-391q110 -144 283 -144q290 0 424 281l67 -111q-153 -309 -491 -309q-249 0 -401 228t-152 544z" />
    <glyph glyph-name="oneeighth" unicode="&#x215b;" horiz-adv-x="2237" 
d="M1661 264q0 -64 23 -96t95 -32t96 32t24 96v21q0 65 -24 99t-96 34t-95 -34t-23 -99v-21zM1780 553q52 0 77 23t25 79v32q0 56 -25 79t-77 23t-77 -23t-26 -79v-32q-1 -56 25 -79t78 -23zM2093 248q-1 -132 -77 -196t-236 -63q-160 0 -237 63t-78 196v26q0 179 147 195
v34q-130 17 -130 165v38q0 229 298 229q152 0 224 -56t72 -173v-38q0 -147 -129 -165v-34q144 -14 146 -195v-26zM212 566v155h190v567h-28q-13 -74 -62 -121t-109 -48l-9 154q68 7 128 63t82 153h192v-768h173v-155h-557zM735 0l561 1489h206l-558 -1489h-209z" />
    <glyph glyph-name="threeeighths" unicode="&#x215c;" horiz-adv-x="2237" 
d="M1661 264q0 -64 23 -96t95 -32t96 32t24 96v21q0 65 -24 99t-96 34t-95 -34t-23 -99v-21zM1780 553q52 0 77 23t25 79v32q0 56 -25 79t-77 23t-77 -23t-26 -79v-32q-1 -56 25 -79t78 -23zM2093 248q-1 -132 -77 -196t-236 -63q-160 0 -237 63t-78 196v26q0 179 147 195
v34q-130 17 -130 165v38q0 229 298 229q152 0 224 -56t72 -173v-38q0 -147 -129 -165v-34q144 -14 146 -195v-26zM735 0l561 1489h206l-558 -1489h-209zM769 819q0 -264 -307 -264q-166 0 -244 68t-84 207l196 12q6 -74 30 -106q25 -30 96 -30t95 28t24 91v30q0 63 -23 91
t-87 28h-158v152h158q52 0 73 19q20 19 21 74v30q0 58 -27 79q-27 22 -82 22q-56 0 -78 -25t-28 -87l-193 11q7 130 80 191t216 61q143 -1 224 -53t81 -178v-26q0 -74 -33 -119q-34 -44 -92 -54v-34q65 -7 103 -59t39 -136v-23z" />
    <glyph glyph-name="fiveeighths" unicode="&#x215d;" horiz-adv-x="2237" 
d="M1661 264q0 -64 23 -96t95 -32t96 32t24 96v21q0 65 -24 99t-96 34t-95 -34t-23 -99v-21zM1780 553q52 0 77 23t25 79v32q0 56 -25 79t-77 23t-77 -23t-26 -79v-32q-1 -56 25 -79t78 -23zM2093 248q-1 -132 -77 -196t-236 -63q-160 0 -237 63t-78 196v26q0 179 147 195
v34q-130 17 -130 165v38q0 229 298 229q152 0 224 -56t72 -173v-38q0 -147 -129 -165v-34q144 -14 146 -195v-26zM497 1167q272 0 272 -255v-98q-1 -112 -71 -186t-238 -73q-168 0 -245 63q-75 63 -81 229l196 11q7 -94 34 -126q28 -32 100 -32t92 33t19 107v41q0 67 -27 99
t-129 31h-261v478h589v-145h-393v-177h143zM735 0l561 1489h206l-558 -1489h-209z" />
    <glyph glyph-name="seveneighths" unicode="&#x215e;" horiz-adv-x="2237" 
d="M1661 264q0 -64 23 -96t95 -32t96 32t24 96v21q0 65 -24 99t-96 34t-95 -34t-23 -99v-21zM1780 553q52 0 77 23t25 79v32q0 56 -25 79t-77 23t-77 -23t-26 -79v-32q-1 -56 25 -79t78 -23zM2093 248q-1 -132 -77 -196t-236 -63q-160 0 -237 63t-78 196v26q0 179 147 195
v34q-130 17 -130 165v38q0 229 298 229q152 0 224 -56t72 -173v-38q0 -147 -129 -165v-34q144 -14 146 -195v-26zM141 1333v156h628v-156q-106 -264 -161 -416t-90 -351h-203q52 248 104 394t156 373h-434zM735 0l561 1489h206l-558 -1489h-209z" />
    <glyph glyph-name="arrowleft" unicode="&#x2190;" horiz-adv-x="1737" 
d="M856 1376v-512h628v-237h-628v-512h-27l-574 611v37l574 613h27z" />
    <glyph glyph-name="arrowup" unicode="&#x2191;" horiz-adv-x="1312" 
d="M531 -26v840h-384v37l495 665h28l495 -665v-37h-383v-840h-251z" />
    <glyph glyph-name="arrowright" unicode="&#x2192;" horiz-adv-x="1737" 
d="M883 115v512h-628v237h628v512h27l574 -613v-37l-574 -611h-27z" />
    <glyph glyph-name="arrowdown" unicode="&#x2193;" horiz-adv-x="1312" 
d="M147 678h384v838h251v-838h383v-38l-495 -666h-28l-495 666v38z" />
    <glyph glyph-name="arrowboth" unicode="&#x2194;" horiz-adv-x="2016" 
d="M801 627v-512h-28l-518 611v37l518 613h28v-512h418v512h28l516 -613v-37l-516 -611h-28v512h-418z" />
    <glyph glyph-name="arrowupdn" unicode="&#x2195;" horiz-adv-x="1604" 
d="M292 465h386v559h-386v37l497 641h28l496 -641v-37h-384v-559h384v-37l-496 -640h-28l-497 640v37z" />
    <glyph glyph-name="arrowupdnbse" unicode="&#x21a8;" horiz-adv-x="1604" 
d="M315 -400v212h456l-479 616v37h386v559h-386v37l497 641h28l496 -641v-37h-384v-559h384v-37l-477 -616h456v-212h-977z" />
    <glyph glyph-name="partialdiff" unicode="&#x2202;" 
d="M582.5 728q-98.5 0 -124.5 -78t-32 -132l-18 -118q-14 -117 18 -173t129 -56t124 86t34 143l19 118q12 108 -20 159q-31 51 -129.5 51zM457 -19q-141 0 -235 108t-64 321l13 122q26 179 126.5 283.5t236.5 104.5t172.5 -54t43.5 -82h28q14 225 -72 346t-324 209l182 171
q284 -103 386 -293t57 -530l-35 -266q-49 -330 -211.5 -385t-303.5 -55z" />
    <glyph glyph-name="Delta#1" unicode="&#x2206;" horiz-adv-x="1172" 
d="M858 197l-277 1090l-291 -1090h568zM73 0v197l344 1292h350l335 -1292v-197h-1029z" />
    <glyph glyph-name="product" unicode="&#x220f;" horiz-adv-x="1318" 
d="M184 -372v1861h952v-1861h-253v1664h-445v-1664h-254z" />
    <glyph glyph-name="summation" unicode="&#x2211;" 
d="M1024 -175v-197h-881v197l544 754l-544 713v197h881v-197h-637l471 -620v-166l-484 -681h650z" />
    <glyph glyph-name="minus" unicode="&#x2212;" horiz-adv-x="1312" 
d="M168 546v212h977v-212h-977z" />
    <glyph glyph-name="radical" unicode="&#x221a;" 
d="M516 0l-213 724l-188 -37v188l328 56l199 -750l239 1495h223l-302 -1676h-286z" />
    <glyph glyph-name="infinity" unicode="&#x221e;" horiz-adv-x="1452" 
d="M343 744.5q0 -340.5 117 -340.5q79 0 119.5 111t60.5 176q-48 205 -74 275q-27 69 -50.5 94t-55.5 25q-117 0 -117 -340.5zM992 404q120 0 120 341q0 255 -47 297.5t-74 42.5q-55 0 -97 -81q-43 -76 -82 -207q48 -214 75 -278.5t50 -89.5t55 -25zM758 964
q108 317 254 317q138 0 223 -144t85 -393t-92 -392t-240 -143q-149 0 -208 120t-84 194q-49 -143 -111 -231q-65 -83 -159 -83q-53 0 -108 37t-96 107q-88 150 -88 394t91 392q93 142 239 142q147 0 207.5 -120t86.5 -197z" />
    <glyph glyph-name="orthogonal" unicode="&#x221f;" horiz-adv-x="1167" 
d="M169 0v1303h254v-1100h608v-203h-862z" />
    <glyph glyph-name="intersection" unicode="&#x2229;" horiz-adv-x="1457" 
d="M277 0v832q0 238 122 364t332.5 126t330.5 -126t120 -364v-832h-251v827q0 157 -47 227q-47 71 -154 71q-158 0 -179.5 -110t-21.5 -190v-825h-252z" />
    <glyph glyph-name="integral" unicode="&#x222b;" 
d="M194 -158q82 -37 148 -37t94 55t28 187v1091q0 180 93 282q93 103 251 103q111 0 205 -45l-28 -178q-78 35 -127 35q-50 0 -74 -14t-46 -56t-21 -170v-1093q0 -177 -95 -283q-97 -103 -251 -103q-115 0 -205 45z" />
    <glyph glyph-name="approxequal" unicode="&#x2248;" horiz-adv-x="1312" 
d="M328 173v-162h-194v173q0 295 115.5 351.5t194.5 56.5t137 -43q59 -43 109 -139q85 -164 109 -192t43.5 -36.5t56.5 -8.5t62.5 51t25.5 174v161h193v-174q0 -297 -117 -353t-196 -56t-139 46q-59 46 -106 142q-71 146 -107 190t-87 44q-100 0 -100 -225zM428 1141
q-100 0 -100 -223v-162h-194v173q0 295 115.5 351.5t173.5 56.5q145 0 198 -75.5t103 -173.5t75 -126q24 -27 43.5 -35.5t56.5 -8.5t62.5 51t25.5 174v160h193v-173q0 -292 -115 -350t-195 -58t-141 49q-62 49 -123 170q-61 122 -88 153q-27 30 -45.5 38.5t-44.5 8.5z" />
    <glyph glyph-name="notequal" unicode="&#x2260;" horiz-adv-x="1312" 
d="M1145 344h-471l-65 -344h-185l66 344h-322v209h361l72 387h-433v207h472l64 342h184l-63 -342h320v-207h-359l-73 -387h432v-209z" />
    <glyph glyph-name="equivalence" unicode="&#x2261;" horiz-adv-x="1312" 
d="M168 136v212h977v-212h-977zM168 540v214h977v-214h-977zM168 946v212h977v-212h-977z" />
    <glyph glyph-name="lessequal" unicode="&#x2264;" horiz-adv-x="1312" 
d="M238 0v192h838v-192h-838zM1076 372l-838 440v238l838 439v-206l-666 -352l666 -352v-207z" />
    <glyph glyph-name="greaterequal" unicode="&#x2265;" horiz-adv-x="1312" 
d="M1076 0h-838v192h838v-192zM238 372v207l667 352l-667 352v206l838 -439v-238z" />
    <glyph glyph-name="logicalnotreversed" unicode="&#x2310;" horiz-adv-x="1312" 
d="M168 0v760h977v-213h-771v-547h-206z" />
    <glyph glyph-name="integralbt" unicode="&#x2321;" horiz-adv-x="1033" 
d="M177 -158q82 -37 143 -37t95 59q32 68 32 201v1424h253v-1469q0 -187 -97 -296q-45 -52 -109 -80t-114 -28q-141 0 -231 45z" />
    <glyph glyph-name="uni23af" unicode="&#x23af;" horiz-adv-x="1435" 
d="M-255 627v237h1946v-237h-1946z" />
    <glyph glyph-name="lighthorzbxd" unicode="&#x2500;" horiz-adv-x="2048" 
d="M-37 652h2122v-187h-2122v187z" />
    <glyph glyph-name="heavyhorzbxd" unicode="&#x2501;" horiz-adv-x="2048" 
d="M-37 745h2122v-373h-2122v373z" />
    <glyph glyph-name="lightvertbxd" unicode="&#x2502;" horiz-adv-x="2048" 
d="M931 1955h186v-2793h-186v2793z" />
    <glyph glyph-name="heavyvertbxd" unicode="&#x2503;" horiz-adv-x="2048" 
d="M838 1955h372v-2793h-372v2793z" />
    <glyph glyph-name="lighttrpldashhorzbxd" unicode="&#x2504;" horiz-adv-x="2048" 
d="M1476 652h455v-187h-455v187zM795 652h454v-187h-454v187zM114 652h454v-187h-454v187z" />
    <glyph glyph-name="heavytrpldashhorzbxd" unicode="&#x2505;" horiz-adv-x="2048" 
d="M1476 745h455v-373h-455v373zM795 745h454v-373h-454v373zM114 745h454v-373h-454v373z" />
    <glyph glyph-name="lighttrpldashvertbxd" unicode="&#x2506;" horiz-adv-x="2048" 
d="M931 2147h186v-455h-186v455zM931 1465h186v-454h-186v454zM931 784h186v-454h-186v454zM931 102h186v-454h-186v454z" />
    <glyph glyph-name="heavytrpldashvertbxd" unicode="&#x2507;" horiz-adv-x="2048" 
d="M838 2147h372v-455h-372v455zM838 1465h372v-454h-372v454zM838 784h372v-454h-372v454zM838 102h372v-454h-372v454z" />
    <glyph glyph-name="lightquaddashhorzbxd" unicode="&#x2508;" horiz-adv-x="2048" 
d="M1599 652h386v-187h-386v187zM1087 652h386v-187h-386v187zM575 652h386v-187h-386v187zM63 652h386v-187h-386v187z" />
    <glyph glyph-name="heavyquaddashhorzbxd" unicode="&#x2509;" horiz-adv-x="2048" 
d="M1599 745h386v-373h-386v373zM1087 745h386v-373h-386v373zM575 745h386v-373h-386v373zM63 745h386v-373h-386v373z" />
    <glyph glyph-name="lightquaddashvertbxd" unicode="&#x250a;" horiz-adv-x="2048" 
d="M931 1519h186v-385h-186v385zM931 1007h186v-385h-186v385zM931 495h186v-385h-186v385zM931 -17h186v-385h-186v385z" />
    <glyph glyph-name="heavyquaddashvertbxd" unicode="&#x250b;" horiz-adv-x="2048" 
d="M838 1519h372v-385h-372v385zM838 1007h372v-385h-372v385zM838 495h372v-385h-372v385zM838 -17h372v-385h-372v385z" />
    <glyph glyph-name="lightdnrightbxd" unicode="&#x250c;" horiz-adv-x="2048" 
d="M931 652h1154v-187h-968v-1303h-186v1490z" />
    <glyph glyph-name="dnlightrightheavybxd" unicode="&#x250d;" horiz-adv-x="2048" 
d="M931 745h1154v-373h-968v-1210h-186v1583z" />
    <glyph glyph-name="dnheavyrightlightbxd" unicode="&#x250e;" horiz-adv-x="2048" 
d="M838 652h1247v-187h-875v-1303h-372v1490z" />
    <glyph glyph-name="heavydnrightbxd" unicode="&#x250f;" horiz-adv-x="2048" 
d="M838 745h1247v-373h-875v-1210h-372v1583z" />
    <glyph glyph-name="lightdnleftbxd" unicode="&#x2510;" horiz-adv-x="2048" 
d="M-37 652h1154v-1490h-186v1303h-968v187z" />
    <glyph glyph-name="dnlightleftheavybxd" unicode="&#x2511;" horiz-adv-x="2048" 
d="M-37 745h1154v-1583h-186v1210h-968v373z" />
    <glyph glyph-name="dnheavyleftlightbxd" unicode="&#x2512;" horiz-adv-x="2048" 
d="M-37 652h1247v-1490h-372v1303h-875v187z" />
    <glyph glyph-name="heavydnleftbxd" unicode="&#x2513;" horiz-adv-x="2048" 
d="M-37 745h1247v-1583h-372v1210h-875v373z" />
    <glyph glyph-name="lightuprightbxd" unicode="&#x2514;" horiz-adv-x="2048" 
d="M931 1955h186v-1303h968v-187h-1154v1490z" />
    <glyph glyph-name="uplightrightheavybxd" unicode="&#x2515;" horiz-adv-x="2048" 
d="M931 1955h186v-1210h968v-373h-1154v1583z" />
    <glyph glyph-name="upheavyrightlightbxd" unicode="&#x2516;" horiz-adv-x="2048" 
d="M838 1955h372v-1303h875v-187h-1247v1490z" />
    <glyph glyph-name="heavyuprightbxd" unicode="&#x2517;" horiz-adv-x="2048" 
d="M838 1955h372v-1210h875v-373h-1247v1583z" />
    <glyph glyph-name="lightupleftbxd" unicode="&#x2518;" horiz-adv-x="2048" 
d="M-37 652h968v1303h186v-1490h-1154v187z" />
    <glyph glyph-name="uplightleftheavybxd" unicode="&#x2519;" horiz-adv-x="2048" 
d="M-37 745h968v1210h186v-1583h-1154v373z" />
    <glyph glyph-name="upheavyleftlightbxd" unicode="&#x251a;" horiz-adv-x="2048" 
d="M-37 652h875v1303h372v-1490h-1247v187z" />
    <glyph glyph-name="heavyupleftbxd" unicode="&#x251b;" horiz-adv-x="2048" 
d="M-37 745h875v1210h372v-1583h-1247v373z" />
    <glyph glyph-name="lightvertrightbxd" unicode="&#x251c;" horiz-adv-x="2048" 
d="M931 1955h186v-1303h968v-187h-968v-1303h-186v2793z" />
    <glyph glyph-name="vertlightrightheavybxd" unicode="&#x251d;" horiz-adv-x="2048" 
d="M931 1955h186v-1210h968v-373h-968v-1210h-186v2793z" />
    <glyph glyph-name="upheavyrightdnlightbxd" unicode="&#x251e;" horiz-adv-x="2048" 
d="M838 1955h372v-1303h875v-187h-968v-1303h-186v1303h-93v1490z" />
    <glyph glyph-name="dnheavyrightuplightbxd" unicode="&#x251f;" horiz-adv-x="2048" 
d="M838 652h93v1303h186v-1303h968v-187h-875v-1303h-372v1490z" />
    <glyph glyph-name="vertheavyrightlightbxd" unicode="&#x2520;" horiz-adv-x="2048" 
d="M838 1955h372v-1303h875v-187h-875v-1303h-372v2793z" />
    <glyph glyph-name="dnlightrightupheavybxd" unicode="&#x2521;" horiz-adv-x="2048" 
d="M838 1955h372v-1210h875v-373h-968v-1210h-186v1210h-93v1583z" />
    <glyph glyph-name="uplightrightdnheavybxd" unicode="&#x2522;" horiz-adv-x="2048" 
d="M838 745h93v1210h186v-1210h968v-373h-875v-1210h-372v1583z" />
    <glyph glyph-name="heavyvertrightbxd" unicode="&#x2523;" horiz-adv-x="2048" 
d="M838 1955h372v-1210h875v-373h-875v-1210h-372v2793z" />
    <glyph glyph-name="lightvertleftbxd" unicode="&#x2524;" horiz-adv-x="2048" 
d="M-37 652h968v1303h186v-2793h-186v1303h-968v187z" />
    <glyph glyph-name="vertlightleftheavybxd" unicode="&#x2525;" horiz-adv-x="2048" 
d="M-37 745h968v1210h186v-2793h-186v1210h-968v373z" />
    <glyph glyph-name="upheavyleftdnlightbxd" unicode="&#x2526;" horiz-adv-x="2048" 
d="M-37 652h875v1303h372v-1490h-93v-1303h-186v1303h-968v187z" />
    <glyph glyph-name="dnheavyleftuplightbxd" unicode="&#x2527;" horiz-adv-x="2048" 
d="M-37 652h968v1303h186v-1303h93v-1490h-372v1303h-875v187z" />
    <glyph glyph-name="vertheavyleftlightbxd" unicode="&#x2528;" horiz-adv-x="2048" 
d="M-37 652h875v1303h372v-2793h-372v1303h-875v187z" />
    <glyph glyph-name="dnlightleftupheavybxd" unicode="&#x2529;" horiz-adv-x="2048" 
d="M-37 745h875v1210h372v-1583h-93v-1210h-186v1210h-968v373z" />
    <glyph glyph-name="uplightleftdnheavybxd" unicode="&#x252a;" horiz-adv-x="2048" 
d="M-37 745h968v1210h186v-1210h93v-1583h-372v1210h-875v373z" />
    <glyph glyph-name="heavyvertleftbxd" unicode="&#x252b;" horiz-adv-x="2048" 
d="M-37 745h875v1210h372v-2793h-372v1210h-875v373z" />
    <glyph glyph-name="lightdnhorzbxd" unicode="&#x252c;" horiz-adv-x="2048" 
d="M-37 652h2122v-187h-968v-1303h-186v1303h-968v187z" />
    <glyph glyph-name="leftheavyrightdnlightbxd" unicode="&#x252d;" horiz-adv-x="2048" 
d="M-37 745h1154v-93h968v-187h-968v-1303h-186v1210h-968v373z" />
    <glyph glyph-name="rightheavyleftdnlightbxd" unicode="&#x252e;" horiz-adv-x="2048" 
d="M-37 652h968v93h1154v-373h-968v-1210h-186v1303h-968v187z" />
    <glyph glyph-name="dnlighthorzheavybxd" unicode="&#x252f;" horiz-adv-x="2048" 
d="M-37 745h2122v-373h-968v-1210h-186v1210h-968v373z" />
    <glyph glyph-name="dnheavyhorzlightbxd" unicode="&#x2530;" horiz-adv-x="2048" 
d="M-37 652h2122v-187h-875v-1303h-372v1303h-875v187z" />
    <glyph glyph-name="rightlightleftdnheavybxd" unicode="&#x2531;" horiz-adv-x="2048" 
d="M-37 745h1247v-93h875v-187h-875v-1303h-372v1210h-875v373z" />
    <glyph glyph-name="leftlightrightdnheavybxd" unicode="&#x2532;" horiz-adv-x="2048" 
d="M-37 652h875v93h1247v-373h-875v-1210h-372v1303h-875v187z" />
    <glyph glyph-name="heavydnhorzbxd" unicode="&#x2533;" horiz-adv-x="2048" 
d="M-37 745h2122v-373h-875v-1210h-372v1210h-875v373z" />
    <glyph glyph-name="lightuphorzbxd" unicode="&#x2534;" horiz-adv-x="2048" 
d="M-37 652h968v1303h186v-1303h968v-187h-2122v187z" />
    <glyph glyph-name="leftheavyrightuplightbxd" unicode="&#x2535;" horiz-adv-x="2048" 
d="M-37 745h968v1210h186v-1303h968v-187h-968v-93h-1154v373z" />
    <glyph glyph-name="rightheavyleftuplightbxd" unicode="&#x2536;" horiz-adv-x="2048" 
d="M-37 652h968v1303h186v-1210h968v-373h-1154v93h-968v187z" />
    <glyph glyph-name="uplighthorzheavybxd" unicode="&#x2537;" horiz-adv-x="2048" 
d="M-37 745h968v1210h186v-1210h968v-373h-2122v373z" />
    <glyph glyph-name="upheavyhorzlightbxd" unicode="&#x2538;" horiz-adv-x="2048" 
d="M-37 652h875v1303h372v-1303h875v-187h-2122v187z" />
    <glyph glyph-name="rightlightleftupheavybxd" unicode="&#x2539;" horiz-adv-x="2048" 
d="M-37 745h875v1210h372v-1303h875v-187h-875v-93h-1247v373z" />
    <glyph glyph-name="leftlightrightupheavybxd" unicode="&#x253a;" horiz-adv-x="2048" 
d="M-37 652h875v1303h372v-1210h875v-373h-1247v93h-875v187z" />
    <glyph glyph-name="heavyuphorzbxd" unicode="&#x253b;" horiz-adv-x="2048" 
d="M-37 745h875v1210h372v-1210h875v-373h-2122v373z" />
    <glyph glyph-name="lightverthorzbxd" unicode="&#x253c;" horiz-adv-x="2048" 
d="M-37 652h968v1303h186v-1303h968v-187h-968v-1303h-186v1303h-968v187z" />
    <glyph glyph-name="leftheavyrightvertlightbxd" unicode="&#x253d;" horiz-adv-x="2048" 
d="M-37 745h968v1210h186v-1303h968v-187h-968v-1303h-186v1210h-968v373z" />
    <glyph glyph-name="rightheavyleftvertlightbxd" unicode="&#x253e;" horiz-adv-x="2048" 
d="M-37 652h968v1303h186v-1210h968v-373h-968v-1210h-186v1303h-968v187z" />
    <glyph glyph-name="vertlighthorzheavybxd" unicode="&#x253f;" horiz-adv-x="2048" 
d="M-37 745h968v1210h186v-1210h968v-373h-968v-1210h-186v1210h-968v373z" />
    <glyph glyph-name="upheavydnhorzlightbxd" unicode="&#x2540;" horiz-adv-x="2048" 
d="M-37 652h875v1303h372v-1303h875v-187h-968v-1303h-186v1303h-968v187z" />
    <glyph glyph-name="dnheavyuphorzlightbxd" unicode="&#x2541;" horiz-adv-x="2048" 
d="M-37 652h968v1303h186v-1303h968v-187h-875v-1303h-372v1303h-875v187z" />
    <glyph glyph-name="vertheavyhorzlightbxd" unicode="&#x2542;" horiz-adv-x="2048" 
d="M-37 652h875v1303h372v-1303h875v-187h-875v-1303h-372v1303h-875v187z" />
    <glyph glyph-name="leftupheavyrightdnlightbxd" unicode="&#x2543;" horiz-adv-x="2048" 
d="M-37 745h875v1210h372v-1303h875v-187h-875v-93h-93v-1210h-186v1210h-968v373z" />
    <glyph glyph-name="rightupheavyleftdnlightbxd" unicode="&#x2544;" horiz-adv-x="2048" 
d="M-37 652h875v1303h372v-1210h875v-373h-968v-1210h-186v1210h-93v93h-875v187z" />
    <glyph glyph-name="leftdnheavyrightuplightbxd" unicode="&#x2545;" horiz-adv-x="2048" 
d="M-37 745h968v1210h186v-1210h93v-93h875v-187h-875v-1303h-372v1210h-875v373z" />
    <glyph glyph-name="rightdnheavyleftuplightbxd" unicode="&#x2546;" horiz-adv-x="2048" 
d="M-37 652h875v93h93v1210h186v-1210h968v-373h-875v-1210h-372v1303h-875v187z" />
    <glyph glyph-name="dnlightuphorzheavybxd" unicode="&#x2547;" horiz-adv-x="2048" 
d="M-37 745h875v1210h372v-1210h875v-373h-968v-1210h-186v1210h-968v373z" />
    <glyph glyph-name="uplightdnhorzheavybxd" unicode="&#x2548;" horiz-adv-x="2048" 
d="M-37 745h968v1210h186v-1210h968v-373h-875v-1210h-372v1210h-875v373z" />
    <glyph glyph-name="rightlightleftvertheavybxd" unicode="&#x2549;" horiz-adv-x="2048" 
d="M-37 745h875v1210h372v-1303h875v-187h-875v-1303h-372v1210h-875v373z" />
    <glyph glyph-name="leftlightrightvertheavybxd" unicode="&#x254a;" horiz-adv-x="2048" 
d="M-37 652h875v1303h372v-1210h875v-373h-875v-1210h-372v1303h-875v187z" />
    <glyph glyph-name="heavyverthorzbxd" unicode="&#x254b;" horiz-adv-x="2048" 
d="M-37 745h875v1210h372v-1210h875v-373h-875v-1210h-372v1210h-875v373z" />
    <glyph glyph-name="lightdbldashhorzbxd" unicode="&#x254c;" horiz-adv-x="2048" 
d="M1279 652h512v-187h-512v187zM255 652h512v-187h-512v187z" />
    <glyph glyph-name="heavydbldashhorzbxd" unicode="&#x254d;" horiz-adv-x="2048" 
d="M1279 745h512v-373h-512v373zM255 745h512v-373h-512v373z" />
    <glyph glyph-name="lightdbldashvertbxd" unicode="&#x254e;" horiz-adv-x="2048" 
d="M931 1326h186v-512h-186v512zM931 302h186v-512h-186v512z" />
    <glyph glyph-name="heavydbldashvertbxd" unicode="&#x254f;" horiz-adv-x="2048" 
d="M838 1326h372v-512h-372v512zM838 302h372v-512h-372v512z" />
    <glyph glyph-name="dblhorzbxd" unicode="&#x2550;" horiz-adv-x="2048" 
d="M-37 465h2122v-186h-2122v186zM-37 838h2122v-186h-2122v186z" />
    <glyph glyph-name="dblvertbxd" unicode="&#x2551;" horiz-adv-x="2048" 
d="M1117 1955h186v-2793h-186v2793zM745 1955h186v-2793h-186v2793z" />
    <glyph glyph-name="dnsngrightdblbxd" unicode="&#x2552;" horiz-adv-x="2048" 
d="M931 838h1154v-186h-968v-187h968v-186h-968v-1117h-186v1676z" />
    <glyph glyph-name="dndblrightsngbxd" unicode="&#x2553;" horiz-adv-x="2048" 
d="M745 652h1340v-187h-782v-1303h-186v1303h-186v-1303h-186v1490z" />
    <glyph glyph-name="dbldnrightbxd" unicode="&#x2554;" horiz-adv-x="2048" 
d="M1117 465h968v-186h-782v-1117h-186v1303zM745 838h1340v-186h-1154v-1490h-186v1676z" />
    <glyph glyph-name="dnsngleftdblbxd" unicode="&#x2555;" horiz-adv-x="2048" 
d="M-37 838h1154v-1676h-186v1117h-968v186h968v187h-968v186z" />
    <glyph glyph-name="dndblleftsngbxd" unicode="&#x2556;" horiz-adv-x="2048" 
d="M-37 652h1340v-1490h-186v1303h-186v-1303h-186v1303h-782v187z" />
    <glyph glyph-name="dbldnleftbxd" unicode="&#x2557;" horiz-adv-x="2048" 
d="M-37 465h968v-1303h-186v1117h-782v186zM-37 838h1340v-1676h-186v1490h-1154v186z" />
    <glyph glyph-name="upsngrightdblbxd" unicode="&#x2558;" horiz-adv-x="2048" 
d="M931 1955h186v-1117h968v-186h-968v-187h968v-186h-1154v1676z" />
    <glyph glyph-name="updblrightsngbxd" unicode="&#x2559;" horiz-adv-x="2048" 
d="M745 1955h186v-1303h186v1303h186v-1303h782v-187h-1340v1490z" />
    <glyph glyph-name="dbluprightbxd" unicode="&#x255a;" horiz-adv-x="2048" 
d="M1117 1955h186v-1117h782v-186h-968v1303zM745 1955h186v-1490h1154v-186h-1340v1676z" />
    <glyph glyph-name="upsngleftdblbxd" unicode="&#x255b;" horiz-adv-x="2048" 
d="M-37 838h968v1117h186v-1676h-1154v186h968v187h-968v186z" />
    <glyph glyph-name="updblleftsngbxd" unicode="&#x255c;" horiz-adv-x="2048" 
d="M-37 652h782v1303h186v-1303h186v1303h186v-1490h-1340v187z" />
    <glyph glyph-name="dblupleftbxd" unicode="&#x255d;" horiz-adv-x="2048" 
d="M-37 838h782v1117h186v-1303h-968v186zM-37 465h1154v1490h186v-1676h-1340v186z" />
    <glyph glyph-name="vertsngrightdblbxd" unicode="&#x255e;" horiz-adv-x="2048" 
d="M931 1955h186v-1117h968v-186h-968v-187h968v-186h-968v-1117h-186v2793z" />
    <glyph glyph-name="vertdblrightsngbxd" unicode="&#x255f;" horiz-adv-x="2048" 
d="M745 1955h186v-2793h-186v2793zM1117 1955h186v-1303h782v-187h-782v-1303h-186v2793z" />
    <glyph glyph-name="dblvertrightbxd" unicode="&#x2560;" horiz-adv-x="2048" 
d="M1117 465h968v-186h-782v-1117h-186v1303zM1117 1955h186v-1117h782v-186h-968v1303zM745 1955h186v-2793h-186v2793z" />
    <glyph glyph-name="vertsngleftdblbxd" unicode="&#x2561;" horiz-adv-x="2048" 
d="M-37 838h968v1117h186v-2793h-186v1117h-968v186h968v187h-968v186z" />
    <glyph glyph-name="vertdblleftsngbxd" unicode="&#x2562;" horiz-adv-x="2048" 
d="M1117 1955h186v-2793h-186v2793zM-37 652h782v1303h186v-2793h-186v1303h-782v187z" />
    <glyph glyph-name="dblvertleftbxd" unicode="&#x2563;" horiz-adv-x="2048" 
d="M-37 838h782v1117h186v-1303h-968v186zM-37 465h968v-1303h-186v1117h-782v186zM1117 1955h186v-2793h-186v2793z" />
    <glyph glyph-name="dnsnghorzdblbxd" unicode="&#x2564;" horiz-adv-x="2048" 
d="M-37 838h2122v-186h-2122v186zM-37 465h2122v-186h-968v-1117h-186v1117h-968v186z" />
    <glyph glyph-name="dndblhorzsngbxd" unicode="&#x2565;" horiz-adv-x="2048" 
d="M-37 652h2122v-187h-782v-1303h-186v1303h-186v-1303h-186v1303h-782v187z" />
    <glyph glyph-name="dbldnhorzbxd" unicode="&#x2566;" horiz-adv-x="2048" 
d="M-37 465h968v-1303h-186v1117h-782v186zM1117 465h968v-186h-782v-1117h-186v1303zM-37 838h2122v-186h-2122v186z" />
    <glyph glyph-name="upsnghorzdblbxd" unicode="&#x2567;" horiz-adv-x="2048" 
d="M-37 465h2122v-186h-2122v186zM-37 838h968v1117h186v-1117h968v-186h-2122v186z" />
    <glyph glyph-name="updblhorzsngbxd" unicode="&#x2568;" horiz-adv-x="2048" 
d="M-37 652h782v1303h186v-1303h186v1303h186v-1303h782v-187h-2122v187z" />
    <glyph glyph-name="dbluphorzbxd" unicode="&#x2569;" horiz-adv-x="2048" 
d="M1117 1955h186v-1117h782v-186h-968v1303zM-37 838h782v1117h186v-1303h-968v186zM-37 465h2122v-186h-2122v186z" />
    <glyph glyph-name="vertsnghorzdblbxd" unicode="&#x256a;" horiz-adv-x="2048" 
d="M-37 838h968v1117h186v-1117h968v-186h-968v-187h968v-186h-968v-1117h-186v1117h-968v186h968v187h-968v186z" />
    <glyph glyph-name="vertdblhorzsngbxd" unicode="&#x256b;" horiz-adv-x="2048" 
d="M-37 652h782v1303h186v-1303h186v1303h186v-1303h782v-187h-782v-1303h-186v1303h-186v-1303h-186v1303h-782v187z" />
    <glyph glyph-name="dblverthorzbxd" unicode="&#x256c;" horiz-adv-x="2048" 
d="M1117 465h968v-186h-782v-1117h-186v1303zM1117 1955h186v-1117h782v-186h-968v1303zM-37 465h968v-1303h-186v1117h-782v186zM-37 838h782v1117h186v-1303h-968v186z" />
    <glyph glyph-name="lightarcdnrightbxd" unicode="&#x256d;" horiz-adv-x="2048" 
d="M931 -465q-1 231 87 435t240 355t356 239t434 88h37v-187h-37q-252 0 -467 -126t-340 -338q-124 -212 -124 -466v-373h-186v373z" />
    <glyph glyph-name="lightarcdnleftbxd" unicode="&#x256e;" horiz-adv-x="2048" 
d="M1117 -838h-186v373q0 192 -74 362q-151 347 -495 495q-170 74 -362 73h-37v187h37q231 0 435 -88q203 -88 355 -240t240 -355q88 -204 87 -434v-373z" />
    <glyph glyph-name="lightarcupleftbxd" unicode="&#x256f;" horiz-adv-x="2048" 
d="M1117 1583q1 -231 -87 -435t-240 -356t-356 -240t-434 -87h-37v187h37q252 0 467 126t340 338q124 212 124 467v372h186v-372z" />
    <glyph glyph-name="lightarcuprightbxd" unicode="&#x2570;" horiz-adv-x="2048" 
d="M931 1955h186v-372q0 -249 127 -466t339 -342q213 -125 465 -123h37v-187h-37q-231 0 -435 88q-203 87 -355 239t-240 356t-87 435v372z" />
    <glyph glyph-name="lightdiaguprightdnleftbxd" unicode="&#x2571;" horiz-adv-x="2048" 
d="M2048 1583v-133l-1916 -1915h-132v132l1916 1916h132z" />
    <glyph glyph-name="lightdiagupleftdnrightbxd" unicode="&#x2572;" horiz-adv-x="2048" 
d="M2048 -465h-132l-1916 1915v133h132l1916 -1916v-132z" />
    <glyph glyph-name="lightdiagcrossbxd" unicode="&#x2573;" horiz-adv-x="2048" 
d="M0 1583h132l892 -892l892 892h132v-133l-892 -891l892 -892v-132h-132l-892 891l-892 -891h-132v132l892 892l-892 891v133z" />
    <glyph glyph-name="lightleftbxd" unicode="&#x2574;" horiz-adv-x="2048" 
d="M-37 652h1154v-187h-1154v187z" />
    <glyph glyph-name="lightupbxd" unicode="&#x2575;" horiz-adv-x="2048" 
d="M931 1955h186v-1490h-186v1490z" />
    <glyph glyph-name="lightrightbxd" unicode="&#x2576;" horiz-adv-x="2048" 
d="M931 652h1154v-187h-1154v187z" />
    <glyph glyph-name="lightdnbxd" unicode="&#x2577;" horiz-adv-x="2048" 
d="M931 652h186v-1490h-186v1490z" />
    <glyph glyph-name="heavyleftbxd" unicode="&#x2578;" horiz-adv-x="2048" 
d="M-37 745h1154v-373h-1154v373z" />
    <glyph glyph-name="heavyupbxd" unicode="&#x2579;" horiz-adv-x="2048" 
d="M838 1955h372v-1490h-372v1490z" />
    <glyph glyph-name="heavyrightbxd" unicode="&#x257a;" horiz-adv-x="2048" 
d="M931 745h1154v-373h-1154v373z" />
    <glyph glyph-name="heavydnbxd" unicode="&#x257b;" horiz-adv-x="2048" 
d="M838 652h372v-1490h-372v1490z" />
    <glyph glyph-name="lightleftheavyrightbxd" unicode="&#x257c;" horiz-adv-x="2048" 
d="M-37 652h968v93h1154v-373h-1154v93h-968v187z" />
    <glyph glyph-name="lightupheavydnbxd" unicode="&#x257d;" horiz-adv-x="2048" 
d="M838 652h93v1303h186v-1303h93v-1490h-372v1490z" />
    <glyph glyph-name="heavyleftlightrightbxd" unicode="&#x257e;" horiz-adv-x="2048" 
d="M-37 745h1154v-93h968v-187h-968v-93h-1154v373z" />
    <glyph glyph-name="heavyuplightdnbxd" unicode="&#x257f;" horiz-adv-x="2048" 
d="M838 1955h372v-1490h-93v-1303h-186v1303h-93v1490z" />
    <glyph glyph-name="uphalfblock" unicode="&#x2580;" horiz-adv-x="2048" 
d="M0 1583h2048v-1024h-2048v1024z" />
    <glyph glyph-name="dneighthblock" unicode="&#x2581;" horiz-adv-x="2048" 
d="M0 -210h2048v-255h-2048v255z" />
    <glyph glyph-name="dnquarterblock" unicode="&#x2582;" horiz-adv-x="2048" 
d="M0 47h2048v-512h-2048v512z" />
    <glyph glyph-name="dnthreeeighthsblock" unicode="&#x2583;" horiz-adv-x="2048" 
d="M0 302h2048v-767h-2048v767z" />
    <glyph glyph-name="dnhalfblock" unicode="&#x2584;" horiz-adv-x="2048" 
d="M0 559h2048v-1024h-2048v1024z" />
    <glyph glyph-name="dnfiveeighthsblock" unicode="&#x2585;" horiz-adv-x="2048" 
d="M0 814h2048v-1279h-2048v1279z" />
    <glyph glyph-name="dnthreequartersblock" unicode="&#x2586;" horiz-adv-x="2048" 
d="M0 1071h2048v-1536h-2048v1536z" />
    <glyph glyph-name="dnseveneighthsblock" unicode="&#x2587;" horiz-adv-x="2048" 
d="M0 1326h2048v-1791h-2048v1791z" />
    <glyph glyph-name="fullblock" unicode="&#x2588;" horiz-adv-x="2048" 
d="M0 1583h2048v-2048h-2048v2048z" />
    <glyph glyph-name="leftseveneighthsblock" unicode="&#x2589;" horiz-adv-x="2048" 
d="M0 1583h1791v-2048h-1791v2048z" />
    <glyph glyph-name="leftthreequartersblock" unicode="&#x258a;" horiz-adv-x="2048" 
d="M0 1583h1536v-2048h-1536v2048z" />
    <glyph glyph-name="leftfiveeighthsblock" unicode="&#x258b;" horiz-adv-x="2048" 
d="M0 1583h1279v-2048h-1279v2048z" />
    <glyph glyph-name="lefthalfblock" unicode="&#x258c;" horiz-adv-x="2048" 
d="M0 1583h1024v-2048h-1024v2048z" />
    <glyph glyph-name="leftthreeeighthsblock" unicode="&#x258d;" horiz-adv-x="2048" 
d="M0 1583h767v-2048h-767v2048z" />
    <glyph glyph-name="leftquarterblock" unicode="&#x258e;" horiz-adv-x="2048" 
d="M0 1583h512v-2048h-512v2048z" />
    <glyph glyph-name="lefteighthblock" unicode="&#x258f;" horiz-adv-x="2048" 
d="M0 1583h255v-2048h-255v2048z" />
    <glyph glyph-name="righthalfblock" unicode="&#x2590;" horiz-adv-x="2048" 
d="M1024 1583h1024v-2048h-1024v2048z" />
    <glyph glyph-name="lightshade" unicode="&#x2591;" horiz-adv-x="2048" 
d="M1955 1545h37v-56h-37v56zM1862 1452h37v-56h-37v56zM1955 1359h37v-56h-37v56zM1862 1266h37v-56h-37v56zM1955 1173h37v-56h-37v56zM1862 1080h37v-56h-37v56zM1955 987h37v-56h-37v56zM1862 894h37v-56h-37v56zM1955 801h37v-56h-37v56zM1862 707h37v-55h-37v55z
M1955 614h37v-55h-37v55zM1862 521h37v-56h-37v56zM1955 428h37v-56h-37v56zM1862 335h37v-56h-37v56zM1955 242h37v-56h-37v56zM1862 149h37v-56h-37v56zM1955 56h37v-56h-37v56zM1862 -37h37v-56h-37v56zM1955 -130h37v-56h-37v56zM1862 -223h37v-56h-37v56zM1955 -317h37
v-55h-37v55zM1862 -410h37v-55h-37v55zM1769 1545h37v-56h-37v56zM1676 1452h37v-56h-37v56zM1769 1359h37v-56h-37v56zM1676 1266h37v-56h-37v56zM1769 1173h37v-56h-37v56zM1676 1080h37v-56h-37v56zM1769 987h37v-56h-37v56zM1676 894h37v-56h-37v56zM1769 801h37v-56
h-37v56zM1676 707h37v-55h-37v55zM1769 614h37v-55h-37v55zM1676 521h37v-56h-37v56zM1769 428h37v-56h-37v56zM1676 335h37v-56h-37v56zM1769 242h37v-56h-37v56zM1676 149h37v-56h-37v56zM1769 56h37v-56h-37v56zM1676 -37h37v-56h-37v56zM1769 -130h37v-56h-37v56z
M1676 -223h37v-56h-37v56zM1769 -317h37v-55h-37v55zM1676 -410h37v-55h-37v55zM1583 1545h37v-56h-37v56zM1489 1452h38v-56h-38v56zM1583 1359h37v-56h-37v56zM1489 1266h38v-56h-38v56zM1583 1173h37v-56h-37v56zM1489 1080h38v-56h-38v56zM1583 987h37v-56h-37v56z
M1489 894h38v-56h-38v56zM1583 801h37v-56h-37v56zM1489 707h38v-55h-38v55zM1583 614h37v-55h-37v55zM1489 521h38v-56h-38v56zM1583 428h37v-56h-37v56zM1489 335h38v-56h-38v56zM1583 242h37v-56h-37v56zM1489 149h38v-56h-38v56zM1583 56h37v-56h-37v56zM1489 -37h38
v-56h-38v56zM1583 -130h37v-56h-37v56zM1489 -223h38v-56h-38v56zM1583 -317h37v-55h-37v55zM1489 -410h38v-55h-38v55zM1396 1545h38v-56h-38v56zM1303 1452h38v-56h-38v56zM1396 1359h38v-56h-38v56zM1303 1266h38v-56h-38v56zM1396 1173h38v-56h-38v56zM1303 1080h38v-56
h-38v56zM1396 987h38v-56h-38v56zM1303 894h38v-56h-38v56zM1396 801h38v-56h-38v56zM1303 707h38v-55h-38v55zM1396 614h38v-55h-38v55zM1303 521h38v-56h-38v56zM1396 428h38v-56h-38v56zM1303 335h38v-56h-38v56zM1396 242h38v-56h-38v56zM1303 149h38v-56h-38v56z
M1396 56h38v-56h-38v56zM1303 -37h38v-56h-38v56zM1396 -130h38v-56h-38v56zM1303 -223h38v-56h-38v56zM1396 -317h38v-55h-38v55zM1303 -410h38v-55h-38v55zM1210 1545h37v-56h-37v56zM1117 1452h37v-56h-37v56zM1210 1359h37v-56h-37v56zM1117 1266h37v-56h-37v56z
M1210 1173h37v-56h-37v56zM1117 1080h37v-56h-37v56zM1210 987h37v-56h-37v56zM1117 894h37v-56h-37v56zM1210 801h37v-56h-37v56zM1117 707h37v-55h-37v55zM1210 614h37v-55h-37v55zM1117 521h37v-56h-37v56zM1210 428h37v-56h-37v56zM1117 335h37v-56h-37v56zM1210 242h37
v-56h-37v56zM1117 149h37v-56h-37v56zM1210 56h37v-56h-37v56zM1117 -37h37v-56h-37v56zM1210 -130h37v-56h-37v56zM1117 -223h37v-56h-37v56zM1210 -317h37v-55h-37v55zM1117 -410h37v-55h-37v55zM1024 1545h37v-56h-37v56zM931 1452h37v-56h-37v56zM1024 1359h37v-56h-37
v56zM931 1266h37v-56h-37v56zM1024 1173h37v-56h-37v56zM931 1080h37v-56h-37v56zM1024 987h37v-56h-37v56zM931 894h37v-56h-37v56zM1024 801h37v-56h-37v56zM931 707h37v-55h-37v55zM1024 614h37v-55h-37v55zM931 521h37v-56h-37v56zM1024 428h37v-56h-37v56zM931 335h37
v-56h-37v56zM1024 242h37v-56h-37v56zM931 149h37v-56h-37v56zM1024 56h37v-56h-37v56zM931 -37h37v-56h-37v56zM1024 -130h37v-56h-37v56zM931 -223h37v-56h-37v56zM1024 -317h37v-55h-37v55zM931 -410h37v-55h-37v55zM838 1545h37v-56h-37v56zM745 1452h37v-56h-37v56z
M838 1359h37v-56h-37v56zM745 1266h37v-56h-37v56zM838 1173h37v-56h-37v56zM745 1080h37v-56h-37v56zM838 987h37v-56h-37v56zM745 894h37v-56h-37v56zM838 801h37v-56h-37v56zM745 707h37v-55h-37v55zM838 614h37v-55h-37v55zM745 521h37v-56h-37v56zM838 428h37v-56h-37
v56zM745 335h37v-56h-37v56zM838 242h37v-56h-37v56zM745 149h37v-56h-37v56zM838 56h37v-56h-37v56zM745 -37h37v-56h-37v56zM838 -130h37v-56h-37v56zM745 -223h37v-56h-37v56zM838 -317h37v-55h-37v55zM745 -410h37v-55h-37v55zM652 1545h37v-56h-37v56zM559 1452h37v-56
h-37v56zM652 1359h37v-56h-37v56zM559 1266h37v-56h-37v56zM652 1173h37v-56h-37v56zM559 1080h37v-56h-37v56zM652 987h37v-56h-37v56zM559 894h37v-56h-37v56zM652 801h37v-56h-37v56zM559 707h37v-55h-37v55zM652 614h37v-55h-37v55zM559 521h37v-56h-37v56zM652 428h37
v-56h-37v56zM559 335h37v-56h-37v56zM652 242h37v-56h-37v56zM559 149h37v-56h-37v56zM652 56h37v-56h-37v56zM559 -37h37v-56h-37v56zM652 -130h37v-56h-37v56zM559 -223h37v-56h-37v56zM652 -317h37v-55h-37v55zM559 -410h37v-55h-37v55zM465 1545h38v-56h-38v56z
M372 1452h38v-56h-38v56zM465 1359h38v-56h-38v56zM372 1266h38v-56h-38v56zM465 1173h38v-56h-38v56zM372 1080h38v-56h-38v56zM465 987h38v-56h-38v56zM372 894h38v-56h-38v56zM465 801h38v-56h-38v56zM372 707h38v-55h-38v55zM465 614h38v-55h-38v55zM372 521h38v-56h-38
v56zM465 428h38v-56h-38v56zM372 335h38v-56h-38v56zM465 242h38v-56h-38v56zM372 149h38v-56h-38v56zM465 56h38v-56h-38v56zM372 -37h38v-56h-38v56zM465 -130h38v-56h-38v56zM372 -223h38v-56h-38v56zM465 -317h38v-55h-38v55zM372 -410h38v-55h-38v55zM279 1545h38v-56
h-38v56zM186 1452h37v-56h-37v56zM279 1359h38v-56h-38v56zM186 1266h37v-56h-37v56zM279 1173h38v-56h-38v56zM186 1080h37v-56h-37v56zM279 987h38v-56h-38v56zM186 894h37v-56h-37v56zM279 801h38v-56h-38v56zM186 707h37v-55h-37v55zM279 614h38v-55h-38v55zM186 521h37
v-56h-37v56zM279 428h38v-56h-38v56zM186 335h37v-56h-37v56zM279 242h38v-56h-38v56zM186 149h37v-56h-37v56zM279 56h38v-56h-38v56zM186 -37h37v-56h-37v56zM279 -130h38v-56h-38v56zM186 -223h37v-56h-37v56zM279 -317h38v-55h-38v55zM186 -410h37v-55h-37v55zM93 1545
h37v-56h-37v56zM0 1452h37v-56h-37v56zM93 1359h37v-56h-37v56zM0 1266h37v-56h-37v56zM93 1173h37v-56h-37v56zM0 1080h37v-56h-37v56zM93 987h37v-56h-37v56zM0 894h37v-56h-37v56zM93 801h37v-56h-37v56zM0 707h37v-55h-37v55zM93 614h37v-55h-37v55zM0 521h37v-56h-37
v56zM93 428h37v-56h-37v56zM0 335h37v-56h-37v56zM93 242h37v-56h-37v56zM0 149h37v-56h-37v56zM93 56h37v-56h-37v56zM0 -37h37v-56h-37v56zM93 -130h37v-56h-37v56zM0 -223h37v-56h-37v56zM93 -317h37v-55h-37v55zM0 -410h37v-55h-37v55z" />
    <glyph glyph-name="mediumshade" unicode="&#x2592;" horiz-adv-x="2048" 
d="M1955 1583h74v-94h-74v94zM1862 1489h74v-93h-74v93zM1955 1396h74v-93h-74v93zM1862 1303h74v-93h-74v93zM1955 1210h74v-93h-74v93zM1862 1117h74v-93h-74v93zM1955 1024h74v-93h-74v93zM1862 931h74v-93h-74v93zM1955 838h74v-93h-74v93zM1862 745h74v-93h-74v93z
M1955 652h74v-93h-74v93zM1862 559h74v-94h-74v94zM1955 465h74v-93h-74v93zM1862 372h74v-93h-74v93zM1955 279h74v-93h-74v93zM1862 186h74v-93h-74v93zM1955 93h74v-93h-74v93zM1862 0h74v-93h-74v93zM1955 -93h74v-93h-74v93zM1862 -186h74v-93h-74v93zM1955 -279h74
v-93h-74v93zM1862 -372h74v-93h-74v93zM1769 1583h74v-94h-74v94zM1676 1489h74v-93h-74v93zM1769 1396h74v-93h-74v93zM1676 1303h74v-93h-74v93zM1769 1210h74v-93h-74v93zM1676 1117h74v-93h-74v93zM1769 1024h74v-93h-74v93zM1676 931h74v-93h-74v93zM1769 838h74v-93
h-74v93zM1676 745h74v-93h-74v93zM1769 652h74v-93h-74v93zM1676 559h74v-94h-74v94zM1769 465h74v-93h-74v93zM1676 372h74v-93h-74v93zM1769 279h74v-93h-74v93zM1676 186h74v-93h-74v93zM1769 93h74v-93h-74v93zM1676 0h74v-93h-74v93zM1769 -93h74v-93h-74v93z
M1676 -186h74v-93h-74v93zM1769 -279h74v-93h-74v93zM1676 -372h74v-93h-74v93zM1583 1583h74v-94h-74v94zM1489 1489h75v-93h-75v93zM1583 1396h74v-93h-74v93zM1489 1303h75v-93h-75v93zM1583 1210h74v-93h-74v93zM1489 1117h75v-93h-75v93zM1583 1024h74v-93h-74v93z
M1489 931h75v-93h-75v93zM1583 838h74v-93h-74v93zM1489 745h75v-93h-75v93zM1583 652h74v-93h-74v93zM1489 559h75v-94h-75v94zM1583 465h74v-93h-74v93zM1489 372h75v-93h-75v93zM1583 279h74v-93h-74v93zM1489 186h75v-93h-75v93zM1583 93h74v-93h-74v93zM1489 0h75v-93
h-75v93zM1583 -93h74v-93h-74v93zM1489 -186h75v-93h-75v93zM1583 -279h74v-93h-74v93zM1489 -372h75v-93h-75v93zM1396 1583h75v-94h-75v94zM1303 1489h75v-93h-75v93zM1396 1396h75v-93h-75v93zM1303 1303h75v-93h-75v93zM1396 1210h75v-93h-75v93zM1303 1117h75v-93h-75
v93zM1396 1024h75v-93h-75v93zM1303 931h75v-93h-75v93zM1396 838h75v-93h-75v93zM1303 745h75v-93h-75v93zM1396 652h75v-93h-75v93zM1303 559h75v-94h-75v94zM1396 465h75v-93h-75v93zM1303 372h75v-93h-75v93zM1396 279h75v-93h-75v93zM1303 186h75v-93h-75v93zM1396 93
h75v-93h-75v93zM1303 0h75v-93h-75v93zM1396 -93h75v-93h-75v93zM1303 -186h75v-93h-75v93zM1396 -279h75v-93h-75v93zM1303 -372h75v-93h-75v93zM1210 1583h75v-94h-75v94zM1117 1489h75v-93h-75v93zM1210 1396h75v-93h-75v93zM1117 1303h75v-93h-75v93zM1210 1210h75v-93
h-75v93zM1117 1117h75v-93h-75v93zM1210 1024h75v-93h-75v93zM1117 931h75v-93h-75v93zM1210 838h75v-93h-75v93zM1117 745h75v-93h-75v93zM1210 652h75v-93h-75v93zM1117 559h75v-94h-75v94zM1210 465h75v-93h-75v93zM1117 372h75v-93h-75v93zM1210 279h75v-93h-75v93z
M1117 186h75v-93h-75v93zM1210 93h75v-93h-75v93zM1117 0h75v-93h-75v93zM1210 -93h75v-93h-75v93zM1117 -186h75v-93h-75v93zM1210 -279h75v-93h-75v93zM1117 -372h75v-93h-75v93zM1024 1583h74v-94h-74v94zM931 1489h74v-93h-74v93zM1024 1396h74v-93h-74v93zM931 1303h74
v-93h-74v93zM1024 1210h74v-93h-74v93zM931 1117h74v-93h-74v93zM1024 1024h74v-93h-74v93zM931 931h74v-93h-74v93zM1024 838h74v-93h-74v93zM931 745h74v-93h-74v93zM1024 652h74v-93h-74v93zM931 559h74v-94h-74v94zM1024 465h74v-93h-74v93zM931 372h74v-93h-74v93z
M1024 279h74v-93h-74v93zM931 186h74v-93h-74v93zM1024 93h74v-93h-74v93zM931 0h74v-93h-74v93zM1024 -93h74v-93h-74v93zM931 -186h74v-93h-74v93zM1024 -279h74v-93h-74v93zM931 -372h74v-93h-74v93zM838 1583h74v-94h-74v94zM745 1489h74v-93h-74v93zM838 1396h74v-93
h-74v93zM745 1303h74v-93h-74v93zM838 1210h74v-93h-74v93zM745 1117h74v-93h-74v93zM838 1024h74v-93h-74v93zM745 931h74v-93h-74v93zM838 838h74v-93h-74v93zM745 745h74v-93h-74v93zM838 652h74v-93h-74v93zM745 559h74v-94h-74v94zM838 465h74v-93h-74v93zM745 372h74
v-93h-74v93zM838 279h74v-93h-74v93zM745 186h74v-93h-74v93zM838 93h74v-93h-74v93zM745 0h74v-93h-74v93zM838 -93h74v-93h-74v93zM745 -186h74v-93h-74v93zM838 -279h74v-93h-74v93zM745 -372h74v-93h-74v93zM652 1583h74v-94h-74v94zM559 1489h74v-93h-74v93zM652 1396
h74v-93h-74v93zM559 1303h74v-93h-74v93zM652 1210h74v-93h-74v93zM559 1117h74v-93h-74v93zM652 1024h74v-93h-74v93zM559 931h74v-93h-74v93zM652 838h74v-93h-74v93zM559 745h74v-93h-74v93zM652 652h74v-93h-74v93zM559 559h74v-94h-74v94zM652 465h74v-93h-74v93z
M559 372h74v-93h-74v93zM652 279h74v-93h-74v93zM559 186h74v-93h-74v93zM652 93h74v-93h-74v93zM559 0h74v-93h-74v93zM652 -93h74v-93h-74v93zM559 -186h74v-93h-74v93zM652 -279h74v-93h-74v93zM559 -372h74v-93h-74v93zM465 1583h75v-94h-75v94zM372 1489h75v-93h-75v93
zM465 1396h75v-93h-75v93zM372 1303h75v-93h-75v93zM465 1210h75v-93h-75v93zM372 1117h75v-93h-75v93zM465 1024h75v-93h-75v93zM372 931h75v-93h-75v93zM465 838h75v-93h-75v93zM372 745h75v-93h-75v93zM465 652h75v-93h-75v93zM372 559h75v-94h-75v94zM465 465h75v-93
h-75v93zM372 372h75v-93h-75v93zM465 279h75v-93h-75v93zM372 186h75v-93h-75v93zM465 93h75v-93h-75v93zM372 0h75v-93h-75v93zM465 -93h75v-93h-75v93zM372 -186h75v-93h-75v93zM465 -279h75v-93h-75v93zM372 -372h75v-93h-75v93zM279 1583h75v-94h-75v94zM186 1489h75
v-93h-75v93zM279 1396h75v-93h-75v93zM186 1303h75v-93h-75v93zM279 1210h75v-93h-75v93zM186 1117h75v-93h-75v93zM279 1024h75v-93h-75v93zM186 931h75v-93h-75v93zM279 838h75v-93h-75v93zM186 745h75v-93h-75v93zM279 652h75v-93h-75v93zM186 559h75v-94h-75v94z
M279 465h75v-93h-75v93zM186 372h75v-93h-75v93zM279 279h75v-93h-75v93zM186 186h75v-93h-75v93zM279 93h75v-93h-75v93zM186 0h75v-93h-75v93zM279 -93h75v-93h-75v93zM186 -186h75v-93h-75v93zM279 -279h75v-93h-75v93zM186 -372h75v-93h-75v93zM93 1583h75v-94h-75v94z
M0 1489h74v-93h-74v93zM93 1396h75v-93h-75v93zM0 1303h74v-93h-74v93zM93 1210h75v-93h-75v93zM0 1117h74v-93h-74v93zM93 1024h75v-93h-75v93zM0 931h74v-93h-74v93zM93 838h75v-93h-75v93zM0 745h74v-93h-74v93zM93 652h75v-93h-75v93zM0 559h74v-94h-74v94zM93 465h75
v-93h-75v93zM0 372h74v-93h-74v93zM93 279h75v-93h-75v93zM0 186h74v-93h-74v93zM93 93h75v-93h-75v93zM0 0h74v-93h-74v93zM93 -93h75v-93h-75v93zM0 -186h74v-93h-74v93zM93 -279h75v-93h-75v93zM0 -372h74v-93h-74v93z" />
    </font>
</defs>
</svg>
