<?xml version="1.0" standalone="no"?>
<!DOCTYPE svg PUBLIC "-//W3C//DTD SVG 1.1//EN" "http://www.w3.org/Graphics/SVG/1.1/DTD/svg11.dtd" >
<svg xmlns="http://www.w3.org/2000/svg">
<metadata>
Created by FontPrep 20130207 at Mon Oct 19 19:59:23 2015
 By Callum Flack
(c) Copyright The Font Bureau, Inc. 2014. All rights reserved.
</metadata>
<defs>
<font id="80919ba43bde739573c1cad793d5d727" horiz-adv-x='1024' >
  <font-face 
    font-family="InputSansCompressed-Light"
    font-weight="300"
    font-stretch="extra-condensed"
    units-per-em="2048"
    panose-1="2 0 4 6 2 0 0 9 0 4"
    ascent="1583"
    descent="-465"
    x-height="1117"
    cap-height="1489"
    bbox="-326 -838 2085 2607"
    underline-thickness="0"
    underline-position="0"
    unicode-range="U+000D-1F41B"
  />
<missing-glyph horiz-adv-x="1202" 
d="M251 -307h700v1731h-700v-1731zM93 -465v2048h1017v-2048h-1017z" />
    <glyph glyph-name=".notdef" horiz-adv-x="1202" 
d="M251 -307h700v1731h-700v-1731zM93 -465v2048h1017v-2048h-1017z" />
    <glyph glyph-name=".null" horiz-adv-x="0" 
 />
    <glyph glyph-name="nonmarkingreturn" unicode="&#xd;" horiz-adv-x="0" 
 />
    <glyph glyph-name="NULL" horiz-adv-x="0" 
 />
    <glyph glyph-name="space" unicode="&#xa0;" horiz-adv-x="863" 
 />
    <glyph glyph-name="space" unicode=" " horiz-adv-x="863" 
 />
    <glyph glyph-name="exclam" unicode="!" horiz-adv-x="1033" 
d="M672 138q0 -157 -104 -157t-137 38.5t-33 118.5v52q0 82 33 121t137 39t104 -160v-52zM477 559l-43 930h199l-43 -930h-113z" />
    <glyph glyph-name="quotedbl" unicode="&#x22;" horiz-adv-x="1260" 
d="M346 776l-41 713h227l-42 -713h-144zM771 776l-41 713h225l-41 -713h-143z" />
    <glyph glyph-name="numbersign" unicode="#" horiz-adv-x="1342" 
d="M181 391v141h255l15 425h-270v141h275l15 391h130l-16 -391h197l15 391h130l-15 -391h252v-141h-257l-15 -425h272v-141h-278l-15 -391h-130l15 391h-196l-14 -391h-131l15 391h-249zM761 532l15 425h-195l-15 -425h195z" />
    <glyph glyph-name="dollar" unicode="$" 
d="M182 1065q0 312 293 335v183h115v-187q161 -15 265 -95l-43 -130q-107 76 -237 91v-460q179 -71 247 -154.5t68 -226.5t-77.5 -232.5t-222.5 -100.5v-181h-115v182q-191 15 -302 120l41 119q118 -98 276 -116v477q-173 67 -240.5 151.5t-67.5 224.5zM761 404
q0 95 -37 148t-149 103v-448q88 2 137 52t49 145zM311 1086q0 -94 35.5 -148t143.5 -102v432q-95 -4 -137 -46t-42 -136z" />
    <glyph glyph-name="percent" unicode="%" horiz-adv-x="1651" 
d="M1097 277q0 -171 119 -171q52 0 84.5 41t32.5 130v164q0 89 -32.5 132t-84.5 43q-119 0 -119 -175v-164zM1215 -22q-111 0 -180 76t-69 238v136q0 162 70 239.5t181 77.5t178 -77.5t67 -239.5v-136q0 -162 -68 -238t-179 -76zM439 864q118 0 118 169v172q0 89 -32 132
t-85 43t-85.5 -43t-32.5 -132v-172q0 -89 32.5 -129t84.5 -40zM406 0l698 1489h143l-698 -1489h-143zM437 734q-110 0 -177.5 77t-67.5 237v142q0 164 69 241t178.5 77t177.5 -77t68 -241v-142q0 -160 -69 -237t-179 -77z" />
    <glyph glyph-name="ampersand" unicode="&#x26;" horiz-adv-x="1312" 
d="M313 432q0 -169 43.5 -235.5t129.5 -66.5q110 0 225 162q-171 185 -283 419q-115 -110 -115 -279zM726 1171q0 84 -37 136t-107 52q-130 0 -131 -238q0 -120 52 -270q223 122 223 320zM168 352q0 282 225 441q-86 212 -86 366t70.5 252.5t204.5 98.5t204 -84t70 -222
t-67.5 -238t-246.5 -205q75 -189 236 -374q94 165 166 408l127 -80q-47 -134 -110.5 -226t-118.5 -182l320 -164l-24 -143q-191 68 -345 210q-136 -229 -324 -229q-136 0 -218.5 91.5t-82.5 279.5z" />
    <glyph glyph-name="quotesingle" unicode="'" horiz-adv-x="1033" 
d="M447 776l-45 713h229l-45 -713h-139z" />
    <glyph glyph-name="parenleft" unicode="(" 
d="M320 558.5q0 385.5 126.5 630.5t365.5 319l15 -113q-173 -65 -267.5 -282t-94.5 -555t94 -558t268 -283l-15 -108q-238 74 -365 319t-127 630.5z" />
    <glyph glyph-name="parenright" unicode=")" 
d="M600 558q0 338 -94.5 554.5t-267.5 282.5l13 113q238 -74 366 -319t128 -630.5t-128 -630.5t-366 -319l-13 108q173 63 267.5 283t94.5 558z" />
    <glyph glyph-name="asterisk" unicode="*" horiz-adv-x="1312" 
d="M976 653l-276 248l39 -395h-169l41 393l-274 -246l-88 149l321 198l-321 197l88 149l274 -248l-41 391h169l-39 -391l276 248l85 -149l-320 -197l320 -198z" />
    <glyph glyph-name="plus" unicode="+" horiz-adv-x="1312" 
d="M585 0v577h-417v149h417v577h143v-577h417v-149h-417v-577h-143z" />
    <glyph glyph-name="comma" unicode="," horiz-adv-x="1033" 
d="M307 -404l125 715h279l-285 -715h-119z" />
    <glyph glyph-name="hyphen" unicode="&#x2011;" horiz-adv-x="1312" 
d="M236 577v144h840v-144h-840z" />
    <glyph glyph-name="hyphen" unicode="&#x2010;" horiz-adv-x="1312" 
d="M236 577v144h840v-144h-840z" />
    <glyph glyph-name="hyphen" unicode="&#xad;" horiz-adv-x="1312" 
d="M236 577v144h840v-144h-840z" />
    <glyph glyph-name="hyphen" unicode="-" horiz-adv-x="1312" 
d="M236 577v144h840v-144h-840z" />
    <glyph glyph-name="period" unicode="." horiz-adv-x="1033" 
d="M518 -19q-159 0 -159 157v31q0 86 44 123.5t114.5 37.5t113.5 -37.5t43 -123.5v-31q0 -84 -43.5 -120.5t-112.5 -36.5z" />
    <glyph glyph-name="slash" unicode="/" horiz-adv-x="1033" 
d="M166 -372l558 1861h144l-559 -1861h-143z" />
    <glyph glyph-name="zero" unicode="0" horiz-adv-x="1202" 
d="M700 728q0 -121 -99 -121q-45 0 -72.5 25t-27.5 96v32q0 121 99.5 121t99.5 -121v-32zM602 117q152 0 221 122t69 388v228q0 272 -69 394.5t-221 122.5t-221.5 -123t-69.5 -394v-228q0 -266 69.5 -388t221.5 -122zM602 -19q-215 0 -324.5 161t-109.5 471v256
q0 315 110.5 477t324.5 162t324 -162t110 -477v-256q0 -309 -110 -470.5t-325 -161.5z" />
    <glyph glyph-name="one" unicode="1" horiz-adv-x="1202" 
d="M292 0v130h308v1073h-28q-30 -106 -110 -172.5t-183 -79.5l-15 153q134 13 221.5 112.5t117.5 272.5h142v-1359h279v-130h-732z" />
    <glyph glyph-name="two" unicode="2" horiz-adv-x="1202" 
d="M181 0v320q0 177 63 275.5t201 134.5l274 74q76 20 111.5 74.5t35.5 154.5v84q0 138 -62.5 196.5t-202 58.5t-194.5 -72.5t-68 -277.5l-144 19q11 255 103.5 361t297.5 106t309 -93t104 -272v-138q0 -147 -61.5 -230.5t-195.5 -119.5l-275 -74q-80 -19 -115.5 -81
t-35.5 -176v-194h698v-130h-843z" />
    <glyph glyph-name="three" unicode="3" horiz-adv-x="1202" 
d="M1024 404q0 -423 -438 -423q-207 0 -308 99t-110 315l143 18q15 -184 71 -244.5t213 -60.5t220.5 62.5t63.5 229.5v51q0 158 -60.5 218.5t-217.5 60.5h-154v132h154q134 0 192 42t58 180v59q0 132 -68 185t-196.5 53t-183.5 -67t-64 -212l-144 19q9 201 103.5 294
t287.5 93q410 0 410 -376v-69q0 -110 -59.5 -170.5t-160.5 -67.5v-54q117 -13 182.5 -104.5t65.5 -208.5v-54z" />
    <glyph glyph-name="four" unicode="4" horiz-adv-x="1202" 
d="M1093 398h-209v-398h-145v398h-571v138l508 953h208v-953h209v-138zM739 536v771l-419 -771h419z" />
    <glyph glyph-name="five" unicode="5" horiz-adv-x="1202" 
d="M596 -19q-214 0 -317.5 98t-110.5 314l143 18q11 -169 73 -231.5t212 -62.5t216.5 64.5t66.5 209.5v89q0 145 -57 210.5t-185 65.5h-428v733h757v-135h-612v-453h298q184 0 278 -105t94 -310v-110q0 -194 -107 -294.5t-321 -100.5z" />
    <glyph glyph-name="six" unicode="6" horiz-adv-x="1202" 
d="M601 117q135 0 205.5 82t70.5 240v25q0 156 -71.5 236t-205.5 80t-204 -80t-70 -236v-25q0 -158 70 -240t205 -82zM630 929q191 0 292.5 -113.5t101.5 -327.5v-41q0 -227 -108 -346.5t-314 -119.5t-313.5 136t-107.5 397v497q0 244 107 370.5t306 126.5t295 -75.5
t122 -248.5l-156 -43q-22 130 -76.5 180.5t-192.5 50.5t-199 -82t-61 -279v-231h24q89 149 280 149z" />
    <glyph glyph-name="seven" unicode="7" horiz-adv-x="1202" 
d="M181 1335v154h843v-154q-205 -451 -283 -717t-123 -618h-158q74 447 152.5 706.5t266.5 628.5h-698z" />
    <glyph glyph-name="eight" unicode="8" horiz-adv-x="1202" 
d="M602 108q156 0 216.5 62.5t60.5 222.5v33q0 162 -60.5 224.5t-216.5 62.5t-216 -62.5t-60 -224.5v-33q0 -160 60 -222.5t216 -62.5zM601.5 851q139.5 0 194.5 52t55 186v54q0 134 -55 186t-194.5 52t-193.5 -52t-54 -186v-54q0 -134 54 -186t193.5 -52zM601.5 -19
q-210.5 0 -315.5 95t-105 302v41q0 164 52 245t167 94v54q-101 11 -146 80t-45 206v60q0 179 94 264.5t298.5 85.5t299.5 -85.5t95 -264.5v-60q0 -138 -46.5 -206.5t-147.5 -79.5v-54q115 -13 168.5 -94t53.5 -245v-41q0 -207 -106 -302t-316.5 -95z" />
    <glyph glyph-name="nine" unicode="9" horiz-adv-x="1202" 
d="M181 1002v41q0 227 107 346t313.5 119t314.5 -136t108 -396v-498q0 -249 -110 -373t-306 -124t-293 76.5t-121 247.5l156 43q19 -115 68.5 -173t189.5 -58t205.5 86.5t65.5 274.5v231h-23q-93 -149 -285 -149t-291 113t-99 329zM603.5 709q143.5 0 209.5 76.5t66 240.5
v24q0 168 -66 245t-209.5 77t-209.5 -77t-66 -245v-24q0 -164 66 -240.5t209.5 -76.5z" />
    <glyph glyph-name="colon" unicode=":" horiz-adv-x="1033" 
d="M674 125q0 -147 -157.5 -147t-157.5 147v67q0 80 45 114.5t114 34.5q156 0 156 -149v-67zM674 890q0 -145 -112.5 -145t-157.5 33.5t-45 111.5v67q0 80 45 116.5t114 36.5q156 0 156 -153v-67z" />
    <glyph glyph-name="semicolon" unicode=";" horiz-adv-x="1033" 
d="M307 -417l123 743h283l-289 -743h-117zM674 890q0 -145 -112.5 -145t-157.5 33.5t-45 111.5v67q0 80 45 116.5t114 36.5q156 0 156 -153v-67z" />
    <glyph glyph-name="less" unicode="&#x3c;" horiz-adv-x="1312" 
d="M1076 0l-838 586v131l838 586v-139l-728 -512l728 -512v-140z" />
    <glyph glyph-name="equal" unicode="=" horiz-adv-x="1312" 
d="M168 330v148h977v-148h-977zM168 825v149h977v-149h-977z" />
    <glyph glyph-name="greater" unicode="&#x3e;" horiz-adv-x="1312" 
d="M238 0v145l719 507l-719 506v145l838 -582v-138z" />
    <glyph glyph-name="question" unicode="?" horiz-adv-x="1452" 
d="M819 138q0 -157 -137.5 -157t-137.5 157v52q0 160 138 160t137 -160v-52zM743 1508q408 0 408 -395v-93q0 -171 -116 -260.5t-406 -145.5l-28 120q246 52 326 117t80 177v63q0 149 -62 215t-210 66t-202.5 -68t-65.5 -282l-145 19q11 266 102.5 366.5t318.5 100.5z" />
    <glyph glyph-name="at" unicode="@" horiz-adv-x="1377" 
d="M681 536q0 -197 157 -197q76 0 119 35.5t43 146.5v224q0 106 -45.5 153.5t-114.5 47.5q-159 0 -159 -205v-205zM821 -78q159 0 298 59v-126q-50 -22 -135 -41t-163 -19q-300 0 -449 158.5t-149 420.5v577q0 253 114.5 405t338.5 152t341 -148t117 -390v-449
q0 -320 -302 -320q-145 0 -215 83t-70 234v242q0 147 70 235.5t170 88.5t148 -95h55q-4 182 -81 286.5t-237 104.5q-304 0 -303 -429v-580q0 -214 105 -331.5t347 -117.5z" />
    <glyph glyph-name="A" unicode="A" horiz-adv-x="1172" 
d="M938 0l-124 460h-460l-125 -460h-147l430 1489h151l428 -1489h-153zM778 588l-195 719l-194 -719h389z" />
    <glyph glyph-name="B" unicode="B" horiz-adv-x="1202" 
d="M326 132h311q143 0 201.5 60.5t58.5 204.5v48q0 143 -58.5 202.5t-201.5 59.5h-311v-575zM326 842h285q134 0 189 54t55 182v41q0 128 -55 183t-189 55h-285v-515zM181 0v1489h437q175 0 277.5 -94t102.5 -256v-91q0 -86 -52 -150t-140 -83v-54q106 -13 170.5 -95.5
t64.5 -209.5v-80q0 -173 -110 -274.5t-304 -101.5h-446z" />
    <glyph glyph-name="C" unicode="C" horiz-adv-x="1202" 
d="M181 1005q0 503 437 503q203 0 313 -125.5t119 -367.5l-141 -19q-13 201 -81 291.5t-216 90.5t-217 -86.5t-69 -280.5v-540q0 -190 69 -274.5t217 -84.5t216 87.5t81 286.5l141 -19q-9 -238 -120 -362t-314 -124q-435 0 -435 496v528z" />
    <glyph glyph-name="D" unicode="D" horiz-adv-x="1202" 
d="M326 130h234q151 0 235 95t84 261v510q0 169 -84 266t-235 97h-234v-1229zM181 0v1489h381q216 0 339 -135t123 -360v-506q0 -222 -123 -355t-341 -133h-379z" />
    <glyph glyph-name="E" unicode="E" 
d="M181 0v1489h729v-130h-584v-476h514v-133h-514v-620h584v-130h-729z" />
    <glyph glyph-name="F" unicode="F" 
d="M181 0v1489h731v-130h-586v-646h488v-128h-488v-585h-145z" />
    <glyph glyph-name="G" unicode="G" horiz-adv-x="1202" 
d="M1050 501q0 -520 -428 -520q-216 0 -328.5 126t-112.5 370v528q0 249 108.5 376t322.5 127t310 -110.5t108 -356.5l-146 -19q-9 184 -75.5 270t-206.5 86t-208 -88.5t-68 -278.5v-540q0 -186 73.5 -272.5t224.5 -86.5t217 102.5t66 323.5h-306v130h449v-167z" />
    <glyph glyph-name="H" unicode="H" horiz-adv-x="1202" 
d="M181 0v1489h145v-620h553v620h145v-1489h-145v737h-553v-737h-145z" />
    <glyph glyph-name="I" unicode="I" 
d="M181 0v130h279v1229h-279v130h703v-130h-279v-1229h279v-130h-703z" />
    <glyph glyph-name="J" unicode="J" 
d="M504 -19q-188 0 -279 114t-100 365l145 20q9 -216 55.5 -292t172.5 -76t183.5 79t57.5 239v929h-281v130h426v-1050q0 -220 -96 -339t-284 -119z" />
    <glyph glyph-name="K" unicode="K" 
d="M326 735v-735h-145v1489h145v-623h46l429 623h165l-484 -683l481 -806h-174l-413 735h-50z" />
    <glyph glyph-name="L" unicode="L" horiz-adv-x="923" 
d="M181 0v1489h145v-1359h501v-130h-646z" />
    <glyph glyph-name="M" unicode="M" horiz-adv-x="1342" 
d="M317 0h-136v1489h214l281 -970l283 970h205v-1489h-136v1309l-270 -937h-172l-269 924v-1296z" />
    <glyph glyph-name="N" unicode="N" horiz-adv-x="1202" 
d="M317 0h-136v1489h201l506 -1264v1264h136v-1489h-209l-498 1272v-1272z" />
    <glyph glyph-name="O" unicode="O" horiz-adv-x="1202" 
d="M602 112q144 0 210.5 91t66.5 290v518q0 190 -66.5 278.5t-210.5 88.5t-210 -88.5t-66 -278.5v-518q0 -199 66 -290t210 -91zM602 -19q-208 0 -314.5 130.5t-106.5 387.5v506q0 249 107.5 376t313.5 127t314 -126.5t108 -376.5v-506q0 -257 -107 -387.5t-315 -130.5z" />
    <glyph glyph-name="P" unicode="P" 
d="M326 670h225q119 0 175 62.5t56 189.5v190q0 128 -56 187.5t-175 59.5h-225v-689zM925 933q0 -387 -372 -387h-227v-546h-145v1489h372q372 0 372 -381v-175z" />
    <glyph glyph-name="Q" unicode="Q" horiz-adv-x="1202" 
d="M602 99q144 0 210.5 85.5t66.5 269.5v557q0 190 -66.5 278.5t-210.5 88.5t-210 -88.5t-66 -278.5v-557q0 -184 66 -269.5t210 -85.5zM181 458v547q0 246 108.5 374.5t313.5 128.5t313 -128.5t108 -374.5v-547q0 -203 -76.5 -325t-221.5 -157q11 -127 64 -167t107 -40
t101 11l22 -124q-71 -15 -128 -13q-119 -2 -209.5 66t-99.5 250q-195 7 -298.5 135t-103.5 364z" />
    <glyph glyph-name="R" unicode="R" horiz-adv-x="1202" 
d="M326 0h-145v1489h502q166 0 252.5 -98.5t86.5 -286.5v-112q0 -173 -70.5 -274.5t-204.5 -119.5l290 -598h-166l-288 596h-257v-596zM879 1108q0 251 -209 251h-344v-637h344q209 0 209 270v116z" />
    <glyph glyph-name="S" unicode="S" horiz-adv-x="1202" 
d="M348 1140q0 -102 67 -162t268 -148t277.5 -179t76.5 -230q0 -199 -116 -313.5t-308 -114.5q-123 0 -237.5 46.5t-187.5 115.5l52 119q169 -153 387 -153q125 0 196 71.5t71 186.5t-62 176t-266 154t-283.5 188t-79.5 251t103.5 250.5t283.5 94.5q108 0 217 -49t176 -117
l-50 -124q-173 160 -354 160q-108 0 -169.5 -60.5t-61.5 -162.5z" />
    <glyph glyph-name="T" unicode="T" 
d="M460 0v1359h-348v130h841v-130h-348v-1359h-145z" />
    <glyph glyph-name="U" unicode="U" horiz-adv-x="1202" 
d="M602 -19q-208 0 -314.5 126t-106.5 371v1011h145v-1027q0 -186 65 -271t210.5 -85t211.5 85t66 271v1027h145v-1011q0 -246 -107 -371.5t-315 -125.5z" />
    <glyph glyph-name="V" unicode="V" horiz-adv-x="1172" 
d="M665 0h-155l-428 1489h156l352 -1282l350 1282h151z" />
    <glyph glyph-name="W" unicode="W" horiz-adv-x="1372" 
d="M892 0l-207 855l-203 -855h-171l-209 1489h146l163 -1295l200 888h160l197 -892l170 1299h134l-207 -1489h-173z" />
    <glyph glyph-name="X" unicode="X" horiz-adv-x="1202" 
d="M899 0l-296 618l-296 -618h-169l391 761l-354 728h164l281 -586l281 586h166l-373 -728l371 -761h-166z" />
    <glyph glyph-name="Y" unicode="Y" 
d="M605 0h-145v559l-399 930h161l316 -789l307 789h157l-397 -930v-559z" />
    <glyph glyph-name="Z" unicode="Z" horiz-adv-x="1202" 
d="M1022 0h-840v130l669 1229h-669v130h840v-130l-685 -1229h685v-130z" />
    <glyph glyph-name="bracketleft" unicode="[" 
d="M320 -372v1861h494v-135h-349v-1620h349v-106h-494z" />
    <glyph glyph-name="backslash" unicode="\" horiz-adv-x="1033" 
d="M724 -372l-558 1861h143l559 -1861h-144z" />
    <glyph glyph-name="bracketright" unicode="]" 
d="M251 -372v106h349v1620h-349v135h494v-1861h-494z" />
    <glyph glyph-name="asciicircum" unicode="^" horiz-adv-x="1342" 
d="M1026 372l-354 955l-354 -955h-137l419 1117h145l419 -1117h-138z" />
    <glyph glyph-name="underscore" unicode="_" horiz-adv-x="1312" 
d="M168 -372v143h977v-143h-977z" />
    <glyph glyph-name="grave" unicode="`" horiz-adv-x="1033" 
d="M579 776l-315 713h282l152 -713h-119z" />
    <glyph glyph-name="a" unicode="a" horiz-adv-x="1202" 
d="M542 1136q147 0 244 -75.5t97 -230.5v-582q0 -82 38 -110t129 -4v-143q-123 -19 -181.5 26.5t-66.5 150.5h-27q-34 -80 -119.5 -133.5t-203.5 -53.5t-194 85t-76 230t79.5 230t211.5 85h268v191q0 86 -49.5 144.5t-149.5 58.5t-148 -47.5t-72 -175.5l-121 45
q48 309 341 309zM318 307q0 -186 168 -186q175 0 255 168v197h-248q-80 0 -127.5 -39t-47.5 -140z" />
    <glyph glyph-name="b" unicode="b" 
d="M512 110q121 0 174 64t53 200v380q0 123 -40 180.5t-123 57.5t-141.5 -46.5t-108.5 -144.5v-632q65 -59 186 -59zM521 -22q-218 0 -340 111v1400h145v-513h41q28 74 94 117t155 43q128 0 198 -103.5t70 -287.5v-374q0 -186 -96 -289.5t-267 -103.5z" />
    <glyph glyph-name="c" unicode="c" 
d="M326 357q0 -240 217 -240q109 0 159 48.5t56 151.5l141 -4q-9 -179 -93 -255.5t-255 -76.5q-370 0 -370 382v384q0 195 101.5 292t267.5 97t251 -89.5t98 -286.5l-141 -4q-4 127 -55 185.5t-161 58.5t-163 -61.5t-53 -191.5v-390z" />
    <glyph glyph-name="d" unicode="d" 
d="M542 1139q103 0 197 -55v405h145v-1489h-145v138h-41q-28 -74 -93 -115.5t-154 -41.5q-128 0 -199 102.5t-71 288.5v375q0 188 94 290t267 102zM544 1005q-218 0 -218 -262v-382q0 -121 39 -179.5t125 -58.5q157 0 249 190v614q-78 78 -195 78z" />
    <glyph glyph-name="e" unicode="e" 
d="M739 726q-1 274 -207 274t-206 -253v-90h413v69zM521 -19q-153 0 -246.5 100.5t-93.5 279.5v386q0 182 93 285.5t258.5 103.5t258.5 -108t93 -298v-198h-558v-175q0 -128 52 -185t156 -57t152 40t68 128l138 -45q-41 -140 -129.5 -198.5t-241.5 -58.5z" />
    <glyph glyph-name="f" unicode="f" horiz-adv-x="923" 
d="M465 1225v-108h280v-136h-280v-981h-145v981h-167v136h167v93q0 132 72.5 205.5t171.5 73.5q39 0 98 -15.5t96 -32.5l-28 -130q-85 37 -138 37q-127 0 -127 -123z" />
    <glyph glyph-name="g" unicode="g" horiz-adv-x="1202" 
d="M324 -89q0 -172 145 -172h283q63 0 102.5 36.5t39.5 118.5t-36.5 118t-92.5 36h-441v-137zM574 564q85 0 129.5 42t44.5 139v59q0 99 -43.5 140t-129 41t-129.5 -41t-44 -140v-59q0 -97 43.5 -139t128.5 -42zM400 430q-76 0 -76 -121t108 -121h316q117 0 196.5 -67
t79.5 -221t-84.5 -222.5t-204.5 -68.5h-264q-127 0 -208.5 63.5t-81.5 213.5q0 86 36 139t105 61v39q-50 7 -81.5 50t-31.5 124t37 145t128 72v33q-69 32 -93 93.5t-24 105.5v66q0 128 83 215.5t233 87.5h416v-156l-218 52v-37q56 -22 85.5 -81t29.5 -113v-61
q0 -125 -75.5 -208t-242.5 -83h-168z" />
    <glyph glyph-name="h" unicode="h" 
d="M577 992q-148 0 -251 -169v-823h-145v1489h145v-513h41q39 73 107 116.5t139 43.5q123 0 197 -94t74 -245v-797h-145v761q0 231 -162 231z" />
    <glyph glyph-name="i" unicode="i" horiz-adv-x="754" 
d="M305 0v1117h144v-1117h-144zM499 1428q-1 -56 -35 -76t-87 -19q-53 0 -87 20t-33 75v9q0 58 33 78q34 19 87 19t88 -19q34 -20 34 -78v-9z" />
    <glyph glyph-name="j" unicode="j" horiz-adv-x="783" 
d="M391 -26v1007h-279v136h422v-1154q0 -179 -84 -265q-86 -85 -201 -85q-79 0 -178 41l28 149q88 -43 149 -43t102 48t41 166zM581 1428q-1 -56 -35 -76t-87 -19q-53 0 -87 20t-33 75v9q0 58 33 78q34 19 87 19t87 -20t35 -77v-9z" />
    <glyph glyph-name="k" unicode="k" horiz-adv-x="923" 
d="M326 525v-525h-145v1489h145v-836h69l266 464h175l-333 -525l327 -592h-163l-272 525h-69z" />
    <glyph glyph-name="l" unicode="l" horiz-adv-x="783" 
d="M555 -6q-145 0 -224.5 100t-79.5 282v1113h144v-1115q0 -242 164 -242q42 0 98 28l28 -130q-72 -36 -130 -36z" />
    <glyph glyph-name="m" unicode="m" horiz-adv-x="1482" 
d="M326 0h-145v1117h145v-141h41q20 69 80.5 114.5t130.5 45.5t125 -44t85 -116h61q20 69 81.5 114.5t134.5 45.5q104 0 171 -86.5t67 -219.5v-830h-145v797q0 91 -32 143t-94 52t-122.5 -41.5t-95.5 -116.5v-834h-144v797q0 91 -33 143t-95 52t-121.5 -42t-94.5 -116v-834z
" />
    <glyph glyph-name="n" unicode="n" 
d="M577 992q-150 0 -251 -169v-823h-145v1117h145v-141h41q32 69 101.5 114.5t144.5 45.5q117 0 194 -97t77 -244v-795h-145v761q0 108 -43 169.5t-119 61.5z" />
    <glyph glyph-name="o" unicode="o" 
d="M530.5 117q106.5 0 157.5 70t51 215v300q0 151 -51 224.5t-157.5 73.5t-155.5 -73.5t-49 -224.5v-300q0 -145 49 -215t155.5 -70zM532 -19q-170 0 -260.5 111t-90.5 316v294q0 210 91 322t260.5 112t260.5 -112t91 -322v-294q0 -205 -91 -316t-261 -111z" />
    <glyph glyph-name="p" unicode="p" 
d="M523 -22q-105 0 -197 56v-406h-145v1489h145v-141h41q28 76 93 118t154 42q127 0 198.5 -103.5t71.5 -287.5v-374q0 -184 -96.5 -288.5t-264.5 -104.5zM523 110q115 0 165.5 61.5t50.5 202.5v384q0 127 -38 180.5t-123 53.5t-142.5 -44.5t-109.5 -146.5v-609
q82 -82 197 -82z" />
    <glyph glyph-name="q" unicode="q" 
d="M326 743v-356q0 -136 38 -199t123 -63t143.5 46.5t108.5 145.5v631q-76 59 -183 59t-168.5 -64t-61.5 -200zM542 1139q212 0 342 -89v-1422h-145v513h-41q-30 -74 -95 -117t-154 -43q-125 0 -196.5 103.5t-71.5 287.5v375q0 184 102 288t259 104z" />
    <glyph glyph-name="r" unicode="r" horiz-adv-x="923" 
d="M181 0v1117h145v-141h41q24 84 88 122t147 38t140 -68t57 -197v-204h-138v189q0 63 -30.5 99.5t-84.5 36.5t-118.5 -49t-101.5 -124v-819h-145z" />
    <glyph glyph-name="s" unicode="s" 
d="M482 996q-154 0 -154 -174q0 -88 52 -126.5t202 -77.5t229 -113.5t79 -216.5t-96.5 -226t-251.5 -84q-104 0 -208.5 33.5t-178.5 100.5l61 123q63 -50 151.5 -83t176.5 -33q199 0 199 164q0 95 -50.5 135t-195.5 78t-230 106t-85 216t88.5 233t232.5 85q93 0 189.5 -37.5
t167.5 -106.5l-61 -124q-163 128 -317 128z" />
    <glyph glyph-name="t" unicode="t" horiz-adv-x="923" 
d="M320 322v659h-167v136h167v372h145v-372h306v-136h-306v-678q0 -91 40.5 -135.5t106.5 -44.5t142 37l28 -134q-77 -43 -196 -43t-192.5 89.5t-73.5 249.5z" />
    <glyph glyph-name="u" unicode="u" 
d="M449 -19q-117 0 -192.5 96t-75.5 245v795h145v-761q0 -110 42 -170.5t116 -60.5q158 0 255 169v823h145v-1117h-145v141h-41q-20 -69 -91.5 -114.5t-157.5 -45.5z" />
    <glyph glyph-name="v" unicode="v" horiz-adv-x="923" 
d="M551 0h-179l-298 1117h155l235 -990l234 990h151z" />
    <glyph glyph-name="w" unicode="w" horiz-adv-x="1342" 
d="M855 0l-185 778l-177 -778h-163l-233 1117h143l173 -944l172 758h167l181 -749l169 935h145l-232 -1117h-160z" />
    <glyph glyph-name="x" unicode="x" horiz-adv-x="923" 
d="M655 0l-203 423l-189 -423h-161l282 560l-270 557h158l195 -406l196 406h158l-283 -547l277 -570h-160z" />
    <glyph glyph-name="y" unicode="y" horiz-adv-x="923" 
d="M247 -246q62 0 105 47.5t76 153.5l4 21h-63l-295 1141h155l238 -994l231 994h151l-315 -1273q-52 -128 -127 -176t-155 -48t-172 19l24 136q81 -21 143 -21z" />
    <glyph glyph-name="z" unicode="z" 
d="M856 0h-647v136l484 845h-484v136h647v-136l-471 -845h471v-136z" />
    <glyph glyph-name="braceleft" unicode="{" 
d="M577 328q0 -63 -29.5 -110.5t-63.5 -91.5t-61.5 -91.5t-27.5 -110.5q0 -101 98.5 -144.5t320.5 -38.5v-132q-303 -7 -433 71t-130 229t90 281q32 45 61.5 87.5t29.5 89.5q0 89 -71 127t-249 42v90q179 4 249.5 41t70.5 122q0 50 -30.5 85.5t-63.5 77.5q-87 111 -87 260
t129.5 226.5t433.5 69.5v-136q-222 6 -320.5 -36t-98.5 -137q0 -52 28 -95.5t62 -89.5t63 -99t29 -122q0 -196 -274 -210v-10q274 -38 274 -245z" />
    <glyph glyph-name="bar" unicode="|" horiz-adv-x="1033" 
d="M452 -372v1861h129v-1861h-129z" />
    <glyph glyph-name="braceright" unicode="}" 
d="M488 793q0 69 29 122t63 99t62 89.5t28 95.5q0 95 -98.5 137t-320.5 36v136q303 7 433 -70t130 -226t-88 -261q-32 -41 -62.5 -76t-30.5 -86q0 -86 71 -123t249 -40v-90q-179 -4 -249.5 -42t-70.5 -127q0 -47 30.5 -90t62.5 -89q88 -127 88 -278q0 -152 -129.5 -230
t-433.5 -71v132q222 -6 320.5 38t98.5 145q0 63 -28 110.5t-62 91.5t-63 91t-29 111q0 209 273 245v10q-273 14 -273 210z" />
    <glyph glyph-name="asciitilde" unicode="~" horiz-adv-x="1342" 
d="M949.5 521q83.5 0 83.5 229v322h131v-335q0 -156 -71 -247.5t-179 -91.5t-171 64.5t-131 240.5t-101 220.5t-84 44.5t-83.5 -54t-32.5 -180v-317h-130v328q0 162 71.5 254t179.5 92t170 -63.5t130 -239.5t101 -221.5t116.5 -45.5z" />
    <glyph glyph-name="exclamdown" unicode="&#xa1;" horiz-adv-x="1033" 
d="M577 931l43 -931h-201l43 931h115zM382 1352q0 156 136 156q71 0 103 -38t32 -118v-52q0 -82 -32.5 -121.5t-103 -39.5t-103 39.5t-32.5 121.5v52z" />
    <glyph glyph-name="cent" unicode="&#xa2;" 
d="M181 888q0 397 307 430v265h113v-263q145 -11 217 -107t79 -286l-134 -7q-6 151 -45.5 207.5t-129.5 62.5v-887q91 2 130.5 52.5t44.5 195.5l134 -7q-9 -184 -79.5 -273.5t-216.5 -101.5v-262h-113v264q-162 17 -234.5 128.5t-72.5 309.5v279zM324 583q0 -132 43 -198.5
t136 -77.5v879q-93 -11 -136 -78t-43 -201v-324z" />
    <glyph glyph-name="sterling" unicode="&#xa3;" horiz-adv-x="1202" 
d="M497 565q0 -88 -24 -175.5t-104 -171.5l16 -19q47 37 94.5 30.5t94 -30.5t93 -51t89.5 -27q76 0 109.5 56t43.5 208l141 -18q-9 -188 -85.5 -287t-208.5 -99q-65 0 -125.5 34.5t-115.5 65.5t-103.5 41t-91.5 -27l-128 -112l-78 110l113 84q52 41 87.5 144t35.5 213
t-37 201h-188v161h121q-39 108 -39 258t99.5 252t300.5 102t291.5 -97.5t97.5 -276.5l-145 -19q-7 140 -67 192t-190 52t-185 -65t-55 -175t54 -223h333v-161h-270q26 -82 26 -170z" />
    <glyph glyph-name="currency" unicode="&#xa4;" horiz-adv-x="1312" 
d="M656 168q-173 0 -263 104l-151 -203l-87 106l169 231q-17 57 -17 140v390q0 68 17 146l-169 231l89 106l147 -205q94 108 267 108t265 -112l146 198l87 -107l-166 -225q15 -64 15 -140v-390q0 -66 -13 -131l166 -229l-89 -106l-146 196q-94 -108 -267 -108zM864 936
q0 256 -208 256t-207 -256v-390q0 -134 52.5 -191t154.5 -57t155 56.5t53 191.5v390z" />
    <glyph glyph-name="yen" unicode="&#xa5;" horiz-adv-x="1172" 
d="M936 186h-279v-186h-141v186h-280v160h280v213h-280v160h209l-331 770h158l316 -847l315 847h155l-330 -770h208v-160h-279v-213h279v-160z" />
    <glyph glyph-name="brokenbar" unicode="&#xa6;" horiz-adv-x="1033" 
d="M452 -372v744h129v-744h-129zM452 745v744h129v-744h-129z" />
    <glyph glyph-name="section" unicode="&#xa7;" horiz-adv-x="1372" 
d="M1046 -24q0 -171 -86.5 -266t-246.5 -95q-214 0 -350 175l69 113q73 -80 139 -119t146 -39t137.5 44.5t57.5 153.5t-57.5 172.5t-197.5 100.5q-173 37 -248.5 113.5t-75.5 175.5q0 247 190 312q-190 100 -190 319q0 171 88.5 266t248.5 95q99 0 190 -44.5t158 -130.5
l-70 -119q-73 82 -138 123t-148 41t-138 -50.5t-55 -154.5t59.5 -166.5t199.5 -92.5q173 -47 245.5 -125t72.5 -197t-59.5 -187t-144.5 -92q204 -97 204 -326zM905 538q0 97 -44 141.5t-152 74.5q-13 2 -27.5 6.5t-28.5 8.5q-65 -2 -120 -50.5t-55 -144.5t43 -141.5
t153 -75.5q13 -2 27 -6.5t27 -7.5q67 4 122 51t55 144z" />
    <glyph glyph-name="dieresis" unicode="&#xa8;" horiz-adv-x="1033" 
d="M773 1428q0 -95 -93 -95q-43 0 -68 20t-26 75v9q0 58 26 78q26 19 67 19q42 0 68 -20t26 -77v-9zM449 1428q0 -95 -93 -95t-93 95v9q0 99 93 97q41 0 67 -20t26 -77v-9z" />
    <glyph glyph-name="copyright" unicode="&#xa9;" horiz-adv-x="1761" 
d="M586 817q0 371 296 371q152 0 220.5 -87.5t77.5 -270.5l-121 -11q-6 145 -44 192t-127 47t-131 -51.5t-42 -174.5v-286q0 -123 42.5 -174.5t132.5 -51.5t127 44t42 178l121 -11q-9 -175 -76.5 -258t-221.5 -83q-296 0 -296 376v251zM882 -93q234 0 337 142.5t103 466.5
v339q0 328 -103 472t-337 144t-337.5 -144.5t-103.5 -471.5v-339q0 -324 103.5 -466.5t337.5 -142.5zM1439 467q0 -672 -557.5 -672t-557.5 672v436q0 343 138.5 511.5t420 168.5t419 -168.5t137.5 -511.5v-436z" />
    <glyph glyph-name="ordfeminine" unicode="&#xaa;" 
d="M486 1508q114 0 189 -64t75 -185v-390q0 -91 30 -110.5t104 -8.5v-124q-80 -2 -136.5 25t-64.5 155h-24q-32 -78 -95 -131t-144 -53t-152 55t-71 173t60.5 182.5t146.5 64.5h223v137q0 63 -34 112t-106 49t-109 -28t-58 -134l-110 37q41 238 276 238zM438 987
q-120 0 -120 -118q0 -63 30 -94.5t101 -31.5q114 0 178 160v84h-189z" />
    <glyph glyph-name="guillemotleft" unicode="&#xab;" horiz-adv-x="1372" 
d="M685 236l-424 354v123l424 354v-127l-346 -288l346 -289v-127zM1112 236l-425 354v123l425 354v-127l-347 -288l347 -289v-127z" />
    <glyph glyph-name="logicalnot" unicode="&#xac;" horiz-adv-x="1312" 
d="M1004 0v575h-836v151h977v-726h-141z" />
    <glyph glyph-name="registered" unicode="&#xae;" horiz-adv-x="1232" 
d="M830 1015q0 -153 -117 -185l125 -217h-104l-121 212h-81v-212h-93v655h218q58 0 115.5 -42t57.5 -159v-52zM532 929h125q28 0 53 17t25 69v52q0 60 -25 80t-53 20h-125v-238zM617 361q167 0 242.5 103.5t75.5 330.5v274q0 229 -75.5 333t-242.5 104t-242 -104t-75 -333
v-274q0 -227 75 -330.5t242 -103.5zM1039 773q0 -509 -422 -509t-422 509v322q0 506 425 506q419 0 419 -506v-322z" />
    <glyph glyph-name="macron" unicode="&#x2c9;" horiz-adv-x="1033" 
d="M236 1424v131h563v-131h-563z" />
    <glyph glyph-name="macron" unicode="&#xaf;" horiz-adv-x="1033" 
d="M236 1424v131h563v-131h-563z" />
    <glyph glyph-name="degree" unicode="&#xb0;" horiz-adv-x="893" 
d="M447 1363q-145 0 -145 -173v-222q0 -93 35 -131t109 -38t110 39t36 130v222q0 173 -145 173zM446.5 663q-126.5 0 -203.5 78t-77 238v200q0 162 77 242t203.5 80t204 -80t77.5 -242v-200q0 -160 -77.5 -238t-204 -78z" />
    <glyph glyph-name="plusminus" unicode="&#xb1;" horiz-adv-x="1312" 
d="M585 186v577h-417v149h417v577h143v-577h417v-149h-417v-577h-143zM168 2v149h977v-149h-977z" />
    <glyph glyph-name="two.sups" unicode="&#xb2;" horiz-adv-x="893" 
d="M166 566v184q0 234 164 278l169 46q50 13 70.5 44t20.5 88v43q0 58 -31.5 99t-111.5 41t-109 -44.5t-35 -145.5l-128 13q6 143 64.5 216t207.5 73t210.5 -67t61.5 -175v-75q0 -106 -44 -157t-115 -70l-171 -47q-43 -7 -68 -38.5t-25 -119.5v-72h432v-114h-562z" />
    <glyph glyph-name="three.sups" unicode="&#xb3;" horiz-adv-x="893" 
d="M728 817q0 -262 -283 -262q-153 0 -217 67t-70 199l129 11q7 -91 35 -129t121 -38t125 41.5t32 110.5v30q0 74 -33 112.5t-122 38.5h-114v114h114q74 0 106 21t32 86v49q0 69 -38.5 96t-107 27t-98.5 -34.5t-36 -112.5l-128 11q7 130 72 188t185 58t199.5 -46.5
t79.5 -186.5v-34q0 -73 -38 -113.5t-94 -48.5v-33q60 -6 104.5 -61t44.5 -131v-30z" />
    <glyph glyph-name="acute" unicode="&#xb4;" horiz-adv-x="1033" 
d="M357 1303l189 373h214l-274 -373h-129z" />
    <glyph glyph-name="mu1" unicode="&#xb5;" horiz-adv-x="1202" 
d="M181 1117h145v-815q0 -97 55 -139t133 -42q158 0 225 114v882h145v-895q0 -132 168 -88v-143q-242 -30 -250 162h-27q-30 -71 -100 -121t-156 -51q-123 0 -193 88v-32l13 -409h-171l13 409v1080z" />
    <glyph glyph-name="paragraph" unicode="&#xb6;" horiz-adv-x="1372" 
d="M897 633h-139v-1005h-145v1005q-147 0 -234 99.5t-87 267.5v97q0 181 86.5 286.5t232.5 105.5h430v-1861h-144v1005z" />
    <glyph glyph-name="periodcentered" unicode="&#x2219;" horiz-adv-x="1033" 
d="M517 568q-70 0 -114 38t-44 126v16q0 89 44 128.5t114.5 39.5t113.5 -39t43 -129v-16q0 -88 -43.5 -126t-113.5 -38z" />
    <glyph glyph-name="periodcentered" unicode="&#xb7;" horiz-adv-x="1033" 
d="M517 568q-70 0 -114 38t-44 126v16q0 89 44 128.5t114.5 39.5t113.5 -39t43 -129v-16q0 -88 -43.5 -126t-113.5 -38z" />
    <glyph glyph-name="cedilla" unicode="&#xb8;" horiz-adv-x="1033" 
d="M464 -395q-197 0 -209 179l129 19q2 -35 20 -50q18 -14 60 -14q42 -1 64 23t21 91t-17 99t-57 48l28 78q179 -40 179 -256q0 -108 -68 -162t-150 -55z" />
    <glyph glyph-name="one.sups" unicode="&#xb9;" horiz-adv-x="893" 
d="M236 566v114h190v621h-22q-17 -71 -66 -117t-113 -45l-7 121q63 2 127.5 54.5t82.5 174.5h127v-809h173v-114h-492z" />
    <glyph glyph-name="ordmasculine" unicode="&#xba;" 
d="M709 1184q0 205 -134 205t-176.5 -49.5t-42.5 -155.5v-253q0 -102 42.5 -148t132 -46t134 46t44.5 148v253zM531 622q-134 0 -217 78t-83 238v242q0 164 83.5 246t217.5 82t217 -82t83 -246v-242q0 -160 -83.5 -238t-217.5 -78z" />
    <glyph glyph-name="guillemotright" unicode="&#xbb;" horiz-adv-x="1372" 
d="M687 236v127l346 289l-346 288v127l425 -354v-123zM261 236v127l346 289l-346 288v127l424 -354v-123z" />
    <glyph glyph-name="onequarter" unicode="&#xbc;" horiz-adv-x="2167" 
d="M2039 238h-131v-238h-130v238h-354v114l315 571h169v-571h131v-114zM1778 352v406l-229 -406h229zM244 566v114h190v621h-23q-17 -71 -66 -117t-112 -45l-8 121q63 2 128 54q64 52 83 175h126v-809h173v-114h-491zM734 0l558 1489h142l-559 -1489h-141z" />
    <glyph glyph-name="onehalf" unicode="&#xbd;" horiz-adv-x="2167" 
d="M244 566v114h190v621h-23q-17 -71 -66 -117t-112 -45l-8 121q63 2 128 54q64 52 83 175h126v-809h173v-114h-491zM1432 0v184q0 232 164 278l169 46q50 13 71 44q20 31 20 88v43q0 58 -31 99q-32 41 -112 41t-109 -45t-34 -145l-129 13q6 143 64 216q59 73 208 73
t210 -67t62 -175v-75q0 -106 -44 -157t-115 -70l-171 -47q-43 -7 -68 -39t-25 -119v-72h432v-114h-562zM734 0l558 1489h142l-559 -1489h-141z" />
    <glyph glyph-name="threequarters" unicode="&#xbe;" horiz-adv-x="2167" 
d="M2039 238h-131v-238h-130v238h-354v114l315 571h169v-571h131v-114zM1778 352v406l-229 -406h229zM734 0l558 1489h142l-559 -1489h-141zM735 817q0 -262 -283 -262q-152 0 -216 67t-70 199l128 11q8 -91 36 -129t120 -38t125 42q32 42 32 110v30q0 75 -33 113t-122 38
h-113v114h113q74 0 107 21q32 21 31 86v49q0 69 -38 96t-107 27q-69 -1 -99 -35t-35 -112l-129 11q8 130 72 188t184 58t201 -47q80 -47 80 -186v-34q-1 -74 -39 -114t-94 -48v-33q60 -6 105 -61t44 -131v-30z" />
    <glyph glyph-name="questiondown" unicode="&#xbf;" horiz-adv-x="1452" 
d="M711 -19q-409 0 -409 395v93q0 171 114.5 260.5t406.5 145.5l28 -119q-244 -52 -325 -117.5t-81 -176.5v-64q0 -151 61.5 -216t209.5 -65t203 68t66 282l145 -18q-11 -264 -101.5 -366t-317.5 -102zM635 1352q0 156 137 156t137 -156v-52q0 -161 -137 -161t-137 161v52z
" />
    <glyph glyph-name="Agrave" unicode="&#xc0;" horiz-adv-x="1172" 
d="M938 0l-124 460h-460l-125 -460h-147l430 1489h151l428 -1489h-153zM778 588l-195 719l-194 -719h389zM586 1676l-273 372h214l188 -372h-129z" />
    <glyph glyph-name="Aacute" unicode="&#xc1;" horiz-adv-x="1172" 
d="M938 0l-124 460h-460l-125 -460h-147l430 1489h151l428 -1489h-153zM778 588l-195 719l-194 -719h389zM426 1676l188 372h215l-274 -372h-129z" />
    <glyph glyph-name="Acircumflex" unicode="&#xc2;" horiz-adv-x="1172" 
d="M938 0l-124 460h-460l-125 -460h-147l430 1489h151l428 -1489h-153zM778 588l-195 719l-194 -719h389zM343 1717l-75 85l264 272h105l268 -272l-76 -85l-244 201z" />
    <glyph glyph-name="Atilde" unicode="&#xc3;" horiz-adv-x="1172" 
d="M938 0l-124 460h-460l-125 -460h-147l430 1489h151l428 -1489h-153zM778 588l-195 719l-194 -719h389zM773 2022v15h108v-28q0 -135 -47 -225t-138 -90q-58 0 -92 37t-54 79q-21 42 -41 76q-20 35 -45 35q-66 0 -62 -193v-15h-110v28q0 132 47 223t138 91q63 0 97 -38
t56 -78t37 -75q16 -35 40 -36q66 0 66 194z" />
    <glyph glyph-name="Adieresis" unicode="&#xc4;" horiz-adv-x="1172" 
d="M938 0l-124 460h-460l-125 -460h-147l430 1489h151l428 -1489h-153zM778 588l-195 719l-194 -719h389zM842 1800q0 -95 -94 -95q-43 0 -68 20t-25 75v10q0 58 25 78t67 19q42 0 68 -20t27 -77v-10zM424 1705q-93 0 -93 95v10q0 58 26 78t67 19q94 0 94 -97v-10
q0 -56 -26 -76t-68 -19z" />
    <glyph glyph-name="Aring" unicode="&#xc5;" horiz-adv-x="1172" 
d="M938 0l-124 460h-460l-125 -460h-147l430 1489h151l428 -1489h-153zM778 588l-195 719l-194 -719h389zM700 1977q0 151 -114 151t-113 -151v-59q-1 -78 27 -112t86 -34q114 0 114 146v59zM586 1655q-100 0 -162 64t-63 199v59q1 136 63 202t162 66t163 -66
q62 -66 63 -202v-59q0 -134 -62 -198t-164 -65z" />
    <glyph glyph-name="AE" unicode="&#xc6;" horiz-adv-x="1511" 
d="M741 460h-350l-130 -460h-153l452 1489h786v-130h-460v-476h391v-133h-391v-620h460v-130h-605v460zM741 588v771h-93l-218 -771h311z" />
    <glyph glyph-name="Ccedilla" unicode="&#xc7;" horiz-adv-x="1202" 
d="M181 1005q0 503 437 503q203 0 313 -126t119 -367l-141 -19q-13 201 -81 291q-68 91 -216 91t-218 -87q-68 -87 -68 -280v-540q0 -190 69 -275q69 -84 217 -84t216 87q68 88 81 287l141 -19q-9 -238 -120 -362q-76 -85 -196 -112q44 -63 44 -171t-67 -162t-149 -55
q-197 0 -210 179l128 19q2 -35 21 -49t61 -15t62 23q22 24 22 106t-40 113q-427 6 -425 496v528z" />
    <glyph glyph-name="Egrave" unicode="&#xc8;" 
d="M181 0v1489h729v-130h-584v-476h514v-133h-514v-620h584v-130h-729zM544 1676l-274 372h214l188 -372h-128z" />
    <glyph glyph-name="Eacute" unicode="&#xc9;" 
d="M181 0v1489h729v-130h-584v-476h514v-133h-514v-620h584v-130h-729zM384 1676l188 372h214l-274 -372h-128z" />
    <glyph glyph-name="Ecircumflex" unicode="&#xca;" 
d="M181 0v1489h729v-130h-584v-476h514v-133h-514v-620h584v-130h-729zM300 1717l-75 85l265 272h104l268 -272l-76 -85l-244 201z" />
    <glyph glyph-name="Edieresis" unicode="&#xcb;" 
d="M181 0v1489h729v-130h-584v-476h514v-133h-514v-620h584v-130h-729zM799 1800q0 -95 -93 -95q-43 0 -68 20t-25 75v10q0 58 25 78t67 19q42 0 68 -20t26 -77v-10zM475 1800q0 -95 -93 -95t-93 95v10q0 58 26 78t67 19q41 0 67 -20t26 -77v-10z" />
    <glyph glyph-name="Igrave" unicode="&#xcc;" 
d="M181 0v130h279v1229h-279v130h703v-130h-279v-1229h279v-130h-703zM529 1676l-274 372h214l188 -372h-128z" />
    <glyph glyph-name="Iacute" unicode="&#xcd;" 
d="M181 0v130h279v1229h-279v130h703v-130h-279v-1229h279v-130h-703zM369 1676l188 372h214l-274 -372h-128z" />
    <glyph glyph-name="Icircumflex" unicode="&#xce;" 
d="M181 0v130h279v1229h-279v130h703v-130h-279v-1229h279v-130h-703zM285 1717l-75 85l265 272h104l268 -272l-76 -85l-244 201z" />
    <glyph glyph-name="Idieresis" unicode="&#xcf;" 
d="M181 0v130h279v1229h-279v130h703v-130h-279v-1229h279v-130h-703zM784 1800q0 -95 -93 -95q-43 0 -68 20t-25 75v10q0 58 25 78t67 19q42 0 68 -20t26 -77v-10zM460 1800q0 -95 -93 -95t-93 95v10q0 58 26 78t67 19q41 0 67 -20t26 -77v-10z" />
    <glyph glyph-name="Eth" unicode="&#xd0;" horiz-adv-x="1202" 
d="M326 130h234q151 0 235 95t84 261v510q0 169 -84 266t-235 97h-234v-465h275v-151h-275v-613zM181 0v743h-140v151h140v595h381q216 0 339 -135t123 -360v-506q0 -222 -123 -355t-341 -133h-379z" />
    <glyph glyph-name="Ntilde" unicode="&#xd1;" horiz-adv-x="1202" 
d="M317 0h-136v1489h201l506 -1264v1264h136v-1489h-209l-498 1272v-1272zM815 2037h108v-28q-1 -135 -47 -225t-137 -90q-57 0 -91 37t-55 79t-41 76q-20 35 -46 35q-65 0 -61 -193v-15h-110v28q0 132 47 223t137 91q63 0 97 -38t56 -78t38 -75t40 -36q67 0 65 194v15z" />
    <glyph glyph-name="Ograve" unicode="&#xd2;" horiz-adv-x="1202" 
d="M602 112q144 0 211 91q66 91 66 290v518q0 190 -66 278q-67 89 -211 89t-210 -88t-66 -279v-518q0 -199 66 -290t210 -91zM1024 499q0 -257 -107 -387t-315 -131q-208 1 -314 131t-107 387v506q0 249 107 376q108 127 314 127t314 -127t108 -376v-506zM600 1676l-274 372
h214l188 -372h-128z" />
    <glyph glyph-name="Oacute" unicode="&#xd3;" horiz-adv-x="1202" 
d="M602 112q144 0 211 91q66 91 66 290v518q0 190 -66 278q-67 89 -211 89t-210 -88t-66 -279v-518q0 -199 66 -290t210 -91zM1024 499q0 -257 -107 -387t-315 -131q-208 1 -314 131t-107 387v506q0 249 107 376q108 127 314 127t314 -127t108 -376v-506zM439 1676l188 372
h215l-274 -372h-129z" />
    <glyph glyph-name="Ocircumflex" unicode="&#xd4;" horiz-adv-x="1202" 
d="M602 112q144 0 211 91q66 91 66 290v518q0 190 -66 278q-67 89 -211 89t-210 -88t-66 -279v-518q0 -199 66 -290t210 -91zM1024 499q0 -257 -107 -387t-315 -131q-208 1 -314 131t-107 387v506q0 249 107 376q108 127 314 127t314 -127t108 -376v-506zM356 1717l-75 85
l265 272h104l268 -272l-76 -85l-244 201z" />
    <glyph glyph-name="Otilde" unicode="&#xd5;" horiz-adv-x="1202" 
d="M602 112q144 0 211 91q66 91 66 290v518q0 190 -66 278q-67 89 -211 89t-210 -88t-66 -279v-518q0 -199 66 -290t210 -91zM1024 499q0 -257 -107 -387t-315 -131q-208 1 -314 131t-107 387v506q0 249 107 376q108 127 314 127t314 -127t108 -376v-506zM786 2022v15h108
v-28q0 -135 -47 -225t-138 -90q-57 0 -91 37t-55 79t-41 76q-20 35 -45 35q-66 0 -62 -193v-15h-110v28q0 132 47 223t138 91q63 0 97 -38q33 -38 55 -78t38 -75t41 -36q65 0 65 194z" />
    <glyph glyph-name="Odieresis" unicode="&#xd6;" horiz-adv-x="1202" 
d="M602 112q144 0 211 91q66 91 66 290v518q0 190 -66 278q-67 89 -211 89t-210 -88t-66 -279v-518q0 -199 66 -290t210 -91zM1024 499q0 -257 -107 -387t-315 -131q-208 1 -314 131t-107 387v506q0 249 107 376q108 127 314 127t314 -127t108 -376v-506zM855 1800
q-1 -56 -27 -76t-68 -19q-42 0 -66 20t-26 75v10q0 58 26 78t66 19q42 0 68 -20t27 -77v-10zM531 1800q0 -95 -93 -95t-94 95v10q0 97 94 97q41 0 67 -20t26 -77v-10z" />
    <glyph glyph-name="multiply" unicode="&#xd7;" horiz-adv-x="1312" 
d="M287 17l-90 95l365 540l-365 538l90 95l370 -544l367 532l91 -96l-365 -525l365 -527l-89 -97l-369 534z" />
    <glyph glyph-name="Oslash" unicode="&#xd8;" horiz-adv-x="1202" 
d="M1024 1005v-528q0 -227 -100.5 -361.5t-322.5 -134.5q-82 0 -160 23l-61 -190h-142l84 259q-141 122 -141 404v528q0 229 101.5 366t320.5 137q72 0 136 -17l58 185h141l-74 -244q160 -123 160 -427zM879 471v540q0 230 -71 318l-341 -1197q51 -20 134 -20
q149 0 213.5 82.5t64.5 276.5zM601 1378q-149 0 -212 -84t-63 -283v-540q0 -193 54 -276l333 1170q-45 13 -112 13z" />
    <glyph glyph-name="Ugrave" unicode="&#xd9;" horiz-adv-x="1202" 
d="M1024 478q0 -246 -107 -372t-315 -125q-208 0 -314 126t-107 371v1011h145v-1027q0 -186 65 -271t210 -85t212 85q66 85 66 271v1027h145v-1011zM600 1676l-274 372h214l188 -372h-128z" />
    <glyph glyph-name="Uacute" unicode="&#xda;" horiz-adv-x="1202" 
d="M1024 478q0 -246 -107 -372t-315 -125q-208 0 -314 126t-107 371v1011h145v-1027q0 -186 65 -271t210 -85t212 85q66 85 66 271v1027h145v-1011zM439 1676l188 372h215l-274 -372h-129z" />
    <glyph glyph-name="Ucircumflex" unicode="&#xdb;" horiz-adv-x="1202" 
d="M1024 478q0 -246 -107 -372t-315 -125q-208 0 -314 126t-107 371v1011h145v-1027q0 -186 65 -271t210 -85t212 85q66 85 66 271v1027h145v-1011zM356 1717l-75 85l265 272h104l268 -272l-76 -85l-244 201z" />
    <glyph glyph-name="Udieresis" unicode="&#xdc;" horiz-adv-x="1202" 
d="M1024 478q0 -246 -107 -372t-315 -125q-208 0 -314 126t-107 371v1011h145v-1027q0 -186 65 -271t210 -85t212 85q66 85 66 271v1027h145v-1011zM855 1800q-1 -56 -27 -76t-68 -19q-42 0 -66 20t-26 75v10q0 58 26 78t66 19q42 0 68 -20t27 -77v-10zM531 1800
q0 -95 -93 -95t-94 95v10q0 97 94 97q41 0 67 -20t26 -77v-10z" />
    <glyph glyph-name="Yacute" unicode="&#xdd;" 
d="M605 0h-145v559l-399 930h161l316 -789l307 789h157l-397 -930v-559zM369 1676l188 372h214l-274 -372h-128z" />
    <glyph glyph-name="Thorn" unicode="&#xde;" 
d="M782 873q0 239 -231 239h-225v-688h225q231 0 231 259v190zM181 0v1489h145v-249h227q179 0 275.5 -90.5t96.5 -283.5v-172q0 -203 -96.5 -299.5t-275.5 -96.5h-227v-298h-145z" />
    <glyph glyph-name="germandbls" unicode="&#xdf;" horiz-adv-x="1232" 
d="M339 1108v-1108h-145v1130q0 166 106 270t262 104t256 -112.5t100 -291.5v-72q-141 -2 -222.5 -37.5t-81.5 -139.5t40 -145t180 -88t195 -117.5t55 -204.5t-84 -220.5t-229 -86.5q-84 0 -176 36t-137 74l76 139q41 -35 114.5 -66t135.5 -31t109 35.5t47 121.5t-36 120
t-172 80t-197.5 125t-61.5 219t87.5 220.5t212.5 91.5q-22 196 -203 196q-99 0 -165 -64.5t-66 -177.5z" />
    <glyph glyph-name="agrave" unicode="&#xe0;" horiz-adv-x="1202" 
d="M452 -19q-118 0 -193 85q-76 85 -77 230q0 145 80 230t211 85h268v191q0 86 -49 145q-50 59 -150 59t-148 -48q-48 -47 -72 -176l-121 45q48 307 341 309q147 0 244 -76t97 -230v-582q0 -82 38 -110t129 -4v-143q-232 -36 -248 177h-27q-33 -80 -119 -134t-204 -53z
M486 121q176 0 255 168v197h-248q-80 0 -127 -39t-48 -140q0 -186 168 -186zM544 1303l-274 373h214l188 -373h-128z" />
    <glyph glyph-name="aacute" unicode="&#xe1;" horiz-adv-x="1202" 
d="M452 -19q-118 0 -193 85q-76 85 -77 230q0 145 80 230t211 85h268v191q0 86 -49 145q-50 59 -150 59t-148 -48q-48 -47 -72 -176l-121 45q48 307 341 309q147 0 244 -76t97 -230v-582q0 -82 38 -110t129 -4v-143q-232 -36 -248 177h-27q-33 -80 -119 -134t-204 -53z
M486 121q176 0 255 168v197h-248q-80 0 -127 -39t-48 -140q0 -186 168 -186zM384 1303l188 373h214l-274 -373h-128z" />
    <glyph glyph-name="acircumflex" unicode="&#xe2;" horiz-adv-x="1202" 
d="M452 -19q-118 0 -193 85q-76 85 -77 230q0 145 80 230t211 85h268v191q0 86 -49 145q-50 59 -150 59t-148 -48q-48 -47 -72 -176l-121 45q48 307 341 309q147 0 244 -76t97 -230v-582q0 -82 38 -110t129 -4v-143q-232 -36 -248 177h-27q-33 -80 -119 -134t-204 -53z
M486 121q176 0 255 168v197h-248q-80 0 -127 -39t-48 -140q0 -186 168 -186zM300 1344l-75 86l265 272h104l268 -272l-76 -86l-244 201z" />
    <glyph glyph-name="atilde" unicode="&#xe3;" horiz-adv-x="1202" 
d="M452 -19q-118 0 -193 85q-76 85 -77 230q0 145 80 230t211 85h268v191q0 86 -49 145q-50 59 -150 59t-148 -48q-48 -47 -72 -176l-121 45q48 307 341 309q147 0 244 -76t97 -230v-582q0 -82 38 -110t129 -4v-143q-232 -36 -248 177h-27q-33 -80 -119 -134t-204 -53z
M486 121q176 0 255 168v197h-248q-80 0 -127 -39t-48 -140q0 -186 168 -186zM665 1456q65 0 65 194v14h108v-27q0 -135 -47 -225t-138 -90q-57 0 -91 37t-55 78t-41 77t-45 35q-66 0 -62 -194v-14h-110v27q0 132 47 224t138 91q63 0 102 -43t89 -149q16 -35 40 -35z" />
    <glyph glyph-name="adieresis" unicode="&#xe4;" horiz-adv-x="1202" 
d="M452 -19q-118 0 -193 85q-76 85 -77 230q0 145 80 230t211 85h268v191q0 86 -49 145q-50 59 -150 59t-148 -48q-48 -47 -72 -176l-121 45q48 307 341 309q147 0 244 -76t97 -230v-582q0 -82 38 -110t129 -4v-143q-232 -36 -248 177h-27q-33 -80 -119 -134t-204 -53z
M486 121q176 0 255 168v197h-248q-80 0 -127 -39t-48 -140q0 -186 168 -186zM799 1428q0 -95 -93 -95q-43 0 -68 20t-25 75v9q0 58 25 78q25 19 67 19t68 -20t26 -77v-9zM475 1428q0 -95 -93 -95t-93 95v9q0 99 93 97q41 0 67 -20t26 -77v-9z" />
    <glyph glyph-name="aring" unicode="&#xe5;" horiz-adv-x="1202" 
d="M452 -19q-118 0 -193 85q-76 85 -77 230q0 145 80 230t211 85h268v191q0 86 -49 145q-50 59 -150 59t-148 -48q-48 -47 -72 -176l-121 45q48 307 341 309q147 0 244 -76t97 -230v-582q0 -82 38 -110t129 -4v-143q-232 -36 -248 177h-27q-33 -80 -119 -134t-204 -53z
M486 121q176 0 255 168v197h-248q-80 0 -127 -39t-48 -140q0 -186 168 -186zM430 1605v-60q0 -77 28 -111t86 -34q113 0 113 145v60q0 149 -113 151q-114 0 -114 -151zM544 1283q-101 0 -163 64t-63 198v60q0 136 62 202t164 66q101 0 163 -66t62 -202v-60q0 -134 -62 -198
t-163 -64z" />
    <glyph glyph-name="ae" unicode="&#xe6;" horiz-adv-x="1482" 
d="M460 121q155 0 210 115v250h-201q-63 0 -104 -38t-41 -132t30.5 -144.5t105.5 -50.5zM1160 784q0 216 -173 216t-173 -199v-144h346v127zM199 877q42 259 322 259q154 0 224 -136q73 136 244 136q140 0 227 -80t87 -257v-267h-489v-221q0 -110 41.5 -153t126.5 -43
t124 30t52 123l145 -4q-19 -136 -90.5 -209.5t-214.5 -73.5q-210 0 -266 146h-26q-32 -74 -103.5 -110t-157.5 -36q-128 0 -196 87.5t-68 231.5t74.5 227.5t176.5 83.5h238v197q0 82 -42 135t-126 53t-121 -34.5t-55 -129.5z" />
    <glyph glyph-name="ccedilla" unicode="&#xe7;" 
d="M326 357q0 -240 217 -240q109 1 159 49t56 151l141 -4q-9 -179 -93 -255q-59 -53 -160 -70q41 -62 41 -168t-67 -160t-150 -55q-197 0 -209 179l128 19q2 -35 21 -49q18 -14 60 -15t63 23t22 106t-42 114q-163 9 -247 105t-85 276v384q0 195 101 292t268 97t252 -90
t97 -286l-141 -4q-4 128 -55 186t-161 58t-163 -62t-53 -191v-390z" />
    <glyph glyph-name="egrave" unicode="&#xe8;" 
d="M739 726q-1 274 -207 274t-206 -253v-90h413v69zM521 -19q-153 0 -247 101t-93 279v386q0 182 93 285q92 104 258 104t259 -108t93 -298v-198h-558v-175q0 -128 52 -185t156 -57t151 40q48 40 69 128l138 -45q-42 -140 -130 -198t-241 -59zM531 1303l-274 373h214
l188 -373h-128z" />
    <glyph glyph-name="eacute" unicode="&#xe9;" 
d="M739 726q-1 274 -207 274t-206 -253v-90h413v69zM521 -19q-153 0 -247 101t-93 279v386q0 182 93 285q92 104 258 104t259 -108t93 -298v-198h-558v-175q0 -128 52 -185t156 -57t151 40q48 40 69 128l138 -45q-42 -140 -130 -198t-241 -59zM371 1303l188 373h214
l-274 -373h-128z" />
    <glyph glyph-name="ecircumflex" unicode="&#xea;" 
d="M739 726q-1 274 -207 274t-206 -253v-90h413v69zM521 -19q-153 0 -247 101t-93 279v386q0 182 93 285q92 104 258 104t259 -108t93 -298v-198h-558v-175q0 -128 52 -185t156 -57t151 40q48 40 69 128l138 -45q-42 -140 -130 -198t-241 -59zM287 1344l-75 86l265 272h104
l268 -272l-76 -86l-244 201z" />
    <glyph glyph-name="edieresis" unicode="&#xeb;" 
d="M739 726q-1 274 -207 274t-206 -253v-90h413v69zM521 -19q-153 0 -247 101t-93 279v386q0 182 93 285q92 104 258 104t259 -108t93 -298v-198h-558v-175q0 -128 52 -185t156 -57t151 40q48 40 69 128l138 -45q-42 -140 -130 -198t-241 -59zM786 1428q0 -95 -93 -95
q-43 0 -68 20t-25 75v9q0 58 25 78q25 19 67 19t68 -20t26 -77v-9zM462 1428q0 -95 -93 -95t-93 95v9q0 99 93 97q41 0 67 -20t26 -77v-9z" />
    <glyph glyph-name="igrave" unicode="&#xec;" horiz-adv-x="754" 
d="M305 0v1117h144v-1117h-144zM378 1303l-274 373h214l188 -373h-128z" />
    <glyph glyph-name="iacute" unicode="&#xed;" horiz-adv-x="754" 
d="M305 0v1117h144v-1117h-144zM218 1303l188 373h214l-274 -373h-128z" />
    <glyph glyph-name="icircumflex" unicode="&#xee;" horiz-adv-x="754" 
d="M305 0v1117h144v-1117h-144zM134 1344l-74 86l264 272h104l268 -272l-76 -86l-244 201z" />
    <glyph glyph-name="idieresis" unicode="&#xef;" horiz-adv-x="754" 
d="M305 0v1117h144v-1117h-144zM633 1428q0 -95 -93 -95q-43 0 -68 20t-25 75v9q0 58 25 78q25 19 67 19t68 -20t26 -77v-9zM309 1428q0 -95 -93 -95t-93 95v9q0 99 93 97q41 0 67 -20t26 -77v-9z" />
    <glyph glyph-name="eth" unicode="&#xf0;" 
d="M532.5 117q106.5 0 156.5 63.5t50 203.5v162q0 128 -50 187.5t-156.5 59.5t-155.5 -59.5t-49 -187.5v-162q0 -140 49 -203.5t155.5 -63.5zM884 709v-318q0 -194 -90 -302t-263.5 -108t-261.5 104.5t-88 294.5v193q0 166 88 262t230 96q88 0 144.5 -41t77.5 -97h31
q-15 247 -87 386l-274 -166v134l205 126q-93 105 -266 164l42 92q214 -76 326 -200l252 153v-134l-179 -112q113 -189 113 -527z" />
    <glyph glyph-name="ntilde" unicode="&#xf1;" 
d="M577 992q-150 0 -251 -169v-823h-145v1117h145v-141h41q31 68 101 114t145 46q117 0 194 -97t77 -244v-795h-145v761q0 107 -43 169t-119 62zM678 1456q65 0 65 194v14h108v-27q-1 -135 -47 -225t-137 -90q-58 0 -92 37t-55 78t-41 77t-45 35q-66 0 -62 -194v-14h-109v27
q0 132 46 224q47 91 138 91q63 0 105 -46t86 -146q16 -35 40 -35z" />
    <glyph glyph-name="ograve" unicode="&#xf2;" 
d="M739 702q0 298 -208 298q-105 0 -155 -74t-50 -224v-300q0 -145 50 -215t155 -70q106 0 157 70t51 215v300zM532 -19q-170 0 -260 111q-91 111 -91 316v294q0 210 91 322t260 112q168 0 260 -112t92 -322v-294q0 -205 -91 -316t-261 -111zM529 1303l-274 373h214
l188 -373h-128z" />
    <glyph glyph-name="oacute" unicode="&#xf3;" 
d="M739 702q0 298 -208 298q-105 0 -155 -74t-50 -224v-300q0 -145 50 -215t155 -70q106 0 157 70t51 215v300zM532 -19q-170 0 -260 111q-91 111 -91 316v294q0 210 91 322t260 112q168 0 260 -112t92 -322v-294q0 -205 -91 -316t-261 -111zM369 1303l188 373h214
l-274 -373h-128z" />
    <glyph glyph-name="ocircumflex" unicode="&#xf4;" 
d="M739 702q0 298 -208 298q-105 0 -155 -74t-50 -224v-300q0 -145 50 -215t155 -70q106 0 157 70t51 215v300zM532 -19q-170 0 -260 111q-91 111 -91 316v294q0 210 91 322t260 112q168 0 260 -112t92 -322v-294q0 -205 -91 -316t-261 -111zM285 1344l-75 86l265 272h104
l268 -272l-76 -86l-244 201z" />
    <glyph glyph-name="otilde" unicode="&#xf5;" 
d="M739 702q0 298 -208 298q-105 0 -155 -74t-50 -224v-300q0 -145 50 -215t155 -70q106 0 157 70t51 215v300zM532 -19q-170 0 -260 111q-91 111 -91 316v294q0 210 91 322t260 112q168 0 260 -112t92 -322v-294q0 -205 -91 -316t-261 -111zM650 1456q65 0 65 194v14h108
v-27q-1 -135 -47 -225t-137 -90q-58 0 -92 37t-55 78t-41 77t-45 35q-64 0 -62 -194v-14h-109v27q0 132 46 224q47 91 138 91q63 0 105 -46t86 -146q16 -35 40 -35z" />
    <glyph glyph-name="odieresis" unicode="&#xf6;" 
d="M739 702q0 298 -208 298q-105 0 -155 -74t-50 -224v-300q0 -145 50 -215t155 -70q106 0 157 70t51 215v300zM532 -19q-170 0 -260 111q-91 111 -91 316v294q0 210 91 322t260 112q168 0 260 -112t92 -322v-294q0 -205 -91 -316t-261 -111zM784 1428q0 -95 -93 -95
q-43 0 -68 20t-25 75v9q0 58 25 78q25 19 67 19t68 -20t26 -77v-9zM460 1428q0 -95 -93 -95t-93 95v9q0 99 93 97q41 0 67 -20t26 -77v-9z" />
    <glyph glyph-name="divide" unicode="&#xf7;" horiz-adv-x="1312" 
d="M657 56q-52 0 -87.5 28t-35.5 84v31q0 58 35.5 86t87.5 28t85.5 -28t33.5 -86v-31q0 -56 -33.5 -84t-85.5 -28zM168 570v164h977v-164h-977zM657 987q-52 0 -87.5 28t-35.5 83v32q0 58 35.5 86t87.5 28t85.5 -28t33.5 -86v-32q0 -56 -33.5 -83.5t-85.5 -27.5z" />
    <glyph glyph-name="oslash" unicode="&#xf8;" 
d="M884 750v-391q0 -194 -99 -286t-254 -92q-79 0 -134 21l-75 -188h-140l99 257q-100 100 -100 288v391q0 197 99.5 291.5t251.5 94.5q79 0 138 -21l71 188h140l-101 -257q104 -102 104 -296zM739 350v404q0 95 -26 147l-274 -761q41 -15 92 -15q208 0 208 225zM531 992
q-106 0 -156.5 -57.5t-50.5 -180.5v-404q0 -89 30 -141l273 767q-43 16 -96 16z" />
    <glyph glyph-name="ugrave" unicode="&#xf9;" 
d="M449 -19q-117 0 -193 96q-75 96 -75 245v795h145v-761q0 -110 42 -171t116 -61q157 1 255 170v823h145v-1117h-145v141h-41q-20 -69 -92 -115t-157 -45zM490 1303l-274 373h214l188 -373h-128z" />
    <glyph glyph-name="uacute" unicode="&#xfa;" 
d="M449 -19q-117 0 -193 96q-75 96 -75 245v795h145v-761q0 -110 42 -171t116 -61q157 1 255 170v823h145v-1117h-145v141h-41q-20 -69 -92 -115t-157 -45zM410 1303l188 373h214l-274 -373h-128z" />
    <glyph glyph-name="ucircumflex" unicode="&#xfb;" 
d="M449 -19q-117 0 -193 96q-75 96 -75 245v795h145v-761q0 -110 42 -171t116 -61q157 1 255 170v823h145v-1117h-145v141h-41q-20 -69 -92 -115t-157 -45zM285 1344l-75 86l265 272h104l268 -272l-76 -86l-244 201z" />
    <glyph glyph-name="udieresis" unicode="&#xfc;" 
d="M449 -19q-117 0 -193 96q-75 96 -75 245v795h145v-761q0 -110 42 -171t116 -61q157 1 255 170v823h145v-1117h-145v141h-41q-20 -69 -92 -115t-157 -45zM784 1428q0 -95 -93 -95q-43 0 -68 20t-25 75v9q0 58 25 78q25 19 67 19t68 -20t26 -77v-9zM460 1428q0 -95 -93 -95
t-93 95v9q0 99 93 97q41 0 67 -20t26 -77v-9z" />
    <glyph glyph-name="yacute" unicode="&#xfd;" horiz-adv-x="923" 
d="M247 -246q62 0 105 48t76 153l4 21h-63l-295 1141h155l238 -994l231 994h151l-315 -1273q-52 -128 -127 -176t-176 -48q-45 0 -151 19l24 136q81 -21 143 -21zM300 1303l188 373h214l-274 -373h-128z" />
    <glyph glyph-name="thorn" unicode="&#xfe;" 
d="M523 -22q-105 0 -197 56v-406h-145v1861h145v-513h41q28 76 92 118t155 42q127 0 198.5 -100.5t71.5 -290.5v-374q0 -188 -94 -290.5t-267 -102.5zM522 110q113 0 165 62.5t52 201.5v384q0 125 -38 179.5t-123 54.5t-142.5 -44.5t-109.5 -146.5v-611q83 -80 196 -80z" />
    <glyph glyph-name="ydieresis" unicode="&#xff;" horiz-adv-x="923" 
d="M247 -246q62 0 105 48t76 153l4 21h-63l-295 1141h155l238 -994l231 994h151l-315 -1273q-52 -128 -127 -176t-176 -48q-45 0 -151 19l24 136q81 -21 143 -21zM715 1428q0 -95 -93 -95q-43 0 -68 20t-25 75v9q0 58 25 78q25 19 67 19t68 -20t26 -77v-9zM391 1428
q0 -95 -93 -95t-93 95v9q0 99 93 97q41 0 67 -20t26 -77v-9z" />
    <glyph glyph-name="Amacron" unicode="&#x100;" horiz-adv-x="1172" 
d="M938 0l-124 460h-460l-125 -460h-147l430 1489h151l428 -1489h-153zM778 588l-195 719l-194 -719h389zM305 1797v130h563v-130h-563z" />
    <glyph glyph-name="amacron" unicode="&#x101;" horiz-adv-x="1202" 
d="M452 -19q-118 0 -193 85q-76 85 -77 230q0 145 80 230t211 85h268v191q0 86 -49 145q-50 59 -150 59t-148 -48q-48 -47 -72 -176l-121 45q48 307 341 309q147 0 244 -76t97 -230v-582q0 -82 38 -110t129 -4v-143q-232 -36 -248 177h-27q-33 -80 -119 -134t-204 -53z
M486 121q176 0 255 168v197h-248q-80 0 -127 -39t-48 -140q0 -186 168 -186zM263 1424v131h562v-131h-562z" />
    <glyph glyph-name="Abreve" unicode="&#x102;" horiz-adv-x="1172" 
d="M938 0l-124 460h-460l-125 -460h-147l430 1489h151l428 -1489h-153zM778 588l-195 719l-194 -719h389zM586 1663q-158 0 -241 94t-84 278h143q2 -134 47 -192t135 -58t136 58q45 58 47 192h143q-2 -184 -85 -278t-241 -94z" />
    <glyph glyph-name="abreve" unicode="&#x103;" horiz-adv-x="1202" 
d="M452 -19q-118 0 -193 85q-76 85 -77 230q0 145 80 230t211 85h268v191q0 86 -49 145q-50 59 -150 59t-148 -48q-48 -47 -72 -176l-121 45q48 307 341 309q147 0 244 -76t97 -230v-582q0 -82 38 -110t129 -4v-143q-232 -36 -248 177h-27q-33 -80 -119 -134t-204 -53z
M486 121q176 0 255 168v197h-248q-80 0 -127 -39t-48 -140q0 -186 168 -186zM544 1413q91 0 136 58t46 192h143q-4 -373 -325 -373q-158 0 -241 94t-85 279h143q2 -134 47 -192t136 -58z" />
    <glyph glyph-name="Aogonek" unicode="&#x104;" horiz-adv-x="1172" 
d="M778 588l-195 719l-194 -719h389zM994 -397q-78 0 -138 60t-61 158q0 123 132 221l-113 418h-460l-125 -460h-147l430 1489h151l428 -1489h-128q-40 -54 -40 -121q0 -125 99 -125q34 0 125 19v-151q-75 -19 -153 -19z" />
    <glyph glyph-name="aogonek" unicode="&#x105;" horiz-adv-x="1202" 
d="M897 -397q-77 0 -138 60t-61 150q0 89 48 147t93 89q-31 45 -37 119h-27q-33 -80 -119 -134t-204 -53q-118 0 -193 85q-76 85 -77 230q0 145 80 230t211 85h268v191q0 86 -49 145q-50 59 -150 59t-148 -48q-48 -47 -72 -176l-121 45q48 307 341 309q147 0 244 -76
t97 -230v-582q0 -82 38 -110t129 -4v-143q-115 -17 -174 21q-49 -57 -49 -128q0 -130 98 -130q34 0 125 19v-151q-76 -19 -153 -19zM486 121q176 0 255 168v197h-248q-80 0 -127 -39t-48 -140q0 -186 168 -186z" />
    <glyph glyph-name="Cacute" unicode="&#x106;" horiz-adv-x="1202" 
d="M181 1005q0 503 437 503q203 0 313 -126t119 -367l-141 -19q-13 201 -81 291q-68 91 -216 91t-218 -87q-68 -87 -68 -280v-540q0 -190 69 -275q69 -84 217 -84t216 87q68 88 81 287l141 -19q-9 -238 -120 -362t-314 -124q-437 0 -435 496v528zM454 1676l188 372h214
l-273 -372h-129z" />
    <glyph glyph-name="cacute" unicode="&#x107;" 
d="M326 357q0 -240 217 -240q109 1 159 49t56 151l141 -4q-9 -179 -93 -255t-266 -77q-182 0 -270 101q-89 101 -89 281v384q0 195 101 292t268 97t252 -90t97 -286l-141 -4q-4 128 -55 186t-161 58t-163 -62t-53 -191v-390zM363 1303l188 373h214l-273 -373h-129z" />
    <glyph glyph-name="Ccircumflex" unicode="&#x108;" horiz-adv-x="1202" 
d="M181 1005q0 503 437 503q203 0 313 -126t119 -367l-141 -19q-13 201 -81 291q-68 91 -216 91t-218 -87q-68 -87 -68 -280v-540q0 -190 69 -275q69 -84 217 -84t216 87q68 88 81 287l141 -19q-9 -238 -120 -362t-314 -124q-437 0 -435 496v528zM371 1717l-75 85l264 272
h105l268 -272l-77 -85l-243 201z" />
    <glyph glyph-name="ccircumflex" unicode="&#x109;" 
d="M326 357q0 -240 217 -240q109 1 159 49t56 151l141 -4q-9 -179 -93 -255t-266 -77q-182 0 -270 101q-89 101 -89 281v384q0 195 101 292t268 97t252 -90t97 -286l-141 -4q-4 128 -55 186t-161 58t-163 -62t-53 -191v-390zM294 1344l-74 86l264 272h104l268 -272l-76 -86
l-244 201z" />
    <glyph glyph-name="Cdotaccent" unicode="&#x10a;" horiz-adv-x="1202" 
d="M181 1005q0 503 437 503q203 0 313 -126t119 -367l-141 -19q-13 201 -81 291q-68 91 -216 91t-218 -87q-68 -87 -68 -280v-540q0 -190 69 -275q69 -84 217 -84t216 87q68 88 81 287l141 -19q-9 -238 -120 -362t-314 -124q-437 0 -435 496v528zM735 1800q-1 -56 -35 -76
t-87 -19q-53 0 -87 20t-33 75v10q0 58 34 78q35 20 87 19q52 0 86 -20t35 -77v-10z" />
    <glyph glyph-name="cdotaccent" unicode="&#x10b;" 
d="M326 357q0 -240 217 -240q109 1 159 49t56 151l141 -4q-9 -179 -93 -255t-266 -77q-182 0 -270 101q-89 101 -89 281v384q0 195 101 292t268 97t252 -90t97 -286l-141 -4q-4 128 -55 186t-161 58t-163 -62t-53 -191v-390zM659 1428q-1 -56 -35 -76t-87 -19q-53 0 -87 20
t-33 75v9q0 58 34 78q35 19 87 19t87 -19q34 -20 34 -78v-9z" />
    <glyph glyph-name="Ccaron" unicode="&#x10c;" horiz-adv-x="1202" 
d="M181 1005q0 503 437 503q203 0 313 -126t119 -367l-141 -19q-13 201 -81 291q-68 91 -216 91t-218 -87q-68 -87 -68 -280v-540q0 -190 69 -275q69 -84 217 -84t216 87q68 88 81 287l141 -19q-9 -238 -120 -362t-314 -124q-437 0 -435 496v528zM564 1683l-268 270l76 86
l244 -200l242 200l75 -86l-265 -270h-104z" />
    <glyph glyph-name="ccaron" unicode="&#x10d;" 
d="M326 357q0 -240 217 -240q109 1 159 49t56 151l141 -4q-9 -179 -93 -255t-266 -77q-182 0 -270 101q-89 101 -89 281v384q0 195 101 292t268 97t252 -90t97 -286l-141 -4q-4 128 -55 186t-161 58t-163 -62t-53 -191v-390zM488 1311l-268 270l76 85l244 -199l242 199
l74 -85l-264 -270h-104z" />
    <glyph glyph-name="Dcaron" unicode="&#x10e;" horiz-adv-x="1202" 
d="M326 130h234q151 0 235 95t84 261v510q0 169 -84 266t-235 97h-234v-1229zM181 0v1489h381q216 0 339 -135t123 -360v-506q0 -222 -123 -355t-341 -133h-379zM549 1683l-268 270l76 86l244 -200l242 200l75 -86l-265 -270h-104z" />
    <glyph glyph-name="dcaron" unicode="&#x10f;" 
d="M542 1139q99 0 197 -55v405h145v-1489h-145v138h-41q-28 -74 -93 -116t-154 -41q-127 1 -199 103t-71 288v375q0 188 94 290t267 102zM326 743v-382q0 -121 39 -179t125 -59q156 0 249 190v614q-80 80 -195 78q-218 0 -218 -262zM1000 1313l112 549h210l-220 -549h-102z
" />
    <glyph glyph-name="Dcroat" unicode="&#x110;" horiz-adv-x="1202" 
d="M326 130h234q151 0 235 95t84 261v510q0 169 -84 266t-235 97h-234v-465h275v-151h-275v-613zM181 0v743h-140v151h140v595h381q216 0 339 -135t123 -360v-506q0 -222 -123 -355t-341 -133h-379z" />
    <glyph glyph-name="dcroat" unicode="&#x111;" 
d="M542 1058q101 0 197 -56v190h-277v137h277v160h145v-160h140v-137h-140v-1192h-145v134h-41q-28 -71 -93 -112t-154 -41q-128 0 -199 104.5t-71 292.5v294q0 182 95.5 284t265.5 102zM328 380q0 -257 162 -257q155 0 249 186v540q-84 76 -195 76q-216 0 -216 -257v-288z
" />
    <glyph glyph-name="Emacron" unicode="&#x112;" 
d="M181 0v1489h729v-130h-584v-476h514v-133h-514v-620h584v-130h-729zM263 1797v130h562v-130h-562z" />
    <glyph glyph-name="emacron" unicode="&#x113;" 
d="M739 726q-1 274 -207 274t-206 -253v-90h413v69zM521 -19q-153 0 -247 101t-93 279v386q0 182 93 285q92 104 258 104t259 -108t93 -298v-198h-558v-175q0 -128 52 -185t156 -57t151 40q48 40 69 128l138 -45q-42 -140 -130 -198t-241 -59zM249 1424v131h563v-131h-563z
" />
    <glyph glyph-name="Ebreve" unicode="&#x114;" 
d="M181 0v1489h729v-130h-584v-476h514v-133h-514v-620h584v-130h-729zM544 1663q-158 0 -241 94t-85 278h143q2 -134 47 -192t136 -58t136 58t46 192h143q-3 -184 -85 -278t-240 -94z" />
    <glyph glyph-name="ebreve" unicode="&#x115;" 
d="M739 726q-1 274 -207 274t-206 -253v-90h413v69zM521 -19q-153 0 -247 101t-93 279v386q0 182 93 285q92 104 258 104t259 -108t93 -298v-198h-558v-175q0 -128 52 -185t156 -57t151 40q48 40 69 128l138 -45q-42 -140 -130 -198t-241 -59zM531 1413q91 0 136 58t46 192
h143q-4 -373 -325 -373q-158 0 -241 94t-85 279h143q2 -134 47 -192t136 -58z" />
    <glyph glyph-name="Edotaccent" unicode="&#x116;" 
d="M181 0v1489h729v-130h-584v-476h514v-133h-514v-620h584v-130h-729zM672 1800q0 -56 -34 -76t-88 -19q-52 0 -86 20t-34 75v10q0 58 34 78t86 19q52 0 88 -20q34 -20 34 -77v-10z" />
    <glyph glyph-name="edotaccent" unicode="&#x117;" 
d="M739 726q-1 274 -207 274t-206 -253v-90h413v69zM521 -19q-153 0 -247 101t-93 279v386q0 182 93 285q92 104 258 104t259 -108t93 -298v-198h-558v-175q0 -128 52 -185t156 -57t151 40q48 40 69 128l138 -45q-42 -140 -130 -198t-241 -59zM652 1428q0 -56 -34 -76
t-88 -19q-53 0 -87 20t-33 75v9q0 58 33 78q34 19 87 19t87 -20t35 -77v-9z" />
    <glyph glyph-name="Eogonek" unicode="&#x118;" 
d="M756 -397q-78 0 -139 60t-61 150t57 156q14 16 28 31h-460v1489h729v-130h-584v-476h514v-133h-514v-620h584v-130h-185q-40 -54 -40 -121q0 -125 99 -125q30 0 125 19v-151q-75 -19 -153 -19z" />
    <glyph glyph-name="eogonek" unicode="&#x119;" 
d="M730 -397q-78 0 -139 60t-61 150t56 156l14 16q-30 -3 -64 -4q-168 0 -262 101t-93 279v386q0 182 93 285q92 104 258 104t259 -108t93 -298v-198h-558v-175q0 -128 52 -185t156 -57t151 40q48 40 69 128l138 -45q-50 -172 -184 -227q-49 -57 -49 -128q0 -129 99 -129
q30 0 125 19v-151q-75 -19 -153 -19zM739 726q-1 274 -207 274t-206 -253v-90h413v69z" />
    <glyph glyph-name="Ecaron" unicode="&#x11a;" 
d="M181 0v1489h729v-130h-584v-476h514v-133h-514v-620h584v-130h-729zM493 1683l-268 270l77 86l244 -200l242 200l74 -86l-264 -270h-105z" />
    <glyph glyph-name="ecaron" unicode="&#x11b;" 
d="M739 726q-1 274 -207 274t-206 -253v-90h413v69zM521 -19q-153 0 -247 101t-93 279v386q0 182 93 285q92 104 258 104t259 -108t93 -298v-198h-558v-175q0 -128 52 -185t156 -57t151 40q48 40 69 128l138 -45q-42 -140 -130 -198t-241 -59zM480 1311l-268 270l77 85
l243 -199l243 199l74 -85l-264 -270h-105z" />
    <glyph glyph-name="Gcircumflex" unicode="&#x11c;" horiz-adv-x="1202" 
d="M1050 501q0 -520 -428 -520q-216 0 -328 126q-114 126 -113 370v528q0 249 109 376t322 127t310 -111t108 -356l-146 -19q-9 184 -75 270q-67 86 -207 86t-208 -88t-68 -279v-540q0 -186 74 -273q74 -86 224 -86q151 0 217 102t66 324h-306v130h449v-167zM371 1717
l-75 85l264 272h105l268 -272l-77 -85l-243 201z" />
    <glyph glyph-name="gcircumflex" unicode="&#x11d;" horiz-adv-x="1202" 
d="M324 -89q0 -172 145 -172h283q62 1 102 37t40 118t-36 118t-93 36h-441v-137zM575 564q175 0 173 181v59q0 99 -43 140q-44 41 -130 41q-85 0 -129 -41t-44 -140v-59q0 -97 44 -139t129 -42zM400 430q-76 0 -76 -121t108 -121h316q116 0 196 -67t80 -221t-85 -223
q-85 -68 -204 -68h-264q-127 0 -209 63t-81 214q0 86 36 139t105 61v39q-50 7 -82 50t-32 124t38 145q37 64 128 72v33q-69 32 -93 93t-24 106v66q0 128 83 216t233 87h416v-156l-218 52v-37q55 -22 85 -81t30 -113v-61q0 -125 -75 -208t-243 -83h-168zM356 1344l-75 86
l265 272h104l268 -272l-76 -86l-244 201z" />
    <glyph glyph-name="Gbreve" unicode="&#x11e;" horiz-adv-x="1202" 
d="M1050 501q0 -520 -428 -520q-216 0 -328 126q-114 126 -113 370v528q0 249 109 376t322 127t310 -111t108 -356l-146 -19q-9 184 -75 270q-67 86 -207 86t-208 -88t-68 -279v-540q0 -186 74 -273q74 -86 224 -86q151 0 217 102t66 324h-306v130h449v-167zM614 1663
q-158 0 -241 94t-84 278h143q2 -134 46 -192t136 -58q91 0 136 58t47 192h143q-2 -184 -85 -278t-241 -94z" />
    <glyph glyph-name="gbreve" unicode="&#x11f;" horiz-adv-x="1202" 
d="M324 -89q0 -172 145 -172h283q62 1 102 37t40 118t-36 118t-93 36h-441v-137zM575 564q175 0 173 181v59q0 99 -43 140q-44 41 -130 41q-85 0 -129 -41t-44 -140v-59q0 -97 44 -139t129 -42zM400 430q-76 0 -76 -121t108 -121h316q116 0 196 -67t80 -221t-85 -223
q-85 -68 -204 -68h-264q-127 0 -209 63t-81 214q0 86 36 139t105 61v39q-50 7 -82 50t-32 124t38 145q37 64 128 72v33q-69 32 -93 93t-24 106v66q0 128 83 216t233 87h416v-156l-218 52v-37q55 -22 85 -81t30 -113v-61q0 -125 -75 -208t-243 -83h-168zM600 1413
q92 0 136 58t46 192h143q-4 -373 -325 -373q-158 0 -242 94q-83 94 -84 279h143q2 -134 47 -192t136 -58z" />
    <glyph glyph-name="Gdotaccent" unicode="&#x120;" horiz-adv-x="1202" 
d="M1050 501q0 -520 -428 -520q-216 0 -328 126q-114 126 -113 370v528q0 249 109 376t322 127t310 -111t108 -356l-146 -19q-9 184 -75 270q-67 86 -207 86t-208 -88t-68 -279v-540q0 -186 74 -273q74 -86 224 -86q151 0 217 102t66 324h-306v130h449v-167zM735 1800
q-1 -56 -35 -76t-87 -19q-53 0 -87 20t-33 75v10q0 58 34 78q35 20 87 19q52 0 86 -20t35 -77v-10z" />
    <glyph glyph-name="gdotaccent" unicode="&#x121;" horiz-adv-x="1202" 
d="M324 -89q0 -172 145 -172h283q62 1 102 37t40 118t-36 118t-93 36h-441v-137zM575 564q175 0 173 181v59q0 99 -43 140q-44 41 -130 41q-85 0 -129 -41t-44 -140v-59q0 -97 44 -139t129 -42zM400 430q-76 0 -76 -121t108 -121h316q116 0 196 -67t80 -221t-85 -223
q-85 -68 -204 -68h-264q-127 0 -209 63t-81 214q0 86 36 139t105 61v39q-50 7 -82 50t-32 124t38 145q37 64 128 72v33q-69 32 -93 93t-24 106v66q0 128 83 216t233 87h416v-156l-218 52v-37q55 -22 85 -81t30 -113v-61q0 -125 -75 -208t-243 -83h-168zM721 1428
q-1 -56 -35 -76t-87 -19q-53 0 -87 20t-34 75v9q0 58 34 78q34 19 87 19t87 -20t35 -77v-9z" />
    <glyph glyph-name="Gcommaaccent" unicode="&#x122;" horiz-adv-x="1202" 
d="M426 -559l133 373h214l-218 -373h-129zM1050 501q0 -520 -428 -520q-216 0 -328 126q-114 126 -113 370v528q0 249 109 376t322 127t310 -111t108 -356l-146 -19q-9 184 -75 270q-67 86 -207 86t-208 -88t-68 -279v-540q0 -186 74 -273q74 -86 224 -86q151 0 217 102
t66 324h-306v130h449v-167z" />
    <glyph glyph-name="gcommaaccent" unicode="&#x123;" horiz-adv-x="1202" 
d="M324 -89q0 -172 145 -172h283q62 1 102 37t40 118t-36 118t-93 36h-441v-137zM575 564q175 0 173 181v59q0 99 -43 140q-44 41 -130 41q-85 0 -129 -41t-44 -140v-59q0 -97 44 -139t129 -42zM400 430q-76 0 -76 -121t108 -121h316q116 0 196 -67t80 -221t-85 -223
q-85 -68 -204 -68h-264q-127 0 -209 63t-81 214q0 86 36 139t105 61v39q-50 7 -82 50t-32 124t38 145q37 64 128 72v33q-69 32 -93 93t-24 106v66q0 128 83 216t233 87h416v-156l-218 52v-37q55 -22 85 -81t30 -113v-61q0 -125 -75 -208t-243 -83h-168zM467 1303l218 373
h129l-133 -373h-214z" />
    <glyph glyph-name="Hcircumflex" unicode="&#x124;" horiz-adv-x="1202" 
d="M181 0v1489h145v-620h553v620h145v-1489h-145v737h-553v-737h-145zM356 1717l-75 85l265 272h104l268 -272l-76 -85l-244 201z" />
    <glyph glyph-name="hcircumflex" unicode="&#x125;" 
d="M326 0h-145v1489h145v-513h41q39 72 107 116t139 44q123 0 197 -94t74 -245v-797h-145v761q0 112 -41 172t-121 59q-148 0 -251 -169v-823zM6 1717l-75 85l264 272h105l268 -272l-76 -85l-244 201z" />
    <glyph glyph-name="Hbar" unicode="&#x126;" horiz-adv-x="1202" 
d="M326 676v-676h-145v1050h-140v149h140v290h145v-290h553v290h145v-290h140v-149h-140v-1050h-145v676h-553zM326 808h553v242h-553v-242z" />
    <glyph glyph-name="hbar" unicode="&#x127;" 
d="M367 894q75 160 275 160q102 0 172 -76.5t70 -210.5v-767h-145v730q0 182 -162 182q-150 0 -251 -169v-743h-145v1192h-140v137h140v160h145v-160h277v-137h-277v-298h41z" />
    <glyph glyph-name="Itilde" unicode="&#x128;" 
d="M181 0v130h279v1229h-279v130h703v-130h-279v-1229h279v-130h-703zM715 2022v15h108v-28q-1 -135 -47 -225t-137 -90q-58 0 -92 37t-55 79t-41 76q-20 35 -45 35q-64 0 -62 -193v-15h-109v28q0 132 46 223q47 91 138 91q63 0 97 -38t56 -78t38 -75t40 -36q65 0 65 194z
" />
    <glyph glyph-name="itilde" unicode="&#x129;" horiz-adv-x="754" 
d="M305 0v1117h144v-1117h-144zM499 1456q65 0 65 194v14h108v-27q0 -136 -46 -226q-47 -89 -138 -89q-58 0 -92 37t-54 78q-21 41 -41 77t-46 35q-65 0 -61 -194v-14h-110v27q0 132 46 224q47 91 138 91q63 0 105 -46t86 -146q16 -35 40 -35z" />
    <glyph glyph-name="Imacron" unicode="&#x12a;" 
d="M181 0v130h279v1229h-279v130h703v-130h-279v-1229h279v-130h-703zM248 1797v130h562v-130h-562z" />
    <glyph glyph-name="imacron" unicode="&#x12b;" horiz-adv-x="754" 
d="M305 0v1117h144v-1117h-144zM97 1424v131h562v-131h-562z" />
    <glyph glyph-name="Ibreve" unicode="&#x12c;" 
d="M181 0v130h279v1229h-279v130h703v-130h-279v-1229h279v-130h-703zM529 1663q-158 0 -241 94t-85 278h143q2 -134 47 -192t136 -58t136 58t46 192h144q-2 -184 -85 -278t-241 -94z" />
    <glyph glyph-name="ibreve" unicode="&#x12d;" horiz-adv-x="754" 
d="M305 0v1117h144v-1117h-144zM378 1290q-158 0 -241 94t-85 279h143q2 -134 47 -192t136 -58t136 58t46 192h144q-2 -185 -85 -279t-241 -94z" />
    <glyph glyph-name="Iogonek" unicode="&#x12e;" 
d="M595 -397q-77 0 -138 60t-61 150t56 156q14 16 28 31h-299v130h279v1229h-279v130h703v-130h-279v-1229h279v-130h-319q-40 -54 -40 -121q0 -125 99 -125q33 0 124 19v-151q-76 -19 -153 -19z" />
    <glyph glyph-name="iogonek" unicode="&#x12f;" horiz-adv-x="754" 
d="M499 1428q-1 -56 -35 -76t-87 -19q-53 0 -87 20t-33 75v9q0 58 33 78q34 19 87 19t88 -19q34 -20 34 -78v-9zM412 -397q-78 0 -138 60t-60 159t91 185v1110h144v-1117h-67q-41 -56 -40 -122q2 -124 99 -124q34 0 125 19v-151q-76 -19 -154 -19z" />
    <glyph glyph-name="Idotaccent" unicode="&#x130;" 
d="M181 0v130h279v1229h-279v130h703v-130h-279v-1229h279v-130h-703zM650 1800q0 -56 -34 -76t-88 -19q-53 0 -87 20t-33 75v10q0 58 34 78t86 19q53 0 87 -20t35 -77v-10z" />
    <glyph glyph-name="dotlessi" unicode="&#x131;" horiz-adv-x="754" 
d="M305 0v1117h144v-1117h-144z" />
    <glyph glyph-name="IJ" unicode="&#x132;" horiz-adv-x="2070" 
d="M194 0v130h279v1229h-279v130h703v-130h-279v-1229h279v-130h-703zM1880 439q0 -220 -96 -339t-284 -119t-279 114t-100 365l145 20q9 -216 56 -292q46 -76 172 -76t184 79t57 239v929h-281v130h426v-1050z" />
    <glyph glyph-name="ij" unicode="&#x133;" horiz-adv-x="1482" 
d="M510 1428q0 -56 -34 -76t-88 -19q-52 0 -86 20t-34 75v9q0 58 34 78q34 19 86 19t88 -19q34 -20 34 -78v-9zM317 0v1117h143v-1117h-143zM946 -240q61 0 102 48t41 166v1007h-279v136h423v-1154q0 -179 -85 -265t-200 -85q-80 0 -179 41l28 149q88 -43 149 -43z
M1279 1428q-1 -56 -35 -76t-87 -19q-53 0 -87 20t-33 75v9q0 58 34 78q35 19 87 19t87 -19q34 -20 34 -78v-9z" />
    <glyph glyph-name="Jcircumflex" unicode="&#x134;" 
d="M884 439q0 -220 -96 -339t-284 -119t-279 114t-100 365l145 20q9 -216 56 -292q46 -76 172 -76t184 79t57 239v929h-281v130h426v-1050zM424 1717l-74 85l264 272h105l268 -272l-77 -85l-243 201z" />
    <glyph glyph-name="jcircumflex" unicode="&#x135;" horiz-adv-x="783" 
d="M391 -26v1007h-279v136h422v-1154q0 -179 -84 -265q-86 -85 -201 -85q-79 0 -178 41l28 149q88 -43 149 -43t102 48t41 166zM169 1344l-74 86l264 272h105l268 -272l-77 -86l-244 201z" />
    <glyph glyph-name="Kcommaaccent" unicode="&#x136;" 
d="M326 735v-735h-145v1489h145v-623h46l429 623h165l-484 -683l481 -806h-174l-413 735h-50zM330 -559l132 373h214l-218 -373h-128z" />
    <glyph glyph-name="kcommaaccent" unicode="&#x137;" horiz-adv-x="923" 
d="M326 525v-525h-145v1489h145v-836h69l266 464h175l-333 -525l327 -592h-163l-272 525h-69zM290 -559l133 373h214l-218 -373h-129z" />
    <glyph glyph-name="kgreenlandic" unicode="&#x138;" horiz-adv-x="923" 
d="M326 544v-544h-145v1117h145v-445h65l292 445h166l-356 -506l337 -611h-156l-279 544h-69z" />
    <glyph glyph-name="Lacute" unicode="&#x139;" horiz-adv-x="923" 
d="M181 0v1489h145v-1359h501v-130h-646zM125 1676l188 372h214l-274 -372h-128z" />
    <glyph glyph-name="lacute" unicode="&#x13a;" horiz-adv-x="783" 
d="M555 -6q-145 0 -225 100q-79 100 -79 282v1113h144v-1115q0 -242 164 -242q42 0 98 28l28 -130q-72 -36 -130 -36zM181 1676l188 372h214l-274 -372h-128z" />
    <glyph glyph-name="Lcommaaccent" unicode="&#x13b;" horiz-adv-x="923" 
d="M181 0v1489h145v-1359h501v-130h-646zM309 -559l132 373h214l-217 -373h-129z" />
    <glyph glyph-name="lcommaaccent" unicode="&#x13c;" horiz-adv-x="783" 
d="M555 -6q-145 0 -225 100q-79 100 -79 282v1113h144v-1115q0 -242 164 -242q42 0 98 28l28 -130q-72 -36 -130 -36zM290 -559l133 373h214l-218 -373h-129z" />
    <glyph glyph-name="Lcaron" unicode="&#x13d;" horiz-adv-x="923" 
d="M181 0v1489h145v-1359h501v-130h-646zM546 940l111 549h211l-220 -549h-102z" />
    <glyph glyph-name="lcaron" unicode="&#x13e;" horiz-adv-x="783" 
d="M555 -6q-145 0 -225 100q-79 100 -79 282v1113h144v-1115q0 -242 164 -242q42 0 98 28l28 -130q-72 -36 -130 -36zM527 1313l112 549h210l-220 -549h-102z" />
    <glyph glyph-name="Ldot" unicode="&#x13f;" horiz-adv-x="1232" 
d="M194 0v1489h145v-1359h501v-130h-646zM987 875q-1 -55 -35 -75t-87 -20t-87 20t-33 75v9q0 58 33 78q34 20 87 20t87 -20t35 -78v-9z" />
    <glyph glyph-name="ldot" unicode="&#x140;" horiz-adv-x="1202" 
d="M555 -6q-145 0 -225 100q-79 100 -79 282v1113h144v-1115q0 -242 164 -242q42 0 98 28l28 -130q-72 -36 -130 -36zM1030 663q0 -55 -34 -75t-88 -20q-53 0 -87 20t-33 75v9q0 58 34 78t86 19q53 0 87 -20t35 -77v-9z" />
    <glyph glyph-name="Lslash" unicode="&#x141;" horiz-adv-x="923" 
d="M181 0v687l-138 -54v123l138 54v679h145v-621l346 137v-122l-346 -138v-615h501v-130h-646z" />
    <glyph glyph-name="lslash" unicode="&#x142;" horiz-adv-x="783" 
d="M555 -6q-145 0 -224.5 100t-79.5 282v268l-139 -48v123l139 50v720h144v-670l277 101v-127l-277 -99v-320q0 -242 164 -242q42 0 98 28l28 -130q-72 -36 -130 -36z" />
    <glyph glyph-name="Nacute" unicode="&#x143;" horiz-adv-x="1202" 
d="M317 0h-136v1489h201l506 -1264v1264h136v-1489h-209l-498 1272v-1272zM469 1676l188 372h214l-273 -372h-129z" />
    <glyph glyph-name="nacute" unicode="&#x144;" 
d="M577 992q-150 0 -251 -169v-823h-145v1117h145v-141h41q31 68 101 114t145 46q117 0 194 -97t77 -244v-795h-145v761q0 107 -43 169t-119 62zM397 1303l188 373h214l-274 -373h-128z" />
    <glyph glyph-name="Ncommaaccent" unicode="&#x145;" horiz-adv-x="1202" 
d="M384 -559l132 373h214l-218 -373h-128zM317 0h-136v1489h201l506 -1264v1264h136v-1489h-209l-498 1272v-1272z" />
    <glyph glyph-name="ncommaaccent" unicode="&#x146;" 
d="M341 -559l132 373h214l-218 -373h-128zM577 992q-150 0 -251 -169v-823h-145v1117h145v-141h41q31 68 101 114t145 46q117 0 194 -97t77 -244v-795h-145v761q0 107 -43 169t-119 62z" />
    <glyph glyph-name="Ncaron" unicode="&#x147;" horiz-adv-x="1202" 
d="M317 0h-136v1489h201l506 -1264v1264h136v-1489h-209l-498 1272v-1272zM579 1683l-268 270l76 86l244 -200l242 200l75 -86l-265 -270h-104z" />
    <glyph glyph-name="ncaron" unicode="&#x148;" 
d="M577 992q-150 0 -251 -169v-823h-145v1117h145v-141h41q31 68 101 114t145 46q117 0 194 -97t77 -244v-795h-145v761q0 107 -43 169t-119 62zM506 1311l-268 270l77 85l244 -199l242 199l74 -85l-264 -270h-105z" />
    <glyph glyph-name="napostrophe" unicode="&#x149;" horiz-adv-x="1033" 
d="M566 992q-150 0 -251 -169v-823h-146v1117h146v-141h41q32 68 102 114t143 46q117 0 195 -97t77 -244v-795h-145v761q0 107 -43 169t-119 62zM7 1303l188 373h215l-274 -373h-129z" />
    <glyph glyph-name="Eng" unicode="&#x14a;" horiz-adv-x="1202" 
d="M879 1123q0 242 -235 242q-95 0 -177.5 -49.5t-140.5 -144.5v-1171h-145v1489h145v-167h41q28 84 116.5 135t224.5 51t226 -97t90 -253v-1130q0 -209 -94 -312t-234 -103q-100 0 -218 67l28 160q125 -67 198 -67t124 63t51 214v1073z" />
    <glyph glyph-name="eng" unicode="&#x14b;" 
d="M577 992q-153 0 -251 -169v-823h-145v1117h145v-141h41q24 74 94 117t177 43t176.5 -78.5t69.5 -214.5v-903q0 -162 -81.5 -244.5t-204.5 -82.5q-76 0 -175 41l28 149q84 -41 143 -41q145 0 145 191v857q0 182 -162 182z" />
    <glyph glyph-name="Omacron" unicode="&#x14c;" horiz-adv-x="1202" 
d="M602 112q144 0 211 91q66 91 66 290v518q0 190 -66 278q-67 89 -211 89t-210 -88t-66 -279v-518q0 -199 66 -290t210 -91zM1024 499q0 -257 -107 -387t-315 -131q-208 1 -314 131t-107 387v506q0 249 107 376q108 127 314 127t314 -127t108 -376v-506zM318 1797v130h563
v-130h-563z" />
    <glyph glyph-name="omacron" unicode="&#x14d;" 
d="M739 702q0 298 -208 298q-105 0 -155 -74t-50 -224v-300q0 -145 50 -215t155 -70q106 0 157 70t51 215v300zM532 -19q-170 0 -260 111q-91 111 -91 316v294q0 210 91 322t260 112q168 0 260 -112t92 -322v-294q0 -205 -91 -316t-261 -111zM248 1424v131h562v-131h-562z
" />
    <glyph glyph-name="Obreve" unicode="&#x14e;" horiz-adv-x="1202" 
d="M602 112q144 0 211 91q66 91 66 290v518q0 190 -66 278q-67 89 -211 89t-210 -88t-66 -279v-518q0 -199 66 -290t210 -91zM1024 499q0 -257 -107 -387t-315 -131q-208 1 -314 131t-107 387v506q0 249 107 376q108 127 314 127t314 -127t108 -376v-506zM600 1663
q-158 0 -242 94q-83 94 -84 278h143q2 -134 47 -192t136 -58q92 0 136 58t46 192h143q-3 -184 -85 -278t-240 -94z" />
    <glyph glyph-name="obreve" unicode="&#x14f;" 
d="M739 702q0 298 -208 298q-105 0 -155 -74t-50 -224v-300q0 -145 50 -215t155 -70q106 0 157 70t51 215v300zM532 -19q-170 0 -260 111q-91 111 -91 316v294q0 210 91 322t260 112q168 0 260 -112t92 -322v-294q0 -205 -91 -316t-261 -111zM529 1290q-158 0 -241 94
t-85 279h143q2 -134 47 -192t136 -58t136 58t46 192h144q-2 -185 -85 -279t-241 -94z" />
    <glyph glyph-name="Ohungarumlaut" unicode="&#x150;" horiz-adv-x="1202" 
d="M602 112q144 0 211 91q66 91 66 290v518q0 190 -66 278q-67 89 -211 89t-210 -88t-66 -279v-518q0 -199 66 -290t210 -91zM1024 499q0 -257 -107 -387t-315 -131q-208 1 -314 131t-107 387v506q0 249 107 376q108 127 314 127t314 -127t108 -376v-506zM384 1676l76 372
h199l-175 -372h-100zM704 1676l78 372h197l-175 -372h-100z" />
    <glyph glyph-name="ohungarumlaut" unicode="&#x151;" 
d="M739 702q0 298 -208 298q-105 0 -155 -74t-50 -224v-300q0 -145 50 -215t155 -70q106 0 157 70t51 215v300zM532 -19q-170 0 -260 111q-91 111 -91 316v294q0 210 91 322t260 112q168 0 260 -112t92 -322v-294q0 -205 -91 -316t-261 -111zM313 1303l76 373h199l-175 -373
h-100zM633 1303l78 373h198l-175 -373h-101z" />
    <glyph glyph-name="OE" unicode="&#x152;" horiz-adv-x="1511" 
d="M614 130h140v1229h-140q-132 0 -203.5 -95t-71.5 -268v-514q0 -168 71.5 -260t203.5 -92zM614 0q-197 0 -308.5 130.5t-111.5 353.5v506q0 233 111.5 366t307.5 133h733v-130h-447v-476h378v-133h-378v-620h447v-130h-732z" />
    <glyph glyph-name="oe" unicode="&#x153;" horiz-adv-x="1482" 
d="M670 747q0 253 -129.5 253t-172 -60.5t-42.5 -192.5v-390q0 -128 42.5 -184t128.5 -56t129.5 56t43.5 184v390zM1158 761q0 239 -172 239t-172 -222v-121h344v104zM989 1136q141 0 227.5 -87.5t86.5 -272.5v-244h-489v-208q0 -114 41.5 -161.5t128.5 -47.5t127 32t53 121
l143 -4q-17 -136 -88.5 -209.5t-214.5 -73.5q-192 0 -267 147q-77 -147 -253 -147q-136 0 -219.5 93.5t-83.5 284.5v391q0 194 84.5 290t218.5 96q174 0 253 -149q74 149 252 149z" />
    <glyph glyph-name="Racute" unicode="&#x154;" horiz-adv-x="1202" 
d="M326 0h-145v1489h502q166 -1 253 -99t86 -286v-112q0 -173 -71 -274t-204 -120l290 -598h-166l-288 596h-257v-596zM879 1108q0 251 -209 251h-344v-637h344q209 0 209 270v116zM421 1676l188 372h214l-274 -372h-128z" />
    <glyph glyph-name="racute" unicode="&#x155;" horiz-adv-x="923" 
d="M181 0v1117h145v-141h41q24 84 88 122t147 38t140 -68t57 -197v-204h-138v189q0 64 -31 100t-85 36t-118 -49t-101 -124v-819h-145zM356 1303l188 373h214l-274 -373h-128z" />
    <glyph glyph-name="Rcommaaccent" unicode="&#x156;" horiz-adv-x="1202" 
d="M326 0h-145v1489h502q166 -1 253 -99t86 -286v-112q0 -173 -71 -274t-204 -120l290 -598h-166l-288 596h-257v-596zM879 1108q0 251 -209 251h-344v-637h344q209 0 209 270v116zM391 -559l132 373h214l-218 -373h-128z" />
    <glyph glyph-name="rcommaaccent" unicode="&#x157;" horiz-adv-x="923" 
d="M181 0v1117h145v-141h41q24 84 88 122t147 38t140 -68t57 -197v-204h-138v189q0 64 -31 100t-85 36t-118 -49t-101 -124v-819h-145zM63 -559l132 373h215l-218 -373h-129z" />
    <glyph glyph-name="Rcaron" unicode="&#x158;" horiz-adv-x="1202" 
d="M326 0h-145v1489h502q166 -1 253 -99t86 -286v-112q0 -173 -71 -274t-204 -120l290 -598h-166l-288 596h-257v-596zM879 1108q0 251 -209 251h-344v-637h344q209 0 209 270v116zM542 1683l-268 270l76 86l244 -200l242 200l74 -86l-264 -270h-104z" />
    <glyph glyph-name="rcaron" unicode="&#x159;" horiz-adv-x="923" 
d="M181 0v1117h145v-141h41q24 84 88 122t147 38t140 -68t57 -197v-204h-138v189q0 64 -31 100t-85 36t-118 -49t-101 -124v-819h-145zM465 1311l-268 270l77 85l244 -199l242 199l74 -85l-264 -270h-105z" />
    <glyph glyph-name="Sacute" unicode="&#x15a;" horiz-adv-x="1202" 
d="M1037 421q0 -199 -116 -313t-308 -115q-123 1 -238 47t-187 115l52 119q169 -153 387 -153q125 0 196 72q71 73 71 187t-62 175t-266 154t-284 188q-79 95 -79 251t103 251q103 94 284 94q108 0 217 -49t176 -117l-50 -124q-173 160 -354 160q-108 0 -169 -61
q-62 -61 -62 -162t67 -162t268 -148t277 -178t77 -231zM441 1676l188 372h214l-273 -372h-129z" />
    <glyph glyph-name="sacute" unicode="&#x15b;" 
d="M499 996q-171 0 -171 -174q0 -88 52 -126q52 -39 202 -78t229 -113t79 -216q0 -143 -96 -227t-252 -84q-104 0 -208 34t-179 100l61 123q64 -50 152 -83t176 -33q199 0 199 164q0 95 -50 135q-49 40 -195 78t-231 106t-85 216t88 233t233 85q93 0 190 -38t167 -106
l-61 -124q-163 128 -300 128zM367 1303l188 373h214l-274 -373h-128z" />
    <glyph glyph-name="Scircumflex" unicode="&#x15c;" horiz-adv-x="1202" 
d="M1037 421q0 -199 -116 -313t-308 -115q-123 1 -238 47t-187 115l52 119q169 -153 387 -153q125 0 196 72q71 73 71 187t-62 175t-266 154t-284 188q-79 95 -79 251t103 251q103 94 284 94q108 0 217 -49t176 -117l-50 -124q-173 160 -354 160q-108 0 -169 -61
q-62 -61 -62 -162t67 -162t268 -148t277 -178t77 -231zM357 1717l-74 85l264 272h105l268 -272l-77 -85l-243 201z" />
    <glyph glyph-name="scircumflex" unicode="&#x15d;" 
d="M499 996q-171 0 -171 -174q0 -88 52 -126q52 -39 202 -78t229 -113t79 -216q0 -143 -96 -227t-252 -84q-104 0 -208 34t-179 100l61 123q64 -50 152 -83t176 -33q199 0 199 164q0 95 -50 135q-49 40 -195 78t-231 106t-85 216t88 233t233 85q93 0 190 -38t167 -106
l-61 -124q-163 128 -300 128zM283 1344l-74 86l264 272h104l268 -272l-76 -86l-244 201z" />
    <glyph glyph-name="Scedilla" unicode="&#x15e;" horiz-adv-x="1202" 
d="M894 380q0 114 -62 175t-266 154t-284 188q-79 95 -79 251t103 251q103 94 284 94q108 0 217 -49t176 -117l-50 -124q-173 160 -354 160q-108 0 -169 -61q-62 -61 -62 -162t67 -162t268 -148t277 -178t77 -231q0 -199 -116 -314q-83 -82 -206 -105q51 -76 50 -182
q0 -106 -67 -160q-68 -54 -150 -55q-197 0 -209 179l128 19q2 -35 21 -49q18 -14 60 -15t64 23t21 91q0 67 -15 97t-45 44q-101 6 -207 49t-178 112l52 119q169 -153 387 -153q125 0 196 72q71 73 71 187z" />
    <glyph glyph-name="scedilla" unicode="&#x15f;" 
d="M499 996q-171 0 -171 -174q0 -88 52 -126q52 -39 202 -78t229 -113t79 -216t-97 -227q-61 -53 -144 -73q42 -63 42 -169t-67 -160t-150 -55q-198 0 -210 179l129 19q2 -35 20 -50q19 -14 61 -14q42 -1 63 23t22 103t-37 113q-94 3 -194 35t-173 99l61 123q64 -50 152 -83
t176 -33q199 0 199 164q0 95 -50 135q-49 40 -195 78t-231 106t-85 216t88 233t233 85q93 0 190 -38t167 -106l-61 -124q-163 128 -300 128z" />
    <glyph glyph-name="Scaron" unicode="&#x160;" horiz-adv-x="1202" 
d="M1037 421q0 -199 -116 -313t-308 -115q-123 1 -238 47t-187 115l52 119q169 -153 387 -153q125 0 196 72q71 73 71 187t-62 175t-266 154t-284 188q-79 95 -79 251t103 251q103 94 284 94q108 0 217 -49t176 -117l-50 -124q-173 160 -354 160q-108 0 -169 -61
q-62 -61 -62 -162t67 -162t268 -148t277 -178t77 -231zM551 1683l-268 270l76 86l244 -200l242 200l75 -86l-265 -270h-104z" />
    <glyph glyph-name="scaron" unicode="&#x161;" 
d="M499 996q-171 0 -171 -174q0 -88 52 -126q52 -39 202 -78t229 -113t79 -216q0 -143 -96 -227t-252 -84q-104 0 -208 34t-179 100l61 123q64 -50 152 -83t176 -33q199 0 199 164q0 95 -50 135q-49 40 -195 78t-231 106t-85 216t88 233t233 85q93 0 190 -38t167 -106
l-61 -124q-163 128 -300 128zM477 1311l-268 270l76 85l244 -199l242 199l74 -85l-264 -270h-104z" />
    <glyph glyph-name="Tcedilla" unicode="&#x162;" 
d="M678 -164q0 -122 -67 -176t-150 -55q-198 0 -210 179l129 19q2 -35 20 -50q19 -14 61 -14q42 -1 63 23q22 24 22 91t-17 100t-58 47h-11v1359h-348v130h841v-130h-348v-1333q73 -68 73 -190z" />
    <glyph glyph-name="tcedilla" unicode="&#x163;" horiz-adv-x="923" 
d="M465 303q0 -91 40 -135t107 -45q67 0 142 37l28 -134q-45 -25 -110 -37q41 -63 41 -169t-67 -160q-68 -54 -150 -55q-197 0 -209 179l128 19q2 -35 21 -49q18 -14 60 -15t63 23t21 91t-14 95q-15 28 -41 44q-80 19 -131 81q-74 89 -74 249v659h-167v136h167v372h145v-372
h306v-136h-306v-678z" />
    <glyph glyph-name="Tcaron" unicode="&#x164;" 
d="M460 0v1359h-348v130h841v-130h-348v-1359h-145zM478 1683l-268 270l77 86l244 -200l242 200l74 -86l-264 -270h-105z" />
    <glyph glyph-name="tcaron" unicode="&#x165;" horiz-adv-x="923" 
d="M320 322v659h-167v136h167v372h145v-372h306v-136h-306v-678q0 -91 40 -135t107 -45q67 0 142 37l28 -134q-77 -43 -196 -43q-118 -1 -192 89t-74 250zM581 1313l112 549h210l-220 -549h-102z" />
    <glyph glyph-name="Tbar" unicode="&#x166;" 
d="M460 0v588h-279v149h279v622h-348v130h841v-130h-348v-622h279v-149h-279v-588h-145z" />
    <glyph glyph-name="tbar" unicode="&#x167;" horiz-adv-x="923" 
d="M320 322v218h-167v149h167v292h-167v136h167v372h145v-372h306v-136h-306v-292h306v-149h-306v-237q0 -91 40.5 -135.5t106.5 -44.5t142 37l28 -134q-77 -43 -196 -43t-192.5 89.5t-73.5 249.5z" />
    <glyph glyph-name="Utilde" unicode="&#x168;" horiz-adv-x="1202" 
d="M1024 478q0 -246 -107 -372t-315 -125q-208 0 -314 126t-107 371v1011h145v-1027q0 -186 65 -271t210 -85t212 85q66 85 66 271v1027h145v-1011zM786 2022v15h108v-28q0 -135 -47 -225t-138 -90q-57 0 -91 37t-55 79t-41 76q-20 35 -45 35q-66 0 -62 -193v-15h-110v28
q0 132 47 223t138 91q63 0 97 -38q33 -38 55 -78t38 -75t41 -36q65 0 65 194z" />
    <glyph glyph-name="utilde" unicode="&#x169;" 
d="M449 -19q-117 0 -193 96q-75 96 -75 245v795h145v-761q0 -110 42 -171t116 -61q157 1 255 170v823h145v-1117h-145v141h-41q-20 -69 -92 -115t-157 -45zM650 1456q65 0 65 194v14h108v-27q-1 -135 -47 -225t-137 -90q-58 0 -92 37t-55 78t-41 77t-45 35q-64 0 -62 -194
v-14h-109v27q0 132 46 224q47 91 138 91q63 0 105 -46t86 -146q16 -35 40 -35z" />
    <glyph glyph-name="Umacron" unicode="&#x16a;" horiz-adv-x="1202" 
d="M1024 478q0 -246 -107 -372t-315 -125q-208 0 -314 126t-107 371v1011h145v-1027q0 -186 65 -271t210 -85t212 85q66 85 66 271v1027h145v-1011zM318 1797v130h563v-130h-563z" />
    <glyph glyph-name="umacron" unicode="&#x16b;" 
d="M449 -19q-117 0 -193 96q-75 96 -75 245v795h145v-761q0 -110 42 -171t116 -61q157 1 255 170v823h145v-1117h-145v141h-41q-20 -69 -92 -115t-157 -45zM248 1424v131h562v-131h-562z" />
    <glyph glyph-name="Ubreve" unicode="&#x16c;" horiz-adv-x="1202" 
d="M1024 478q0 -246 -107 -372t-315 -125q-208 0 -314 126t-107 371v1011h145v-1027q0 -186 65 -271t210 -85t212 85q66 85 66 271v1027h145v-1011zM600 1663q-158 0 -242 94q-83 94 -84 278h143q2 -134 47 -192t136 -58q92 0 136 58t46 192h143q-3 -184 -85 -278t-240 -94z
" />
    <glyph glyph-name="ubreve" unicode="&#x16d;" 
d="M449 -19q-117 0 -193 96q-75 96 -75 245v795h145v-761q0 -110 42 -171t116 -61q157 1 255 170v823h145v-1117h-145v141h-41q-20 -69 -92 -115t-157 -45zM529 1290q-158 0 -241 94t-85 279h143q2 -134 47 -192t136 -58t136 58t46 192h144q-2 -185 -85 -279t-241 -94z" />
    <glyph glyph-name="Uring" unicode="&#x16e;" horiz-adv-x="1202" 
d="M1024 478q0 -246 -107 -372t-315 -125q-208 0 -314 126t-107 371v1011h145v-1027q0 -186 65 -271t210 -85t212 85q66 85 66 271v1027h145v-1011zM713 1977q1 151 -113 151t-114 -151v-59q0 -78 28 -112t86 -34q113 0 113 146v59zM600 1655q-101 0 -163 64t-63 199v59
q0 136 62 202t164 66q100 0 162 -66t63 -202v-59q0 -134 -62 -198t-163 -65z" />
    <glyph glyph-name="uring" unicode="&#x16f;" 
d="M449 -19q-117 0 -193 96q-75 96 -75 245v795h145v-761q0 -110 42 -171t116 -61q157 1 255 170v823h145v-1117h-145v141h-41q-20 -69 -92 -115t-157 -45zM415 1605v-60q0 -77 28 -111t86 -34q113 0 113 145v60q0 149 -113 151q-114 0 -114 -151zM529 1283q-101 0 -163 64
t-63 198v60q1 136 63 202t163 66t163 -66t62 -202v-60q0 -134 -62 -198t-163 -64z" />
    <glyph glyph-name="Uhungarumlaut" unicode="&#x170;" horiz-adv-x="1202" 
d="M1024 478q0 -246 -107 -372t-315 -125q-208 0 -314 126t-107 371v1011h145v-1027q0 -186 65 -271t210 -85t212 85q66 85 66 271v1027h145v-1011zM384 1676l76 372h199l-175 -372h-100zM704 1676l78 372h197l-175 -372h-100z" />
    <glyph glyph-name="uhungarumlaut" unicode="&#x171;" 
d="M449 -19q-117 0 -193 96q-75 96 -75 245v795h145v-761q0 -110 42 -171t116 -61q157 1 255 170v823h145v-1117h-145v141h-41q-20 -69 -92 -115t-157 -45zM313 1303l76 373h199l-175 -373h-100zM633 1303l78 373h198l-175 -373h-101z" />
    <glyph glyph-name="Uogonek" unicode="&#x172;" horiz-adv-x="1202" 
d="M679 -397q-77 0 -138 60t-61 151t69 170q-168 14 -268 132t-100 362v1011h145v-1027q0 -186 65 -271t210 -85t212 85q66 85 66 271v1027h145v-1011q0 -246 -102 -366t-285 -130q-28 -47 -28 -108q0 -120 98 -120q34 0 125 19v-151q-76 -19 -153 -19z" />
    <glyph glyph-name="uogonek" unicode="&#x173;" 
d="M818 -397q-78 0 -138 60t-60 164t119 205v109h-41q-20 -69 -92 -115t-157 -45q-117 0 -193 96q-75 96 -75 245v795h145v-761q0 -110 42 -171t116 -61q157 1 255 170v823h145v-1117h-96q-40 -54 -40 -121q0 -125 99 -125q30 0 125 19v-151q-76 -19 -154 -19z" />
    <glyph glyph-name="Wcircumflex" unicode="&#x174;" horiz-adv-x="1372" 
d="M892 0l-207 855l-203 -855h-171l-209 1489h146l163 -1295l200 888h160l197 -892l170 1299h134l-207 -1489h-173zM441 1717l-74 85l264 272h104l269 -272l-77 -85l-244 201z" />
    <glyph glyph-name="wcircumflex" unicode="&#x175;" horiz-adv-x="1342" 
d="M855 0l-185 778l-177 -778h-163l-233 1117h143l173 -944l172 758h167l181 -749l169 935h145l-232 -1117h-160zM424 1344l-74 86l264 272h105l268 -272l-77 -86l-243 201z" />
    <glyph glyph-name="Ycircumflex" unicode="&#x176;" 
d="M605 0h-145v559l-399 930h161l316 -789l307 789h157l-397 -930v-559zM285 1717l-75 85l265 272h104l268 -272l-76 -85l-244 201z" />
    <glyph glyph-name="ycircumflex" unicode="&#x177;" horiz-adv-x="923" 
d="M247 -246q62 0 105 48t76 153l4 21h-63l-295 1141h155l238 -994l231 994h151l-315 -1273q-52 -128 -127 -176t-176 -48q-45 0 -151 19l24 136q81 -21 143 -21zM216 1344l-75 86l265 272h104l268 -272l-76 -86l-244 201z" />
    <glyph glyph-name="Ydieresis" unicode="&#x178;" 
d="M605 0h-145v559l-399 930h161l316 -789l307 789h157l-397 -930v-559zM784 1800q0 -95 -93 -95q-43 0 -68 20t-25 75v10q0 58 25 78t67 19q42 0 68 -20t26 -77v-10zM460 1800q0 -95 -93 -95t-93 95v10q0 58 26 78t67 19q41 0 67 -20t26 -77v-10z" />
    <glyph glyph-name="Zacute" unicode="&#x179;" horiz-adv-x="1202" 
d="M1022 0h-840v130l669 1229h-669v130h840v-130l-685 -1229h685v-130zM439 1676l188 372h215l-274 -372h-129z" />
    <glyph glyph-name="zacute" unicode="&#x17a;" 
d="M856 0h-647v136l484 845h-484v136h647v-136l-471 -845h471v-136zM369 1303l188 373h214l-274 -373h-128z" />
    <glyph glyph-name="Zdotaccent" unicode="&#x17b;" horiz-adv-x="1202" 
d="M1022 0h-840v130l669 1229h-669v130h840v-130l-685 -1229h685v-130zM721 1800q-1 -56 -35 -76t-87 -19q-53 0 -87 20t-34 75v10q0 58 34 78t87 19q53 0 87 -20t35 -77v-10z" />
    <glyph glyph-name="zdotaccent" unicode="&#x17c;" 
d="M856 0h-647v136l484 845h-484v136h647v-136l-471 -845h471v-136zM650 1428q0 -56 -34 -76t-88 -19q-53 0 -87 20t-33 75v9q0 58 33 78q34 19 87 19t87 -20t35 -77v-9z" />
    <glyph glyph-name="Zcaron" unicode="&#x17d;" horiz-adv-x="1202" 
d="M1022 0h-840v130l669 1229h-669v130h840v-130l-685 -1229h685v-130zM549 1683l-268 270l76 86l244 -200l242 200l75 -86l-265 -270h-104z" />
    <glyph glyph-name="zcaron" unicode="&#x17e;" 
d="M856 0h-647v136l484 845h-484v136h647v-136l-471 -845h471v-136zM478 1311l-268 270l77 85l244 -199l242 199l74 -85l-264 -270h-105z" />
    <glyph glyph-name="longs" unicode="&#x17f;" horiz-adv-x="783" 
d="M465 1233v-1233h-145v981h-167v136h167v101q0 128 79 199.5t167 71.5t192 -48l-28 -130q-85 37 -138 37q-127 0 -127 -115z" />
    <glyph glyph-name="florin" unicode="&#x192;" 
d="M756 1348q-56 0 -82 -11t-47.5 -46t-21.5 -148v-231h305v-137h-305v-494q0 -134 -73 -213t-184 -79q-79 0 -134.5 16.5t-73.5 28.5l28 135q71 -39 132 -39q103 0 131.5 46t28.5 159v440h-292v137h292v283q0 140 76 216q70 78 190 78t196 -44l-28 -134q-82 37 -138 37z
" />
    <glyph glyph-name="Aringacute" unicode="&#x1fa;" horiz-adv-x="1172" 
d="M938 0l-124 460h-460l-125 -460h-147l430 1489h151l428 -1489h-153zM778 588l-195 719l-194 -719h389zM700 1977q0 151 -114 151t-113 -151v-59q-1 -78 27 -112t86 -34q114 0 114 146v59zM361 1977q0 208 149 257h-9l188 373h214l-269 -366q68 -12 122 -70t56 -194v-59
q0 -134 -62 -198t-164 -65q-100 0 -162 64t-63 199v59z" />
    <glyph glyph-name="aringacute" unicode="&#x1fb;" horiz-adv-x="1202" 
d="M452 -19q-118 0 -193 85q-76 85 -77 230q0 145 80 230t211 85h268v191q0 86 -49 145q-50 59 -150 59t-148 -48q-48 -47 -72 -176l-121 45q48 307 341 309q147 0 244 -76t97 -230v-582q0 -82 38 -110t129 -4v-143q-232 -36 -248 177h-27q-33 -80 -119 -134t-204 -53z
M486 121q176 0 255 168v197h-248q-80 0 -127 -39t-48 -140q0 -186 168 -186zM430 1605v-60q0 -77 28 -111t86 -34q113 0 113 145v60q0 149 -113 151q-114 0 -114 -151zM544 1283q-101 0 -163 64t-63 198v60q0 136 63 202q42 45 101 59l186 368h215l-272 -369q56 -15 96 -58
q62 -66 62 -202v-60q0 -134 -62 -198t-163 -64z" />
    <glyph glyph-name="AEacute" unicode="&#x1fc;" horiz-adv-x="1511" 
d="M842 1676l188 372h214l-274 -372h-128zM741 460h-350l-130 -460h-153l452 1489h786v-130h-460v-476h391v-133h-391v-620h460v-130h-605v460zM741 588v771h-93l-218 -771h311z" />
    <glyph glyph-name="aeacute" unicode="&#x1fd;" horiz-adv-x="1482" 
d="M460 121q155 0 210 115v250h-201q-63 0 -104 -38t-41 -132t31 -144t105 -51zM987 1000q-173 0 -173 -199v-144h346v127q0 216 -173 216zM199 877q41 259 321 259q154 0 225 -136q73 136 244 136q139 0 227 -80t87 -257v-267h-489v-221q0 -110 42 -153t126 -43t124 30
q39 30 52 123l145 -4q-19 -136 -91 -210t-214 -73q-210 0 -266 146h-26q-32 -73 -104 -109t-157 -37q-128 0 -196 88t-68 231t74 227t177 84h238v197q0 82 -42 135t-126 53t-120 -34q-37 -34 -56 -130zM579 1303l188 373h214l-274 -373h-128z" />
    <glyph glyph-name="Oslashacute" unicode="&#x1fe;" horiz-adv-x="1202" 
d="M1024 1005v-528q0 -227 -100 -361t-323 -135q-73 0 -160 23l-61 -190h-142l84 259q-141 122 -141 404v528q0 229 101 366t321 137q63 0 136 -17l58 185h141l-74 -244q160 -123 160 -427zM879 471v540q0 230 -71 318l-341 -1197q51 -20 134 -20q149 0 214 83q64 83 64 276
zM601 1378q-149 0 -212 -84t-63 -283v-540q0 -193 54 -276l333 1170q-45 13 -112 13zM439 1676l188 372h215l-274 -372h-129z" />
    <glyph glyph-name="oslashacute" unicode="&#x1ff;" 
d="M884 750v-391q0 -194 -99 -286t-254 -92q-77 0 -134 21l-75 -188h-140l99 257q-100 100 -100 288v391q0 197 99 292q100 94 252 94q77 0 138 -21l71 188h140l-101 -257q104 -102 104 -296zM739 350v404q0 95 -26 147l-274 -761q41 -15 92 -15q208 0 208 225zM324 754
v-404q0 -92 30 -141l273 767q-48 18 -96 16q-106 0 -157 -57q-50 -58 -50 -181zM369 1303l188 373h214l-274 -373h-128z" />
    <glyph glyph-name="Scommaaccent" unicode="&#x218;" horiz-adv-x="1202" 
d="M1037 421q0 -199 -116 -313t-308 -115q-123 1 -238 47t-187 115l52 119q169 -153 387 -153q125 0 196 72q71 73 71 187t-62 175t-266 154t-284 188q-79 95 -79 251t103 251q103 94 284 94q108 0 217 -49t176 -117l-50 -124q-173 160 -354 160q-108 0 -169 -61
q-62 -61 -62 -162t67 -162t268 -148t277 -178t77 -231zM384 -559l132 373h214l-218 -373h-128z" />
    <glyph glyph-name="scommaaccent" unicode="&#x219;" 
d="M499 996q-171 0 -171 -174q0 -88 52 -126q52 -39 202 -78t229 -113t79 -216q0 -143 -96 -227t-252 -84q-104 0 -208 34t-179 100l61 123q64 -50 152 -83t176 -33q199 0 199 164q0 95 -50 135q-49 40 -195 78t-231 106t-85 216t88 233t233 85q93 0 190 -38t167 -106
l-61 -124q-163 128 -300 128zM287 -559l132 373h214l-218 -373h-128z" />
    <glyph glyph-name="Tcommaaccent" unicode="&#x21a;" 
d="M460 0v1359h-348v130h841v-130h-348v-1359h-145zM311 -559l132 373h214l-218 -373h-128z" />
    <glyph glyph-name="tcommaaccent" unicode="&#x21b;" horiz-adv-x="923" 
d="M320 322v659h-167v136h167v372h145v-372h306v-136h-306v-678q0 -91 40 -135t107 -45q67 0 142 37l28 -134q-77 -43 -196 -43q-118 -1 -192 89t-74 250zM274 -559l132 373h214l-218 -373h-128z" />
    <glyph glyph-name="dotlessj" unicode="&#xf6be;" horiz-adv-x="783" 
d="M391 -26v1007h-279v136h422v-1154q0 -179 -85 -264.5t-200 -85.5q-79 0 -178 41l28 149q88 -43 149 -43t102 48.5t41 165.5z" />
    <glyph glyph-name="dotlessj" unicode="&#x237;" horiz-adv-x="783" 
d="M391 -26v1007h-279v136h422v-1154q0 -179 -85 -264.5t-200 -85.5q-79 0 -178 41l28 149q88 -43 149 -43t102 48.5t41 165.5z" />
    <glyph glyph-name="quoteleft" unicode="&#x2018;" horiz-adv-x="1033" 
d="M307 776l315 713h119l-153 -713h-281z" />
    <glyph glyph-name="quoteleft" unicode="&#x2bb;" horiz-adv-x="1033" 
d="M307 776l315 713h119l-153 -713h-281z" />
    <glyph glyph-name="circumflex" unicode="&#x2c6;" horiz-adv-x="1033" 
d="M274 1344l-75 86l265 272h104l268 -272l-76 -86l-244 201z" />
    <glyph glyph-name="caron" unicode="&#x2c7;" horiz-adv-x="1033" 
d="M467 1311l-268 270l77 85l243 -199l242 199l75 -85l-264 -270h-105z" />
    <glyph glyph-name="breve" unicode="&#x2d8;" horiz-adv-x="1033" 
d="M518 1413q92 0 136 58t46 192h143q-4 -373 -325 -373q-158 0 -242 94q-83 94 -84 279h143q2 -134 47 -192t136 -58z" />
    <glyph glyph-name="dotaccent" unicode="&#x2d9;" horiz-adv-x="1033" 
d="M639 1428q-1 -56 -35 -76t-87 -19q-53 0 -87 20t-33 75v9q0 58 33 78q34 19 87 19t87 -20t35 -77v-9z" />
    <glyph glyph-name="ring" unicode="&#x2da;" horiz-adv-x="1033" 
d="M404 1605v-60q0 -77 28 -111t86 -34q113 0 113 145v60q0 149 -113 151q-114 0 -114 -151zM518 1283q-101 0 -163 64t-63 198v60q0 136 62 202t164 66q100 0 162 -66t63 -202v-60q0 -134 -62 -198t-163 -64z" />
    <glyph glyph-name="ogonek" unicode="&#x2db;" horiz-adv-x="1033" 
d="M580 -397q-78 0 -138 60t-60 150t56 156t117 100l37 -26q-82 -65 -82 -177q0 -54 26 -83t64 -29t134 19v-151q-76 -19 -154 -19z" />
    <glyph glyph-name="tilde" unicode="&#x2dc;" horiz-adv-x="1033" 
d="M639 1456q65 0 65 194v14h108v-27q0 -135 -47 -225t-138 -90q-57 0 -91 37t-55 78t-41 77t-45 35q-66 0 -62 -194v-14h-110v27q0 132 47 224t138 91q63 0 103 -44t88 -148q16 -35 40 -35z" />
    <glyph glyph-name="hungarumlaut" unicode="&#x2dd;" horiz-adv-x="1033" 
d="M302 1303l76 373h199l-175 -373h-100zM622 1303l78 373h197l-175 -373h-100z" />
    <glyph glyph-name="gravecmb" unicode="&#x300;" horiz-adv-x="0" 
d="M0 1303l-274 373h214l188 -373h-128z" />
    <glyph glyph-name="acutecmb" unicode="&#x301;" horiz-adv-x="0" 
d="M-160 1303l188 373h214l-274 -373h-128z" />
    <glyph glyph-name="circumflexcmb" unicode="&#x302;" horiz-adv-x="0" 
d="M-244 1344l-74 86l264 272h104l268 -272l-76 -86l-244 201z" />
    <glyph glyph-name="tildecmb" unicode="&#x303;" horiz-adv-x="0" 
d="M121 1456q65 0 65 194v14h108v-27q0 -136 -46.5 -225.5t-137.5 -89.5q-58 0 -91.5 37t-54.5 78t-41 76.5t-46 35.5q-65 0 -61 -194v-14h-110v27q0 132 46.5 223.5t137.5 91.5q63 0 97.5 -38t56.5 -78t37.5 -75.5t39.5 -35.5z" />
    <glyph glyph-name="macroncmb" unicode="&#x304;" horiz-adv-x="0" 
d="M-281 1424v131h562v-131h-562z" />
    <glyph glyph-name="brevecmb" unicode="&#x306;" horiz-adv-x="0" 
d="M0 1290q-158 0 -241 94t-85 279h144q2 -134 46.5 -192t135.5 -58t136 58t46 192h144q-2 -184 -85 -278.5t-241 -94.5z" />
    <glyph glyph-name="dotaccentcmb" unicode="&#x307;" horiz-adv-x="0" 
d="M-1 1333q-53 0 -86.5 19.5t-33.5 75.5v9q0 58 33.5 77.5t86.5 19.5t87.5 -19.5t34.5 -77.5v-9q0 -56 -34.5 -75.5t-87.5 -19.5z" />
    <glyph glyph-name="dieresiscmb" unicode="&#x308;" horiz-adv-x="0" 
d="M161 1333q-42 0 -67 19.5t-25 75.5v9q0 58 25 77.5t67 19.5t68 -19.5t26 -77.5v-9q0 -56 -26 -75.5t-68 -19.5zM-162 1333q-41 0 -67 19.5t-26 75.5v9q0 58 26 77.5t67 19.5t67 -19.5t26 -77.5v-9q0 -56 -26 -75.5t-67 -19.5z" />
    <glyph glyph-name="ringcmb" unicode="&#x30a;" horiz-adv-x="0" 
d="M0 1756q-114 0 -114 -151v-60q0 -78 28 -111.5t86 -33.5q114 0 114 145v60q0 151 -114 151zM0 1283q-101 0 -163 64t-62 198v60q0 136 62 202t163 66t163 -66t62 -202v-60q0 -134 -62 -198t-163 -64z" />
    <glyph glyph-name="hungarumlautcmb" unicode="&#x30b;" horiz-adv-x="0" 
d="M-216 1303l76 373h200l-175 -373h-101zM104 1303l78 373h198l-175 -373h-101z" />
    <glyph glyph-name="caroncmb" unicode="&#x30c;" horiz-adv-x="0" 
d="M-50 1311l-268 270l76 85l244 -199l242 199l74 -85l-264 -270h-104z" />
    <glyph glyph-name="commaturnedabovecmb" unicode="&#x312;" horiz-adv-x="0" 
d="M-188 1303l218 373h128l-132 -373h-214z" />
    <glyph glyph-name="commaaccentcmb" unicode="&#x326;" horiz-adv-x="0" 
d="M-188 -559l132 373h214l-218 -373h-128z" />
    <glyph glyph-name="cedillacmb" unicode="&#x327;" horiz-adv-x="0" 
d="M164 -178q0 -108 -67 -162.5t-150 -54.5q-196 0 -210 179l129 19q2 -35 20.5 -49.5t60.5 -14.5t63.5 23.5t21.5 90.5t-17 99.5t-58 47.5l28 78q179 -39 179 -256z" />
    <glyph glyph-name="ogonekcmb" unicode="&#x328;" horiz-adv-x="0" 
d="M62 -397q-78 0 -138 60t-60 150t56 156t117 100l37 -26q-81 -64 -81 -177q0 -54 25.5 -83t73.5 -29t124 19v-151q-76 -19 -154 -19z" />
    <glyph glyph-name="tonos" unicode="&#x384;" horiz-adv-x="1033" 
d="M413 1303l105 373h201l-190 -373h-116z" />
    <glyph glyph-name="dieresistonos" unicode="&#x385;" horiz-adv-x="1033" 
d="M843 1411v-5q0 -58 -22 -77q-23 -18 -58 -18t-56 18q-20 19 -20 77v5q0 58 20 78t56 21q80 0 80 -99zM348 1406q0 -58 -21 -76t-55 -19q-34 0 -58 18q-22 19 -22 77v5q0 58 22 78q22 21 58 21t56 -20t20 -79v-5zM426 1303l66 373h169l-145 -373h-90z" />
    <glyph glyph-name="Alphatonos" unicode="&#x386;" horiz-adv-x="1202" 
d="M955 0l-125 460h-459l-125 -460h-147l430 1489h151l428 -1489h-153zM795 588l-195 719l-194 -719h389zM76 1117l105 372h201l-190 -372h-116z" />
    <glyph glyph-name="anoteleia" unicode="&#x387;" horiz-adv-x="1033" 
d="M674 732q0 -88 -44 -126t-113 -38q-70 0 -114 38t-44 126v16q0 88 44 128t115 40q72 0 114 -39t42 -129v-16z" />
    <glyph glyph-name="Epsilontonos" unicode="&#x388;" horiz-adv-x="1342" 
d="M460 0v1489h730v-130h-585v-476h514v-133h-514v-620h585v-130h-730zM34 1117l104 372h201l-190 -372h-115z" />
    <glyph glyph-name="Etatonos" unicode="&#x389;" horiz-adv-x="1482" 
d="M460 0v1489h145v-620h553v620h145v-1489h-145v737h-553v-737h-145zM34 1117l104 372h201l-190 -372h-115z" />
    <glyph glyph-name="Iotatonos" unicode="&#x38a;" horiz-adv-x="1342" 
d="M460 0v130h279v1229h-279v130h704v-130h-280v-1229h280v-130h-704zM74 1117l105 372h201l-190 -372h-116z" />
    <glyph glyph-name="Omicrontonos" unicode="&#x38c;" horiz-adv-x="1342" 
d="M465 493q1 -199 67 -290t210 -91t210 91t66 290v518q0 190 -66 278q-66 89 -210 89t-210 -88t-67 -279v-518zM1164 499q0 -257 -107 -387t-315 -131q-208 1 -315 131t-107 387v506q0 249 107 376t314 127t315 -127t108 -376v-506zM34 1117l104 372h201l-190 -372h-115z
" />
    <glyph glyph-name="Upsilontonos" unicode="&#x38e;" horiz-adv-x="1372" 
d="M903 0h-145v559l-399 930h160l317 -789l307 789h157l-397 -930v-559zM-6 1117l105 372h201l-190 -372h-116z" />
    <glyph glyph-name="Omegatonos" unicode="&#x38f;" horiz-adv-x="1482" 
d="M1303 721q0 -298 -275 -404v-168h275v-149h-420v428q157 41 217 108t60 185v290q0 197 -81 282t-266 85t-267 -85t-81 -282v-290q0 -117 60 -185t218 -108v-428h-421v149h276v168q-276 106 -276 404v290q0 245 124 371t368 126q489 0 489 -497v-290zM34 1117l104 372h201
l-190 -372h-115z" />
    <glyph glyph-name="iotadieresistonos" unicode="&#x390;" horiz-adv-x="783" 
d="M251 1117h144v-784q0 -101 39 -155t104 -52q65 1 119 34l28 -128q-96 -41 -166 -41q-115 0 -191 91t-77 275v760zM659 1411v-5q0 -58 -22 -77q-23 -18 -58 -18t-56 18q-20 19 -20 77v5q0 58 20 78t56 21q80 0 80 -99zM164 1406q0 -58 -21 -76t-55 -19q-34 0 -58 18
q-22 19 -23 77v5q1 58 23 78q22 21 58 21t55 -20q20 -20 21 -79v-5zM242 1303l65 373h170l-146 -373h-89z" />
    <glyph glyph-name="Alpha" unicode="&#x391;" horiz-adv-x="1172" 
d="M938 0l-124 460h-460l-125 -460h-147l430 1489h151l428 -1489h-153zM778 588l-195 719l-194 -719h389z" />
    <glyph glyph-name="Beta" unicode="&#x392;" horiz-adv-x="1202" 
d="M326 132h311q143 0 202 61t58 204v48q0 143 -58 203q-59 60 -202 59h-311v-575zM326 842h285q134 0 189 54t55 182v41q0 128 -55 183t-189 55h-285v-515zM181 0v1489h437q176 0 278 -94t102 -256v-91q0 -86 -52 -150t-140 -83v-54q106 -13 171 -95q64 -83 64 -210v-80
q0 -172 -110 -274t-304 -102h-446z" />
    <glyph glyph-name="Gamma" unicode="&#x393;" horiz-adv-x="923" 
d="M181 0v1489h661v-130h-516v-1359h-145z" />
    <glyph glyph-name="Delta" unicode="&#x394;" horiz-adv-x="1172" 
d="M953 130l-368 1197l-373 -1197h741zM82 0v130l423 1359h154l432 -1359v-130h-1009z" />
    <glyph glyph-name="Epsilon" unicode="&#x395;" 
d="M181 0v1489h729v-130h-584v-476h514v-133h-514v-620h584v-130h-729z" />
    <glyph glyph-name="Zeta" unicode="&#x396;" horiz-adv-x="1202" 
d="M1022 0h-840v130l669 1229h-669v130h840v-130l-685 -1229h685v-130z" />
    <glyph glyph-name="Eta" unicode="&#x397;" horiz-adv-x="1202" 
d="M181 0v1489h145v-620h553v620h145v-1489h-145v737h-553v-737h-145z" />
    <glyph glyph-name="Theta" unicode="&#x398;" horiz-adv-x="1202" 
d="M464 681v146h277v-146h-277zM602 112q144 0 211.5 84.5t67.5 267.5v554q0 186 -67.5 273t-211.5 87t-211 -86.5t-67 -273.5v-554q0 -182 67 -267t211 -85zM601.5 -19q-204.5 0 -312.5 124t-108 364v544q0 244 107.5 369.5t313.5 125.5t314 -125.5t108 -369.5v-544
q0 -240 -109 -364t-313.5 -124z" />
    <glyph glyph-name="Iota" unicode="&#x399;" 
d="M181 0v130h279v1229h-279v130h703v-130h-279v-1229h279v-130h-703z" />
    <glyph glyph-name="Kappa" unicode="&#x39a;" 
d="M326 735v-735h-145v1489h145v-623h46l429 623h165l-484 -683l481 -806h-174l-413 735h-50z" />
    <glyph glyph-name="Lambda" unicode="&#x39b;" horiz-adv-x="1172" 
d="M938 0l-355 1307l-354 -1307h-147l430 1489h151l428 -1489h-153z" />
    <glyph glyph-name="Mu" unicode="&#x39c;" horiz-adv-x="1342" 
d="M317 0h-136v1489h214l281 -970l283 970h205v-1489h-136v1309l-270 -937h-172l-269 924v-1296z" />
    <glyph glyph-name="Nu" unicode="&#x39d;" horiz-adv-x="1202" 
d="M317 0h-136v1489h201l506 -1264v1264h136v-1489h-209l-498 1272v-1272z" />
    <glyph glyph-name="Xi" unicode="&#x39e;" 
d="M153 0v130h759v-130h-759zM188 750v133h689v-133h-689zM153 1359v130h759v-130h-759z" />
    <glyph glyph-name="Omicron" unicode="&#x39f;" horiz-adv-x="1202" 
d="M602 112q144 0 211 91q66 91 66 290v518q0 190 -66 278q-67 89 -211 89t-210 -88t-66 -279v-518q0 -199 66 -290t210 -91zM1024 499q0 -257 -107 -387t-315 -131q-208 1 -314 131t-107 387v506q0 249 107 376q108 127 314 127t314 -127t108 -376v-506z" />
    <glyph glyph-name="Pi" unicode="&#x3a0;" horiz-adv-x="1202" 
d="M181 0v1489h843v-1489h-145v1359h-553v-1359h-145z" />
    <glyph glyph-name="Rho" unicode="&#x3a1;" 
d="M326 670h225q119 0 175 62t56 190v190q0 128 -56 188t-175 59h-225v-689zM925 933q0 -389 -372 -387h-227v-546h-145v1489h372q372 0 372 -381v-175z" />
    <glyph glyph-name="Sigma" unicode="&#x3a3;" 
d="M912 0h-772v130l500 639l-500 590v130h772v-130h-584l415 -512v-134l-432 -583h601v-130z" />
    <glyph glyph-name="Tau" unicode="&#x3a4;" 
d="M460 0v1359h-348v130h841v-130h-348v-1359h-145z" />
    <glyph glyph-name="Upsilon" unicode="&#x3a5;" 
d="M605 0h-145v559l-399 930h161l316 -789l307 789h157l-397 -930v-559z" />
    <glyph glyph-name="Phi" unicode="&#x3a6;" horiz-adv-x="1342" 
d="M283 620q0 -317 203 -317h121v883h-121q-101 0 -152 -77t-51 -247v-242zM856 303q205 0 205 317v242q0 169 -51 247q-52 77 -154 77h-119v-883h119zM856 168h-111v-213h-145v213h-114q-184 0 -265 126t-81 326v242q0 201 81 330t265 130h114v212h145v-212h111
q184 0 266 -130t83 -330v-242q0 -199 -82 -326q-83 -126 -267 -126z" />
    <glyph glyph-name="Chi" unicode="&#x3a7;" horiz-adv-x="1202" 
d="M899 0l-296 618l-296 -618h-169l391 761l-354 728h164l281 -586l281 586h166l-373 -728l371 -761h-166z" />
    <glyph glyph-name="Psi" unicode="&#x3a8;" horiz-adv-x="1372" 
d="M1180 851q0 -450 -420 -488v-363h-146v363q-420 39 -420 488v638h145v-657q0 -145 66 -222.5t209 -95.5v975h146v-975q143 19 210 96t67 222v657h143v-638z" />
    <glyph glyph-name="Omega" unicode="&#x3a9;" horiz-adv-x="1312" 
d="M780 1508q367 0 367 -497v-290q0 -145 -70 -248.5t-206 -155.5v-168h276v-149h-421v428q158 41 218 108t60 185v290q0 197 -81 282t-267 85t-266.5 -85t-80.5 -282v-290q0 -117 59.5 -184.5t217.5 -108.5v-428h-420v149h275v168q-275 105 -275 404v290q0 246 123.5 371.5
t490.5 125.5z" />
    <glyph glyph-name="Iotadieresis" unicode="&#x3aa;" 
d="M181 0v130h279v1229h-279v130h703v-130h-279v-1229h279v-130h-703zM784 1800q0 -95 -93 -95q-43 0 -68 20t-25 75v10q0 58 25 78t67 19q42 0 68 -20t26 -77v-10zM460 1800q0 -95 -93 -95t-93 95v10q0 58 26 78t67 19q41 0 67 -20t26 -77v-10z" />
    <glyph glyph-name="Upsilondieresis" unicode="&#x3ab;" 
d="M605 0h-145v559l-399 930h161l316 -789l307 789h157l-397 -930v-559zM784 1800q0 -95 -93 -95q-43 0 -68 20t-25 75v10q0 58 25 78t67 19q42 0 68 -20t26 -77v-10zM460 1800q0 -95 -93 -95t-93 95v10q0 58 26 78t67 19q41 0 67 -20t26 -77v-10z" />
    <glyph glyph-name="alphatonos" unicode="&#x3ac;" horiz-adv-x="1202" 
d="M436 -19q-110 0 -183 101t-72 296v374q0 184 77 284t211 100q75 0 137 -39t92 -121h41v141h145v-851q0 -104 43 -128t125 -4v-143q-270 -29 -283 160h-43q-48 -88 -114 -129t-176 -41zM328 384q0 -138 38 -200t121 -61t141 47t111 147v487q-50 97 -109 142
q-58 44 -142 44t-122 -60t-38 -193v-353zM493 1303l105 373h201l-190 -373h-116z" />
    <glyph glyph-name="epsilontonos" unicode="&#x3ad;" 
d="M155 330q0 95 54 170q55 75 163 83v41q-89 7 -141 58t-52 141v22q0 160 98 226q99 65 262 65t249 -83t96 -241l-141 -15q-9 106 -57 153q-48 48 -156 48q-106 0 -156 -37t-50 -119v-27q0 -71 47 -105t156 -32h78v-131h-78q-123 0 -175 -47t-52 -156v-18q0 -112 57 -159
t175 -47t172 51q54 52 63 170l143 -13q-18 -347 -388 -347q-192 1 -280 91t-87 246v12zM428 1303l104 373h202l-190 -373h-116z" />
    <glyph glyph-name="etatonos" unicode="&#x3ae;" 
d="M326 0h-145v1117h145v-141h41q22 72 94 116t177 44t176 -81t70 -212v-1215h-145v1182q0 91 -42 137t-120 45q-152 0 -251 -169v-823zM426 1303l105 373h201l-190 -373h-116z" />
    <glyph glyph-name="iotatonos" unicode="&#x3af;" horiz-adv-x="783" 
d="M251 1117h144v-784q0 -101 39 -155t104 -52q65 1 119 34l28 -128q-96 -41 -166 -41q-115 0 -191 91t-77 275v760zM266 1303l105 373h201l-190 -373h-116z" />
    <glyph glyph-name="upsilondieresistonos" unicode="&#x3b0;" 
d="M532 -19q-173 -1 -262 101t-89 302v733h145v-741q0 -143 47 -204q47 -60 159 -60t159 60q48 60 48 206v739h145v-733q0 -199 -90 -301t-262 -102zM855 1406q-1 -58 -23 -76t-57 -19q-35 0 -56 18q-20 19 -21 77v5q0 58 20 78t57 21q78 0 80 -99v-5zM359 1406
q0 -58 -21 -76q-22 -18 -56 -19q-34 0 -57 18q-22 19 -22 77v5q0 58 22 78q21 21 57 21t56 -20t21 -79v-5zM438 1303l65 373h169l-145 -373h-89z" />
    <glyph glyph-name="alpha" unicode="&#x3b1;" horiz-adv-x="1202" 
d="M436 -19q-110 0 -182.5 100.5t-72.5 296.5v374q0 184 77 284t211 100q74 0 136.5 -39t92.5 -121h41v141h145v-851q0 -104 43 -128t125 -4v-143q-270 -29 -283 160h-43q-48 -88 -114 -129t-176 -41zM487 123q83 0 141.5 46.5t110.5 147.5v487q-50 97 -108.5 141.5
t-142.5 44.5t-122 -60.5t-38 -192.5v-353q0 -138 38 -199.5t121 -61.5z" />
    <glyph glyph-name="beta" unicode="&#x3b2;" 
d="M523 -19q-108 0 -197 58v-411h-145v1484q0 186 83.5 291t243.5 105t246 -95t86 -272v-56q0 -97 -37.5 -165.5t-119.5 -85.5v-54q93 -13 145.5 -86.5t55.5 -172.5v-106q0 -209 -94 -321.5t-267 -112.5zM523 108q214 0 214 292v90q0 229 -232 229h-58v149h48q203 0 203 217
v34q0 259 -190 259q-182 0 -182 -255v-935q80 -80 197 -80z" />
    <glyph glyph-name="gamma" unicode="&#x3b3;" horiz-adv-x="923" 
d="M547 -372h-173l17 409l-317 1080h159l232 -851l231 851h153l-315 -1080z" />
    <glyph glyph-name="delta" unicode="&#x3b4;" 
d="M326 598v-216q0 -141 52 -203t154 -62t154.5 61.5t52.5 203.5v245q0 101 -61.5 158t-199.5 101q-152 -75 -152 -288zM532 -19q-157 0 -254 98t-97 303v216q0 128 64 208t150 117q-93 52 -132.5 112t-39.5 158q0 153 76.5 224.5t227.5 71.5h261v-135h-261q-88 0 -129 -29
t-41 -107t42.5 -120t196.5 -102t221 -139t67 -230v-245q0 -205 -97.5 -303t-254.5 -98z" />
    <glyph glyph-name="epsilon" unicode="&#x3b5;" 
d="M155 318v12q0 95 54.5 170t162.5 83v41q-89 7 -141 58.5t-52 140.5v22q0 160 98.5 225.5t261.5 65.5t249.5 -83t95.5 -241l-141 -15q-9 106 -58 153.5t-155 47.5t-156 -37.5t-50 -118.5v-27q0 -71 47.5 -104t155.5 -33h78v-131h-78q-123 0 -175 -47.5t-52 -155.5v-18
q0 -112 57 -159.5t175 -47.5t172 52t63 170l143 -13q-18 -347 -388 -347q-192 0 -279.5 90.5t-87.5 246.5z" />
    <glyph glyph-name="zeta" unicode="&#x3b6;" 
d="M616 -372h-156v143h175q52 0 82 24.5t30 100.5t-30 101t-82 25h-117q-158 0 -251.5 106t-93.5 298t132 399l239 367l-10 14q-337 -48 -394 310l119 5q37 -258 357 -162l248 164l50 -168l-188 -91l-300 -506q-108 -169 -108 -322q0 -97 45 -183.5t143 -86.5h118
q121 0 190.5 -64.5t69.5 -199.5t-72.5 -204.5t-195.5 -69.5z" />
    <glyph glyph-name="eta" unicode="&#x3b7;" 
d="M577 992q-153 0 -251 -169v-823h-145v1117h145v-141h41q22 71 93.5 115.5t177.5 44.5t176 -81t70 -212v-1215h-145v1182q0 182 -162 182z" />
    <glyph glyph-name="theta" unicode="&#x3b8;" 
d="M582.5 117q158.5 0 158.5 278v283h-417v-283q0 -140 50 -209t208.5 -69zM741 1082q0 290 -158.5 290t-208.5 -71.5t-50 -218.5v-253h417v253zM532 -19q-170 0 -260.5 109t-90.5 314v674q0 207 91.5 318.5t259.5 111.5t260 -111.5t92 -318.5v-674q0 -205 -91 -314
t-261 -109z" />
    <glyph glyph-name="iota" unicode="&#x3b9;" horiz-adv-x="783" 
d="M251 357v760h144v-784q0 -101 39 -154.5t104 -52.5t119 34l28 -128q-96 -41 -166 -41q-115 0 -191.5 91t-76.5 275z" />
    <glyph glyph-name="kappa" unicode="&#x3ba;" horiz-adv-x="923" 
d="M326 544v-544h-145v1117h145v-445h65l292 445h166l-356 -506l337 -611h-156l-279 544h-69z" />
    <glyph glyph-name="lambda" unicode="&#x3bb;" horiz-adv-x="923" 
d="M233 1497q121 0 198 -59.5t113 -199.5l305 -1238h-156l-233 1004l-233 -1004h-153l297 1162h52l-6 24q-38 175 -175 175q-69 0 -138 -13l-24 132q100 17 153 17z" />
    <glyph glyph-name="mu" unicode="&#x3bc;" horiz-adv-x="1202" 
d="M519 -19q-125 0 -193 88v-32l13 -409h-171l13 409v1080h145v-815q0 -97 55 -139t133 -42q158 0 225 114v882h145v-895q0 -130 168 -88v-143q-242 -30 -250 162h-27q-30 -71 -100 -121.5t-156 -50.5z" />
    <glyph glyph-name="nu" unicode="&#x3bd;" horiz-adv-x="923" 
d="M849 1117q-46 -559 -311 -1117h-153l-311 1117h151l255 -1024q194 508 227 1024h142z" />
    <glyph glyph-name="xi" unicode="&#x3be;" 
d="M264 985q0 145 118 210v43q-125 13 -198.5 88.5t-97.5 189.5l119 5q19 -89 104.5 -131t213.5 -29l311 162l52 -168l-296 -113l-69 -56q-65 -54 -88 -101.5t-23 -119.5t29.5 -105t72.5 -33h272v-146h-270q-89 0 -138.5 -59.5t-49.5 -165.5v-54q0 -106 45.5 -171t147.5 -65
h144q114 0 180.5 -64.5t66.5 -199.5t-72.5 -204.5t-195.5 -69.5h-154v143h175q52 0 82 24.5t30 100.5t-30 101t-82 25h-147q-155 0 -245 95t-90 257v54q0 134 68 215t179 92v43q-82 0 -123 59t-41 148z" />
    <glyph glyph-name="omicron" unicode="&#x3bf;" 
d="M739 702q0 298 -208 298q-105 0 -155 -74t-50 -224v-300q0 -145 50 -215t155 -70q106 0 157 70t51 215v300zM532 -19q-170 0 -260 111q-91 111 -91 316v294q0 210 91 322t260 112q168 0 260 -112t92 -322v-294q0 -205 -91 -316t-261 -111z" />
    <glyph glyph-name="pi" unicode="&#x3c0;" horiz-adv-x="1202" 
d="M1050 1117v-136h-167v-715q0 -93 34 -121t133 -11v-143q-173 -9 -241 33.5t-68 163.5v793h-346v-981h-144v981h-139v136h938z" />
    <glyph glyph-name="rho" unicode="&#x3c1;" 
d="M609 -19q-180 0 -242 153h-41v-506h-145v1122q0 186 90 287.5t259.5 101.5t261.5 -101.5t92 -287.5v-378q0 -192 -71.5 -291.5t-203.5 -99.5zM739 380v367q0 128 -50 190.5t-156.5 62.5t-156.5 -62.5t-50 -190.5v-438q94 -186 247 -186q86 0 126 63t40 194z" />
    <glyph glyph-name="sigma1" unicode="&#x3c2;" 
d="M652 158q236 0 236 -270q0 -128 -72.5 -194t-195.5 -66h-156v136h176q50 0 81 25t31 103t-30.5 104t-81.5 26h-119q-179 0 -259.5 99t-80.5 298v328q0 389 348 389q168 0 247.5 -93t91.5 -302l-133 -7q-7 162 -52 214t-151 52t-156 -54t-50 -177v-382q0 -121 47.5 -175
t151.5 -54h127z" />
    <glyph glyph-name="sigma" unicode="&#x3c3;" horiz-adv-x="1202" 
d="M884 706v-347q0 -195 -99 -286.5t-252 -91.5t-252.5 91.5t-99.5 286.5v365q0 190 99.5 291.5t251.5 101.5h561v-154l-350 39q141 -86 141 -296zM739 680q-1 294 -207 294t-206 -242v-382q0 -123 51.5 -178t154.5 -55t155 55t52 178v330z" />
    <glyph glyph-name="tau" unicode="&#x3c4;" horiz-adv-x="923" 
d="M391 188v799h-279v130h717v-130h-295v-721q0 -93 34.5 -121t133.5 -11v-143q-175 -9 -243 33.5t-68 163.5z" />
    <glyph glyph-name="upsilon" unicode="&#x3c5;" 
d="M532.5 -19q-173.5 0 -262.5 101.5t-89 301.5v733h145v-741q0 -143 47.5 -203.5t158.5 -60.5t159 60.5t48 205.5v739h145v-733q0 -199 -89 -301t-262.5 -102z" />
    <glyph glyph-name="phi" unicode="&#x3c6;" horiz-adv-x="1372" 
d="M1037 516v85q0 386 -277 386v-872q277 44 277 401zM339 639v-155q0 -334 275 -370v1003h142q190 0 307 -125.5t117 -390.5v-85q0 -240 -115 -375t-305 -156v-357h-146v355q-190 19 -305 143.5t-115 357.5v155q0 317 113 510l138 -60q-106 -189 -106 -450z" />
    <glyph glyph-name="chi" unicode="&#x3c7;" horiz-adv-x="923" 
d="M659 -372l-210 581l-190 -581h-157l282 756l-270 733h154l203 -558l194 558h156l-283 -735l277 -754h-156z" />
    <glyph glyph-name="psi" unicode="&#x3c8;" horiz-adv-x="1372" 
d="M760 -372h-146v363q-220 19 -320 149t-100 338v639h145v-657q0 -156 64 -232.5t211 -89.5v979h146v-979q147 13 212 89t65 233v657h143v-639q0 -209 -101.5 -339t-318.5 -148v-363z" />
    <glyph glyph-name="omega" unicode="&#x3c9;" horiz-adv-x="1372" 
d="M933 112q104 0 104 324v134q0 160 -28 307t-52 212l136 60q35 -74 61 -238t26 -341v-134q0 -222 -70 -338.5t-172 -116.5t-157 59t-85 176h-18q-30 -117 -85.5 -176t-143.5 -59q-115 0 -185 116.5t-70 338.5v134q0 177 26 340.5t61 238.5l138 -60q-24 -65 -52 -212
t-28 -307v-134q0 -324 103.5 -324t137.5 68t34 224v527h146v-527q0 -156 34.5 -224t138.5 -68z" />
    <glyph glyph-name="iotadieresis" unicode="&#x3ca;" horiz-adv-x="783" 
d="M251 1117h144v-784q0 -101 39 -155t104 -52q65 1 119 34l28 -128q-96 -41 -166 -41q-115 0 -191 91t-77 275v760zM583 1428q0 -95 -93 -95q-43 0 -68 20t-25 75v9q0 58 25 78q25 19 67 19t68 -20t26 -77v-9zM259 1428q0 -95 -93 -95t-93 95v9q0 99 93 97q41 0 67 -20
t26 -77v-9z" />
    <glyph glyph-name="upsilondieresis" unicode="&#x3cb;" 
d="M532 -19q-173 -1 -262 101t-89 302v733h145v-741q0 -143 47 -204q47 -60 159 -60t159 60q48 60 48 206v739h145v-733q0 -199 -90 -301t-262 -102zM784 1428q0 -95 -93 -95q-43 0 -68 20t-25 75v9q0 58 25 78q25 19 67 19t68 -20t26 -77v-9zM460 1428q0 -95 -93 -95
t-93 95v9q0 99 93 97q41 0 67 -20t26 -77v-9z" />
    <glyph glyph-name="omicrontonos" unicode="&#x3cc;" 
d="M739 702q0 298 -208 298q-105 0 -155 -74t-50 -224v-300q0 -145 50 -215t155 -70q106 0 157 70t51 215v300zM532 -19q-170 0 -260 111q-91 111 -91 316v294q0 210 91 322t260 112q168 0 260 -112t92 -322v-294q0 -205 -91 -316t-261 -111zM454 1303l105 373h201
l-190 -373h-116z" />
    <glyph glyph-name="upsilontonos" unicode="&#x3cd;" 
d="M532 -19q-173 -1 -262 101t-89 302v733h145v-741q0 -143 47 -204q47 -60 159 -60t159 60q48 60 48 206v739h145v-733q0 -199 -90 -301t-262 -102zM452 1303l105 373h201l-190 -373h-116z" />
    <glyph glyph-name="omegatonos" unicode="&#x3ce;" horiz-adv-x="1372" 
d="M897 112q140 0 140 324v134q0 160 -28 307t-52 212l136 60q35 -75 61 -239t26 -340v-134q0 -222 -70 -338t-172 -116t-157 58q-55 59 -85 176h-18q-30 -117 -86 -176t-143 -59q-115 1 -185 117t-70 338v134q0 176 26 340t61 239l138 -60q-24 -65 -52 -212t-28 -307v-134
q0 -324 138 -324q69 0 103 68t34 224v527h146v-527q0 -156 34 -224t103 -68zM581 1303l104 373h201l-190 -373h-115z" />
    <glyph glyph-name="IEgravecyrillic" unicode="&#x400;" 
d="M181 0v1489h729v-130h-584v-476h514v-133h-514v-620h584v-130h-729zM570 1676l-274 372h214l188 -372h-128z" />
    <glyph glyph-name="Iocyrillic" unicode="&#x401;" 
d="M181 0v1489h729v-130h-584v-476h514v-133h-514v-620h584v-130h-729zM827 1800q0 -95 -93 -95q-43 0 -68 20t-26 75v10q0 58 26 78t67 19q42 0 68 -20t26 -77v-10zM503 1800q0 -95 -93 -95t-93 95v10q0 58 26 78t67 19q41 0 67 -20t26 -77v-10z" />
    <glyph glyph-name="Djecyrillic" unicode="&#x402;" horiz-adv-x="1342" 
d="M432 0v1359h-320v130h811v-130h-348v-391h237q179 0 264.5 -91t85.5 -283v-218q0 -194 -86 -285t-264 -91v127q114 0 161 59.5t47 193.5v210q0 134 -47.5 193t-160.5 59h-237v-842h-143z" />
    <glyph glyph-name="Gjecyrillic" unicode="&#x403;" horiz-adv-x="923" 
d="M181 0v1489h661v-130h-516v-1359h-145zM348 1676l188 372h214l-273 -372h-129z" />
    <glyph glyph-name="Ecyrillic" unicode="&#x404;" horiz-adv-x="1202" 
d="M610 -19q-204 0 -316.5 130.5t-112.5 374.5v510q0 249 113.5 380.5t317.5 131.5t316.5 -126.5t121.5 -361.5l-141 -18q-15 201 -83 288.5t-217 87.5t-216 -85t-67 -282v-128h383v-133h-383v-279q0 -194 67 -276.5t217 -82.5t218 85.5t81 282.5l141 -18
q-9 -233 -122.5 -357t-317.5 -124z" />
    <glyph glyph-name="Dzecyrillic" unicode="&#x405;" horiz-adv-x="1202" 
d="M1037 421q0 -199 -116 -313t-308 -115q-123 1 -238 47t-187 115l52 119q169 -153 387 -153q125 0 196 72q71 73 71 187t-62 175t-266 154t-284 188q-79 95 -79 251t103 251q103 94 284 94q108 0 217 -49t176 -117l-50 -124q-173 160 -354 160q-108 0 -169 -61
q-62 -61 -62 -162t67 -162t268 -148t277 -178t77 -231z" />
    <glyph glyph-name="Icyrillic" unicode="&#x406;" 
d="M181 0v130h279v1229h-279v130h703v-130h-279v-1229h279v-130h-703z" />
    <glyph glyph-name="Yicyrillic" unicode="&#x407;" 
d="M181 0v130h279v1229h-279v130h703v-130h-279v-1229h279v-130h-703zM784 1800q0 -95 -93 -95q-43 0 -68 20t-25 75v10q0 58 25 78t67 19q42 0 68 -20t26 -77v-10zM460 1800q0 -95 -93 -95t-93 95v10q0 58 26 78t67 19q41 0 67 -20t26 -77v-10z" />
    <glyph glyph-name="Jecyrillic" unicode="&#x408;" 
d="M884 439q0 -220 -96 -339t-284 -119t-279 114t-100 365l145 20q9 -216 56 -292q46 -76 172 -76t184 79t57 239v929h-281v130h426v-1050z" />
    <glyph glyph-name="Ljecyrillic" unicode="&#x409;" horiz-adv-x="1761" 
d="M1024 130h248q108 0 158 60.5t50 187.5v190q0 127 -50 189t-158 62h-248v-689zM181 108q74 0 106.5 84.5t32.5 269.5l6 1027h698v-545h249q179 0 265 -94t86 -293v-175q0 -195 -86 -288.5t-265 -93.5h-394v1359h-417l-4 -921q-4 -453 -264 -453q-68 0 -114 19l22 124
q40 -20 79 -20z" />
    <glyph glyph-name="Njecyrillic" unicode="&#x40a;" horiz-adv-x="1761" 
d="M1624 382q0 -382 -351 -382h-394v737h-553v-737h-145v1489h145v-620h553v620h145v-545h249q351 0 351 -387v-175zM1024 130h248q108 0 158 60.5t50 187.5v190q0 127 -50 189t-158 62h-248v-689z" />
    <glyph glyph-name="Tshecyrillic" unicode="&#x40b;" horiz-adv-x="1342" 
d="M1018 534q0 246 -206 246h-237v-780h-145v1359h-318v130h813v-130h-350v-454h237q182 0 267 -90.5t85 -283.5v-531h-146v534z" />
    <glyph glyph-name="Kjecyrillic" unicode="&#x40c;" 
d="M326 735v-735h-145v1489h145v-623h46l429 623h165l-484 -683l481 -806h-174l-413 735h-50zM441 1676l188 372h214l-273 -372h-129z" />
    <glyph glyph-name="Igravecyrillic" unicode="&#x40d;" horiz-adv-x="1202" 
d="M879 0v1292l-486 -1292h-212v1489h143v-1305l503 1305h197v-1489h-145zM572 1676l-274 372h214l188 -372h-128z" />
    <glyph glyph-name="Ushortcyrillic" unicode="&#x40e;" 
d="M338 115q61 0 100 47t57 114l6 16h-50l-375 1197h157l313 -1044l296 1044h143l-367 -1213q-40 -134 -108 -216t-182 -82q-56 0 -125 20l22 129q52 -12 113 -12zM531 1663q-117 0 -207 77q-89 77 -91 276l141 19q2 -134 36 -192t122 -58t120 58q34 58 35 192l142 -19
q-1 -199 -91 -276t-207 -77z" />
    <glyph glyph-name="Dzhecyrillic" unicode="&#x40f;" horiz-adv-x="1202" 
d="M529 -279v279h-348v1489h145v-1359h553v1359h145v-1489h-350v-279h-145z" />
    <glyph glyph-name="Acyrillic" unicode="&#x410;" horiz-adv-x="1172" 
d="M938 0l-124 460h-460l-125 -460h-147l430 1489h151l428 -1489h-153zM778 588l-195 719l-194 -719h389z" />
    <glyph glyph-name="Becyrillic" unicode="&#x411;" horiz-adv-x="1202" 
d="M326 130h365q108 0 158 63.5t50 190.5v108q0 125 -50 187t-158 62h-365v-611zM181 0v1489h806v-130h-661v-490h393q156 0 240 -90t84 -260v-145q0 -182 -83 -278t-239 -96h-540z" />
    <glyph glyph-name="Vecyrillic" unicode="&#x412;" horiz-adv-x="1202" 
d="M326 132h311q143 0 202 61t58 204v48q0 143 -58 203q-59 60 -202 59h-311v-575zM326 842h285q134 0 189 54t55 182v41q0 128 -55 183t-189 55h-285v-515zM181 0v1489h437q176 0 278 -94t102 -256v-91q0 -86 -52 -150t-140 -83v-54q106 -13 171 -95q64 -83 64 -210v-80
q0 -172 -110 -274t-304 -102h-446z" />
    <glyph glyph-name="Gecyrillic" unicode="&#x413;" horiz-adv-x="923" 
d="M181 0v1489h661v-130h-516v-1359h-145z" />
    <glyph glyph-name="Decyrillic" unicode="&#x414;" horiz-adv-x="1342" 
d="M255 0v-279h-143v409h97q107 111 111 445l4 914h700v-1359h140v-409h-146v279h-763zM371 130h508v1229h-417l-4 -795q-2 -140 -18.5 -225t-68.5 -158v-51z" />
    <glyph glyph-name="Iecyrillic" unicode="&#x415;" 
d="M181 0v1489h729v-130h-584v-476h514v-133h-514v-620h584v-130h-729z" />
    <glyph glyph-name="Zhecyrillic" unicode="&#x416;" horiz-adv-x="1342" 
d="M607 866v623h130v-623h58l315 623h152l-365 -694l360 -795h-157l-303 737h-60v-737h-130v737h-60l-303 -737h-156l361 784l-365 705h151l309 -623h63z" />
    <glyph glyph-name="Zecyrillic" unicode="&#x417;" horiz-adv-x="1202" 
d="M1039 400q0 -419 -426 -419q-213 0 -324.5 98t-120.5 303l143 18q11 -128 72.5 -210t219.5 -82t225.5 65t67.5 222v52q0 262 -229 262h-190v133h190q99 0 141.5 43.5t42.5 194.5v69q0 132 -62.5 182t-190.5 50t-189 -63t-70 -203l-144 19q7 184 110 279t287 95t294 -87.5
t110 -288.5v-67q0 -221 -154 -250v-54q91 -6 144 -94t53 -209v-58z" />
    <glyph glyph-name="Iicyrillic" unicode="&#x418;" horiz-adv-x="1202" 
d="M879 0v1292l-486 -1292h-212v1489h143v-1305l503 1305h197v-1489h-145z" />
    <glyph glyph-name="Iishortcyrillic" unicode="&#x419;" horiz-adv-x="1202" 
d="M879 0v1292l-486 -1292h-212v1489h143v-1305l503 1305h197v-1489h-145zM573 1663q-117 0 -206 77t-91 276l141 19q1 -134 35 -192t122 -58t120 58q34 58 36 192l141 -19q-1 -199 -91 -276t-207 -77z" />
    <glyph glyph-name="Kacyrillic" unicode="&#x41a;" 
d="M326 735v-735h-145v1489h145v-623h46l429 623h165l-484 -683l481 -806h-174l-413 735h-50z" />
    <glyph glyph-name="Elcyrillic" unicode="&#x41b;" horiz-adv-x="1202" 
d="M1024 1489v-1489h-145v1359h-417l-4 -921q-4 -453 -264 -453q-68 0 -114 19l22 124q54 -20 79 -20q74 0 106.5 83t32.5 271l6 1027h698z" />
    <glyph glyph-name="Emcyrillic" unicode="&#x41c;" horiz-adv-x="1342" 
d="M317 0h-136v1489h214l281 -970l283 970h205v-1489h-136v1309l-270 -937h-172l-269 924v-1296z" />
    <glyph glyph-name="Encyrillic" unicode="&#x41d;" horiz-adv-x="1202" 
d="M181 0v1489h145v-620h553v620h145v-1489h-145v737h-553v-737h-145z" />
    <glyph glyph-name="Ocyrillic" unicode="&#x41e;" horiz-adv-x="1202" 
d="M602 112q144 0 211 91q66 91 66 290v518q0 190 -66 278q-67 89 -211 89t-210 -88t-66 -279v-518q0 -199 66 -290t210 -91zM1024 499q0 -257 -107 -387t-315 -131q-208 1 -314 131t-107 387v506q0 249 107 376q108 127 314 127t314 -127t108 -376v-506z" />
    <glyph glyph-name="Pecyrillic" unicode="&#x41f;" horiz-adv-x="1202" 
d="M181 0v1489h843v-1489h-145v1359h-553v-1359h-145z" />
    <glyph glyph-name="Ercyrillic" unicode="&#x420;" 
d="M326 670h225q119 0 175 62t56 190v190q0 128 -56 188t-175 59h-225v-689zM925 933q0 -389 -372 -387h-227v-546h-145v1489h372q372 0 372 -381v-175z" />
    <glyph glyph-name="Escyrillic" unicode="&#x421;" horiz-adv-x="1202" 
d="M181 1005q0 503 437 503q203 0 313 -126t119 -367l-141 -19q-13 201 -81 291q-68 91 -216 91t-218 -87q-68 -87 -68 -280v-540q0 -190 69 -275q69 -84 217 -84t216 87q68 88 81 287l141 -19q-9 -238 -120 -362t-314 -124q-437 0 -435 496v528z" />
    <glyph glyph-name="Tecyrillic" unicode="&#x422;" 
d="M460 0v1359h-348v130h841v-130h-348v-1359h-145z" />
    <glyph glyph-name="Ucyrillic" unicode="&#x423;" 
d="M338 115q61 0 100 47t57 114l6 16h-50l-375 1197h157l313 -1044l296 1044h143l-367 -1213q-41 -134 -108.5 -216t-181.5 -82q-54 0 -125 20l22 129q52 -12 113 -12z" />
    <glyph glyph-name="Efcyrillic" unicode="&#x424;" horiz-adv-x="1342" 
d="M283 620q0 -317 203 -317h121v883h-121q-203 0 -203 -324v-242zM1061 862q0 324 -205 324h-119v-883h119q205 0 205 317v242zM856 168h-111v-213h-145v213h-114q-184 0 -265 126.5t-81 325.5v242q0 201 81 330.5t265 129.5h114v212h145v-212h111q184 0 266.5 -129.5
t82.5 -330.5v-242q0 -199 -82.5 -325.5t-266.5 -126.5z" />
    <glyph glyph-name="Khacyrillic" unicode="&#x425;" horiz-adv-x="1202" 
d="M899 0l-296 618l-296 -618h-169l391 761l-354 728h164l281 -586l281 586h166l-373 -728l371 -761h-166z" />
    <glyph glyph-name="Tsecyrillic" unicode="&#x426;" horiz-adv-x="1202" 
d="M950 -279v279h-769v1489h145v-1359h484v1359h143v-1359h140v-409h-143z" />
    <glyph glyph-name="Checyrillic" unicode="&#x427;" 
d="M884 1489v-1489h-145v540h-247q-179 0 -265.5 88.5t-86.5 274.5v586h143v-582q0 -125 50.5 -182.5t158.5 -57.5h247v822h145z" />
    <glyph glyph-name="Shacyrillic" unicode="&#x428;" horiz-adv-x="1482" 
d="M181 0v1489h143v-1359h344v1359h144v-1359h348v1359h143v-1489h-1122z" />
    <glyph glyph-name="Shchacyrillic" unicode="&#x429;" horiz-adv-x="1550" 
d="M1443 -279h-142v279h-1120v1489h143v-1359h344v1359h144v-1359h348v1359h143v-1359h140v-409z" />
    <glyph glyph-name="Hardsigncyrillic" unicode="&#x42a;" horiz-adv-x="1202" 
d="M465 130h248q102 0 155.5 63.5t53.5 184.5v190q0 123 -53.5 187t-155.5 64h-248v-689zM715 0h-395v1359h-279v130h424v-545h250q179 0 264.5 -94t85.5 -293v-175q0 -195 -85.5 -288.5t-264.5 -93.5z" />
    <glyph glyph-name="Yericyrillic" unicode="&#x42b;" horiz-adv-x="1372" 
d="M752 568q0 251 -206 251h-207v-689h207q206 0 206 248v190zM1037 0v1489h143v-1489h-143zM194 0v1489h145v-545h207q173 0 262 -98t89 -289v-175q0 -190 -89 -286t-262 -96h-352z" />
    <glyph glyph-name="Softsigncyrillic" unicode="&#x42c;" 
d="M782 568q0 251 -209 251h-247v-689h247q102 0 155.5 63.5t53.5 184.5v190zM925 382q0 -382 -350 -382h-394v1489h145v-545h249q173 0 261.5 -98t88.5 -289v-175z" />
    <glyph glyph-name="Ereversedcyrillic" unicode="&#x42d;" horiz-adv-x="1202" 
d="M153 1022q23 486 441 486q208 0 320 -126.5t112 -376.5v-530q0 -244 -111 -369t-321 -125q-419 0 -441 479l145 18q11 -205 75.5 -286.5t220.5 -81.5t221.5 82t65.5 285v273h-386v133h386v124q0 205 -64.5 288t-218.5 83t-221.5 -88.5t-78.5 -285.5z" />
    <glyph glyph-name="IUcyrillic" unicode="&#x42e;" horiz-adv-x="1511" 
d="M932.5 112q128.5 0 186.5 83.5t58 275.5v540q0 195 -58 281t-186.5 86t-185 -86t-56.5 -281v-540q0 -192 56.5 -275.5t185 -83.5zM933 -19q-188 0 -287 126t-99 370v273h-208v-750h-145v1489h145v-606h208v122q0 246 100 374.5t288 128.5t286.5 -128.5t98.5 -374.5v-528
q0 -244 -99.5 -370t-287.5 -126z" />
    <glyph glyph-name="IAcyrillic" unicode="&#x42f;" horiz-adv-x="1202" 
d="M181 992v112q0 188 87.5 286.5t254.5 98.5h501v-1489h-145v596h-261l-287 -596h-163l288 598q-275 38 -275 394zM532 722h347v637h-347q-101 0 -153.5 -65t-52.5 -186v-116q0 -130 52.5 -200t153.5 -70z" />
    <glyph glyph-name="acyrillic" unicode="&#x430;" horiz-adv-x="1202" 
d="M452 -19q-118 0 -193 85q-76 85 -77 230q0 145 80 230t211 85h268v191q0 86 -49 145q-50 59 -150 59t-148 -48q-48 -47 -72 -176l-121 45q48 307 341 309q147 0 244 -76t97 -230v-582q0 -82 38 -110t129 -4v-143q-232 -36 -248 177h-27q-33 -80 -119 -134t-204 -53z
M486 121q176 0 255 168v197h-248q-80 0 -127 -39t-48 -140q0 -186 168 -186z" />
    <glyph glyph-name="becyrillic" unicode="&#x431;" 
d="M530.5 117q111.5 0 159 60.5t47.5 183.5v281q0 112 -47.5 169t-159 57t-158 -57t-46.5 -169v-281q0 -123 46.5 -183.5t158 -60.5zM532 -19q-157 0 -254 90.5t-97 285.5v660q0 168 80 269t249 148l311 82l22 -118l-305 -82q-123 -32 -175 -121t-52 -266v-43h33
q30 52 96 85.5t145 33.5q128 0 213.5 -94t85.5 -256v-298q0 -190 -97.5 -283t-254.5 -93z" />
    <glyph glyph-name="vecyrillic" unicode="&#x432;" 
d="M324 138h203q134 0 187 41t53 143v19q0 99 -51 138t-178 39h-214v-380zM324 655h214q112 0 157.5 30t45.5 106v26q0 86 -47.5 121.5t-166.5 35.5h-203v-319zM910 315q0 -315 -383 -315h-346v1117h346q357 0 357 -285v-18q0 -86 -52 -139t-139 -61v-41q101 -9 159 -75
t58 -168v-15z" />
    <glyph glyph-name="gecyrillic" unicode="&#x433;" horiz-adv-x="783" 
d="M181 0v1117h521v-130h-376v-987h-145z" />
    <glyph glyph-name="decyrillic" unicode="&#x434;" horiz-adv-x="1202" 
d="M283 0v-279h-145v415h97q81 93 85 335l6 646h557v-981h139v-415h-143v279h-596zM402 136h337v845h-275l-6 -538q-4 -167 -56 -257v-50z" />
    <glyph glyph-name="iecyrillic" unicode="&#x435;" 
d="M739 726q-1 274 -207 274t-206 -253v-90h413v69zM521 -19q-153 0 -247 101t-93 279v386q0 182 93 285q92 104 258 104t259 -108t93 -298v-198h-558v-175q0 -128 52 -185t156 -57t151 40q48 40 69 128l138 -45q-42 -140 -130 -198t-241 -59z" />
    <glyph glyph-name="zhecyrillic" unicode="&#x436;" horiz-adv-x="1202" 
d="M538 655v462h129v-462h63l225 462h164l-289 -529l285 -588h-158l-222 536h-68v-536h-129v536h-69l-225 -536h-156l281 577l-287 540h167l224 -462h65z" />
    <glyph glyph-name="zecyrillic" unicode="&#x437;" 
d="M910 318q0 -337 -380 -337q-192 0 -278 81t-97 266l141 13q13 -128 62.5 -175t179.5 -47t178.5 42t48.5 165v18q0 97 -40 137t-140 40h-101v131h101q91 0 123.5 35t32.5 128v27q0 91 -44.5 123.5t-160.5 32.5t-159.5 -43t-54.5 -158l-143 15q13 173 94 248.5t254 75.5
q357 0 357 -293v-22q0 -93 -50 -148t-141 -60v-41q108 -7 162.5 -79t54.5 -163v-12z" />
    <glyph glyph-name="iicyrillic" unicode="&#x438;" 
d="M741 0v927l-370 -927h-190v1117h143v-940l380 940h180v-1117h-143z" />
    <glyph glyph-name="iishortcyrillic" unicode="&#x439;" 
d="M741 0v927l-370 -927h-190v1117h143v-940l380 940h180v-1117h-143zM529 1290q-117 0 -207 78t-91 276l141 19q2 -134 36 -192t122 -58t120 58q34 58 35 192l142 -19q-1 -198 -91 -276t-207 -78z" />
    <glyph glyph-name="kacyrillic" unicode="&#x43a;" horiz-adv-x="923" 
d="M326 525v-525h-145v1117h145v-464h69l268 464h173l-348 -523l342 -594h-162l-273 525h-69z" />
    <glyph glyph-name="elcyrillic" unicode="&#x43b;" 
d="M169 114q63 0 92 86.5t31 264.5l6 652h586v-1117h-145v981h-305l-4 -540q-4 -456 -248 -456q-52 0 -102 19l22 128q48 -18 67 -18z" />
    <glyph glyph-name="emcyrillic" unicode="&#x43c;" horiz-adv-x="1202" 
d="M317 0h-136v1117h219l205 -668l205 668h214v-1117h-136v968l-210 -689h-151l-210 680v-959z" />
    <glyph glyph-name="encyrillic" unicode="&#x43d;" 
d="M181 0v1117h145v-398h413v398h145v-1117h-145v590h-413v-590h-145z" />
    <glyph glyph-name="ocyrillic" unicode="&#x43e;" 
d="M739 702q0 298 -208 298q-105 0 -155 -74t-50 -224v-300q0 -145 50 -215t155 -70q106 0 157 70t51 215v300zM532 -19q-170 0 -260 111q-91 111 -91 316v294q0 210 91 322t260 112q168 0 260 -112t92 -322v-294q0 -205 -91 -316t-261 -111z" />
    <glyph glyph-name="pecyrillic" unicode="&#x43f;" 
d="M181 0v1117h703v-1117h-145v987h-413v-987h-145z" />
    <glyph glyph-name="ercyrillic" unicode="&#x440;" 
d="M523 -22q-105 0 -197 56v-406h-145v1489h145v-141h41q28 76 93 118t154 42q127 0 199 -104t71 -287v-374q0 -184 -96 -289q-97 -104 -265 -104zM523 110q115 0 166 61q50 61 50 203v384q0 126 -38 180t-123 54q-84 0 -142 -44t-110 -147v-609q82 -82 197 -82z" />
    <glyph glyph-name="escyrillic" unicode="&#x441;" 
d="M326 357q0 -240 217 -240q109 1 159 49t56 151l141 -4q-9 -179 -93 -255t-266 -77q-182 0 -270 101q-89 101 -89 281v384q0 195 101 292t268 97t252 -90t97 -286l-141 -4q-4 128 -55 186t-161 58t-163 -62t-53 -191v-390z" />
    <glyph glyph-name="tecyrillic" unicode="&#x442;" horiz-adv-x="923" 
d="M391 0v987h-279v130h702v-130h-280v-987h-143z" />
    <glyph glyph-name="ucyrillic" unicode="&#x443;" horiz-adv-x="923" 
d="M247 -246q62 0 105 48t76 153l4 21h-63l-295 1141h155l238 -994l231 994h151l-315 -1273q-52 -128 -127 -176t-176 -48q-45 0 -151 19l24 136q81 -21 143 -21z" />
    <glyph glyph-name="efcyrillic" unicode="&#x444;" horiz-adv-x="1372" 
d="M815 983h-63v-847h63q106 0 164 80t58 225v231q0 149 -58 230t-164 81zM557 136h65v847h-65q-104 0 -161 -81t-57 -230v-231q0 -145 57 -225t161 -80zM845 0h-85v-372h-146v372h-85q-162 0 -248.5 113.5t-86.5 324.5v242q0 210 86.5 323.5t248.5 113.5h85v372h146v-372
h85q162 0 248.5 -113.5t86.5 -323.5v-242q0 -210 -86.5 -324t-248.5 -114z" />
    <glyph glyph-name="khacyrillic" unicode="&#x445;" horiz-adv-x="923" 
d="M655 0l-203 423l-189 -423h-161l282 560l-270 557h158l195 -406l196 406h158l-283 -547l277 -570h-160z" />
    <glyph glyph-name="tsecyrillic" unicode="&#x446;" horiz-adv-x="1077" 
d="M825 -279v279h-639v1117h145v-987h345v987h145v-987h140v-409h-136z" />
    <glyph glyph-name="checyrillic" unicode="&#x447;" 
d="M739 1117h145v-1117h-145v415q-88 -41 -236 -41q-147 0 -234.5 89.5t-87.5 257.5v396h145v-393q0 -128 56 -175.5t177 -46.5t180 42v573z" />
    <glyph glyph-name="shacyrillic" unicode="&#x448;" horiz-adv-x="1482" 
d="M181 0v1117h143v-987h344v987h144v-987h348v987h143v-1117h-1122z" />
    <glyph glyph-name="shchacyrillic" unicode="&#x449;" horiz-adv-x="1550" 
d="M1443 -279h-132v279h-1130v1117h143v-987h344v987h144v-987h348v987h143v-987h140v-409z" />
    <glyph glyph-name="hardsigncyrillic" unicode="&#x44a;" horiz-adv-x="1202" 
d="M465 136h276q86 0 133.5 50t47.5 140v82q0 86 -47.5 133t-133.5 47h-276v-452zM769 0h-449v987h-279v130h424v-396h304q141 0 218.5 -83t77.5 -234v-74q0 -160 -77.5 -245t-218.5 -85z" />
    <glyph glyph-name="yericyrillic" unicode="&#x44b;" horiz-adv-x="1372" 
d="M339 136h233q86 0 133 49.5t47 140.5v82q0 86 -47.5 133t-132.5 47h-233v-452zM1037 0v1117h143v-1117h-143zM194 0v1117h145v-396h261q145 0 221 -82t76 -235v-74q0 -160 -76 -245t-218 -85h-409z" />
    <glyph glyph-name="softsigncyrillic" unicode="&#x44c;" 
d="M326 136h275q86 0 133.5 49.5t47.5 140.5v82q0 86 -47.5 133t-133.5 47h-275v-452zM181 0v1117h145v-396h303q143 0 219.5 -82t76.5 -235v-74q0 -160 -76 -245t-220 -85h-448z" />
    <glyph glyph-name="ereversedcyrillic" unicode="&#x44d;" 
d="M884 359q0 -378 -358 -378q-182 0 -266.5 78.5t-93.5 257.5l139 3q12 -199 209 -199q117 0 171 56t54 179v154h-315v132h315v106q0 134 -55 191t-162 57t-159 -58.5t-58 -187.5l-139 4q9 199 95.5 290.5t253.5 91.5t268 -94t101 -288v-395z" />
    <glyph glyph-name="iucyrillic" unicode="&#x44e;" horiz-adv-x="1372" 
d="M863.5 112q100.5 0 143.5 65t43 216v324q0 155 -43 221.5t-143.5 66.5t-144 -67t-43.5 -221v-324q0 -151 43.5 -216t144 -65zM864 -19q-156 0 -237 109t-81 314v164h-207v-568h-145v1117h145v-417h207v2q0 210 80 322t236 112t237 -110t81 -320v-302q0 -205 -80 -314
t-236 -109z" />
    <glyph glyph-name="iacyrillic" unicode="&#x44f;" 
d="M181 776q0 341 273 341h430v-1117h-145v410h-134l-274 -410h-163l266 404q-253 14 -253 339v33zM458 547h281v427h-281q-71 0 -101.5 -43t-30.5 -140v-41q0 -110 30.5 -156.5t101.5 -46.5z" />
    <glyph glyph-name="iegravecyrillic" unicode="&#x450;" 
d="M739 726q-1 274 -207 274t-206 -253v-90h413v69zM521 -19q-153 0 -247 101t-93 279v386q0 182 93 285q92 104 258 104t259 -108t93 -298v-198h-558v-175q0 -128 52 -185t156 -57t151 40q48 40 69 128l138 -45q-42 -140 -130 -198t-241 -59zM531 1303l-274 373h214
l188 -373h-128z" />
    <glyph glyph-name="iocyrillic" unicode="&#x451;" 
d="M739 726q-1 274 -207 274t-206 -253v-90h413v69zM521 -19q-153 0 -247 101t-93 279v386q0 182 93 285q92 104 258 104t259 -108t93 -298v-198h-558v-175q0 -128 52 -185t156 -57t151 40q48 40 69 128l138 -45q-42 -140 -130 -198t-241 -59zM786 1428q0 -95 -93 -95
q-43 0 -68 20t-25 75v9q0 58 25 78q25 19 67 19t68 -20t26 -77v-9zM462 1428q0 -95 -93 -95t-93 95v9q0 99 93 97q41 0 67 -20t26 -77v-9z" />
    <glyph glyph-name="djecyrillic" unicode="&#x452;" 
d="M577 912q-153 0 -251 -169v-743h-145v1192h-140v137h140v160h145v-160h277v-137h-277v-298h41q22 74 93.5 117t177.5 43t176 -78.5t70 -208.5v-782q0 -186 -81.5 -279t-204.5 -93q-76 0 -175 41l28 160q175 -85 231.5 -9t56.5 204v719q0 184 -162 184z" />
    <glyph glyph-name="gjecyrillic" unicode="&#x453;" horiz-adv-x="783" 
d="M181 0v1117h521v-130h-376v-987h-145zM281 1303l188 373h214l-273 -373h-129z" />
    <glyph glyph-name="ecyrillic" unicode="&#x454;" 
d="M551 121q199 0 207 199l141 -3q-9 -175 -94.5 -255.5t-257.5 -80.5q-366 0 -366 373v400q0 382 366 382q168 0 254.5 -92.5t97.5 -289.5l-141 -4q-4 127 -55 186.5t-161 59.5t-163 -58.5t-53 -187.5v-106h314v-134h-314v-156q0 -123 55 -178t170 -55z" />
    <glyph glyph-name="dzecyrillic" unicode="&#x455;" 
d="M499 996q-171 0 -171 -174q0 -88 52 -126q52 -39 202 -78t229 -113t79 -216q0 -143 -96 -227t-252 -84q-104 0 -208 34t-179 100l61 123q64 -50 152 -83t176 -33q199 0 199 164q0 95 -50 135q-49 40 -195 78t-231 106t-85 216t88 233t233 85q93 0 190 -38t167 -106
l-61 -124q-163 128 -300 128z" />
    <glyph glyph-name="icyrillic" unicode="&#x456;" horiz-adv-x="754" 
d="M305 0v1117h144v-1117h-144zM499 1428q-1 -56 -35 -76t-87 -19q-53 0 -87 20t-33 75v9q0 58 33 78q34 19 87 19t88 -19q34 -20 34 -78v-9z" />
    <glyph glyph-name="yicyrillic" unicode="&#x457;" horiz-adv-x="754" 
d="M305 0v1117h144v-1117h-144zM633 1428q0 -95 -93 -95q-43 0 -68 20t-25 75v9q0 58 25 78q25 19 67 19t68 -20t26 -77v-9zM309 1428q0 -95 -93 -95t-93 95v9q0 99 93 97q41 0 67 -20t26 -77v-9z" />
    <glyph glyph-name="jecyrillic" unicode="&#x458;" horiz-adv-x="783" 
d="M391 -26v1007h-279v136h422v-1154q0 -179 -84 -265q-86 -85 -201 -85q-79 0 -178 41l28 149q88 -43 149 -43t102 48t41 166zM581 1428q-1 -56 -35 -76t-87 -19q-53 0 -87 20t-33 75v9q0 58 33 78q34 19 87 19t87 -20t35 -77v-9z" />
    <glyph glyph-name="ljecyrillic" unicode="&#x459;" horiz-adv-x="1621" 
d="M884 136h276q86 0 133.5 49.5t47.5 138.5v84q0 86 -47.5 133t-133.5 47h-276v-452zM182 -15q-52 0 -102 19l22 128l34 -12t32 -6q50 0 86 62t38 289l6 652h586v-396h304q141 0 218.5 -82t77.5 -235v-74q0 -160 -77.5 -245t-218.5 -85h-449v981h-305l-4 -540
q-2 -238 -69 -347t-179 -109z" />
    <glyph glyph-name="njecyrillic" unicode="&#x45a;" horiz-adv-x="1621" 
d="M326 590v-590h-145v1117h145v-398h413v398h145v-396h304q143 0 219.5 -82t76.5 -235v-74q0 -160 -76.5 -245t-219.5 -85h-449v590h-413zM884 136h276q86 0 133.5 50t47.5 138v84q0 86 -47.5 133t-133.5 47h-276v-452z" />
    <glyph glyph-name="tshecyrillic" unicode="&#x45b;" 
d="M367 894q75 160 275 160q102 0 173 -76q70 -76 69 -211v-767h-145v730q0 184 -162 182q-150 0 -251 -169v-743h-145v1192h-140v137h140v160h145v-160h277v-137h-277v-298h41z" />
    <glyph glyph-name="kjecyrillic" unicode="&#x45c;" horiz-adv-x="923" 
d="M326 525v-525h-145v1117h145v-464h69l268 464h173l-348 -523l342 -594h-162l-273 525h-69zM346 1303l188 373h214l-273 -373h-129z" />
    <glyph glyph-name="igravecyrillic" unicode="&#x45d;" 
d="M741 0v927l-370 -927h-190v1117h143v-940l380 940h180v-1117h-143zM529 1303l-274 373h214l188 -373h-128z" />
    <glyph glyph-name="ushortcyrillic" unicode="&#x45e;" horiz-adv-x="923" 
d="M247 -246q62 0 105 48t76 153l4 21h-63l-295 1141h155l238 -994l231 994h151l-315 -1273q-52 -128 -127 -176t-176 -48q-45 0 -151 19l24 136q81 -21 143 -21zM460 1290q-116 0 -206 78t-92 276l141 19q2 -134 36 -192q33 -58 121 -58t122 58t34 192l142 -19
q-2 -198 -92 -276t-206 -78z" />
    <glyph glyph-name="dzhecyrillic" unicode="&#x45f;" 
d="M464 -279v279h-283v1117h145v-987h413v987h145v-1117h-283v-279h-137z" />
    <glyph glyph-name="Gheupturncyrillic" unicode="&#x490;" horiz-adv-x="923" 
d="M181 0v1489h517v280h144v-410h-516v-1359h-145z" />
    <glyph glyph-name="gheupturncyrillic" unicode="&#x491;" horiz-adv-x="783" 
d="M181 0v1117h383v279h138v-409h-376v-987h-145z" />
    <glyph glyph-name="Wgrave" unicode="&#x1e80;" horiz-adv-x="1372" 
d="M892 0l-207 855l-203 -855h-171l-209 1489h146l163 -1295l200 888h160l197 -892l170 1299h134l-207 -1489h-173zM685 1676l-274 372h215l188 -372h-129z" />
    <glyph glyph-name="wgrave" unicode="&#x1e81;" horiz-adv-x="1342" 
d="M855 0l-185 778l-177 -778h-163l-233 1117h143l173 -944l172 758h167l181 -749l169 935h145l-232 -1117h-160zM668 1303l-273 373h214l188 -373h-129z" />
    <glyph glyph-name="Wacute" unicode="&#x1e82;" horiz-adv-x="1372" 
d="M892 0l-207 855l-203 -855h-171l-209 1489h146l163 -1295l200 888h160l197 -892l170 1299h134l-207 -1489h-173zM525 1676l188 372h214l-274 -372h-128z" />
    <glyph glyph-name="wacute" unicode="&#x1e83;" horiz-adv-x="1342" 
d="M855 0l-185 778l-177 -778h-163l-233 1117h143l173 -944l172 758h167l181 -749l169 935h145l-232 -1117h-160zM508 1303l188 373h214l-273 -373h-129z" />
    <glyph glyph-name="Wdieresis" unicode="&#x1e84;" horiz-adv-x="1372" 
d="M892 0l-207 855l-203 -855h-171l-209 1489h146l163 -1295l200 888h160l197 -892l170 1299h134l-207 -1489h-173zM940 1800q0 -95 -93 -95q-43 0 -68 20t-25 75v10q0 58 25 78t67 19q42 0 68 -20t26 -77v-10zM616 1800q0 -95 -93 -95t-93 95v10q0 58 26 78t67 19
q41 0 67 -20t26 -77v-10z" />
    <glyph glyph-name="wdieresis" unicode="&#x1e85;" horiz-adv-x="1342" 
d="M855 0l-185 778l-177 -778h-163l-233 1117h143l173 -944l172 758h167l181 -749l169 935h145l-232 -1117h-160zM923 1428q0 -95 -93 -95q-43 0 -68 20t-25 75v9q0 58 25 78q25 19 67 19t68 -20t26 -77v-9zM600 1428q0 -95 -94 -95t-93 95v9q0 99 93 97q41 0 67 -20t27 -77
v-9z" />
    <glyph glyph-name="Ygrave" unicode="&#x1ef2;" 
d="M605 0h-145v559l-399 930h161l316 -789l307 789h157l-397 -930v-559zM529 1676l-274 372h214l188 -372h-128z" />
    <glyph glyph-name="ygrave" unicode="&#x1ef3;" horiz-adv-x="923" 
d="M247 -246q62 0 105 48t76 153l4 21h-63l-295 1141h155l238 -994l231 994h151l-315 -1273q-52 -128 -127 -176t-176 -48q-45 0 -151 19l24 136q81 -21 143 -21zM460 1303l-274 373h214l188 -373h-128z" />
    <glyph glyph-name="uni2000" unicode="&#x2000;" horiz-adv-x="1024" 
 />
    <glyph glyph-name="uni2001" unicode="&#x2001;" horiz-adv-x="2048" 
 />
    <glyph glyph-name="uni2002" unicode="&#x2002;" horiz-adv-x="1024" 
 />
    <glyph glyph-name="uni2003" unicode="&#x2003;" horiz-adv-x="2048" 
 />
    <glyph glyph-name="uni2004" unicode="&#x2004;" horiz-adv-x="681" 
 />
    <glyph glyph-name="uni2005" unicode="&#x2005;" horiz-adv-x="512" 
 />
    <glyph glyph-name="uni2007" unicode="&#x2007;" horiz-adv-x="1202" 
 />
    <glyph glyph-name="uni2009" unicode="&#x2009;" horiz-adv-x="340" 
 />
    <glyph glyph-name="uni200A" unicode="&#x200a;" horiz-adv-x="204" 
 />
    <glyph glyph-name="uni200B" unicode="&#x200b;" horiz-adv-x="0" 
 />
    <glyph glyph-name="endash" unicode="&#x2013;" horiz-adv-x="1452" 
d="M236 577v144h980v-144h-980z" />
    <glyph glyph-name="emdash" unicode="&#x2014;" horiz-adv-x="1871" 
d="M236 577v144h1399v-144h-1399z" />
    <glyph glyph-name="horizontalbar" unicode="&#x2015;" horiz-adv-x="1396" 
d="M0 577v144h1396v-144h-1396z" />
    <glyph glyph-name="underscoredbl" unicode="&#x2017;" horiz-adv-x="1312" 
d="M168 0v143h977v-143h-977zM168 -318v143h977v-143h-977z" />
    <glyph glyph-name="quoteright" unicode="&#x2019;" horiz-adv-x="1033" 
d="M292 776l153 713h281l-315 -713h-119z" />
    <glyph glyph-name="quotesinglbase" unicode="&#x201a;" horiz-adv-x="1033" 
d="M307 -404l125 715h279l-285 -715h-119z" />
    <glyph glyph-name="quotereversed" unicode="&#x201b;" horiz-adv-x="1033" 
d="M579 776l-315 713h282l152 -713h-119z" />
    <glyph glyph-name="quotedblleft" unicode="&#x201c;" horiz-adv-x="1372" 
d="M266 776l315 713h106l-153 -713h-268zM687 776l317 713h106l-153 -713h-270z" />
    <glyph glyph-name="quotedblright" unicode="&#x201d;" horiz-adv-x="1372" 
d="M264 776l153 713h268l-316 -713h-105zM687 776l153 713h268l-315 -713h-106z" />
    <glyph glyph-name="quotedblbase" unicode="&#x201e;" horiz-adv-x="1372" 
d="M264 -395l153 713h268l-316 -713h-105zM687 -395l153 713h268l-315 -713h-106z" />
    <glyph glyph-name="dagger" unicode="&#x2020;" horiz-adv-x="1452" 
d="M672 -372v1353h-208l-56 -385h-116l43 521h332l-10 372h173l-9 -372h331l40 -521h-112l-56 385h-210v-1353h-142z" />
    <glyph glyph-name="daggerdbl" unicode="&#x2021;" horiz-adv-x="1452" 
d="M672 156v805h-208l-56 -272h-116l43 409h332l-10 391h173l-9 -391h331l40 -409h-112l-56 272h-210v-805h210l56 272h112l-40 -409h-331l9 -391h-173l10 391h-332l-43 409h116l56 -272h208z" />
    <glyph glyph-name="bullet" unicode="&#x2022;" horiz-adv-x="1312" 
d="M656 439q-103 0 -168 57t-65 178v134q0 123 65 181.5t170 58.5t169.5 -58.5t64.5 -181.5v-134q0 -121 -66.5 -178t-169.5 -57z" />
    <glyph glyph-name="ellipsis" unicode="&#x2026;" horiz-adv-x="1936" 
d="M1692 138q0 -84 -44 -120t-113 -37q-70 1 -114 37t-43 120v31q0 86 43 123q44 38 115 38t114 -38t42 -123v-31zM1123 138q0 -157 -158 -157q-69 1 -113 37t-44 120v31q0 86 44 123q44 38 114 38t114 -38q43 -38 43 -123v-31zM557 138q0 -157 -158 -157q-69 1 -113 37
t-44 120v31q0 86 44 123q44 38 114 38t114 -38q43 -38 43 -123v-31z" />
    <glyph glyph-name="perthousand" unicode="&#x2030;" horiz-adv-x="2098" 
d="M1674 633q-97 0 -97 -158v-186q1 -190 99 -190t98 190v186q0 84 -24 121t-76 37zM1212 475q0 158 -98 158t-97 -158v-186q0 -190 96 -190q45 0 72 47.5t27 142.5v186zM1333 274q0 -149 -61.5 -221t-158 -72t-156.5 72t-60 221v191q0 145 60.5 215t157.5 70t157.5 -69.5
t60.5 -215.5v-191zM1893 274q0 -149 -60.5 -221t-156.5 -72t-157 72t-61 221v191q0 145 60.5 215t157.5 70t157 -69.5t60 -215.5v-191zM423 1391q-97 0 -97 -164v-216q0 -158 96 -158t97 158v216q0 86 -27 125t-69 39zM1190 1489l-698 -1489h-144l698 1489h144zM422.5 734
q-96.5 0 -157 69.5t-60.5 214.5v201q0 145 61.5 217t158.5 72t156 -71.5t59 -217.5v-201q0 -145 -60.5 -214.5t-157 -69.5z" />
    <glyph glyph-name="minute" unicode="&#x2032;" horiz-adv-x="1033" 
d="M292 776l153 713h281l-315 -713h-119z" />
    <glyph glyph-name="second" unicode="&#x2033;" horiz-adv-x="1372" 
d="M264 776l153 713h268l-316 -713h-105zM687 776l153 713h268l-315 -713h-106z" />
    <glyph glyph-name="guilsinglleft" unicode="&#x2039;" horiz-adv-x="1033" 
d="M728 236l-423 354v123l423 354v-127l-346 -288l346 -289v-127z" />
    <glyph glyph-name="guilsinglright" unicode="&#x203a;" horiz-adv-x="1033" 
d="M305 236v127l347 289l-347 288v127l423 -354v-123z" />
    <glyph glyph-name="exclamdbl" unicode="&#x203c;" horiz-adv-x="1591" 
d="M1216 138q0 -157 -137 -157t-137 157v52q0 82 33 121t103 39q138 0 138 -160v-52zM1020 559l-43 930h200l-43 -930h-114zM652 138q0 -157 -137 -157t-137 157v52q0 82 33 121t103 39q138 0 138 -160v-52zM456 559l-43 930h200l-43 -930h-114z" />
    <glyph glyph-name="overline" unicode="&#x203e;" horiz-adv-x="1312" 
d="M168 1713v143h977v-143h-977z" />
    <glyph glyph-name="fraction" unicode="&#x2215;" horiz-adv-x="491" 
d="M-104 0l558 1489h142l-559 -1489h-141z" />
    <glyph glyph-name="fraction" unicode="&#x2044;" horiz-adv-x="491" 
d="M-104 0l558 1489h142l-559 -1489h-141z" />
    <glyph glyph-name="zero.sups" unicode="&#x2070;" horiz-adv-x="893" 
d="M449 667q99 0 126.5 87.5t27.5 221.5v98q0 132 -28.5 223.5t-126.5 91.5t-128 -91.5t-30 -223.5v-98q0 -134 30 -221.5t129 -87.5zM447 555q-145 0 -215 111.5t-70 296.5v124q0 190 71 302t215 112t215 -112t71 -302v-124q0 -184 -71 -296t-216 -112z" />
    <glyph glyph-name="four.sups" unicode="&#x2074;" horiz-adv-x="893" 
d="M773 804h-131v-238h-130v238h-354v114l315 571h169v-571h131v-114zM512 918v406l-229 -406h229z" />
    <glyph glyph-name="five.sups" unicode="&#x2075;" horiz-adv-x="893" 
d="M443 555q-147 0 -213 55t-72 217l129 11q7 -112 38 -141.5t121 -29.5t122 37t32 115v54q0 73 -31 112t-118 39h-269v465h516v-111h-385v-233h169q117 0 181.5 -62.5t64.5 -194.5v-82q0 -112 -69 -181.5t-216 -69.5z" />
    <glyph glyph-name="six.sups" unicode="&#x2076;" horiz-adv-x="893" 
d="M598 858q0 175 -118.5 175t-151 -50t-32.5 -125v-15q0 -78 31 -127t119 -49t120 50t32 126v15zM490 1143q130 0 184 -77t54 -198v-25q0 -119 -65 -203.5t-281 -84.5t-216 329v280q0 151 65 244t211 93t203 -54t76 -162l-138 -28q-11 73 -41 102.5t-114 29.5t-108 -64.5
t-24 -160.5v-108h6q58 87 188 87z" />
    <glyph glyph-name="seven.sups" unicode="&#x2077;" horiz-adv-x="893" 
d="M166 1367v122h562v-122q-155 -365 -192 -489t-59 -312h-138q37 248 78 373.5t183 427.5h-434z" />
    <glyph glyph-name="eight.sups" unicode="&#x2078;" horiz-adv-x="893" 
d="M448 670q100 0 126 42t26 111v13q0 69 -26 111t-126 42t-126 -42t-26 -111v-13q0 -69 26 -111t126 -42zM448 1112q68 0 101.5 27.5t33.5 96.5v24q0 69 -33.5 97t-101.5 28t-101.5 -28t-33.5 -97v-24q0 -69 33.5 -96.5t101.5 -27.5zM182 1240v37q0 117 62.5 170.5
t202 53.5t202 -53t62.5 -171v-37q0 -80 -29 -122t-94 -49v-34q74 -7 107 -54.5t33 -148.5v-26q0 -132 -67 -191.5t-214 -59.5t-214 59.5t-67 191.5v26q0 99 33.5 147.5t105.5 55.5v34q-123 14 -123 171z" />
    <glyph glyph-name="nine.sups" unicode="&#x2079;" horiz-adv-x="893" 
d="M407 912q-133 0 -187 76.5t-54 199.5v24q0 121 65 205t216 84t216 -89.5t65 -240.5v-279q0 -151 -64 -244t-212 -93t-204 54t-73 162l136 28q11 -73 41 -102.5t112 -29.5t109 65t27 160v108h-6q-54 -88 -187 -88zM481.5 1022q118.5 0 118.5 175v15q0 78 -32 127.5
t-119.5 49.5t-119 -50.5t-31.5 -126.5v-15q0 -74 32.5 -124.5t151 -50.5z" />
    <glyph glyph-name="nsuperior" unicode="&#x207f;" horiz-adv-x="923" 
d="M531 1508q91 0 152 -69q62 -75 62 -184v-691h-121v652q0 133 -49.5 155t-78.5 22q-61 0 -113 -37t-83 -88v-704h-119v929h119v-113h35q43 128 196 128z" />
    <glyph glyph-name="zero.sinf" unicode="&#x2080;" horiz-adv-x="893" 
d="M290 410q0 -134 30 -222t129 -87q99 -1 127 87t27 222v98q0 132 -28 224q-29 92 -127 91q-98 0 -128 -91t-30 -224v-98zM447 -11q-145 0 -215 112t-70 296v124q0 190 71 302t215 112t215 -112t71 -302v-124q0 -184 -71 -296t-216 -112z" />
    <glyph glyph-name="one.sinf" unicode="&#x2081;" horiz-adv-x="893" 
d="M236 0v114h190v621h-22q-17 -71 -66 -117t-113 -45l-7 121q63 2 127 54t83 175h127v-809h173v-114h-492z" />
    <glyph glyph-name="two.sinf" unicode="&#x2082;" horiz-adv-x="893" 
d="M166 0v184q0 232 164 278l169 46q50 13 71 44q20 31 20 88v43q0 58 -31 99q-32 41 -112 41t-109 -45t-35 -145l-128 13q6 143 64 216q59 73 208 73t210 -67t62 -175v-75q0 -106 -44 -157t-115 -70l-171 -47q-43 -7 -68 -39t-25 -119v-72h432v-114h-562z" />
    <glyph glyph-name="three.sinf" unicode="&#x2083;" horiz-adv-x="893" 
d="M728 251q0 -262 -283 -262q-153 0 -217 67t-70 199l129 11q7 -91 35 -129t121 -38t125 42t32 110v30q0 75 -33 113t-122 38h-114v114h114q74 0 106 21t32 86v49q0 69 -38 96t-107 27q-69 -1 -99 -35t-36 -112l-128 11q7 130 71 188t186 58q120 0 200 -47t79 -186v-34
q0 -74 -38 -114t-94 -48v-33q61 -6 105 -61t44 -131v-30z" />
    <glyph glyph-name="four.sinf" unicode="&#x2084;" horiz-adv-x="893" 
d="M773 238h-131v-238h-130v238h-354v114l315 571h169v-571h131v-114zM512 352v406l-229 -406h229z" />
    <glyph glyph-name="five.sinf" unicode="&#x2085;" horiz-adv-x="893" 
d="M482 579q246 0 246 -257v-82q0 -112 -69 -182t-216 -69q-147 0 -213 55t-72 217l129 11q7 -112 38 -142t121 -30t122 38q32 37 32 115v54q0 73 -31 112t-118 39h-269v465h516v-111h-385v-233h169z" />
    <glyph glyph-name="six.sinf" unicode="&#x2086;" horiz-adv-x="893" 
d="M446 101q88 0 120 50t32 126v15q0 175 -151 175q-87 0 -119 -50t-32 -125v-15q0 -78 31 -127t119 -49zM490 577q130 0 184 -77t54 -198v-25q0 -119 -65 -203t-216 -85q-281 0 -281 329v280q0 151 65 244t211 93t204 -54q56 -54 75 -162l-138 -28q-11 73 -41 103t-114 29
q-84 0 -108 -64t-24 -161v-108h6q58 87 188 87z" />
    <glyph glyph-name="seven.sinf" unicode="&#x2087;" horiz-adv-x="893" 
d="M166 801v122h562v-122q-155 -365 -192 -489t-59 -312h-138q37 248 78 374t183 427h-434z" />
    <glyph glyph-name="eight.sinf" unicode="&#x2088;" horiz-adv-x="893" 
d="M448 104q100 0 126 42t26 111v13q0 69 -26 111t-126 42t-126 -42t-26 -111v-13q0 -69 26 -111t126 -42zM448 546q68 0 102 28t33 96v24q0 69 -34 97q-33 28 -101 28t-102 -28t-33 -97v-24q0 -69 33 -97q34 -27 102 -27zM182 674v37q0 117 62 171t203 53q140 0 202 -53
t62 -171v-37q0 -80 -29 -122t-94 -49v-34q74 -7 107 -55t33 -148v-26q0 -132 -67 -192t-214 -59q-147 -1 -214 59t-67 192v26q0 99 33 147q34 48 106 56v34q-123 14 -123 171z" />
    <glyph glyph-name="nine.sinf" unicode="&#x2089;" horiz-adv-x="893" 
d="M447 935q281 0 281 -330v-279q0 -151 -64 -244t-212 -93t-204 54t-73 162l136 28q11 -73 41 -103t112 -30t109 66q26 65 27 160v108h-6q-53 -86 -186 -87q-134 -1 -188 75t-54 200v24q0 121 65 205t216 84zM449 456q87 0 119 50t32 125v15q0 78 -32 128t-120 49
q-88 0 -118 -50q-32 -50 -32 -127v-15q0 -74 32 -125q33 -50 119 -50z" />
    <glyph glyph-name="franc" unicode="&#x20a3;" 
d="M601 402h-275v-402h-145v402h-140v151h140v936h731v-130h-586v-447h488v-130h-488v-229h275v-151z" />
    <glyph glyph-name="lira" unicode="&#x20a4;" horiz-adv-x="1202" 
d="M495 556l2 -18q0 -192 -128 -320l16 -19q68 59 167 11q38 -18 69 -36t66 -36t71 -17q76 0 107.5 55.5t43.5 208.5l141 -18q-12 -194 -86 -287q-73 -99 -208 -99q-52 -1 -102 23q-67 32 -133 72q-67 40 -115 46q-48 7 -86 -27l-128 -112l-78 110l113 84q50 39 87 140
q36 102 36 206v3l-2 34h-223v138h201q-4 11 -7.5 21.5t-6.5 16.5t-6.5 16.5t-10.5 24.5t-17 36.5t-15.5 35.5t-13 30t-13.5 35h-111v138h85q-3 14 -3 32v52q0 172 100 270q98 102 298 102q201 0 292 -97q91 -89 99 -277l-145 -19q-8 139 -65 191q-57 53 -196 53
q-178 0 -208 -88.5t-30 -124.5t4 -55q0 -26 3 -39h380v-138h-339q2 -7 6 -15.5t6 -15.5t18 -42t47 -143h262v-138h-244v-4z" />
    <glyph glyph-name="peseta" unicode="&#x20a7;" horiz-adv-x="1731" 
d="M302 674h117q145 0 145 244v182q0 135 -37 190q-37 56 -108 56h-117v-672zM1279 860q0 -97 48.5 -155.5t105.5 -124.5q135 -157 135 -303q0 -147 -71 -227q-67 -69 -171 -69t-177 67l9 -44q-36 -25 -73 -23t-61 2t-103 46t-79 327v627l-144 -9v-49q0 -393 -279 -393h-117
v-532h-134v1489h253q277 0 277 -372h144v372h134v-372h169v-132h-169v-631q0 -226 78 -226q51 0 76 15l6 -28l44 80q34 -44 77 -67q40 -14 84 -14q93 0 93 143q0 77 -52 145t-88 112q-148 180 -147 324q0 144 59 225q58 73 144 73q56 0 98 -22t94 -79l-62 -113
q-71 82 -130 82q-71 0 -71 -144z" />
    <glyph glyph-name="Euro" unicode="&#x20ac;" horiz-adv-x="1202" 
d="M642 -19q-208 0 -307 139t-99 366v17h-139v137h139v205h-139v138h139v13q0 229 100 370.5t308 141.5t303.5 -96t102.5 -265l-143 -19q-7 125 -67 184.5t-195 59.5t-200 -86.5t-65 -280.5v-22h320v-138h-320v-205h320v-137h-320v-26q0 -188 65 -274t200 -86t194.5 58
t67.5 179l143 -19q-7 -164 -103.5 -259t-304.5 -95z" />
    <glyph glyph-name="careof" unicode="&#x2105;" horiz-adv-x="1651" 
d="M1097 277q0 -171 118 -171t118 171v164q0 175 -118 175t-118 -175v-164zM966 292v136q0 234 97 275.5t182 41.5t151 -77t66 -240v-136q0 -154 -64.5 -234t-182.5 -80t-180 76q-69 79 -69 238zM322 1037q0 -171 117 -171q54 0 80 28t38 87l128 -37q-23 -210 -246 -210
q-178 0 -212.5 118t-34.5 196v142q0 161 69 240q64 78 233.5 78t190.5 -218l-128 -33q-22 119 -104 119q-69 0 -100 -43t-31 -132v-164zM406 0l698 1489h143l-698 -1489h-143z" />
    <glyph glyph-name="lsquare" unicode="&#x2113;" horiz-adv-x="1143" 
d="M348 1208q18 145 99.5 222.5t212.5 77.5t198 -95q66 -95 47 -253l-54 -402q-17 -143 -97 -218q-79 -75 -190 -75t-162 81l-20 -175q-12 -115 30 -175t140 -60t209 54l6 -147q-30 -11 -132 -50.5t-234 17t-155 159.5t-10 185zM445 659q35 -45 99 -45t106 30q38 33 50 95
l63 453q12 82 -15 132q-23 54 -98 54q-131 0 -157 -132l-65 -455q-14 -86 17 -132z" />
    <glyph glyph-name="numero" unicode="&#x2116;" horiz-adv-x="1791" 
d="M322 0h-128v1489h197l376 -1325v1325h130v-1489h-206l-369 1305v-1305zM1165 936q0 -255 152 -255t152 255v187q0 140 -37 204t-152 64t-115 -268v-187zM1317 568q-126 0 -203 90t-77 275v201q0 188 78 280t204 92t203 -92t77 -280v-201q0 -184 -78 -274.5t-204 -90.5z
" />
    <glyph glyph-name="uni2117" unicode="&#x2117;" horiz-adv-x="1761" 
d="M776 659h160q65 0 94 33.5t29 102.5v71q0 84 -28.5 122t-94.5 38h-160v-367zM646 238v916h290q123 0 188.5 -74.5t65.5 -213.5v-71q0 -127 -65.5 -194t-188.5 -67h-160v-296h-130zM881 -93q231 0 336 146t105 463v339q0 320 -105 468t-336 148t-335.5 -148t-104.5 -468
v-339q0 -317 104.5 -463t335.5 -146zM1439 467q0 -672 -557.5 -672t-557.5 672v436q0 343 138.5 511.5t420 168.5t419 -168.5t137.5 -511.5v-436z" />
    <glyph glyph-name="trademark" unicode="&#x2122;" horiz-adv-x="2040" 
d="M1095 665h-101v824h164l175 -526l173 526h158v-824h-100l-4 698l-179 -536h-100l-186 545v-707zM519 665v711h-240v113h577v-113h-225v-711h-112z" />
    <glyph glyph-name="Ohm" unicode="&#x2126;" horiz-adv-x="1312" 
d="M1147 721q0 -298 -276 -404v-168h276v-149h-421v428q158 41 218 108t60 185v290q0 197 -81 282t-267 85t-266 -85q-81 -85 -81 -282v-290q0 -117 60 -185t217 -108v-428h-420v149h275v168q-275 105 -275 404v290q0 245 124 371t368 126t366 -126q123 -126 123 -371v-290z
" />
    <glyph glyph-name="estimated" unicode="&#x212e;" horiz-adv-x="1452" 
d="M436 801h571v428q-131 136 -294 136t-277 -131v-433zM166 750q0 316 149 541.5t411 225.5t407.5 -256.5t149.5 -608.5h-847v-391q54 -60 128.5 -95.5t154.5 -35.5q290 0 424 268l67 -111q-153 -309 -491 -309q-249 0 -401 228t-152 544z" />
    <glyph glyph-name="oneeighth" unicode="&#x215b;" horiz-adv-x="2167" 
d="M1714 104q100 0 126 42t26 111v13q0 69 -26 111t-126 42t-126 -42t-26 -111v-13q0 -69 26 -111t126 -42zM1714 546q68 0 102 28t33 96v24q0 69 -34 97q-33 28 -101 28t-102 -28t-33 -97v-24q0 -69 33 -97q34 -27 102 -27zM1448 674v37q0 117 62 171t203 53q140 0 202 -53
t62 -171v-37q0 -80 -29 -122t-94 -49v-34q74 -7 107 -55t33 -148v-26q0 -132 -67 -192t-214 -59q-147 -1 -214 59t-67 192v26q0 99 33 147q34 48 106 56v34q-123 14 -123 171zM244 566v114h190v621h-23q-17 -71 -66 -117t-112 -45l-8 121q63 2 128 54q64 52 83 175h126v-809
h173v-114h-491zM734 0l558 1489h142l-559 -1489h-141z" />
    <glyph glyph-name="threeeighths" unicode="&#x215c;" horiz-adv-x="2167" 
d="M1714 104q100 0 126 42t26 111v13q0 69 -26 111t-126 42t-126 -42t-26 -111v-13q0 -69 26 -111t126 -42zM1714 546q68 0 102 28t33 96v24q0 69 -34 97q-33 28 -101 28t-102 -28t-33 -97v-24q0 -69 33 -97q34 -27 102 -27zM1448 674v37q0 117 62 171t203 53q140 0 202 -53
t62 -171v-37q0 -80 -29 -122t-94 -49v-34q74 -7 107 -55t33 -148v-26q0 -132 -67 -192t-214 -59q-147 -1 -214 59t-67 192v26q0 99 33 147q34 48 106 56v34q-123 14 -123 171zM734 0l558 1489h142l-559 -1489h-141zM735 817q0 -262 -283 -262q-152 0 -216 67t-70 199l128 11
q8 -91 36 -129t120 -38t125 42q32 42 32 110v30q0 75 -33 113t-122 38h-113v114h113q74 0 107 21q32 21 31 86v49q0 69 -38 96t-107 27q-69 -1 -99 -35t-35 -112l-129 11q8 130 72 188t184 58t201 -47q80 -47 80 -186v-34q-1 -74 -39 -114t-94 -48v-33q60 -6 105 -61
t44 -131v-30z" />
    <glyph glyph-name="fiveeighths" unicode="&#x215d;" horiz-adv-x="2167" 
d="M1714 104q100 0 126 42t26 111v13q0 69 -26 111t-126 42t-126 -42t-26 -111v-13q0 -69 26 -111t126 -42zM1714 546q68 0 102 28t33 96v24q0 69 -34 97q-33 28 -101 28t-102 -28t-33 -97v-24q0 -69 33 -97q34 -27 102 -27zM1448 674v37q0 117 62 171t203 53q140 0 202 -53
t62 -171v-37q0 -80 -29 -122t-94 -49v-34q74 -7 107 -55t33 -148v-26q0 -132 -67 -192t-214 -59q-147 -1 -214 59t-67 192v26q0 99 33 147q34 48 106 56v34q-123 14 -123 171zM490 1145q245 0 245 -257v-82q0 -112 -69 -182t-216 -69q-147 0 -213 55t-71 217l128 11
q7 -112 38 -142q30 -30 120 -30t122 38q32 37 33 115v54q0 73 -31 112t-118 39h-268v465h516v-111h-386v-233h170zM734 0l558 1489h142l-559 -1489h-141z" />
    <glyph glyph-name="seveneighths" unicode="&#x215e;" horiz-adv-x="2167" 
d="M1714 106q100 0 126 42t26 111v13q0 69 -26 111q-26 41 -126 41t-126 -42t-26 -110v-13q0 -69 26 -111t126 -42zM1579 672q-1 -69 33 -97t102 -28t102 28t33 97v24q0 69 -34 97q-33 28 -101 28t-102 -28t-33 -97v-24zM1448 676v37q0 117 62 170t203 53q140 0 202 -53
t62 -170v-37q0 -80 -29 -122t-94 -49v-34q74 -7 107 -55t33 -148v-26q0 -132 -67 -192t-214 -59q-147 -1 -214 59t-67 192v26q0 99 33 147q34 48 106 56v34q-123 14 -123 171zM173 1367v122h562v-122q-155 -365 -191 -489t-60 -312h-138q37 248 78 374t183 427h-434zM734 0
l558 1489h142l-559 -1489h-141z" />
    <glyph glyph-name="arrowleft" unicode="&#x2190;" horiz-adv-x="1621" 
d="M745 1318v-512h627v-123h-627v-512h-28l-466 555v37l466 555h28z" />
    <glyph glyph-name="arrowup" unicode="&#x2191;" horiz-adv-x="1312" 
d="M585 32v837h-384v38l441 551h28l442 -551v-38h-384v-837h-143z" />
    <glyph glyph-name="arrowright" unicode="&#x2192;" horiz-adv-x="1621" 
d="M879 171v512h-628v123h628v512h28l465 -555v-37l-465 -555h-28z" />
    <glyph glyph-name="arrowdown" unicode="&#x2193;" horiz-adv-x="1312" 
d="M201 620h384v838h143v-838h384v-37l-442 -551h-28l-441 551v37z" />
    <glyph glyph-name="arrowboth" unicode="&#x2194;" horiz-adv-x="1900" 
d="M741 683v-512h-28l-462 555v37l462 555h28v-512h419v512h28l463 -555v-37l-463 -555h-28v512h-419z" />
    <glyph glyph-name="arrowupdn" unicode="&#x2195;" horiz-adv-x="1372" 
d="M231 465h383v559h-383v37l443 583h28l441 -583v-37h-383v-559h383v-37l-441 -583h-28l-443 583v37z" />
    <glyph glyph-name="arrowupdnbse" unicode="&#x21a8;" horiz-adv-x="1372" 
d="M197 -337v149h978v-149h-978zM231 465h383v559h-383v37l443 583h28l441 -583v-37h-383v-559h383v-37l-441 -583h-28l-443 583v37z" />
    <glyph glyph-name="partialdiff" unicode="&#x2202;" 
d="M468 114q164 0 201.5 104t47.5 177l18 115q18 137 -20 197q-40 68 -152 68t-168 -62t-77 -203l-18 -115q-21 -142 18 -212q39 -69 150 -69zM169 538q30 171 128 271q99 101 238 101t178 -54t47 -81h29q26 257 -54 389q-78 139 -296 216l79 115q270 -98 357 -277
q88 -179 34 -529l-43 -283q-33 -215 -142 -324q-105 -101 -271.5 -101t-247.5 103q-88 106 -54 311z" />
    <glyph glyph-name="Delta#1" unicode="&#x2206;" horiz-adv-x="1172" 
d="M953 130l-368 1197l-373 -1197h741zM82 0v130l423 1359h154l432 -1359v-130h-1009z" />
    <glyph glyph-name="product" unicode="&#x220f;" horiz-adv-x="1202" 
d="M181 -372v1861h843v-1861h-145v1731h-553v-1731h-145z" />
    <glyph glyph-name="summation" unicode="&#x2211;" 
d="M912 -242v-130h-772v130l508 825l-508 776v130h772v-130h-622l468 -709v-123l-482 -769h636z" />
    <glyph glyph-name="minus" unicode="&#x2212;" horiz-adv-x="1312" 
d="M168 577v149h977v-149h-977z" />
    <glyph glyph-name="radical" unicode="&#x221a;" 
d="M512 0l-240 793l-160 -39v121l238 56l240 -857l263 1602h139l-301 -1676h-179z" />
    <glyph glyph-name="infinity" unicode="&#x221e;" horiz-adv-x="1452" 
d="M465 1119q-156 0 -156 -374q0 -284 58.5 -329t106 -45t93.5 87t98 251q-67 229 -88.5 285t-51.5 90q-23 35 -60 35zM1143 745q0 282 -58.5 328t-91.5 46q-59 0 -108 -92t-97 -251q65 -225 87 -281t51 -90t63 -34q154 0 154 374zM444 242q-109 0 -193.5 131.5t-84.5 371.5
t85 371t207 131q144 0 202.5 -135t82.5 -207q59 161 102 224q42 63 80.5 90.5t88.5 27.5q108 0 190.5 -133.5t82.5 -369.5q0 -237 -87 -369q-87 -133 -211 -133q-100 0 -172 102q-51 70 -108 237q-52 -149 -108 -238q-69 -101 -157 -101z" />
    <glyph glyph-name="orthogonal" unicode="&#x221f;" horiz-adv-x="1282" 
d="M249 0v1303h146v-1178h696v-125h-842z" />
    <glyph glyph-name="intersection" unicode="&#x2229;" horiz-adv-x="1342" 
d="M251 0v840q0 247 118 365q109 117 302.5 117t306.5 -118t113 -364v-840h-143v851q0 183 -68 262t-210 79t-206 -79q-69 -77 -69 -262v-851h-144z" />
    <glyph glyph-name="integral" unicode="&#x222b;" 
d="M758 1348q-58 0 -84 -16t-48 -63t-21 -206v-1074q0 -169 -74.5 -271t-182.5 -102q-75 0 -132.5 17t-75.5 28l28 136q71 -39 132 -39t89 15t49.5 63t21.5 205v1076q0 172 73.5 272t183.5 100q129 0 205 -44l-28 -134q-78 37 -136 37z" />
    <glyph glyph-name="approxequal" unicode="&#x2248;" horiz-adv-x="1312" 
d="M427 430q-133 0 -133 -257v-184h-128v195q0 179 72 277t194 98q90 0 147 -49q56 -45 116 -174t90 -166q31 -36 52 -45.5t49 -9.5q132 0 132 261v183h129v-196q0 -184 -73 -277q-71 -97 -190 -97q-86 0 -147 46q-53 46 -119 181t-92 165q-27 30 -47.5 39.5t-51.5 9.5z
M886 860q132 0 132 261v182h129v-195q1 -183 -71 -278q-71 -96 -193 -96q-88 0 -132 36t-71.5 77t-60.5 110q-69 144 -103.5 181t-87.5 37q-134 0 -134 -257v-184h-128v195q0 180 72 277t194 97q92 0 147 -46q56 -46 117 -178t90 -166q30 -34 51 -43.5t49 -9.5z" />
    <glyph glyph-name="notequal" unicode="&#x2260;" horiz-adv-x="1312" 
d="M1145 369h-490l-69 -369h-139l67 369h-346v156h378l80 439h-458v157h489l69 368h140l-67 -368h346v-157h-378l-80 -439h458v-156z" />
    <glyph glyph-name="equivalence" unicode="&#x2261;" horiz-adv-x="1312" 
d="M168 248v150h977v-150h-977zM168 581v153h977v-153h-977zM168 918v149h977v-149h-977z" />
    <glyph glyph-name="lessequal" unicode="&#x2264;" horiz-adv-x="1312" 
d="M238 0v140h838v-140h-838zM1076 372l-838 494v130l838 493v-139l-707 -419l707 -419v-140z" />
    <glyph glyph-name="greaterequal" unicode="&#x2265;" horiz-adv-x="1312" 
d="M1076 0h-838v140h838v-140zM238 372v140l708 419l-708 419v139l838 -493v-130z" />
    <glyph glyph-name="logicalnotreversed" unicode="&#x2310;" horiz-adv-x="1312" 
d="M168 0v726h977v-151h-836v-575h-141z" />
    <glyph glyph-name="integralbt" unicode="&#x2321;" horiz-adv-x="1033" 
d="M288 -242q62 0 89 18.5t49 69.5t21 240v1403h145v-1455q0 -197 -76 -308q-71 -110 -181 -110q-75 0 -132.5 17t-75.5 28l28 136q71 -39 133 -39z" />
    <glyph glyph-name="uni23af" unicode="&#x23af;" horiz-adv-x="1396" 
d="M-251 683v123h1899v-123h-1899z" />
    <glyph glyph-name="lighthorzbxd" unicode="&#x2500;" horiz-adv-x="2048" 
d="M-37 637h2122v-157h-2122v157z" />
    <glyph glyph-name="heavyhorzbxd" unicode="&#x2501;" horiz-adv-x="2048" 
d="M-37 715h2122v-313h-2122v313z" />
    <glyph glyph-name="lightvertbxd" unicode="&#x2502;" horiz-adv-x="2048" 
d="M946 1955h156v-2793h-156v2793z" />
    <glyph glyph-name="heavyvertbxd" unicode="&#x2503;" horiz-adv-x="2048" 
d="M868 1955h312v-2793h-312v2793z" />
    <glyph glyph-name="lighttrpldashhorzbxd" unicode="&#x2504;" horiz-adv-x="2048" 
d="M1476 637h455v-157h-455v157zM795 637h454v-157h-454v157zM114 637h454v-157h-454v157z" />
    <glyph glyph-name="heavytrpldashhorzbxd" unicode="&#x2505;" horiz-adv-x="2048" 
d="M1476 715h455v-313h-455v313zM795 715h454v-313h-454v313zM114 715h454v-313h-454v313z" />
    <glyph glyph-name="lighttrpldashvertbxd" unicode="&#x2506;" horiz-adv-x="2048" 
d="M946 2147h156v-455h-156v455zM946 1465h156v-454h-156v454zM946 784h156v-454h-156v454zM946 102h156v-454h-156v454z" />
    <glyph glyph-name="heavytrpldashvertbxd" unicode="&#x2507;" horiz-adv-x="2048" 
d="M868 2147h312v-455h-312v455zM868 1465h312v-454h-312v454zM868 784h312v-454h-312v454zM868 102h312v-454h-312v454z" />
    <glyph glyph-name="lightquaddashhorzbxd" unicode="&#x2508;" horiz-adv-x="2048" 
d="M1599 637h386v-157h-386v157zM1087 637h386v-157h-386v157zM575 637h386v-157h-386v157zM63 637h386v-157h-386v157z" />
    <glyph glyph-name="heavyquaddashhorzbxd" unicode="&#x2509;" horiz-adv-x="2048" 
d="M1599 715h386v-313h-386v313zM1087 715h386v-313h-386v313zM575 715h386v-313h-386v313zM63 715h386v-313h-386v313z" />
    <glyph glyph-name="lightquaddashvertbxd" unicode="&#x250a;" horiz-adv-x="2048" 
d="M946 1519h156v-385h-156v385zM946 1007h156v-385h-156v385zM946 495h156v-385h-156v385zM946 -17h156v-385h-156v385z" />
    <glyph glyph-name="heavyquaddashvertbxd" unicode="&#x250b;" horiz-adv-x="2048" 
d="M868 1519h312v-385h-312v385zM868 1007h312v-385h-312v385zM868 495h312v-385h-312v385zM868 -17h312v-385h-312v385z" />
    <glyph glyph-name="lightdnrightbxd" unicode="&#x250c;" horiz-adv-x="2048" 
d="M946 637h1139v-157h-983v-1318h-156v1475z" />
    <glyph glyph-name="dnlightrightheavybxd" unicode="&#x250d;" horiz-adv-x="2048" 
d="M946 715h1139v-313h-983v-1240h-156v1553z" />
    <glyph glyph-name="dnheavyrightlightbxd" unicode="&#x250e;" horiz-adv-x="2048" 
d="M868 637h1217v-157h-905v-1318h-312v1475z" />
    <glyph glyph-name="heavydnrightbxd" unicode="&#x250f;" horiz-adv-x="2048" 
d="M868 715h1217v-313h-905v-1240h-312v1553z" />
    <glyph glyph-name="lightdnleftbxd" unicode="&#x2510;" horiz-adv-x="2048" 
d="M-37 637h1139v-1475h-156v1318h-983v157z" />
    <glyph glyph-name="dnlightleftheavybxd" unicode="&#x2511;" horiz-adv-x="2048" 
d="M-37 715h1139v-1553h-156v1240h-983v313z" />
    <glyph glyph-name="dnheavyleftlightbxd" unicode="&#x2512;" horiz-adv-x="2048" 
d="M-37 637h1217v-1475h-312v1318h-905v157z" />
    <glyph glyph-name="heavydnleftbxd" unicode="&#x2513;" horiz-adv-x="2048" 
d="M-37 715h1217v-1553h-312v1240h-905v313z" />
    <glyph glyph-name="lightuprightbxd" unicode="&#x2514;" horiz-adv-x="2048" 
d="M946 1955h156v-1318h983v-157h-1139v1475z" />
    <glyph glyph-name="uplightrightheavybxd" unicode="&#x2515;" horiz-adv-x="2048" 
d="M946 1955h156v-1240h983v-313h-1139v1553z" />
    <glyph glyph-name="upheavyrightlightbxd" unicode="&#x2516;" horiz-adv-x="2048" 
d="M868 1955h312v-1318h905v-157h-1217v1475z" />
    <glyph glyph-name="heavyuprightbxd" unicode="&#x2517;" horiz-adv-x="2048" 
d="M868 1955h312v-1240h905v-313h-1217v1553z" />
    <glyph glyph-name="lightupleftbxd" unicode="&#x2518;" horiz-adv-x="2048" 
d="M-37 637h983v1318h156v-1475h-1139v157z" />
    <glyph glyph-name="uplightleftheavybxd" unicode="&#x2519;" horiz-adv-x="2048" 
d="M-37 715h983v1240h156v-1553h-1139v313z" />
    <glyph glyph-name="upheavyleftlightbxd" unicode="&#x251a;" horiz-adv-x="2048" 
d="M-37 637h905v1318h312v-1475h-1217v157z" />
    <glyph glyph-name="heavyupleftbxd" unicode="&#x251b;" horiz-adv-x="2048" 
d="M-37 715h905v1240h312v-1553h-1217v313z" />
    <glyph glyph-name="lightvertrightbxd" unicode="&#x251c;" horiz-adv-x="2048" 
d="M946 1955h156v-1318h983v-157h-983v-1318h-156v2793z" />
    <glyph glyph-name="vertlightrightheavybxd" unicode="&#x251d;" horiz-adv-x="2048" 
d="M946 1955h156v-1240h983v-313h-983v-1240h-156v2793z" />
    <glyph glyph-name="upheavyrightdnlightbxd" unicode="&#x251e;" horiz-adv-x="2048" 
d="M868 1955h312v-1318h905v-157h-983v-1318h-156v1318h-78v1475z" />
    <glyph glyph-name="dnheavyrightuplightbxd" unicode="&#x251f;" horiz-adv-x="2048" 
d="M868 637h78v1318h156v-1318h983v-157h-905v-1318h-312v1475z" />
    <glyph glyph-name="vertheavyrightlightbxd" unicode="&#x2520;" horiz-adv-x="2048" 
d="M868 1955h312v-1318h905v-157h-905v-1318h-312v2793z" />
    <glyph glyph-name="dnlightrightupheavybxd" unicode="&#x2521;" horiz-adv-x="2048" 
d="M868 1955h312v-1240h905v-313h-983v-1240h-156v1240h-78v1553z" />
    <glyph glyph-name="uplightrightdnheavybxd" unicode="&#x2522;" horiz-adv-x="2048" 
d="M868 715h78v1240h156v-1240h983v-313h-905v-1240h-312v1553z" />
    <glyph glyph-name="heavyvertrightbxd" unicode="&#x2523;" horiz-adv-x="2048" 
d="M868 1955h312v-1240h905v-313h-905v-1240h-312v2793z" />
    <glyph glyph-name="lightvertleftbxd" unicode="&#x2524;" horiz-adv-x="2048" 
d="M-37 637h983v1318h156v-2793h-156v1318h-983v157z" />
    <glyph glyph-name="vertlightleftheavybxd" unicode="&#x2525;" horiz-adv-x="2048" 
d="M-37 715h983v1240h156v-2793h-156v1240h-983v313z" />
    <glyph glyph-name="upheavyleftdnlightbxd" unicode="&#x2526;" horiz-adv-x="2048" 
d="M-37 637h905v1318h312v-1475h-78v-1318h-156v1318h-983v157z" />
    <glyph glyph-name="dnheavyleftuplightbxd" unicode="&#x2527;" horiz-adv-x="2048" 
d="M-37 637h983v1318h156v-1318h78v-1475h-312v1318h-905v157z" />
    <glyph glyph-name="vertheavyleftlightbxd" unicode="&#x2528;" horiz-adv-x="2048" 
d="M-37 637h905v1318h312v-2793h-312v1318h-905v157z" />
    <glyph glyph-name="dnlightleftupheavybxd" unicode="&#x2529;" horiz-adv-x="2048" 
d="M-37 715h905v1240h312v-1553h-78v-1240h-156v1240h-983v313z" />
    <glyph glyph-name="uplightleftdnheavybxd" unicode="&#x252a;" horiz-adv-x="2048" 
d="M-37 715h983v1240h156v-1240h78v-1553h-312v1240h-905v313z" />
    <glyph glyph-name="heavyvertleftbxd" unicode="&#x252b;" horiz-adv-x="2048" 
d="M-37 715h905v1240h312v-2793h-312v1240h-905v313z" />
    <glyph glyph-name="lightdnhorzbxd" unicode="&#x252c;" horiz-adv-x="2048" 
d="M-37 637h2122v-157h-983v-1318h-156v1318h-983v157z" />
    <glyph glyph-name="leftheavyrightdnlightbxd" unicode="&#x252d;" horiz-adv-x="2048" 
d="M-37 715h1139v-78h983v-157h-983v-1318h-156v1240h-983v313z" />
    <glyph glyph-name="rightheavyleftdnlightbxd" unicode="&#x252e;" horiz-adv-x="2048" 
d="M-37 637h983v78h1139v-313h-983v-1240h-156v1318h-983v157z" />
    <glyph glyph-name="dnlighthorzheavybxd" unicode="&#x252f;" horiz-adv-x="2048" 
d="M-37 715h2122v-313h-983v-1240h-156v1240h-983v313z" />
    <glyph glyph-name="dnheavyhorzlightbxd" unicode="&#x2530;" horiz-adv-x="2048" 
d="M-37 637h2122v-157h-905v-1318h-312v1318h-905v157z" />
    <glyph glyph-name="rightlightleftdnheavybxd" unicode="&#x2531;" horiz-adv-x="2048" 
d="M-37 715h1217v-78h905v-157h-905v-1318h-312v1240h-905v313z" />
    <glyph glyph-name="leftlightrightdnheavybxd" unicode="&#x2532;" horiz-adv-x="2048" 
d="M-37 637h905v78h1217v-313h-905v-1240h-312v1318h-905v157z" />
    <glyph glyph-name="heavydnhorzbxd" unicode="&#x2533;" horiz-adv-x="2048" 
d="M-37 715h2122v-313h-905v-1240h-312v1240h-905v313z" />
    <glyph glyph-name="lightuphorzbxd" unicode="&#x2534;" horiz-adv-x="2048" 
d="M-37 637h983v1318h156v-1318h983v-157h-2122v157z" />
    <glyph glyph-name="leftheavyrightuplightbxd" unicode="&#x2535;" horiz-adv-x="2048" 
d="M-37 715h983v1240h156v-1318h983v-157h-983v-78h-1139v313z" />
    <glyph glyph-name="rightheavyleftuplightbxd" unicode="&#x2536;" horiz-adv-x="2048" 
d="M-37 637h983v1318h156v-1240h983v-313h-1139v78h-983v157z" />
    <glyph glyph-name="uplighthorzheavybxd" unicode="&#x2537;" horiz-adv-x="2048" 
d="M-37 715h983v1240h156v-1240h983v-313h-2122v313z" />
    <glyph glyph-name="upheavyhorzlightbxd" unicode="&#x2538;" horiz-adv-x="2048" 
d="M-37 637h905v1318h312v-1318h905v-157h-2122v157z" />
    <glyph glyph-name="rightlightleftupheavybxd" unicode="&#x2539;" horiz-adv-x="2048" 
d="M-37 715h905v1240h312v-1318h905v-157h-905v-78h-1217v313z" />
    <glyph glyph-name="leftlightrightupheavybxd" unicode="&#x253a;" horiz-adv-x="2048" 
d="M-37 637h905v1318h312v-1240h905v-313h-1217v78h-905v157z" />
    <glyph glyph-name="heavyuphorzbxd" unicode="&#x253b;" horiz-adv-x="2048" 
d="M-37 715h905v1240h312v-1240h905v-313h-2122v313z" />
    <glyph glyph-name="lightverthorzbxd" unicode="&#x253c;" horiz-adv-x="2048" 
d="M-37 637h983v1318h156v-1318h983v-157h-983v-1318h-156v1318h-983v157z" />
    <glyph glyph-name="leftheavyrightvertlightbxd" unicode="&#x253d;" horiz-adv-x="2048" 
d="M-37 715h983v1240h156v-1318h983v-157h-983v-1318h-156v1240h-983v313z" />
    <glyph glyph-name="rightheavyleftvertlightbxd" unicode="&#x253e;" horiz-adv-x="2048" 
d="M-37 637h983v1318h156v-1240h983v-313h-983v-1240h-156v1318h-983v157z" />
    <glyph glyph-name="vertlighthorzheavybxd" unicode="&#x253f;" horiz-adv-x="2048" 
d="M-37 715h983v1240h156v-1240h983v-313h-983v-1240h-156v1240h-983v313z" />
    <glyph glyph-name="upheavydnhorzlightbxd" unicode="&#x2540;" horiz-adv-x="2048" 
d="M-37 637h905v1318h312v-1318h905v-157h-983v-1318h-156v1318h-983v157z" />
    <glyph glyph-name="dnheavyuphorzlightbxd" unicode="&#x2541;" horiz-adv-x="2048" 
d="M-37 637h983v1318h156v-1318h983v-157h-905v-1318h-312v1318h-905v157z" />
    <glyph glyph-name="vertheavyhorzlightbxd" unicode="&#x2542;" horiz-adv-x="2048" 
d="M-37 637h905v1318h312v-1318h905v-157h-905v-1318h-312v1318h-905v157z" />
    <glyph glyph-name="leftupheavyrightdnlightbxd" unicode="&#x2543;" horiz-adv-x="2048" 
d="M-37 715h905v1240h312v-1318h905v-157h-905v-78h-78v-1240h-156v1240h-983v313z" />
    <glyph glyph-name="rightupheavyleftdnlightbxd" unicode="&#x2544;" horiz-adv-x="2048" 
d="M-37 637h905v1318h312v-1240h905v-313h-983v-1240h-156v1240h-78v78h-905v157z" />
    <glyph glyph-name="leftdnheavyrightuplightbxd" unicode="&#x2545;" horiz-adv-x="2048" 
d="M-37 715h983v1240h156v-1240h78v-78h905v-157h-905v-1318h-312v1240h-905v313z" />
    <glyph glyph-name="rightdnheavyleftuplightbxd" unicode="&#x2546;" horiz-adv-x="2048" 
d="M-37 637h905v78h78v1240h156v-1240h983v-313h-905v-1240h-312v1318h-905v157z" />
    <glyph glyph-name="dnlightuphorzheavybxd" unicode="&#x2547;" horiz-adv-x="2048" 
d="M-37 715h905v1240h312v-1240h905v-313h-983v-1240h-156v1240h-983v313z" />
    <glyph glyph-name="uplightdnhorzheavybxd" unicode="&#x2548;" horiz-adv-x="2048" 
d="M-37 715h983v1240h156v-1240h983v-313h-905v-1240h-312v1240h-905v313z" />
    <glyph glyph-name="rightlightleftvertheavybxd" unicode="&#x2549;" horiz-adv-x="2048" 
d="M-37 715h905v1240h312v-1318h905v-157h-905v-1318h-312v1240h-905v313z" />
    <glyph glyph-name="leftlightrightvertheavybxd" unicode="&#x254a;" horiz-adv-x="2048" 
d="M-37 637h905v1318h312v-1240h905v-313h-905v-1240h-312v1318h-905v157z" />
    <glyph glyph-name="heavyverthorzbxd" unicode="&#x254b;" horiz-adv-x="2048" 
d="M-37 715h905v1240h312v-1240h905v-313h-905v-1240h-312v1240h-905v313z" />
    <glyph glyph-name="lightdbldashhorzbxd" unicode="&#x254c;" horiz-adv-x="2048" 
d="M1279 637h512v-157h-512v157zM255 637h512v-157h-512v157z" />
    <glyph glyph-name="heavydbldashhorzbxd" unicode="&#x254d;" horiz-adv-x="2048" 
d="M1279 715h512v-313h-512v313zM255 715h512v-313h-512v313z" />
    <glyph glyph-name="lightdbldashvertbxd" unicode="&#x254e;" horiz-adv-x="2048" 
d="M946 1326h156v-512h-156v512zM946 302h156v-512h-156v512z" />
    <glyph glyph-name="heavydbldashvertbxd" unicode="&#x254f;" horiz-adv-x="2048" 
d="M868 1326h312v-512h-312v512zM868 302h312v-512h-312v512z" />
    <glyph glyph-name="dblhorzbxd" unicode="&#x2550;" horiz-adv-x="2048" 
d="M-37 480h2122v-156h-2122v156zM-37 793h2122v-156h-2122v156z" />
    <glyph glyph-name="dblvertbxd" unicode="&#x2551;" horiz-adv-x="2048" 
d="M1102 1955h157v-2793h-157v2793zM789 1955h157v-2793h-157v2793z" />
    <glyph glyph-name="dnsngrightdblbxd" unicode="&#x2552;" horiz-adv-x="2048" 
d="M946 793h1139v-156h-983v-157h983v-156h-983v-1162h-156v1631z" />
    <glyph glyph-name="dndblrightsngbxd" unicode="&#x2553;" horiz-adv-x="2048" 
d="M789 637h1296v-157h-826v-1318h-157v1318h-156v-1318h-157v1475z" />
    <glyph glyph-name="dbldnrightbxd" unicode="&#x2554;" horiz-adv-x="2048" 
d="M1102 480h983v-156h-826v-1162h-157v1318zM789 793h1296v-156h-1139v-1475h-157v1631z" />
    <glyph glyph-name="dnsngleftdblbxd" unicode="&#x2555;" horiz-adv-x="2048" 
d="M-37 793h1139v-1631h-156v1162h-983v156h983v157h-983v156z" />
    <glyph glyph-name="dndblleftsngbxd" unicode="&#x2556;" horiz-adv-x="2048" 
d="M-37 637h1296v-1475h-157v1318h-156v-1318h-157v1318h-826v157z" />
    <glyph glyph-name="dbldnleftbxd" unicode="&#x2557;" horiz-adv-x="2048" 
d="M-37 480h983v-1318h-157v1162h-826v156zM-37 793h1296v-1631h-157v1475h-1139v156z" />
    <glyph glyph-name="upsngrightdblbxd" unicode="&#x2558;" horiz-adv-x="2048" 
d="M946 1955h156v-1162h983v-156h-983v-157h983v-156h-1139v1631z" />
    <glyph glyph-name="updblrightsngbxd" unicode="&#x2559;" horiz-adv-x="2048" 
d="M789 1955h157v-1318h156v1318h157v-1318h826v-157h-1296v1475z" />
    <glyph glyph-name="dbluprightbxd" unicode="&#x255a;" horiz-adv-x="2048" 
d="M1102 1955h157v-1162h826v-156h-983v1318zM789 1955h157v-1475h1139v-156h-1296v1631z" />
    <glyph glyph-name="upsngleftdblbxd" unicode="&#x255b;" horiz-adv-x="2048" 
d="M-37 793h983v1162h156v-1631h-1139v156h983v157h-983v156z" />
    <glyph glyph-name="updblleftsngbxd" unicode="&#x255c;" horiz-adv-x="2048" 
d="M-37 637h826v1318h157v-1318h156v1318h157v-1475h-1296v157z" />
    <glyph glyph-name="dblupleftbxd" unicode="&#x255d;" horiz-adv-x="2048" 
d="M-37 793h826v1162h157v-1318h-983v156zM-37 480h1139v1475h157v-1631h-1296v156z" />
    <glyph glyph-name="vertsngrightdblbxd" unicode="&#x255e;" horiz-adv-x="2048" 
d="M946 1955h156v-1162h983v-156h-983v-157h983v-156h-983v-1162h-156v2793z" />
    <glyph glyph-name="vertdblrightsngbxd" unicode="&#x255f;" horiz-adv-x="2048" 
d="M789 1955h157v-2793h-157v2793zM1102 1955h157v-1318h826v-157h-826v-1318h-157v2793z" />
    <glyph glyph-name="dblvertrightbxd" unicode="&#x2560;" horiz-adv-x="2048" 
d="M1102 480h983v-156h-826v-1162h-157v1318zM1102 1955h157v-1162h826v-156h-983v1318zM789 1955h157v-2793h-157v2793z" />
    <glyph glyph-name="vertsngleftdblbxd" unicode="&#x2561;" horiz-adv-x="2048" 
d="M-37 793h983v1162h156v-2793h-156v1162h-983v156h983v157h-983v156z" />
    <glyph glyph-name="vertdblleftsngbxd" unicode="&#x2562;" horiz-adv-x="2048" 
d="M1102 1955h157v-2793h-157v2793zM-37 637h826v1318h157v-2793h-157v1318h-826v157z" />
    <glyph glyph-name="dblvertleftbxd" unicode="&#x2563;" horiz-adv-x="2048" 
d="M-37 793h826v1162h157v-1318h-983v156zM-37 480h983v-1318h-157v1162h-826v156zM1102 1955h157v-2793h-157v2793z" />
    <glyph glyph-name="dnsnghorzdblbxd" unicode="&#x2564;" horiz-adv-x="2048" 
d="M-37 793h2122v-156h-2122v156zM-37 480h2122v-156h-983v-1162h-156v1162h-983v156z" />
    <glyph glyph-name="dndblhorzsngbxd" unicode="&#x2565;" horiz-adv-x="2048" 
d="M-37 637h2122v-157h-826v-1318h-157v1318h-156v-1318h-157v1318h-826v157z" />
    <glyph glyph-name="dbldnhorzbxd" unicode="&#x2566;" horiz-adv-x="2048" 
d="M-37 793h2122v-156h-2122v156zM1102 480h983v-156h-826v-1162h-157v1318zM-37 480h983v-1318h-157v1162h-826v156z" />
    <glyph glyph-name="upsnghorzdblbxd" unicode="&#x2567;" horiz-adv-x="2048" 
d="M-37 480h2122v-156h-2122v156zM-37 793h983v1162h156v-1162h983v-156h-2122v156z" />
    <glyph glyph-name="updblhorzsngbxd" unicode="&#x2568;" horiz-adv-x="2048" 
d="M-37 637h826v1318h157v-1318h156v1318h157v-1318h826v-157h-2122v157z" />
    <glyph glyph-name="dbluphorzbxd" unicode="&#x2569;" horiz-adv-x="2048" 
d="M-37 480h2122v-156h-2122v156zM1102 1955h157v-1162h826v-156h-983v1318zM-37 793h826v1162h157v-1318h-983v156z" />
    <glyph glyph-name="vertsnghorzdblbxd" unicode="&#x256a;" horiz-adv-x="2048" 
d="M-37 793h983v1162h156v-1162h983v-156h-983v-157h983v-156h-983v-1162h-156v1162h-983v156h983v157h-983v156z" />
    <glyph glyph-name="vertdblhorzsngbxd" unicode="&#x256b;" horiz-adv-x="2048" 
d="M-37 637h826v1318h157v-1318h156v1318h157v-1318h826v-157h-826v-1318h-157v1318h-156v-1318h-157v1318h-826v157z" />
    <glyph glyph-name="dblverthorzbxd" unicode="&#x256c;" horiz-adv-x="2048" 
d="M1102 480h983v-156h-826v-1162h-157v1318zM1102 1955h157v-1162h826v-156h-983v1318zM-37 480h983v-1318h-157v1162h-826v156zM-37 793h826v1162h157v-1318h-983v156z" />
    <glyph glyph-name="lightarcdnrightbxd" unicode="&#x256d;" horiz-adv-x="2048" 
d="M946 -465q0 229 86 429q87 200 237 350t350 236t429 87h37v-157h-37q-196 0 -368 -74q-350 -150 -503 -504q-74 -172 -75 -367v-373h-156v373z" />
    <glyph glyph-name="lightarcdnleftbxd" unicode="&#x256e;" horiz-adv-x="2048" 
d="M1102 -838h-156v373q0 195 -75 367t-203 300t-300 204q-172 74 -368 74h-37v157h37q229 0 429 -87q200 -86 350 -236t237 -350t86 -429v-373z" />
    <glyph glyph-name="lightarcupleftbxd" unicode="&#x256f;" horiz-adv-x="2048" 
d="M1102 1583q0 -229 -86 -429t-237 -351q-150 -151 -350 -237t-429 -86h-37v157h37q196 0 368 74q350 150 503 504q74 172 75 368v372h156v-372z" />
    <glyph glyph-name="lightarcuprightbxd" unicode="&#x2570;" horiz-adv-x="2048" 
d="M946 1955h156v-372q0 -195 74 -367q152 -351 504 -505q172 -74 368 -74h37v-157h-37q-229 0 -429 87t-350 237t-237 349q-87 200 -86 430v372z" />
    <glyph glyph-name="lightdiaguprightdnleftbxd" unicode="&#x2571;" horiz-adv-x="2048" 
d="M2048 1583v-110l-1938 -1938h-110v109l1938 1939h110z" />
    <glyph glyph-name="lightdiagupleftdnrightbxd" unicode="&#x2572;" horiz-adv-x="2048" 
d="M2048 -465h-110l-1938 1938v110h110l1938 -1939v-109z" />
    <glyph glyph-name="lightdiagcrossbxd" unicode="&#x2573;" horiz-adv-x="2048" 
d="M0 1583h110l914 -915l914 915h110v-110l-914 -914l914 -915v-109h-110l-914 914l-914 -914h-110v109l914 915l-914 914v110z" />
    <glyph glyph-name="lightleftbxd" unicode="&#x2574;" horiz-adv-x="2048" 
d="M-37 637h1139v-157h-1139v157z" />
    <glyph glyph-name="lightupbxd" unicode="&#x2575;" horiz-adv-x="2048" 
d="M946 1955h156v-1475h-156v1475z" />
    <glyph glyph-name="lightrightbxd" unicode="&#x2576;" horiz-adv-x="2048" 
d="M946 637h1139v-157h-1139v157z" />
    <glyph glyph-name="lightdnbxd" unicode="&#x2577;" horiz-adv-x="2048" 
d="M946 637h156v-1475h-156v1475z" />
    <glyph glyph-name="heavyleftbxd" unicode="&#x2578;" horiz-adv-x="2048" 
d="M-37 715h1139v-313h-1139v313z" />
    <glyph glyph-name="heavyupbxd" unicode="&#x2579;" horiz-adv-x="2048" 
d="M868 1955h312v-1475h-312v1475z" />
    <glyph glyph-name="heavyrightbxd" unicode="&#x257a;" horiz-adv-x="2048" 
d="M946 715h1139v-313h-1139v313z" />
    <glyph glyph-name="heavydnbxd" unicode="&#x257b;" horiz-adv-x="2048" 
d="M868 637h312v-1475h-312v1475z" />
    <glyph glyph-name="lightleftheavyrightbxd" unicode="&#x257c;" horiz-adv-x="2048" 
d="M-37 637h983v78h1139v-313h-1139v78h-983v157z" />
    <glyph glyph-name="lightupheavydnbxd" unicode="&#x257d;" horiz-adv-x="2048" 
d="M868 637h78v1318h156v-1318h78v-1475h-312v1475z" />
    <glyph glyph-name="heavyleftlightrightbxd" unicode="&#x257e;" horiz-adv-x="2048" 
d="M-37 715h1139v-78h983v-157h-983v-78h-1139v313z" />
    <glyph glyph-name="heavyuplightdnbxd" unicode="&#x257f;" horiz-adv-x="2048" 
d="M868 1955h312v-1475h-78v-1318h-156v1318h-78v1475z" />
    <glyph glyph-name="uphalfblock" unicode="&#x2580;" horiz-adv-x="2048" 
d="M0 1583h2048v-1024h-2048v1024z" />
    <glyph glyph-name="dneighthblock" unicode="&#x2581;" horiz-adv-x="2048" 
d="M0 -210h2048v-255h-2048v255z" />
    <glyph glyph-name="dnquarterblock" unicode="&#x2582;" horiz-adv-x="2048" 
d="M0 47h2048v-512h-2048v512z" />
    <glyph glyph-name="dnthreeeighthsblock" unicode="&#x2583;" horiz-adv-x="2048" 
d="M0 302h2048v-767h-2048v767z" />
    <glyph glyph-name="dnhalfblock" unicode="&#x2584;" horiz-adv-x="2048" 
d="M0 559h2048v-1024h-2048v1024z" />
    <glyph glyph-name="dnfiveeighthsblock" unicode="&#x2585;" horiz-adv-x="2048" 
d="M0 814h2048v-1279h-2048v1279z" />
    <glyph glyph-name="dnthreequartersblock" unicode="&#x2586;" horiz-adv-x="2048" 
d="M0 1071h2048v-1536h-2048v1536z" />
    <glyph glyph-name="dnseveneighthsblock" unicode="&#x2587;" horiz-adv-x="2048" 
d="M0 1326h2048v-1791h-2048v1791z" />
    <glyph glyph-name="fullblock" unicode="&#x2588;" horiz-adv-x="2048" 
d="M0 1583h2048v-2048h-2048v2048z" />
    <glyph glyph-name="leftseveneighthsblock" unicode="&#x2589;" horiz-adv-x="2048" 
d="M0 1583h1791v-2048h-1791v2048z" />
    <glyph glyph-name="leftthreequartersblock" unicode="&#x258a;" horiz-adv-x="2048" 
d="M0 1583h1536v-2048h-1536v2048z" />
    <glyph glyph-name="leftfiveeighthsblock" unicode="&#x258b;" horiz-adv-x="2048" 
d="M0 1583h1279v-2048h-1279v2048z" />
    <glyph glyph-name="lefthalfblock" unicode="&#x258c;" horiz-adv-x="2048" 
d="M0 1583h1024v-2048h-1024v2048z" />
    <glyph glyph-name="leftthreeeighthsblock" unicode="&#x258d;" horiz-adv-x="2048" 
d="M0 1583h767v-2048h-767v2048z" />
    <glyph glyph-name="leftquarterblock" unicode="&#x258e;" horiz-adv-x="2048" 
d="M0 1583h512v-2048h-512v2048z" />
    <glyph glyph-name="lefteighthblock" unicode="&#x258f;" horiz-adv-x="2048" 
d="M0 1583h255v-2048h-255v2048z" />
    <glyph glyph-name="righthalfblock" unicode="&#x2590;" horiz-adv-x="2048" 
d="M1024 1583h1024v-2048h-1024v2048z" />
    <glyph glyph-name="lightshade" unicode="&#x2591;" horiz-adv-x="2048" 
d="M1955 1545h37v-56h-37v56zM1862 1452h37v-56h-37v56zM1955 1359h37v-56h-37v56zM1862 1266h37v-56h-37v56zM1955 1173h37v-56h-37v56zM1862 1080h37v-56h-37v56zM1955 987h37v-56h-37v56zM1862 894h37v-56h-37v56zM1955 801h37v-56h-37v56zM1862 707h37v-55h-37v55z
M1955 614h37v-55h-37v55zM1862 521h37v-56h-37v56zM1955 428h37v-56h-37v56zM1862 335h37v-56h-37v56zM1955 242h37v-56h-37v56zM1862 149h37v-56h-37v56zM1955 56h37v-56h-37v56zM1862 -37h37v-56h-37v56zM1955 -130h37v-56h-37v56zM1862 -223h37v-56h-37v56zM1955 -317h37
v-55h-37v55zM1862 -410h37v-55h-37v55zM1769 1545h37v-56h-37v56zM1676 1452h37v-56h-37v56zM1769 1359h37v-56h-37v56zM1676 1266h37v-56h-37v56zM1769 1173h37v-56h-37v56zM1676 1080h37v-56h-37v56zM1769 987h37v-56h-37v56zM1676 894h37v-56h-37v56zM1769 801h37v-56
h-37v56zM1676 707h37v-55h-37v55zM1769 614h37v-55h-37v55zM1676 521h37v-56h-37v56zM1769 428h37v-56h-37v56zM1676 335h37v-56h-37v56zM1769 242h37v-56h-37v56zM1676 149h37v-56h-37v56zM1769 56h37v-56h-37v56zM1676 -37h37v-56h-37v56zM1769 -130h37v-56h-37v56z
M1676 -223h37v-56h-37v56zM1769 -317h37v-55h-37v55zM1676 -410h37v-55h-37v55zM1583 1545h37v-56h-37v56zM1489 1452h38v-56h-38v56zM1583 1359h37v-56h-37v56zM1489 1266h38v-56h-38v56zM1583 1173h37v-56h-37v56zM1489 1080h38v-56h-38v56zM1583 987h37v-56h-37v56z
M1489 894h38v-56h-38v56zM1583 801h37v-56h-37v56zM1489 707h38v-55h-38v55zM1583 614h37v-55h-37v55zM1489 521h38v-56h-38v56zM1583 428h37v-56h-37v56zM1489 335h38v-56h-38v56zM1583 242h37v-56h-37v56zM1489 149h38v-56h-38v56zM1583 56h37v-56h-37v56zM1489 -37h38
v-56h-38v56zM1583 -130h37v-56h-37v56zM1489 -223h38v-56h-38v56zM1583 -317h37v-55h-37v55zM1489 -410h38v-55h-38v55zM1396 1545h38v-56h-38v56zM1303 1452h38v-56h-38v56zM1396 1359h38v-56h-38v56zM1303 1266h38v-56h-38v56zM1396 1173h38v-56h-38v56zM1303 1080h38v-56
h-38v56zM1396 987h38v-56h-38v56zM1303 894h38v-56h-38v56zM1396 801h38v-56h-38v56zM1303 707h38v-55h-38v55zM1396 614h38v-55h-38v55zM1303 521h38v-56h-38v56zM1396 428h38v-56h-38v56zM1303 335h38v-56h-38v56zM1396 242h38v-56h-38v56zM1303 149h38v-56h-38v56z
M1396 56h38v-56h-38v56zM1303 -37h38v-56h-38v56zM1396 -130h38v-56h-38v56zM1303 -223h38v-56h-38v56zM1396 -317h38v-55h-38v55zM1303 -410h38v-55h-38v55zM1210 1545h37v-56h-37v56zM1117 1452h37v-56h-37v56zM1210 1359h37v-56h-37v56zM1117 1266h37v-56h-37v56z
M1210 1173h37v-56h-37v56zM1117 1080h37v-56h-37v56zM1210 987h37v-56h-37v56zM1117 894h37v-56h-37v56zM1210 801h37v-56h-37v56zM1117 707h37v-55h-37v55zM1210 614h37v-55h-37v55zM1117 521h37v-56h-37v56zM1210 428h37v-56h-37v56zM1117 335h37v-56h-37v56zM1210 242h37
v-56h-37v56zM1117 149h37v-56h-37v56zM1210 56h37v-56h-37v56zM1117 -37h37v-56h-37v56zM1210 -130h37v-56h-37v56zM1117 -223h37v-56h-37v56zM1210 -317h37v-55h-37v55zM1117 -410h37v-55h-37v55zM1024 1545h37v-56h-37v56zM931 1452h37v-56h-37v56zM1024 1359h37v-56h-37
v56zM931 1266h37v-56h-37v56zM1024 1173h37v-56h-37v56zM931 1080h37v-56h-37v56zM1024 987h37v-56h-37v56zM931 894h37v-56h-37v56zM1024 801h37v-56h-37v56zM931 707h37v-55h-37v55zM1024 614h37v-55h-37v55zM931 521h37v-56h-37v56zM1024 428h37v-56h-37v56zM931 335h37
v-56h-37v56zM1024 242h37v-56h-37v56zM931 149h37v-56h-37v56zM1024 56h37v-56h-37v56zM931 -37h37v-56h-37v56zM1024 -130h37v-56h-37v56zM931 -223h37v-56h-37v56zM1024 -317h37v-55h-37v55zM931 -410h37v-55h-37v55zM838 1545h37v-56h-37v56zM745 1452h37v-56h-37v56z
M838 1359h37v-56h-37v56zM745 1266h37v-56h-37v56zM838 1173h37v-56h-37v56zM745 1080h37v-56h-37v56zM838 987h37v-56h-37v56zM745 894h37v-56h-37v56zM838 801h37v-56h-37v56zM745 707h37v-55h-37v55zM838 614h37v-55h-37v55zM745 521h37v-56h-37v56zM838 428h37v-56h-37
v56zM745 335h37v-56h-37v56zM838 242h37v-56h-37v56zM745 149h37v-56h-37v56zM838 56h37v-56h-37v56zM745 -37h37v-56h-37v56zM838 -130h37v-56h-37v56zM745 -223h37v-56h-37v56zM838 -317h37v-55h-37v55zM745 -410h37v-55h-37v55zM652 1545h37v-56h-37v56zM559 1452h37v-56
h-37v56zM652 1359h37v-56h-37v56zM559 1266h37v-56h-37v56zM652 1173h37v-56h-37v56zM559 1080h37v-56h-37v56zM652 987h37v-56h-37v56zM559 894h37v-56h-37v56zM652 801h37v-56h-37v56zM559 707h37v-55h-37v55zM652 614h37v-55h-37v55zM559 521h37v-56h-37v56zM652 428h37
v-56h-37v56zM559 335h37v-56h-37v56zM652 242h37v-56h-37v56zM559 149h37v-56h-37v56zM652 56h37v-56h-37v56zM559 -37h37v-56h-37v56zM652 -130h37v-56h-37v56zM559 -223h37v-56h-37v56zM652 -317h37v-55h-37v55zM559 -410h37v-55h-37v55zM465 1545h38v-56h-38v56z
M372 1452h38v-56h-38v56zM465 1359h38v-56h-38v56zM372 1266h38v-56h-38v56zM465 1173h38v-56h-38v56zM372 1080h38v-56h-38v56zM465 987h38v-56h-38v56zM372 894h38v-56h-38v56zM465 801h38v-56h-38v56zM372 707h38v-55h-38v55zM465 614h38v-55h-38v55zM372 521h38v-56h-38
v56zM465 428h38v-56h-38v56zM372 335h38v-56h-38v56zM465 242h38v-56h-38v56zM372 149h38v-56h-38v56zM465 56h38v-56h-38v56zM372 -37h38v-56h-38v56zM465 -130h38v-56h-38v56zM372 -223h38v-56h-38v56zM465 -317h38v-55h-38v55zM372 -410h38v-55h-38v55zM279 1545h38v-56
h-38v56zM186 1452h37v-56h-37v56zM279 1359h38v-56h-38v56zM186 1266h37v-56h-37v56zM279 1173h38v-56h-38v56zM186 1080h37v-56h-37v56zM279 987h38v-56h-38v56zM186 894h37v-56h-37v56zM279 801h38v-56h-38v56zM186 707h37v-55h-37v55zM279 614h38v-55h-38v55zM186 521h37
v-56h-37v56zM279 428h38v-56h-38v56zM186 335h37v-56h-37v56zM279 242h38v-56h-38v56zM186 149h37v-56h-37v56zM279 56h38v-56h-38v56zM186 -37h37v-56h-37v56zM279 -130h38v-56h-38v56zM186 -223h37v-56h-37v56zM279 -317h38v-55h-38v55zM186 -410h37v-55h-37v55zM93 1545
h37v-56h-37v56zM0 1452h37v-56h-37v56zM93 1359h37v-56h-37v56zM0 1266h37v-56h-37v56zM93 1173h37v-56h-37v56zM0 1080h37v-56h-37v56zM93 987h37v-56h-37v56zM0 894h37v-56h-37v56zM93 801h37v-56h-37v56zM0 707h37v-55h-37v55zM93 614h37v-55h-37v55zM0 521h37v-56h-37
v56zM93 428h37v-56h-37v56zM0 335h37v-56h-37v56zM93 242h37v-56h-37v56zM0 149h37v-56h-37v56zM93 56h37v-56h-37v56zM0 -37h37v-56h-37v56zM93 -130h37v-56h-37v56zM0 -223h37v-56h-37v56zM93 -317h37v-55h-37v55zM0 -410h37v-55h-37v55z" />
    <glyph glyph-name="mediumshade" unicode="&#x2592;" horiz-adv-x="2048" 
d="M1955 1583h74v-94h-74v94zM1862 1489h74v-93h-74v93zM1955 1396h74v-93h-74v93zM1862 1303h74v-93h-74v93zM1955 1210h74v-93h-74v93zM1862 1117h74v-93h-74v93zM1955 1024h74v-93h-74v93zM1862 931h74v-93h-74v93zM1955 838h74v-93h-74v93zM1862 745h74v-93h-74v93z
M1955 652h74v-93h-74v93zM1862 559h74v-94h-74v94zM1955 465h74v-93h-74v93zM1862 372h74v-93h-74v93zM1955 279h74v-93h-74v93zM1862 186h74v-93h-74v93zM1955 93h74v-93h-74v93zM1862 0h74v-93h-74v93zM1955 -93h74v-93h-74v93zM1862 -186h74v-93h-74v93zM1955 -279h74
v-93h-74v93zM1862 -372h74v-93h-74v93zM1769 1583h74v-94h-74v94zM1676 1489h74v-93h-74v93zM1769 1396h74v-93h-74v93zM1676 1303h74v-93h-74v93zM1769 1210h74v-93h-74v93zM1676 1117h74v-93h-74v93zM1769 1024h74v-93h-74v93zM1676 931h74v-93h-74v93zM1769 838h74v-93
h-74v93zM1676 745h74v-93h-74v93zM1769 652h74v-93h-74v93zM1676 559h74v-94h-74v94zM1769 465h74v-93h-74v93zM1676 372h74v-93h-74v93zM1769 279h74v-93h-74v93zM1676 186h74v-93h-74v93zM1769 93h74v-93h-74v93zM1676 0h74v-93h-74v93zM1769 -93h74v-93h-74v93z
M1676 -186h74v-93h-74v93zM1769 -279h74v-93h-74v93zM1676 -372h74v-93h-74v93zM1583 1583h74v-94h-74v94zM1489 1489h75v-93h-75v93zM1583 1396h74v-93h-74v93zM1489 1303h75v-93h-75v93zM1583 1210h74v-93h-74v93zM1489 1117h75v-93h-75v93zM1583 1024h74v-93h-74v93z
M1489 931h75v-93h-75v93zM1583 838h74v-93h-74v93zM1489 745h75v-93h-75v93zM1583 652h74v-93h-74v93zM1489 559h75v-94h-75v94zM1583 465h74v-93h-74v93zM1489 372h75v-93h-75v93zM1583 279h74v-93h-74v93zM1489 186h75v-93h-75v93zM1583 93h74v-93h-74v93zM1489 0h75v-93
h-75v93zM1583 -93h74v-93h-74v93zM1489 -186h75v-93h-75v93zM1583 -279h74v-93h-74v93zM1489 -372h75v-93h-75v93zM1396 1583h75v-94h-75v94zM1303 1489h75v-93h-75v93zM1396 1396h75v-93h-75v93zM1303 1303h75v-93h-75v93zM1396 1210h75v-93h-75v93zM1303 1117h75v-93h-75
v93zM1396 1024h75v-93h-75v93zM1303 931h75v-93h-75v93zM1396 838h75v-93h-75v93zM1303 745h75v-93h-75v93zM1396 652h75v-93h-75v93zM1303 559h75v-94h-75v94zM1396 465h75v-93h-75v93zM1303 372h75v-93h-75v93zM1396 279h75v-93h-75v93zM1303 186h75v-93h-75v93zM1396 93
h75v-93h-75v93zM1303 0h75v-93h-75v93zM1396 -93h75v-93h-75v93zM1303 -186h75v-93h-75v93zM1396 -279h75v-93h-75v93zM1303 -372h75v-93h-75v93zM1210 1583h75v-94h-75v94zM1117 1489h75v-93h-75v93zM1210 1396h75v-93h-75v93zM1117 1303h75v-93h-75v93zM1210 1210h75v-93
h-75v93zM1117 1117h75v-93h-75v93zM1210 1024h75v-93h-75v93zM1117 931h75v-93h-75v93zM1210 838h75v-93h-75v93zM1117 745h75v-93h-75v93zM1210 652h75v-93h-75v93zM1117 559h75v-94h-75v94zM1210 465h75v-93h-75v93zM1117 372h75v-93h-75v93zM1210 279h75v-93h-75v93z
M1117 186h75v-93h-75v93zM1210 93h75v-93h-75v93zM1117 0h75v-93h-75v93zM1210 -93h75v-93h-75v93zM1117 -186h75v-93h-75v93zM1210 -279h75v-93h-75v93zM1117 -372h75v-93h-75v93zM1024 1583h74v-94h-74v94zM931 1489h74v-93h-74v93zM1024 1396h74v-93h-74v93zM931 1303h74
v-93h-74v93zM1024 1210h74v-93h-74v93zM931 1117h74v-93h-74v93zM1024 1024h74v-93h-74v93zM931 931h74v-93h-74v93zM1024 838h74v-93h-74v93zM931 745h74v-93h-74v93zM1024 652h74v-93h-74v93zM931 559h74v-94h-74v94zM1024 465h74v-93h-74v93zM931 372h74v-93h-74v93z
M1024 279h74v-93h-74v93zM931 186h74v-93h-74v93zM1024 93h74v-93h-74v93zM931 0h74v-93h-74v93zM1024 -93h74v-93h-74v93zM931 -186h74v-93h-74v93zM1024 -279h74v-93h-74v93zM931 -372h74v-93h-74v93zM838 1583h74v-94h-74v94zM745 1489h74v-93h-74v93zM838 1396h74v-93
h-74v93zM745 1303h74v-93h-74v93zM838 1210h74v-93h-74v93zM745 1117h74v-93h-74v93zM838 1024h74v-93h-74v93zM745 931h74v-93h-74v93zM838 838h74v-93h-74v93zM745 745h74v-93h-74v93zM838 652h74v-93h-74v93zM745 559h74v-94h-74v94zM838 465h74v-93h-74v93zM745 372h74
v-93h-74v93zM838 279h74v-93h-74v93zM745 186h74v-93h-74v93zM838 93h74v-93h-74v93zM745 0h74v-93h-74v93zM838 -93h74v-93h-74v93zM745 -186h74v-93h-74v93zM838 -279h74v-93h-74v93zM745 -372h74v-93h-74v93zM652 1583h74v-94h-74v94zM559 1489h74v-93h-74v93zM652 1396
h74v-93h-74v93zM559 1303h74v-93h-74v93zM652 1210h74v-93h-74v93zM559 1117h74v-93h-74v93zM652 1024h74v-93h-74v93zM559 931h74v-93h-74v93zM652 838h74v-93h-74v93zM559 745h74v-93h-74v93zM652 652h74v-93h-74v93zM559 559h74v-94h-74v94zM652 465h74v-93h-74v93z
M559 372h74v-93h-74v93zM652 279h74v-93h-74v93zM559 186h74v-93h-74v93zM652 93h74v-93h-74v93zM559 0h74v-93h-74v93zM652 -93h74v-93h-74v93zM559 -186h74v-93h-74v93zM652 -279h74v-93h-74v93zM559 -372h74v-93h-74v93zM465 1583h75v-94h-75v94zM372 1489h75v-93h-75v93
zM465 1396h75v-93h-75v93zM372 1303h75v-93h-75v93zM465 1210h75v-93h-75v93zM372 1117h75v-93h-75v93zM465 1024h75v-93h-75v93zM372 931h75v-93h-75v93zM465 838h75v-93h-75v93zM372 745h75v-93h-75v93zM465 652h75v-93h-75v93zM372 559h75v-94h-75v94zM465 465h75v-93
h-75v93zM372 372h75v-93h-75v93zM465 279h75v-93h-75v93zM372 186h75v-93h-75v93zM465 93h75v-93h-75v93zM372 0h75v-93h-75v93zM465 -93h75v-93h-75v93zM372 -186h75v-93h-75v93zM465 -279h75v-93h-75v93zM372 -372h75v-93h-75v93zM279 1583h75v-94h-75v94zM186 1489h75
v-93h-75v93zM279 1396h75v-93h-75v93zM186 1303h75v-93h-75v93zM279 1210h75v-93h-75v93zM186 1117h75v-93h-75v93zM279 1024h75v-93h-75v93zM186 931h75v-93h-75v93zM279 838h75v-93h-75v93zM186 745h75v-93h-75v93zM279 652h75v-93h-75v93zM186 559h75v-94h-75v94z
M279 465h75v-93h-75v93zM186 372h75v-93h-75v93zM279 279h75v-93h-75v93zM186 186h75v-93h-75v93zM279 93h75v-93h-75v93zM186 0h75v-93h-75v93zM279 -93h75v-93h-75v93zM186 -186h75v-93h-75v93zM279 -279h75v-93h-75v93zM186 -372h75v-93h-75v93zM93 1583h75v-94h-75v94z
M0 1489h74v-93h-74v93zM93 1396h75v-93h-75v93zM0 1303h74v-93h-74v93zM93 1210h75v-93h-75v93zM0 1117h74v-93h-74v93zM93 1024h75v-93h-75v93zM0 931h74v-93h-74v93zM93 838h75v-93h-75v93zM0 745h74v-93h-74v93zM93 652h75v-93h-75v93zM0 559h74v-94h-74v94zM93 465h75
v-93h-75v93zM0 372h74v-93h-74v93zM93 279h75v-93h-75v93zM0 186h74v-93h-74v93zM93 93h75v-93h-75v93zM0 0h74v-93h-74v93zM93 -93h75v-93h-75v93zM0 -186h74v-93h-74v93zM93 -279h75v-93h-75v93zM0 -372h74v-93h-74v93z" />
    </font>
</defs>
</svg>
