<?xml version="1.0" standalone="no"?>
<!DOCTYPE svg PUBLIC "-//W3C//DTD SVG 1.1//EN" "http://www.w3.org/Graphics/SVG/1.1/DTD/svg11.dtd" >
<svg xmlns="http://www.w3.org/2000/svg">
<metadata>
Created by FontPrep 20130207 at Thu Oct 15 15:22:52 2015
 By Callum Flack
(c) Copyright The Font Bureau, Inc. 2014. All rights reserved.
</metadata>
<defs>
<font id="d267e1590230f3fc78673426a88e4712" horiz-adv-x='1024' >
  <font-face 
    font-family="InputSansCompressed-Bold"
    font-weight="700"
    font-stretch="extra-condensed"
    units-per-em="2048"
    panose-1="2 0 7 0 3 0 0 9 0 4"
    ascent="1583"
    descent="-465"
    x-height="1117"
    cap-height="1489"
    bbox="-443 -838 2370 2607"
    underline-thickness="0"
    underline-position="0"
    unicode-range="U+000D-1F41B"
  />
<missing-glyph horiz-adv-x="1318" 
d="M279 -279h760v1675h-760v-1675zM93 -465v2048h1132v-2048h-1132z" />
    <glyph glyph-name=".notdef" horiz-adv-x="1318" 
d="M279 -279h760v1675h-760v-1675zM93 -465v2048h1132v-2048h-1132z" />
    <glyph glyph-name=".null" horiz-adv-x="0" 
 />
    <glyph glyph-name="nonmarkingreturn" unicode="&#xd;" horiz-adv-x="0" 
 />
    <glyph glyph-name="NULL" horiz-adv-x="0" 
 />
    <glyph glyph-name="space" unicode="&#xa0;" horiz-adv-x="863" 
 />
    <glyph glyph-name="space" unicode=" " horiz-adv-x="863" 
 />
    <glyph glyph-name="exclam" unicode="!" horiz-adv-x="1171" 
d="M797 138q1 -157 -207 -157t-208 157v52q0 160 207.5 160t207.5 -160v-52zM452 559l-41 930h341l-43 -930h-257z" />
    <glyph glyph-name="quotedbl" unicode="&#x22;" horiz-adv-x="1610" 
d="M402 704l-48 785h340l-52 -785h-240zM968 704l-50 785h341l-53 -785h-238z" />
    <glyph glyph-name="numbersign" unicode="#" horiz-adv-x="1457" 
d="M168 348v199h201l15 395h-216v199h221l15 348h240l-13 -348h225l13 348h244l-15 -348h192v-199h-197l-15 -395h212v-199h-219l-13 -348h-244l13 348h-224l-15 -348h-240l13 348h-193zM834 547l15 395h-225l-15 -395h225z" />
    <glyph glyph-name="dollar" unicode="$" 
d="M674 -93h-169v177q-226 23 -375 143l58 192q157 -124 331 -142v371q-207 48 -290.5 134.5t-83.5 250.5t94 257t266 112v181h169v-177q182 -18 316 -119l-46 -190q-141 93 -283 108v-354q216 -58 304.5 -145.5t88.5 -249.5t-99.5 -259.5t-280.5 -114.5v-175zM793 441
q0 60 -28 97t-104 67v-329q132 13 132 165zM404 1060q0 -62 24 -98.5t91 -65.5v307q-63 -11 -89 -46t-26 -97z" />
    <glyph glyph-name="percent" unicode="%" horiz-adv-x="1884" 
d="M1337 287q0 -129 97.5 -129t97.5 129v190q0 132 -70.5 132t-97.5 -31.5t-27 -100.5v-190zM1435.5 -22q-150.5 0 -244.5 73.5t-94 225.5v209q0 155 94 228.5t244.5 73.5t243.5 -74t93 -228v-209q0 -153 -93 -226t-243.5 -73zM350 1015q0 -129 98 -129t98 129v182
q0 132 -71 132t-98 -31.5t-27 -100.5v-182zM465 0l699 1489h257l-699 -1489h-257zM449 706q-151 0 -245 73.5t-94 225.5v200q0 155 94 229t245 74t244 -74.5t93 -228.5v-200q0 -153 -93 -226t-244 -73z" />
    <glyph glyph-name="ampersand" unicode="&#x26;" horiz-adv-x="1312" 
d="M452 395q0 -222 183 -222q88 0 151 93q-116 111 -235 266q-20 30 -50 81q-49 -96 -49 -218zM598 920q158 110 158 253t-96 143t-96 -197q0 -95 34 -199zM168 369q0 277 225 432q-86 185 -86 322q0 186 93 286.5t258 100.5t252.5 -92t87.5 -218t-72.5 -213.5
t-275.5 -197.5q31 -62 77 -140t144 -193q67 173 116 339l212 -65q-70 -189 -209 -425l287 -126l-48 -203q-162 57 -313 179q-146 -174 -365 -174q-173 0 -278 103.5t-105 284.5z" />
    <glyph glyph-name="quotesingle" unicode="'" horiz-adv-x="1033" 
d="M397 704l-49 785h339l-50 -785h-240z" />
    <glyph glyph-name="parenleft" unicode="(" 
d="M307 558.5q0 418.5 149 652.5t456 297l30 -188q-184 -61 -267 -242.5t-83 -516.5t83 -516t267 -242l-30 -194q-307 63 -456 297t-149 652.5z" />
    <glyph glyph-name="parenright" unicode=")" 
d="M586 562q0 334 -82.5 516t-265.5 242l30 188q305 -63 454 -297t149 -652.5t-149 -652.5t-454 -297l-30 194q182 61 265 243t83 516z" />
    <glyph glyph-name="asterisk" unicode="*" horiz-adv-x="1312" 
d="M963 577l-265 276l71 -447h-229l73 445l-261 -274l-116 218l326 155l-326 154l116 218l261 -276l-73 443h229l-71 -443l265 276l113 -218l-328 -154l328 -155z" />
    <glyph glyph-name="plus" unicode="+" horiz-adv-x="1312" 
d="M540 0v536h-372v231h372v536h233v-536h372v-231h-372v-536h-233z" />
    <glyph glyph-name="comma" unicode="," horiz-adv-x="1033" 
d="M268 -331l103 785h402l-324 -785h-181z" />
    <glyph glyph-name="hyphen" unicode="&#x2011;" horiz-adv-x="1312" 
d="M166 534v244h983v-244h-983z" />
    <glyph glyph-name="hyphen" unicode="&#x2010;" horiz-adv-x="1312" 
d="M166 534v244h983v-244h-983z" />
    <glyph glyph-name="hyphen" unicode="&#xad;" horiz-adv-x="1312" 
d="M166 534v244h983v-244h-983z" />
    <glyph glyph-name="hyphen" unicode="-" horiz-adv-x="1312" 
d="M166 534v244h983v-244h-983z" />
    <glyph glyph-name="period" unicode="." horiz-adv-x="1033" 
d="M516 -19q-93 0 -152 47.5t-59 140.5v103q0 95 59 143.5t154 48.5t152.5 -48.5t57.5 -143.5v-103q0 -93 -59.5 -140.5t-152.5 -47.5z" />
    <glyph glyph-name="slash" unicode="/" horiz-adv-x="1033" 
d="M125 -372l558 1861h227l-558 -1861h-227z" />
    <glyph glyph-name="zero" unicode="0" horiz-adv-x="1318" 
d="M760 700q0 -108 -99 -108q-47 0 -74 22.5t-27 85.5v88q0 108 100 108t100 -108v-88zM660 190q116 0 161 99.5t45 356.5v190q0 261 -45 362.5t-161 101.5t-161 -101.5t-45 -362.5v-190q0 -257 45 -356.5t161 -99.5zM660 -19q-236 0 -364 166t-128 471v246q0 309 128 476.5
t364 167.5t363.5 -167.5t127.5 -476.5v-246q0 -305 -127.5 -471t-363.5 -166z" />
    <glyph glyph-name="one" unicode="1" horiz-adv-x="1318" 
d="M279 0v216h307v959h-40q-22 -117 -102.5 -189t-177.5 -79l-15 223q121 13 212.5 110t126.5 249h281v-1273h280v-216h-872z" />
    <glyph glyph-name="two" unicode="2" horiz-adv-x="1318" 
d="M168 0v313q0 201 60.5 300.5t203.5 138.5l274 75q84 22 115.5 64t31.5 118v80q0 108 -44 159.5t-149 51.5t-145 -59t-48 -219l-285 19q9 244 123.5 355.5t350.5 111.5t359 -105t123 -305v-100q0 -168 -59 -254.5t-200 -123.5l-276 -74q-84 -22 -117.5 -72.5t-33.5 -156.5
v-101h699v-216h-983z" />
    <glyph glyph-name="three" unicode="3" horiz-adv-x="1318" 
d="M663 -19q-255 0 -377 104.5t-131 331.5l284 19q11 -145 57 -193.5t162 -48.5t162 52t46 164v50q0 123 -44 170.5t-161 47.5h-184v216h184q99 0 138 31.5t39 130.5v59q0 101 -45.5 141t-143.5 40t-136 -48.5t-46 -160.5l-285 19q9 210 120.5 306t351.5 96t354.5 -90.5
t114.5 -283.5v-49q0 -106 -57 -180.5t-146 -87.5v-54q102 -13 166.5 -104t64.5 -212v-41q0 -220 -116.5 -322.5t-371.5 -102.5z" />
    <glyph glyph-name="four" unicode="4" horiz-adv-x="1318" 
d="M1221 380h-210v-380h-285v380h-571v208l508 901h348v-901h210v-208zM726 588v551l-316 -551h316z" />
    <glyph glyph-name="five" unicode="5" horiz-adv-x="1318" 
d="M1151 391q-1 -410 -499 -410q-250 0 -370 108t-127 347l284 18q11 -151 59 -207.5t162 -56.5t160 49.5t46 160.5v114q0 117 -47.5 165.5t-153.5 48.5h-470v761h915v-208h-630v-331h242q216 0 322.5 -101.5t106.5 -310.5v-147z" />
    <glyph glyph-name="six" unicode="6" horiz-adv-x="1318" 
d="M658 190q107 0 156.5 61.5t49.5 195.5v24q0 140 -49.5 203t-156.5 63t-156.5 -63t-49.5 -203v-24q0 -134 49.5 -195.5t156.5 -61.5zM168 976q0 532 482 532q238 0 348 -84.5t140 -282.5l-296 -43q-20 119 -64 160.5t-142 41.5t-141 -70t-43 -254v-181h13q84 136 289 136
t301 -111t96 -332v-41q0 -229 -124 -347.5t-367 -118.5t-367.5 135t-124.5 398v462z" />
    <glyph glyph-name="seven" unicode="7" horiz-adv-x="1318" 
d="M168 1262v227h983v-227q-173 -382 -264.5 -629.5t-139.5 -632.5h-300q74 458 160 690.5t259 571.5h-698z" />
    <glyph glyph-name="eight" unicode="8" horiz-adv-x="1318" 
d="M661 194q112 0 158.5 52t46.5 175v28q0 125 -46.5 177t-158.5 52t-160.5 -52.5t-48.5 -176.5v-28q0 -123 48.5 -175t160.5 -52zM660 886q96 0 137 42t41 143v44q0 99 -41 140t-137 41t-138 -41t-42 -140v-44q0 -101 42 -143t138 -42zM659 -19q-274 0 -382.5 107
t-108.5 305v41q0 141 60.5 226t171.5 98v54q-93 11 -149 81t-56 191v59q0 190 119.5 277.5t345.5 87.5t344.5 -85.5t118.5 -279.5v-59q0 -121 -56 -191t-149 -81v-54q112 -13 172.5 -99t60.5 -225v-41q0 -199 -109 -305.5t-383 -106.5z" />
    <glyph glyph-name="nine" unicode="9" horiz-adv-x="1318" 
d="M168 1043q0 465 492 465t491 -532v-462q0 -249 -114 -391t-380 -142q-225 0 -336 86t-140 281l297 43q19 -115 60.5 -158t141.5 -43t143 70.5t43 253.5v180h-19q-84 -135 -285 -135q-394 0 -394 443v41zM661 752q108 0 156.5 63.5t48.5 202.5v25q0 136 -48.5 196.5
t-156.5 60.5t-156.5 -60.5t-48.5 -196.5v-25q0 -140 48.5 -203t156.5 -63z" />
    <glyph glyph-name="colon" unicode=":" horiz-adv-x="1033" 
d="M516 -15q-84 0 -137 43t-53 128v93q0 86 53 130t138.5 44t137.5 -44t52 -130v-93q0 -86 -53.5 -128.5t-137.5 -42.5zM516 726q-84 0 -137 43t-53 127v93q0 86 53 129.5t138.5 43.5t137.5 -44t52 -129v-93q0 -84 -53.5 -127t-137.5 -43z" />
    <glyph glyph-name="semicolon" unicode=";" horiz-adv-x="1033" 
d="M294 -315l91 753h362l-293 -753h-160zM516 726q-84 0 -137 43t-53 127v93q0 86 53 129.5t138.5 43.5t137.5 -44t52 -129v-93q0 -84 -53.5 -127t-137.5 -43z" />
    <glyph glyph-name="less" unicode="&#x3c;" horiz-adv-x="1312" 
d="M1076 0l-838 518v268l838 517v-225l-687 -426l687 -427v-225z" />
    <glyph glyph-name="equal" unicode="=" horiz-adv-x="1312" 
d="M168 257v231h977v-231h-977zM168 817v229h977v-229h-977z" />
    <glyph glyph-name="greater" unicode="&#x3e;" horiz-adv-x="1312" 
d="M238 0v218l702 434l-702 433v218l838 -515v-272z" />
    <glyph glyph-name="question" unicode="?" horiz-adv-x="1452" 
d="M866 138q0 -157 -208 -157t-207 157v52q-1 160 207 160t208 -160v-52zM922 1028v48q0 110 -45 167t-151 57t-150 -59t-55 -219l-285 19q11 244 128.5 355.5t348.5 111.5t362 -112.5t131 -300.5v-75q0 -203 -145.5 -308t-516.5 -170l-28 192q231 50 318.5 114t87.5 180z
" />
    <glyph glyph-name="at" unicode="@" horiz-adv-x="1495" 
d="M836 570q0 -164 100 -164q48 0 75.5 29t27.5 120v156q0 89 -29 128.5t-74 39.5q-100 0 -100 -172v-137zM179 441v477q0 266 146 428t425 162t420 -151.5t141 -420.5v-383q0 -177 -101.5 -256t-283.5 -79t-271 88.5t-89 244.5v175q0 155 73.5 248t196.5 93q153 0 227 -129
h56q-4 194 -81 289t-274.5 95t-282 -106t-84.5 -298v-464q0 -222 107 -344.5t351 -122.5q176 0 314 43v-192q-152 -43 -314 -43q-341 0 -508.5 177t-167.5 469z" />
    <glyph glyph-name="A" unicode="A" horiz-adv-x="1172" 
d="M814 0l-75 387h-329l-77 -387h-264l329 1489h378l328 -1489h-290zM696 603l-121 630l-124 -630h245z" />
    <glyph glyph-name="B" unicode="B" horiz-adv-x="1318" 
d="M452 209h205q117 0 163 42.5t46 154.5v74q0 110 -45.5 153t-163.5 43h-205v-467zM452 873h211q97 0 136 37.5t39 132.5v69q0 95 -39 133t-136 38h-211v-410zM168 0v1489h545q190 0 299 -93t109 -257v-74q0 -106 -49.5 -166.5t-155.5 -83.5v-54q112 -13 173.5 -91
t61.5 -195v-90q0 -179 -117.5 -282t-326.5 -103h-539z" />
    <glyph glyph-name="C" unicode="C" horiz-adv-x="1318" 
d="M168 469v546q0 235 126.5 364t382.5 129t381.5 -129.5t134.5 -391.5l-284 -19q-9 184 -59.5 254t-173.5 70t-173.5 -65t-50.5 -233v-508q0 -162 51 -225.5t173 -63.5t172.5 69t60.5 248l284 -19q-18 -514 -504 -514q-270 0 -395.5 127.5t-125.5 360.5z" />
    <glyph glyph-name="D" unicode="D" horiz-adv-x="1318" 
d="M452 216h181q128 0 180.5 66t52.5 232v454q0 169 -52.5 237t-180.5 68h-181v-1057zM168 0v1489h495q229 0 358.5 -136.5t129.5 -365.5v-492q0 -227 -130.5 -361t-359.5 -134h-493z" />
    <glyph glyph-name="E" unicode="E" 
d="M168 0v1489h843v-216h-559v-363h488v-217h-488v-477h559v-216h-843z" />
    <glyph glyph-name="F" unicode="F" 
d="M168 0v1489h871v-216h-587v-487h490v-216h-490v-570h-284z" />
    <glyph glyph-name="G" unicode="G" horiz-adv-x="1318" 
d="M658 -19q-236 0 -363 128.5t-127 359.5v546q0 233 124 363t356 130t349.5 -110t127.5 -357l-285 -19q-9 155 -50.5 212.5t-147.5 57.5t-148 -62.5t-42 -233.5v-510q0 -166 47 -227.5t165 -61.5t159 73t41 266h-203v218h490v-248q0 -248 -128.5 -386.5t-364.5 -138.5z" />
    <glyph glyph-name="H" unicode="H" horiz-adv-x="1318" 
d="M168 0v1489h284v-562h414v562h285v-1489h-285v709h-414v-709h-284z" />
    <glyph glyph-name="I" unicode="I" 
d="M168 0v216h279v1057h-279v216h843v-216h-279v-1057h279v-216h-843z" />
    <glyph glyph-name="J" unicode="J" 
d="M556 -19q-238 0 -335.5 114t-108.5 408l285 20q11 -197 45.5 -261.5t126.5 -64.5t124.5 60t32.5 223v793h-352v216h637v-1016q0 -255 -108.5 -373.5t-346.5 -118.5z" />
    <glyph glyph-name="K" unicode="K" 
d="M452 670v-670h-284v1489h284v-601h58l309 601h313l-397 -685l391 -804h-327l-285 670h-62z" />
    <glyph glyph-name="L" unicode="L" horiz-adv-x="1038" 
d="M168 0v1489h284v-1273h490v-216h-774z" />
    <glyph glyph-name="M" unicode="M" horiz-adv-x="1457" 
d="M410 0h-242v1489h363l201 -832l203 832h355v-1489h-242v1139l-188 -767h-262l-188 749v-1121z" />
    <glyph glyph-name="N" unicode="N" horiz-adv-x="1318" 
d="M410 0h-242v1489h383l358 -1063v1063h242v-1489h-376l-365 1138v-1138z" />
    <glyph glyph-name="O" unicode="O" horiz-adv-x="1318" 
d="M660 197q116 0 161 64.5t45 230.5v504q0 166 -45 231t-161 65t-162 -65t-46 -231v-504q0 -166 46 -230.5t162 -64.5zM660 -19q-237 0 -364.5 130.5t-127.5 363.5v540q0 233 127.5 363t365.5 130t364 -130.5t126 -362.5v-540q0 -233 -127 -363.5t-364 -130.5z" />
    <glyph glyph-name="P" unicode="P" 
d="M452 702h146q89 0 130 46.5t41 163.5v147q0 117 -41 165.5t-130 48.5h-146v-571zM168 0v1489h476q201 0 305.5 -104t104.5 -305v-192q0 -197 -104.5 -298.5t-305.5 -101.5h-192v-488h-284z" />
    <glyph glyph-name="Q" unicode="Q" horiz-adv-x="1318" 
d="M660 214q118 0 162 63.5t44 234.5v484q0 169 -44 232.5t-162 63.5t-163 -63.5t-45 -232.5v-484q0 -171 45 -234.5t163 -63.5zM168 493v522q0 233 128 363t364.5 130t363.5 -130.5t127 -362.5v-522q0 -212 -109 -337.5t-314 -144.5q7 -119 66 -155.5t198 -2.5l28 -225
q-272 -47 -390 46t-116 350q-168 34 -257 155t-89 314z" />
    <glyph glyph-name="R" unicode="R" horiz-adv-x="1318" 
d="M1123 964q0 -315 -244 -389l285 -575h-324l-274 553h-114v-553h-284v1489h547q199 0 303.5 -101t104.5 -299v-125zM452 767h235q74 0 111.5 43t37.5 156v116q0 112 -37.5 151.5t-111.5 39.5h-235v-506z" />
    <glyph glyph-name="S" unicode="S" horiz-adv-x="1318" 
d="M659 1288q-91 0 -145 -48t-54 -134t55 -130t249 -108t295 -160.5t101 -282.5t-131.5 -313t-374.5 -127t-479 145l52 222q217 -149 447 -149q99 0 149 51t50 139t-60.5 133.5t-240.5 105.5t-287.5 155.5t-107.5 282.5t127.5 309.5t343.5 122.5q123 0 238.5 -38t200.5 -101
l-39 -212q-207 137 -389 137z" />
    <glyph glyph-name="T" unicode="T" 
d="M447 0v1273h-348v216h983v-216h-350v-1273h-285z" />
    <glyph glyph-name="U" unicode="U" horiz-adv-x="1318" 
d="M659 -19q-251 0 -371 121t-120 376v1011h284v-1003q0 -155 47 -217t161 -62t160 62t46 217v1003h285v-1011q0 -255 -120.5 -376t-371.5 -121z" />
    <glyph glyph-name="V" unicode="V" horiz-adv-x="1172" 
d="M775 0h-378l-328 1489h288l237 -1221l240 1221h270z" />
    <glyph glyph-name="W" unicode="W" horiz-adv-x="1604" 
d="M959 0l-153 842l-162 -842h-303l-229 1489h270l152 -1102l138 823h276l152 -817l151 1096h240l-229 -1489h-303z" />
    <glyph glyph-name="X" unicode="X" horiz-adv-x="1318" 
d="M879 0l-226 469l-217 -469h-304l376 773l-342 716h320l207 -441l193 441h302l-350 -754l344 -735h-303z" />
    <glyph glyph-name="Y" unicode="Y" 
d="M732 0h-285v559l-406 930h298l257 -692l260 692h282l-406 -930v-559z" />
    <glyph glyph-name="Z" unicode="Z" horiz-adv-x="1318" 
d="M1138 0h-956v216l611 1057h-611v216h956v-216l-643 -1057h643v-216z" />
    <glyph glyph-name="bracketleft" unicode="[" 
d="M307 -372v1861h635v-208h-350v-1458h350v-195h-635z" />
    <glyph glyph-name="backslash" unicode="\" horiz-adv-x="1033" 
d="M683 -371l-558 1862l227 -2l558 -1861z" />
    <glyph glyph-name="bracketright" unicode="]" 
d="M238 -372v195h348v1458h-348v208h633v-1861h-633z" />
    <glyph glyph-name="asciicircum" unicode="^" horiz-adv-x="1457" 
d="M1013 372l-283 756l-285 -756h-277l418 1117h285l419 -1117h-277z" />
    <glyph glyph-name="underscore" unicode="_" horiz-adv-x="1312" 
d="M168 -372v244h977v-244h-977z" />
    <glyph glyph-name="grave" unicode="`" horiz-adv-x="1033" 
d="M577 704l-352 785h402l131 -785h-181z" />
    <glyph glyph-name="a" unicode="a" horiz-adv-x="1318" 
d="M741 788q0 152 -140 152q-69 0 -102.5 -38t-51.5 -148l-244 47q61 335 428 335q190 0 292.5 -80t102.5 -257v-479q0 -86 43 -108t124 -5v-205q-127 -28 -215 2.5t-116 148.5h-45q-113 -172 -343 -172q-128 0 -210 86t-82 236.5t88.5 233.5t239.5 83h231v168zM557 460
q-103 0 -103 -146t113 -145q113 0 174 92v199h-184z" />
    <glyph glyph-name="b" unicode="b" 
d="M726 372v367q0 175 -110 175q-97 0 -164 -113v-563q50 -46 133 -46q82 0 111.5 41t29.5 139zM1011 756v-385q0 -186 -111 -286t-321 -100q-269 0 -411 140v1364h284v-528h41q49 175 246 175q132 0 202 -98t70 -282z" />
    <glyph glyph-name="c" unicode="c" 
d="M594 -19q-212 0 -319 102.5t-107 288.5v367q0 199 109.5 298t315.5 99q415 0 433 -388l-274 -18q-7 110 -39.5 152.5t-113.5 42.5t-114 -41t-33 -147v-357q0 -106 33 -148t115 -42t114.5 40t37.5 146l274 -19q-18 -376 -432 -376z" />
    <glyph glyph-name="d" unicode="d" 
d="M529 1132q111 0 197 -48v405h285v-1489h-285v169h-41q-24 -89 -92 -138.5t-163 -49.5q-125 0 -193.5 100.5t-68.5 279.5v386q0 182 95.5 283.5t265.5 101.5zM452 378q0 -173 110 -173q98 0 164 125v536q-78 61 -144 61q-130 0 -130 -182v-367z" />
    <glyph glyph-name="e" unicode="e" 
d="M452 737v-70h274v61q0 123 -30.5 172.5t-105 49.5t-106.5 -48t-32 -165zM567 -19q-178 0 -288.5 106.5t-110.5 292.5v359q0 186 112.5 291.5t309.5 105.5t309 -108t112 -298v-225h-559v-125q0 -117 34 -162t112 -45t113.5 31.5t63.5 113.5l232 -65q-39 -130 -150.5 -201
t-289.5 -71z" />
    <glyph glyph-name="f" unicode="f" horiz-adv-x="1038" 
d="M715 1331q-123 0 -123 -128v-86h279v-208h-279v-909h-285v909h-167v208h167v99q0 149 99.5 232.5t273.5 83.5q81 0 204 -46l-28 -190q-96 35 -141 35z" />
    <glyph glyph-name="g" unicode="g" horiz-adv-x="1318" 
d="M436 -88q0 -130 95 -130h262q58 0 94 25t36 95t-37 95t-93 25h-357v-110zM638.5 944q-130.5 0 -130.5 -149v-58q0 -74 29 -114t101 -40t101.5 40t29.5 114v58q0 149 -130.5 149zM819 227q332 0 332 -300q0 -151 -88.5 -234.5t-252.5 -83.5h-281q-184 0 -272.5 71
t-88.5 197q0 91 45.5 146t108.5 65v37q-125 41 -125 192q0 91 61.5 154t147.5 76v34q-80 28 -125 88.5t-45 131.5v29q0 132 100 209.5t297 77.5h519v-184l-229 39v-36q52 -19 86 -75.5t34 -119.5v-28q0 -130 -101.5 -206.5t-301.5 -76.5h-135q-101 0 -101 -100
q0 -52 27 -77.5t74 -25.5h314z" />
    <glyph glyph-name="h" unicode="h" 
d="M626 914q-99 0 -174 -143v-771h-284v1489h284v-528h41q30 82 101 128.5t176 46.5t173 -93t68 -255v-788h-285v745q0 88 -24 128.5t-76 40.5z" />
    <glyph glyph-name="i" unicode="i" horiz-adv-x="754" 
d="M235 0v1117h286v-1117h-286zM195 1447q1 126 183 126t182 -126v-21q0 -69 -51 -95t-131 -26t-131 26t-52 95v21z" />
    <glyph glyph-name="j" unicode="j" horiz-adv-x="899" 
d="M255 -188q123 0 123 197v900h-235v208h520v-1130q-1 -177 -103 -277t-268 -99q-100 0 -204 41l27 199q84 -39 140 -39zM339 1447q0 126 182 126t183 -126v-21q0 -69 -52 -95t-131 -26q-80 0 -131 26t-51 95v21z" />
    <glyph glyph-name="k" unicode="k" horiz-adv-x="1038" 
d="M452 484v-484h-284v1489h284v-809h53l195 437h292l-257 -512l254 -605h-304l-180 484h-53z" />
    <glyph glyph-name="l" unicode="l" horiz-adv-x="899" 
d="M577 -15q-162 0 -250.5 105t-88.5 295v1104h285v-1104q0 -180 104 -180q66 0 131 37l43 -203q-112 -54 -224 -54z" />
    <glyph glyph-name="m" unicode="m" horiz-adv-x="1597" 
d="M585 914q-85 0 -133 -115v-799h-284v1117h284v-156h41q28 80 89.5 127.5t137.5 47.5q151 0 203 -175h62q26 80 86.5 127.5t136.5 47.5q104 0 163 -88.5t59 -248.5v-799h-285v782q0 132 -76 132q-35 0 -69 -29t-58 -86v-799h-285v782q0 132 -72 132z" />
    <glyph glyph-name="n" unicode="n" 
d="M629 914q-107 0 -177 -143v-771h-284v1117h284v-156h41q30 82 101 128.5t175 46.5t173 -93t69 -255v-788h-285v745q0 86 -23 127.5t-74 41.5z" />
    <glyph glyph-name="o" unicode="o" 
d="M590.5 190q74.5 0 105 46.5t30.5 154.5v337q0 106 -30.5 152.5t-105 46.5t-106.5 -46.5t-32 -154.5v-335q0 -108 32 -154.5t106.5 -46.5zM589 -19q-196 0 -308.5 107t-112.5 296v344q0 190 113 299t309 109t308.5 -109t112.5 -299v-344q0 -188 -113 -295.5t-309 -107.5z
" />
    <glyph glyph-name="p" unicode="p" 
d="M652 -15q-112 0 -200 49v-406h-284v1489h284v-156h41q24 84 92 129.5t163 45.5q128 0 195.5 -100t67.5 -280v-385q0 -184 -94 -285t-265 -101zM726 372v369q0 91 -26 132t-84 41q-95 0 -164 -113v-550q77 -59 145 -59t98.5 42.5t30.5 137.5z" />
    <glyph glyph-name="q" unicode="q" 
d="M452 385q0 -182 110 -182q104 0 164 112v564q-50 46 -129 46t-112 -41t-33 -141v-358zM168 747q0 385 453 385q230 0 390 -134v-1370h-285v528h-41q-49 -175 -246 -175q-134 0 -202.5 97t-68.5 283v386z" />
    <glyph glyph-name="r" unicode="r" horiz-adv-x="1038" 
d="M683 795q0 119 -78 119q-43 0 -85 -37t-68 -101v-776h-284v1117h284v-156h41q26 93 89.5 134t132.5 41q227 0 227 -300v-201h-259v160z" />
    <glyph glyph-name="s" unicode="s" 
d="M454 829q0 -69 55 -100t203 -73t227 -112t79 -222t-111.5 -244.5t-316.5 -92.5q-127 0 -241 42t-194 100l61 180q212 -130 372 -130t160 113q0 69 -52 95t-188 66t-231 111t-95 230t102.5 251.5t279.5 92.5q117 0 222.5 -37.5t174.5 -89.5l-47 -173q-179 108 -319 108
q-141 0 -141 -115z" />
    <glyph glyph-name="t" unicode="t" horiz-adv-x="1038" 
d="M307 339v570h-167v208h167v372h285v-372h279v-208h-279v-548q0 -89 34.5 -129t92.5 -40t136 37l28 -203q-81 -45 -209 -45q-367 0 -367 358z" />
    <glyph glyph-name="u" unicode="u" 
d="M551 203q107 0 175 143v771h285v-1117h-285v156h-41q-26 -82 -96 -128.5t-161 -46.5q-123 0 -191.5 94t-68.5 256v786h284v-745q0 -169 99 -169z" />
    <glyph glyph-name="v" unicode="v" horiz-adv-x="1038" 
d="M709 0h-379l-269 1117h280l184 -882l184 882h268z" />
    <glyph glyph-name="w" unicode="w" horiz-adv-x="1457" 
d="M871 0l-134 685l-130 -685h-313l-197 1117h247l138 -851l129 665h245l142 -657l130 843h233l-199 -1117h-291z" />
    <glyph glyph-name="x" unicode="x" horiz-adv-x="1038" 
d="M674 0l-168 320l-143 -320h-287l295 577l-283 540h284l155 -296l136 296h285l-285 -555l296 -562h-285z" />
    <glyph glyph-name="y" unicode="y" horiz-adv-x="1038" 
d="M281 -181q112 0 155.5 49.5t62.5 142.5l4 23h-201l-241 1083h280l190 -935l175 935h270l-226 -1147q-41 -190 -142.5 -274.5t-270.5 -84.5q-90 0 -257 20l13 209q135 -21 188 -21z" />
    <glyph glyph-name="z" unicode="z" 
d="M983 0h-788v209l496 700h-496v208h788v-208l-467 -700h467v-209z" />
    <glyph glyph-name="braceleft" unicode="{" 
d="M238 -82q0 143 90 257q48 63 69.5 100.5t21.5 83.5q0 78 -66 110t-254 39v145q188 7 254 39t66 112q0 41 -21.5 72.5t-62.5 75.5t-69 98t-28 145q0 169 163 244t541 69v-208q-235 6 -327 -26t-92 -118q0 -52 27.5 -88.5t61.5 -72.5t63 -79t29 -108q0 -115 -93 -166.5
t-321 -58.5v-10q227 -17 320.5 -72.5t93.5 -172.5q0 -65 -30 -106t-64 -77t-60.5 -75.5t-26.5 -103.5q0 -91 92 -124.5t327 -27.5v-205q-378 -6 -541 68t-163 241z" />
    <glyph glyph-name="bar" unicode="|" horiz-adv-x="1033" 
d="M402 -372v1861h229v-1861h-229z" />
    <glyph glyph-name="braceright" unicode="}" 
d="M940 -82q0 -168 -163 -241.5t-541 -67.5v205q235 -6 327 27.5t92 124.5q0 63 -26 103.5t-60 75.5t-64 76.5t-30 106.5q0 117 93 173t320 72v10q-227 7 -320 58.5t-93 166.5q0 65 28.5 108t63.5 79t61.5 72.5t26.5 88.5q0 86 -92 117.5t-327 26.5v208q378 6 541 -68.5
t163 -244.5q0 -140 -89 -234q-47 -52 -69 -84t-22 -73q0 -80 67 -111.5t253 -39.5v-145q-186 -7 -253 -38.5t-67 -110.5q0 -47 22 -84t62 -90t68 -114.5t28 -152.5z" />
    <glyph glyph-name="asciitilde" unicode="~" horiz-adv-x="1457" 
d="M966 655q78 0 78 177v252h246v-261q0 -214 -92 -325t-245 -111q-177 0 -286 226q-52 106 -90.5 164.5t-84.5 58.5q-75 0 -75 -168v-262h-249v274q0 205 92 313.5t248 108.5q191 0 298 -218q54 -110 87.5 -169.5t72.5 -59.5z" />
    <glyph glyph-name="exclamdown" unicode="&#xa1;" horiz-adv-x="1171" 
d="M722 931l43 -931h-342l42 931h257zM380 1352q0 156 206 156t207 -156v-52q-1 -161 -207 -161t-206 161v52z" />
    <glyph glyph-name="cent" unicode="&#xa2;" 
d="M505 -93v266q-162 24 -249.5 135t-87.5 301v279q0 188 90 296t247 132v267h169v-265q155 -20 230 -122.5t94 -283.5l-261 -20q-6 97 -25 146t-60 66v-722q41 13 60.5 58.5t24.5 138.5l261 -20q-9 -177 -77 -274t-247 -114v-264h-169zM439 594q0 -101 19.5 -151t66.5 -67
v737q-47 -15 -66.5 -66t-19.5 -151v-302z" />
    <glyph glyph-name="sterling" unicode="&#xa3;" horiz-adv-x="1318" 
d="M653 566q0 -134 -212 -263l26 -48q63 41 108 40t82 -14q35 -17 69 -37.5t73 -20.5q60 0 81 57t29 191l284 -19q-11 -229 -114 -350t-280 -121q-69 0 -133 33.5t-122 64.5t-109 43t-98 -27l-128 -112l-116 175l151 105q47 41 85 124.5t38 154.5t-24 151h-202v175h125
q-43 97 -43 210q0 199 120.5 314.5t346.5 115.5t338.5 -112.5t123.5 -347.5l-284 -18q-7 123 -45.5 183t-137.5 60t-137 -56.5t-38 -141.5t56 -207h218v-175h-147q16 -64 16 -127z" />
    <glyph glyph-name="currency" unicode="&#xa4;" horiz-adv-x="1312" 
d="M277 579v324q0 96 25 177l-161 218l116 119l141 -184q91 89 256 89t262 -89l143 182l116 -121l-162 -220q22 -86 22 -171v-324q0 -84 -20 -162l156 -216l-115 -119l-136 175q-95 -89 -262.5 -89t-260.5 87l-136 -177l-118 121l159 212q-25 80 -25 168zM534 579
q0 -195 92.5 -195t122 45.5t29.5 149.5v324q0 203 -122 203t-122 -203v-324z" />
    <glyph glyph-name="yen" unicode="&#xa5;" horiz-adv-x="1172" 
d="M1009 186h-279v-186h-285v186h-279v175h279v198h-279v175h203l-332 755h300l259 -724l257 724h281l-330 -755h205v-175h-279v-198h279v-175z" />
    <glyph glyph-name="brokenbar" unicode="&#xa6;" horiz-adv-x="1033" 
d="M402 -372v744h229v-744h-229zM402 745v744h229v-744h-229z" />
    <glyph glyph-name="section" unicode="&#xa7;" horiz-adv-x="1604" 
d="M1303 -24q0 -169 -126.5 -265t-349.5 -96q-140 0 -273 47.5t-217 127.5l69 199q192 -158 428 -158q78 0 136 32.5t58 108.5t-55 118t-202 83q-255 56 -359.5 138t-104.5 206t62.5 191t159.5 98q-222 109 -222 330q0 169 127.5 265t349.5 96q140 0 268 -47.5t223 -127.5
l-85 -192q-198 151 -414 151q-193 0 -193 -149q0 -73 70.5 -116.5t272.5 -91.5t289.5 -129.5t87.5 -222.5q0 -198 -199 -278q199 -107 199 -318zM592 573q0 -119 148 -158q77 -21 107 -30q78 4 124.5 41.5t46.5 109.5t-47.5 113t-120 57t-87.5 20q-171 -9 -171 -153z" />
    <glyph glyph-name="dieresis" unicode="&#xa8;" horiz-adv-x="1033" 
d="M700 1573q138 0 138 -126v-21q0 -69 -39 -95t-99 -26t-100 26q-38 26 -38 95v21q0 126 138 126zM335 1573q138 0 138 -126v-21q0 -69 -39 -95q-40 -26 -100 -26t-98 26t-39 95v21q0 126 138 126z" />
    <glyph glyph-name="copyright" unicode="&#xa9;" horiz-adv-x="1876" 
d="M936 179q-182 0 -263 99.5t-81 287.5v251q0 186 81 284t263 98t270 -90.5t97 -278.5l-247 -11q-6 121 -29 160t-76 39t-77.5 -45.5t-24.5 -151.5v-264q0 -106 25 -152t78 -46t75.5 35.5t28.5 147.5l247 -11q-9 -182 -97 -267t-270 -85zM939 -93q286 0 407 139.5
t121 469.5v339q0 333 -121 474.5t-407 141.5t-407 -141.5t-121 -474.5v-339q0 -330 121 -469.5t407 -139.5zM940.5 -205q-329.5 0 -488 171.5t-158.5 528.5v380q0 361 158.5 534.5t488 173.5t486 -173.5t156.5 -534.5v-380q0 -357 -156.5 -528.5t-486 -171.5z" />
    <glyph glyph-name="ordfeminine" unicode="&#xaa;" 
d="M665 1182q0 155 -114 155q-50 0 -79 -27t-46 -117l-219 41q26 141 108.5 207.5t246.5 66.5t254.5 -73.5t90.5 -241.5v-322q0 -86 37 -104.5t104 -6.5v-177q-97 -19 -170.5 5.5t-112.5 139.5h-35q-35 -69 -111.5 -115.5t-178.5 -46.5t-178 68t-76 192t78.5 191.5
t217.5 67.5h183v97zM419 834q0 -106 84 -106q95 0 162 93v125h-166q-41 0 -60.5 -23.5t-19.5 -88.5z" />
    <glyph glyph-name="guillemotleft" unicode="&#xab;" horiz-adv-x="1604" 
d="M767 121l-566 397v268l566 396v-242l-410 -288l410 -289v-242zM1404 121l-566 397v268l566 396v-242l-410 -288l410 -289v-242z" />
    <glyph glyph-name="logicalnot" unicode="&#xac;" horiz-adv-x="1312" 
d="M918 0v540h-750v229h977v-769h-227z" />
    <glyph glyph-name="registered" unicode="&#xae;" horiz-adv-x="1465" 
d="M996 1007q0 -117 -89 -160l124 -261h-182l-117 237h-58v-237h-168v680h282q93 0 150.5 -51t57.5 -156v-52zM767 936q60 0 60 71v52q0 52 -19 71t-41 19h-93v-213h93zM731.5 356q210.5 0 300 95t89.5 316v302q0 236 -89.5 336.5t-300 100.5t-299 -100.5t-88.5 -336.5v-302
q0 -222 88.5 -316.5t299 -94.5zM733 259q-250 0 -370.5 122t-120.5 377v322q0 266 120 393.5t370 127.5t371.5 -127.5t121.5 -393.5v-322q0 -255 -121 -377t-371 -122z" />
    <glyph glyph-name="macron" unicode="&#x2c9;" horiz-adv-x="1033" 
d="M201 1381v216h633v-216h-633z" />
    <glyph glyph-name="macron" unicode="&#xaf;" horiz-adv-x="1033" 
d="M201 1381v216h633v-216h-633z" />
    <glyph glyph-name="degree" unicode="&#xb0;" horiz-adv-x="893" 
d="M344 970q0 -156 102 -156q51 0 77 35t26 121v175q-1 160 -103 160t-102 -160v-175zM447 620q-145 0 -233.5 82t-88.5 251v209q0 171 88.5 255t234.5 84t234.5 -84t88.5 -255v-209q0 -169 -89.5 -251t-234.5 -82z" />
    <glyph glyph-name="plusminus" unicode="&#xb1;" horiz-adv-x="1312" 
d="M168 2v231h372v489h-372v231h372v536h233v-536h372v-231h-372v-489h372v-231h-977z" />
    <glyph glyph-name="two.sups" unicode="&#xb2;" horiz-adv-x="893" 
d="M121 566v207q0 221 164 266l171 46q48 13 69 39.5t21 83.5v25q0 61 -21.5 87t-78.5 26t-76.5 -29.5t-25.5 -117.5l-214 13q6 143 79.5 216t235.5 73t239 -70t77 -198v-51q0 -106 -43.5 -165.5t-116.5 -78.5l-171 -46q-56 -13 -74.5 -36.5t-18.5 -80.5v-43h432v-166h-648z
" />
    <glyph glyph-name="three.sups" unicode="&#xb3;" horiz-adv-x="893" 
d="M769 819q0 -264 -323 -264t-332 277l216 11q6 -71 29 -98.5t88 -27.5t86.5 26t21.5 84v29q0 61 -19.5 85.5t-77.5 24.5h-171v164h171q47 0 63.5 17.5t16.5 70.5v26q0 54 -22.5 74.5t-73.5 20.5t-71.5 -22.5t-26.5 -80.5l-214 11q7 130 83 192t226 62t231.5 -54t81.5 -177
v-24q0 -152 -123 -175v-34q67 -9 103.5 -59.5t36.5 -137.5v-21z" />
    <glyph glyph-name="acute" unicode="&#xb4;" horiz-adv-x="1033" 
d="M330 1303l145 373h355l-316 -373h-184z" />
    <glyph glyph-name="mu1" unicode="&#xb5;" horiz-adv-x="1318" 
d="M168 1117h284v-739q0 -91 36 -131t85 -40q101 0 153 104v806h285v-789q0 -84 39 -112t129 -9v-205q-136 -30 -215 6q-78 36 -119 150h-41q-66 -175 -212 -177q-86 0 -140 86v-30l15 -409h-312l13 409v1080z" />
    <glyph glyph-name="paragraph" unicode="&#xb6;" horiz-adv-x="1604" 
d="M1011 633h-140v-1005h-285v1005q-153 0 -236.5 95t-83.5 272v97q0 188 83 290t236 102h713v-1861h-287v1005z" />
    <glyph glyph-name="periodcentered" unicode="&#x2219;" horiz-adv-x="1033" 
d="M516 503q-93 0 -152 47.5t-59 140.5v102q0 95 59 143.5t154 48.5t152.5 -48.5t57.5 -143.5v-102q0 -93 -59.5 -140.5t-152.5 -47.5z" />
    <glyph glyph-name="periodcentered" unicode="&#xb7;" horiz-adv-x="1033" 
d="M516 503q-93 0 -152 47.5t-59 140.5v102q0 95 59 143.5t154 48.5t152.5 -48.5t57.5 -143.5v-102q0 -93 -59.5 -140.5t-152.5 -47.5z" />
    <glyph glyph-name="cedilla" unicode="&#xb8;" horiz-adv-x="1033" 
d="M778 -172q0 -112 -83 -175t-225 -63t-224 55t-88 167l239 19q2 -35 16 -50q15 -14 51 -14q36 -1 54 21t18 82t-12 89q-12 28 -49 41l28 78q141 -18 208 -78t67 -172z" />
    <glyph glyph-name="one.sups" unicode="&#xb9;" horiz-adv-x="893" 
d="M192 566v166h190v553h-30q-11 -76 -60.5 -122t-109.5 -50l-9 164q69 9 128.5 65t82.5 147h212v-757h173v-166h-577z" />
    <glyph glyph-name="ordmasculine" unicode="&#xba;" 
d="M590 745q65 0 90.5 42t25.5 136v229q0 89 -25.5 133t-90.5 44t-91 -44.5t-26 -133.5v-228q0 -95 26 -136.5t91 -41.5zM590 566q-151 0 -255 84.5t-104 261.5v244q0 177 104 264.5t256 87.5t254.5 -87.5t102.5 -264.5v-244q0 -177 -103.5 -261.5t-254.5 -84.5z" />
    <glyph glyph-name="guillemotright" unicode="&#xbb;" horiz-adv-x="1604" 
d="M838 121v242l409 289l-409 288v242l566 -396v-268zM201 121v242l410 289l-410 288v242l566 -396v-268z" />
    <glyph glyph-name="onequarter" unicode="&#xbc;" horiz-adv-x="2237" 
d="M2158 227h-130v-227h-216v227h-354v157l314 539h256v-539h130v-157zM1812 384v292l-174 -292h174zM192 566v166h190v553h-30q-10 -76 -60 -122t-110 -50l-9 164q69 9 129 65t82 147h212v-757h173v-166h-577zM726 0l559 1489h227l-559 -1489h-227z" />
    <glyph glyph-name="onehalf" unicode="&#xbd;" horiz-adv-x="2237" 
d="M192 566v166h190v553h-30q-10 -76 -60 -122t-110 -50l-9 164q69 9 129 65t82 147h212v-757h173v-166h-577zM1465 0v207q0 221 164 266l171 46q48 13 68 39t22 84v25q0 61 -22 87t-78 26t-76 -30t-25 -117l-214 13q6 143 79 216q74 73 236 73t238 -70q77 -70 78 -198v-51
q0 -106 -44 -166t-116 -78l-172 -46q-56 -13 -74 -36t-19 -81v-43h432v-166h-648zM726 0l559 1489h227l-559 -1489h-227z" />
    <glyph glyph-name="threequarters" unicode="&#xbe;" horiz-adv-x="2237" 
d="M2158 227h-130v-227h-216v227h-354v157l314 539h256v-539h130v-157zM1812 384v292l-174 -292h174zM726 0l559 1489h227l-559 -1489h-227zM769 819q0 -264 -323 -264t-332 277l216 11q6 -71 28 -99t88 -27q66 0 87 26t22 84v29q0 62 -20 86t-77 24h-171v164h171
q48 0 64 18t16 70v26q0 54 -22 74t-74 20t-71 -22q-20 -22 -27 -80l-214 11q6 129 82 191t226 62t232 -53q82 -54 82 -177v-24q0 -154 -123 -175v-34q67 -9 103 -59t37 -138v-21z" />
    <glyph glyph-name="questiondown" unicode="&#xbf;" horiz-adv-x="1452" 
d="M532 462v-49q0 -112 44 -167.5t150 -55.5t150 58.5t55 218.5l287 -18q-11 -249 -132.5 -358.5t-351.5 -109.5t-358 116.5t-128 297.5v74q0 201 146.5 308.5t515.5 170.5l28 -192q-244 -52 -325 -117.5t-81 -176.5zM586 1352q0 156 208 156t208 -156v-52q0 -161 -208 -161
t-208 161v52z" />
    <glyph glyph-name="Agrave" unicode="&#xc0;" horiz-adv-x="1172" 
d="M814 0l-75 387h-329l-77 -387h-264l329 1489h378l328 -1489h-290zM696 603l-121 630l-124 -630h245zM559 1676l-317 372h356l147 -372h-186z" />
    <glyph glyph-name="Aacute" unicode="&#xc1;" horiz-adv-x="1172" 
d="M814 0l-75 387h-329l-77 -387h-264l329 1489h378l328 -1489h-290zM696 603l-121 630l-124 -630h245zM398 1676l146 372h355l-316 -372h-185z" />
    <glyph glyph-name="Acircumflex" unicode="&#xc2;" horiz-adv-x="1172" 
d="M814 0l-75 387h-329l-77 -387h-264l329 1489h378l328 -1489h-290zM696 603l-121 630l-124 -630h245zM307 1672l-93 130l263 285h217l265 -285l-91 -128l-283 201z" />
    <glyph glyph-name="Atilde" unicode="&#xc3;" horiz-adv-x="1172" 
d="M814 0l-75 387h-329l-77 -387h-264l329 1489h378l328 -1489h-290zM696 603l-121 630l-124 -630h245zM706 1886q57 0 55 138v39h181v-28q0 -155 -60 -248t-161 -93q-103 0 -162 93q-26 41 -44 72t-44 31q-62 0 -58 -136v-41h-182v28q0 156 62 249t171 93q89 1 152 -93
q28 -42 47 -73t43 -31z" />
    <glyph glyph-name="Adieresis" unicode="&#xc4;" horiz-adv-x="1172" 
d="M814 0l-75 387h-329l-77 -387h-264l329 1489h378l328 -1489h-290zM696 603l-121 630l-124 -630h245zM907 1799q0 -122 -138 -122q-61 1 -99 27t-39 95v20q0 127 137 127t139 -127v-20zM542 1799q0 -122 -138 -122q-62 1 -100 27t-38 95v20q0 127 138 127t138 -127v-20z
" />
    <glyph glyph-name="Aring" unicode="&#xc5;" horiz-adv-x="1172" 
d="M814 0l-75 387h-329l-77 -387h-264l329 1489h378l328 -1489h-290zM696 603l-121 630l-124 -630h245zM486 1977v-59q0 -71 25 -101t75 -30q101 0 101 131v59q0 138 -101 136q-100 0 -100 -136zM586 1640q-134 0 -216 68t-81 210v59q0 143 82 213q81 70 215 70t216 -70
t82 -213v-59q0 -142 -82 -210t-216 -68z" />
    <glyph glyph-name="AE" unicode="&#xc6;" horiz-adv-x="1744" 
d="M801 387h-375l-100 -387h-257l423 1489h1083v-216h-490v-363h421v-217h-421v-477h490v-216h-774v387zM801 603v670h-146l-175 -670h321z" />
    <glyph glyph-name="Ccedilla" unicode="&#xc7;" horiz-adv-x="1318" 
d="M940 -172q0 -112 -83 -175t-225 -63t-224 55t-88 167l239 19q2 -35 16 -50q15 -14 51 -14q36 -1 54 21q19 22 18 95t-28 99q-255 4 -379 130t-123 357v546q0 235 126 364q127 129 383 129q255 0 381 -129t135 -392l-284 -19q-9 184 -59 254t-174 70q-123 0 -173 -65
t-51 -233v-508q0 -162 50 -225t174 -63q122 0 173 68q50 69 60 248l284 -19q-14 -408 -323 -492q2 -1 3 -3q67 -60 67 -172z" />
    <glyph glyph-name="Egrave" unicode="&#xc8;" 
d="M168 0v1489h843v-216h-559v-363h488v-217h-488v-477h559v-216h-843zM577 1676l-316 372h355l147 -372h-186z" />
    <glyph glyph-name="Eacute" unicode="&#xc9;" 
d="M168 0v1489h843v-216h-559v-363h488v-217h-488v-477h559v-216h-843zM417 1676l145 372h356l-317 -372h-184z" />
    <glyph glyph-name="Ecircumflex" unicode="&#xca;" 
d="M168 0v1489h843v-216h-559v-363h488v-217h-488v-477h559v-216h-843zM326 1672l-93 130l262 285h218l264 -285l-91 -128l-283 201z" />
    <glyph glyph-name="Edieresis" unicode="&#xcb;" 
d="M168 0v1489h843v-216h-559v-363h488v-217h-488v-477h559v-216h-843zM925 1799q0 -122 -137 -122q-62 1 -100 27t-38 95v20q0 127 138 127t137 -127v-20zM560 1799q0 -122 -137 -122q-61 1 -99 27t-39 95v20q-1 127 137 127t138 -127v-20z" />
    <glyph glyph-name="Igrave" unicode="&#xcc;" 
d="M168 0v216h279v1057h-279v216h843v-216h-279v-1057h279v-216h-843zM562 1676l-316 372h355l147 -372h-186z" />
    <glyph glyph-name="Iacute" unicode="&#xcd;" 
d="M168 0v216h279v1057h-279v216h843v-216h-279v-1057h279v-216h-843zM402 1676l145 372h356l-317 -372h-184z" />
    <glyph glyph-name="Icircumflex" unicode="&#xce;" 
d="M168 0v216h279v1057h-279v216h843v-216h-279v-1057h279v-216h-843zM311 1672l-93 130l262 285h218l265 -285l-92 -128l-283 201z" />
    <glyph glyph-name="Idieresis" unicode="&#xcf;" 
d="M168 0v216h279v1057h-279v216h843v-216h-279v-1057h279v-216h-843zM910 1799q0 -122 -137 -122q-61 1 -99 27t-39 95v20q-1 127 137 127t138 -127v-20zM546 1799q0 -122 -138 -122q-62 1 -100 27t-38 95v20q0 127 137 127t139 -127v-20z" />
    <glyph glyph-name="Eth" unicode="&#xd0;" horiz-adv-x="1318" 
d="M452 216h181q128 0 180.5 66t52.5 232v454q0 169 -52.5 237t-180.5 68h-181v-357h209v-192h-209v-508zM168 0v724h-140v192h140v573h495q229 0 358.5 -136.5t129.5 -365.5v-492q0 -227 -130.5 -361t-359.5 -134h-493z" />
    <glyph glyph-name="Ntilde" unicode="&#xd1;" horiz-adv-x="1318" 
d="M410 0h-242v1489h383l358 -1063v1063h242v-1489h-376l-365 1138v-1138zM836 1886q56 0 56 138v39h180v-28q0 -155 -60 -248t-161 -93q-103 0 -162 93q-26 41 -44 72t-44 31q-61 0 -57 -136v-41h-183v28q1 156 63 249t170 93q89 1 152 -93q28 -42 47 -73t43 -31z" />
    <glyph glyph-name="Ograve" unicode="&#xd2;" horiz-adv-x="1318" 
d="M452 492q0 -166 46 -230t162 -65q116 1 161 65t45 230v504q0 166 -45 231t-161 65t-162 -65t-46 -231v-504zM1151 475q0 -233 -127 -363t-364 -131q-237 1 -365 131t-127 363v540q0 233 127 363q128 130 366 130t364 -130t126 -363v-540zM633 1676l-316 372h355l147 -372
h-186z" />
    <glyph glyph-name="Oacute" unicode="&#xd3;" horiz-adv-x="1318" 
d="M452 492q0 -166 46 -230t162 -65q116 1 161 65t45 230v504q0 166 -45 231t-161 65t-162 -65t-46 -231v-504zM1151 475q0 -233 -127 -363t-364 -131q-237 1 -365 131t-127 363v540q0 233 127 363q128 130 366 130t364 -130t126 -363v-540zM473 1676l145 372h356l-317 -372
h-184z" />
    <glyph glyph-name="Ocircumflex" unicode="&#xd4;" horiz-adv-x="1318" 
d="M452 492q0 -166 46 -230t162 -65q116 1 161 65t45 230v504q0 166 -45 231t-161 65t-162 -65t-46 -231v-504zM1151 475q0 -233 -127 -363t-364 -131q-237 1 -365 131t-127 363v540q0 233 127 363q128 130 366 130t364 -130t126 -363v-540zM382 1672l-93 130l262 285h218
l264 -285l-91 -128l-283 201z" />
    <glyph glyph-name="Otilde" unicode="&#xd5;" horiz-adv-x="1318" 
d="M452 492q0 -166 46 -230t162 -65q116 1 161 65t45 230v504q0 166 -45 231t-161 65t-162 -65t-46 -231v-504zM1151 475q0 -233 -127 -363t-364 -131q-237 1 -365 131t-127 363v540q0 233 127 363q128 130 366 130t364 -130t126 -363v-540zM780 1886q56 0 56 138v39h181
v-28q0 -155 -60 -248t-162 -93q-103 0 -162 93q-26 41 -44 72t-43 31q-62 0 -58 -136v-41h-183v28q1 156 63 249t170 93q89 1 152 -93q28 -42 47 -73t43 -31z" />
    <glyph glyph-name="Odieresis" unicode="&#xd6;" horiz-adv-x="1318" 
d="M452 492q0 -166 46 -230t162 -65q116 1 161 65t45 230v504q0 166 -45 231t-161 65t-162 -65t-46 -231v-504zM1151 475q0 -233 -127 -363t-364 -131q-237 1 -365 131t-127 363v540q0 233 127 363q128 130 366 130t364 -130t126 -363v-540zM981 1799q0 -122 -138 -122
q-61 1 -99 27t-38 95v20q0 127 138 127t137 -127v-20zM616 1799q0 -122 -138 -122q-61 1 -99 27t-38 95v20q-1 127 137 127t138 -127v-20z" />
    <glyph glyph-name="multiply" unicode="&#xd7;" horiz-adv-x="1312" 
d="M359 56l-149 138l322 459l-322 459l149 137l298 -432l300 429l145 -138l-322 -455l322 -456l-147 -137l-298 428z" />
    <glyph glyph-name="Oslash" unicode="&#xd8;" horiz-adv-x="1318" 
d="M1151 1015v-546q0 -227 -126 -357.5t-364 -130.5q-67 0 -123 12l-58 -179h-199l84 242q-197 122 -197 413v546q0 229 126.5 361t366.5 132q37 0 121 -9l58 177h199l-78 -246q190 -122 190 -415zM866 486v510q0 74 -19 114l-257 -905q30 -8 71 -8q115 0 160 63.5t45 225.5
zM661 1292q-117 0 -163 -64t-46 -232v-510q0 -102 21 -155l259 952q-34 9 -71 9z" />
    <glyph glyph-name="Ugrave" unicode="&#xd9;" horiz-adv-x="1318" 
d="M1151 478q-1 -255 -121 -376t-371 -121t-371 121t-120 376v1011h284v-1003q0 -155 47 -217t161 -62t160 62t46 217v1003h285v-1011zM633 1676l-316 372h355l147 -372h-186z" />
    <glyph glyph-name="Uacute" unicode="&#xda;" horiz-adv-x="1318" 
d="M1151 478q-1 -255 -121 -376t-371 -121t-371 121t-120 376v1011h284v-1003q0 -155 47 -217t161 -62t160 62t46 217v1003h285v-1011zM473 1676l145 372h356l-317 -372h-184z" />
    <glyph glyph-name="Ucircumflex" unicode="&#xdb;" horiz-adv-x="1318" 
d="M1151 478q-1 -255 -121 -376t-371 -121t-371 121t-120 376v1011h284v-1003q0 -155 47 -217t161 -62t160 62t46 217v1003h285v-1011zM382 1672l-93 130l262 285h218l264 -285l-91 -128l-283 201z" />
    <glyph glyph-name="Udieresis" unicode="&#xdc;" horiz-adv-x="1318" 
d="M1151 478q-1 -255 -121 -376t-371 -121t-371 121t-120 376v1011h284v-1003q0 -155 47 -217t161 -62t160 62t46 217v1003h285v-1011zM981 1799q0 -122 -138 -122q-61 1 -99 27t-38 95v20q0 127 138 127t137 -127v-20zM616 1799q0 -122 -138 -122q-61 1 -99 27t-38 95v20
q-1 127 137 127t138 -127v-20z" />
    <glyph glyph-name="Yacute" unicode="&#xdd;" 
d="M732 0h-285v559l-406 930h298l257 -692l260 692h282l-406 -930v-559zM402 1676l145 372h356l-317 -372h-184z" />
    <glyph glyph-name="Thorn" unicode="&#xde;" 
d="M452 469h146q86 0 128.5 50.5t42.5 161.5v149q0 112 -43 160.5t-128 48.5h-146v-570zM168 0v1489h284v-234h192q194 0 302 -107t108 -310v-170q0 -201 -107 -307t-303 -106h-192v-255h-284z" />
    <glyph glyph-name="germandbls" unicode="&#xdf;" horiz-adv-x="1465" 
d="M452 1005v-1005h-284v1030q0 222 135 348t365 126t368.5 -128.5t138.5 -332.5v-101q-179 2 -256 -29t-77 -103t42.5 -103t182.5 -69t206 -110t66 -214t-106 -233.5t-285 -91.5q-110 0 -212.5 38t-175.5 105l58 175q166 -130 341 -130q125 0 125 86.5t-37.5 117
t-134.5 57.5q-182 47 -254 118.5t-72 209.5t82 228t235 103q-24 195 -231 195q-106 0 -163 -72.5t-57 -214.5z" />
    <glyph glyph-name="agrave" unicode="&#xe0;" horiz-adv-x="1318" 
d="M817 153q-113 -172 -343 -172q-128 0 -211 86q-81 87 -81 237t88 233t240 83h231v168q0 152 -138 152q-71 0 -105 -38t-51 -148l-244 47q61 335 428 335q190 0 292 -80t103 -257v-479q0 -86 43 -108t124 -5v-205q-127 -28 -215 3t-116 148h-45zM557 460q-103 0 -103 -146
t112 -145q117 0 175 92v199h-184zM590 1303l-316 373h355l147 -373h-186z" />
    <glyph glyph-name="aacute" unicode="&#xe1;" horiz-adv-x="1318" 
d="M817 153q-113 -172 -343 -172q-128 0 -211 86q-81 87 -81 237t88 233t240 83h231v168q0 152 -138 152q-71 0 -105 -38t-51 -148l-244 47q61 335 428 335q190 0 292 -80t103 -257v-479q0 -86 43 -108t124 -5v-205q-127 -28 -215 3t-116 148h-45zM557 460q-103 0 -103 -146
t112 -145q117 0 175 92v199h-184zM430 1303l145 373h356l-317 -373h-184z" />
    <glyph glyph-name="acircumflex" unicode="&#xe2;" horiz-adv-x="1318" 
d="M817 153q-113 -172 -343 -172q-128 0 -211 86q-81 87 -81 237t88 233t240 83h231v168q0 152 -138 152q-71 0 -105 -38t-51 -148l-244 47q61 335 428 335q190 0 292 -80t103 -257v-479q0 -86 43 -108t124 -5v-205q-127 -28 -215 3t-116 148h-45zM557 460q-103 0 -103 -146
t112 -145q117 0 175 92v199h-184zM339 1300l-93 130l262 285h218l264 -285l-91 -129l-283 201z" />
    <glyph glyph-name="atilde" unicode="&#xe3;" horiz-adv-x="1318" 
d="M817 153q-113 -172 -343 -172q-128 0 -211 86q-81 87 -81 237t88 233t240 83h231v168q0 152 -138 152q-71 0 -105 -38t-51 -148l-244 47q61 335 428 335q190 0 292 -80t103 -257v-479q0 -86 43 -108t124 -5v-205q-127 -28 -215 3t-116 148h-45zM557 460q-103 0 -103 -146
t112 -145q117 0 175 92v199h-184zM793 1651v40h181v-28q0 -155 -60 -248t-162 -93q-103 0 -162 93q-26 41 -44 72t-43 30q-62 0 -58 -136v-40h-182v27q0 156 62 250t170 93q54 0 96 -31t103 -136q19 -31 43 -30q56 0 56 137z" />
    <glyph glyph-name="adieresis" unicode="&#xe4;" horiz-adv-x="1318" 
d="M817 153q-113 -172 -343 -172q-128 0 -211 86q-81 87 -81 237t88 233t240 83h231v168q0 152 -138 152q-71 0 -105 -38t-51 -148l-244 47q61 335 428 335q190 0 292 -80t103 -257v-479q0 -86 43 -108t124 -5v-205q-127 -28 -215 3t-116 148h-45zM557 460q-103 0 -103 -146
t112 -145q117 0 175 92v199h-184zM663 1447q-1 126 137 126t138 -126v-21q0 -69 -38 -95t-100 -26q-60 0 -99 26q-38 26 -38 95v21zM298 1447q0 126 138 126t137 -126v-21q-1 -69 -39 -95t-98 -26t-100 26q-38 26 -38 95v21z" />
    <glyph glyph-name="aring" unicode="&#xe5;" horiz-adv-x="1318" 
d="M817 153q-113 -172 -343 -172q-128 0 -211 86q-81 87 -81 237t88 233t240 83h231v168q0 152 -138 152q-71 0 -105 -38t-51 -148l-244 47q61 335 428 335q190 0 292 -80t103 -257v-479q0 -86 43 -108t124 -5v-205q-127 -28 -215 3t-116 148h-45zM557 460q-103 0 -103 -146
t112 -145q117 0 175 92v199h-184zM518 1545q0 -130 100 -130t101 130v60q-1 136 -101 136t-100 -136v-60zM618 1268q-134 0 -216 68t-82 209v60q0 143 82 213t216 70t216 -70t82 -213v-60q0 -141 -82 -209t-216 -68z" />
    <glyph glyph-name="ae" unicode="&#xe6;" horiz-adv-x="1597" 
d="M523 169q84 0 147 84v207h-121q-110 0 -110 -147q0 -74 19 -109t65 -35zM957 765v-98h203v81q0 106 -20.5 154t-82 48t-81 -45t-19.5 -140zM957 322q1 -149 117 -149q62 0 90.5 28t40.5 102l225 -27q-37 -162 -126.5 -228.5t-225.5 -66.5q-217 0 -292 162h-38
q-91 -162 -284 -162q-119 0 -207.5 77.5t-88.5 236.5t95.5 242t265.5 83h141v162q0 149 -100 149q-52 0 -76.5 -31t-44.5 -125l-261 46q32 160 115.5 237.5t263.5 77.5t258 -119q93 119 257 119q163 0 255.5 -104.5t92.5 -292.5v-234h-473v-183z" />
    <glyph glyph-name="ccedilla" unicode="&#xe7;" 
d="M845 -172q0 -112 -83 -175t-225 -63t-224 55t-88 167l239 19q2 -35 16 -50q14 -14 50 -14q36 -1 55 21t18 95t-28 99q-199 4 -303 104t-104 286v367q0 199 109 298q110 99 316 99q415 0 433 -388l-274 -18q-7 110 -40 153q-34 43 -114 43t-113 -42q-33 -41 -33 -147v-357
q0 -106 33 -148t115 -42t114 40q33 40 38 146l274 -19q-14 -284 -252 -353l4 -4q67 -60 67 -172z" />
    <glyph glyph-name="egrave" unicode="&#xe8;" 
d="M452 737v-70h274v61q0 123 -31 172q-31 50 -105 50t-106 -48t-32 -165zM566 -19q-178 1 -288 107q-111 106 -110 292v359q0 186 112 292q113 105 310 105t309 -108t112 -298v-225h-559v-125q0 -117 34 -162t112 -45t113 32t64 113l232 -65q-39 -130 -151 -201t-290 -71z
M568 1303l-317 373h356l147 -373h-186z" />
    <glyph glyph-name="eacute" unicode="&#xe9;" 
d="M452 737v-70h274v61q0 123 -31 172q-31 50 -105 50t-106 -48t-32 -165zM566 -19q-178 1 -288 107q-111 106 -110 292v359q0 186 112 292q113 105 310 105t309 -108t112 -298v-225h-559v-125q0 -117 34 -162t112 -45t113 32t64 113l232 -65q-39 -130 -151 -201t-290 -71z
M408 1303l145 373h356l-317 -373h-184z" />
    <glyph glyph-name="ecircumflex" unicode="&#xea;" 
d="M452 737v-70h274v61q0 123 -31 172q-31 50 -105 50t-106 -48t-32 -165zM566 -19q-178 1 -288 107q-111 106 -110 292v359q0 186 112 292q113 105 310 105t309 -108t112 -298v-225h-559v-125q0 -117 34 -162t112 -45t113 32t64 113l232 -65q-39 -130 -151 -201t-290 -71z
M317 1300l-94 130l263 285h218l264 -285l-91 -129l-283 201z" />
    <glyph glyph-name="edieresis" unicode="&#xeb;" 
d="M452 737v-70h274v61q0 123 -31 172q-31 50 -105 50t-106 -48t-32 -165zM566 -19q-178 1 -288 107q-111 106 -110 292v359q0 186 112 292q113 105 310 105t309 -108t112 -298v-225h-559v-125q0 -117 34 -162t112 -45t113 32t64 113l232 -65q-39 -130 -151 -201t-290 -71z
M778 1573q138 0 138 -126v-21q0 -69 -39 -95t-99 -26t-99 26q-38 26 -39 95v21q0 126 138 126zM276 1447q0 126 138 126t137 -126v-21q0 -69 -39 -95q-40 -26 -100 -26t-98 26t-38 95v21z" />
    <glyph glyph-name="igrave" unicode="&#xec;" horiz-adv-x="754" 
d="M235 0v1117h286v-1117h-286zM350 1303l-316 373h355l147 -373h-186z" />
    <glyph glyph-name="iacute" unicode="&#xed;" horiz-adv-x="754" 
d="M235 0v1117h286v-1117h-286zM190 1303l145 373h356l-317 -373h-184z" />
    <glyph glyph-name="icircumflex" unicode="&#xee;" horiz-adv-x="754" 
d="M235 0v1117h286v-1117h-286zM99 1300l-93 130l262 285h218l264 -285l-91 -129l-283 201z" />
    <glyph glyph-name="idieresis" unicode="&#xef;" horiz-adv-x="754" 
d="M235 0v1117h286v-1117h-286zM423 1447q-1 126 137 126t138 -126v-21q0 -69 -39 -95t-99 -26t-99 26q-38 26 -38 95v21zM58 1447q0 126 138 126t137 -126v-21q0 -69 -39 -95q-40 -26 -100 -26t-98 26t-38 95v21z" />
    <glyph glyph-name="eth" unicode="&#xf0;" 
d="M590 190q72 0 104 52t32 158v129q0 99 -32 145.5t-104 46.5t-103 -47t-31 -145v-129q0 -106 31 -158t103 -52zM1011 694v-271q0 -225 -114.5 -333.5t-307.5 -108.5t-307 107t-114 323v131q0 179 88 284t230 105q88 0 144.5 -41t76.5 -97h30q-13 211 -126 345l-233 -140
v164l119 72q-79 59 -234 118l180 177q182 -62 292 -151l201 119v-164l-94 -58q169 -196 169 -581z" />
    <glyph glyph-name="ntilde" unicode="&#xf1;" 
d="M629 914q-107 0 -177 -143v-771h-284v1117h284v-156h41q30 83 101 129t175 46t173 -93t69 -255v-788h-285v745q0 169 -97 169zM793 1651v40h181v-28q0 -155 -60 -248t-162 -93q-103 0 -162 93q-26 41 -44 72t-43 30q-62 0 -58 -136v-40h-182v27q0 156 62 250t170 93
q54 0 96 -31t103 -136q19 -31 43 -30q56 0 56 137z" />
    <glyph glyph-name="ograve" unicode="&#xf2;" 
d="M590 190q74 0 105 46t31 155v337q0 106 -31 153t-105 47t-106 -48q-32 -46 -32 -154v-335q0 -109 32 -155t106 -46zM1011 384q0 -188 -113 -296t-309 -107q-196 0 -309 107t-112 296v344q0 190 113 299t309 109t308 -109t113 -299v-344zM562 1303l-316 373h355l147 -373
h-186z" />
    <glyph glyph-name="oacute" unicode="&#xf3;" 
d="M590 190q74 0 105 46t31 155v337q0 106 -31 153t-105 47t-106 -48q-32 -46 -32 -154v-335q0 -109 32 -155t106 -46zM1011 384q0 -188 -113 -296t-309 -107q-196 0 -309 107t-112 296v344q0 190 113 299t309 109t308 -109t113 -299v-344zM402 1303l145 373h356l-317 -373
h-184z" />
    <glyph glyph-name="ocircumflex" unicode="&#xf4;" 
d="M590 190q74 0 105 46t31 155v337q0 106 -31 153t-105 47t-106 -48q-32 -46 -32 -154v-335q0 -109 32 -155t106 -46zM1011 384q0 -188 -113 -296t-309 -107q-196 0 -309 107t-112 296v344q0 190 113 299t309 109t308 -109t113 -299v-344zM311 1300l-93 130l262 285h218
l265 -285l-92 -129l-283 201z" />
    <glyph glyph-name="otilde" unicode="&#xf5;" 
d="M590 190q74 0 105 46t31 155v337q0 106 -31 153t-105 47t-106 -48q-32 -46 -32 -154v-335q0 -109 32 -155t106 -46zM1011 384q0 -188 -113 -296t-309 -107q-196 0 -309 107t-112 296v344q0 190 113 299t309 109t308 -109t113 -299v-344zM765 1651v40h181v-28
q0 -155 -60 -248t-162 -93t-161 93q-26 41 -44 72t-44 30q-62 0 -58 -136v-40h-182v27q0 156 62 250t170 93q90 0 153 -94q28 -42 47 -73t42 -30q56 0 56 137z" />
    <glyph glyph-name="odieresis" unicode="&#xf6;" 
d="M590 190q74 0 105 46t31 155v337q0 106 -31 153t-105 47t-106 -48q-32 -46 -32 -154v-335q0 -109 32 -155t106 -46zM1011 384q0 -188 -113 -296t-309 -107q-196 0 -309 107t-112 296v344q0 190 113 299t309 109t308 -109t113 -299v-344zM635 1447q-1 126 137 126
t138 -126v-21q0 -69 -38 -95t-100 -26q-60 0 -99 26q-38 26 -38 95v21zM546 1426q0 -121 -138 -121q-61 0 -100 26q-38 26 -38 95v21q0 126 137 126t139 -126v-21z" />
    <glyph glyph-name="divide" unicode="&#xf7;" horiz-adv-x="1312" 
d="M656 37q-64 0 -105 31t-41 98v35q0 69 41 101.5t105 32.5t104.5 -32.5t40.5 -101.5v-35q0 -67 -40.5 -98t-104.5 -31zM168 546v214h977v-214h-977zM656 968q-64 0 -105 31t-41 98v35q0 69 41 101.5t105 32.5t104.5 -32.5t40.5 -101.5v-35q0 -67 -40.5 -98t-104.5 -31z
" />
    <glyph glyph-name="oslash" unicode="&#xf8;" 
d="M1011 717v-324q0 -199 -113 -305.5t-308 -106.5q-65 0 -121 12l-74 -179h-170l97 240q-154 108 -154 339v324q0 203 113.5 311t310.5 108q69 0 121 -13l71 180h169l-95 -242q153 -108 153 -344zM756 406v307q0 68 -15 119l-220 -640q22 -10 69 -10q91 0 128.5 50.5
t37.5 173.5zM590 935q-91 0 -128.5 -50.5t-37.5 -173.5v-305q0 -83 14 -125l227 642q-30 12 -75 12z" />
    <glyph glyph-name="ugrave" unicode="&#xf9;" 
d="M551 203q107 0 175 143v771h285v-1117h-285v156h-41q-26 -82 -96 -128t-161 -47q-123 0 -192 94t-68 256v786h284v-745q0 -169 99 -169zM564 1303l-316 373h355l147 -373h-186z" />
    <glyph glyph-name="uacute" unicode="&#xfa;" 
d="M551 203q107 0 175 143v771h285v-1117h-285v156h-41q-26 -82 -96 -128t-161 -47q-123 0 -192 94t-68 256v786h284v-745q0 -169 99 -169zM400 1303l146 373h355l-316 -373h-185z" />
    <glyph glyph-name="ucircumflex" unicode="&#xfb;" 
d="M551 203q107 0 175 143v771h285v-1117h-285v156h-41q-26 -82 -96 -128t-161 -47q-123 0 -192 94t-68 256v786h284v-745q0 -169 99 -169zM311 1300l-93 130l262 285h218l265 -285l-92 -129l-283 201z" />
    <glyph glyph-name="udieresis" unicode="&#xfc;" 
d="M551 203q107 0 175 143v771h285v-1117h-285v156h-41q-26 -82 -96 -128t-161 -47q-123 0 -192 94t-68 256v786h284v-745q0 -169 99 -169zM635 1447q-1 126 137 126t138 -126v-21q0 -69 -38 -95t-100 -26q-60 0 -99 26q-38 26 -38 95v21zM546 1426q0 -121 -138 -121
q-61 0 -100 26q-38 26 -38 95v21q0 126 137 126t139 -126v-21z" />
    <glyph glyph-name="yacute" unicode="&#xfd;" horiz-adv-x="1038" 
d="M281 -181q112 -1 156 49t62 143l4 23h-201l-241 1083h280l190 -935l175 935h270l-226 -1147q-40 -190 -142 -274t-271 -85q-90 0 -257 20l13 209q135 -21 188 -21zM331 1303l146 373h355l-316 -373h-185z" />
    <glyph glyph-name="thorn" unicode="&#xfe;" 
d="M652 -15q-115 0 -200 49v-406h-284v1861h284v-528h41q24 82 92 128.5t162 46.5q136 0 200 -104.5t64 -275.5v-385q0 -184 -94 -285t-265 -101zM593 192q74 0 103.5 41t29.5 139v369q0 89 -26 131t-84 42q-95 0 -164 -113v-550q67 -59 141 -59z" />
    <glyph glyph-name="ydieresis" unicode="&#xff;" horiz-adv-x="1038" 
d="M281 -181q112 -1 156 49t62 143l4 23h-201l-241 1083h280l190 -935l175 935h270l-226 -1147q-40 -190 -142 -274t-271 -85q-90 0 -257 20l13 209q135 -21 188 -21zM564 1447q0 126 137 126t139 -126v-21q0 -69 -39 -95t-99 -26t-100 26q-38 26 -38 95v21zM337 1573
q138 0 138 -126v-21q0 -69 -39 -95q-40 -26 -100 -26t-99 26q-38 26 -38 95v21q0 126 138 126z" />
    <glyph glyph-name="Amacron" unicode="&#x100;" horiz-adv-x="1172" 
d="M814 0l-75 387h-329l-77 -387h-264l329 1489h378l328 -1489h-290zM696 603l-121 630l-124 -630h245zM270 1754v216h633v-216h-633z" />
    <glyph glyph-name="amacron" unicode="&#x101;" horiz-adv-x="1318" 
d="M817 153q-113 -172 -343 -172q-128 0 -211 86q-81 87 -81 237t88 233t240 83h231v168q0 152 -138 152q-71 0 -105 -38t-51 -148l-244 47q61 335 428 335q190 0 292 -80t103 -257v-479q0 -86 43 -108t124 -5v-205q-127 -28 -215 3t-116 148h-45zM557 460q-103 0 -103 -146
t112 -145q117 0 175 92v199h-184zM302 1381v216h633v-216h-633z" />
    <glyph glyph-name="Abreve" unicode="&#x102;" horiz-adv-x="1172" 
d="M814 0l-75 387h-329l-77 -387h-264l329 1489h378l328 -1489h-290zM696 603l-121 630l-124 -630h245zM586 1663q-188 0 -281 102t-95 313h228q2 -134 34 -185q32 -50 114 -50t115 50t34 185h228q-2 -210 -95 -313q-94 -102 -282 -102z" />
    <glyph glyph-name="abreve" unicode="&#x103;" horiz-adv-x="1318" 
d="M817 153q-113 -172 -343 -172q-128 0 -211 86q-81 87 -81 237t88 233t240 83h231v168q0 152 -138 152q-71 0 -105 -38t-51 -148l-244 47q61 335 428 335q190 0 292 -80t103 -257v-479q0 -86 43 -108t124 -5v-205q-127 -28 -215 3t-116 148h-45zM557 460q-103 0 -103 -146
t112 -145q117 0 175 92v199h-184zM618 1471q82 0 115 50t34 184h227q-4 -415 -376 -415q-188 0 -281 102t-95 313h227q2 -134 35 -184q32 -50 114 -50z" />
    <glyph glyph-name="Aogonek" unicode="&#x104;" horiz-adv-x="1172" 
d="M696 603l-121 630l-124 -630h245zM672 -179q0 140 130 238l-63 328h-329l-77 -387h-264l329 1489h378l328 -1489h-205q-30 -49 -30 -115q0 -99 107 -99q43 0 134 19v-192q-121 -21 -183 -21q-121 0 -188 60t-67 169z" />
    <glyph glyph-name="aogonek" unicode="&#x105;" horiz-adv-x="1318" 
d="M817 153q-113 -172 -343 -172q-128 0 -211 86q-81 87 -81 237t88 233t240 83h231v168q0 152 -138 152q-71 0 -105 -38t-51 -148l-244 47q61 335 428 335q190 0 292 -80t103 -257v-479q0 -86 43 -108t124 -5v-205q-121 -27 -207 0q-31 -48 -31 -108t25 -84t76 -24t139 19
v-192q-121 -21 -182 -21q-121 0 -188 60t-67 162q0 155 140 252q-24 35 -36 87h-45zM557 460q-103 0 -103 -146t112 -145q117 0 175 92v199h-184z" />
    <glyph glyph-name="Cacute" unicode="&#x106;" horiz-adv-x="1318" 
d="M168 1015q0 235 126 364q127 129 383 129q255 0 381 -129t135 -392l-284 -19q-9 184 -59 254t-174 70q-123 0 -173 -65t-51 -233v-508q0 -162 50 -225t174 -63q122 0 173 68q50 69 60 248l284 -19q-18 -514 -504 -514q-270 0 -396 128t-125 360v546zM492 1676l145 372
h355l-316 -372h-184z" />
    <glyph glyph-name="cacute" unicode="&#x107;" 
d="M594 -19q-212 1 -319 103t-107 288v367q0 199 109 298q110 99 316 99q415 0 433 -388l-274 -18q-7 110 -40 153q-34 43 -114 43t-113 -42q-33 -41 -33 -147v-357q0 -106 33 -148t115 -42t114 40q33 40 38 146l274 -19q-18 -376 -432 -376zM397 1303l145 373h355
l-316 -373h-184z" />
    <glyph glyph-name="Ccircumflex" unicode="&#x108;" horiz-adv-x="1318" 
d="M168 1015q0 235 126 364q127 129 383 129q255 0 381 -129t135 -392l-284 -19q-9 184 -59 254t-174 70q-123 0 -173 -65t-51 -233v-508q0 -162 50 -225t174 -63q122 0 173 68q50 69 60 248l284 -19q-18 -514 -504 -514q-270 0 -396 128t-125 360v546zM400 1672l-93 130
l263 285h218l264 -285l-91 -128l-283 201z" />
    <glyph glyph-name="ccircumflex" unicode="&#x109;" 
d="M594 -19q-212 1 -319 103t-107 288v367q0 199 109 298q110 99 316 99q415 0 433 -388l-274 -18q-7 110 -40 153q-34 43 -114 43t-113 -42q-33 -41 -33 -147v-357q0 -106 33 -148t115 -42t114 40q33 40 38 146l274 -19q-18 -376 -432 -376zM303 1300l-93 130l263 285h218
l264 -285l-91 -129l-283 201z" />
    <glyph glyph-name="Cdotaccent" unicode="&#x10a;" horiz-adv-x="1318" 
d="M168 1015q0 235 126 364q127 129 383 129q255 0 381 -129t135 -392l-284 -19q-9 184 -59 254t-174 70q-123 0 -173 -65t-51 -233v-508q0 -162 50 -225t174 -63q122 0 173 68q50 69 60 248l284 -19q-18 -514 -504 -514q-270 0 -396 128t-125 360v546zM497 1819
q1 127 183 127t182 -127v-20q0 -69 -51 -95t-131 -27q-80 1 -132 27t-51 95v20z" />
    <glyph glyph-name="cdotaccent" unicode="&#x10b;" 
d="M594 -19q-212 1 -319 103t-107 288v367q0 199 109 298q110 99 316 99q415 0 433 -388l-274 -18q-7 110 -40 153q-34 43 -114 43t-113 -42q-33 -41 -33 -147v-357q0 -106 33 -148t115 -42t114 40q33 40 38 146l274 -19q-18 -376 -432 -376zM400 1447q0 126 182 126
t183 -126v-21q0 -69 -51 -95t-131 -26t-132 26q-51 26 -51 95v21z" />
    <glyph glyph-name="Ccaron" unicode="&#x10c;" horiz-adv-x="1318" 
d="M168 1015q0 235 126 364q127 129 383 129q255 0 381 -129t135 -392l-284 -19q-9 184 -59 254t-174 70q-123 0 -173 -65t-51 -233v-508q0 -162 50 -225t174 -63q122 0 173 68q50 69 60 248l284 -19q-18 -514 -504 -514q-270 0 -396 128t-125 360v546zM572 1683l-265 285
l91 130l283 -201l278 201l93 -130l-263 -285h-217z" />
    <glyph glyph-name="ccaron" unicode="&#x10d;" 
d="M594 -19q-212 1 -319 103t-107 288v367q0 199 109 298q110 99 316 99q415 0 433 -388l-274 -18q-7 110 -40 153q-34 43 -114 43t-113 -42q-33 -41 -33 -147v-357q0 -106 33 -148t115 -42t114 40q33 40 38 146l274 -19q-18 -376 -432 -376zM475 1311l-265 285l92 130
l283 -201l277 201l93 -130l-262 -285h-218z" />
    <glyph glyph-name="Dcaron" unicode="&#x10e;" horiz-adv-x="1318" 
d="M452 216h181q128 0 181 66q52 66 52 232v454q0 170 -52 238t-181 67h-181v-1057zM168 0v1489h495q229 -1 358 -137t130 -365v-492q-1 -227 -131 -361t-359 -134h-493zM553 1683l-264 285l91 130l283 -201l277 201l93 -130l-262 -285h-218z" />
    <glyph glyph-name="dcaron" unicode="&#x10f;" 
d="M529 1132q111 0 197 -48v405h285v-1489h-285v169h-41q-50 -187 -270 -187q-110 0 -179 100q-69 101 -68 279v386q0 182 95 284q96 101 266 101zM452 378q0 -173 110 -173q97 0 164 125v536q-78 61 -143 61q-131 0 -131 -182v-367zM1147 1313l69 549h352l-263 -549h-158z
" />
    <glyph glyph-name="Dcroat" unicode="&#x110;" horiz-adv-x="1318" 
d="M452 216h181q128 0 180.5 66t52.5 232v454q0 169 -52.5 237t-180.5 68h-181v-357h209v-192h-209v-508zM168 0v724h-140v192h140v573h495q229 0 358.5 -136.5t129.5 -365.5v-492q0 -227 -130.5 -361t-359.5 -134h-493z" />
    <glyph glyph-name="dcroat" unicode="&#x111;" 
d="M529 1022q111 0 197 -48v175h-234v165h234v175h285v-175h140v-165h-140v-1149h-285v182h-41q-26 -93 -95 -147t-162 -54q-121 0 -190.5 104.5t-69.5 285.5v240q0 190 96.5 300.5t264.5 110.5zM583 817q-131 0 -131 -208v-194q0 -108 26 -159t84 -51q84 0 164 138v415
q-81 59 -143 59z" />
    <glyph glyph-name="Emacron" unicode="&#x112;" 
d="M168 0v1489h843v-216h-559v-363h488v-217h-488v-477h559v-216h-843zM289 1754v216h633v-216h-633z" />
    <glyph glyph-name="emacron" unicode="&#x113;" 
d="M452 737v-70h274v61q0 123 -31 172q-31 50 -105 50t-106 -48t-32 -165zM566 -19q-178 1 -288 107q-111 106 -110 292v359q0 186 112 292q113 105 310 105t309 -108t112 -298v-225h-559v-125q0 -117 34 -162t112 -45t113 32t64 113l232 -65q-39 -130 -151 -201t-290 -71z
M279 1381v216h633v-216h-633z" />
    <glyph glyph-name="Ebreve" unicode="&#x114;" 
d="M168 0v1489h843v-216h-559v-363h488v-217h-488v-477h559v-216h-843zM605 1663q-188 0 -281 102t-95 313h227q2 -134 35 -184t115 -51q82 0 114 50q33 50 34 185h227q-2 -210 -95 -312t-281 -103z" />
    <glyph glyph-name="ebreve" unicode="&#x115;" 
d="M452 737v-70h274v61q0 123 -31 172q-31 50 -105 50t-106 -48t-32 -165zM566 -19q-178 1 -288 107q-111 106 -110 292v359q0 186 112 292q113 105 310 105t309 -108t112 -298v-225h-559v-125q0 -117 34 -162t112 -45t113 32t64 113l232 -65q-39 -130 -151 -201t-290 -71z
M596 1471q82 0 114 50t35 184h227q-4 -415 -376 -415q-188 0 -281 102t-95 313h227q3 -134 35 -184t114 -50z" />
    <glyph glyph-name="Edotaccent" unicode="&#x116;" 
d="M168 0v1489h843v-216h-559v-363h488v-217h-488v-477h559v-216h-843zM788 1799q0 -122 -183 -122q-80 1 -131 27t-51 95v20q0 127 182 127t183 -127v-20z" />
    <glyph glyph-name="edotaccent" unicode="&#x117;" 
d="M452 737v-70h274v61q0 123 -31 172q-31 50 -105 50t-106 -48t-32 -165zM566 -19q-178 1 -288 107q-111 106 -110 292v359q0 186 112 292q113 105 310 105t309 -108t112 -298v-225h-559v-125q0 -117 34 -162t112 -45t113 32t64 113l232 -65q-39 -130 -151 -201t-290 -71z
M413 1447q1 126 183 126t182 -126v-21q0 -69 -51 -95t-131 -26t-131 26t-52 95v21z" />
    <glyph glyph-name="Eogonek" unicode="&#x118;" 
d="M827 -408q-121 0 -188 60t-67 162t65 182q2 2 3 4h-472v1489h843v-216h-559v-363h488v-217h-488v-477h559v-216h-212q-30 -49 -30 -107q0 -59 25 -83t76 -24t139 19v-192q-121 -21 -182 -21z" />
    <glyph glyph-name="eogonek" unicode="&#x119;" 
d="M825 -408q-121 0 -188 60t-67 158t54 173q-20 -1 -41 -2q-194 1 -305 107t-110 292v359q0 186 112 292q113 105 310 105t309 -108t112 -298v-225h-559v-125q0 -117 34 -162t112 -45t113 32t64 113l232 -65q-44 -145 -180 -218q-60 -53 -60 -151t106 -98q45 0 134 19v-192
q-121 -21 -182 -21zM452 737v-70h274v61q0 123 -31 172q-31 50 -105 50t-106 -48t-32 -165z" />
    <glyph glyph-name="Ecaron" unicode="&#x11a;" 
d="M168 0v1489h843v-216h-559v-363h488v-217h-488v-477h559v-216h-843zM497 1683l-264 285l91 130l283 -201l277 201l93 -130l-262 -285h-218z" />
    <glyph glyph-name="ecaron" unicode="&#x11b;" 
d="M452 737v-70h274v61q0 123 -31 172q-31 50 -105 50t-106 -48t-32 -165zM566 -19q-178 1 -288 107q-111 106 -110 292v359q0 186 112 292q113 105 310 105t309 -108t112 -298v-225h-559v-125q0 -117 34 -162t112 -45t113 32t64 113l232 -65q-39 -130 -151 -201t-290 -71z
M488 1311l-265 285l92 130l283 -201l277 201l93 -130l-262 -285h-218z" />
    <glyph glyph-name="Gcircumflex" unicode="&#x11c;" horiz-adv-x="1318" 
d="M1151 506q-1 -248 -129 -386t-364 -139q-236 1 -364 129q-127 128 -126 359v546q0 233 123 363q125 130 357 130t350 -110t127 -357l-285 -19q-10 154 -52 212t-147 58t-147 -62t-42 -234v-510q0 -166 47 -227t165 -61t159 72q41 73 41 266h-203v218h490v-248zM380 1672
l-93 130l262 285h218l264 -285l-91 -128l-283 201z" />
    <glyph glyph-name="gcircumflex" unicode="&#x11d;" horiz-adv-x="1318" 
d="M436 -88q0 -130 95 -130h262q58 0 94 25t36 95t-37 95t-93 25h-357v-110zM638 583q72 0 102 40t29 114v58q0 149 -130 149q-69 0 -100 -37t-31 -112v-58q0 -74 29 -114t101 -40zM819 227q332 0 332 -300q-1 -151 -89 -235t-252 -83h-281q-184 0 -273 71q-88 71 -88 197
q0 91 45 146q46 55 109 65v37q-123 40 -125 192q-1 91 61 154t148 76v34q-80 29 -125 89t-45 131v29q0 132 100 210t297 77h519v-184l-229 39v-36q52 -20 86 -76t34 -119v-28q1 -131 -101 -207t-302 -76h-135q-101 0 -101 -102t101 -101h314zM382 1300l-93 130l262 285h218
l264 -285l-91 -129l-283 201z" />
    <glyph glyph-name="Gbreve" unicode="&#x11e;" horiz-adv-x="1318" 
d="M1151 506q-1 -248 -129 -386t-364 -139q-236 1 -364 129q-127 128 -126 359v546q0 233 123 363q125 130 357 130t350 -110t127 -357l-285 -19q-10 154 -52 212t-147 58t-147 -62t-42 -234v-510q0 -166 47 -227t165 -61t159 72q41 73 41 266h-203v218h490v-248zM659 1663
q-188 0 -281 102t-95 313h227q2 -134 35 -184t115 -51q82 0 114 50q33 50 34 185h227q-2 -210 -95 -312t-281 -103z" />
    <glyph glyph-name="gbreve" unicode="&#x11f;" horiz-adv-x="1318" 
d="M436 -88q0 -130 95 -130h262q58 0 94 25t36 95t-37 95t-93 25h-357v-110zM638 583q72 0 102 40t29 114v58q0 149 -130 149q-69 0 -100 -37t-31 -112v-58q0 -74 29 -114t101 -40zM819 227q332 0 332 -300q-1 -151 -89 -235t-252 -83h-281q-184 0 -273 71q-88 71 -88 197
q0 91 45 146q46 55 109 65v37q-123 40 -125 192q-1 91 61 154t148 76v34q-80 29 -125 89t-45 131v29q0 132 100 210t297 77h519v-184l-229 39v-36q52 -20 86 -76t34 -119v-28q1 -131 -101 -207t-302 -76h-135q-101 0 -101 -102t101 -101h314zM661 1471q83 0 115 50t34 184
h227q-4 -415 -376 -415q-188 0 -281 102t-95 313h227q2 -134 34 -184t115 -50z" />
    <glyph glyph-name="Gdotaccent" unicode="&#x120;" horiz-adv-x="1318" 
d="M1151 506q-1 -248 -129 -386t-364 -139q-236 1 -364 129q-127 128 -126 359v546q0 233 123 363q125 130 357 130t350 -110t127 -357l-285 -19q-10 154 -52 212t-147 58t-147 -62t-42 -234v-510q0 -166 47 -227t165 -61t159 72q41 73 41 266h-203v218h490v-248zM842 1799
q0 -122 -183 -122q-80 1 -131 27t-51 95v20q0 127 182 127t183 -127v-20z" />
    <glyph glyph-name="gdotaccent" unicode="&#x121;" horiz-adv-x="1318" 
d="M436 -88q0 -130 95 -130h262q58 0 94 25t36 95t-37 95t-93 25h-357v-110zM638 583q72 0 102 40t29 114v58q0 149 -130 149q-69 0 -100 -37t-31 -112v-58q0 -74 29 -114t101 -40zM819 227q332 0 332 -300q-1 -151 -89 -235t-252 -83h-281q-184 0 -273 71q-88 71 -88 197
q0 91 45 146q46 55 109 65v37q-123 40 -125 192q-1 91 61 154t148 76v34q-80 29 -125 89t-45 131v29q0 132 100 210t297 77h519v-184l-229 39v-36q52 -20 86 -76t34 -119v-28q1 -131 -101 -207t-302 -76h-135q-101 0 -101 -102t101 -101h314zM478 1447q0 126 182 126
t183 -126v-21q0 -69 -51 -95t-131 -26t-131 26t-52 95v21z" />
    <glyph glyph-name="Gcommaaccent" unicode="&#x122;" horiz-adv-x="1318" 
d="M428 -559l91 373h354l-259 -373h-186zM1151 506q-1 -248 -129 -386t-364 -139q-236 1 -364 129q-127 128 -126 359v546q0 233 123 363q125 130 357 130t350 -110t127 -357l-285 -19q-10 154 -52 212t-147 58t-147 -62t-42 -234v-510q0 -166 47 -227t165 -61t159 72
q41 73 41 266h-203v218h490v-248z" />
    <glyph glyph-name="gcommaaccent" unicode="&#x123;" horiz-adv-x="1318" 
d="M436 -88q0 -130 95 -130h262q58 0 94 25t36 95t-37 95t-93 25h-357v-110zM638 583q72 0 102 40t29 114v58q0 149 -130 149q-69 0 -100 -37t-31 -112v-58q0 -74 29 -114t101 -40zM819 227q332 0 332 -300q-1 -151 -89 -235t-252 -83h-281q-184 0 -273 71q-88 71 -88 197
q0 91 45 146q46 55 109 65v37q-123 40 -125 192q-1 91 61 154t148 76v34q-80 29 -125 89t-45 131v29q0 132 100 210t297 77h519v-184l-229 39v-36q52 -20 86 -76t34 -119v-28q1 -131 -101 -207t-302 -76h-135q-101 0 -101 -102t101 -101h314zM441 1303l261 373h184l-89 -373
h-356z" />
    <glyph glyph-name="Hcircumflex" unicode="&#x124;" horiz-adv-x="1318" 
d="M168 0v1489h284v-562h414v562h285v-1489h-285v709h-414v-709h-284zM382 1672l-93 130l262 285h218l264 -285l-91 -128l-283 201z" />
    <glyph glyph-name="hcircumflex" unicode="&#x125;" 
d="M726 745q0 169 -100 169t-174 -143v-771h-284v1489h284v-528h41q30 83 101 129t176 46t173 -93t68 -255v-788h-285v745zM32 1672l-93 130l262 285h218l264 -285l-91 -128l-283 201z" />
    <glyph glyph-name="Hbar" unicode="&#x126;" horiz-adv-x="1318" 
d="M452 575v-575h-284v1035h-140v192h140v262h284v-262h414v262h285v-262h139v-192h-139v-1035h-285v575h-414zM452 793h414v242h-414v-242z" />
    <glyph glyph-name="hbar" unicode="&#x127;" 
d="M493 851q67 175 278 175q106 0 173 -87.5t67 -245.5v-693h-285v648q0 156 -97 156q-104 0 -177 -143v-661h-284v1149h-140v165h140v175h284v-175h237v-165h-237v-298h41z" />
    <glyph glyph-name="Itilde" unicode="&#x128;" 
d="M168 0v216h279v1057h-279v216h843v-216h-279v-1057h279v-216h-843zM709 1886q56 0 56 138v39h181v-28q0 -155 -60 -248t-162 -93t-161 93q-26 41 -44 72t-44 31q-62 0 -58 -136v-41h-182v28q0 156 62 249t170 93q90 1 153 -93q28 -42 47 -73t42 -31z" />
    <glyph glyph-name="itilde" unicode="&#x129;" horiz-adv-x="754" 
d="M235 0v1117h286v-1117h-286zM553 1651v40h181v-28q0 -155 -60 -248t-162 -93q-103 0 -162 93q-26 41 -44 72t-43 30q-62 0 -58 -136v-40h-183v27q0 156 62 250t171 93q89 0 152 -94q28 -42 47 -73t43 -30q56 0 56 137z" />
    <glyph glyph-name="Imacron" unicode="&#x12a;" 
d="M168 0v216h279v1057h-279v216h843v-216h-279v-1057h279v-216h-843zM274 1754v216h633v-216h-633z" />
    <glyph glyph-name="imacron" unicode="&#x12b;" horiz-adv-x="754" 
d="M235 0v1117h286v-1117h-286zM61 1381v216h633v-216h-633z" />
    <glyph glyph-name="Ibreve" unicode="&#x12c;" 
d="M168 0v216h279v1057h-279v216h843v-216h-279v-1057h279v-216h-843zM590 1663q-188 0 -281 102t-95 313h227q2 -134 35 -184q32 -50 114 -51q82 0 115 50t34 185h227q-2 -210 -95 -312t-281 -103z" />
    <glyph glyph-name="ibreve" unicode="&#x12d;" horiz-adv-x="754" 
d="M235 0v1117h286v-1117h-286zM378 1471q82 0 114 50t35 184h227q-4 -415 -376 -415q-188 0 -281 102t-95 313h227q3 -134 35 -184t114 -50z" />
    <glyph glyph-name="Iogonek" unicode="&#x12e;" 
d="M713 -408q-121 0 -188 60t-67 162t65 182q2 2 3 4h-358v216h279v1057h-279v216h843v-216h-279v-1057h279v-216h-326q-30 -49 -30 -107q0 -59 25 -83t75 -24t141 19v-192q-121 -21 -183 -21z" />
    <glyph glyph-name="iogonek" unicode="&#x12f;" horiz-adv-x="754" 
d="M195 1447q1 126 183 126t182 -126v-21q0 -69 -51 -95t-131 -26t-131 26t-52 95v21zM400 -408q-121 0 -188 60t-67 170t90 201v1094h286v-1117h-149q-30 -49 -30 -107q1 -59 26 -83t75 -24t140 19v-192q-121 -21 -183 -21z" />
    <glyph glyph-name="Idotaccent" unicode="&#x130;" 
d="M168 0v216h279v1057h-279v216h843v-216h-279v-1057h279v-216h-843zM773 1799q0 -122 -183 -122q-80 1 -131 27t-51 95v20q0 127 182 127t183 -127v-20z" />
    <glyph glyph-name="dotlessi" unicode="&#x131;" horiz-adv-x="754" 
d="M235 0v1117h286v-1117h-286z" />
    <glyph glyph-name="IJ" unicode="&#x132;" horiz-adv-x="2303" 
d="M168 0v216h279v1057h-279v216h843v-216h-279v-1057h279v-216h-843zM2134 473q0 -255 -108 -373t-346 -119q-238 0 -337 114q-98 114 -109 408l285 20q11 -197 45 -261t127 -64q92 0 125 59q33 60 33 223v793h-352v216h637v-1016z" />
    <glyph glyph-name="ij" unicode="&#x133;" horiz-adv-x="1597" 
d="M195 1447q1 126 183 126t182 -126v-21q0 -69 -51 -95t-131 -26t-131 26t-52 95v21zM235 0v1117h286v-1117h-286zM953 -188q125 0 123 197v900h-234v208h519v-1130q0 -177 -102 -277q-103 -99 -269 -99q-100 0 -204 41l28 199q84 -39 139 -39zM1037 1447q1 126 183 126
t182 -126v-21q0 -69 -52 -95t-131 -26q-80 0 -131 26t-51 95v21z" />
    <glyph glyph-name="Jcircumflex" unicode="&#x134;" 
d="M1011 473q0 -255 -108 -373q-109 -118 -347 -119q-238 0 -336 114t-108 408l285 20q11 -197 45 -261t126 -64t126 59q33 60 32 223v793h-352v216h637v-1016zM421 1672l-93 130l262 285h218l264 -285l-91 -128l-283 201z" />
    <glyph glyph-name="jcircumflex" unicode="&#x135;" horiz-adv-x="899" 
d="M255 -188q123 0 123 197v900h-235v208h520v-1130q-1 -177 -103 -277t-268 -99q-100 0 -204 41l27 199q84 -39 140 -39zM199 1300l-93 130l263 285h217l265 -285l-91 -129l-283 201z" />
    <glyph glyph-name="Kcommaaccent" unicode="&#x136;" 
d="M452 670v-670h-284v1489h284v-601h58l309 601h313l-397 -685l391 -804h-327l-285 670h-62zM393 -559l91 373h354l-259 -373h-186z" />
    <glyph glyph-name="kcommaaccent" unicode="&#x137;" horiz-adv-x="1038" 
d="M452 484v-484h-284v1489h284v-809h53l195 437h292l-257 -512l254 -605h-304l-180 484h-53zM322 -559l91 373h354l-259 -373h-186z" />
    <glyph glyph-name="kgreenlandic" unicode="&#x138;" horiz-adv-x="1038" 
d="M452 503v-503h-284v1117h284v-419h51l197 419h292l-257 -495l254 -622h-304l-180 503h-53z" />
    <glyph glyph-name="Lacute" unicode="&#x139;" horiz-adv-x="1038" 
d="M168 0v1489h284v-1273h490v-216h-774zM128 1676l146 372h355l-316 -372h-185z" />
    <glyph glyph-name="lacute" unicode="&#x13a;" horiz-adv-x="899" 
d="M577 -15q-162 0 -250 105t-89 295v1104h285v-1104q0 -180 104 -180q66 0 131 37l43 -203q-112 -54 -224 -54zM184 1676l146 372h355l-316 -372h-185z" />
    <glyph glyph-name="Lcommaaccent" unicode="&#x13b;" horiz-adv-x="1038" 
d="M168 0v1489h284v-1273h490v-216h-774zM352 -559l91 373h354l-259 -373h-186z" />
    <glyph glyph-name="lcommaaccent" unicode="&#x13c;" horiz-adv-x="899" 
d="M577 -15q-162 0 -250 105t-89 295v1104h285v-1104q0 -180 104 -180q66 0 131 37l43 -203q-112 -54 -224 -54zM266 -559l91 373h354l-259 -373h-186z" />
    <glyph glyph-name="Lcaron" unicode="&#x13d;" horiz-adv-x="1038" 
d="M168 0v1489h284v-1273h490v-216h-774zM611 940l69 549h351l-262 -549h-158z" />
    <glyph glyph-name="lcaron" unicode="&#x13e;" horiz-adv-x="899" 
d="M577 -15q-162 0 -250 105t-89 295v1104h285v-1104q0 -180 104 -180q66 0 131 37l43 -203q-112 -54 -224 -54zM657 1313l69 549h352l-263 -549h-158z" />
    <glyph glyph-name="Ldot" unicode="&#x13f;" horiz-adv-x="1465" 
d="M168 0v1489h284v-1273h490v-216h-774zM845 881q1 126 183 126t182 -126v-21q0 -69 -51 -95t-131 -26t-132 26q-51 26 -51 95v21z" />
    <glyph glyph-name="ldot" unicode="&#x140;" horiz-adv-x="1318" 
d="M577 -15q-162 0 -250 105t-89 295v1104h285v-1104q0 -180 104 -180q66 0 131 37l43 -203q-112 -54 -224 -54zM834 735q0 127 182 127t183 -127v-20q0 -69 -51 -95t-131 -26t-132 26q-51 26 -51 95v20z" />
    <glyph glyph-name="Lslash" unicode="&#x141;" horiz-adv-x="1038" 
d="M168 0v627l-95 -37v181l95 37v681h284v-569l321 128v-180l-321 -129v-523h490v-216h-774z" />
    <glyph glyph-name="lslash" unicode="&#x142;" horiz-adv-x="899" 
d="M577 -15q-162 0 -250.5 105t-88.5 295v211l-126 -43v181l126 42v713h285v-616l222 75v-183l-222 -74v-306q0 -180 104 -180q66 0 131 37l43 -203q-112 -54 -224 -54z" />
    <glyph glyph-name="Nacute" unicode="&#x143;" horiz-adv-x="1318" 
d="M410 0h-242v1489h383l358 -1063v1063h242v-1489h-376l-365 1138v-1138zM529 1676l145 372h356l-317 -372h-184z" />
    <glyph glyph-name="nacute" unicode="&#x144;" 
d="M629 914q-107 0 -177 -143v-771h-284v1117h284v-156h41q30 83 101 129t175 46t173 -93t69 -255v-788h-285v745q0 169 -97 169zM430 1303l145 373h356l-317 -373h-184z" />
    <glyph glyph-name="Ncommaaccent" unicode="&#x145;" horiz-adv-x="1318" 
d="M372 -559l92 373h353l-258 -373h-187zM410 0h-242v1489h383l358 -1063v1063h242v-1489h-376l-365 1138v-1138z" />
    <glyph glyph-name="ncommaaccent" unicode="&#x146;" 
d="M359 -559l92 373h353l-258 -373h-187zM629 914q-107 0 -177 -143v-771h-284v1117h284v-156h41q30 83 101 129t175 46t173 -93t69 -255v-788h-285v745q0 169 -97 169z" />
    <glyph glyph-name="Ncaron" unicode="&#x147;" horiz-adv-x="1318" 
d="M410 0h-242v1489h383l358 -1063v1063h242v-1489h-376l-365 1138v-1138zM609 1683l-265 285l92 130l283 -201l277 201l93 -130l-262 -285h-218z" />
    <glyph glyph-name="ncaron" unicode="&#x148;" 
d="M629 914q-107 0 -177 -143v-771h-284v1117h284v-156h41q30 83 101 129t175 46t173 -93t69 -255v-788h-285v745q0 169 -97 169zM510 1311l-264 285l91 130l283 -201l277 201l93 -130l-262 -285h-218z" />
    <glyph glyph-name="napostrophe" unicode="&#x149;" horiz-adv-x="1033" 
d="M629 914q-107 0 -177 -143v-771h-284v1117h284v-156h41q30 83 101 129t175 46t173 -93t69 -255v-788h-285v745q0 169 -97 169zM-20 1303l145 373h355l-316 -373h-184z" />
    <glyph glyph-name="Eng" unicode="&#x14a;" horiz-adv-x="1318" 
d="M713 1287q-144 0 -261 -215v-1072h-284v1489h284v-229h41q39 115 130.5 181.5t224.5 66.5t218 -101.5t85 -280.5v-1130q0 -199 -117.5 -292t-264.5 -93q-107 0 -220 52l28 203q86 -48 155 -48q134 0 134 206v1065q0 91 -40 144.5t-113 53.5z" />
    <glyph glyph-name="eng" unicode="&#x14b;" 
d="M629 914q-102 0 -177 -143v-771h-284v1117h284v-156h41q28 84 99 129.5t178 45.5t174 -89.5t67 -247.5v-818q0 -192 -108 -281t-246 -89q-91 0 -192 41l28 201q72 -39 127 -39q106 0 106 192v752q0 80 -23 118t-74 38z" />
    <glyph glyph-name="Omacron" unicode="&#x14c;" horiz-adv-x="1318" 
d="M452 492q0 -166 46 -230t162 -65q116 1 161 65t45 230v504q0 166 -45 231t-161 65t-162 -65t-46 -231v-504zM1151 475q0 -233 -127 -363t-364 -131q-237 1 -365 131t-127 363v540q0 233 127 363q128 130 366 130t364 -130t126 -363v-540zM344 1754v216h633v-216h-633z
" />
    <glyph glyph-name="omacron" unicode="&#x14d;" 
d="M590 190q74 0 105 46t31 155v337q0 106 -31 153t-105 47t-106 -48q-32 -46 -32 -154v-335q0 -109 32 -155t106 -46zM1011 384q0 -188 -113 -296t-309 -107q-196 0 -309 107t-112 296v344q0 190 113 299t309 109t308 -109t113 -299v-344zM274 1381v216h633v-216h-633z" />
    <glyph glyph-name="Obreve" unicode="&#x14e;" horiz-adv-x="1318" 
d="M452 492q0 -166 46 -230t162 -65q116 1 161 65t45 230v504q0 166 -45 231t-161 65t-162 -65t-46 -231v-504zM1151 475q0 -233 -127 -363t-364 -131q-237 1 -365 131t-127 363v540q0 233 127 363q128 130 366 130t364 -130t126 -363v-540zM661 1663q-188 0 -281 102
t-95 313h227q2 -134 34 -185q33 -50 115 -50q83 0 115 50t34 185h227q-2 -210 -95 -312t-281 -103z" />
    <glyph glyph-name="obreve" unicode="&#x14f;" 
d="M590 190q74 0 105 46t31 155v337q0 106 -31 153t-105 47t-106 -48q-32 -46 -32 -154v-335q0 -109 32 -155t106 -46zM1011 384q0 -188 -113 -296t-309 -107q-196 0 -309 107t-112 296v344q0 190 113 299t309 109t308 -109t113 -299v-344zM590 1471q82 0 115 50t34 184h227
q-4 -415 -376 -415q-188 0 -281 102t-95 313h227q2 -134 35 -184q32 -50 114 -50z" />
    <glyph glyph-name="Ohungarumlaut" unicode="&#x150;" horiz-adv-x="1318" 
d="M452 492q0 -166 46 -230t162 -65q116 1 161 65t45 230v504q0 166 -45 231t-161 65t-162 -65t-46 -231v-504zM1151 475q0 -233 -127 -363t-364 -131q-237 1 -365 131t-127 363v540q0 233 127 363q128 130 366 130t364 -130t126 -363v-540zM387 1676l64 372h270l-190 -372
h-144zM709 1676l64 372h268l-190 -372h-142z" />
    <glyph glyph-name="ohungarumlaut" unicode="&#x151;" 
d="M590 190q74 0 105 46t31 155v337q0 106 -31 153t-105 47t-106 -48q-32 -46 -32 -154v-335q0 -109 32 -155t106 -46zM1011 384q0 -188 -113 -296t-309 -107q-196 0 -309 107t-112 296v344q0 190 113 299t309 109t308 -109t113 -299v-344zM317 1303l63 373h270l-190 -373
h-143zM639 1303l63 373h268l-190 -373h-141z" />
    <glyph glyph-name="OE" unicode="&#x152;" horiz-adv-x="1744" 
d="M661 216h140v1057h-140q-114 0 -161.5 -67.5t-47.5 -233.5v-454q0 -168 47.5 -235t161.5 -67zM629 0q-216 0 -338.5 136t-122.5 363v491q0 227 122.5 363t340.5 136h944v-216h-490v-363h421v-217h-421v-477h490v-216h-946z" />
    <glyph glyph-name="oe" unicode="&#x153;" horiz-adv-x="1597" 
d="M555 190q58 0 80 44.5t22 145.5v359q0 95 -22 141.5t-80 46.5t-80.5 -47.5t-22.5 -142.5v-357q0 -101 22.5 -145.5t80.5 -44.5zM942 760v-93h203v76q0 110 -19.5 158.5t-81.5 48.5t-82 -45.5t-20 -144.5zM1059 1136q168 0 269.5 -99t101.5 -303v-229h-488v-146
q0 -97 27 -141.5t94 -44.5t98 29t45 101l224 -27q-37 -162 -124.5 -228.5t-250.5 -66.5t-256 123q-97 -123 -261 -123t-267 100.5t-103 311.5v324q0 212 104 315.5t269 103.5t256 -123q94 123 262 123z" />
    <glyph glyph-name="Racute" unicode="&#x154;" horiz-adv-x="1318" 
d="M452 0h-284v1489h547q199 0 303 -101t105 -299v-125q-1 -156 -63 -255t-181 -134l285 -575h-324l-274 553h-114v-553zM452 767h235q74 0 112 43q37 43 37 156v116q0 112 -37 152t-112 39h-235v-506zM478 1676l146 372h355l-316 -372h-185z" />
    <glyph glyph-name="racute" unicode="&#x155;" horiz-adv-x="1038" 
d="M683 795q0 119 -78 119q-43 0 -85 -37t-68 -101v-776h-284v1117h284v-156h41q25 93 89 134t133 41q227 0 227 -300v-201h-259v160zM367 1303l145 373h356l-317 -373h-184z" />
    <glyph glyph-name="Rcommaaccent" unicode="&#x156;" horiz-adv-x="1318" 
d="M452 0h-284v1489h547q199 0 303 -101t105 -299v-125q-1 -156 -63 -255t-181 -134l285 -575h-324l-274 553h-114v-553zM452 767h235q74 0 112 43q37 43 37 156v116q0 112 -37 152t-112 39h-235v-506zM393 -559l91 373h354l-259 -373h-186z" />
    <glyph glyph-name="rcommaaccent" unicode="&#x157;" horiz-adv-x="1038" 
d="M683 795q0 119 -78 119q-43 0 -85 -37t-68 -101v-776h-284v1117h284v-156h41q25 93 89 134t133 41q227 0 227 -300v-201h-259v160zM73 -559l91 373h354l-259 -373h-186z" />
    <glyph glyph-name="Rcaron" unicode="&#x158;" horiz-adv-x="1318" 
d="M452 0h-284v1489h547q199 0 303 -101t105 -299v-125q-1 -156 -63 -255t-181 -134l285 -575h-324l-274 553h-114v-553zM452 767h235q74 0 112 43q37 43 37 156v116q0 112 -37 152t-112 39h-235v-506zM506 1683l-264 285l91 130l283 -201l278 201l93 -130l-263 -285h-218z
" />
    <glyph glyph-name="rcaron" unicode="&#x159;" horiz-adv-x="1038" 
d="M683 795q0 119 -78 119q-43 0 -85 -37t-68 -101v-776h-284v1117h284v-156h41q25 93 89 134t133 41q227 0 227 -300v-201h-259v160zM447 1311l-265 285l92 130l283 -201l277 201l93 -130l-262 -285h-218z" />
    <glyph glyph-name="Sacute" unicode="&#x15a;" horiz-adv-x="1318" 
d="M659 1288q-91 0 -145 -47t-54 -134t55 -131t249 -108t294 -161q102 -97 102 -283t-132 -312q-132 -127 -375 -127q-244 0 -478 145l52 222q217 -149 447 -149q99 0 149 51t50 139q-1 87 -61 133t-240 106t-287 155q-108 96 -108 283t127 310q128 123 344 122
q123 0 238 -38t201 -101l-39 -212q-207 137 -389 137zM467 1676l146 372h355l-316 -372h-185z" />
    <glyph glyph-name="sacute" unicode="&#x15b;" 
d="M1018 322q0 -152 -111 -245q-112 -92 -317 -92q-128 0 -242 42t-193 100l61 180q212 -130 372 -130t160 113q0 69 -52 95t-188 66t-232 111q-94 71 -94 230q0 160 102 252t280 92q116 0 222 -38t175 -89l-47 -173q-179 108 -318 108q-140 0 -142 -115q0 -69 55 -100
t203 -73t227 -112t79 -222zM398 1303l146 373h355l-316 -373h-185z" />
    <glyph glyph-name="Scircumflex" unicode="&#x15c;" horiz-adv-x="1318" 
d="M659 1288q-91 0 -145 -47t-54 -134t55 -131t249 -108t294 -161q102 -97 102 -283t-132 -312q-132 -127 -375 -127q-244 0 -478 145l52 222q217 -149 447 -149q99 0 149 51t50 139q-1 87 -61 133t-240 106t-287 155q-108 96 -108 283t127 310q128 123 344 122
q123 0 238 -38t201 -101l-39 -212q-207 137 -389 137zM376 1672l-93 130l263 285h217l265 -285l-92 -128l-283 201z" />
    <glyph glyph-name="scircumflex" unicode="&#x15d;" 
d="M1018 322q0 -152 -111 -245q-112 -92 -317 -92q-128 0 -242 42t-193 100l61 180q212 -130 372 -130t160 113q0 69 -52 95t-188 66t-232 111q-94 71 -94 230q0 160 102 252t280 92q116 0 222 -38t175 -89l-47 -173q-179 108 -318 108q-140 0 -142 -115q0 -69 55 -100
t203 -73t227 -112t79 -222zM307 1300l-93 130l263 285h217l265 -285l-91 -129l-283 201z" />
    <glyph glyph-name="Scedilla" unicode="&#x15e;" horiz-adv-x="1318" 
d="M674 203q99 0 149 51t50 139q-1 87 -61 133t-240 106t-287 155q-108 96 -108 283t127 310q128 123 344 122q123 0 238 -38t201 -101l-39 -212q-207 137 -389 137q-91 0 -145 -47t-54 -134t55 -131t249 -108t294 -161q102 -97 102 -283t-131 -312q-76 -73 -189 -104
q76 -61 76 -177t-83 -178q-83 -63 -225 -63t-224 55t-88 167l238 19q2 -35 17 -49t51 -15t54 21t18 97t-33 100q-240 4 -466 145l52 222q217 -149 447 -149z" />
    <glyph glyph-name="scedilla" unicode="&#x15f;" 
d="M588 177q160 0 160 113q0 69 -52 95t-188 66t-232 111q-94 71 -94 230q0 160 102 252t280 92q116 0 222 -38t175 -89l-47 -173q-179 108 -318 108q-140 0 -142 -115q0 -69 55 -100t203 -73t227 -112t79 -222t-111 -245q-56 -46 -136 -69q76 -61 76 -177t-83 -178
q-83 -63 -225 -63t-224 55t-88 167l238 19q2 -35 17 -49q14 -14 50 -15t54 21t19 97q0 75 -33 100q-118 3 -228 43t-189 99l61 180q212 -130 372 -130z" />
    <glyph glyph-name="Scaron" unicode="&#x160;" horiz-adv-x="1318" 
d="M659 1288q-91 0 -145 -47t-54 -134t55 -131t249 -108t294 -161q102 -97 102 -283t-132 -312q-132 -127 -375 -127q-244 0 -478 145l52 222q217 -149 447 -149q99 0 149 51t50 139q-1 87 -61 133t-240 106t-287 155q-108 96 -108 283t127 310q128 123 344 122
q123 0 238 -38t201 -101l-39 -212q-207 137 -389 137zM547 1683l-264 285l91 130l283 -201l278 201l93 -130l-263 -285h-218z" />
    <glyph glyph-name="scaron" unicode="&#x161;" 
d="M1018 322q0 -152 -111 -245q-112 -92 -317 -92q-128 0 -242 42t-193 100l61 180q212 -130 372 -130t160 113q0 69 -52 95t-188 66t-232 111q-94 71 -94 230q0 160 102 252t280 92q116 0 222 -38t175 -89l-47 -173q-179 108 -318 108q-140 0 -142 -115q0 -69 55 -100
t203 -73t227 -112t79 -222zM478 1311l-264 285l91 130l283 -201l278 201l93 -130l-263 -285h-218z" />
    <glyph glyph-name="Tcedilla" unicode="&#x162;" 
d="M851 -168q0 -117 -83 -179q-83 -63 -225 -63t-225 55q-82 55 -87 167l238 19q2 -35 17 -49t50 -15t54 21t19 82t-12 89q-12 28 -50 41h-100v1273h-348v216h983v-216h-350v-1238q119 -59 119 -203z" />
    <glyph glyph-name="tcedilla" unicode="&#x163;" horiz-adv-x="1038" 
d="M719 192q58 0 136 37l28 -203q-38 -21 -102 -34q59 -59 59 -168t-83 -171q-83 -63 -225 -63t-225 55q-82 55 -87 167l238 19q2 -35 17 -49t50 -15t54 21t19 82t-11 86q-11 25 -36 38q-244 55 -244 345v570h-167v208h167v372h285v-372h279v-208h-279v-548q0 -89 34 -129
t93 -40z" />
    <glyph glyph-name="Tcaron" unicode="&#x164;" 
d="M447 0v1273h-348v216h983v-216h-350v-1273h-285zM482 1683l-264 285l91 130l283 -201l277 201l94 -130l-263 -285h-218z" />
    <glyph glyph-name="tcaron" unicode="&#x165;" horiz-adv-x="1038" 
d="M307 339v570h-167v208h167v372h285v-372h279v-208h-279v-548q0 -89 34 -129t93 -40q58 0 136 37l28 -203q-81 -45 -209 -45q-367 0 -367 358zM728 1313l69 549h352l-263 -549h-158z" />
    <glyph glyph-name="Tbar" unicode="&#x166;" 
d="M447 0v560h-279v192h279v521h-348v216h983v-216h-350v-521h279v-192h-279v-560h-285z" />
    <glyph glyph-name="tbar" unicode="&#x167;" horiz-adv-x="1038" 
d="M307 339v158h-167v192h167v220h-167v208h167v372h285v-372h279v-208h-279v-220h279v-192h-279v-136q0 -89 34.5 -129t92.5 -40t136 37l28 -203q-81 -45 -209 -45q-367 0 -367 358z" />
    <glyph glyph-name="Utilde" unicode="&#x168;" horiz-adv-x="1318" 
d="M1151 478q-1 -255 -121 -376t-371 -121t-371 121t-120 376v1011h284v-1003q0 -155 47 -217t161 -62t160 62t46 217v1003h285v-1011zM780 1886q56 0 56 138v39h181v-28q0 -155 -60 -248t-162 -93q-103 0 -162 93q-26 41 -44 72t-43 31q-62 0 -58 -136v-41h-183v28
q1 156 63 249t170 93q89 1 152 -93q28 -42 47 -73t43 -31z" />
    <glyph glyph-name="utilde" unicode="&#x169;" 
d="M551 203q107 0 175 143v771h285v-1117h-285v156h-41q-26 -82 -96 -128t-161 -47q-123 0 -192 94t-68 256v786h284v-745q0 -169 99 -169zM765 1651v40h181v-28q0 -155 -60 -248t-162 -93t-161 93q-26 41 -44 72t-44 30q-62 0 -58 -136v-40h-182v27q0 156 62 250t170 93
q90 0 153 -94q28 -42 47 -73t42 -30q56 0 56 137z" />
    <glyph glyph-name="Umacron" unicode="&#x16a;" horiz-adv-x="1318" 
d="M1151 478q-1 -255 -121 -376t-371 -121t-371 121t-120 376v1011h284v-1003q0 -155 47 -217t161 -62t160 62t46 217v1003h285v-1011zM344 1754v216h633v-216h-633z" />
    <glyph glyph-name="umacron" unicode="&#x16b;" 
d="M551 203q107 0 175 143v771h285v-1117h-285v156h-41q-26 -82 -96 -128t-161 -47q-123 0 -192 94t-68 256v786h284v-745q0 -169 99 -169zM274 1381v216h633v-216h-633z" />
    <glyph glyph-name="Ubreve" unicode="&#x16c;" horiz-adv-x="1318" 
d="M1151 478q-1 -255 -121 -376t-371 -121t-371 121t-120 376v1011h284v-1003q0 -155 47 -217t161 -62t160 62t46 217v1003h285v-1011zM661 1663q-188 0 -281 102t-95 313h227q2 -134 34 -185q33 -50 115 -50q83 0 115 50t34 185h227q-2 -210 -95 -312t-281 -103z" />
    <glyph glyph-name="ubreve" unicode="&#x16d;" 
d="M551 203q107 0 175 143v771h285v-1117h-285v156h-41q-26 -82 -96 -128t-161 -47q-123 0 -192 94t-68 256v786h284v-745q0 -169 99 -169zM590 1471q82 0 115 50t34 184h227q-4 -415 -376 -415q-188 0 -281 102t-95 313h227q2 -134 35 -184q32 -50 114 -50z" />
    <glyph glyph-name="Uring" unicode="&#x16e;" horiz-adv-x="1318" 
d="M1151 478q-1 -255 -121 -376t-371 -121t-371 121t-120 376v1011h284v-1003q0 -155 47 -217t161 -62t160 62t46 217v1003h285v-1011zM560 1918q0 -131 100 -131t101 131v59q0 138 -100 136q-99 0 -101 -136v-59zM661 1640q-134 0 -216 68t-82 210v59q0 143 82 213t216 70
t216 -70t82 -213v-59q0 -142 -82 -210t-216 -68z" />
    <glyph glyph-name="uring" unicode="&#x16f;" 
d="M551 203q107 0 175 143v771h285v-1117h-285v156h-41q-26 -82 -96 -128t-161 -47q-123 0 -192 94t-68 256v786h284v-745q0 -169 99 -169zM490 1545q0 -130 100 -130t101 130v60q-1 136 -101 136t-100 -136v-60zM590 1268q-134 0 -216 68t-82 209v60q0 143 82 213t216 70
t216 -70t82 -213v-60q0 -141 -82 -209t-216 -68z" />
    <glyph glyph-name="Uhungarumlaut" unicode="&#x170;" horiz-adv-x="1318" 
d="M1151 478q-1 -255 -121 -376t-371 -121t-371 121t-120 376v1011h284v-1003q0 -155 47 -217t161 -62t160 62t46 217v1003h285v-1011zM387 1676l64 372h270l-190 -372h-144zM709 1676l64 372h268l-190 -372h-142z" />
    <glyph glyph-name="uhungarumlaut" unicode="&#x171;" 
d="M551 203q107 0 175 143v771h285v-1117h-285v156h-41q-26 -82 -96 -128t-161 -47q-123 0 -192 94t-68 256v786h284v-745q0 -169 99 -169zM317 1303l63 373h270l-190 -373h-143zM639 1303l63 373h268l-190 -373h-141z" />
    <glyph glyph-name="Uogonek" unicode="&#x172;" horiz-adv-x="1318" 
d="M709 -108q0 -106 100 -106q50 0 141 19v-192q-121 -21 -183 -21q-121 0 -188 60t-67 159t57 175q-184 19 -281 116q-120 121 -120 376v1011h284v-1003q0 -155 47 -217t161 -62t160 62t46 217v1003h285v-1011q1 -256 -111 -368t-310 -126q-21 -35 -21 -92z" />
    <glyph glyph-name="uogonek" unicode="&#x173;" 
d="M892 -408q-121 0 -188 60t-67 167t89 204v133h-41q-26 -82 -96 -128t-161 -47q-123 0 -192 94t-68 256v786h284v-745q0 -169 99 -169q107 0 175 143v771h285v-1117h-147q-30 -49 -30 -107q0 -59 25 -83t76 -24t139 19v-192q-121 -21 -182 -21z" />
    <glyph glyph-name="Wcircumflex" unicode="&#x174;" horiz-adv-x="1604" 
d="M959 0l-153 842l-162 -842h-303l-229 1489h270l152 -1102l138 823h276l152 -817l151 1096h240l-229 -1489h-303zM523 1672l-93 130l263 285h217l265 -285l-91 -128l-283 201z" />
    <glyph glyph-name="wcircumflex" unicode="&#x175;" horiz-adv-x="1457" 
d="M871 0l-134 685l-130 -685h-313l-197 1117h247l138 -851l129 665h245l142 -657l130 843h233l-199 -1117h-291zM451 1300l-94 130l263 285h218l264 -285l-91 -129l-283 201z" />
    <glyph glyph-name="Ycircumflex" unicode="&#x176;" 
d="M732 0h-285v559l-406 930h298l257 -692l260 692h282l-406 -930v-559zM311 1672l-93 130l262 285h218l265 -285l-92 -128l-283 201z" />
    <glyph glyph-name="ycircumflex" unicode="&#x177;" horiz-adv-x="1038" 
d="M281 -181q112 -1 156 49t62 143l4 23h-201l-241 1083h280l190 -935l175 935h270l-226 -1147q-40 -190 -142 -274t-271 -85q-90 0 -257 20l13 209q135 -21 188 -21zM240 1300l-93 130l263 285h217l265 -285l-91 -129l-283 201z" />
    <glyph glyph-name="Ydieresis" unicode="&#x178;" 
d="M732 0h-285v559l-406 930h298l257 -692l260 692h282l-406 -930v-559zM910 1799q0 -122 -137 -122q-61 1 -99 27t-39 95v20q-1 127 137 127t138 -127v-20zM546 1799q0 -122 -138 -122q-62 1 -100 27t-38 95v20q0 127 137 127t139 -127v-20z" />
    <glyph glyph-name="Zacute" unicode="&#x179;" horiz-adv-x="1318" 
d="M1138 0h-956v216l611 1057h-611v216h956v-216l-643 -1057h643v-216zM473 1676l145 372h356l-317 -372h-184z" />
    <glyph glyph-name="zacute" unicode="&#x17a;" 
d="M983 0h-788v209l496 700h-496v208h788v-208l-467 -700h467v-209zM402 1303l145 373h356l-317 -373h-184z" />
    <glyph glyph-name="Zdotaccent" unicode="&#x17b;" horiz-adv-x="1318" 
d="M1138 0h-956v216l611 1057h-611v216h956v-216l-643 -1057h643v-216zM478 1819q0 127 182 127t183 -127v-20q0 -69 -51 -95t-131 -27q-80 1 -131 27t-52 95v20z" />
    <glyph glyph-name="zdotaccent" unicode="&#x17c;" 
d="M983 0h-788v209l496 700h-496v208h788v-208l-467 -700h467v-209zM408 1447q0 126 182 126t183 -126v-21q1 -69 -51 -95t-132 -26t-131 26t-51 95v21z" />
    <glyph glyph-name="Zcaron" unicode="&#x17d;" horiz-adv-x="1318" 
d="M1138 0h-956v216l611 1057h-611v216h956v-216l-643 -1057h643v-216zM553 1683l-264 285l91 130l283 -201l277 201l93 -130l-262 -285h-218z" />
    <glyph glyph-name="zcaron" unicode="&#x17e;" 
d="M983 0h-788v209l496 700h-496v208h788v-208l-467 -700h467v-209zM482 1311l-264 285l91 130l283 -201l277 201l94 -130l-263 -285h-218z" />
    <glyph glyph-name="longs" unicode="&#x17f;" horiz-adv-x="899" 
d="M715 1331q-123 0 -123 -154v-1177h-285v909h-167v208h167v73q0 160 101.5 251t269.5 91q83 0 206 -46l-28 -190q-96 35 -141 35z" />
    <glyph glyph-name="florin" unicode="&#x192;" 
d="M994 1296q-78 35 -141 35t-92 -44t-29 -144v-188h279v-208h-279v-410q0 -162 -101 -253q-95 -93 -272 -93q-118 0 -204 43l27 193q82 -37 144 -37t91 44q28 44 28 144v369h-277v208h279v229q0 159 100 255q103 93 270 93q109 0 205 -44z" />
    <glyph glyph-name="Aringacute" unicode="&#x1fa;" horiz-adv-x="1172" 
d="M814 0l-75 387h-329l-77 -387h-264l329 1489h378l328 -1489h-290zM696 603l-121 630l-124 -630h245zM486 1977v-59q0 -71 25 -101t75 -30q101 0 101 131v59q0 138 -101 136q-100 0 -100 -136zM586 1640q-134 0 -216 68t-81 210v59q0 207 178 266l142 364h355l-300 -353
q81 -15 138 -64q82 -70 82 -213v-59q0 -142 -82 -210t-216 -68z" />
    <glyph glyph-name="aringacute" unicode="&#x1fb;" horiz-adv-x="1318" 
d="M817 153q-113 -172 -343 -172q-128 0 -211 86q-81 87 -81 237t88 233t240 83h231v168q0 152 -138 152q-71 0 -105 -38t-51 -148l-244 47q61 335 428 335q190 0 292 -80t103 -257v-479q0 -86 43 -108t124 -5v-205q-127 -28 -215 3t-116 148h-45zM557 460q-103 0 -103 -146
t112 -145q117 0 175 92v199h-184zM518 1545q0 -130 100 -130t101 130v60q-1 136 -101 136t-100 -136v-60zM618 1268q-134 0 -216 68t-82 209v60q0 223 200 272l139 357h356l-303 -356q71 -16 122 -60q82 -70 82 -213v-60q0 -141 -82 -209t-216 -68z" />
    <glyph glyph-name="AEacute" unicode="&#x1fc;" horiz-adv-x="1744" 
d="M760 1676l145 372h355l-316 -372h-184zM801 387h-375l-100 -387h-257l423 1489h1083v-216h-490v-363h421v-217h-421v-477h490v-216h-774v387zM801 603v670h-146l-175 -670h321z" />
    <glyph glyph-name="aeacute" unicode="&#x1fd;" horiz-adv-x="1597" 
d="M670 460h-121q-110 0 -110 -147q0 -75 19 -109t65 -35q84 0 147 84v207zM957 765v-98h203v81q0 106 -20 154t-82 48q-61 0 -81 -45t-20 -140zM957 322q1 -149 117 -149q62 0 91 28t40 102l225 -27q-36 -162 -126 -228t-226 -67q-217 0 -292 162h-38q-91 -162 -284 -162
q-120 -1 -208 77t-88 237t95 242q96 83 266 83h141v162q0 149 -100 149q-52 0 -76 -31t-45 -125l-261 46q32 160 115 237q84 78 264 78t258 -119q93 119 257 119t256 -104t92 -293v-234h-473v-183zM611 1303l145 373h356l-317 -373h-184z" />
    <glyph glyph-name="Oslashacute" unicode="&#x1fe;" horiz-adv-x="1318" 
d="M1151 469q0 -227 -126 -357t-364 -131q-67 0 -123 12l-58 -179h-199l84 242q-197 122 -197 413v546q0 229 126 361q127 132 367 132q37 0 121 -9l58 177h199l-78 -246q188 -121 190 -415v-546zM866 486v510q0 74 -19 114l-257 -905q30 -8 71 -8q115 -1 160 63t45 226z
M661 1292q-117 0 -163 -64t-46 -232v-510q0 -102 21 -155l259 952q-34 9 -71 9zM473 1676l145 372h356l-317 -372h-184z" />
    <glyph glyph-name="oslashacute" unicode="&#x1ff;" 
d="M1011 717v-324q0 -199 -113 -305t-308 -107q-65 0 -121 12l-74 -179h-170l97 240q-154 108 -154 339v324q0 203 113 311q114 108 311 108q69 0 121 -13l71 180h169l-95 -242q153 -108 153 -344zM756 406v307q0 68 -15 119l-220 -640q22 -10 69 -10q90 0 128 50t38 174z
M590 935q-91 -1 -128 -51t-38 -173v-305q0 -83 14 -125l227 642q-30 12 -75 12zM402 1303l145 373h356l-317 -373h-184z" />
    <glyph glyph-name="Scommaaccent" unicode="&#x218;" horiz-adv-x="1318" 
d="M659 1288q-91 0 -145 -47t-54 -134t55 -131t249 -108t294 -161q102 -97 102 -283t-132 -312q-132 -127 -375 -127q-244 0 -478 145l52 222q217 -149 447 -149q99 0 149 51t50 139q-1 87 -61 133t-240 106t-287 155q-108 96 -108 283t127 310q128 123 344 122
q123 0 238 -38t201 -101l-39 -212q-207 137 -389 137zM372 -559l92 373h353l-258 -373h-187z" />
    <glyph glyph-name="scommaaccent" unicode="&#x219;" 
d="M1018 322q0 -152 -111 -245q-112 -92 -317 -92q-128 0 -242 42t-193 100l61 180q212 -130 372 -130t160 113q0 69 -52 95t-188 66t-232 111q-94 71 -94 230q0 160 102 252t280 92q116 0 222 -38t175 -89l-47 -173q-179 108 -318 108q-140 0 -142 -115q0 -69 55 -100
t203 -73t227 -112t79 -222zM289 -559l91 373h354l-259 -373h-186z" />
    <glyph glyph-name="Tcommaaccent" unicode="&#x21a;" 
d="M447 0v1273h-348v216h983v-216h-350v-1273h-285zM317 -559l91 373h353l-258 -373h-186z" />
    <glyph glyph-name="tcommaaccent" unicode="&#x21b;" horiz-adv-x="1038" 
d="M307 339v570h-167v208h167v372h285v-372h279v-208h-279v-548q0 -89 34 -129t93 -40q58 0 136 37l28 -203q-81 -45 -209 -45q-367 0 -367 358zM333 -559l91 373h354l-259 -373h-186z" />
    <glyph glyph-name="dotlessj" unicode="&#xf6be;" horiz-adv-x="899" 
d="M255 -188q123 0 123 197v900h-235v208h520v-1130q0 -177 -102.5 -276.5t-268.5 -99.5q-100 0 -204 41l27 199q84 -39 140 -39z" />
    <glyph glyph-name="dotlessj" unicode="&#x237;" horiz-adv-x="899" 
d="M255 -188q123 0 123 197v900h-235v208h520v-1130q0 -177 -102.5 -276.5t-268.5 -99.5q-100 0 -204 41l27 199q84 -39 140 -39z" />
    <glyph glyph-name="quoteleft" unicode="&#x2018;" horiz-adv-x="1033" 
d="M248 704l352 785h180l-132 -785h-400z" />
    <glyph glyph-name="quoteleft" unicode="&#x2bb;" horiz-adv-x="1033" 
d="M248 704l352 785h180l-132 -785h-400z" />
    <glyph glyph-name="circumflex" unicode="&#x2c6;" horiz-adv-x="1033" 
d="M238 1300l-93 130l263 285h218l264 -285l-91 -129l-283 201z" />
    <glyph glyph-name="caron" unicode="&#x2c7;" horiz-adv-x="1033" 
d="M410 1311l-265 285l91 130l283 -201l278 201l93 -130l-263 -285h-217z" />
    <glyph glyph-name="breve" unicode="&#x2d8;" horiz-adv-x="1033" 
d="M518 1471q82 0 114 50t35 184h227q-4 -415 -376 -415q-373 0 -377 415h228q3 -134 35 -184t114 -50z" />
    <glyph glyph-name="dotaccent" unicode="&#x2d9;" horiz-adv-x="1033" 
d="M335 1447q1 126 183 126t182 -126v-21q0 -69 -51 -95t-131 -26t-132 26q-51 26 -51 95v21z" />
    <glyph glyph-name="ring" unicode="&#x2da;" horiz-adv-x="1033" 
d="M618 1605q0 136 -100 136t-101 -136v-60q-1 -71 25 -101t76 -29q100 0 100 130v60zM518 1268q-134 0 -216 68t-82 209v60q0 143 82 213t216 70t216 -70t81 -213v-60q1 -141 -81 -209t-216 -68z" />
    <glyph glyph-name="ogonek" unicode="&#x2db;" horiz-adv-x="1033" 
d="M538 -408q-121 0 -188 60t-67 162t65 182t164 116l37 -69q-69 -56 -69 -156q0 -101 106 -101q44 0 135 19v-192q-121 -21 -183 -21z" />
    <glyph glyph-name="tilde" unicode="&#x2dc;" horiz-adv-x="1033" 
d="M693 1651v40h180v-28q1 -155 -59 -248t-162 -93q-103 0 -162 93q-26 41 -44 72t-44 30q-62 0 -58 -136v-40h-182v27q0 156 62 250t171 93q89 0 152 -94q28 -42 47 -73t43 -30q56 0 56 137z" />
    <glyph glyph-name="hungarumlaut" unicode="&#x2dd;" horiz-adv-x="1033" 
d="M244 1303l63 373h270l-190 -373h-143zM566 1303l63 373h268l-190 -373h-141z" />
    <glyph glyph-name="gravecmb" unicode="&#x300;" horiz-adv-x="0" 
d="M-28 1303l-316 373h355l147 -373h-186z" />
    <glyph glyph-name="acutecmb" unicode="&#x301;" horiz-adv-x="0" 
d="M-188 1303l145 373h356l-317 -373h-184z" />
    <glyph glyph-name="circumflexcmb" unicode="&#x302;" horiz-adv-x="0" 
d="M-279 1300l-93 130l262 285h218l264 -285l-91 -129l-283 201z" />
    <glyph glyph-name="tildecmb" unicode="&#x303;" horiz-adv-x="0" 
d="M119 1514q56 0 56 137v40h181v-28q0 -155 -60 -248t-162 -93q-103 0 -162 93q-26 41 -43.5 71.5t-61.5 30.5t-40 -136v-40h-183v27q0 156 62.5 249.5t170.5 93.5q90 0 153 -94q28 -42 46.5 -72.5t42.5 -30.5z" />
    <glyph glyph-name="macroncmb" unicode="&#x304;" horiz-adv-x="0" 
d="M-317 1381v216h634v-216h-634z" />
    <glyph glyph-name="brevecmb" unicode="&#x306;" horiz-adv-x="0" 
d="M0 1290q-188 0 -281 102.5t-95 312.5h227q2 -134 34.5 -184t114.5 -50t114.5 50t34.5 184h227q-2 -210 -95 -312.5t-281 -102.5z" />
    <glyph glyph-name="dotaccentcmb" unicode="&#x307;" horiz-adv-x="0" 
d="M0 1573q182 0 182 -126v-21q0 -69 -51 -95t-131 -26t-131 26t-51 95v21q0 126 182 126z" />
    <glyph glyph-name="dieresiscmb" unicode="&#x308;" horiz-adv-x="0" 
d="M45 1447q-1 126 137 126t138 -126v-21q0 -69 -39 -95t-99 -26t-98.5 26t-38.5 95v21zM-320 1447q0 126 138 126t137 -126v-21q0 -69 -38.5 -95t-98.5 -26t-99 26t-39 95v21z" />
    <glyph glyph-name="ringcmb" unicode="&#x30a;" horiz-adv-x="0" 
d="M0 1741q-101 0 -101 -136v-60q0 -71 25.5 -100.5t75.5 -29.5q101 0 101 130v60q0 136 -101 136zM0 1268q-134 0 -216 68t-82 209v60q0 143 82 213t216 70t216 -70t82 -213v-60q0 -141 -82 -209t-216 -68z" />
    <glyph glyph-name="hungarumlautcmb" unicode="&#x30b;" horiz-adv-x="0" 
d="M-274 1303l64 373h270l-190 -373h-144zM48 1303l64 373h268l-190 -373h-142z" />
    <glyph glyph-name="caroncmb" unicode="&#x30c;" horiz-adv-x="0" 
d="M-108 1311l-264 285l91 130l283 -201l277 201l93 -130l-262 -285h-218z" />
    <glyph glyph-name="commaturnedabovecmb" unicode="&#x312;" horiz-adv-x="0" 
d="M-216 1303l261 373h184l-89 -373h-356z" />
    <glyph glyph-name="commaaccentcmb" unicode="&#x326;" horiz-adv-x="0" 
d="M-231 -559l91 373h354l-259 -373h-186z" />
    <glyph glyph-name="cedillacmb" unicode="&#x327;" horiz-adv-x="0" 
d="M261 -172q0 -112 -83.5 -175t-225.5 -63t-224 55t-87 167l238 19q2 -35 17 -49.5t50 -14.5t54 21.5t19 81.5t-12.5 88.5t-49.5 41.5l28 78q141 -19 208.5 -78.5t67.5 -171.5z" />
    <glyph glyph-name="ogonekcmb" unicode="&#x328;" horiz-adv-x="0" 
d="M20 -408q-121 0 -188 60t-67 162t65.5 182t163.5 116l38 -69q-69 -56 -69 -156q0 -101 106 -101q52 0 134 19v-192q-121 -21 -183 -21z" />
    <glyph glyph-name="tonos" unicode="&#x384;" horiz-adv-x="1033" 
d="M385 1303l62 373h342l-232 -373h-172z" />
    <glyph glyph-name="dieresistonos" unicode="&#x385;" horiz-adv-x="1033" 
d="M961 1417q0 -121 -125 -121q-56 0 -90 26t-35 95v20q0 125 124 125t126 -125v-20zM199 1562q125 0 125 -125v-20q0 -69 -36 -95t-89 -26q-54 0 -89 26t-36 95v20q0 69 36 97t89 28zM393 1303l63 373h240l-147 -373h-156z" />
    <glyph glyph-name="Alphatonos" unicode="&#x386;" horiz-adv-x="1318" 
d="M959 0l-75 387h-329l-77 -387h-264l330 1489h378l327 -1489h-290zM842 603l-121 630l-125 -630h246zM37 1117l62 372h342l-232 -372h-172z" />
    <glyph glyph-name="anoteleia" unicode="&#x387;" horiz-adv-x="1033" 
d="M728 691q0 -93 -60 -141t-152 -47q-93 0 -152 47t-59 141v102q0 95 59 143t154 48q94 0 152 -48t58 -143v-102z" />
    <glyph glyph-name="Epsilontonos" unicode="&#x388;" horiz-adv-x="1457" 
d="M447 0v1489h843v-216h-558v-363h487v-217h-487v-477h558v-216h-843zM-19 1117l62 372h342l-232 -372h-172z" />
    <glyph glyph-name="Etatonos" unicode="&#x389;" horiz-adv-x="1597" 
d="M447 0v1489h285v-562h413v562h285v-1489h-285v709h-413v-709h-285zM-35 1117l61 372h343l-233 -372h-171z" />
    <glyph glyph-name="Iotatonos" unicode="&#x38a;" horiz-adv-x="1457" 
d="M447 0v216h279v1057h-279v216h843v-216h-279v-1057h279v-216h-843zM-35 1117l61 372h343l-233 -372h-171z" />
    <glyph glyph-name="Omicrontonos" unicode="&#x38c;" horiz-adv-x="1457" 
d="M592 492q0 -166 46 -230t162 -65q116 1 161 65t44 230v504q0 166 -44 231q-45 65 -161 65t-162 -65t-46 -231v-504zM1290 475q0 -233 -126 -363t-364 -131q-237 1 -365 131t-128 363v540q0 233 128 363t366 130t364 -130t125 -363v-540zM-6 1117l62 372h342l-232 -372
h-172z" />
    <glyph glyph-name="Upsilontonos" unicode="&#x38e;" horiz-adv-x="1604" 
d="M1156 0h-285v559l-406 930h298l257 -692l261 692h281l-406 -930v-559zM56 1117l61 372h343l-233 -372h-171z" />
    <glyph glyph-name="Omegatonos" unicode="&#x38f;" horiz-adv-x="1597" 
d="M1504 754q0 -279 -208 -395v-167h179v-192h-464v428q121 34 164 114t43 212v223q0 168 -64 242q-64 73 -212 73q-147 0 -211 -74t-64 -241v-223q-1 -132 41 -212t163 -114v-428h-461v192h176v167q-206 115 -206 395v223q0 263 142 397t420 134t420 -134t142 -397v-223z
M-6 1117l62 372h342l-232 -372h-172z" />
    <glyph glyph-name="iotadieresistonos" unicode="&#x390;" horiz-adv-x="899" 
d="M505 -19q-135 -1 -201 105t-66 277v754h285v-724q0 -186 97 -190q40 -4 123 39l43 -201q-146 -60 -281 -60zM838 1417q0 -121 -125 -121q-56 0 -90 26t-35 95v20q0 125 124 125t126 -125v-20zM76 1562q127 0 125 -125v-20q1 -69 -35 -95t-90 -26t-89 26t-35 95v20
q0 69 35 97t89 28zM270 1303l63 373h240l-147 -373h-156z" />
    <glyph glyph-name="Alpha" unicode="&#x391;" horiz-adv-x="1172" 
d="M814 0l-75 387h-329l-77 -387h-264l329 1489h378l328 -1489h-290zM696 603l-121 630l-124 -630h245z" />
    <glyph glyph-name="Beta" unicode="&#x392;" horiz-adv-x="1318" 
d="M452 209h205q117 1 163 43t46 154v74q0 110 -46 153t-163 43h-205v-467zM452 873h211q97 0 136 37t39 133v69q0 95 -39 133t-136 38h-211v-410zM168 0v1489h545q190 0 299 -93t109 -257v-74q1 -106 -49 -167t-156 -83v-54q112 -13 173 -91t62 -195v-90q1 -179 -117 -282
t-327 -103h-539z" />
    <glyph glyph-name="Gamma" unicode="&#x393;" horiz-adv-x="1038" 
d="M168 0v1489h802v-216h-518v-1273h-284z" />
    <glyph glyph-name="Delta" unicode="&#x394;" horiz-adv-x="1172" 
d="M832 216l-253 1059l-266 -1059h519zM69 0v216l322 1273h408l305 -1273v-216h-1035z" />
    <glyph glyph-name="Epsilon" unicode="&#x395;" 
d="M168 0v1489h843v-216h-559v-363h488v-217h-488v-477h559v-216h-843z" />
    <glyph glyph-name="Zeta" unicode="&#x396;" horiz-adv-x="1318" 
d="M1138 0h-956v216l611 1057h-611v216h956v-216l-643 -1057h643v-216z" />
    <glyph glyph-name="Eta" unicode="&#x397;" horiz-adv-x="1318" 
d="M168 0v1489h284v-562h414v562h285v-1489h-285v709h-414v-709h-284z" />
    <glyph glyph-name="Theta" unicode="&#x398;" horiz-adv-x="1318" 
d="M549 653v202h222v-202h-222zM660 197q124 0 172.5 69t48.5 246v458q0 181 -48.5 251.5t-172.5 70.5t-172.5 -70.5t-48.5 -251.5v-458q0 -177 48.5 -246t172.5 -69zM660 -19q-237 0 -364.5 135t-127.5 379v494q0 244 127.5 381.5t365.5 137.5t364 -137.5t126 -381.5v-494
q0 -244 -127 -379t-364 -135z" />
    <glyph glyph-name="Iota" unicode="&#x399;" 
d="M168 0v216h279v1057h-279v216h843v-216h-279v-1057h279v-216h-843z" />
    <glyph glyph-name="Kappa" unicode="&#x39a;" 
d="M452 670v-670h-284v1489h284v-601h58l309 601h313l-397 -685l391 -804h-327l-285 670h-62z" />
    <glyph glyph-name="Lambda" unicode="&#x39b;" horiz-adv-x="1172" 
d="M814 0l-239 1233l-242 -1233h-264l329 1489h378l328 -1489h-290z" />
    <glyph glyph-name="Mu" unicode="&#x39c;" horiz-adv-x="1457" 
d="M410 0h-242v1489h363l201 -832l203 832h355v-1489h-242v1139l-188 -767h-262l-188 749v-1121z" />
    <glyph glyph-name="Nu" unicode="&#x39d;" horiz-adv-x="1318" 
d="M410 0h-242v1489h383l358 -1063v1063h242v-1489h-376l-365 1138v-1138z" />
    <glyph glyph-name="Xi" unicode="&#x39e;" 
d="M140 0v216h899v-216h-899zM175 693v217h829v-217h-829zM140 1273v216h899v-216h-899z" />
    <glyph glyph-name="Omicron" unicode="&#x39f;" horiz-adv-x="1318" 
d="M452 492q0 -166 46 -230t162 -65q116 1 161 65t45 230v504q0 166 -45 231t-161 65t-162 -65t-46 -231v-504zM1151 475q0 -233 -127 -363t-364 -131q-237 1 -365 131t-127 363v540q0 233 127 363q128 130 366 130t364 -130t126 -363v-540z" />
    <glyph glyph-name="Pi" unicode="&#x3a0;" horiz-adv-x="1318" 
d="M168 0v1489h983v-1489h-285v1273h-414v-1273h-284z" />
    <glyph glyph-name="Rho" unicode="&#x3a1;" 
d="M452 702h146q89 0 130 46t41 164v147q0 117 -41 165t-130 49h-146v-571zM168 0v1489h476q202 0 306 -104t104 -305v-192q0 -196 -104 -298t-306 -102h-192v-488h-284z" />
    <glyph glyph-name="Sigma" unicode="&#x3a3;" 
d="M1039 0h-912v216l478 564l-478 493v216h912v-216h-568l387 -426v-162l-383 -469h564v-216z" />
    <glyph glyph-name="Tau" unicode="&#x3a4;" 
d="M447 0v1273h-348v216h983v-216h-350v-1273h-285z" />
    <glyph glyph-name="Upsilon" unicode="&#x3a5;" 
d="M732 0h-285v559l-406 930h298l257 -692l260 692h282l-406 -930v-559z" />
    <glyph glyph-name="Phi" unicode="&#x3a6;" horiz-adv-x="1457" 
d="M546 376h48v737h-48q-84 0 -117 -75t-32 -209v-176q1 -133 33 -205t116 -72zM916 1113h-52v-737h52q82 0 114 73t31 204v176q0 134 -31 209q-32 75 -114 75zM916 168h-45v-198h-285v198h-40q-207 0 -313 128t-106 357v176q0 233 106 363t313 130h40v197h285v-197h45
q205 0 311 -130t106 -363v-176q0 -229 -106 -357t-311 -128z" />
    <glyph glyph-name="Chi" unicode="&#x3a7;" horiz-adv-x="1318" 
d="M879 0l-226 469l-217 -469h-304l376 773l-342 716h320l207 -441l193 441h302l-350 -754l344 -735h-303z" />
    <glyph glyph-name="Psi" unicode="&#x3a8;" horiz-adv-x="1604" 
d="M946 0h-285v354q-244 26 -368.5 152.5t-124.5 344.5v638h284v-614q0 -140 49.5 -210.5t159.5 -83.5v908h285v-908q108 13 156.5 83.5t48.5 210.5v614h286v-638q0 -218 -125.5 -344.5t-365.5 -152.5v-354z" />
    <glyph glyph-name="Omega" unicode="&#x3a9;" horiz-adv-x="1312" 
d="M1219 754q0 -279 -208 -395v-167h179v-192h-464v428q121 34 164 114t43 212v223q0 168 -64.5 241.5t-211.5 73.5t-211 -73.5t-64 -241.5v-223q0 -132 41.5 -212t162.5 -114v-428h-461v192h177v167q-207 115 -207 395v223q0 263 142.5 397t420 134t419.5 -134t142 -397
v-223z" />
    <glyph glyph-name="Iotadieresis" unicode="&#x3aa;" 
d="M168 0v216h279v1057h-279v216h843v-216h-279v-1057h279v-216h-843zM910 1799q0 -122 -137 -122q-61 1 -99 27t-39 95v20q-1 127 137 127t138 -127v-20zM546 1799q0 -122 -138 -122q-62 1 -100 27t-38 95v20q0 127 137 127t139 -127v-20z" />
    <glyph glyph-name="Upsilondieresis" unicode="&#x3ab;" 
d="M732 0h-285v559l-406 930h298l257 -692l260 692h282l-406 -930v-559zM910 1799q0 -122 -137 -122q-61 1 -99 27t-39 95v20q-1 127 137 127t138 -127v-20zM546 1799q0 -122 -138 -122q-62 1 -100 27t-38 95v20q0 127 137 127t139 -127v-20z" />
    <glyph glyph-name="alphatonos" unicode="&#x3ac;" horiz-adv-x="1318" 
d="M458 -17q-128 1 -209 103q-82 102 -81 286v358q0 190 75 299t206 109q84 0 148 -50t88 -140h41v171h285v-780q0 -91 39 -121t129 -11v-205q-138 -35 -231 15t-119 182h-43q-36 -102 -118 -159t-210 -57zM562 205q105 0 164 113v471q-35 67 -73 97q-37 30 -93 30t-82 -49
t-26 -161v-296q0 -108 26 -156t84 -49zM484 1303l62 373h342l-233 -373h-171z" />
    <glyph glyph-name="epsilontonos" unicode="&#x3ad;" 
d="M194 806v32q0 149 103 223q103 75 294 75q403 1 420 -352l-261 -15q-11 97 -44 135q-34 38 -106 38t-101 -29q-30 -29 -30 -96v-26q-1 -63 35 -88t107 -25h69v-173h-69q-86 -1 -125 -37t-39 -114v-19q0 -76 34 -117t121 -41t126 43t48 149l261 -13q-19 -194 -126 -284
t-315 -91q-208 0 -317 81q-110 81 -110 240v26q0 97 53 161t165 75v41q-193 14 -193 201zM486 1303l61 373h343l-233 -373h-171z" />
    <glyph glyph-name="etatonos" unicode="&#x3ae;" 
d="M629 914q-102 0 -177 -143v-771h-284v1117h284v-156h41q28 83 99 129t178 46t174 -90t67 -247v-1171h-285v1130q0 80 -23 118t-74 38zM501 1303l61 373h343l-233 -373h-171z" />
    <glyph glyph-name="iotatonos" unicode="&#x3af;" horiz-adv-x="899" 
d="M505 -19q-135 -1 -201 105t-66 277v754h285v-724q0 -186 97 -190q40 -4 123 39l43 -201q-146 -60 -281 -60zM283 1303l61 373h343l-233 -373h-171z" />
    <glyph glyph-name="upsilondieresistonos" unicode="&#x3b0;" 
d="M1011 432q0 -210 -111 -330t-309 -121q-198 0 -311 120t-112 331v685h284v-683q0 -130 32 -184t106 -53q74 0 105 52t31 181v687h285v-685zM1033 1417q0 -121 -124 -121q-56 0 -91 26q-34 26 -34 95v20q0 125 124 125t125 -125v-20zM397 1417q0 -121 -125 -121
q-54 0 -90 26q-35 26 -35 95v20q0 69 35 97t90 28q125 0 125 -125v-20zM465 1303l64 373h240l-147 -373h-157z" />
    <glyph glyph-name="alpha" unicode="&#x3b1;" horiz-adv-x="1318" 
d="M458 -17q-128 0 -209 102.5t-81 286.5v358q0 190 75 299t206 109q84 0 148 -50.5t88 -139.5h41v171h285v-780q0 -91 39 -121t129 -11v-205q-138 -35 -231 15t-119 182h-43q-35 -102 -117.5 -159t-210.5 -57zM562 205q105 0 164 113v471q-35 67 -73.5 97t-93.5 30
t-81 -49.5t-26 -160.5v-296q0 -108 26 -156.5t84 -48.5z" />
    <glyph glyph-name="beta" unicode="&#x3b2;" 
d="M966 1100q0 -222 -223 -266v-54q125 -13 195.5 -98.5t72.5 -203.5v-78q0 -195 -95.5 -307t-263.5 -112q-104 0 -200 47v-400h-284v1450q0 220 113 325t293 105t286 -97.5t106 -269.5v-41zM575 194q149 0 149 234v62q0 119 -35.5 166.5t-111.5 47.5h-78v179h69
q60 0 88.5 40.5t28.5 134.5v33q0 108 -27 154.5t-89 46.5t-89.5 -46.5t-27.5 -154.5v-851q57 -46 123 -46z" />
    <glyph glyph-name="gamma" unicode="&#x3b3;" horiz-adv-x="1038" 
d="M691 -372h-343l30 409l-317 1080h285l179 -733l168 733h283l-313 -1080z" />
    <glyph glyph-name="delta" unicode="&#x3b4;" 
d="M452 398q0 -208 138 -208q69 0 102.5 48.5t33.5 159.5v185q0 91 -47.5 142t-131.5 87q-95 -74 -95 -231v-183zM590 -19q-188 0 -305 102.5t-117 314.5v183q0 112 53 185.5t157 123.5q-89 48 -128.5 113.5t-39.5 161.5q0 168 95 246t281 78h287v-208h-287q-50 0 -76 -22.5
t-26 -84.5t59 -98t203 -100t204.5 -154t60.5 -239v-185q0 -212 -116.5 -314.5t-304.5 -102.5z" />
    <glyph glyph-name="epsilon" unicode="&#x3b5;" 
d="M194 806v32q0 149 103 223.5t294 74.5q403 0 420 -352l-261 -15q-11 97 -44.5 135t-105.5 38t-101.5 -29t-29.5 -96v-26q0 -63 35.5 -88t106.5 -25h69v-173h-69q-86 0 -125 -36.5t-39 -114.5v-19q0 -76 34.5 -117t120.5 -41t125.5 43t48.5 149l261 -13
q-19 -194 -126 -284.5t-315 -90.5t-317.5 81t-109.5 240v26q0 97 53.5 161t164.5 75v41q-193 14 -193 201z" />
    <glyph glyph-name="zeta" unicode="&#x3b6;" 
d="M659 -372h-212v201h205q50 0 80.5 21.5t30.5 90t-30.5 93t-80.5 24.5h-92q-186 0 -288.5 109.5t-102.5 277.5t45 274t140 232l167 226l-13 28q-134 -6 -230.5 71.5t-141.5 211.5l164 76q63 -140 169 -179t261 2l259 151l57 -261l-301 -80l-181 -316q-56 -101 -83 -190.5
t-27 -195.5t40 -171t119 -65h132q125 0 195.5 -75.5t70.5 -234.5t-95 -240t-257 -81z" />
    <glyph glyph-name="eta" unicode="&#x3b7;" 
d="M629 914q-102 0 -177 -143v-771h-284v1117h284v-156h41q28 82 99 128.5t178 46.5t174 -89.5t67 -247.5v-1171h-285v1130q0 80 -23 118t-74 38z" />
    <glyph glyph-name="theta" unicode="&#x3b8;" 
d="M590 190q82 0 116.5 52t34.5 175v242h-302v-242q0 -123 34.5 -175t116.5 -52zM439 1072v-221h302v223q0 123 -34.5 174.5t-116.5 51.5t-116.5 -52.5t-34.5 -175.5zM590 -19q-199 0 -310.5 112t-111.5 311v674q0 203 111.5 316.5t311.5 113.5t310 -113.5t110 -316.5v-674
q0 -199 -111 -311t-310 -112z" />
    <glyph glyph-name="iota" unicode="&#x3b9;" horiz-adv-x="899" 
d="M505 -19q-135 0 -201 105.5t-66 276.5v754h285v-724q0 -186 97 -190q36 -3 123 39l43 -201q-146 -60 -281 -60z" />
    <glyph glyph-name="kappa" unicode="&#x3ba;" horiz-adv-x="1038" 
d="M452 503v-503h-284v1117h284v-419h51l197 419h292l-257 -495l254 -622h-304l-180 503h-53z" />
    <glyph glyph-name="lambda" unicode="&#x3bb;" horiz-adv-x="1038" 
d="M324 1504q184 0 286.5 -84.5t139.5 -274.5l226 -1147h-278l-179 920l-178 -920h-280l226 1061h205l-6 34q-20 101 -63 154t-127 53t-203 -25l-13 207q174 22 244 22z" />
    <glyph glyph-name="mu" unicode="&#x3bc;" horiz-adv-x="1318" 
d="M168 1117h284v-739q0 -91 35.5 -131t85.5 -40q101 0 153 104v806h285v-789q0 -84 39 -112t129 -9v-205q-136 -30 -214.5 6.5t-119.5 149.5h-41q-67 -177 -212 -177q-88 0 -140 86v-30l15 -409h-312l13 409v1080z" />
    <glyph glyph-name="nu" unicode="&#x3bd;" horiz-adv-x="1038" 
d="M976 1117q-42 -556 -311 -1117h-293l-311 1117h287l201 -838q119 396 145 838h282z" />
    <glyph glyph-name="xi" unicode="&#x3be;" 
d="M1011 -51q0 -159 -95 -240t-257 -81h-214v201h205q50 0 80.5 21.5t30.5 90t-30.5 93t-80.5 24.5h-147q-155 0 -245 93t-90 251v41q0 117 63 198t184 94v43q-76 0 -120 50.5t-44 128.5t46.5 134t126.5 76v43q-132 2 -216.5 70t-134.5 208l163 76q63 -117 161 -157t253 -14
l288 145l60 -261l-322 -76l-49 -39q-91 -74 -91 -183q0 -69 31 -96.5t77 -27.5h240v-202h-238q-93 0 -143.5 -47t-50.5 -135v-41q0 -80 42 -125.5t126 -45.5h71q151 0 235.5 -75.5t84.5 -234.5z" />
    <glyph glyph-name="omicron" unicode="&#x3bf;" 
d="M590 190q74 0 105 46t31 155v337q0 106 -31 153t-105 47t-106 -48q-32 -46 -32 -154v-335q0 -109 32 -155t106 -46zM1011 384q0 -188 -113 -296t-309 -107q-196 0 -309 107t-112 296v344q0 190 113 299t309 109t308 -109t113 -299v-344z" />
    <glyph glyph-name="pi" unicode="&#x3c0;" horiz-adv-x="1318" 
d="M1165 1117v-208h-139v-570q0 -91 38 -120t129 -12v-205q-222 -37 -337 31t-115 239v637h-218v-909h-285v909h-139v208h1066z" />
    <glyph glyph-name="rho" unicode="&#x3c1;" 
d="M168 -372v1091q0 199 110.5 306t313.5 107t311 -107t108 -306v-339q0 -177 -73.5 -288t-218.5 -111q-95 0 -154 55t-72 146h-41v-554h-284zM726 415v317q0 193 -137 193t-137 -193v-389q80 -138 164 -138q110 0 110 210z" />
    <glyph glyph-name="sigma1" unicode="&#x3c2;" 
d="M447 -372v208h190q50 0 80.5 21.5t30.5 88.5t-30.5 89.5t-80.5 22.5h-125q-158 0 -251 118t-93 312v225q0 201 110 312t308 111t302 -100.5t123 -309.5l-274 -20q-7 130 -38 174.5t-109 44.5t-108 -50t-30 -168v-221q0 -117 28 -167.5t108 -50.5h116q156 0 231.5 -76.5
t75.5 -236.5t-111.5 -243.5t-299.5 -83.5h-153z" />
    <glyph glyph-name="sigma" unicode="&#x3c3;" horiz-adv-x="1318" 
d="M1011 644v-251q0 -197 -113.5 -304.5t-307 -107.5t-308 107t-114.5 305v313q0 194 114.5 302.5t309.5 108.5h629v-227l-305 28q95 -97 95 -274zM590.5 190q74.5 0 105 47.5t30.5 168.5v275q0 130 -30.5 182.5t-105 52.5t-106.5 -48.5t-32 -167.5v-294q0 -121 32 -168.5
t106.5 -47.5z" />
    <glyph glyph-name="tau" unicode="&#x3c4;" horiz-adv-x="1038" 
d="M378 272v629h-279v216h856v-216h-292v-562q0 -89 38 -119t129 -13v-205q-222 -37 -337 31t-115 239z" />
    <glyph glyph-name="upsilon" unicode="&#x3c5;" 
d="M591 -19q-198 0 -310.5 120.5t-112.5 330.5v685h284v-683q0 -130 32 -183.5t106.5 -53.5t105 52.5t30.5 180.5v687h285v-685q0 -210 -111 -330.5t-309 -120.5z" />
    <glyph glyph-name="phi" unicode="&#x3c6;" horiz-adv-x="1604" 
d="M946 901v-691q110 22 157.5 96t47.5 210v70q0 315 -205 315zM452 667v-110q0 -155 48.5 -238t160.5 -107v905h188q244 0 416 -131t172 -400v-70q0 -227 -135 -361.5t-356 -163.5v-363h-285v363q-249 30 -371 177t-122 389v110q0 299 100 482l278 -60q-94 -188 -94 -422z
" />
    <glyph glyph-name="chi" unicode="&#x3c7;" horiz-adv-x="1038" 
d="M674 -372l-168 432l-143 -432h-287l296 765l-284 724h284l157 -398l134 398h285l-287 -733l298 -756h-285z" />
    <glyph glyph-name="psi" unicode="&#x3c8;" horiz-adv-x="1604" 
d="M946 -372h-285v353q-257 28 -375 160.5t-118 336.5v639h284v-614q0 -128 47.5 -195.5t161.5 -87.5v897h285v-897q112 20 158.5 87t46.5 196v614h286v-639q0 -205 -118 -337t-373 -160v-353z" />
    <glyph glyph-name="omega" unicode="&#x3c9;" horiz-adv-x="1604" 
d="M499 -19q-149 0 -240 131.5t-91 380.5v134q0 160 27.5 306.5t59.5 215.5l277 -60q-20 -58 -50 -188t-30 -274v-134q0 -296 104.5 -296t104.5 207v527h285v-527q0 -207 102 -207t103 296v134q0 143 -29 273.5t-51 188.5l279 60q30 -69 58.5 -215t28.5 -307v-134
q0 -249 -92 -380.5t-241 -131.5q-212 0 -283 244h-45q-67 -244 -277 -244z" />
    <glyph glyph-name="iotadieresis" unicode="&#x3ca;" horiz-adv-x="899" 
d="M505 -19q-135 -1 -201 105t-66 277v754h285v-724q0 -186 97 -190q40 -4 123 39l43 -201q-146 -60 -281 -60zM432 1447q0 126 138 126t137 -126v-21q-1 -69 -39 -95t-98 -26t-100 26q-38 26 -38 95v21zM343 1426q0 -121 -138 -121q-61 0 -100 26q-38 26 -38 95v21
q0 126 137 126t139 -126v-21z" />
    <glyph glyph-name="upsilondieresis" unicode="&#x3cb;" 
d="M1011 432q0 -210 -111 -330t-309 -121q-198 0 -311 120t-112 331v685h284v-683q0 -130 32 -184t106 -53q74 0 105 52t31 181v687h285v-685zM635 1447q-1 126 137 126t138 -126v-21q0 -69 -38 -95t-100 -26q-60 0 -99 26q-38 26 -38 95v21zM546 1426q0 -121 -138 -121
q-61 0 -100 26q-38 26 -38 95v21q0 126 137 126t139 -126v-21z" />
    <glyph glyph-name="omicrontonos" unicode="&#x3cc;" 
d="M590 190q74 0 105 46t31 155v337q0 106 -31 153t-105 47t-106 -48q-32 -46 -32 -154v-335q0 -109 32 -155t106 -46zM1011 384q0 -188 -113 -296t-309 -107q-196 0 -309 107t-112 296v344q0 190 113 299t309 109t308 -109t113 -299v-344zM471 1303l61 373h343l-233 -373
h-171z" />
    <glyph glyph-name="upsilontonos" unicode="&#x3cd;" 
d="M1011 432q0 -210 -111 -330t-309 -121q-198 0 -311 120t-112 331v685h284v-683q0 -130 32 -184t106 -53q74 0 105 52t31 181v687h285v-685zM486 1303l61 373h343l-233 -373h-171z" />
    <glyph glyph-name="omegatonos" unicode="&#x3ce;" horiz-adv-x="1604" 
d="M499 -19q-149 -1 -240 131t-91 381v134q0 161 28 307t59 215l277 -60q-20 -58 -50 -188t-30 -274v-134q0 -294 105 -296q104 0 104 207v527h285v-527q0 -205 102 -207q101 0 103 296v134q0 143 -29 273t-51 189l279 60q30 -69 58 -215t29 -307v-134q0 -249 -92 -380
t-241 -132q-212 0 -283 244h-45q-67 -244 -277 -244zM685 1303l62 373h342l-233 -373h-171z" />
    <glyph glyph-name="IEgravecyrillic" unicode="&#x400;" 
d="M168 0v1489h843v-216h-559v-363h488v-217h-488v-477h559v-216h-843zM531 1676l-317 372h356l147 -372h-186z" />
    <glyph glyph-name="Iocyrillic" unicode="&#x401;" 
d="M168 0v1489h843v-216h-559v-363h488v-217h-488v-477h559v-216h-843zM923 1799q0 -122 -137 -122q-62 1 -100 27t-38 95v20q0 127 138 127t137 -127v-20zM559 1799q0 -122 -138 -122q-61 1 -99 27t-39 95v20q0 127 137 127t139 -127v-20z" />
    <glyph glyph-name="Djecyrillic" unicode="&#x402;" horiz-adv-x="1457" 
d="M389 0v1273h-290v216h925v-216h-348v-305h208q229 0 340 -102.5t111 -314.5v-136q0 -210 -111 -312.5t-340 -102.5v212q80 0 123 45.5t43 161.5v128q0 115 -43 162t-123 47h-208v-756h-287z" />
    <glyph glyph-name="Gjecyrillic" unicode="&#x403;" horiz-adv-x="1038" 
d="M168 0v1489h802v-216h-518v-1273h-284zM382 1676l145 372h356l-317 -372h-184z" />
    <glyph glyph-name="Ecyrillic" unicode="&#x404;" horiz-adv-x="1318" 
d="M169 471v540q0 246 131.5 371.5t379.5 125.5q496 0 515 -519l-285 -19q-13 186 -59.5 254t-172.5 68t-175 -62.5t-49 -235.5v-84h347v-217h-347v-207q0 -168 50 -228.5t176 -60.5t172.5 66.5t57.5 248.5l285 -19q-19 -512 -515 -512q-248 0 -379.5 124t-131.5 366z" />
    <glyph glyph-name="Dzecyrillic" unicode="&#x405;" horiz-adv-x="1318" 
d="M659 1288q-91 0 -145 -47t-54 -134t55 -131t249 -108t294 -161q102 -97 102 -283t-132 -312q-132 -127 -375 -127q-244 0 -478 145l52 222q217 -149 447 -149q99 0 149 51t50 139q-1 87 -61 133t-240 106t-287 155q-108 96 -108 283t127 310q128 123 344 122
q123 0 238 -38t201 -101l-39 -212q-207 137 -389 137z" />
    <glyph glyph-name="Icyrillic" unicode="&#x406;" 
d="M168 0v216h279v1057h-279v216h843v-216h-279v-1057h279v-216h-843z" />
    <glyph glyph-name="Yicyrillic" unicode="&#x407;" 
d="M168 0v216h279v1057h-279v216h843v-216h-279v-1057h279v-216h-843zM910 1799q0 -122 -137 -122q-61 1 -99 27t-39 95v20q-1 127 137 127t138 -127v-20zM546 1799q0 -122 -138 -122q-62 1 -100 27t-38 95v20q0 127 137 127t139 -127v-20z" />
    <glyph glyph-name="Jecyrillic" unicode="&#x408;" 
d="M1011 473q0 -255 -108 -373q-109 -118 -347 -119q-238 0 -336 114t-108 408l285 20q11 -197 45 -261t126 -64t126 59q33 60 32 223v793h-352v216h637v-1016z" />
    <glyph glyph-name="Ljecyrillic" unicode="&#x409;" horiz-adv-x="1876" 
d="M1151 216h150q86 0 126 48.5t40 165.5v147q0 117 -40 164t-126 47h-150v-572zM251 -22q-77 0 -180 28l28 216l38 -10q38 -9 60 -9q48 0 75.5 54t27.5 207l5 1025h846v-487h197q199 0 301.5 -101.5t102.5 -299.5v-191q0 -203 -102.5 -306.5t-301.5 -103.5h-482v1273h-281
l-2 -834q-2 -240 -91.5 -350.5t-240.5 -110.5z" />
    <glyph glyph-name="Njecyrillic" unicode="&#x40a;" horiz-adv-x="1876" 
d="M452 709v-709h-284v1489h284v-562h414v562h285v-487h197q197 0 300.5 -102.5t103.5 -298.5v-191q0 -199 -102.5 -304.5t-301.5 -105.5h-482v709h-414zM1151 216h150q86 0 126 48.5t40 165.5v147q0 117 -40 164t-126 47h-150v-572z" />
    <glyph glyph-name="Tshecyrillic" unicode="&#x40b;" horiz-adv-x="1457" 
d="M1005 492q0 215 -150 215h-164v-707h-287v1273h-305v216h955v-216h-363v-353h186q205 0 309 -105.5t104 -309.5v-505h-285v492z" />
    <glyph glyph-name="Kjecyrillic" unicode="&#x40c;" 
d="M452 670v-670h-284v1489h284v-601h58l309 601h313l-397 -685l391 -804h-327l-285 670h-62zM501 1676l145 372h356l-317 -372h-184z" />
    <glyph glyph-name="Igravecyrillic" unicode="&#x40d;" horiz-adv-x="1318" 
d="M896 0v1156l-324 -1156h-404v1489h256v-1199l347 1199h380v-1489h-255zM605 1676l-316 372h355l147 -372h-186z" />
    <glyph glyph-name="Ushortcyrillic" unicode="&#x40e;" 
d="M328 201q115 0 164 156l11 36h-105l-337 1096h278l246 -828l253 828h279l-387 -1182q-104 -322 -406 -322q-94 0 -188 24l22 216q109 -24 170 -24zM605 1663q-175 1 -274 99t-96 297l243 19q-2 -128 26 -182t101 -53q74 0 102 53q27 53 25 182l244 -19q2 -199 -97 -297
t-274 -99z" />
    <glyph glyph-name="Dzhecyrillic" unicode="&#x40f;" horiz-adv-x="1318" 
d="M514 -279v279h-346v1489h284v-1273h414v1273h285v-1489h-349v-279h-288z" />
    <glyph glyph-name="Acyrillic" unicode="&#x410;" horiz-adv-x="1172" 
d="M814 0l-75 387h-329l-77 -387h-264l329 1489h378l328 -1489h-290zM696 603l-121 630l-124 -630h245z" />
    <glyph glyph-name="Becyrillic" unicode="&#x411;" horiz-adv-x="1318" 
d="M750 216q136 0 136 210v80q0 115 -36 161t-100 46h-298v-497h298zM168 0v1489h912v-216h-628v-346h326q192 0 292.5 -101.5t100.5 -291.5v-117q0 -203 -100.5 -310t-292.5 -107h-610z" />
    <glyph glyph-name="Vecyrillic" unicode="&#x412;" horiz-adv-x="1318" 
d="M452 209h205q117 1 163 43t46 154v74q0 110 -46 153t-163 43h-205v-467zM452 873h211q97 0 136 37t39 133v69q0 95 -39 133t-136 38h-211v-410zM168 0v1489h545q190 0 299 -93t109 -257v-74q1 -106 -49 -167t-156 -83v-54q112 -13 173 -91t62 -195v-90q1 -179 -117 -282
t-327 -103h-539z" />
    <glyph glyph-name="Gecyrillic" unicode="&#x413;" horiz-adv-x="1038" 
d="M168 0v1489h802v-216h-518v-1273h-284z" />
    <glyph glyph-name="Decyrillic" unicode="&#x414;" horiz-adv-x="1457" 
d="M384 0v-279h-285v495h110q72 76 76 357l9 916h857v-1273h139v-495h-285v279h-621zM516 216h350v1057h-293l-3 -707q-4 -211 -54 -307v-43z" />
    <glyph glyph-name="Iecyrillic" unicode="&#x415;" 
d="M168 0v1489h843v-216h-559v-363h488v-217h-488v-477h559v-216h-843z" />
    <glyph glyph-name="Zhecyrillic" unicode="&#x416;" horiz-adv-x="1457" 
d="M601 877v612h257v-612h49l225 612h277l-273 -664l270 -825h-283l-190 681h-75v-681h-257v681h-74l-192 -681h-283l281 812l-285 677h278l225 -612h50z" />
    <glyph glyph-name="Zecyrillic" unicode="&#x417;" horiz-adv-x="1318" 
d="M678 -19q-261 0 -387.5 117.5t-135.5 335.5l284 18q9 -141 56 -199.5t163 -58.5t161 53t45 170v45q0 106 -46.5 156t-145.5 50h-113v215h113q91 0 128.5 36t37.5 142v49q0 99 -41 142.5t-139 43.5t-140.5 -49.5t-50.5 -179.5l-285 18q9 210 119 316.5t344 106.5
t356 -88.5t122 -287.5v-48q0 -123 -38.5 -182.5t-133.5 -87.5v-54q108 -22 154 -93t46 -216v-41q0 -218 -131.5 -323.5t-341.5 -105.5z" />
    <glyph glyph-name="Iicyrillic" unicode="&#x418;" horiz-adv-x="1318" 
d="M896 0v1156l-324 -1156h-404v1489h256v-1199l347 1199h380v-1489h-255z" />
    <glyph glyph-name="Iishortcyrillic" unicode="&#x419;" horiz-adv-x="1318" 
d="M896 0v1156l-324 -1156h-404v1489h256v-1199l347 1199h380v-1489h-255zM661 1663q-175 1 -274 99t-97 297l244 19q-2 -128 25 -182t101 -53q74 0 102 53q27 53 26 182l243 -19q2 -199 -96 -298q-99 -98 -274 -98z" />
    <glyph glyph-name="Kacyrillic" unicode="&#x41a;" 
d="M452 670v-670h-284v1489h284v-601h58l309 601h313l-397 -685l391 -804h-327l-285 670h-62z" />
    <glyph glyph-name="Elcyrillic" unicode="&#x41b;" horiz-adv-x="1318" 
d="M197 203q58 0 80.5 55t22.5 206l5 1025h846v-1489h-285v1273h-281l-2 -834q-2 -240 -91.5 -350.5t-240.5 -110.5q-77 0 -180 28l28 216q68 -19 98 -19z" />
    <glyph glyph-name="Emcyrillic" unicode="&#x41c;" horiz-adv-x="1457" 
d="M410 0h-242v1489h363l201 -832l203 832h355v-1489h-242v1139l-188 -767h-262l-188 749v-1121z" />
    <glyph glyph-name="Encyrillic" unicode="&#x41d;" horiz-adv-x="1318" 
d="M168 0v1489h284v-562h414v562h285v-1489h-285v709h-414v-709h-284z" />
    <glyph glyph-name="Ocyrillic" unicode="&#x41e;" horiz-adv-x="1318" 
d="M452 492q0 -166 46 -230t162 -65q116 1 161 65t45 230v504q0 166 -45 231t-161 65t-162 -65t-46 -231v-504zM1151 475q0 -233 -127 -363t-364 -131q-237 1 -365 131t-127 363v540q0 233 127 363q128 130 366 130t364 -130t126 -363v-540z" />
    <glyph glyph-name="Pecyrillic" unicode="&#x41f;" horiz-adv-x="1318" 
d="M168 0v1489h983v-1489h-285v1273h-414v-1273h-284z" />
    <glyph glyph-name="Ercyrillic" unicode="&#x420;" 
d="M452 702h146q89 0 130 46t41 164v147q0 117 -41 165t-130 49h-146v-571zM168 0v1489h476q202 0 306 -104t104 -305v-192q0 -196 -104 -298t-306 -102h-192v-488h-284z" />
    <glyph glyph-name="Escyrillic" unicode="&#x421;" horiz-adv-x="1318" 
d="M168 1015q0 235 126 364q127 129 383 129q255 0 381 -129t135 -392l-284 -19q-9 184 -59 254t-174 70q-123 0 -173 -65t-51 -233v-508q0 -162 50 -225t174 -63q122 0 173 68q50 69 60 248l284 -19q-18 -514 -504 -514q-270 0 -396 128t-125 360v546z" />
    <glyph glyph-name="Tecyrillic" unicode="&#x422;" 
d="M447 0v1273h-348v216h983v-216h-350v-1273h-285z" />
    <glyph glyph-name="Ucyrillic" unicode="&#x423;" 
d="M328 201q115 0 164 156l11 36h-105l-337 1096h278l246 -828l253 828h279l-387 -1182q-104 -322 -406 -322q-103 0 -188 24l22 216q109 -24 170 -24z" />
    <glyph glyph-name="Efcyrillic" unicode="&#x424;" horiz-adv-x="1457" 
d="M546 376h48v737h-48q-84 0 -116.5 -75t-32.5 -209v-176q0 -132 32.5 -204.5t116.5 -72.5zM916 1113h-52v-737h52q82 0 113.5 72.5t31.5 204.5v176q0 134 -31.5 209t-113.5 75zM916 168h-45v-198h-285v198h-40q-207 0 -313 128t-106 357v176q0 233 106 363t313 130h40v197
h285v-197h45q205 0 311 -130.5t106 -362.5v-176q0 -229 -106 -357t-311 -128z" />
    <glyph glyph-name="Khacyrillic" unicode="&#x425;" horiz-adv-x="1318" 
d="M879 0l-226 469l-217 -469h-304l376 773l-342 716h320l207 -441l193 441h302l-350 -754l344 -735h-303z" />
    <glyph glyph-name="Tsecyrillic" unicode="&#x426;" horiz-adv-x="1318" 
d="M936 -279v279h-768v1489h284v-1273h345v1273h285v-1273h139v-495h-285z" />
    <glyph glyph-name="Checyrillic" unicode="&#x427;" 
d="M1011 1489v-1489h-285v497h-149q-229 0 -339.5 106t-110.5 328v558h284v-554q0 -110 43 -168t123 -58h149v780h285z" />
    <glyph glyph-name="Shacyrillic" unicode="&#x428;" horiz-adv-x="1597" 
d="M168 0v1489h271v-1273h226v1273h270v-1273h225v1273h270v-1489h-1262z" />
    <glyph glyph-name="Shchacyrillic" unicode="&#x429;" horiz-adv-x="1668" 
d="M1570 -279h-283v279h-1119v1489h271v-1273h226v1273h270v-1273h225v1273h270v-1273h140v-495z" />
    <glyph glyph-name="Hardsigncyrillic" unicode="&#x42a;" horiz-adv-x="1318" 
d="M592 216h151q86 0 126 49.5t40 164.5v147q0 117 -40 164t-126 47h-151v-572zM789 0h-482v1273h-279v216h564v-487h197q207 0 305.5 -98t98.5 -303v-191q0 -209 -98.5 -309.5t-305.5 -100.5z" />
    <glyph glyph-name="Yericyrillic" unicode="&#x42b;" horiz-adv-x="1604" 
d="M452 216h123q78 0 114.5 49.5t36.5 164.5v147q0 117 -36.5 164t-114.5 47h-123v-572zM1151 0v1489h286v-1489h-286zM168 0v1489h284v-487h172q195 0 291 -99t96 -302v-191q0 -207 -96 -308.5t-293 -101.5h-454z" />
    <glyph glyph-name="Softsigncyrillic" unicode="&#x42c;" 
d="M452 216h151q86 0 126 49.5t40 164.5v147q0 117 -40 164t-126 47h-151v-572zM168 0v1489h284v-487h198q205 0 304.5 -99t99.5 -302v-191q0 -207 -99.5 -308.5t-304.5 -101.5h-482z" />
    <glyph glyph-name="Ereversedcyrillic" unicode="&#x42d;" horiz-adv-x="1318" 
d="M1195 467q0 -486 -508 -486q-255 0 -381.5 129.5t-136.5 392.5l285 18q9 -181 59.5 -250.5t172.5 -69.5t173 58.5t51 209.5v224h-325v217h325v95q0 158 -49 220t-171 62t-174 -73t-62 -253l-285 18q18 529 518 529q257 0 382.5 -122t125.5 -371v-548z" />
    <glyph glyph-name="IUcyrillic" unicode="&#x42e;" horiz-adv-x="1744" 
d="M1119 197q95 0 133 64.5t38 224.5v510q0 164 -38 230t-133 66t-133 -66t-38 -230v-510q0 -160 38 -224.5t133 -64.5zM1119 -19q-222 0 -339 128.5t-117 359.5v224h-211v-693h-284v1489h284v-579h211v105q0 233 118 363t339.5 130t339 -130.5t117.5 -362.5v-546
q0 -231 -118 -359.5t-340 -128.5z" />
    <glyph glyph-name="IAcyrillic" unicode="&#x42f;" horiz-adv-x="1318" 
d="M197 964v125q0 199 99 299.5t290 100.5h565v-1489h-285v553h-138l-274 -553h-299l284 573q-242 69 -242 391zM633 767h233v506h-233q-74 0 -112.5 -40.5t-38.5 -150.5v-116q0 -112 38.5 -155.5t112.5 -43.5z" />
    <glyph glyph-name="acyrillic" unicode="&#x430;" horiz-adv-x="1318" 
d="M817 153q-113 -172 -343 -172q-128 0 -211 86q-81 87 -81 237t88 233t240 83h231v168q0 152 -138 152q-71 0 -105 -38t-51 -148l-244 47q61 335 428 335q190 0 292 -80t103 -257v-479q0 -86 43 -108t124 -5v-205q-127 -28 -215 3t-116 148h-45zM557 460q-103 0 -103 -146
t112 -145q117 0 175 92v199h-184z" />
    <glyph glyph-name="becyrillic" unicode="&#x431;" 
d="M588.5 190q74.5 0 105 51t30.5 154v214q0 95 -30.5 140.5t-105 45.5t-105.5 -45.5t-31 -140.5v-214q0 -102 31 -153.5t105.5 -51.5zM1011 637v-231q0 -214 -116.5 -319.5t-304.5 -105.5t-305 108t-117 345v458q0 272 109.5 406t364.5 171l294 48l23 -217l-294 -53
q-121 -22 -173.5 -96.5t-52.5 -223.5v-84h32q72 162 257 162q123 0 203 -99.5t80 -268.5z" />
    <glyph glyph-name="vecyrillic" unicode="&#x432;" 
d="M439 195h172q86 0 121 33t35 113v18q0 76 -36.5 108t-123.5 32h-168v-304zM439 665h168q74 0 104 26t30 89v26q0 69 -29 97t-101 28h-172v-266zM1037 305q0 -305 -441 -305h-428v1117h428q210 0 312.5 -70.5t102.5 -216.5v-33q0 -183 -192 -197v-41q106 -9 162 -67
t56 -161v-26z" />
    <glyph glyph-name="gecyrillic" unicode="&#x433;" horiz-adv-x="899" 
d="M168 0v1117h662v-216h-378v-901h-284z" />
    <glyph glyph-name="decyrillic" unicode="&#x434;" horiz-adv-x="1318" 
d="M367 0v-279h-270v488h115q73 67 77 288l7 620h730v-908h139v-488h-269v279h-529zM503 209h253v700h-196l-1 -401q-2 -88 -13 -149t-43 -108v-42z" />
    <glyph glyph-name="iecyrillic" unicode="&#x435;" 
d="M452 737v-70h274v61q0 123 -31 172q-31 50 -105 50t-106 -48t-32 -165zM566 -19q-178 1 -288 107q-111 106 -110 292v359q0 186 112 292q113 105 310 105t309 -108t112 -298v-225h-559v-125q0 -117 34 -162t112 -45t113 32t64 113l232 -65q-39 -130 -151 -201t-290 -71z
" />
    <glyph glyph-name="zhecyrillic" unicode="&#x436;" horiz-adv-x="1318" 
d="M546 665v452h227v-452h61l160 452h248l-222 -521l218 -596h-244l-141 484h-80v-484h-227v484h-81l-141 -484h-242l220 601l-224 516h246l160 -452h62z" />
    <glyph glyph-name="zecyrillic" unicode="&#x437;" 
d="M1011 806q0 -189 -192 -205v-41q112 -11 165 -74t53 -158v-26q0 -162 -112 -241.5t-315 -79.5q-411 0 -441 375l259 13q11 -110 48.5 -151t127.5 -41t123 39t33 119v19q0 76 -36.5 109.5t-118.5 33.5h-73v173h73q69 0 100.5 26t31.5 95v26q0 69 -28.5 97t-102.5 28
t-107.5 -36.5t-44.5 -136.5l-260 15q18 352 424 352q175 0 284 -71t109 -227v-32z" />
    <glyph glyph-name="iicyrillic" unicode="&#x438;" 
d="M771 0v747l-317 -747h-286v1117h242v-793l337 793h264v-1117h-240z" />
    <glyph glyph-name="iishortcyrillic" unicode="&#x439;" 
d="M771 0v747l-317 -747h-286v1117h242v-793l337 793h264v-1117h-240zM590 1290q-176 0 -274 99t-96 298l244 18q-2 -128 25 -181t101 -53t102 53q27 53 25 181l244 -18q2 -199 -97 -298t-274 -99z" />
    <glyph glyph-name="kacyrillic" unicode="&#x43a;" horiz-adv-x="1038" 
d="M452 484v-484h-284v1117h284v-437h53l210 437h277l-290 -503l287 -614h-289l-195 484h-53z" />
    <glyph glyph-name="elcyrillic" unicode="&#x43b;" 
d="M184 195q41 0 63.5 54t24.5 205l5 663h734v-1117h-285v909h-182l-4 -479q-4 -452 -289 -452q-77 0 -180 28l28 208q65 -19 85 -19z" />
    <glyph glyph-name="emcyrillic" unicode="&#x43c;" horiz-adv-x="1318" 
d="M410 0h-242v1117h333l164 -512l160 512h326v-1117h-242v758l-148 -479h-204l-147 481v-760z" />
    <glyph glyph-name="encyrillic" unicode="&#x43d;" 
d="M168 0v1117h284v-383h274v383h285v-1117h-285v518h-274v-518h-284z" />
    <glyph glyph-name="ocyrillic" unicode="&#x43e;" 
d="M590 190q74 0 105 46t31 155v337q0 106 -31 153t-105 47t-106 -48q-32 -46 -32 -154v-335q0 -109 32 -155t106 -46zM1011 384q0 -188 -113 -296t-309 -107q-196 0 -309 107t-112 296v344q0 190 113 299t309 109t308 -109t113 -299v-344z" />
    <glyph glyph-name="pecyrillic" unicode="&#x43f;" 
d="M168 0v1117h843v-1117h-285v901h-274v-901h-284z" />
    <glyph glyph-name="ercyrillic" unicode="&#x440;" 
d="M652 -15q-112 0 -200 49v-406h-284v1489h284v-156h41q25 83 93 129t162 46q128 0 196 -100t67 -280v-385q0 -184 -94 -285t-265 -101zM726 372v369q0 91 -26 132t-84 41q-95 0 -164 -113v-550q77 -59 145 -59q69 0 99 43t30 137z" />
    <glyph glyph-name="escyrillic" unicode="&#x441;" 
d="M594 -19q-212 1 -319 103t-107 288v367q0 199 109 298q110 99 316 99q415 0 433 -388l-274 -18q-7 110 -40 153q-34 43 -114 43t-113 -42q-33 -41 -33 -147v-357q0 -106 33 -148t115 -42t114 40q33 40 38 146l274 -19q-18 -376 -432 -376z" />
    <glyph glyph-name="tecyrillic" unicode="&#x442;" horiz-adv-x="1038" 
d="M378 0v901h-279v216h843v-216h-279v-901h-285z" />
    <glyph glyph-name="ucyrillic" unicode="&#x443;" horiz-adv-x="1038" 
d="M281 -181q112 -1 156 49t62 143l4 23h-201l-241 1083h280l190 -935l175 935h270l-226 -1147q-40 -190 -142 -274t-271 -85q-90 0 -257 20l13 209q135 -21 188 -21z" />
    <glyph glyph-name="efcyrillic" unicode="&#x444;" horiz-adv-x="1604" 
d="M1151 657q0 248 -142 248h-71v-693h71q142 0 142 244v201zM452 456q0 -244 142 -244h73v693h-73q-142 0 -142 -248v-201zM1039 0h-93v-372h-285v372h-95q-188 0 -293 118t-105 334v213q0 216 105 334t293 118h95v372h285v-372h93q188 0 293 -118t105 -334v-213
q0 -216 -105 -334t-293 -118z" />
    <glyph glyph-name="khacyrillic" unicode="&#x445;" horiz-adv-x="1038" 
d="M674 0l-168 320l-143 -320h-287l295 577l-283 540h284l155 -296l136 296h285l-285 -555l296 -562h-285z" />
    <glyph glyph-name="tsecyrillic" unicode="&#x446;" horiz-adv-x="1253" 
d="M883 -279v279h-715v1117h284v-901h278v901h285v-901h139v-495h-271z" />
    <glyph glyph-name="checyrillic" unicode="&#x447;" 
d="M549 333q-182 0 -281.5 105.5t-99.5 296.5v382h284v-378q0 -101 45 -156t123 -39.5t106 28.5v545h285v-1117h-285v357q-89 -24 -177 -24z" />
    <glyph glyph-name="shacyrillic" unicode="&#x448;" horiz-adv-x="1597" 
d="M168 0v1117h271v-901h226v901h270v-901h225v901h270v-1117h-1262z" />
    <glyph glyph-name="shchacyrillic" unicode="&#x449;" horiz-adv-x="1668" 
d="M1570 -279h-269v279h-1133v1117h271v-901h226v901h270v-901h225v901h270v-901h140v-495z" />
    <glyph glyph-name="hardsigncyrillic" unicode="&#x44a;" horiz-adv-x="1318" 
d="M592 209h179q73 0 105.5 34t32.5 111v70q0 78 -33 113t-105 35h-179v-363zM815 0h-508v901h-279v216h564v-341h225q181 0 278.5 -89t97.5 -257v-86q0 -168 -98 -256t-280 -88z" />
    <glyph glyph-name="yericyrillic" unicode="&#x44b;" horiz-adv-x="1604" 
d="M452 209h136q73 0 105.5 35t32.5 110v70q0 76 -32.5 112t-105.5 36h-136v-363zM1151 1117h286v-1115l-286 -2v1117zM168 0v1117h284v-341h183q179 0 277.5 -90t98.5 -256v-86q0 -164 -98.5 -254t-279.5 -90h-465z" />
    <glyph glyph-name="softsigncyrillic" unicode="&#x44c;" 
d="M452 209h179q73 0 105.5 35t32.5 110v70q0 76 -32.5 112t-105.5 36h-179v-363zM168 0v1117h284v-341h226q179 0 277.5 -90t98.5 -256v-86q0 -164 -99.5 -254t-278.5 -90h-508z" />
    <glyph glyph-name="ereversedcyrillic" unicode="&#x44d;" 
d="M576 -19q-210 0 -313 87.5t-110 275.5l277 19q6 -106 37.5 -146t114.5 -40t113.5 51t30.5 170v94h-244v173h244v57q0 117 -30.5 167.5t-112.5 50.5t-114.5 -41t-38.5 -147l-277 21q19 186 121 274.5t304 88.5t317.5 -109t115.5 -312v-307q0 -203 -112.5 -315t-322.5 -112
z" />
    <glyph glyph-name="iucyrillic" unicode="&#x44e;" horiz-adv-x="1604" 
d="M1020.5 197q74.5 0 102.5 48.5t28 175.5v268q0 130 -28 180.5t-102.5 50.5t-102.5 -50.5t-28 -180.5v-268q0 -127 28 -175.5t102.5 -48.5zM1021 -19q-196 0 -306 112t-110 311v89h-153v-493h-284v1117h284v-406h153v6q0 199 110 309t306 110t306 -113t110 -317v-302
q0 -199 -110 -311t-306 -112z" />
    <glyph glyph-name="iacyrillic" unicode="&#x44f;" 
d="M197 719v50q0 171 81 259.5t238 88.5h495v-1117h-285v367h-74l-198 -367h-299l212 397q-170 63 -170 322zM590 564h136v352h-136q-60 0 -84 -33.5t-24 -117.5v-41q0 -89 24 -124.5t84 -35.5z" />
    <glyph glyph-name="iegravecyrillic" unicode="&#x450;" 
d="M452 737v-70h274v61q0 123 -31 172q-31 50 -105 50t-106 -48t-32 -165zM566 -19q-178 1 -288 107q-111 106 -110 292v359q0 186 112 292q113 105 310 105t309 -108t112 -298v-225h-559v-125q0 -117 34 -162t112 -45t113 32t64 113l232 -65q-39 -130 -151 -201t-290 -71z
M568 1303l-317 373h356l147 -373h-186z" />
    <glyph glyph-name="iocyrillic" unicode="&#x451;" 
d="M452 737v-70h274v61q0 123 -31 172q-31 50 -105 50t-106 -48t-32 -165zM566 -19q-178 1 -288 107q-111 106 -110 292v359q0 186 112 292q113 105 310 105t309 -108t112 -298v-225h-559v-125q0 -117 34 -162t112 -45t113 32t64 113l232 -65q-39 -130 -151 -201t-290 -71z
M635 1447q-1 126 137 126t138 -126v-21q0 -69 -38 -95t-100 -26q-60 0 -99 26q-38 26 -38 95v21zM546 1426q0 -121 -138 -121q-61 0 -100 26q-38 26 -38 95v21q0 126 137 126t139 -126v-21z" />
    <glyph glyph-name="djecyrillic" unicode="&#x452;" 
d="M726 655q0 149 -102 149t-172 -143v-661h-284v1149h-140v165h140v175h284v-175h237v-165h-237v-298h41q26 82 97 128.5t178 46.5t175 -89.5t68 -247.5v-696q0 -199 -108 -290.5t-246 -91.5q-91 0 -192 41l28 203q76 -37 127 -37q106 0 106 202v635z" />
    <glyph glyph-name="gjecyrillic" unicode="&#x453;" horiz-adv-x="899" 
d="M168 0v1117h662v-216h-378v-901h-284zM339 1303l145 373h356l-317 -373h-184z" />
    <glyph glyph-name="ecyrillic" unicode="&#x454;" 
d="M608 -19q-213 0 -326.5 110t-113.5 315v309q0 205 114 313t318 108t305.5 -87.5t120.5 -275.5l-274 -21q-7 106 -39.5 147t-116.5 41t-114 -50t-30 -168v-63h280v-164h-280v-98q0 -117 30 -168.5t119.5 -51.5t116.5 40t34 146l274 -19q-9 -194 -107 -278.5t-311 -84.5z
" />
    <glyph glyph-name="dzecyrillic" unicode="&#x455;" 
d="M1018 322q0 -152 -111 -245q-112 -92 -317 -92q-128 0 -242 42t-193 100l61 180q212 -130 372 -130t160 113q0 69 -52 95t-188 66t-232 111q-94 71 -94 230q0 160 102 252t280 92q116 0 222 -38t175 -89l-47 -173q-179 108 -318 108q-140 0 -142 -115q0 -69 55 -100
t203 -73t227 -112t79 -222z" />
    <glyph glyph-name="icyrillic" unicode="&#x456;" horiz-adv-x="754" 
d="M235 0v1117h286v-1117h-286zM195 1447q1 126 183 126t182 -126v-21q0 -69 -51 -95t-131 -26t-131 26t-52 95v21z" />
    <glyph glyph-name="yicyrillic" unicode="&#x457;" horiz-adv-x="754" 
d="M235 0v1117h286v-1117h-286zM423 1447q-1 126 137 126t138 -126v-21q0 -69 -39 -95t-99 -26t-99 26q-38 26 -38 95v21zM58 1447q0 126 138 126t137 -126v-21q0 -69 -39 -95q-40 -26 -100 -26t-98 26t-38 95v21z" />
    <glyph glyph-name="jecyrillic" unicode="&#x458;" horiz-adv-x="899" 
d="M255 -188q123 0 123 197v900h-235v208h520v-1130q-1 -177 -103 -277t-268 -99q-100 0 -204 41l27 199q84 -39 140 -39zM339 1447q0 126 182 126t183 -126v-21q0 -69 -52 -95t-131 -26q-80 0 -131 26t-51 95v21z" />
    <glyph glyph-name="ljecyrillic" unicode="&#x459;" horiz-adv-x="1737" 
d="M1327 426q0 146 -137 146h-179v-363h179q71 0 104 36t33 111v70zM199 195q30 0 50.5 48.5t22.5 210.5l5 663h734v-341h225q181 0 278.5 -89t97.5 -257v-86q0 -166 -97.5 -255t-280.5 -89h-508v909h-182l-4 -479q-4 -452 -289 -452q-77 0 -180 28l28 208q70 -19 100 -19z
" />
    <glyph glyph-name="njecyrillic" unicode="&#x45a;" horiz-adv-x="1737" 
d="M452 518v-518h-284v1117h284v-383h274v383h285v-341h225q179 0 277.5 -90t98.5 -256v-86q0 -164 -99.5 -254t-278.5 -90h-508v518h-274zM1327 426q0 146 -137 146h-179v-363h179q69 0 103 33.5t34 113.5v70z" />
    <glyph glyph-name="tshecyrillic" unicode="&#x45b;" 
d="M493 851q67 175 278 175q106 0 173 -88t67 -245v-693h-285v648q0 156 -97 156q-104 0 -177 -143v-661h-284v1149h-140v165h140v175h284v-175h237v-165h-237v-298h41z" />
    <glyph glyph-name="kjecyrillic" unicode="&#x45c;" horiz-adv-x="1038" 
d="M452 484v-484h-284v1117h284v-437h53l210 437h277l-290 -503l287 -614h-289l-195 484h-53zM421 1303l145 373h356l-317 -373h-184z" />
    <glyph glyph-name="igravecyrillic" unicode="&#x45d;" 
d="M771 0v747l-317 -747h-286v1117h242v-793l337 793h264v-1117h-240zM562 1303l-316 373h355l147 -373h-186z" />
    <glyph glyph-name="ushortcyrillic" unicode="&#x45e;" horiz-adv-x="1038" 
d="M281 -181q112 -1 156 49t62 143l4 23h-201l-241 1083h280l190 -935l175 935h270l-226 -1147q-40 -190 -142 -274t-271 -85q-90 0 -257 20l13 209q135 -21 188 -21zM521 1290q-175 0 -273 99t-97 298l244 18q-2 -128 25 -181t101 -53t102 53q27 53 25 181l244 -18
q2 -199 -97 -298t-274 -99z" />
    <glyph glyph-name="dzhecyrillic" unicode="&#x45f;" 
d="M454 -279v279h-286v1117h284v-901h274v901h285v-1117h-287v-279h-270z" />
    <glyph glyph-name="Gheupturncyrillic" unicode="&#x490;" horiz-adv-x="1038" 
d="M168 0v1489h517v280h285v-496h-518v-1273h-284z" />
    <glyph glyph-name="gheupturncyrillic" unicode="&#x491;" horiz-adv-x="899" 
d="M168 0v1117h392v279h270v-495h-378v-901h-284z" />
    <glyph glyph-name="Wgrave" unicode="&#x1e80;" horiz-adv-x="1604" 
d="M959 0l-153 842l-162 -842h-303l-229 1489h270l152 -1102l138 823h276l152 -817l151 1096h240l-229 -1489h-303zM775 1676l-317 372h356l147 -372h-186z" />
    <glyph glyph-name="wgrave" unicode="&#x1e81;" horiz-adv-x="1457" 
d="M871 0l-134 685l-130 -685h-313l-197 1117h247l138 -851l129 665h245l142 -657l130 843h233l-199 -1117h-291zM702 1303l-317 373h356l147 -373h-186z" />
    <glyph glyph-name="Wacute" unicode="&#x1e82;" horiz-adv-x="1604" 
d="M959 0l-153 842l-162 -842h-303l-229 1489h270l152 -1102l138 823h276l152 -817l151 1096h240l-229 -1489h-303zM614 1676l146 372h355l-316 -372h-185z" />
    <glyph glyph-name="wacute" unicode="&#x1e83;" horiz-adv-x="1457" 
d="M871 0l-134 685l-130 -685h-313l-197 1117h247l138 -851l129 665h245l142 -657l130 843h233l-199 -1117h-291zM542 1303l145 373h356l-317 -373h-184z" />
    <glyph glyph-name="Wdieresis" unicode="&#x1e84;" horiz-adv-x="1604" 
d="M959 0l-153 842l-162 -842h-303l-229 1489h270l152 -1102l138 823h276l152 -817l151 1096h240l-229 -1489h-303zM1123 1799q0 -122 -138 -122q-61 1 -99 27t-39 95v20q0 127 137 127t139 -127v-20zM758 1799q0 -122 -138 -122q-62 1 -100 27t-38 95v20q0 127 138 127
t138 -127v-20z" />
    <glyph glyph-name="wdieresis" unicode="&#x1e85;" horiz-adv-x="1457" 
d="M871 0l-134 685l-130 -685h-313l-197 1117h247l138 -851l129 665h245l142 -657l130 843h233l-199 -1117h-291zM775 1447q-1 126 137 126t138 -126v-21q0 -69 -39 -95t-99 -26t-99 26q-38 26 -38 95v21zM410 1447q0 126 138 126t137 -126v-21q0 -69 -39 -95
q-40 -26 -100 -26t-98 26t-38 95v21z" />
    <glyph glyph-name="Ygrave" unicode="&#x1ef2;" 
d="M732 0h-285v559l-406 930h298l257 -692l260 692h282l-406 -930v-559zM562 1676l-316 372h355l147 -372h-186z" />
    <glyph glyph-name="ygrave" unicode="&#x1ef3;" horiz-adv-x="1038" 
d="M281 -181q112 -1 156 49t62 143l4 23h-201l-241 1083h280l190 -935l175 935h270l-226 -1147q-40 -190 -142 -274t-271 -85q-90 0 -257 20l13 209q135 -21 188 -21zM492 1303l-317 373h356l147 -373h-186z" />
    <glyph glyph-name="uni2000" unicode="&#x2000;" horiz-adv-x="1024" 
 />
    <glyph glyph-name="uni2001" unicode="&#x2001;" horiz-adv-x="2048" 
 />
    <glyph glyph-name="uni2002" unicode="&#x2002;" horiz-adv-x="1024" 
 />
    <glyph glyph-name="uni2003" unicode="&#x2003;" horiz-adv-x="2048" 
 />
    <glyph glyph-name="uni2004" unicode="&#x2004;" horiz-adv-x="681" 
 />
    <glyph glyph-name="uni2005" unicode="&#x2005;" horiz-adv-x="512" 
 />
    <glyph glyph-name="uni2007" unicode="&#x2007;" horiz-adv-x="1318" 
 />
    <glyph glyph-name="uni2009" unicode="&#x2009;" horiz-adv-x="340" 
 />
    <glyph glyph-name="uni200A" unicode="&#x200a;" horiz-adv-x="204" 
 />
    <glyph glyph-name="uni200B" unicode="&#x200b;" horiz-adv-x="0" 
 />
    <glyph glyph-name="endash" unicode="&#x2013;" horiz-adv-x="1452" 
d="M194 534v244h1065v-244h-1065z" />
    <glyph glyph-name="emdash" unicode="&#x2014;" horiz-adv-x="1871" 
d="M194 534v244h1483v-244h-1483z" />
    <glyph glyph-name="horizontalbar" unicode="&#x2015;" horiz-adv-x="1435" 
d="M20 534v244h1397v-244h-1397z" />
    <glyph glyph-name="underscoredbl" unicode="&#x2017;" horiz-adv-x="1312" 
d="M168 0v244h977v-244h-977zM168 -454v244h977v-244h-977z" />
    <glyph glyph-name="quoteright" unicode="&#x2019;" horiz-adv-x="1033" 
d="M253 704l132 785h401l-352 -785h-181z" />
    <glyph glyph-name="quotesinglbase" unicode="&#x201a;" horiz-adv-x="1033" 
d="M268 -331l103 785h402l-324 -785h-181z" />
    <glyph glyph-name="quotereversed" unicode="&#x201b;" horiz-adv-x="1033" 
d="M577 704l-352 785h402l131 -785h-181z" />
    <glyph glyph-name="quotedblleft" unicode="&#x201c;" horiz-adv-x="1604" 
d="M264 704l352 785h181l-130 -785h-403zM815 704l352 785h181l-132 -785h-401z" />
    <glyph glyph-name="quotedblright" unicode="&#x201d;" horiz-adv-x="1604" 
d="M257 704l132 785h399l-352 -785h-179zM806 704l132 785h401l-352 -785h-181z" />
    <glyph glyph-name="quotedblbase" unicode="&#x201e;" horiz-adv-x="1604" 
d="M257 -331l132 785h399l-352 -785h-179zM806 -331l132 785h401l-352 -785h-181z" />
    <glyph glyph-name="dagger" unicode="&#x2020;" horiz-adv-x="1452" 
d="M588 -372v1281h-165l-56 -399h-199l41 607h374l-10 372h313l-9 -372h374l43 -607h-199l-56 399h-166v-1281h-285z" />
    <glyph glyph-name="daggerdbl" unicode="&#x2021;" horiz-adv-x="1452" 
d="M588 184v749h-165l-56 -244h-199l41 452h374l-10 348h313l-9 -348h374l43 -452h-199l-56 244h-166v-749h166l56 244h199l-43 -452h-374l9 -348h-313l10 348h-374l-41 452h199l56 -244h165z" />
    <glyph glyph-name="bullet" unicode="&#x2022;" horiz-adv-x="1312" 
d="M656 439q-103 0 -168 57t-65 178v134q0 123 65 181.5t170 58.5t169.5 -58.5t64.5 -181.5v-134q0 -121 -66.5 -178t-169.5 -57z" />
    <glyph glyph-name="ellipsis" unicode="&#x2026;" horiz-adv-x="2751" 
d="M2370 169q0 -93 -60 -141t-152 -47q-93 -1 -152 47t-59 141v103q0 95 59 143q59 49 154 49q94 0 152 -48t58 -144v-103zM1519 169q1 -93 -59 -141t-153 -47q-93 -1 -152 47t-58 141v103q0 95 58 143q59 49 154 49t153 -48t57 -144v-103zM670 169q0 -93 -60 -141t-152 -47
q-93 -1 -152 47t-58 141v103q0 95 58 143q59 49 154 49t153 -48t57 -144v-103z" />
    <glyph glyph-name="perthousand" unicode="&#x2030;" horiz-adv-x="2448" 
d="M2012.5 616q-83.5 0 -83.5 -124v-202q0 -135 60.5 -135t83.5 32.5t23 102.5v202q0 124 -83.5 124zM1421 492q0 124 -60 124t-84 -29.5t-24 -94.5v-202q0 -71 24 -103t84 -32t60 135v202zM1633 276q0 -151 -81 -223.5t-214 -72.5t-214 72.5t-81 223.5v221
q0 149 81.5 221.5t214 72.5t213.5 -72.5t81 -221.5v-221zM2309 276q0 -151 -82 -223.5t-214.5 -72.5t-214 72.5t-81.5 223.5v221q0 149 81.5 221.5t214 72.5t214.5 -72.5t82 -221.5v-221zM350 1004q0 -123 84 -123t84 123v204q0 63 -22.5 94t-60.5 31t-61.5 -30.5
t-23.5 -94.5v-204zM1365 1489l-698 -1489h-257l698 1489h257zM435 706q-133 0 -215 71.5t-82 222.5v212q0 151 82.5 223.5t215 72.5t213.5 -72.5t81 -223.5v-212q0 -151 -81 -222.5t-214 -71.5z" />
    <glyph glyph-name="minute" unicode="&#x2032;" horiz-adv-x="1033" 
d="M253 704l132 785h401l-352 -785h-181z" />
    <glyph glyph-name="second" unicode="&#x2033;" horiz-adv-x="1604" 
d="M257 704l132 785h399l-352 -785h-179zM806 704l132 785h401l-352 -785h-181z" />
    <glyph glyph-name="guilsinglleft" unicode="&#x2039;" horiz-adv-x="1033" 
d="M801 121l-566 397v268l566 396v-242l-410 -288l410 -289v-242z" />
    <glyph glyph-name="guilsinglright" unicode="&#x203a;" horiz-adv-x="1033" 
d="M235 121v242l409 289l-409 288v242l566 -396v-268z" />
    <glyph glyph-name="exclamdbl" unicode="&#x203c;" horiz-adv-x="1591" 
d="M1355 138q1 -157 -207 -157t-208 157v52q0 160 208 160t207 -160v-52zM1011 559l-41 930h341l-43 -930h-257zM652 138q0 -157 -207 -157t-209 157v52q0 160 208 160t208 -160v-52zM307 559l-41 930h341l-43 -930h-257z" />
    <glyph glyph-name="overline" unicode="&#x203e;" horiz-adv-x="1312" 
d="M168 1618v244h977v-244h-977z" />
    <glyph glyph-name="fraction" unicode="&#x2215;" horiz-adv-x="562" 
d="M-112 0l559 1489h227l-559 -1489h-227z" />
    <glyph glyph-name="fraction" unicode="&#x2044;" horiz-adv-x="562" 
d="M-112 0l559 1489h227l-559 -1489h-227z" />
    <glyph glyph-name="zero.sups" unicode="&#x2070;" horiz-adv-x="893" 
d="M446 709q64 0 84.5 59t20.5 200v116q0 143 -20.5 202.5t-84.5 59.5t-84.5 -59.5t-20.5 -202.5v-116q0 -141 20.5 -200t84.5 -59zM446 555q-154 0 -236 103t-82 288v158q0 186 83 291.5t236 105.5t235.5 -105.5t82.5 -291.5v-158q0 -184 -82.5 -287.5t-236.5 -103.5z" />
    <glyph glyph-name="four.sups" unicode="&#x2074;" horiz-adv-x="893" 
d="M814 793h-131v-227h-216v227h-353v157l314 539h255v-539h131v-157zM467 950v292l-173 -292h173z" />
    <glyph glyph-name="five.sups" unicode="&#x2075;" horiz-adv-x="893" 
d="M490 1173q279 0 279 -253v-105q0 -112 -71 -186t-247 -74t-254 65t-83 233l216 11q7 -91 33 -123t93 -32t83 32t16 104v38q0 63 -26 93.5t-132 30.5h-259v482h610v-154h-394v-162h136z" />
    <glyph glyph-name="six.sups" unicode="&#x2076;" horiz-adv-x="893" 
d="M445 709q63 0 85.5 39.5t22.5 96.5v15q0 69 -21.5 108t-86.5 39t-86.5 -39t-21.5 -108v-15q0 -67 22.5 -101.5t85.5 -34.5zM523 1143q134 0 190 -68t56 -207v-25q0 -138 -79 -213t-324 -75t-245 329v278q0 171 76.5 255t238.5 84t234.5 -58t90.5 -184l-221 -28
q-13 73 -36.5 94t-75.5 21t-71.5 -42t-19.5 -142v-97h6q46 78 180 78z" />
    <glyph glyph-name="seven.sups" unicode="&#x2077;" horiz-adv-x="893" 
d="M121 1324v165h648v-165q-91 -236 -150.5 -395.5t-100.5 -362.5h-224q58 248 114 399.5t147 358.5h-434z" />
    <glyph glyph-name="eight.sups" unicode="&#x2078;" horiz-adv-x="893" 
d="M445 709q63 0 86.5 31t23.5 92v23q0 65 -23.5 95.5t-86.5 30.5t-85.5 -30.5t-22.5 -95.5v-23q0 -61 22.5 -92t85.5 -31zM446 1121q48 0 70 22t22 75v31q0 52 -22 74.5t-70 22.5t-70 -22.5t-22 -74.5v-31q0 -52 22 -74.5t70 -22.5zM769 842v-27q0 -132 -80 -196t-244 -64
q-324 0 -324 260v27q0 179 151 193v34q-134 17 -134 164v37q0 231 307 231t307 -231v-37q0 -146 -130 -164v-34q147 -18 147 -193z" />
    <glyph glyph-name="nine.sups" unicode="&#x2079;" horiz-adv-x="893" 
d="M769 894q0 -339 -316 -339q-161 0 -232.5 56.5t-90.5 185.5l222 28q11 -73 35 -94.5t79 -21.5t72 39.5t17 145.5v98h-11q-49 -80 -177 -80q-246 0 -246 276v24q0 132 84 210.5t241 78.5t240 -87t83 -243v-277zM447 1048q65 0 86.5 40t21.5 107v15q0 67 -22.5 101.5
t-85.5 34.5t-85.5 -38t-22.5 -98v-15q0 -67 21.5 -107t86.5 -40z" />
    <glyph glyph-name="nsuperior" unicode="&#x207f;" horiz-adv-x="1038" 
d="M629 1175q0 143 -63.5 143t-101.5 -47.5t-53 -75.5v-633h-243v929h243v-123h41q22 70 78 105t115 35q106 0 169 -82q57 -83 57 -231v-633h-242v613z" />
    <glyph glyph-name="zero.sinf" unicode="&#x2080;" horiz-adv-x="893" 
d="M341 402q1 -141 21 -200t84 -59t85 59q20 59 20 200v116q0 143 -20 203q-21 59 -85 59t-85 -59q-20 -60 -20 -203v-116zM765 380q-1 -184 -83 -288t-236 -103q-154 0 -236 103t-82 288v158q0 186 83 291t236 105t235 -104q82 -106 83 -292v-158z" />
    <glyph glyph-name="one.sinf" unicode="&#x2081;" horiz-adv-x="893" 
d="M192 0v166h190v553h-30q-10 -76 -60 -122t-110 -50l-9 164q69 9 129 65t82 147h212v-757h173v-166h-577z" />
    <glyph glyph-name="two.sinf" unicode="&#x2082;" horiz-adv-x="893" 
d="M121 0v207q0 221 164 266l171 46q48 13 68 39t22 84v25q0 61 -22 87t-78 26t-76 -30t-26 -117l-214 13q6 143 79 216q74 73 236 73t239 -70t77 -198v-51q1 -106 -43 -166t-117 -78l-171 -46q-56 -13 -74 -36t-19 -81v-43h432v-166h-648z" />
    <glyph glyph-name="three.sinf" unicode="&#x2083;" horiz-adv-x="893" 
d="M769 253q0 -264 -323 -264t-332 277l216 11q6 -71 28 -99t88 -27q66 0 87 26t22 84v29q0 62 -20 86t-77 24h-171v164h171q48 0 64 18t16 70v26q0 54 -22 74t-74 20t-71 -22q-20 -22 -27 -80l-214 11q6 129 82 191t226 62t232 -53q82 -54 82 -177v-24q0 -154 -123 -175
v-34q67 -9 103 -59t37 -138v-21z" />
    <glyph glyph-name="four.sinf" unicode="&#x2084;" horiz-adv-x="893" 
d="M814 227h-131v-227h-216v227h-353v157l314 539h255v-539h131v-157zM467 384v292l-173 -292h173z" />
    <glyph glyph-name="five.sinf" unicode="&#x2085;" horiz-adv-x="893" 
d="M451 -11q-176 0 -254 65t-83 233l216 11q7 -91 33 -123t93 -32t83 32t16 104v38q0 63 -26 94t-132 30h-259v482h610v-154h-394v-162h136q141 0 210 -62t69 -191v-105q0 -112 -71 -186t-247 -74z" />
    <glyph glyph-name="six.sinf" unicode="&#x2086;" horiz-adv-x="893" 
d="M445 143q63 0 86 39q22 39 22 97v15q0 69 -21 108q-20 39 -86 39t-88 -39t-21 -108v-15q1 -67 23 -101t85 -35zM523 577q134 0 190 -68t56 -207v-25q0 -138 -79 -213t-245 -75q-324 0 -324 329v278q0 171 76 255q77 84 239 84t234 -58t91 -184l-221 -28q-13 73 -36 94
t-76 21t-72 -42t-19 -142v-97h6q46 78 180 78z" />
    <glyph glyph-name="seven.sinf" unicode="&#x2087;" horiz-adv-x="893" 
d="M121 758v165h648v-165q-91 -236 -151 -396t-100 -362h-224q58 248 114 400t147 358h-434z" />
    <glyph glyph-name="eight.sinf" unicode="&#x2088;" horiz-adv-x="893" 
d="M445 143q63 0 87 31q23 31 23 92v23q0 65 -23 95q-22 30 -86 31q-64 0 -86 -31t-23 -95v-23q1 -61 23 -92t85 -31zM354 652q0 -52 22 -74t70 -23q48 0 70 22t22 75v31q0 53 -22 75t-70 22t-70 -22t-22 -75v-31zM769 276v-27q0 -132 -80 -196t-244 -64q-324 0 -324 260v27
q0 177 151 193v34q-136 18 -134 164v37q0 231 307 231t307 -231v-37q0 -146 -130 -164v-34q147 -18 147 -193z" />
    <glyph glyph-name="nine.sinf" unicode="&#x2089;" horiz-adv-x="893" 
d="M769 328q0 -339 -316 -339q-161 0 -233 57t-90 185l222 28q11 -73 35 -94t79 -21t72 38q17 39 17 146v98h-11q-48 -78 -177 -79q-128 -1 -187 73t-59 202v24q0 132 84 210t241 78t240 -86q83 -87 83 -243v-277zM447 482q65 0 86 40t22 107v15q-1 68 -23 102t-85 34
t-85 -38t-23 -98v-15q-1 -67 21 -107t87 -40z" />
    <glyph glyph-name="franc" unicode="&#x20a3;" 
d="M661 311h-209v-311h-284v311h-140v192h140v986h871v-216h-587v-318h490v-216h-490v-236h209v-192z" />
    <glyph glyph-name="lira" unicode="&#x20a4;" horiz-adv-x="1318" 
d="M1031.5 43.5q-143.5 -62.5 -219.5 -62.5t-144 32q-22 10 -10 3l-114 64q-104 55 -144.5 44.5t-62.5 -29.5l-128 -112l-116 175l151 105q41 36 80 114t43 155h-226v166h198l-80 188h-118v166h82q0 335 174.5 395.5t286.5 60.5q229 0 343.5 -110t124.5 -350l-284 -18
q-8 127 -47.5 185t-154.5 58t-135.5 -77t-20.5 -122l246 -22v-166h-199q57 -113 78 -188h121v-166h-106q-24 -119 -209 -229l26 -48q96 61 174 31q29 -11 76 -37t94 -26q46 0 68 53t30 195l284 -19q-18 -346 -161.5 -408.5zM658 16l11 -7q-7 5 -11 7z" />
    <glyph glyph-name="peseta" unicode="&#x20a7;" horiz-adv-x="1731" 
d="M1404 256q0 81 -43 133q-11 16 -92 98t-116 158q-36 76 -36 176l2 54q2 13 4 25t3 23h-121v-543q0 -196 49 -196q10 0 51 9t44 15l3 -16l19 52q78 -69 160 -69q73 0 73 81zM1371.5 942q-60.5 0 -60.5 -98t44.5 -146t111.5 -115t95 -127q35 -64 35 -150q0 -158 -70 -245
q-72 -80 -190 -80q-28 0 -74 11q-47 11 -75 27l2 -6q0 -10 -53 -20t-97 -10q-100 0 -161 91q-69 95 -69 308v543l-84 8v-34q0 -393 -307 -393h-84v-506h-195v1489h281q217 0 259 -136.5t46 -235.5h84v372h195v-372h168v-80q26 42 78 75q48 24 128 24t185 -92l-63 -171
q-69 69 -129.5 69zM335 700h84q58 0 82 48q30 52 30 170v156q0 120 -30 168q-24 48 -82 48h-84v-590zM1149 208v1v-1z" />
    <glyph glyph-name="Euro" unicode="&#x20ac;" horiz-adv-x="1318" 
d="M708 -19q-242 0 -363.5 131.5t-121.5 358.5v7h-139v162h139v205h-139v164h139v6q0 227 121.5 360t363.5 133t359 -119t126 -358l-270 -18q-13 168 -56 227.5t-157 59.5t-164.5 -60.5t-50.5 -222.5v-8h248v-164h-248v-205h248v-162h-248v-9q0 -160 50.5 -219.5
t164.5 -59.5t157 58.5t56 220.5l270 -18q-9 -236 -126 -353t-359 -117z" />
    <glyph glyph-name="careof" unicode="&#x2105;" horiz-adv-x="1884" 
d="M1337 287q0 -129 97.5 -129t97.5 129v190q0 96 -37 114t-70.5 18t-60.5 -32t-27 -100v-190zM1395 -22q-117 0 -207.5 75.5t-90.5 223.5v209q0 222 131 262t247 40t206.5 -75t90.5 -227v-209q0 -221 -130 -260t-247 -39zM350 1009q0 -128 98 -128t98 115l240 -24
q0 -131 -92 -199q-92 -67 -290 -67t-246 111.5t-48 187.5v200q0 225 131 264t209 39q160 0 244 -63q92 -65 92 -198l-240 -33q0 87 -37.5 103t-98 16t-60.5 -132v-192zM465 0l699 1489h257l-699 -1489h-257z" />
    <glyph glyph-name="lsquare" unicode="&#x2113;" horiz-adv-x="1027" 
d="M778 71q-189 -84 -345 -84t-251 106q-98 113 -68 305l102 810q18 147 127 224q109 76 262 76q265 0 295.5 -121t19.5 -199l-58 -430q-26 -215 -142.5 -254t-182.5 -39t-126 32l-9 -84q-11 -96 21 -152q33 -51 96 -51q107 0 263 80zM635 1237.5q0 54.5 -56 54.5
q-35 0 -55 -29t-31 -103l-50 -369q-24 -134 56 -134q33 0 53 28t31 97l48 367q4 34 4 88.5z" />
    <glyph glyph-name="numero" unicode="&#x2116;" horiz-adv-x="2023" 
d="M410 0h-242v1489h337l266 -1132v1132h240v-1489h-359l-242 1020v-1020zM1503 750q53 0 74.5 46t21.5 150v169q0 97 -20.5 144.5t-74.5 47.5t-75 -48.5t-21 -146.5v-166q0 -104 21 -150t74 -46zM1503 551q-150 0 -251 98t-101 301v152q0 205 102 305.5t252 100.5
t250.5 -100.5t100.5 -305.5v-152q0 -203 -101.5 -301t-251.5 -98z" />
    <glyph glyph-name="uni2117" unicode="&#x2117;" horiz-adv-x="1876" 
d="M892 659h84q52 0 75 29t23 96v71q0 78 -23 111.5t-75 33.5h-84v-341zM635 212v968h341q173 0 264 -83.5t91 -241.5v-71q0 -145 -91 -223.5t-264 -78.5h-84v-270h-257zM939 -93q286 0 407 140.5t121 468.5v339q0 331 -121 473.5t-407 142.5t-407 -142.5t-121 -473.5v-339
q0 -328 121 -468.5t407 -140.5zM940.5 -205q-329.5 0 -488 171.5t-158.5 528.5v380q0 361 158.5 534.5t488 173.5t486 -173.5t156.5 -534.5v-380q0 -357 -156.5 -528.5t-486 -171.5z" />
    <glyph glyph-name="trademark" unicode="&#x2122;" horiz-adv-x="2155" 
d="M1238 637h-186v852h223l155 -478l151 478h227v-852h-186l-2 523l-121 -361h-144l-117 348v-510zM506 637v696h-240v156h663v-156h-225v-696h-198z" />
    <glyph glyph-name="Ohm" unicode="&#x2126;" horiz-adv-x="1312" 
d="M1219 754q0 -279 -208 -395v-167h179v-192h-464v428q121 34 164 114t43 212v223q0 168 -64 242q-63 73 -211 73t-212 -74t-64 -241v-223q0 -132 42 -212t162 -114v-428h-461v192h177v167q-207 115 -207 395v223q0 263 142 397q141 134 419 134t420 -134t143 -397v-223z
" />
    <glyph glyph-name="estimated" unicode="&#x212e;" horiz-adv-x="1452" 
d="M436 801h571v428q-119 152 -285 152q-91 0 -165.5 -39t-120.5 -108v-433zM166 750q0 316 149 541.5t411 225.5t407.5 -256.5t149.5 -608.5h-847v-391q106 -147 283 -147q288 0 422 284l69 -111q-153 -309 -491 -309q-249 0 -401 228t-152 544z" />
    <glyph glyph-name="oneeighth" unicode="&#x215b;" horiz-adv-x="2237" 
d="M1789 143q63 0 87 31q23 31 23 92v23q0 65 -23 95q-22 30 -86 31q-64 0 -86 -31t-23 -95v-23q1 -61 23 -92t85 -31zM1698 652q0 -52 22 -74t70 -23q48 0 70 22t22 75v31q0 53 -22 75t-70 22t-70 -22t-22 -75v-31zM2113 276v-27q0 -132 -80 -196t-244 -64q-324 0 -324 260
v27q0 177 151 193v34q-134 17 -134 164v37q0 231 307 231t307 -231v-37q0 -146 -130 -164v-34q147 -18 147 -193zM192 566v166h190v553h-30q-10 -76 -60 -122t-110 -50l-9 164q69 9 129 65t82 147h212v-757h173v-166h-577zM726 0l559 1489h227l-559 -1489h-227z" />
    <glyph glyph-name="threeeighths" unicode="&#x215c;" horiz-adv-x="2237" 
d="M1789 143q63 0 87 31q23 31 23 92v23q0 65 -23 95q-22 30 -86 31q-64 0 -86 -31t-23 -95v-23q1 -61 23 -92t85 -31zM1698 652q0 -52 22 -74t70 -23q48 0 70 22t22 75v31q0 53 -22 75t-70 22t-70 -22t-22 -75v-31zM2113 276v-27q0 -132 -80 -196t-244 -64q-324 0 -324 260
v27q0 177 151 193v34q-134 17 -134 164v37q0 231 307 231t307 -231v-37q0 -146 -130 -164v-34q147 -18 147 -193zM726 0l559 1489h227l-559 -1489h-227zM769 819q0 -264 -323 -264t-332 277l216 11q6 -71 28 -99t88 -27q66 0 87 26t22 84v29q0 62 -20 86t-77 24h-171v164
h171q48 0 64 18t16 70v26q0 54 -22 74t-74 20t-71 -22q-20 -22 -27 -80l-214 11q6 129 82 191t226 62t232 -53q82 -54 82 -177v-24q0 -154 -123 -175v-34q67 -9 103 -59t37 -138v-21z" />
    <glyph glyph-name="fiveeighths" unicode="&#x215d;" horiz-adv-x="2237" 
d="M1789 143q63 0 87 31q23 31 23 92v23q0 65 -23 95q-22 30 -86 31q-64 0 -86 -31t-23 -95v-23q1 -61 23 -92t85 -31zM1698 652q0 -52 22 -74t70 -23q48 0 70 22t22 75v31q0 53 -22 75t-70 22t-70 -22t-22 -75v-31zM2113 276v-27q0 -132 -80 -196t-244 -64q-324 0 -324 260
v27q0 177 151 193v34q-134 17 -134 164v37q0 231 307 231t307 -231v-37q0 -146 -130 -164v-34q147 -18 147 -193zM451 555q-176 0 -254 65t-83 233l216 11q7 -91 33 -123t93 -32t83 32t16 104v38q0 63 -26 94t-132 30h-259v482h610v-154h-394v-162h136q141 0 210 -62
t69 -191v-105q0 -112 -71 -186t-247 -74zM726 0l559 1489h227l-559 -1489h-227z" />
    <glyph glyph-name="seveneighths" unicode="&#x215e;" horiz-adv-x="2237" 
d="M1789 143q63 0 87 31q23 31 23 92v23q0 65 -23 95q-22 30 -86 31q-64 0 -86 -31t-23 -95v-23q1 -61 23 -92t85 -31zM1698 652q0 -52 22 -74t70 -23q48 0 70 22t22 75v31q0 53 -22 75t-70 22t-70 -22t-22 -75v-31zM2113 276v-27q0 -132 -80 -196t-244 -64q-324 0 -324 260
v27q0 177 151 193v34q-134 17 -134 164v37q0 231 307 231t307 -231v-37q0 -146 -130 -164v-34q147 -18 147 -193zM121 1324v165h648v-165q-91 -236 -151 -396t-100 -362h-224q58 248 114 400t147 358h-434zM726 0l559 1489h227l-559 -1489h-227z" />
    <glyph glyph-name="arrowleft" unicode="&#x2190;" horiz-adv-x="1737" 
d="M873 1391v-512h628v-268h-628v-512h-28l-607 627v37l607 628h28z" />
    <glyph glyph-name="arrowup" unicode="&#x2191;" horiz-adv-x="1312" 
d="M514 -41v838h-384v37l512 696h28l512 -696v-37h-383v-838h-285z" />
    <glyph glyph-name="arrowright" unicode="&#x2192;" horiz-adv-x="1737" 
d="M866 99v512h-628v268h628v512h28l607 -628v-37l-607 -627h-28z" />
    <glyph glyph-name="arrowdown" unicode="&#x2193;" horiz-adv-x="1312" 
d="M130 693h384v837h285v-837h383v-38l-512 -696h-28l-512 696v38z" />
    <glyph glyph-name="arrowboth" unicode="&#x2194;" horiz-adv-x="2016" 
d="M801 611v-512h-28l-535 627v37l535 628h28v-512h418v512h28l533 -628v-37l-533 -627h-28v512h-418z" />
    <glyph glyph-name="arrowupdn" unicode="&#x2195;" horiz-adv-x="1604" 
d="M276 465h385v559h-385v37l512 656h27l514 -656v-37h-383v-559h383v-37l-514 -655h-27l-512 655v37z" />
    <glyph glyph-name="arrowupdnbse" unicode="&#x21a8;" horiz-adv-x="1604" 
d="M313 -419v231h444l-481 616v37h385v559h-385v37l512 656h27l514 -656v-37h-383v-559h383v-37l-483 -616h444v-231h-977z" />
    <glyph glyph-name="partialdiff" unicode="&#x2202;" 
d="M554.5 188q53.5 0 90.5 52t48 162l18 117q12 101 -14 147q-27 47 -117 47t-111.5 -71.5t-27.5 -122.5l-18 -117q-12 -110 9 -148t45 -52t77.5 -14zM454 -19q-146 0 -244 108t-69 324l14 118q22 180 126 284q99 107 235 107q178 0 212 -136h30q11 210 -78 333
q-94 120 -334 208l214 187q287 -103 393 -294q107 -191 65 -533l-31 -263q-50 -333 -218.5 -388t-314.5 -55z" />
    <glyph glyph-name="Delta#1" unicode="&#x2206;" horiz-adv-x="1172" 
d="M832 216l-253 1059l-266 -1059h519zM69 0v216l322 1273h408l305 -1273v-216h-1035z" />
    <glyph glyph-name="product" unicode="&#x220f;" horiz-adv-x="1318" 
d="M168 -372v1861h983v-1861h-285v1645h-414v-1645h-284z" />
    <glyph glyph-name="summation" unicode="&#x2211;" 
d="M1039 -156v-216h-912v216l554 733l-554 696v216h912v-216h-642l474 -595v-179l-486 -655h654z" />
    <glyph glyph-name="minus" unicode="&#x2212;" horiz-adv-x="1312" 
d="M168 536v231h977v-231h-977z" />
    <glyph glyph-name="radical" unicode="&#x221a;" 
d="M499 0l-205 704l-195 -36v207l355 56l186 -721l231 1466h248l-300 -1676h-320z" />
    <glyph glyph-name="infinity" unicode="&#x221e;" horiz-adv-x="1452" 
d="M352 786q0 -373 109 -373q50 0 94 79q35 56 78 193q-47 217 -73 282q-27 65 -49.5 87t-47.5 22q-51 0 -81 -80t-30 -210zM989 413q113 0 113 332q-7 331 -110 331q-72 0 -112 -105t-61 -169q51 -233 75 -288q24 -56 46 -78.5t49 -22.5zM1244 1143q85 -151 85 -402
t-95 -395q-91 -147 -245 -147q-107 0 -177 76t-119 231q-79 -232 -148.5 -269.5t-123.5 -37.5t-111 38.5t-99 110.5q-86 146 -86 397t93 398q87 147 241 147q155 0 215.5 -116t86.5 -193q106 309 265 309q129 0 218 -147z" />
    <glyph glyph-name="orthogonal" unicode="&#x221f;" horiz-adv-x="1167" 
d="M164 0v1303h285v-1078h582v-225h-867z" />
    <glyph glyph-name="intersection" unicode="&#x2229;" horiz-adv-x="1457" 
d="M268 0v830q0 355 178 423.5t285 68.5q211 0 338 -127q123 -129 123 -365v-830h-285v819q0 223 -63.5 255t-137 32t-113.5 -69.5t-40 -221.5v-815h-285z" />
    <glyph glyph-name="integral" unicode="&#x222b;" 
d="M870 1331q-79 0 -108.5 -56.5t-29.5 -172.5v-1096q0 -181 -99.5 -284.5t-273.5 -103.5q-110 0 -204 43l27 194q82 -37 129 -37t70 13.5t44.5 53.5t21.5 162v1096q0 179 100 287q98 102 270 102q109 0 205 -44l-28 -192q-77 35 -124 35z" />
    <glyph glyph-name="approxequal" unicode="&#x2248;" horiz-adv-x="1312" 
d="M976 404v155h214v-168q0 -202 -83 -310q-83 -107 -232 -107q-88 0 -149 46q-58 47 -123 171t-91 153q-25 28 -42.5 36.5t-41.5 8.5q-91 0 -91 -216v-156h-212v167q0 202 84 309q78 108 225 108q93 0 152 -44q60 -44 124 -168q64 -123 98 -164q35 -37 78 -37q90 0 90 216z
M886 933q90 0 90 216v154h214v-167q0 -202 -83 -310q-83 -107 -226 -107q-92 0 -139 36q-48 36 -76.5 75t-79.5 135t-83 131q-31 36 -64 36t-67.5 -22.5t-34.5 -191.5v-157h-212v168q0 202 84 309q78 108 225 108q93 0 152 -46q61 -43 108 -136q80 -156 107 -185
q26 -29 43.5 -37.5t41.5 -8.5z" />
    <glyph glyph-name="notequal" unicode="&#x2260;" horiz-adv-x="1312" 
d="M1145 337h-465l-64 -337h-199l63 337h-312v223h355l69 373h-424v221h467l61 335h200l-64 -335h313v-221h-354l-70 -373h424v-223z" />
    <glyph glyph-name="equivalence" unicode="&#x2261;" horiz-adv-x="1312" 
d="M168 104v229h977v-229h-977zM168 529v231h977v-231h-977zM168 953v229h977v-229h-977z" />
    <glyph glyph-name="lessequal" unicode="&#x2264;" horiz-adv-x="1312" 
d="M238 0v205h838v-205h-838zM1076 372l-838 425v268l838 424v-225l-653 -333l653 -333v-226z" />
    <glyph glyph-name="greaterequal" unicode="&#x2265;" horiz-adv-x="1312" 
d="M1076 0h-838v205h838v-205zM238 372v226l654 333l-654 333v225l838 -424v-268z" />
    <glyph glyph-name="logicalnotreversed" unicode="&#x2310;" horiz-adv-x="1312" 
d="M168 0v769h977v-229h-750v-540h-227z" />
    <glyph glyph-name="integralbt" unicode="&#x2321;" horiz-adv-x="1033" 
d="M324 -182q123 0 123 240v1431h285v-1472q0 -186 -103 -293q-98 -106 -270 -106q-110 0 -204 43l27 194q82 -37 142 -37z" />
    <glyph glyph-name="uni23af" unicode="&#x23af;" horiz-adv-x="1435" 
d="M-238 611v268h1912v-268h-1912z" />
    <glyph glyph-name="lighthorzbxd" unicode="&#x2500;" horiz-adv-x="2048" 
d="M-37 652h2122v-187h-2122v187z" />
    <glyph glyph-name="heavyhorzbxd" unicode="&#x2501;" horiz-adv-x="2048" 
d="M-37 745h2122v-373h-2122v373z" />
    <glyph glyph-name="lightvertbxd" unicode="&#x2502;" horiz-adv-x="2048" 
d="M931 1955h186v-2793h-186v2793z" />
    <glyph glyph-name="heavyvertbxd" unicode="&#x2503;" horiz-adv-x="2048" 
d="M838 1955h372v-2793h-372v2793z" />
    <glyph glyph-name="lighttrpldashhorzbxd" unicode="&#x2504;" horiz-adv-x="2048" 
d="M1476 652h455v-187h-455v187zM795 652h454v-187h-454v187zM114 652h454v-187h-454v187z" />
    <glyph glyph-name="heavytrpldashhorzbxd" unicode="&#x2505;" horiz-adv-x="2048" 
d="M1476 745h455v-373h-455v373zM795 745h454v-373h-454v373zM114 745h454v-373h-454v373z" />
    <glyph glyph-name="lighttrpldashvertbxd" unicode="&#x2506;" horiz-adv-x="2048" 
d="M931 2147h186v-455h-186v455zM931 1465h186v-454h-186v454zM931 784h186v-454h-186v454zM931 102h186v-454h-186v454z" />
    <glyph glyph-name="heavytrpldashvertbxd" unicode="&#x2507;" horiz-adv-x="2048" 
d="M838 2147h372v-455h-372v455zM838 1465h372v-454h-372v454zM838 784h372v-454h-372v454zM838 102h372v-454h-372v454z" />
    <glyph glyph-name="lightquaddashhorzbxd" unicode="&#x2508;" horiz-adv-x="2048" 
d="M1599 652h386v-187h-386v187zM1087 652h386v-187h-386v187zM575 652h386v-187h-386v187zM63 652h386v-187h-386v187z" />
    <glyph glyph-name="heavyquaddashhorzbxd" unicode="&#x2509;" horiz-adv-x="2048" 
d="M1599 745h386v-373h-386v373zM1087 745h386v-373h-386v373zM575 745h386v-373h-386v373zM63 745h386v-373h-386v373z" />
    <glyph glyph-name="lightquaddashvertbxd" unicode="&#x250a;" horiz-adv-x="2048" 
d="M931 1519h186v-385h-186v385zM931 1007h186v-385h-186v385zM931 495h186v-385h-186v385zM931 -17h186v-385h-186v385z" />
    <glyph glyph-name="heavyquaddashvertbxd" unicode="&#x250b;" horiz-adv-x="2048" 
d="M838 1519h372v-385h-372v385zM838 1007h372v-385h-372v385zM838 495h372v-385h-372v385zM838 -17h372v-385h-372v385z" />
    <glyph glyph-name="lightdnrightbxd" unicode="&#x250c;" horiz-adv-x="2048" 
d="M931 652h1154v-187h-968v-1303h-186v1490z" />
    <glyph glyph-name="dnlightrightheavybxd" unicode="&#x250d;" horiz-adv-x="2048" 
d="M931 745h1154v-373h-968v-1210h-186v1583z" />
    <glyph glyph-name="dnheavyrightlightbxd" unicode="&#x250e;" horiz-adv-x="2048" 
d="M838 652h1247v-187h-875v-1303h-372v1490z" />
    <glyph glyph-name="heavydnrightbxd" unicode="&#x250f;" horiz-adv-x="2048" 
d="M838 745h1247v-373h-875v-1210h-372v1583z" />
    <glyph glyph-name="lightdnleftbxd" unicode="&#x2510;" horiz-adv-x="2048" 
d="M-37 652h1154v-1490h-186v1303h-968v187z" />
    <glyph glyph-name="dnlightleftheavybxd" unicode="&#x2511;" horiz-adv-x="2048" 
d="M-37 745h1154v-1583h-186v1210h-968v373z" />
    <glyph glyph-name="dnheavyleftlightbxd" unicode="&#x2512;" horiz-adv-x="2048" 
d="M-37 652h1247v-1490h-372v1303h-875v187z" />
    <glyph glyph-name="heavydnleftbxd" unicode="&#x2513;" horiz-adv-x="2048" 
d="M-37 745h1247v-1583h-372v1210h-875v373z" />
    <glyph glyph-name="lightuprightbxd" unicode="&#x2514;" horiz-adv-x="2048" 
d="M931 1955h186v-1303h968v-187h-1154v1490z" />
    <glyph glyph-name="uplightrightheavybxd" unicode="&#x2515;" horiz-adv-x="2048" 
d="M931 1955h186v-1210h968v-373h-1154v1583z" />
    <glyph glyph-name="upheavyrightlightbxd" unicode="&#x2516;" horiz-adv-x="2048" 
d="M838 1955h372v-1303h875v-187h-1247v1490z" />
    <glyph glyph-name="heavyuprightbxd" unicode="&#x2517;" horiz-adv-x="2048" 
d="M838 1955h372v-1210h875v-373h-1247v1583z" />
    <glyph glyph-name="lightupleftbxd" unicode="&#x2518;" horiz-adv-x="2048" 
d="M-37 652h968v1303h186v-1490h-1154v187z" />
    <glyph glyph-name="uplightleftheavybxd" unicode="&#x2519;" horiz-adv-x="2048" 
d="M-37 745h968v1210h186v-1583h-1154v373z" />
    <glyph glyph-name="upheavyleftlightbxd" unicode="&#x251a;" horiz-adv-x="2048" 
d="M-37 652h875v1303h372v-1490h-1247v187z" />
    <glyph glyph-name="heavyupleftbxd" unicode="&#x251b;" horiz-adv-x="2048" 
d="M-37 745h875v1210h372v-1583h-1247v373z" />
    <glyph glyph-name="lightvertrightbxd" unicode="&#x251c;" horiz-adv-x="2048" 
d="M931 1955h186v-1303h968v-187h-968v-1303h-186v2793z" />
    <glyph glyph-name="vertlightrightheavybxd" unicode="&#x251d;" horiz-adv-x="2048" 
d="M931 1955h186v-1210h968v-373h-968v-1210h-186v2793z" />
    <glyph glyph-name="upheavyrightdnlightbxd" unicode="&#x251e;" horiz-adv-x="2048" 
d="M838 1955h372v-1303h875v-187h-968v-1303h-186v1303h-93v1490z" />
    <glyph glyph-name="dnheavyrightuplightbxd" unicode="&#x251f;" horiz-adv-x="2048" 
d="M838 652h93v1303h186v-1303h968v-187h-875v-1303h-372v1490z" />
    <glyph glyph-name="vertheavyrightlightbxd" unicode="&#x2520;" horiz-adv-x="2048" 
d="M838 1955h372v-1303h875v-187h-875v-1303h-372v2793z" />
    <glyph glyph-name="dnlightrightupheavybxd" unicode="&#x2521;" horiz-adv-x="2048" 
d="M838 1955h372v-1210h875v-373h-968v-1210h-186v1210h-93v1583z" />
    <glyph glyph-name="uplightrightdnheavybxd" unicode="&#x2522;" horiz-adv-x="2048" 
d="M838 745h93v1210h186v-1210h968v-373h-875v-1210h-372v1583z" />
    <glyph glyph-name="heavyvertrightbxd" unicode="&#x2523;" horiz-adv-x="2048" 
d="M838 1955h372v-1210h875v-373h-875v-1210h-372v2793z" />
    <glyph glyph-name="lightvertleftbxd" unicode="&#x2524;" horiz-adv-x="2048" 
d="M-37 652h968v1303h186v-2793h-186v1303h-968v187z" />
    <glyph glyph-name="vertlightleftheavybxd" unicode="&#x2525;" horiz-adv-x="2048" 
d="M-37 745h968v1210h186v-2793h-186v1210h-968v373z" />
    <glyph glyph-name="upheavyleftdnlightbxd" unicode="&#x2526;" horiz-adv-x="2048" 
d="M-37 652h875v1303h372v-1490h-93v-1303h-186v1303h-968v187z" />
    <glyph glyph-name="dnheavyleftuplightbxd" unicode="&#x2527;" horiz-adv-x="2048" 
d="M-37 652h968v1303h186v-1303h93v-1490h-372v1303h-875v187z" />
    <glyph glyph-name="vertheavyleftlightbxd" unicode="&#x2528;" horiz-adv-x="2048" 
d="M-37 652h875v1303h372v-2793h-372v1303h-875v187z" />
    <glyph glyph-name="dnlightleftupheavybxd" unicode="&#x2529;" horiz-adv-x="2048" 
d="M-37 745h875v1210h372v-1583h-93v-1210h-186v1210h-968v373z" />
    <glyph glyph-name="uplightleftdnheavybxd" unicode="&#x252a;" horiz-adv-x="2048" 
d="M-37 745h968v1210h186v-1210h93v-1583h-372v1210h-875v373z" />
    <glyph glyph-name="heavyvertleftbxd" unicode="&#x252b;" horiz-adv-x="2048" 
d="M-37 745h875v1210h372v-2793h-372v1210h-875v373z" />
    <glyph glyph-name="lightdnhorzbxd" unicode="&#x252c;" horiz-adv-x="2048" 
d="M-37 652h2122v-187h-968v-1303h-186v1303h-968v187z" />
    <glyph glyph-name="leftheavyrightdnlightbxd" unicode="&#x252d;" horiz-adv-x="2048" 
d="M-37 745h1154v-93h968v-187h-968v-1303h-186v1210h-968v373z" />
    <glyph glyph-name="rightheavyleftdnlightbxd" unicode="&#x252e;" horiz-adv-x="2048" 
d="M-37 652h968v93h1154v-373h-968v-1210h-186v1303h-968v187z" />
    <glyph glyph-name="dnlighthorzheavybxd" unicode="&#x252f;" horiz-adv-x="2048" 
d="M-37 745h2122v-373h-968v-1210h-186v1210h-968v373z" />
    <glyph glyph-name="dnheavyhorzlightbxd" unicode="&#x2530;" horiz-adv-x="2048" 
d="M-37 652h2122v-187h-875v-1303h-372v1303h-875v187z" />
    <glyph glyph-name="rightlightleftdnheavybxd" unicode="&#x2531;" horiz-adv-x="2048" 
d="M-37 745h1247v-93h875v-187h-875v-1303h-372v1210h-875v373z" />
    <glyph glyph-name="leftlightrightdnheavybxd" unicode="&#x2532;" horiz-adv-x="2048" 
d="M-37 652h875v93h1247v-373h-875v-1210h-372v1303h-875v187z" />
    <glyph glyph-name="heavydnhorzbxd" unicode="&#x2533;" horiz-adv-x="2048" 
d="M-37 745h2122v-373h-875v-1210h-372v1210h-875v373z" />
    <glyph glyph-name="lightuphorzbxd" unicode="&#x2534;" horiz-adv-x="2048" 
d="M-37 652h968v1303h186v-1303h968v-187h-2122v187z" />
    <glyph glyph-name="leftheavyrightuplightbxd" unicode="&#x2535;" horiz-adv-x="2048" 
d="M-37 745h968v1210h186v-1303h968v-187h-968v-93h-1154v373z" />
    <glyph glyph-name="rightheavyleftuplightbxd" unicode="&#x2536;" horiz-adv-x="2048" 
d="M-37 652h968v1303h186v-1210h968v-373h-1154v93h-968v187z" />
    <glyph glyph-name="uplighthorzheavybxd" unicode="&#x2537;" horiz-adv-x="2048" 
d="M-37 745h968v1210h186v-1210h968v-373h-2122v373z" />
    <glyph glyph-name="upheavyhorzlightbxd" unicode="&#x2538;" horiz-adv-x="2048" 
d="M-37 652h875v1303h372v-1303h875v-187h-2122v187z" />
    <glyph glyph-name="rightlightleftupheavybxd" unicode="&#x2539;" horiz-adv-x="2048" 
d="M-37 745h875v1210h372v-1303h875v-187h-875v-93h-1247v373z" />
    <glyph glyph-name="leftlightrightupheavybxd" unicode="&#x253a;" horiz-adv-x="2048" 
d="M-37 652h875v1303h372v-1210h875v-373h-1247v93h-875v187z" />
    <glyph glyph-name="heavyuphorzbxd" unicode="&#x253b;" horiz-adv-x="2048" 
d="M-37 745h875v1210h372v-1210h875v-373h-2122v373z" />
    <glyph glyph-name="lightverthorzbxd" unicode="&#x253c;" horiz-adv-x="2048" 
d="M-37 652h968v1303h186v-1303h968v-187h-968v-1303h-186v1303h-968v187z" />
    <glyph glyph-name="leftheavyrightvertlightbxd" unicode="&#x253d;" horiz-adv-x="2048" 
d="M-37 745h968v1210h186v-1303h968v-187h-968v-1303h-186v1210h-968v373z" />
    <glyph glyph-name="rightheavyleftvertlightbxd" unicode="&#x253e;" horiz-adv-x="2048" 
d="M-37 652h968v1303h186v-1210h968v-373h-968v-1210h-186v1303h-968v187z" />
    <glyph glyph-name="vertlighthorzheavybxd" unicode="&#x253f;" horiz-adv-x="2048" 
d="M-37 745h968v1210h186v-1210h968v-373h-968v-1210h-186v1210h-968v373z" />
    <glyph glyph-name="upheavydnhorzlightbxd" unicode="&#x2540;" horiz-adv-x="2048" 
d="M-37 652h875v1303h372v-1303h875v-187h-968v-1303h-186v1303h-968v187z" />
    <glyph glyph-name="dnheavyuphorzlightbxd" unicode="&#x2541;" horiz-adv-x="2048" 
d="M-37 652h968v1303h186v-1303h968v-187h-875v-1303h-372v1303h-875v187z" />
    <glyph glyph-name="vertheavyhorzlightbxd" unicode="&#x2542;" horiz-adv-x="2048" 
d="M-37 652h875v1303h372v-1303h875v-187h-875v-1303h-372v1303h-875v187z" />
    <glyph glyph-name="leftupheavyrightdnlightbxd" unicode="&#x2543;" horiz-adv-x="2048" 
d="M-37 745h875v1210h372v-1303h875v-187h-875v-93h-93v-1210h-186v1210h-968v373z" />
    <glyph glyph-name="rightupheavyleftdnlightbxd" unicode="&#x2544;" horiz-adv-x="2048" 
d="M-37 652h875v1303h372v-1210h875v-373h-968v-1210h-186v1210h-93v93h-875v187z" />
    <glyph glyph-name="leftdnheavyrightuplightbxd" unicode="&#x2545;" horiz-adv-x="2048" 
d="M-37 745h968v1210h186v-1210h93v-93h875v-187h-875v-1303h-372v1210h-875v373z" />
    <glyph glyph-name="rightdnheavyleftuplightbxd" unicode="&#x2546;" horiz-adv-x="2048" 
d="M-37 652h875v93h93v1210h186v-1210h968v-373h-875v-1210h-372v1303h-875v187z" />
    <glyph glyph-name="dnlightuphorzheavybxd" unicode="&#x2547;" horiz-adv-x="2048" 
d="M-37 745h875v1210h372v-1210h875v-373h-968v-1210h-186v1210h-968v373z" />
    <glyph glyph-name="uplightdnhorzheavybxd" unicode="&#x2548;" horiz-adv-x="2048" 
d="M-37 745h968v1210h186v-1210h968v-373h-875v-1210h-372v1210h-875v373z" />
    <glyph glyph-name="rightlightleftvertheavybxd" unicode="&#x2549;" horiz-adv-x="2048" 
d="M-37 745h875v1210h372v-1303h875v-187h-875v-1303h-372v1210h-875v373z" />
    <glyph glyph-name="leftlightrightvertheavybxd" unicode="&#x254a;" horiz-adv-x="2048" 
d="M-37 652h875v1303h372v-1210h875v-373h-875v-1210h-372v1303h-875v187z" />
    <glyph glyph-name="heavyverthorzbxd" unicode="&#x254b;" horiz-adv-x="2048" 
d="M-37 745h875v1210h372v-1210h875v-373h-875v-1210h-372v1210h-875v373z" />
    <glyph glyph-name="lightdbldashhorzbxd" unicode="&#x254c;" horiz-adv-x="2048" 
d="M1279 652h512v-187h-512v187zM255 652h512v-187h-512v187z" />
    <glyph glyph-name="heavydbldashhorzbxd" unicode="&#x254d;" horiz-adv-x="2048" 
d="M1279 745h512v-373h-512v373zM255 745h512v-373h-512v373z" />
    <glyph glyph-name="lightdbldashvertbxd" unicode="&#x254e;" horiz-adv-x="2048" 
d="M931 1326h186v-512h-186v512zM931 302h186v-512h-186v512z" />
    <glyph glyph-name="heavydbldashvertbxd" unicode="&#x254f;" horiz-adv-x="2048" 
d="M838 1326h372v-512h-372v512zM838 302h372v-512h-372v512z" />
    <glyph glyph-name="dblhorzbxd" unicode="&#x2550;" horiz-adv-x="2048" 
d="M-37 465h2122v-186h-2122v186zM-37 838h2122v-186h-2122v186z" />
    <glyph glyph-name="dblvertbxd" unicode="&#x2551;" horiz-adv-x="2048" 
d="M1117 1955h186v-2793h-186v2793zM745 1955h186v-2793h-186v2793z" />
    <glyph glyph-name="dnsngrightdblbxd" unicode="&#x2552;" horiz-adv-x="2048" 
d="M931 838h1154v-186h-968v-187h968v-186h-968v-1117h-186v1676z" />
    <glyph glyph-name="dndblrightsngbxd" unicode="&#x2553;" horiz-adv-x="2048" 
d="M745 652h1340v-187h-782v-1303h-186v1303h-186v-1303h-186v1490z" />
    <glyph glyph-name="dbldnrightbxd" unicode="&#x2554;" horiz-adv-x="2048" 
d="M1117 465h968v-186h-782v-1117h-186v1303zM745 838h1340v-186h-1154v-1490h-186v1676z" />
    <glyph glyph-name="dnsngleftdblbxd" unicode="&#x2555;" horiz-adv-x="2048" 
d="M-37 838h1154v-1676h-186v1117h-968v186h968v187h-968v186z" />
    <glyph glyph-name="dndblleftsngbxd" unicode="&#x2556;" horiz-adv-x="2048" 
d="M-37 652h1340v-1490h-186v1303h-186v-1303h-186v1303h-782v187z" />
    <glyph glyph-name="dbldnleftbxd" unicode="&#x2557;" horiz-adv-x="2048" 
d="M-37 465h968v-1303h-186v1117h-782v186zM-37 838h1340v-1676h-186v1490h-1154v186z" />
    <glyph glyph-name="upsngrightdblbxd" unicode="&#x2558;" horiz-adv-x="2048" 
d="M931 1955h186v-1117h968v-186h-968v-187h968v-186h-1154v1676z" />
    <glyph glyph-name="updblrightsngbxd" unicode="&#x2559;" horiz-adv-x="2048" 
d="M745 1955h186v-1303h186v1303h186v-1303h782v-187h-1340v1490z" />
    <glyph glyph-name="dbluprightbxd" unicode="&#x255a;" horiz-adv-x="2048" 
d="M1117 1955h186v-1117h782v-186h-968v1303zM745 1955h186v-1490h1154v-186h-1340v1676z" />
    <glyph glyph-name="upsngleftdblbxd" unicode="&#x255b;" horiz-adv-x="2048" 
d="M-37 838h968v1117h186v-1676h-1154v186h968v187h-968v186z" />
    <glyph glyph-name="updblleftsngbxd" unicode="&#x255c;" horiz-adv-x="2048" 
d="M-37 652h782v1303h186v-1303h186v1303h186v-1490h-1340v187z" />
    <glyph glyph-name="dblupleftbxd" unicode="&#x255d;" horiz-adv-x="2048" 
d="M-37 838h782v1117h186v-1303h-968v186zM-37 465h1154v1490h186v-1676h-1340v186z" />
    <glyph glyph-name="vertsngrightdblbxd" unicode="&#x255e;" horiz-adv-x="2048" 
d="M931 1955h186v-1117h968v-186h-968v-187h968v-186h-968v-1117h-186v2793z" />
    <glyph glyph-name="vertdblrightsngbxd" unicode="&#x255f;" horiz-adv-x="2048" 
d="M745 1955h186v-2793h-186v2793zM1117 1955h186v-1303h782v-187h-782v-1303h-186v2793z" />
    <glyph glyph-name="dblvertrightbxd" unicode="&#x2560;" horiz-adv-x="2048" 
d="M1117 465h968v-186h-782v-1117h-186v1303zM1117 1955h186v-1117h782v-186h-968v1303zM745 1955h186v-2793h-186v2793z" />
    <glyph glyph-name="vertsngleftdblbxd" unicode="&#x2561;" horiz-adv-x="2048" 
d="M-37 838h968v1117h186v-2793h-186v1117h-968v186h968v187h-968v186z" />
    <glyph glyph-name="vertdblleftsngbxd" unicode="&#x2562;" horiz-adv-x="2048" 
d="M1117 1955h186v-2793h-186v2793zM-37 652h782v1303h186v-2793h-186v1303h-782v187z" />
    <glyph glyph-name="dblvertleftbxd" unicode="&#x2563;" horiz-adv-x="2048" 
d="M-37 838h782v1117h186v-1303h-968v186zM-37 465h968v-1303h-186v1117h-782v186zM1117 1955h186v-2793h-186v2793z" />
    <glyph glyph-name="dnsnghorzdblbxd" unicode="&#x2564;" horiz-adv-x="2048" 
d="M-37 838h2122v-186h-2122v186zM-37 465h2122v-186h-968v-1117h-186v1117h-968v186z" />
    <glyph glyph-name="dndblhorzsngbxd" unicode="&#x2565;" horiz-adv-x="2048" 
d="M-37 652h2122v-187h-782v-1303h-186v1303h-186v-1303h-186v1303h-782v187z" />
    <glyph glyph-name="dbldnhorzbxd" unicode="&#x2566;" horiz-adv-x="2048" 
d="M-37 465h968v-1303h-186v1117h-782v186zM1117 465h968v-186h-782v-1117h-186v1303zM-37 838h2122v-186h-2122v186z" />
    <glyph glyph-name="upsnghorzdblbxd" unicode="&#x2567;" horiz-adv-x="2048" 
d="M-37 465h2122v-186h-2122v186zM-37 838h968v1117h186v-1117h968v-186h-2122v186z" />
    <glyph glyph-name="updblhorzsngbxd" unicode="&#x2568;" horiz-adv-x="2048" 
d="M-37 652h782v1303h186v-1303h186v1303h186v-1303h782v-187h-2122v187z" />
    <glyph glyph-name="dbluphorzbxd" unicode="&#x2569;" horiz-adv-x="2048" 
d="M1117 1955h186v-1117h782v-186h-968v1303zM-37 838h782v1117h186v-1303h-968v186zM-37 465h2122v-186h-2122v186z" />
    <glyph glyph-name="vertsnghorzdblbxd" unicode="&#x256a;" horiz-adv-x="2048" 
d="M-37 838h968v1117h186v-1117h968v-186h-968v-187h968v-186h-968v-1117h-186v1117h-968v186h968v187h-968v186z" />
    <glyph glyph-name="vertdblhorzsngbxd" unicode="&#x256b;" horiz-adv-x="2048" 
d="M-37 652h782v1303h186v-1303h186v1303h186v-1303h782v-187h-782v-1303h-186v1303h-186v-1303h-186v1303h-782v187z" />
    <glyph glyph-name="dblverthorzbxd" unicode="&#x256c;" horiz-adv-x="2048" 
d="M1117 465h968v-186h-782v-1117h-186v1303zM1117 1955h186v-1117h782v-186h-968v1303zM-37 465h968v-1303h-186v1117h-782v186zM-37 838h782v1117h186v-1303h-968v186z" />
    <glyph glyph-name="lightarcdnrightbxd" unicode="&#x256d;" horiz-adv-x="2048" 
d="M931 -465q-1 231 87 435t240 355t356 239t434 88h37v-187h-37q-252 0 -467 -126t-340 -338q-124 -212 -124 -466v-373h-186v373z" />
    <glyph glyph-name="lightarcdnleftbxd" unicode="&#x256e;" horiz-adv-x="2048" 
d="M1117 -838h-186v373q0 192 -74 362q-151 347 -495 495q-170 74 -362 73h-37v187h37q231 0 435 -88q203 -88 355 -240t240 -355q88 -204 87 -434v-373z" />
    <glyph glyph-name="lightarcupleftbxd" unicode="&#x256f;" horiz-adv-x="2048" 
d="M1117 1583q1 -231 -87 -435t-240 -356t-356 -240t-434 -87h-37v187h37q252 0 467 126t340 338q124 212 124 467v372h186v-372z" />
    <glyph glyph-name="lightarcuprightbxd" unicode="&#x2570;" horiz-adv-x="2048" 
d="M931 1955h186v-372q0 -249 127 -466t339 -342q213 -125 465 -123h37v-187h-37q-231 0 -435 88q-203 87 -355 239t-240 356t-87 435v372z" />
    <glyph glyph-name="lightdiaguprightdnleftbxd" unicode="&#x2571;" horiz-adv-x="2048" 
d="M2048 1583v-133l-1916 -1915h-132v132l1916 1916h132z" />
    <glyph glyph-name="lightdiagupleftdnrightbxd" unicode="&#x2572;" horiz-adv-x="2048" 
d="M2048 -465h-132l-1916 1915v133h132l1916 -1916v-132z" />
    <glyph glyph-name="lightdiagcrossbxd" unicode="&#x2573;" horiz-adv-x="2048" 
d="M0 1583h132l892 -892l892 892h132v-133l-892 -891l892 -892v-132h-132l-892 891l-892 -891h-132v132l892 892l-892 891v133z" />
    <glyph glyph-name="lightleftbxd" unicode="&#x2574;" horiz-adv-x="2048" 
d="M-37 652h1154v-187h-1154v187z" />
    <glyph glyph-name="lightupbxd" unicode="&#x2575;" horiz-adv-x="2048" 
d="M931 1955h186v-1490h-186v1490z" />
    <glyph glyph-name="lightrightbxd" unicode="&#x2576;" horiz-adv-x="2048" 
d="M931 652h1154v-187h-1154v187z" />
    <glyph glyph-name="lightdnbxd" unicode="&#x2577;" horiz-adv-x="2048" 
d="M931 652h186v-1490h-186v1490z" />
    <glyph glyph-name="heavyleftbxd" unicode="&#x2578;" horiz-adv-x="2048" 
d="M-37 745h1154v-373h-1154v373z" />
    <glyph glyph-name="heavyupbxd" unicode="&#x2579;" horiz-adv-x="2048" 
d="M838 1955h372v-1490h-372v1490z" />
    <glyph glyph-name="heavyrightbxd" unicode="&#x257a;" horiz-adv-x="2048" 
d="M931 745h1154v-373h-1154v373z" />
    <glyph glyph-name="heavydnbxd" unicode="&#x257b;" horiz-adv-x="2048" 
d="M838 652h372v-1490h-372v1490z" />
    <glyph glyph-name="lightleftheavyrightbxd" unicode="&#x257c;" horiz-adv-x="2048" 
d="M-37 652h968v93h1154v-373h-1154v93h-968v187z" />
    <glyph glyph-name="lightupheavydnbxd" unicode="&#x257d;" horiz-adv-x="2048" 
d="M838 652h93v1303h186v-1303h93v-1490h-372v1490z" />
    <glyph glyph-name="heavyleftlightrightbxd" unicode="&#x257e;" horiz-adv-x="2048" 
d="M-37 745h1154v-93h968v-187h-968v-93h-1154v373z" />
    <glyph glyph-name="heavyuplightdnbxd" unicode="&#x257f;" horiz-adv-x="2048" 
d="M838 1955h372v-1490h-93v-1303h-186v1303h-93v1490z" />
    <glyph glyph-name="uphalfblock" unicode="&#x2580;" horiz-adv-x="2048" 
d="M0 1583h2048v-1024h-2048v1024z" />
    <glyph glyph-name="dneighthblock" unicode="&#x2581;" horiz-adv-x="2048" 
d="M0 -210h2048v-255h-2048v255z" />
    <glyph glyph-name="dnquarterblock" unicode="&#x2582;" horiz-adv-x="2048" 
d="M0 47h2048v-512h-2048v512z" />
    <glyph glyph-name="dnthreeeighthsblock" unicode="&#x2583;" horiz-adv-x="2048" 
d="M0 302h2048v-767h-2048v767z" />
    <glyph glyph-name="dnhalfblock" unicode="&#x2584;" horiz-adv-x="2048" 
d="M0 559h2048v-1024h-2048v1024z" />
    <glyph glyph-name="dnfiveeighthsblock" unicode="&#x2585;" horiz-adv-x="2048" 
d="M0 814h2048v-1279h-2048v1279z" />
    <glyph glyph-name="dnthreequartersblock" unicode="&#x2586;" horiz-adv-x="2048" 
d="M0 1071h2048v-1536h-2048v1536z" />
    <glyph glyph-name="dnseveneighthsblock" unicode="&#x2587;" horiz-adv-x="2048" 
d="M0 1326h2048v-1791h-2048v1791z" />
    <glyph glyph-name="fullblock" unicode="&#x2588;" horiz-adv-x="2048" 
d="M0 1583h2048v-2048h-2048v2048z" />
    <glyph glyph-name="leftseveneighthsblock" unicode="&#x2589;" horiz-adv-x="2048" 
d="M0 1583h1791v-2048h-1791v2048z" />
    <glyph glyph-name="leftthreequartersblock" unicode="&#x258a;" horiz-adv-x="2048" 
d="M0 1583h1536v-2048h-1536v2048z" />
    <glyph glyph-name="leftfiveeighthsblock" unicode="&#x258b;" horiz-adv-x="2048" 
d="M0 1583h1279v-2048h-1279v2048z" />
    <glyph glyph-name="lefthalfblock" unicode="&#x258c;" horiz-adv-x="2048" 
d="M0 1583h1024v-2048h-1024v2048z" />
    <glyph glyph-name="leftthreeeighthsblock" unicode="&#x258d;" horiz-adv-x="2048" 
d="M0 1583h767v-2048h-767v2048z" />
    <glyph glyph-name="leftquarterblock" unicode="&#x258e;" horiz-adv-x="2048" 
d="M0 1583h512v-2048h-512v2048z" />
    <glyph glyph-name="lefteighthblock" unicode="&#x258f;" horiz-adv-x="2048" 
d="M0 1583h255v-2048h-255v2048z" />
    <glyph glyph-name="righthalfblock" unicode="&#x2590;" horiz-adv-x="2048" 
d="M1024 1583h1024v-2048h-1024v2048z" />
    <glyph glyph-name="lightshade" unicode="&#x2591;" horiz-adv-x="2048" 
d="M1955 1545h37v-56h-37v56zM1862 1452h37v-56h-37v56zM1955 1359h37v-56h-37v56zM1862 1266h37v-56h-37v56zM1955 1173h37v-56h-37v56zM1862 1080h37v-56h-37v56zM1955 987h37v-56h-37v56zM1862 894h37v-56h-37v56zM1955 801h37v-56h-37v56zM1862 707h37v-55h-37v55z
M1955 614h37v-55h-37v55zM1862 521h37v-56h-37v56zM1955 428h37v-56h-37v56zM1862 335h37v-56h-37v56zM1955 242h37v-56h-37v56zM1862 149h37v-56h-37v56zM1955 56h37v-56h-37v56zM1862 -37h37v-56h-37v56zM1955 -130h37v-56h-37v56zM1862 -223h37v-56h-37v56zM1955 -317h37
v-55h-37v55zM1862 -410h37v-55h-37v55zM1769 1545h37v-56h-37v56zM1676 1452h37v-56h-37v56zM1769 1359h37v-56h-37v56zM1676 1266h37v-56h-37v56zM1769 1173h37v-56h-37v56zM1676 1080h37v-56h-37v56zM1769 987h37v-56h-37v56zM1676 894h37v-56h-37v56zM1769 801h37v-56
h-37v56zM1676 707h37v-55h-37v55zM1769 614h37v-55h-37v55zM1676 521h37v-56h-37v56zM1769 428h37v-56h-37v56zM1676 335h37v-56h-37v56zM1769 242h37v-56h-37v56zM1676 149h37v-56h-37v56zM1769 56h37v-56h-37v56zM1676 -37h37v-56h-37v56zM1769 -130h37v-56h-37v56z
M1676 -223h37v-56h-37v56zM1769 -317h37v-55h-37v55zM1676 -410h37v-55h-37v55zM1583 1545h37v-56h-37v56zM1489 1452h38v-56h-38v56zM1583 1359h37v-56h-37v56zM1489 1266h38v-56h-38v56zM1583 1173h37v-56h-37v56zM1489 1080h38v-56h-38v56zM1583 987h37v-56h-37v56z
M1489 894h38v-56h-38v56zM1583 801h37v-56h-37v56zM1489 707h38v-55h-38v55zM1583 614h37v-55h-37v55zM1489 521h38v-56h-38v56zM1583 428h37v-56h-37v56zM1489 335h38v-56h-38v56zM1583 242h37v-56h-37v56zM1489 149h38v-56h-38v56zM1583 56h37v-56h-37v56zM1489 -37h38
v-56h-38v56zM1583 -130h37v-56h-37v56zM1489 -223h38v-56h-38v56zM1583 -317h37v-55h-37v55zM1489 -410h38v-55h-38v55zM1396 1545h38v-56h-38v56zM1303 1452h38v-56h-38v56zM1396 1359h38v-56h-38v56zM1303 1266h38v-56h-38v56zM1396 1173h38v-56h-38v56zM1303 1080h38v-56
h-38v56zM1396 987h38v-56h-38v56zM1303 894h38v-56h-38v56zM1396 801h38v-56h-38v56zM1303 707h38v-55h-38v55zM1396 614h38v-55h-38v55zM1303 521h38v-56h-38v56zM1396 428h38v-56h-38v56zM1303 335h38v-56h-38v56zM1396 242h38v-56h-38v56zM1303 149h38v-56h-38v56z
M1396 56h38v-56h-38v56zM1303 -37h38v-56h-38v56zM1396 -130h38v-56h-38v56zM1303 -223h38v-56h-38v56zM1396 -317h38v-55h-38v55zM1303 -410h38v-55h-38v55zM1210 1545h37v-56h-37v56zM1117 1452h37v-56h-37v56zM1210 1359h37v-56h-37v56zM1117 1266h37v-56h-37v56z
M1210 1173h37v-56h-37v56zM1117 1080h37v-56h-37v56zM1210 987h37v-56h-37v56zM1117 894h37v-56h-37v56zM1210 801h37v-56h-37v56zM1117 707h37v-55h-37v55zM1210 614h37v-55h-37v55zM1117 521h37v-56h-37v56zM1210 428h37v-56h-37v56zM1117 335h37v-56h-37v56zM1210 242h37
v-56h-37v56zM1117 149h37v-56h-37v56zM1210 56h37v-56h-37v56zM1117 -37h37v-56h-37v56zM1210 -130h37v-56h-37v56zM1117 -223h37v-56h-37v56zM1210 -317h37v-55h-37v55zM1117 -410h37v-55h-37v55zM1024 1545h37v-56h-37v56zM931 1452h37v-56h-37v56zM1024 1359h37v-56h-37
v56zM931 1266h37v-56h-37v56zM1024 1173h37v-56h-37v56zM931 1080h37v-56h-37v56zM1024 987h37v-56h-37v56zM931 894h37v-56h-37v56zM1024 801h37v-56h-37v56zM931 707h37v-55h-37v55zM1024 614h37v-55h-37v55zM931 521h37v-56h-37v56zM1024 428h37v-56h-37v56zM931 335h37
v-56h-37v56zM1024 242h37v-56h-37v56zM931 149h37v-56h-37v56zM1024 56h37v-56h-37v56zM931 -37h37v-56h-37v56zM1024 -130h37v-56h-37v56zM931 -223h37v-56h-37v56zM1024 -317h37v-55h-37v55zM931 -410h37v-55h-37v55zM838 1545h37v-56h-37v56zM745 1452h37v-56h-37v56z
M838 1359h37v-56h-37v56zM745 1266h37v-56h-37v56zM838 1173h37v-56h-37v56zM745 1080h37v-56h-37v56zM838 987h37v-56h-37v56zM745 894h37v-56h-37v56zM838 801h37v-56h-37v56zM745 707h37v-55h-37v55zM838 614h37v-55h-37v55zM745 521h37v-56h-37v56zM838 428h37v-56h-37
v56zM745 335h37v-56h-37v56zM838 242h37v-56h-37v56zM745 149h37v-56h-37v56zM838 56h37v-56h-37v56zM745 -37h37v-56h-37v56zM838 -130h37v-56h-37v56zM745 -223h37v-56h-37v56zM838 -317h37v-55h-37v55zM745 -410h37v-55h-37v55zM652 1545h37v-56h-37v56zM559 1452h37v-56
h-37v56zM652 1359h37v-56h-37v56zM559 1266h37v-56h-37v56zM652 1173h37v-56h-37v56zM559 1080h37v-56h-37v56zM652 987h37v-56h-37v56zM559 894h37v-56h-37v56zM652 801h37v-56h-37v56zM559 707h37v-55h-37v55zM652 614h37v-55h-37v55zM559 521h37v-56h-37v56zM652 428h37
v-56h-37v56zM559 335h37v-56h-37v56zM652 242h37v-56h-37v56zM559 149h37v-56h-37v56zM652 56h37v-56h-37v56zM559 -37h37v-56h-37v56zM652 -130h37v-56h-37v56zM559 -223h37v-56h-37v56zM652 -317h37v-55h-37v55zM559 -410h37v-55h-37v55zM465 1545h38v-56h-38v56z
M372 1452h38v-56h-38v56zM465 1359h38v-56h-38v56zM372 1266h38v-56h-38v56zM465 1173h38v-56h-38v56zM372 1080h38v-56h-38v56zM465 987h38v-56h-38v56zM372 894h38v-56h-38v56zM465 801h38v-56h-38v56zM372 707h38v-55h-38v55zM465 614h38v-55h-38v55zM372 521h38v-56h-38
v56zM465 428h38v-56h-38v56zM372 335h38v-56h-38v56zM465 242h38v-56h-38v56zM372 149h38v-56h-38v56zM465 56h38v-56h-38v56zM372 -37h38v-56h-38v56zM465 -130h38v-56h-38v56zM372 -223h38v-56h-38v56zM465 -317h38v-55h-38v55zM372 -410h38v-55h-38v55zM279 1545h38v-56
h-38v56zM186 1452h37v-56h-37v56zM279 1359h38v-56h-38v56zM186 1266h37v-56h-37v56zM279 1173h38v-56h-38v56zM186 1080h37v-56h-37v56zM279 987h38v-56h-38v56zM186 894h37v-56h-37v56zM279 801h38v-56h-38v56zM186 707h37v-55h-37v55zM279 614h38v-55h-38v55zM186 521h37
v-56h-37v56zM279 428h38v-56h-38v56zM186 335h37v-56h-37v56zM279 242h38v-56h-38v56zM186 149h37v-56h-37v56zM279 56h38v-56h-38v56zM186 -37h37v-56h-37v56zM279 -130h38v-56h-38v56zM186 -223h37v-56h-37v56zM279 -317h38v-55h-38v55zM186 -410h37v-55h-37v55zM93 1545
h37v-56h-37v56zM0 1452h37v-56h-37v56zM93 1359h37v-56h-37v56zM0 1266h37v-56h-37v56zM93 1173h37v-56h-37v56zM0 1080h37v-56h-37v56zM93 987h37v-56h-37v56zM0 894h37v-56h-37v56zM93 801h37v-56h-37v56zM0 707h37v-55h-37v55zM93 614h37v-55h-37v55zM0 521h37v-56h-37
v56zM93 428h37v-56h-37v56zM0 335h37v-56h-37v56zM93 242h37v-56h-37v56zM0 149h37v-56h-37v56zM93 56h37v-56h-37v56zM0 -37h37v-56h-37v56zM93 -130h37v-56h-37v56zM0 -223h37v-56h-37v56zM93 -317h37v-55h-37v55zM0 -410h37v-55h-37v55z" />
    <glyph glyph-name="mediumshade" unicode="&#x2592;" horiz-adv-x="2048" 
d="M1955 1583h74v-94h-74v94zM1862 1489h74v-93h-74v93zM1955 1396h74v-93h-74v93zM1862 1303h74v-93h-74v93zM1955 1210h74v-93h-74v93zM1862 1117h74v-93h-74v93zM1955 1024h74v-93h-74v93zM1862 931h74v-93h-74v93zM1955 838h74v-93h-74v93zM1862 745h74v-93h-74v93z
M1955 652h74v-93h-74v93zM1862 559h74v-94h-74v94zM1955 465h74v-93h-74v93zM1862 372h74v-93h-74v93zM1955 279h74v-93h-74v93zM1862 186h74v-93h-74v93zM1955 93h74v-93h-74v93zM1862 0h74v-93h-74v93zM1955 -93h74v-93h-74v93zM1862 -186h74v-93h-74v93zM1955 -279h74
v-93h-74v93zM1862 -372h74v-93h-74v93zM1769 1583h74v-94h-74v94zM1676 1489h74v-93h-74v93zM1769 1396h74v-93h-74v93zM1676 1303h74v-93h-74v93zM1769 1210h74v-93h-74v93zM1676 1117h74v-93h-74v93zM1769 1024h74v-93h-74v93zM1676 931h74v-93h-74v93zM1769 838h74v-93
h-74v93zM1676 745h74v-93h-74v93zM1769 652h74v-93h-74v93zM1676 559h74v-94h-74v94zM1769 465h74v-93h-74v93zM1676 372h74v-93h-74v93zM1769 279h74v-93h-74v93zM1676 186h74v-93h-74v93zM1769 93h74v-93h-74v93zM1676 0h74v-93h-74v93zM1769 -93h74v-93h-74v93z
M1676 -186h74v-93h-74v93zM1769 -279h74v-93h-74v93zM1676 -372h74v-93h-74v93zM1583 1583h74v-94h-74v94zM1489 1489h75v-93h-75v93zM1583 1396h74v-93h-74v93zM1489 1303h75v-93h-75v93zM1583 1210h74v-93h-74v93zM1489 1117h75v-93h-75v93zM1583 1024h74v-93h-74v93z
M1489 931h75v-93h-75v93zM1583 838h74v-93h-74v93zM1489 745h75v-93h-75v93zM1583 652h74v-93h-74v93zM1489 559h75v-94h-75v94zM1583 465h74v-93h-74v93zM1489 372h75v-93h-75v93zM1583 279h74v-93h-74v93zM1489 186h75v-93h-75v93zM1583 93h74v-93h-74v93zM1489 0h75v-93
h-75v93zM1583 -93h74v-93h-74v93zM1489 -186h75v-93h-75v93zM1583 -279h74v-93h-74v93zM1489 -372h75v-93h-75v93zM1396 1583h75v-94h-75v94zM1303 1489h75v-93h-75v93zM1396 1396h75v-93h-75v93zM1303 1303h75v-93h-75v93zM1396 1210h75v-93h-75v93zM1303 1117h75v-93h-75
v93zM1396 1024h75v-93h-75v93zM1303 931h75v-93h-75v93zM1396 838h75v-93h-75v93zM1303 745h75v-93h-75v93zM1396 652h75v-93h-75v93zM1303 559h75v-94h-75v94zM1396 465h75v-93h-75v93zM1303 372h75v-93h-75v93zM1396 279h75v-93h-75v93zM1303 186h75v-93h-75v93zM1396 93
h75v-93h-75v93zM1303 0h75v-93h-75v93zM1396 -93h75v-93h-75v93zM1303 -186h75v-93h-75v93zM1396 -279h75v-93h-75v93zM1303 -372h75v-93h-75v93zM1210 1583h75v-94h-75v94zM1117 1489h75v-93h-75v93zM1210 1396h75v-93h-75v93zM1117 1303h75v-93h-75v93zM1210 1210h75v-93
h-75v93zM1117 1117h75v-93h-75v93zM1210 1024h75v-93h-75v93zM1117 931h75v-93h-75v93zM1210 838h75v-93h-75v93zM1117 745h75v-93h-75v93zM1210 652h75v-93h-75v93zM1117 559h75v-94h-75v94zM1210 465h75v-93h-75v93zM1117 372h75v-93h-75v93zM1210 279h75v-93h-75v93z
M1117 186h75v-93h-75v93zM1210 93h75v-93h-75v93zM1117 0h75v-93h-75v93zM1210 -93h75v-93h-75v93zM1117 -186h75v-93h-75v93zM1210 -279h75v-93h-75v93zM1117 -372h75v-93h-75v93zM1024 1583h74v-94h-74v94zM931 1489h74v-93h-74v93zM1024 1396h74v-93h-74v93zM931 1303h74
v-93h-74v93zM1024 1210h74v-93h-74v93zM931 1117h74v-93h-74v93zM1024 1024h74v-93h-74v93zM931 931h74v-93h-74v93zM1024 838h74v-93h-74v93zM931 745h74v-93h-74v93zM1024 652h74v-93h-74v93zM931 559h74v-94h-74v94zM1024 465h74v-93h-74v93zM931 372h74v-93h-74v93z
M1024 279h74v-93h-74v93zM931 186h74v-93h-74v93zM1024 93h74v-93h-74v93zM931 0h74v-93h-74v93zM1024 -93h74v-93h-74v93zM931 -186h74v-93h-74v93zM1024 -279h74v-93h-74v93zM931 -372h74v-93h-74v93zM838 1583h74v-94h-74v94zM745 1489h74v-93h-74v93zM838 1396h74v-93
h-74v93zM745 1303h74v-93h-74v93zM838 1210h74v-93h-74v93zM745 1117h74v-93h-74v93zM838 1024h74v-93h-74v93zM745 931h74v-93h-74v93zM838 838h74v-93h-74v93zM745 745h74v-93h-74v93zM838 652h74v-93h-74v93zM745 559h74v-94h-74v94zM838 465h74v-93h-74v93zM745 372h74
v-93h-74v93zM838 279h74v-93h-74v93zM745 186h74v-93h-74v93zM838 93h74v-93h-74v93zM745 0h74v-93h-74v93zM838 -93h74v-93h-74v93zM745 -186h74v-93h-74v93zM838 -279h74v-93h-74v93zM745 -372h74v-93h-74v93zM652 1583h74v-94h-74v94zM559 1489h74v-93h-74v93zM652 1396
h74v-93h-74v93zM559 1303h74v-93h-74v93zM652 1210h74v-93h-74v93zM559 1117h74v-93h-74v93zM652 1024h74v-93h-74v93zM559 931h74v-93h-74v93zM652 838h74v-93h-74v93zM559 745h74v-93h-74v93zM652 652h74v-93h-74v93zM559 559h74v-94h-74v94zM652 465h74v-93h-74v93z
M559 372h74v-93h-74v93zM652 279h74v-93h-74v93zM559 186h74v-93h-74v93zM652 93h74v-93h-74v93zM559 0h74v-93h-74v93zM652 -93h74v-93h-74v93zM559 -186h74v-93h-74v93zM652 -279h74v-93h-74v93zM559 -372h74v-93h-74v93zM465 1583h75v-94h-75v94zM372 1489h75v-93h-75v93
zM465 1396h75v-93h-75v93zM372 1303h75v-93h-75v93zM465 1210h75v-93h-75v93zM372 1117h75v-93h-75v93zM465 1024h75v-93h-75v93zM372 931h75v-93h-75v93zM465 838h75v-93h-75v93zM372 745h75v-93h-75v93zM465 652h75v-93h-75v93zM372 559h75v-94h-75v94zM465 465h75v-93
h-75v93zM372 372h75v-93h-75v93zM465 279h75v-93h-75v93zM372 186h75v-93h-75v93zM465 93h75v-93h-75v93zM372 0h75v-93h-75v93zM465 -93h75v-93h-75v93zM372 -186h75v-93h-75v93zM465 -279h75v-93h-75v93zM372 -372h75v-93h-75v93zM279 1583h75v-94h-75v94zM186 1489h75
v-93h-75v93zM279 1396h75v-93h-75v93zM186 1303h75v-93h-75v93zM279 1210h75v-93h-75v93zM186 1117h75v-93h-75v93zM279 1024h75v-93h-75v93zM186 931h75v-93h-75v93zM279 838h75v-93h-75v93zM186 745h75v-93h-75v93zM279 652h75v-93h-75v93zM186 559h75v-94h-75v94z
M279 465h75v-93h-75v93zM186 372h75v-93h-75v93zM279 279h75v-93h-75v93zM186 186h75v-93h-75v93zM279 93h75v-93h-75v93zM186 0h75v-93h-75v93zM279 -93h75v-93h-75v93zM186 -186h75v-93h-75v93zM279 -279h75v-93h-75v93zM186 -372h75v-93h-75v93zM93 1583h75v-94h-75v94z
M0 1489h74v-93h-74v93zM93 1396h75v-93h-75v93zM0 1303h74v-93h-74v93zM93 1210h75v-93h-75v93zM0 1117h74v-93h-74v93zM93 1024h75v-93h-75v93zM0 931h74v-93h-74v93zM93 838h75v-93h-75v93zM0 745h74v-93h-74v93zM93 652h75v-93h-75v93zM0 559h74v-94h-74v94zM93 465h75
v-93h-75v93zM0 372h74v-93h-74v93zM93 279h75v-93h-75v93zM0 186h74v-93h-74v93zM93 93h75v-93h-75v93zM0 0h74v-93h-74v93zM93 -93h75v-93h-75v93zM0 -186h74v-93h-74v93zM93 -279h75v-93h-75v93zM0 -372h74v-93h-74v93z" />
    </font>
</defs>
</svg>
