<?xml version="1.0" standalone="no"?>
<!DOCTYPE svg PUBLIC "-//W3C//DTD SVG 1.1//EN" "http://www.w3.org/Graphics/SVG/1.1/DTD/svg11.dtd" >
<svg xmlns="http://www.w3.org/2000/svg">
<metadata>
Created by FontPrep 20130207 at Thu Oct 15 15:22:51 2015
 By Callum Flack
(c) Copyright The Font Bureau, Inc. 2014. All rights reserved.
</metadata>
<defs>
<font id="bb7482641ac9d7432b041354cb4e731d" horiz-adv-x='1024' >
  <font-face 
    font-family="InputSansCompressed-Black"
    font-weight="800"
    font-stretch="extra-condensed"
    units-per-em="2048"
    panose-1="2 0 8 0 3 0 0 9 0 4"
    ascent="1583"
    descent="-465"
    x-height="1117"
    cap-height="1489"
    bbox="-484 -838 2640 2607"
    underline-thickness="0"
    underline-position="0"
    unicode-range="U+000D-1F41B"
  />
<missing-glyph horiz-adv-x="1368" 
d="M279 -279h810v1675h-810v-1675zM93 -465v2048h1182v-2048h-1182z" />
    <glyph glyph-name=".notdef" horiz-adv-x="1368" 
d="M279 -279h810v1675h-810v-1675zM93 -465v2048h1182v-2048h-1182z" />
    <glyph glyph-name=".null" horiz-adv-x="0" 
 />
    <glyph glyph-name="nonmarkingreturn" unicode="&#xd;" horiz-adv-x="0" 
 />
    <glyph glyph-name="NULL" horiz-adv-x="0" 
 />
    <glyph glyph-name="space" unicode="&#xa0;" horiz-adv-x="863" 
 />
    <glyph glyph-name="space" unicode=" " horiz-adv-x="863" 
 />
    <glyph glyph-name="exclam" unicode="!" 
d="M845 138q1 -157 -231 -157t-232 157v52q0 160 231.5 160t231.5 -160v-52zM449 559l-41 930h391l-43 -930h-307z" />
    <glyph glyph-name="quotedbl" unicode="&#x22;" horiz-adv-x="1759" 
d="M436 680l-52 809h379l-54 -809h-273zM1050 680l-52 809h380l-54 -809h-274z" />
    <glyph glyph-name="numbersign" unicode="#" horiz-adv-x="1508" 
d="M168 333v220h180l15 383h-195v220h203l13 333h281l-13 -333h234l13 333h283l-13 -333h172v-220h-179l-15 -383h194v-220h-202l-13 -333h-283l13 333h-234l-13 -333h-281l13 333h-173zM864 553l15 383h-235l-15 -383h235z" />
    <glyph glyph-name="dollar" unicode="$" 
d="M709 -93h-190v175q-239 23 -400 151l65 216q86 -69 167 -104.5t183 -44.5v333q-218 45 -308 131t-90 254t100.5 265.5t282.5 120.5v179h190v-175q196 -19 334 -127l-47 -209q-86 54 -153.5 80.5t-146.5 33.5v-318q231 -52 325 -142t94 -258t-107 -268.5t-299 -119.5v-173
zM808 442q0 60 -24 91t-88 55v-290q112 17 112 144zM441 1048q0 -48 20.5 -79t72.5 -53v264q-93 -24 -93 -132z" />
    <glyph glyph-name="percent" unicode="%" horiz-adv-x="1982" 
d="M1430 289q0 -114 91 -114t91 114v201q0 60 -25 88.5t-66 28.5t-66 -29t-25 -88v-201zM1521 -22q-166 0 -268 71.5t-102 222.5v233q0 151 102 224t269 73t268.5 -73.5t101.5 -223.5v-233q0 -151 -102.5 -222.5t-268.5 -71.5zM369 1007q0 -113 91 -113t91 113v188
q0 118 -65 118t-91 -29t-26 -89v-188zM495 0l698 1489h296l-698 -1489h-296zM460 696q-166 0 -268.5 72t-102.5 222v220q0 151 103.5 224.5t269 73.5t267 -73.5t101.5 -224.5v-220q0 -151 -102 -222.5t-268 -71.5z" />
    <glyph glyph-name="ampersand" unicode="&#x26;" horiz-adv-x="1312" 
d="M503 394q0 -206 184 -206q41 0 70 14t55 55q-130 119 -257 283q-7 9 -15 20.5t-15 20.5q-22 -85 -22 -187zM689 1301q-86 0 -86 -184q0 -76 28 -173q78 60 106 115.5t28 132.5q0 109 -76 109zM168 374q0 134 58.5 244t166.5 184q-86 176 -86 317q0 188 100.5 289.5
t277.5 101.5t270 -94t93 -217t-74.5 -206t-284.5 -194q11 -20 50.5 -95.5t165.5 -225.5l97 317l242 -60q-80 -223 -201 -432l275 -111l-58 -224q-149 49 -301 168q-145 -155 -378 -155q-186 0 -299.5 107t-113.5 286z" />
    <glyph glyph-name="quotesingle" unicode="'" horiz-adv-x="1033" 
d="M380 680l-52 809h379l-54 -809h-273z" />
    <glyph glyph-name="parenleft" unicode="(" 
d="M307 558.5q0 430.5 157.5 661t488.5 288.5l34 -212q-186 -60 -265.5 -230t-79.5 -504t79.5 -502t265.5 -228l-34 -223q-331 58 -488.5 288.5t-157.5 661z" />
    <glyph glyph-name="parenright" unicode=")" 
d="M586 562q0 334 -79 505t-263 229l33 212q331 -58 488 -288.5t157 -661t-157 -661t-488 -288.5l-33 223q184 58 263 227t79 503z" />
    <glyph glyph-name="asterisk" unicode="*" horiz-adv-x="1312" 
d="M957 551l-259 285l82 -464h-249l82 462l-256 -283l-124 242l327 140l-327 139l124 242l256 -284l-82 459h249l-82 -461l259 286l125 -242l-332 -139l332 -140z" />
    <glyph glyph-name="plus" unicode="+" horiz-adv-x="1312" 
d="M525 0v523h-357v257h357v523h264v-523h356v-257h-356v-523h-264z" />
    <glyph glyph-name="comma" unicode="," horiz-adv-x="1033" 
d="M255 -307l95 810h443l-337 -810h-201z" />
    <glyph glyph-name="hyphen" unicode="&#x2011;" horiz-adv-x="1312" 
d="M140 519v278h1033v-278h-1033z" />
    <glyph glyph-name="hyphen" unicode="&#x2010;" horiz-adv-x="1312" 
d="M140 519v278h1033v-278h-1033z" />
    <glyph glyph-name="hyphen" unicode="&#xad;" horiz-adv-x="1312" 
d="M140 519v278h1033v-278h-1033z" />
    <glyph glyph-name="hyphen" unicode="-" horiz-adv-x="1312" 
d="M140 519v278h1033v-278h-1033z" />
    <glyph glyph-name="period" unicode="." horiz-adv-x="1033" 
d="M516 -19q-102 0 -166.5 51.5t-64.5 146.5v128q0 97 64 149t168.5 52t167 -52t62.5 -149v-128q0 -95 -64.5 -146.5t-166.5 -51.5z" />
    <glyph glyph-name="slash" unicode="/" horiz-adv-x="1033" 
d="M110 -372l558 1861h257l-558 -1861h-257z" />
    <glyph glyph-name="zero" unicode="0" horiz-adv-x="1368" 
d="M784 691q0 -105 -99 -105q-47 0 -73.5 22.5t-26.5 82.5v106q-1 104 99 104t100 -104v-106zM684 214q102 0 139 92t37 346v178q0 257 -37 351t-139 94t-139 -94t-37 -351v-178q0 -253 37 -345.5t139 -92.5zM685 -19q-244 0 -378 168t-134 471v242q0 307 134 476.5
t378 169.5t377 -169.5t133 -476.5v-242q0 -303 -133 -471t-377 -168z" />
    <glyph glyph-name="one" unicode="1" horiz-adv-x="1368" 
d="M279 0v246h307v919h-46q-19 -121 -99 -194.5t-175 -78.5l-15 247q117 13 210.5 108t128.5 242h332v-1243h279v-246h-922z" />
    <glyph glyph-name="two" unicode="2" horiz-adv-x="1368" 
d="M168 0v311q0 209 59.5 309.5t204.5 139.5l274 74q86 22 116.5 60.5t30.5 107.5v78q0 99 -38.5 147t-129.5 48t-126.5 -54t-40.5 -199l-336 19q9 238 131.5 352.5t368.5 114.5t376 -109t130 -315v-88q0 -177 -58 -263.5t-201 -123.5l-276 -75q-86 -24 -118 -70.5
t-32 -148.5v-69h698v-246h-1033z" />
    <glyph glyph-name="three" unicode="3" horiz-adv-x="1368" 
d="M691 -19q-269 0 -398 105.5t-138 337.5l335 19q9 -134 52 -177t143 -43t140.5 48.5t40.5 141.5v51q0 110 -38.5 153.5t-142.5 43.5h-193v242h193q88 0 120.5 29t32.5 114v60q0 91 -37.5 125.5t-125 34.5t-119 -42t-38.5 -142l-336 18q9 214 125.5 311t370.5 97
t374.5 -89.5t120.5 -284.5v-41q0 -106 -57 -185t-142 -93v-54q99 -15 163 -105t64 -213v-37q0 -222 -120.5 -323.5t-389.5 -101.5z" />
    <glyph glyph-name="four" unicode="4" horiz-adv-x="1368" 
d="M1272 372h-211v-372h-335v372h-571v233l508 884h398v-884h211v-233zM726 605v480l-281 -480h281z" />
    <glyph glyph-name="five" unicode="5" horiz-adv-x="1368" 
d="M1201 397q-1 -416 -525 -416q-264 0 -389 111t-132 359l335 18q11 -145 53 -200t143 -55t140.5 44.5t39.5 145.5v121q0 108 -45.5 151t-142.5 43h-483v770h970v-232h-634v-291h221q225 0 337 -100.5t112 -310.5v-158z" />
    <glyph glyph-name="six" unicode="6" horiz-adv-x="1368" 
d="M683 214q97 0 139 55t42 180v24q0 134 -42 191.5t-139 57.5t-138.5 -57.5t-41.5 -191.5v-24q0 -125 41.5 -180t138.5 -55zM168 964q0 544 506 544q250 0 366 -88.5t148 -293.5l-346 -42q-19 115 -58 153t-124 38t-121 -66t-36 -246v-162h7q39 60 111.5 95t169.5 35
q222 0 316 -109t94 -334v-41q0 -231 -130.5 -348.5t-385.5 -117.5q-517 0 -517 533v450z" />
    <glyph glyph-name="seven" unicode="7" horiz-adv-x="1368" 
d="M168 1238v251h1033v-251q-164 -359 -259 -600t-145 -638h-350q74 462 162.5 685.5t256.5 552.5h-698z" />
    <glyph glyph-name="eight" unicode="8" horiz-adv-x="1368" 
d="M685 223q97 0 139 47.5t42 159.5v26q0 112 -42 161.5t-139 49.5t-139.5 -49.5t-42.5 -161.5v-26q0 -112 42.5 -159.5t139.5 -47.5zM685 899q82 0 117.5 38.5t35.5 125.5v43q0 86 -35.5 123t-117.5 37t-118 -37t-36 -123v-43q0 -88 36 -126t118 -38zM684 -19
q-295 0 -405.5 112t-110.5 305v41q0 134 63 220t175 99v54q-91 11 -151 81t-60 185v60q0 194 127.5 282t361.5 88t361.5 -85.5t127.5 -284.5v-60q0 -115 -59.5 -185t-150.5 -81v-54q112 -13 175 -99.5t63 -219.5v-41q0 -199 -111 -308t-406 -109z" />
    <glyph glyph-name="nine" unicode="9" horiz-adv-x="1368" 
d="M168 1043q0 465 516 465t517 -532v-451q0 -249 -115 -396.5t-405 -147.5q-238 0 -353.5 88.5t-146.5 293.5l348 43q19 -115 58 -153.5t123 -38.5t120 66t36 247v162h-17q-83 -130 -285 -130q-396 0 -396 443v41zM686 767q96 0 138 58t42 192v24q0 125 -42 179.5
t-138 54.5t-138 -55t-42 -179v-24q0 -134 42 -192t138 -58z" />
    <glyph glyph-name="colon" unicode=":" horiz-adv-x="1033" 
d="M516 -11q-90 0 -145.5 45.5t-55.5 131.5v102q0 88 55.5 134.5t147 46.5t146.5 -46.5t55 -134.5v-102q0 -86 -56.5 -131.5t-146.5 -45.5zM516 721q-90 0 -145.5 45.5t-55.5 130.5v103q0 88 55.5 134t147 46t146.5 -46.5t55 -133.5v-103q0 -86 -56.5 -131t-146.5 -45z" />
    <glyph glyph-name="semicolon" unicode=";" horiz-adv-x="1033" 
d="M290 -279l81 754h387l-293 -754h-175zM516 721q-90 0 -145.5 45.5t-55.5 130.5v103q0 88 55.5 134t147 46t146.5 -46.5t55 -133.5v-103q0 -86 -56.5 -131t-146.5 -45z" />
    <glyph glyph-name="less" unicode="&#x3c;" horiz-adv-x="1312" 
d="M1076 0l-838 493v317l838 493v-255l-674 -396l674 -397v-255z" />
    <glyph glyph-name="equal" unicode="=" horiz-adv-x="1312" 
d="M168 233v257h977v-257h-977zM168 814v257h977v-257h-977z" />
    <glyph glyph-name="greater" unicode="&#x3e;" horiz-adv-x="1312" 
d="M238 0v242l697 410l-697 409v242l838 -493v-317z" />
    <glyph glyph-name="question" unicode="?" horiz-adv-x="1452" 
d="M883 138q0 -157 -233 -157t-233 157v52q0 160 233 160t233 -160v-52zM205 1041q23 467 503 467q236 0 376.5 -116.5t140.5 -304.5v-67q0 -214 -157.5 -323.5t-555.5 -178.5l-28 216q227 48 316.5 112t89.5 182v43q0 97 -38 150.5t-129.5 53.5t-131.5 -55.5t-51 -197.5z
" />
    <glyph glyph-name="at" unicode="@" horiz-adv-x="1545" 
d="M894 581q0 -153 82 -153q39 0 60.5 27t21.5 111v134q0 84 -23.5 120t-58.5 36q-82 0 -82 -160v-115zM168 464v443q0 272 156 436.5t456 164.5t449 -152.5t149 -430.5v-361q0 -341 -410 -341q-201 0 -296 89.5t-95 249.5v153q0 156 74.5 251t206.5 95q179 0 255 -139h56
q-4 195 -80.5 288t-288.5 93t-301 -104t-89 -292v-425q0 -225 108 -350t353 -125q189 0 321 38v-213q-155 -37 -321 -37q-354 0 -528.5 182.5t-174.5 486.5z" />
    <glyph glyph-name="A" unicode="A" horiz-adv-x="1172" 
d="M771 0l-62 363h-279l-61 -363h-304l294 1489h458l291 -1489h-337zM668 609l-96 586l-101 -586h197z" />
    <glyph glyph-name="B" unicode="B" horiz-adv-x="1368" 
d="M503 233h165q106 0 148 38t42 137v85q0 97 -41.5 135.5t-148.5 38.5h-165v-434zM503 883h184q84 0 116.5 32.5t32.5 115.5v79q0 82 -32.5 114.5t-116.5 32.5h-184v-374zM168 0v1489h582q195 0 306 -93t111 -257v-68q0 -114 -47.5 -172.5t-160.5 -83.5v-54
q115 -15 174.5 -90t59.5 -189v-93q0 -182 -120 -285.5t-332 -103.5h-573z" />
    <glyph glyph-name="C" unicode="C" horiz-adv-x="1368" 
d="M706 -19q-274 0 -406 128.5t-132 355.5v552q0 229 132 360t406 131t404 -130.5t139 -400.5l-335 -18q-9 177 -53.5 240t-158.5 63t-156.5 -56.5t-42.5 -216.5v-497q0 -155 42.5 -210t156.5 -55t158.5 61.5t53.5 234.5l335 -18q-9 -266 -139 -395t-404 -129z" />
    <glyph glyph-name="D" unicode="D" horiz-adv-x="1368" 
d="M503 246h160q121 0 162 55.5t41 221.5v436q0 169 -41 227t-162 58h-160v-998zM168 0v1489h534q235 0 367 -137.5t132 -366.5v-488q0 -227 -133 -362t-366 -135h-534z" />
    <glyph glyph-name="E" unicode="E" 
d="M168 0v1489h882v-245h-547v-324h478v-246h-478v-428h547v-246h-882z" />
    <glyph glyph-name="F" unicode="F" 
d="M168 0v1489h921v-245h-586v-434h489v-246h-489v-564h-335z" />
    <glyph glyph-name="G" unicode="G" horiz-adv-x="1368" 
d="M673 -19q-243 0 -374 129.5t-131 354.5v552q0 229 129 360t369 131t364 -109t134 -358l-335 -19q-9 145 -42 192.5t-126 47.5t-125.5 -54t-32.5 -218v-498q0 -160 37 -212.5t143 -52.5t139 61.5t33 247.5h-170v246h505v-274q0 -244 -137 -385.5t-380 -141.5z" />
    <glyph glyph-name="H" unicode="H" horiz-adv-x="1368" 
d="M168 0v1489h335v-543h363v543h335v-1489h-335v700h-363v-700h-335z" />
    <glyph glyph-name="I" unicode="I" 
d="M168 0v246h279v998h-279v245h893v-245h-279v-998h279v-246h-893z" />
    <glyph glyph-name="J" unicode="J" 
d="M581 -19q-257 0 -357.5 114t-111.5 423l335 20q11 -190 41 -250.5t110 -60.5t104 52t24 218v747h-376v245h711v-1005q0 -266 -111.5 -384.5t-368.5 -118.5z" />
    <glyph glyph-name="K" unicode="K" 
d="M503 650v-650h-335v1489h335v-593h59l268 593h365l-370 -685l365 -804h-384l-240 650h-63z" />
    <glyph glyph-name="L" unicode="L" horiz-adv-x="1089" 
d="M168 0v1489h335v-1243h484v-246h-819z" />
    <glyph glyph-name="M" unicode="M" horiz-adv-x="1508" 
d="M447 0h-279v1489h415l173 -772l175 772h410v-1489h-280v1072l-160 -700h-294l-160 682v-1054z" />
    <glyph glyph-name="N" unicode="N" horiz-adv-x="1368" 
d="M447 0h-279v1489h446l308 -977v977h279v-1489h-436l-318 1082v-1082z" />
    <glyph glyph-name="O" unicode="O" horiz-adv-x="1368" 
d="M685 227q106 0 143.5 55t37.5 210v498q0 158 -37.5 215t-143.5 57t-144 -56.5t-38 -215.5v-498q0 -155 38 -210t144 -55zM684 -19q-248 0 -382 129.5t-134 354.5v552q0 229 135 360t383 131t381.5 -131t133.5 -360v-552q0 -225 -134.5 -354.5t-382.5 -129.5z" />
    <glyph glyph-name="P" unicode="P" 
d="M503 713h115q78 0 114.5 41t36.5 155v134q0 114 -36.5 157.5t-114.5 43.5h-115v-531zM168 0v1489h512q209 0 316.5 -107t107.5 -311v-198q0 -197 -108 -300.5t-315 -103.5h-178v-469h-335z" />
    <glyph glyph-name="Q" unicode="Q" horiz-adv-x="1368" 
d="M684 253q109 0 145.5 55t36.5 223v459q0 162 -36.5 217t-145.5 55t-145 -55t-36 -217v-459q0 -168 36 -223t145 -55zM168 505v512q0 229 135 360t383 131t381.5 -131t133.5 -360v-512q0 -216 -122 -343t-345 -140q7 -117 63 -148.5t197 3.5l32 -259q-296 -47 -417 49.5
t-116 377.5q-156 43 -240.5 162t-84.5 298z" />
    <glyph glyph-name="R" unicode="R" horiz-adv-x="1368" 
d="M1162 955q0 -304 -233 -387l285 -568h-382l-268 538h-61v-538h-335v1489h562q212 0 322 -103t110 -302v-129zM503 782h193q63 0 97 34.5t34 140.5v115q0 106 -33.5 139t-97.5 33h-193v-462z" />
    <glyph glyph-name="S" unicode="S" horiz-adv-x="1368" 
d="M505 1096q0 -81 51 -120.5t202 -83.5q229 -67 338.5 -165.5t109.5 -290.5t-135 -322.5t-387 -130.5t-509 140l52 255q239 -149 467 -149q89 0 133 45.5t44 123.5t-60.5 119t-230.5 89t-288.5 143t-118.5 293t135 330t383 132t437 -128l-35 -242q-215 128 -402 128
q-86 0 -136 -42.5t-50 -123.5z" />
    <glyph glyph-name="T" unicode="T" 
d="M447 0v1244h-348v245h1033v-245h-350v-1244h-335z" />
    <glyph glyph-name="U" unicode="U" horiz-adv-x="1368" 
d="M684 -19q-267 0 -391.5 120.5t-124.5 376.5v1011h335v-996q0 -143 39.5 -198t141.5 -55t142 55t40 198v996h335v-1011q0 -257 -125 -377t-392 -120z" />
    <glyph glyph-name="V" unicode="V" horiz-adv-x="1172" 
d="M814 0h-458l-291 1489h335l198 -1187l199 1187h311z" />
    <glyph glyph-name="W" unicode="W" horiz-adv-x="1703" 
d="M992 0l-136 817l-145 -817h-352l-234 1489h313l147 -1025l117 789h316l140 -784l143 1020h278l-237 -1489h-350z" />
    <glyph glyph-name="X" unicode="X" horiz-adv-x="1368" 
d="M875 0l-199 419l-190 -419h-352l372 776l-338 713h374l180 -392l164 392h348l-340 -763l335 -726h-354z" />
    <glyph glyph-name="Y" unicode="Y" 
d="M782 0h-335v559l-408 930h346l235 -660l244 660h326l-408 -930v-559z" />
    <glyph glyph-name="Z" unicode="Z" horiz-adv-x="1368" 
d="M1182 0h-994v246l590 998h-590v245h994v-245l-627 -998h627v-246z" />
    <glyph glyph-name="bracketleft" unicode="[" 
d="M307 -372v1861h685v-232h-350v-1404h350v-225h-685z" />
    <glyph glyph-name="backslash" unicode="\" horiz-adv-x="1033" 
d="M668 -371l-558 1862l257 -2l558 -1861z" />
    <glyph glyph-name="bracketright" unicode="]" 
d="M238 -372v225h348v1404h-348v232h684v-1861h-684z" />
    <glyph glyph-name="asciicircum" unicode="^" horiz-adv-x="1508" 
d="M1013 372l-259 691l-259 -691h-327l418 1117h336l419 -1117h-328z" />
    <glyph glyph-name="underscore" unicode="_" horiz-adv-x="1312" 
d="M168 -372v277h977v-277h-977z" />
    <glyph glyph-name="grave" unicode="`" horiz-adv-x="1033" 
d="M577 680l-365 809h443l123 -809h-201z" />
    <glyph glyph-name="a" unicode="a" horiz-adv-x="1368" 
d="M503 -19q-149 0 -232 85.5t-83 239.5t90.5 236t250.5 82h218v160q0 136 -88.5 136t-116.5 -35.5t-47 -139.5l-286 46q66 345 458 345q205 0 310 -82t105 -266v-444q0 -88 43.5 -107t123.5 -6v-225q-128 -30 -227.5 -5t-135.5 148h-48q-128 -168 -335 -168zM583 451
q-77 -1 -77 -133t91 -132t150 65v200h-164z" />
    <glyph glyph-name="b" unicode="b" 
d="M614 218q68 0 90 33.5t22 120.5v362q0 154 -89 154q-30 0 -68 -19.5t-66 -67.5v-540q43 -43 111 -43zM603 -13q-286 0 -435 149v1353h335v-534h41q20 88 83.5 134.5t160.5 46.5q134 0 203.5 -97t69.5 -279v-389q0 -186 -115.5 -285t-342.5 -99z" />
    <glyph glyph-name="c" unicode="c" 
d="M168 737q0 399 332 399t449.5 -100.5t126.5 -290.5l-322 -24q-7 106 -34 143t-97 37t-95 -35.5t-25 -131.5v-347q0 -101 25 -137t95.5 -36t97.5 38t33 145l322 -25q-9 -192 -124.5 -291.5t-337 -99.5t-334 102.5t-112.5 290.5v363z" />
    <glyph glyph-name="d" unicode="d" 
d="M529 1130q111 0 197 -46v405h335v-1489h-335v181h-41q-24 -95 -92 -147.5t-179 -52.5t-178.5 99t-67.5 277v390q0 179 96.5 281t264.5 102zM601 901q-52 0 -75 -37t-23 -119v-361q0 -82 25 -117.5t64 -35.5q75 0 134 104v510q-73 56 -125 56z" />
    <glyph glyph-name="e" unicode="e" 
d="M503 734v-66h223v60q0 117 -24 161t-87.5 44t-87.5 -42t-24 -157zM587 -19q-189 0 -304 108t-115 298v348q0 188 119 294.5t329 106.5t327.5 -108t117.5 -298v-235h-558v-108q0 -112 28 -153.5t95 -41.5t98.5 29.5t61.5 109.5l266 -72q-37 -128 -156.5 -203t-308.5 -75z
" />
    <glyph glyph-name="f" unicode="f" horiz-adv-x="1089" 
d="M763 1326q-121 0 -121 -131v-78h280v-233h-280v-884h-335v884h-167v233h167v101q0 155 110 241t307 86q92 0 211 -44l-28 -211q-100 36 -144 36z" />
    <glyph glyph-name="g" unicode="g" horiz-adv-x="1368" 
d="M478 -86q0 -117 79 -117h255q56 0 91 21.5t35 86.5t-38 86.5t-94 21.5h-328v-99zM665 590q67 0 92 38.5t25 106.5v56q0 65 -26 102.5t-89.5 37.5t-89.5 -37.5t-26 -102.5v-56q0 -69 23.5 -107t90.5 -38zM849 240q352 0 352 -301q0 -151 -90.5 -240.5t-268.5 -89.5h-289
q-205 0 -295 73.5t-90 178.5t48 161t112 66v37q-52 19 -90.5 61.5t-38.5 135.5t68 157.5t154 77.5v35q-86 26 -136 86.5t-50 140.5v17q0 134 105 207.5t319 73.5h557v-194l-235 36v-36q50 -19 85.5 -73.5t35.5 -121.5v-19q0 -132 -110.5 -205.5t-321.5 -73.5h-124
q-108 0 -108 -95t96 -95h315z" />
    <glyph glyph-name="h" unicode="h" 
d="M544 955q59 181 276 181q109 0 175 -92.5t66 -259.5v-784h-335v739q0 80 -18.5 114.5t-59.5 34.5q-85 0 -145 -134v-754h-335v1489h335v-534h41z" />
    <glyph glyph-name="i" unicode="i" horiz-adv-x="754" 
d="M210 0v1117h336v-1117h-336zM581 1426q0 -130 -203 -130t-203 130v24q0 138 203 137t203 -137v-24z" />
    <glyph glyph-name="j" unicode="j" horiz-adv-x="949" 
d="M264 -169q114 0 114 189v864h-220v233h555v-1123q0 -175 -109 -279t-291 -104q-108 0 -216 41l28 216q80 -37 139 -37zM343 1450q0 138 203 137t202 -137v-24q0 -74 -56 -102t-146 -28q-205 0 -203 130v24z" />
    <glyph glyph-name="k" unicode="k" horiz-adv-x="1089" 
d="M503 471v-471h-335v1489h335v-800h44l172 428h333l-233 -504l229 -613h-352l-149 471h-44z" />
    <glyph glyph-name="l" unicode="l" horiz-adv-x="949" 
d="M238 387v1102h335v-1100q0 -84 20 -122t77 -38t127 39l48 -227q-120 -58 -272 -58q-151 0 -243 106t-92 298z" />
    <glyph glyph-name="m" unicode="m" horiz-adv-x="1647" 
d="M586 888q-45 0 -83 -102v-786h-335v1117h335v-162h41q30 86 92 133.5t146 47.5q146 0 194 -181h61q30 86 88.5 133.5t136.5 47.5q104 0 161 -89.5t57 -258.5v-788h-335v776q0 60 -14 86t-47 26q-52 0 -92 -102v-786h-335v776q0 60 -13 86t-58 26z" />
    <glyph glyph-name="n" unicode="n" 
d="M544 955q63 181 277 181q108 0 174 -92.5t66 -259.5v-784h-335v739q0 76 -16.5 112.5t-57.5 36.5q-89 0 -149 -134v-754h-335v1117h335v-162h41z" />
    <glyph glyph-name="o" unicode="o" 
d="M614.5 214q63.5 0 87.5 39t24 134v350q0 91 -24 128.5t-87.5 37.5t-87.5 -37t-24 -132v-347q0 -95 24 -134t87.5 -39zM614.5 -19q-204.5 0 -325.5 106.5t-121 286.5v363q0 184 121.5 291.5t326.5 107.5t325 -107t120 -292v-363q0 -181 -121 -287t-325.5 -106z" />
    <glyph glyph-name="p" unicode="p" 
d="M702 -13q-111 0 -199 47v-406h-335v1489h335v-162h41q20 86 91 133.5t166 47.5q128 0 194 -99t66 -277v-389q0 -182 -94 -283t-265 -101zM726 372v363q0 153 -89 153q-79 0 -134 -87v-529q71 -54 124 -54q52 0 75.5 37t23.5 117z" />
    <glyph glyph-name="q" unicode="q" 
d="M503 384q0 -155 89 -155q30 0 68 18.5t66 67.5v541q-43 43 -112 43t-90 -34.5t-21 -121.5v-359zM624 1130q273 0 437 -149v-1353h-335v534h-41q-45 -181 -244 -181q-273 0 -273 376v390q0 383 456 383z" />
    <glyph glyph-name="r" unicode="r" horiz-adv-x="1089" 
d="M168 0v1117h335v-162h41q26 95 87.5 138t129.5 43q128 0 182.5 -83t54.5 -228v-201h-302v151q0 52 -13 82.5t-52 30.5q-81 0 -128 -127v-761h-335z" />
    <glyph glyph-name="s" unicode="s" 
d="M503 827q0 -58 54.5 -87t202.5 -71t228.5 -110.5t80.5 -224.5t-117 -251.5t-339 -95.5q-134 0 -253.5 43.5t-199.5 101.5l62 199q231 -136 400 -136q132 0 132 97q0 61 -51 82.5t-187 61.5t-232 112t-96 234t107 258t295 96q125 0 234 -37.5t178 -83.5l-43 -190
q-186 102 -321 102t-135 -100z" />
    <glyph glyph-name="t" unicode="t" horiz-adv-x="1089" 
d="M307 344v540h-167v233h167v372h335v-372h268v-233h-268v-504q0 -164 119 -164q53 0 135 37l27 -227q-71 -45 -219 -45q-397 0 -397 363z" />
    <glyph glyph-name="u" unicode="u" 
d="M577 229q89 0 149 134v754h335v-1117h-335v162h-41q-30 -86 -99 -133.5t-162 -47.5q-125 0 -190.5 92.5t-65.5 259.5v784h335v-739q0 -76 16.5 -112.5t57.5 -36.5z" />
    <glyph glyph-name="v" unicode="v" horiz-adv-x="1089" 
d="M769 0h-449l-259 1117h323l167 -843l168 843h309z" />
    <glyph glyph-name="w" unicode="w" horiz-adv-x="1508" 
d="M881 0l-116 648l-113 -648h-365l-185 1117h283l123 -812l116 626h273l129 -624l115 810h265l-187 -1117h-338z" />
    <glyph glyph-name="x" unicode="x" horiz-adv-x="1089" 
d="M685 0l-154 287l-129 -287h-329l298 583l-287 534h327l142 -261l114 261h329l-285 -557l304 -560h-330z" />
    <glyph glyph-name="y" unicode="y" horiz-adv-x="1089" 
d="M303 -158q123 0 167 49t59 139l3 22h-251l-220 1065h323l175 -916l154 916h313l-196 -1104q-37 -210 -147.5 -308t-304.5 -98q-124 0 -294 22l11 233q144 -20 208 -20z" />
    <glyph glyph-name="z" unicode="z" 
d="M1033 0h-838v233l498 651h-498v233h838v-233l-465 -651h465v-233z" />
    <glyph glyph-name="braceleft" unicode="{" 
d="M238 -82q0 142 90 251q54 69 72.5 105.5t18.5 81.5q0 74 -65 105t-255 38v164q190 7 255 37t65 110q0 37 -18.5 67t-61.5 75t-72 95.5t-29 142.5q0 177 175 250.5t579 67.5v-233q-238 6 -328.5 -23t-90.5 -111q0 -52 27.5 -86.5t61.5 -66.5t63 -71.5t29 -102.5
q0 -123 -103.5 -173.5t-360.5 -57.5v-10q257 -17 360.5 -71.5t103.5 -173.5q0 -67 -30.5 -105.5t-64.5 -70.5t-60 -70.5t-26 -100.5q0 -88 90.5 -118.5t328.5 -24.5v-229q-404 -6 -579 66t-175 243z" />
    <glyph glyph-name="bar" unicode="|" horiz-adv-x="1033" 
d="M385 -372v1861h263v-1861h-263z" />
    <glyph glyph-name="braceright" unicode="}" 
d="M990 -82q0 -171 -175 -243t-579 -66v229q238 -6 328.5 25t90.5 118q0 61 -26 100t-59 71t-64 70.5t-31 105.5q0 121 102.5 175t360.5 70v10q-259 7 -361 57.5t-102 173.5q0 63 28.5 102t63.5 72t61.5 67t26.5 86q0 82 -90 111t-329 23v233q404 6 579 -67.5t175 -250.5
q0 -91 -28.5 -142.5t-71.5 -95.5t-61.5 -74.5t-18.5 -67.5q0 -80 65 -110t255 -37v-164q-190 -7 -255 -38t-65 -105q0 -45 18.5 -81.5t62.5 -91.5t71.5 -114.5t27.5 -150.5z" />
    <glyph glyph-name="asciitilde" unicode="~" horiz-adv-x="1508" 
d="M528 791q-38 0 -53 -31.5t-15 -113.5v-244h-292v255q0 220 99.5 334.5t266.5 114.5q196 0 311 -203q41 -74 74.5 -138.5t67.5 -64.5t50.5 34.5t16.5 125.5v227h287v-236q0 -233 -101 -350t-269 -117t-284 204q-43 76 -82 139.5t-77 63.5z" />
    <glyph glyph-name="exclamdown" unicode="&#xa1;" 
d="M780 931l41 -931h-391l43 931h307zM384 1352q0 156 232 156t231 -156v-52q0 -161 -231.5 -161t-231.5 161v52z" />
    <glyph glyph-name="cent" unicode="&#xa2;" 
d="M704 -93h-190v268q-162 24 -254 135t-92 299v279q0 188 96.5 295t249.5 131v269h190v-267q156 -22 233.5 -126.5t99.5 -282.5l-305 -24q-12 160 -52 193v-668q40 32 52 180l305 -24q-7 -173 -76 -273.5t-257 -119.5v-264zM484 598q0 -89 12 -135t42 -63v689
q-30 -17 -42 -62.5t-12 -134.5v-294z" />
    <glyph glyph-name="sterling" unicode="&#xa3;" horiz-adv-x="1368" 
d="M713 565q0 -61 -65 -117.5t-177 -114.5l30 -59q108 64 165.5 42t86.5 -40.5t75 -18.5t62.5 57.5t23.5 186.5l335 -19q-13 -244 -125.5 -372.5t-304.5 -128.5q-73 0 -138 33.5t-123 64.5t-110.5 44t-101.5 -28l-128 -112l-127 198l162 111q47 39 85 116.5t38 142.5
t-19 127h-206v180h126q-44 95 -44 201q0 209 128.5 329t362.5 120t354.5 -117.5t133.5 -372.5l-335 -18q-7 117 -37 180.5t-118 63.5t-120 -54t-32 -121t17.5 -114.5t39.5 -96.5h177v-180h-104q13 -52 13 -113z" />
    <glyph glyph-name="currency" unicode="&#xa4;" horiz-adv-x="1312" 
d="M268 590v302q0 104 26 186l-158 214l127 125l137 -177q100 82 257 82t257 -82l142 177l126 -125l-162 -218q24 -85 24 -182v-302q0 -99 -22 -173l155 -210l-127 -125l-132 169q-101 -83 -261 -83t-259 81l-132 -169l-126 127l152 206q-24 81 -24 177zM564 590
q0 -177 70 -177t92 41t22 136v302q0 184 -92 184t-92 -184v-302z" />
    <glyph glyph-name="yen" unicode="&#xa5;" horiz-adv-x="1172" 
d="M1033 186h-279v-186h-335v186h-279v181h279v192h-279v180h201l-330 750h348l239 -683l238 683h326l-330 -750h201v-180h-279v-192h279v-181z" />
    <glyph glyph-name="brokenbar" unicode="&#xa6;" horiz-adv-x="1033" 
d="M385 -372v744h263v-744h-263zM385 745v744h263v-744h-263z" />
    <glyph glyph-name="section" unicode="&#xa7;" horiz-adv-x="1703" 
d="M1404 -24q0 -168 -140.5 -264.5t-386.5 -96.5q-153 0 -302 48t-238 127l69 229q206 -159 478 -159q78 0 136 28t58 92t-53 100.5t-204 77.5q-283 61 -398.5 146t-115.5 230q0 106 65.5 170.5t167.5 97.5q-233 108 -233 334q0 168 140.5 264.5t386.5 96.5
q153 0 295.5 -48.5t244.5 -126.5l-89 -216q-216 145 -458 145q-112 0 -153 -35.5t-41 -95.5t74.5 -98t292.5 -88t311 -133.5t93 -234.5q0 -186 -198 -276q198 -108 198 -314zM1069 532q0 63 -45.5 102t-121 56t-90.5 21q-170 -8 -170 -132q0 -63 46.5 -102t121 -56t89.5 -21
q170 8 170 132z" />
    <glyph glyph-name="dieresis" unicode="&#xa8;" horiz-adv-x="1033" 
d="M862 1426q0 -130 -154 -130t-155 130v24q1 138 155 137t154 -137v-24zM482 1426q0 -130 -154 -130t-155 130v24q1 138 155 137t154 -137v-24z" />
    <glyph glyph-name="copyright" unicode="&#xa9;" horiz-adv-x="1926" 
d="M901 560q0 -188 76 -188q41 0 59 33t22 137l294 -11q-9 -184 -103.5 -270t-288 -86t-277 100.5t-83.5 290.5v251q0 188 84.5 287t276.5 99t286 -91.5t105 -281.5l-294 -11q-4 112 -22.5 149t-59.5 37q-75 0 -75 -188v-257zM964.5 -93q303.5 0 431 138.5t127.5 470.5v339
q0 335 -127.5 475.5t-431 140.5t-431 -140.5t-127.5 -475.5v-339q0 -331 127.5 -470t431 -139zM964.5 -205q-346.5 0 -511 172.5t-164.5 537.5v361q0 369 164.5 543t511 174t510 -174.5t163.5 -542.5v-361q0 -365 -163.5 -537.5t-510 -172.5z" />
    <glyph glyph-name="ordfeminine" unicode="&#xaa;" 
d="M681 1165q0 153 -104 153q-41 0 -67 -27t-43 -111l-258 41q30 153 117.5 220t267.5 67t276 -76.5t96 -258.5v-300q0 -86 40 -104.5t106 -7.5v-193q-104 -24 -183.5 -1t-129.5 135h-39q-37 -65 -119.5 -110t-190.5 -45t-185 71.5t-77 197.5t84.5 196t241.5 70h167v83z
M458 823q0 -101 69 -101q85 0 154 73v138h-156q-37 0 -52 -22.5t-15 -87.5z" />
    <glyph glyph-name="guillemotleft" unicode="&#xab;" horiz-adv-x="1703" 
d="M804 82l-614 411v317l614 411v-281l-430 -288l430 -289v-281zM1516 82l-615 411v317l615 411v-281l-431 -288l431 -289v-281z" />
    <glyph glyph-name="logicalnot" unicode="&#xac;" horiz-adv-x="1312" 
d="M888 0v527h-720v257h977v-784h-257z" />
    <glyph glyph-name="registered" unicode="&#xae;" horiz-adv-x="1563" 
d="M1065 1005q0 -105 -82 -152l127 -276h-211l-115 246h-50v-246h-196v689h304q106 0 164.5 -54t58.5 -154v-53zM815 938q53 0 53 67v53q0 48 -17 65.5t-36 17.5h-81v-203h81zM782 354q225 0 319 92t94 312v311q0 238 -94 337.5t-319 99.5t-319 -99.5t-94 -337.5v-311
q0 -220 94 -312t319 -92zM783 257q-265 0 -391 120t-126 375v322q0 270 126 398.5t391 128.5t391 -128.5t126 -398.5v-322q0 -255 -126 -375t-391 -120z" />
    <glyph glyph-name="macron" unicode="&#x2c9;" horiz-adv-x="1033" 
d="M190 1367v245h655v-245h-655z" />
    <glyph glyph-name="macron" unicode="&#xaf;" horiz-adv-x="1033" 
d="M190 1367v245h655v-245h-655z" />
    <glyph glyph-name="degree" unicode="&#xb0;" horiz-adv-x="893" 
d="M359 970q-1 -151 87 -151t88 151v160q0 157 -88 157t-87 -157v-160zM447 605q-151 0 -244 83t-93 256v212q0 173 93 259t246 86t245 -86t92 -259v-212q0 -173 -94 -256t-245 -83z" />
    <glyph glyph-name="plusminus" unicode="&#xb1;" horiz-adv-x="1312" 
d="M168 4v257h357v448h-357v257h357v523h264v-523h356v-257h-356v-448h356v-257h-977z" />
    <glyph glyph-name="two.sups" unicode="&#xb2;" horiz-adv-x="893" 
d="M106 566v214q0 216 164 263l171 46q48 13 69 38t21 83v17q0 63 -19.5 83.5t-66.5 20.5t-64.5 -24t-21.5 -108l-244 13q6 143 85 216t245 73t248.5 -72t82.5 -206v-43q0 -106 -43.5 -168t-118.5 -81l-169 -47q-60 -15 -76.5 -35t-16.5 -67v-34h432v-182h-678z" />
    <glyph glyph-name="three.sups" unicode="&#xb3;" horiz-adv-x="893" 
d="M784 838v-19q0 -134 -80 -199t-252 -65q-344 0 -353 281l245 11q4 -63 26.5 -87.5t76.5 -24.5t73.5 20t19.5 74v29q0 58 -16 78.5t-60 20.5h-192v179h192q35 0 47 17.5t12 64.5v18q0 48 -17.5 66t-62.5 18t-62.5 -18.5t-21.5 -68.5l-244 11q12 257 321 257
q168 0 248.5 -57t80.5 -174v-21q0 -154 -119 -180v-34q138 -18 138 -197z" />
    <glyph glyph-name="acute" unicode="&#xb4;" horiz-adv-x="1033" 
d="M318 1303l133 373h405l-331 -373h-207z" />
    <glyph glyph-name="mu1" unicode="&#xb5;" horiz-adv-x="1368" 
d="M168 1117h335v-713q0 -91 28 -129t67 -39q83 0 128 101v780h335v-754q0 -89 38 -119t130 -13v-225q-143 -35 -226 0t-137 154h-47q-27 -74 -71 -126t-120 -52t-125 85v-30l15 -409h-363l13 409v1080z" />
    <glyph glyph-name="paragraph" unicode="&#xb6;" horiz-adv-x="1703" 
d="M1061 633h-139v-1005h-336v1005q-156 0 -238 94t-82 273v97q0 192 81 292t238 100h811v-1861h-335v1005z" />
    <glyph glyph-name="periodcentered" unicode="&#x2219;" horiz-adv-x="1033" 
d="M516 482q-102 0 -166.5 50.5t-64.5 145.5v130q0 95 64 148t168.5 53t167 -53t62.5 -148v-130q0 -95 -64.5 -145.5t-166.5 -50.5z" />
    <glyph glyph-name="periodcentered" unicode="&#xb7;" horiz-adv-x="1033" 
d="M516 482q-102 0 -166.5 50.5t-64.5 145.5v130q0 95 64 148t168.5 53t167 -53t62.5 -148v-130q0 -95 -64.5 -145.5t-166.5 -50.5z" />
    <glyph glyph-name="cedilla" unicode="&#xb8;" horiz-adv-x="1033" 
d="M474 -415q-163 0 -254 61t-97 175l279 19q2 -35 15 -49t45 -14t52 20q18 20 18 78t-11 85t-46 40l28 78q162 -18 236 -76q75 -58 75 -172t-88 -180q-88 -65 -252 -65z" />
    <glyph glyph-name="one.sups" unicode="&#xb9;" horiz-adv-x="893" 
d="M177 566v182h190v531h-34q-7 -80 -57.5 -124.5t-107.5 -50.5l-10 179q69 13 127.5 69.5t83.5 136.5h242v-741h173v-182h-607z" />
    <glyph glyph-name="ordmasculine" unicode="&#xba;" 
d="M614.5 747q57.5 0 76 41t18.5 132v221q0 84 -18.5 126t-76 42t-76.5 -43t-19 -127v-219q0 -91 19 -132t76.5 -41zM615 547q-157 0 -268 87.5t-111 268.5v244q0 182 112 271.5t268.5 89.5t267 -89.5t110.5 -271.5v-244q0 -181 -111 -268.5t-268 -87.5z" />
    <glyph glyph-name="guillemotright" unicode="&#xbb;" horiz-adv-x="1703" 
d="M901 82v281l430 289l-430 288v281l615 -411v-317zM190 82v281l430 289l-430 288v281l614 -411v-317z" />
    <glyph glyph-name="onequarter" unicode="&#xbc;" horiz-adv-x="2267" 
d="M2201 223h-129v-223h-246v223h-353v170l314 530h285v-530h129v-170zM1826 393v257l-154 -257h154zM177 566v182h190v531h-34q-7 -80 -57 -125t-108 -50l-10 179q69 13 128 70t83 136h242v-741h173v-182h-607zM726 0l559 1489h257l-559 -1489h-257z" />
    <glyph glyph-name="onehalf" unicode="&#xbd;" horiz-adv-x="2267" 
d="M177 566v182h190v531h-34q-7 -80 -57 -125t-108 -50l-10 179q69 13 128 70t83 136h242v-741h173v-182h-607zM1480 0v214q0 218 164 263l171 46q48 13 69 38q20 25 21 83v17q0 63 -20 83q-21 20 -67 21q-46 0 -64 -24t-21 -108l-244 13q6 143 85 216t245 73t249 -72
t82 -206v-43q0 -106 -44 -168t-118 -81l-169 -47q-61 -15 -77 -35t-16 -67v-34h432v-182h-678zM726 0l559 1489h257l-559 -1489h-257z" />
    <glyph glyph-name="threequarters" unicode="&#xbe;" horiz-adv-x="2267" 
d="M2201 223h-129v-223h-246v223h-353v170l314 530h285v-530h129v-170zM1826 393v257l-154 -257h154zM726 0l559 1489h257l-559 -1489h-257zM784 819q0 -134 -80 -199t-252 -65q-342 0 -353 281l245 11q4 -63 26 -87t77 -24q53 0 73 19q20 20 20 74v29q0 58 -16 78t-60 21
h-192v179h192q35 0 47 18t12 64v18q0 48 -18 66q-19 18 -63 18t-62 -19t-21 -68l-244 11q6 130 85 193t236 64q329 0 329 -231v-21q0 -156 -119 -180v-34q136 -18 138 -197v-19z" />
    <glyph glyph-name="questiondown" unicode="&#xbf;" horiz-adv-x="1452" 
d="M562 462v-43q0 -97 38.5 -151t129.5 -54t131 56t51 197l335 -18q-11 -246 -141 -357t-366 -111t-374.5 122t-138.5 299v67q0 210 160 323t553 180l28 -216q-244 -52 -325 -117.5t-81 -176.5zM570 1352q0 156 232 156t233 -156v-52q-1 -161 -233 -161t-232 161v52z" />
    <glyph glyph-name="Agrave" unicode="&#xc0;" horiz-adv-x="1172" 
d="M771 0l-62 363h-279l-61 -363h-304l294 1489h458l291 -1489h-337zM668 609l-96 586l-101 -586h197zM549 1676l-331 372h406l130 -372h-205z" />
    <glyph glyph-name="Aacute" unicode="&#xc1;" horiz-adv-x="1172" 
d="M771 0l-62 363h-279l-61 -363h-304l294 1489h458l291 -1489h-337zM668 609l-96 586l-101 -586h197zM387 1676l132 372h406l-331 -372h-207z" />
    <glyph glyph-name="Acircumflex" unicode="&#xc2;" horiz-adv-x="1172" 
d="M771 0l-62 363h-279l-61 -363h-304l294 1489h458l291 -1489h-337zM668 609l-96 586l-101 -586h197zM294 1657l-100 145l262 291h257l266 -291l-98 -143l-296 201z" />
    <glyph glyph-name="Atilde" unicode="&#xc3;" horiz-adv-x="1172" 
d="M771 0l-62 363h-279l-61 -363h-304l294 1489h458l291 -1489h-337zM668 609l-96 586l-101 -586h197zM758 2024v48h206v-28q0 -162 -64 -256t-172 -94q-112 0 -166 86q-26 42 -45 72q-18 30 -44 28q-56 0 -56 -117v-50h-207v28q0 162 67 257t181 95q92 1 152 -85
q30 -42 50 -74q20 -30 44 -29q54 0 54 119z" />
    <glyph glyph-name="Adieresis" unicode="&#xc4;" horiz-adv-x="1172" 
d="M771 0l-62 363h-279l-61 -363h-304l294 1489h458l291 -1489h-337zM668 609l-96 586l-101 -586h197zM931 1799q-1 -131 -155 -131t-154 131v24q0 136 154 136t155 -136v-24zM551 1799q0 -131 -154 -131q-69 0 -112 29t-43 102v24q0 136 154 136t155 -136v-24z" />
    <glyph glyph-name="Aring" unicode="&#xc5;" horiz-adv-x="1172" 
d="M771 0l-62 363h-279l-61 -363h-304l294 1489h458l291 -1489h-337zM668 609l-96 586l-101 -586h197zM681 1977q-1 131 -95 131t-94 -131v-59q0 -69 24 -97t70 -28q47 0 71 28t24 97v59zM586 1635q-145 0 -233 69t-89 214v59q0 145 88 217t234 72t234 -72t89 -217v-59
q0 -145 -89 -214t-234 -69z" />
    <glyph glyph-name="AE" unicode="&#xc6;" horiz-adv-x="1843" 
d="M830 363h-383l-90 -363h-292l412 1489h1187v-245h-499v-324h431v-246h-431v-428h499v-246h-834v363zM830 609v635h-163l-159 -635h322z" />
    <glyph glyph-name="Ccedilla" unicode="&#xc7;" horiz-adv-x="1368" 
d="M664 -415q-163 0 -254 61t-97 175l279 19q2 -35 15 -49t45 -14t52 20q19 20 18 91t-26 94q-268 4 -398 130t-130 353v552q0 229 132 360t406 131t404 -130t139 -401l-335 -18q-9 177 -53 240q-45 63 -159 63t-156 -56t-43 -217v-497q0 -155 43 -210t157 -55
q114 -1 158 61t53 235l335 -18q-14 -413 -325 -498q3 -2 5 -4q75 -59 75 -173t-88 -180q-88 -65 -252 -65z" />
    <glyph glyph-name="Egrave" unicode="&#xc8;" 
d="M592 1676l-331 372h406l130 -372h-205zM168 0v1489h882v-245h-547v-324h478v-246h-478v-428h547v-246h-882z" />
    <glyph glyph-name="Eacute" unicode="&#xc9;" 
d="M430 1676l132 372h406l-331 -372h-207zM168 0v1489h882v-245h-547v-324h478v-246h-478v-428h547v-246h-882z" />
    <glyph glyph-name="Ecircumflex" unicode="&#xca;" 
d="M337 1657l-101 145l263 291h257l266 -291l-99 -143l-296 201zM168 0v1489h882v-245h-547v-324h478v-246h-478v-428h547v-246h-882z" />
    <glyph glyph-name="Edieresis" unicode="&#xcb;" 
d="M168 0v1489h882v-245h-547v-324h478v-246h-478v-428h547v-246h-882zM974 1799q0 -131 -155 -131t-154 131v24q1 136 155 136t154 -136v-24zM594 1799q0 -131 -154 -131t-155 131v24q1 136 155 136t154 -136v-24z" />
    <glyph glyph-name="Igrave" unicode="&#xcc;" 
d="M168 0v246h279v998h-279v245h893v-245h-279v-998h279v-246h-893zM577 1676l-331 372h406l130 -372h-205z" />
    <glyph glyph-name="Iacute" unicode="&#xcd;" 
d="M168 0v246h279v998h-279v245h893v-245h-279v-998h279v-246h-893zM415 1676l132 372h406l-331 -372h-207z" />
    <glyph glyph-name="Icircumflex" unicode="&#xce;" 
d="M168 0v246h279v998h-279v245h893v-245h-279v-998h279v-246h-893zM322 1657l-100 145l262 291h257l266 -291l-98 -143l-296 201z" />
    <glyph glyph-name="Idieresis" unicode="&#xcf;" 
d="M168 0v246h279v998h-279v245h893v-245h-279v-998h279v-246h-893zM959 1799q-1 -131 -155 -131t-154 131v24q0 136 154 136t155 -136v-24zM579 1799q-1 -131 -155 -131t-154 131v24q0 136 154 136t155 -136v-24z" />
    <glyph glyph-name="Eth" unicode="&#xd0;" horiz-adv-x="1368" 
d="M503 246h160q121 0 162 55.5t41 221.5v436q0 169 -41 227t-162 58h-160v-321h182v-206h-182v-471zM168 0v717h-140v206h140v566h534q235 0 367 -137.5t132 -366.5v-488q0 -227 -133 -362t-366 -135h-534z" />
    <glyph glyph-name="Ntilde" unicode="&#xd1;" horiz-adv-x="1368" 
d="M923 2024v48h207v-28q0 -162 -64 -256t-172 -94q-113 0 -167 86q-27 42 -45 72t-43 28q-56 0 -56 -117v-50h-207v28q0 162 67 257t181 95q92 1 152 -85q30 -42 50 -74q20 -30 43 -29q54 0 54 119zM447 0h-279v1489h446l308 -977v977h279v-1489h-436l-318 1082v-1082z" />
    <glyph glyph-name="Ograve" unicode="&#xd2;" horiz-adv-x="1368" 
d="M648 1676l-331 372h405l131 -372h-205zM685 227q106 0 144 55q37 55 37 210v498q0 158 -37 216t-143 56q-106 0 -145 -56q-38 -56 -38 -216v-498q0 -155 38 -210t144 -55zM1201 465q0 -225 -134 -355q-135 -130 -383 -129q-248 -1 -382 129t-134 355v552q0 229 135 360
t383 131t382 -131t133 -360v-552z" />
    <glyph glyph-name="Oacute" unicode="&#xd3;" horiz-adv-x="1368" 
d="M486 1676l132 372h406l-331 -372h-207zM685 227q106 0 144 55q37 55 37 210v498q0 158 -37 216t-143 56q-106 0 -145 -56q-38 -56 -38 -216v-498q0 -155 38 -210t144 -55zM1201 465q0 -225 -134 -355q-135 -130 -383 -129q-248 -1 -382 129t-134 355v552q0 229 135 360
t383 131t382 -131t133 -360v-552z" />
    <glyph glyph-name="Ocircumflex" unicode="&#xd4;" horiz-adv-x="1368" 
d="M393 1657l-101 145l263 291h257l266 -291l-99 -143l-296 201zM685 227q106 0 144 55q37 55 37 210v498q0 158 -37 216t-143 56q-106 0 -145 -56q-38 -56 -38 -216v-498q0 -155 38 -210t144 -55zM1201 465q0 -225 -134 -355q-135 -130 -383 -129q-248 -1 -382 129
t-134 355v552q0 229 135 360t383 131t382 -131t133 -360v-552z" />
    <glyph glyph-name="Otilde" unicode="&#xd5;" horiz-adv-x="1368" 
d="M856 2024v48h207v-28q0 -162 -64 -256t-172 -94q-113 0 -167 86q-27 42 -45 72t-43 28q-56 0 -56 -117v-50h-207v28q0 162 67 257t181 95q92 1 152 -85q30 -42 50 -74q20 -30 43 -29q54 0 54 119zM685 227q106 0 144 55q37 55 37 210v498q0 158 -37 216t-143 56
q-106 0 -145 -56q-38 -56 -38 -216v-498q0 -155 38 -210t144 -55zM1201 465q0 -225 -134 -355q-135 -130 -383 -129q-248 -1 -382 129t-134 355v552q0 229 135 360t383 131t382 -131t133 -360v-552z" />
    <glyph glyph-name="Odieresis" unicode="&#xd6;" horiz-adv-x="1368" 
d="M1030 1799q0 -131 -155 -131t-154 131v24q1 136 155 136t154 -136v-24zM650 1799q0 -131 -154 -131t-155 131v24q1 136 155 136t154 -136v-24zM685 227q106 0 144 55q37 55 37 210v498q0 158 -37 216t-143 56q-106 0 -145 -56q-38 -56 -38 -216v-498q0 -155 38 -210
t144 -55zM1201 465q0 -225 -134 -355q-135 -130 -383 -129q-248 -1 -382 129t-134 355v552q0 229 135 360t383 131t382 -131t133 -360v-552z" />
    <glyph glyph-name="multiply" unicode="&#xd7;" horiz-adv-x="1312" 
d="M384 69l-168 151l307 433l-307 432l168 151l273 -393l276 393l165 -151l-309 -432l308 -431l-166 -151l-274 393z" />
    <glyph glyph-name="Oslash" unicode="&#xd8;" horiz-adv-x="1368" 
d="M1201 1017v-552q0 -225 -134 -354.5t-382 -129.5q-60 0 -108 8l-58 -175h-217l82 236q-106 58 -161 165t-55 250v552q0 229 135 360t382 131l117 -7l58 175h218l-78 -246q201 -124 201 -413zM685 227q104 0 142.5 56t38.5 209v545l-227 -808q11 -2 14 -2h32zM685 1262
q-106 0 -144 -57.5t-38 -214.5v-498q0 -74 7 -116l233 881q-32 5 -58 5z" />
    <glyph glyph-name="Ugrave" unicode="&#xd9;" horiz-adv-x="1368" 
d="M648 1676l-331 372h405l131 -372h-205zM684 -19q-267 0 -392 120t-124 377v1011h335v-996q0 -143 40 -198q39 -55 141 -55t142 55t40 198v996h335v-1011q0 -257 -125 -377t-392 -120z" />
    <glyph glyph-name="Uacute" unicode="&#xda;" horiz-adv-x="1368" 
d="M486 1676l132 372h406l-331 -372h-207zM684 -19q-267 0 -392 120t-124 377v1011h335v-996q0 -143 40 -198q39 -55 141 -55t142 55t40 198v996h335v-1011q0 -257 -125 -377t-392 -120z" />
    <glyph glyph-name="Ucircumflex" unicode="&#xdb;" horiz-adv-x="1368" 
d="M393 1657l-101 145l263 291h257l266 -291l-99 -143l-296 201zM684 -19q-267 0 -392 120t-124 377v1011h335v-996q0 -143 40 -198q39 -55 141 -55t142 55t40 198v996h335v-1011q0 -257 -125 -377t-392 -120z" />
    <glyph glyph-name="Udieresis" unicode="&#xdc;" horiz-adv-x="1368" 
d="M684 -19q-267 0 -392 120t-124 377v1011h335v-996q0 -143 40 -198q39 -55 141 -55t142 55t40 198v996h335v-1011q0 -257 -125 -377t-392 -120zM1030 1799q0 -131 -155 -131t-154 131v24q1 136 155 136t154 -136v-24zM650 1799q0 -131 -154 -131t-155 131v24
q1 136 155 136t154 -136v-24z" />
    <glyph glyph-name="Yacute" unicode="&#xdd;" 
d="M782 0h-335v559l-408 930h346l235 -660l244 660h326l-408 -930v-559zM415 1676l132 372h406l-331 -372h-207z" />
    <glyph glyph-name="Thorn" unicode="&#xde;" 
d="M503 484h115q78 0 114.5 46.5t36.5 150.5v134q0 106 -36.5 153t-114.5 47h-115v-531zM168 0v1489h335v-229h177q201 0 312.5 -113.5t111.5 -317.5v-170q0 -199 -110.5 -309t-312.5 -110h-178v-240h-335z" />
    <glyph glyph-name="germandbls" unicode="&#xdf;" horiz-adv-x="1563" 
d="M719 1273q-216 0 -216 -303v-970h-335v996q0 242 145 375t401 133t408.5 -135t152.5 -345v-112q-192 4 -268 -25t-76 -90t44.5 -89t141.5 -53q181 -47 250.5 -117.5t69.5 -215.5t-115.5 -239t-303.5 -94q-249 0 -411 154l50 188q183 -143 373 -143q113 0 113 99
q0 52 -38 81t-124 49q-194 47 -269 117.5t-75 207.5t80 229t242 107q-13 106 -80 150.5t-160 44.5z" />
    <glyph glyph-name="agrave" unicode="&#xe0;" horiz-adv-x="1368" 
d="M503 -19q-149 0 -232 86q-83 85 -83 239t90 236t251 82h218v160q0 136 -120 136q-57 0 -85 -36t-47 -139l-286 46q66 345 458 345q205 0 310 -82t105 -266v-444q0 -88 44 -108t123 -5v-225q-128 -30 -228 -5t-135 148h-48q-128 -168 -335 -168zM597 186q91 0 150 65v200
h-164q-75 -1 -76 -133t90 -132zM611 1303l-332 373h406l130 -373h-204z" />
    <glyph glyph-name="aacute" unicode="&#xe1;" horiz-adv-x="1368" 
d="M503 -19q-149 0 -232 86q-83 85 -83 239t90 236t251 82h218v160q0 136 -120 136q-57 0 -85 -36t-47 -139l-286 46q66 345 458 345q205 0 310 -82t105 -266v-444q0 -88 44 -108t123 -5v-225q-128 -30 -228 -5t-135 148h-48q-128 -168 -335 -168zM597 186q91 0 150 65v200
h-164q-75 -1 -76 -133t90 -132zM449 1303l132 373h406l-332 -373h-206z" />
    <glyph glyph-name="acircumflex" unicode="&#xe2;" horiz-adv-x="1368" 
d="M503 -19q-149 0 -232 86q-83 85 -83 239t90 236t251 82h218v160q0 136 -120 136q-57 0 -85 -36t-47 -139l-286 46q66 345 458 345q205 0 310 -82t105 -266v-444q0 -88 44 -108t123 -5v-225q-128 -30 -228 -5t-135 148h-48q-128 -168 -335 -168zM597 186q91 0 150 65v200
h-164q-75 -1 -76 -133t90 -132zM356 1285l-101 145l263 290h257l266 -290l-99 -143l-296 201z" />
    <glyph glyph-name="atilde" unicode="&#xe3;" horiz-adv-x="1368" 
d="M503 -19q-149 0 -232 86q-83 85 -83 239t90 236t251 82h218v160q0 136 -120 136q-57 0 -85 -36t-47 -139l-286 46q66 345 458 345q205 0 310 -82t105 -266v-444q0 -88 44 -108t123 -5v-225q-128 -30 -228 -5t-135 148h-48q-128 -168 -335 -168zM597 186q91 0 150 65v200
h-164q-75 -1 -76 -133t90 -132zM765 1532q54 0 54 119v49h207v-28q0 -162 -64 -256t-173 -94q-113 0 -166 85q-27 43 -45 72t-44 29q-56 0 -56 -117v-50h-206v27q0 162 67 257t180 95q94 0 153 -85q30 -43 50 -73t43 -30z" />
    <glyph glyph-name="adieresis" unicode="&#xe4;" horiz-adv-x="1368" 
d="M503 -19q-149 0 -232 86q-83 85 -83 239t90 236t251 82h218v160q0 136 -120 136q-57 0 -85 -36t-47 -139l-286 46q66 345 458 345q205 0 310 -82t105 -266v-444q0 -88 44 -108t123 -5v-225q-128 -30 -228 -5t-135 148h-48q-128 -168 -335 -168zM597 186q91 0 150 65v200
h-164q-75 -1 -76 -133t90 -132zM683 1450q0 138 155 137t154 -137v-24q0 -130 -154 -130t-155 130v24zM613 1426q0 -130 -155 -130t-155 130v24q0 138 155 137t155 -137v-24z" />
    <glyph glyph-name="aring" unicode="&#xe5;" horiz-adv-x="1368" 
d="M503 -19q-149 0 -232 86q-83 85 -83 239t90 236t251 82h218v160q0 136 -120 136q-57 0 -85 -36t-47 -139l-286 46q66 345 458 345q205 0 310 -82t105 -266v-444q0 -88 44 -108t123 -5v-225q-128 -30 -228 -5t-135 148h-48q-128 -168 -335 -168zM597 186q91 0 150 65v200
h-164q-75 -1 -76 -133t90 -132zM553 1605v-60q0 -69 24 -97t71 -27q47 -1 71 27t24 97v60q0 132 -95 130q-95 0 -95 -130zM648 1262q-145 0 -234 69q-88 69 -88 214v60q0 145 88 217t234 72t234 -72t88 -217v-60q0 -145 -88 -214t-234 -69z" />
    <glyph glyph-name="ae" unicode="&#xe6;" horiz-adv-x="1647" 
d="M551 186q59 0 125 73v192h-95q-52 0 -74.5 -31.5t-22.5 -103.5t16 -101t51 -29zM1011 752v-84h154v67q0 106 -13 152t-65 46t-64 -43t-12 -138zM1123 1136q167 0 262 -112t95 -305v-224h-469v-169q0 -52 22.5 -93t77.5 -41t79 28t35 97l253 -38q-45 -171 -139.5 -234.5
t-228.5 -63.5q-218 0 -300 168h-41q-102 -168 -294 -168q-117 0 -212 73.5t-95 238.5t103 248t297 83h108v149q0 137 -58.5 137t-79 -30.5t-43.5 -123.5l-305 46q35 175 121 254.5t276 79.5t271 -114q98 114 265 114z" />
    <glyph glyph-name="ccedilla" unicode="&#xe7;" 
d="M565 -415q-163 0 -254 61t-97 175l279 19q2 -35 15 -49q14 -14 46 -14t51 20t19 90t-27 95q-209 4 -319 104t-110 288v363q0 399 445 399q220 0 337 -101t126 -290l-322 -24q-7 106 -34 143t-97 37t-95 -35t-25 -132v-347q0 -101 25 -137t96 -36q72 0 98 38t32 145
l322 -25q-13 -282 -255 -362q5 -3 9 -7q74 -59 74 -173t-88 -180q-88 -65 -251 -65z" />
    <glyph glyph-name="egrave" unicode="&#xe8;" 
d="M586 1303l-331 373h406l130 -373h-205zM503 734v-66h223v60q0 117 -24 161t-88 44t-87 -42q-24 -42 -24 -157zM168 387v348q0 189 119 295t329 106t327 -108q118 -108 118 -298v-235h-558v-108q0 -111 28 -153t95 -42q66 0 98 30t62 109l266 -72q-37 -129 -156 -203
q-118 -74 -308 -74t-305 107q-115 108 -115 298z" />
    <glyph glyph-name="eacute" unicode="&#xe9;" 
d="M424 1303l133 373h406l-332 -373h-207zM503 734v-66h223v60q0 117 -24 161t-88 44t-87 -42q-24 -42 -24 -157zM168 387v348q0 189 119 295t329 106t327 -108q118 -108 118 -298v-235h-558v-108q0 -111 28 -153t95 -42q66 0 98 30t62 109l266 -72q-37 -129 -156 -203
q-118 -74 -308 -74t-305 107q-115 108 -115 298z" />
    <glyph glyph-name="ecircumflex" unicode="&#xea;" 
d="M331 1285l-100 145l262 290h257l267 -290l-99 -143l-296 201zM503 734v-66h223v60q0 117 -24 161t-88 44t-87 -42q-24 -42 -24 -157zM168 387v348q0 189 119 295t329 106t327 -108q118 -108 118 -298v-235h-558v-108q0 -111 28 -153t95 -42q66 0 98 30t62 109l266 -72
q-37 -129 -156 -203q-118 -74 -308 -74t-305 107q-115 108 -115 298z" />
    <glyph glyph-name="edieresis" unicode="&#xeb;" 
d="M503 734v-66h223v60q0 117 -24 161t-88 44t-87 -42q-24 -42 -24 -157zM168 387v348q0 189 119 295t329 106t327 -108q118 -108 118 -298v-235h-558v-108q0 -111 28 -153t95 -42q66 0 98 30t62 109l266 -72q-37 -129 -156 -203q-118 -74 -308 -74t-305 107
q-115 108 -115 298zM968 1426q0 -130 -154 -130t-155 130v24q1 138 155 137t154 -137v-24zM279 1450q0 138 155 137t154 -137v-24q0 -130 -154 -130t-155 130v24z" />
    <glyph glyph-name="igrave" unicode="&#xec;" horiz-adv-x="754" 
d="M341 1303l-332 373h406l131 -373h-205zM210 0v1117h336v-1117h-336z" />
    <glyph glyph-name="iacute" unicode="&#xed;" horiz-adv-x="754" 
d="M179 1303l132 373h406l-332 -373h-206zM210 0v1117h336v-1117h-336z" />
    <glyph glyph-name="icircumflex" unicode="&#xee;" horiz-adv-x="754" 
d="M86 1285l-101 145l263 290h257l266 -290l-99 -143l-296 201zM210 0v1117h336v-1117h-336z" />
    <glyph glyph-name="idieresis" unicode="&#xef;" horiz-adv-x="754" 
d="M210 0v1117h336v-1117h-336zM413 1450q0 138 155 137t154 -137v-24q0 -130 -154 -130t-155 130v24zM343 1426q0 -130 -155 -130t-154 130v24q0 138 154 137t155 -137v-24z" />
    <glyph glyph-name="eth" unicode="&#xf0;" 
d="M616 214q60 0 85 47.5t25 144.5v117q0 88 -25 130.5t-85 42.5t-85 -42.5t-25 -130.5v-117q0 -97 25 -144.5t85 -47.5zM1061 689v-255q0 -236 -123.5 -344.5t-323 -108.5t-323 109t-123.5 333v108q0 184 88 292t230 108q88 0 144.5 -41t76.5 -97h30q-17 204 -141 330
l-218 -131v175l89 54q-71 42 -225 101l231 207q168 -57 279 -136l184 109v-175l-65 -39q190 -208 190 -599z" />
    <glyph glyph-name="ntilde" unicode="&#xf1;" 
d="M760 1532q54 0 54 119v49h206v-28q0 -162 -64 -256t-172 -94q-114 0 -166 85q-26 43 -45 72q-18 29 -44 29q-56 0 -56 -117v-50h-207v27q0 162 67 257t181 95q93 0 152 -85q30 -43 50 -73t44 -30zM652 888q-90 0 -149 -134v-754h-335v1117h335v-162h41q63 181 277 181
q108 0 174 -92t66 -260v-784h-335v739q0 77 -17 113t-57 36z" />
    <glyph glyph-name="ograve" unicode="&#xf2;" 
d="M577 1303l-331 373h406l130 -373h-205zM614 214q63 0 88 39q24 39 24 134v350q0 91 -24 129t-88 37q-64 0 -87 -37q-24 -37 -24 -132v-347q0 -95 24 -134t87 -39zM614 -19q-206 1 -326 107t-120 286v363q0 183 122 291t326 108t325 -107q120 -107 120 -292v-363
q0 -181 -121 -287t-326 -106z" />
    <glyph glyph-name="oacute" unicode="&#xf3;" 
d="M415 1303l132 373h406l-331 -373h-207zM614 214q63 0 88 39q24 39 24 134v350q0 91 -24 129t-88 37q-64 0 -87 -37q-24 -37 -24 -132v-347q0 -95 24 -134t87 -39zM614 -19q-206 1 -326 107t-120 286v363q0 183 122 291t326 108t325 -107q120 -107 120 -292v-363
q0 -181 -121 -287t-326 -106z" />
    <glyph glyph-name="ocircumflex" unicode="&#xf4;" 
d="M322 1285l-100 145l262 290h257l266 -290l-98 -143l-296 201zM614 214q63 0 88 39q24 39 24 134v350q0 91 -24 129t-88 37q-64 0 -87 -37q-24 -37 -24 -132v-347q0 -95 24 -134t87 -39zM614 -19q-206 1 -326 107t-120 286v363q0 183 122 291t326 108t325 -107
q120 -107 120 -292v-363q0 -181 -121 -287t-326 -106z" />
    <glyph glyph-name="otilde" unicode="&#xf5;" 
d="M732 1532q54 0 54 119v49h206v-28q0 -162 -64 -256t-172 -94q-114 0 -166 85q-26 43 -45 72q-18 29 -44 29q-56 0 -56 -117v-50h-207v27q0 162 67 257t181 95q93 0 152 -85q30 -43 50 -73t44 -30zM614 214q63 0 88 39q24 39 24 134v350q0 91 -24 129t-88 37
q-64 0 -87 -37q-24 -37 -24 -132v-347q0 -95 24 -134t87 -39zM614 -19q-206 1 -326 107t-120 286v363q0 183 122 291t326 108t325 -107q120 -107 120 -292v-363q0 -181 -121 -287t-326 -106z" />
    <glyph glyph-name="odieresis" unicode="&#xf6;" 
d="M959 1426q-1 -130 -155 -130t-154 130v24q0 138 154 137t155 -137v-24zM579 1426q-1 -130 -155 -130t-154 130v24q0 138 154 137t155 -137v-24zM614 214q63 0 88 39q24 39 24 134v350q0 91 -24 129t-88 37q-64 0 -87 -37q-24 -37 -24 -132v-347q0 -95 24 -134t87 -39z
M614 -19q-206 1 -326 107t-120 286v363q0 183 122 291t326 108t325 -107q120 -107 120 -292v-363q0 -181 -121 -287t-326 -106z" />
    <glyph glyph-name="divide" unicode="&#xf7;" horiz-adv-x="1312" 
d="M810 166q0 -136 -111 -136t-154.5 32.5t-43.5 103.5v35q0 73 43.5 107.5t112.5 34.5t111 -34.5t42 -107.5v-35zM168 536v231h977v-231h-977zM810 1097q0 -136 -111 -136t-154.5 32.5t-43.5 103.5v35q0 73 43.5 107t112.5 34t111 -34t42 -107v-35z" />
    <glyph glyph-name="oslash" unicode="&#xf8;" 
d="M1061 706v-302q0 -199 -117.5 -311t-329.5 -112q-45 0 -115 10l-75 -177h-178l95 234q-173 107 -173 356v302q0 205 118 317.5t330 112.5q59 0 118 -11l70 178h179l-93 -236q171 -106 171 -361zM614 201q86 0 118.5 47.5t32.5 175.5v276q0 70 -9 110l-201 -601
q26 -8 59 -8zM614 916q-86 0 -118 -47.5t-32 -172.5v-272q0 -63 9 -119l210 602q-29 9 -69 9z" />
    <glyph glyph-name="ugrave" unicode="&#xf9;" 
d="M594 1303l-331 373h405l131 -373h-205zM577 229q90 0 149 134v754h335v-1117h-335v162h-41q-30 -86 -99 -134t-162 -47q-124 1 -190 93t-66 259v784h335v-739q0 -76 16 -113q17 -36 58 -36z" />
    <glyph glyph-name="uacute" unicode="&#xfa;" 
d="M398 1303l133 373h405l-331 -373h-207zM577 229q90 0 149 134v754h335v-1117h-335v162h-41q-30 -86 -99 -134t-162 -47q-124 1 -190 93t-66 259v784h335v-739q0 -76 16 -113q17 -36 58 -36z" />
    <glyph glyph-name="ucircumflex" unicode="&#xfb;" 
d="M322 1285l-100 145l262 290h257l266 -290l-98 -143l-296 201zM577 229q90 0 149 134v754h335v-1117h-335v162h-41q-30 -86 -99 -134t-162 -47q-124 1 -190 93t-66 259v784h335v-739q0 -76 16 -113q17 -36 58 -36z" />
    <glyph glyph-name="udieresis" unicode="&#xfc;" 
d="M577 229q90 0 149 134v754h335v-1117h-335v162h-41q-30 -86 -99 -134t-162 -47q-124 1 -190 93t-66 259v784h335v-739q0 -76 16 -113q17 -36 58 -36zM959 1426q-1 -130 -155 -130t-154 130v24q0 138 154 137t155 -137v-24zM579 1426q-1 -130 -155 -130t-154 130v24
q0 138 154 137t155 -137v-24z" />
    <glyph glyph-name="yacute" unicode="&#xfd;" horiz-adv-x="1089" 
d="M378 -393q-107 0 -294 22l11 233q154 -21 208 -20q123 0 167 49t59 139l3 22h-251l-220 1065h323l175 -916l154 916h313l-196 -1104q-38 -210 -148 -308t-304 -98zM344 1303l133 373h406l-332 -373h-207z" />
    <glyph glyph-name="thorn" unicode="&#xfe;" 
d="M702 -13q-121 0 -199 47v-406h-335v1861h335v-534h41q20 86 90 133.5t165 47.5q140 0 201 -106.5t61 -269.5v-389q0 -182 -95 -283t-264 -101zM726 372v363q0 153 -89 153q-79 0 -134 -87v-529q64 -54 122 -54t79.5 34.5t21.5 119.5z" />
    <glyph glyph-name="ydieresis" unicode="&#xff;" horiz-adv-x="1089" 
d="M378 -393q-107 0 -294 22l11 233q154 -21 208 -20q123 0 167 49t59 139l3 22h-251l-220 1065h323l175 -916l154 916h313l-196 -1104q-38 -210 -148 -308t-304 -98zM888 1426q0 -130 -154 -130t-155 130v24q1 138 155 137t154 -137v-24zM199 1450q1 138 155 137t154 -137
v-24q0 -130 -154 -130t-155 130v24z" />
    <glyph glyph-name="Amacron" unicode="&#x100;" horiz-adv-x="1172" 
d="M771 0l-62 363h-279l-61 -363h-304l294 1489h458l291 -1489h-337zM668 609l-96 586l-101 -586h197zM259 1739v246h655v-246h-655z" />
    <glyph glyph-name="amacron" unicode="&#x101;" horiz-adv-x="1368" 
d="M503 -19q-149 0 -232 86q-83 85 -83 239t90 236t251 82h218v160q0 136 -120 136q-57 0 -85 -36t-47 -139l-286 46q66 345 458 345q205 0 310 -82t105 -266v-444q0 -88 44 -108t123 -5v-225q-128 -30 -228 -5t-135 148h-48q-128 -168 -335 -168zM597 186q91 0 150 65v200
h-164q-75 -1 -76 -133t90 -132zM320 1367v245h656v-245h-656z" />
    <glyph glyph-name="Abreve" unicode="&#x102;" horiz-adv-x="1172" 
d="M771 0l-62 363h-279l-61 -363h-304l294 1489h458l291 -1489h-337zM668 609l-96 586l-101 -586h197zM586 1663q-199 0 -295 105t-97 325h257q2 -134 29 -183q28 -48 106 -48t107 48q28 48 29 183h257q-2 -220 -98 -325t-295 -105z" />
    <glyph glyph-name="abreve" unicode="&#x103;" horiz-adv-x="1368" 
d="M503 -19q-149 0 -232 86q-83 85 -83 239t90 236t251 82h218v160q0 136 -120 136q-57 0 -85 -36t-47 -139l-286 46q66 345 458 345q205 0 310 -82t105 -266v-444q0 -88 44 -108t123 -5v-225q-128 -30 -228 -5t-135 148h-48q-128 -168 -335 -168zM597 186q91 0 150 65v200
h-164q-75 -1 -76 -133t90 -132zM648 1290q-199 0 -295 105t-98 325h257q2 -134 30 -182t106 -48t106 48t30 182h257q-2 -220 -98 -325t-295 -105z" />
    <glyph glyph-name="Aogonek" unicode="&#x104;" horiz-adv-x="1172" 
d="M668 609l-96 586l-101 -586h197zM851 -97q0 -108 96 -108q46 0 148 19v-203q-120 -22 -198 -22q-130 1 -200 61t-70 165t69 190q28 35 64 61l-51 297h-279l-61 -363h-304l294 1489h458l291 -1489h-232q-25 -38 -25 -97z" />
    <glyph glyph-name="aogonek" unicode="&#x105;" horiz-adv-x="1368" 
d="M503 -19q-149 0 -232 86q-83 85 -83 239t90 236t251 82h218v160q0 136 -120 136q-57 0 -85 -36t-47 -139l-286 46q66 345 458 345q205 0 310 -82t105 -266v-444q0 -88 44 -108t123 -5v-225q-123 -29 -220 -7q-24 -43 -24 -107q0 -97 108 -97q35 0 136 19v-203
q-129 -24 -197 -22q-130 1 -200 61t-70 165q0 156 139 256q-22 32 -35 78h-48q-128 -168 -335 -168zM597 186q91 0 150 65v200h-164q-75 -1 -76 -133t90 -132z" />
    <glyph glyph-name="Cacute" unicode="&#x106;" horiz-adv-x="1368" 
d="M706 -19q-274 1 -406 129t-132 355v552q0 229 132 360t406 131t404 -130t139 -401l-335 -18q-9 177 -53 240q-45 63 -159 63t-156 -56t-43 -217v-497q0 -155 43 -210t157 -55q114 -1 158 61t53 235l335 -18q-9 -266 -139 -395t-404 -129zM508 1676l132 372h406l-331 -372
h-207z" />
    <glyph glyph-name="cacute" unicode="&#x107;" 
d="M168 737q0 399 445 399q220 0 337 -101t126 -290l-322 -24q-7 106 -34 143t-97 37t-95 -35t-25 -132v-347q0 -101 25 -137t96 -36q72 0 98 38t32 145l322 -25q-8 -192 -124 -292t-338 -99t-334 103t-112 290v363zM410 1303l132 373h406l-332 -373h-206z" />
    <glyph glyph-name="Ccircumflex" unicode="&#x108;" horiz-adv-x="1368" 
d="M415 1657l-100 145l262 291h257l266 -291l-98 -143l-296 201zM706 -19q-274 1 -406 129t-132 355v552q0 229 132 360t406 131t404 -130t139 -401l-335 -18q-9 177 -53 240q-45 63 -159 63t-156 -56t-43 -217v-497q0 -155 43 -210t157 -55q114 -1 158 61t53 235l335 -18
q-9 -266 -139 -395t-404 -129z" />
    <glyph glyph-name="ccircumflex" unicode="&#x109;" 
d="M309 1285l-100 145l262 290h257l266 -290l-98 -143l-296 201zM168 737q0 399 445 399q220 0 337 -101t126 -290l-322 -24q-7 106 -34 143t-97 37t-95 -35t-25 -132v-347q0 -101 25 -137t96 -36q72 0 98 38t32 145l322 -25q-8 -192 -124 -292t-338 -99t-334 103t-112 290
v363z" />
    <glyph glyph-name="Cdotaccent" unicode="&#x10a;" horiz-adv-x="1368" 
d="M706 -19q-274 1 -406 129t-132 355v552q0 229 132 360t406 131t404 -130t139 -401l-335 -18q-9 177 -53 240q-45 63 -159 63t-156 -56t-43 -217v-497q0 -155 43 -210t157 -55q114 -1 158 61t53 235l335 -18q-9 -266 -139 -395t-404 -129zM505 1823q0 136 203 136
t202 -136v-24q0 -131 -203 -131q-91 0 -147 29t-55 102v24z" />
    <glyph glyph-name="cdotaccent" unicode="&#x10b;" 
d="M168 737q0 399 445 399q220 0 337 -101t126 -290l-322 -24q-7 106 -34 143t-97 37t-95 -35t-25 -132v-347q0 -101 25 -137t96 -36q72 0 98 38t32 145l322 -25q-8 -192 -124 -292t-338 -99t-334 103t-112 290v363zM398 1450q0 138 203 137t203 -137v-24q0 -74 -57 -102
t-146 -28q-203 0 -203 130v24z" />
    <glyph glyph-name="Ccaron" unicode="&#x10c;" horiz-adv-x="1368" 
d="M581 1683l-266 291l98 143l296 -201l291 203l100 -145l-262 -291h-257zM706 -19q-274 1 -406 129t-132 355v552q0 229 132 360t406 131t404 -130t139 -401l-335 -18q-9 177 -53 240q-45 63 -159 63t-156 -56t-43 -217v-497q0 -155 43 -210t157 -55q114 -1 158 61t53 235
l335 -18q-9 -266 -139 -395t-404 -129z" />
    <glyph glyph-name="ccaron" unicode="&#x10d;" 
d="M475 1311l-266 290l98 144l296 -202l291 203l100 -145l-262 -290h-257zM168 737q0 399 445 399q220 0 337 -101t126 -290l-322 -24q-7 106 -34 143t-97 37t-95 -35t-25 -132v-347q0 -101 25 -137t96 -36q72 0 98 38t32 145l322 -25q-8 -192 -124 -292t-338 -99t-334 103
t-112 290v363z" />
    <glyph glyph-name="Dcaron" unicode="&#x10e;" horiz-adv-x="1368" 
d="M559 1683l-267 291l99 143l296 -201l290 203l101 -145l-263 -291h-256zM503 246h160q121 0 162 56t41 221v436q0 169 -41 227t-162 58h-160v-998zM168 0v1489h534q235 1 367 -137t132 -367v-488q0 -227 -133 -362t-366 -135h-534z" />
    <glyph glyph-name="dcaron" unicode="&#x10f;" 
d="M1201 1313l56 549h400l-277 -549h-179zM529 1130q111 0 197 -46v405h335v-1489h-335v181h-41q-50 -199 -271 -199q-110 0 -178 98q-68 99 -68 277v390q0 179 96 281q97 102 265 102zM503 384q0 -153 89 -153q75 0 134 104v510q-73 56 -125 56t-75 -37t-23 -119v-361z" />
    <glyph glyph-name="Dcroat" unicode="&#x110;" horiz-adv-x="1368" 
d="M503 246h160q121 0 162 55.5t41 221.5v436q0 169 -41 227t-162 58h-160v-321h182v-206h-182v-471zM168 0v717h-140v206h140v566h534q235 0 367 -137.5t132 -366.5v-488q0 -227 -133 -362t-366 -135h-534z" />
    <glyph glyph-name="dcroat" unicode="&#x111;" 
d="M529 1011q113 0 197 -47v170h-220v175h220v180h335v-180h140v-175h-140v-1134h-335v199h-41q-24 -101 -95 -159.5t-177 -58.5t-175.5 104.5t-69.5 283.5v221q0 194 96.5 307.5t264.5 113.5zM601 782q-52 0 -76 -46.5t-24 -147.5v-162q0 -102 21.5 -148.5t69.5 -46.5
q63 0 134 123v372q-73 56 -125 56z" />
    <glyph glyph-name="Emacron" unicode="&#x112;" 
d="M168 0v1489h882v-245h-547v-324h478v-246h-478v-428h547v-246h-882zM302 1739v246h655v-246h-655z" />
    <glyph glyph-name="emacron" unicode="&#x113;" 
d="M503 734v-66h223v60q0 117 -24 161t-88 44t-87 -42q-24 -42 -24 -157zM168 387v348q0 189 119 295t329 106t327 -108q118 -108 118 -298v-235h-558v-108q0 -111 28 -153t95 -42q66 0 98 30t62 109l266 -72q-37 -129 -156 -203q-118 -74 -308 -74t-305 107
q-115 108 -115 298zM296 1367v245h655v-245h-655z" />
    <glyph glyph-name="Ebreve" unicode="&#x114;" 
d="M168 0v1489h882v-245h-547v-324h478v-246h-478v-428h547v-246h-882zM629 1663q-199 0 -295 105t-98 325h257q2 -135 30 -183t106 -48t106 48t30 183h257q-2 -220 -98 -325t-295 -105z" />
    <glyph glyph-name="ebreve" unicode="&#x115;" 
d="M503 734v-66h223v60q0 117 -24 161t-88 44t-87 -42q-24 -42 -24 -157zM168 387v348q0 189 119 295t329 106t327 -108q118 -108 118 -298v-235h-558v-108q0 -111 28 -153t95 -42q66 0 98 30t62 109l266 -72q-37 -129 -156 -203q-118 -74 -308 -74t-305 107
q-115 108 -115 298zM624 1290q-199 0 -295 105t-98 325h257q2 -134 30 -182t106 -48t106 48t30 182h257q-2 -220 -98 -325t-295 -105z" />
    <glyph glyph-name="Edotaccent" unicode="&#x116;" 
d="M832 1799q0 -131 -203 -131q-91 0 -147 29t-56 102v24q0 136 203 136t203 -136v-24zM168 0v1489h882v-245h-547v-324h478v-246h-478v-428h547v-246h-882z" />
    <glyph glyph-name="edotaccent" unicode="&#x117;" 
d="M827 1426q0 -130 -203 -130t-203 130v24q0 138 203 137t203 -137v-24zM503 734v-66h223v60q0 117 -24 161t-88 44t-87 -42q-24 -42 -24 -157zM168 387v348q0 189 119 295t329 106t327 -108q118 -108 118 -298v-235h-558v-108q0 -111 28 -153t95 -42q66 0 98 30t62 109
l266 -72q-37 -129 -156 -203q-118 -74 -308 -74t-305 107q-115 108 -115 298z" />
    <glyph glyph-name="Eogonek" unicode="&#x118;" 
d="M849 -411q-130 1 -200 61t-70 164t65 186h-476v1489h882v-245h-547v-324h478v-246h-478v-428h547v-246h-223q-25 -38 -25 -108q0 -97 108 -97q35 0 136 19v-203q-120 -22 -197 -22z" />
    <glyph glyph-name="eogonek" unicode="&#x119;" 
d="M856 -411q-130 1 -200 61t-70 158t52 174q-17 -1 -35 -1q-205 0 -320 108t-115 298v348q0 189 119 295t329 106t327 -108q118 -108 118 -298v-235h-558v-108q0 -111 28 -153t95 -42q66 0 98 30t62 109l266 -72q-37 -128 -156 -203q-11 -7 -23 -13q-63 -50 -63 -151
q0 -97 108 -97q35 0 136 19v-203q-120 -22 -198 -22zM503 734v-66h223v60q0 117 -24 161t-88 44t-87 -42q-24 -42 -24 -157z" />
    <glyph glyph-name="Ecaron" unicode="&#x11a;" 
d="M503 1683l-267 291l99 143l296 -201l291 203l100 -145l-262 -291h-257zM168 0v1489h882v-245h-547v-324h478v-246h-478v-428h547v-246h-882z" />
    <glyph glyph-name="ecaron" unicode="&#x11b;" 
d="M497 1311l-266 290l99 144l296 -202l290 203l101 -145l-263 -290h-257zM503 734v-66h223v60q0 117 -24 161t-88 44t-87 -42q-24 -42 -24 -157zM168 387v348q0 189 119 295t329 106t327 -108q118 -108 118 -298v-235h-558v-108q0 -111 28 -153t95 -42q66 0 98 30t62 109
l266 -72q-37 -129 -156 -203q-118 -74 -308 -74t-305 107q-115 108 -115 298z" />
    <glyph glyph-name="Gcircumflex" unicode="&#x11c;" horiz-adv-x="1368" 
d="M387 1657l-100 145l262 291h257l266 -291l-98 -143l-296 201zM1190 508q0 -244 -137 -386t-380 -141q-243 -1 -374 129t-131 355v552q0 229 129 360t369 131t364 -109q125 -109 134 -358l-335 -19q-9 144 -42 192t-126 48t-126 -54t-32 -218v-498q0 -160 37 -212t143 -53
t139 61t33 248h-170v246h505v-274z" />
    <glyph glyph-name="gcircumflex" unicode="&#x11d;" horiz-adv-x="1368" 
d="M393 1285l-101 145l263 290h257l266 -290l-99 -143l-296 201zM478 -86q0 -117 79 -117h255q56 0 91 21q35 20 35 86t-38 88t-94 21h-328v-99zM551 735q-1 -69 23 -107t91 -38t92 38t25 107v56q0 140 -116 140t-115 -140v-56zM849 240q352 0 352 -301q0 -151 -90 -241
t-269 -89h-289q-205 0 -295 74q-90 75 -90 179t48 160t112 66v37q-52 19 -91 61q-38 43 -38 136t68 157t154 78v35q-86 26 -136 87t-50 140v17q0 134 105 208t319 73h557v-194l-235 36v-36q50 -19 86 -73q35 -55 35 -122v-19q0 -131 -111 -205t-321 -74h-124
q-110 0 -108 -95q0 -93 96 -95h315z" />
    <glyph glyph-name="Gbreve" unicode="&#x11e;" horiz-adv-x="1368" 
d="M680 1663q-199 0 -296 105q-96 105 -97 325h257q2 -134 29 -183q29 -48 107 -48t106 48t29 183h257q-2 -220 -98 -325t-294 -105zM1190 508q0 -244 -137 -386t-380 -141q-243 -1 -374 129t-131 355v552q0 229 129 360t369 131t364 -109q125 -109 134 -358l-335 -19
q-9 144 -42 192t-126 48t-126 -54t-32 -218v-498q0 -160 37 -212t143 -53t139 61t33 248h-170v246h505v-274z" />
    <glyph glyph-name="gbreve" unicode="&#x11f;" horiz-adv-x="1368" 
d="M685 1290q-199 0 -295 105t-98 325h257q2 -134 30 -182t106 -48t106 48t30 182h257q-2 -220 -98 -325t-295 -105zM478 -86q0 -117 79 -117h255q56 0 91 21q35 20 35 86t-38 88t-94 21h-328v-99zM551 735q-1 -69 23 -107t91 -38t92 38t25 107v56q0 140 -116 140t-115 -140
v-56zM849 240q352 0 352 -301q0 -151 -90 -241t-269 -89h-289q-205 0 -295 74q-90 75 -90 179t48 160t112 66v37q-52 19 -91 61q-38 43 -38 136t68 157t154 78v35q-86 26 -136 87t-50 140v17q0 134 105 208t319 73h557v-194l-235 36v-36q50 -19 86 -73q35 -55 35 -122v-19
q0 -131 -111 -205t-321 -74h-124q-110 0 -108 -95q0 -93 96 -95h315z" />
    <glyph glyph-name="Gdotaccent" unicode="&#x120;" horiz-adv-x="1368" 
d="M883 1799q0 -131 -203 -131q-91 0 -148 29q-56 29 -55 102v24q0 136 203 136t203 -136v-24zM1190 508q0 -244 -137 -386t-380 -141q-243 -1 -374 129t-131 355v552q0 229 129 360t369 131t364 -109q125 -109 134 -358l-335 -19q-9 144 -42 192t-126 48t-126 -54t-32 -218
v-498q0 -160 37 -212t143 -53t139 61t33 248h-170v246h505v-274z" />
    <glyph glyph-name="gdotaccent" unicode="&#x121;" horiz-adv-x="1368" 
d="M888 1426q0 -130 -203 -130t-203 130v24q0 138 203 137t203 -137v-24zM478 -86q0 -117 79 -117h255q56 0 91 21q35 20 35 86t-38 88t-94 21h-328v-99zM551 735q-1 -69 23 -107t91 -38t92 38t25 107v56q0 140 -116 140t-115 -140v-56zM849 240q352 0 352 -301
q0 -151 -90 -241t-269 -89h-289q-205 0 -295 74q-90 75 -90 179t48 160t112 66v37q-52 19 -91 61q-38 43 -38 136t68 157t154 78v35q-86 26 -136 87t-50 140v17q0 134 105 208t319 73h557v-194l-235 36v-36q50 -19 86 -73q35 -55 35 -122v-19q0 -131 -111 -205t-321 -74
h-124q-110 0 -108 -95q0 -93 96 -95h315z" />
    <glyph glyph-name="Gcommaaccent" unicode="&#x122;" horiz-adv-x="1368" 
d="M434 -559l74 373h406l-275 -373h-205zM1190 508q0 -244 -137 -386t-380 -141q-243 -1 -374 129t-131 355v552q0 229 129 360t369 131t364 -109q125 -109 134 -358l-335 -19q-9 144 -42 192t-126 48t-126 -54t-32 -218v-498q0 -160 37 -212t143 -53t139 61t33 248h-170
v246h505v-274z" />
    <glyph glyph-name="gcommaaccent" unicode="&#x123;" horiz-adv-x="1368" 
d="M478 -86q0 -117 79 -117h255q56 0 91 21q35 20 35 86t-38 88t-94 21h-328v-99zM551 735q-1 -69 23 -107t91 -38t92 38t25 107v56q0 140 -116 140t-115 -140v-56zM849 240q352 0 352 -301q0 -151 -90 -241t-269 -89h-289q-205 0 -295 74q-90 75 -90 179t48 160t112 66v37
q-52 19 -91 61q-38 43 -38 136t68 157t154 78v35q-86 26 -136 87t-50 140v17q0 134 105 208t319 73h557v-194l-235 36v-36q50 -19 86 -73q35 -55 35 -122v-19q0 -131 -111 -205t-321 -74h-124q-110 0 -108 -95q0 -93 96 -95h315zM436 1303l275 373h207l-76 -373h-406z" />
    <glyph glyph-name="Hcircumflex" unicode="&#x124;" horiz-adv-x="1368" 
d="M168 0v1489h335v-543h363v543h335v-1489h-335v700h-363v-700h-335zM393 1657l-101 145l263 291h257l266 -291l-99 -143l-296 201z" />
    <glyph glyph-name="hcircumflex" unicode="&#x125;" 
d="M648 888q-84 0 -145 -134v-754h-335v1489h335v-534h41q58 181 276 181q109 0 175 -92t66 -260v-784h-335v739q0 81 -19 115t-59 34zM43 1657l-101 145l263 291h257l266 -291l-99 -143l-296 201z" />
    <glyph glyph-name="Hbar" unicode="&#x126;" horiz-adv-x="1368" 
d="M503 542v-542h-335v1030h-140v206h140v253h335v-253h363v253h335v-253h140v-206h-140v-1030h-335v542h-363zM503 788h363v242h-363v-242z" />
    <glyph glyph-name="hbar" unicode="&#x127;" 
d="M544 836q63 181 277 181q108 0 174 -91.5t66 -258.5v-667h-335v620q0 74 -16.5 111.5t-57.5 37.5q-89 0 -149 -134v-635h-335v1134h-140v175h140v180h335v-180h221v-175h-221v-298h41z" />
    <glyph glyph-name="Itilde" unicode="&#x128;" 
d="M168 0v246h279v998h-279v245h893v-245h-279v-998h279v-246h-893zM786 2024v48h206v-28q0 -162 -64 -256t-172 -94q-112 0 -166 86q-26 42 -45 72q-18 30 -44 28q-56 0 -56 -117v-50h-207v28q0 162 67 257t181 95q92 1 152 -85q30 -42 50 -74q20 -30 44 -29q54 0 54 119z
" />
    <glyph glyph-name="itilde" unicode="&#x129;" horiz-adv-x="754" 
d="M210 0v1117h336v-1117h-336zM495 1532q54 0 54 119v49h207v-28q0 -162 -64 -256t-173 -94q-113 0 -166 85q-27 43 -45 72t-44 29q-57 0 -55 -117v-50h-207v27q0 162 67 257t180 95q94 0 153 -85q30 -43 50 -73t43 -30z" />
    <glyph glyph-name="Imacron" unicode="&#x12a;" 
d="M168 0v246h279v998h-279v245h893v-245h-279v-998h279v-246h-893zM287 1739v246h655v-246h-655z" />
    <glyph glyph-name="imacron" unicode="&#x12b;" horiz-adv-x="754" 
d="M210 0v1117h336v-1117h-336zM50 1367v245h656v-245h-656z" />
    <glyph glyph-name="Ibreve" unicode="&#x12c;" 
d="M168 0v246h279v998h-279v245h893v-245h-279v-998h279v-246h-893zM614 1663q-199 0 -295 105t-97 325h256q2 -135 30 -183t106 -48t107 48q28 48 29 183h257q-2 -220 -98 -325t-295 -105z" />
    <glyph glyph-name="ibreve" unicode="&#x12d;" horiz-adv-x="754" 
d="M210 0v1117h336v-1117h-336zM378 1290q-199 0 -295 105t-98 325h257q2 -134 30 -182t106 -48t106 48t30 182h257q-2 -220 -98 -325t-295 -105z" />
    <glyph glyph-name="Iogonek" unicode="&#x12e;" 
d="M706 -96q0 -109 95 -109q45 0 149 19v-203q-129 -24 -198 -22q-130 1 -200 61t-70 164t65 186h-379v246h279v998h-279v245h893v-245h-279v-998h279v-246h-331q-24 -36 -24 -96z" />
    <glyph glyph-name="iogonek" unicode="&#x12f;" horiz-adv-x="754" 
d="M581 1426q0 -130 -203 -130t-203 130v24q0 138 203 137t203 -137v-24zM389 -411q-130 1 -200 61t-70 170t91 210v1087h336v-1117h-179q-25 -38 -25 -97q1 -59 26 -83t71 -25q46 0 147 19v-203q-120 -22 -197 -22z" />
    <glyph glyph-name="Idotaccent" unicode="&#x130;" 
d="M168 0v246h279v998h-279v245h893v-245h-279v-998h279v-246h-893zM614 1959q203 0 203 -136v-24q0 -131 -203 -131q-91 0 -147 29t-56 102v24q0 136 203 136z" />
    <glyph glyph-name="dotlessi" unicode="&#x131;" horiz-adv-x="754" 
d="M210 0v1117h336v-1117h-336z" />
    <glyph glyph-name="IJ" unicode="&#x132;" horiz-adv-x="2401" 
d="M168 0v246h279v998h-279v245h893v-245h-279v-998h279v-246h-893zM2234 484q0 -266 -112 -384t-368 -119q-257 0 -358 114t-111 423l335 20q11 -190 41 -250q29 -60 109 -61q80 0 105 52q24 52 24 218v747h-376v245h711v-1005z" />
    <glyph glyph-name="ij" unicode="&#x133;" horiz-adv-x="1647" 
d="M581 1426q0 -130 -203 -130t-203 130v24q0 138 203 137t203 -137v-24zM210 0v1117h336v-1117h-336zM963 -169q113 0 113 189v864h-220v233h555v-1123q0 -175 -109 -279t-291 -104q-108 0 -216 41l28 216q80 -37 140 -37zM1447 1426q0 -130 -203 -130t-203 130v24
q0 138 203 137t203 -137v-24z" />
    <glyph glyph-name="Jcircumflex" unicode="&#x134;" 
d="M423 1657l-101 145l263 291h257l266 -291l-99 -143l-296 201zM1061 484q1 -266 -111 -384t-369 -119q-257 0 -358 114t-111 423l335 20q11 -190 41 -250t110 -61q80 0 104 52t24 218v747h-376v245h711v-1005z" />
    <glyph glyph-name="jcircumflex" unicode="&#x135;" horiz-adv-x="949" 
d="M264 -169q114 0 114 189v864h-220v233h555v-1123q0 -175 -109 -279t-291 -104q-108 0 -216 41l28 216q80 -37 139 -37zM212 1285l-100 145l262 290h257l266 -290l-98 -143l-296 201z" />
    <glyph glyph-name="Kcommaaccent" unicode="&#x136;" 
d="M503 650v-650h-335v1489h335v-593h59l268 593h365l-370 -685l365 -804h-384l-240 650h-63zM419 -559l74 373h406l-275 -373h-205z" />
    <glyph glyph-name="kcommaaccent" unicode="&#x137;" horiz-adv-x="1089" 
d="M503 471v-471h-335v1489h335v-800h44l172 428h333l-233 -504l229 -613h-352l-149 471h-44zM337 -559l74 373h406l-275 -373h-205z" />
    <glyph glyph-name="kgreenlandic" unicode="&#x138;" horiz-adv-x="1089" 
d="M503 490v-490h-335v1117h335v-410h44l162 410h337l-223 -490l225 -627h-354l-147 490h-44z" />
    <glyph glyph-name="Lacute" unicode="&#x139;" horiz-adv-x="1089" 
d="M132 1676l132 372h406l-331 -372h-207zM168 0v1489h335v-1243h484v-246h-819z" />
    <glyph glyph-name="lacute" unicode="&#x13a;" horiz-adv-x="949" 
d="M188 1676l132 372h406l-331 -372h-207zM238 387v1102h335v-1100q0 -84 20 -122t77 -38t127 39l48 -227q-120 -58 -272 -58q-151 0 -243 106t-92 298z" />
    <glyph glyph-name="Lcommaaccent" unicode="&#x13b;" horiz-adv-x="1089" 
d="M168 0v1489h335v-1243h484v-246h-819zM372 -559l75 373h406l-276 -373h-205z" />
    <glyph glyph-name="lcommaaccent" unicode="&#x13c;" horiz-adv-x="949" 
d="M238 387v1102h335v-1100q0 -84 20 -122t77 -38t127 39l48 -227q-120 -58 -272 -58q-151 0 -243 106t-92 298zM261 -559l74 373h406l-276 -373h-204z" />
    <glyph glyph-name="Lcaron" unicode="&#x13d;" horiz-adv-x="1089" 
d="M635 940l56 549h400l-277 -549h-179zM168 0v1489h335v-1243h484v-246h-819z" />
    <glyph glyph-name="lcaron" unicode="&#x13e;" horiz-adv-x="949" 
d="M706 1313l55 549h401l-278 -549h-178zM238 387v1102h335v-1100q0 -84 20 -122t77 -38t127 39l48 -227q-120 -58 -272 -58q-151 0 -243 106t-92 298z" />
    <glyph glyph-name="Ldot" unicode="&#x13f;" horiz-adv-x="1563" 
d="M1296 855q0 -131 -203 -131q-91 0 -147 29t-56 102v24q0 136 203 136t203 -136v-24zM168 0v1489h335v-1243h484v-246h-819z" />
    <glyph glyph-name="ldot" unicode="&#x140;" horiz-adv-x="1368" 
d="M1059 894q203 0 203 -136v-24q0 -131 -203 -131q-91 0 -147 29t-56 102v24q0 136 203 136zM238 387v1102h335v-1100q0 -84 20 -122t77 -38t127 39l48 -227q-120 -58 -272 -58q-151 0 -243 106t-92 298z" />
    <glyph glyph-name="Lslash" unicode="&#x141;" horiz-adv-x="1089" 
d="M168 0v607l-80 -32v201l80 32v681h335v-549l311 123v-201l-311 -123v-493h484v-246h-819z" />
    <glyph glyph-name="lslash" unicode="&#x142;" horiz-adv-x="949" 
d="M238 387v190l-121 -39v201l121 39v711h335v-599l202 67v-201l-202 -67v-300q0 -84 20 -122t77 -38t127 39l48 -227q-120 -58 -272 -58q-151 0 -243 106t-92 298z" />
    <glyph glyph-name="Nacute" unicode="&#x143;" horiz-adv-x="1368" 
d="M553 1676l132 372h406l-331 -372h-207zM447 0h-279v1489h446l308 -977v977h279v-1489h-436l-318 1082v-1082z" />
    <glyph glyph-name="nacute" unicode="&#x144;" 
d="M443 1303l132 373h406l-331 -373h-207zM652 888q-90 0 -149 -134v-754h-335v1117h335v-162h41q63 181 277 181q108 0 174 -92t66 -260v-784h-335v739q0 77 -17 113t-57 36z" />
    <glyph glyph-name="Ncommaaccent" unicode="&#x145;" horiz-adv-x="1368" 
d="M372 -559l75 373h406l-276 -373h-205zM447 0h-279v1489h446l308 -977v977h279v-1489h-436l-318 1082v-1082z" />
    <glyph glyph-name="ncommaaccent" unicode="&#x146;" 
d="M369 -559l74 373h406l-276 -373h-204zM652 888q-90 0 -149 -134v-754h-335v1117h335v-162h41q63 181 277 181q108 0 174 -92t66 -260v-784h-335v739q0 77 -17 113t-57 36z" />
    <glyph glyph-name="Ncaron" unicode="&#x147;" horiz-adv-x="1368" 
d="M626 1683l-267 291l99 143l296 -201l290 203l101 -145l-262 -291h-257zM447 0h-279v1489h446l308 -977v977h279v-1489h-436l-318 1082v-1082z" />
    <glyph glyph-name="ncaron" unicode="&#x148;" 
d="M516 1311l-267 290l99 144l296 -202l291 203l100 -145l-262 -290h-257zM652 888q-90 0 -149 -134v-754h-335v1117h335v-162h41q63 181 277 181q108 0 174 -92t66 -260v-784h-335v739q0 77 -17 113t-57 36z" />
    <glyph glyph-name="napostrophe" unicode="&#x149;" horiz-adv-x="1033" 
d="M-32 1303l133 373h405l-331 -373h-207zM652 888q-90 0 -149 -134v-754h-335v1117h335v-162h41q63 181 277 181q108 0 174 -92t66 -260v-784h-335v739q0 77 -17 113t-57 36z" />
    <glyph glyph-name="Eng" unicode="&#x14a;" horiz-adv-x="1368" 
d="M750 -168q116 0 116 183v1063q0 80 -33.5 131t-91.5 51t-120 -54.5t-118 -166.5v-1039h-335v1489h335v-249h41q41 127 133 197.5t225 70.5t216 -104t83 -289v-1130q0 -195 -125.5 -284.5t-260.5 -89.5t-236 46l28 218q84 -43 143 -43z" />
    <glyph glyph-name="eng" unicode="&#x14b;" 
d="M544 955q63 181 277 181q108 0 174 -92.5t66 -259.5v-790q0 -201 -118.5 -292t-261.5 -91q-96 0 -197 41l28 218q78 -38 121 -38q93 0 93 192v715q0 76 -16.5 112.5t-57.5 36.5q-89 0 -149 -134v-754h-335v1117h335v-162h41z" />
    <glyph glyph-name="Omacron" unicode="&#x14c;" horiz-adv-x="1368" 
d="M357 1739v246h656v-246h-656zM685 227q106 0 144 55q37 55 37 210v498q0 158 -37 216t-143 56q-106 0 -145 -56q-38 -56 -38 -216v-498q0 -155 38 -210t144 -55zM1201 465q0 -225 -134 -355q-135 -130 -383 -129q-248 -1 -382 129t-134 355v552q0 229 135 360t383 131
t382 -131t133 -360v-552z" />
    <glyph glyph-name="omacron" unicode="&#x14d;" 
d="M287 1367v245h655v-245h-655zM614 214q63 0 88 39q24 39 24 134v350q0 91 -24 129t-88 37q-64 0 -87 -37q-24 -37 -24 -132v-347q0 -95 24 -134t87 -39zM614 -19q-206 1 -326 107t-120 286v363q0 183 122 291t326 108t325 -107q120 -107 120 -292v-363q0 -181 -121 -287
t-326 -106z" />
    <glyph glyph-name="Obreve" unicode="&#x14e;" horiz-adv-x="1368" 
d="M685 1663q-199 0 -295 105t-98 325h257q2 -135 30 -183t106 -48t106 48t30 183h257q-2 -220 -98 -325t-295 -105zM685 227q106 0 144 55q37 55 37 210v498q0 158 -37 216t-143 56q-106 0 -145 -56q-38 -56 -38 -216v-498q0 -155 38 -210t144 -55zM1201 465
q0 -225 -134 -355q-135 -130 -383 -129q-248 -1 -382 129t-134 355v552q0 229 135 360t383 131t382 -131t133 -360v-552z" />
    <glyph glyph-name="obreve" unicode="&#x14f;" 
d="M614 1290q-199 0 -295 105t-97 325h256q2 -134 30 -182t106 -48t106 48t30 182h257q-2 -220 -98 -325t-295 -105zM614 214q63 0 88 39q24 39 24 134v350q0 91 -24 129t-88 37q-64 0 -87 -37q-24 -37 -24 -132v-347q0 -95 24 -134t87 -39zM614 -19q-206 1 -326 107
t-120 286v363q0 183 122 291t326 108t325 -107q120 -107 120 -292v-363q0 -181 -121 -287t-326 -106z" />
    <glyph glyph-name="Ohungarumlaut" unicode="&#x150;" horiz-adv-x="1368" 
d="M391 1676l60 372h294l-196 -372h-158zM713 1676l60 372h292l-194 -372h-158zM685 227q106 0 144 55q37 55 37 210v498q0 158 -37 216t-143 56q-106 0 -145 -56q-38 -56 -38 -216v-498q0 -155 38 -210t144 -55zM1201 465q0 -225 -134 -355q-135 -130 -383 -129
q-248 -1 -382 129t-134 355v552q0 229 135 360t383 131t382 -131t133 -360v-552z" />
    <glyph glyph-name="ohungarumlaut" unicode="&#x151;" 
d="M320 1303l60 373h294l-196 -373h-158zM642 1303l60 373h292l-193 -373h-159zM614 214q63 0 88 39q24 39 24 134v350q0 91 -24 129t-88 37q-64 0 -87 -37q-24 -37 -24 -132v-347q0 -95 24 -134t87 -39zM614 -19q-206 1 -326 107t-120 286v363q0 183 122 291t326 108
t325 -107q120 -107 120 -292v-363q0 -181 -121 -287t-326 -106z" />
    <glyph glyph-name="OE" unicode="&#x152;" horiz-adv-x="1843" 
d="M685 246h140v998h-140q-106 0 -144 -59t-38 -221v-435q0 -166 38 -224.5t144 -58.5zM642 0q-222 0 -348 137t-126 366v487q0 227 126.5 363t351.5 136h1018v-245h-504v-324h436v-246h-436v-428h504v-246h-1022z" />
    <glyph glyph-name="oe" unicode="&#x153;" horiz-adv-x="1647" 
d="M579 214q47 0 62.5 40t15.5 133v350q0 82 -15.5 124t-62.5 42t-61.5 -43t-14.5 -126v-347q0 -93 14.5 -133t61.5 -40zM992 752v-84h153v67q0 106 -12 152t-65 46t-64.5 -43t-11.5 -138zM1480 719v-224h-488v-124q0 -91 22 -135t82 -44t87 28t44 97l251 -38
q-45 -171 -137 -234.5t-253 -63.5t-263 114q-102 -114 -269 -114q-166 0 -277 103.5t-111 319.5v302q0 218 111.5 324t275.5 106t268 -116q103 116 273 116t277 -102.5t107 -314.5z" />
    <glyph glyph-name="Racute" unicode="&#x154;" horiz-adv-x="1368" 
d="M503 1676l132 372h406l-332 -372h-206zM1162 955q0 -304 -233 -387l285 -568h-382l-268 538h-61v-538h-335v1489h562q212 0 322 -103t110 -302v-129zM503 782h193q63 0 97 34t34 141v115q0 106 -34 139t-97 33h-193v-462z" />
    <glyph glyph-name="racute" unicode="&#x155;" horiz-adv-x="1089" 
d="M372 1303l133 373h405l-331 -373h-207zM168 0v1117h335v-162h41q26 95 87 138t130 43q129 0 183 -83t54 -228v-201h-302v151q0 53 -13 83t-52 30q-81 0 -128 -127v-761h-335z" />
    <glyph glyph-name="Rcommaaccent" unicode="&#x156;" horiz-adv-x="1368" 
d="M1162 955q0 -304 -233 -387l285 -568h-382l-268 538h-61v-538h-335v1489h562q212 0 322 -103t110 -302v-129zM503 782h193q63 0 97 34t34 141v115q0 106 -34 139t-97 33h-193v-462zM398 -559l75 373h406l-276 -373h-205z" />
    <glyph glyph-name="rcommaaccent" unicode="&#x157;" horiz-adv-x="1089" 
d="M168 0v1117h335v-162h41q26 95 87 138t130 43q129 0 183 -83t54 -228v-201h-302v151q0 53 -13 83t-52 30q-81 0 -128 -127v-761h-335zM80 -559l75 373h405l-275 -373h-205z" />
    <glyph glyph-name="Rcaron" unicode="&#x158;" horiz-adv-x="1368" 
d="M501 1683l-266 291l98 143l296 -201l291 203l100 -145l-262 -291h-257zM1162 955q0 -304 -233 -387l285 -568h-382l-268 538h-61v-538h-335v1489h562q212 0 322 -103t110 -302v-129zM503 782h193q63 0 97 34t34 141v115q0 106 -34 139t-97 33h-193v-462z" />
    <glyph glyph-name="rcaron" unicode="&#x159;" horiz-adv-x="1089" 
d="M445 1311l-266 290l98 144l296 -202l291 203l100 -145l-262 -290h-257zM168 0v1117h335v-162h41q26 95 87 138t130 43q129 0 183 -83t54 -228v-201h-302v151q0 53 -13 83t-52 30q-81 0 -128 -127v-761h-335z" />
    <glyph glyph-name="Sacute" unicode="&#x15a;" horiz-adv-x="1368" 
d="M505 1096q0 -80 51 -120q51 -39 202 -84q229 -67 339 -166q109 -98 109 -290t-135 -322t-388 -131q-253 0 -508 140l52 255q239 -149 467 -149q89 0 134 46q44 46 44 124t-61 119q-61 40 -231 88t-289 143q-118 95 -118 293t135 330t383 132t437 -128l-35 -242
q-219 130 -402 128q-86 0 -136 -43t-50 -123zM480 1676l133 372h405l-331 -372h-207z" />
    <glyph glyph-name="sacute" unicode="&#x15b;" 
d="M1069 334q0 -156 -117 -252t-339 -95q-133 0 -253 44t-200 101l62 199q228 -134 400 -136q134 0 132 97q0 60 -51 82t-187 62t-232 112t-96 234t107 258t295 96q125 0 234 -38t178 -83l-43 -190q-186 102 -322 102t-134 -100q0 -58 55 -87q54 -29 202 -71t229 -110
q80 -69 80 -225zM411 1303l133 373h406l-332 -373h-207z" />
    <glyph glyph-name="Scircumflex" unicode="&#x15c;" horiz-adv-x="1368" 
d="M387 1657l-100 145l262 291h257l266 -291l-98 -143l-296 201zM505 1096q0 -80 51 -120q51 -39 202 -84q229 -67 339 -166q109 -98 109 -290t-135 -322t-388 -131q-253 0 -508 140l52 255q239 -149 467 -149q89 0 134 46q44 46 44 124t-61 119q-61 40 -231 88t-289 143
q-118 95 -118 293t135 330t383 132t437 -128l-35 -242q-219 130 -402 128q-86 0 -136 -43t-50 -123z" />
    <glyph glyph-name="scircumflex" unicode="&#x15d;" 
d="M318 1285l-100 145l262 290h257l267 -290l-99 -143l-296 201zM1069 334q0 -156 -117 -252t-339 -95q-133 0 -253 44t-200 101l62 199q228 -134 400 -136q134 0 132 97q0 60 -51 82t-187 62t-232 112t-96 234t107 258t295 96q125 0 234 -38t178 -83l-43 -190
q-186 102 -322 102t-134 -100q0 -58 55 -87q54 -29 202 -71t229 -110q80 -69 80 -225z" />
    <glyph glyph-name="Scedilla" unicode="&#x15e;" horiz-adv-x="1368" 
d="M694 229q89 0 134 46q44 46 44 124t-61 119q-61 40 -231 88t-289 143q-118 95 -118 293t135 330t383 132t437 -128l-35 -242q-219 130 -402 128q-86 0 -136 -43t-50 -123t51 -120q51 -39 202 -84q229 -67 339 -166q109 -98 109 -290t-135 -322q-72 -70 -181 -103
q85 -57 85 -176q1 -120 -87 -185t-252 -65q-163 0 -254 61t-97 175l279 19q2 -35 15 -49t45 -14t52 20q19 20 18 90t-28 96q-239 2 -491 140l52 255q239 -149 467 -149z" />
    <glyph glyph-name="scedilla" unicode="&#x15f;" 
d="M188 782q0 162 107 258t295 96q125 0 234 -38t178 -83l-43 -190q-186 102 -322 102t-134 -100q0 -58 55 -87q54 -29 202 -71t229 -110q80 -69 80 -225t-118 -251q-55 -45 -134 -69q89 -56 89 -177q0 -122 -88 -187t-251 -65t-254 61t-97 175l279 19q2 -35 15 -49
q14 -14 46 -14t51 20t19 93t-34 97q-124 3 -238 45t-194 100l62 199q228 -134 400 -136q134 0 132 97q0 60 -51 82t-187 62t-232 112t-96 234z" />
    <glyph glyph-name="Scaron" unicode="&#x160;" horiz-adv-x="1368" 
d="M553 1683l-266 291l98 143l296 -201l291 203l100 -145l-262 -291h-257zM505 1096q0 -80 51 -120q51 -39 202 -84q229 -67 339 -166q109 -98 109 -290t-135 -322t-388 -131q-253 0 -508 140l52 255q239 -149 467 -149q89 0 134 46q44 46 44 124t-61 119q-61 40 -231 88
t-289 143q-118 95 -118 293t135 330t383 132t437 -128l-35 -242q-219 130 -402 128q-86 0 -136 -43t-50 -123z" />
    <glyph glyph-name="scaron" unicode="&#x161;" 
d="M484 1311l-266 290l99 144l296 -202l290 203l101 -145l-263 -290h-257zM1069 334q0 -156 -117 -252t-339 -95q-133 0 -253 44t-200 101l62 199q228 -134 400 -136q134 0 132 97q0 60 -51 82t-187 62t-232 112t-96 234t107 258t295 96q125 0 234 -38t178 -83l-43 -190
q-186 102 -322 102t-134 -100q0 -58 55 -87q54 -29 202 -71t229 -110q80 -69 80 -225z" />
    <glyph glyph-name="Tcedilla" unicode="&#x162;" 
d="M578 -415q-163 0 -254 61t-97 175l279 19q2 -35 15 -49t45 -14t52 20q19 20 19 78t-11 85t-47 40h-132v1244h-348v245h1033v-245h-350v-1206q135 -56 136 -204q0 -119 -88 -184t-252 -65z" />
    <glyph glyph-name="tcedilla" unicode="&#x163;" horiz-adv-x="1089" 
d="M761 216q57 0 135 37l27 -227q-31 -19 -63 -26t-35 -7q63 -58 63 -168t-88 -175t-252 -65t-254 61q-91 61 -97 175l280 19q2 -35 15 -49t45 -14t51 20t19 78q-1 58 -11 83t-38 38q-251 59 -251 348v540h-167v233h167v372h335v-372h268v-233h-268v-504q0 -164 119 -164z
" />
    <glyph glyph-name="Tcaron" unicode="&#x164;" 
d="M488 1683l-266 291l98 143l296 -201l291 203l100 -145l-262 -291h-257zM447 0v1244h-348v245h1033v-245h-350v-1244h-335z" />
    <glyph glyph-name="tcaron" unicode="&#x165;" horiz-adv-x="1089" 
d="M782 1313l56 549h400l-277 -549h-179zM307 344v540h-167v233h167v372h335v-372h268v-233h-268v-504q0 -164 119 -164q57 0 135 37l27 -227q-71 -45 -219 -45q-397 0 -397 363z" />
    <glyph glyph-name="Tbar" unicode="&#x166;" 
d="M447 0v551h-279v207h279v486h-348v245h1033v-245h-350v-486h279v-207h-279v-551h-335z" />
    <glyph glyph-name="tbar" unicode="&#x167;" horiz-adv-x="1089" 
d="M307 344v138h-167v207h167v195h-167v233h167v372h335v-372h268v-233h-268v-195h268v-207h-268v-102q0 -164 119 -164q53 0 135 37l27 -227q-71 -45 -219 -45q-397 0 -397 363z" />
    <glyph glyph-name="Utilde" unicode="&#x168;" horiz-adv-x="1368" 
d="M684 -19q-267 0 -392 120t-124 377v1011h335v-996q0 -143 40 -198q39 -55 141 -55t142 55t40 198v996h335v-1011q0 -257 -125 -377t-392 -120zM856 2024v48h207v-28q0 -162 -64 -256t-172 -94q-113 0 -167 86q-27 42 -45 72t-43 28q-56 0 -56 -117v-50h-207v28
q0 162 67 257t181 95q92 1 152 -85q30 -42 50 -74q20 -30 43 -29q54 0 54 119z" />
    <glyph glyph-name="utilde" unicode="&#x169;" 
d="M577 229q90 0 149 134v754h335v-1117h-335v162h-41q-30 -86 -99 -134t-162 -47q-124 1 -190 93t-66 259v784h335v-739q0 -76 16 -113q17 -36 58 -36zM732 1532q54 0 54 119v49h206v-28q0 -162 -64 -256t-172 -94q-114 0 -166 85q-26 43 -45 72q-18 29 -44 29
q-56 0 -56 -117v-50h-207v27q0 162 67 257t181 95q93 0 152 -85q30 -43 50 -73t44 -30z" />
    <glyph glyph-name="Umacron" unicode="&#x16a;" horiz-adv-x="1368" 
d="M684 -19q-267 0 -392 120t-124 377v1011h335v-996q0 -143 40 -198q39 -55 141 -55t142 55t40 198v996h335v-1011q0 -257 -125 -377t-392 -120zM357 1739v246h656v-246h-656z" />
    <glyph glyph-name="umacron" unicode="&#x16b;" 
d="M577 229q90 0 149 134v754h335v-1117h-335v162h-41q-30 -86 -99 -134t-162 -47q-124 1 -190 93t-66 259v784h335v-739q0 -76 16 -113q17 -36 58 -36zM287 1367v245h655v-245h-655z" />
    <glyph glyph-name="Ubreve" unicode="&#x16c;" horiz-adv-x="1368" 
d="M684 -19q-267 0 -392 120t-124 377v1011h335v-996q0 -143 40 -198q39 -55 141 -55t142 55t40 198v996h335v-1011q0 -257 -125 -377t-392 -120zM685 1663q-199 0 -295 105t-98 325h257q2 -135 30 -183t106 -48t106 48t30 183h257q-2 -220 -98 -325t-295 -105z" />
    <glyph glyph-name="ubreve" unicode="&#x16d;" 
d="M577 229q90 0 149 134v754h335v-1117h-335v162h-41q-30 -86 -99 -134t-162 -47q-124 1 -190 93t-66 259v784h335v-739q0 -76 16 -113q17 -36 58 -36zM614 1290q-199 0 -295 105t-97 325h256q2 -134 30 -182t106 -48t106 48t30 182h257q-2 -220 -98 -325t-295 -105z" />
    <glyph glyph-name="Uring" unicode="&#x16e;" horiz-adv-x="1368" 
d="M684 -19q-267 0 -392 120t-124 377v1011h335v-996q0 -143 40 -198q39 -55 141 -55t142 55t40 198v996h335v-1011q0 -257 -125 -377t-392 -120zM685 2108q-95 0 -95 -131v-59q0 -69 24 -97t71 -28t71 28t24 97v59q0 131 -95 131zM685 1635q-145 0 -234 69q-88 69 -88 214
v59q0 145 88 217q87 72 233 72t234 -72t89 -217v-59q-1 -145 -89 -214t-233 -69z" />
    <glyph glyph-name="uring" unicode="&#x16f;" 
d="M577 229q90 0 149 134v754h335v-1117h-335v162h-41q-30 -86 -99 -134t-162 -47q-124 1 -190 93t-66 259v784h335v-739q0 -76 16 -113q17 -36 58 -36zM519 1545q0 -69 24 -97t71 -27q47 -1 71 27t24 97v60q0 132 -95 130q-93 0 -95 -130v-60zM614 1262q-145 0 -233 69
t-89 214v60q0 145 88 217t234 72q145 0 234 -72q88 -72 88 -217v-60q0 -145 -88 -214t-234 -69z" />
    <glyph glyph-name="Uhungarumlaut" unicode="&#x170;" horiz-adv-x="1368" 
d="M391 1676l60 372h294l-196 -372h-158zM713 1676l60 372h292l-194 -372h-158zM684 -19q-267 0 -392 120t-124 377v1011h335v-996q0 -143 40 -198q39 -55 141 -55t142 55t40 198v996h335v-1011q0 -257 -125 -377t-392 -120z" />
    <glyph glyph-name="uhungarumlaut" unicode="&#x171;" 
d="M320 1303l60 373h294l-196 -373h-158zM642 1303l60 373h292l-193 -373h-159zM577 229q90 0 149 134v754h335v-1117h-335v162h-41q-30 -86 -99 -134t-162 -47q-124 1 -190 93t-66 259v784h335v-739q0 -76 16 -113q17 -36 58 -36z" />
    <glyph glyph-name="Uogonek" unicode="&#x172;" horiz-adv-x="1368" 
d="M750 -103q0 -102 96 -102q46 0 148 19v-203q-120 -22 -197 -22q-130 1 -200 61t-70 160t55 176q-190 19 -290 115q-125 120 -124 377v1011h335v-996q0 -143 40 -198q39 -55 141 -55t142 55t40 198v996h335v-1011q0 -257 -125 -377q-105 -101 -309 -117q-17 -34 -17 -87z
" />
    <glyph glyph-name="uogonek" unicode="&#x173;" 
d="M646 -185q0 105 69 190q5 7 11 13v144h-41q-63 -180 -277 -180q-108 0 -174 92t-66 259v784h335v-739q0 -76 16 -113q17 -36 58 -36q90 0 149 134v754h335v-1117h-167q-25 -38 -25 -108q0 -97 108 -97q35 0 136 19v-203q-120 -22 -197 -22q-130 1 -200 61t-70 165z" />
    <glyph glyph-name="Wcircumflex" unicode="&#x174;" horiz-adv-x="1703" 
d="M560 1657l-100 145l262 291h257l267 -291l-99 -143l-296 201zM992 0l-136 817l-145 -817h-352l-234 1489h313l147 -1025l117 789h316l140 -784l143 1020h278l-237 -1489h-350z" />
    <glyph glyph-name="wcircumflex" unicode="&#x175;" horiz-adv-x="1508" 
d="M462 1285l-101 145l263 290h257l266 -290l-99 -143l-296 201zM881 0l-116 648l-113 -648h-365l-185 1117h283l123 -812l116 626h273l129 -624l115 810h265l-187 -1117h-338z" />
    <glyph glyph-name="Ycircumflex" unicode="&#x176;" 
d="M782 0h-335v559l-408 930h346l235 -660l244 660h326l-408 -930v-559zM322 1657l-100 145l262 291h257l266 -291l-98 -143l-296 201z" />
    <glyph glyph-name="ycircumflex" unicode="&#x177;" horiz-adv-x="1089" 
d="M378 -393q-107 0 -294 22l11 233q154 -21 208 -20q123 0 167 49t59 139l3 22h-251l-220 1065h323l175 -916l154 916h313l-196 -1104q-38 -210 -148 -308t-304 -98zM251 1285l-100 145l262 290h257l266 -290l-98 -143l-296 201z" />
    <glyph glyph-name="Ydieresis" unicode="&#x178;" 
d="M782 0h-335v559l-408 930h346l235 -660l244 660h326l-408 -930v-559zM959 1799q-1 -131 -155 -131t-154 131v24q0 136 154 136t155 -136v-24zM579 1799q-1 -131 -155 -131t-154 131v24q0 136 154 136t155 -136v-24z" />
    <glyph glyph-name="Zacute" unicode="&#x179;" horiz-adv-x="1368" 
d="M486 1676l132 372h406l-331 -372h-207zM1182 0h-994v246l590 998h-590v245h994v-245l-627 -998h627v-246z" />
    <glyph glyph-name="zacute" unicode="&#x17a;" 
d="M415 1303l132 373h406l-331 -373h-207zM1033 0h-838v233l498 651h-498v233h838v-233l-465 -651h465v-233z" />
    <glyph glyph-name="Zdotaccent" unicode="&#x17b;" horiz-adv-x="1368" 
d="M1182 0h-994v246l590 998h-590v245h994v-245l-627 -998h627v-246zM888 1799q0 -131 -203 -131q-91 0 -147 29t-56 102v24q0 136 203 136t203 -136v-24z" />
    <glyph glyph-name="zdotaccent" unicode="&#x17c;" 
d="M411 1450q0 138 203 137t203 -137v-24q0 -74 -57 -102t-146 -28q-203 0 -203 130v24zM1033 0h-838v233l498 651h-498v233h838v-233l-465 -651h465v-233z" />
    <glyph glyph-name="Zcaron" unicode="&#x17d;" horiz-adv-x="1368" 
d="M559 1683l-267 291l99 143l296 -201l290 203l101 -145l-263 -291h-256zM1182 0h-994v246l590 998h-590v245h994v-245l-627 -998h627v-246z" />
    <glyph glyph-name="zcaron" unicode="&#x17e;" 
d="M488 1311l-266 290l98 144l296 -202l291 203l100 -145l-262 -290h-257zM1033 0h-838v233l498 651h-498v233h838v-233l-465 -651h465v-233z" />
    <glyph glyph-name="longs" unicode="&#x17f;" horiz-adv-x="949" 
d="M763 1326q-121 0 -121 -168v-1158h-335v884h-167v233h167v63q0 171 110 268t302 97q97 0 216 -44l-28 -211q-100 36 -144 36z" />
    <glyph glyph-name="florin" unicode="&#x192;" 
d="M897 1326q-115 0 -115 -183v-173h268v-233h-268v-381q0 -170 -110 -268q-111 -97 -303 -97q-112 0 -205 43l28 212q80 -36 138 -36q115 0 115 183v344h-272v233h274v210q0 170 110 268q111 97 301 97q112 0 205 -43l-28 -212q-80 36 -138 36z" />
    <glyph glyph-name="Aringacute" unicode="&#x1fa;" horiz-adv-x="1172" 
d="M771 0l-62 363h-279l-61 -363h-304l294 1489h458l291 -1489h-337zM668 609l-96 586l-101 -586h197zM681 1977q-1 131 -95 131t-94 -131v-59q0 -69 24 -97t70 -28q47 0 71 28t24 97v59zM586 1635q-145 0 -233 69t-89 214v59q0 210 189 270l128 360h406l-310 -349
q84 -16 143 -64q88 -72 89 -217v-59q0 -145 -89 -214t-234 -69z" />
    <glyph glyph-name="aringacute" unicode="&#x1fb;" horiz-adv-x="1368" 
d="M503 -19q-149 0 -232 86q-83 85 -83 239t90 236t251 82h218v160q0 136 -120 136q-57 0 -85 -36t-47 -139l-286 46q66 345 458 345q205 0 310 -82t105 -266v-444q0 -88 44 -108t123 -5v-225q-128 -30 -228 -5t-135 148h-48q-128 -168 -335 -168zM597 186q91 0 150 65v200
h-164q-75 -1 -76 -133t90 -132zM553 1605v-60q0 -69 24 -97t71 -27q47 -1 71 27t24 97v60q0 132 -95 130q-95 0 -95 -130zM648 1262q-145 0 -234 69q-88 69 -88 214v60q0 145 88 217q50 41 119 58l126 354h406l-313 -351q75 -17 130 -61q88 -72 88 -217v-60q0 -145 -88 -214
t-234 -69z" />
    <glyph glyph-name="AEacute" unicode="&#x1fc;" horiz-adv-x="1843" 
d="M739 1676l132 372h406l-331 -372h-207zM830 363h-383l-90 -363h-292l412 1489h1187v-245h-499v-324h431v-246h-431v-428h499v-246h-834v363zM830 609v635h-163l-159 -635h322z" />
    <glyph glyph-name="aeacute" unicode="&#x1fd;" horiz-adv-x="1647" 
d="M624 1303l132 373h406l-332 -373h-206zM551 186q59 0 125 73v192h-95q-53 0 -75 -32q-22 -31 -22 -103t16 -101t51 -29zM1011 752v-84h154v67q0 106 -13 152t-65 46t-64 -43t-12 -138zM168 294q0 164 103 247t297 83h108v149q0 137 -76 137q-41 0 -62 -30
q-20 -31 -43 -124l-305 46q35 174 121 254t277 80t270 -114q98 114 265 114t262 -112t95 -305v-224h-469v-169q0 -52 22 -93q21 -41 77 -41t80 28t35 97l253 -38q-46 -171 -140 -234t-228 -64q-218 0 -300 168h-41q-101 -166 -294 -168q-117 0 -212 74q-95 75 -95 239z" />
    <glyph glyph-name="Oslashacute" unicode="&#x1fe;" horiz-adv-x="1368" 
d="M1201 1017v-552q0 -225 -134 -355t-382 -129q-60 0 -108 8l-58 -175h-217l82 236q-218 119 -216 415v552q0 229 135 360t382 131l117 -7l58 175h218l-78 -246q201 -124 201 -413zM685 227q104 0 143 56q38 56 38 209v545l-227 -808q11 -2 22 -2h24zM685 1262
q-106 0 -144 -58t-38 -214v-498q0 -74 7 -116l233 881q-32 5 -58 5zM486 1676l132 372h406l-331 -372h-207z" />
    <glyph glyph-name="oslashacute" unicode="&#x1ff;" 
d="M1061 706v-302q1 -199 -117 -311t-330 -112q-45 0 -115 10l-75 -177h-178l95 234q-175 108 -173 356v302q0 206 118 318t330 112q61 0 118 -11l70 178h179l-93 -236q171 -106 171 -361zM614 201q86 -1 119 47t32 176v276q0 70 -9 110l-201 -601q26 -8 59 -8zM614 916
q-86 0 -118 -47t-32 -173v-272q0 -65 9 -119l210 602q-29 9 -69 9zM415 1303l132 373h406l-331 -373h-207z" />
    <glyph glyph-name="Scommaaccent" unicode="&#x218;" horiz-adv-x="1368" 
d="M505 1096q0 -80 51 -120q51 -39 202 -84q229 -67 339 -166q109 -98 109 -290t-135 -322t-388 -131q-253 0 -508 140l52 255q239 -149 467 -149q89 0 134 46q44 46 44 124t-61 119q-61 40 -231 88t-289 143q-118 95 -118 293t135 330t383 132t437 -128l-35 -242
q-219 130 -402 128q-86 0 -136 -43t-50 -123zM372 -559l75 373h406l-276 -373h-205z" />
    <glyph glyph-name="scommaaccent" unicode="&#x219;" 
d="M1069 334q0 -156 -117 -252t-339 -95q-133 0 -253 44t-200 101l62 199q228 -134 400 -136q134 0 132 97q0 60 -51 82t-187 62t-232 112t-96 234t107 258t295 96q125 0 234 -38t178 -83l-43 -190q-186 102 -322 102t-134 -100q0 -58 55 -87q54 -29 202 -71t229 -110
q80 -69 80 -225zM294 -559l75 373h406l-276 -373h-205z" />
    <glyph glyph-name="Tcommaaccent" unicode="&#x21a;" 
d="M447 0v1244h-348v245h1033v-245h-350v-1244h-335zM322 -559l75 373h405l-275 -373h-205z" />
    <glyph glyph-name="tcommaaccent" unicode="&#x21b;" horiz-adv-x="1089" 
d="M307 344v540h-167v233h167v372h335v-372h268v-233h-268v-504q0 -164 119 -164q57 0 135 37l27 -227q-71 -45 -219 -45q-397 0 -397 363zM357 -559l75 373h406l-276 -373h-205z" />
    <glyph glyph-name="dotlessj" unicode="&#xf6be;" horiz-adv-x="949" 
d="M264 -169q114 0 114 189v864h-220v233h555v-1123q0 -175 -109 -279t-291 -104q-108 0 -216 41l28 216q80 -37 139 -37z" />
    <glyph glyph-name="dotlessj" unicode="&#x237;" horiz-adv-x="949" 
d="M264 -169q114 0 114 189v864h-220v233h555v-1123q0 -175 -109 -279t-291 -104q-108 0 -216 41l28 216q80 -37 139 -37z" />
    <glyph glyph-name="quoteleft" unicode="&#x2018;" horiz-adv-x="1033" 
d="M227 680l365 809h201l-125 -809h-441z" />
    <glyph glyph-name="quoteleft" unicode="&#x2bb;" horiz-adv-x="1033" 
d="M227 680l365 809h201l-125 -809h-441z" />
    <glyph glyph-name="circumflex" unicode="&#x2c6;" horiz-adv-x="1033" 
d="M225 1285l-100 145l262 290h257l266 -290l-98 -143l-296 201z" />
    <glyph glyph-name="caron" unicode="&#x2c7;" horiz-adv-x="1033" 
d="M391 1311l-266 290l98 144l296 -202l291 203l100 -145l-262 -290h-257z" />
    <glyph glyph-name="breve" unicode="&#x2d8;" horiz-adv-x="1033" 
d="M518 1290q-199 0 -296 105q-96 105 -97 325h257q2 -134 30 -182t106 -48t106 48t29 182h257q-2 -220 -98 -325t-294 -105z" />
    <glyph glyph-name="dotaccent" unicode="&#x2d9;" horiz-adv-x="1033" 
d="M721 1426q0 -130 -203 -130t-203 130v24q0 138 203 137t203 -137v-24z" />
    <glyph glyph-name="ring" unicode="&#x2da;" horiz-adv-x="1033" 
d="M423 1605v-60q0 -69 24 -97t71 -27q46 -1 70 27t25 97v60q0 132 -95 130q-95 0 -95 -130zM518 1262q-145 0 -234 69q-88 69 -89 214v60q1 145 89 217t234 72t233 -72q88 -72 89 -217v-60q0 -145 -88 -214t-234 -69z" />
    <glyph glyph-name="ogonek" unicode="&#x2db;" horiz-adv-x="1033" 
d="M471 -108q0 -97 108 -97q35 0 136 19v-203q-120 -22 -197 -22q-130 0 -201 60q-69 61 -69 166t69 190t180 122l37 -84q-63 -48 -63 -151z" />
    <glyph glyph-name="tilde" unicode="&#x2dc;" horiz-adv-x="1033" 
d="M635 1532q54 0 54 119v49h207v-28q0 -162 -64 -256t-173 -94q-115 0 -167 85q-26 43 -44 72t-44 29q-56 0 -56 -117v-50h-207v27q-1 162 67 257t181 95q95 0 153 -85q30 -43 49 -73q20 -30 44 -30z" />
    <glyph glyph-name="hungarumlaut" unicode="&#x2dd;" horiz-adv-x="1033" 
d="M223 1303l60 373h294l-195 -373h-159zM546 1303l59 373h292l-193 -373h-158z" />
    <glyph glyph-name="gravecmb" unicode="&#x300;" horiz-adv-x="0" 
d="M-37 1303l-332 373h406l131 -373h-205z" />
    <glyph glyph-name="acutecmb" unicode="&#x301;" horiz-adv-x="0" 
d="M-199 1303l132 373h406l-332 -373h-206z" />
    <glyph glyph-name="circumflexcmb" unicode="&#x302;" horiz-adv-x="0" 
d="M-292 1285l-101 145l263 290h257l266 -290l-99 -143l-296 201z" />
    <glyph glyph-name="tildecmb" unicode="&#x303;" horiz-adv-x="0" 
d="M117 1532q54 0 54 119v49h207v-28q0 -162 -64.5 -256t-172.5 -94q-112 0 -166 86q-27 42 -45 71t-44 29q-55 0 -55 -117v-50h-207v27q0 162 67 257t181 95q92 0 152 -86q30 -42 49.5 -72t43.5 -30z" />
    <glyph glyph-name="macroncmb" unicode="&#x304;" horiz-adv-x="0" 
d="M-328 1367v245h656v-245h-656z" />
    <glyph glyph-name="brevecmb" unicode="&#x306;" horiz-adv-x="0" 
d="M0 1290q-199 0 -295 105.5t-98 324.5h257q2 -134 30 -182.5t106 -48.5t106 48.5t30 182.5h257q-2 -220 -98 -325t-295 -105z" />
    <glyph glyph-name="dotaccentcmb" unicode="&#x307;" horiz-adv-x="0" 
d="M0 1586q203 0 203 -136v-24q0 -73 -57 -101.5t-146 -28.5q-203 0 -203 130v24q0 136 203 136z" />
    <glyph glyph-name="dieresiscmb" unicode="&#x308;" horiz-adv-x="0" 
d="M344 1426q0 -130 -154 -130t-155 130v24q0 136 154.5 136t154.5 -136v-24zM-35 1426q-1 -130 -155 -130t-154 130v24q0 136 154.5 136t154.5 -136v-24z" />
    <glyph glyph-name="ringcmb" unicode="&#x30a;" horiz-adv-x="0" 
d="M0 1735q-95 0 -95 -130v-60q0 -69 24 -96.5t71 -27.5t71 27.5t24 96.5v60q0 130 -95 130zM0 1262q-145 0 -233.5 69t-88.5 214v60q0 145 88.5 216.5t233.5 71.5t233.5 -71.5t88.5 -216.5v-60q0 -145 -88.5 -214t-233.5 -69z" />
    <glyph glyph-name="hungarumlautcmb" unicode="&#x30b;" horiz-adv-x="0" 
d="M-294 1303l59 373h295l-196 -373h-158zM28 1303l60 373h292l-194 -373h-158z" />
    <glyph glyph-name="caroncmb" unicode="&#x30c;" horiz-adv-x="0" 
d="M-127 1311l-266 290l99 144l296 -202l290 203l101 -145l-263 -290h-257z" />
    <glyph glyph-name="commaturnedabovecmb" unicode="&#x312;" horiz-adv-x="0" 
d="M-227 1303l275 373h207l-76 -373h-406z" />
    <glyph glyph-name="commaaccentcmb" unicode="&#x326;" horiz-adv-x="0" 
d="M-246 -559l75 373h406l-276 -373h-205z" />
    <glyph glyph-name="cedillacmb" unicode="&#x327;" horiz-adv-x="0" 
d="M-56 -223q70 1 71 99q0 58 -11.5 84.5t-46.5 39.5l28 78q162 -17 236.5 -75.5t74.5 -172.5t-88.5 -179.5t-251.5 -65.5t-254 61.5t-97 174.5l280 19q2 -35 14.5 -49t44.5 -14z" />
    <glyph glyph-name="ogonekcmb" unicode="&#x328;" horiz-adv-x="0" 
d="M0 -411q-130 0 -200 60.5t-70 165.5t69 189.5t181 122.5l37 -84q-64 -49 -64 -151q0 -97 108 -97q35 0 136 19v-203q-120 -22 -197 -22z" />
    <glyph glyph-name="tonos" unicode="&#x384;" horiz-adv-x="1033" 
d="M374 1303l49 373h391l-248 -373h-192z" />
    <glyph glyph-name="dieresistonos" unicode="&#x385;" horiz-adv-x="1033" 
d="M1002 1421q0 -131 -142 -131q-63 0 -102 29t-39 102v24q-1 136 141 136t142 -136v-24zM317 1421q1 -131 -141 -131t-142 131v24q0 136 141 136t142 -136v-24zM380 1303l63 373h266l-147 -373h-182z" />
    <glyph glyph-name="Alphatonos" unicode="&#x386;" horiz-adv-x="1368" 
d="M966 0l-61 363h-279l-62 -363h-303l294 1489h458l290 -1489h-337zM864 609l-97 586l-100 -586h197zM26 1117l48 372h391l-247 -372h-192z" />
    <glyph glyph-name="anoteleia" unicode="&#x387;" horiz-adv-x="1033" 
d="M747 678q0 -96 -64 -146q-65 -50 -167 -50t-167 50q-64 50 -64 146v130q0 95 64 148q65 53 169 53t166 -53t63 -148v-130z" />
    <glyph glyph-name="Epsilontonos" unicode="&#x388;" horiz-adv-x="1508" 
d="M447 0v1489h882v-245h-547v-324h478v-246h-478v-428h547v-246h-882zM-35 1117l48 372h391l-248 -372h-191z" />
    <glyph glyph-name="Etatonos" unicode="&#x389;" horiz-adv-x="1647" 
d="M-56 1117l49 372h391l-248 -372h-192zM447 0v1489h335v-543h363v543h335v-1489h-335v700h-363v-700h-335z" />
    <glyph glyph-name="Iotatonos" unicode="&#x38a;" horiz-adv-x="1508" 
d="M-73 1117l49 372h391l-248 -372h-192zM447 0v246h279v998h-279v245h894v-245h-280v-998h280v-246h-894z" />
    <glyph glyph-name="Omicrontonos" unicode="&#x38c;" horiz-adv-x="1508" 
d="M-17 1117l49 372h391l-248 -372h-192zM825 227q106 0 143 55t37 210v498q0 158 -37 216t-143 56q-106 0 -145 -56q-38 -57 -38 -216v-498q0 -155 38 -210t145 -55zM1341 465q0 -225 -134 -355q-135 -130 -383 -129q-248 -1 -382 129t-135 355v552q0 229 135 360
q136 131 384 131t381 -131t134 -360v-552z" />
    <glyph glyph-name="Upsilontonos" unicode="&#x38e;" horiz-adv-x="1703" 
d="M1257 0h-335v559l-404 922l-242 -364h-192l48 372h728l235 -660l244 660h325l-407 -930v-559z" />
    <glyph glyph-name="Omegatonos" unicode="&#x38f;" horiz-adv-x="1647" 
d="M-17 1117l49 372h391l-248 -372h-192zM1579 765q0 -270 -183 -391v-167h144v-207h-479v428q106 30 145 116q38 86 38 221v201q0 156 -59 226t-193 70t-192 -70t-59 -226v-201q0 -135 37 -221t144 -116v-428h-477v207h141v167q-180 119 -180 391v201q0 268 148 405
t438 137t438 -137t149 -405v-201z" />
    <glyph glyph-name="iotadieresistonos" unicode="&#x390;" horiz-adv-x="949" 
d="M903 1421q0 -131 -142 -131q-63 0 -102 29t-39 102v24q0 136 142 136t141 -136v-24zM218 1421q0 -131 -142 -131t-141 131v24q-1 136 141 136t142 -136v-24zM281 1303l63 373h267l-147 -373h-183zM238 1117h335v-704q0 -88 17 -136q25 -71 111 -41q31 10 77 32l47 -225
q-155 -63 -308 -63q-154 0 -216 108t-63 277v752z" />
    <glyph glyph-name="Alpha" unicode="&#x391;" horiz-adv-x="1172" 
d="M771 0l-62 363h-279l-61 -363h-304l294 1489h458l291 -1489h-337zM668 609l-96 586l-101 -586h197z" />
    <glyph glyph-name="Beta" unicode="&#x392;" horiz-adv-x="1368" 
d="M503 233h165q106 0 148 38t42 137v85q0 97 -42 135t-148 39h-165v-434zM503 883h184q85 1 117 33t32 115v79q0 82 -33 114t-116 33h-184v-374zM168 0v1489h582q194 0 306 -93t111 -257v-68q0 -114 -47 -173t-161 -83v-54q115 -15 175 -90t59 -189v-93q0 -181 -120 -285
t-332 -104h-573z" />
    <glyph glyph-name="Gamma" unicode="&#x393;" horiz-adv-x="1089" 
d="M168 0v1489h852v-245h-517v-1244h-335z" />
    <glyph glyph-name="Delta" unicode="&#x394;" horiz-adv-x="1172" 
d="M793 246l-216 1005l-233 -1005h449zM65 0v246l285 1243h499l261 -1243v-246h-1045z" />
    <glyph glyph-name="Epsilon" unicode="&#x395;" 
d="M168 0v1489h882v-245h-547v-324h478v-246h-478v-428h547v-246h-882z" />
    <glyph glyph-name="Zeta" unicode="&#x396;" horiz-adv-x="1368" 
d="M1182 0h-994v246l590 998h-590v245h994v-245l-627 -998h627v-246z" />
    <glyph glyph-name="Eta" unicode="&#x397;" horiz-adv-x="1368" 
d="M168 0v1489h335v-543h363v543h335v-1489h-335v700h-363v-700h-335z" />
    <glyph glyph-name="Theta" unicode="&#x398;" horiz-adv-x="1368" 
d="M585 644v220h201v-220h-201zM685 227q117 0 159 63.5t42 238.5v424q0 179 -42 244t-159 65t-159 -65t-42 -244v-424q0 -175 42 -238.5t159 -63.5zM684 -19q-248 0 -382 139t-134 383v476q0 246 135 387.5t383 141.5t381.5 -141.5t133.5 -387.5v-476q0 -244 -134.5 -383
t-382.5 -139z" />
    <glyph glyph-name="Iota" unicode="&#x399;" 
d="M168 0v246h279v998h-279v245h893v-245h-279v-998h279v-246h-893z" />
    <glyph glyph-name="Kappa" unicode="&#x39a;" 
d="M503 650v-650h-335v1489h335v-593h59l268 593h365l-370 -685l365 -804h-384l-240 650h-63z" />
    <glyph glyph-name="Lambda" unicode="&#x39b;" horiz-adv-x="1172" 
d="M771 0l-199 1195l-203 -1195h-304l294 1489h458l291 -1489h-337z" />
    <glyph glyph-name="Mu" unicode="&#x39c;" horiz-adv-x="1508" 
d="M447 0h-279v1489h415l173 -772l175 772h410v-1489h-280v1072l-160 -700h-294l-160 682v-1054z" />
    <glyph glyph-name="Nu" unicode="&#x39d;" horiz-adv-x="1368" 
d="M447 0h-279v1489h446l308 -977v977h279v-1489h-436l-318 1082v-1082z" />
    <glyph glyph-name="Xi" unicode="&#x39e;" 
d="M140 0v246h949v-246h-949zM175 674v246h879v-246h-879zM140 1244v245h949v-245h-949z" />
    <glyph glyph-name="Omicron" unicode="&#x39f;" horiz-adv-x="1368" 
d="M685 227q106 0 144 55q37 55 37 210v498q0 158 -37 216t-143 56q-106 0 -145 -56q-38 -56 -38 -216v-498q0 -155 38 -210t144 -55zM1201 465q0 -225 -134 -355q-135 -130 -383 -129q-248 -1 -382 129t-134 355v552q0 229 135 360t383 131t382 -131t133 -360v-552z" />
    <glyph glyph-name="Pi" unicode="&#x3a0;" horiz-adv-x="1368" 
d="M168 0v1489h1033v-1489h-335v1244h-363v-1244h-335z" />
    <glyph glyph-name="Rho" unicode="&#x3a1;" 
d="M503 713h115q78 0 115 41q36 41 36 155v134q0 113 -36 157t-115 44h-115v-531zM168 0v1489h512q208 0 316 -107t108 -311v-198q0 -197 -108 -300t-315 -104h-178v-469h-335z" />
    <glyph glyph-name="Sigma" unicode="&#x3a3;" 
d="M1089 0h-962v246l469 536l-469 462v245h962v-245h-564l378 -397v-171l-367 -430h553v-246z" />
    <glyph glyph-name="Tau" unicode="&#x3a4;" 
d="M447 0v1244h-348v245h1033v-245h-350v-1244h-335z" />
    <glyph glyph-name="Upsilon" unicode="&#x3a5;" 
d="M782 0h-335v559l-408 930h346l235 -660l244 660h326l-408 -930v-559z" />
    <glyph glyph-name="Phi" unicode="&#x3a6;" horiz-adv-x="1508" 
d="M570 400h24v689h-24q-76 0 -102 -75t-27 -197v-152q1 -123 27 -194t102 -71zM940 1089h-26v-689h26q74 0 101 71q26 71 26 194v152q0 121 -26 197q-27 75 -101 75zM940 168h-18v-192h-336v192h-16q-214 0 -329 128t-114 369v152q0 244 114 375q115 130 329 130h16v192
h336v-192h18q214 0 329 -130t114 -375v-152q0 -240 -114 -369q-115 -128 -329 -128z" />
    <glyph glyph-name="Chi" unicode="&#x3a7;" horiz-adv-x="1368" 
d="M875 0l-199 419l-190 -419h-352l372 776l-338 713h374l180 -392l164 392h348l-340 -763l335 -726h-354z" />
    <glyph glyph-name="Psi" unicode="&#x3a8;" horiz-adv-x="1703" 
d="M1020 0h-335v350q-255 30 -386 157.5t-131 343.5v638h335v-599q0 -136 42.5 -206.5t139.5 -80.5v886h335v-886q95 11 138 81t43 206v599h335v-638q0 -216 -131.5 -343.5t-384.5 -157.5v-350z" />
    <glyph glyph-name="Omega" unicode="&#x3a9;" horiz-adv-x="1312" 
d="M1244 765q0 -270 -183 -391v-167h144v-207h-479v428q106 30 144.5 115.5t38.5 221.5v201q0 156 -59 226t-193 70t-192.5 -69.5t-58.5 -226.5v-201q0 -136 37 -221.5t143 -115.5v-428h-476v207h141v167q-180 119 -180 391v201q0 268 148 405t438.5 137t438.5 -137
t148 -405v-201z" />
    <glyph glyph-name="Iotadieresis" unicode="&#x3aa;" 
d="M168 0v246h279v998h-279v245h893v-245h-279v-998h279v-246h-893zM959 1799q-1 -131 -155 -131t-154 131v24q0 136 154 136t155 -136v-24zM579 1799q-1 -131 -155 -131t-154 131v24q0 136 154 136t155 -136v-24z" />
    <glyph glyph-name="Upsilondieresis" unicode="&#x3ab;" 
d="M782 0h-335v559l-408 930h346l235 -660l244 660h326l-408 -930v-559zM959 1799q-1 -131 -155 -131t-154 131v24q0 136 154 136t155 -136v-24zM579 1799q-1 -131 -155 -131t-154 131v24q0 136 154 136t155 -136v-24z" />
    <glyph glyph-name="alphatonos" unicode="&#x3ac;" horiz-adv-x="1368" 
d="M168 722q0 192 75 304t204 112q86 0 150 -54t88 -146h41v181h335v-756q0 -89 38 -119t130 -13v-225q-145 -41 -243 13t-133 195h-43q-30 -106 -118 -168t-220 -62q-133 0 -219 104t-85 283v351zM592 231q87 0 134 87v466q-32 58 -62 82q-32 24 -76 24q-88 0 -87 -196
v-277q-1 -99 21 -143t70 -43zM482 1303l49 373h391l-248 -373h-192z" />
    <glyph glyph-name="epsilontonos" unicode="&#x3ad;" 
d="M503 339q0 -142 124 -144q80 -1 114 39t43 144l301 -13q-19 -201 -131 -293t-326 -91t-332 79t-117 236v32q0 204 218 229v41q-196 17 -194 203v35q0 145 105 222q106 78 306 78q430 1 447 -361l-303 -15q-11 95 -40 129q-28 34 -88 34t-82 -26t-23 -87v-26q0 -62 32 -84
t89 -22h63v-188h-63q-74 0 -108 -32t-35 -101v-18zM510 1303l49 373h391l-248 -373h-192z" />
    <glyph glyph-name="etatonos" unicode="&#x3ae;" 
d="M531 1303l48 373h391l-248 -373h-191zM652 888q-90 0 -149 -134v-754h-335v1117h335v-162h41q63 181 277 181q108 0 174 -92t66 -260v-1156h-335v1111q0 77 -17 113t-57 36z" />
    <glyph glyph-name="iotatonos" unicode="&#x3af;" horiz-adv-x="949" 
d="M290 1303l49 373h391l-248 -373h-192zM238 1117h335v-704q0 -88 17 -136q25 -71 111 -41q31 10 77 32l47 -225q-155 -63 -308 -63q-154 0 -216 108t-63 277v752z" />
    <glyph glyph-name="upsilondieresistonos" unicode="&#x3b0;" 
d="M615 -19q-207 0 -327 126t-120 342v668h335v-665q0 -127 24 -176t87 -49q64 1 88 49t24 173v668h335v-668q0 -216 -119 -342t-327 -126zM1098 1421q0 -131 -141 -131q-63 0 -102 29t-40 102v24q-1 136 141 136t142 -136v-24zM413 1421q1 -131 -141 -131t-142 131v24
q0 136 142 136t141 -136v-24zM477 1303l63 373h266l-147 -373h-182z" />
    <glyph glyph-name="alpha" unicode="&#x3b1;" horiz-adv-x="1368" 
d="M472 -17q-133 0 -218.5 104.5t-85.5 283.5v351q0 192 75 304t204 112q86 0 150 -54t88 -146h41v181h335v-756q0 -88 38.5 -118.5t129.5 -13.5v-225q-145 -41 -243 13t-133 195h-43q-30 -106 -117.5 -168.5t-220.5 -62.5zM592 231q85 0 134 87v466q-32 58 -63 82t-75 24
q-88 0 -87 -196v-277q0 -99 21.5 -142.5t69.5 -43.5z" />
    <glyph glyph-name="beta" unicode="&#x3b2;" 
d="M702 -19q-107 0 -199 43v-396h-335v1439q0 231 122.5 336t309.5 105t302 -98.5t115 -268.5v-35q0 -106 -58 -176t-192 -96v-54q138 -15 215 -104.5t79 -211.5v-69q0 -192 -95.5 -303t-263.5 -111zM724 438v52q0 121 -27 164.5t-90 43.5h-86v190h77q45 0 66 36.5t21 123.5
v34q0 101 -20.5 140.5t-71.5 39.5t-70.5 -40t-19.5 -140v-823q45 -36 95 -36q126 0 126 215z" />
    <glyph glyph-name="gamma" unicode="&#x3b3;" horiz-adv-x="1089" 
d="M747 -372h-403l34 409l-317 1080h330l156 -683l147 683h332l-313 -1080z" />
    <glyph glyph-name="delta" unicode="&#x3b4;" 
d="M503 404q-1 -190 111 -190t112 190v164q0 89 -43 138.5t-106 81.5q-74 -70 -74 -213v-171zM614.5 -19q-199.5 0 -323 103.5t-123.5 319.5v171q0 106 49 178t159 126q-88 47 -127 113.5t-39 163.5q0 173 100.5 253t300.5 80h298v-232h-298q-35 0 -56 -19.5t-21 -77.5
t65 -91.5t205 -99.5t198.5 -159t58.5 -242v-164q0 -216 -123.5 -319.5t-323 -103.5z" />
    <glyph glyph-name="epsilon" unicode="&#x3b5;" 
d="M503 339q0 -144 124 -144q80 0 114 39.5t43 143.5l301 -13q-19 -201 -131 -292.5t-326 -91.5t-331.5 78.5t-117.5 236.5v32q0 204 218 229v41q-194 17 -194 203v35q0 145 105.5 222.5t305.5 77.5q430 0 447 -361l-303 -15q-11 95 -39.5 129t-88.5 34t-82.5 -26t-22.5 -87
v-26q0 -63 31.5 -84.5t89.5 -21.5h63v-188h-63q-74 0 -108.5 -32t-34.5 -101v-18z" />
    <glyph glyph-name="zeta" unicode="&#x3b6;" 
d="M680 -372h-233v219h214q50 0 81 21.5t31 88.5t-31 90.5t-81 23.5h-80q-195 0 -302.5 110.5t-107.5 282.5t45 278.5t160 251.5l142 179l-13 30q-121 2 -218 78t-149 197l180 101q80 -140 190 -181t267 -2l262 147l61 -292l-342 -76l-138 -253q-63 -117 -87.5 -206.5
t-24.5 -199.5t39.5 -168t109.5 -58h136q128 0 199 -80t71 -246t-103 -251t-278 -85z" />
    <glyph glyph-name="eta" unicode="&#x3b7;" 
d="M544 955q63 181 277 181q108 0 174 -92.5t66 -259.5v-1156h-335v1111q0 76 -16.5 112.5t-57.5 36.5q-89 0 -149 -134v-754h-335v1117h335v-162h41z" />
    <glyph glyph-name="theta" unicode="&#x3b8;" 
d="M614 214q74 0 103.5 46.5t29.5 163.5v228h-263v-228q0 -117 28 -163.5t102 -46.5zM484 1069v-211h263v214q0 114 -29 158.5t-103 44.5t-102.5 -45.5t-28.5 -160.5zM614.5 -19q-210.5 0 -328.5 112t-118 311v674q0 201 119 315.5t329.5 114.5t327.5 -114.5t117 -315.5
v-674q0 -199 -118 -311t-328.5 -112z" />
    <glyph glyph-name="iota" unicode="&#x3b9;" horiz-adv-x="949" 
d="M238 365v752h335v-704q0 -88 21 -147.5t79.5 -39.5t104.5 42l47 -225q-155 -63 -308 -63q-154 0 -216.5 108.5t-62.5 276.5z" />
    <glyph glyph-name="kappa" unicode="&#x3ba;" horiz-adv-x="1089" 
d="M503 490v-490h-335v1117h335v-410h44l162 410h337l-223 -490l225 -627h-354l-147 490h-44z" />
    <glyph glyph-name="lambda" unicode="&#x3bb;" horiz-adv-x="1089" 
d="M359 1506q207 0 318.5 -93t149.5 -300l199 -1115h-320l-160 890l-161 -890h-324l200 1026h260l-7 37q-19 106 -62.5 162t-144.5 56q-63 0 -212 -28l-11 233q200 22 275 22z" />
    <glyph glyph-name="mu" unicode="&#x3bc;" horiz-adv-x="1368" 
d="M628 -19q-76 0 -125 86v-30l15 -409h-363l13 409v1080h335v-713q0 -91 28 -129.5t67 -38.5q83 0 128 101v780h335v-754q0 -88 38.5 -118.5t129.5 -13.5v-225q-143 -35 -226 0t-137 154h-47q-28 -74 -71.5 -126.5t-119.5 -52.5z" />
    <glyph glyph-name="nu" unicode="&#x3bd;" horiz-adv-x="1089" 
d="M1026 1117q-42 -556 -311 -1117h-343l-311 1117h334l184 -774q93 357 115 774h332z" />
    <glyph glyph-name="xi" unicode="&#x3be;" 
d="M1050 -36q0 -166 -103.5 -251t-278.5 -85h-232v219h214q50 0 80.5 21.5t30.5 88.5t-30.5 90.5t-80.5 23.5h-147q-155 0 -245 92t-90 248v38q0 110 62 191.5t185 94.5v43q-74 0 -119 47.5t-45 125.5t53 134t141 73v43q-134 -2 -223.5 64t-148.5 213l180 101
q80 -127 181.5 -167t263.5 -10l281 141l62 -292l-330 -65l-43 -34q-82 -66 -82 -173q0 -63 31 -89t77 -26h231v-220h-227q-95 0 -145 -43.5t-50 -123.5v-38q0 -73 41 -111t115 -38h47q164 0 254 -80t90 -246z" />
    <glyph glyph-name="omicron" unicode="&#x3bf;" 
d="M614 214q63 0 88 39q24 39 24 134v350q0 91 -24 129t-88 37q-64 0 -87 -37q-24 -37 -24 -132v-347q0 -95 24 -134t87 -39zM614 -19q-206 1 -326 107t-120 286v363q0 183 122 291t326 108t325 -107q120 -107 120 -292v-363q0 -181 -121 -287t-326 -106z" />
    <glyph glyph-name="pi" unicode="&#x3c0;" horiz-adv-x="1368" 
d="M1210 1117v-233h-128v-521q0 -89 38 -119t129 -13v-225q-238 -47 -370 29.5t-132 264.5v584h-174v-884h-335v884h-139v233h1111z" />
    <glyph glyph-name="rho" unicode="&#x3c1;" 
d="M168 -372v1079q0 205 117 314t333 109t329.5 -109t113.5 -314v-325q0 -171 -74.5 -286t-225.5 -115q-95 0 -152.5 60t-64.5 158h-41v-571h-335zM726 426v300q0 173 -111.5 173t-111.5 -173v-372q68 -123 134 -123q89 0 89 195z" />
    <glyph glyph-name="sigma1" unicode="&#x3c2;" 
d="M445 -372v232h194q52 0 81.5 19t29.5 83t-29.5 86.5t-81.5 22.5h-125q-153 0 -249.5 123.5t-96.5 317.5v190q0 205 119 319.5t325 114.5t318.5 -102.5t136.5 -312.5l-324 -25q-7 119 -32.5 162t-95.5 43t-91 -48.5t-21 -165.5v-168q0 -117 21.5 -166.5t91.5 -49.5h112
q169 0 250 -78.5t81 -248.5t-124.5 -259t-336.5 -89h-153z" />
    <glyph glyph-name="sigma" unicode="&#x3c3;" horiz-adv-x="1368" 
d="M1061 624v-220q0 -197 -119 -310t-327.5 -113t-327.5 113t-119 310v296q0 194 119 305.5t329 111.5h656v-251l-291 24q80 -107 80 -266zM614.5 214q63.5 0 87.5 44.5t24 165.5v259q0 123 -24 168.5t-87.5 45.5t-87.5 -44.5t-24 -161.5v-267q0 -121 24 -165.5t87.5 -44.5z
" />
    <glyph glyph-name="tau" unicode="&#x3c4;" horiz-adv-x="1089" 
d="M378 300v571h-279v246h906v-246h-292v-508q0 -88 39 -118.5t129 -13.5v-225q-238 -47 -370.5 29.5t-132.5 264.5z" />
    <glyph glyph-name="upsilon" unicode="&#x3c5;" 
d="M615 -19q-208 0 -327.5 126t-119.5 342v668h335v-665q0 -127 24 -176t87.5 -49t87.5 48.5t24 173.5v668h335v-668q0 -216 -119 -342t-327 -126z" />
    <glyph glyph-name="phi" unicode="&#x3c6;" horiz-adv-x="1703" 
d="M1020 871v-629q101 22 141 86.5t40 187.5v65q0 151 -45 220.5t-136 69.5zM503 676v-95q0 -151 41 -230t141 -105v871h205q266 0 456 -133t190 -403v-65q0 -223 -140.5 -356.5t-375.5 -166.5v-365h-335v365q-270 35 -393.5 188.5t-123.5 399.5v95q0 289 95 473l327 -60
q-87 -188 -87 -413z" />
    <glyph glyph-name="chi" unicode="&#x3c7;" horiz-adv-x="1089" 
d="M683 -372l-152 381l-127 -381h-331l301 767l-290 722h329l140 -346l114 346h329l-287 -732l306 -757h-332z" />
    <glyph glyph-name="psi" unicode="&#x3c8;" horiz-adv-x="1703" 
d="M1020 -372h-335v350q-270 32 -393.5 165t-123.5 335v639h335v-599q0 -121 41 -184.5t141 -85.5v869h335v-869q101 22 141 85.5t40 184.5v599h335v-639q0 -203 -124 -336t-392 -164v-350z" />
    <glyph glyph-name="omega" unicode="&#x3c9;" horiz-adv-x="1703" 
d="M168 512v134q0 155 28.5 295.5t58.5 207.5l328 -60q-80 -232 -80 -443v-134q0 -285 91 -285q47 0 69 41t22 136v527h335v-527q0 -177 90 -177t91 285v134q0 211 -80 443l327 60q30 -67 59 -207.5t29 -295.5v-134q0 -261 -98.5 -396t-260.5 -135q-228 0 -304 248h-52
q-72 -248 -294 -248q-162 0 -260.5 135t-98.5 396z" />
    <glyph glyph-name="iotadieresis" unicode="&#x3ca;" horiz-adv-x="949" 
d="M238 1117h335v-704q0 -88 17 -136q25 -71 111 -41q31 10 77 32l47 -225q-155 -63 -308 -63q-154 0 -216 108t-63 277v752zM756 1426q0 -130 -154 -130t-155 130v24q1 138 155 137t154 -137v-24zM376 1426q0 -130 -154 -130t-155 130v24q1 138 155 137t154 -137v-24z" />
    <glyph glyph-name="upsilondieresis" unicode="&#x3cb;" 
d="M615 -19q-207 0 -327 126t-120 342v668h335v-665q0 -127 24 -176t87 -49q64 1 88 49t24 173v668h335v-668q0 -216 -119 -342t-327 -126zM959 1426q-1 -130 -155 -130t-154 130v24q0 138 154 137t155 -137v-24zM579 1426q-1 -130 -155 -130t-154 130v24q0 138 154 137
t155 -137v-24z" />
    <glyph glyph-name="omicrontonos" unicode="&#x3cc;" 
d="M480 1303l49 373h391l-248 -373h-192zM614 214q63 0 88 39q24 39 24 134v350q0 91 -24 129t-88 37q-64 0 -87 -37q-24 -37 -24 -132v-347q0 -95 24 -134t87 -39zM614 -19q-206 1 -326 107t-120 286v363q0 183 122 291t326 108t325 -107q120 -107 120 -292v-363
q0 -181 -121 -287t-326 -106z" />
    <glyph glyph-name="upsilontonos" unicode="&#x3cd;" 
d="M615 -19q-207 0 -327 126t-120 342v668h335v-665q0 -127 24 -176t87 -49q64 1 88 49t24 173v668h335v-668q0 -216 -119 -342t-327 -126zM499 1303l48 373h391l-247 -373h-192z" />
    <glyph glyph-name="omegatonos" unicode="&#x3ce;" horiz-adv-x="1703" 
d="M728 1303l48 373h391l-247 -373h-192zM1177 -19q-228 0 -304 248h-52q-72 -248 -294 -248q-162 0 -261 135t-98 396v134q0 156 28 296t59 207l328 -60q-81 -236 -80 -443v-134q0 -285 91 -285q47 0 69 41t22 136v527h335v-527q0 -177 90 -177t91 285v134q0 215 -80 443
l327 60q30 -67 59 -208t29 -295v-134q0 -261 -99 -396t-260 -135z" />
    <glyph glyph-name="IEgravecyrillic" unicode="&#x400;" 
d="M521 1676l-331 372h406l130 -372h-205zM168 0v1489h882v-245h-547v-324h478v-246h-478v-428h547v-246h-882z" />
    <glyph glyph-name="Iocyrillic" unicode="&#x401;" 
d="M168 0v1489h882v-245h-547v-324h478v-246h-478v-428h547v-246h-882zM963 1799q0 -131 -155 -131q-69 0 -112 29t-43 102v24q0 136 155 136t155 -136v-24zM583 1799q-1 -131 -155 -131t-154 131v24q0 136 154 136t155 -136v-24z" />
    <glyph glyph-name="Djecyrillic" unicode="&#x402;" horiz-adv-x="1508" 
d="M380 0v1244h-281v245h966v-245h-350v-276h199q248 0 367 -106t119 -326v-108q0 -218 -119 -323t-367 -105v242q69 0 110 41t41 149v100q0 110 -41 152t-110 42h-199v-726h-335z" />
    <glyph glyph-name="Gjecyrillic" unicode="&#x403;" horiz-adv-x="1089" 
d="M395 1676l132 372h406l-332 -372h-206zM168 0v1489h852v-245h-517v-1244h-335z" />
    <glyph glyph-name="Ecyrillic" unicode="&#x404;" horiz-adv-x="1368" 
d="M169 465v552q0 491 552 491q512 0 530 -531l-335 -18q-11 182 -50 242.5t-156 60.5t-161 -55t-44 -218v-69h333v-246h-333v-182q0 -160 43.5 -212.5t161.5 -52.5t156.5 58.5t49.5 237.5l335 -18q-18 -524 -530 -524q-552 0 -552 484z" />
    <glyph glyph-name="Dzecyrillic" unicode="&#x405;" horiz-adv-x="1368" 
d="M505 1096q0 -80 51 -120q51 -39 202 -84q229 -67 339 -166q109 -98 109 -290t-135 -322t-388 -131q-253 0 -508 140l52 255q239 -149 467 -149q89 0 134 46q44 46 44 124t-61 119q-61 40 -231 88t-289 143q-118 95 -118 293t135 330t383 132t437 -128l-35 -242
q-219 130 -402 128q-86 0 -136 -43t-50 -123z" />
    <glyph glyph-name="Icyrillic" unicode="&#x406;" 
d="M168 0v246h279v998h-279v245h893v-245h-279v-998h279v-246h-893z" />
    <glyph glyph-name="Yicyrillic" unicode="&#x407;" 
d="M959 1799q-1 -131 -155 -131t-154 131v24q0 136 154 136t155 -136v-24zM579 1799q-1 -131 -155 -131t-154 131v24q0 136 154 136t155 -136v-24zM168 0v246h279v998h-279v245h893v-245h-279v-998h279v-246h-893z" />
    <glyph glyph-name="Jecyrillic" unicode="&#x408;" 
d="M1061 484q1 -266 -111 -384t-369 -119q-257 0 -358 114t-111 423l335 20q11 -190 41 -250t110 -61q80 0 104 52t24 218v747h-376v245h711v-1005z" />
    <glyph glyph-name="Ljecyrillic" unicode="&#x409;" horiz-adv-x="1926" 
d="M1201 246h115q78 0 114.5 43.5t36.5 157.5v134q0 114 -36 154.5t-115 40.5h-115v-530zM211 235q37 0 61 43.5t26 185.5l5 1025h898v-469h179q205 0 313.5 -103t108.5 -301v-197q0 -205 -109 -312t-315 -107h-512v1244h-233l-2 -805q-2 -248 -98.5 -355.5t-256.5 -107.5
q-71 0 -203 30l29 247q72 -18 109 -18z" />
    <glyph glyph-name="Njecyrillic" unicode="&#x40a;" horiz-adv-x="1926" 
d="M503 700v-700h-335v1489h335v-543h363v543h335v-469h179q205 0 313.5 -103t108.5 -301v-197q0 -205 -109 -312t-315 -107h-512v700h-363zM1201 246h115q78 0 114.5 43.5t36.5 157.5v134q0 114 -36 154.5t-115 40.5h-115v-530z" />
    <glyph glyph-name="Tshecyrillic" unicode="&#x40b;" horiz-adv-x="1508" 
d="M1005 477q0 206 -130 206h-140v-683h-335v1244h-301v245h1005v-245h-369v-319h170q212 0 324 -109.5t112 -320.5v-495h-336v477z" />
    <glyph glyph-name="Kjecyrillic" unicode="&#x40c;" 
d="M525 1676l132 372h406l-331 -372h-207zM503 650v-650h-335v1489h335v-593h59l268 593h365l-370 -685l365 -804h-384l-240 650h-63z" />
    <glyph glyph-name="Igravecyrillic" unicode="&#x40d;" horiz-adv-x="1368" 
d="M620 1676l-331 372h405l131 -372h-205zM905 0v1087l-266 -1087h-471v1489h296v-1154l292 1154h445v-1489h-296z" />
    <glyph glyph-name="Ushortcyrillic" unicode="&#x40e;" 
d="M328 -13q-105 0 -213 26l25 246q125 -28 188 -28q118 0 167 154l13 41h-123l-325 1063h322l221 -757l237 757h327l-392 -1172q-60 -179 -175 -255q-116 -75 -272 -75zM635 1663q-195 0 -297 106q-101 106 -98 305l278 19q-2 -125 23 -178t94 -53t94 53t23 178l278 -19
q4 -199 -98 -305t-297 -106z" />
    <glyph glyph-name="Dzhecyrillic" unicode="&#x40f;" horiz-adv-x="1368" 
d="M514 -279v279h-346v1489h335v-1243h363v1243h335v-1489h-348v-279h-339z" />
    <glyph glyph-name="Acyrillic" unicode="&#x410;" horiz-adv-x="1172" 
d="M771 0l-62 363h-279l-61 -363h-304l294 1489h458l291 -1489h-337zM668 609l-96 586l-101 -586h197z" />
    <glyph glyph-name="Becyrillic" unicode="&#x411;" horiz-adv-x="1368" 
d="M775 246q111 0 111 195v71q0 112 -30.5 152t-80.5 40h-272v-458h272zM168 0v1489h949v-245h-614v-298h299q205 0 312 -104.5t107 -301.5v-108q0 -210 -107 -321t-312 -111h-634z" />
    <glyph glyph-name="Vecyrillic" unicode="&#x412;" horiz-adv-x="1368" 
d="M503 233h165q106 0 148 38t42 137v85q0 97 -42 135t-148 39h-165v-434zM503 883h184q85 1 117 33t32 115v79q0 82 -33 114t-116 33h-184v-374zM168 0v1489h582q194 0 306 -93t111 -257v-68q0 -114 -47 -173t-161 -83v-54q115 -15 175 -90t59 -189v-93q0 -181 -120 -285
t-332 -104h-573z" />
    <glyph glyph-name="Gecyrillic" unicode="&#x413;" horiz-adv-x="1089" 
d="M168 0v1489h852v-245h-517v-1244h-335z" />
    <glyph glyph-name="Decyrillic" unicode="&#x414;" horiz-adv-x="1508" 
d="M434 0v-279h-335v525h115q61 65 63 327l12 916h912v-1243h140v-525h-336v279h-571zM572 246h294v998h-248l-5 -678q0 -182 -41 -281v-39z" />
    <glyph glyph-name="Iecyrillic" unicode="&#x415;" 
d="M168 0v1489h882v-245h-547v-324h478v-246h-478v-428h547v-246h-882z" />
    <glyph glyph-name="Zhecyrillic" unicode="&#x416;" horiz-adv-x="1508" 
d="M603 881v608h302v-608h46l194 608h322l-244 -653l240 -836h-327l-151 663h-80v-663h-302v663h-80l-151 -663h-327l251 821l-257 668h322l198 -608h44z" />
    <glyph glyph-name="Zecyrillic" unicode="&#x417;" horiz-adv-x="1368" 
d="M709 -19q-281 0 -413 124t-141 346l335 18q9 -145 50.5 -195.5t141.5 -50.5t138 47.5t38 153.5v43q0 101 -44.5 143.5t-135.5 42.5h-86v243h86q89 0 124.5 33.5t35.5 124.5v43q0 88 -33 128.5t-121 40.5t-123.5 -43.5t-42.5 -170.5l-336 19q9 218 122.5 327.5
t363.5 109.5t376.5 -88.5t126.5 -287.5v-41q0 -128 -37 -187t-140 -90v-54q115 -30 157 -95t42 -216v-38q0 -220 -139.5 -325t-344.5 -105z" />
    <glyph glyph-name="Iicyrillic" unicode="&#x418;" horiz-adv-x="1368" 
d="M905 0v1087l-266 -1087h-471v1489h296v-1154l292 1154h445v-1489h-296z" />
    <glyph glyph-name="Iishortcyrillic" unicode="&#x419;" horiz-adv-x="1368" 
d="M905 0v1087l-266 -1087h-471v1489h296v-1154l292 1154h445v-1489h-296zM696 1663q-195 0 -297 106q-101 106 -97 305l277 19q-2 -125 23 -178t94 -53t94 53t24 178l277 -19q4 -199 -98 -305t-297 -106z" />
    <glyph glyph-name="Kacyrillic" unicode="&#x41a;" 
d="M503 650v-650h-335v1489h335v-593h59l268 593h365l-370 -685l365 -804h-384l-240 650h-63z" />
    <glyph glyph-name="Elcyrillic" unicode="&#x41b;" horiz-adv-x="1368" 
d="M1201 1489v-1489h-335v1244h-233l-2 -805q-2 -248 -98.5 -355.5t-256.5 -107.5q-71 0 -203 30l29 247q57 -18 107 -18t68.5 46.5t20.5 182.5l5 1025h898z" />
    <glyph glyph-name="Emcyrillic" unicode="&#x41c;" horiz-adv-x="1508" 
d="M447 0h-279v1489h415l173 -772l175 772h410v-1489h-280v1072l-160 -700h-294l-160 682v-1054z" />
    <glyph glyph-name="Encyrillic" unicode="&#x41d;" horiz-adv-x="1368" 
d="M168 0v1489h335v-543h363v543h335v-1489h-335v700h-363v-700h-335z" />
    <glyph glyph-name="Ocyrillic" unicode="&#x41e;" horiz-adv-x="1368" 
d="M685 227q106 0 144 55q37 55 37 210v498q0 158 -37 216t-143 56q-106 0 -145 -56q-38 -56 -38 -216v-498q0 -155 38 -210t144 -55zM1201 465q0 -225 -134 -355q-135 -130 -383 -129q-248 -1 -382 129t-134 355v552q0 229 135 360t383 131t382 -131t133 -360v-552z" />
    <glyph glyph-name="Pecyrillic" unicode="&#x41f;" horiz-adv-x="1368" 
d="M168 0v1489h1033v-1489h-335v1244h-363v-1244h-335z" />
    <glyph glyph-name="Ercyrillic" unicode="&#x420;" 
d="M503 713h115q78 0 115 41q36 41 36 155v134q0 113 -36 157t-115 44h-115v-531zM168 0v1489h512q208 0 316 -107t108 -311v-198q0 -197 -108 -300t-315 -104h-178v-469h-335z" />
    <glyph glyph-name="Escyrillic" unicode="&#x421;" horiz-adv-x="1368" 
d="M706 -19q-274 1 -406 129t-132 355v552q0 229 132 360t406 131t404 -130t139 -401l-335 -18q-9 177 -53 240q-45 63 -159 63t-156 -56t-43 -217v-497q0 -155 43 -210t157 -55q114 -1 158 61t53 235l335 -18q-9 -266 -139 -395t-404 -129z" />
    <glyph glyph-name="Tecyrillic" unicode="&#x422;" 
d="M447 0v1244h-348v245h1033v-245h-350v-1244h-335z" />
    <glyph glyph-name="Ucyrillic" unicode="&#x423;" 
d="M328 -13q-105 0 -213 26l25 246q125 -28 188 -28q118 0 167 154l13 41h-123l-325 1063h322l221 -757l237 757h327l-392 -1172q-60 -179 -175.5 -254.5t-271.5 -75.5z" />
    <glyph glyph-name="Efcyrillic" unicode="&#x424;" horiz-adv-x="1508" 
d="M570 400h24v689h-24q-76 0 -102.5 -75.5t-26.5 -196.5v-152q0 -123 26.5 -194t102.5 -71zM940 1089h-26v-689h26q74 0 100.5 71t26.5 194v152q0 121 -26.5 196.5t-100.5 75.5zM940 168h-18v-192h-336v192h-16q-214 0 -328.5 128t-114.5 369v152q0 244 114.5 374.5
t328.5 130.5h16v192h336v-192h18q214 0 328.5 -130.5t114.5 -374.5v-152q0 -240 -114.5 -368.5t-328.5 -128.5z" />
    <glyph glyph-name="Khacyrillic" unicode="&#x425;" horiz-adv-x="1368" 
d="M875 0l-199 419l-190 -419h-352l372 776l-338 713h374l180 -392l164 392h348l-340 -763l335 -726h-354z" />
    <glyph glyph-name="Tsecyrillic" unicode="&#x426;" horiz-adv-x="1368" 
d="M936 -279v279h-768v1489h335v-1243h294v1243h335v-1243h140v-525h-336z" />
    <glyph glyph-name="Checyrillic" unicode="&#x427;" 
d="M1061 1489v-1489h-335v482h-113q-248 0 -367 112.5t-119 345.5v549h335v-545q0 -106 39 -163t112 -57h113v765h335z" />
    <glyph glyph-name="Shacyrillic" unicode="&#x428;" horiz-adv-x="1647" 
d="M168 0v1489h316v-1243h183v1243h314v-1243h184v1243h315v-1489h-1312z" />
    <glyph glyph-name="Shchacyrillic" unicode="&#x429;" horiz-adv-x="1718" 
d="M1620 -279h-333v279h-1119v1489h316v-1243h183v1243h314v-1243h184v1243h315v-1243h140v-525z" />
    <glyph glyph-name="Hardsigncyrillic" unicode="&#x42a;" horiz-adv-x="1368" 
d="M642 246h116q78 0 114.5 43.5t36.5 157.5v134q0 114 -36.5 154.5t-114.5 40.5h-116v-530zM819 0h-512v1244h-279v245h614v-469h179q216 0 319.5 -99.5t103.5 -304.5v-197q0 -212 -104.5 -315.5t-320.5 -103.5z" />
    <glyph glyph-name="Yericyrillic" unicode="&#x42b;" horiz-adv-x="1703" 
d="M503 246h93q69 0 99.5 43.5t30.5 157.5v134q0 114 -30.5 154.5t-99.5 40.5h-93v-530zM1201 0v1489h335v-1489h-335zM168 0v1489h335v-469h156q205 0 303.5 -99.5t98.5 -304.5v-197q0 -212 -99.5 -315.5t-304.5 -103.5h-489z" />
    <glyph glyph-name="Softsigncyrillic" unicode="&#x42c;" 
d="M503 246h115q78 0 114.5 43.5t36.5 157.5v134q0 114 -36.5 154.5t-114.5 40.5h-115v-530zM168 0v1489h335v-469h178q216 0 319.5 -99.5t103.5 -304.5v-197q0 -212 -104 -315.5t-320 -103.5h-512z" />
    <glyph glyph-name="Ereversedcyrillic" unicode="&#x42d;" horiz-adv-x="1368" 
d="M725 -19q-270 0 -403.5 132.5t-142.5 404.5l335 18q9 -173 53.5 -239t156.5 -66t156.5 51t44.5 185v207h-305v246h305v84q0 145 -43.5 199t-155.5 54t-157.5 -67t-54.5 -244l-335 18q9 277 144 410.5t405 133.5t401 -121t131 -370v-552q0 -246 -132.5 -365t-402.5 -119z
" />
    <glyph glyph-name="IUcyrillic" unicode="&#x42e;" horiz-adv-x="1843" 
d="M1193.5 227q83.5 0 115.5 57t32 208v498q0 155 -32 213.5t-115.5 58.5t-115.5 -58.5t-32 -213.5v-498q0 -151 32 -208t115.5 -57zM1193.5 -19q-232.5 0 -356.5 129.5t-124 354.5v209h-210v-674h-335v1489h335v-569h210v97q0 229 125 360t357.5 131t356.5 -131t124 -360
v-552q0 -225 -125 -354.5t-357.5 -129.5z" />
    <glyph glyph-name="IAcyrillic" unicode="&#x42f;" horiz-adv-x="1368" 
d="M207 955v129q0 201 103 303t304 102h587v-1489h-335v538h-95l-270 -538h-346l283 564q-231 79 -231 391zM674 782h192v462h-192q-65 0 -98.5 -32.5t-33.5 -139.5v-115q0 -106 34.5 -140.5t97.5 -34.5z" />
    <glyph glyph-name="acyrillic" unicode="&#x430;" horiz-adv-x="1368" 
d="M503 -19q-149 0 -232 86q-83 85 -83 239t90 236t251 82h218v160q0 136 -120 136q-57 0 -85 -36t-47 -139l-286 46q66 345 458 345q205 0 310 -82t105 -266v-444q0 -88 44 -108t123 -5v-225q-128 -30 -228 -5t-135 148h-48q-128 -168 -335 -168zM597 186q91 0 150 65v200
h-164q-75 -1 -76 -133t90 -132z" />
    <glyph glyph-name="becyrillic" unicode="&#x431;" 
d="M612 214q60 0 86 48.5t26 143.5v192q0 88 -26 130.5t-86 42.5t-84.5 -43t-24.5 -130v-192q0 -95 24.5 -143.5t84.5 -48.5zM1061 631v-208q0 -222 -123.5 -332t-323 -110t-323 114.5t-123.5 364.5v391q0 307 120 451.5t405 179.5l290 35l21 -249l-289 -45
q-121 -19 -173 -87.5t-52 -208.5v-98h31q72 176 261 176q123 0 201 -101.5t78 -272.5z" />
    <glyph glyph-name="vecyrillic" unicode="&#x432;" 
d="M484 214h162q69 0 97 30t28 102v19q0 69 -31 98t-103 29h-153v-278zM484 667h153q58 0 83 25t25 84v26q0 61 -22.5 87.5t-76.5 26.5h-162v-249zM1085 333v-31q0 -153 -113.5 -227.5t-345.5 -74.5h-458v1117h458q220 0 327.5 -70.5t107.5 -216.5v-39q0 -183 -193 -197v-41
q217 -18 217 -220z" />
    <glyph glyph-name="gecyrillic" unicode="&#x433;" horiz-adv-x="949" 
d="M168 0v1117h713v-246h-378v-871h-335z" />
    <glyph glyph-name="decyrillic" unicode="&#x434;" horiz-adv-x="1368" 
d="M402 0v-279h-314v512h121q69 56 72 273l9 611h792v-884h139v-512h-316v279h-503zM544 233h221v651h-165l-2 -355q-2 -89 -12 -149.5t-42 -107.5v-39z" />
    <glyph glyph-name="iecyrillic" unicode="&#x435;" 
d="M503 734v-66h223v60q0 117 -24 161t-88 44t-87 -42q-24 -42 -24 -157zM168 387v348q0 189 119 295t329 106t327 -108q118 -108 118 -298v-235h-558v-108q0 -111 28 -153t95 -42q66 0 98 30t62 109l266 -72q-37 -129 -156 -203q-118 -74 -308 -74t-305 107
q-115 108 -115 298z" />
    <glyph glyph-name="zhecyrillic" unicode="&#x436;" horiz-adv-x="1368" 
d="M553 667v450h262v-450h60l138 450h275l-201 -517l198 -600h-274l-112 467h-84v-467h-262v467h-84l-112 -467h-273l201 603l-205 514h276l137 -450h60z" />
    <glyph glyph-name="zecyrillic" unicode="&#x437;" 
d="M1085 328v-32q0 -158 -116.5 -236.5t-324.5 -78.5t-327.5 98t-137.5 286l301 13q9 -104 43.5 -143.5t108.5 -39.5t101.5 39.5t27.5 104.5v18q0 69 -34 101t-109 32h-63v188h63q58 0 89.5 21.5t31.5 84.5v26q0 61 -22.5 87t-82.5 26t-88 -34t-40 -129l-303 15
q18 361 450 361q173 0 290.5 -69t117.5 -231v-35q0 -186 -193 -203v-41q217 -25 217 -229z" />
    <glyph glyph-name="iicyrillic" unicode="&#x438;" 
d="M786 0v685l-296 -685h-322v1117h277v-743l322 743h294v-1117h-275z" />
    <glyph glyph-name="iishortcyrillic" unicode="&#x439;" 
d="M786 0v685l-296 -685h-322v1117h277v-743l322 743h294v-1117h-275zM614 1290q-195 0 -297 106q-101 106 -97 306l277 18q-2 -126 23 -178t94 -52t94 52q25 54 24 178l277 -18q4 -200 -98 -306t-297 -106z" />
    <glyph glyph-name="kacyrillic" unicode="&#x43a;" horiz-adv-x="1089" 
d="M503 471v-471h-335v1117h335v-428h44l192 428h313l-274 -497l270 -620h-331l-170 471h-44z" />
    <glyph glyph-name="elcyrillic" unicode="&#x43b;" 
d="M196 222q33 0 52.5 43.5t21.5 185.5l6 666h785v-1117h-335v884h-140l-3 -458q-4 -450 -302 -450q-76 0 -208 30l29 234q61 -18 94 -18z" />
    <glyph glyph-name="emcyrillic" unicode="&#x43c;" horiz-adv-x="1368" 
d="M447 0h-279v1117h372l149 -460l145 460h367v-1117h-279v687l-125 -408h-225l-125 408v-687z" />
    <glyph glyph-name="encyrillic" unicode="&#x43d;" 
d="M168 0v1117h335v-378h223v378h335v-1117h-335v493h-223v-493h-335z" />
    <glyph glyph-name="ocyrillic" unicode="&#x43e;" 
d="M614 214q63 0 88 39q24 39 24 134v350q0 91 -24 129t-88 37q-64 0 -87 -37q-24 -37 -24 -132v-347q0 -95 24 -134t87 -39zM614 -19q-206 1 -326 107t-120 286v363q0 183 122 291t326 108t325 -107q120 -107 120 -292v-363q0 -181 -121 -287t-326 -106z" />
    <glyph glyph-name="pecyrillic" unicode="&#x43f;" 
d="M168 0v1117h893v-1117h-335v871h-223v-871h-335z" />
    <glyph glyph-name="ercyrillic" unicode="&#x440;" 
d="M702 -13q-111 0 -199 47v-406h-335v1489h335v-162h41q20 86 91 133t166 48q128 0 194 -99t66 -277v-389q0 -182 -94 -283t-265 -101zM726 372v363q0 81 -21 117t-68 36q-80 0 -134 -87v-529q71 -54 124 -54q52 0 76 37q23 37 23 117z" />
    <glyph glyph-name="escyrillic" unicode="&#x441;" 
d="M168 737q0 399 445 399q220 0 337 -101t126 -290l-322 -24q-7 106 -34 143t-97 37t-95 -35t-25 -132v-347q0 -101 25 -137t96 -36q72 0 98 38t32 145l322 -25q-8 -192 -124 -292t-338 -99t-334 103t-112 290v363z" />
    <glyph glyph-name="tecyrillic" unicode="&#x442;" horiz-adv-x="1089" 
d="M378 0v871h-279v246h893v-246h-279v-871h-335z" />
    <glyph glyph-name="ucyrillic" unicode="&#x443;" horiz-adv-x="1089" 
d="M378 -393q-107 0 -294 22l11 233q154 -21 208 -20q123 0 167 49t59 139l3 22h-251l-220 1065h323l175 -916l154 916h313l-196 -1104q-38 -210 -148 -308t-304 -98z" />
    <glyph glyph-name="efcyrillic" unicode="&#x444;" horiz-adv-x="1703" 
d="M1201 652q0 227 -114 227h-74v-643h74q114 0 114 226v190zM503 462q0 -226 113 -226h75v643h-75q-113 0 -113 -227v-190zM1115 0h-95v-372h-335v372h-97q-199 0 -309.5 121t-110.5 337v201q0 216 110.5 337t309.5 121h97v372h335v-372h95q199 0 310 -121t111 -337v-201
q0 -216 -111 -337t-310 -121z" />
    <glyph glyph-name="khacyrillic" unicode="&#x445;" horiz-adv-x="1089" 
d="M685 0l-154 287l-129 -287h-329l298 583l-287 534h327l142 -261l114 261h329l-285 -557l304 -560h-330z" />
    <glyph glyph-name="tsecyrillic" unicode="&#x446;" horiz-adv-x="1327" 
d="M910 -279v279h-742v1117h335v-871h251v871h335v-871h140v-525h-319z" />
    <glyph glyph-name="checyrillic" unicode="&#x447;" 
d="M566 320q-188 0 -293 111t-105 310v376h335v-372q0 -91 28.5 -136t92.5 -47q38 -3 102 19v536h335v-1117h-335v339q-111 -19 -160 -19z" />
    <glyph glyph-name="shacyrillic" unicode="&#x448;" horiz-adv-x="1647" 
d="M168 0v1117h316v-871h183v871h314v-871h184v871h315v-1117h-1312z" />
    <glyph glyph-name="shchacyrillic" unicode="&#x449;" horiz-adv-x="1718" 
d="M1620 -279h-317v279h-1135v1117h316v-871h183v871h314v-871h184v871h315v-871h140v-525z" />
    <glyph glyph-name="hardsigncyrillic" unicode="&#x44a;" horiz-adv-x="1368" 
d="M642 233h144q69 0 96 28.5t27 101.5v67q0 74 -27 105t-96 31h-144v-333zM836 0h-529v871h-279v246h614v-322h196q195 0 300.5 -91t105.5 -265v-89q0 -169 -105.5 -259.5t-302.5 -90.5z" />
    <glyph glyph-name="yericyrillic" unicode="&#x44b;" horiz-adv-x="1703" 
d="M503 233h100q67 0 95 29.5t28 100.5v67q0 74 -28 105t-95 31h-100v-333zM1201 1117h335v-1115l-335 -2v1117zM168 0v1117h335v-322h154q192 0 298 -94t106 -262v-89q0 -166 -107 -258t-301 -92h-485z" />
    <glyph glyph-name="softsigncyrillic" unicode="&#x44c;" 
d="M503 233h143q67 0 95 29.5t28 100.5v67q0 74 -28 105t-95 31h-143v-333zM168 0v1117h335v-322h195q194 0 300 -93t106 -263v-89q0 -168 -107 -259t-301 -91h-528z" />
    <glyph glyph-name="ereversedcyrillic" unicode="&#x44d;" 
d="M599 -19q-219 0 -329 91.5t-117 281.5l325 24q6 -108 32 -145.5t98 -37.5t95 49.5t23 166.5v73h-220v188h220v41q0 114 -23 161.5t-95 47.5t-98 -34.5t-32 -133.5l-325 24q20 182 128.5 270t322.5 88t335.5 -114.5t121.5 -319.5v-279q0 -210 -121.5 -326t-340.5 -116z
" />
    <glyph glyph-name="iucyrillic" unicode="&#x44e;" horiz-adv-x="1703" 
d="M1085.5 227q63.5 0 86.5 43t23 160v250q0 123 -23 166.5t-86.5 43.5t-86.5 -44t-23 -166v-250q0 -117 23 -160t86.5 -43zM1085.5 -19q-210.5 0 -330.5 112t-120 311v65h-132v-469h-335v1117h335v-402h132v7q0 194 120 304t331 110t330.5 -114.5t119.5 -315.5v-302
q0 -199 -120 -311t-330.5 -112z" />
    <glyph glyph-name="iacyrillic" unicode="&#x44f;" 
d="M207 711v54q0 173 85.5 262.5t249.5 89.5h519v-1117h-335v352h-54l-171 -352h-346l193 393q-141 84 -141 318zM640 570h86v327h-86q-56 0 -77 -30.5t-21 -110.5v-41q0 -82 21 -113.5t77 -31.5z" />
    <glyph glyph-name="iegravecyrillic" unicode="&#x450;" 
d="M503 734v-66h223v60q0 117 -24 161t-88 44t-87 -42q-24 -42 -24 -157zM168 387v348q0 189 119 295t329 106t327 -108q118 -108 118 -298v-235h-558v-108q0 -111 28 -153t95 -42q66 0 98 30t62 109l266 -72q-37 -129 -156 -203q-118 -74 -308 -74t-305 107
q-115 108 -115 298zM586 1303l-331 373h406l130 -373h-205z" />
    <glyph glyph-name="iocyrillic" unicode="&#x451;" 
d="M503 734v-66h223v60q0 117 -24 161t-88 44t-87 -42q-24 -42 -24 -157zM168 387v348q0 189 119 295t329 106t327 -108q118 -108 118 -298v-235h-558v-108q0 -111 28 -153t95 -42q66 0 98 30t62 109l266 -72q-37 -129 -156 -203q-118 -74 -308 -74t-305 107
q-115 108 -115 298zM959 1426q-1 -130 -155 -130t-154 130v24q0 138 154 137t155 -137v-24zM579 1426q-1 -130 -155 -130t-154 130v24q0 138 154 137t155 -137v-24z" />
    <glyph glyph-name="djecyrillic" unicode="&#x452;" 
d="M544 836q59 181 275 181q108 0 175 -93.5t67 -260.5v-669q0 -201 -118.5 -292t-261.5 -91q-96 0 -197 41l28 218q78 -38 121 -38q93 0 93 192v607q0 138 -82 138t-141 -134v-635h-335v1134h-140v175h140v180h335v-180h221v-175h-221v-298h41z" />
    <glyph glyph-name="gjecyrillic" unicode="&#x453;" horiz-adv-x="949" 
d="M363 1303l132 373h406l-331 -373h-207zM168 0v1117h713v-246h-378v-871h-335z" />
    <glyph glyph-name="ecyrillic" unicode="&#x454;" 
d="M636 -19q-226 0 -347 115.5t-121 326.5v279q0 209 121 321.5t337 112.5t323 -86.5t127 -271.5l-322 -24q-7 99 -34.5 133.5t-101.5 34.5t-94.5 -47.5t-20.5 -161.5v-48h264v-175h-264v-79q0 -117 20.5 -166.5t103.5 -49.5t101.5 38.5t25.5 144.5l322 -24
q-9 -199 -111.5 -286t-328.5 -87z" />
    <glyph glyph-name="dzecyrillic" unicode="&#x455;" 
d="M1069 334q0 -156 -117 -252t-339 -95q-133 0 -253 44t-200 101l62 199q228 -134 400 -136q134 0 132 97q0 60 -51 82t-187 62t-232 112t-96 234t107 258t295 96q125 0 234 -38t178 -83l-43 -190q-186 102 -322 102t-134 -100q0 -58 55 -87q54 -29 202 -71t229 -110
q80 -69 80 -225z" />
    <glyph glyph-name="icyrillic" unicode="&#x456;" horiz-adv-x="754" 
d="M581 1426q0 -130 -203 -130t-203 130v24q0 138 203 137t203 -137v-24zM210 0v1117h336v-1117h-336z" />
    <glyph glyph-name="yicyrillic" unicode="&#x457;" horiz-adv-x="754" 
d="M210 0v1117h336v-1117h-336zM413 1450q0 138 155 137t154 -137v-24q0 -130 -154 -130t-155 130v24zM343 1426q0 -130 -155 -130t-154 130v24q0 138 154 137t155 -137v-24z" />
    <glyph glyph-name="jecyrillic" unicode="&#x458;" horiz-adv-x="949" 
d="M264 -169q114 0 114 189v864h-220v233h555v-1123q0 -175 -109 -279t-291 -104q-108 0 -216 41l28 216q80 -37 139 -37zM343 1450q0 138 203 137t202 -137v-24q0 -74 -56 -102t-146 -28q-205 0 -203 130v24z" />
    <glyph glyph-name="ljecyrillic" unicode="&#x459;" horiz-adv-x="1787" 
d="M1061 233h144q65 0 93.5 31.5t28.5 102.5v67q0 71 -28.5 101.5t-93.5 30.5h-144v-333zM208 222q29 0 44.5 43.5t17.5 185.5l6 666h785v-322h196q194 0 300 -92t106 -264v-89q0 -168 -106.5 -259t-301.5 -91h-529v884h-140l-3 -458q-4 -450 -302 -450q-76 0 -208 30
l29 234q77 -18 106 -18z" />
    <glyph glyph-name="njecyrillic" unicode="&#x45a;" horiz-adv-x="1787" 
d="M503 493v-493h-335v1117h335v-378h223v378h335v-322h196q194 0 300 -94t106 -262v-89q0 -168 -107.5 -259t-300.5 -91h-529v493h-223zM1061 233h144q63 0 92.5 28t29.5 106v67q0 74 -29.5 103t-92.5 29h-144v-333z" />
    <glyph glyph-name="tshecyrillic" unicode="&#x45b;" 
d="M652 769q-89 0 -149 -134v-635h-335v1134h-140v175h140v180h335v-180h221v-175h-221v-298h41q63 180 277 180q108 0 174 -90q66 -92 66 -259v-667h-335v620q0 149 -74 149z" />
    <glyph glyph-name="kjecyrillic" unicode="&#x45c;" horiz-adv-x="1089" 
d="M451 1303l132 373h406l-332 -373h-206zM503 471v-471h-335v1117h335v-428h44l192 428h313l-274 -497l270 -620h-331l-170 471h-44z" />
    <glyph glyph-name="igravecyrillic" unicode="&#x45d;" 
d="M577 1303l-331 373h406l130 -373h-205zM786 0v685l-296 -685h-322v1117h277v-743l322 743h294v-1117h-275z" />
    <glyph glyph-name="ushortcyrillic" unicode="&#x45e;" horiz-adv-x="1089" 
d="M378 -393q-107 0 -294 22l11 233q154 -21 208 -20q123 0 167 49t59 139l3 22h-251l-220 1065h323l175 -916l154 916h313l-196 -1104q-38 -210 -148 -308t-304 -98zM546 1290q-195 0 -297 106q-101 106 -98 306l277 18q-2 -126 23 -178t95 -52t94 52q25 54 23 178l277 -18
q4 -200 -98 -306t-296 -106z" />
    <glyph glyph-name="dzhecyrillic" unicode="&#x45f;" 
d="M456 -279v279h-288v1117h335v-871h223v871h335v-1117h-288v-279h-317z" />
    <glyph glyph-name="Gheupturncyrillic" unicode="&#x490;" horiz-adv-x="1089" 
d="M168 0v1489h517v280h335v-525h-517v-1244h-335z" />
    <glyph glyph-name="gheupturncyrillic" unicode="&#x491;" horiz-adv-x="949" 
d="M168 0v1117h394v279h319v-525h-378v-871h-335z" />
    <glyph glyph-name="Wgrave" unicode="&#x1e80;" horiz-adv-x="1703" 
d="M815 1676l-331 372h406l130 -372h-205zM992 0l-136 817l-145 -817h-352l-234 1489h313l147 -1025l117 789h316l140 -784l143 1020h278l-237 -1489h-350z" />
    <glyph glyph-name="wgrave" unicode="&#x1e81;" horiz-adv-x="1508" 
d="M717 1303l-332 373h406l131 -373h-205zM881 0l-116 648l-113 -648h-365l-185 1117h283l123 -812l116 626h273l129 -624l115 810h265l-187 -1117h-338z" />
    <glyph glyph-name="Wacute" unicode="&#x1e82;" horiz-adv-x="1703" 
d="M653 1676l133 372h406l-332 -372h-207zM992 0l-136 817l-145 -817h-352l-234 1489h313l147 -1025l117 789h316l140 -784l143 1020h278l-237 -1489h-350z" />
    <glyph glyph-name="wacute" unicode="&#x1e83;" horiz-adv-x="1508" 
d="M555 1303l132 373h406l-332 -373h-206zM881 0l-116 648l-113 -648h-365l-185 1117h283l123 -812l116 626h273l129 -624l115 810h265l-187 -1117h-338z" />
    <glyph glyph-name="Wdieresis" unicode="&#x1e84;" horiz-adv-x="1703" 
d="M1197 1799q0 -131 -154 -131q-69 0 -112 29t-43 102v24q0 136 154 136t155 -136v-24zM817 1799q0 -131 -154 -131q-69 0 -112 29t-43 102v24q0 136 155 136t154 -136v-24zM992 0l-136 817l-145 -817h-352l-234 1489h313l147 -1025l117 789h316l140 -784l143 1020h278
l-237 -1489h-350z" />
    <glyph glyph-name="wdieresis" unicode="&#x1e85;" horiz-adv-x="1508" 
d="M789 1450q0 138 155 137t154 -137v-24q0 -130 -154 -130t-155 130v24zM719 1426q0 -130 -155 -130t-154 130v24q0 138 154 137t155 -137v-24zM881 0l-116 648l-113 -648h-365l-185 1117h283l123 -812l116 626h273l129 -624l115 810h265l-187 -1117h-338z" />
    <glyph glyph-name="Ygrave" unicode="&#x1ef2;" 
d="M782 0h-335v559l-408 930h346l235 -660l244 660h326l-408 -930v-559zM577 1676l-331 372h406l130 -372h-205z" />
    <glyph glyph-name="ygrave" unicode="&#x1ef3;" horiz-adv-x="1089" 
d="M378 -393q-107 0 -294 22l11 233q154 -21 208 -20q123 0 167 49t59 139l3 22h-251l-220 1065h323l175 -916l154 916h313l-196 -1104q-38 -210 -148 -308t-304 -98zM506 1303l-331 373h406l130 -373h-205z" />
    <glyph glyph-name="uni2000" unicode="&#x2000;" horiz-adv-x="1024" 
 />
    <glyph glyph-name="uni2001" unicode="&#x2001;" horiz-adv-x="2048" 
 />
    <glyph glyph-name="uni2002" unicode="&#x2002;" horiz-adv-x="1024" 
 />
    <glyph glyph-name="uni2003" unicode="&#x2003;" horiz-adv-x="2048" 
 />
    <glyph glyph-name="uni2004" unicode="&#x2004;" horiz-adv-x="681" 
 />
    <glyph glyph-name="uni2005" unicode="&#x2005;" horiz-adv-x="512" 
 />
    <glyph glyph-name="uni2007" unicode="&#x2007;" horiz-adv-x="1368" 
 />
    <glyph glyph-name="uni2009" unicode="&#x2009;" horiz-adv-x="340" 
 />
    <glyph glyph-name="uni200A" unicode="&#x200a;" horiz-adv-x="204" 
 />
    <glyph glyph-name="uni200B" unicode="&#x200b;" horiz-adv-x="0" 
 />
    <glyph glyph-name="endash" unicode="&#x2013;" horiz-adv-x="1452" 
d="M179 519v278h1094v-278h-1094z" />
    <glyph glyph-name="emdash" unicode="&#x2014;" horiz-adv-x="1871" 
d="M179 519v278h1513v-278h-1513z" />
    <glyph glyph-name="horizontalbar" unicode="&#x2015;" horiz-adv-x="1452" 
d="M28 519v278h1396v-278h-1396z" />
    <glyph glyph-name="underscoredbl" unicode="&#x2017;" horiz-adv-x="1312" 
d="M168 0v277h977v-277h-977zM168 -503v278h977v-278h-977z" />
    <glyph glyph-name="quoteright" unicode="&#x2019;" horiz-adv-x="1033" 
d="M240 680l125 809h441l-365 -809h-201z" />
    <glyph glyph-name="quotesinglbase" unicode="&#x201a;" horiz-adv-x="1033" 
d="M255 -307l95 810h443l-337 -810h-201z" />
    <glyph glyph-name="quotereversed" unicode="&#x201b;" horiz-adv-x="1033" 
d="M577 680l-365 809h443l123 -809h-201z" />
    <glyph glyph-name="quotedblleft" unicode="&#x201c;" horiz-adv-x="1703" 
d="M274 680l365 809h206l-123 -809h-448zM869 680l365 809h207l-125 -809h-447z" />
    <glyph glyph-name="quotedblright" unicode="&#x201d;" horiz-adv-x="1703" 
d="M263 680l124 809h447l-365 -809h-206zM858 680l123 809h449l-365 -809h-207z" />
    <glyph glyph-name="quotedblbase" unicode="&#x201e;" horiz-adv-x="1703" 
d="M263 -307l124 810h447l-365 -810h-206zM858 -307l123 810h449l-365 -810h-207z" />
    <glyph glyph-name="dagger" unicode="&#x2020;" horiz-adv-x="1452" 
d="M559 -372v1256h-151l-56 -404h-229l41 637h389l-9 372h363l-10 -372h390l42 -637h-229l-56 404h-150v-1256h-335z" />
    <glyph glyph-name="daggerdbl" unicode="&#x2021;" horiz-adv-x="1452" 
d="M559 194v729h-151l-56 -234h-229l41 467h389l-9 333h363l-10 -333h390l42 -467h-229l-56 234h-150v-729h150l56 234h229l-42 -467h-390l10 -333h-363l9 333h-389l-41 467h229l56 -234h151z" />
    <glyph glyph-name="bullet" unicode="&#x2022;" horiz-adv-x="1312" 
d="M656 439q-103 0 -168 57t-65 178v134q0 123 65 181.5t170 58.5t169.5 -58.5t64.5 -181.5v-134q0 -121 -66.5 -178t-169.5 -57z" />
    <glyph glyph-name="ellipsis" unicode="&#x2026;" horiz-adv-x="3099" 
d="M2640 179q0 -95 -64 -147t-166 -51q-102 -1 -167 51q-64 52 -65 147v128q0 97 64 149t169 52t167 -52t62 -149v-128zM1691 179q0 -95 -64 -147q-65 -52 -167 -51q-102 -1 -166 51t-65 147v128q0 97 64 149q65 52 169 52t166 -52t63 -149v-128zM741 179q0 -95 -64 -147
q-65 -52 -167 -51q-102 -1 -166 51t-65 147v128q1 97 65 149t168 52t166 -52t63 -149v-128z" />
    <glyph glyph-name="perthousand" unicode="&#x2030;" horiz-adv-x="2597" 
d="M2065 290q0 -61 23 -89t56.5 -28t56 28t22.5 89v207q0 58 -22.5 86t-56 28t-56.5 -28t-23 -86v-207zM1430 173q78 0 78 117v207q0 58 -22 86t-56 28t-57 -28t-23 -86v-207q0 -61 23 -89t57 -28zM1752 276q0 -151 -88.5 -223.5t-233.5 -72.5t-234.5 72.5t-89.5 223.5v230
q0 151 89.5 224.5t234.5 73.5t233.5 -73.5t88.5 -224.5v-230zM2467 276q0 -151 -88.5 -223.5t-233.5 -72.5t-234.5 72.5t-89.5 223.5v230q0 151 89.5 224.5t234.5 73.5t233.5 -73.5t88.5 -224.5v-230zM531 1201q0 113 -57 113t-79.5 -27.5t-22.5 -85.5v-199
q0 -112 79.5 -112t79.5 112v199zM1439 1489l-698 -1489h-296l698 1489h296zM452.5 696q-145.5 0 -235 73t-89.5 223v218q0 151 89.5 224.5t235 73.5t234 -73.5t88.5 -224.5v-218q0 -151 -88.5 -223.5t-234 -72.5z" />
    <glyph glyph-name="minute" unicode="&#x2032;" horiz-adv-x="1033" 
d="M240 680l125 809h441l-365 -809h-201z" />
    <glyph glyph-name="second" unicode="&#x2033;" horiz-adv-x="1703" 
d="M263 680l124 809h447l-365 -809h-206zM858 680l123 809h449l-365 -809h-207z" />
    <glyph glyph-name="guilsinglleft" unicode="&#x2039;" horiz-adv-x="1033" 
d="M825 82l-615 411v317l615 411v-281l-430 -288l430 -289v-281z" />
    <glyph glyph-name="guilsinglright" unicode="&#x203a;" horiz-adv-x="1033" 
d="M210 82v281l430 289l-430 288v281l615 -411v-317z" />
    <glyph glyph-name="exclamdbl" unicode="&#x203c;" horiz-adv-x="1591" 
d="M1404 138q0 -157 -232 -157t-232 157v52q0 160 232 160t232 -160v-52zM1007 559l-41 930h391l-43 -930h-307zM650 138q0 -157 -232 -157t-232 157v52q0 160 232 160t232 -160v-52zM253 559l-41 930h391l-43 -930h-307z" />
    <glyph glyph-name="overline" unicode="&#x203e;" horiz-adv-x="1312" 
d="M168 1584v278h977v-278h-977z" />
    <glyph glyph-name="fraction" unicode="&#x2215;" horiz-adv-x="592" 
d="M-112 0l559 1489h257l-559 -1489h-257z" />
    <glyph glyph-name="fraction" unicode="&#x2044;" horiz-adv-x="592" 
d="M-112 0l559 1489h257l-559 -1489h-257z" />
    <glyph glyph-name="zero.sups" unicode="&#x2070;" horiz-adv-x="893" 
d="M445 724q52 0 69.5 47.5t17.5 192.5v121q0 147 -17.5 196.5t-69.5 49.5t-69 -49t-17 -197v-121q0 -145 17 -192.5t69 -47.5zM445 555q-156 0 -243 100.5t-87 284.5v170q0 184 87.5 287.5t244 103.5t243 -103.5t86.5 -287.5v-170q0 -184 -87.5 -284.5t-243.5 -100.5z" />
    <glyph glyph-name="four.sups" unicode="&#x2074;" horiz-adv-x="893" 
d="M827 789h-129v-223h-246v223h-353v170l314 530h285v-530h129v-170zM452 959v257l-154 -257h154z" />
    <glyph glyph-name="five.sups" unicode="&#x2075;" horiz-adv-x="893" 
d="M455 555q-185 0 -268 69t-88 238l245 11q7 -84 30.5 -116.5t84.5 -32.5t71 30t10 101v29q0 63 -24 90.5t-138 27.5h-255v487h642v-169h-396v-138h123q151 0 221.5 -62t70.5 -191v-112q0 -110 -72 -186t-257 -76z" />
    <glyph glyph-name="six.sups" unicode="&#x2076;" horiz-adv-x="893" 
d="M446 724q53 0 72.5 34.5t19.5 86.5v15q0 65 -17.5 101.5t-76.5 36.5t-75.5 -36.5t-16.5 -101.5v-15q0 -63 20.5 -92t73.5 -29zM784 843q0 -288 -339 -288t-339 329v278q0 179 81 259t248 80t245 -60t96 -192l-251 -28q-13 73 -35 91.5t-64 18.5t-58 -34.5t-16 -134.5v-95
h5q41 76 178 76q136 0 192.5 -65t56.5 -210v-25z" />
    <glyph glyph-name="seven.sups" unicode="&#x2077;" horiz-adv-x="893" 
d="M106 1309v180h678v-180q-71 -194 -138 -365t-114 -378h-253q63 248 124.5 408t136.5 335h-434z" />
    <glyph glyph-name="eight.sups" unicode="&#x2078;" horiz-adv-x="893" 
d="M445 722q50 0 72.5 27t22.5 87v26q0 63 -22.5 90t-72.5 27t-71.5 -27t-21.5 -90v-26q0 -60 21.5 -87t71.5 -27zM445 1123q41 0 59.5 20.5t18.5 66.5v36q0 47 -18.5 67t-59.5 20t-58.5 -20.5t-17.5 -66.5v-36q0 -47 17.5 -67t58.5 -20zM784 817q0 -262 -339 -262t-339 262
v26q0 178 153 192v34q-136 18 -136 160v37q0 235 321 235t321 -235v-37q0 -142 -132 -160v-34q151 -18 151 -192v-26z" />
    <glyph glyph-name="nine.sups" unicode="&#x2079;" horiz-adv-x="893" 
d="M352 912q-246 0 -246 276v24q0 136 89.5 212.5t250.5 76.5t249.5 -87t88.5 -243v-277q0 -175 -82 -257t-248 -82t-243 58.5t-96 192.5l252 28q11 -73 34 -91.5t67 -18.5t58 31t14 139v95h-15q-46 -77 -173 -77zM447 1331q-95 0 -95 -121v-15q0 -65 17.5 -101t76.5 -36
t76.5 36t17.5 101v15q0 63 -20.5 92t-72.5 29z" />
    <glyph glyph-name="nsuperior" unicode="&#x207f;" horiz-adv-x="1089" 
d="M635 1160q0 134 -56 134q-40 0 -76 -47.5t-49 -75.5v-611h-286v931h286v-126h45q46 143 204 143t188.5 -127.5t30.5 -205.5v-615h-287v600z" />
    <glyph glyph-name="zero.sinf" unicode="&#x2080;" horiz-adv-x="893" 
d="M445 158q52 0 70 48t17 192v121q0 147 -17 197q-18 49 -70 49t-69 -49t-17 -197v-121q0 -144 17 -192t69 -48zM445 -11q-156 1 -243 101t-87 284v170q0 184 88 287t244 103t243 -102q87 -104 86 -288v-170q0 -184 -87 -285q-88 -100 -244 -100z" />
    <glyph glyph-name="one.sinf" unicode="&#x2081;" horiz-adv-x="893" 
d="M177 0v182h190v531h-34q-7 -80 -57 -125t-108 -50l-10 179q69 13 128 70t83 136h242v-741h173v-182h-607z" />
    <glyph glyph-name="two.sinf" unicode="&#x2082;" horiz-adv-x="893" 
d="M106 0v214q0 218 164 263l171 46q48 13 69 38q20 25 21 83v17q0 63 -20 83q-21 20 -67 21q-46 0 -64 -24t-21 -108l-244 13q6 143 85 216t245 73t249 -72t82 -206v-43q0 -106 -44 -168t-118 -81l-169 -47q-61 -15 -77 -35t-16 -67v-34h432v-182h-678z" />
    <glyph glyph-name="three.sinf" unicode="&#x2083;" horiz-adv-x="893" 
d="M784 253q0 -134 -80 -199t-252 -65q-342 0 -353 281l245 11q4 -63 26 -87t77 -24q53 0 73 19q20 20 20 74v29q0 58 -16 78t-60 21h-192v179h192q35 0 47 18t12 64v18q0 48 -18 66q-19 18 -63 18t-62 -19t-21 -68l-244 11q6 130 85 193t236 64q329 0 329 -231v-21
q0 -156 -119 -180v-34q136 -18 138 -197v-19z" />
    <glyph glyph-name="four.sinf" unicode="&#x2084;" horiz-adv-x="893" 
d="M827 223h-129v-223h-246v223h-353v170l314 530h285v-530h129v-170zM452 393v257l-154 -257h154z" />
    <glyph glyph-name="five.sinf" unicode="&#x2085;" horiz-adv-x="893" 
d="M455 -11q-185 0 -268 69t-88 238l245 11q6 -85 30 -117t85 -32t71 30t10 101v29q0 62 -24 90t-138 28h-255v487h642v-169h-396v-138h123q152 0 222 -62t70 -191v-112q0 -110 -72 -186t-257 -76z" />
    <glyph glyph-name="six.sinf" unicode="&#x2086;" horiz-adv-x="893" 
d="M445 158q95 0 93 121v15q0 66 -18 102t-76 36t-76 -36q-16 -36 -16 -102v-15q0 -63 20 -92t73 -29zM784 277q0 -288 -339 -288t-339 329v278q0 179 81 259t248 80t245 -60t96 -192l-251 -28q-13 73 -34 92t-64 19t-59 -35q-16 -34 -16 -135v-95h5q19 37 71 57t118 19
q126 0 182 -65t56 -210v-25z" />
    <glyph glyph-name="seven.sinf" unicode="&#x2087;" horiz-adv-x="893" 
d="M106 743v180h678v-180q-71 -194 -138 -365t-114 -378h-253q63 248 125 408q61 160 136 335h-434z" />
    <glyph glyph-name="eight.sinf" unicode="&#x2088;" horiz-adv-x="893" 
d="M445 156q50 0 73 27q22 27 22 87v26q0 63 -22 90t-72 27t-72 -27t-22 -90v-26q0 -60 22 -87t71 -27zM445 557q41 0 60 20t18 67v36q0 47 -18 67q-19 20 -60 20t-59 -20t-17 -67v-36q-1 -47 17 -67t59 -20zM784 251q0 -262 -339 -262t-339 262v26q0 176 153 192v34
q-138 18 -136 160v37q0 235 321 235t321 -235v-37q0 -142 -132 -160v-34q151 -18 151 -192v-26z" />
    <glyph glyph-name="nine.sinf" unicode="&#x2089;" horiz-adv-x="893" 
d="M106 622v24q0 136 89 212t251 76t249 -86q88 -87 89 -243v-277q0 -175 -82 -257t-248 -82t-244 58q-76 59 -95 193l252 28q11 -74 34 -92t67 -18t58 31t14 139v95h-15q-46 -77 -173 -77q-246 0 -246 276zM352 629q0 -65 18 -101t76 -36t76 36t18 101v15q0 63 -20 92
t-74 29q-94 0 -94 -121v-15z" />
    <glyph glyph-name="franc" unicode="&#x20a3;" 
d="M685 279h-182v-279h-335v279h-140v207h140v1003h921v-245h-586v-274h489v-246h-489v-238h182v-207z" />
    <glyph glyph-name="lira" unicode="&#x20a4;" horiz-adv-x="1368" 
d="M890 313q14 48 24 188l335 -19q-18 -365 -175.5 -433t-238.5 -68t-150 32q-17 8 -103 55q-87 47 -138 55t-98 -28l-128 -112l-127 198l162 111q99 84 121 231h-223v175h195q-4 10 -16 39q-11 29 -15 36t-13 24t-14 32q-5 14 -9.5 25.5t-8.5 22.5h-119v175h82v7
q0 208 127 329q127 120 351 120q367 0 431 -180.5t70 -309.5l-335 -18q-8 127 -37 182q-39 62 -119 62q-79 0 -120 -52q-31 -47 -31 -136v-4h195v-175h-149q65 -130 78 -179h71v-175h-61q-39 -93 -233 -190l30 -59q116 65 177 38q26 -11 66.5 -33t81.5 -22q42 0 64 56z" />
    <glyph glyph-name="peseta" unicode="&#x20a7;" horiz-adv-x="1731" 
d="M1108 857q0 7 7 46h-98v-514q0 -144 11.5 -165t21.5 -21t56 9t50 17v2h1l10 28q52 -38 97.5 -51t62.5 -13q66 0 66 97q0 49 -41 99q-19 20 -56.5 55.5t-61.5 57.5q-126 120 -126 288v65zM1322 840q0 -82 32 -123t43.5 -53t79.5 -77t100 -130q32 -64 32 -146
q0 -153 -71 -246q-72 -84 -201 -84q-60 0 -138 32q-6 -4 -11 -5l-60 -14q-44 -11 -89 -11q-103 0 -171.5 99t-68.5 309v516l-64 9v-26q0 -393 -316 -393h-73v-497h-216v1489h291q302 0 314 -372h64v372h218v-372h165v-59q70 78 168 78q107 0 221 -90l-63 -188
q-73 64 -129 64q-57 0 -57 -82zM519 1065q0 207 -100 207h-73v-563h73q100 0 100 209v147z" />
    <glyph glyph-name="Euro" unicode="&#x20ac;" horiz-adv-x="1368" 
d="M735 -19q-255 0 -383.5 128.5t-128.5 355.5v4h-139v171h139v205h-139v172h139v3q0 227 129.5 357.5t383.5 130.5t378 -126.5t135 -389.5l-316 -18q-13 181 -52 241t-145 60t-150 -52t-44 -203v-3h221v-172h-223v-205h223v-171h-221v-4q0 -151 44.5 -201t150.5 -50
t144.5 58.5t51.5 235.5l316 -18q-11 -261 -135 -385t-379 -124z" />
    <glyph glyph-name="careof" unicode="&#x2105;" horiz-adv-x="1982" 
d="M1495 607q-65 0 -65 -117v-201q0 -114 91 -114t91 114v201q0 56 -24 89q-28 28 -93 28zM1429 -22q-176 0 -227 109.5t-51 184.5v233q0 148 100 225q103 72 272 72t268 -72q101 -78 101 -225v-233q0 -220 -143.5 -257t-319.5 -37zM89 990v220q0 218 144.5 258t229.5 40
q271 0 320 -101.5t47 -173.5l-279 -34q4 59 -20 89t-93 30t-69 -117v-201q0 -60 26 -86q21 -28 67 -28t67 28q26 26 22 88l279 -21q4 -140 -98 -212q-102 -73 -273 -73q-172 0 -267 73q-103 72 -103 221zM495 0l698 1489h296l-698 -1489h-296z" />
    <glyph glyph-name="lsquare" unicode="&#x2113;" horiz-adv-x="977" 
d="M552.5 235q74.5 0 231.5 89l-6 -244q-111 -50 -177 -66q-321 -81 -461 83q-103 115 -73 316l99 795q18 147 136 223q118 77 294 77t262 -76t64 -235l-60 -439q-18 -145 -110 -222q-91 -71 -220 -71q-66 0 -121 17l-5 -54q-12 -94 10 -132q22 -39 42 -50t94.5 -11z
M579 1248q-15 14 -33 14q-40 0 -56 -132l-45 -339q-9 -69 0 -91q9 -28 32 -28t35 22q16 40 24 103l45 337q13 100 -2 114z" />
    <glyph glyph-name="numero" unicode="&#x2116;" horiz-adv-x="2122" 
d="M451 0h-283v1489h387l225 -1066v1066h281v-1489h-415l-195 925v-925zM1578.5 775q46.5 0 60.5 40t14 135v162q0 84 -14 125.5t-60.5 41.5t-61.5 -43t-15 -128v-158q0 -95 15 -135t61.5 -40zM1578 546q-157 0 -267 100.5t-110 308.5v136q0 210 110.5 313.5t268.5 103.5
t266.5 -103.5t108.5 -313.5v-136q0 -209 -110 -309t-267 -100z" />
    <glyph glyph-name="uni2117" unicode="&#x2117;" horiz-adv-x="1926" 
d="M936 659h58q48 0 69 27t21 94v71q0 76 -20.5 107.5t-69.5 31.5h-58v-331zM635 203v987h359q188 0 289.5 -87.5t101.5 -251.5v-71q0 -151 -101.5 -233t-289.5 -82h-58v-262h-301zM964.5 -93q303.5 0 431 138.5t127.5 470.5v339q0 335 -127.5 475.5t-431 140.5t-431 -140.5
t-127.5 -475.5v-339q0 -331 127.5 -470t431 -139zM964.5 -205q-346.5 0 -511 172.5t-164.5 537.5v361q0 369 164.5 543t511 174t510 -174.5t163.5 -542.5v-361q0 -365 -163.5 -537.5t-510 -172.5z" />
    <glyph glyph-name="trademark" unicode="&#x2122;" horiz-adv-x="2206" 
d="M1294 627h-218v862h246l147 -463l143 463h252v-862h-218l-2 466l-99 -304h-158l-93 283v-445zM506 627v691h-240v171h693v-171h-225v-691h-228z" />
    <glyph glyph-name="Ohm" unicode="&#x2126;" horiz-adv-x="1312" 
d="M1244 765q0 -270 -183 -391v-167h144v-207h-479v428q106 30 144 116t39 221v201q0 156 -59 226t-193 70q-135 0 -193 -70t-58 -226v-201q0 -135 37 -221t143 -116v-428h-476v207h141v167q-182 120 -180 391v201q0 268 148 405t438 137q291 0 439 -137t148 -405v-201z" />
    <glyph glyph-name="estimated" unicode="&#x212e;" horiz-adv-x="1452" 
d="M722 1387q-95 0 -168.5 -41t-117.5 -112v-433h571v428q-111 158 -285 158zM166 750q0 316 149 541.5t411 225.5t407.5 -256.5t149.5 -608.5h-847v-391q98 -153 283 -153q286 0 422 290l69 -111q-153 -309 -491 -309q-249 0 -401 228t-152 544z" />
    <glyph glyph-name="oneeighth" unicode="&#x215b;" horiz-adv-x="2267" 
d="M1819 156q50 0 73 27q22 27 22 87v26q0 63 -22 90t-72 27t-72 -27t-22 -90v-26q0 -60 22 -87t71 -27zM1819 557q41 0 60 20t18 67v36q0 47 -18 67q-19 20 -60 20t-59 -20t-17 -67v-36q-1 -47 17 -67t59 -20zM2158 251q0 -262 -339 -262t-339 262v26q0 176 153 192v34
q-138 18 -136 160v37q0 235 321 235t321 -235v-37q0 -142 -132 -160v-34q151 -18 151 -192v-26zM177 566v182h190v531h-34q-7 -80 -57 -125t-108 -50l-10 179q69 13 128 70t83 136h242v-741h173v-182h-607zM726 0l559 1489h257l-559 -1489h-257z" />
    <glyph glyph-name="threeeighths" unicode="&#x215c;" horiz-adv-x="2267" 
d="M1819 156q50 0 73 27q22 27 22 87v26q0 63 -22 90t-72 27t-72 -27t-22 -90v-26q0 -60 22 -87t71 -27zM1819 557q41 0 60 20t18 67v36q0 47 -18 67q-19 20 -60 20t-59 -20t-17 -67v-36q-1 -47 17 -67t59 -20zM2158 251q0 -262 -339 -262t-339 262v26q0 176 153 192v34
q-138 18 -136 160v37q0 235 321 235t321 -235v-37q0 -142 -132 -160v-34q151 -18 151 -192v-26zM726 0l559 1489h257l-559 -1489h-257zM784 819q0 -134 -80 -199t-252 -65q-342 0 -353 281l245 11q4 -63 26 -87t77 -24q53 0 73 19q20 20 20 74v29q0 58 -16 78t-60 21h-192
v179h192q35 0 47 18t12 64v18q0 48 -18 66q-19 18 -63 18t-62 -19t-21 -68l-244 11q6 130 85 193t236 64q329 0 329 -231v-21q0 -156 -119 -180v-34q136 -18 138 -197v-19z" />
    <glyph glyph-name="fiveeighths" unicode="&#x215d;" horiz-adv-x="2267" 
d="M1819 156q50 0 73 27q22 27 22 87v26q0 63 -22 90t-72 27t-72 -27t-22 -90v-26q0 -60 22 -87t71 -27zM1819 557q41 0 60 20t18 67v36q0 47 -18 67q-19 20 -60 20t-59 -20t-17 -67v-36q-1 -47 17 -67t59 -20zM2158 251q0 -262 -339 -262t-339 262v26q0 176 153 192v34
q-138 18 -136 160v37q0 235 321 235t321 -235v-37q0 -142 -132 -160v-34q151 -18 151 -192v-26zM455 555q-185 0 -268 69t-88 238l245 11q6 -85 30 -117t85 -32t71 30t10 101v29q0 62 -24 90t-138 28h-255v487h642v-169h-396v-138h123q152 0 222 -62t70 -191v-112
q0 -110 -72 -186t-257 -76zM726 0l559 1489h257l-559 -1489h-257z" />
    <glyph glyph-name="seveneighths" unicode="&#x215e;" horiz-adv-x="2267" 
d="M1819 156q50 0 73 27q22 27 22 87v26q0 63 -22 90t-72 27t-72 -27t-22 -90v-26q0 -60 22 -87t71 -27zM1819 557q41 0 60 20t18 67v36q0 47 -18 67q-19 20 -60 20t-59 -20t-17 -67v-36q-1 -47 17 -67t59 -20zM2158 251q0 -262 -339 -262t-339 262v26q0 176 153 192v34
q-138 18 -136 160v37q0 235 321 235t321 -235v-37q0 -142 -132 -160v-34q151 -18 151 -192v-26zM106 1309v180h678v-180q-71 -194 -138 -365t-114 -378h-253q63 248 125 408q61 160 136 335h-434zM726 0l559 1489h257l-559 -1489h-257z" />
    <glyph glyph-name="arrowleft" unicode="&#x2190;" horiz-adv-x="1787" 
d="M923 1415v-512h628v-317h-628v-512h-27l-658 652v37l658 652h27z" />
    <glyph glyph-name="arrowup" unicode="&#x2191;" horiz-adv-x="1312" 
d="M488 -65v838h-384v37l538 745h28l536 -745v-37h-383v-838h-335z" />
    <glyph glyph-name="arrowright" unicode="&#x2192;" horiz-adv-x="1787" 
d="M866 74v512h-628v317h628v512h28l657 -652v-37l-657 -652h-28z" />
    <glyph glyph-name="arrowdown" unicode="&#x2193;" horiz-adv-x="1312" 
d="M104 717h384v838h335v-838h383v-37l-536 -745h-28l-538 745v37z" />
    <glyph glyph-name="arrowboth" unicode="&#x2194;" horiz-adv-x="2066" 
d="M825 586v-512h-28l-559 652v37l559 652h28v-512h419v512h28l558 -652v-37l-558 -652h-28v512h-419z" />
    <glyph glyph-name="arrowupdn" unicode="&#x2195;" horiz-adv-x="1703" 
d="M300 465h385v559h-385v37l538 680h28l538 -680v-37h-384v-559h384v-37l-538 -679h-28l-538 679v37z" />
    <glyph glyph-name="arrowupdnbse" unicode="&#x21a8;" horiz-adv-x="1703" 
d="M363 -447v257h426l-489 618v37h385v559h-385v37l538 680h28l538 -680v-37h-384v-559h384v-37l-490 -618h427v-257h-978z" />
    <glyph glyph-name="partialdiff" unicode="&#x2202;" 
d="M594.5 212q56.5 0 73.5 71t21 121l18 117q24 172 -77 172t-118 -63.5t-22 -108.5l-19 -117q-12 -148 27.5 -170t96 -22zM864 89q-134 -108 -340 -108t-306 108q-104 117 -75 332l10 108q22 177 124 288q104 108 246 108q83 0 134 -38t65 -98h28q8 199 -85 315
q-89 107 -347 205l263 212q290 -106 406 -302q112 -195 74 -534l-28 -253q-30 -226 -169 -343z" />
    <glyph glyph-name="Delta#1" unicode="&#x2206;" horiz-adv-x="1172" 
d="M793 246l-216 1005l-233 -1005h449zM65 0v246l285 1243h499l261 -1243v-246h-1045z" />
    <glyph glyph-name="product" unicode="&#x220f;" horiz-adv-x="1368" 
d="M168 -372v1861h1033v-1861h-335v1616h-363v-1616h-335z" />
    <glyph glyph-name="summation" unicode="&#x2211;" 
d="M1089 -127v-245h-962v245l571 702l-571 669v245h962v-245h-648l475 -557v-197l-484 -617h657z" />
    <glyph glyph-name="minus" unicode="&#x2212;" horiz-adv-x="1312" 
d="M168 523v257h977v-257h-977z" />
    <glyph glyph-name="radical" unicode="&#x221a;" 
d="M499 0l-192 674l-208 -35v236l396 56l168 -674l220 1419h286l-300 -1676h-370z" />
    <glyph glyph-name="infinity" unicode="&#x221e;" horiz-adv-x="1452" 
d="M460 1061q-93 -1 -93 -317t95 -316q85 0 160 248q-45 217 -78 307q-34 78 -84 78zM1087 745q-7 316 -95 316q-66 0 -104.5 -96.5t-57.5 -154.5q42 -225 79 -304q31 -78 83 -78q66 0 80.5 116.5t14.5 200.5zM411 184q-56 0 -114.5 40t-100.5 114q-86 153 -86 409t95 405
q93 153 253 153q109 0 184 -74t125 -226q54 153 117 229q65 71 140 71q145 0 235 -154q85 -153 85 -407t-96.5 -407t-258.5 -153q-107 0 -179 72t-123 224q-55 -152 -115 -225q-61 -71 -161 -71z" />
    <glyph glyph-name="orthogonal" unicode="&#x221f;" horiz-adv-x="1117" 
d="M128 0v1303h336v-1044h541v-259h-877z" />
    <glyph glyph-name="intersection" unicode="&#x2229;" horiz-adv-x="1508" 
d="M277 0v827q0 228 127 365q126 130 350 130t352 -130q127 -135 127 -365v-827h-336v808q1 140 -21 187q-22 48 -50.5 64.5t-92.5 16.5t-92 -65t-28 -207v-804h-336z" />
    <glyph glyph-name="integral" unicode="&#x222b;" 
d="M897 1326q-115 0 -115 -211v-1104q0 -186 -111 -289.5t-302 -103.5q-103 0 -205 43l28 212q78 -35 138 -35q117 0 117 210v1104q0 187 109 290t302 103q112 0 205 -43l-28 -212q-80 36 -138 36z" />
    <glyph glyph-name="approxequal" unicode="&#x2248;" horiz-adv-x="1312" 
d="M961 413v146h244v-159q0 -209 -87 -321q-87 -111 -249 -111t-268 203q-66 131 -91 159q-24 29 -41.5 36.5t-40.5 7.5q-76 0 -76 -201v-147h-242v158q0 202 85 321q85 111 239 111q93 0 141 -36q81 -60 126 -147q73 -143 111 -184q29 -37 74 -37q75 0 75 201zM886 957
q75 0 75 201v145h244v-158q0 -205 -87 -318.5t-229 -113.5t-201 74.5t-105 161.5t-72 120q-27 33 -43.5 40.5t-39.5 7.5q-76 0 -76 -199v-147h-242v158q0 201 85 320q86 112 239 112q173 0 268 -185q73 -141 110 -182q29 -37 74 -37z" />
    <glyph glyph-name="notequal" unicode="&#x2260;" horiz-adv-x="1312" 
d="M1145 328h-458l-61 -328h-218l61 328h-301v244h348l65 350h-413v243h458l61 324h218l-62 -324h302v-243h-346l-65 -350h411v-244z" />
    <glyph glyph-name="equivalence" unicode="&#x2261;" horiz-adv-x="1312" 
d="M168 56v257h977v-257h-977zM168 510v257h977v-257h-977zM168 964v257h977v-257h-977z" />
    <glyph glyph-name="lessequal" unicode="&#x2264;" horiz-adv-x="1312" 
d="M238 0v227h838v-227h-838zM1076 372l-838 401v316l838 400v-255l-635 -303l635 -304v-255z" />
    <glyph glyph-name="greaterequal" unicode="&#x2265;" horiz-adv-x="1312" 
d="M1076 0h-838v227h838v-227zM238 372v255l635 304l-635 303v255l838 -400v-316z" />
    <glyph glyph-name="logicalnotreversed" unicode="&#x2310;" horiz-adv-x="1312" 
d="M168 0v784h977v-257h-721v-527h-256z" />
    <glyph glyph-name="integralbt" unicode="&#x2321;" horiz-adv-x="1033" 
d="M311 -162q136 0 136 210v1441h335v-1478q0 -181 -111 -287t-302 -106q-103 0 -205 43l28 212q78 -35 119 -35z" />
    <glyph glyph-name="uni23af" unicode="&#x23af;" horiz-adv-x="1452" 
d="M-238 586v317h1929v-317h-1929z" />
    <glyph glyph-name="lighthorzbxd" unicode="&#x2500;" horiz-adv-x="2048" 
d="M-37 652h2122v-187h-2122v187z" />
    <glyph glyph-name="heavyhorzbxd" unicode="&#x2501;" horiz-adv-x="2048" 
d="M-37 745h2122v-373h-2122v373z" />
    <glyph glyph-name="lightvertbxd" unicode="&#x2502;" horiz-adv-x="2048" 
d="M931 1955h186v-2793h-186v2793z" />
    <glyph glyph-name="heavyvertbxd" unicode="&#x2503;" horiz-adv-x="2048" 
d="M838 1955h372v-2793h-372v2793z" />
    <glyph glyph-name="lighttrpldashhorzbxd" unicode="&#x2504;" horiz-adv-x="2048" 
d="M1476 652h455v-187h-455v187zM795 652h454v-187h-454v187zM114 652h454v-187h-454v187z" />
    <glyph glyph-name="heavytrpldashhorzbxd" unicode="&#x2505;" horiz-adv-x="2048" 
d="M1476 745h455v-373h-455v373zM795 745h454v-373h-454v373zM114 745h454v-373h-454v373z" />
    <glyph glyph-name="lighttrpldashvertbxd" unicode="&#x2506;" horiz-adv-x="2048" 
d="M931 2147h186v-455h-186v455zM931 1465h186v-454h-186v454zM931 784h186v-454h-186v454zM931 102h186v-454h-186v454z" />
    <glyph glyph-name="heavytrpldashvertbxd" unicode="&#x2507;" horiz-adv-x="2048" 
d="M838 2147h372v-455h-372v455zM838 1465h372v-454h-372v454zM838 784h372v-454h-372v454zM838 102h372v-454h-372v454z" />
    <glyph glyph-name="lightquaddashhorzbxd" unicode="&#x2508;" horiz-adv-x="2048" 
d="M1599 652h386v-187h-386v187zM1087 652h386v-187h-386v187zM575 652h386v-187h-386v187zM63 652h386v-187h-386v187z" />
    <glyph glyph-name="heavyquaddashhorzbxd" unicode="&#x2509;" horiz-adv-x="2048" 
d="M1599 745h386v-373h-386v373zM1087 745h386v-373h-386v373zM575 745h386v-373h-386v373zM63 745h386v-373h-386v373z" />
    <glyph glyph-name="lightquaddashvertbxd" unicode="&#x250a;" horiz-adv-x="2048" 
d="M931 1519h186v-385h-186v385zM931 1007h186v-385h-186v385zM931 495h186v-385h-186v385zM931 -17h186v-385h-186v385z" />
    <glyph glyph-name="heavyquaddashvertbxd" unicode="&#x250b;" horiz-adv-x="2048" 
d="M838 1519h372v-385h-372v385zM838 1007h372v-385h-372v385zM838 495h372v-385h-372v385zM838 -17h372v-385h-372v385z" />
    <glyph glyph-name="lightdnrightbxd" unicode="&#x250c;" horiz-adv-x="2048" 
d="M931 652h1154v-187h-968v-1303h-186v1490z" />
    <glyph glyph-name="dnlightrightheavybxd" unicode="&#x250d;" horiz-adv-x="2048" 
d="M931 745h1154v-373h-968v-1210h-186v1583z" />
    <glyph glyph-name="dnheavyrightlightbxd" unicode="&#x250e;" horiz-adv-x="2048" 
d="M838 652h1247v-187h-875v-1303h-372v1490z" />
    <glyph glyph-name="heavydnrightbxd" unicode="&#x250f;" horiz-adv-x="2048" 
d="M838 745h1247v-373h-875v-1210h-372v1583z" />
    <glyph glyph-name="lightdnleftbxd" unicode="&#x2510;" horiz-adv-x="2048" 
d="M-37 652h1154v-1490h-186v1303h-968v187z" />
    <glyph glyph-name="dnlightleftheavybxd" unicode="&#x2511;" horiz-adv-x="2048" 
d="M-37 745h1154v-1583h-186v1210h-968v373z" />
    <glyph glyph-name="dnheavyleftlightbxd" unicode="&#x2512;" horiz-adv-x="2048" 
d="M-37 652h1247v-1490h-372v1303h-875v187z" />
    <glyph glyph-name="heavydnleftbxd" unicode="&#x2513;" horiz-adv-x="2048" 
d="M-37 745h1247v-1583h-372v1210h-875v373z" />
    <glyph glyph-name="lightuprightbxd" unicode="&#x2514;" horiz-adv-x="2048" 
d="M931 1955h186v-1303h968v-187h-1154v1490z" />
    <glyph glyph-name="uplightrightheavybxd" unicode="&#x2515;" horiz-adv-x="2048" 
d="M931 1955h186v-1210h968v-373h-1154v1583z" />
    <glyph glyph-name="upheavyrightlightbxd" unicode="&#x2516;" horiz-adv-x="2048" 
d="M838 1955h372v-1303h875v-187h-1247v1490z" />
    <glyph glyph-name="heavyuprightbxd" unicode="&#x2517;" horiz-adv-x="2048" 
d="M838 1955h372v-1210h875v-373h-1247v1583z" />
    <glyph glyph-name="lightupleftbxd" unicode="&#x2518;" horiz-adv-x="2048" 
d="M-37 652h968v1303h186v-1490h-1154v187z" />
    <glyph glyph-name="uplightleftheavybxd" unicode="&#x2519;" horiz-adv-x="2048" 
d="M-37 745h968v1210h186v-1583h-1154v373z" />
    <glyph glyph-name="upheavyleftlightbxd" unicode="&#x251a;" horiz-adv-x="2048" 
d="M-37 652h875v1303h372v-1490h-1247v187z" />
    <glyph glyph-name="heavyupleftbxd" unicode="&#x251b;" horiz-adv-x="2048" 
d="M-37 745h875v1210h372v-1583h-1247v373z" />
    <glyph glyph-name="lightvertrightbxd" unicode="&#x251c;" horiz-adv-x="2048" 
d="M931 1955h186v-1303h968v-187h-968v-1303h-186v2793z" />
    <glyph glyph-name="vertlightrightheavybxd" unicode="&#x251d;" horiz-adv-x="2048" 
d="M931 1955h186v-1210h968v-373h-968v-1210h-186v2793z" />
    <glyph glyph-name="upheavyrightdnlightbxd" unicode="&#x251e;" horiz-adv-x="2048" 
d="M838 1955h372v-1303h875v-187h-968v-1303h-186v1303h-93v1490z" />
    <glyph glyph-name="dnheavyrightuplightbxd" unicode="&#x251f;" horiz-adv-x="2048" 
d="M838 652h93v1303h186v-1303h968v-187h-875v-1303h-372v1490z" />
    <glyph glyph-name="vertheavyrightlightbxd" unicode="&#x2520;" horiz-adv-x="2048" 
d="M838 1955h372v-1303h875v-187h-875v-1303h-372v2793z" />
    <glyph glyph-name="dnlightrightupheavybxd" unicode="&#x2521;" horiz-adv-x="2048" 
d="M838 1955h372v-1210h875v-373h-968v-1210h-186v1210h-93v1583z" />
    <glyph glyph-name="uplightrightdnheavybxd" unicode="&#x2522;" horiz-adv-x="2048" 
d="M838 745h93v1210h186v-1210h968v-373h-875v-1210h-372v1583z" />
    <glyph glyph-name="heavyvertrightbxd" unicode="&#x2523;" horiz-adv-x="2048" 
d="M838 1955h372v-1210h875v-373h-875v-1210h-372v2793z" />
    <glyph glyph-name="lightvertleftbxd" unicode="&#x2524;" horiz-adv-x="2048" 
d="M-37 652h968v1303h186v-2793h-186v1303h-968v187z" />
    <glyph glyph-name="vertlightleftheavybxd" unicode="&#x2525;" horiz-adv-x="2048" 
d="M-37 745h968v1210h186v-2793h-186v1210h-968v373z" />
    <glyph glyph-name="upheavyleftdnlightbxd" unicode="&#x2526;" horiz-adv-x="2048" 
d="M-37 652h875v1303h372v-1490h-93v-1303h-186v1303h-968v187z" />
    <glyph glyph-name="dnheavyleftuplightbxd" unicode="&#x2527;" horiz-adv-x="2048" 
d="M-37 652h968v1303h186v-1303h93v-1490h-372v1303h-875v187z" />
    <glyph glyph-name="vertheavyleftlightbxd" unicode="&#x2528;" horiz-adv-x="2048" 
d="M-37 652h875v1303h372v-2793h-372v1303h-875v187z" />
    <glyph glyph-name="dnlightleftupheavybxd" unicode="&#x2529;" horiz-adv-x="2048" 
d="M-37 745h875v1210h372v-1583h-93v-1210h-186v1210h-968v373z" />
    <glyph glyph-name="uplightleftdnheavybxd" unicode="&#x252a;" horiz-adv-x="2048" 
d="M-37 745h968v1210h186v-1210h93v-1583h-372v1210h-875v373z" />
    <glyph glyph-name="heavyvertleftbxd" unicode="&#x252b;" horiz-adv-x="2048" 
d="M-37 745h875v1210h372v-2793h-372v1210h-875v373z" />
    <glyph glyph-name="lightdnhorzbxd" unicode="&#x252c;" horiz-adv-x="2048" 
d="M-37 652h2122v-187h-968v-1303h-186v1303h-968v187z" />
    <glyph glyph-name="leftheavyrightdnlightbxd" unicode="&#x252d;" horiz-adv-x="2048" 
d="M-37 745h1154v-93h968v-187h-968v-1303h-186v1210h-968v373z" />
    <glyph glyph-name="rightheavyleftdnlightbxd" unicode="&#x252e;" horiz-adv-x="2048" 
d="M-37 652h968v93h1154v-373h-968v-1210h-186v1303h-968v187z" />
    <glyph glyph-name="dnlighthorzheavybxd" unicode="&#x252f;" horiz-adv-x="2048" 
d="M-37 745h2122v-373h-968v-1210h-186v1210h-968v373z" />
    <glyph glyph-name="dnheavyhorzlightbxd" unicode="&#x2530;" horiz-adv-x="2048" 
d="M-37 652h2122v-187h-875v-1303h-372v1303h-875v187z" />
    <glyph glyph-name="rightlightleftdnheavybxd" unicode="&#x2531;" horiz-adv-x="2048" 
d="M-37 745h1247v-93h875v-187h-875v-1303h-372v1210h-875v373z" />
    <glyph glyph-name="leftlightrightdnheavybxd" unicode="&#x2532;" horiz-adv-x="2048" 
d="M-37 652h875v93h1247v-373h-875v-1210h-372v1303h-875v187z" />
    <glyph glyph-name="heavydnhorzbxd" unicode="&#x2533;" horiz-adv-x="2048" 
d="M-37 745h2122v-373h-875v-1210h-372v1210h-875v373z" />
    <glyph glyph-name="lightuphorzbxd" unicode="&#x2534;" horiz-adv-x="2048" 
d="M-37 652h968v1303h186v-1303h968v-187h-2122v187z" />
    <glyph glyph-name="leftheavyrightuplightbxd" unicode="&#x2535;" horiz-adv-x="2048" 
d="M-37 745h968v1210h186v-1303h968v-187h-968v-93h-1154v373z" />
    <glyph glyph-name="rightheavyleftuplightbxd" unicode="&#x2536;" horiz-adv-x="2048" 
d="M-37 652h968v1303h186v-1210h968v-373h-1154v93h-968v187z" />
    <glyph glyph-name="uplighthorzheavybxd" unicode="&#x2537;" horiz-adv-x="2048" 
d="M-37 745h968v1210h186v-1210h968v-373h-2122v373z" />
    <glyph glyph-name="upheavyhorzlightbxd" unicode="&#x2538;" horiz-adv-x="2048" 
d="M-37 652h875v1303h372v-1303h875v-187h-2122v187z" />
    <glyph glyph-name="rightlightleftupheavybxd" unicode="&#x2539;" horiz-adv-x="2048" 
d="M-37 745h875v1210h372v-1303h875v-187h-875v-93h-1247v373z" />
    <glyph glyph-name="leftlightrightupheavybxd" unicode="&#x253a;" horiz-adv-x="2048" 
d="M-37 652h875v1303h372v-1210h875v-373h-1247v93h-875v187z" />
    <glyph glyph-name="heavyuphorzbxd" unicode="&#x253b;" horiz-adv-x="2048" 
d="M-37 745h875v1210h372v-1210h875v-373h-2122v373z" />
    <glyph glyph-name="lightverthorzbxd" unicode="&#x253c;" horiz-adv-x="2048" 
d="M-37 652h968v1303h186v-1303h968v-187h-968v-1303h-186v1303h-968v187z" />
    <glyph glyph-name="leftheavyrightvertlightbxd" unicode="&#x253d;" horiz-adv-x="2048" 
d="M-37 745h968v1210h186v-1303h968v-187h-968v-1303h-186v1210h-968v373z" />
    <glyph glyph-name="rightheavyleftvertlightbxd" unicode="&#x253e;" horiz-adv-x="2048" 
d="M-37 652h968v1303h186v-1210h968v-373h-968v-1210h-186v1303h-968v187z" />
    <glyph glyph-name="vertlighthorzheavybxd" unicode="&#x253f;" horiz-adv-x="2048" 
d="M-37 745h968v1210h186v-1210h968v-373h-968v-1210h-186v1210h-968v373z" />
    <glyph glyph-name="upheavydnhorzlightbxd" unicode="&#x2540;" horiz-adv-x="2048" 
d="M-37 652h875v1303h372v-1303h875v-187h-968v-1303h-186v1303h-968v187z" />
    <glyph glyph-name="dnheavyuphorzlightbxd" unicode="&#x2541;" horiz-adv-x="2048" 
d="M-37 652h968v1303h186v-1303h968v-187h-875v-1303h-372v1303h-875v187z" />
    <glyph glyph-name="vertheavyhorzlightbxd" unicode="&#x2542;" horiz-adv-x="2048" 
d="M-37 652h875v1303h372v-1303h875v-187h-875v-1303h-372v1303h-875v187z" />
    <glyph glyph-name="leftupheavyrightdnlightbxd" unicode="&#x2543;" horiz-adv-x="2048" 
d="M-37 745h875v1210h372v-1303h875v-187h-875v-93h-93v-1210h-186v1210h-968v373z" />
    <glyph glyph-name="rightupheavyleftdnlightbxd" unicode="&#x2544;" horiz-adv-x="2048" 
d="M-37 652h875v1303h372v-1210h875v-373h-968v-1210h-186v1210h-93v93h-875v187z" />
    <glyph glyph-name="leftdnheavyrightuplightbxd" unicode="&#x2545;" horiz-adv-x="2048" 
d="M-37 745h968v1210h186v-1210h93v-93h875v-187h-875v-1303h-372v1210h-875v373z" />
    <glyph glyph-name="rightdnheavyleftuplightbxd" unicode="&#x2546;" horiz-adv-x="2048" 
d="M-37 652h875v93h93v1210h186v-1210h968v-373h-875v-1210h-372v1303h-875v187z" />
    <glyph glyph-name="dnlightuphorzheavybxd" unicode="&#x2547;" horiz-adv-x="2048" 
d="M-37 745h875v1210h372v-1210h875v-373h-968v-1210h-186v1210h-968v373z" />
    <glyph glyph-name="uplightdnhorzheavybxd" unicode="&#x2548;" horiz-adv-x="2048" 
d="M-37 745h968v1210h186v-1210h968v-373h-875v-1210h-372v1210h-875v373z" />
    <glyph glyph-name="rightlightleftvertheavybxd" unicode="&#x2549;" horiz-adv-x="2048" 
d="M-37 745h875v1210h372v-1303h875v-187h-875v-1303h-372v1210h-875v373z" />
    <glyph glyph-name="leftlightrightvertheavybxd" unicode="&#x254a;" horiz-adv-x="2048" 
d="M-37 652h875v1303h372v-1210h875v-373h-875v-1210h-372v1303h-875v187z" />
    <glyph glyph-name="heavyverthorzbxd" unicode="&#x254b;" horiz-adv-x="2048" 
d="M-37 745h875v1210h372v-1210h875v-373h-875v-1210h-372v1210h-875v373z" />
    <glyph glyph-name="lightdbldashhorzbxd" unicode="&#x254c;" horiz-adv-x="2048" 
d="M1279 652h512v-187h-512v187zM255 652h512v-187h-512v187z" />
    <glyph glyph-name="heavydbldashhorzbxd" unicode="&#x254d;" horiz-adv-x="2048" 
d="M1279 745h512v-373h-512v373zM255 745h512v-373h-512v373z" />
    <glyph glyph-name="lightdbldashvertbxd" unicode="&#x254e;" horiz-adv-x="2048" 
d="M931 1326h186v-512h-186v512zM931 302h186v-512h-186v512z" />
    <glyph glyph-name="heavydbldashvertbxd" unicode="&#x254f;" horiz-adv-x="2048" 
d="M838 1326h372v-512h-372v512zM838 302h372v-512h-372v512z" />
    <glyph glyph-name="dblhorzbxd" unicode="&#x2550;" horiz-adv-x="2048" 
d="M-37 465h2122v-186h-2122v186zM-37 838h2122v-186h-2122v186z" />
    <glyph glyph-name="dblvertbxd" unicode="&#x2551;" horiz-adv-x="2048" 
d="M1117 1955h186v-2793h-186v2793zM745 1955h186v-2793h-186v2793z" />
    <glyph glyph-name="dnsngrightdblbxd" unicode="&#x2552;" horiz-adv-x="2048" 
d="M931 838h1154v-186h-968v-187h968v-186h-968v-1117h-186v1676z" />
    <glyph glyph-name="dndblrightsngbxd" unicode="&#x2553;" horiz-adv-x="2048" 
d="M745 652h1340v-187h-782v-1303h-186v1303h-186v-1303h-186v1490z" />
    <glyph glyph-name="dbldnrightbxd" unicode="&#x2554;" horiz-adv-x="2048" 
d="M1117 465h968v-186h-782v-1117h-186v1303zM745 838h1340v-186h-1154v-1490h-186v1676z" />
    <glyph glyph-name="dnsngleftdblbxd" unicode="&#x2555;" horiz-adv-x="2048" 
d="M-37 838h1154v-1676h-186v1117h-968v186h968v187h-968v186z" />
    <glyph glyph-name="dndblleftsngbxd" unicode="&#x2556;" horiz-adv-x="2048" 
d="M-37 652h1340v-1490h-186v1303h-186v-1303h-186v1303h-782v187z" />
    <glyph glyph-name="dbldnleftbxd" unicode="&#x2557;" horiz-adv-x="2048" 
d="M-37 465h968v-1303h-186v1117h-782v186zM-37 838h1340v-1676h-186v1490h-1154v186z" />
    <glyph glyph-name="upsngrightdblbxd" unicode="&#x2558;" horiz-adv-x="2048" 
d="M931 1955h186v-1117h968v-186h-968v-187h968v-186h-1154v1676z" />
    <glyph glyph-name="updblrightsngbxd" unicode="&#x2559;" horiz-adv-x="2048" 
d="M745 1955h186v-1303h186v1303h186v-1303h782v-187h-1340v1490z" />
    <glyph glyph-name="dbluprightbxd" unicode="&#x255a;" horiz-adv-x="2048" 
d="M1117 1955h186v-1117h782v-186h-968v1303zM745 1955h186v-1490h1154v-186h-1340v1676z" />
    <glyph glyph-name="upsngleftdblbxd" unicode="&#x255b;" horiz-adv-x="2048" 
d="M-37 838h968v1117h186v-1676h-1154v186h968v187h-968v186z" />
    <glyph glyph-name="updblleftsngbxd" unicode="&#x255c;" horiz-adv-x="2048" 
d="M-37 652h782v1303h186v-1303h186v1303h186v-1490h-1340v187z" />
    <glyph glyph-name="dblupleftbxd" unicode="&#x255d;" horiz-adv-x="2048" 
d="M-37 838h782v1117h186v-1303h-968v186zM-37 465h1154v1490h186v-1676h-1340v186z" />
    <glyph glyph-name="vertsngrightdblbxd" unicode="&#x255e;" horiz-adv-x="2048" 
d="M931 1955h186v-1117h968v-186h-968v-187h968v-186h-968v-1117h-186v2793z" />
    <glyph glyph-name="vertdblrightsngbxd" unicode="&#x255f;" horiz-adv-x="2048" 
d="M745 1955h186v-2793h-186v2793zM1117 1955h186v-1303h782v-187h-782v-1303h-186v2793z" />
    <glyph glyph-name="dblvertrightbxd" unicode="&#x2560;" horiz-adv-x="2048" 
d="M1117 465h968v-186h-782v-1117h-186v1303zM1117 1955h186v-1117h782v-186h-968v1303zM745 1955h186v-2793h-186v2793z" />
    <glyph glyph-name="vertsngleftdblbxd" unicode="&#x2561;" horiz-adv-x="2048" 
d="M-37 838h968v1117h186v-2793h-186v1117h-968v186h968v187h-968v186z" />
    <glyph glyph-name="vertdblleftsngbxd" unicode="&#x2562;" horiz-adv-x="2048" 
d="M1117 1955h186v-2793h-186v2793zM-37 652h782v1303h186v-2793h-186v1303h-782v187z" />
    <glyph glyph-name="dblvertleftbxd" unicode="&#x2563;" horiz-adv-x="2048" 
d="M-37 838h782v1117h186v-1303h-968v186zM-37 465h968v-1303h-186v1117h-782v186zM1117 1955h186v-2793h-186v2793z" />
    <glyph glyph-name="dnsnghorzdblbxd" unicode="&#x2564;" horiz-adv-x="2048" 
d="M-37 838h2122v-186h-2122v186zM-37 465h2122v-186h-968v-1117h-186v1117h-968v186z" />
    <glyph glyph-name="dndblhorzsngbxd" unicode="&#x2565;" horiz-adv-x="2048" 
d="M-37 652h2122v-187h-782v-1303h-186v1303h-186v-1303h-186v1303h-782v187z" />
    <glyph glyph-name="dbldnhorzbxd" unicode="&#x2566;" horiz-adv-x="2048" 
d="M-37 465h968v-1303h-186v1117h-782v186zM1117 465h968v-186h-782v-1117h-186v1303zM-37 838h2122v-186h-2122v186z" />
    <glyph glyph-name="upsnghorzdblbxd" unicode="&#x2567;" horiz-adv-x="2048" 
d="M-37 465h2122v-186h-2122v186zM-37 838h968v1117h186v-1117h968v-186h-2122v186z" />
    <glyph glyph-name="updblhorzsngbxd" unicode="&#x2568;" horiz-adv-x="2048" 
d="M-37 652h782v1303h186v-1303h186v1303h186v-1303h782v-187h-2122v187z" />
    <glyph glyph-name="dbluphorzbxd" unicode="&#x2569;" horiz-adv-x="2048" 
d="M1117 1955h186v-1117h782v-186h-968v1303zM-37 838h782v1117h186v-1303h-968v186zM-37 465h2122v-186h-2122v186z" />
    <glyph glyph-name="vertsnghorzdblbxd" unicode="&#x256a;" horiz-adv-x="2048" 
d="M-37 838h968v1117h186v-1117h968v-186h-968v-187h968v-186h-968v-1117h-186v1117h-968v186h968v187h-968v186z" />
    <glyph glyph-name="vertdblhorzsngbxd" unicode="&#x256b;" horiz-adv-x="2048" 
d="M-37 652h782v1303h186v-1303h186v1303h186v-1303h782v-187h-782v-1303h-186v1303h-186v-1303h-186v1303h-782v187z" />
    <glyph glyph-name="dblverthorzbxd" unicode="&#x256c;" horiz-adv-x="2048" 
d="M1117 465h968v-186h-782v-1117h-186v1303zM1117 1955h186v-1117h782v-186h-968v1303zM-37 465h968v-1303h-186v1117h-782v186zM-37 838h782v1117h186v-1303h-968v186z" />
    <glyph glyph-name="lightarcdnrightbxd" unicode="&#x256d;" horiz-adv-x="2048" 
d="M931 -465q0 231 87.5 434.5t239 355.5t355.5 239.5t435 87.5h37v-187h-37q-253 0 -467 -126t-339 -339.5t-125 -464.5v-373h-186v373z" />
    <glyph glyph-name="lightarcdnleftbxd" unicode="&#x256e;" horiz-adv-x="2048" 
d="M1117 -838h-186v373q0 192 -73.5 362t-199.5 295.5t-296 199t-362 73.5h-37v187h37q231 0 435 -87.5t355.5 -239.5t239 -356t87.5 -434v-373z" />
    <glyph glyph-name="lightarcupleftbxd" unicode="&#x256f;" horiz-adv-x="2048" 
d="M1117 1583q0 -231 -87.5 -435t-239 -356t-355.5 -239.5t-435 -87.5h-37v187h37q253 0 467 126t339 339.5t125 465.5v372h186v-372z" />
    <glyph glyph-name="lightarcuprightbxd" unicode="&#x2570;" horiz-adv-x="2048" 
d="M931 1955h186v-372q0 -252 125 -465.5t339 -339.5t467 -126h37v-187h-37q-231 0 -435 87.5t-355.5 239.5t-239 356t-87.5 435v372z" />
    <glyph glyph-name="lightdiaguprightdnleftbxd" unicode="&#x2571;" horiz-adv-x="2048" 
d="M2048 1583v-133l-1916 -1915h-132v132l1916 1916h132z" />
    <glyph glyph-name="lightdiagupleftdnrightbxd" unicode="&#x2572;" horiz-adv-x="2048" 
d="M2048 -465h-132l-1916 1915v133h132l1916 -1916v-132z" />
    <glyph glyph-name="lightdiagcrossbxd" unicode="&#x2573;" horiz-adv-x="2048" 
d="M0 1583h132l892 -892l892 892h132v-133l-892 -891l892 -892v-132h-132l-892 891l-892 -891h-132v132l892 892l-892 891v133z" />
    <glyph glyph-name="lightleftbxd" unicode="&#x2574;" horiz-adv-x="2048" 
d="M-37 652h1154v-187h-1154v187z" />
    <glyph glyph-name="lightupbxd" unicode="&#x2575;" horiz-adv-x="2048" 
d="M931 1955h186v-1490h-186v1490z" />
    <glyph glyph-name="lightrightbxd" unicode="&#x2576;" horiz-adv-x="2048" 
d="M931 652h1154v-187h-1154v187z" />
    <glyph glyph-name="lightdnbxd" unicode="&#x2577;" horiz-adv-x="2048" 
d="M931 652h186v-1490h-186v1490z" />
    <glyph glyph-name="heavyleftbxd" unicode="&#x2578;" horiz-adv-x="2048" 
d="M-37 745h1154v-373h-1154v373z" />
    <glyph glyph-name="heavyupbxd" unicode="&#x2579;" horiz-adv-x="2048" 
d="M838 1955h372v-1490h-372v1490z" />
    <glyph glyph-name="heavyrightbxd" unicode="&#x257a;" horiz-adv-x="2048" 
d="M931 745h1154v-373h-1154v373z" />
    <glyph glyph-name="heavydnbxd" unicode="&#x257b;" horiz-adv-x="2048" 
d="M838 652h372v-1490h-372v1490z" />
    <glyph glyph-name="lightleftheavyrightbxd" unicode="&#x257c;" horiz-adv-x="2048" 
d="M-37 652h968v93h1154v-373h-1154v93h-968v187z" />
    <glyph glyph-name="lightupheavydnbxd" unicode="&#x257d;" horiz-adv-x="2048" 
d="M838 652h93v1303h186v-1303h93v-1490h-372v1490z" />
    <glyph glyph-name="heavyleftlightrightbxd" unicode="&#x257e;" horiz-adv-x="2048" 
d="M-37 745h1154v-93h968v-187h-968v-93h-1154v373z" />
    <glyph glyph-name="heavyuplightdnbxd" unicode="&#x257f;" horiz-adv-x="2048" 
d="M838 1955h372v-1490h-93v-1303h-186v1303h-93v1490z" />
    <glyph glyph-name="uphalfblock" unicode="&#x2580;" horiz-adv-x="2048" 
d="M0 1583h2048v-1024h-2048v1024z" />
    <glyph glyph-name="dneighthblock" unicode="&#x2581;" horiz-adv-x="2048" 
d="M0 -210h2048v-255h-2048v255z" />
    <glyph glyph-name="dnquarterblock" unicode="&#x2582;" horiz-adv-x="2048" 
d="M0 47h2048v-512h-2048v512z" />
    <glyph glyph-name="dnthreeeighthsblock" unicode="&#x2583;" horiz-adv-x="2048" 
d="M0 302h2048v-767h-2048v767z" />
    <glyph glyph-name="dnhalfblock" unicode="&#x2584;" horiz-adv-x="2048" 
d="M0 559h2048v-1024h-2048v1024z" />
    <glyph glyph-name="dnfiveeighthsblock" unicode="&#x2585;" horiz-adv-x="2048" 
d="M0 814h2048v-1279h-2048v1279z" />
    <glyph glyph-name="dnthreequartersblock" unicode="&#x2586;" horiz-adv-x="2048" 
d="M0 1071h2048v-1536h-2048v1536z" />
    <glyph glyph-name="dnseveneighthsblock" unicode="&#x2587;" horiz-adv-x="2048" 
d="M0 1326h2048v-1791h-2048v1791z" />
    <glyph glyph-name="fullblock" unicode="&#x2588;" horiz-adv-x="2048" 
d="M0 1583h2048v-2048h-2048v2048z" />
    <glyph glyph-name="leftseveneighthsblock" unicode="&#x2589;" horiz-adv-x="2048" 
d="M0 1583h1791v-2048h-1791v2048z" />
    <glyph glyph-name="leftthreequartersblock" unicode="&#x258a;" horiz-adv-x="2048" 
d="M0 1583h1536v-2048h-1536v2048z" />
    <glyph glyph-name="leftfiveeighthsblock" unicode="&#x258b;" horiz-adv-x="2048" 
d="M0 1583h1279v-2048h-1279v2048z" />
    <glyph glyph-name="lefthalfblock" unicode="&#x258c;" horiz-adv-x="2048" 
d="M0 1583h1024v-2048h-1024v2048z" />
    <glyph glyph-name="leftthreeeighthsblock" unicode="&#x258d;" horiz-adv-x="2048" 
d="M0 1583h767v-2048h-767v2048z" />
    <glyph glyph-name="leftquarterblock" unicode="&#x258e;" horiz-adv-x="2048" 
d="M0 1583h512v-2048h-512v2048z" />
    <glyph glyph-name="lefteighthblock" unicode="&#x258f;" horiz-adv-x="2048" 
d="M0 1583h255v-2048h-255v2048z" />
    <glyph glyph-name="righthalfblock" unicode="&#x2590;" horiz-adv-x="2048" 
d="M1024 1583h1024v-2048h-1024v2048z" />
    <glyph glyph-name="lightshade" unicode="&#x2591;" horiz-adv-x="2048" 
d="M1955 1545h37v-56h-37v56zM1862 1452h37v-56h-37v56zM1955 1359h37v-56h-37v56zM1862 1266h37v-56h-37v56zM1955 1173h37v-56h-37v56zM1862 1080h37v-56h-37v56zM1955 987h37v-56h-37v56zM1862 894h37v-56h-37v56zM1955 801h37v-56h-37v56zM1862 707h37v-55h-37v55z
M1955 614h37v-55h-37v55zM1862 521h37v-56h-37v56zM1955 428h37v-56h-37v56zM1862 335h37v-56h-37v56zM1955 242h37v-56h-37v56zM1862 149h37v-56h-37v56zM1955 56h37v-56h-37v56zM1862 -37h37v-56h-37v56zM1955 -130h37v-56h-37v56zM1862 -223h37v-56h-37v56zM1955 -317h37
v-55h-37v55zM1862 -410h37v-55h-37v55zM1769 1545h37v-56h-37v56zM1676 1452h37v-56h-37v56zM1769 1359h37v-56h-37v56zM1676 1266h37v-56h-37v56zM1769 1173h37v-56h-37v56zM1676 1080h37v-56h-37v56zM1769 987h37v-56h-37v56zM1676 894h37v-56h-37v56zM1769 801h37v-56
h-37v56zM1676 707h37v-55h-37v55zM1769 614h37v-55h-37v55zM1676 521h37v-56h-37v56zM1769 428h37v-56h-37v56zM1676 335h37v-56h-37v56zM1769 242h37v-56h-37v56zM1676 149h37v-56h-37v56zM1769 56h37v-56h-37v56zM1676 -37h37v-56h-37v56zM1769 -130h37v-56h-37v56z
M1676 -223h37v-56h-37v56zM1769 -317h37v-55h-37v55zM1676 -410h37v-55h-37v55zM1583 1545h37v-56h-37v56zM1489 1452h38v-56h-38v56zM1583 1359h37v-56h-37v56zM1489 1266h38v-56h-38v56zM1583 1173h37v-56h-37v56zM1489 1080h38v-56h-38v56zM1583 987h37v-56h-37v56z
M1489 894h38v-56h-38v56zM1583 801h37v-56h-37v56zM1489 707h38v-55h-38v55zM1583 614h37v-55h-37v55zM1489 521h38v-56h-38v56zM1583 428h37v-56h-37v56zM1489 335h38v-56h-38v56zM1583 242h37v-56h-37v56zM1489 149h38v-56h-38v56zM1583 56h37v-56h-37v56zM1489 -37h38
v-56h-38v56zM1583 -130h37v-56h-37v56zM1489 -223h38v-56h-38v56zM1583 -317h37v-55h-37v55zM1489 -410h38v-55h-38v55zM1396 1545h38v-56h-38v56zM1303 1452h38v-56h-38v56zM1396 1359h38v-56h-38v56zM1303 1266h38v-56h-38v56zM1396 1173h38v-56h-38v56zM1303 1080h38v-56
h-38v56zM1396 987h38v-56h-38v56zM1303 894h38v-56h-38v56zM1396 801h38v-56h-38v56zM1303 707h38v-55h-38v55zM1396 614h38v-55h-38v55zM1303 521h38v-56h-38v56zM1396 428h38v-56h-38v56zM1303 335h38v-56h-38v56zM1396 242h38v-56h-38v56zM1303 149h38v-56h-38v56z
M1396 56h38v-56h-38v56zM1303 -37h38v-56h-38v56zM1396 -130h38v-56h-38v56zM1303 -223h38v-56h-38v56zM1396 -317h38v-55h-38v55zM1303 -410h38v-55h-38v55zM1210 1545h37v-56h-37v56zM1117 1452h37v-56h-37v56zM1210 1359h37v-56h-37v56zM1117 1266h37v-56h-37v56z
M1210 1173h37v-56h-37v56zM1117 1080h37v-56h-37v56zM1210 987h37v-56h-37v56zM1117 894h37v-56h-37v56zM1210 801h37v-56h-37v56zM1117 707h37v-55h-37v55zM1210 614h37v-55h-37v55zM1117 521h37v-56h-37v56zM1210 428h37v-56h-37v56zM1117 335h37v-56h-37v56zM1210 242h37
v-56h-37v56zM1117 149h37v-56h-37v56zM1210 56h37v-56h-37v56zM1117 -37h37v-56h-37v56zM1210 -130h37v-56h-37v56zM1117 -223h37v-56h-37v56zM1210 -317h37v-55h-37v55zM1117 -410h37v-55h-37v55zM1024 1545h37v-56h-37v56zM931 1452h37v-56h-37v56zM1024 1359h37v-56h-37
v56zM931 1266h37v-56h-37v56zM1024 1173h37v-56h-37v56zM931 1080h37v-56h-37v56zM1024 987h37v-56h-37v56zM931 894h37v-56h-37v56zM1024 801h37v-56h-37v56zM931 707h37v-55h-37v55zM1024 614h37v-55h-37v55zM931 521h37v-56h-37v56zM1024 428h37v-56h-37v56zM931 335h37
v-56h-37v56zM1024 242h37v-56h-37v56zM931 149h37v-56h-37v56zM1024 56h37v-56h-37v56zM931 -37h37v-56h-37v56zM1024 -130h37v-56h-37v56zM931 -223h37v-56h-37v56zM1024 -317h37v-55h-37v55zM931 -410h37v-55h-37v55zM838 1545h37v-56h-37v56zM745 1452h37v-56h-37v56z
M838 1359h37v-56h-37v56zM745 1266h37v-56h-37v56zM838 1173h37v-56h-37v56zM745 1080h37v-56h-37v56zM838 987h37v-56h-37v56zM745 894h37v-56h-37v56zM838 801h37v-56h-37v56zM745 707h37v-55h-37v55zM838 614h37v-55h-37v55zM745 521h37v-56h-37v56zM838 428h37v-56h-37
v56zM745 335h37v-56h-37v56zM838 242h37v-56h-37v56zM745 149h37v-56h-37v56zM838 56h37v-56h-37v56zM745 -37h37v-56h-37v56zM838 -130h37v-56h-37v56zM745 -223h37v-56h-37v56zM838 -317h37v-55h-37v55zM745 -410h37v-55h-37v55zM652 1545h37v-56h-37v56zM559 1452h37v-56
h-37v56zM652 1359h37v-56h-37v56zM559 1266h37v-56h-37v56zM652 1173h37v-56h-37v56zM559 1080h37v-56h-37v56zM652 987h37v-56h-37v56zM559 894h37v-56h-37v56zM652 801h37v-56h-37v56zM559 707h37v-55h-37v55zM652 614h37v-55h-37v55zM559 521h37v-56h-37v56zM652 428h37
v-56h-37v56zM559 335h37v-56h-37v56zM652 242h37v-56h-37v56zM559 149h37v-56h-37v56zM652 56h37v-56h-37v56zM559 -37h37v-56h-37v56zM652 -130h37v-56h-37v56zM559 -223h37v-56h-37v56zM652 -317h37v-55h-37v55zM559 -410h37v-55h-37v55zM465 1545h38v-56h-38v56z
M372 1452h38v-56h-38v56zM465 1359h38v-56h-38v56zM372 1266h38v-56h-38v56zM465 1173h38v-56h-38v56zM372 1080h38v-56h-38v56zM465 987h38v-56h-38v56zM372 894h38v-56h-38v56zM465 801h38v-56h-38v56zM372 707h38v-55h-38v55zM465 614h38v-55h-38v55zM372 521h38v-56h-38
v56zM465 428h38v-56h-38v56zM372 335h38v-56h-38v56zM465 242h38v-56h-38v56zM372 149h38v-56h-38v56zM465 56h38v-56h-38v56zM372 -37h38v-56h-38v56zM465 -130h38v-56h-38v56zM372 -223h38v-56h-38v56zM465 -317h38v-55h-38v55zM372 -410h38v-55h-38v55zM279 1545h38v-56
h-38v56zM186 1452h37v-56h-37v56zM279 1359h38v-56h-38v56zM186 1266h37v-56h-37v56zM279 1173h38v-56h-38v56zM186 1080h37v-56h-37v56zM279 987h38v-56h-38v56zM186 894h37v-56h-37v56zM279 801h38v-56h-38v56zM186 707h37v-55h-37v55zM279 614h38v-55h-38v55zM186 521h37
v-56h-37v56zM279 428h38v-56h-38v56zM186 335h37v-56h-37v56zM279 242h38v-56h-38v56zM186 149h37v-56h-37v56zM279 56h38v-56h-38v56zM186 -37h37v-56h-37v56zM279 -130h38v-56h-38v56zM186 -223h37v-56h-37v56zM279 -317h38v-55h-38v55zM186 -410h37v-55h-37v55zM93 1545
h37v-56h-37v56zM0 1452h37v-56h-37v56zM93 1359h37v-56h-37v56zM0 1266h37v-56h-37v56zM93 1173h37v-56h-37v56zM0 1080h37v-56h-37v56zM93 987h37v-56h-37v56zM0 894h37v-56h-37v56zM93 801h37v-56h-37v56zM0 707h37v-55h-37v55zM93 614h37v-55h-37v55zM0 521h37v-56h-37
v56zM93 428h37v-56h-37v56zM0 335h37v-56h-37v56zM93 242h37v-56h-37v56zM0 149h37v-56h-37v56zM93 56h37v-56h-37v56zM0 -37h37v-56h-37v56zM93 -130h37v-56h-37v56zM0 -223h37v-56h-37v56zM93 -317h37v-55h-37v55zM0 -410h37v-55h-37v55z" />
    <glyph glyph-name="mediumshade" unicode="&#x2592;" horiz-adv-x="2048" 
d="M1955 1583h74v-94h-74v94zM1862 1489h74v-93h-74v93zM1955 1396h74v-93h-74v93zM1862 1303h74v-93h-74v93zM1955 1210h74v-93h-74v93zM1862 1117h74v-93h-74v93zM1955 1024h74v-93h-74v93zM1862 931h74v-93h-74v93zM1955 838h74v-93h-74v93zM1862 745h74v-93h-74v93z
M1955 652h74v-93h-74v93zM1862 559h74v-94h-74v94zM1955 465h74v-93h-74v93zM1862 372h74v-93h-74v93zM1955 279h74v-93h-74v93zM1862 186h74v-93h-74v93zM1955 93h74v-93h-74v93zM1862 0h74v-93h-74v93zM1955 -93h74v-93h-74v93zM1862 -186h74v-93h-74v93zM1955 -279h74
v-93h-74v93zM1862 -372h74v-93h-74v93zM1769 1583h74v-94h-74v94zM1676 1489h74v-93h-74v93zM1769 1396h74v-93h-74v93zM1676 1303h74v-93h-74v93zM1769 1210h74v-93h-74v93zM1676 1117h74v-93h-74v93zM1769 1024h74v-93h-74v93zM1676 931h74v-93h-74v93zM1769 838h74v-93
h-74v93zM1676 745h74v-93h-74v93zM1769 652h74v-93h-74v93zM1676 559h74v-94h-74v94zM1769 465h74v-93h-74v93zM1676 372h74v-93h-74v93zM1769 279h74v-93h-74v93zM1676 186h74v-93h-74v93zM1769 93h74v-93h-74v93zM1676 0h74v-93h-74v93zM1769 -93h74v-93h-74v93z
M1676 -186h74v-93h-74v93zM1769 -279h74v-93h-74v93zM1676 -372h74v-93h-74v93zM1583 1583h74v-94h-74v94zM1489 1489h75v-93h-75v93zM1583 1396h74v-93h-74v93zM1489 1303h75v-93h-75v93zM1583 1210h74v-93h-74v93zM1489 1117h75v-93h-75v93zM1583 1024h74v-93h-74v93z
M1489 931h75v-93h-75v93zM1583 838h74v-93h-74v93zM1489 745h75v-93h-75v93zM1583 652h74v-93h-74v93zM1489 559h75v-94h-75v94zM1583 465h74v-93h-74v93zM1489 372h75v-93h-75v93zM1583 279h74v-93h-74v93zM1489 186h75v-93h-75v93zM1583 93h74v-93h-74v93zM1489 0h75v-93
h-75v93zM1583 -93h74v-93h-74v93zM1489 -186h75v-93h-75v93zM1583 -279h74v-93h-74v93zM1489 -372h75v-93h-75v93zM1396 1583h75v-94h-75v94zM1303 1489h75v-93h-75v93zM1396 1396h75v-93h-75v93zM1303 1303h75v-93h-75v93zM1396 1210h75v-93h-75v93zM1303 1117h75v-93h-75
v93zM1396 1024h75v-93h-75v93zM1303 931h75v-93h-75v93zM1396 838h75v-93h-75v93zM1303 745h75v-93h-75v93zM1396 652h75v-93h-75v93zM1303 559h75v-94h-75v94zM1396 465h75v-93h-75v93zM1303 372h75v-93h-75v93zM1396 279h75v-93h-75v93zM1303 186h75v-93h-75v93zM1396 93
h75v-93h-75v93zM1303 0h75v-93h-75v93zM1396 -93h75v-93h-75v93zM1303 -186h75v-93h-75v93zM1396 -279h75v-93h-75v93zM1303 -372h75v-93h-75v93zM1210 1583h75v-94h-75v94zM1117 1489h75v-93h-75v93zM1210 1396h75v-93h-75v93zM1117 1303h75v-93h-75v93zM1210 1210h75v-93
h-75v93zM1117 1117h75v-93h-75v93zM1210 1024h75v-93h-75v93zM1117 931h75v-93h-75v93zM1210 838h75v-93h-75v93zM1117 745h75v-93h-75v93zM1210 652h75v-93h-75v93zM1117 559h75v-94h-75v94zM1210 465h75v-93h-75v93zM1117 372h75v-93h-75v93zM1210 279h75v-93h-75v93z
M1117 186h75v-93h-75v93zM1210 93h75v-93h-75v93zM1117 0h75v-93h-75v93zM1210 -93h75v-93h-75v93zM1117 -186h75v-93h-75v93zM1210 -279h75v-93h-75v93zM1117 -372h75v-93h-75v93zM1024 1583h74v-94h-74v94zM931 1489h74v-93h-74v93zM1024 1396h74v-93h-74v93zM931 1303h74
v-93h-74v93zM1024 1210h74v-93h-74v93zM931 1117h74v-93h-74v93zM1024 1024h74v-93h-74v93zM931 931h74v-93h-74v93zM1024 838h74v-93h-74v93zM931 745h74v-93h-74v93zM1024 652h74v-93h-74v93zM931 559h74v-94h-74v94zM1024 465h74v-93h-74v93zM931 372h74v-93h-74v93z
M1024 279h74v-93h-74v93zM931 186h74v-93h-74v93zM1024 93h74v-93h-74v93zM931 0h74v-93h-74v93zM1024 -93h74v-93h-74v93zM931 -186h74v-93h-74v93zM1024 -279h74v-93h-74v93zM931 -372h74v-93h-74v93zM838 1583h74v-94h-74v94zM745 1489h74v-93h-74v93zM838 1396h74v-93
h-74v93zM745 1303h74v-93h-74v93zM838 1210h74v-93h-74v93zM745 1117h74v-93h-74v93zM838 1024h74v-93h-74v93zM745 931h74v-93h-74v93zM838 838h74v-93h-74v93zM745 745h74v-93h-74v93zM838 652h74v-93h-74v93zM745 559h74v-94h-74v94zM838 465h74v-93h-74v93zM745 372h74
v-93h-74v93zM838 279h74v-93h-74v93zM745 186h74v-93h-74v93zM838 93h74v-93h-74v93zM745 0h74v-93h-74v93zM838 -93h74v-93h-74v93zM745 -186h74v-93h-74v93zM838 -279h74v-93h-74v93zM745 -372h74v-93h-74v93zM652 1583h74v-94h-74v94zM559 1489h74v-93h-74v93zM652 1396
h74v-93h-74v93zM559 1303h74v-93h-74v93zM652 1210h74v-93h-74v93zM559 1117h74v-93h-74v93zM652 1024h74v-93h-74v93zM559 931h74v-93h-74v93zM652 838h74v-93h-74v93zM559 745h74v-93h-74v93zM652 652h74v-93h-74v93zM559 559h74v-94h-74v94zM652 465h74v-93h-74v93z
M559 372h74v-93h-74v93zM652 279h74v-93h-74v93zM559 186h74v-93h-74v93zM652 93h74v-93h-74v93zM559 0h74v-93h-74v93zM652 -93h74v-93h-74v93zM559 -186h74v-93h-74v93zM652 -279h74v-93h-74v93zM559 -372h74v-93h-74v93zM465 1583h75v-94h-75v94zM372 1489h75v-93h-75v93
zM465 1396h75v-93h-75v93zM372 1303h75v-93h-75v93zM465 1210h75v-93h-75v93zM372 1117h75v-93h-75v93zM465 1024h75v-93h-75v93zM372 931h75v-93h-75v93zM465 838h75v-93h-75v93zM372 745h75v-93h-75v93zM465 652h75v-93h-75v93zM372 559h75v-94h-75v94zM465 465h75v-93
h-75v93zM372 372h75v-93h-75v93zM465 279h75v-93h-75v93zM372 186h75v-93h-75v93zM465 93h75v-93h-75v93zM372 0h75v-93h-75v93zM465 -93h75v-93h-75v93zM372 -186h75v-93h-75v93zM465 -279h75v-93h-75v93zM372 -372h75v-93h-75v93zM279 1583h75v-94h-75v94zM186 1489h75
v-93h-75v93zM279 1396h75v-93h-75v93zM186 1303h75v-93h-75v93zM279 1210h75v-93h-75v93zM186 1117h75v-93h-75v93zM279 1024h75v-93h-75v93zM186 931h75v-93h-75v93zM279 838h75v-93h-75v93zM186 745h75v-93h-75v93zM279 652h75v-93h-75v93zM186 559h75v-94h-75v94z
M279 465h75v-93h-75v93zM186 372h75v-93h-75v93zM279 279h75v-93h-75v93zM186 186h75v-93h-75v93zM279 93h75v-93h-75v93zM186 0h75v-93h-75v93zM279 -93h75v-93h-75v93zM186 -186h75v-93h-75v93zM279 -279h75v-93h-75v93zM186 -372h75v-93h-75v93zM93 1583h75v-94h-75v94z
M0 1489h74v-93h-74v93zM93 1396h75v-93h-75v93zM0 1303h74v-93h-74v93zM93 1210h75v-93h-75v93zM0 1117h74v-93h-74v93zM93 1024h75v-93h-75v93zM0 931h74v-93h-74v93zM93 838h75v-93h-75v93zM0 745h74v-93h-74v93zM93 652h75v-93h-75v93zM0 559h74v-94h-74v94zM93 465h75
v-93h-75v93zM0 372h74v-93h-74v93zM93 279h75v-93h-75v93zM0 186h74v-93h-74v93zM93 93h75v-93h-75v93zM0 0h74v-93h-74v93zM93 -93h75v-93h-75v93zM0 -186h74v-93h-74v93zM93 -279h75v-93h-75v93zM0 -372h74v-93h-74v93z" />
    </font>
</defs>
</svg>
