<?xml version="1.0" standalone="no"?>
<!DOCTYPE svg PUBLIC "-//W3C//DTD SVG 1.1//EN" "http://www.w3.org/Graphics/SVG/1.1/DTD/svg11.dtd" >
<svg xmlns="http://www.w3.org/2000/svg">
<metadata>
Created by FontPrep 20130207 at Mon Apr  6 14:54:28 2015
 By Callum Flack
(c)2010 Kai Bernau and Commercial Type.
</metadata>
<defs>
<font id="0f5ffc8c7e2f92a20772ee562c182634" horiz-adv-x='1024' >
  <font-face 
    font-family="LyonDisplay-Bold"
    font-weight="700"
    font-stretch="normal"
    units-per-em="2048"
    panose-1="2 0 8 3 8 0 0 2 0 4"
    ascent="1556"
    descent="-492"
    x-height="1012"
    cap-height="1360"
    bbox="-367 -512 2593 2224"
    underline-thickness="102"
    underline-position="-102"
    unicode-range="U+0020-FB04"
  />
<missing-glyph horiz-adv-x="350" 
 />
    <glyph glyph-name="f_f" unicode="ff" horiz-adv-x="1417" 
d="M866 1182q-64 229 -202 229q-68 0 -122 -74t-53 -260l3 -65h335q10 96 39 170zM825 901h-331v-803l116 -28v-70h-575v70l127 30v797h-150v72l152 47q57 221 226 351t362 130q147 0 268 -92q156 137 350 137q125 0 221 -56q97 -56 97 -144t-73 -120t-163 -14l-57 205
q-39 47 -103 47t-102 -64q-39 -64 -37 -204l2 -180h272v-111h-270v-803l162 -28v-70h-606v70l112 30v801z" />
    <glyph glyph-name="f_i" unicode="fi" horiz-adv-x="1312" 
d="M713 0v70l112 30v801h-331v-803l116 -28v-70h-575v70l127 30v797h-150v72l152 47q33 236 214 381t410 145q136 0 236 -61t100 -148q0 -61 -51 -100t-117 -39t-88 10l-71 205q-49 49 -119 49q-195 0 -189 -342l3 -104h528l139 30v-942l131 -32v-68h-577z" />
    <glyph glyph-name="f_l" unicode="fl" horiz-adv-x="1308" 
d="M662 1458q-172 0 -170 -307v-139h333v258q-57 188 -163 188zM713 0v70l112 30v801h-331v-803l116 -28v-70h-575v70l127 30v797h-150v72l152 47q35 236 204 381t394 145q117 0 223 -65l172 55v-1432l129 -30v-70h-573z" />
    <glyph glyph-name="f_f_i" unicode="ffi" horiz-adv-x="1976" 
d="M664 1411q-68 0 -122 -74t-53 -260l3 -65h337q10 86 37 159q-29 117 -81 179q-53 62 -121 61zM713 0v70l112 30v801h-331v-803l116 -28v-70h-575v70l127 30v797h-150v72l152 47q57 221 226 351t362 130q145 0 276 -98q170 143 416 143q144 0 244 -61t100 -148
q0 -61 -51 -100t-115 -39t-90 10l-70 205q-53 49 -121 49q-186 0 -186 -336v-110h528l140 30v-942l131 -30v-70h-576v70l113 30v801h-334v-803l117 -28v-70h-561z" />
    <glyph glyph-name="f_f_l" unicode="ffl" horiz-adv-x="1974" 
d="M664 1411q-68 0 -122 -74t-53 -260l3 -65h335q8 78 39 159q-29 117 -81 179q-53 62 -121 61zM1157 1012h334v258q-57 188 -168 188q-168 0 -166 -307v-139zM713 0v70l112 30v801h-331v-803l116 -28v-70h-575v70l127 30v797h-150v72l152 47q57 221 226 351t362 130
q150 0 278 -100q174 145 389 145q123 0 230 -65l174 55v-1432l129 -30v-70h-574v70l113 30v801h-334v-803l117 -28v-70h-561z" />
    <glyph glyph-name="f_b" unicode="fb" horiz-adv-x="1929" 
d="M1260 866q-49 0 -103 -30v-666q47 -111 168 -111q95 1 153 99t58 280t-82 304q-82 124 -194 124zM1205 -31q-167 0 -306 64l-74 33v1210q-61 182 -163 182q-172 0 -170 -309v-137h229v-111h-227v-803l161 -28v-70h-620v70l127 30v797h-150v72l150 47q35 234 205 380
t395 146q117 0 223 -65l172 55v-649q131 153 305 153t294 -120t120 -343q0 -174 -102 -316t-252 -215t-317 -73z" />
    <glyph glyph-name="f_f_b" unicode="ffb" horiz-adv-x="2592" 
d="M868 1169q-59 242 -202 242q-70 0 -124 -74t-53 -260l3 -65h337q10 86 39 157zM1923 866q-49 0 -102 -30v-666q49 -111 157 -111q108 -1 165 97t57 280t-83 306t-194 124zM713 0v70l112 30v801h-331v-803l116 -28v-70h-575v70l127 30v797h-150v72l152 47q57 221 226 351
t362 130q150 0 278 -100q174 145 391 145q121 0 228 -65l172 55v-649q131 153 305 153t294 -120t120 -343q0 -174 -102 -316t-254 -215q-150 -73 -316 -73t-305 64l-74 33v1206q-53 186 -164 186q-80 0 -126 -78t-44 -233v-135h229v-111h-227v-803l162 -28v-70h-606z" />
    <glyph glyph-name="f_f_h" unicode="ffh" horiz-adv-x="2611" 
d="M664 1411q-68 0 -122 -74t-53 -256l3 -69h337q10 86 37 159q-29 117 -81 179q-53 62 -121 61zM713 0v70l112 30v801h-331v-803l116 -28v-70h-575v70l127 30v797h-150v72l152 47q57 221 226 351t362 130q150 0 278 -100q170 145 391 145q121 0 228 -65l174 55v-662
q172 172 348 172q141 0 218 -78t77 -239v-625l127 -32v-68h-568v70l109 30v555q-2 87 -47 141t-122 52t-142 -49v-699l104 -30v-70h-549v70l113 30v1170q-57 188 -166 188q-170 0 -168 -309v-137h227v-111h-227v-803l117 -28v-70h-561z" />
    <glyph glyph-name="f_f_j" unicode="ffj" horiz-adv-x="1968" 
d="M666 1411q-70 0 -124 -74t-53 -260l3 -65h337q10 88 39 155q-59 244 -202 244zM713 0v70l112 30v801h-331v-803l116 -28v-70h-575v70l127 30v797h-150v72l152 47q57 221 226 351t362 130q154 0 282 -104q184 150 420 149q134 0 234 -61t100 -148q0 -61 -51 -100t-115 -39
t-90 10l-70 205q-53 49 -121 49q-186 0 -186 -336v-110h528l140 30v-878q-1 -176 -13 -257t-38 -125t-70 -83q-133 -119 -414 -168l-12 41q119 82 166 171t49 286v872h-334v-803l162 -28v-70h-606z" />
    <glyph glyph-name="f_f_k" unicode="ffk" horiz-adv-x="2564" 
d="M866 1169q-59 242 -200 242q-70 0 -124 -74t-53 -260l3 -65h337q10 88 37 157zM2376 -29q-106 0 -174 38q-66 38 -119 124l-246 391l367 363l-172 59v66h503v-64l-161 -47l-265 -227l455 -647q-82 -56 -188 -56zM713 0v70l112 30v801h-331v-803l116 -28v-70h-575v70
l127 30v797h-150v72l152 47q57 221 226 351t362 130q150 0 278 -100q174 145 391 145q121 0 228 -65l174 55v-1432l116 -30v-70h-561v70l113 30v1170q-57 188 -168 188q-168 0 -166 -309v-137h227v-111h-227v-803l117 -28v-70h-561z" />
    <glyph glyph-name="f_h" unicode="fh" horiz-adv-x="1947" 
d="M713 0v70l112 30v1176q-61 182 -163 182q-172 0 -170 -307v-139h229v-111h-227v-803l116 -28v-70h-575v70l127 30v797h-150v72l150 47q35 234 205 380t395 146q117 0 223 -65l172 55v-662q178 172 350 172q141 0 218 -78t77 -239v-625l127 -32v-68h-563v70l104 30v555
q-4 91 -48 143t-122 50t-143 -49v-699l107 -30v-70h-551z" />
    <glyph glyph-name="f_j" unicode="fj" horiz-adv-x="1302" 
d="M825 901h-331v-803l161 -28v-70h-620v70l127 30v797h-150v72l152 47q33 236 214 381t410 145q136 0 236 -61t100 -148q0 -61 -51 -100t-117 -39t-88 10l-71 205q-49 49 -119 49q-195 0 -189 -342l3 -104h528l139 30v-878q0 -134 -4 -198t-32 -139q-84 -225 -500 -296
l-11 41q119 82 165 171t48 286v872z" />
    <glyph glyph-name="f_k" unicode="fk" horiz-adv-x="1900" 
d="M1710 -29q-108 0 -173 37t-120 125l-243 391l364 363l-172 59v66h506v-64l-162 -47l-264 -227l455 -647q-83 -56 -191 -56zM713 0v70l112 30v1172q-53 186 -163 186q-172 0 -170 -309v-137h229v-111h-227v-803l116 -28v-70h-575v70l127 30v797h-150v72l150 47
q35 234 205 380t395 146q117 0 223 -65l172 55v-1432l119 -30v-70h-563z" />
    <glyph glyph-name=".notdef" horiz-adv-x="350" 
 />
    <glyph glyph-name=".null" horiz-adv-x="0" 
 />
    <glyph glyph-name="nonmarkingreturn" horiz-adv-x="681" 
 />
    <glyph glyph-name="space" unicode=" " horiz-adv-x="350" 
 />
    <glyph glyph-name="exclam" unicode="!" horiz-adv-x="608" 
d="M303 -29q-70 1 -121 51t-51 120t51 119q51 50 121 50t120 -50t50 -120t-50 -120t-120 -50zM109 1452h393l-166 -1038h-62z" />
    <glyph glyph-name="quotedbl" unicode="&#x22;" horiz-adv-x="946" 
d="M653 920l-114 553h282l-123 -553h-45zM240 920l-115 553h283l-123 -553h-45z" />
    <glyph glyph-name="numbersign" unicode="#" horiz-adv-x="1185" 
d="M467 807l-68 -385h322l67 385h-321zM150 807v88h249l58 322h84l-58 -322h322l57 322h84l-57 -322h241v-88h-258l-67 -385h235v-90h-252l-57 -332h-84l58 332h-322l-57 -332h-84l57 332h-240v90h256l68 385h-233z" />
    <glyph glyph-name="dollar" unicode="$" horiz-adv-x="1218" 
d="M432 1047q0 -79 38 -125t128 -82l53 405q-95 -7 -157 -63t-62 -135zM811 272q0 146 -184 201l-56 -410q98 5 169 61t71 148zM147 907q1 168 137 293t378 131l28 209h76l-29 -211q160 -14 307 -78v-366h-61l-113 289q-63 53 -143 67l-55 -426l143 -43q301 -90 301 -332
q0 -215 -169 -342t-388 -131l-29 -229h-75l30 231q-169 10 -333 84l-31 414h61l150 -332q72 -57 166 -69l55 430l-80 22q-326 94 -326 389z" />
    <glyph glyph-name="percent" unicode="%" horiz-adv-x="1798" 
d="M1323 -31q-158 1 -258 101t-100 250t107 255q108 105 260 105t257 -100t105 -252t-106 -256t-265 -103zM1294 608q-96 0 -96 -194q0 -133 48 -253t118 -120q96 0 96 195q0 140 -49 256t-117 116zM453 539q-158 0 -258 99q-101 99 -101 250t109 255t261 104t256 -100
q103 -100 103 -251t-106 -254t-264 -103zM496 608q96 0 96 220q0 112 -49 231t-117 119q-98 0 -98 -218q0 -110 49 -231t119 -121zM371 -102l938 1390h94l-944 -1390h-88z" />
    <glyph glyph-name="ampersand" unicode="&#x26;" horiz-adv-x="1716" 
d="M689 1333q-73 -1 -117 -43t-44 -112t39 -121t164 -168q127 113 127 258q0 82 -48 134t-121 52zM365 484q0 -130 92 -212t218 -82t226 62q-115 133 -181 204t-253 253q-102 -95 -102 -225zM502 -41q-203 0 -322 112t-119 283q0 246 355 404q-90 86 -131 156t-41 155
q-2 150 136 244t330 94t300 -72q106 -71 106 -185t-84 -184t-250 -126q88 -84 215 -215q88 -96 129 -146q25 35 60 90l194 318l-196 55v70h518v-68l-186 -53l-338 -473q52 -60 86 -103t47 -55q14 -12 31 -30q16 -18 28 -24q12 -8 39 -24t90 -16q64 0 156 43l28 -41
q-190 -203 -387 -201q-100 2 -160 42t-167 167q-227 -217 -467 -217z" />
    <glyph glyph-name="quotesingle" unicode="'" horiz-adv-x="532" 
d="M240 920l-115 553h283l-123 -553h-45z" />
    <glyph glyph-name="parenleft" unicode="(" horiz-adv-x="710" 
d="M174 560q0 265 122 511t329 428h98q-172 -213 -257 -435t-85 -500t83 -500q83 -224 251 -433h-92q-209 180 -329 422t-120 507z" />
    <glyph glyph-name="parenright" unicode=")" horiz-adv-x="710" 
d="M535 567q0 -266 -122 -511t-329 -427h-96q170 213 255 435t85 505q0 514 -332 928h90q209 -178 329 -421t120 -509z" />
    <glyph glyph-name="asterisk" unicode="*" horiz-adv-x="806" 
d="M766 1057l-250 -37l8 -260l-45 -8l-108 231l-246 -86l-21 35l195 176l-162 205l25 28l231 -120l142 211l38 -13l-49 -254l244 -71z" />
    <glyph glyph-name="plus" unicode="+" horiz-adv-x="1175" 
d="M1073 459h-434v-434h-102v434h-435v96h435v434h102v-434h434v-96z" />
    <glyph glyph-name="comma" unicode="," horiz-adv-x="591" 
d="M266 -27q0 63 -36 109t-97 63q-10 76 33 131q43 56 126 56t136 -68t53 -164q0 -139 -93 -251t-294 -216l-39 64q211 139 211 276z" />
    <glyph glyph-name="hyphen" unicode="-" horiz-adv-x="759" 
d="M119 487v187h522v-187h-522z" />
    <glyph glyph-name="period" unicode="." horiz-adv-x="534" 
d="M272 -29q-70 1 -120 51t-52 120q0 70 52 119q52 50 120 50q70 0 120 -50t50 -120t-50 -120t-120 -50z" />
    <glyph glyph-name="slash" unicode="/" horiz-adv-x="854" 
d="M27 -442l-82 34l770 1950l84 -35z" />
    <glyph glyph-name="zero" unicode="0" horiz-adv-x="1312" 
d="M648 -33q-248 0 -408 159q-160 158 -160 396t170 404t412 166t406 -157q165 -157 165 -397t-168 -406q-168 -165 -417 -165zM592 1012q-80 0 -122 -83t-42 -229t34 -293q34 -148 103 -255q70 -106 158 -107q158 0 158 328q0 150 -37 297q-36 146 -104 244t-148 98z" />
    <glyph glyph-name="one" unicode="1" horiz-adv-x="897" 
d="M649 1087v-976l221 -35v-76h-796v76l239 33v770h-260v75l588 133h8z" />
    <glyph glyph-name="two" unicode="2" horiz-adv-x="1001" 
d="M961 242v-242h-902v90l156 131q188 160 264 263q76 104 76 192t-53 141t-131 53q-125 0 -232 -151l-61 24q53 171 162 263q110 92 260 92t248 -86t98 -218t-86 -229q-86 -98 -279 -237l-119 -86h599z" />
    <glyph glyph-name="three" unicode="3" horiz-adv-x="985" 
d="M322 -434q-125 0 -224 56q-98 56 -98 138q0 58 43 102t121 42q174 -244 190 -260q117 8 192 86t75 208t-108 220t-306 92v121l76 12q293 117 292 303q0 90 -54 142t-138 53q-147 0 -242 -158l-67 27q49 160 154 254t267 94q163 0 263 -87t100 -227q0 -207 -280 -340
l-54 -26v-6q176 -4 291 -100t115 -261q0 -211 -190 -348t-418 -137z" />
    <glyph glyph-name="four" unicode="4" horiz-adv-x="1290" 
d="M672 252v489l-434 -489h434zM672 -391v422h-617v135l824 919l98 -12v-821h262v-221h-262v-422h-305z" />
    <glyph glyph-name="five" unicode="5" horiz-adv-x="872" 
d="M418 72q0 123 -72 216t-231 204l170 565h477v-271h-481l-13 -38q244 -125 355 -255t110 -305q0 -130 -60 -240q-59 -110 -165 -191q-199 -153 -477 -240l-25 53q174 80 293 206t119 296z" />
    <glyph glyph-name="six" unicode="6" horiz-adv-x="1298" 
d="M580 834q-41 0 -76 -11q-55 -133 -55 -276q0 -231 79 -369q80 -137 185 -137q86 0 128 82t42 213q0 194 -83 346t-220 152zM1214 492q0 -244 -176 -388t-402 -143q-226 0 -386 157q-158 157 -158 421q0 174 93 337q93 164 247 284q321 251 731 339l21 -67
q-485 -223 -656 -553q115 68 234 67q188 0 320 -125t132 -329z" />
    <glyph glyph-name="seven" unicode="7" horiz-adv-x="1077" 
d="M74 750v307h979v-10l-674 -1186l-152 -289l-125 55l697 1123h-725z" />
    <glyph glyph-name="eight" unicode="8" horiz-adv-x="1196" 
d="M410 1149q0 -156 182 -254l127 -72q80 103 80 233t-68 202q-69 72 -147 73q-78 0 -126 -49t-48 -133zM377 364q0 -142 72 -236q72 -93 182 -93q82 0 131 55t49 147q-1 92 -65 167t-195 149l-88 51q-86 -98 -86 -240zM74 301q0 213 332 336q-143 82 -209 161t-66 201
q0 158 141 281q140 123 354 123t332 -92t117 -215q0 -195 -299 -305l47 -25q164 -90 232 -177t67 -208q0 -188 -156 -305t-385 -117q-228 0 -368 94q-139 94 -139 248z" />
    <glyph glyph-name="nine" unicode="9" horiz-adv-x="1284" 
d="M725 233q41 0 78 11q43 123 43 268q0 215 -77 359t-183 145q-80 0 -126 -76t-46 -243t86 -315t225 -149zM537 123q-188 0 -323 126q-134 126 -134 345t170 360q170 142 396 142t392 -162t166 -418q0 -162 -68 -306t-174 -247q-308 -291 -823 -407l-20 67q270 131 432 269
t233 305q-115 -74 -247 -74z" />
    <glyph glyph-name="colon" unicode=":" horiz-adv-x="589" 
d="M299 674q-70 0 -120 51t-50 121t50 120t120 50t121 -50t51 -120t-51 -121t-121 -51zM473 141q0 -70 -50 -120t-120 -50q-70 1 -121 51t-51 120t51 119q51 50 121 50t120 -50t50 -120z" />
    <glyph glyph-name="semicolon" unicode=";" horiz-adv-x="595" 
d="M309 674q-70 0 -120 51t-50 121t50 120t120 50t121 -50t51 -120t-51 -121t-121 -51zM272 -27q0 63 -35 110q-36 46 -98 62q-10 76 33 131q43 56 126 56t137 -68t54 -164q0 -139 -93 -250t-294 -217l-41 64q211 139 211 276z" />
    <glyph glyph-name="less" unicode="&#x3c;" horiz-adv-x="1204" 
d="M1087 889l-827 -383l827 -383v-107l-970 457v68l970 454v-106z" />
    <glyph glyph-name="equal" unicode="=" horiz-adv-x="1175" 
d="M1073 319h-971v95h971v-95zM1073 608h-971v94h971v-94z" />
    <glyph glyph-name="greater" unicode="&#x3e;" horiz-adv-x="1204" 
d="M117 123l827 383l-827 383v106l970 -456v-68l-970 -455v107z" />
    <glyph glyph-name="question" unicode="?" horiz-adv-x="880" 
d="M297 -29q-70 1 -121 51t-51 120t51 119q51 50 121 50t120 -50t50 -120t-50 -120t-120 -50zM805 928q0 -131 -65 -209t-216 -117l-194 -53l2 -135h-80l-62 379l357 79q98 23 137 48t39 61q-1 63 -105 100t-358 54l-108 6v329l102 -22q233 -50 392 -192t159 -328z" />
    <glyph glyph-name="at" unicode="@" horiz-adv-x="1955" 
d="M823 250q51 0 143 135q91 135 142 287l47 149q-43 53 -86 53q-67 0 -135 -93t-110 -224t-42 -240q0 -67 41 -67zM657 53q-75 0 -121 53t-47 140q-1 150 89 312t231 270t278 108q47 0 123 -27l27 68h213l-158 -596q-31 -131 -8 -181t96 -50q119 0 226 135q106 135 108 370
q4 271 -175 449t-454 178q-203 0 -384 -102t-299 -303t-119 -457q-3 -334 195 -519t503 -186q186 0 336 60v-39q-51 -33 -173 -65q-273 -71 -549 13q-324 99 -444 360q-67 144 -67 331q2 270 159 499q157 230 397 356t501 126q325 0 529 -190t202 -470q0 -158 -65 -288
t-163 -206q-203 -159 -421 -159q-127 -1 -183 73t-24 195l18 68h-8l-59 -84q-174 -242 -310 -242z" />
    <glyph glyph-name="A" unicode="A" horiz-adv-x="1435" 
d="M584 1044l-183 -489h355zM-6 0v72l133 37l500 1263l182 37l504 -1309l129 -28v-72h-686v72l159 32l-120 345h-433l-122 -332l227 -45v-72h-473z" />
    <glyph glyph-name="B" unicode="B" horiz-adv-x="1355" 
d="M885 1022q-1 118 -93 188q-92 72 -237 76v-534q178 18 254 85t76 185zM555 682v-477q10 -55 60 -92t112 -37q109 0 168 68t59 198q0 132 -85 228t-210 112h-104zM1319 379q0 -387 -647 -383l-623 4v72l158 39v1138l-158 39v72l602 4q575 6 576 -303q0 -256 -414 -328v-6
q231 -6 369 -94t137 -254z" />
    <glyph glyph-name="C" unicode="C" horiz-adv-x="1480" 
d="M881 -31q-207 1 -363 59t-250 156q-192 200 -192 475q0 313 245 527t594 213q225 0 441 -105l4 -397h-64l-157 313q-123 111 -280 111t-265 -155t-107 -416q0 -324 125 -510t316 -187q113 0 196 62l234 360h65l-82 -407q-252 -99 -460 -99z" />
    <glyph glyph-name="D" unicode="D" horiz-adv-x="1601" 
d="M1536 707q0 -293 -224 -495q-110 -98 -286 -156t-399 -58l-578 2v74l158 37v1138l-158 39v72l686 2q361 -4 581 -183t220 -472zM1153 645q0 307 -167 479t-431 174v-1157q70 -66 201 -65q168 2 282 160t115 409z" />
    <glyph glyph-name="E" unicode="E" horiz-adv-x="1302" 
d="M559 653v-514q51 -57 143 -59h250l228 393h71l-84 -473h-1118v72l158 39v1136l-158 41v72h969l178 2v-408h-70l-137 326h-430v-532h215l68 225h69v-533h-71l-66 213h-215z" />
    <glyph glyph-name="F" unicode="F" horiz-adv-x="1228" 
d="M559 635v-524l213 -33v-78h-723v74l158 37v1136l-158 41v72h932l186 2v-404h-71l-135 320h-402v-555h242l69 229h70v-534h-70l-69 217h-242z" />
    <glyph glyph-name="G" unicode="G" horiz-adv-x="1601" 
d="M896 -33q-487 0 -700 302q-120 172 -119 385q1 212 122 385t319 267t428 93q229 0 461 -90l18 -410h-59l-201 330q-121 88 -247 88q-197 0 -316 -166q-119 -167 -119 -459t132 -462t329 -171q92 0 168 35v432l-229 33v88h684v-82l-115 -28v-455l-78 -25
q-299 -90 -478 -90z" />
    <glyph glyph-name="H" unicode="H" horiz-adv-x="1685" 
d="M963 0v72l163 39v536h-567v-536l162 -39v-72h-672v72l158 39v1138l-158 39v72h672v-72l-162 -39v-501h567v501l-161 39v72h673v-72l-157 -39v-1138l157 -39v-72h-675z" />
    <glyph glyph-name="I" unicode="I" horiz-adv-x="768" 
d="M49 0v72l158 39v1138l-158 39v72h668v-72l-158 -39v-1138l158 -39v-72h-668z" />
    <glyph glyph-name="J" unicode="J" horiz-adv-x="765" 
d="M567 172q0 -283 -145 -428t-465 -172l-12 49q164 88 216 183t52 276v1169l-178 39v72h690v-72l-158 -39v-1077z" />
    <glyph glyph-name="K" unicode="K" horiz-adv-x="1525" 
d="M938 1360h496v-72l-177 -43l-380 -409l526 -736l129 -28v-72h-475l-463 643v10l536 594l-192 41v72zM49 0v72l158 39v1138l-158 39v72h672v-72l-162 -39v-1138l162 -39v-72h-672z" />
    <glyph glyph-name="L" unicode="L" horiz-adv-x="1265" 
d="M49 0v74l158 37v1136l-158 41v72h678v-72l-168 -39v-1110q49 -53 146 -57h217l243 450h70l-100 -532h-1086z" />
    <glyph glyph-name="M" unicode="M" horiz-adv-x="1900" 
d="M33 0v72l162 39l65 1136l-168 41v72h535l348 -813l301 747l16 66h516v-72l-155 -37l57 -1140l158 -39v-72h-674v72l162 39l-43 1056l-447 -1122h-47l-86 219l-385 881l-45 -1028l225 -43v-74h-495z" />
    <glyph glyph-name="N" unicode="N" horiz-adv-x="1501" 
d="M541 0h-484v74l156 37v1050q-74 92 -154 117l-36 12v70h477l719 -877l-11 752l-209 53v72h476v-72l-154 -43v-1077l4 -170l-141 -25l-867 1057l11 -913l213 -43v-74z" />
    <glyph glyph-name="O" unicode="O" horiz-adv-x="1638" 
d="M829 1399q309 0 525 -194q216 -193 217 -511t-227 -522t-535 -205q-307 0 -524 195t-217 509t226 521t535 207zM796 1315q-164 0 -250 -153q-86 -154 -87 -436t111 -478t273 -197q161 0 248 155t87 431t-109 477t-273 201z" />
    <glyph glyph-name="P" unicode="P" horiz-adv-x="1263" 
d="M903 971q0 129 -86 220t-258 99v-1179l182 -37v-74h-692v74l158 37v1138l-158 39v72l578 2q274 2 440 -94t166 -272q1 -176 -181 -287t-413 -109v70q117 14 191 93t73 208z" />
    <glyph glyph-name="Q" unicode="Q" horiz-adv-x="1638" 
d="M1178 636q0 282 -109 482t-273 199q-164 0 -250 -154q-86 -155 -87 -445q1 -290 109 -480t273 -189q165 0 251 152q86 153 86 435zM2025 -242q-199 -209 -503 -209q-122 0 -299 42q-55 13 -137 57t-116 61q-36 18 -148 101t-184 141q-73 58 -89 69q-215 70 -348 242
t-133 416q0 307 226 514t534 207t526 -193t217 -501q1 -251 -147 -433t-375 -254q109 -86 163 -126t144 -94q167 -101 337 -100q169 1 306 95z" />
    <glyph glyph-name="R" unicode="R" horiz-adv-x="1449" 
d="M555 686h154q100 24 163 102t64 179q0 141 -106 229t-275 92v-602zM49 0v72l158 39v1138l-158 39v72l574 2q337 0 493 -93t156 -249q0 -231 -299 -342v-8l346 -568l133 -30v-72h-457l-364 602h-76v-491l152 -39v-72h-658z" />
    <glyph glyph-name="S" unicode="S" horiz-adv-x="1150" 
d="M526 53q114 1 178 63t64 154t-45 143q-45 52 -154 97l-120 47q-172 68 -251 167t-79 241q0 172 145 303t400 131q162 0 350 -84l4 -369h-64l-141 320q-70 57 -167 57q-96 0 -160 -58q-64 -59 -64 -149t53 -144t182 -104l131 -51q162 -63 231 -150t68 -208
q0 -223 -171 -357t-400 -133q-182 0 -399 90l-37 426h59l174 -356q100 -76 213 -76z" />
    <glyph glyph-name="T" unicode="T" horiz-adv-x="1325" 
d="M1284 932h-59l-133 334h-252v-1155l196 -39v-72h-749v72l198 39v1155h-252l-133 -334h-61l2 432l180 -4h885l178 4v-432z" />
    <glyph glyph-name="U" unicode="U" horiz-adv-x="1511" 
d="M1331 555q0 -281 -148 -437q-147 -156 -423 -155q-276 0 -427 137t-151 414v733l-157 41v72h708v-72l-192 -41v-717q0 -199 87 -304q88 -105 242 -105t247 98t95 291l-4 729l-213 49v72h492v-72l-156 -45v-688z" />
    <glyph glyph-name="V" unicode="V" horiz-adv-x="1378" 
d="M-4 1360h672v-72l-176 -41l329 -928l334 922l-203 45v74h430v-72l-120 -45l-488 -1266h-172l-496 1274l-110 37v72z" />
    <glyph glyph-name="W" unicode="W" horiz-adv-x="2025" 
d="M-4 1360h618v-72l-133 -37l271 -915l219 633l-94 282l-105 37v72h635v-74l-166 -35l279 -891l278 877l-190 49v74h422v-72l-123 -45l-424 -1266h-176l-291 857l-311 -857h-175l-419 1274l-115 35v74z" />
    <glyph glyph-name="X" unicode="X" horiz-adv-x="1441" 
d="M33 1360h710v-72l-157 -39l241 -403h4l279 395l-180 45v74h463v-72l-150 -43l-358 -489l409 -645l148 -37v-74h-715v74l156 37l-267 442h-4l-305 -438l168 -41v-74h-467v74l156 35l397 530l-385 610l-143 39v72z" />
    <glyph glyph-name="Y" unicode="Y" horiz-adv-x="1357" 
d="M1024 0h-676v72l162 39v428l-389 714l-121 35v72h692v-72l-188 -39l301 -598l311 592l-205 45v72h447v-72l-127 -43l-369 -663v-471l162 -39v-72z" />
    <glyph glyph-name="Z" unicode="Z" horiz-adv-x="1335" 
d="M53 0v72l731 1194h-489l-158 -342h-63l12 440l199 -4h944v-19l-783 -1247h584l221 385h68l-90 -479h-1176z" />
    <glyph glyph-name="bracketleft" unicode="[" horiz-adv-x="643" 
d="M616 -371h-432v1872h432v-86h-204v-1700h204v-86z" />
    <glyph glyph-name="backslash" unicode="\" horiz-adv-x="854" 
d="M913 -408l-82 -34l-770 1949l84 35z" />
    <glyph glyph-name="bracketright" unicode="]" horiz-adv-x="643" 
d="M27 1501h432v-1872h-432v86h204v1700h-204v86z" />
    <glyph glyph-name="asciicircum" unicode="^" horiz-adv-x="976" 
d="M184 993h-92l348 555h97l348 -555h-113l-291 389z" />
    <glyph glyph-name="underscore" unicode="_" horiz-adv-x="835" 
d="M8 -457v95h819v-95h-819z" />
    <glyph glyph-name="grave" unicode="`" horiz-adv-x="727" 
d="M176 1575h258l105 -401h-78l-285 387v14z" />
    <glyph glyph-name="a" unicode="a" horiz-adv-x="1081" 
d="M365 297q0 -68 38 -110t98 -42t109 50v313l-69 -23q-176 -55 -176 -188zM328 -31q-119 0 -196 74q-77 75 -77 191t84 185t277 113l194 48v159q-6 91 -48 147t-104 56t-89 -20l-7 -244q-56 -25 -130 -25q-148 0 -148 119q0 96 153 183t347 87q352 0 352 -325v-527
q0 -49 15 -62t61 -13h73v-52q-156 -90 -278 -90q-176 0 -186 168h-9q-118 -172 -284 -172z" />
    <glyph glyph-name="b" unicode="b" horiz-adv-x="1222" 
d="M553 868q-59 0 -102 -30v-674q51 -104 156 -104t165 98q60 100 59 282q1 182 -83 304q-84 124 -195 124zM499 -31q-165 0 -309 64l-71 33v1214l-125 78v37l457 133v-643q137 151 308 151t291 -120t119 -343q0 -174 -102 -316q-103 -142 -253 -215t-315 -73z" />
    <glyph glyph-name="c" unicode="c" horiz-adv-x="1032" 
d="M549 -27q-221 -1 -359 145t-137 383q0 237 164 391t385 152q156 0 264 -74t107 -177q0 -68 -46 -105q-45 -37 -115 -37t-95 17l-60 256q-45 45 -119 45t-128 -84q-53 -84 -54 -215q0 -223 104 -346t261 -123q84 -1 157 31t95 57l26 -37q-81 -125 -197 -202t-253 -77z" />
    <glyph glyph-name="d" unicode="d" horiz-adv-x="1247" 
d="M666 137q51 0 98 29v663q-70 123 -166 123t-156 -88t-59 -278q0 -190 81 -319q81 -130 202 -130zM467 -31q-178 1 -296 139t-118 353q1 249 183 407t438 158q31 0 90 -6v283l-162 79v35l494 115v-1401l118 -31v-57l-411 -68l-29 131q-129 -137 -307 -137z" />
    <glyph glyph-name="e" unicode="e" horiz-adv-x="1069" 
d="M506 958q-68 0 -112 -70t-52 -210h326q-10 128 -52 204t-110 76zM539 -27q-217 0 -352 152q-134 152 -134 376t160 384t358 159q375 0 426 -442h-655q4 -190 115 -296t262 -107q115 0 260 88l33 -39q-203 -275 -473 -275z" />
    <glyph glyph-name="f" unicode="f" horiz-adv-x="751" 
d="M35 0v70l127 30v797h-150v72l152 49l8 45q39 211 190 345q152 134 345 134q123 0 219 -56t96 -144t-73 -120t-163 -14l-57 205q-37 47 -100 47t-104 -64q-40 -65 -38 -204l5 -180h268v-111h-266v-801l161 -30v-70h-620z" />
    <glyph glyph-name="g" unicode="g" horiz-adv-x="1134" 
d="M512 971q-133 -1 -129 -229q2 -118 54 -214q52 -98 128 -96q55 0 89 57t34 177t-55 212t-121 93zM266 -166q0 -98 84 -152t230 -54t228 60q83 62 83 140t-96 98l-486 25q-43 -49 -43 -117zM977 679q0 -130 -123 -226t-319 -97q-106 0 -201 33q-33 -33 -33 -67
q0 -72 102 -74l428 -17q133 -5 203 -71t70 -172q0 -193 -202 -334t-470 -141q-197 -1 -300 65t-103 176q0 137 188 213v13q-67 20 -107 69t-40 114t45 124t147 129v4q-170 94 -170 261t129 264t314 97q90 0 278 -51l315 31v-135l-243 14l-4 -8q96 -84 96 -214z" />
    <glyph glyph-name="h" unicode="h" horiz-adv-x="1284" 
d="M698 0v70l109 30v555q-2 87 -46 141t-121 52t-146 -51v-697l108 -30v-70h-565v70l125 30v1182l-121 76v39l453 135v-664q174 174 350 174q141 0 218 -78t77 -239v-625l127 -32v-68h-568z" />
    <glyph glyph-name="i" unicode="i" horiz-adv-x="649" 
d="M333 1188q-71 0 -120 50t-49 120t49 120t119 50t121 -50t51 -120t-50 -120t-121 -50zM33 0v70l131 30v709l-127 92v37l461 104v-942l131 -30v-70h-596z" />
    <glyph glyph-name="j" unicode="j" horiz-adv-x="641" 
d="M333 1188q-71 0 -120 49t-49 120t49 121t119 50t121 -50t51 -120t-50 -120t-121 -50zM496 164q0 -190 -23 -290t-106 -175q-138 -123 -406 -168l-12 41q119 82 166 171t49 286v780l-127 92v37l459 104v-878z" />
    <glyph glyph-name="k" unicode="k" horiz-adv-x="1239" 
d="M1048 -29q-108 0 -174 38t-118 124l-246 391l367 363l-172 59v66h503v-64l-159 -47l-265 -227l455 -647q-83 -56 -191 -56zM612 0h-575v70l125 30v1182l-121 76v39l453 135v-1432l118 -30v-70z" />
    <glyph glyph-name="l" unicode="l" horiz-adv-x="645" 
d="M35 0v70l127 30v1182l-121 76v39l453 135v-1432l129 -30v-70h-588z" />
    <glyph glyph-name="m" unicode="m" horiz-adv-x="1925" 
d="M1339 0v70l107 30v553q0 91 -44 143t-121 52t-146 -49v-699l106 -32v-68h-547v70l109 30v555q-2 89 -45 141t-121 52t-148 -53v-695l109 -30v-70h-565v70l125 30v709l-123 84v37l405 117h11l18 -193h6q182 188 365 188q225 0 272 -188h6q182 188 367 188q293 0 293 -317
v-625l129 -32v-68h-568z" />
    <glyph glyph-name="n" unicode="n" horiz-adv-x="1282" 
d="M33 0v70l125 30v709l-123 84v37l405 117h11l18 -193h6q182 188 365 188q141 0 218 -78t77 -239v-625l127 -32v-68h-568v70l109 30v555q-2 87 -46 141t-121 52t-147 -51v-697l109 -30v-70h-565z" />
    <glyph glyph-name="o" unicode="o" horiz-adv-x="1234" 
d="M1178 519q0 -235 -160 -393t-410 -157q-250 0 -400 153q-150 154 -151 380q0 226 162 384q163 158 405 156q242 0 398 -144t156 -379zM653 45q172 1 172 397q-1 204 -69 366t-174 161q-135 0 -166 -231q-8 -58 -8 -122q0 -233 68 -402t177 -169z" />
    <glyph glyph-name="p" unicode="p" horiz-adv-x="1261" 
d="M592 864q-49 0 -103 -35v-677q55 -92 155 -92t162 98t62 284t-82 304t-194 118zM12 -449v68l144 33v1157l-125 84v37l411 117h11l14 -193h2q141 180 334 180q163 0 283 -119t120 -340q0 -255 -190 -425t-430 -170q-39 0 -97 4v-326l222 -39v-68h-699z" />
    <glyph glyph-name="q" unicode="q" horiz-adv-x="1239" 
d="M670 139q55 0 94 27v672q-68 115 -174 114q-84 0 -144 -86t-59 -278q0 -192 82 -321q82 -128 201 -128zM545 -449v66l219 41v440q-125 -129 -298 -129t-293 137t-120 370q0 234 177 392t393 158q129 0 217 -61l250 77h8v-1390l143 -33v-68h-696z" />
    <glyph glyph-name="r" unicode="r" horiz-adv-x="899" 
d="M33 0v70l125 30v709l-123 84v37l411 117h13l12 -273h8l31 64q56 112 110 158t128 46t122 -42t48 -118t-52 -124q-52 -47 -153 -53l-115 96q-30 -12 -62 -49t-47 -82v-570l183 -30v-70h-639z" />
    <glyph glyph-name="s" unicode="s" horiz-adv-x="942" 
d="M393 -31q-139 0 -311 64l-12 329h59l129 -256q55 -59 138 -59t131 42t48 108q0 109 -131 155l-143 54q-219 80 -219 301q0 151 125 245t332 95q139 0 286 -62l-2 -299h-53l-117 229q-59 51 -130 51t-113 -38q-42 -39 -41 -99q0 -100 137 -153l129 -49q121 -45 179 -113
t58 -172q0 -164 -138 -268t-341 -105z" />
    <glyph glyph-name="t" unicode="t" horiz-adv-x="774" 
d="M416 -29q-279 0 -275 289l6 635h-149v72l152 51l286 250h37v-256h297v-119h-297v-643q35 -127 186 -127q8 0 107 16l12 -57q-190 -111 -362 -111z" />
    <glyph glyph-name="u" unicode="u" horiz-adv-x="1269" 
d="M440 -31q-131 0 -215 75t-84 239v561l-125 61v45l457 80v-680q0 -190 164 -190q80 0 143 45v647l-131 59v45l463 80v-905l131 -33v-57l-434 -66l-25 166q-168 -172 -344 -172z" />
    <glyph glyph-name="v" unicode="v" horiz-adv-x="1042" 
d="M-25 1012h586v-68l-133 -24l193 -560l14 -49h2l16 51l201 551l-129 33v66h344v-68l-106 -26l-381 -947h-127l-383 947l-97 26v68z" />
    <glyph glyph-name="w" unicode="w" horiz-adv-x="1626" 
d="M1266 1012h383v-68l-117 -26l-313 -947h-148l-233 568l-21 59h-2q-16 -49 -20 -59l-217 -568h-146l-338 947l-117 26v68h621v-68l-141 -26l159 -515l19 -67h2q18 57 22 67l226 615h102l252 -625l18 -53h3q10 45 14 55l149 516l-157 35v66z" />
    <glyph glyph-name="x" unicode="x" horiz-adv-x="1144" 
d="M1128 0h-569v70l94 30l-174 277l-190 -273l100 -36v-68h-366v68l129 34l276 355l-299 465l-94 26v64h565v-66l-94 -24l153 -250l175 243l-105 33v64h348v-66l-112 -28l-256 -324l315 -494l104 -32v-68z" />
    <glyph glyph-name="y" unicode="y" horiz-adv-x="1054" 
d="M743 1012h320v-68l-90 -26l-479 -1199q-84 -207 -240 -206q-68 0 -118 48t-50 121q0 72 49 120t119 48q109 0 158 -112h4l67 168l-409 1016l-82 22v68h557v-68l-117 -22l211 -609l221 600l-121 33v66z" />
    <glyph glyph-name="z" unicode="z" horiz-adv-x="1034" 
d="M49 0v49l529 873h-304l-131 -293h-61v405l174 -22h727v-11l-553 -913h315l175 322h61l-41 -412l-199 2h-692z" />
    <glyph glyph-name="braceleft" unicode="{" horiz-adv-x="675" 
d="M662 -303v-68l-35 -2q-225 -8 -320 85q-94 93 -78 276l31 374q8 80 -18 117q-27 37 -97 39l-75 2v90l75 2q70 2 97 39t18 117l-31 375q-16 182 78 275t320 85l35 -2v-65q-115 0 -159 -50t-42 -182l4 -383q2 -133 -54 -185t-210 -67v-10q154 -14 210 -65t54 -189l-4 -379
q-2 -129 42 -179t159 -50z" />
    <glyph glyph-name="bar" unicode="|" horiz-adv-x="464" 
d="M276 -426h-88v1950h88v-1950z" />
    <glyph glyph-name="braceright" unicode="}" horiz-adv-x="675" 
d="M16 -305q115 0 159 50t42 181l-6 383q-2 133 54 185t210 67v10q-154 15 -210 67t-54 187l6 379q2 129 -42 179t-159 51v67l33 2q225 8 319 -85t81 -275l-33 -375q-6 -82 20 -118t96 -38l74 -2v-90l-74 -2q-70 -2 -96 -38t-20 -118l33 -374q14 -182 -80 -276t-320 -85
l-33 2v66z" />
    <glyph glyph-name="asciitilde" unicode="~" horiz-adv-x="1073" 
d="M80 387l-53 25l18 51q49 133 120 201t151 70t178 -27l151 -50q145 -49 207 -35t137 126l51 -23l-18 -51q-70 -194 -182 -258t-279 -6l-117 36q-125 44 -180 52t-96 -14t-88 -97z" />
    <glyph glyph-name="uni00A0" unicode="&#xa0;" horiz-adv-x="350" 
 />
    <glyph glyph-name="exclamdown" unicode="&#xa1;" horiz-adv-x="608" 
d="M306 1239q69 0 121 -51t52 -119t-52 -119t-121 -51t-120 50t-51 120t51 120t120 50zM502 -242h-396l168 1041h60z" />
    <glyph glyph-name="cent" unicode="&#xa2;" horiz-adv-x="1075" 
d="M377 608q0 -225 135 -344l94 705q-98 0 -164 -89q-65 -90 -65 -272zM999 791q0 -59 -40 -93t-102 -34t-83 14l-43 223q-27 31 -53 45l-96 -727q66 -31 138 -31t152 28q79 28 113 65l27 -39q-178 -270 -445 -271h-18l-31 -231h-76l31 240q-182 31 -291 171t-108 345
q0 240 164 394t378 154l29 218h76l-31 -224q133 -18 221 -90t88 -157z" />
    <glyph glyph-name="sterling" unicode="&#xa3;" horiz-adv-x="1468" 
d="M1413 -82q0 -108 -158 -224t-325 -116q-127 0 -253 85t-271 249l-87 94q-111 -39 -177 -39t-104 30t-38 80t45 82q45 31 121 31t215 -67q90 100 137 315l21 94h-246v101h268l25 106q31 139 109 257q142 212 365 300q95 39 181 39t156 -54q69 -53 69 -119t-59 -108
t-150 -55q-49 242 -141 242q-51 0 -87 -58t-62 -188l-78 -362h350v-101h-379q-98 -291 -389 -456q27 -16 57 -34t66 -39q35 -22 51 -32l90 -55q277 -170 317 -186t66 -17q137 0 74 310q221 23 221 -105z" />
    <glyph glyph-name="yen" unicode="&#xa5;" horiz-adv-x="1286" 
d="M109 528v76h329l-321 594l-119 35v72h645v-72l-149 -39l256 -545h4l286 539l-182 45v72h432v-74l-129 -41l-334 -586h342v-76h-364v-157h364v-76h-364v-182l178 -41v-72h-684v72l176 39v184h-366v76h366v157h-366z" />
    <glyph glyph-name="brokenbar" unicode="&#xa6;" horiz-adv-x="462" 
d="M274 -426h-86v885h86v-885zM274 641h-86v883h86v-883z" />
    <glyph glyph-name="section" unicode="&#xa7;" horiz-adv-x="1073" 
d="M307 868q0 -88 31 -171t100 -197l115 -189q86 -143 120 -229t34 -152t-27 -135h10q96 92 96 247t-133 374l-112 188q-88 146 -122 230t-34 151t27 133h-11q-94 -94 -94 -250zM100 744q0 104 54 206q92 177 307 296q215 118 379 118q94 0 147 -41t53 -97t-33 -97
q-34 -40 -87 -54q-115 82 -250 144q-82 0 -158 -29q-2 -10 -2 -30q0 -62 48 -142q48 -81 81 -125q32 -44 80 -121l88 -135q106 -162 145 -261t39 -217t-81 -241q-141 -214 -439 -321q-252 -92 -365 -4q-53 43 -53 99t33 95t86 53q117 -84 252 -143q82 0 156 29q4 16 4 46
t-20 67t-30 59q-11 22 -75 117t-84 128l-88 136q-106 166 -147 263q-40 98 -40 202z" />
    <glyph glyph-name="dieresis" unicode="&#xa8;" 
d="M631 1204q-63 0 -109 45q-45 45 -45 109t45 109q44 46 108 46t110 -46t46 -109q0 -62 -46 -108t-109 -46zM203 1204q-63 0 -110 45q-46 45 -46 109t46 109q45 46 109 46t110 -46t46 -109q0 -62 -46 -108t-109 -46z" />
    <glyph glyph-name="copyright" unicode="&#xa9;" horiz-adv-x="1624" 
d="M848 274q-219 0 -334 118t-115 290q1 172 141 292t347 120q111 0 237 -64l2 -231h-53l-82 182q-53 53 -133 53t-136 -87t-56 -247t63 -260t162 -100q49 0 94 31l117 198h55l-47 -235q-139 -60 -262 -60zM160 686q0 -272 192 -466t461 -194q268 0 461 194t192 466
q0 272 -193 465q-194 193 -462 193t-460 -193q-191 -193 -191 -465zM92 685q0 302 210 510t510 208t509 -208t209 -509t-210 -510t-510 -209t-509 208t-209 510z" />
    <glyph glyph-name="ordfeminine" unicode="&#xaa;" horiz-adv-x="919" 
d="M420 647q51 0 88 37v229l-43 -12q-80 -25 -116 -57t-36 -83q0 -50 28 -82t79 -32zM68 708q0 94 65 145q66 52 207 85l168 37v147q-4 58 -38 100t-81 42t-72 -15l-22 -190q-37 -27 -92 -27q-109 0 -109 90q0 80 120 151t270 71t218 -64q66 -63 66 -203v-393q0 -39 13 -52
t50 -14h58v-51q-121 -63 -223 -63q-141 0 -146 129h-10q-33 -41 -57 -65q-67 -64 -187 -64q-72 0 -135 55t-63 149z" />
    <glyph glyph-name="guillemotleft" unicode="&#xab;" horiz-adv-x="1011" 
d="M834 817l43 -37l-211 -334l211 -354l-43 -33l-361 355v47zM455 817l43 -37l-211 -334l211 -354l-43 -33l-361 355v47z" />
    <glyph glyph-name="logicalnot" unicode="&#xac;" horiz-adv-x="1175" 
d="M102 555h971v-416h-102v320h-869v96z" />
    <glyph glyph-name="registered" unicode="&#xae;" horiz-adv-x="1003" 
d="M449 1317v-205h57q68 29 67 96q0 45 -33 77q-34 32 -91 32zM252 897v39l57 10v359l-57 10v39h233q231 0 232 -125q0 -78 -111 -121v-4l119 -158l51 -10v-39h-182l-125 174h-20v-127l43 -10v-37h-240zM123 1111q-1 -161 109 -271t271 -109q161 0 271 110q110 111 109 271
q0 160 -111 270q-112 110 -272 109q-160 1 -268 -109t-109 -271zM53 1111q0 185 133 313q132 128 318 128t316 -128t130 -312t-133 -312t-319 -128t-316 127q-129 127 -129 312z" />
    <glyph glyph-name="macron" unicode="&#xaf;" 
d="M100 1274v149h619v-149h-619z" />
    <glyph glyph-name="degree" unicode="&#xb0;" horiz-adv-x="620" 
d="M121 1235q0 -86 54 -144q54 -59 136 -59t136 58t55 145q0 86 -54 144q-54 59 -137 59q-82 0 -136 -58t-54 -145zM39 1234q0 114 81 192q82 78 196 79q114 0 190 -79q76 -80 76 -192t-81 -192t-195 -80t-190 80q-76 78 -77 192z" />
    <glyph glyph-name="plusminus" unicode="&#xb1;" horiz-adv-x="1175" 
d="M102 0v96h971v-96h-971zM1073 664h-434v-435h-102v435h-435v94h435v434h102v-434h434v-94z" />
    <glyph glyph-name="acute" unicode="&#xb4;" horiz-adv-x="727" 
d="M551 1575v-14l-287 -387h-76l103 401h260z" />
    <glyph glyph-name="paragraph" unicode="&#xb6;" horiz-adv-x="1138" 
d="M1073 1360v-72l-153 -39v-1134q0 -277 -128 -409t-329 -132q-160 0 -258 94q-99 94 -99 236t86 229q86 86 199 86q111 0 171 -57t60 -141q0 -85 -48 -131t-106 -46t-93 37t-33 92q94 37 158 101v8q-33 63 -112 63t-136 -59t-57 -167q1 -109 75 -187t206 -78t214 92
t82 295v1233h-108v-797h-109q-182 0 -312 129q-130 130 -130 312t130 312t312 130h518z" />
    <glyph glyph-name="periodcentered" unicode="&#xb7;" horiz-adv-x="600" 
d="M301 399q-70 1 -121 51t-51 120t51 120q51 51 121 51t120 -50t50 -121t-50 -121t-120 -50z" />
    <glyph glyph-name="cedilla" unicode="&#xb8;" horiz-adv-x="561" 
d="M123 -510l-14 51q201 68 200 166q0 76 -102 109l129 192h70l-66 -96q88 -12 142 -53t55 -107q0 -194 -414 -262z" />
    <glyph glyph-name="ordmasculine" unicode="&#xba;" horiz-adv-x="983" 
d="M57 913q0 181 125 307t314 126q190 0 310 -116t120 -303t-124 -313t-318 -125q-194 0 -311 121q-116 121 -116 303zM467 1278q-127 0 -127 -310q0 -144 50 -277q50 -132 130 -132q125 0 125 289q0 172 -50 301t-128 129z" />
    <glyph glyph-name="guillemotright" unicode="&#xbb;" horiz-adv-x="1011" 
d="M180 59l-45 37l213 334l-211 354l43 33l359 -354v-47zM559 59l-45 37l213 334l-211 354l43 33l359 -354v-47z" />
    <glyph glyph-name="onequarter" unicode="&#xbc;" horiz-adv-x="1538" 
d="M1174 319v263l-242 -263h242zM268 -160l-61 43l1102 1594l63 -43zM430 1370v-706l131 -23v-57h-526v57l145 23v544h-153v49l376 113h27zM1389 319h120v-137h-120v-110l96 -21v-51h-416v51l105 19v112h-363v88l475 527l103 -17v-461z" />
    <glyph glyph-name="onehalf" unicode="&#xbd;" horiz-adv-x="1605" 
d="M268 -160l-61 43l1102 1594l63 -43zM430 1370v-706l131 -23v-57h-526v57l145 23v544h-153v49l376 113h27zM1573 186v-186h-608v59l118 113q106 106 142 143q98 104 98 201q0 55 -38 92t-94 37t-94 -28t-83 -80l-47 30q127 240 327 240q111 1 181 -61q69 -62 69 -157
t-50 -157t-161 -139l-157 -107h397z" />
    <glyph glyph-name="threequarters" unicode="&#xbe;" horiz-adv-x="1546" 
d="M1182 319v263l-242 -263h242zM276 -160l-61 43l1102 1594l63 -43zM300 616q50 0 86 35t36 104t-66 125t-202 56v53q246 41 245 166q0 45 -29 75q-30 30 -87 30q-109 0 -193 -113l-45 24q94 219 328 220q104 1 170 -49q65 -50 65 -122t-56 -122q-56 -49 -138 -74v-8
q113 -8 172 -58t59 -131q0 -117 -101 -189q-100 -72 -234 -73q-134 0 -208 44t-73 108q1 39 29 65t77 25l90 -166q25 -25 75 -25zM1397 319h121v-137h-121v-110l96 -21v-51h-416v51l105 19v112h-363v88l475 527l103 -17v-461z" />
    <glyph glyph-name="questiondown" unicode="&#xbf;" horiz-adv-x="880" 
d="M614 1239q70 0 121 -50t51 -120t-51 -120t-121 -50t-120 50t-52 120q0 70 51 120t121 50zM104 283q0 131 66 210t217 117l195 52l-2 137h79l62 -381l-356 -80q-98 -23 -138 -47q-39 -25 -39 -62q0 -61 104 -98t359 -55l109 -6v-330l-105 22q-233 52 -392 194t-159 327z
" />
    <glyph glyph-name="Agrave" unicode="&#xc0;" horiz-adv-x="1435" 
d="M346 1772h264l164 -299h-102l-326 272v27zM584 1044l-183 -489h355zM-6 0v72l133 37l500 1263l182 37l504 -1309l129 -28v-72h-686v72l159 32l-120 345h-433l-122 -332l227 -45v-72h-473z" />
    <glyph glyph-name="Aacute" unicode="&#xc1;" horiz-adv-x="1435" 
d="M1096 1772v-27l-334 -272h-105l156 299h283zM584 1044l-183 -489h355zM-6 0v72l133 37l500 1263l182 37l504 -1309l129 -28v-72h-686v72l159 32l-120 345h-433l-122 -332l227 -45v-72h-473z" />
    <glyph glyph-name="Acircumflex" unicode="&#xc2;" horiz-adv-x="1435" 
d="M584 1044l-183 -489h355zM504 1473h-94l204 292h207l205 -292h-106l-207 147zM-6 0v72l133 37l500 1263l182 37l504 -1309l129 -28v-72h-686v72l159 32l-120 345h-433l-122 -332l227 -45v-72h-473z" />
    <glyph glyph-name="Atilde" unicode="&#xc3;" horiz-adv-x="1435" 
d="M754 1548l-88 27q-124 37 -176 26t-93 -90l-45 21l10 33q58 162 136 207t221 4l90 -27q95 -31 157 -15t109 97l47 -21l-14 -41q-70 -176 -142 -220t-212 -1zM584 1044l-183 -489h355zM-6 0v72l133 37l500 1263l182 37l504 -1309l129 -28v-72h-686v72l159 32l-120 345
h-433l-122 -332l227 -45v-72h-473z" />
    <glyph glyph-name="Adieresis" unicode="&#xc4;" horiz-adv-x="1435" 
d="M964 1485q-62 0 -108 44q-45 44 -45 107q0 64 45 110q46 46 108 46t110 -47t48 -109t-48 -106q-48 -45 -110 -45zM469 1485q-63 0 -110 44q-46 44 -46 107q0 64 46 110q45 46 109 46t110 -46t47 -110q-1 -64 -47 -107q-46 -44 -109 -44zM584 1044l-183 -489h355zM-6 0v72
l133 37l500 1263l182 37l504 -1309l129 -28v-72h-686v72l159 32l-120 345h-433l-122 -332l227 -45v-72h-473z" />
    <glyph glyph-name="Aring" unicode="&#xc5;" horiz-adv-x="1435" 
d="M582 1702q0 -61 40 -101t95 -40q55 1 93 39t38 98t-40 102q-40 41 -95 41t-93 -39t-38 -100zM494 1699q0 89 63 151t159 62t158 -60t62 -149t-64 -151t-159 -63q-96 0 -158 60q-61 61 -61 150zM584 1044l-183 -489h355zM-6 0v72l133 37l500 1263l182 37l504 -1309
l129 -28v-72h-686v72l159 32l-120 345h-433l-122 -332l227 -45v-72h-473z" />
    <glyph glyph-name="AE" unicode="&#xc6;" horiz-adv-x="1970" 
d="M891 1260h-25l-297 -547h322v547zM1239 625v-484q51 -57 143 -57h240l227 389h72l-84 -473h-1100v72l154 39v518h-367l-272 -512l215 -45v-72h-469v72l125 37l643 1134l-186 45v72h1106l180 2v-408h-70l-137 322h-420v-563h205l67 227h70v-532h-72l-65 217h-205z" />
    <glyph glyph-name="Ccedilla" unicode="&#xc7;" horiz-adv-x="1480" 
d="M76 659q0 313 245 527t594 213q225 0 441 -105l4 -397h-64l-157 313q-123 111 -280 111t-265 -155t-107 -416q0 -324 125 -510t316 -187q113 0 196 62l234 360h65l-82 -407q-252 -98 -469 -99h-22l-39 -57q88 -12 142 -53t55 -107q0 -194 -414 -262l-14 51
q201 68 200 166q0 76 -102 109l106 157q-344 25 -526 222t-182 464z" />
    <glyph glyph-name="Egrave" unicode="&#xc8;" horiz-adv-x="1302" 
d="M334 1772h264l164 -299h-103l-325 272v27zM559 653v-514q51 -57 143 -59h250l228 393h71l-84 -473h-1118v72l158 39v1136l-158 41v72h969l178 2v-408h-70l-137 326h-430v-532h215l68 225h69v-533h-71l-66 213h-215z" />
    <glyph glyph-name="Eacute" unicode="&#xc9;" horiz-adv-x="1302" 
d="M1075 1772v-27l-334 -272h-104l156 299h282zM559 653v-514q51 -57 143 -59h250l228 393h71l-84 -473h-1118v72l158 39v1136l-158 41v72h969l178 2v-408h-70l-137 326h-430v-532h215l68 225h69v-533h-71l-66 213h-215z" />
    <glyph glyph-name="Ecircumflex" unicode="&#xca;" horiz-adv-x="1302" 
d="M467 1473h-94l205 292h206l205 -292h-106l-207 147zM559 653v-514q51 -57 143 -59h250l228 393h71l-84 -473h-1118v72l158 39v1136l-158 41v72h969l178 2v-408h-70l-137 326h-430v-532h215l68 225h69v-533h-71l-66 213h-215z" />
    <glyph glyph-name="Edieresis" unicode="&#xcb;" horiz-adv-x="1302" 
d="M919 1485q-62 0 -108 44q-45 44 -45 107q0 64 45 110t107 46t111 -47q48 -47 48 -109t-48 -106q-48 -45 -110 -45zM424 1485q-63 0 -110 44q-46 44 -46 107q0 64 46 110t110 46t110 -46t46 -110t-46 -107q-46 -44 -110 -44zM559 653v-514q51 -57 143 -59h250l228 393h71
l-84 -473h-1118v72l158 39v1136l-158 41v72h969l178 2v-408h-70l-137 326h-430v-532h215l68 225h69v-533h-71l-66 213h-215z" />
    <glyph glyph-name="Igrave" unicode="&#xcc;" horiz-adv-x="768" 
d="M14 1772h265l163 -299h-102l-326 272v27zM49 0v72l158 39v1138l-158 39v72h668v-72l-158 -39v-1138l158 -39v-72h-668z" />
    <glyph glyph-name="Iacute" unicode="&#xcd;" horiz-adv-x="768" 
d="M756 1772v-27l-334 -272h-105l156 299h283zM49 0v72l158 39v1138l-158 39v72h668v-72l-158 -39v-1138l158 -39v-72h-668z" />
    <glyph glyph-name="Icircumflex" unicode="&#xce;" horiz-adv-x="768" 
d="M184 1473h-96l197 292h200l197 -292h-107l-194 153zM49 0v72l158 39v1138l-158 39v72h668v-72l-158 -39v-1138l158 -39v-72h-668z" />
    <glyph glyph-name="Idieresis" unicode="&#xcf;" horiz-adv-x="768" 
d="M49 0v72l158 39v1138l-158 39v72h668v-72l-158 -39v-1138l158 -39v-72h-668zM596 1477q-63 0 -109 45q-45 45 -45 107q0 61 46 109t108 48t110 -47q46 -47 46 -109t-46 -108q-46 -45 -110 -45zM14 1629q0 61 46 109t110 48t110 -47t46 -109t-46 -108q-46 -45 -112 -45
q-64 0 -109 45t-45 107z" />
    <glyph glyph-name="Eth" unicode="&#xd0;" horiz-adv-x="1601" 
d="M838 647h-283v-506q70 -66 199 -65q168 0 284 158t115 411q0 307 -167 479t-431 174v-559h283v-92zM207 647h-160v92h160v510l-158 39v72l686 2q361 -4 581 -183t220 -472t-224 -495q-110 -98 -286 -156t-399 -58l-578 2v74l158 37v536z" />
    <glyph glyph-name="Ntilde" unicode="&#xd1;" horiz-adv-x="1501" 
d="M838 1548l-88 27q-124 37 -176 26t-93 -90l-45 21l10 33q58 162 136 207t221 4l90 -27q95 -31 157 -15t109 97l47 -21l-14 -41q-70 -176 -142 -220t-212 -1zM541 0h-484v74l156 37v1050q-74 92 -154 117l-36 12v70h477l719 -877l-11 752l-209 53v72h476v-72l-154 -43
v-1077l4 -170l-141 -25l-867 1057l11 -913l213 -43v-74z" />
    <glyph glyph-name="Ograve" unicode="&#xd2;" horiz-adv-x="1638" 
d="M829 1399q309 0 525 -194q216 -193 217 -511t-227 -522t-535 -205q-307 0 -524 195t-217 509t226 521t535 207zM796 1315q-164 0 -250 -153q-86 -154 -87 -436t111 -478t273 -197q161 0 248 155t87 431t-109 477t-273 201zM451 1772h264l164 -299h-103l-325 272v27z" />
    <glyph glyph-name="Oacute" unicode="&#xd3;" horiz-adv-x="1638" 
d="M829 1399q309 0 525 -194q216 -193 217 -511t-227 -522t-535 -205q-307 0 -524 195t-217 509t226 521t535 207zM796 1315q-164 0 -250 -153q-86 -154 -87 -436t111 -478t273 -197q161 0 248 155t87 431t-109 477t-273 201zM1192 1772v-27l-334 -272h-104l155 299h283z
" />
    <glyph glyph-name="Ocircumflex" unicode="&#xd4;" horiz-adv-x="1638" 
d="M608 1473h-94l205 292h207l204 -292h-106l-207 147zM796 1315q-164 0 -250 -153q-86 -154 -87 -436t111 -478t273 -197q161 0 248 155t87 431t-109 477t-273 201zM829 1399q309 0 525 -194q216 -193 217 -511t-227 -522t-535 -205q-307 0 -524 195t-217 509t226 521
t535 207z" />
    <glyph glyph-name="Otilde" unicode="&#xd5;" horiz-adv-x="1638" 
d="M829 1399q309 0 525 -194q216 -193 217 -511t-227 -522t-535 -205q-307 0 -524 195t-217 509t226 521t535 207zM796 1315q-164 0 -250 -153q-86 -154 -87 -436t111 -478t273 -197q161 0 248 155t87 431t-109 477t-273 201zM858 1548l-88 27q-123 37 -175 26t-93 -90
l-45 21l10 33q57 162 135 207t221 4l90 -27q95 -31 157 -15t110 97l47 -21l-15 -41q-70 -176 -142 -220t-212 -1z" />
    <glyph glyph-name="Odieresis" unicode="&#xd6;" horiz-adv-x="1638" 
d="M829 1399q309 0 525 -194q216 -193 217 -511t-227 -522t-535 -205q-307 0 -524 195t-217 509t226 521t535 207zM796 1315q-164 0 -250 -153q-86 -154 -87 -436t111 -478t273 -197q161 0 248 155t87 431t-109 477t-273 201zM913 1636q0 64 45 110q46 46 108 46t110 -47
t49 -109q-1 -62 -49 -106q-48 -45 -110 -45t-108 44q-45 44 -45 107zM571 1485q-63 0 -109 44t-46 107q0 64 46 110t109 46t109 -46t47 -110q-1 -64 -47 -107q-46 -44 -109 -44z" />
    <glyph glyph-name="multiply" unicode="&#xd7;" horiz-adv-x="1175" 
d="M967 47l-383 387l-381 -387l-72 70l385 387l-379 379l76 75l379 -380l375 387l69 -72l-377 -383l383 -385z" />
    <glyph glyph-name="Oslash" unicode="&#xd8;" horiz-adv-x="1638" 
d="M463 731q0 -182 43 -325l588 657q-51 117 -130 185t-178 67q-152 -1 -238 -153t-85 -431zM850 51q154 0 240 155t86 431q0 182 -52 342l-589 -660q51 -125 133 -197t182 -71zM68 672q0 313 226 520t527 207q258 0 455 -133l131 145h106l-174 -194q231 -199 231 -520
t-226 -525q-228 -204 -514 -205q-286 0 -482 144l-158 -177h-108l203 228q-217 197 -217 510z" />
    <glyph glyph-name="Ugrave" unicode="&#xd9;" horiz-adv-x="1511" 
d="M1331 555q0 -281 -148 -437q-147 -156 -423 -155q-276 0 -427 137t-151 414v733l-157 41v72h708v-72l-192 -41v-717q0 -199 87 -304q88 -105 242 -105t247 98t95 291l-4 729l-213 49v72h492v-72l-156 -45v-688zM469 1772h264l164 -299h-102l-326 272v27z" />
    <glyph glyph-name="Uacute" unicode="&#xda;" horiz-adv-x="1511" 
d="M1331 555q0 -281 -148 -437q-147 -156 -423 -155q-276 0 -427 137t-151 414v733l-157 41v72h708v-72l-192 -41v-717q0 -199 87 -304q88 -105 242 -105t247 98t95 291l-4 729l-213 49v72h492v-72l-156 -45v-688zM1206 1772v-27l-334 -272h-104l156 299h282z" />
    <glyph glyph-name="Ucircumflex" unicode="&#xdb;" horiz-adv-x="1511" 
d="M631 1473h-94l204 292h207l205 -292h-106l-207 147zM1331 555q0 -281 -148 -437q-147 -156 -423 -155q-276 0 -427 137t-151 414v733l-157 41v72h708v-72l-192 -41v-717q0 -199 87 -304q88 -105 242 -105t247 98t95 291l-4 729l-213 49v72h492v-72l-156 -45v-688z" />
    <glyph glyph-name="Udieresis" unicode="&#xdc;" horiz-adv-x="1511" 
d="M934 1636q0 64 45 110t107 46t110 -47t49 -109q-1 -62 -49 -106q-48 -45 -110 -45t-107 44t-45 107zM592 1485q-63 0 -110 44q-46 44 -46 107q0 64 46 110t110 46t109 -46q47 -46 47 -110t-46 -107q-46 -44 -110 -44zM1331 555q0 -281 -148 -437q-147 -156 -423 -155
q-276 0 -427 137t-151 414v733l-157 41v72h708v-72l-192 -41v-717q0 -199 87 -304q88 -105 242 -105t247 98t95 291l-4 729l-213 49v72h492v-72l-156 -45v-688z" />
    <glyph glyph-name="Yacute" unicode="&#xdd;" horiz-adv-x="1357" 
d="M1163 1772v-27l-334 -272h-104l156 299h282zM1024 0h-676v72l162 39v428l-389 714l-121 35v72h692v-72l-188 -39l301 -598l311 592l-205 45v72h447v-72l-127 -43l-369 -663v-471l162 -39v-72z" />
    <glyph glyph-name="Thorn" unicode="&#xde;" horiz-adv-x="1316" 
d="M49 0v74l158 37v1138l-158 39v72h668v-72l-158 -39v-192h121q290 0 440 -96t150 -250q0 -98 -58 -176t-150 -122q-197 -93 -421 -87v57q129 29 207 105t78 196q0 121 -96 206t-271 95v-874l158 -39v-72h-668z" />
    <glyph glyph-name="germandbls" unicode="&#xdf;" horiz-adv-x="1404" 
d="M33 0v70l125 30v799h-142v70l144 49q29 219 206 371t429 151q197 0 311 -75t115 -205q0 -66 -36 -123t-74 -88q-39 -31 -113 -81t-104 -78t-30 -61t23 -52t88 -50l151 -74q126 -59 178 -127t52 -168q0 -168 -137 -278t-340 -111q-152 0 -273 66v301h49l101 -223
q51 -59 134 -59t128 46q45 47 45 113q0 115 -162 193l-104 51q-156 74 -156 213q1 76 53 142q18 24 60 70q41 46 57 66q127 145 127 289q2 95 -52 157t-156 62t-172 -89t-71 -286v-1081h-454z" />
    <glyph glyph-name="agrave" unicode="&#xe0;" horiz-adv-x="1081" 
d="M217 1575h258l105 -401h-78l-285 387v14zM365 297q0 -68 38 -110t98 -42t109 50v313l-67 -23q-178 -59 -178 -188zM328 -31q-119 0 -196 74q-77 75 -77 191t84 185t277 113l194 48v159q-6 91 -48 147t-104 56t-89 -20l-7 -244q-56 -25 -130 -25q-148 0 -148 119
q0 96 153 183t347 87q352 0 352 -325v-527q0 -49 15 -62t61 -13h73v-52q-156 -90 -278 -90q-176 0 -186 168h-9q-118 -172 -284 -172z" />
    <glyph glyph-name="aacute" unicode="&#xe1;" horiz-adv-x="1081" 
d="M860 1575v-14l-287 -387h-75l102 401h260zM365 297q0 -68 38 -110t98 -42t109 50v313l-67 -23q-178 -59 -178 -188zM328 -31q-119 0 -196 74q-77 75 -77 191t84 185t277 113l194 48v159q-6 91 -48 147t-104 56t-89 -20l-7 -244q-56 -25 -130 -25q-148 0 -148 119
q0 96 153 183t347 87q352 0 352 -325v-527q0 -49 15 -62t61 -13h73v-52q-156 -90 -278 -90q-176 0 -186 168h-9q-118 -172 -284 -172z" />
    <glyph glyph-name="acircumflex" unicode="&#xe2;" horiz-adv-x="1081" 
d="M365 297q0 -68 38 -110t98 -42t109 50v313l-67 -23q-178 -59 -178 -188zM356 1174h-86l201 401h152l198 -401h-86l-194 219zM328 -31q-119 0 -196 74q-77 75 -77 191t84 185t277 113l194 48v159q-6 91 -48 147t-104 56t-89 -20l-7 -244q-56 -25 -130 -25q-148 0 -148 119
q0 96 153 183t347 87q352 0 352 -325v-527q0 -49 15 -62t61 -13h73v-52q-156 -90 -278 -90q-176 0 -186 168h-9q-118 -172 -284 -172z" />
    <glyph glyph-name="atilde" unicode="&#xe3;" horiz-adv-x="1081" 
d="M569 1227l-86 30q-125 41 -172 27t-90 -94l-47 20l12 33q62 166 144 214t221 -1l90 -33q93 -35 151 -15t109 101l47 -20l-16 -39q-72 -178 -148 -226t-215 3zM365 297q0 -68 38 -110t98 -42t109 50v313l-67 -23q-178 -59 -178 -188zM328 -31q-119 0 -196 74
q-77 75 -77 191t84 185t277 113l194 48v159q-6 91 -48 147t-104 56t-89 -20l-7 -244q-56 -25 -130 -25q-148 0 -148 119q0 96 153 183t347 87q352 0 352 -325v-527q0 -49 15 -62t61 -13h73v-52q-156 -90 -278 -90q-176 0 -186 168h-9q-118 -172 -284 -172z" />
    <glyph glyph-name="adieresis" unicode="&#xe4;" horiz-adv-x="1081" 
d="M754 1204q-63 0 -109 45q-45 45 -45 109t45 109q45 46 109 46t109 -46q46 -46 46 -109q0 -62 -46 -108t-109 -46zM326 1204q-63 0 -110 45q-46 45 -46 109t46 109q46 46 110 46t109 -46q46 -46 46 -109q0 -62 -46 -108t-109 -46zM365 297q0 -68 38 -110t98 -42t109 50
v313l-67 -23q-178 -59 -178 -188zM328 -31q-119 0 -196 74q-77 75 -77 191t84 185t277 113l194 48v159q-6 91 -48 147t-104 56t-89 -20l-7 -244q-56 -25 -130 -25q-148 0 -148 119q0 96 153 183t347 87q352 0 352 -325v-527q0 -49 15 -62t61 -13h73v-52q-156 -90 -278 -90
q-176 0 -186 168h-9q-118 -172 -284 -172z" />
    <glyph glyph-name="aring" unicode="&#xe5;" horiz-adv-x="1081" 
d="M408 1375q0 -60 38 -100t94 -40t94 39t38 99q0 61 -39 101t-94 40t-94 -39q-37 -40 -37 -100zM319 1372q-1 88 63 152t160 63q96 0 156 -60q62 -59 62 -149t-62 -152t-159 -62q-96 0 -158 60t-62 148zM365 297q0 -68 38 -110t98 -42t109 50v313l-67 -23
q-178 -59 -178 -188zM328 -31q-119 0 -196 74q-77 75 -77 191t84 185t277 113l194 48v159q-6 91 -48 147t-104 56t-89 -20l-7 -244q-56 -25 -130 -25q-148 0 -148 119q0 96 153 183t347 87q352 0 352 -325v-527q0 -49 15 -62t61 -13h73v-52q-156 -90 -278 -90
q-176 0 -186 168h-9q-118 -172 -284 -172z" />
    <glyph glyph-name="ae" unicode="&#xe6;" horiz-adv-x="1605" 
d="M612 475v19l-37 -9q-109 -25 -159 -77t-49 -118q-1 -67 37 -106t100 -39q100 0 139 136q-31 85 -31 194zM1044 956q-66 0 -98 -63q-33 -63 -35 -221v-58l291 48q-6 130 -49 212t-109 82zM55 236q1 118 99 187t335 118l123 24v164q-4 97 -47 155t-121 58q-45 0 -75 -22
l-2 -240q-79 -27 -143 -27t-101 32t-37 89q0 98 151 183t335 85t264 -120q116 120 288 120t276 -109q103 -110 130 -310l-619 -82v-62q25 -129 123 -205t228 -75q66 0 100 14t46 19t53 26q40 21 46 29l31 -39q-55 -72 -103 -122q-49 -50 -149 -102t-214 -52t-212 52
t-162 146q-40 -40 -67 -61t-58 -46t-74 -48q-86 -46 -189 -46t-179 74q-76 75 -76 193z" />
    <glyph glyph-name="ccedilla" unicode="&#xe7;" horiz-adv-x="1032" 
d="M477 -291q0 76 -102 109l106 159q-195 21 -311 163t-117 370q0 228 164 382t385 152q156 0 264 -74t107 -177q0 -68 -46 -105q-45 -37 -115 -37t-95 17l-60 256q-45 45 -119 45t-128 -84q-53 -84 -54 -215q0 -223 104 -346t261 -123q84 -1 157 31t95 57l26 -37
q-81 -125 -197 -202t-253 -77l-41 -59q88 -12 142 -53t55 -107q0 -194 -414 -262l-15 51q201 68 201 166z" />
    <glyph glyph-name="egrave" unicode="&#xe8;" horiz-adv-x="1069" 
d="M242 1575h258l104 -401h-78l-284 387v14zM506 958q-68 0 -112 -70t-52 -210h326q-10 128 -52 204t-110 76zM539 -27q-217 0 -352 152q-134 152 -134 376t160 384t358 159q375 0 426 -442h-655q4 -190 115 -296t262 -107q115 0 260 88l33 -39q-203 -275 -473 -275z" />
    <glyph glyph-name="eacute" unicode="&#xe9;" horiz-adv-x="1069" 
d="M862 1575v-14l-287 -387h-75l102 401h260zM506 958q-68 0 -112 -70t-52 -210h326q-10 128 -52 204t-110 76zM539 -27q-217 0 -352 152q-134 152 -134 376t160 384t358 159q375 0 426 -442h-655q4 -190 115 -296t262 -107q115 0 260 88l33 -39q-203 -275 -473 -275z" />
    <glyph glyph-name="ecircumflex" unicode="&#xea;" horiz-adv-x="1069" 
d="M506 958q-68 0 -112 -70t-52 -210h326q-10 128 -52 204t-110 76zM367 1174h-86l200 401h152l198 -401h-86l-194 219zM539 -27q-217 0 -352 152q-134 152 -134 376t160 384t358 159q375 0 426 -442h-655q4 -190 115 -296t262 -107q115 0 260 88l33 -39
q-203 -275 -473 -275z" />
    <glyph glyph-name="edieresis" unicode="&#xeb;" horiz-adv-x="1069" 
d="M506 958q-68 0 -112 -70t-52 -210h326q-10 128 -52 204t-110 76zM774 1204q-63 0 -108 45t-45 109t45 109q45 46 108 46q64 0 110 -46t46 -109t-46 -109q-47 -45 -110 -45zM346 1204q-63 0 -109 45q-47 45 -47 109t46 109q46 46 110 46t110 -46t46 -109t-46 -109
q-47 -45 -110 -45zM539 -27q-217 0 -352 152q-134 152 -134 376t160 384t358 159q375 0 426 -442h-655q4 -190 115 -296t262 -107q115 0 260 88l33 -39q-203 -275 -473 -275z" />
    <glyph glyph-name="igrave" unicode="&#xec;" horiz-adv-x="649" 
d="M4 1575h258l105 -401h-78l-285 387v14zM33 0v70l131 30v709l-127 92v37l461 104v-942l131 -30v-70h-596z" />
    <glyph glyph-name="iacute" unicode="&#xed;" horiz-adv-x="649" 
d="M33 0v70l131 30v709l-127 92v37l461 104v-942l131 -30v-70h-596zM645 1575v-14l-287 -387h-75l102 401h260z" />
    <glyph glyph-name="icircumflex" unicode="&#xee;" horiz-adv-x="649" 
d="M143 1174h-84l195 401h152l192 -401h-86l-190 215zM33 0v70l131 30v709l-127 92v37l461 104v-942l131 -30v-70h-596z" />
    <glyph glyph-name="idieresis" unicode="&#xef;" horiz-adv-x="649" 
d="M33 0v70l131 30v709l-127 92v37l461 104v-942l131 -30v-70h-596zM523 1204q-62 0 -107 45t-45 109t45 109q45 46 107 46q61 0 109 -46t48 -109t-47 -109q-48 -45 -110 -45zM125 1204q-63 0 -110 45q-46 45 -46 109t46 109q45 46 109 46t110 -46t46 -109q0 -62 -46 -108
t-109 -46z" />
    <glyph glyph-name="eth" unicode="&#xf0;" horiz-adv-x="1243" 
d="M821 406q0 195 -41 344q-90 190 -192 190q-88 0 -131 -94t-43 -230q0 -227 66 -401t175 -174q166 0 166 365zM1178 561q0 -279 -159 -439t-410 -159q-251 0 -401 154q-150 155 -149 375q0 220 166 372t365 152q27 0 84 -4q-72 123 -182 233l-310 -151l-35 65l287 139
q-104 94 -264 197l31 53q225 -61 409 -162l285 140l33 -68l-240 -117q246 -157 368 -363t122 -417z" />
    <glyph glyph-name="ntilde" unicode="&#xf1;" horiz-adv-x="1282" 
d="M666 1227l-86 30q-123 43 -171 29t-92 -96l-47 20l13 33q61 166 143 214t221 -1l90 -33q93 -35 151 -15t109 101l47 -20l-16 -39q-72 -178 -148 -226t-214 3zM33 0v70l125 30v709l-123 84v37l405 117h11l18 -193h6q182 188 365 188q141 0 218 -78t77 -239v-625l127 -32
v-68h-568v70l109 30v555q-2 87 -46 141t-121 52t-147 -51v-697l109 -30v-70h-565z" />
    <glyph glyph-name="ograve" unicode="&#xf2;" horiz-adv-x="1234" 
d="M295 1575h258l104 -401h-77l-285 387v14zM1178 519q0 -235 -160 -393t-410 -157q-250 0 -400 153q-150 154 -151 380q0 226 162 384q163 158 405 156q242 0 398 -144t156 -379zM653 45q172 1 172 397q-1 204 -69 366t-174 161q-135 0 -166 -231q-8 -58 -8 -122
q0 -233 68 -402t177 -169z" />
    <glyph glyph-name="oacute" unicode="&#xf3;" horiz-adv-x="1234" 
d="M1178 519q0 -235 -160 -393t-410 -157q-250 0 -400 153q-150 154 -151 380q0 226 162 384q163 158 405 156q242 0 398 -144t156 -379zM653 45q172 1 172 397q-1 204 -69 366t-174 161q-135 0 -166 -231q-8 -58 -8 -122q0 -233 68 -402t177 -169zM936 1575v-14l-287 -387
h-76l103 401h260z" />
    <glyph glyph-name="ocircumflex" unicode="&#xf4;" horiz-adv-x="1234" 
d="M434 1174h-86l201 401h151l199 -401h-86l-195 219zM653 45q172 1 172 397q-1 204 -69 366t-174 161q-135 0 -166 -231q-8 -58 -8 -122q0 -233 68 -402t177 -169zM1178 519q0 -235 -160 -393t-410 -157q-250 0 -400 153q-150 154 -151 380q0 226 162 384q163 158 405 156
q242 0 398 -144t156 -379z" />
    <glyph glyph-name="otilde" unicode="&#xf5;" horiz-adv-x="1234" 
d="M647 1227l-86 30q-123 43 -171 29t-91 -96l-47 20l12 33q62 166 144 214t221 -1l90 -33q94 -35 151 -15t109 101l47 -20l-16 -39q-72 -178 -148 -226t-215 3zM1178 519q0 -235 -160 -393t-410 -157q-250 0 -400 153q-150 154 -151 380q0 226 162 384q163 158 405 156
q242 0 398 -144t156 -379zM653 45q172 1 172 397q-1 204 -69 366t-174 161q-135 0 -166 -231q-8 -58 -8 -122q0 -233 68 -402t177 -169z" />
    <glyph glyph-name="odieresis" unicode="&#xf6;" horiz-adv-x="1234" 
d="M1178 519q0 -235 -160 -393t-410 -157q-250 0 -400 153q-150 154 -151 380q0 226 162 384q163 158 405 156q242 0 398 -144t156 -379zM653 45q172 1 172 397q-1 204 -69 366t-174 161q-135 0 -166 -231q-8 -58 -8 -122q0 -233 68 -402t177 -169zM831 1204q-63 0 -108 45
t-45 109t45 109q45 46 108 46t109 -46t47 -109q0 -63 -46 -109q-47 -45 -110 -45zM403 1204q-63 0 -109 45t-46 109t46 109q46 46 109 46t109 -46t47 -109q0 -63 -46 -109q-47 -45 -110 -45z" />
    <glyph glyph-name="divide" unicode="&#xf7;" horiz-adv-x="1175" 
d="M588 51q-57 0 -100 42q-42 41 -42 99t42 101t100 43t100 -43q43 -43 43 -99t-43 -100t-100 -43zM588 676q-57 0 -100 43q-42 43 -42 100t42 101t100 43q58 0 101 -43q44 -42 44 -100t-44 -101t-101 -43zM1073 459h-971v96h971v-96z" />
    <glyph glyph-name="oslash" unicode="&#xf8;" horiz-adv-x="1234" 
d="M653 45q84 -1 130 97t45 246t-25 276l-346 -410q72 -209 196 -209zM580 969q-92 -1 -134 -107t-43 -253q0 -147 31 -273l346 412q-69 221 -200 221zM57 488q0 240 162 398t399 156q195 0 334 -92l127 150h92l-161 -193q168 -145 168 -384t-160 -397t-400 -157
q-190 0 -327 88l-131 -155h-94l165 196q-174 150 -174 390z" />
    <glyph glyph-name="ugrave" unicode="&#xf9;" horiz-adv-x="1269" 
d="M311 1575h258l105 -401h-78l-285 387v14zM440 -31q-131 0 -215 75t-84 239v561l-125 61v45l457 80v-680q0 -190 164 -190q80 0 143 45v647l-131 59v45l463 80v-905l131 -33v-57l-434 -66l-25 166q-168 -172 -344 -172z" />
    <glyph glyph-name="uacute" unicode="&#xfa;" horiz-adv-x="1269" 
d="M440 -31q-131 0 -215 75t-84 239v561l-125 61v45l457 80v-680q0 -190 164 -190q80 0 143 45v647l-131 59v45l463 80v-905l131 -33v-57l-434 -66l-25 166q-168 -172 -344 -172zM952 1575v-14l-286 -387h-76l102 401h260z" />
    <glyph glyph-name="ucircumflex" unicode="&#xfb;" horiz-adv-x="1269" 
d="M451 1174h-86l200 401h152l198 -401h-86l-194 219zM440 -31q-131 0 -215 75t-84 239v561l-125 61v45l457 80v-680q0 -190 164 -190q80 0 143 45v647l-131 59v45l463 80v-905l131 -33v-57l-434 -66l-25 166q-168 -172 -344 -172z" />
    <glyph glyph-name="udieresis" unicode="&#xfc;" horiz-adv-x="1269" 
d="M440 -31q-131 0 -215 75t-84 239v561l-125 61v45l457 80v-680q0 -190 164 -190q80 0 143 45v647l-131 59v45l463 80v-905l131 -33v-57l-434 -66l-25 166q-168 -172 -344 -172zM848 1204q-63 0 -109 45q-45 45 -45 109t45 109q45 46 109 46t109 -46q47 -46 47 -109
q0 -62 -46 -108t-110 -46zM420 1204q-63 0 -110 45q-46 45 -46 109t46 109q46 46 110 46t109 -46q46 -46 46 -109q0 -62 -46 -108t-109 -46z" />
    <glyph glyph-name="yacute" unicode="&#xfd;" horiz-adv-x="1054" 
d="M948 1575v-14l-286 -387h-76l102 401h260zM743 1012h320v-68l-90 -26l-479 -1199q-84 -207 -240 -206q-68 0 -118 48t-50 121q0 72 49 120t119 48q109 0 158 -112h4l67 168l-409 1016l-82 22v68h557v-68l-117 -22l211 -609l221 600l-121 33v66z" />
    <glyph glyph-name="thorn" unicode="&#xfe;" horiz-adv-x="1241" 
d="M571 864q-53 0 -106 -33v-684q57 -88 157 -88q100 -1 161 99q63 100 63 286t-83 302q-83 118 -192 118zM569 -20q-43 0 -104 16v-338l221 -39v-68h-696v68l143 33v1628l-125 78v37l457 133v-651q135 157 305 157t291 -119t121 -340q0 -255 -188 -425t-425 -170z" />
    <glyph glyph-name="ydieresis" unicode="&#xff;" horiz-adv-x="1054" 
d="M801 1204q-63 0 -109 45q-45 45 -45 109t45 109q44 46 108 46t110 -46t46 -109q0 -62 -46 -108t-109 -46zM373 1204q-63 0 -110 45q-46 45 -46 109t46 109q45 46 109 46t110 -46t46 -109q0 -62 -46 -108t-109 -46zM743 1012h320v-68l-90 -26l-479 -1199
q-84 -207 -240 -206q-68 0 -118 48t-50 121q0 72 49 120t119 48q109 0 158 -112h4l67 168l-409 1016l-82 22v68h557v-68l-117 -22l211 -609l221 600l-121 33v66z" />
    <glyph glyph-name="Amacron" unicode="&#x100;" horiz-adv-x="1435" 
d="M406 1550v150h618v-150h-618zM584 1044l-183 -489h355zM-6 0v72l133 37l500 1263l182 37l504 -1309l129 -28v-72h-686v72l159 32l-120 345h-433l-122 -332l227 -45v-72h-473z" />
    <glyph glyph-name="amacron" unicode="&#x101;" horiz-adv-x="1081" 
d="M231 1274v149h619v-149h-619zM365 297q0 -68 38 -110t98 -42t109 50v313l-67 -23q-178 -59 -178 -188zM328 -31q-119 0 -196 74q-77 75 -77 191t84 185t277 113l194 48v159q-6 91 -48 147t-104 56t-89 -20l-7 -244q-56 -25 -130 -25q-148 0 -148 119q0 96 153 183t347 87
q352 0 352 -325v-527q0 -49 15 -62t61 -13h73v-52q-156 -90 -278 -90q-176 0 -186 168h-9q-118 -172 -284 -172z" />
    <glyph glyph-name="Abreve" unicode="&#x102;" horiz-adv-x="1435" 
d="M708 1460q-136 0 -209 89t-73 216h76q66 -139 216 -139t212 139h71q3 -125 -77 -215t-216 -90zM584 1044l-183 -489h355zM-6 0v72l133 37l500 1263l182 37l504 -1309l129 -28v-72h-686v72l159 32l-120 345h-433l-122 -332l227 -45v-72h-473z" />
    <glyph glyph-name="abreve" unicode="&#x103;" horiz-adv-x="1081" 
d="M538 1184q-128 0 -202 91t-74 284h62q43 -209 218 -209t222 209h57q-3 -179 -79 -277t-204 -98zM365 297q0 -68 38 -110t98 -42t109 50v313l-67 -23q-178 -59 -178 -188zM328 -31q-119 0 -196 74q-77 75 -77 191t84 185t277 113l194 48v159q-6 91 -48 147t-104 56
t-89 -20l-7 -244q-56 -25 -130 -25q-148 0 -148 119q0 96 153 183t347 87q352 0 352 -325v-527q0 -49 15 -62t61 -13h73v-52q-156 -90 -278 -90q-176 0 -186 168h-9q-118 -172 -284 -172z" />
    <glyph glyph-name="Aogonek" unicode="&#x104;" horiz-adv-x="1435" 
d="M584 1044l-183 -489h353zM-6 0v72l133 37l500 1263l182 37l504 -1309l129 -28v-72h-408q-162 -82 -162 -203q0 -49 27 -80t80 -31t123 72l39 -30q-55 -104 -119 -162t-160 -60q-96 0 -151 50t-55 129t60 151q62 72 226 184l-151 429h-429l-122 -332l227 -45v-72h-473z
" />
    <glyph glyph-name="aogonek" unicode="&#x105;" horiz-adv-x="1081" 
d="M365 297q0 -68 38 -110t98 -42t109 50v313l-67 -23q-178 -59 -178 -188zM328 -31q-119 0 -196 74q-77 75 -77 191t84 184t277 114l194 48v159q-6 91 -48 147t-104 56t-89 -20l-7 -244q-56 -25 -130 -25q-148 0 -148 117q0 96 153 184t347 88q352 0 352 -325v-527
q0 -49 15 -62t61 -13h73v-47q-162 -98 -219 -158t-57 -112t28 -82t70 -29q63 0 129 71l43 -30q-59 -106 -121 -164t-159 -58q-95 0 -151 50t-56 130q0 79 62 144q63 65 200 139v8q-119 -8 -170 32t-61 132h-11q-119 -172 -284 -172z" />
    <glyph glyph-name="Cacute" unicode="&#x106;" horiz-adv-x="1480" 
d="M1253 1772v-27l-333 -272h-105l156 299h282zM881 -31q-207 1 -363 59t-250 156q-192 200 -192 475q0 313 245 527t594 213q225 0 441 -105l4 -397h-64l-157 313q-123 111 -280 111t-265 -155t-107 -416q0 -324 125 -510t316 -187q113 0 196 62l234 360h65l-82 -407
q-252 -99 -460 -99z" />
    <glyph glyph-name="cacute" unicode="&#x107;" horiz-adv-x="1032" 
d="M549 -27q-221 -1 -359 145t-137 383q0 237 164 391t385 152q156 0 264 -74t107 -177q0 -68 -46 -105q-45 -37 -115 -37t-95 17l-60 256q-45 45 -119 45t-128 -84q-53 -84 -54 -215q0 -223 104 -346t261 -123q84 -1 157 31t95 57l26 -37q-81 -125 -197 -202t-253 -77z
M889 1575v-14l-287 -387h-76l103 401h260z" />
    <glyph glyph-name="Ccircumflex" unicode="&#x108;" horiz-adv-x="1480" 
d="M668 1473h-95l205 292h207l205 -292h-107l-206 147zM881 -31q-207 1 -363 59t-250 156q-192 200 -192 475q0 313 245 527t594 213q225 0 441 -105l4 -397h-64l-157 313q-123 111 -280 111t-265 -155t-107 -416q0 -324 125 -510t316 -187q113 0 196 62l234 360h65
l-82 -407q-252 -99 -460 -99z" />
    <glyph glyph-name="ccircumflex" unicode="&#x109;" horiz-adv-x="1032" 
d="M385 1174h-86l201 401h151l199 -401h-86l-195 219zM549 -27q-221 -1 -359 145t-137 383q0 237 164 391t385 152q156 0 264 -74t107 -177q0 -68 -46 -105q-45 -37 -115 -37t-95 17l-60 256q-45 45 -119 45t-128 -84q-53 -84 -54 -215q0 -223 104 -346t261 -123
q84 -1 157 31t95 57l26 -37q-81 -125 -197 -202t-253 -77z" />
    <glyph glyph-name="Cdotaccent" unicode="&#x10a;" horiz-adv-x="1480" 
d="M874 1481q-72 0 -120 48t-47 120q0 71 49 121q50 50 120 50t121 -50t51 -120t-50 -120q-52 -49 -124 -49zM881 -31q-207 1 -363 59t-250 156q-192 200 -192 475q0 313 245 527t594 213q225 0 441 -105l4 -397h-64l-157 313q-123 111 -280 111t-265 -155t-107 -416
q0 -324 125 -510t316 -187q113 0 196 62l234 360h65l-82 -407q-252 -99 -460 -99z" />
    <glyph glyph-name="cdotaccent" unicode="&#x10b;" horiz-adv-x="1032" 
d="M570 1188q-70 0 -120 49t-51 121q1 72 51 121t120 49t121 -50q50 -50 50 -120t-50 -120t-121 -50zM549 -27q-221 -1 -359 145t-137 383q0 237 164 391t385 152q156 0 264 -74t107 -177q0 -68 -46 -105q-45 -37 -115 -37t-95 17l-60 256q-45 45 -119 45t-128 -84
q-53 -84 -54 -215q0 -223 104 -346t261 -123q84 -1 157 31t95 57l26 -37q-81 -125 -197 -202t-253 -77z" />
    <glyph glyph-name="Ccaron" unicode="&#x10c;" horiz-adv-x="1480" 
d="M1083 1765h97l-205 -292h-207l-205 292h105l206 -151zM881 -31q-207 1 -363 59t-250 156q-192 200 -192 475q0 313 245 527t594 213q225 0 441 -105l4 -397h-64l-157 313q-123 111 -280 111t-265 -155t-107 -416q0 -324 125 -510t316 -187q113 0 196 62l234 360h65
l-82 -407q-252 -99 -460 -99z" />
    <glyph glyph-name="ccaron" unicode="&#x10d;" horiz-adv-x="1032" 
d="M760 1575h84l-201 -401h-151l-199 401h86l194 -219zM549 -27q-221 -1 -359 145t-137 383q0 237 164 391t385 152q156 0 264 -74t107 -177q0 -68 -46 -105q-45 -37 -115 -37t-95 17l-60 256q-45 45 -119 45t-128 -84q-53 -84 -54 -215q0 -223 104 -346t261 -123
q84 -1 157 31t95 57l26 -37q-81 -125 -197 -202t-253 -77z" />
    <glyph glyph-name="Dcaron" unicode="&#x10e;" horiz-adv-x="1601" 
d="M954 1765h97l-205 -292h-207l-205 292h105l206 -151zM1153 645q0 307 -167 479t-431 174v-1157q70 -66 201 -65q168 2 282 160t115 409zM1536 707q0 -293 -224 -495q-110 -98 -286 -156t-399 -58l-578 2v74l158 37v1138l-158 39v72l686 2q361 -4 581 -183t220 -472z" />
    <glyph glyph-name="dcaron" unicode="&#x10f;" horiz-adv-x="1247" 
d="M1473 1493v-14l-224 -410h-59l39 424h244zM666 137q51 0 98 29v663q-70 123 -166 123t-156 -88t-59 -278q0 -190 81 -319q81 -130 202 -130zM467 -31q-178 1 -296 139t-118 353q1 249 183 407t438 158q31 0 90 -6v283l-162 79v35l494 115v-1401l118 -31v-57l-411 -68
l-29 131q-129 -137 -307 -137z" />
    <glyph glyph-name="Dcroat" unicode="&#x110;" horiz-adv-x="1601" 
d="M838 647h-283v-506q70 -66 199 -65q168 0 284 158t115 411q0 307 -167 479t-431 174v-559h283v-92zM207 647h-160v92h160v510l-158 39v72l686 2q361 -4 581 -183t220 -472t-224 -495q-110 -98 -286 -156t-399 -58l-578 2v74l158 37v536z" />
    <glyph glyph-name="dcroat" unicode="&#x111;" horiz-adv-x="1247" 
d="M664 139q47 0 100 31v674q-66 108 -161 108t-155 -86t-61 -274q0 -188 80 -320q80 -133 197 -133zM1096 1237h123v-80h-123v-1026l118 -31v-57l-411 -68l-29 129q-123 -135 -304 -135q-181 1 -299 139t-118 353q0 253 177 409t444 156q31 0 90 -6v137h-340v80h340v86
l-162 59v35l494 115v-295z" />
    <glyph glyph-name="Emacron" unicode="&#x112;" horiz-adv-x="1302" 
d="M360 1550v150h619v-150h-619zM559 653v-514q51 -57 143 -59h250l228 393h71l-84 -473h-1118v72l158 39v1136l-158 41v72h969l178 2v-408h-70l-137 326h-430v-532h215l68 225h69v-533h-71l-66 213h-215z" />
    <glyph glyph-name="emacron" unicode="&#x113;" horiz-adv-x="1069" 
d="M506 958q-68 0 -112 -70t-52 -210h326q-10 128 -52 204t-110 76zM233 1274v149h619v-149h-619zM539 -27q-217 0 -352 152q-134 152 -134 376t160 384t358 159q375 0 426 -442h-655q4 -190 115 -296t262 -107q115 0 260 88l33 -39q-203 -275 -473 -275z" />
    <glyph glyph-name="Ebreve" unicode="&#x114;" horiz-adv-x="1302" 
d="M687 1460q-136 0 -209 89t-72 216h75q67 -139 217 -139t211 139h72q2 -125 -78 -215t-216 -90zM559 653v-514q51 -57 143 -59h250l228 393h71l-84 -473h-1118v72l158 39v1136l-158 41v72h969l178 2v-408h-70l-137 326h-430v-532h215l68 225h69v-533h-71l-66 213h-215z
" />
    <glyph glyph-name="ebreve" unicode="&#x115;" horiz-adv-x="1069" 
d="M506 958q-68 0 -112 -70t-52 -210h326q-10 128 -52 204t-110 76zM564 1184q-128 0 -202 91t-73 284h61q43 -209 219 -209t222 209h57q-2 -179 -79 -277t-205 -98zM539 -27q-217 0 -352 152q-134 152 -134 376t160 384t358 159q375 0 426 -442h-655q4 -190 115 -296
t262 -107q115 0 260 88l33 -39q-203 -275 -473 -275z" />
    <glyph glyph-name="Edotaccent" unicode="&#x116;" horiz-adv-x="1302" 
d="M697 1481q-71 0 -119 48t-50 120q0 71 50 121t120 50t121 -50t51 -120t-51 -120q-51 -49 -122 -49zM559 653v-514q51 -57 143 -59h250l228 393h71l-84 -473h-1118v72l158 39v1136l-158 41v72h969l178 2v-408h-70l-137 326h-430v-532h215l68 225h69v-533h-71l-66 213h-215
z" />
    <glyph glyph-name="edotaccent" unicode="&#x117;" horiz-adv-x="1069" 
d="M506 958q-68 0 -112 -70t-52 -210h326q-10 128 -52 204t-110 76zM566 1188q-71 0 -121 49t-50 121t50 121t121 49t121 -50t50 -120t-50 -120t-121 -50zM539 -27q-217 0 -352 152q-134 152 -134 376t160 384t358 159q375 0 426 -442h-655q4 -190 115 -296t262 -107
q115 0 260 88l33 -39q-203 -275 -473 -275z" />
    <glyph glyph-name="Eogonek" unicode="&#x118;" horiz-adv-x="1302" 
d="M559 653v-514q51 -57 143 -59h250l228 393h71l-84 -473h-192q-109 -129 -109 -209q0 -47 27 -76t79 -29t122 72l41 -30q-57 -106 -119 -164t-160 -58q-96 0 -151 50t-55 129t58 149q60 70 203 166h-862v72l158 39v1136l-158 41v72h969l178 2v-408h-70l-137 326h-430v-532
h215l68 225h69v-533h-71l-66 213h-215z" />
    <glyph glyph-name="eogonek" unicode="&#x119;" horiz-adv-x="1069" 
d="M506 958q-68 0 -112 -70t-52 -210h326q-10 128 -52 204t-110 76zM539 -27q-217 0 -352 152q-134 152 -134 376t160 384t358 159q375 0 426 -442h-655q4 -190 115 -296t262 -107q115 0 260 88l33 -39q-61 -86 -144 -156q-213 -184 -213 -305q0 -43 28 -72t78 -29t122 72
l41 -30q-39 -70 -70 -111t-88 -76t-137 -35t-135 50q-56 50 -56 129t60 147t215 166v6q-92 -31 -174 -31z" />
    <glyph glyph-name="Ecaron" unicode="&#x11a;" horiz-adv-x="1302" 
d="M899 1765h96l-204 -292h-207l-205 292h104l207 -151zM559 653v-514q51 -57 143 -59h250l228 393h71l-84 -473h-1118v72l158 39v1136l-158 41v72h969l178 2v-408h-70l-137 326h-430v-532h215l68 225h69v-533h-71l-66 213h-215z" />
    <glyph glyph-name="ecaron" unicode="&#x11b;" horiz-adv-x="1069" 
d="M506 958q-68 0 -112 -70t-52 -210h326q-10 128 -52 204t-110 76zM752 1575h84l-201 -401h-152l-198 401h86l194 -219zM539 -27q-217 0 -352 152q-134 152 -134 376t160 384t358 159q375 0 426 -442h-655q4 -190 115 -296t262 -107q115 0 260 88l33 -39
q-203 -275 -473 -275z" />
    <glyph glyph-name="Gcircumflex" unicode="&#x11c;" horiz-adv-x="1601" 
d="M692 1473h-94l205 292h207l204 -292h-106l-207 147zM896 -33q-487 0 -700 302q-120 172 -119 385q1 212 122 385t319 267t428 93q229 0 461 -90l18 -410h-59l-201 330q-121 88 -247 88q-197 0 -316 -166q-119 -167 -119 -459t132 -462t329 -171q92 0 168 35v432l-229 33
v88h684v-82l-115 -28v-455l-78 -25q-299 -90 -478 -90z" />
    <glyph glyph-name="gcircumflex" unicode="&#x11d;" horiz-adv-x="1134" 
d="M352 1174h-86l201 401h151l199 -401h-86l-194 219zM512 971q-133 -1 -129 -229q2 -118 54 -214q52 -98 128 -96q55 0 89 57t34 177t-55 212t-121 93zM266 -166q0 -98 84 -152t230 -54t228 60q83 62 83 140t-96 98l-486 25q-43 -49 -43 -117zM977 679q0 -130 -123 -226
t-319 -97q-106 0 -201 33q-33 -33 -33 -67q0 -72 102 -74l428 -17q133 -5 203 -71t70 -172q0 -193 -202 -334t-470 -141q-197 -1 -300 65t-103 176q0 137 188 213v13q-67 20 -107 69t-40 114t45 124t147 129v4q-170 94 -170 261t129 264t314 97q90 0 278 -51l315 31v-135
l-243 14l-4 -8q96 -84 96 -214z" />
    <glyph glyph-name="Gbreve" unicode="&#x11e;" horiz-adv-x="1601" 
d="M896 -33q-487 0 -700 302q-120 172 -119 385q1 212 122 385t319 267t428 93q229 0 461 -90l18 -410h-59l-201 330q-121 88 -247 88q-197 0 -316 -166q-119 -167 -119 -459t132 -462t329 -171q92 0 168 35v432l-229 33v88h684v-82l-115 -28v-455l-78 -25
q-299 -90 -478 -90zM906 1460q-136 0 -209 89t-72 216h75q66 -139 217 -139t211 139h72q2 -125 -78 -215t-216 -90z" />
    <glyph glyph-name="gbreve" unicode="&#x11f;" horiz-adv-x="1134" 
d="M534 1184q-128 0 -202 91t-74 284h61q43 -209 219 -209t222 209h57q-3 -179 -79 -277t-204 -98zM512 971q-133 -1 -129 -229q2 -118 54 -214q52 -98 128 -96q55 0 89 57t34 177t-55 212t-121 93zM266 -166q0 -98 84 -152t230 -54t228 60q83 62 83 140t-96 98l-486 25
q-43 -49 -43 -117zM977 679q0 -130 -123 -226t-319 -97q-106 0 -201 33q-33 -33 -33 -67q0 -72 102 -74l428 -17q133 -5 203 -71t70 -172q0 -193 -202 -334t-470 -141q-197 -1 -300 65t-103 176q0 137 188 213v13q-67 20 -107 69t-40 114t45 124t147 129v4q-170 94 -170 261
t129 264t314 97q90 0 278 -51l315 31v-135l-243 14l-4 -8q96 -84 96 -214z" />
    <glyph glyph-name="Gdotaccent" unicode="&#x120;" horiz-adv-x="1601" 
d="M896 -33q-487 0 -700 302q-120 172 -119 385q1 212 122 385t319 267t428 93q229 0 461 -90l18 -410h-59l-201 330q-121 88 -247 88q-197 0 -316 -166q-119 -167 -119 -459t132 -462t329 -171q92 0 168 35v432l-229 33v88h684v-82l-115 -28v-455l-78 -25
q-299 -90 -478 -90zM906 1481q-71 0 -120 48t-49 120q0 71 49 121t120 50t122 -50t51 -120t-51 -120q-51 -49 -122 -49z" />
    <glyph glyph-name="gdotaccent" unicode="&#x121;" horiz-adv-x="1134" 
d="M538 1528q70 0 120 -50t50 -120t-49 -120q-50 -50 -121 -50t-121 49t-50 121t50 121t121 49zM512 971q-133 -1 -129 -229q2 -118 54 -214q52 -98 128 -96q55 0 89 57t34 177t-55 212t-121 93zM266 -166q0 -98 84 -152t230 -54t228 60q83 62 83 140t-96 98l-486 25
q-43 -49 -43 -117zM977 679q0 -130 -123 -226t-319 -97q-106 0 -201 33q-33 -33 -33 -67q0 -68 102 -74l428 -17q133 -5 203 -71t70 -172q0 -193 -202 -334t-470 -141q-197 -1 -300 65t-103 176q0 137 188 213v13q-67 20 -107 69t-40 114t45 124t147 129v4q-170 94 -170 261
t129 264t314 97q90 0 278 -51l315 31v-135l-243 14l-4 -8q96 -84 96 -214z" />
    <glyph glyph-name="Gcommaaccent" unicode="&#x122;" horiz-adv-x="1601" 
d="M896 -33q-487 0 -700 302q-120 172 -119 385q1 212 122 385t319 267t428 93q229 0 461 -90l18 -410h-59l-201 330q-121 88 -247 88q-197 0 -316 -166q-119 -167 -119 -459t132 -462t329 -171q92 0 168 35v432l-229 33v88h684v-82l-115 -28v-455l-78 -25
q-299 -90 -478 -90zM836 -299q0 41 -33 68t-82 30v13q45 104 166 104q76 0 126 -44t50 -116q0 -202 -414 -268l-16 51q203 66 203 162z" />
    <glyph glyph-name="gcommaaccent" unicode="&#x123;" horiz-adv-x="1134" 
d="M774 1630l14 -53q-201 -66 -200 -162q0 -41 33 -67t81 -31v-12q-47 -104 -167 -105q-76 0 -125 44t-50 116q0 200 414 270zM512 971q-133 -1 -129 -229q2 -118 54 -214q52 -98 128 -96q55 0 89 57t34 177t-55 212t-121 93zM266 -166q0 -98 84 -152t230 -54t228 60
q83 62 83 140t-96 98l-486 25q-43 -49 -43 -117zM977 679q0 -130 -123 -226t-319 -97q-106 0 -201 33q-33 -33 -33 -67q0 -72 102 -74l428 -17q133 -5 203 -71t70 -172q0 -193 -202 -334t-470 -141q-197 -1 -300 65t-103 176q0 137 188 213v13q-67 20 -107 69t-40 114
t45 124t147 129v4q-170 94 -170 261t129 264t314 97q90 0 278 -51l315 31v-135l-243 14l-4 -8q96 -84 96 -214z" />
    <glyph glyph-name="Hcircumflex" unicode="&#x124;" horiz-adv-x="1685" 
d="M631 1473h-94l204 292h207l205 -292h-106l-207 147zM963 0v72l163 39v536h-567v-536l162 -39v-72h-672v72l158 39v1138l-158 39v72h672v-72l-162 -39v-501h567v501l-161 39v72h673v-72l-157 -39v-1138l157 -39v-72h-675z" />
    <glyph glyph-name="hcircumflex" unicode="&#x125;" horiz-adv-x="1284" 
d="M440 1554h-94l205 293h207l205 -293h-107l-207 148zM698 0v70l109 30v555q-2 87 -46 141t-121 52t-146 -51v-697l108 -30v-70h-565v70l125 30v1182l-121 76v39l453 135v-664q174 174 350 174q141 0 218 -78t77 -239v-625l127 -32v-68h-568z" />
    <glyph glyph-name="Hbar" unicode="&#x126;" horiz-adv-x="1685" 
d="M559 971v-223h567v223h-567zM963 0v72l163 39v536h-567v-536l162 -39v-72h-672v72l158 39v860h-191v100h191v178l-158 39v72h672v-72l-162 -39v-178h567v178l-159 39v72h671v-72l-157 -39v-178h190v-100h-190v-860l157 -39v-72h-675z" />
    <glyph glyph-name="hbar" unicode="&#x127;" horiz-adv-x="1284" 
d="M702 0v70l105 30v555q-2 87 -46 141t-121 52t-146 -51v-697l108 -30v-70h-565v70l125 30v1057h-135v80h135v74l-121 47v39l453 135v-295h342v-80h-342v-289q174 174 350 174q141 0 218 -78t77 -239v-625l127 -32v-68h-564z" />
    <glyph glyph-name="Itilde" unicode="&#x128;" horiz-adv-x="768" 
d="M418 1548l-88 27q-123 37 -175 26t-94 -90l-45 21l11 33q57 162 135 207t221 4l90 -27q95 -31 157 -15t109 97l47 -21l-14 -41q-70 -176 -142 -220t-212 -1zM49 0v72l158 39v1138l-158 39v72h668v-72l-158 -39v-1138l158 -39v-72h-668z" />
    <glyph glyph-name="itilde" unicode="&#x129;" horiz-adv-x="649" 
d="M33 0v70l131 30v709l-127 92v37l461 104v-942l131 -30v-70h-596zM307 1245l-39 15q-110 40 -160 26t-94 -94l-47 20l10 31q61 166 145 215t220 -2l41 -16q86 -35 144 -17t110 103l47 -21l-16 -39q-74 -178 -149 -225t-212 4z" />
    <glyph glyph-name="Imacron" unicode="&#x12a;" horiz-adv-x="768" 
d="M84 1550v150h598v-150h-598zM49 0v72l158 39v1138l-158 39v72h668v-72l-158 -39v-1138l158 -39v-72h-668z" />
    <glyph glyph-name="imacron" unicode="&#x12b;" horiz-adv-x="649" 
d="M35 1274v149h581v-149h-581zM33 0v70l131 30v709l-127 92v37l461 104v-942l131 -30v-70h-596z" />
    <glyph glyph-name="Ibreve" unicode="&#x12c;" horiz-adv-x="768" 
d="M380 1460q-136 0 -209 89t-73 216h76q66 -139 216 -139t212 139h72q2 -125 -78 -215t-216 -90zM49 0v72l158 39v1138l-158 39v72h668v-72l-158 -39v-1138l158 -39v-72h-668z" />
    <glyph glyph-name="ibreve" unicode="&#x12d;" horiz-adv-x="649" 
d="M325 1184q-128 0 -202 91t-74 284h62q43 -209 218 -209t222 209h57q-2 -179 -78 -277t-205 -98zM33 0v70l131 30v709l-127 92v37l461 104v-942l131 -30v-70h-596z" />
    <glyph glyph-name="Iogonek" unicode="&#x12e;" horiz-adv-x="768" 
d="M49 0v72l158 39v1138l-158 39v72h668v-72l-158 -39v-1138l158 -39v-72h-293q-72 -142 -72 -198t28 -86t80 -30t122 72l41 -30q-39 -70 -70 -111t-88 -76t-137 -35t-135 50t-55 126q0 74 48 144q49 70 174 174h-311z" />
    <glyph glyph-name="iogonek" unicode="&#x12f;" horiz-adv-x="649" 
d="M333 1188q-71 0 -120 50t-49 120t49 120t119 50t121 -50t51 -120t-50 -120t-121 -50zM33 0v70l131 30v709l-127 92v37l461 104v-942l131 -30v-70h-256q-72 -142 -72 -198t28 -86t70 -29q63 0 129 71l43 -30q-39 -70 -69 -111t-88 -76q-57 -35 -138 -35q-80 0 -136 50
t-56 126q0 74 50 144t175 174h-276z" />
    <glyph glyph-name="Idotaccent" unicode="&#x130;" horiz-adv-x="768" 
d="M382 1481q-71 0 -120 48t-49 120q0 71 49 121t120 50t122 -50t51 -120t-51 -120q-51 -49 -122 -49zM49 0v72l158 39v1138l-158 39v72h668v-72l-158 -39v-1138l158 -39v-72h-668z" />
    <glyph glyph-name="dotlessi" unicode="&#x131;" horiz-adv-x="649" 
d="M33 0v70l131 30v709l-127 92v37l461 104v-942l131 -30v-70h-596z" />
    <glyph glyph-name="IJ" unicode="&#x132;" horiz-adv-x="1511" 
d="M1315 172q1 -283 -145 -428t-465 -172l-13 49q164 88 216 183t53 276v1169l-179 39v72h691v-72l-158 -39v-1077zM49 0v72l158 39v1138l-158 39v72h668v-72l-158 -39v-1138l158 -39v-72h-668z" />
    <glyph glyph-name="ij" unicode="&#x133;" horiz-adv-x="1261" 
d="M955 1188q-71 0 -119 49t-50 120q0 71 50 121t118 50q70 0 121 -50t51 -120t-50 -120t-121 -50zM1118 164q0 -190 -22 -290t-107 -175q-137 -123 -405 -168l-13 41q119 82 166 171t49 286v780l-127 92v37l459 104v-878zM333 1188q-71 0 -120 50t-49 120t49 120t119 50
t121 -50t51 -120t-50 -120t-121 -50zM33 0v70l131 30v709l-127 92v37l461 104v-942l131 -30v-70h-596z" />
    <glyph glyph-name="Jcircumflex" unicode="&#x134;" horiz-adv-x="765" 
d="M176 1473h-94l205 292h207l204 -292h-106l-207 147zM567 172q0 -283 -145 -428t-465 -172l-12 49q164 88 216 183t52 276v1169l-178 39v72h690v-72l-158 -39v-1077z" />
    <glyph glyph-name="jcircumflex" unicode="&#x135;" horiz-adv-x="641" 
d="M143 1174h-86l195 401h154l192 -401h-86l-190 215zM496 164q0 -190 -23 -290t-106 -175q-138 -123 -406 -168l-12 41q119 82 166 171t49 286v780l-127 92v37l459 104v-878z" />
    <glyph glyph-name="Kcommaaccent" unicode="&#x136;" horiz-adv-x="1525" 
d="M838 -84q76 0 126 -44t50 -116q0 -202 -414 -268l-16 51q203 66 202 162q0 41 -32 68q-33 27 -82 30v13q45 104 166 104zM938 1360h496v-72l-177 -43l-380 -409l526 -736l129 -28v-72h-475l-463 643v10l536 594l-192 41v72zM49 0v72l158 39v1138l-158 39v72h672v-72
l-162 -39v-1138l162 -39v-72h-672z" />
    <glyph glyph-name="kcommaaccent" unicode="&#x137;" horiz-adv-x="1239" 
d="M659 -84q76 0 126 -44t51 -116q0 -202 -414 -268l-16 51q203 66 202 162q0 41 -33 68t-81 30v13q47 104 165 104zM1048 -29q-108 0 -174 38t-118 124l-246 391l367 363l-172 59v66h503v-64l-159 -47l-265 -227l455 -647q-83 -56 -191 -56zM612 0h-575v70l125 30v1182
l-121 76v39l453 135v-1432l118 -30v-70z" />
    <glyph glyph-name="kgreenlandic" unicode="&#x138;" horiz-adv-x="1234" 
d="M1044 -29q-106 0 -172 38t-120 124l-246 391l366 363l-172 59v66h504v-64l-160 -47l-264 -227l455 -647q-85 -56 -191 -56zM33 0v70l125 30v709l-123 84v37l454 117v-947l119 -30v-70h-575z" />
    <glyph glyph-name="Lacute" unicode="&#x139;" horiz-adv-x="1265" 
d="M49 0v74l158 37v1136l-158 41v72h678v-72l-168 -39v-1110q49 -53 146 -57h217l243 450h70l-100 -532h-1086zM776 1772v-27l-334 -272h-104l156 299h282z" />
    <glyph glyph-name="lacute" unicode="&#x13a;" horiz-adv-x="645" 
d="M35 0v70l127 30v1182l-121 76v39l453 135v-1432l129 -30v-70h-588zM698 1853v-26l-333 -273h-105l156 299h282z" />
    <glyph glyph-name="Lcommaaccent" unicode="&#x13b;" horiz-adv-x="1265" 
d="M49 0v74l158 37v1136l-158 41v72h678v-72l-168 -39v-1110q49 -53 146 -57h217l243 450h70l-100 -532h-1086zM582 -299q0 41 -33 68t-82 30v13q45 104 166 104q76 0 126 -44t50 -116q0 -202 -414 -268l-16 51q203 66 203 162z" />
    <glyph glyph-name="lcommaaccent" unicode="&#x13c;" horiz-adv-x="645" 
d="M35 0v70l127 30v1182l-121 76v39l453 135v-1432l129 -30v-70h-588zM262 -299q0 41 -33 68t-82 30v13q45 104 166 104q76 0 126 -44t50 -116q1 -202 -413 -268l-17 51q203 66 203 162z" />
    <glyph glyph-name="Lcaron" unicode="&#x13d;" horiz-adv-x="1265" 
d="M49 0v74l158 37v1136l-158 41v72h678v-72l-168 -39v-1110q49 -53 146 -57h217l243 450h70l-100 -532h-1086zM1196 1493v-14l-223 -410h-60l39 424h244z" />
    <glyph glyph-name="lcaron" unicode="&#x13e;" horiz-adv-x="645" 
d="M35 0v70l127 30v1182l-121 76v39l453 135v-1432l129 -30v-70h-588zM864 1493v-14l-223 -410h-59l39 424h243z" />
    <glyph glyph-name="Ldot" unicode="&#x13f;" horiz-adv-x="1269" 
d="M49 0v74l158 37v1136l-158 41v72h678v-72l-168 -39v-1110q49 -53 146 -57h217l229 383h72l-88 -465h-1086zM1067 590q-68 0 -118 49t-50 117t50 116t118 50q68 0 117 -50t49 -116q0 -68 -49 -117t-117 -49z" />
    <glyph glyph-name="ldot" unicode="&#x140;" horiz-adv-x="843" 
d="M35 0v70l127 30v1182l-121 76v39l453 135v-1432l129 -30v-70h-588zM748 594q-68 0 -117 49t-49 116t49 115t117 50q68 0 116 -50t49 -116q-1 -66 -49 -115t-116 -49z" />
    <glyph glyph-name="Lslash" unicode="&#x141;" horiz-adv-x="1265" 
d="M49 1360h678v-72l-168 -39v-510l393 121v-86l-393 -121v-510q49 -53 146 -57h217l243 446h70l-100 -532h-1086v74l158 37v436l-154 -47v86l154 47v614l-158 41v72z" />
    <glyph glyph-name="lslash" unicode="&#x142;" horiz-adv-x="645" 
d="M623 0h-588v70l127 30v543l-137 -61v96l137 61v543l-121 76v39l453 135v-641l161 74v-95l-161 -73v-697l129 -30v-70z" />
    <glyph glyph-name="Nacute" unicode="&#x143;" horiz-adv-x="1501" 
d="M1169 1772v-27l-333 -272h-105l156 299h282zM541 0h-484v74l156 37v1050q-74 92 -154 117l-36 12v70h477l719 -877l-11 752l-209 53v72h476v-72l-154 -43v-1077l4 -170l-141 -25l-867 1057l11 -913l213 -43v-74z" />
    <glyph glyph-name="nacute" unicode="&#x144;" horiz-adv-x="1282" 
d="M33 0v70l125 30v709l-123 84v37l405 117h11l18 -193h6q182 188 365 188q141 0 218 -78t77 -239v-625l127 -32v-68h-568v70l109 30v555q-2 87 -46 141t-121 52t-147 -51v-697l109 -30v-70h-565zM956 1575v-14l-286 -387h-76l102 401h260z" />
    <glyph glyph-name="Ncommaaccent" unicode="&#x145;" horiz-adv-x="1501" 
d="M788 -84q76 0 126 -44t51 -116q0 -202 -414 -268l-16 51q203 66 202 162q0 41 -32 68q-33 27 -82 30v13q45 104 165 104zM541 0h-484v74l156 37v1050q-74 92 -154 117l-36 12v70h477l719 -877l-11 752l-209 53v72h476v-72l-154 -43v-1077l4 -170l-141 -25l-867 1057
l11 -913l213 -43v-74z" />
    <glyph glyph-name="ncommaaccent" unicode="&#x146;" horiz-adv-x="1282" 
d="M33 0v70l125 30v709l-123 84v37l405 117h11l18 -193h6q182 188 365 188q141 0 218 -78t77 -239v-625l127 -32v-68h-568v70l109 30v555q-2 87 -46 141t-121 52t-147 -51v-697l109 -30v-70h-565zM582 -299q0 41 -33 68t-82 30v13q45 104 166 104q76 0 126 -44t50 -116
q0 -202 -414 -268l-16 51q203 66 203 162z" />
    <glyph glyph-name="Ncaron" unicode="&#x147;" horiz-adv-x="1501" 
d="M1001 1765h97l-205 -292h-207l-205 292h105l207 -151zM541 0h-484v74l156 37v1050q-74 92 -154 117l-36 12v70h477l719 -877l-11 752l-209 53v72h476v-72l-154 -43v-1077l4 -170l-141 -25l-867 1057l11 -913l213 -43v-74z" />
    <glyph glyph-name="ncaron" unicode="&#x148;" horiz-adv-x="1282" 
d="M834 1575h84l-201 -401h-152l-198 401h86l194 -219zM33 0v70l125 30v709l-123 84v37l405 117h11l18 -193h6q182 188 365 188q141 0 218 -78t77 -239v-625l127 -32v-68h-568v70l109 30v555q-2 87 -46 141t-121 52t-147 -51v-697l109 -30v-70h-565z" />
    <glyph glyph-name="napostrophe" unicode="&#x149;" horiz-adv-x="1282" 
d="M33 0v70l125 30v709l-123 84v37l405 117h11l18 -193h6q182 188 365 188q141 0 218 -78t77 -239v-625l127 -32v-68h-568v70l109 30v555q-2 87 -46 141t-121 52t-147 -51v-697l109 -30v-70h-565zM137 1333q0 41 -33 68t-81 31v12q45 104 165 104q76 0 126 -44t51 -115
q0 -203 -414 -269l-17 51q203 66 203 162z" />
    <glyph glyph-name="Eng" unicode="&#x14a;" horiz-adv-x="1513" 
d="M549 0h-492v74l156 37v1050q-74 92 -154 117l-36 12v70h477l719 -877l-11 752l-209 53v72h476v-72l-154 -43v-1069q0 -276 -135 -422t-441 -178l-10 51q365 113 410 391l-821 1004l12 -905l213 -43v-74z" />
    <glyph glyph-name="eng" unicode="&#x14b;" horiz-adv-x="1280" 
d="M803 29v626q-2 87 -46 141t-121 52t-147 -51v-697l109 -30v-70h-565v70l125 30v709l-123 84v37l405 117h11l18 -193h6q182 188 365 188q141 0 218 -78t77 -239v-561q0 -188 -24 -288t-110 -177q-133 -121 -403 -168l-12 41q80 57 122 103q95 104 95 354z" />
    <glyph glyph-name="Omacron" unicode="&#x14c;" horiz-adv-x="1638" 
d="M829 1399q309 0 525 -194q216 -193 217 -511t-227 -522t-535 -205q-307 0 -524 195t-217 509t226 521t535 207zM796 1315q-164 0 -250 -153q-86 -154 -87 -436t111 -478t273 -197q161 0 248 155t87 431t-109 477t-273 201zM510 1550v150h618v-150h-618z" />
    <glyph glyph-name="omacron" unicode="&#x14d;" horiz-adv-x="1234" 
d="M1178 519q0 -235 -160 -393t-410 -157q-250 0 -400 153q-150 154 -151 380q0 226 162 384q163 158 405 156q242 0 398 -144t156 -379zM653 45q172 1 172 397q-1 204 -69 366t-174 161q-135 0 -166 -231q-8 -58 -8 -122q0 -233 68 -402t177 -169zM309 1274v149h619v-149
h-619z" />
    <glyph glyph-name="Obreve" unicode="&#x14e;" horiz-adv-x="1638" 
d="M829 1399q309 0 525 -194q216 -193 217 -511t-227 -522t-535 -205q-307 0 -524 195t-217 509t226 521t535 207zM796 1315q-164 0 -250 -153q-86 -154 -87 -436t111 -478t273 -197q161 0 248 155t87 431t-109 477t-273 201zM810 1460q-136 0 -209 89t-73 216h76
q66 -139 216 -139t212 139h72q2 -125 -78 -215t-216 -90z" />
    <glyph glyph-name="obreve" unicode="&#x14f;" horiz-adv-x="1234" 
d="M615 1184q-127 0 -201 91t-74 284h61q43 -209 219 -209t222 209h57q-2 -179 -79 -277t-205 -98zM1178 519q0 -235 -160 -393t-410 -157q-250 0 -400 153q-150 154 -151 380q0 226 162 384q163 158 405 156q242 0 398 -144t156 -379zM653 45q172 1 172 397q-1 204 -69 366
t-174 161q-135 0 -166 -231q-8 -58 -8 -122q0 -233 68 -402t177 -169z" />
    <glyph glyph-name="Ohungarumlaut" unicode="&#x150;" horiz-adv-x="1638" 
d="M829 1399q309 0 525 -194q216 -193 217 -511t-227 -522t-535 -205q-307 0 -524 195t-217 509t226 521t535 207zM796 1315q-164 0 -250 -153q-86 -154 -87 -436t111 -478t273 -197q161 0 248 155t87 431t-109 477t-273 201zM1268 1772v-23l-238 -276h-96l100 299h234z
M897 1772v-23l-238 -276h-96l101 299h233z" />
    <glyph glyph-name="ohungarumlaut" unicode="&#x151;" horiz-adv-x="1234" 
d="M1178 519q0 -235 -160 -393t-410 -157q-250 0 -400 153q-150 154 -151 380q0 226 162 384q163 158 405 156q242 0 398 -144t156 -379zM653 45q172 1 172 397q-1 204 -69 366t-174 161q-135 0 -166 -231q-8 -58 -8 -122q0 -233 68 -402t177 -169zM1022 1575v-19l-231 -382
h-76l84 401h223zM700 1575v-19l-229 -382h-74l82 401h221z" />
    <glyph glyph-name="OE" unicode="&#x152;" horiz-adv-x="2164" 
d="M848 59q229 0 229 287v840q-31 49 -97 83t-138 34q-170 1 -274 -147t-105 -433t109 -475t276 -189zM68 664q0 312 225 512q225 199 545 198q68 0 272 -7t498 -7h262l180 2v-408h-70l-137 322h-416v-528h201l68 225h69v-533h-71l-66 213h-201v-512q51 -57 144 -57h235
l230 389h69l-84 -473h-460l-740 -14q-329 0 -541 183t-212 495z" />
    <glyph glyph-name="oe" unicode="&#x153;" horiz-adv-x="1925" 
d="M1359 956q-71 0 -120 -74t-57 -218h336q-4 128 -46 210t-113 82zM659 41q160 0 160 391q0 199 -66 366q-67 167 -169 167q-164 0 -164 -359q0 -221 64 -393t175 -172zM1389 -29q-231 0 -371 215q-148 -223 -406 -223t-408 154t-151 380q0 226 165 385t403 158
q270 0 407 -213q72 99 177 157t222 58q375 0 424 -454h-669q8 -182 123 -286t262 -103q101 0 176 41t84 47l31 -39q-159 -198 -308 -250q-75 -27 -161 -27z" />
    <glyph glyph-name="Racute" unicode="&#x154;" horiz-adv-x="1449" 
d="M555 686h154q100 24 163 102t64 179q0 141 -106 229t-275 92v-602zM49 0v72l158 39v1138l-158 39v72l574 2q337 0 493 -93t156 -249q0 -231 -299 -342v-8l346 -568l133 -30v-72h-457l-364 602h-76v-491l152 -39v-72h-658zM1069 1772v-27l-334 -272h-104l155 299h283z" />
    <glyph glyph-name="racute" unicode="&#x155;" horiz-adv-x="899" 
d="M821 1575v-14l-286 -387h-76l102 401h260zM33 0v70l125 30v709l-123 84v37l411 117h13l12 -273h8l31 64q56 112 110 158t128 46t122 -42t48 -118t-52 -124q-52 -47 -153 -53l-115 96q-30 -12 -62 -49t-47 -82v-570l183 -30v-70h-639z" />
    <glyph glyph-name="Rcommaaccent" unicode="&#x156;" horiz-adv-x="1449" 
d="M555 686h154q100 24 163 102t64 179q0 141 -106 229t-275 92v-602zM49 0v72l158 39v1138l-158 39v72l574 2q337 0 493 -93t156 -249q0 -231 -299 -342v-8l346 -568l133 -30v-72h-457l-364 602h-76v-491l152 -39v-72h-658zM791 -84q75 0 125 -44t51 -116q0 -202 -414 -268
l-16 51q203 66 202 162q0 41 -32 68q-33 27 -82 30v13q47 104 166 104z" />
    <glyph glyph-name="rcommaaccent" unicode="&#x157;" horiz-adv-x="899" 
d="M322 -84q76 0 126 -44t50 -116q0 -202 -414 -268l-16 51q203 66 202 162q0 41 -32 68q-33 27 -82 30v13q45 104 166 104zM33 0v70l125 30v709l-123 84v37l411 117h13l12 -273h8l31 64q56 112 110 158t128 46t122 -42t48 -118t-52 -124q-52 -47 -153 -53l-115 96
q-30 -12 -62 -49t-47 -82v-570l183 -30v-70h-639z" />
    <glyph glyph-name="Rcaron" unicode="&#x158;" horiz-adv-x="1449" 
d="M899 1765h96l-204 -292h-207l-205 292h104l207 -151zM555 686h154q100 24 163 102t64 179q0 141 -106 229t-275 92v-602zM49 0v72l158 39v1138l-158 39v72l574 2q337 0 493 -93t156 -249q0 -231 -299 -342v-8l346 -568l133 -30v-72h-457l-364 602h-76v-491l152 -39v-72
h-658z" />
    <glyph glyph-name="rcaron" unicode="&#x159;" horiz-adv-x="899" 
d="M694 1575h84l-200 -401h-152l-199 401h86l195 -219zM33 0v70l125 30v709l-123 84v37l411 117h13l12 -273h8l31 64q56 112 110 158t128 46t122 -42t48 -118t-52 -124q-52 -47 -153 -53l-115 96q-30 -12 -62 -49t-47 -82v-570l183 -30v-70h-639z" />
    <glyph glyph-name="Sacute" unicode="&#x15a;" horiz-adv-x="1150" 
d="M993 1772v-27l-334 -272h-104l156 299h282zM526 53q114 1 178 63t64 154t-45 143q-45 52 -154 97l-120 47q-172 68 -251 167t-79 241q0 172 145 303t400 131q162 0 350 -84l4 -369h-64l-141 320q-70 57 -167 57q-96 0 -160 -58q-64 -59 -64 -149t53 -144t182 -104
l131 -51q162 -63 231 -150t68 -208q0 -223 -171 -357t-400 -133q-182 0 -399 90l-37 426h59l174 -356q100 -76 213 -76z" />
    <glyph glyph-name="sacute" unicode="&#x15b;" horiz-adv-x="942" 
d="M393 -31q-139 0 -311 64l-12 329h59l129 -256q55 -59 138 -59t131 42t48 108q0 109 -131 155l-143 54q-219 80 -219 301q0 151 125 245t332 95q139 0 286 -62l-2 -299h-53l-117 229q-59 51 -130 51t-113 -38q-42 -39 -41 -99q0 -100 137 -153l129 -49q121 -45 179 -113
t58 -172q0 -164 -138 -268t-341 -105zM831 1575v-14l-286 -387h-76l102 401h260z" />
    <glyph glyph-name="Scircumflex" unicode="&#x15c;" horiz-adv-x="1150" 
d="M416 1473h-94l204 292h207l205 -292h-107l-206 147zM526 53q114 1 178 63t64 154t-45 143q-45 52 -154 97l-120 47q-172 68 -251 167t-79 241q0 172 145 303t400 131q162 0 350 -84l4 -369h-64l-141 320q-70 57 -167 57q-96 0 -160 -58q-64 -59 -64 -149t53 -144
t182 -104l131 -51q162 -63 231 -150t68 -208q0 -223 -171 -357t-400 -133q-182 0 -399 90l-37 426h59l174 -356q100 -76 213 -76z" />
    <glyph glyph-name="scircumflex" unicode="&#x15d;" horiz-adv-x="942" 
d="M313 1174h-86l201 401h152l198 -401h-86l-194 219zM393 -31q-139 0 -311 64l-12 329h59l129 -256q55 -59 138 -59t131 42t48 108q0 109 -131 155l-143 54q-219 80 -219 301q0 151 125 245t332 95q139 0 286 -62l-2 -299h-53l-117 229q-59 51 -130 51t-113 -38
q-42 -39 -41 -99q0 -100 137 -153l129 -49q121 -45 179 -113t58 -172q0 -164 -138 -268t-341 -105z" />
    <glyph glyph-name="Scedilla" unicode="&#x15e;" horiz-adv-x="1150" 
d="M510 -293q0 76 -102 109l102 153q-186 2 -393 90l-37 426h59l174 -356q100 -76 213 -76q114 1 178 63t64 154t-45 143q-45 52 -154 97l-120 47q-172 68 -251 167t-79 241q0 172 145 303t400 131q162 0 350 -84l4 -369h-64l-141 320q-70 57 -167 57q-96 0 -160 -58
q-64 -59 -64 -149t53 -144t182 -104l131 -51q162 -63 231 -150t68 -208q0 -207 -147 -336t-358 -150l-41 -61q88 -12 142 -53t54 -107q1 -194 -413 -262l-15 51q201 68 201 166z" />
    <glyph glyph-name="scedilla" unicode="&#x15f;" horiz-adv-x="942" 
d="M396 47q83 0 131 42t48 108q0 109 -131 155l-143 54q-219 80 -219 301q0 151 125 245t332 95q139 0 286 -62l-2 -299h-53l-117 229q-59 51 -130 51t-113 -38q-42 -39 -41 -99q0 -100 137 -153l129 -49q121 -45 179 -113t58 -172q0 -147 -114 -249q-115 -101 -293 -120
l-39 -59q88 -12 142 -53t55 -107q0 -195 -414 -262l-14 51q201 68 200 166q0 76 -102 109l100 151q-139 0 -311 64l-12 329h59l129 -256q55 -59 138 -59z" />
    <glyph glyph-name="Scaron" unicode="&#x160;" horiz-adv-x="1150" 
d="M829 1765h97l-205 -292h-207l-205 292h105l207 -151zM526 53q114 1 178 63t64 154t-45 143q-45 52 -154 97l-120 47q-172 68 -251 167t-79 241q0 172 145 303t400 131q162 0 350 -84l4 -369h-64l-141 320q-70 57 -167 57q-96 0 -160 -58q-64 -59 -64 -149t53 -144
t182 -104l131 -51q162 -63 231 -150t68 -208q0 -223 -171 -357t-400 -133q-182 0 -399 90l-37 426h59l174 -356q100 -76 213 -76z" />
    <glyph glyph-name="scaron" unicode="&#x161;" horiz-adv-x="942" 
d="M692 1575h84l-201 -401h-151l-199 401h86l195 -219zM393 -31q-139 0 -311 64l-12 329h59l129 -256q55 -59 138 -59t131 42t48 108q0 109 -131 155l-143 54q-219 80 -219 301q0 151 125 245t332 95q139 0 286 -62l-2 -299h-53l-117 229q-59 51 -130 51t-113 -38
q-42 -39 -41 -99q0 -100 137 -153l129 -49q121 -45 179 -113t58 -172q0 -164 -138 -268t-341 -105z" />
    <glyph glyph-name="Tcommaaccent" unicode="&#x162;" horiz-adv-x="1325" 
d="M604 -299q0 41 -33 68t-82 30v13q47 104 166 104q76 0 126 -44t50 -116q1 -202 -413 -268l-17 51q203 66 203 162zM1284 932h-59l-133 334h-252v-1155l196 -39v-72h-749v72l198 39v1155h-252l-133 -334h-61l2 432l180 -4h885l178 4v-432z" />
    <glyph glyph-name="tcommaaccent" unicode="&#x163;" horiz-adv-x="774" 
d="M406 -84q76 0 126 -44t50 -116q0 -202 -414 -268l-16 51q203 66 202 162q0 41 -32 68q-33 27 -82 30v13q47 104 166 104zM416 -29q-279 0 -275 289l6 635h-149v72l152 51l286 250h37v-256h297v-119h-297v-643q35 -127 186 -127q8 0 107 16l12 -57q-190 -111 -362 -111z
" />
    <glyph glyph-name="Tcaron" unicode="&#x164;" horiz-adv-x="1325" 
d="M868 1765h97l-205 -292h-207l-205 292h105l206 -151zM1284 932h-59l-133 334h-252v-1155l196 -39v-72h-749v72l198 39v1155h-252l-133 -334h-61l2 432l180 -4h885l178 4v-432z" />
    <glyph glyph-name="tcaron" unicode="&#x165;" horiz-adv-x="774" 
d="M883 1567v-15l-224 -409h-59l39 424h244zM416 -29q-279 0 -275 289l6 635h-149v72l152 51l286 250h37v-256h297v-119h-297v-643q35 -127 186 -127q8 0 107 16l12 -57q-190 -111 -362 -111z" />
    <glyph glyph-name="Tbar" unicode="&#x166;" horiz-adv-x="1325" 
d="M166 688v98h319v474h-252l-133 -328h-61l2 432l180 -4h885l178 4v-432h-59l-133 328h-252v-474h315v-98h-315v-577l196 -39v-72h-749v72l198 39v577h-319z" />
    <glyph glyph-name="tbar" unicode="&#x167;" horiz-adv-x="774" 
d="M-2 602v94h147l2 199h-149v72l152 51l286 250h37v-256h297v-119h-297v-197h295v-94h-295v-352q35 -127 186 -127q8 0 107 16l12 -57q-190 -111 -362 -111q-279 0 -275 289l2 342h-145z" />
    <glyph glyph-name="Utilde" unicode="&#x168;" horiz-adv-x="1511" 
d="M874 1548l-88 27q-123 37 -175 26t-93 -90l-45 21l10 33q57 162 135 207t222 4l90 -27q94 -31 156 -15t110 97l47 -21l-14 -41q-70 -176 -142 -220t-213 -1zM1331 555q0 -281 -148 -437q-147 -156 -423 -155q-276 0 -427 137t-151 414v733l-157 41v72h708v-72l-192 -41
v-717q0 -199 87 -304q88 -105 242 -105t247 98t95 291l-4 729l-213 49v72h492v-72l-156 -45v-688z" />
    <glyph glyph-name="utilde" unicode="&#x169;" horiz-adv-x="1269" 
d="M662 1227l-87 30q-123 43 -171 29t-91 -96l-47 20l13 33q61 166 143 214t221 -1l90 -33q93 -35 151 -15t109 101l47 -20l-16 -39q-72 -178 -148 -226t-214 3zM440 -31q-131 0 -215 75t-84 239v561l-125 61v45l457 80v-680q0 -190 164 -190q80 0 143 45v647l-131 59v45
l463 80v-905l131 -33v-57l-434 -66l-25 166q-168 -172 -344 -172z" />
    <glyph glyph-name="Umacron" unicode="&#x16a;" horiz-adv-x="1511" 
d="M522 1550v150h619v-150h-619zM1331 555q0 -281 -148 -437q-147 -156 -423 -155q-276 0 -427 137t-151 414v733l-157 41v72h708v-72l-192 -41v-717q0 -199 87 -304q88 -105 242 -105t247 98t95 291l-4 729l-213 49v72h492v-72l-156 -45v-688z" />
    <glyph glyph-name="umacron" unicode="&#x16b;" horiz-adv-x="1269" 
d="M326 1274v149h618v-149h-618zM440 -31q-131 0 -215 75t-84 239v561l-125 61v45l457 80v-680q0 -190 164 -190q80 0 143 45v647l-131 59v45l463 80v-905l131 -33v-57l-434 -66l-25 166q-168 -172 -344 -172z" />
    <glyph glyph-name="Ubreve" unicode="&#x16c;" horiz-adv-x="1511" 
d="M824 1460q-136 0 -209 89t-72 216h75q66 -139 217 -139t212 139h71q2 -125 -78 -215t-216 -90zM1331 555q0 -281 -148 -437q-147 -156 -423 -155q-276 0 -427 137t-151 414v733l-157 41v72h708v-72l-192 -41v-717q0 -199 87 -304q88 -105 242 -105t247 98t95 291l-4 729
l-213 49v72h492v-72l-156 -45v-688z" />
    <glyph glyph-name="ubreve" unicode="&#x16d;" horiz-adv-x="1269" 
d="M632 1184q-128 0 -202 91t-74 284h62q43 -209 218 -209t222 209h57q-2 -178 -78 -277q-77 -98 -205 -98zM440 -31q-131 0 -215 75t-84 239v561l-125 61v45l457 80v-680q0 -190 164 -190q80 0 143 45v647l-131 59v45l463 80v-905l131 -33v-57l-434 -66l-25 166
q-168 -172 -344 -172z" />
    <glyph glyph-name="Uring" unicode="&#x16e;" horiz-adv-x="1511" 
d="M702 1690q0 -62 40 -102t96 -40t93 39q38 39 38 99t-40 102q-40 41 -95 41q-56 0 -94 -39t-38 -100zM834 1477q-96 1 -158 61t-62 149t64 151t160 62t157 -60t61 -149t-62 -151q-64 -62 -160 -63zM1331 555q0 -281 -148 -437q-147 -156 -423 -155q-276 0 -427 137
t-151 414v733l-157 41v72h708v-72l-192 -41v-717q0 -199 87 -304q88 -105 242 -105t247 98t95 291l-4 729l-213 49v72h492v-72l-156 -45v-688z" />
    <glyph glyph-name="uring" unicode="&#x16f;" horiz-adv-x="1269" 
d="M440 -31q-131 0 -215 75t-84 239v561l-125 61v45l457 80v-680q0 -190 164 -190q80 0 143 45v647l-131 59v45l463 80v-905l131 -33v-57l-434 -66l-25 166q-168 -172 -344 -172zM766 1373q0 61 -39 101t-94 40t-93 -40q-38 -39 -38 -99t39 -100t94 -40t93 39t38 99z
M414 1372q0 88 63 152t159 63q96 0 156 -60q62 -59 62 -149t-62 -152t-158 -62t-158 60t-62 148z" />
    <glyph glyph-name="Uhungarumlaut" unicode="&#x170;" horiz-adv-x="1511" 
d="M1331 555q0 -281 -148 -437q-147 -156 -423 -155q-276 0 -427 137t-151 414v733l-157 41v72h708v-72l-192 -41v-717q0 -199 87 -304q88 -105 242 -105t247 98t95 291l-4 729l-213 49v72h492v-72l-156 -45v-688zM1282 1772v-23l-238 -276h-96l101 299h233zM911 1772v-23
l-237 -276h-96l100 299h233z" />
    <glyph glyph-name="uhungarumlaut" unicode="&#x171;" horiz-adv-x="1269" 
d="M1044 1575v-19l-231 -382h-76l84 401h223zM723 1575v-19l-229 -382h-74l82 401h221zM440 -31q-131 0 -215 75t-84 239v561l-125 61v45l457 80v-680q0 -190 164 -190q80 0 143 45v647l-131 59v45l463 80v-905l131 -33v-57l-434 -66l-25 166q-168 -172 -344 -172z" />
    <glyph glyph-name="Uogonek" unicode="&#x172;" horiz-adv-x="1511" 
d="M813 -197q-1 -119 105 -117q52 0 122 72l41 -30q-57 -106 -119 -164t-158 -58t-152 50t-56 126t48 140t163 143l-51 -2q-272 0 -423 137t-151 414v733l-157 41v72h708v-72l-192 -41v-717q0 -199 87 -304q88 -105 242 -105t247 98t95 291l-4 729l-213 49v72h492v-72
l-156 -45v-688q-1 -241 -111 -391t-319 -189q-88 -113 -88 -172z" />
    <glyph glyph-name="uogonek" unicode="&#x173;" horiz-adv-x="1269" 
d="M582 -317q0 77 52 143t175 151l-25 164q-168 -172 -344 -172q-131 0 -215 75t-84 239v561l-125 61v45l457 80v-680q0 -190 164 -190q80 0 143 45v647l-131 59v45l463 80v-905l131 -33v-57l-344 -51q-100 -125 -100 -199q1 -47 27 -76t78 -29t122 72l41 -30
q-57 -106 -119 -164t-160 -58q-96 0 -151 50t-55 127z" />
    <glyph glyph-name="Wcircumflex" unicode="&#x174;" horiz-adv-x="2025" 
d="M870 1473h-94l205 292h207l205 -292h-107l-207 147zM-4 1360h618v-72l-133 -37l271 -915l219 633l-94 282l-105 37v72h635v-74l-166 -35l279 -891l278 877l-190 49v74h422v-72l-123 -45l-424 -1266h-176l-291 857l-311 -857h-175l-419 1274l-115 35v74z" />
    <glyph glyph-name="wcircumflex" unicode="&#x175;" horiz-adv-x="1626" 
d="M754 1174h-86l200 401h152l199 -401h-86l-195 219zM1266 1012h383v-68l-117 -26l-313 -947h-148l-233 568l-21 59h-2q-16 -49 -20 -59l-217 -568h-146l-338 947l-117 26v68h621v-68l-141 -26l159 -515l19 -67h2q18 57 22 67l226 615h102l252 -625l18 -53h3q10 45 14 55
l149 516l-157 35v66z" />
    <glyph glyph-name="Ycircumflex" unicode="&#x176;" horiz-adv-x="1357" 
d="M580 1473h-95l205 292h207l205 -292h-107l-207 147zM1024 0h-676v72l162 39v428l-389 714l-121 35v72h692v-72l-188 -39l301 -598l311 592l-205 45v72h447v-72l-127 -43l-369 -663v-471l162 -39v-72z" />
    <glyph glyph-name="ycircumflex" unicode="&#x177;" horiz-adv-x="1054" 
d="M446 1174h-86l201 401h152l198 -401h-86l-194 219zM743 1012h320v-68l-90 -26l-479 -1199q-84 -207 -240 -206q-68 0 -118 48t-50 121q0 72 49 120t119 48q109 0 158 -112h4l67 168l-409 1016l-82 22v68h557v-68l-117 -22l211 -609l221 600l-121 33v66z" />
    <glyph glyph-name="Ydieresis" unicode="&#x178;" horiz-adv-x="1357" 
d="M1009 1485q-62 0 -108 44q-45 44 -45 107q0 64 45 110t107 46t111 -47q48 -47 48 -109t-48 -106q-48 -45 -110 -45zM514 1485q-63 0 -110 44q-46 44 -46 107q0 64 46 110t110 46t110 -46t46 -110t-46 -107q-46 -44 -110 -44zM1024 0h-676v72l162 39v428l-389 714l-121 35
v72h692v-72l-188 -39l301 -598l311 592l-205 45v72h447v-72l-127 -43l-369 -663v-471l162 -39v-72z" />
    <glyph glyph-name="Zacute" unicode="&#x179;" horiz-adv-x="1335" 
d="M1028 1772v-27l-334 -272h-104l155 299h283zM53 0v72l731 1194h-489l-158 -342h-63l12 440l199 -4h944v-19l-783 -1247h584l221 385h68l-90 -479h-1176z" />
    <glyph glyph-name="zacute" unicode="&#x17a;" horiz-adv-x="1034" 
d="M852 1575v-14l-287 -387h-76l103 401h260zM49 0v49l529 873h-304l-131 -293h-61v405l174 -22h727v-11l-553 -913h315l175 322h61l-41 -412l-199 2h-692z" />
    <glyph glyph-name="Zdotaccent" unicode="&#x17b;" horiz-adv-x="1335" 
d="M653 1481q-71 0 -119 48t-49 120q-1 71 49 121t120 50t122 -50q51 -50 51 -120t-51 -120q-51 -49 -123 -49zM53 0v72l731 1194h-489l-158 -342h-63l12 440l199 -4h944v-19l-783 -1247h584l221 385h68l-90 -479h-1176z" />
    <glyph glyph-name="zdotaccent" unicode="&#x17c;" horiz-adv-x="1034" 
d="M543 1188q-72 0 -121 49t-49 121t49 121t121 49t122 -50t50 -120t-50 -120t-122 -50zM49 0v49l529 873h-304l-131 -293h-61v405l174 -22h727v-11l-553 -913h315l175 322h61l-41 -412l-199 2h-692z" />
    <glyph glyph-name="Zcaron" unicode="&#x17d;" horiz-adv-x="1335" 
d="M858 1765h96l-204 -292h-207l-205 292h104l207 -151zM53 0v72l731 1194h-489l-158 -342h-63l12 440l199 -4h944v-19l-783 -1247h584l221 385h68l-90 -479h-1176z" />
    <glyph glyph-name="zcaron" unicode="&#x17e;" horiz-adv-x="1034" 
d="M725 1575h84l-201 -401h-151l-199 401h86l195 -219zM49 0v49l529 873h-304l-131 -293h-61v405l174 -22h727v-11l-553 -913h315l175 322h61l-41 -412l-199 2h-692z" />
    <glyph glyph-name="florin" unicode="&#x192;" horiz-adv-x="1114" 
d="M1143 1092q0 -68 -50 -115t-122 -62q-68 207 -144 207q-92 0 -143 -327l-16 -101h303l-17 -100h-301l-51 -361q-28 -184 -100 -332q-72 -149 -164 -231q-188 -168 -348 -168q-70 0 -123 44t-53 102q0 123 163 172q35 -100 78 -152t80 -53q70 0 101 219l100 760h-230
l17 100h233q45 154 156 283q110 129 232 197t210 68t138 -41q51 -41 51 -109z" />
    <glyph glyph-name="Aringacute" unicode="&#x1fa;" horiz-adv-x="1435" 
d="M598 1663q0 -61 40 -101t95 -40t93 39t38 99t-40 101t-95 41t-93 -39t-38 -100zM510 1660q0 89 63 151q63 63 159 63t158 -60t62 -150t-63 -152t-159 -62t-159 60q-61 61 -61 150zM1124 2224v-26l-333 -273h-105l156 299h282zM584 1044l-183 -489h355zM-6 0v72l133 37
l500 1263l182 37l504 -1309l129 -28v-72h-686v72l159 32l-120 345h-433l-122 -332l227 -45v-72h-473z" />
    <glyph glyph-name="aringacute" unicode="&#x1fb;" horiz-adv-x="1081" 
d="M922 1905v-27l-334 -272h-105l156 299h283zM408 1330q0 -60 38 -100t94 -40t94 39t38 99t-39 100t-94 40t-94 -38q-37 -40 -37 -100zM319 1327q-1 87 63 151t160 64t156 -60q62 -60 62 -150t-62 -151q-62 -63 -159 -63q-96 0 -158 60t-62 149zM365 297q0 -68 38 -110
t98 -42t109 50v313l-67 -23q-178 -59 -178 -188zM328 -31q-119 0 -196 74q-77 75 -77 191t84 185t277 113l194 48v159q-6 91 -48 147t-104 56t-89 -20l-7 -244q-56 -25 -130 -25q-148 0 -148 119q0 96 153 183t347 87q352 0 352 -325v-527q0 -49 15 -62t61 -13h73v-52
q-156 -90 -278 -90q-176 0 -186 168h-9q-118 -172 -284 -172z" />
    <glyph glyph-name="AEacute" unicode="&#x1fc;" horiz-adv-x="1970" 
d="M1503 1772v-27l-334 -272h-104l156 299h282zM891 1260h-25l-297 -547h322v547zM1239 625v-484q51 -57 143 -57h240l227 389h72l-84 -473h-1100v72l154 39v518h-367l-272 -512l215 -45v-72h-469v72l125 37l643 1134l-186 45v72h1106l180 2v-408h-70l-137 322h-420v-563
h205l67 227h70v-532h-72l-65 217h-205z" />
    <glyph glyph-name="aeacute" unicode="&#x1fd;" horiz-adv-x="1605" 
d="M612 475v19l-37 -9q-109 -25 -159 -77t-49 -118q-1 -67 37 -106t100 -39q100 0 139 136q-31 85 -31 194zM1044 956q-66 0 -98 -63q-33 -63 -35 -221v-58l291 48q-6 130 -49 212t-109 82zM55 236q1 118 99 187t335 118l123 24v164q-4 97 -47 155t-121 58q-45 0 -75 -22
l-2 -240q-79 -27 -143 -27t-101 32t-37 89q0 98 151 183t335 85t264 -120q116 120 288 120t276 -109q103 -110 130 -310l-619 -82v-62q25 -129 123 -205t228 -75q66 0 100 14t46 19t53 26q40 21 46 29l31 -39q-55 -72 -103 -122q-49 -50 -149 -102t-214 -52t-212 52
t-162 146q-40 -40 -67 -61t-58 -46t-74 -48q-86 -46 -189 -46t-179 74q-76 75 -76 193zM1190 1575v-14l-287 -387h-76l103 401h260z" />
    <glyph glyph-name="Oslashacute" unicode="&#x1fe;" horiz-adv-x="1638" 
d="M1192 1772v-27l-334 -272h-104l155 299h283zM463 731q0 -182 43 -325l588 657q-51 117 -130 185t-178 67q-152 -1 -238 -153t-85 -431zM850 51q154 0 240 155t86 431q0 182 -52 342l-589 -660q51 -125 133 -197t182 -71zM68 672q0 313 226 520t527 207q258 0 455 -133
l131 145h106l-174 -194q231 -199 231 -520t-226 -525q-228 -204 -514 -205q-286 0 -482 144l-158 -177h-108l203 228q-217 197 -217 510z" />
    <glyph glyph-name="oslashacute" unicode="&#x1ff;" horiz-adv-x="1234" 
d="M936 1575v-14l-287 -387h-76l103 401h260zM653 45q84 -1 130 97t45 246t-25 276l-346 -410q72 -209 196 -209zM580 969q-92 -1 -134 -107t-43 -253q0 -147 31 -273l346 412q-69 221 -200 221zM57 488q0 240 162 398t399 156q195 0 334 -92l127 150h92l-161 -193
q168 -145 168 -384t-160 -397t-400 -157q-190 0 -327 88l-131 -155h-94l165 196q-174 150 -174 390z" />
    <glyph glyph-name="Scommaaccent" unicode="&#x218;" horiz-adv-x="1150" 
d="M526 53q114 1 178 63t64 154t-45 143q-45 52 -154 97l-120 47q-172 68 -251 167t-79 241q0 172 145 303t400 131q162 0 350 -84l4 -369h-64l-141 320q-70 57 -167 57q-96 0 -160 -58q-64 -59 -64 -149t53 -144t182 -104l131 -51q162 -63 231 -150t68 -208
q0 -223 -171 -357t-400 -133q-182 0 -399 90l-37 426h59l174 -356q100 -76 213 -76zM500 -299q0 41 -33 68t-82 30v13q45 104 166 104q76 0 126 -44t50 -116q0 -202 -414 -268l-16 51q203 66 203 162z" />
    <glyph glyph-name="scommaaccent" unicode="&#x219;" horiz-adv-x="942" 
d="M393 -31q-139 0 -311 64l-12 329h59l129 -256q55 -59 138 -59t131 42t48 108q0 109 -131 155l-143 54q-219 80 -219 301q0 151 125 245t332 95q139 0 286 -62l-2 -299h-53l-117 229q-59 51 -130 51t-113 -38q-42 -39 -41 -99q0 -100 137 -153l129 -49q121 -45 179 -113
t58 -172q0 -164 -138 -268t-341 -105zM451 -84q76 0 126 -44t50 -116q0 -202 -414 -268l-16 51q203 66 202 162q0 41 -32 68q-33 27 -82 30v13q47 104 166 104z" />
    <glyph glyph-name="uni021A" unicode="&#x21a;" horiz-adv-x="1325" 
d="M604 -299q0 41 -33 68t-82 30v13q47 104 166 104q76 0 126 -44t50 -116q1 -202 -413 -268l-17 51q203 66 203 162zM1284 932h-59l-133 334h-252v-1155l196 -39v-72h-749v72l198 39v1155h-252l-133 -334h-61l2 432l180 -4h885l178 4v-432z" />
    <glyph glyph-name="uni021B" unicode="&#x21b;" horiz-adv-x="774" 
d="M406 -84q76 0 126 -44t50 -116q0 -202 -414 -268l-16 51q203 66 202 162q0 41 -32 68q-33 27 -82 30v13q47 104 166 104zM416 -29q-279 0 -275 289l6 635h-149v72l152 51l286 250h37v-256h297v-119h-297v-643q35 -127 186 -127q8 0 107 16l12 -57q-190 -111 -362 -111z
" />
    <glyph glyph-name="uni0237" unicode="&#x237;" horiz-adv-x="641" 
d="M496 164q0 -190 -23 -290t-106 -175q-138 -123 -406 -168l-12 41q119 82 166 171t49 286v780l-127 92v37l459 104v-878z" />
    <glyph glyph-name="circumflex" unicode="&#x2c6;" horiz-adv-x="727" 
d="M174 1174h-86l201 401h151l199 -401h-86l-195 219z" />
    <glyph glyph-name="caron" unicode="&#x2c7;" horiz-adv-x="727" 
d="M555 1575h84l-201 -401h-151l-199 401h86l195 -219z" />
    <glyph glyph-name="breve" unicode="&#x2d8;" 
d="M407 1184q-128 0 -202 91t-74 284h62q43 -209 218 -209t222 209h57q-2 -179 -78 -277t-205 -98z" />
    <glyph glyph-name="dotaccent" unicode="&#x2d9;" horiz-adv-x="727" 
d="M366 1528q70 0 120 -50t50 -120t-49 -120q-50 -50 -121 -50t-121 49t-50 121t50 121t121 49z" />
    <glyph glyph-name="ring" unicode="&#x2da;" horiz-adv-x="727" 
d="M496 1373q0 61 -39 101t-95 40t-93 -40q-38 -39 -38 -99t39 -100q38 -40 94 -40t94 39t38 99zM143 1372q-1 88 63 152t160 63q96 0 156 -60q62 -59 62 -149t-62 -152t-160 -62q-96 0 -158 60t-61 148z" />
    <glyph glyph-name="ogonek" unicode="&#x2db;" 
d="M369 -209q1 -47 27 -76t78 -29t122 72l41 -30q-57 -106 -119 -164t-160 -58q-96 0 -151 50t-55 130q0 78 65 154t225 178h52q-125 -143 -125 -227z" />
    <glyph glyph-name="tilde" unicode="&#x2dc;" horiz-adv-x="727" 
d="M373 1227l-86 30q-123 43 -171 29t-91 -96l-48 20l13 33q61 166 143 214t221 -1l90 -33q94 -35 152 -15t109 101l47 -20l-17 -39q-71 -178 -147 -226t-215 3z" />
    <glyph glyph-name="hungarumlaut" unicode="&#x2dd;" 
d="M729 1575v-19l-231 -382h-76l84 401h223zM408 1575v-19l-230 -382h-74l82 401h222z" />
    <glyph glyph-name="Wgrave" unicode="&#x1e80;" horiz-adv-x="2025" 
d="M713 1772h264l164 -299h-103l-325 272v27zM-4 1360h618v-72l-133 -37l271 -915l219 633l-94 282l-105 37v72h635v-74l-166 -35l279 -891l278 877l-190 49v74h422v-72l-123 -45l-424 -1266h-176l-291 857l-311 -857h-175l-419 1274l-115 35v74z" />
    <glyph glyph-name="wgrave" unicode="&#x1e81;" horiz-adv-x="1626" 
d="M616 1575h258l105 -401h-78l-285 387v14zM1266 1012h383v-68l-117 -26l-313 -947h-148l-233 568l-21 59h-2q-16 -49 -20 -59l-217 -568h-146l-338 947l-117 26v68h621v-68l-141 -26l159 -515l19 -67h2q18 57 22 67l226 615h102l252 -625l18 -53h3q10 45 14 55l149 516
l-157 35v66z" />
    <glyph glyph-name="Wacute" unicode="&#x1e82;" horiz-adv-x="2025" 
d="M1454 1772v-27l-334 -272h-104l155 299h283zM-4 1360h618v-72l-133 -37l271 -915l219 633l-94 282l-105 37v72h635v-74l-166 -35l279 -891l278 877l-190 49v74h422v-72l-123 -45l-424 -1266h-176l-291 857l-311 -857h-175l-419 1274l-115 35v74z" />
    <glyph glyph-name="wacute" unicode="&#x1e83;" horiz-adv-x="1626" 
d="M1266 1012h383v-68l-117 -26l-313 -947h-148l-233 568l-21 59h-2q-16 -49 -20 -59l-217 -568h-146l-338 947l-117 26v68h621v-68l-141 -26l159 -515l19 -67h2q18 57 22 67l226 615h102l252 -625l18 -53h3q10 45 14 55l149 516l-157 35v66zM1257 1575v-14l-286 -387h-76
l102 401h260z" />
    <glyph glyph-name="Wdieresis" unicode="&#x1e84;" horiz-adv-x="2025" 
d="M1176 1636q0 64 45 110t107 46t110 -47t49 -109q-1 -62 -49 -106q-48 -45 -110 -45t-107 44t-45 107zM834 1485q-63 0 -110 44q-46 44 -46 107q0 64 46 110t110 46t109 -46q46 -46 46 -110t-46 -107q-46 -44 -109 -44zM-4 1360h618v-72l-133 -37l271 -915l219 633
l-94 282l-105 37v72h635v-74l-166 -35l279 -891l278 877l-190 49v74h422v-72l-123 -45l-424 -1266h-176l-291 857l-311 -857h-175l-419 1274l-115 35v74z" />
    <glyph glyph-name="wdieresis" unicode="&#x1e85;" horiz-adv-x="1626" 
d="M1266 1012h383v-68l-117 -26l-313 -947h-148l-233 568l-21 59h-2q-16 -49 -20 -59l-217 -568h-146l-338 947l-117 26v68h621v-68l-141 -26l159 -515l19 -67h2q18 57 22 67l226 615h102l252 -625l18 -53h3q10 45 14 55l149 516l-157 35v66zM1151 1204q-63 0 -109 45
q-45 45 -45 109t45 109q44 46 108 46t110 -46t47 -109q0 -63 -46 -109q-47 -45 -110 -45zM723 1204q-63 0 -110 45q-46 45 -46 109t46 109q45 46 109 46t110 -46t47 -109q0 -63 -46 -109q-47 -45 -110 -45z" />
    <glyph glyph-name="Ygrave" unicode="&#x1ef2;" horiz-adv-x="1357" 
d="M424 1772h264l164 -299h-102l-326 272v27zM1024 0h-676v72l162 39v428l-389 714l-121 35v72h692v-72l-188 -39l301 -598l311 592l-205 45v72h447v-72l-127 -43l-369 -663v-471l162 -39v-72z" />
    <glyph glyph-name="ygrave" unicode="&#x1ef3;" horiz-adv-x="1054" 
d="M307 1575h258l105 -401h-78l-285 387v14zM743 1012h320v-68l-90 -26l-479 -1199q-84 -207 -240 -206q-68 0 -118 48t-50 121q0 72 49 120t119 48q109 0 158 -112h4l67 168l-409 1016l-82 22v68h557v-68l-117 -22l211 -609l221 600l-121 33v66z" />
    <glyph glyph-name="uni2009" unicode="&#x2009;" horiz-adv-x="114" 
 />
    <glyph glyph-name="endash" unicode="&#x2013;" horiz-adv-x="974" 
d="M78 522v94h819v-94h-819z" />
    <glyph glyph-name="emdash" unicode="&#x2014;" horiz-adv-x="1794" 
d="M78 522v94h1638v-94h-1638z" />
    <glyph glyph-name="quoteleft" unicode="&#x2018;" horiz-adv-x="583" 
d="M297 1237q0 -106 164 -133q8 -82 -35 -133t-118 -51t-129 54t-54 152q0 217 311 381l29 -53q-76 -43 -122 -100t-46 -117z" />
    <glyph glyph-name="quoteright" unicode="&#x2019;" horiz-adv-x="583" 
d="M287 1188q0 106 -164 133q-8 82 35 134t119 52q75 0 127 -55t52 -162q0 -108 -84 -204q-85 -96 -222 -166l-31 51q168 98 168 217z" />
    <glyph glyph-name="quotesinglbase" unicode="&#x201a;" horiz-adv-x="583" 
d="M287 63q0 109 -164 136q-8 80 35 133t119 53q75 0 127 -56t52 -163t-84 -204q-85 -97 -222 -167l-31 53q76 42 122 100t46 115z" />
    <glyph glyph-name="quotedblleft" unicode="&#x201c;" horiz-adv-x="1011" 
d="M725 1237q0 -106 164 -133q8 -82 -35 -133t-118 -51t-129 54t-54 152q0 217 311 381l29 -53q-76 -43 -122 -100t-46 -117zM297 1237q0 -106 164 -133q8 -82 -35 -133t-118 -51t-129 54t-54 152q0 217 311 381l29 -53q-76 -43 -122 -100t-46 -117z" />
    <glyph glyph-name="quotedblright" unicode="&#x201d;" horiz-adv-x="1011" 
d="M715 1188q0 106 -164 133q-8 82 35 134t119 52t128 -55t52 -162q0 -108 -85 -204t-222 -166l-31 51q168 98 168 217zM287 1188q0 106 -164 133q-8 82 35 134t119 52q75 0 127 -55t52 -162q0 -108 -84 -204q-85 -96 -222 -166l-31 51q168 98 168 217z" />
    <glyph glyph-name="quotedblbase" unicode="&#x201e;" horiz-adv-x="1013" 
d="M715 63q0 109 -164 136q-8 80 35 133t119 53t128 -56t52 -163t-85 -204t-222 -167l-31 53q76 42 122 100t46 115zM287 63q0 109 -164 136q-8 80 35 133t119 53q75 0 127 -56t52 -163t-84 -204q-85 -97 -222 -167l-31 53q76 42 122 100t46 115z" />
    <glyph glyph-name="dagger" unicode="&#x2020;" horiz-adv-x="702" 
d="M76 1149v147l229 -28l-31 239h152l-31 -239l232 28v-147l-234 31l33 -496h-152l33 496z" />
    <glyph glyph-name="daggerdbl" unicode="&#x2021;" horiz-adv-x="688" 
d="M70 1149v147l225 -26l-29 237h152l-29 -239l229 28v-147l-231 31v-211l231 30v-149l-229 31l29 -236h-152l29 236l-225 -31v149l229 -28v209z" />
    <glyph glyph-name="bullet" unicode="&#x2022;" horiz-adv-x="681" 
d="M340 365q-84 0 -143 59t-59 144q0 84 58 144q60 60 144 60t144 -59t60 -145t-60 -144q-60 -59 -144 -59z" />
    <glyph glyph-name="ellipsis" unicode="&#x2026;" horiz-adv-x="1587" 
d="M1495 141q0 -70 -51 -120t-120 -50q-69 1 -120 51t-51 120t51 119q51 50 120 50t120 -50t51 -120zM969 141q0 -70 -51 -120t-120 -50q-69 1 -120 51t-51 120t51 119q51 50 120 50t120 -50t51 -120zM272 -29q-70 1 -120 51t-52 120q0 70 52 119q52 50 120 50q70 0 120 -50
t50 -120t-50 -120t-120 -50z" />
    <glyph glyph-name="perthousand" unicode="&#x2030;" horiz-adv-x="2639" 
d="M2533 328q0 -152 -106 -256t-263 -103t-257 101q-101 100 -101 250t108 255t260 105t256 -100q103 -100 103 -252zM2206 41q96 0 96 219q0 112 -49 230t-117 118q-98 0 -98 -216q0 -110 49 -231q49 -120 119 -120zM1323 -31q-158 1 -258 101t-100 250t107 255
q108 105 260 105t257 -100t105 -252t-106 -256t-265 -103zM1294 608q-96 0 -96 -194q0 -133 48 -253t118 -120q96 0 96 195q0 140 -49 256t-117 116zM453 539q-158 0 -258 99q-101 99 -101 250t109 255t261 104t256 -100q103 -100 103 -251t-106 -254t-264 -103zM496 608
q96 0 96 220q0 112 -49 231t-117 119q-98 0 -98 -218q0 -110 49 -231t119 -121zM371 -102l938 1390h94l-944 -1390h-88z" />
    <glyph glyph-name="uni2032" unicode="&#x2032;" horiz-adv-x="516" 
d="M449 1532v-19l-252 -495h-58l51 514h259z" />
    <glyph glyph-name="uni2033" unicode="&#x2033;" horiz-adv-x="921" 
d="M856 1532v-19l-254 -495h-55l49 514h260zM449 1532v-19l-252 -495h-58l51 514h259z" />
    <glyph glyph-name="guilsinglleft" unicode="&#x2039;" horiz-adv-x="634" 
d="M455 817l43 -37l-211 -334l211 -354l-43 -33l-361 355v47z" />
    <glyph glyph-name="guilsinglright" unicode="&#x203a;" horiz-adv-x="634" 
d="M180 59l-45 37l213 334l-211 354l43 33l359 -354v-47z" />
    <glyph glyph-name="fraction" unicode="&#x2044;" horiz-adv-x="430" 
d="M-305 -160l-62 43l1102 1594l64 -43z" />
    <glyph glyph-name="Euro" unicode="&#x20ac;" horiz-adv-x="1374" 
d="M922 1268q138 0 246 -62t108 -155q0 -121 -182 -148q-76 139 -143 205t-163 66t-167 -96q-72 -96 -86 -281h444l-12 -74h-435v-16q0 -74 11 -150h403l-10 -78h-375q45 -157 149 -231t232 -74q164 0 315 127l37 -37q-102 -154 -217 -228t-280 -75q-254 0 -404 141
t-174 377h-164l11 78h149v12q0 84 14 154h-143l12 74h152q74 219 268 345q195 126 404 126z" />
    <glyph glyph-name="trademark" unicode="&#x2122;" horiz-adv-x="1652" 
d="M457 1300v-469l80 -16v-43h-347v43l76 16v469h-104l-53 -161h-37l2 221h573l4 -221h-37l-53 161h-104zM702 772v43l80 16v472l-75 16v41h331l109 -307l117 307h313v-41l-72 -16v-472l70 -16v-43h-348v43l73 16v431h-8l-188 -476h-68l-28 82l-148 394h-10v-428l84 -19v-43
h-232z" />
    <glyph glyph-name="onethird" unicode="&#x2153;" horiz-adv-x="1656" 
d="M297 -160l-61 43l1101 1594l64 -43zM430 1370v-706l131 -23v-57h-526v57l145 23v544h-153v49l376 113h27zM1275 33q50 0 86 34q36 33 36 103t-66 126t-203 56v54q246 41 246 165q0 45 -29 74q-30 29 -88 29q-109 0 -192 -111l-45 25q94 219 328 219q102 0 169 -50
t67 -122t-57 -121q-56 -49 -138 -74v-8q113 -8 172 -58t59 -130q0 -117 -101 -191t-259 -73q-109 0 -183 45t-73 108q0 39 28 64q29 25 78 26l90 -166q25 -24 75 -24z" />
    <glyph glyph-name="twothirds" unicode="&#x2154;" horiz-adv-x="1718" 
d="M358 -160l-61 43l1102 1594l63 -43zM1336 33q50 0 86 34q36 33 36 103t-65 126q-66 56 -203 56v54q246 41 246 165q0 45 -30 74t-87 29q-109 0 -193 -111l-45 25q94 219 328 219q102 0 169 -50t67 -122q-1 -72 -57 -121t-138 -74v-8q113 -8 172 -58t59 -130
q0 -117 -101 -191t-259 -73q-109 0 -183 45t-73 108q0 39 29 64t77 26l91 -166q24 -24 74 -24zM649 770v-186h-608v59l119 115q102 102 140 142q101 106 99 198q0 59 -38 96t-94 37t-94 -28t-83 -83l-47 31q127 240 328 240q111 1 181 -61t69 -158q0 -96 -50 -156
q-50 -61 -161 -137l-160 -109h399z" />
    <glyph glyph-name="oneeighth" unicode="&#x215b;" horiz-adv-x="1710" 
d="M1223 651q0 -82 131 -141l57 -25q47 51 47 121t-36 110q-36 42 -88 42t-82 -30t-29 -77zM1192 202q0 -73 45 -123t103 -50q58 -1 93 29q34 30 33 83q0 97 -141 158l-88 39q-45 -63 -45 -136zM297 -160l-61 43l1101 1594l64 -43zM430 1370v-706l131 -23v-57h-526v57
l145 23v544h-153v49l376 113h27zM985 184q0 131 203 174q-164 84 -164 217q0 88 84 160t230 72t229 -51q82 -51 82 -125q0 -123 -185 -168q209 -90 209 -221t-103 -199t-247 -68q-144 -1 -241 53t-97 156z" />
    <glyph glyph-name="threeeighths" unicode="&#x215c;" horiz-adv-x="1679" 
d="M1192 651q0 -82 131 -141l57 -25q47 51 47 121t-35 111q-36 41 -88 41t-82 -30t-30 -77zM1161 202q0 -73 45 -123q46 -50 104 -50q58 -1 92 29t34 83q-1 97 -142 158l-88 39q-45 -63 -45 -136zM266 -160l-61 43l1102 1594l63 -43zM300 616q50 0 86 35t36 104t-66 125
t-202 56v53q246 41 245 166q0 45 -29 75q-30 30 -87 30q-109 0 -193 -113l-45 24q94 219 328 220q104 1 170 -49q65 -50 65 -122t-56 -122q-56 -49 -138 -74v-8q113 -8 172 -58t59 -131q0 -117 -101 -189q-100 -72 -234 -73q-134 0 -208 44t-73 108q1 39 29 65t77 25
l90 -166q25 -25 75 -25zM954 184q0 131 203 174q-164 84 -164 217q0 88 84 160q85 72 231 72t228 -51t82 -125q0 -123 -184 -168q208 -90 208 -221t-103 -199t-247 -68q-144 -1 -241 53t-97 156z" />
    <glyph glyph-name="fiveeighths" unicode="&#x215d;" horiz-adv-x="1689" 
d="M1202 651q0 -82 131 -141l58 -25q47 51 47 121t-36 110q-36 42 -88 42t-82 -30t-30 -77zM1320 29q58 -1 92 29t34 83q0 97 -141 158l-88 39q-45 -63 -45 -136t44 -123q46 -50 104 -50zM276 -160l-61 43l1102 1594l63 -43zM586 1174h-449l-4 -134q106 31 186 31
q152 0 234 -60t82 -179t-108 -194t-259 -75q-102 0 -178 39t-76 105q0 39 33 63t82 23l84 -166q29 -17 79 -17t87 38t37 107t-49 111t-125 41q-76 0 -172 -28l-4 2l14 479h506v-186zM965 184q0 131 202 174q-164 84 -163 217q0 88 83 160q85 72 231 72t228 -51t82 -125
q0 -123 -184 -168q209 -90 209 -221q1 -131 -103 -199t-248 -68q-144 -1 -240 53q-97 54 -97 156z" />
    <glyph glyph-name="seveneighths" unicode="&#x215e;" horiz-adv-x="1495" 
d="M1008 651q0 -82 131 -141l57 -25q47 51 47 121t-36 110q-36 42 -88 42q-51 0 -81 -30t-30 -77zM977 202q0 -73 45 -123q46 -50 104 -50q58 -1 92 29t33 83q0 97 -141 158l-88 39q-45 -63 -45 -136zM82 -160l-62 43l1102 1594l64 -43zM37 1153v207h610v-14
q-233 -415 -377 -695l-32 -67h-158l399 569h-442zM770 184q0 131 203 174q-164 84 -164 217q0 88 84 160q85 72 231 72t228 -51t82 -125q0 -123 -185 -168q209 -90 209 -221t-103 -199t-247 -68q-144 -1 -241 53t-97 156z" />
    <glyph glyph-name="minus" unicode="&#x2212;" horiz-adv-x="1175" 
d="M1073 459h-971v96h971v-96z" />
    <glyph glyph-name="approxequal" unicode="&#x2248;" horiz-adv-x="1175" 
d="M360 471q84 0 201 -43l86 -33q127 -47 180 -47q102 0 181 139l71 -43q-100 -188 -256 -188q-92 0 -211 45l-88 33q-121 45 -166 45q-112 0 -192 -143l-72 38q96 197 266 197zM827 651q102 0 181 140l71 -43q-98 -190 -256 -191q-100 0 -211 45l-88 35q-109 43 -166 43
q-112 0 -192 -143l-72 41q96 197 266 196q72 0 201 -45l86 -31q135 -47 180 -47z" />
    <glyph glyph-name="notequal" unicode="&#x2260;" horiz-adv-x="1175" 
d="M102 319v95h361l149 194h-510v94h584l184 240h101l-187 -240h289v-94h-362l-152 -194h514v-95h-586l-186 -239h-96l184 239h-287z" />
    <glyph glyph-name="lessequal" unicode="&#x2264;" horiz-adv-x="1204" 
d="M1073 981l-799 -319l799 -318v-111l-971 394v61l971 393v-100zM1073 0h-971v96h971v-96z" />
    <glyph glyph-name="greaterequal" unicode="&#x2265;" horiz-adv-x="1204" 
d="M102 336l799 317l-799 318v110l971 -393v-61l-971 -394v103zM1073 0h-971v96h971v-96z" />
    <glyph glyph-name="uni24C5" unicode="&#x24c5;" horiz-adv-x="1648" 
d="M160 686q0 -272 192 -466t461 -194q268 0 461 194t192 466q0 272 -193 465q-194 193 -462 193t-460 -193q-191 -193 -191 -465zM92 685q0 302 210 510t510 208t509 -208t209 -509t-210 -510t-510 -209t-509 208t-209 510zM1012 820q0 81 -58 137t-157 61v-643l116 -25
v-55h-454v55l110 25v614l-110 25v55h366q193 0 299 -58t106 -174t-114 -186q-115 -70 -278 -67v49q78 12 126 59t48 128z" />
    <glyph glyph-name="space_uni0326" 
d="M350 -299q0 41 -33 68t-81 30v13q47 104 165 104q76 0 126 -44t51 -116q0 -202 -414 -268l-17 51q203 66 203 162z" />
    <glyph glyph-name="caron.alt" 
d="M545 1493v-14l-223 -410h-60l39 424h244z" />
    <glyph glyph-name="space_uni0326.alt" 
d="M424 1415q0 -41 33 -67t82 -31v-12q-47 -104 -168 -105q-76 0 -125 44t-49 116q-1 200 413 270l15 -53q-201 -66 -201 -162z" />
    <glyph glyph-name="grave.uc" 
d="M152 1772h264l164 -299h-103l-325 272v27z" />
    <glyph glyph-name="dieresis.uc" horiz-adv-x="821" 
d="M504 1636q0 64 45 110t107 46t110 -47t49 -109q-1 -62 -49 -106q-48 -45 -110 -45t-107 44t-45 107zM162 1485q-63 0 -110 44q-46 44 -46 107q0 64 46 110t110 46t109 -46q46 -46 46 -110t-46 -107q-46 -44 -109 -44z" />
    <glyph glyph-name="macron.uc" 
d="M100 1550v150h619v-150h-619z" />
    <glyph glyph-name="acute.uc" 
d="M668 1772v-27l-334 -272h-105l156 299h283z" />
    <glyph glyph-name="circumflex.uc" 
d="M197 1473h-95l205 292h207l205 -292h-107l-206 147z" />
    <glyph glyph-name="caron.uc" 
d="M625 1765h96l-205 -292h-207l-205 292h105l207 -151z" />
    <glyph glyph-name="breve.uc" 
d="M413 1460q-136 0 -209 89t-73 216h76q67 -139 217 -139t211 139h72q2 -125 -78 -215t-216 -90z" />
    <glyph glyph-name="dotaccent.uc" 
d="M408 1481q-72 0 -120 48t-48 120q0 71 49 121t120 50t121 -50t52 -120q0 -70 -51 -120q-51 -49 -123 -49z" />
    <glyph glyph-name="ring.uc" 
d="M276 1702q0 -61 40 -101t96 -40q56 1 93 39q38 38 38 98t-40 102q-40 41 -95 41q-56 0 -94 -39t-38 -100zM408 1489q-96 1 -158 61t-62 149t64 151t160 62t157 -60t61 -149t-62 -151q-64 -62 -160 -63z" />
    <glyph glyph-name="tilde.uc" 
d="M430 1548l-88 27q-123 37 -175 26t-93 -90l-45 21l10 33q57 162 135 207t221 4l90 -27q95 -31 157 -15t110 97l47 -21l-15 -41q-70 -176 -142 -220t-212 -1z" />
    <glyph glyph-name="hungarumlaut.uc" 
d="M786 1772v-23l-237 -276h-96l100 299h233zM416 1772v-23l-238 -276h-96l100 299h234z" />
    <glyph glyph-name="cedilla.uc" horiz-adv-x="561" 
d="M123 -510l-14 51q201 68 200 166q0 76 -102 109l129 192h70l-66 -96q88 -12 142 -53t55 -107q0 -194 -414 -262z" />
    <glyph glyph-name="idotaccent" horiz-adv-x="649" 
d="M333 1188q-71 0 -120 50t-49 120t49 120t119 50t121 -50t51 -120t-50 -120t-121 -50zM33 0v70l131 30v709l-127 92v37l461 104v-942l131 -30v-70h-596z" />
    <glyph glyph-name="dollar.lin" horiz-adv-x="1206" 
d="M399 1096q0 -166 172 -219l58 442q-98 -9 -164 -71t-66 -152zM797 285q0 172 -197 225l-61 -453q117 2 187 69t71 159zM100 952q0 178 146 310t395 141l27 205h75l-28 -207q131 -6 315 -80v-373h-61l-123 297q-59 57 -141 72l-62 -461l170 -47q309 -88 309 -348
q0 -143 -91 -257t-224 -171t-279 -64l-28 -221h-76l29 223q-154 10 -342 84l-37 428h65l162 -336q74 -68 164 -84l61 465l-82 23q-344 92 -344 401z" />
    <glyph glyph-name="Euro.lin" horiz-adv-x="1368" 
d="M916 1403q142 1 248 -59t106 -150q0 -63 -52 -103t-143 -53q-66 143 -126 212t-142 69q-111 0 -181 -117t-87 -317h440l-12 -76h-432v-25q0 -96 12 -174h391l-12 -75h-361q47 -170 151 -256t228 -86q168 0 309 120l39 -39q-108 -158 -220 -234t-277 -75q-227 0 -387 160
t-195 410h-170l10 75h152v43q0 86 14 156h-137l12 76h142q47 164 157 284q215 234 523 234z" />
    <glyph glyph-name="sterling.lin" horiz-adv-x="1499" 
d="M258 547v98h268l64 287q31 139 110 256q136 199 373 295q96 39 185 39t165 -58t76 -125t-57 -107t-164 -44q-72 233 -162 233q-96 0 -147 -252l-105 -524h353v-98h-373q-80 -274 -385 -453q129 -59 286 -149l168 -95q129 -72 173 -94t77 -20q135 4 64 297q103 12 161 -15
t58 -90q0 -112 -159 -226t-315 -114t-270 60q-113 60 -237 207l-148 172q-153 -61 -227 -61t-110 30q-36 31 -35 83q0 52 42 87q43 35 127 35t246 -64q72 84 115 273l29 137h-246z" />
    <glyph glyph-name="yen.lin" horiz-adv-x="1314" 
d="M127 563v76h328l-324 614l-119 35v72h645v-72l-151 -39l252 -573h6l289 569l-183 43v72h435v-72l-129 -43l-334 -606h340v-76h-363v-182h363v-76h-363v-192l182 -41v-72h-694v72l182 39v194h-362v76h362v182h-362z" />
    <glyph glyph-name="florin.lin" horiz-adv-x="1124" 
d="M989 1405q82 0 126 -38q44 -39 44 -109t-50 -122t-118 -71q-72 221 -145 221q-96 0 -144 -328l-40 -278h309l-17 -100h-307l-47 -328q-63 -438 -342 -645q-144 -105 -272 -105q-70 0 -124 44t-55 102q0 121 166 172q35 -94 77 -148t77 -55q74 0 104 227l97 736h-224
l19 100h219l8 59q39 279 247 473t392 193z" />
    <glyph glyph-name="zero.lin" horiz-adv-x="1396" 
d="M655 1323q-104 0 -158 -139q-55 -139 -55 -341t33 -376t105 -297t170 -123t150 142t52 358q0 309 -86 543t-211 233zM90 688q0 322 182 518t440 197q258 0 426 -201q168 -200 169 -520t-181 -518t-421 -197q-279 0 -447 199q-168 200 -168 522z" />
    <glyph glyph-name="one.lin" horiz-adv-x="872" 
d="M639 1384v-1273l213 -35v-76h-782v76l229 33v1015l-252 -18l-14 76l577 202h29z" />
    <glyph glyph-name="two.lin" horiz-adv-x="1130" 
d="M1059 272v-272h-989v92l209 227q10 13 61 67t64 70t56 62q42 48 55 68t45 62t43 69t33 75t21 141q1 93 -65 161t-160 67q-166 0 -293 -184l-59 35q160 393 491 393q178 0 290 -102t112 -269t-124 -313q-129 -150 -390 -359l-107 -90h707z" />
    <glyph glyph-name="three.lin" horiz-adv-x="1062" 
d="M488 51q84 1 144 61t60 154q0 144 -117 242t-313 121v82q199 55 284 133t85 168t-52 140t-135 50q-168 0 -290 -160l-58 37q156 328 471 328q158 0 253 -83t95 -208q1 -125 -77 -205t-217 -141v-8q158 -23 261 -116t103 -228q0 -201 -165 -324t-400 -123q-160 0 -262 66
t-103 166q0 61 46 100t118 43q7 -18 67 -130t70 -126q49 -39 132 -39z" />
    <glyph glyph-name="four.lin" horiz-adv-x="1208" 
d="M623 557v477l-402 -477h402zM928 557h235v-221h-235v-227l166 -37v-72h-645v72l174 34v230h-600v117l784 929l121 -22v-803z" />
    <glyph glyph-name="five.lin" horiz-adv-x="1075" 
d="M918 1073h-674l-13 -266q160 49 297 49q211 0 342 -111t131 -288q0 -231 -177 -363t-418 -133q-133 1 -241 61t-108 164q1 66 53 103t128 37q117 -242 133 -267q37 -20 86 -20q104 0 177 75q73 76 73 202t-87 202q-88 76 -220 76t-259 -57l-10 4l37 819h750v-287z" />
    <glyph glyph-name="six.lin" horiz-adv-x="1247" 
d="M575 768q-72 0 -135 -53q-16 -74 -16 -176q0 -225 66 -362q67 -136 165 -136q168 0 168 303q0 176 -71 300q-73 124 -177 124zM745 889q187 0 301 -118t113 -294q0 -238 -169 -378t-365 -140q-240 0 -392 152t-151 395q0 200 83 366q148 296 526 461q163 72 347 107
l21 -72q-496 -225 -600 -577q137 98 286 98z" />
    <glyph glyph-name="seven.lin" horiz-adv-x="1044" 
d="M68 1047v313h972v-17q-402 -758 -612 -1196l-70 -147h-194l637 1047h-733z" />
    <glyph glyph-name="eight.lin" horiz-adv-x="1222" 
d="M420 1144q0 -81 42 -135t132 -108l137 -82q92 101 92 231q1 130 -65 204t-154 73q-88 0 -136 -51t-48 -132zM369 372q-1 -148 77 -241q78 -94 180 -94t156 57q56 56 56 146t-54 156t-209 157l-110 63q-96 -96 -96 -244zM636 1407q220 0 345 -88t125 -215t-114 -207
q-56 -39 -98 -59t-110 -50l43 -24q178 -106 249 -188t71 -208t-88 -224t-210 -141q-122 -44 -249 -44q-221 0 -374 90q-152 90 -152 258t159 263q64 39 173 81l-3 2q-145 86 -205 161t-60 213t138 259q140 121 360 121z" />
    <glyph glyph-name="nine.lin" horiz-adv-x="1234" 
d="M567 1329q-174 0 -174 -309q0 -156 75 -292t194 -136q63 0 114 47q16 92 17 178q0 229 -69 371t-157 141zM491 477q-163 0 -291 114q-128 113 -128 329t160 353q161 136 381 136t376 -161t156 -431q0 -184 -77 -337t-212 -258q-271 -211 -682 -275l-18 71
q483 168 600 543q-102 -84 -265 -84z" />
    <glyph glyph-name="percent.lin" horiz-adv-x="1701" 
d="M1234 -41q-157 0 -257 100t-100 251t107 255q108 105 260 105t257 -100t105 -252q0 -150 -108 -254t-264 -105zM1206 600q-96 0 -96 -197q0 -133 48 -253t118 -119q96 0 96 194q0 137 -49 256t-117 119zM819 1040q0 -150 -106 -254t-263 -104t-259 100q-101 100 -101 250
t109 254t261 104t256 -100q103 -100 103 -250zM492 752q96 0 96 220q0 112 -49 231q-49 118 -117 118q-98 0 -98 -217q0 -111 49 -232t119 -120zM268 -102l1037 1525h96l-1041 -1525h-92z" />
    <glyph glyph-name="perthousand.lin" horiz-adv-x="2541" 
d="M2445 316q0 -150 -107 -254t-264 -103q-157 0 -257 99q-101 99 -101 251t108 255q108 104 260 104t257 -100q104 -102 104 -252zM2046 598q-98 0 -98 -217q0 -111 49 -231t119 -121q96 0 96 194q0 137 -49 256t-117 119zM1234 -41q-157 0 -257 100t-100 251t107 255
q108 105 260 105t257 -100t105 -252q0 -150 -108 -254t-264 -105zM1206 600q-96 0 -96 -197q0 -133 48 -253t118 -119q96 0 96 194q0 137 -49 256t-117 119zM819 1040q0 -150 -106 -254t-263 -104t-259 100q-101 100 -101 250t109 254t261 104t256 -100q103 -100 103 -250z
M492 752q96 0 96 220q0 112 -49 231q-49 118 -117 118q-98 0 -98 -217q0 -111 49 -232t119 -120zM268 -102l1037 1525h96l-1041 -1525h-92z" />
    <glyph glyph-name="plus.lin" horiz-adv-x="1175" 
d="M1073 588h-434v-434h-102v434h-435v96h435v434h102v-434h434v-96z" />
    <glyph glyph-name="minus.lin" horiz-adv-x="1175" 
d="M1073 588h-971v96h971v-96z" />
    <glyph glyph-name="multiply.lin" horiz-adv-x="1175" 
d="M967 176l-383 387l-381 -389l-72 72l385 387l-379 379l76 75l379 -378l375 385l69 -72l-377 -383l383 -385z" />
    <glyph glyph-name="divide.lin" horiz-adv-x="1175" 
d="M588 180q-57 0 -100 42q-42 42 -42 100t42 100q42 43 100 43t100 -43q43 -43 43 -99q0 -55 -43 -99t-100 -44zM588 805q-57 0 -100 43q-42 43 -42 100q0 56 42 100t100 44t101 -43q44 -43 44 -101t-44 -100q-44 -43 -101 -43zM1073 588h-971v96h971v-96z" />
    <glyph glyph-name="equal.lin" horiz-adv-x="1175" 
d="M1073 449h-971v94h971v-94zM1073 737h-971v92h971v-92z" />
    <glyph glyph-name="less.lin" horiz-adv-x="1204" 
d="M1087 1018l-827 -383l827 -383v-107l-970 457v68l970 454v-106z" />
    <glyph glyph-name="greater.lin" horiz-adv-x="1204" 
d="M117 252l827 383l-827 381v108l970 -456v-68l-970 -455v107z" />
    <glyph glyph-name="plusminus.lin" horiz-adv-x="1175" 
d="M102 0v94h971v-94h-971zM1073 793h-434v-437h-102v437h-435v94h435v434h102v-434h434v-94z" />
    <glyph glyph-name="notequal.lin" horiz-adv-x="1175" 
d="M102 449v94h353l166 194h-519v92h598l207 242h101l-209 -242h274v-92h-354l-168 -194h522v-94h-602l-207 -240h-94l205 240h-273z" />
    <glyph glyph-name="approxequal.lin" horiz-adv-x="1175" 
d="M827 479q100 0 181 137l71 -43q-100 -188 -256 -188q-92 0 -211 45l-88 33q-121 45 -166 45q-112 0 -192 -143l-72 41q98 197 266 196q78 0 201 -45l86 -33q121 -45 180 -45zM827 780q102 0 181 140l71 -43q-98 -190 -256 -191q-100 0 -211 45l-88 35q-109 43 -166 43
q-112 0 -192 -143l-72 41q96 197 266 196q72 0 201 -45l86 -31q135 -47 180 -47z" />
    <glyph glyph-name="lessequal.lin" horiz-adv-x="1204" 
d="M1073 1110l-799 -319l799 -318v-111l-971 394v61l971 393v-100zM1073 0h-971v94h971v-94z" />
    <glyph glyph-name="greaterequal.lin" horiz-adv-x="1204" 
d="M102 463l799 319l-799 318v110l971 -393v-61l-971 -394v101zM1073 0h-971v94h971v-94z" />
    <glyph glyph-name="numbersign.lin" horiz-adv-x="1185" 
d="M469 936l-70 -385h322l70 385h-322zM150 936v88h249l58 322h84l-58 -322h322l57 322h84l-57 -322h241v-88h-256l-69 -385h235v-88h-249l-60 -334h-84l60 334h-322l-59 -334h-84l59 334h-242v88h256l70 385h-235z" />
    <glyph glyph-name="ordfeminine.lin" horiz-adv-x="919" 
d="M313 823q0 -49 28 -81t78 -31q50 0 89 34v232l-43 -12q-82 -27 -117 -60t-35 -82zM266 565q-72 1 -134 57q-64 56 -64 148t64 145q65 53 206 84l170 37v150q-4 57 -38 98t-78 41t-75 -12l-22 -193q-39 -25 -92 -24q-109 0 -109 88q0 80 120 152t270 71q150 0 218 -65
q66 -65 66 -203v-391q0 -38 13 -52t50 -14h58v-53q-121 -61 -223 -62q-141 0 -146 129h-10q-31 -41 -56 -64q-73 -67 -188 -67z" />
    <glyph glyph-name="ordmasculine.lin" horiz-adv-x="983" 
d="M482 553q-194 0 -309 121q-116 121 -116 302t125 306t314 125q190 0 310 -116t120 -302t-125 -311t-319 -125zM467 1339q-127 0 -127 -310q0 -144 50 -276t130 -132q125 0 125 288q0 172 -50 301t-128 129z" />
    <glyph glyph-name="zero.num" horiz-adv-x="858" 
d="M408 1335q-100 0 -101 -280q0 -162 38 -299t108 -138q98 0 98 285q0 164 -40 298t-103 134zM438 1389q156 0 264 -113t109 -297q0 -184 -117 -298t-260 -114q-178 0 -282 116t-104 298t117 295t273 113z" />
    <glyph glyph-name="one.num" horiz-adv-x="579" 
d="M430 1370v-706l131 -23v-57h-526v57l145 23v544h-153v49l376 113h27z" />
    <glyph glyph-name="two.num" horiz-adv-x="675" 
d="M643 770v-186h-608v59l119 115q102 102 140 142q99 104 99 198q0 59 -38 96t-94 37t-94 -28t-83 -83l-47 31q127 240 328 240q111 1 181 -61t68 -158q0 -96 -50 -156q-50 -61 -161 -137l-159 -109h399z" />
    <glyph glyph-name="three.num" horiz-adv-x="681" 
d="M300 616q50 0 86 35t36 104t-66 125t-202 56v53q246 41 245 166q0 45 -29 75q-30 30 -87 30q-109 0 -193 -113l-45 24q94 219 328 220q104 1 170 -49q65 -50 65 -122t-56 -122q-56 -49 -138 -74v-8q113 -8 172 -58t59 -131q0 -117 -101 -189q-100 -72 -234 -73
q-134 0 -208 44t-73 108q1 39 29 65t77 25l90 -166q25 -25 75 -25z" />
    <glyph glyph-name="four.num" horiz-adv-x="741" 
d="M377 905v260l-240 -260h240zM592 905h121v-139h-121v-111l96 -20v-51h-416v51l105 18v113h-363v88l475 526l103 -16v-459z" />
    <glyph glyph-name="five.num" horiz-adv-x="669" 
d="M586 1174h-449l-4 -134q106 31 186 31q152 0 234 -60t82 -179t-108 -194t-259 -75q-102 0 -178 39t-76 105q0 39 33 63t82 23l84 -166q29 -17 79 -17t87 38t37 107t-49 111t-125 41q-76 0 -172 -28l-4 2l14 479h506v-186z" />
    <glyph glyph-name="six.num" horiz-adv-x="761" 
d="M366 1030q-55 0 -83 -33q-4 -20 -4 -63q0 -139 42 -228t97 -90q88 0 88 164q0 117 -42 184q-43 66 -98 66zM484 1114q106 0 178 -70t72 -173t-61 -177q-105 -129 -268 -129t-264 95q-100 95 -100 245q0 223 183 355t431 147l7 -45q-305 -111 -367 -309q83 61 189 61z" />
    <glyph glyph-name="seven.num" horiz-adv-x="626" 
d="M31 1153v207h610v-14q-295 -526 -375 -695l-35 -67h-157l399 569h-442z" />
    <glyph glyph-name="eight.num" horiz-adv-x="743" 
d="M258 1235q0 -84 131 -139l57 -25q48 55 48 121t-36 108q-36 41 -88 41q-52 -1 -82 -29t-30 -77zM227 788q0 -75 45 -125q46 -51 104 -51t92 31t34 82q-1 99 -142 158l-88 39q-45 -59 -45 -134zM20 768q0 127 203 176q-84 41 -124 91t-40 132t84 154q85 72 231 72
q146 -1 228 -53t82 -126q0 -127 -182 -165q106 -47 156 -99t51 -129q-1 -127 -105 -193t-246 -67t-240 53t-98 154z" />
    <glyph glyph-name="nine.num" horiz-adv-x="761" 
d="M254 1180q0 -116 43 -184t97 -68t81 26q10 55 10 103q0 131 -43 208t-98 76q-90 0 -90 -161zM280 846q-102 0 -176 73t-74 191t97 200q96 83 243 83q146 1 248 -97t103 -245q0 -227 -177 -355t-456 -143l-8 47q299 68 379 299q-77 -53 -179 -53z" />
    <glyph glyph-name="zero.den" horiz-adv-x="858" 
d="M408 752q-100 0 -101 -281q0 -162 38 -299t108 -137q98 0 98 284q0 165 -40 299t-103 134zM438 805q156 0 264 -113t109 -297q0 -184 -117 -298t-260 -113q-178 0 -282 116t-104 297q0 182 117 295t273 113z" />
    <glyph glyph-name="one.den" horiz-adv-x="579" 
d="M430 786v-706l131 -23v-57h-526v57l145 23v543h-153v51l376 112h27z" />
    <glyph glyph-name="two.den" horiz-adv-x="675" 
d="M643 186v-186h-608v59l119 113q106 106 141 143t67 91t31 110q0 55 -38 92t-94 37t-94 -28t-83 -80l-47 30q127 240 328 240q111 1 181 -61t68 -157q0 -95 -50 -157t-161 -139l-157 -107h397z" />
    <glyph glyph-name="three.den" horiz-adv-x="681" 
d="M300 33q50 0 86 34q36 33 36 103t-66 126t-202 56v54q246 41 245 165q0 45 -29 74q-30 29 -87 29q-109 0 -193 -111l-45 25q94 219 328 219q102 0 169 -50q66 -50 66 -122t-56 -121t-138 -74v-8q113 -8 172 -58t59 -130q0 -117 -101 -191t-259 -73q-109 0 -183 45
t-73 108q0 39 28 64q29 25 78 26l90 -166q25 -24 75 -24z" />
    <glyph glyph-name="four.den" horiz-adv-x="741" 
d="M377 319v263l-242 -263h242zM592 319h121v-137h-121v-110l96 -21v-51h-416v51l105 19v112h-363v88l475 527l103 -17v-461z" />
    <glyph glyph-name="five.den" horiz-adv-x="669" 
d="M586 588h-449l-4 -131q106 31 186 30q152 0 234 -60t82 -179t-108 -195t-259 -76q-102 0 -178 39t-76 107q0 39 33 63t82 23l84 -166q25 -16 78 -16q53 1 89 37t36 105t-49 111t-130 42t-167 -29l-4 4l14 479h506v-188z" />
    <glyph glyph-name="six.den" horiz-adv-x="761" 
d="M367 446q-54 0 -84 -34q-4 -20 -4 -62q0 -139 42 -228t97 -89q88 0 88 164q0 117 -42 183q-43 66 -97 66zM484 528q106 0 178 -70t72 -172q0 -103 -61 -176q-107 -131 -269 -129q-162 1 -263 96q-100 95 -100 246t93 265q175 214 521 235l7 -47q-307 -106 -367 -309
q83 61 189 61z" />
    <glyph glyph-name="seven.den" horiz-adv-x="626" 
d="M31 569v207h610v-14q-297 -533 -375 -694l-35 -68h-157l399 569h-442z" />
    <glyph glyph-name="eight.den" horiz-adv-x="743" 
d="M258 651q0 -82 131 -141l57 -25q48 51 48 121t-36 110q-36 42 -88 42t-82 -30t-30 -77zM227 202q0 -73 45 -123q46 -50 104 -50q58 -1 92 29t34 83q-1 97 -142 158l-88 39q-45 -63 -45 -136zM20 184q0 131 203 174q-164 84 -164 217q0 88 84 160q85 72 231 72t228 -51
t82 -125q0 -123 -184 -168q209 -90 209 -221q1 -131 -103 -199t-248 -68q-144 -1 -240 53q-98 54 -98 156z" />
    <glyph glyph-name="nine.den" horiz-adv-x="761" 
d="M254 596q0 -116 43 -184t97 -68t81 27q10 55 10 102q0 131 -43 208t-98 77q-90 0 -90 -162zM278 262q-100 0 -174 73t-74 191t97 200q96 83 243 83q146 0 248 -97t103 -245q0 -227 -177 -355t-456 -143l-8 47q301 68 381 299q-83 -53 -183 -53z" />
    <glyph glyph-name="zero.sub" horiz-adv-x="858" 
d="M408 649q-100 0 -101 -280q0 -162 38 -299t108 -138q98 0 98 285q0 164 -40 298t-103 134zM438 702q156 0 264 -112t109 -297q0 -184 -117 -298t-260 -114q-178 0 -282 116t-104 298q0 183 117 295t273 112z" />
    <glyph glyph-name="one.sub" horiz-adv-x="579" 
d="M430 684v-707l131 -22v-57h-526v57l145 22v543h-153v51l376 113h27z" />
    <glyph glyph-name="two.sub" horiz-adv-x="675" 
d="M643 84v-186h-608v59l119 113q106 106 141 143t66 91q32 54 32 110t-38 92q-38 37 -94 37t-94 -28t-83 -81l-47 31q127 240 328 240q111 1 181 -61t68 -158q0 -96 -50 -158t-161 -138l-157 -106h397z" />
    <glyph glyph-name="three.sub" horiz-adv-x="681" 
d="M300 -70q50 0 86 34t36 104t-66 126t-202 56v53q246 41 245 166q0 45 -29 74q-30 29 -87 28q-109 0 -193 -110l-45 24q94 219 328 220q102 -1 169 -51q66 -50 66 -122t-56 -120t-138 -74v-8q113 -8 172 -58t59 -131q0 -117 -101 -191q-100 -74 -234 -73q-134 0 -208 45
t-73 109q1 39 29 63t77 27l90 -166q25 -25 75 -25z" />
    <glyph glyph-name="four.sub" horiz-adv-x="741" 
d="M377 217v262l-242 -262h242zM592 217h121v-137h-121v-111l96 -20v-51h-416v51l105 18v113h-363v88l475 526l103 -16v-461z" />
    <glyph glyph-name="five.sub" horiz-adv-x="669" 
d="M586 485h-449l-4 -131q106 31 186 31q152 0 234 -60t82 -179t-108 -195t-259 -76q-102 0 -178 39t-76 106q0 39 33 63t82 23l84 -165q25 -17 78 -17t89 37t36 105t-49 111q-49 42 -130 42t-167 -29l-4 5l14 479h506v-189z" />
    <glyph glyph-name="six.sub" horiz-adv-x="761" 
d="M367 344q-54 0 -84 -35q-4 -20 -4 -61q0 -138 42 -228t97 -90q88 0 88 164q0 117 -42 184q-43 66 -97 66zM484 426q106 0 178 -70t72 -173t-61 -176q-105 -128 -268 -128t-264 95q-100 95 -100 246q0 150 93 264q174 212 521 237l7 -47q-307 -106 -367 -309q83 61 189 61
z" />
    <glyph glyph-name="seven.sub" horiz-adv-x="626" 
d="M31 467v207h610v-15q-297 -533 -375 -694l-35 -67h-157l399 569h-442z" />
    <glyph glyph-name="eight.sub" horiz-adv-x="743" 
d="M258 549q0 -82 131 -141l57 -25q48 51 48 121t-36 110q-36 41 -88 41q-52 1 -82 -29t-30 -77zM227 100q0 -74 45 -124q46 -50 104 -50t92 30t34 83q-1 97 -142 158l-88 39q-45 -63 -45 -136zM20 82q0 131 203 174q-164 84 -164 217q0 88 84 160q85 72 231 72
q146 1 228 -51t82 -126q0 -123 -184 -168q209 -90 209 -221q1 -131 -103 -199t-248 -67q-144 -1 -240 53q-98 54 -98 156z" />
    <glyph glyph-name="nine.sub" horiz-adv-x="761" 
d="M254 494q0 -116 43 -184t97 -68t81 26q10 55 10 103q0 131 -43 208t-98 76q-90 0 -90 -161zM278 160q-100 0 -174 72t-74 191q0 118 97 201q96 83 243 83q146 1 248 -97t103 -245q0 -227 -177 -355t-456 -143l-8 47q301 68 381 299q-83 -53 -183 -53z" />
    <glyph glyph-name="plus.sub" horiz-adv-x="673" 
d="M625 223h-248v-235h-82v235h-248v78h248v238h82v-238h248v-78z" />
    <glyph glyph-name="minus.sub" horiz-adv-x="673" 
d="M625 223h-578v78h578v-78z" />
    <glyph glyph-name="zero.sup" horiz-adv-x="858" 
d="M408 1507q-100 0 -101 -280q0 -162 38 -299t108 -137q98 0 98 284q0 164 -40 298t-103 134zM438 1561q156 0 264 -113t109 -297q0 -184 -117 -298t-260 -114q-178 0 -282 116t-104 298t117 295t273 113z" />
    <glyph glyph-name="one.sup" horiz-adv-x="579" 
d="M430 1542v-706l131 -23v-57h-526v57l145 23v544h-153v50l376 112h27z" />
    <glyph glyph-name="two.sup" horiz-adv-x="675" 
d="M643 944v-188h-608v61l119 113q102 102 140 142q99 104 99 198q0 59 -38 96t-94 37t-94 -28t-83 -83l-47 31q127 240 328 240q111 1 181 -61t68 -158q0 -96 -50 -156q-50 -61 -161 -137l-157 -107h397z" />
    <glyph glyph-name="three.sup" horiz-adv-x="681" 
d="M300 788q50 0 86 35t36 104t-66 125t-202 56v53q246 41 245 166q0 45 -29 75q-30 30 -87 30q-109 0 -193 -113l-45 24q94 219 328 220q104 1 170 -49q65 -50 65 -122t-56 -122q-56 -49 -138 -74v-8q113 -8 172 -58t59 -131q0 -115 -101 -189q-100 -74 -234 -73
q-134 0 -208 44t-73 108q1 39 29 65t77 25l90 -166q25 -25 75 -25z" />
    <glyph glyph-name="four.sup" horiz-adv-x="741" 
d="M377 1077v260l-240 -260h240zM592 1077h121v-137h-121v-113l96 -20v-51h-416v51l105 18v115h-363v86l475 526l103 -16v-459z" />
    <glyph glyph-name="five.sup" horiz-adv-x="669" 
d="M586 1346h-449l-4 -134q113 33 186 33q152 0 234 -61t82 -180t-108 -194t-259 -75q-102 0 -178 39t-76 105q0 39 33 63t82 25l84 -168q29 -17 79 -17t87 38t37 107t-49 111t-125 41q-76 0 -172 -28l-4 4l14 477h506v-186z" />
    <glyph glyph-name="six.sup" horiz-adv-x="761" 
d="M366 1202q-55 0 -83 -33q-4 -20 -4 -63q0 -139 42 -228t97 -90q88 0 88 164q0 117 -42 184q-43 66 -98 66zM484 1286q106 0 178 -70t72 -172q0 -104 -61 -178q-105 -129 -268 -129q-163 -1 -263 95t-101 245q0 223 183 355t431 147l7 -45q-305 -106 -367 -309
q83 61 189 61z" />
    <glyph glyph-name="seven.sup" horiz-adv-x="626" 
d="M31 1325v207h610v-12q-302 -543 -375 -697l-35 -67h-157l399 569h-442z" />
    <glyph glyph-name="eight.sup" horiz-adv-x="743" 
d="M258 1407q0 -84 131 -139l57 -25q48 55 48 121t-36 108t-88 42t-82 -30q-30 -28 -30 -77zM227 960q0 -75 45 -125q46 -51 104 -51t92 31t34 82q-1 99 -142 158l-88 39q-45 -59 -45 -134zM20 940q0 127 203 176q-84 41 -124 91t-40 132t84 154q85 72 231 72
q146 -1 228 -53t82 -123q0 -127 -182 -168q106 -47 156 -99t51 -129q-1 -127 -105 -193t-246 -67t-240 53t-98 154z" />
    <glyph glyph-name="nine.sup" horiz-adv-x="761" 
d="M254 1352q0 -116 43 -184t98 -68t80 28q10 55 10 101q0 131 -43 209t-98 78q-90 0 -90 -164zM278 1018q-100 0 -174 73t-74 191t97 200q96 83 243 83q146 1 248 -97t103 -245q0 -227 -177 -355t-456 -143l-8 47q301 68 381 299q-83 -53 -183 -53z" />
    <glyph glyph-name="plus.sup" horiz-adv-x="673" 
d="M625 1081h-248v-235h-82v235h-248v78h248v238h82v-238h248v-78z" />
    <glyph glyph-name="minus.sup" horiz-adv-x="673" 
d="M625 1081h-578v78h578v-78z" />
    <glyph glyph-name="bullet.alt" horiz-adv-x="813" 
d="M441 1499q52 0 88 -32t36 -64t-8 -55q-19 -56 -100 -142q-14 -14 -17 -16h-28q-10 20 -52 81q-42 62 -44 111q-1 49 36 83t89 34zM70 1163q0 57 38 91t81 34q79 0 124 -49t99 -117h28q20 18 70 68t80 57q30 6 71 6t75 -38t34 -96t-41 -99t-89 -41t-76 15t-66 47t-60 46
h-12q-37 -51 -37 -96t33 -71t141 -80q131 -63 131 -162q0 -59 -43 -100t-119 -33q-14 -61 -90 -61t-135 83q-8 10 -23 33q-59 90 -122 90q-43 0 -64 -27q-20 -28 -20 -67h-23q-29 78 9 136t108 58t112 -34q42 -35 72 -69t64 -34q55 0 55 55t-83 107t-83 146q0 52 58 135
l-11 4q-116 -58 -168 -58t-86 32q-32 32 -32 89z" />
    <glyph glyph-name="f.short" horiz-adv-x="751" 
d="M35 0v70l127 30v797h-150v72l150 49l18 88q37 190 172 312t297 122q109 0 181 -53t73 -131q0 -78 -73 -115t-150 -14l-62 239q-139 12 -131 -233l5 -221h268v-111h-266v-803l161 -28v-70h-620z" />
    <glyph glyph-name="f_f.short" horiz-adv-x="1415" 
d="M494 1071v-59h333q12 115 50 207q-47 102 -95 148t-116 46q-172 0 -172 -342zM713 0v70l112 30v801h-331v-803l116 -28v-70h-575v70l127 30v797h-150v72l152 47q57 225 228 353t353 128q141 0 263 -84q139 127 307 127q106 0 179 -53t73 -131t-73 -115t-151 -14l-61 239
q-70 6 -100 -55t-29 -178l2 -221h272v-111h-270v-803l162 -28v-70h-606z" />
    <glyph glyph-name="i.ger" horiz-adv-x="649" 
d="M333 1153q-71 0 -120 50t-49 120t49 120t119 50t121 -50t51 -120t-50 -120t-121 -50zM33 0v70l131 30v709l-127 92v37l461 104v-942l131 -30v-70h-596z" />
    <glyph glyph-name="j.ger" horiz-adv-x="641" 
d="M333 1153q-71 0 -120 49t-49 120t49 121t119 50t121 -50t51 -120t-50 -120t-121 -50zM496 164q0 -190 -23 -290t-106 -175q-138 -123 -406 -168l-12 41q119 82 166 171t49 286v780l-127 92v37l459 104v-878z" />
    <glyph glyph-name="adieresis.ger" horiz-adv-x="1081" 
d="M752 1167q-63 0 -109 45q-45 44 -45 108t45 110t109 47q64 0 109 -46q46 -45 46 -109t-46 -110t-109 -45zM324 1167q-63 0 -110 45q-46 44 -46 108t46 110t110 47q64 0 109 -46q46 -45 46 -109t-46 -110t-109 -45zM365 297q0 -68 38 -110t98 -42t109 50v313l-67 -23
q-178 -59 -178 -188zM328 -31q-119 0 -196 74q-77 75 -77 191t84 185t277 113l194 48v159q-6 91 -48 147t-104 56t-89 -20l-7 -244q-56 -25 -130 -25q-148 0 -148 119q0 96 153 183t347 87q352 0 352 -325v-527q0 -49 15 -62t61 -13h73v-52q-156 -90 -278 -90
q-176 0 -186 168h-9q-118 -172 -284 -172z" />
    <glyph glyph-name="odieresis.ger" horiz-adv-x="1234" 
d="M1178 519q0 -235 -160 -393t-410 -157q-250 0 -400 153q-150 154 -151 380q0 226 162 384q163 158 405 156q242 0 398 -144t156 -379zM653 45q172 1 172 397q-1 204 -69 366t-174 161q-135 0 -166 -231q-8 -58 -8 -122q0 -233 68 -402t177 -169zM831 1167q-63 0 -108 45
q-45 44 -45 108t45 110t108 47q63 0 109 -46q46 -45 47 -109q0 -64 -46 -110q-47 -45 -110 -45zM403 1167q-63 0 -109 45q-46 44 -46 108t46 110t109 47q63 0 109 -46q46 -45 47 -109q0 -64 -46 -110q-47 -45 -110 -45z" />
    <glyph glyph-name="udieresis.ger" horiz-adv-x="1269" 
d="M440 -31q-131 0 -215 75t-84 239v561l-125 61v45l457 80v-680q0 -190 164 -190q80 0 143 45v647l-131 59v45l463 80v-905l131 -33v-57l-434 -66l-25 166q-168 -172 -344 -172zM846 1167q-63 0 -109 45q-45 44 -45 108t45 110t109 47q64 0 109 -46q46 -45 46 -109
t-46 -110t-109 -45zM418 1167q-63 0 -110 45q-46 44 -46 108t46 110t110 47q64 0 109 -46q46 -45 46 -109t-46 -110t-109 -45z" />
    <glyph glyph-name="questiondown.uc" horiz-adv-x="880" 
d="M614 1409q70 0 121 -50t51 -120t-51 -120t-121 -50t-120 50t-50 120t50 120t120 50zM106 451q0 131 65 209t216 118l197 53l-2 136h80l61 -379l-358 -80q-98 -23 -138 -47q-39 -25 -39 -62q0 -63 106 -100t359 -53l107 -6v-330l-103 22q-231 54 -391 194t-160 325z" />
    <glyph glyph-name="exclamdown.uc" horiz-adv-x="608" 
d="M306 1409q69 0 121 -51t52 -119t-52 -119t-121 -51t-120 50t-51 120t51 120t120 50zM502 -72h-396l168 1039h60z" />
    <glyph glyph-name="hyphen.uc" horiz-adv-x="759" 
d="M119 592v186h522v-186h-522z" />
    <glyph glyph-name="endash.uc" horiz-adv-x="974" 
d="M78 643v94h819v-94h-819z" />
    <glyph glyph-name="emdash.uc" horiz-adv-x="1794" 
d="M78 643v94h1638v-94h-1638z" />
    <glyph glyph-name="guilsinglleft.uc" horiz-adv-x="626" 
d="M463 936l41 -35l-213 -336l213 -354l-41 -31l-361 355v47z" />
    <glyph glyph-name="guilsinglright.uc" horiz-adv-x="626" 
d="M164 180l-43 35l213 334l-211 356l41 31l360 -354v-45z" />
    <glyph glyph-name="guillemotleft.uc" horiz-adv-x="1005" 
d="M842 936l41 -35l-213 -336l213 -354l-41 -31l-361 355v47zM463 936l41 -35l-213 -336l213 -354l-41 -31l-361 355v47z" />
    <glyph glyph-name="guillemotright.uc" horiz-adv-x="1005" 
d="M164 180l-43 35l213 334l-211 356l41 31l360 -354v-45zM543 180l-43 35l213 334l-211 356l41 31l360 -354v-45z" />
    <glyph glyph-name="parenleft.uc" horiz-adv-x="733" 
d="M174 642q0 265 122 511t329 428h98q-172 -213 -257 -435t-85 -500t83 -500q83 -224 251 -433h-92q-209 180 -329 422t-120 507z" />
    <glyph glyph-name="parenright.uc" horiz-adv-x="733" 
d="M557 650q0 -265 -121 -511t-327 -428h-99q172 213 257 436t85 504q0 512 -334 928h93q209 -178 327 -421t119 -508z" />
    <glyph glyph-name="bracketleft.uc" horiz-adv-x="665" 
d="M643 -289h-432v1872h432v-86h-205v-1700h205v-86z" />
    <glyph glyph-name="bracketright.uc" horiz-adv-x="665" 
d="M23 1583h432v-1872h-432v86h204v1700h-204v86z" />
    <glyph glyph-name="braceleft.uc" horiz-adv-x="716" 
d="M688 -221v-68l-33 -2q-225 -8 -319 85t-78 276l31 374q8 80 -19 117t-96 39l-76 2v90l76 2q70 2 96 39t19 117l-31 375q-16 182 78 275t319 85l33 -2v-65q-115 0 -158 -50t-41 -182l5 -383q2 -133 -54 -185t-211 -67v-10q154 -13 210 -65t55 -189l-5 -379
q-2 -131 41 -180t158 -49z" />
    <glyph glyph-name="braceright.uc" horiz-adv-x="716" 
d="M27 -223q115 0 159 50t41 181l-4 383q-2 133 54 185t210 67v10q-153 13 -209 65t-55 189l4 379q2 129 -42 179t-158 51v67l34 2q431 15 398 -360l-31 -375q-8 -80 18 -117t97 -39l75 -2v-90l-75 -2q-70 -2 -97 -39t-18 -117l31 -374q16 -182 -78 -276t-320 -85l-34 2v66z
" />
    <glyph glyph-name="slash.uc" horiz-adv-x="854" 
d="M51 -358l-82 32l768 1952l84 -35z" />
    <glyph glyph-name="backslash.uc" horiz-adv-x="854" 
d="M889 -326l-80 -34l-772 1949l84 35z" />
    <glyph glyph-name="bar.uc" horiz-adv-x="464" 
d="M276 -365h-88v1950h88v-1950z" />
    <glyph glyph-name="at.uc" horiz-adv-x="1955" 
d="M823 365q51 0 143 136q91 136 142 287l47 150q-45 51 -86 51q-67 0 -135 -93t-110 -223t-42 -239q0 -69 41 -69zM1026 494q0 -2 -25 -39q-194 -287 -344 -287q-75 0 -121 54t-47 140q0 150 90 312q89 162 230 270t278 109q47 0 123 -27l27 66h213l-158 -596
q-31 -132 -8 -182t96 -50q119 0 226 135q106 135 108 389t-176 432t-453 179q-151 1 -293 -61q-305 -132 -438 -444q-70 -166 -70 -374t93 -370q94 -162 250 -241t346 -79t344 61v-41q-53 -32 -174 -64t-263 -32t-285 44q-325 99 -444 361q-67 143 -66 339t93 382
q177 357 580 517q190 76 383 76q325 1 529 -189t202 -471q0 -129 -43 -239q-76 -193 -255 -305q-180 -111 -351 -109q-127 0 -184 72q-56 73 -23 194l18 68h-8z" />
    <glyph glyph-name="Q.cap" horiz-adv-x="1634" 
d="M1176 636q0 282 -108 482t-272 199q-164 0 -248 -153q-84 -152 -85 -444t107 -482t272 -189q164 0 249 152q85 153 85 435zM828 1399q308 0 526 -193t217 -501q1 -247 -143 -429t-367 -253q248 -195 413 -270q164 -75 372 -75t382 111l31 -41q-233 -238 -631 -237
q-272 0 -479 100t-596 409q-217 68 -351 240t-134 418q0 307 226 514t534 207z" />
    <glyph glyph-name="Q.short" horiz-adv-x="1634" 
d="M1176 636q0 282 -108 482t-272 199q-164 0 -248 -153q-84 -152 -85 -444t107 -482t272 -189q164 0 249 152q85 153 85 435zM828 1399q308 0 526 -193t217 -501q0 -267 -169 -457t-419 -248q239 -160 315 -194q160 -71 306 10l24 -35q-154 -154 -368 -154q-175 0 -358 119
q-97 64 -165 118t-186 156q-217 70 -350 242t-133 416q0 307 226 514t534 207z" />
    <glyph glyph-name="space.uc" horiz-adv-x="403" 
 />
    </font>
</defs>
</svg>
