<?xml version="1.0" standalone="no"?>
<!DOCTYPE svg PUBLIC "-//W3C//DTD SVG 1.1//EN" "http://www.w3.org/Graphics/SVG/1.1/DTD/svg11.dtd" >
<svg xmlns="http://www.w3.org/2000/svg">
<metadata>
Created by FontPrep 20130207 at Sat Oct 17 13:11:35 2015
 By Callum Flack
(c)2012 Klim Type Foundry. All Rights Reserved.
</metadata>
<defs>
<font id="a5b5f595310f1955c7cc3fbd4474407c" horiz-adv-x='1024' >
  <font-face 
    font-family="CopyrightKlimTypeFoundry-NotLicensedforDesktopUse"
    font-weight="600"
    font-stretch="normal"
    units-per-em="2048"
    panose-1="2 6 7 9 3 2 6 6 2 3"
    ascent="1561"
    descent="-487"
    x-height="868"
    cap-height="1167"
    bbox="0 -627 1462 2034"
    underline-thickness="153"
    underline-position="-47"
    unicode-range="U+0020-2265"
  />
<missing-glyph 
 />
    <glyph glyph-name=".notdef" 
 />
    <glyph glyph-name=".null" horiz-adv-x="0" 
 />
    <glyph glyph-name="nonmarkingreturn" 
 />
    <glyph glyph-name="space" unicode=" " 
 />
    <glyph glyph-name="exclam" unicode="!" 
d="M629 1196q77 0 115 -53t26 -127l-94 -613h-94l-95 613q-12 74 27 127t115 53zM629 -27q-63 0 -109 46q-45 45 -45 109t45 110q44 46 108 45q64 0 109 -45t45 -110t-45 -110t-108 -45z" />
    <glyph glyph-name="quotedbl" unicode="&#x22;" 
d="M420 1284q61 0 93 -38t32 -100t-21 -151l-78 -360h-55l-76 360q-25 105 -25 159t35 92q34 38 95 38zM842 1284q62 0 93 -38q32 -38 32 -100t-21 -151l-78 -360h-55l-76 360q-25 105 -25 159t34 92t96 38z" />
    <glyph glyph-name="numbersign" unicode="#" 
d="M432 348l-90 -348h-145l90 348h-219l36 129h215l54 213h-228l35 131h228l88 346h147l-90 -346h272l90 346h146l-88 -346h219l-37 -131h-217l-53 -213h227l-35 -129h-225l-90 -348h-148l91 348h-273zM737 477l56 213h-273l-55 -213h272z" />
    <glyph glyph-name="dollar" unicode="$" 
d="M688 -299h-145v270q-199 13 -323 95t-124 210q0 68 42 114t104 46t101 -37q38 -37 38 -92q0 -84 -74 -106q53 -68 236 -84v420l-58 12q-170 39 -254 113t-84 206t110 222q110 88 286 104v248h145v-250q178 -16 293 -102t115 -203q0 -61 -39 -105t-95 -45q-56 0 -94 36
q-37 36 -37 85q0 78 68 100q-57 74 -211 86v-372l139 -33q291 -66 291 -311q0 -140 -120 -240t-310 -117v-270zM688 117l10 2q111 15 180 73q68 58 68 132t-42 106t-118 49l-98 23v-385zM543 705v339q-103 -12 -163 -59t-60 -113t48 -103q48 -36 146 -58z" />
    <glyph glyph-name="percent" unicode="%" 
d="M319 1196q113 0 192 -79t79 -191t-79 -192q-79 -79 -193 -79t-192 78t-77 192q1 115 79 193t191 78zM1085 1194l89 -74l-1002 -1140l-88 75zM319 1065q-57 0 -98 -41t-41 -98q0 -56 41 -98t98 -42t99 41q41 41 41 99t-41 98q-42 41 -99 41zM938 518q114 0 192 -78
t78 -192t-79 -192q-79 -79 -191 -79t-192 80q-79 80 -78 193q0 112 78 190t192 78zM938 109q57 0 98 41t41 99t-41 98t-98 40t-98 -40t-41 -97t41 -99t98 -42z" />
    <glyph glyph-name="ampersand" unicode="&#x26;" 
d="M403 -27q-139 -1 -239 91t-100 223t64 209q65 78 206 153q-63 63 -94 137q-32 74 -31 127q0 121 85 202t221 81t216 -81t80 -206q0 -170 -233 -293l192 -223l266 283l111 -111l-277 -286l111 -129h221v-150h-381v88l-63 74q-94 -96 -174 -142t-181 -47zM403 133
q70 0 127 35t125 104l2 4l-227 263q-111 -63 -155 -117t-44 -123q0 -70 51 -118t121 -48zM647 910q0 56 -37 96t-97 41q-60 0 -97 -38t-37 -103t74 -144l30 -37l9 4q86 47 120 86t35 95z" />
    <glyph glyph-name="quotesingle" unicode="'" 
d="M631 1284q61 0 93 -38t32 -100t-21 -151l-78 -360h-55l-76 360q-24 105 -24 159t34 92t95 38z" />
    <glyph glyph-name="parenleft" unicode="(" 
d="M502 524q0 -213 119 -396t319 -306l-88 -125q-514 311 -514 827t514 828l88 -125q-202 -123 -320 -307t-118 -396z" />
    <glyph glyph-name="parenright" unicode=")" 
d="M756 524q0 212 -119 396t-320 307l89 125q514 -312 514 -828t-514 -827l-89 125q201 123 320 306t119 396z" />
    <glyph glyph-name="asterisk" unicode="*" 
d="M567 1333h123v-315l271 153l61 -104l-270 -156l270 -155l-61 -105l-271 154v-316h-123v316l-270 -154l-59 105l270 155l-270 156l59 104l270 -153v315z" />
    <glyph glyph-name="plus" unicode="+" 
d="M705 518v-389h-150v389h-393v150h393v393h150v-393h391v-150h-391z" />
    <glyph glyph-name="comma" unicode="," 
d="M446 170q0 66 54 117t128 51q75 0 128 -54t53 -124t-53 -142l-293 -378l-92 63l188 297q-49 18 -81 60q-32 44 -32 110z" />
    <glyph glyph-name="hyphen" unicode="-" 
d="M379 463v194h500v-194h-500z" />
    <glyph glyph-name="period" unicode="." 
d="M446 156q0 76 54 129t129 53q76 0 129 -53t53 -129t-53 -129t-129 -53q-75 0 -129 52q-54 54 -54 130z" />
    <glyph glyph-name="slash" unicode="/" 
d="M119 -203l878 1526l142 -80l-879 -1528z" />
    <glyph glyph-name="zero" unicode="0" 
d="M938 585q0 193 -82 321t-227 128t-227 -128t-80 -322q0 -194 80 -321q80 -128 226 -128t228 128t82 322zM141 585q0 263 134 437q133 174 353 174t355 -175t135 -437t-135 -438t-354 -175q-219 0 -354 175q-134 176 -134 439z" />
    <glyph glyph-name="one" unicode="1" 
d="M750 1167v-954l63 -63h342v-150h-999v150h358l64 63v786l-328 -221l-90 135l372 254h218z" />
    <glyph glyph-name="two" unicode="2" 
d="M662 1196q166 0 266 -95t100 -237t-109 -250q-59 -59 -95 -88t-122 -92l-372 -284h524l68 63v149h157v-362h-938v199l445 352q35 26 72 57q36 31 83 68t70 82q31 60 31 120t-51 107t-149 47t-198 -66q-102 -66 -176 -169l-133 100q86 131 223 215t304 84z" />
    <glyph glyph-name="three" unicode="3" 
d="M195 1012v155h788v-198l-340 -260q20 10 53 10q152 0 243 -96q91 -97 91 -231t-68 -240q-124 -192 -444 -293q-139 -45 -299 -68l-33 154q303 51 490 161q186 111 186 279q0 90 -61 147q-61 58 -168 58t-225 -78l-80 109l487 391h-620z" />
    <glyph glyph-name="four" unicode="4" 
d="M1176 268h-218l-63 -63v-205h-168v205l-63 63h-558v207q148 175 300 403t231 420l174 -53q-76 -177 -187 -341q-111 -163 -223 -314t-127 -172h453v278h168v-278h281v-150z" />
    <glyph glyph-name="five" unicode="5" 
d="M870 373q0 82 -55 135t-153 53q-135 0 -213 -115h-213l30 721h729v-159h-577l-23 -406q37 49 114 82t159 33q184 -1 278 -103t94 -256t-118 -281t-291 -193q-172 -66 -387 -97l-31 156q657 106 657 430z" />
    <glyph glyph-name="six" unicode="6" 
d="M920 397q0 115 -81 194t-198 79t-198 -79t-81 -194t81 -193t198 -79q117 1 198 79t81 193zM655 825q188 0 312 -120q123 -121 123 -303t-132 -307q-132 -124 -317 -124q-117 -1 -219 51t-162 144q-76 123 -76 289q0 291 204 515t562 324l47 -151q-231 -68 -365 -169
t-208 -245q92 96 231 96z" />
    <glyph glyph-name="seven" unicode="7" 
d="M326 733h-156v434h954v-186l-606 -1196l-151 68l583 1157h-561l-63 -64v-213z" />
    <glyph glyph-name="eight" unicode="8" 
d="M629 -27q-187 -1 -315 101t-128 268q0 100 56 175t145 106v22q-70 29 -116 99t-46 169q0 161 114 261t290 100t290 -99t113 -262q0 -98 -46 -169t-116 -99v-22q88 -31 144 -106t57 -175q0 -166 -128 -268t-314 -101zM629 133q115 0 191 55q76 56 75 156q0 100 -73 154
q-74 54 -194 53q-120 0 -193 -53q-73 -54 -73 -154t76 -156t191 -55zM629 713q104 0 169 53q64 53 64 148t-64 149q-65 53 -169 53t-169 -53t-65 -149t65 -148q65 -53 169 -53z" />
    <glyph glyph-name="nine" unicode="9" 
d="M350 770q0 -114 81 -192t198 -78t197 78t81 192q0 114 -81 194q-80 78 -196 78t-198 -78t-82 -194zM614 344q-188 0 -311 121t-123 303t131 305t318 123q117 0 220 -50t163 -145q74 -125 73 -288q0 -301 -223 -560t-588 -358l-47 152q235 65 389 199t232 294
q-91 -96 -234 -96z" />
    <glyph glyph-name="colon" unicode=":" 
d="M446 700q0 76 54 129t129 53q76 0 129 -52q53 -54 53 -130t-53 -129t-129 -53q-75 0 -129 53t-54 129zM446 156q0 76 54 129t129 53q76 0 129 -53t53 -129t-53 -129t-129 -53q-75 0 -129 52q-54 54 -54 130z" />
    <glyph glyph-name="semicolon" unicode=";" 
d="M446 700q0 76 54 129t129 53q76 0 129 -52q53 -54 53 -130t-53 -129t-129 -53q-75 0 -129 53t-54 129zM446 170q0 66 54 117t128 51q75 0 128 -54t53 -124t-53 -142l-293 -378l-92 63l188 297q-49 18 -81 60q-32 44 -32 110z" />
    <glyph glyph-name="less" unicode="&#x3c;" 
d="M213 479v193l801 352v-172l-658 -279l658 -274v-174z" />
    <glyph glyph-name="equal" unicode="=" 
d="M166 670v143h926v-143h-926zM166 348v139h926v-139h-926z" />
    <glyph glyph-name="greater" unicode="&#x3e;" 
d="M1044 463l-800 -354v174l657 274l-657 279v172l800 -353v-192z" />
    <glyph glyph-name="question" unicode="?" 
d="M442 129q0 63 45 109t109 45q64 0 108 -45q46 -45 46 -110t-45 -110t-109 -45t-109 46q-45 47 -45 110zM700 385h-192v223q195 35 288 84q93 48 93 150t-78 153q-77 51 -181 51t-172 -31q-68 -32 -89 -75q90 -37 90 -111q0 -53 -40 -92t-104 -39q-63 0 -107 47t-44 117
q0 138 130 236t326 98t321 -95q124 -95 124 -247t-93 -231q-93 -78 -272 -123v-115z" />
    <glyph glyph-name="at" unicode="@" 
d="M705 684q-72 0 -117 -37t-45 -96t45 -97t117 -38q108 0 169 104v60q-59 104 -169 104zM688 285q-133 -1 -216 75t-83 191t83 189t215 75q132 0 194 -78v15q0 373 -293 372q-160 0 -244 -110t-84 -303v-303q0 -190 95 -296t258 -108q163 0 323 121l65 -129
q-69 -61 -181 -101t-218 -40q-227 0 -363 146t-137 407v303q0 262 130 409q130 148 354 148t333 -138q110 -138 109 -393v-250q0 -70 55 -69q33 0 91 51l49 -113q-89 -78 -181 -78t-153 89q-68 -82 -201 -82z" />
    <glyph glyph-name="A" unicode="A" 
d="M510 150v-150h-490v150h127l385 1017h193l385 -1017h127v-150h-502v150h117l61 51l-69 188h-445l-67 -188l61 -51h117zM791 539l-170 460l-166 -460h336z" />
    <glyph glyph-name="B" unicode="B" 
d="M1139 342q0 -342 -469 -342h-615v150h160l64 63v741l-64 64h-160v149h592q215 0 328 -82t112 -235q0 -84 -52 -149t-146 -85q98 -8 174 -92t76 -182zM641 678q276 0 277 172q0 168 -277 168h-203v-340h203zM438 535v-385h228q303 0 303 192t-303 193h-228z" />
    <glyph glyph-name="C" unicode="C" 
d="M657 1196q78 0 154 -34t117 -87l33 12v80h151v-422h-121q-39 121 -130 205t-206 84q-176 0 -269 -127t-93 -323t97 -322q97 -127 272 -127q206 0 362 184l109 -116q-197 -231 -458 -231t-412 174t-151 438t149 438q148 174 396 174z" />
    <glyph glyph-name="D" unicode="D" 
d="M532 0h-471v150h121l64 61v743l-64 64h-121v149h471q299 -1 466 -163t167 -420t-167 -421t-466 -163zM406 150h126q219 0 336 120t117 314t-117 314t-336 120h-126v-868z" />
    <glyph glyph-name="E" unicode="E" 
d="M438 150h467l64 63v211h155v-424h-1069v150h160l64 63v741l-64 64h-160v149h1061v-434h-155v221l-64 64h-459v-356h170l64 63v125h131v-512h-131v123l-64 63h-170v-374z" />
    <glyph glyph-name="F" unicode="F" 
d="M801 0h-697v150h177l63 63v741l-63 64h-177v149h1067v-434h-155v221l-64 64h-448v-356h174l63 63v109h131v-482h-131v109l-63 63h-174v-311l63 -63h234v-150z" />
    <glyph glyph-name="G" unicode="G" 
d="M625 1034q-171 0 -265 -126t-94 -322t94 -323q94 -128 265 -128q145 0 295 176v97l-46 49h-153v149h483v-149h-74l-57 -60v-397h-153v88l-29 21q-111 -137 -293 -138q-227 0 -371 176q-143 177 -143 439t146 436t388 174q78 0 151 -34t114 -87l28 12v80h152v-393h-121
q-44 116 -126 188t-191 72z" />
    <glyph glyph-name="H" unicode="H" 
d="M713 1018v149h483v-149h-98l-64 -64v-741l64 -63h98v-150h-483v150h98l63 63v322h-491v-322l63 -63h101v-150h-486v150h101l63 63v741l-63 64h-101v149h486v-149h-101l-63 -64v-270h491v270l-63 64h-98z" />
    <glyph glyph-name="I" unicode="I" 
d="M203 1018v149h852v-149h-277l-63 -64v-741l63 -63h277v-150h-852v150h276l64 63v741l-64 64h-276z" />
    <glyph glyph-name="J" unicode="J" 
d="M809 444v510l-64 64h-378v149h825v-149h-148l-63 -64v-520q0 -211 -126 -337t-314 -126t-308 120q-119 120 -118 288q0 84 52 141q52 58 125 58t118 -43t45 -101t-47 -106q-47 -47 -109 -35q41 -174 244 -174q266 -1 266 325z" />
    <glyph glyph-name="K" unicode="K" 
d="M547 150v-150h-486v150h101l63 63v741l-63 64h-101v149h486v-149h-101l-63 -64v-424l428 437l-61 51h-64v149h469v-149h-111l-331 -338l387 -530h110v-150h-499v150h98l59 51l-268 364l-217 -219v-133l63 -63h101z" />
    <glyph glyph-name="L" unicode="L" 
d="M90 1167h567v-149h-141l-63 -64v-804h467l63 63v283h156v-496h-1049v150h141l64 63v741l-64 64h-141v149z" />
    <glyph glyph-name="M" unicode="M" 
d="M328 1004v-791l63 -63h101v-150h-453v150h74l63 63v741l-63 64h-74v149h438l154 -624l157 624h433v-149h-74l-64 -64v-741l64 -63h74v-150h-453v150h98l64 63v791h-45l-166 -605h-180l-164 605h-47z" />
    <glyph glyph-name="N" unicode="N" 
d="M1034 0h-168l-487 950v-737l63 -63h99v-150h-480v150h101l63 63v741l-63 64h-101v149h385l435 -878v665l-64 64h-100v149h479v-149h-98l-64 -64v-954z" />
    <glyph glyph-name="O" unicode="O" 
d="M985 584q0 194 -93 322t-263 128t-262 -128q-93 -128 -93 -322t92 -322q92 -127 263 -127q170 0 263 127t93 322zM1165 585q0 -263 -147 -439t-389 -175q-242 0 -388 175q-147 174 -147 438t146 438t389 174q242 0 389 -174t147 -437z" />
    <glyph glyph-name="P" unicode="P" 
d="M711 508h-242v-295l63 -63h267v-150h-744v150h191l63 63v741l-63 64h-191v149h656q467 1 467 -329t-467 -330zM469 1018v-361h238q295 0 294 181q0 180 -294 180h-238z" />
    <glyph glyph-name="Q" unicode="Q" 
d="M274 584q0 -195 92 -322t263 -127q68 0 125 23l-142 192l136 99l139 -193q98 123 98 323q0 199 -93 327t-263 128q-171 0 -263 -128t-92 -322zM629 -29q-242 0 -388 175q-147 174 -147 438t146 438t389 174q242 0 389 -174t147 -454t-176 -451l139 -191l-135 -98
l-139 192q-100 -49 -225 -49z" />
    <glyph glyph-name="R" unicode="R" 
d="M580 0h-519v150h95l63 63v741l-63 64h-95v149h541q467 0 467 -329q0 -279 -338 -322l287 -360h180v-156h-389v150l-277 358h-155v-295l63 -63h140v-150zM377 1018v-361h221q295 1 295 181t-295 180h-221z" />
    <glyph glyph-name="S" unicode="S" 
d="M689 127q116 0 177 53t62 142q0 121 -164 163l-275 72q-163 43 -243 113t-80 210t106 228t280 88t298 -129l39 18v82h158v-405h-136q-53 141 -151 210q-98 68 -202 68t-164 -44t-60 -114t47 -102q47 -33 143 -57l277 -76q295 -78 295 -315q0 -162 -109 -261t-293 -100
q-98 0 -191 42t-151 106l-37 -23v-96h-157v451h135q53 -158 167 -241t229 -83z" />
    <glyph glyph-name="T" unicode="T" 
d="M106 1167h1045v-495h-156v282l-63 64h-217v-805l63 -63h236v-150h-770v150h235l64 63v805h-217l-64 -64v-282h-156v495z" />
    <glyph glyph-name="U" unicode="U" 
d="M629 -29q-180 0 -302 119t-122 297v567l-64 64h-100v149h485v-149h-100l-64 -64v-565q0 -117 79 -191t188 -73q109 0 187 74t79 190v565l-64 64h-98v149h484v-149h-99l-63 -64v-567q0 -178 -123 -297t-303 -119z" />
    <glyph glyph-name="V" unicode="V" 
d="M20 1018v149h510v-149h-118l-60 -51l285 -783l283 783l-60 51h-119v149h496v-149h-127l-385 -1018h-193l-385 1018h-127z" />
    <glyph glyph-name="W" unicode="W" 
d="M754 1018v149h487v-149h-102l-113 -1018h-281l-112 729l-111 -729h-291l-112 1018h-103v149h498v-149h-180l-41 -51l82 -817h43l104 718h223l105 -718h43l82 817l-41 51h-180z" />
    <glyph glyph-name="X" unicode="X" 
d="M1237 150v-150h-502v150h101l41 32l-252 297l-263 -297l44 -32h100v-150h-486v150h123l385 440l-360 428h-88v149h481v-149h-112l-43 -33l229 -268l235 268l-41 33h-112v149h463v-149h-90l-363 -414l387 -454h123z" />
    <glyph glyph-name="Y" unicode="Y" 
d="M1014 150v-150h-770v150h235l64 63v207l-396 598h-127v149h535v-149h-117l-61 -51l258 -418l258 418l-59 51h-119v149h522v-149h-127l-395 -598v-207l63 -63h236z" />
    <glyph glyph-name="Z" unicode="Z" 
d="M981 414h156v-414h-1014v176l792 842h-542l-64 -64v-211h-155v424h936v-196l-777 -821h605l63 63v201z" />
    <glyph glyph-name="bracketleft" unicode="[" 
d="M489 1182v-1317h447v-150h-598v1616h598v-149h-447z" />
    <glyph glyph-name="backslash" unicode="\" 
d="M1139 -203l-142 -82l-878 1528l141 80z" />
    <glyph glyph-name="bracketright" unicode="]" 
d="M768 1182h-446v149h598v-1616h-598v150h446v1317z" />
    <glyph glyph-name="asciicircum" unicode="^" 
d="M551 1196h166l354 -502h-188l-248 361l-248 -361h-190z" />
    <glyph glyph-name="underscore" unicode="_" 
d="M297 -285v166h664v-166h-664z" />
    <glyph glyph-name="grave" unicode="`" 
d="M446 1314q0 58 33 92t80 34q86 0 129 -101l121 -278l-43 -39l-240 180q-80 54 -80 112z" />
    <glyph glyph-name="a" unicode="a" 
d="M299 217q0 -49 37 -76t94 -26q174 0 375 180v151l-367 -116q-139 -33 -139 -113zM162 655q0 117 127 179t303 63q176 0 276 -86t101 -231v-359q0 -94 65 -94q37 0 117 72l80 -113q-66 -63 -116 -89t-118 -26t-123 47t-67 129q-188 -176 -399 -176q-131 -1 -208 61
t-77 166t71 163q71 58 209 94l402 112v19q0 86 -66 132q-65 46 -181 46t-206 -33q62 -25 62 -84t-35 -89t-89 -30t-91 35t-37 92z" />
    <glyph glyph-name="b" unicode="b" 
d="M377 0h-295v150h108l33 32v891l-33 33h-118v149h305v-532q49 74 135 124t197 50q190 0 316 -133t126 -329t-127 -330t-315 -134q-111 1 -197 51t-135 123v-145zM694 123q129 0 208 88t79 223t-79 223t-208 88q-198 1 -317 -208v-205q119 -209 317 -209z" />
    <glyph glyph-name="c" unicode="c" 
d="M805 580q0 66 80 96q-80 72 -218 72q-139 0 -239 -86t-100 -222t86 -224q86 -89 254 -89t342 137l92 -121q-205 -172 -434 -172t-374 132q-144 132 -144 329t151 331t353 134t321 -88t119 -213q0 -68 -44 -115t-104 -47t-101 40q-40 40 -40 106z" />
    <glyph glyph-name="d" unicode="d" 
d="M647 1255h387v-1073l33 -32h109v-150h-295v145q-47 -73 -132 -123t-198 -51q-190 0 -318 133q-127 133 -127 329t127 330t318 134q113 0 198 -51t132 -123v350l-33 33h-201v149zM563 123q199 0 318 209v205q-119 209 -318 208q-129 0 -207 -88t-78 -223t78 -223t207 -88z
" />
    <glyph glyph-name="e" unicode="e" 
d="M659 -29q-225 0 -367 132t-142 330t139 331t359 133t346 -152t126 -364h-803q17 -111 105 -185t233 -73q188 0 346 131l86 -111q-203 -172 -428 -172zM634 748q-114 0 -201 -65t-111 -175h608q-21 103 -101 171q-81 69 -195 69z" />
    <glyph glyph-name="f" unicode="f" 
d="M520 834h344v-150h-280l-64 -63v-408l64 -63h280v-150h-733v150h172l64 63v408l-64 63h-172v150h236q0 202 126 326t343 124q160 0 260 -77t100 -187q0 -70 -43 -113t-109 -43t-105 35q-40 35 -40 82t30 78t75 35q-53 66 -180 66q-128 0 -216 -86q-88 -84 -88 -240z" />
    <glyph glyph-name="g" unicode="g" 
d="M858 -8h-553q-61 -47 -61 -103q0 -75 97 -115t271 -40t279 49q104 49 104 121q0 88 -137 88zM844 154q145 0 228 -60t83 -190q-1 -129 -151 -223q-150 -95 -397 -95t-388 76t-141 213q0 113 119 191q-55 49 -56 127q0 121 129 190q-78 88 -78 211t104 213q103 90 265 90
q92 0 174 -33q109 178 285 178q94 0 158 -55t63 -129q0 -74 -37 -114t-90 -40t-87 36q-34 34 -34 86t51 75q-14 14 -43 14q-98 0 -167 -114q96 -86 96 -218q0 -131 -104 -223t-265 -92q-102 0 -192 43q-76 -43 -76 -94q0 -63 78 -63h473zM762 584q0 74 -57 121t-143 47
t-144 -47t-58 -121t58 -122t143 -48q86 0 144 48q57 48 57 122z" />
    <glyph glyph-name="h" unicode="h" 
d="M582 150v-150h-502v150h110l64 63v829l-64 64h-110v149h328v-526q49 70 132 119t183 49q145 0 239 -86t93 -242v-356l63 -63h111v-150h-502v150h111l63 63v297q0 109 -40 172t-146 63q-201 1 -307 -202v-330l63 -63h111z" />
    <glyph glyph-name="i" unicode="i" 
d="M487 1194q0 66 44 111t110 45t111 -45t45 -111t-45 -110q-44 -44 -110 -44t-111 44q-44 44 -44 110zM1104 150v-150h-903v150h334l63 63v442l-63 64h-334v149h551v-655l63 -63h289z" />
    <glyph glyph-name="j" unicode="j" 
d="M702 1194q0 66 43 111t110 45t112 -45t45 -111t-45 -110t-111 -44t-110 44t-44 110zM141 -70q0 78 48 132t117 54t110 -38q41 -39 41 -92t-36 -90t-87 -39q20 -57 80 -93t133 -34q133 0 202 85t68 246v594l-63 64h-416v149h633v-817q0 -217 -118 -337t-296 -120t-297 100
t-119 236z" />
    <glyph glyph-name="k" unicode="k" 
d="M557 150v-150h-481v150h100l64 63v829l-64 64h-115v149h332v-825l406 260l-4 29h-111v149h475v-149h-90l-375 -236l291 -333h219v-150h-428v152l-213 247l-170 -106v-80l64 -63h100z" />
    <glyph glyph-name="l" unicode="l" 
d="M1104 150v-150h-903v150h334l63 63v829l-63 64h-334v149h551v-1042l63 -63h289z" />
    <glyph glyph-name="m" unicode="m" 
d="M1212 0h-292v651q0 39 -20 66t-60 26q-80 0 -133 -143v-418l32 -32h70v-150h-250v651q0 39 -19 66t-61 26q-80 0 -135 -143v-418l33 -32h69v-150h-380v150h98l33 32v504l-33 33h-98v149h278v-123q49 152 178 152q70 0 115 -40t61 -105q23 66 73 106t126 39q76 0 123 -54
t47 -147v-514l33 -32h112v-150z" />
    <glyph glyph-name="n" unicode="n" 
d="M582 150v-150h-502v150h110l64 63v442l-64 64h-110v149h328v-139q49 70 132 119t183 49q145 0 239 -86t93 -242v-356l63 -63h111v-150h-502v150h111l63 63v297q0 109 -40 172t-146 63q-201 1 -307 -202v-330l63 -63h111z" />
    <glyph glyph-name="o" unicode="o" 
d="M940 434q0 133 -86 220t-225 87t-225 -87t-87 -220q0 -133 86 -220q85 -87 225 -87t226 87t86 220zM139 434q1 197 141 330t349 133t349 -133t140 -330t-140 -330t-349 -133t-349 133t-141 330z" />
    <glyph glyph-name="p" unicode="p" 
d="M610 -236v-149h-528v149h108l33 33v889l-33 33h-108v149h295v-145q49 74 135 124t197 50q190 0 316 -133t126 -329t-127 -330t-315 -134q-111 0 -197 50t-135 124v-348l33 -33h200zM694 123q129 0 208 88t79 223t-79 223t-208 88q-198 1 -317 -208v-205
q119 -209 317 -209z" />
    <glyph glyph-name="q" unicode="q" 
d="M106 435q0 196 126 329t317 133q111 0 197 -50t135 -124v145h295v-149h-109l-33 -33v-889l33 -33h109v-149h-529v149h201l33 33v348q-49 -73 -135 -123t-197 -51q-188 0 -316 134q-127 134 -127 330zM276 434q0 -135 79 -223t208 -88q199 0 318 209v205
q-119 209 -318 208q-129 0 -208 -88t-79 -223z" />
    <glyph glyph-name="r" unicode="r" 
d="M879 585q0 52 31 82q32 29 64 29t46 -6q-4 12 -14 23q-25 43 -111 43t-181 -74t-220 -221v-248l63 -63h344v-150h-792v150h167l64 63v442l-64 64h-167v149h385v-227q201 256 405 256q135 0 205 -73t70 -160t-44 -141t-110 -54q-65 0 -104 32q-37 32 -37 84z" />
    <glyph glyph-name="s" unicode="s" 
d="M190 650q0 108 92 178t226 69q205 0 321 -117l37 13v75h146v-307h-119q-57 86 -159 142q-102 57 -192 57q-88 0 -136 -29t-50 -76q0 -47 39 -69t123 -39l320 -68q115 -25 176 -80t61 -169t-95 -186q-95 -73 -255 -73q-233 0 -369 140l-37 -25v-86h-143v332h133
q172 -221 408 -221q86 -1 139 31t53 84q-1 52 -33 74q-32 20 -100 34l-305 61q-139 29 -210 88t-71 167z" />
    <glyph glyph-name="t" unicode="t" 
d="M90 719v149h256v316h160v-316h481v-149h-420l-63 -64v-249q0 -279 237 -279q96 0 167 44t145 134l100 -98q-75 -106 -183 -171t-229 -65q-186 1 -290 101t-105 311v272l-63 64h-193z" />
    <glyph glyph-name="u" unicode="u" 
d="M698 868h328v-655l64 -63h110v-150h-328v139q-49 -70 -130 -119t-181 -49q-147 0 -242 86q-94 86 -94 242v356l-63 64h-111v149h328v-510q0 -117 43 -176t145 -59q199 0 305 203v329l-63 64h-111v149z" />
    <glyph glyph-name="v" unicode="v" 
d="M750 719v149h444v-149h-109l-385 -719h-141l-385 719h-111v149h461v-149h-100l-41 -45l254 -496l256 496l-43 45h-100z" />
    <glyph glyph-name="w" unicode="w" 
d="M803 719v149h422v-149h-86l-144 -719h-250l-116 500l-115 -500h-250l-143 719h-88v149h430v-149h-146l-32 -35l96 -557h37l108 498h211l109 -498h39l96 557l-33 35h-145z" />
    <glyph glyph-name="x" unicode="x" 
d="M1196 150v-150h-496v150h129l27 32l-227 187l-230 -187l27 -32h129v-150h-494v150h89l376 292l-352 277h-92v149h483v-149h-112l-27 -33l203 -168l205 168l-27 33h-115v149h482v-149h-93l-350 -275l377 -294h88z" />
    <glyph glyph-name="y" unicode="y" 
d="M45 -160q0 76 48 130q47 54 113 54t105 -34q39 -35 39 -91t-39 -89t-104 -31q19 -59 93 -59t128 68q53 69 135 232l-377 699h-108v149h461v-149h-101l-43 -45l256 -494l254 494l-41 45h-100v149h444v-149h-110l-402 -750q-92 -174 -153 -252q-62 -79 -114 -105t-118 -26
q-115 0 -191 70t-75 184z" />
    <glyph glyph-name="z" unicode="z" 
d="M952 383h150v-383h-948v164l712 563h-473l-63 -63v-168h-150v372h891v-163l-717 -564h535l63 64v178z" />
    <glyph glyph-name="braceleft" unicode="{" 
d="M174 438v160h123q90 0 135 29t45 102q0 19 -35 149t-34 183q0 123 87 200t230 77t248 -56l-35 -147q-88 51 -197 51q-168 0 -168 -139q0 -45 35 -166t35 -152q0 -82 -54 -137t-122 -74q68 -18 122 -74t54 -137q0 -29 -35 -151t-35 -175q0 -55 42 -93t136 -38t187 52
l35 -146q-99 -57 -245 -57t-233 78t-87 200q0 53 34 183t35 147q0 74 -45 103t-135 28h-123z" />
    <glyph glyph-name="bar" unicode="|" 
d="M715 1325v-1614h-170v1614h170z" />
    <glyph glyph-name="braceright" unicode="}" 
d="M1083 438h-122q-90 0 -136 -28q-45 -29 -45 -103q0 -16 35 -146t35 -184q0 -123 -87 -201t-233 -77q-146 0 -245 57l34 146q93 -52 187 -52t136 38t42 92t-35 177q-35 122 -35 150q0 82 54 137t123 74q-68 18 -122 74t-55 137q0 31 35 152t35 166q0 139 -168 139
q-109 0 -197 -51l-34 147q104 55 247 55t231 -76q87 -77 87 -200q0 -53 -35 -183t-35 -149q0 -75 45 -103t136 -28h122v-160z" />
    <glyph glyph-name="asciitilde" unicode="~" 
d="M891 711h151q0 -137 -64 -218t-155 -81t-201 74t-152 73q-42 0 -73 -38t-30 -101h-152q0 137 65 218t169 81q73 0 185 -74t154 -74q42 1 72 39q31 38 31 101z" />
    <glyph glyph-name="uni00A0" unicode="&#xa0;" 
 />
    <glyph glyph-name="exclamdown" unicode="&#xa1;" 
d="M628 -231q-76 0 -114 53q-39 53 -27 127l95 612h94l94 -612q12 -74 -27 -127t-115 -53zM629 991q63 0 108 -45t45 -109q0 -63 -45 -109t-108 -46t-109 45q-45 45 -45 109t45 109q46 46 109 46z" />
    <glyph glyph-name="cent" unicode="&#xa2;" 
d="M328 438q0 -106 56 -187t165 -110v588q-96 -31 -159 -108q-62 -77 -62 -183zM694 -293h-145v275q-180 34 -290 158q-109 124 -109 292t112 293q113 125 287 160v301h145v-289q178 -8 289 -100t111 -213q0 -62 -42 -106t-98 -44t-95 39q-38 39 -38 90q0 76 76 101
q-61 74 -203 84v-619q152 8 316 135l92 -121q-190 -160 -408 -172v-264z" />
    <glyph glyph-name="sterling" unicode="&#xa3;" 
d="M1198 250q0 -146 -77 -232t-191 -86q-82 0 -190 54t-206 106q-98 53 -158 53t-96 -39t-36 -106h-158q0 121 55 202t144 105v191h-154v147h154v53q0 210 123 354t346 144q164 0 261 -97t97 -222q0 -70 -42 -115t-107 -45t-106 36q-40 36 -40 84t30 81t75 36
q-51 86 -164 86q-145 0 -223 -90t-78 -252v-53h313v-147h-313v-201q65 -19 223 -107t223 -88t102 40q36 40 35 108h158z" />
    <glyph glyph-name="yen" unicode="&#xa5;" 
d="M1014 150v-150h-770v150h243l64 63v125h-406v121h379l-84 125h-295v121h213l-211 313h-127v149h535v-149h-133l-60 -51l273 -418l274 418l-61 51h-133v149h522v-149h-127l-211 -313h215v-121h-297l-84 -125h381v-121h-407v-125l63 -63h244z" />
    <glyph glyph-name="brokenbar" unicode="&#xa6;" 
d="M715 1325v-741h-170v741h170zM545 399h170v-688h-170v688z" />
    <glyph glyph-name="section" unicode="&#xa7;" 
d="M983 -119q-1 -125 -105 -208t-286 -83t-294 100t-112 238q0 62 38 106t94 44t94 -36t39 -85q0 -78 -70 -100q63 -119 229 -119q94 0 153 44q58 44 58 104t-28 100q-29 39 -93 80l-315 202q-115 74 -174 150t-59 178q0 135 127 248q-4 37 -5 61q0 125 104 208t288 83
q182 0 294 -100t111 -238q0 -61 -38 -105t-94 -44q-56 -1 -94 35t-38 85q0 76 72 101q-68 119 -232 119q-94 0 -151 -44q-58 -43 -58 -105t29 -100t90 -79l315 -203q115 -74 175 -148q59 -75 59 -159q0 -161 -127 -268q4 -37 4 -62zM954 182q0 94 -123 174l-327 215
q-119 84 -162 136q-39 -57 -39 -103q0 -94 123 -174l328 -213l10 -8q104 -68 151 -127q39 53 39 100z" />
    <glyph glyph-name="dieresis" unicode="&#xa8;" 
d="M410 1051q-63 0 -108 43q-44 43 -44 104q0 62 44 106t108 44t107 -44q44 -44 44 -106t-44 -104q-44 -43 -107 -43zM850 1049q-63 0 -108 44q-44 44 -44 105q0 60 44 104t108 44t107 -43q44 -43 44 -105t-44 -105q-44 -44 -107 -44z" />
    <glyph glyph-name="copyright" unicode="&#xa9;" 
d="M629 1061q-197 0 -339 -141t-143 -337t143 -337q144 -142 340 -142t338 142t142 337q0 196 -142 337t-339 141zM55 582q0 236 168 402t406 167q237 0 405 -167q168 -166 168 -402t-168 -403t-406 -167t-405 167q-168 167 -168 403zM633 258q-147 0 -232 91
q-84 91 -84 229t84 230q84 91 224 91q92 0 147 -59l19 6v39h90v-230h-78q-23 57 -70 99t-123 41t-124 -61t-48 -154t50 -156t148 -63q98 0 183 92l74 -72q-113 -123 -260 -123z" />
    <glyph glyph-name="ordfeminine" unicode="&#xaa;" 
d="M440 163q0 77 56 132t133 55q78 0 133 -55t55 -133t-55 -133t-132 -55q-78 0 -134 56t-56 133zM391 795q0 -59 78 -60q119 0 266 121v94l-274 -92q-70 -18 -70 -63zM270 1102q0 84 96 132t223 48q128 0 204 -63t75 -162v-254q0 -51 39 -51q20 0 82 47l62 -90
q-92 -84 -174 -84q-51 0 -92 31q-40 32 -48 87q-152 -119 -286 -118q-96 0 -151 43q-54 43 -54 116q0 72 44 106t136 62l309 90v19q0 51 -48 82t-130 31t-143 -19q43 -19 43 -61t-26 -64q-25 -22 -65 -20q-40 0 -68 26t-28 66z" />
    <glyph glyph-name="guillemotleft" unicode="&#xab;" 
d="M590 184l-125 -104l-301 375l301 374l125 -102l-225 -272zM1044 184l-122 -104l-301 375l301 374l122 -102l-223 -272z" />
    <glyph glyph-name="registered" unicode="&#xae;" 
d="M610 266h-266v86h49l33 35v381l-33 35h-49v84h289q248 0 248 -176q0 -147 -174 -172l153 -185h68v-88h-195v86l-143 183h-66v-148l35 -35h51v-86zM524 797v-172h107q143 0 143 86t-143 86h-107zM629 1061q-197 0 -339 -141t-143 -337t143 -337q144 -142 340 -142t338 142
t142 337q0 196 -142 337t-339 141zM55 582q0 236 168 402t406 167q237 0 405 -167q168 -166 168 -402t-168 -403t-406 -167t-405 167q-168 167 -168 403z" />
    <glyph glyph-name="macron" unicode="&#xaf;" 
d="M313 1217h633v-150h-633v150z" />
    <glyph glyph-name="degree" unicode="&#xb0;" 
d="M801 970q0 73 -50 124t-122 51t-122 -51t-50 -124t50 -125t122 -52t122 52t50 125zM942 969q0 -131 -91 -223t-222 -93q-131 0 -222 92q-91 91 -91 223t90 224q92 92 223 92t222 -92t91 -223z" />
    <glyph glyph-name="plusminus" unicode="&#xb1;" 
d="M176 84v147h907v-147h-907zM702 653v-311h-147v311h-379v148h379v311h147v-311h381v-148h-381z" />
    <glyph glyph-name="twosuperior" unicode="&#xb2;" 
d="M670 1276q116 0 185 -67t69 -165t-79 -172q-51 -47 -151 -118l-243 -176h325l53 51v82h129v-254h-659v164l297 227q10 8 51 37t57 45q15 16 27 28q13 12 25 36t12 58t-28 62t-88 27q-60 0 -130 -44t-121 -116l-110 84q63 91 163 151t216 60z" />
    <glyph glyph-name="threesuperior" unicode="&#xb3;" 
d="M344 1128v127h545v-163l-219 -148h30q98 0 160 -62t64 -157q0 -168 -164 -273t-400 -139l-24 127q200 33 324 107t124 178q0 57 -38 91t-104 34t-153 -57l-63 86l328 249h-410z" />
    <glyph glyph-name="acute" unicode="&#xb4;" 
d="M811 1315q0 -57 -80 -113l-239 -180l-43 39l120 278q43 100 129 101q47 0 80 -34t33 -91z" />
    <glyph glyph-name="paragraph" unicode="&#xb6;" 
d="M764 51v402q-313 0 -461 154q-80 83 -80 203t81 203q152 156 462 154h364v-149h-149l-63 -64v-913q0 -211 -113 -329t-289 -118t-288 100t-111 236q0 80 47 133t116 53q70 0 110 -38q40 -39 40 -92t-35 -90t-86 -39q17 -57 71 -93t126 -34q258 -1 258 321z" />
    <glyph glyph-name="periodcentered" unicode="&#xb7;" 
d="M446 573q0 76 54 129q54 54 129 54q76 0 129 -54t53 -129q0 -76 -53 -129t-129 -53q-75 0 -129 53t-54 129z" />
    <glyph glyph-name="cedilla" unicode="&#xb8;" 
d="M778 -286q0 -93 -72 -145t-168 -52q-97 0 -176 40q-78 40 -114 124l106 73q50 -123 172 -123t121 86q0 43 -39 67t-116 13l-86 66l65 145h115l-43 -102q109 0 172 -50t63 -142z" />
    <glyph glyph-name="onesuperior" unicode="&#xb9;" 
d="M707 1255v-626l49 -51h225v-121h-700v121h235l49 51v487l-211 -141l-73 110l251 170h175z" />
    <glyph glyph-name="ordmasculine" unicode="&#xba;" 
d="M276 956q0 140 102 234t251 94q150 0 252 -94t102 -234t-102 -234q-102 -95 -252 -95q-149 0 -251 95t-102 234zM440 163q0 77 56 132t133 55q78 0 133 -55t55 -133t-55 -133t-132 -55q-78 0 -134 56t-56 133zM422 954q0 -88 56 -143t150 -55t152 55t58 143t-58 144
t-151 57q-92 0 -150 -56q-57 -57 -57 -145z" />
    <glyph glyph-name="guillemotright" unicode="&#xbb;" 
d="M668 184l225 271l-225 272l125 102l301 -374l-301 -375zM213 184l223 271l-223 272l123 102l301 -374l-301 -375z" />
    <glyph glyph-name="onequarter" unicode="&#xbc;" 
d="M403 1276v-485h181v-101h-484v101h189v370l-150 -100l-59 92l180 123h143zM543 438l39 -39l-367 -432l-113 115zM709 524l-39 39l368 432l113 -114zM1225 -80h-127v-125h-113v125h-301v148q150 143 256 385l119 -37q-78 -182 -266 -396h192v132h113v-132h127v-100z" />
    <glyph glyph-name="onehalf" unicode="&#xbd;" 
d="M709 524l-39 39l368 432l113 -114zM543 438l39 -39l-367 -432l-113 115zM1159 225q0 -111 -172 -217l-172 -112h375v-101h-498v131l213 154q51 37 72 52q19 15 37 41q18 25 18 51t-18 43t-51 18q-101 0 -191 -117l-84 70q121 158 277 157q96 0 145 -48t49 -122zM403 1276
v-485h181v-101h-484v101h189v370l-150 -100l-59 92l180 123h143z" />
    <glyph glyph-name="threequarters" unicode="&#xbe;" 
d="M1225 -80h-127v-125h-113v125h-301v148q150 143 256 385l119 -37q-78 -182 -266 -396h192v132h113v-132h127v-100zM709 524l-39 39l368 432l113 -114zM543 438l39 -39l-367 -432l-113 115zM119 1149v104h401v-135l-127 -106q68 -6 110 -49t42 -111q0 -123 -119 -195
t-293 -94l-22 103q322 57 321 186q0 38 -26 60t-72 22q-45 0 -109 -43l-51 70l236 188h-291z" />
    <glyph glyph-name="questiondown" unicode="&#xbf;" 
d="M815 834q0 -62 -45 -108t-108 -46t-109 45q-45 45 -45 110t45 109t109 45q64 0 108 -46q45 -46 45 -109zM557 578h193v-224q-195 -35 -288 -84t-93 -150t77 -153q78 -51 182 -51t172 32q69 32 89 75q-90 37 -90 110q0 53 40 92q39 39 103 39t108 -47t44 -117
q0 -137 -130 -235t-327 -98t-321 95q-124 96 -124 248t94 230q93 78 271 123v115z" />
    <glyph glyph-name="Agrave" unicode="&#xc0;" 
d="M477 1710q86 0 129 -100l121 -279l-43 -37l-240 179q-80 57 -80 114t32 90t81 33zM510 150v-150h-490v150h127l385 1017h193l385 -1017h127v-150h-502v150h117l61 51l-69 188h-445l-67 -188l61 -51h117zM791 539l-170 460l-166 -460h336z" />
    <glyph glyph-name="Aacute" unicode="&#xc1;" 
d="M782 1710q49 0 81 -33t32 -90t-80 -114l-240 -179l-43 37l121 279q43 100 129 100zM510 150v-150h-490v150h127l385 1017h193l385 -1017h127v-150h-502v150h117l61 51l-69 188h-445l-67 -188l61 -51h117zM791 539l-170 460l-166 -460h336z" />
    <glyph glyph-name="Acircumflex" unicode="&#xc2;" 
d="M629 1686q57 0 112 -74l207 -277l-57 -47l-262 193l-262 -193l-58 47l207 277q56 74 113 74zM510 150v-150h-490v150h127l385 1017h193l385 -1017h127v-150h-502v150h117l61 51l-69 188h-445l-67 -188l61 -51h117zM791 539l-170 460l-166 -460h336z" />
    <glyph glyph-name="Atilde" unicode="&#xc3;" 
d="M874 1579h148q0 -131 -64 -208t-151 -77q-88 0 -184 71q-95 71 -137 71t-72 -37t-31 -99h-145q0 129 62 206t165 77q72 0 168 -71q96 -70 138 -70t73 38q30 38 30 99zM510 150v-150h-490v150h127l385 1017h193l385 -1017h127v-150h-502v150h117l61 51l-69 188h-445
l-67 -188l61 -51h117zM791 539l-170 460l-166 -460h336z" />
    <glyph glyph-name="Adieresis" unicode="&#xc4;" 
d="M410 1311q-63 0 -108 44q-44 44 -44 104q0 61 44 105t108 44t107 -44q44 -44 44 -104t-44 -105q-44 -44 -107 -44zM850 1311q-63 0 -108 44q-44 44 -44 104q0 61 44 105t108 44t107 -44q44 -44 44 -104t-44 -105q-44 -44 -107 -44zM510 150v-150h-490v150h127l385 1017
h193l385 -1017h127v-150h-502v150h117l61 51l-69 188h-445l-67 -188l61 -51h117zM791 539l-170 460l-166 -460h336z" />
    <glyph glyph-name="Aring" unicode="&#xc5;" 
d="M868 1511q0 -100 -68 -169q-68 -68 -170 -68q-101 0 -170 68t-69 169q0 100 69 169t169 69q99 0 169 -69t70 -169zM743 1510q0 52 -31 84q-32 32 -83 32t-83 -32t-32 -83t32 -84t83 -33t83 32q31 32 31 84zM510 150v-150h-490v150h127l385 1017h193l385 -1017h127v-150
h-502v150h117l61 51l-69 188h-445l-67 -188l61 -51h117zM791 539l-170 460l-166 -460h336z" />
    <glyph glyph-name="AE" unicode="&#xc6;" 
d="M354 150v-150h-334v160l379 807l-53 51h-98v149h971v-434h-156v221l-64 64h-221v-356h230v-138h-230v-374h230l63 63v211h156v-424h-744v150h74l64 63v176h-338l-88 -188l61 -51h98zM621 539v479h-43l-226 -479h269z" />
    <glyph glyph-name="Ccedilla" unicode="&#xc7;" 
d="M644 -483q-97 0 -175 40t-115 124l107 73q51 -123 172 -123t121 86q0 43 -39 67t-117 13l-86 66l53 117q-207 34 -329 202t-123 417q0 249 148 423t396 174q78 0 154 -34t117 -87l33 12v80h151v-422h-121q-39 121 -130 205t-206 84q-176 0 -269 -127t-93 -323t97 -322
q97 -127 272 -127q207 0 362 184l109 -116q-190 -225 -457 -232l-27 -65q109 0 172 -49t63 -143t-71 -145q-72 -52 -169 -52z" />
    <glyph glyph-name="Egrave" unicode="&#xc8;" 
d="M438 150h467l64 63v211h155v-424h-1069v150h160l64 63v741l-64 64h-160v149h1061v-434h-155v221l-64 64h-459v-356h170l64 63v125h131v-512h-131v123l-64 63h-170v-374zM373 1587q0 57 31 90q32 33 81 33q86 0 129 -100l121 -279l-43 -37l-239 179q-80 57 -80 114z" />
    <glyph glyph-name="Eacute" unicode="&#xc9;" 
d="M438 150h467l64 63v211h155v-424h-1069v150h160l64 63v741l-64 64h-160v149h1061v-434h-155v221l-64 64h-459v-356h170l64 63v125h131v-512h-131v123l-64 63h-170v-374zM784 1710q49 0 81 -33t32 -90t-80 -114l-239 -179l-43 37l120 279q43 100 129 100z" />
    <glyph glyph-name="Ecircumflex" unicode="&#xca;" 
d="M637 1686q57 0 113 -74l206 -277l-57 -47l-262 193l-262 -193l-58 47l207 277q56 74 113 74zM438 150h467l64 63v211h155v-424h-1069v150h160l64 63v741l-64 64h-160v149h1061v-434h-155v221l-64 64h-459v-356h170l64 63v125h131v-512h-131v123l-64 63h-170v-374z" />
    <glyph glyph-name="Edieresis" unicode="&#xcb;" 
d="M438 150h467l64 63v211h155v-424h-1069v150h160l64 63v741l-64 64h-160v149h1061v-434h-155v221l-64 64h-459v-356h170l64 63v125h131v-512h-131v123l-64 63h-170v-374zM418 1311q-63 0 -108 44q-44 44 -44 104q0 61 44 105t108 44t107 -44q44 -44 44 -104t-44 -105
q-44 -44 -107 -44zM858 1311q-63 0 -107 44t-44 104q0 61 44 105t107 44q64 0 108 -44t44 -104t-44 -105q-44 -44 -108 -44z" />
    <glyph glyph-name="Igrave" unicode="&#xcc;" 
d="M362 1587q0 57 32 90t81 33q86 0 129 -100l121 -279l-43 -37l-240 179q-80 57 -80 114zM203 1018v149h852v-149h-277l-63 -64v-741l63 -63h277v-150h-852v150h276l64 63v741l-64 64h-276z" />
    <glyph glyph-name="Iacute" unicode="&#xcd;" 
d="M780 1710q49 0 81 -33t32 -90t-80 -114l-240 -179l-43 37l121 279q43 100 129 100zM203 1018v149h852v-149h-277l-63 -64v-741l63 -63h277v-150h-852v150h276l64 63v741l-64 64h-276z" />
    <glyph glyph-name="Icircumflex" unicode="&#xce;" 
d="M627 1686q57 0 112 -74l207 -277l-57 -47l-262 193l-262 -193l-58 47l207 277q56 74 113 74zM203 1018v149h852v-149h-277l-63 -64v-741l63 -63h277v-150h-852v150h276l64 63v741l-64 64h-276z" />
    <glyph glyph-name="Idieresis" unicode="&#xcf;" 
d="M408 1311q-63 0 -108 44q-44 44 -44 104q0 61 44 105t108 44t107 -44q44 -44 44 -104t-44 -105q-44 -44 -107 -44zM848 1311q-63 0 -108 44q-44 44 -44 104q0 61 44 105t108 44t107 -44q44 -44 44 -104t-44 -105q-44 -44 -107 -44zM203 1018v149h852v-149h-277l-63 -64
v-741l63 -63h277v-150h-852v150h276l64 63v741l-64 64h-276z" />
    <glyph glyph-name="Eth" unicode="&#xd0;" 
d="M406 150h126q219 0 336 120t117 314t-117 314t-336 120h-126v-326h266v-149h-266v-393zM532 0h-471v150h121l64 61v332h-193v149h193v262l-64 64h-121v149h471q299 -1 466 -163t167 -420t-167 -421t-466 -163z" />
    <glyph glyph-name="Ntilde" unicode="&#xd1;" 
d="M1034 0h-168l-487 950v-737l63 -63h99v-150h-480v150h101l63 63v741l-63 64h-101v149h385l435 -878v665l-64 64h-100v149h479v-149h-98l-64 -64v-954zM874 1579h148q0 -131 -64 -208t-151 -77q-88 0 -184 71q-95 71 -137 71t-72 -37t-31 -99h-145q0 129 62 206t165 77
q72 0 168 -71q96 -70 138 -70t73 38q30 38 30 99z" />
    <glyph glyph-name="Ograve" unicode="&#xd2;" 
d="M985 584q0 194 -93 322t-263 128t-262 -128q-93 -128 -93 -322t92 -322q92 -127 263 -127q170 0 263 127t93 322zM1165 585q0 -263 -147 -439t-389 -175q-242 0 -388 175q-147 174 -147 438t146 438t389 174q242 0 389 -174t147 -437zM477 1710q86 0 129 -100l121 -279
l-43 -37l-240 179q-80 57 -80 114t32 90t81 33z" />
    <glyph glyph-name="Oacute" unicode="&#xd3;" 
d="M985 584q0 194 -93 322t-263 128t-262 -128q-93 -128 -93 -322t92 -322q92 -127 263 -127q170 0 263 127t93 322zM1165 585q0 -263 -147 -439t-389 -175q-242 0 -388 175q-147 174 -147 438t146 438t389 174q242 0 389 -174t147 -437zM782 1710q49 0 81 -33t32 -90
t-80 -114l-240 -179l-43 37l121 279q43 100 129 100z" />
    <glyph glyph-name="Ocircumflex" unicode="&#xd4;" 
d="M629 1686q57 0 112 -74l207 -277l-57 -47l-262 193l-262 -193l-58 47l207 277q56 74 113 74zM985 584q0 194 -93 322t-263 128t-262 -128q-93 -128 -93 -322t92 -322q92 -127 263 -127q170 0 263 127t93 322zM1165 585q0 -263 -147 -439t-389 -175q-242 0 -388 175
q-147 174 -147 438t146 438t389 174q242 0 389 -174t147 -437z" />
    <glyph glyph-name="Otilde" unicode="&#xd5;" 
d="M985 584q0 194 -93 322t-263 128t-262 -128q-93 -128 -93 -322t92 -322q92 -127 263 -127q170 0 263 127t93 322zM1165 585q0 -263 -147 -439t-389 -175q-242 0 -388 175q-147 174 -147 438t146 438t389 174q242 0 389 -174t147 -437zM874 1579h148q0 -131 -64 -208
t-151 -77q-88 0 -184 71q-95 71 -137 71t-72 -37t-31 -99h-145q0 129 62 206t165 77q72 0 168 -71q96 -70 138 -70t73 38q30 38 30 99z" />
    <glyph glyph-name="Odieresis" unicode="&#xd6;" 
d="M985 584q0 194 -93 322t-263 128t-262 -128q-93 -128 -93 -322t92 -322q92 -127 263 -127q170 0 263 127t93 322zM1165 585q0 -263 -147 -439t-389 -175q-242 0 -388 175q-147 174 -147 438t146 438t389 174q242 0 389 -174t147 -437zM410 1311q-63 0 -108 44
q-44 44 -44 104q0 61 44 105t108 44t107 -44q44 -44 44 -104t-44 -105q-44 -44 -107 -44zM850 1311q-63 0 -108 44q-44 44 -44 104q0 61 44 105t108 44t107 -44q44 -44 44 -104t-44 -105q-44 -44 -107 -44z" />
    <glyph glyph-name="multiply" unicode="&#xd7;" 
d="M530 575l-319 318l104 104l314 -319l315 319l103 -104l-320 -318l320 -315l-103 -104l-315 319l-314 -319l-104 104z" />
    <glyph glyph-name="Oslash" unicode="&#xd8;" 
d="M1165 581q0 -259 -147 -435t-389 -175q-158 0 -285 82l-127 -178l-115 82l138 193q-146 168 -146 433t146 439t389 174q164 0 295 -88l118 166l115 -82l-129 -182q137 -170 137 -429zM629 135q170 0 263 127q93 126 93 306t-63 294l-480 -672q78 -55 187 -55zM629 1034
q-170 0 -262 -128q-93 -128 -93 -312t70 -299l483 676q-81 63 -198 63z" />
    <glyph glyph-name="Ugrave" unicode="&#xd9;" 
d="M629 -29q-180 0 -302 119t-122 297v567l-64 64h-100v149h485v-149h-100l-64 -64v-565q0 -117 79 -191t188 -73q109 0 187 74t79 190v565l-64 64h-98v149h484v-149h-99l-63 -64v-567q0 -178 -123 -297t-303 -119zM477 1710q86 0 129 -100l121 -279l-43 -37l-240 179
q-80 57 -80 114t32 90t81 33z" />
    <glyph glyph-name="Uacute" unicode="&#xda;" 
d="M629 -29q-180 0 -302 119t-122 297v567l-64 64h-100v149h485v-149h-100l-64 -64v-565q0 -117 79 -191t188 -73q109 0 187 74t79 190v565l-64 64h-98v149h484v-149h-99l-63 -64v-567q0 -178 -123 -297t-303 -119zM782 1710q49 0 81 -33t32 -90t-80 -114l-240 -179l-43 37
l121 279q43 100 129 100z" />
    <glyph glyph-name="Ucircumflex" unicode="&#xdb;" 
d="M629 1686q57 0 112 -74l207 -277l-57 -47l-262 193l-262 -193l-58 47l207 277q56 74 113 74zM629 -29q-180 0 -302 119t-122 297v567l-64 64h-100v149h485v-149h-100l-64 -64v-565q0 -117 79 -191t188 -73q109 0 187 74t79 190v565l-64 64h-98v149h484v-149h-99l-63 -64
v-567q0 -178 -123 -297t-303 -119z" />
    <glyph glyph-name="Udieresis" unicode="&#xdc;" 
d="M629 -29q-180 0 -302 119t-122 297v567l-64 64h-100v149h485v-149h-100l-64 -64v-565q0 -117 79 -191t188 -73q109 0 187 74t79 190v565l-64 64h-98v149h484v-149h-99l-63 -64v-567q0 -178 -123 -297t-303 -119zM410 1311q-63 0 -108 44q-44 44 -44 104q0 61 44 105
t108 44t107 -44q44 -44 44 -104t-44 -105q-44 -44 -107 -44zM850 1311q-63 0 -108 44q-44 44 -44 104q0 61 44 105t108 44t107 -44q44 -44 44 -104t-44 -105q-44 -44 -107 -44z" />
    <glyph glyph-name="Yacute" unicode="&#xdd;" 
d="M782 1710q49 0 81 -33t32 -90t-80 -114l-240 -179l-43 37l121 279q43 100 129 100zM1014 150v-150h-770v150h235l64 63v207l-396 598h-127v149h535v-149h-117l-61 -51l258 -418l258 418l-59 51h-119v149h522v-149h-127l-395 -598v-207l63 -63h236z" />
    <glyph glyph-name="Thorn" unicode="&#xde;" 
d="M467 893h242q469 0 469 -300t-469 -300h-240v-111l33 -32h297v-150h-744v150h191l63 63v741l-63 64h-191v149h670v-149h-225l-33 -33v-92zM469 743v-301h236q157 0 227 34t69 118q0 84 -70 117q-71 33 -226 32h-236z" />
    <glyph glyph-name="germandbls" unicode="&#xdf;" 
d="M642 1286q171 0 267 -81t97 -212q0 -91 -45 -157t-117 -84q152 -25 247 -129q95 -103 95 -269t-106 -274t-254 -109q-150 0 -232 78t-82 193q0 78 44 126t102 48t93 -31t35 -76t-26 -73t-56 -29q-32 0 -45 6q2 -47 42 -78t102 -31q102 0 165 69q62 69 62 185
q0 156 -112 229q-113 73 -300 72v148q223 0 224 178q0 70 -50 114t-135 44q-121 0 -197 -94t-75 -244v-805h-322v150h121l47 49v436l-47 49h-121v150h168q10 200 125 326t286 126z" />
    <glyph glyph-name="agrave" unicode="&#xe0;" 
d="M346 1314q0 58 33 92t80 34q86 0 129 -101l121 -278l-43 -39l-240 180q-80 54 -80 112zM299 217q0 -49 37 -76t94 -26q174 0 375 180v151l-367 -116q-139 -33 -139 -113zM162 655q0 117 127 179t303 63q176 0 276 -86t101 -231v-359q0 -94 65 -94q37 0 117 72l80 -113
q-66 -63 -116 -89t-118 -26t-123 47t-67 129q-188 -176 -399 -176q-131 -1 -208 61t-77 166t71 163q71 58 209 94l402 112v19q0 86 -66 132q-65 46 -181 46t-206 -33q62 -25 62 -84t-35 -89t-89 -30t-91 35t-37 92z" />
    <glyph glyph-name="aacute" unicode="&#xe1;" 
d="M838 1315q0 -57 -80 -113l-240 -180l-43 39l121 278q43 100 129 101q47 0 80 -34t33 -91zM299 217q0 -49 37 -76t94 -26q174 0 375 180v151l-367 -116q-139 -33 -139 -113zM162 655q0 117 127 179t303 63q176 0 276 -86t101 -231v-359q0 -94 65 -94q37 0 117 72l80 -113
q-66 -63 -116 -89t-118 -26t-123 47t-67 129q-188 -176 -399 -176q-131 -1 -208 61t-77 166t71 163q71 58 209 94l402 112v19q0 86 -66 132q-65 46 -181 46t-206 -33q62 -25 62 -84t-35 -89t-89 -30t-91 35t-37 92z" />
    <glyph glyph-name="acircumflex" unicode="&#xe2;" 
d="M588 1417q57 0 112 -74l207 -276l-57 -47l-262 192l-262 -192l-58 47l207 276q56 74 113 74zM299 217q0 -49 37 -76t94 -26q174 0 375 180v151l-367 -116q-139 -33 -139 -113zM162 655q0 117 127 179t303 63q176 0 276 -86t101 -231v-359q0 -94 65 -94q37 0 117 72
l80 -113q-66 -63 -116 -89t-118 -26t-123 47t-67 129q-188 -176 -399 -176q-131 -1 -208 61t-77 166t71 163q71 58 209 94l402 112v19q0 86 -66 132q-65 46 -181 46t-206 -33q62 -25 62 -84t-35 -89t-89 -30t-91 35t-37 92z" />
    <glyph glyph-name="atilde" unicode="&#xe3;" 
d="M836 1313h147q0 -131 -63 -208q-64 -77 -152 -77t-184 71t-137 71t-72 -38q-31 -36 -31 -98h-145q0 129 62 206t165 77q70 0 168 -71q98 -70 139 -70t72 38t31 99zM299 217q0 -49 37 -76t94 -26q174 0 375 180v151l-367 -116q-139 -33 -139 -113zM162 655q0 117 127 179
t303 63q176 0 276 -86t101 -231v-359q0 -94 65 -94q37 0 117 72l80 -113q-66 -63 -116 -89t-118 -26t-123 47t-67 129q-188 -176 -399 -176q-131 -1 -208 61t-77 166t71 163q71 58 209 94l402 112v19q0 86 -66 132q-65 46 -181 46t-206 -33q62 -25 62 -84t-35 -89t-89 -30
t-91 35t-37 92z" />
    <glyph glyph-name="adieresis" unicode="&#xe4;" 
d="M369 1051q-63 0 -108 43q-44 43 -44 104q0 62 44 106q43 44 107 44t108 -44t44 -106t-44 -104q-44 -43 -107 -43zM809 1049q-63 0 -108 44q-44 44 -44 105q0 60 44 104q43 44 107 44t108 -43t44 -105t-44 -105q-44 -44 -107 -44zM299 217q0 -49 37 -76t94 -26
q174 0 375 180v151l-367 -116q-139 -33 -139 -113zM162 655q0 117 127 179t303 63q176 0 276 -86t101 -231v-359q0 -94 65 -94q37 0 117 72l80 -113q-66 -63 -116 -89t-118 -26t-123 47t-67 129q-188 -176 -399 -176q-131 -1 -208 61t-77 166t71 163q71 58 209 94l402 112
v19q0 86 -66 132q-65 46 -181 46t-206 -33q62 -25 62 -84t-35 -89t-89 -30t-91 35t-37 92z" />
    <glyph glyph-name="aring" unicode="&#xe5;" 
d="M827 1239q-1 -100 -69 -168q-68 -67 -169 -67t-170 68t-69 167q0 100 69 169t169 69t170 -69t69 -169zM705 1239q0 53 -33 86t-84 33t-84 -33t-33 -86t33 -86t84 -33t84 33t33 86zM299 217q0 -49 37 -76t94 -26q174 0 375 180v151l-367 -116q-139 -33 -139 -113zM162 655
q0 117 127 179t303 63q176 0 276 -86t101 -231v-359q0 -94 65 -94q37 0 117 72l80 -113q-66 -63 -116 -89t-118 -26t-123 47t-67 129q-188 -176 -399 -176q-131 -1 -208 61t-77 166t71 163q71 58 209 94l402 112v19q0 86 -66 132q-65 46 -181 46t-206 -33q62 -25 62 -84
t-35 -89t-89 -30t-91 35t-37 92z" />
    <glyph glyph-name="ae" unicode="&#xe6;" 
d="M916 -27q-160 0 -265 123q-160 -125 -301 -125t-222 68q-81 69 -81 191q1 122 107 188t282 69l103 5q8 92 45 174q-41 98 -160 98q-78 0 -152 -33q57 -20 58 -88q0 -43 -33 -72t-84 -29t-83 32t-32 88q0 106 100 171t226 64q164 0 242 -104q98 104 223 104
q157 0 241 -151t84 -365l-520 -19q14 -104 68 -168t131 -65q76 0 124 28t105 95l90 -109q-136 -170 -296 -170zM223 229q0 -53 37 -84t94 -30q106 0 234 82q-35 78 -47 159l-105 -4h-12q-201 -8 -201 -123zM1051 506v12q-11 96 -51 161t-116 65t-127 -66q-52 -66 -65 -182z
" />
    <glyph glyph-name="ccedilla" unicode="&#xe7;" 
d="M866 -286q0 -94 -72 -145q-72 -52 -168 -52q-97 0 -175 40t-115 124l106 73q50 -123 172 -123t121 86q0 43 -39 67t-116 13l-86 66l53 119q-178 34 -288 158q-109 124 -109 306t151 317q151 134 353 134t321 -88t119 -213q0 -68 -44 -115t-104 -47t-101 40
q-40 40 -40 106t80 96q-80 72 -218 72q-139 0 -239 -86t-100 -222t86 -224q86 -89 254 -89t342 137l92 -121q-205 -172 -440 -172h-5l-26 -65q109 0 172 -49t63 -143z" />
    <glyph glyph-name="egrave" unicode="&#xe8;" 
d="M520 1440q86 0 129 -101l121 -278l-43 -39l-240 180q-79 54 -79 112t32 92q33 34 80 34zM659 -29q-225 0 -367 132t-142 330t139 331t359 133t346 -152t126 -364h-803q17 -111 105 -185t233 -73q188 0 346 131l86 -111q-203 -172 -428 -172zM634 748q-114 0 -201 -65
t-111 -175h608q-21 103 -101 171q-81 69 -195 69z" />
    <glyph glyph-name="eacute" unicode="&#xe9;" 
d="M659 -29q-225 0 -367 132t-142 330t139 331t359 133t346 -152t126 -364h-803q17 -111 105 -185t233 -73q188 0 346 131l86 -111q-203 -172 -428 -172zM634 748q-114 0 -201 -65t-111 -175h608q-21 103 -101 171q-81 69 -195 69zM901 1315q0 -57 -80 -113l-239 -180
l-43 39l120 278q43 100 129 101q47 0 80 -34t33 -91z" />
    <glyph glyph-name="ecircumflex" unicode="&#xea;" 
d="M659 -29q-225 0 -367 132t-142 330t139 331t359 133t346 -152t126 -364h-803q17 -111 105 -185t233 -73q188 0 346 131l86 -111q-203 -172 -428 -172zM634 748q-114 0 -201 -65t-111 -175h608q-21 103 -101 171q-81 69 -195 69zM651 1417q57 0 113 -74l207 -276l-58 -47
l-262 192l-262 -192l-57 47l207 276q55 74 112 74z" />
    <glyph glyph-name="edieresis" unicode="&#xeb;" 
d="M659 -29q-225 0 -367 132t-142 330t139 331t359 133t346 -152t126 -364h-803q17 -111 105 -185t233 -73q188 0 346 131l86 -111q-203 -172 -428 -172zM634 748q-114 0 -201 -65t-111 -175h608q-21 103 -101 171q-81 69 -195 69zM432 1051q-63 0 -107 43t-44 104
q0 62 44 106t107 44q64 0 108 -44t44 -106t-44 -104q-44 -43 -108 -43zM872 1049q-63 0 -107 44t-44 105q0 60 44 104t107 44q64 0 108 -43t44 -105t-44 -105q-44 -44 -108 -44z" />
    <glyph glyph-name="igrave" unicode="&#xec;" 
d="M518 1440q86 0 129 -101l121 -278l-43 -39l-240 180q-79 54 -79 112t32 92q33 34 80 34zM1104 150v-150h-903v150h334l63 63v442l-63 64h-334v149h551v-655l63 -63h289z" />
    <glyph glyph-name="iacute" unicode="&#xed;" 
d="M1104 150v-150h-903v150h334l63 63v442l-63 64h-334v149h551v-655l63 -63h289zM897 1315q0 -57 -80 -113l-239 -180l-43 39l120 278q43 100 129 101q47 0 80 -34t33 -91z" />
    <glyph glyph-name="icircumflex" unicode="&#xee;" 
d="M1104 150v-150h-903v150h334l63 63v442l-63 64h-334v149h551v-655l63 -63h289zM647 1417q57 0 113 -74l207 -276l-58 -47l-262 192l-262 -192l-57 47l207 276q55 74 112 74z" />
    <glyph glyph-name="idieresis" unicode="&#xef;" 
d="M1104 150v-150h-903v150h334l63 63v442l-63 64h-334v149h551v-655l63 -63h289zM428 1051q-63 0 -107 43t-45 104q0 62 44 106t108 44t108 -44t44 -106t-44 -104q-44 -43 -108 -43zM868 1049q-63 0 -107 44t-44 105q0 60 44 104t107 44q64 0 108 -43t44 -105t-44 -105
q-44 -44 -108 -44z" />
    <glyph glyph-name="eth" unicode="&#xf0;" 
d="M942 403q0 117 -88 196t-225 79t-225 -79t-87 -196q0 -117 87 -195q86 -78 224 -79q138 1 226 79t88 195zM1118 436q0 -202 -137 -334t-349 -131q-212 0 -352 125t-141 307q1 181 141 307t349 126q158 0 276 -107q-80 172 -237 279l-246 -117l-51 98l180 86
q-115 53 -248 76l37 133q217 -31 377 -129l235 113l52 -99l-183 -88q297 -243 297 -645z" />
    <glyph glyph-name="ntilde" unicode="&#xf1;" 
d="M899 1313h148q1 -131 -63 -208t-152 -77t-185 71q-96 71 -137 71t-72 -38q-31 -36 -30 -98h-146q0 129 62 206t150 77q87 0 183 -71q97 -70 139 -70t72 38t31 99zM582 150v-150h-502v150h110l64 63v442l-64 64h-110v149h328v-139q49 70 132 119t183 49q145 0 239 -86
t93 -242v-356l63 -63h111v-150h-502v150h111l63 63v297q0 109 -40 172t-146 63q-201 1 -307 -202v-330l63 -63h111z" />
    <glyph glyph-name="ograve" unicode="&#xf2;" 
d="M387 1314q0 58 33 92t80 34q86 0 129 -101l121 -278l-43 -39l-240 180q-80 54 -80 112zM940 434q0 133 -86 220t-225 87t-225 -87t-87 -220q0 -133 86 -220q85 -87 225 -87t226 87t86 220zM139 434q1 197 141 330t349 133t349 -133t140 -330t-140 -330t-349 -133
t-349 133t-141 330z" />
    <glyph glyph-name="oacute" unicode="&#xf3;" 
d="M940 434q0 133 -86 220t-225 87t-225 -87t-87 -220q0 -133 86 -220q85 -87 225 -87t226 87t86 220zM139 434q1 197 141 330t349 133t349 -133t140 -330t-140 -330t-349 -133t-349 133t-141 330zM879 1315q0 -57 -80 -113l-240 -180l-43 39l121 278q43 100 129 101
q47 0 80 -34t33 -91z" />
    <glyph glyph-name="ocircumflex" unicode="&#xf4;" 
d="M940 434q0 133 -86 220t-225 87t-225 -87t-87 -220q0 -133 86 -220q85 -87 225 -87t226 87t86 220zM139 434q1 197 141 330t349 133t349 -133t140 -330t-140 -330t-349 -133t-349 133t-141 330zM629 1417q57 0 112 -74l207 -276l-57 -47l-262 192l-262 -192l-58 47
l207 276q56 74 113 74z" />
    <glyph glyph-name="otilde" unicode="&#xf5;" 
d="M893 1313h147q0 -131 -63 -208t-151 -77t-185 71q-96 71 -137 71t-72 -38q-31 -36 -31 -98h-145q0 129 62 206t165 77q70 0 168 -71q98 -70 139 -70t72 38t31 99zM940 434q0 133 -86 220t-225 87t-225 -87t-87 -220q0 -133 86 -220q85 -87 225 -87t226 87t86 220z
M139 434q1 197 141 330t349 133t349 -133t140 -330t-140 -330t-349 -133t-349 133t-141 330z" />
    <glyph glyph-name="odieresis" unicode="&#xf6;" 
d="M940 434q0 133 -86 220t-225 87t-225 -87t-87 -220q0 -133 86 -220q85 -87 225 -87t226 87t86 220zM139 434q1 197 141 330t349 133t349 -133t140 -330t-140 -330t-349 -133t-349 133t-141 330zM410 1051q-63 0 -108 43q-44 43 -44 104q0 62 44 106t108 44t107 -44
q44 -44 44 -106t-44 -104q-44 -43 -107 -43zM850 1049q-63 0 -108 44q-44 44 -44 105q0 60 44 104t108 44t107 -43q44 -43 44 -105t-44 -105q-44 -44 -107 -44z" />
    <glyph glyph-name="divide" unicode="&#xf7;" 
d="M506 202q0 52 36 88t88 36t89 -36t37 -88t-38 -89t-89 -37t-87 37t-36 89zM506 955q0 52 36 89t87 37t89 -37t38 -89t-37 -88t-89 -36t-88 36t-36 88zM168 504v149h924v-149h-924z" />
    <glyph glyph-name="oslash" unicode="&#xf8;" 
d="M1118 433q0 -196 -140 -329t-349 -133q-129 0 -236 54l-135 -166l-115 84l133 163q-137 133 -137 329q1 196 141 329t349 133q127 0 241 -55l129 159l115 -83l-129 -160q133 -129 133 -325zM629 119q137 0 227 91t90 214t-65 207l-389 -484q63 -28 137 -28zM629 750
q-137 0 -227 -92t-91 -215q0 -124 68 -210l391 486q-61 31 -141 31z" />
    <glyph glyph-name="ugrave" unicode="&#xf9;" 
d="M358 1314q0 58 33 92t80 34q86 0 129 -101l121 -278l-43 -39l-240 180q-80 54 -80 112zM698 868h328v-655l64 -63h110v-150h-328v139q-49 -70 -130 -119t-181 -49q-147 0 -242 86q-94 86 -94 242v356l-63 64h-111v149h328v-510q0 -117 43 -176t145 -59q199 0 305 203v329
l-63 64h-111v149z" />
    <glyph glyph-name="uacute" unicode="&#xfa;" 
d="M698 868h328v-655l64 -63h110v-150h-328v139q-49 -70 -130 -119t-181 -49q-147 0 -242 86q-94 86 -94 242v356l-63 64h-111v149h328v-510q0 -117 43 -176t145 -59q199 0 305 203v329l-63 64h-111v149zM852 1315q0 -57 -80 -113l-240 -180l-43 39l121 278q43 100 129 101
q47 0 80 -34t33 -91z" />
    <glyph glyph-name="ucircumflex" unicode="&#xfb;" 
d="M698 868h328v-655l64 -63h110v-150h-328v139q-49 -70 -130 -119t-181 -49q-147 0 -242 86q-94 86 -94 242v356l-63 64h-111v149h328v-510q0 -117 43 -176t145 -59q199 0 305 203v329l-63 64h-111v149zM602 1417q57 0 113 -74l207 -276l-58 -47l-262 192l-262 -192l-57 47
l206 276q56 74 113 74z" />
    <glyph glyph-name="udieresis" unicode="&#xfc;" 
d="M698 868h328v-655l64 -63h110v-150h-328v139q-49 -70 -130 -119t-181 -49q-147 0 -242 86q-94 86 -94 242v356l-63 64h-111v149h328v-510q0 -117 43 -176t145 -59q199 0 305 203v329l-63 64h-111v149zM383 1051q-63 0 -108 43q-44 43 -44 104q0 62 44 106q43 44 107 44
t108 -44t44 -106t-44 -104q-44 -43 -107 -43zM823 1049q-63 0 -107 44t-44 105q0 60 44 104t107 44t107 -43t45 -105q-1 -62 -45 -105q-44 -44 -107 -44z" />
    <glyph glyph-name="yacute" unicode="&#xfd;" 
d="M905 1315q0 -57 -80 -113l-239 -180l-43 39l121 278q43 100 129 101q47 0 79 -34t33 -91zM45 -160q0 76 48 130q47 54 113 54t105 -34q39 -35 39 -91t-39 -89t-104 -31q19 -59 93 -59t128 68q53 69 135 232l-377 699h-108v149h461v-149h-101l-43 -45l256 -494l254 494
l-41 45h-100v149h444v-149h-110l-402 -750q-92 -174 -153 -252q-62 -79 -114 -105t-118 -26q-115 0 -191 70t-75 184z" />
    <glyph glyph-name="thorn" unicode="&#xfe;" 
d="M610 -236v-149h-528v149h108l33 33v1276l-33 33h-112v149h299v-532q49 74 135 124t197 50q190 0 316 -133t126 -329t-127 -330t-315 -134q-111 0 -197 50t-135 124v-348l33 -33h200zM694 123q129 0 208 88t79 223t-79 223t-208 88q-198 1 -317 -208v-205
q119 -209 317 -209z" />
    <glyph glyph-name="ydieresis" unicode="&#xff;" 
d="M434 1051q-63 0 -107 43t-44 104q0 62 44 106t107 44q64 0 108 -44t44 -106t-44 -104q-44 -43 -108 -43zM874 1049q-63 0 -107 44t-44 105q0 60 44 104t107 44q64 0 108 -43t44 -105t-44 -105q-44 -44 -108 -44zM45 -160q0 76 48 130q47 54 113 54t105 -34q39 -35 39 -91
t-39 -89t-104 -31q19 -59 93 -59t128 68q53 69 135 232l-377 699h-108v149h461v-149h-101l-43 -45l256 -494l254 494l-41 45h-100v149h444v-149h-110l-402 -750q-92 -174 -153 -252q-62 -79 -114 -105t-118 -26q-115 0 -191 70t-75 184z" />
    <glyph glyph-name="Amacron" unicode="&#x100;" 
d="M313 1489h633v-152h-633v152zM510 150v-150h-490v150h127l385 1017h193l385 -1017h127v-150h-502v150h117l61 51l-69 188h-445l-67 -188l61 -51h117zM791 539l-170 460l-166 -460h336z" />
    <glyph glyph-name="amacron" unicode="&#x101;" 
d="M272 1217h633v-150h-633v150zM299 217q0 -49 37 -76t94 -26q174 0 375 180v151l-367 -116q-139 -33 -139 -113zM162 655q0 117 127 179t303 63q176 0 276 -86t101 -231v-359q0 -94 65 -94q37 0 117 72l80 -113q-66 -63 -116 -89t-118 -26t-123 47t-67 129
q-188 -176 -399 -176q-131 -1 -208 61t-77 166t71 163q71 58 209 94l402 112v19q0 86 -66 132q-65 46 -181 46t-206 -33q62 -25 62 -84t-35 -89t-89 -30t-91 35t-37 92z" />
    <glyph glyph-name="Abreve" unicode="&#x102;" 
d="M630 1448q80 0 146 48t88 132l111 -26q-29 -150 -121 -232t-224 -82t-224 82t-123 232l110 26q23 -82 91 -131t146 -49zM510 150v-150h-490v150h127l385 1017h193l385 -1017h127v-150h-502v150h117l61 51l-69 188h-445l-67 -188l61 -51h117zM791 539l-170 460l-166 -460
h336z" />
    <glyph glyph-name="abreve" unicode="&#x103;" 
d="M589 1180q79 0 145 48t89 132l111 -27q-29 -149 -121 -231t-224 -82t-224 82t-123 231l110 27q22 -82 90 -131t147 -49zM299 217q0 -49 37 -76t94 -26q174 0 375 180v151l-367 -116q-139 -33 -139 -113zM162 655q0 117 127 179t303 63q176 0 276 -86t101 -231v-359
q0 -94 65 -94q37 0 117 72l80 -113q-66 -63 -116 -89t-118 -26t-123 47t-67 129q-188 -176 -399 -176q-131 -1 -208 61t-77 166t71 163q71 58 209 94l402 112v19q0 86 -66 132q-65 46 -181 46t-206 -33q62 -25 62 -84t-35 -89t-89 -30t-91 35t-37 92z" />
    <glyph glyph-name="Aogonek" unicode="&#x104;" 
d="M694 -481q-86 0 -133 45t-47 115q0 71 51 143t170 182v146h117l61 51l-69 188h-445l-67 -188l61 -51h117v-150h-490v150h127l385 1017h193l385 -1017h127v-150h-315q-140 -127 -198 -193t-58 -102q0 -51 60 -51t169 106l76 -106q-147 -135 -277 -135zM791 539l-170 460
l-166 -460h336z" />
    <glyph glyph-name="aogonek" unicode="&#x105;" 
d="M299 217q0 -49 37 -76t94 -26q174 0 375 180v151l-367 -116q-139 -33 -139 -113zM905 -481q-86 0 -133 45t-47 115q0 71 47 139t158 172q-109 35 -123 157q-188 -176 -399 -176q-131 -1 -208 61t-77 166t71 163q71 58 209 94l402 112v19q0 86 -66 132q-65 46 -181 46
t-206 -33q62 -25 62 -84t-35 -89t-89 -30t-91 35t-37 92q0 117 127 179t303 63q176 0 276 -86t101 -231v-359q0 -94 65 -94q37 0 117 72l80 -113q-180 -154 -268 -243q-89 -89 -89 -139t61 -50t171 106l76 -106q-148 -135 -277 -135z" />
    <glyph glyph-name="Cacute" unicode="&#x106;" 
d="M831 1710q49 0 81 -33t32 -90t-80 -114l-239 -179l-43 37l120 279q43 100 129 100zM657 1196q78 0 154 -34t117 -87l33 12v80h151v-422h-121q-39 121 -130 205t-206 84q-176 0 -269 -127t-93 -323t97 -322q97 -127 272 -127q206 0 362 184l109 -116q-197 -231 -458 -231
t-412 174t-151 438t149 438q148 174 396 174z" />
    <glyph glyph-name="cacute" unicode="&#x107;" 
d="M805 580q0 66 80 96q-80 72 -218 72q-139 0 -239 -86t-100 -222t86 -224q86 -89 254 -89t342 137l92 -121q-205 -172 -434 -172t-374 132q-144 132 -144 329t151 331t353 134t321 -88t119 -213q0 -68 -44 -115t-104 -47t-101 40q-40 40 -40 106zM924 1315q0 -57 -80 -113
l-240 -180l-43 39l121 278q43 100 129 101q47 0 80 -34t33 -91z" />
    <glyph glyph-name="Ccircumflex" unicode="&#x108;" 
d="M678 1686q57 0 113 -74l206 -277l-57 -47l-262 193l-262 -193l-58 47l207 277q56 74 113 74zM657 1196q78 0 154 -34t117 -87l33 12v80h151v-422h-121q-39 121 -130 205t-206 84q-176 0 -269 -127t-93 -323t97 -322q97 -127 272 -127q206 0 362 184l109 -116
q-197 -231 -458 -231t-412 174t-151 438t149 438q148 174 396 174z" />
    <glyph glyph-name="ccircumflex" unicode="&#x109;" 
d="M805 580q0 66 80 96q-80 72 -218 72q-139 0 -239 -86t-100 -222t86 -224q86 -89 254 -89t342 137l92 -121q-205 -172 -434 -172t-374 132q-144 132 -144 329t151 331t353 134t321 -88t119 -213q0 -68 -44 -115t-104 -47t-101 40q-40 40 -40 106zM674 1417q57 0 112 -74
l207 -276l-57 -47l-262 192l-262 -192l-58 47l207 276q56 74 113 74z" />
    <glyph glyph-name="Cdotaccent" unicode="&#x10a;" 
d="M657 1196q78 0 154 -34t117 -87l33 12v80h151v-422h-121q-39 121 -130 205t-206 84q-176 0 -269 -127t-93 -323t97 -322q97 -127 272 -127q206 0 362 184l109 -116q-197 -231 -458 -231t-412 174t-151 438t149 438q148 174 396 174zM678 1610q66 0 110 -44t46 -111
q0 -67 -45 -111t-111 -44t-110 46t-44 110q0 66 44 110t110 44z" />
    <glyph glyph-name="cdotaccent" unicode="&#x10b;" 
d="M674 1350q66 0 110 -45t45 -111q-1 -66 -45 -110t-110 -44t-110 44t-44 110t44 111t110 45zM805 580q0 66 80 96q-80 72 -218 72q-139 0 -239 -86t-100 -222t86 -224q86 -89 254 -89t342 137l92 -121q-205 -172 -434 -172t-374 132q-144 132 -144 329t151 331t353 134
t321 -88t119 -213q0 -68 -44 -115t-104 -47t-101 40q-40 40 -40 106z" />
    <glyph glyph-name="Ccaron" unicode="&#x10c;" 
d="M678 1294q-57 0 -113 74l-207 277l58 47l262 -195l262 195l57 -47l-206 -277q-56 -74 -113 -74zM657 1196q78 0 154 -34t117 -87l33 12v80h151v-422h-121q-39 121 -130 205t-206 84q-176 0 -269 -127t-93 -323t97 -322q97 -127 272 -127q206 0 362 184l109 -116
q-197 -231 -458 -231t-412 174t-151 438t149 438q148 174 396 174z" />
    <glyph glyph-name="ccaron" unicode="&#x10d;" 
d="M805 580q0 66 80 96q-80 72 -218 72q-139 0 -239 -86t-100 -222t86 -224q86 -89 254 -89t342 137l92 -121q-205 -172 -434 -172t-374 132q-144 132 -144 329t151 331t353 134t321 -88t119 -213q0 -68 -44 -115t-104 -47t-101 40q-40 40 -40 106zM674 1022q-57 0 -113 74
l-207 276l58 47l262 -192l262 192l57 -47l-207 -276q-55 -74 -112 -74z" />
    <glyph glyph-name="Dcaron" unicode="&#x10e;" 
d="M532 0h-471v150h121l64 61v743l-64 64h-121v149h471q299 -1 466 -163t167 -420t-167 -421t-466 -163zM406 150h126q219 0 336 120t117 314t-117 314t-336 120h-126v-868zM592 1294q-57 0 -113 74l-207 277l58 47l262 -195l262 195l57 -47l-206 -277q-56 -74 -113 -74z
" />
    <glyph glyph-name="dcaron" unicode="&#x10f;" 
d="M647 1255h387v-1073l33 -32h109v-150h-295v145q-47 -73 -132 -123t-198 -51q-190 0 -318 133q-127 133 -127 329t127 330t318 134q113 0 198 -51t132 -123v350l-33 33h-201v149zM563 123q199 0 318 209v205q-119 209 -318 208q-129 0 -207 -88t-78 -223t78 -223t207 -88z
M1352 1509q45 1 78 -31q32 -32 32 -82t-53 -110l-217 -254l-53 25l84 325q29 127 129 127z" />
    <glyph glyph-name="Dcroat" unicode="&#x110;" 
d="M406 150h126q219 0 336 120t117 314t-117 314t-336 120h-126v-326h266v-149h-266v-393zM532 0h-471v150h121l64 61v332h-193v149h193v262l-64 64h-121v149h471q299 -1 466 -163t167 -420t-167 -421t-466 -163z" />
    <glyph glyph-name="dcroat" unicode="&#x111;" 
d="M551 -29q-188 0 -315 124t-127 304t127 304t315 124q113 0 198 -46t132 -113v256h-367v116h367v82l-17 19h-217v114h387v-215h144v-116h-144v-742l33 -32h109v-150h-295v131q-49 -66 -135 -113t-195 -47zM563 678q-131 0 -209 -78t-78 -200t78 -200t209 -79
q201 0 318 188v183q-119 186 -318 186z" />
    <glyph glyph-name="Emacron" unicode="&#x112;" 
d="M438 150h467l64 63v211h155v-424h-1069v150h160l64 63v741l-64 64h-160v149h1061v-434h-155v221l-64 64h-459v-356h170l64 63v125h131v-512h-131v123l-64 63h-170v-374zM322 1489h632v-152h-632v152z" />
    <glyph glyph-name="emacron" unicode="&#x113;" 
d="M336 1217h633v-150h-633v150zM659 -29q-225 0 -367 132t-142 330t139 331t359 133t346 -152t126 -364h-803q17 -111 105 -185t233 -73q188 0 346 131l86 -111q-203 -172 -428 -172zM634 748q-114 0 -201 -65t-111 -175h608q-21 103 -101 171q-81 69 -195 69z" />
    <glyph glyph-name="Ebreve" unicode="&#x114;" 
d="M438 150h467l64 63v211h155v-424h-1069v150h160l64 63v741l-64 64h-160v149h1061v-434h-155v221l-64 64h-459v-356h170l64 63v125h131v-512h-131v123l-64 63h-170v-374zM638 1448q80 0 146 48t88 132l111 -26q-29 -150 -121 -232t-224 -82t-224 82t-123 232l110 26
q23 -82 91 -131t146 -49z" />
    <glyph glyph-name="ebreve" unicode="&#x115;" 
d="M652 1180q79 0 146 48t89 132l110 -27q-29 -149 -121 -231t-224 -82t-224 82t-123 231l111 27q23 -82 90 -131t146 -49zM659 -29q-225 0 -367 132t-142 330t139 331t359 133t346 -152t126 -364h-803q17 -111 105 -185t233 -73q188 0 346 131l86 -111q-203 -172 -428 -172
zM634 748q-114 0 -201 -65t-111 -175h608q-21 103 -101 171q-81 69 -195 69z" />
    <glyph glyph-name="Edotaccent" unicode="&#x116;" 
d="M438 150h467l64 63v211h155v-424h-1069v150h160l64 63v741l-64 64h-160v149h1061v-434h-155v221l-64 64h-459v-356h170l64 63v125h131v-512h-131v123l-64 63h-170v-374zM793 1455q0 -67 -45 -111q-44 -44 -110 -44t-110 46t-45 110q0 66 44 110t110 44t111 -44t45 -111z
" />
    <glyph glyph-name="edotaccent" unicode="&#x117;" 
d="M807 1194q0 -66 -45 -110q-44 -44 -110 -44t-110 44t-44 110t44 111t110 45t110 -45q45 -45 45 -111zM659 -29q-225 0 -367 132t-142 330t139 331t359 133t346 -152t126 -364h-803q17 -111 105 -185t233 -73q188 0 346 131l86 -111q-203 -172 -428 -172zM634 748
q-114 0 -201 -65t-111 -175h608q-21 103 -101 171q-81 69 -195 69z" />
    <glyph glyph-name="Eogonek" unicode="&#x118;" 
d="M713 -481q-86 0 -133 45q-48 45 -48 115q0 69 50 141t168 180h-695v150h160l64 63v741l-64 64h-160v149h1061v-434h-155v221l-64 64h-459v-356h170l64 63v125h131v-512h-131v123l-64 63h-170v-374h467l64 63v211h155v-424h-184q-140 -127 -198 -193t-58 -102
q0 -51 60 -51t169 106l76 -106q-147 -135 -276 -135z" />
    <glyph glyph-name="eogonek" unicode="&#x119;" 
d="M711 -481q-84 0 -131 46t-48 116q0 135 197 299q-31 -8 -74 -9q-221 0 -363 132t-142 330t139 331t359 133t346 -152t126 -364h-801q17 -113 105 -185t231 -73q188 0 346 131l86 -111q-211 -164 -308 -266t-97 -172q0 -51 62 -51t167 106l78 -106q-147 -135 -278 -135z
M634 748q-114 0 -201 -65t-111 -175h608q-21 103 -101 171q-81 69 -195 69z" />
    <glyph glyph-name="Ecaron" unicode="&#x11a;" 
d="M438 150h467l64 63v211h155v-424h-1069v150h160l64 63v741l-64 64h-160v149h1061v-434h-155v221l-64 64h-459v-356h170l64 63v125h131v-512h-131v123l-64 63h-170v-374zM637 1294q-57 0 -113 74l-207 277l58 47l262 -195l262 195l57 -47l-206 -277q-56 -74 -113 -74z" />
    <glyph glyph-name="ecaron" unicode="&#x11b;" 
d="M659 -29q-225 0 -367 132t-142 330t139 331t359 133t346 -152t126 -364h-803q17 -111 105 -185t233 -73q188 0 346 131l86 -111q-203 -172 -428 -172zM634 748q-114 0 -201 -65t-111 -175h608q-21 103 -101 171q-81 69 -195 69zM651 1022q-57 0 -112 74l-207 276l57 47
l262 -192l262 192l58 -47l-207 -276q-56 -74 -113 -74z" />
    <glyph glyph-name="Gcircumflex" unicode="&#x11c;" 
d="M641 1686q57 0 113 -74l207 -277l-58 -47l-262 193l-262 -193l-57 47l206 277q56 74 113 74zM625 1034q-171 0 -265 -126t-94 -322t94 -323q94 -128 265 -128q145 0 295 176v97l-46 49h-153v149h483v-149h-74l-57 -60v-397h-153v88l-29 21q-111 -137 -293 -138
q-227 0 -371 176q-143 177 -143 439t146 436t388 174q78 0 151 -34t114 -87l28 12v80h152v-393h-121q-44 116 -126 188t-191 72z" />
    <glyph glyph-name="gcircumflex" unicode="&#x11d;" 
d="M858 -8h-553q-61 -47 -61 -103q0 -75 97 -115t271 -40t279 49q104 49 104 121q0 88 -137 88zM844 154q145 0 228 -60t83 -190q-1 -129 -151 -223q-150 -95 -397 -95t-388 76t-141 213q0 113 119 191q-55 49 -56 127q0 121 129 190q-78 88 -78 211t104 213q103 90 265 90
q92 0 174 -33q109 178 285 178q94 0 158 -55t63 -129q0 -74 -37 -114t-90 -40t-87 36q-34 34 -34 86t51 75q-14 14 -43 14q-98 0 -167 -114q96 -86 96 -218q0 -131 -104 -223t-265 -92q-102 0 -192 43q-76 -43 -76 -94q0 -63 78 -63h473zM762 584q0 74 -57 121t-143 47
t-144 -47t-58 -121t58 -122t143 -48q86 0 144 48q57 48 57 122zM602 1448q57 0 113 -74l207 -276l-58 -47l-262 192l-262 -192l-57 47l206 276q56 74 113 74z" />
    <glyph glyph-name="Gbreve" unicode="&#x11e;" 
d="M625 1034q-171 0 -265 -126t-94 -322t94 -323q94 -128 265 -128q145 0 295 176v97l-46 49h-153v149h483v-149h-74l-57 -60v-397h-153v88l-29 21q-111 -137 -293 -138q-227 0 -371 176q-143 177 -143 439t146 436t388 174q78 0 151 -34t114 -87l28 12v80h152v-393h-121
q-44 116 -126 188t-191 72zM642 1448q80 0 146 48t89 132l110 -26q-29 -150 -121 -232t-224 -82t-224 82t-123 232l111 26q23 -82 90 -131t146 -49z" />
    <glyph glyph-name="gbreve" unicode="&#x11f;" 
d="M572 1196q79 0 146 48t89 132l111 -26q-29 -150 -121 -232q-93 -82 -225 -82t-224 82t-123 232l111 26q23 -82 90 -131t146 -49zM858 -8h-553q-61 -47 -61 -103q0 -75 97 -115t271 -40t279 49q104 49 104 121q0 88 -137 88zM844 154q145 0 228 -60t83 -190
q-1 -129 -151 -223q-150 -95 -397 -95t-388 76t-141 213q0 113 119 191q-55 49 -56 127q0 121 129 190q-78 88 -78 211t104 213q103 90 265 90q92 0 174 -33q109 178 285 178q94 0 158 -55t63 -129q0 -74 -37 -114t-90 -40t-87 36q-34 34 -34 86t51 75q-14 14 -43 14
q-98 0 -167 -114q96 -86 96 -218q0 -131 -104 -223t-265 -92q-102 0 -192 43q-76 -43 -76 -94q0 -63 78 -63h473zM762 584q0 74 -57 121t-143 47t-144 -47t-58 -121t58 -122t143 -48q86 0 144 48q57 48 57 122z" />
    <glyph glyph-name="Gdotaccent" unicode="&#x120;" 
d="M625 1034q-171 0 -265 -126t-94 -322t94 -323q94 -128 265 -128q145 0 295 176v97l-46 49h-153v149h483v-149h-74l-57 -60v-397h-153v88l-29 21q-111 -137 -293 -138q-227 0 -371 176q-143 177 -143 439t146 436t388 174q78 0 151 -34t114 -87l28 12v80h152v-393h-121
q-44 116 -126 188t-191 72zM797 1455q0 -67 -45 -111q-44 -44 -110 -44t-110 46t-45 110q0 66 44 110t110 44t111 -44t45 -111z" />
    <glyph glyph-name="gdotaccent" unicode="&#x121;" 
d="M774 1194q0 -66 -45 -110t-111 -44t-109 44q-44 44 -44 110t44 111q43 45 109 45t111 -45t45 -111zM858 -8h-553q-61 -47 -61 -103q0 -75 97 -115t271 -40t279 49q104 49 104 121q0 88 -137 88zM844 154q145 0 228 -60t83 -190q-1 -129 -151 -223q-150 -95 -397 -95
t-388 76t-141 213q0 113 119 191q-55 49 -56 127q0 121 129 190q-78 88 -78 211t104 213q103 90 265 90q92 0 174 -33q109 178 285 178q94 0 158 -55t63 -129q0 -74 -37 -114t-90 -40t-87 36q-34 34 -34 86t51 75q-14 14 -43 14q-98 0 -167 -114q96 -86 96 -218
q0 -131 -104 -223t-265 -92q-102 0 -192 43q-76 -43 -76 -94q0 -63 78 -63h473zM762 584q0 74 -57 121t-143 47t-144 -47t-58 -121t58 -122t143 -48q86 0 144 48q57 48 57 122z" />
    <glyph glyph-name="Gcommaaccent" unicode="&#x122;" 
d="M625 1034q-171 0 -265 -126t-94 -322t94 -323q94 -128 265 -128q145 0 295 176v97l-46 49h-153v149h483v-149h-74l-57 -60v-397h-153v88l-29 21q-111 -137 -293 -138q-227 0 -371 176q-143 177 -143 439t146 436t388 174q78 0 151 -34t114 -87l28 12v80h152v-393h-121
q-44 116 -126 188t-191 72zM502 -276q0 63 42 104t101 41t101 -44q42 -45 42 -101t-43 -113l-194 -238l-72 52l111 169q-88 34 -88 130z" />
    <glyph glyph-name="gcommaaccent" unicode="&#x123;" 
d="M858 -8h-553q-61 -47 -61 -103q0 -75 97 -115t271 -40t279 49q104 49 104 121q0 88 -137 88zM844 154q145 0 228 -60t83 -190q-1 -129 -151 -223q-150 -95 -397 -95t-388 76t-141 213q0 113 119 191q-55 49 -56 127q0 121 129 190q-78 88 -78 211t104 213q103 90 265 90
q92 0 174 -33q109 178 285 178q94 0 158 -55t63 -129q0 -74 -37 -114t-90 -40t-87 36q-34 34 -34 86t51 75q-14 14 -43 14q-98 0 -167 -114q96 -86 96 -218q0 -131 -104 -223t-265 -92q-102 0 -192 43q-76 -43 -76 -94q0 -63 78 -63h473zM762 584q0 74 -57 121t-143 47
t-144 -47t-58 -121t58 -122t143 -48q86 0 144 48q57 48 57 122zM733 1178q0 -60 -42 -102t-101 -42t-102 43q-42 43 -42 99t43 116l195 238l72 -53l-111 -168q88 -37 88 -131z" />
    <glyph glyph-name="Hcircumflex" unicode="&#x124;" 
d="M629 1686q57 0 112 -74l207 -277l-57 -47l-262 193l-262 -193l-58 47l207 277q56 74 113 74zM713 1018v149h483v-149h-98l-64 -64v-741l64 -63h98v-150h-483v150h98l63 63v322h-491v-322l63 -63h101v-150h-486v150h101l63 63v741l-63 64h-101v149h486v-149h-101l-63 -64
v-270h491v270l-63 64h-98z" />
    <glyph glyph-name="hcircumflex" unicode="&#x125;" 
d="M655 1726q57 0 113 -73l207 -277l-57 -47l-263 193l-262 -193l-57 47l207 277q55 73 112 73zM582 150v-150h-502v150h110l64 63v829l-64 64h-110v149h328v-526q49 70 132 119t183 49q145 0 239 -86t93 -242v-356l63 -63h111v-150h-502v150h111l63 63v297q0 109 -40 172
t-146 63q-201 1 -307 -202v-330l63 -63h111z" />
    <glyph glyph-name="Hbar" unicode="&#x126;" 
d="M547 150v-150h-486v150h101l63 63v473h-172v133h172v135l-63 64h-101v149h486v-149h-101l-63 -64v-135h491v135l-63 64h-98v149h483v-149h-98l-64 -64v-135h170v-133h-170v-473l64 -63h98v-150h-483v150h98l63 63v209h-491v-209l63 -63h101zM383 555h491v131h-491v-131z
" />
    <glyph glyph-name="hbar" unicode="&#x127;" 
d="M582 150v-150h-502v150h110l64 63v711h-176v116h176v80l-21 21h-153v114h328v-215h333v-116h-333v-252q49 70 132 119t183 49q145 0 239 -86t93 -242v-299l63 -63h111v-150h-502v150h111l63 63v240q0 236 -186 235q-201 0 -307 -203v-272l63 -63h111z" />
    <glyph glyph-name="Itilde" unicode="&#x128;" 
d="M872 1579h148q0 -131 -64 -208t-151 -77q-88 0 -184 71q-95 71 -137 71t-72 -37t-31 -99h-145q0 129 62 206t165 77q70 0 168 -71q98 -70 139 -70t72 38q30 38 30 99zM203 1018v149h852v-149h-277l-63 -64v-741l63 -63h277v-150h-852v150h276l64 63v741l-64 64h-276z" />
    <glyph glyph-name="itilde" unicode="&#x129;" 
d="M889 1313h147q0 -131 -63 -208t-151 -77t-185 71q-96 71 -137 71t-72 -38q-31 -36 -31 -98h-145q0 129 62 206t165 77q70 0 168 -71q98 -70 139 -70t72 38t31 99zM1104 150v-150h-903v150h334l63 63v442l-63 64h-334v149h551v-655l63 -63h289z" />
    <glyph glyph-name="Imacron" unicode="&#x12a;" 
d="M311 1489h633v-152h-633v152zM203 1018v149h852v-149h-277l-63 -64v-741l63 -63h277v-150h-852v150h276l64 63v741l-64 64h-276z" />
    <glyph glyph-name="imacron" unicode="&#x12b;" 
d="M328 1217h633v-150h-633v150zM1104 150v-150h-903v150h334l63 63v442l-63 64h-334v149h551v-655l63 -63h289z" />
    <glyph glyph-name="Ibreve" unicode="&#x12c;" 
d="M628 1448q80 0 146 48t88 132l111 -26q-29 -150 -121 -232t-224 -82t-225 82q-92 82 -122 232l110 26q23 -82 91 -131t146 -49zM203 1018v149h852v-149h-277l-63 -64v-741l63 -63h277v-150h-852v150h276l64 63v741l-64 64h-276z" />
    <glyph glyph-name="ibreve" unicode="&#x12d;" 
d="M644 1180q79 0 146 48t89 132l110 -27q-29 -149 -121 -231t-224 -82t-224 82t-123 231l111 27q23 -82 90 -131t146 -49zM1104 150v-150h-903v150h334l63 63v442l-63 64h-334v149h551v-655l63 -63h289z" />
    <glyph glyph-name="Iogonek" unicode="&#x12e;" 
d="M653 -481q-86 0 -133 45t-47 115q0 69 50 141t167 180h-487v150h276l64 63v741l-64 64h-276v149h852v-149h-277l-63 -64v-741l63 -63h277v-150h-174q-141 -127 -199 -193t-57 -102q-1 -51 59 -51t170 106l76 -106q-147 -135 -277 -135z" />
    <glyph glyph-name="iogonek" unicode="&#x12f;" 
d="M627 -481q-86 0 -133 45q-48 45 -48 115q0 69 50 141t168 180h-463v150h334l63 63v442l-63 64h-334v149h551v-655l63 -63h289v-150h-250q-140 -127 -198 -193t-58 -102q0 -51 60 -51t169 106l76 -106q-147 -135 -276 -135zM487 1194q0 66 44 111t110 45t111 -45t45 -111
t-45 -110q-44 -44 -110 -44t-111 44q-44 44 -44 110z" />
    <glyph glyph-name="Idotaccent" unicode="&#x130;" 
d="M629 1610q67 0 111 -44t44 -111t-44 -111t-110 -44t-110 46t-45 110q0 66 44 110t110 44zM203 1018v149h852v-149h-277l-63 -64v-741l63 -63h277v-150h-852v150h276l64 63v741l-64 64h-276z" />
    <glyph glyph-name="dotlessi" unicode="&#x131;" 
d="M1104 150v-150h-903v150h334l63 63v442l-63 64h-334v149h551v-655l63 -63h289z" />
    <glyph glyph-name="Jcircumflex" unicode="&#x134;" 
d="M852 1686q57 0 113 -74l206 -277l-57 -47l-262 193l-262 -193l-58 47l207 277q56 74 113 74zM809 444v510l-64 64h-378v149h825v-149h-148l-63 -64v-520q0 -211 -126 -337t-314 -126t-308 120q-119 120 -118 288q0 84 52 141q52 58 125 58t118 -43t45 -101t-47 -106
q-47 -47 -109 -35q41 -174 244 -174q266 -1 266 325z" />
    <glyph glyph-name="jcircumflex" unicode="&#x135;" 
d="M141 -70q0 78 48 132t117 54t110 -38q41 -39 41 -92t-35 -90t-88 -39q20 -57 80 -93t133 -34q133 0 202 85t68 246v594l-63 64h-416v149h633v-817q0 -217 -118 -337t-296 -120t-297 100t-119 236zM858 1417q57 0 113 -74l207 -276l-58 -47l-262 192l-262 -192l-57 47
l206 276q56 74 113 74z" />
    <glyph glyph-name="Kcommaaccent" unicode="&#x136;" 
d="M547 150v-150h-486v150h101l63 63v741l-63 64h-101v149h486v-149h-101l-63 -64v-424l428 437l-61 51h-64v149h469v-149h-111l-331 -338l387 -530h110v-150h-499v150h98l59 51l-268 364l-217 -219v-133l63 -63h101zM477 -276q0 63 42 104q41 41 101 41t102 -44
q42 -45 42 -101t-43 -113l-195 -238l-71 52l110 169q-88 34 -88 130z" />
    <glyph glyph-name="kcommaaccent" unicode="&#x137;" 
d="M557 150v-150h-481v150h100l64 63v829l-64 64h-115v149h332v-825l406 260l-4 29h-111v149h475v-149h-90l-375 -236l291 -333h219v-150h-428v152l-213 247l-170 -106v-80l64 -63h100zM492 -276q0 63 40 104q42 41 102 41t102 -44q42 -45 42 -101t-43 -113l-194 -238
l-72 52l111 169q-88 34 -88 130z" />
    <glyph glyph-name="kgreenlandic" unicode="&#x138;" 
d="M557 150v-150h-481v150h100l64 63v442l-64 64h-115v149h332v-438l406 260l-4 29h-111v149h475v-149h-90l-375 -236l291 -333h219v-150h-428v152l-213 247l-170 -106v-80l64 -63h100z" />
    <glyph glyph-name="Lacute" unicode="&#x139;" 
d="M90 1167h567v-149h-141l-63 -64v-804h467l63 63v283h156v-496h-1049v150h141l64 63v741l-64 64h-141v149zM565 1710q49 0 81 -33t32 -90t-80 -114l-240 -179l-43 37l121 279q43 100 129 100z" />
    <glyph glyph-name="lacute" unicode="&#x13a;" 
d="M1104 150v-150h-903v150h334l63 63v829l-63 64h-334v149h551v-1042l63 -63h289zM805 1757q49 0 81 -33t32 -90t-80 -114l-240 -179l-43 37l121 279q43 100 129 100z" />
    <glyph glyph-name="Lcommaaccent" unicode="&#x13b;" 
d="M90 1167h567v-149h-141l-63 -64v-804h467l63 63v283h156v-496h-1049v150h141l64 63v741l-64 64h-141v149zM461 -276q0 63 42 104t101 41q60 0 102 -44q42 -45 42 -101t-43 -113l-195 -238l-72 52l111 169q-88 34 -88 130z" />
    <glyph glyph-name="lcommaaccent" unicode="&#x13c;" 
d="M1104 150v-150h-903v150h334l63 63v829l-63 64h-334v149h551v-1042l63 -63h289zM512 -276q0 63 41 104t101 41t102 -44q42 -45 43 -101q0 -56 -43 -113l-195 -238l-72 52l111 169q-88 34 -88 130z" />
    <glyph glyph-name="Lcaron" unicode="&#x13d;" 
d="M90 1167h567v-149h-141l-63 -64v-804h467l63 63v283h156v-496h-1049v150h141l64 63v741l-64 64h-141v149zM1014 1303q45 0 78 -32q32 -32 32 -82t-53 -110l-217 -254l-53 25l84 326q29 127 129 127z" />
    <glyph glyph-name="lcaron" unicode="&#x13e;" 
d="M1104 150v-150h-903v150h334l63 63v829l-63 64h-334v149h551v-1042l63 -63h289zM1096 1509q45 1 78 -31q32 -32 32 -82t-53 -110l-217 -254l-53 25l84 325q29 127 129 127z" />
    <glyph glyph-name="Ldot" unicode="&#x13f;" 
d="M1055 808q0 -66 -45 -110q-44 -44 -110 -45q-66 0 -110 44t-44 110t44 111t110 45t110 -45q45 -44 45 -110zM90 1167h567v-149h-141l-63 -64v-804h467l63 63v283h156v-496h-1049v150h141l64 63v741l-64 64h-141v149z" />
    <glyph glyph-name="ldot" unicode="&#x140;" 
d="M1397 644q0 -66 -45 -110q-44 -44 -110 -45q-66 1 -110 45t-44 110t44 110q44 45 110 45t110 -45q45 -44 45 -110zM1104 150v-150h-903v150h334l63 63v829l-63 64h-334v149h551v-1042l63 -63h289z" />
    <glyph glyph-name="Lslash" unicode="&#x141;" 
d="M1139 0h-1049v150h141l64 63v270l-168 -65l-47 139l215 82v315l-64 64h-141v149h567v-149h-141l-63 -64v-264l327 129l47 -137l-374 -145v-387h467l63 63v283h156v-496z" />
    <glyph glyph-name="lslash" unicode="&#x142;" 
d="M1104 0h-903v150h334l63 63v344l-272 -147l-74 131l346 190v311l-63 64h-334v149h551v-446l249 137l74 -131l-323 -176v-426l63 -63h289v-150z" />
    <glyph glyph-name="Nacute" unicode="&#x143;" 
d="M1034 0h-168l-487 950v-737l63 -63h99v-150h-480v150h101l63 63v741l-63 64h-101v149h385l435 -878v665l-64 64h-100v149h479v-149h-98l-64 -64v-954zM782 1710q49 0 81 -33t32 -90t-80 -114l-240 -179l-43 37l121 279q43 100 129 100z" />
    <glyph glyph-name="nacute" unicode="&#x144;" 
d="M582 150v-150h-502v150h110l64 63v442l-64 64h-110v149h328v-139q49 70 132 119t183 49q145 0 239 -86t93 -242v-356l63 -63h111v-150h-502v150h111l63 63v297q0 109 -40 172t-146 63q-201 1 -307 -202v-330l63 -63h111zM905 1315q0 -57 -80 -113l-239 -180l-43 39
l121 278q43 100 129 101q47 0 79 -34t33 -91z" />
    <glyph glyph-name="Ncommaaccent" unicode="&#x145;" 
d="M1034 0h-168l-487 950v-737l63 -63h99v-150h-480v150h101l63 63v741l-63 64h-101v149h385l435 -878v665l-64 64h-100v149h479v-149h-98l-64 -64v-954zM487 -276q0 63 41 104q42 41 102 41t102 -44q42 -45 42 -101t-43 -113l-194 -238l-72 52l110 169q-88 34 -88 130z" />
    <glyph glyph-name="ncommaaccent" unicode="&#x146;" 
d="M582 150v-150h-502v150h110l64 63v442l-64 64h-110v149h328v-139q49 70 132 119t183 49q145 0 239 -86t93 -242v-356l63 -63h111v-150h-502v150h111l63 63v297q0 109 -40 172t-146 63q-201 1 -307 -202v-330l63 -63h111zM514 -276q0 63 42 104t101 41t101 -44
q42 -45 43 -101q0 -56 -43 -113l-195 -238l-71 52l110 169q-88 34 -88 130z" />
    <glyph glyph-name="Ncaron" unicode="&#x147;" 
d="M1034 0h-168l-487 950v-737l63 -63h99v-150h-480v150h101l63 63v741l-63 64h-101v149h385l435 -878v665l-64 64h-100v149h479v-149h-98l-64 -64v-954zM629 1294q-57 0 -113 74l-207 277l58 47l262 -195l262 195l57 -47l-207 -277q-55 -74 -112 -74z" />
    <glyph glyph-name="ncaron" unicode="&#x148;" 
d="M582 150v-150h-502v150h110l64 63v442l-64 64h-110v149h328v-139q49 70 132 119t183 49q145 0 239 -86t93 -242v-356l63 -63h111v-150h-502v150h111l63 63v297q0 109 -40 172t-146 63q-201 1 -307 -202v-330l63 -63h111zM653 1022q-57 0 -112 74l-207 276l57 47l262 -192
l262 192l58 -47l-207 -276q-56 -74 -113 -74z" />
    <glyph glyph-name="Eng" unicode="&#x14a;" 
d="M541 150v-150h-480v150h101l63 63v741l-63 64h-101v149h385l435 -878v665l-64 64h-100v149h479v-149h-98l-64 -64v-993q0 -176 -88 -273q-88 -98 -221 -98t-210 65t-77 159q0 55 35 94t85 39t80 -27t30 -67q0 -70 -72 -78q39 -51 117 -51q166 -1 166 243l-500 983v-737
l63 -63h99z" />
    <glyph glyph-name="eng" unicode="&#x14b;" 
d="M1075 -37q0 -177 -87 -273t-220 -96t-210 62t-77 158q0 55 35 94t85 39t80 -27t30 -67q0 -72 -74 -78q35 -61 119 -62q160 0 159 246v551q0 111 -36 173q-37 62 -144 62q-201 0 -307 -202v-330l64 -63h110v-150h-502v150h111l63 63v442l-63 64h-111v149h328v-139
q49 70 132 119t183 49q145 0 239 -86t93 -242v-606z" />
    <glyph glyph-name="Omacron" unicode="&#x14c;" 
d="M985 584q0 194 -93 322t-263 128t-262 -128q-93 -128 -93 -322t92 -322q92 -127 263 -127q170 0 263 127t93 322zM1165 585q0 -263 -147 -439t-389 -175q-242 0 -388 175q-147 174 -147 438t146 438t389 174q242 0 389 -174t147 -437zM313 1489h633v-152h-633v152z" />
    <glyph glyph-name="omacron" unicode="&#x14d;" 
d="M940 434q0 133 -86 220t-225 87t-225 -87t-87 -220q0 -133 86 -220q85 -87 225 -87t226 87t86 220zM139 434q1 197 141 330t349 133t349 -133t140 -330t-140 -330t-349 -133t-349 133t-141 330zM313 1217h633v-150h-633v150z" />
    <glyph glyph-name="Obreve" unicode="&#x14e;" 
d="M985 584q0 194 -93 322t-263 128t-262 -128q-93 -128 -93 -322t92 -322q92 -127 263 -127q170 0 263 127t93 322zM1165 585q0 -263 -147 -439t-389 -175q-242 0 -388 175q-147 174 -147 438t146 438t389 174q242 0 389 -174t147 -437zM630 1448q80 0 146 48t88 132
l111 -26q-29 -150 -121 -232t-224 -82t-224 82t-123 232l110 26q23 -82 91 -131t146 -49z" />
    <glyph glyph-name="obreve" unicode="&#x14f;" 
d="M630 1180q80 0 146 48t88 132l111 -27q-29 -149 -121 -231t-224 -82t-224 82t-123 231l110 27q23 -82 91 -131t146 -49zM940 434q0 133 -86 220t-225 87t-225 -87t-87 -220q0 -133 86 -220q85 -87 225 -87t226 87t86 220zM139 434q1 197 141 330t349 133t349 -133
t140 -330t-140 -330t-349 -133t-349 133t-141 330z" />
    <glyph glyph-name="Ohungarumlaut" unicode="&#x150;" 
d="M590 1710q49 0 81 -33q31 -33 31 -90t-79 -114l-240 -179l-43 37l121 279q43 100 129 100zM1006 1710q46 0 78 -33t32 -90t-80 -114l-237 -179l-45 37l120 279q43 100 132 100zM985 584q0 194 -93 322t-263 128t-262 -128q-93 -128 -93 -322t92 -322q92 -127 263 -127
q170 0 263 127t93 322zM1165 585q0 -263 -147 -439t-389 -175q-242 0 -388 175q-147 174 -147 438t146 438t389 174q242 0 389 -174t147 -437z" />
    <glyph glyph-name="ohungarumlaut" unicode="&#x151;" 
d="M940 434q0 133 -86 220t-225 87t-225 -87t-87 -220q0 -133 86 -220q85 -87 225 -87t226 87t86 220zM139 434q1 197 141 330t349 133t349 -133t140 -330t-140 -330t-349 -133t-349 133t-141 330zM334 1061l121 278q43 100 129 101q47 0 80 -34q32 -34 32 -91t-80 -113
l-239 -180zM1110 1315q0 -57 -80 -113l-237 -180l-45 39l120 278q43 100 131 101q47 0 79 -34t32 -91z" />
    <glyph glyph-name="OE" unicode="&#x152;" 
d="M610 150v868q-188 0 -297 -123t-109 -311t109 -312q109 -122 297 -122zM1217 0h-609q-268 0 -423 164t-154 420q0 256 154 420q155 164 423 163h600v-434h-155v221l-64 64h-219v-356h225v-138h-225v-374h227l64 63v211h156v-424z" />
    <glyph glyph-name="oe" unicode="&#x153;" 
d="M920 -27q-98 1 -176 59t-121 161q-78 -219 -263 -220q-139 0 -233 132t-94 329t94 330t233 133q90 0 158 -59t105 -162q43 102 116 162q74 59 166 59q156 0 240 -152t84 -364h-516q8 -111 60 -181t147 -71q63 0 110 28t105 95l92 -109q-139 -170 -307 -170zM532 434
q0 133 -47 220t-124 87t-123 -87t-48 -219q0 -132 48 -218t124 -86t123 85t47 218zM1065 516q-6 96 -47 162t-115 66t-124 -61q-50 -60 -64 -167h350z" />
    <glyph glyph-name="Racute" unicode="&#x154;" 
d="M770 1710q49 0 81 -33t32 -90t-80 -114l-240 -179l-43 37l121 279q43 100 129 100zM580 0h-519v150h95l63 63v741l-63 64h-95v149h541q467 0 467 -329q0 -279 -338 -322l287 -360h180v-156h-389v150l-277 358h-155v-295l63 -63h140v-150zM377 1018v-361h221
q295 1 295 181t-295 180h-221z" />
    <glyph glyph-name="racute" unicode="&#x155;" 
d="M879 585q0 52 31 82q32 29 64 29t46 -6q-4 12 -14 23q-25 43 -111 43t-181 -74t-220 -221v-248l63 -63h344v-150h-792v150h167l64 63v442l-64 64h-167v149h385v-227q201 256 405 256q135 0 205 -73t70 -160t-44 -141t-110 -54q-65 0 -104 32q-37 32 -37 84zM899 1315
q0 -57 -80 -113l-239 -180l-43 39l120 278q43 100 129 101q47 0 80 -34t33 -91z" />
    <glyph glyph-name="Rcommaaccent" unicode="&#x156;" 
d="M580 0h-519v150h95l63 63v741l-63 64h-95v149h541q467 0 467 -329q0 -279 -338 -322l287 -360h180v-156h-389v150l-277 358h-155v-295l63 -63h140v-150zM377 1018v-361h221q295 1 295 181t-295 180h-221zM477 -276q0 63 42 104q41 41 101 41t102 -44q42 -45 42 -101
t-43 -113l-195 -238l-71 52l110 169q-88 34 -88 130z" />
    <glyph glyph-name="rcommaaccent" unicode="&#x157;" 
d="M879 585q0 52 31 82q32 29 64 29t46 -6q-4 12 -14 23q-25 43 -111 43t-181 -74t-220 -221v-248l63 -63h344v-150h-792v150h167l64 63v442l-64 64h-167v149h385v-227q201 256 405 256q135 0 205 -73t70 -160t-44 -141t-110 -54q-65 0 -104 32q-37 32 -37 84zM268 -276
q0 63 42 104t102 41t101 -44q42 -45 42 -101t-43 -113l-195 -238l-71 52l110 169q-88 34 -88 130z" />
    <glyph glyph-name="Rcaron" unicode="&#x158;" 
d="M580 0h-519v150h95l63 63v741l-63 64h-95v149h541q467 0 467 -329q0 -279 -338 -322l287 -360h180v-156h-389v150l-277 358h-155v-295l63 -63h140v-150zM377 1018v-361h221q295 1 295 181t-295 180h-221zM586 1294q-57 0 -113 74l-207 277l58 47l262 -195l262 195l57 -47
l-207 -277q-55 -74 -112 -74z" />
    <glyph glyph-name="rcaron" unicode="&#x159;" 
d="M879 585q0 52 31 82q32 29 64 29t46 -6q-4 12 -14 23q-25 43 -111 43t-181 -74t-220 -221v-248l63 -63h344v-150h-792v150h167l64 63v442l-64 64h-167v149h385v-227q201 256 405 256q135 0 205 -73t70 -160t-44 -141t-110 -54q-65 0 -104 32q-37 32 -37 84zM649 1022
q-57 0 -112 74l-207 276l57 47l262 -192l262 192l58 -47l-207 -276q-56 -74 -113 -74z" />
    <glyph glyph-name="Sacute" unicode="&#x15a;" 
d="M772 1710q49 0 81 -33t32 -90t-80 -114l-240 -179l-43 37l121 279q43 100 129 100zM689 127q116 0 177 53t62 142q0 121 -164 163l-275 72q-163 43 -243 113t-80 210t106 228t280 88t298 -129l39 18v82h158v-405h-136q-53 141 -151 210q-98 68 -202 68t-164 -44t-60 -114
t47 -102q47 -33 143 -57l277 -76q295 -78 295 -315q0 -162 -109 -261t-293 -100q-98 0 -191 42t-151 106l-37 -23v-96h-157v451h135q53 -158 167 -241t229 -83z" />
    <glyph glyph-name="sacute" unicode="&#x15b;" 
d="M190 650q0 108 92 178t226 69q205 0 321 -117l37 13v75h146v-307h-119q-57 86 -159 142q-102 57 -192 57q-88 0 -136 -29t-50 -76q0 -47 39 -69t123 -39l320 -68q115 -25 176 -80t61 -169t-95 -186q-95 -73 -255 -73q-233 0 -369 140l-37 -25v-86h-143v332h133
q172 -221 408 -221q86 -1 139 31t53 84q-1 52 -33 74q-32 20 -100 34l-305 61q-139 29 -210 88t-71 167zM512 1061l121 278q43 100 129 101q47 0 80 -34q32 -34 32 -91t-79 -113l-240 -180z" />
    <glyph glyph-name="Scircumflex" unicode="&#x15c;" 
d="M618 1686q57 0 113 -74l207 -277l-57 -47l-263 193l-262 -193l-57 47l207 277q55 74 112 74zM689 127q116 0 177 53t62 142q0 121 -164 163l-275 72q-163 43 -243 113t-80 210t106 228t280 88t298 -129l39 18v82h158v-405h-136q-53 141 -151 210q-98 68 -202 68t-164 -44
t-60 -114t47 -102q47 -33 143 -57l277 -76q295 -78 295 -315q0 -162 -109 -261t-293 -100q-98 0 -191 42t-151 106l-37 -23v-96h-157v451h135q53 -158 167 -241t229 -83z" />
    <glyph glyph-name="scircumflex" unicode="&#x15d;" 
d="M190 650q0 108 92 178t226 69q205 0 321 -117l37 13v75h146v-307h-119q-57 86 -159 142q-102 57 -192 57q-88 0 -136 -29t-50 -76q0 -47 39 -69t123 -39l320 -68q115 -25 176 -80t61 -169t-95 -186q-95 -73 -255 -73q-233 0 -369 140l-37 -25v-86h-143v332h133
q172 -221 408 -221q86 -1 139 31t53 84q-1 52 -33 74q-32 20 -100 34l-305 61q-139 29 -210 88t-71 167zM623 1417q57 0 112 -74l207 -276l-57 -47l-262 192l-263 -192l-57 47l207 276q56 74 113 74z" />
    <glyph glyph-name="Scedilla" unicode="&#x15e;" 
d="M605 -483q-97 0 -175 40t-115 124l107 73q51 -123 172 -123t121 86q0 43 -39 67t-117 13l-86 66l62 137q-115 41 -183 119l-37 -23v-96h-157v451h135q53 -158 167 -241t230 -83t176 53q61 53 62 142q0 121 -164 163l-275 72q-163 43 -243 113t-80 210t106 228t280 88
t298 -129l39 18v82h158v-405h-136q-53 141 -151 210q-98 68 -202 68t-164 -44t-60 -114t47 -102q47 -33 143 -57l277 -76q295 -78 295 -315q0 -162 -109 -261t-293 -100q-18 0 -55 4l-29 -69q109 0 172 -49q64 -49 64 -143t-72 -145q-72 -52 -169 -52z" />
    <glyph glyph-name="scedilla" unicode="&#x15f;" 
d="M862 -286q0 -94 -72 -145q-72 -52 -169 -52t-175 40t-114 124l106 73q51 -123 172 -123t121 86q0 43 -39 67t-117 13l-86 66l62 133q-121 37 -195 115l-37 -25v-86h-143v332h133q172 -221 408 -221q86 -1 139 31t53 84t-32 73q-33 20 -101 35l-305 61q-139 29 -210 88
t-71 167t92 178t226 69q205 0 321 -117l37 13v75h146v-307h-119q-57 86 -159 142q-102 57 -192 57q-88 0 -136 -29t-50 -76q0 -47 39 -69t123 -39l320 -68q115 -25 176 -80t61 -169t-95 -186q-95 -73 -255 -73q-25 0 -70 4l-28 -69q109 0 172 -49t63 -143z" />
    <glyph glyph-name="Scaron" unicode="&#x160;" 
d="M618 1294q-57 0 -112 74l-207 277l57 47l262 -195l263 195l57 -47l-207 -277q-56 -74 -113 -74zM689 127q116 0 177 53t62 142q0 121 -164 163l-275 72q-163 43 -243 113t-80 210t106 228t280 88t298 -129l39 18v82h158v-405h-136q-53 141 -151 210q-98 68 -202 68
t-164 -44t-60 -114t47 -102q47 -33 143 -57l277 -76q295 -78 295 -315q0 -162 -109 -261t-293 -100q-98 0 -191 42t-151 106l-37 -23v-96h-157v451h135q53 -158 167 -241t229 -83z" />
    <glyph glyph-name="scaron" unicode="&#x161;" 
d="M190 650q0 108 92 178t226 69q205 0 321 -117l37 13v75h146v-307h-119q-57 86 -159 142q-102 57 -192 57q-88 0 -136 -29t-50 -76q0 -47 39 -69t123 -39l320 -68q115 -25 176 -80t61 -169t-95 -186q-95 -73 -255 -73q-233 0 -369 140l-37 -25v-86h-143v332h133
q172 -221 408 -221q86 -1 139 31t53 84q-1 52 -33 74q-32 20 -100 34l-305 61q-139 29 -210 88t-71 167zM623 1022q-57 0 -113 74l-207 276l57 47l263 -192l262 192l57 -47l-207 -276q-55 -74 -112 -74z" />
    <glyph glyph-name="Tcommaaccent" unicode="&#x162;" 
d="M619 -483q-97 0 -175 40t-114 124l106 73q51 -123 172 -123t121 86q0 43 -39 67t-117 13l-86 66l62 137h-305v150h235l64 63v805h-217l-64 -64v-282h-156v495h1045v-495h-156v282l-63 64h-217v-805l63 -63h236v-150h-350l-39 -94q109 0 172 -49t63 -143t-72 -145
q-72 -52 -169 -52z" />
    <glyph glyph-name="tcommaaccent" unicode="&#x163;" 
d="M681 -483q-97 0 -175 40t-115 124l107 73q51 -123 172 -123t121 86q0 43 -39 67t-117 13l-86 66l55 125q-258 66 -258 395v272l-63 64h-193v149h256v316h160v-316h481v-149h-420l-63 -64v-249q0 -279 237 -279q96 0 167 44t145 134l100 -98q-75 -106 -183 -171t-229 -65
h-26l-29 -65q109 0 172 -49q64 -49 64 -143t-72 -145q-72 -52 -169 -52z" />
    <glyph glyph-name="Tcaron" unicode="&#x164;" 
d="M106 1167h1045v-495h-156v282l-63 64h-217v-805l63 -63h236v-150h-770v150h235l64 63v805h-217l-64 -64v-282h-156v495zM627 1294q-57 0 -113 74l-207 277l58 47l262 -195l262 195l57 -47l-207 -277q-55 -74 -112 -74z" />
    <glyph glyph-name="tcaron" unicode="&#x165;" 
d="M90 719v149h256v316h160v-316h481v-149h-420l-63 -64v-249q0 -279 237 -279q96 0 167 44t145 134l100 -98q-75 -106 -183 -171t-229 -65q-186 1 -290 101t-105 311v272l-63 64h-193zM926 1509q45 1 78 -31q32 -32 32 -82t-53 -110l-217 -254l-53 25l84 325
q29 127 129 127z" />
    <glyph glyph-name="Tbar" unicode="&#x166;" 
d="M1014 150v-150h-770v150h235l64 63v238h-209v149h209v418h-217l-64 -64v-282h-156v495h1045v-495h-156v282l-63 64h-217v-418h209v-149h-209v-238l63 -63h236z" />
    <glyph glyph-name="tbar" unicode="&#x167;" 
d="M741 -29q-186 1 -290 101t-105 311v25h-256v143h256v104l-63 64h-193v149h256v316h160v-316h481v-149h-420l-63 -64v-104h430v-143h-430v-2q0 -279 237 -279q96 0 167 44t145 134l100 -98q-75 -106 -183 -171t-229 -65z" />
    <glyph glyph-name="Utilde" unicode="&#x168;" 
d="M629 -29q-180 0 -302 119t-122 297v567l-64 64h-100v149h485v-149h-100l-64 -64v-565q0 -117 79 -191t188 -73q109 0 187 74t79 190v565l-64 64h-98v149h484v-149h-99l-63 -64v-567q0 -178 -123 -297t-303 -119zM879 1579h147q0 -131 -63 -208t-151 -77t-185 71
q-96 71 -137 71t-72 -37t-31 -99h-145q0 129 62 206t165 77q72 0 168 -71q96 -70 138 -70t73 38t31 99z" />
    <glyph glyph-name="utilde" unicode="&#x169;" 
d="M848 1313h147q0 -131 -63 -208q-64 -77 -152 -77t-184 71t-137 71t-72 -38q-31 -36 -31 -98h-145q0 129 62 206t165 77q70 0 168 -71q98 -70 139 -70t72 38t31 99zM698 868h328v-655l64 -63h110v-150h-328v139q-49 -70 -130 -119t-181 -49q-147 0 -242 86q-94 86 -94 242
v356l-63 64h-111v149h328v-510q0 -117 43 -176t145 -59q199 0 305 203v329l-63 64h-111v149z" />
    <glyph glyph-name="Umacron" unicode="&#x16a;" 
d="M629 -29q-180 0 -302 119t-122 297v567l-64 64h-100v149h485v-149h-100l-64 -64v-565q0 -117 79 -191t188 -73q109 0 187 74t79 190v565l-64 64h-98v149h484v-149h-99l-63 -64v-567q0 -178 -123 -297t-303 -119zM313 1489h633v-152h-633v152z" />
    <glyph glyph-name="umacron" unicode="&#x16b;" 
d="M287 1217h633v-150h-633v150zM698 868h328v-655l64 -63h110v-150h-328v139q-49 -70 -130 -119t-181 -49q-147 0 -242 86q-94 86 -94 242v356l-63 64h-111v149h328v-510q0 -117 43 -176t145 -59q199 0 305 203v329l-63 64h-111v149z" />
    <glyph glyph-name="Ubreve" unicode="&#x16c;" 
d="M629 -29q-180 0 -302 119t-122 297v567l-64 64h-100v149h485v-149h-100l-64 -64v-565q0 -117 79 -191t188 -73q109 0 187 74t79 190v565l-64 64h-98v149h484v-149h-99l-63 -64v-567q0 -178 -123 -297t-303 -119zM630 1448q80 0 146 48t88 132l111 -26q-29 -150 -121 -232
t-224 -82t-224 82t-123 232l110 26q23 -82 91 -131t146 -49z" />
    <glyph glyph-name="ubreve" unicode="&#x16d;" 
d="M603 1180q79 0 146 48t89 132l110 -27q-29 -149 -121 -231t-224 -82t-224 82t-123 231l111 27q23 -82 90 -131t146 -49zM698 868h328v-655l64 -63h110v-150h-328v139q-49 -70 -130 -119t-181 -49q-147 0 -242 86q-94 86 -94 242v356l-63 64h-111v149h328v-510
q0 -117 43 -176t145 -59q199 0 305 203v329l-63 64h-111v149z" />
    <glyph glyph-name="Uring" unicode="&#x16e;" 
d="M868 1511q0 -100 -68 -169q-68 -68 -170 -68q-101 0 -170 68t-69 169q0 100 69 169t169 69q99 0 169 -69t70 -169zM743 1510q0 52 -31 84q-32 32 -83 32t-83 -32t-32 -83t32 -84t83 -33t83 32q31 32 31 84zM629 -29q-180 0 -302 119t-122 297v567l-64 64h-100v149h485
v-149h-100l-64 -64v-565q0 -117 79 -191t188 -73q109 0 187 74t79 190v565l-64 64h-98v149h484v-149h-99l-63 -64v-567q0 -178 -123 -297t-303 -119z" />
    <glyph glyph-name="uring" unicode="&#x16f;" 
d="M698 868h328v-655l64 -63h110v-150h-328v139q-49 -70 -130 -119t-181 -49q-147 0 -242 86q-94 86 -94 242v356l-63 64h-111v149h328v-510q0 -117 43 -176t145 -59q199 0 305 203v329l-63 64h-111v149zM842 1239q0 -100 -69 -168q-69 -67 -170 -67t-170 68t-68 167
q0 100 68 169q69 69 169 69t170 -69t70 -169zM719 1239q0 53 -33 86t-84 33t-84 -33t-33 -86t33 -86t84 -33t84 33t33 86z" />
    <glyph glyph-name="Uhungarumlaut" unicode="&#x170;" 
d="M590 1710q49 0 81 -33q31 -33 31 -90t-79 -114l-240 -179l-43 37l121 279q43 100 129 100zM1006 1710q46 0 78 -33t32 -90t-80 -114l-237 -179l-45 37l120 279q43 100 132 100zM629 -29q-180 0 -302 119t-122 297v567l-64 64h-100v149h485v-149h-100l-64 -64v-565
q0 -117 79 -191t188 -73q109 0 187 74t79 190v565l-64 64h-98v149h484v-149h-99l-63 -64v-567q0 -178 -123 -297t-303 -119z" />
    <glyph glyph-name="uhungarumlaut" unicode="&#x171;" 
d="M670 1315q0 -57 -80 -113l-240 -180l-43 39l121 278q43 100 129 101q47 0 80 -34t33 -91zM721 1061l121 278q43 100 131 101q47 0 79 -34t32 -91t-80 -113l-238 -180zM698 868h328v-655l64 -63h110v-150h-328v139q-49 -70 -130 -119t-181 -49q-147 0 -242 86
q-94 86 -94 242v356l-63 64h-111v149h328v-510q0 -117 43 -176t145 -59q199 0 305 203v329l-63 64h-111v149z" />
    <glyph glyph-name="Uogonek" unicode="&#x172;" 
d="M594 -481q-86 0 -133 45q-47 44 -47 112t43 134t143 161q-170 10 -283 128t-112 288v567l-64 64h-100v149h485v-149h-100l-64 -64v-565q0 -117 79 -191t188 -73q109 0 187 74t79 190v565l-64 64h-98v149h484v-149h-99l-63 -64v-567q1 -113 -53 -206t-144 -148
q-164 -147 -228 -218t-65 -110q-1 -51 59 -51t171 106l75 -106q-147 -135 -276 -135z" />
    <glyph glyph-name="uogonek" unicode="&#x173;" 
d="M834 -481q-86 0 -134 45q-47 45 -47 115q0 69 50 141t169 182v137q-49 -70 -130 -119t-181 -49q-147 0 -242 86q-94 86 -94 242v356l-63 64h-111v149h328v-510q0 -117 43 -176t145 -59q199 0 305 203v329l-63 64h-111v149h328v-655l64 -63h110v-150h-139
q-141 -127 -199 -193t-57 -102q-1 -51 59 -51t170 106l76 -106q-147 -135 -276 -135z" />
    <glyph glyph-name="Wcircumflex" unicode="&#x174;" 
d="M629 1686q57 0 112 -74l207 -277l-57 -47l-262 193l-262 -193l-58 47l207 277q56 74 113 74zM754 1018v149h487v-149h-102l-113 -1018h-281l-112 729l-111 -729h-291l-112 1018h-103v149h498v-149h-180l-41 -51l82 -817h43l104 718h223l105 -718h43l82 817l-41 51h-180z
" />
    <glyph glyph-name="wcircumflex" unicode="&#x175;" 
d="M803 719v149h422v-149h-86l-144 -719h-250l-116 500l-115 -500h-250l-143 719h-88v149h430v-149h-146l-32 -35l96 -557h37l108 498h211l109 -498h39l96 557l-33 35h-145zM629 1417q57 0 112 -74l207 -276l-57 -47l-262 192l-262 -192l-58 47l207 276q56 74 113 74z" />
    <glyph glyph-name="Ycircumflex" unicode="&#x176;" 
d="M629 1686q57 0 112 -74l207 -277l-57 -47l-262 193l-262 -193l-58 47l207 277q56 74 113 74zM1014 150v-150h-770v150h235l64 63v207l-396 598h-127v149h535v-149h-117l-61 -51l258 -418l258 418l-59 51h-119v149h522v-149h-127l-395 -598v-207l63 -63h236z" />
    <glyph glyph-name="ycircumflex" unicode="&#x177;" 
d="M653 1417q57 0 113 -74l207 -276l-58 -47l-262 192l-262 -192l-57 47l207 276q55 74 112 74zM45 -160q0 76 48 130q47 54 113 54t105 -34q39 -35 39 -91t-39 -89t-104 -31q19 -59 93 -59t128 68q53 69 135 232l-377 699h-108v149h461v-149h-101l-43 -45l256 -494l254 494
l-41 45h-100v149h444v-149h-110l-402 -750q-92 -174 -153 -252q-62 -79 -114 -105t-118 -26q-115 0 -191 70t-75 184z" />
    <glyph glyph-name="Ydieresis" unicode="&#x178;" 
d="M410 1311q-63 0 -108 44q-44 44 -44 104q0 61 44 105t108 44t107 -44q44 -44 44 -104t-44 -105q-44 -44 -107 -44zM850 1311q-63 0 -108 44q-44 44 -44 104q0 61 44 105t108 44t107 -44q44 -44 44 -104t-44 -105q-44 -44 -107 -44zM1014 150v-150h-770v150h235l64 63v207
l-396 598h-127v149h535v-149h-117l-61 -51l258 -418l258 418l-59 51h-119v149h522v-149h-127l-395 -598v-207l63 -63h236z" />
    <glyph glyph-name="Zacute" unicode="&#x179;" 
d="M782 1710q49 0 81 -33t32 -90t-80 -114l-240 -179l-43 37l121 279q43 100 129 100zM981 414h156v-414h-1014v176l792 842h-542l-64 -64v-211h-155v424h936v-196l-777 -821h605l63 63v201z" />
    <glyph glyph-name="zacute" unicode="&#x17a;" 
d="M952 383h150v-383h-948v164l712 563h-473l-63 -63v-168h-150v372h891v-163l-717 -564h535l63 64v178zM883 1315q0 -57 -80 -113l-240 -180l-43 39l121 278q43 100 129 101q47 0 80 -34t33 -91z" />
    <glyph glyph-name="Zdotaccent" unicode="&#x17b;" 
d="M981 414h156v-414h-1014v176l792 842h-542l-64 -64v-211h-155v424h936v-196l-777 -821h605l63 63v201zM631 1610q67 0 111 -44t44 -111t-44 -111t-110 -44t-110 46t-45 110q0 66 44 110t110 44z" />
    <glyph glyph-name="zdotaccent" unicode="&#x17c;" 
d="M633 1350q67 0 111 -45t44 -111t-44 -110t-110 -44t-111 44q-44 44 -44 110t44 111t110 45zM952 383h150v-383h-948v164l712 563h-473l-63 -63v-168h-150v372h891v-163l-717 -564h535l63 64v178z" />
    <glyph glyph-name="Zcaron" unicode="&#x17d;" 
d="M981 414h156v-414h-1014v176l792 842h-542l-64 -64v-211h-155v424h936v-196l-777 -821h605l63 63v201zM631 1294q-57 0 -113 74l-207 277l58 47l262 -195l262 195l57 -47l-207 -277q-55 -74 -112 -74z" />
    <glyph glyph-name="zcaron" unicode="&#x17e;" 
d="M952 383h150v-383h-948v164l712 563h-473l-63 -63v-168h-150v372h891v-163l-717 -564h535l63 64v178zM633 1022q-57 0 -113 74l-207 276l58 47l262 -192l262 192l57 -47l-207 -276q-55 -74 -112 -74z" />
    <glyph glyph-name="florin" unicode="&#x192;" 
d="M313 -367q-139 0 -211 87t-71 200q0 72 39 116t97 44t94 -33t36 -78t-27 -75t-71 -33q20 -90 114 -90q139 0 172 241l54 387h-240v148h262l37 270q53 379 346 379q139 0 210 -87t71 -200q0 -71 -39 -115q-38 -44 -96 -44t-94 32t-36 78q0 45 27 75t70 34q-6 39 -36 65
t-77 25q-141 0 -172 -242l-39 -270h268v-148h-288l-54 -385q-55 -381 -346 -381z" />
    <glyph glyph-name="Aringacute" unicode="&#x1fa;" 
d="M881 1911q0 -57 -80 -115l-240 -178l-43 37l121 278q43 100 129 101q49 0 81 -33t32 -90zM510 150v-150h-490v150h127l363 956q-119 68 -119 207q0 100 69 169q69 68 169 68t170 -68t69 -169q0 -143 -120 -207l362 -956h127v-150h-502v150h117l61 51l-69 188h-445
l-67 -188l61 -51h117zM455 539h336l-170 460zM743 1312q0 52 -31 84q-32 32 -83 32t-83 -32t-32 -83t32 -84t83 -33t83 32q31 32 31 84z" />
    <glyph glyph-name="aringacute" unicode="&#x1fb;" 
d="M854 1829q0 -57 -80 -115l-239 -178l-43 37l120 278q43 100 129 101q49 0 81 -33t32 -90zM827 1223q-1 -100 -69 -168t-169 -68t-170 68t-69 168t69 169q69 68 169 68t170 -68q69 -69 69 -169zM705 1223q0 53 -33 86t-84 33t-84 -34q-33 -32 -33 -85t33 -86t84 -33t84 33
t33 86zM299 217q0 -49 37 -76t94 -26q174 0 375 180v151l-367 -116q-139 -33 -139 -113zM162 655q0 117 127 179t303 63q176 0 276 -86t101 -231v-359q0 -94 65 -94q37 0 117 72l80 -113q-66 -63 -116 -89t-118 -26t-123 47t-67 129q-188 -176 -399 -176q-131 -1 -208 61
t-77 166t71 163q71 58 209 94l402 112v19q0 86 -66 132q-65 46 -181 46t-206 -33q62 -25 62 -84t-35 -89t-89 -30t-91 35t-37 92z" />
    <glyph glyph-name="AEacute" unicode="&#x1fc;" 
d="M354 150v-150h-334v160l379 807l-53 51h-98v149h971v-434h-156v221l-64 64h-221v-356h230v-138h-230v-374h230l63 63v211h156v-424h-744v150h74l64 63v176h-338l-88 -188l61 -51h98zM621 539v479h-43l-226 -479h269zM911 1710q49 0 81 -33t32 -90t-80 -114l-239 -179
l-43 37l120 279q43 100 129 100z" />
    <glyph glyph-name="aeacute" unicode="&#x1fd;" 
d="M916 -27q-160 0 -265 123q-160 -125 -301 -125t-222 68q-81 69 -81 191q1 122 107 188t282 69l103 5q8 92 45 174q-41 98 -160 98q-78 0 -152 -33q57 -20 58 -88q0 -43 -33 -72t-84 -29t-83 32t-32 88q0 106 100 171t226 64q164 0 242 -104q98 104 223 104
q157 0 241 -151t84 -365l-520 -19q14 -104 68 -168t131 -65q76 0 124 28t105 95l90 -109q-136 -170 -296 -170zM223 229q0 -53 37 -84t94 -30q106 0 234 82q-35 78 -47 159l-105 -4h-12q-201 -8 -201 -123zM1051 506v12q-11 96 -51 161t-116 65t-127 -66q-52 -66 -65 -182z
M963 1315q0 -57 -80 -113l-240 -180l-43 39l121 278q43 100 129 101q47 0 80 -34t33 -91z" />
    <glyph glyph-name="Oslashacute" unicode="&#x1fe;" 
d="M782 1710q49 0 81 -33t32 -90t-80 -114l-240 -179l-43 37l121 279q43 100 129 100zM1165 581q0 -259 -147 -435t-389 -175q-158 0 -285 82l-127 -178l-115 82l138 193q-146 168 -146 433t146 439t389 174q164 0 295 -88l118 166l115 -82l-129 -182q137 -170 137 -429z
M629 135q170 0 263 127q93 126 93 306t-63 294l-480 -672q78 -55 187 -55zM629 1034q-170 0 -262 -128q-93 -128 -93 -312t70 -299l483 676q-81 63 -198 63z" />
    <glyph glyph-name="oslashacute" unicode="&#x1ff;" 
d="M877 1315q0 -57 -80 -113l-240 -180l-43 39l121 278q43 100 129 101q47 0 80 -34t33 -91zM1118 433q0 -196 -140 -329t-349 -133q-129 0 -236 54l-135 -166l-115 84l133 163q-137 133 -137 329q1 196 141 329t349 133q127 0 241 -55l129 159l115 -83l-129 -160
q133 -129 133 -325zM629 119q137 0 227 91t90 214t-65 207l-389 -484q63 -28 137 -28zM629 750q-137 0 -227 -92t-91 -215q0 -124 68 -210l391 486q-61 31 -141 31z" />
    <glyph glyph-name="Scommaaccent" unicode="&#x218;" 
d="M689 127q116 0 177 53t62 142q0 121 -164 163l-275 72q-163 43 -243 113t-80 210t106 228t280 88t298 -129l39 18v82h158v-405h-136q-53 141 -151 210q-98 68 -202 68t-164 -44t-60 -114t47 -102q47 -33 143 -57l277 -76q295 -78 295 -315q0 -162 -109 -261t-293 -100
q-98 0 -191 42t-151 106l-37 -23v-96h-157v451h135q53 -158 167 -241t229 -83zM479 -276q0 63 41 104q42 41 102 41t102 -44q42 -45 42 -101t-43 -113l-195 -238l-71 52l110 169q-88 34 -88 130z" />
    <glyph glyph-name="scommaaccent" unicode="&#x219;" 
d="M190 650q0 108 92 178t226 69q205 0 321 -117l37 13v75h146v-307h-119q-57 86 -159 142q-102 57 -192 57q-88 0 -136 -29t-50 -76q0 -47 39 -69t123 -39l320 -68q115 -25 176 -80t61 -169t-95 -186q-95 -73 -255 -73q-233 0 -369 140l-37 -25v-86h-143v332h133
q172 -221 408 -221q86 -1 139 31t53 84q-1 52 -33 74q-32 20 -100 34l-305 61q-139 29 -210 88t-71 167zM483 -276q0 63 41 104q42 41 102 41t102 -44q42 -45 42 -101t-43 -113l-195 -238l-71 52l110 169q-88 34 -88 130z" />
    <glyph glyph-name="uni021A" unicode="&#x21a;" 
d="M106 1167h1045v-495h-156v282l-63 64h-217v-805l63 -63h236v-150h-770v150h235l64 63v805h-217l-64 -64v-282h-156v495zM487 -276q0 63 41 104q42 41 102 41t102 -44q42 -45 42 -101t-43 -113l-194 -238l-72 52l110 169q-88 34 -88 130z" />
    <glyph glyph-name="uni021B" unicode="&#x21b;" 
d="M90 719v149h256v316h160v-316h481v-149h-420l-63 -64v-249q0 -279 237 -279q96 0 167 44t145 134l100 -98q-75 -106 -183 -171t-229 -65q-186 1 -290 101t-105 311v272l-63 64h-193zM586 -276q0 63 41 104t101 41t102 -44q42 -45 42 -101t-43 -113l-194 -238l-72 52
l111 169q-88 34 -88 130z" />
    <glyph glyph-name="uni0237" unicode="&#x237;" 
d="M141 -70q0 78 48 132t117 54t110 -38q41 -39 41 -92t-35 -90t-88 -39q20 -57 80 -93t133 -34q133 0 202 85t68 246v594l-63 64h-416v149h633v-817q0 -217 -118 -337t-296 -120t-297 100t-119 236z" />
    <glyph glyph-name="circumflex" unicode="&#x2c6;" 
d="M629 1417q57 0 112 -74l207 -276l-57 -47l-262 192l-262 -192l-58 47l207 276q56 74 113 74z" />
    <glyph glyph-name="caron" unicode="&#x2c7;" 
d="M629 1022q-57 0 -113 74l-207 276l58 47l262 -192l262 192l57 -47l-207 -276q-55 -74 -112 -74z" />
    <glyph glyph-name="breve" unicode="&#x2d8;" 
d="M630 1180q80 0 146 48t88 132l111 -27q-29 -149 -121 -231t-224 -82t-224 82t-123 231l110 27q23 -82 91 -131t146 -49z" />
    <glyph glyph-name="dotaccent" unicode="&#x2d9;" 
d="M629 1350q67 0 111 -45t44 -111t-44 -110t-110 -44t-111 44q-44 44 -44 110t44 111t110 45z" />
    <glyph glyph-name="ring" unicode="&#x2da;" 
d="M868 1239q0 -100 -68 -168q-68 -67 -170 -67q-101 0 -170 68t-69 167q0 100 69 169t169 69q99 0 169 -69t70 -169zM745 1239q0 53 -32 86q-33 33 -84 33t-84 -33t-33 -86t33 -86t84 -33t84 33q32 33 32 86z" />
    <glyph glyph-name="ogonek" unicode="&#x2db;" 
d="M520 -295q0 -51 60 -51t170 106l75 -106q-147 -135 -276 -135q-86 0 -133 45t-47 123t75 169q76 91 279 267l90 -90q-165 -147 -229 -218t-64 -110z" />
    <glyph glyph-name="tilde" unicode="&#x2dc;" 
d="M874 1313h148q0 -131 -64 -208t-151 -77q-88 0 -184 71q-95 71 -137 71t-72 -38q-30 -36 -31 -98h-145q0 129 62 206t165 77q72 0 168 -71q96 -70 138 -70t73 37q30 39 30 100z" />
    <glyph glyph-name="hungarumlaut" unicode="&#x2dd;" 
d="M594 1315q0 -57 -80 -113l-240 -180l-43 39l121 278q43 100 129 101q47 0 80 -34t33 -91zM1008 1315q0 -57 -80 -113l-238 -180l-45 39l121 278q43 100 131 101q47 0 79 -34t32 -91z" />
    <glyph glyph-name="uni0326" unicode="&#x326;" 
d="M496 -276q0 63 41 104t101 41t102 -44q42 -45 42 -101t-43 -113l-194 -238l-72 52l111 169q-88 34 -88 130z" />
    <glyph glyph-name="Wgrave" unicode="&#x1e80;" 
d="M754 1018v149h487v-149h-102l-113 -1018h-281l-112 729l-111 -729h-291l-112 1018h-103v149h498v-149h-180l-41 -51l82 -817h43l104 718h223l105 -718h43l82 817l-41 51h-180zM477 1710q86 0 129 -100l121 -279l-43 -37l-240 179q-80 57 -80 114t32 90t81 33z" />
    <glyph glyph-name="wgrave" unicode="&#x1e81;" 
d="M387 1314q0 58 33 92t80 34q86 0 129 -101l121 -278l-43 -39l-240 180q-80 54 -80 112zM803 719v149h422v-149h-86l-144 -719h-250l-116 500l-115 -500h-250l-143 719h-88v149h430v-149h-146l-32 -35l96 -557h37l108 498h211l109 -498h39l96 557l-33 35h-145z" />
    <glyph glyph-name="Wacute" unicode="&#x1e82;" 
d="M754 1018v149h487v-149h-102l-113 -1018h-281l-112 729l-111 -729h-291l-112 1018h-103v149h498v-149h-180l-41 -51l82 -817h43l104 718h223l105 -718h43l82 817l-41 51h-180zM782 1710q49 0 81 -33t32 -90t-80 -114l-240 -179l-43 37l121 279q43 100 129 100z" />
    <glyph glyph-name="wacute" unicode="&#x1e83;" 
d="M803 719v149h422v-149h-86l-144 -719h-250l-116 500l-115 -500h-250l-143 719h-88v149h430v-149h-146l-32 -35l96 -557h37l108 498h211l109 -498h39l96 557l-33 35h-145zM879 1315q0 -57 -80 -113l-240 -180l-43 39l121 278q43 100 129 101q47 0 80 -34t33 -91z" />
    <glyph glyph-name="Wdieresis" unicode="&#x1e84;" 
d="M754 1018v149h487v-149h-102l-113 -1018h-281l-112 729l-111 -729h-291l-112 1018h-103v149h498v-149h-180l-41 -51l82 -817h43l104 718h223l105 -718h43l82 817l-41 51h-180zM410 1311q-63 0 -108 44q-44 44 -44 104q0 61 44 105t108 44t107 -44q44 -44 44 -104
t-44 -105q-44 -44 -107 -44zM850 1311q-63 0 -108 44q-44 44 -44 104q0 61 44 105t108 44t107 -44q44 -44 44 -104t-44 -105q-44 -44 -107 -44z" />
    <glyph glyph-name="wdieresis" unicode="&#x1e85;" 
d="M803 719v149h422v-149h-86l-144 -719h-250l-116 500l-115 -500h-250l-143 719h-88v149h430v-149h-146l-32 -35l96 -557h37l108 498h211l109 -498h39l96 557l-33 35h-145zM410 1051q-63 0 -108 43q-44 43 -44 104q0 62 44 106t108 44t107 -44q44 -44 44 -106t-44 -104
q-44 -43 -107 -43zM850 1049q-63 0 -108 44q-44 44 -44 105q0 60 44 104t108 44t107 -43q44 -43 44 -105t-44 -105q-44 -44 -107 -44z" />
    <glyph glyph-name="Ygrave" unicode="&#x1ef2;" 
d="M477 1710q86 0 129 -100l121 -279l-43 -37l-240 179q-80 57 -80 114t32 90t81 33zM1014 150v-150h-770v150h235l64 63v207l-396 598h-127v149h535v-149h-117l-61 -51l258 -418l258 418l-59 51h-119v149h522v-149h-127l-395 -598v-207l63 -63h236z" />
    <glyph glyph-name="ygrave" unicode="&#x1ef3;" 
d="M412 1314q0 58 32 92q33 34 80 34q86 0 129 -101l121 -278l-43 -39l-239 180q-80 54 -80 112zM45 -160q0 76 48 130q47 54 113 54t105 -34q39 -35 39 -91t-39 -89t-104 -31q19 -59 93 -59t128 68q53 69 135 232l-377 699h-108v149h461v-149h-101l-43 -45l256 -494
l254 494l-41 45h-100v149h444v-149h-110l-402 -750q-92 -174 -153 -252q-62 -79 -114 -105t-118 -26q-115 0 -191 70t-75 184z" />
    <glyph glyph-name="endash" unicode="&#x2013;" 
d="M297 475v170h664v-170h-664z" />
    <glyph glyph-name="emdash" unicode="&#x2014;" 
d="M113 475v170h1032v-170h-1032z" />
    <glyph glyph-name="quoteleft" unicode="&#x2018;" 
d="M813 842q0 -68 -52 -119t-128 -51t-129 54t-53 126t53 139l278 352l92 -63l-174 -270q113 -41 113 -168z" />
    <glyph glyph-name="quoteright" unicode="&#x2019;" 
d="M444 1138q0 68 52 119t129 51q76 0 129 -54t53 -126t-53 -139l-279 -352l-92 63l174 271q-113 41 -113 167z" />
    <glyph glyph-name="quotesinglbase" unicode="&#x201a;" 
d="M444 170q0 68 52 119t129 51q76 0 129 -54t53 -126t-53 -140l-279 -352l-92 64l174 270q-113 41 -113 168z" />
    <glyph glyph-name="quotedblleft" unicode="&#x201c;" 
d="M1049 842q-1 -68 -53 -119t-128 -51t-129 54t-53 126t53 139l279 352l92 -63l-174 -270q113 -41 113 -168zM530 842q0 -68 -52 -119t-128 -51t-129 54t-53 126t53 139l279 352l92 -63l-174 -270q112 -41 112 -168z" />
    <glyph glyph-name="quotedblright" unicode="&#x201d;" 
d="M737 1138q1 68 53 119t128 51t129 -54t53 -126t-53 -139l-279 -352l-92 63l174 271q-113 41 -113 167zM219 1138q0 68 52 119t128 51t129 -54q54 -54 54 -126t-54 -139l-278 -352l-92 63l174 271q-113 41 -113 167z" />
    <glyph glyph-name="quotedblbase" unicode="&#x201e;" 
d="M737 172q1 68 53 119t128 51t129 -54t53 -126t-53 -139l-279 -353l-92 64l174 270q-113 41 -113 168zM219 172q0 68 52 119t128 51t129 -54q54 -54 54 -126t-54 -139l-278 -353l-92 64l174 270q-113 41 -113 168z" />
    <glyph glyph-name="dagger" unicode="&#x2020;" 
d="M702 897v-424h-145v424h-274v141h274v256h145v-256h273v-141h-273z" />
    <glyph glyph-name="daggerdbl" unicode="&#x2021;" 
d="M702 651v-178h-145v178h-274v140h274v194h-274v141h274v168h145v-168h273v-141h-273v-194h273v-140h-273z" />
    <glyph glyph-name="bullet" unicode="&#x2022;" 
d="M1055 604q0 -174 -124 -297t-302 -123t-301 123t-123 297t123 297t301 123t302 -123t124 -297z" />
    <glyph glyph-name="ellipsis" unicode="&#x2026;" 
d="M76 125q0 63 44 107t107 44t107 -44t45 -107q0 -63 -44 -107q-43 -44 -107 -45q-64 1 -108 45t-44 107zM477 125q0 63 44 107q43 44 107 44t108 -44t44 -107t-44 -107t-107 -45q-63 0 -108 44q-44 45 -44 108zM883 125q0 63 44 107t107 44q64 0 108 -44t44 -107t-44 -107
t-108 -45q-64 1 -107 45q-44 44 -44 107z" />
    <glyph glyph-name="perthousand" unicode="&#x2030;" 
d="M201 1198q84 0 142 -59t58 -143t-58 -142q-58 -57 -142 -57t-143 58q-58 58 -58 141t58 143q59 59 143 59zM690 1194l90 -53l-690 -1164l-90 56zM96 995q0 -45 30 -75t74 -29q44 0 76 31q32 30 31 74q1 44 -31 75t-76 31t-74 -31t-30 -76zM579 393q83 0 142 -58t59 -142
q0 -85 -59 -143t-142 -58t-143 59q-59 59 -59 141t59 142q60 59 143 59zM579 88q45 0 75 31t30 75t-31 74t-75 31q-44 0 -74 -31q-31 -30 -31 -74t31 -75t75 -31zM1056 393q83 0 142 -59t59 -141q0 -81 -59 -141t-142 -60t-142 58q-58 58 -58 142t58 143q59 58 142 58z
M1058 88q44 0 74 31t30 75t-30 74t-74 31q-44 0 -75 -31q-31 -30 -31 -74t31 -75t75 -31z" />
    <glyph glyph-name="guilsinglleft" unicode="&#x2039;" 
d="M610 455l226 -271l-125 -104l-301 375l301 374l125 -102z" />
    <glyph glyph-name="guilsinglright" unicode="&#x203a;" 
d="M647 455l-225 272l125 102l301 -374l-301 -375l-125 104z" />
    <glyph glyph-name="fraction" unicode="&#x2044;" 
d="M1085 1194l89 -74l-1002 -1140l-88 75z" />
    <glyph glyph-name="uni2070" unicode="&#x2070;" 
d="M817 856q0 123 -49 205t-139 82q-91 0 -139 -82t-48 -205t48 -205t138 -82t140 82q49 82 49 205zM295 856q0 178 92 299t242 121q151 0 243 -121t92 -299t-92 -299q-94 -121 -244 -121t-241 121q-92 121 -92 299z" />
    <glyph glyph-name="uni2074" unicode="&#x2074;" 
d="M997 635h-131l-51 -51v-127h-137v127l-49 51h-369v170q98 104 200 258q101 154 156 287l144 -45q-80 -188 -365 -551h283v184h137v-184h182v-119z" />
    <glyph glyph-name="uni2075" unicode="&#x2075;" 
d="M776 713q0 53 -32 83t-89 29q-92 0 -123 -75h-174l21 505h506v-129h-381l-15 -254q21 33 71 57t110 23q119 0 181 -72t62 -167q0 -168 -156 -270q-157 -101 -388 -132l-25 125q200 31 316 101t116 176z" />
    <glyph glyph-name="uni2076" unicode="&#x2076;" 
d="M631 563q65 -1 111 45t46 110t-46 108t-112 44t-110 -44q-45 -44 -45 -108t45 -110t111 -45zM645 997q123 1 202 -77t79 -199t-86 -203t-209 -82q-76 0 -144 34q-155 78 -155 276t142 364t382 233l37 -120q-266 -86 -377 -273q53 47 129 47z" />
    <glyph glyph-name="uni2077" unicode="&#x2077;" 
d="M430 934h-129v321h655v-153l-413 -793l-123 56l395 761h-336l-49 -49v-143z" />
    <glyph glyph-name="uni2078" unicode="&#x2078;" 
d="M629 440q-129 0 -216 70t-87 186t129 185v18q-41 25 -72 72t-31 106q0 113 78 183t199 70t199 -70t77 -183q0 -59 -31 -106t-71 -72v-18q129 -68 129 -185q0 -116 -87 -186t-216 -70zM469 696q0 -61 45 -95t115 -34q71 0 115 34t44 96q0 63 -43 95t-116 31
q-160 0 -160 -127zM629 954q61 0 100 33t39 91t-38 90t-101 32t-101 -32t-39 -90t39 -91t101 -33z" />
    <glyph glyph-name="uni2079" unicode="&#x2079;" 
d="M469 994q0 -66 45 -108q45 -44 112 -44q68 0 112 44t44 109t-45 109t-111 45q-66 -1 -111 -45q-46 -44 -46 -110zM627 1276q75 0 143 -34q156 -78 156 -286q0 -207 -156 -389t-393 -245l-37 120q291 90 401 318q-68 -45 -114 -45q-125 0 -210 80q-85 81 -85 199t86 200
t209 82z" />
    <glyph glyph-name="uni2080" unicode="&#x2080;" 
d="M817 92q0 123 -49 205t-139 82q-91 0 -139 -82t-48 -205t48 -205t138 -82t140 82q49 82 49 205zM295 92q0 178 92 299t242 121q151 0 243 -121t92 -299t-92 -299q-94 -121 -244 -121t-241 121q-92 121 -92 299z" />
    <glyph glyph-name="uni2081" unicode="&#x2081;" 
d="M707 492v-629l49 -49h225v-121h-700v121h235l49 49v489l-211 -141l-73 111l251 170h175z" />
    <glyph glyph-name="uni2082" unicode="&#x2082;" 
d="M670 512q116 0 185 -67t69 -166t-79 -170q-55 -52 -151 -119l-243 -176h325l53 49v84h129v-254h-659v162l297 229q10 8 70 52t82 79q20 39 20 73t-28 62t-88 27q-60 0 -130 -44t-121 -116l-110 84q63 91 163 151t216 60z" />
    <glyph glyph-name="uni2083" unicode="&#x2083;" 
d="M344 365v127h545v-164l-219 -148h30q98 0 160 -62t64 -168q0 -106 -85 -195q-153 -160 -479 -206l-24 127q196 31 322 105t126 178q0 59 -38 93t-104 34t-153 -57l-63 86l328 250h-410z" />
    <glyph glyph-name="uni2084" unicode="&#x2084;" 
d="M997 -131h-131l-51 -49v-127h-137v127l-49 49h-369v172q98 104 200 258q101 154 156 287l144 -45q-80 -188 -365 -551h283v184h137v-184h182v-121z" />
    <glyph glyph-name="uni2085" unicode="&#x2085;" 
d="M776 -51q0 53 -32 83t-89 29q-92 0 -123 -75h-174l21 506h506v-130h-381l-15 -253q21 33 71 57t110 22q119 0 181 -72t62 -167q0 -168 -156 -270q-157 -101 -388 -132l-25 125q196 29 314 100t118 177z" />
    <glyph glyph-name="uni2086" unicode="&#x2086;" 
d="M631 -201q65 1 111 45t46 110t-45 108q-45 44 -111 44t-112 -44q-45 -44 -45 -109t45 -109t111 -45zM645 233q123 -1 202 -79t79 -198t-86 -202t-209 -82q-76 0 -144 34q-155 78 -155 276t142 364t382 234l37 -121q-266 -86 -377 -273q53 47 129 47z" />
    <glyph glyph-name="uni2087" unicode="&#x2087;" 
d="M430 170h-129v322h655v-154l-413 -793l-123 56l395 761h-336l-49 -49v-143z" />
    <glyph glyph-name="uni2088" unicode="&#x2088;" 
d="M629 -324q-129 0 -216 70t-87 186t129 185v18q-41 25 -72 72t-31 106q0 113 78 183t199 70t199 -70t77 -183q0 -59 -31 -106t-71 -72v-18q129 -68 129 -185q0 -116 -87 -186t-216 -70zM469 -68q0 -61 45 -95t115 -34q71 0 115 34t44 96q0 63 -43 95t-116 31
q-160 0 -160 -127zM629 190q61 0 100 33t39 91t-38 90t-101 32t-101 -32t-39 -90t39 -91t101 -33z" />
    <glyph glyph-name="uni2089" unicode="&#x2089;" 
d="M469 230q0 -66 45 -108q45 -44 112 -44q68 0 112 44t44 109t-45 109t-111 45q-66 -1 -111 -45q-46 -44 -46 -110zM627 512q75 0 143 -34q156 -78 156 -285t-156 -389t-393 -248l-37 122q289 86 401 318q-63 -45 -114 -45q-125 0 -210 80q-85 81 -85 199t86 200t209 82z
" />
    <glyph glyph-name="Euro" unicode="&#x20ac;" 
d="M729 -27q-193 0 -323 118t-177 310h-198l24 121h156q-2 20 -2 64t2 65h-137l26 121h131q49 190 185 307t323 117q188 0 301 -100t113 -232q0 -63 -42 -108t-99 -45t-97 40q-39 40 -38 91q0 78 77 106q-82 86 -210 86t-210 -70t-118 -192h375l-25 -121h-375q-2 -23 -2 -65
t2 -64h359l-23 -121h-315q32 -123 114 -195t203 -71q186 0 342 193l105 -117q-193 -238 -447 -238z" />
    <glyph glyph-name="uni2117" unicode="&#x2117;" 
d="M629 1151q237 0 405 -167q168 -166 168 -402t-168 -403t-406 -167t-405 167q-168 167 -168 403t168 402t406 167zM630 104q196 0 338 142t142 337q0 196 -142 337t-339 141t-339 -141t-142 -337q0 -195 142 -337q144 -142 340 -142zM668 535h-109v-148l35 -35h92v-86
h-305v86h47l35 35v381l-35 35h-47v84h287q250 0 250 -176t-250 -176zM559 797v-172h107q143 0 143 86t-143 86h-107z" />
    <glyph glyph-name="trademark" unicode="&#x2122;" 
d="M80 1167h477v-225h-88v117l-31 28h-71v-344l30 -28h97v-80h-347v80h91l30 28v344h-71l-31 -28v-117h-86v225zM762 1075v-332l29 -28h40v-80h-208v80h26l31 28v316l-31 28h-26v80h206l70 -286l70 286h205v-80h-31l-29 -28v-316l29 -28h31v-80h-209v80h41l30 28v332h-24
l-66 -266h-96l-64 266h-24z" />
    <glyph glyph-name="uni2153" unicode="&#x2153;" 
d="M709 524l-39 39l368 432l113 -114zM403 1276v-485h181v-101h-484v101h189v370l-150 -100l-59 92l180 123h143zM543 438l39 -39l-367 -432l-113 115zM739 264v105h402v-136l-127 -106q70 -6 112 -49t41 -111q-1 -123 -119 -195t-292 -94l-23 103q319 57 320 186
q0 39 -26 61q-65 55 -179 -22l-51 70l233 188h-291z" />
    <glyph glyph-name="uni2154" unicode="&#x2154;" 
d="M739 264v105h402v-136l-127 -106q70 -6 112 -49t41 -111q-1 -123 -119 -195t-292 -94l-23 103q319 57 320 186q0 39 -26 61q-65 55 -179 -22l-51 70l233 188h-291zM543 438l39 -39l-367 -432l-113 115zM709 524l-39 39l368 432l113 -114zM346 1286q96 0 146 -48t49 -122
q0 -109 -172 -217l-172 -113h374v-100h-497v131l213 154q51 37 71 52q54 40 56 93q0 25 -18 42t-52 18q-100 0 -190 -117l-84 69q121 158 276 158z" />
    <glyph glyph-name="uni215B" unicode="&#x215b;" 
d="M952 -260q-94 0 -160 53t-67 137q0 45 31 84t71 54v12q-35 16 -59 49t-23 74q1 84 59 136t147 52t149 -52t59 -136q1 -41 -23 -74t-59 -49v-12q41 -14 72 -54t31 -84q0 -84 -67 -137t-161 -53zM952 -158q45 0 79 25t34 65t-31 65q-31 23 -80 23t-82 -24q-32 -24 -32 -65
t34 -65t78 -24zM952 291q-42 0 -70 -25q-28 -24 -28 -62t30 -62t68 -24t69 24q30 24 30 62t-29 62t-70 25zM543 438l39 -39l-367 -432l-113 115zM403 1276v-485h181v-101h-484v101h189v370l-150 -100l-59 92l180 123h143zM709 524l-39 39l368 432l113 -114z" />
    <glyph glyph-name="uni215C" unicode="&#x215c;" 
d="M709 524l-39 39l368 432l113 -114zM543 438l39 -39l-367 -432l-113 115zM119 1149v104h401v-135l-127 -106q68 -6 110 -49t42 -111q0 -123 -119 -195t-293 -94l-22 103q322 57 321 186q0 38 -26 60t-72 22q-45 0 -109 -43l-51 70l236 188h-291zM952 -260q-94 0 -160 53
t-67 137q0 45 31 84t71 54v12q-35 16 -59 49t-23 74q1 84 59 136t147 52t149 -52t59 -136q1 -41 -23 -74t-59 -49v-12q41 -14 72 -54t31 -84q0 -84 -67 -137t-161 -53zM952 -158q45 0 79 25t34 65t-31 65q-31 23 -80 23t-82 -24q-32 -24 -32 -65t34 -65t78 -24zM952 291
q-42 0 -70 -25q-28 -24 -28 -62t30 -62t68 -24t69 24q30 24 30 62t-29 62t-70 25z" />
    <glyph glyph-name="uni215D" unicode="&#x215d;" 
d="M709 524l-39 39l368 432l113 -114zM543 438l39 -39l-367 -432l-113 115zM500 1253v-108h-275l-8 -166q14 23 50 38t71 15q92 0 138 -51t46 -125q0 -121 -115 -197q-116 -75 -286 -100l-19 107q305 49 306 190q0 35 -22 54t-54 20q-61 0 -82 -56h-137l16 379h371z
M952 -158q45 0 79 25t34 65t-31 65q-31 23 -80 23t-82 -24q-32 -24 -32 -65t34 -65t78 -24zM952 -260q-94 0 -160 53t-67 137q0 45 31 84t71 54v12q-35 16 -59 49t-23 74q1 84 59 136t147 52t149 -52t59 -136q1 -41 -23 -74t-59 -49v-12q41 -14 72 -54t31 -84
q0 -84 -67 -137t-161 -53zM952 291q-42 0 -70 -25q-28 -24 -28 -62t30 -62t68 -24t69 24q30 24 30 62t-29 62t-70 25z" />
    <glyph glyph-name="uni215E" unicode="&#x215e;" 
d="M543 438l39 -39l-367 -432l-113 115zM709 524l-39 39l368 432l113 -114zM211 1145v-141h-105v251h496v-129l-317 -565l-103 47l303 537h-274zM952 291q-42 0 -70 -25q-28 -24 -28 -62t30 -62t68 -24t69 24q30 24 30 62t-29 62t-70 25zM952 -158q45 0 79 25t34 65t-31 65
q-31 23 -80 23t-82 -24q-32 -24 -32 -65t34 -65t78 -24zM952 -260q-94 0 -160 53t-67 137q0 45 31 84t71 54v12q-35 16 -59 49t-23 74q1 84 59 136t147 52t149 -52t59 -136q1 -41 -23 -74t-59 -49v-12q41 -14 72 -54t31 -84q0 -84 -67 -137t-161 -53z" />
    <glyph glyph-name="minus" unicode="&#x2212;" 
d="M168 504v149h924v-149h-924z" />
    <glyph glyph-name="approxequal" unicode="&#x2248;" 
d="M846 610q-78 0 -213 56t-213 55q-121 0 -289 -127v164q147 113 281 112q80 0 215 -55t211 -55q123 0 290 127v-164q-150 -113 -282 -113zM420 389q-115 0 -289 -127v162q147 113 281 113q80 1 215 -55t211 -56q117 0 290 127v-162q-150 -113 -282 -112q-78 0 -213 55
t-213 55z" />
    <glyph glyph-name="notequal" unicode="&#x2260;" 
d="M166 350v135h321l136 187h-457v137h557l162 225l92 -65l-115 -160h230v-137h-330l-133 -187h463v-135h-562l-163 -227l-95 63l119 164h-225z" />
    <glyph glyph-name="lessequal" unicode="&#x2264;" 
d="M213 78v147h809v-147h-809zM213 618v185l809 307v-164l-651 -235l651 -234v-164z" />
    <glyph glyph-name="greaterequal" unicode="&#x2265;" 
d="M1044 78h-808v147h808v-147zM1044 618l-808 -305v164l651 234l-651 235v164l808 -307v-185z" />
    <glyph glyph-name="i.dot" 
d="M487 1194q0 66 44 111t110 45t111 -45t45 -111t-45 -110q-44 -44 -110 -44t-111 44q-44 44 -44 110zM1104 150v-150h-903v150h334l63 63v442l-63 64h-334v149h551v-655l63 -63h289z" />
    <glyph glyph-name="braceleft.cap" 
d="M174 479v160h123q90 0 135 29t45 102q0 18 -35 148t-34 184q0 123 87 200q87 76 230 76t248 -55l-35 -147q-88 51 -197 51q-168 0 -168 -140q0 -45 35 -165t35 -152q0 -82 -54 -137t-122 -74q68 -17 122 -73t54 -138q0 -30 -35 -150t-35 -176t42 -93q42 -38 136 -38
t187 52l35 -146q-99 -57 -245 -57t-233 78t-87 200q0 54 34 184t35 146q0 74 -45 103t-135 28h-123z" />
    <glyph glyph-name="braceright.cap" 
d="M1083 479h-122q-90 0 -136 -28q-45 -29 -45 -103q0 -16 35 -145t35 -185q0 -122 -87 -200t-233 -78t-245 57l34 146q93 -51 187 -51q178 -1 178 141q0 45 -35 166t-35 149q0 82 54 137t123 74q-68 17 -122 73t-55 138q0 31 35 152t35 165q0 139 -168 140q-109 0 -197 -51
l-34 147q104 55 247 55t231 -76q87 -77 87 -200q0 -53 -35 -183t-35 -149q0 -74 45 -102t136 -29h122v-160z" />
    <glyph glyph-name="bracketleft.cap" 
d="M489 1223v-1317h447v-150h-598v1616h598v-149h-447z" />
    <glyph glyph-name="bracketright.cap" 
d="M768 1223h-446v149h598v-1616h-598v150h446v1317z" />
    <glyph glyph-name="parenleft.cap" 
d="M502 565q0 -213 119 -396t319 -306l-88 -125q-514 311 -514 827t514 828l88 -125q-202 -122 -320 -306t-118 -397z" />
    <glyph glyph-name="parenright.cap" 
d="M756 565q0 213 -119 397t-320 306l89 125q514 -311 514 -827t-514 -828l-89 125q201 123 320 306t119 396z" />
    <glyph glyph-name="guillemotleft.cap" 
d="M590 307l-125 -104l-301 375l301 374l125 -102l-225 -272zM1044 307l-122 -104l-301 375l301 374l122 -102l-223 -272z" />
    <glyph glyph-name="guillemotright.cap" 
d="M668 307l225 271l-225 272l125 102l301 -374l-301 -375zM213 307l223 271l-223 272l123 102l301 -374l-301 -375z" />
    <glyph glyph-name="guilsinglleft.cap" 
d="M610 578l226 -271l-125 -104l-301 375l301 374l125 -102z" />
    <glyph glyph-name="guilsinglright.cap" 
d="M647 578l-225 272l125 102l301 -374l-301 -375l-125 104z" />
    <glyph glyph-name="questiondown.cap" 
d="M815 1038q0 -63 -45 -108t-108 -45t-109 45q-45 46 -45 110t45 109t109 45t108 -46q45 -46 45 -110zM557 782h193v-223q-195 -35 -288 -84t-93 -150t77 -153q78 -51 182 -51t172 32q69 32 89 74q-90 37 -90 111q0 53 40 92q39 39 103 39t108 -47t44 -117
q0 -137 -130 -235t-327 -98t-321 94q-124 96 -124 248t94 231q93 78 271 123v114z" />
    <glyph glyph-name="exclamdown.cap" 
d="M676 766l94 -612q12 -74 -27 -127t-115 -53t-114 52q-39 54 -27 128l95 612h94zM629 1196q63 0 108 -45t45 -109t-45 -110q-45 -45 -108 -45t-109 45q-45 45 -45 108t45 110q46 46 109 46z" />
    <glyph glyph-name="slash.cap" 
d="M119 -162l878 1526l142 -80l-879 -1528z" />
    <glyph glyph-name="bar.cap" 
d="M715 1366v-1614h-170v1614h170z" />
    <glyph glyph-name="backslash.cap" 
d="M1139 -162l-142 -82l-878 1528l141 80z" />
    <glyph glyph-name="a.ord" 
d="M287 1012q0 84 94 132t223 48t204 -64t75 -161v-254q0 -51 39 -51q20 0 82 47l61 -91q-90 -84 -172 -83q-51 -1 -91 31t-50 87q-145 -119 -287 -118q-96 0 -151 43q-54 44 -54 116t44 106t136 62l310 90v19q0 51 -48 82t-131 31q-84 0 -141 -19q43 -21 43 -61t-26 -62
q-25 -22 -65 -22t-68 25q-27 26 -27 67zM750 766v94l-273 -92q-72 -18 -71 -63q0 -59 79 -60q118 0 265 121z" />
    <glyph glyph-name="b.ord" 
d="M459 551h-219v123h69l25 22v602l-25 23h-76v121h226v-367q84 113 223 113t230 -95q92 -95 92 -233t-92 -234t-228 -96q-137 0 -225 113v-92zM864 860q0 90 -51 148t-137 57q-129 0 -217 -137v-137q86 -135 217 -136q86 -1 137 57t51 148z" />
    <glyph glyph-name="c.ord" 
d="M864 858q-44 0 -72 28t-28 72q0 43 53 68q-63 41 -155 41t-162 -55q-70 -56 -70 -146t56 -148t175 -58t240 92l76 -101q-154 -121 -319 -121t-269 94t-104 234q0 139 109 235q110 95 256 95t234 -65t87 -152q0 -45 -32 -79t-75 -34z" />
    <glyph glyph-name="d.ord" 
d="M645 1442h279v-746l22 -22h74v-123h-219v92q-93 -113 -229 -113t-227 96t-91 233t91 233t228 96t228 -113v223l-25 23h-131v121zM584 1065q-88 0 -138 -57q-50 -56 -51 -148q0 -92 50 -149t139 -58q125 1 217 138v137q-92 137 -217 137z" />
    <glyph glyph-name="e.ord" 
d="M651 530q-162 0 -264 94t-102 235t100 235t260 94t252 -112t92 -265h-565q16 -66 74 -109t170 -43t229 91l72 -97q-156 -123 -318 -123zM634 1061q-71 0 -129 -37t-79 -102h403q-15 60 -69 99q-55 40 -126 40z" />
    <glyph glyph-name="f.ord" 
d="M557 1143h227v-123h-176l-51 -49v-248l51 -49h176v-123h-510v123h109l49 49v248l-49 49h-109v123h158q0 139 90 229t252 90q115 0 187 -56q71 -56 71 -120t-34 -100q-34 -35 -85 -35t-83 28q-32 27 -32 63t22 60t54 29q-43 33 -98 33q-100 0 -160 -59q-59 -60 -59 -162z
" />
    <glyph glyph-name="g.ord" 
d="M801 535h-406q-29 -27 -28 -60q0 -96 254 -96q117 0 189 31t71 78q0 47 -80 47zM1010 494q0 -98 -109 -167t-289 -69t-280 54t-101 153q0 76 78 127q-35 37 -35 88q0 88 91 137q-55 61 -55 151t73 156q74 64 190 64q68 0 115 -21q82 131 217 131q72 0 119 -42t47 -99
t-29 -88q-28 -31 -70 -31t-68 27t-26 69t37 56q-8 8 -26 8q-70 0 -119 -78q72 -66 72 -160t-75 -161q-75 -66 -194 -66q-70 0 -129 27q-47 -29 -47 -62t43 -32h348q222 0 222 -172zM702 963q0 49 -36 77t-90 29q-56 0 -93 -30q-37 -29 -37 -77t37 -79t91 -31t92 31
q36 31 36 80z" />
    <glyph glyph-name="h.ord" 
d="M594 674v-123h-358v123h69l51 49v547l-51 51h-69v121h245v-367q89 113 205 113t186 -62t70 -172v-231l51 -49h68v-123h-354v123h59l51 49v180q0 47 -7 78t-36 57t-80 27q-139 0 -213 -139v-203l51 -49h62z" />
    <glyph glyph-name="i.ord" 
d="M520 1393q0 51 35 86t86 35t86 -36q35 -34 35 -85t-35 -85t-86 -34t-86 34t-35 85zM967 674v-123h-648v123h232l51 49v272l-51 52h-232v120h408v-444l51 -49h189z" />
    <glyph glyph-name="j.ord" 
d="M672 1393q0 51 34 86t84 35t87 -34q35 -34 35 -86t-36 -86q-34 -34 -86 -34t-84 34q-34 34 -34 85zM281 510q0 61 38 104q39 43 93 43q54 -1 88 -31q32 -30 32 -71t-28 -71t-66 -31q31 -80 137 -80q180 0 181 221v401l-49 52h-281v120h457v-579q0 -152 -85 -239
q-84 -87 -214 -87t-216 74t-87 174z" />
    <glyph glyph-name="k.ord" 
d="M573 674v-123h-340v123h58l51 49v547l-51 51h-72v121h246v-572l266 154l-2 23h-65v120h344v-120h-60l-258 -154l191 -219h155v-123h-325v123l-131 155l-115 -69v-37l51 -49h57z" />
    <glyph glyph-name="l.ord" 
d="M967 674v-123h-648v123h232l51 49v547l-51 51h-232v121h408v-719l51 -49h189z" />
    <glyph glyph-name="m.ord" 
d="M1040 551h-223v463q0 47 -46 47t-79 -88v-422h-119v463q0 47 -47 47t-80 -88v-422h-213v123h70l23 22v328l-23 23h-70v120h213v-80q31 101 119 101t121 -96q33 96 131 96q55 0 87 -37t32 -96v-359l25 -22h79v-123z" />
    <glyph glyph-name="n.ord" 
d="M594 674v-123h-358v123h69l51 49v272l-51 52h-69v120h245v-92q89 113 205 113t186 -62t70 -172v-231l51 -49h68v-123h-356v123h61l51 49v180q0 47 -7 78t-36 57t-80 27q-139 0 -213 -139v-203l51 -49h62z" />
    <glyph glyph-name="o.ord" 
d="M838 860q0 88 -58 144t-150 55q-92 0 -150 -55q-58 -56 -58 -144t57 -144t149 -56t152 56q58 56 58 144zM276 860q0 140 102 234t251 94q150 0 252 -94t102 -234t-102 -234q-102 -96 -252 -96q-149 0 -251 96t-102 234z" />
    <glyph glyph-name="p.ord" 
d="M614 401v-122h-374v122h69l25 23v600l-25 23h-69v120h219v-92q84 113 223 113t230 -95q92 -95 92 -233t-92 -234t-228 -96q-137 0 -225 113v-219l22 -23h133zM864 860q0 90 -51 148t-137 57q-129 0 -217 -137v-137q86 -135 217 -136q86 -1 137 57t51 148z" />
    <glyph glyph-name="q.ord" 
d="M572 530q-136 0 -227 96t-91 233t91 233t228 96t228 -113v92h219v-120h-74l-22 -23v-600l22 -23h74v-122h-375v122h131l25 23v219q-93 -113 -229 -113zM584 1065q-88 0 -138 -57q-50 -58 -51 -148q0 -90 50 -147t139 -58q127 0 217 136v137q-92 137 -217 137z" />
    <glyph glyph-name="r.ord" 
d="M821 1073q-65 0 -129 -49t-157 -156v-145l51 -49h233v-123h-559v123h98l52 49v272l-52 52h-98v120h275v-153q139 174 286 174q101 0 153 -56t52 -120t-34 -107t-84 -43q-107 0 -107 99q-1 35 23 57t50 20q26 0 29 -2q-18 37 -82 37z" />
    <glyph glyph-name="s.ord" 
d="M311 1008q-1 80 63 130t180 50t204 -74l28 8v45h119v-223h-96q-41 55 -114 93t-130 38t-88 -17t-31 -44q0 -47 107 -68l233 -49q168 -35 168 -172q0 -90 -68 -142t-181 -53q-158 0 -259 93l-28 -21v-51h-117v242h109q133 -150 288 -150q121 0 121 76q0 25 -20 37
q-21 12 -66 22l-221 45q-201 43 -201 185z" />
    <glyph glyph-name="t.ord" 
d="M246 1047v120h182v224h131v-224h324v-120h-275l-51 -52v-157q0 -180 152 -181q67 0 113 30t106 95l80 -80q-54 -78 -134 -124t-165 -48q-281 0 -281 289v176l-49 52h-133z" />
    <glyph glyph-name="u.ord" 
d="M680 1167h246v-444l49 -49h69v-123h-243v92q-91 -113 -207 -113t-186 62t-70 172v231l-49 52h-70v120h246v-352q0 -80 27 -120t94 -40q141 0 215 138v202l-51 52h-70v120z" />
    <glyph glyph-name="v.ord" 
d="M711 1047v120h319v-120h-76l-270 -496h-111l-270 496h-76v120h334v-120h-53l-35 -35l162 -316l164 316l-35 35h-53z" />
    <glyph glyph-name="w.ord" 
d="M750 1047v120h309v-120h-60l-98 -496h-199l-73 340l-74 -340h-199l-98 496h-57v120h311v-120h-96l-25 -27l60 -367h26l68 334h174l67 -334h25l61 367l-24 27h-98z" />
    <glyph glyph-name="x.ord" 
d="M1032 674v-123h-356v123h84l18 24l-149 109l-150 -109l21 -24h82v-123h-357v123h49l271 190l-252 183h-53v120h346v-120h-70l-20 -27l133 -94l133 94l-21 27h-69v120h346v-120h-53l-252 -181l270 -192h49z" />
    <glyph glyph-name="y.ord" 
d="M403 258q-88 0 -146 54t-58 128q0 76 33 116q34 40 81 40t76 -26t29 -66q0 -92 -99 -86q10 -55 84 -56q31 0 62 30t51 65t62 112l-261 478h-77v120h333v-120h-55l-33 -35l164 -312l162 312l-33 35h-55v120h319v-120h-75l-281 -515q-41 -76 -60 -108q-68 -116 -133 -148
q-40 -18 -90 -18z" />
    <glyph glyph-name="z.ord" 
d="M852 834h121v-283h-686v133l495 369h-303l-51 -52v-108h-121v274h645v-131l-497 -370h346l51 51v117z" />
    <glyph glyph-name="zero.dnom" 
d="M815 399q0 123 -48 205t-138 82q-91 0 -139 -82t-48 -205t48 -205t138 -81q90 -1 139 81q48 82 48 205zM295 399q0 178 92 299t242 121q149 0 241 -121t92 -299t-92 -299q-92 -120 -242 -120t-241 120q-92 120 -92 299z" />
    <glyph glyph-name="one.dnom" 
d="M705 799v-627l51 -51h225v-121h-700v121h235l49 51v490l-211 -144l-73 111l249 170h175z" />
    <glyph glyph-name="two.dnom" 
d="M670 819q116 -1 184 -67t68 -168q0 -62 -41 -120t-77 -86t-112 -81l-241 -176h325l53 51v82h127v-254h-657v164l297 227q10 8 70 52t82 79q20 40 20 74t-28 62q-28 26 -88 26t-132 -45q-70 -45 -121 -115l-108 82q61 92 161 152q102 60 218 61z" />
    <glyph glyph-name="three.dnom" 
d="M344 672v127h545v-164l-219 -148h30q98 0 160 -62t62 -157q0 -168 -163 -273t-397 -138l-26 127q200 32 324 106t124 178q0 57 -39 91t-103 34t-153 -57l-63 86l328 250h-410z" />
    <glyph glyph-name="four.dnom" 
d="M997 176h-133l-49 -49v-127h-137v127l-49 49h-369v174q96 102 200 255q103 153 158 288l142 -45q-86 -203 -365 -551h283v184h137v-184h182v-121z" />
    <glyph glyph-name="five.dnom" 
d="M776 256q0 51 -33 82t-88 31q-90 0 -123 -76h-174l23 506h504v-129h-381l-15 -254q21 34 71 56t110 22q119 0 181 -72t62 -166q1 -168 -157 -269t-389 -132l-23 125q196 30 314 100t118 176z" />
    <glyph glyph-name="six.dnom" 
d="M788 260q0 66 -46 110t-112 44t-110 -44q-45 -44 -45 -110t45 -110t111 -44q65 0 111 44t46 110zM645 541q123 0 202 -79t79 -199t-86 -202t-209 -81q-169 0 -255 137q-44 70 -44 180q0 190 142 357t382 233l37 -121q-266 -86 -377 -272q51 47 129 47z" />
    <glyph glyph-name="seven.dnom" 
d="M430 475h-129v324h655v-154l-413 -792l-123 55l395 762h-336l-49 -49v-146z" />
    <glyph glyph-name="eight.dnom" 
d="M629 -16q-129 0 -216 70t-87 187q0 116 129 183v18q-41 23 -72 71t-31 108q0 111 78 181t199 70t199 -70t77 -181q0 -59 -31 -107t-71 -72v-18q129 -68 129 -184t-87 -186t-216 -70zM629 113q71 1 115 33t44 94t-43 95q-43 32 -117 32t-116 -32q-43 -32 -43 -94t45 -95
t115 -33zM629 498q61 0 100 32t39 90t-38 91t-101 33t-102 -33q-38 -33 -38 -90t39 -91q40 -32 101 -32z" />
    <glyph glyph-name="nine.dnom" 
d="M469 539q0 -66 46 -110t112 -44q67 0 111 44t44 110q0 65 -45 109t-111 44t-111 -44q-46 -44 -46 -109zM627 819q75 0 143 -34q156 -78 156 -285t-156 -389t-393 -246l-37 121q291 90 401 317q-68 -45 -114 -45q-125 0 -210 80t-85 199t86 201t209 81z" />
  </font>
</defs>
</svg>
