<?xml version="1.0" standalone="no"?>
<!DOCTYPE svg PUBLIC "-//W3C//DTD SVG 1.1//EN" "http://www.w3.org/Graphics/SVG/1.1/DTD/svg11.dtd" >
<svg xmlns="http://www.w3.org/2000/svg">
<metadata>
Created by FontPrep 20130207 at Sat Oct 17 13:11:36 2015
 By Callum Flack
(c)2012 Klim Type Foundry. All Rights Reserved.
</metadata>
<defs>
<font id="a5b5f595310f1955c7cc3fbd4474407c" horiz-adv-x='1024' >
  <font-face 
    font-family="CopyrightKlimTypeFoundry-NotLicensedforDesktopUse"
    font-weight="600"
    font-style="italic"
    font-stretch="normal"
    units-per-em="2048"
    panose-1="2 6 7 9 3 2 6 13 2 3"
    ascent="1561"
    descent="-487"
    x-height="868"
    cap-height="1167"
    bbox="-211.016 -631 1581 2030"
    underline-thickness="153"
    underline-position="-47"
    slope="-12"
    unicode-range="U+0020-2265"
  />
<missing-glyph 
 />
    <glyph glyph-name=".notdef" 
 />
    <glyph glyph-name=".null" horiz-adv-x="0" 
 />
    <glyph glyph-name="nonmarkingreturn" 
 />
    <glyph glyph-name="space" unicode=" " 
 />
    <glyph glyph-name="exclam" unicode="!" 
d="M563 -27q-63 0 -108 45q-45 46 -45 110t45 110t108 45q63 0 109 -45q46 -44 45 -108q0 -64 -45 -111q-46 -46 -109 -46zM777 1196q75 0 107 -64t3 -137l-223 -592h-95l41 617q4 76 48 126t119 50z" />
    <glyph glyph-name="quotedbl" unicode="&#x22;" 
d="M690 1169q0 -82 -53 -190l-166 -344h-55l20 377q8 141 40 207t114 65q100 0 100 -115zM1110 1169q0 -82 -53 -190l-166 -344h-55l20 377q8 141 40 207t114 65q100 0 100 -115z" />
    <glyph glyph-name="numbersign" unicode="#" 
d="M414 348l-164 -348h-148l164 348h-219l66 129h215l98 213h-227l63 131h227l162 346h150l-164 -346h268l164 346h148l-162 -346h217l-64 -131h-217l-98 -213h227l-61 -129h-228l-163 -348h-150l164 348h-268zM743 477l101 213h-269l-100 -213h268z" />
    <glyph glyph-name="dollar" unicode="$" 
d="M210 463q64 0 98 -34t34 -77t-24 -81t-68 -50q45 -66 211 -96l88 414l-47 16q-139 45 -208 110t-69 171q0 162 130 259t333 101l53 246h144l-56 -256q156 -27 253 -113t98 -194q0 -68 -45 -114t-103 -46t-91 33q-34 33 -34 79q0 86 86 109q-47 76 -194 100l-80 -378
l133 -44q115 -37 177 -95t63 -156q0 -174 -150 -287t-371 -113l-57 -266h-143l59 276q-170 25 -274 107t-105 197q0 76 48 129q47 53 111 53zM913 340q-1 36 -23 62t-46 37t-66 26l-94 31l-82 -383h8q129 9 216 73t87 154zM395 868q0 -66 43 -99q43 -34 127 -60l19 -7
l73 347q-115 -7 -189 -61t-73 -120z" />
    <glyph glyph-name="percent" unicode="%" 
d="M1233 1194l78 -90l-1213 -1124l-78 90zM928 387q-60 0 -104 -41t-44 -99t37 -96t96 -38t104 41q44 41 44 100t-37 96t-96 37zM645 244q0 116 85 196t203 80q119 0 191 -74t72 -190t-85 -197q-85 -79 -203 -79t-190 74t-73 190zM399 788q59 0 104 41q44 41 44 101t-37 97
q-37 38 -96 38q-60 0 -104 -42t-44 -100q0 -59 37 -97t96 -38zM394 655q-118 0 -190 74q-72 75 -73 191q0 116 85 196t203 80q119 0 191 -74t72 -190t-85 -197q-85 -80 -203 -80z" />
    <glyph glyph-name="ampersand" unicode="&#x26;" 
d="M39 260q0 127 86 216t272 177q-73 113 -73 229t95 216q95 98 231 98t208 -73q70 -73 70 -190t-101 -202q-77 -65 -200 -123l145 -213l330 281l86 -111l-336 -282l90 -133h213l-33 -150h-360l18 88l-57 86l-2 -2q-121 -102 -210 -150t-199 -48t-192 79q-81 80 -81 207z
M350 133q115 0 287 148l8 6l-170 252q-150 -74 -205 -130t-55 -127t38 -110t97 -39zM762 924q0 124 -120 123q-64 1 -111 -51q-48 -52 -48 -115t45 -129l21 -29q133 66 173 105q40 38 40 96z" />
    <glyph glyph-name="quotesingle" unicode="'" 
d="M899 1169q0 -82 -53 -190l-166 -344h-55l20 377q8 141 40 207t114 65q100 0 100 -115z" />
    <glyph glyph-name="parenleft" unicode="(" 
d="M514 377q0 -169 82 -315t225 -246l-119 -119q-160 111 -257 281t-97 362q0 365 220 626q192 227 487 386l61 -146q-272 -145 -437 -359t-165 -470z" />
    <glyph glyph-name="parenright" unicode=")" 
d="M784 672q0 170 -82 315t-225 246l119 119q160 -111 257 -281q97 -169 97 -363q0 -369 -220 -625q-193 -228 -486 -386l-62 145q272 146 437 360t165 470z" />
    <glyph glyph-name="asterisk" unicode="*" 
d="M610 936l-231 209l82 88l231 -205l66 309l116 -26l-63 -307l297 94l39 -115l-297 -96l233 -209l-82 -88l-233 205l-63 -310l-119 27l63 307l-297 -94l-39 115z" />
    <glyph glyph-name="plus" unicode="+" 
d="M723 518l-84 -389h-150l84 389h-391l31 150h391l84 393h150l-84 -393h393l-31 -150h-393z" />
    <glyph glyph-name="comma" unicode="," 
d="M373 160q0 76 53 127t129 51t129 -54t53 -124t-55 -140l-336 -378l-90 65l227 297q-110 45 -110 156z" />
    <glyph glyph-name="hyphen" unicode="-" 
d="M385 463l41 194h500l-41 -194h-500z" />
    <glyph glyph-name="period" unicode="." 
d="M379 156q0 76 53 129t129 53t129 -53t53 -129t-53 -129t-129 -53t-129 52q-53 54 -53 130z" />
    <glyph glyph-name="slash" unicode="/" 
d="M-18 -193l1202 1526l129 -90l-1202 -1528z" />
    <glyph glyph-name="zero" unicode="0" 
d="M580 135q174 1 286 187t111 413q0 135 -59 217q-60 82 -178 82t-211 -93t-140 -229t-47 -276t60 -220q60 -81 178 -81zM162 424q0 196 74 370t215 288t320 114t283 -128t103 -326q0 -198 -74 -370q-74 -173 -214 -287t-320 -114t-284 128q-103 129 -103 325z" />
    <glyph glyph-name="one" unicode="1" 
d="M254 911l434 256h217l-205 -954l50 -63h342l-31 -150h-1000l31 150h361l77 63l166 778l-374 -221z" />
    <glyph glyph-name="two" unicode="2" 
d="M795 1196q155 0 239 -78t84 -215t-140 -261q-73 -66 -125 -104t-153 -104l-434 -284h525l79 63l33 149h158l-78 -362h-938l43 199l518 352q193 131 238 174q88 84 88 178q2 57 -38 93t-120 36q-217 1 -432 -237l-113 112q254 289 566 289z" />
    <glyph glyph-name="three" unicode="3" 
d="M758 719q130 0 200 -78t70 -209t-84 -248q-84 -118 -225 -194q-272 -148 -637 -199v154q211 33 377 90q165 57 281 159t116 234q0 72 -46 117t-146 45t-242 -78l-72 117l570 383h-603l33 155h789l-43 -198l-396 -260q23 10 58 10z" />
    <glyph glyph-name="four" unicode="4" 
d="M1145 268h-217l-78 -63l-43 -205h-168l43 205l-49 63h-557l45 207q176 150 376 382t330 441l170 -53q-131 -207 -331 -435t-379 -392h442l59 278h168l-59 -278h281z" />
    <glyph glyph-name="five" unicode="5" 
d="M881 408q0 72 -43 112t-127 41q-139 0 -238 -115h-213l184 721h727l-32 -159h-578l-108 -406q49 49 131 82t164 33q154 0 230 -82t75 -210q0 -128 -83 -244q-146 -204 -515 -322q-160 -52 -328 -72l4 156q332 49 541 168t209 297z" />
    <glyph glyph-name="six" unicode="6" 
d="M348 354q0 -100 62 -165t178 -65q114 0 209 90q94 89 94 228q-1 100 -63 164t-176 64t-210 -89q-94 -90 -94 -227zM700 825q148 0 252 -105t105 -263q0 -207 -138 -346t-354 -140q-166 0 -271 115t-108 289q0 327 259 571t700 348l14 -151q-516 -139 -702 -404
q95 86 243 86z" />
    <glyph glyph-name="seven" unicode="7" 
d="M532 1010l-77 -64l-45 -213h-156l94 434h955l-41 -186l-861 -1196l-145 76l827 1149h-551z" />
    <glyph glyph-name="eight" unicode="8" 
d="M483 891q-1 -180 223 -180q104 1 179 65q73 64 73 156t-60 136t-164 44t-177 -64q-74 -64 -74 -157zM877 360q1 97 -71 143t-190 46t-200 -65t-82 -162t70 -143t190 -46q119 0 201 65t82 162zM1055 377q-1 -170 -141 -287t-328 -117t-310 89q-120 90 -120 224t75 225
q76 91 187 122l4 22q-113 67 -112 225t133 276q133 118 309 118t277 -90t103 -214t-66 -216q-67 -92 -159 -123l-4 -25q68 -29 110 -89t42 -140z" />
    <glyph glyph-name="nine" unicode="9" 
d="M981 813q0 100 -62 165q-62 64 -177 64q-116 0 -210 -89t-94 -226q0 -103 62 -165t179 -62q116 0 209 88t93 225zM626 342q-148 0 -250 105q-103 105 -104 266q0 207 140 345t352 138q168 0 272 -114t107 -289q1 -330 -273 -608t-708 -378l-15 150q251 68 435 196
t290 275q-98 -86 -246 -86z" />
    <glyph glyph-name="colon" unicode=":" 
d="M494 700q0 76 53 129t129 53t129 -52q53 -54 53 -130t-53 -129t-129 -53t-129 53t-53 129zM381 156q0 76 53 129t129 53t129 -53t53 -129t-53 -129t-129 -53t-129 52q-53 54 -53 130z" />
    <glyph glyph-name="semicolon" unicode=";" 
d="M494 700q0 76 53 129t129 53t129 -52q53 -54 53 -130t-53 -129t-129 -53t-129 53t-53 129zM373 160q0 76 53 127t129 51t129 -54t53 -124t-55 -140l-336 -378l-90 65l227 297q-110 45 -110 156z" />
    <glyph glyph-name="less" unicode="&#x3c;" 
d="M227 479l41 193l877 352l-39 -182l-717 -277l600 -274l-35 -166z" />
    <glyph glyph-name="equal" unicode="=" 
d="M223 670l29 143h922l-31 -143h-920zM154 348l28 139h922l-29 -139h-921z" />
    <glyph glyph-name="greater" unicode="&#x3e;" 
d="M1090 670l-41 -193l-875 -352l37 180l717 279l-600 274l37 166z" />
    <glyph glyph-name="question" unicode="?" 
d="M559 -27q-63 0 -108 46q-45 45 -45 109t45 110t108 45q63 0 109 -45t45 -110q1 -65 -45 -110t-109 -45zM975 870q0 84 -66 130t-166 46t-181 -27q-81 -28 -105 -69q92 -37 92 -98t-40 -99t-102 -38t-108 47q-45 47 -45 115q0 135 143 227t335 92t307 -90
q116 -90 115 -239t-123 -241t-316 -126l-25 -115h-194l49 223q209 36 319 96t111 166z" />
    <glyph glyph-name="at" unicode="@" 
d="M768 684q-80 0 -134 -43t-55 -103t33 -91q34 -32 101 -31q108 0 194 104l13 60q-37 104 -152 104zM254 279q0 -131 73 -203t197 -72q178 0 365 121l39 -129q-84 -63 -196 -102t-214 -39q-192 1 -308 115t-114 304q0 51 15 138l63 299q57 266 208 411t374 146
q182 0 277 -98t93 -273q0 -74 -18 -160l-55 -250q-2 -10 -2 -26q0 -43 43 -43q33 0 100 51l27 -113q-107 -78 -197 -78t-135 89q-86 -82 -208 -82q-121 -1 -189 67t-68 166q0 133 100 215t236 82q66 -1 121 -23t77 -55q19 57 20 158t-57 165t-178 64q-160 0 -265 -108
t-146 -305l-64 -303q-14 -66 -14 -129z" />
    <glyph glyph-name="A" unicode="A" 
d="M455 150l-33 -150h-498l33 150h127l602 1017h193l168 -1017h127l-33 -150h-496l33 150h119l69 51l-28 188h-443l-108 -188l49 -51h119zM815 539l-70 460l-264 -460h334z" />
    <glyph glyph-name="B" unicode="B" 
d="M584 0h-623l33 150h160l77 63l158 741l-51 64h-160l33 149h600q184 0 280 -68q95 -69 95 -185t-68 -198q-68 -81 -184 -108q86 -14 139 -79t55 -150q0 -175 -147 -277t-397 -102zM698 678q154 0 235 51t81 145q0 143 -242 144h-211l-74 -340h211zM610 150q166 0 258 59
t93 160q0 166 -269 166h-235l-82 -385h235z" />
    <glyph glyph-name="C" unicode="C" 
d="M622 -29q-234 -1 -364 137q-129 138 -129 357q0 295 182 513t451 218q180 0 282 -127l27 12l19 86h159l-90 -424h-123q-10 139 -80 215t-196 76q-193 0 -321 -170t-128 -395q0 -147 78 -241t219 -93q201 0 391 178l88 -123q-231 -219 -465 -219z" />
    <glyph glyph-name="D" unicode="D" 
d="M446 0h-479l33 150h121l76 61l157 743l-49 64h-121l33 149h467q260 0 396 -134t137 -365q1 -284 -215 -476t-556 -192zM479 150q250 0 402 148t151 370q0 160 -90 255t-278 95h-136l-186 -868h137z" />
    <glyph glyph-name="E" unicode="E" 
d="M375 150h467l78 63l45 211h155l-90 -424h-1069l33 150h160l77 63l156 741l-49 64h-160l33 149h1061l-94 -434h-156l47 221l-49 64h-459l-76 -356h170l78 63l25 125h131l-109 -512h-131l27 123l-49 63h-170z" />
    <glyph glyph-name="F" unicode="F" 
d="M707 0h-697l33 150h176l78 63l156 741l-50 64h-176l33 149h1067l-94 -434h-156l47 221l-49 64h-448l-76 -356h174l78 63l22 109h131l-102 -482h-131l22 109l-49 63h-174l-67 -311l49 -63h235z" />
    <glyph glyph-name="G" unicode="G" 
d="M508 -29q-178 -1 -292 139t-114 345q0 295 184 518t462 223q190 0 270 -121l33 12l16 80h152l-84 -393h-121q-8 115 -82 188t-187 72q-203 0 -331 -176t-129 -403q0 -147 71 -237q72 -89 203 -89q164 0 340 176l21 103l-35 49h-160l33 149h485l-33 -149h-69l-72 -60
l-84 -397h-154l19 82l-25 20q-139 -131 -317 -131z" />
    <glyph glyph-name="H" unicode="H" 
d="M983 954l-49 64h-98l32 149h484l-33 -149h-98l-78 -64l-158 -741l49 -63h101l-33 -150h-484l31 150h101l77 63l68 322h-492l-67 -322l49 -63h98l-30 -150h-486l33 150h98l78 63l158 741l-49 64h-101l33 149h485l-32 -149h-101l-77 -64l-56 -270h492z" />
    <glyph glyph-name="I" unicode="I" 
d="M651 954l-49 64h-276l32 149h852l-32 -149h-277l-78 -64l-157 -741l49 -63h276l-30 -150h-852l32 150h277l78 63z" />
    <glyph glyph-name="J" unicode="J" 
d="M457 -27q-175 1 -279 103t-104 246q0 106 54 172t133 66t124 -45q45 -44 45 -105q0 -60 -43 -104t-129 -38q4 -66 59 -108t159 -41q210 0 278 325l108 510l-51 64h-379l33 149h856l-33 -149h-178l-76 -64l-110 -520q-51 -225 -172 -343t-295 -118z" />
    <glyph glyph-name="K" unicode="K" 
d="M483 150l-30 -150h-486l33 150h98l78 63l160 741l-51 64h-101l33 149h485l-32 -149h-101l-75 -64l-91 -419l517 432l-50 51h-63l33 149h471l-33 -149h-111l-413 -346l268 -522h125l-31 -150h-498l31 150h99l71 51l-190 366l-264 -221l-29 -133l49 -63h98z" />
    <glyph glyph-name="L" unicode="L" 
d="M246 1167h567l-33 -149h-141l-78 -64l-170 -804h467l78 63l59 283h156l-107 -496h-1048l31 150h141l78 63l157 741l-49 64h-141z" />
    <glyph glyph-name="M" unicode="M" 
d="M719 399h-197l-30 592h-46l-165 -778l49 -63h98l-31 -150h-452l30 150h74l78 63l160 741l-51 64h-74l33 149h419l35 -630l299 630h428l-33 -149h-73l-76 -64l-160 -741l49 -63h74l-31 -150h-452l31 150h100l78 63l166 778h-48z" />
    <glyph glyph-name="N" unicode="N" 
d="M940 0h-168l-283 965l-159 -752l49 -63h100l-33 -150h-479l33 150h98l78 63l158 741l-49 64h-101l33 149h383l244 -897l145 684l-49 64h-100l32 149h480l-33 -149h-98l-78 -64z" />
    <glyph glyph-name="O" unicode="O" 
d="M584 135q194 0 316 163t122 388q0 158 -72 253t-211 95q-193 0 -315 -164t-123 -387q0 -158 72 -253t211 -95zM726 1196q246 0 362 -141t116 -369q0 -285 -182 -500t-426 -215q-244 -1 -362 141q-116 142 -115 371q0 285 181 499q180 214 426 214z" />
    <glyph glyph-name="P" unicode="P" 
d="M725 508h-244l-61 -295l49 -63h266l-30 -150h-744l33 150h190l78 63l158 741l-51 64h-191l33 149h655q399 0 400 -280q0 -187 -142 -283t-399 -96zM754 657q336 0 336 209q0 152 -261 152h-239l-76 -361h240z" />
    <glyph glyph-name="Q" unicode="Q" 
d="M301 483q0 -158 72 -253t211 -95q59 0 114 17l-102 198l141 76l101 -195q88 76 136 197q48 120 48 268t-72 243t-211 95q-193 0 -315 -164t-123 -387zM584 -29q-234 -1 -350 141t-115 371q0 285 181 499q180 214 426 214t362 -141t116 -369q0 -180 -79 -342t-212 -260
l93 -178l-140 -78l-92 178q-92 -35 -190 -35z" />
    <glyph glyph-name="R" unicode="R" 
d="M758 1167q201 1 303 -75t101 -216t-112 -238q-112 -97 -309 -122l205 -360h191l-33 -156h-377l33 150l-199 358h-170l-61 -295l49 -63h139l-33 -150h-518l33 150h92l78 63l160 741l-51 64h-95l33 149h541zM645 657q168 -1 251 57t85 144t-57 123t-179 37h-245l-76 -361
h221z" />
    <glyph glyph-name="S" unicode="S" 
d="M638 125q120 0 196 58t75 151q0 111 -149 153l-223 66q-133 41 -203 104t-70 174q0 165 119 265t305 100t297 -133l41 18l18 86h158l-86 -405h-135q-25 141 -110 212q-85 70 -192 70t-176 -50t-69 -122t43 -104t127 -57l225 -66q254 -80 254 -285q0 -170 -126 -280
t-316 -109q-111 0 -204 45t-142 109l-43 -23l-25 -102h-157l98 451h135q19 -158 117 -242t218 -84z" />
    <glyph glyph-name="T" unicode="T" 
d="M262 1167h1045l-107 -495h-156l60 282l-49 64h-217l-172 -805l49 -63h235l-30 -150h-770l32 150h236l78 63l170 805h-217l-78 -64l-60 -282h-155z" />
    <glyph glyph-name="U" unicode="U" 
d="M568 -29q-192 0 -301 122q-108 122 -68 308l118 553l-51 64h-100l33 149h485l-33 -149h-100l-76 -64l-117 -551q-26 -121 36 -199t182 -79q120 0 203 72t110 192l119 565l-52 64h-98l33 149h483l-33 -149h-98l-76 -64l-120 -567q-41 -188 -164 -302t-315 -114z" />
    <glyph glyph-name="V" unicode="V" 
d="M631 0h-193l-168 1018h-127l33 149h496l-33 -149h-117l-71 -51l118 -783l449 783l-49 51h-117l31 149h510l-33 -149h-127z" />
    <glyph glyph-name="W" unicode="W" 
d="M825 868l-59 -718h43l276 817l-30 51h-181l33 149h490l-31 -149h-104l-351 -1018h-280l55 729l-283 -729h-290l131 1018h-105l33 149h496l-31 -149h-180l-54 -51l-114 -817h41l282 718h213z" />
    <glyph glyph-name="X" unicode="X" 
d="M461 150l-33 -150h-500l33 150h123l483 452l-274 416h-88l31 149h469l-31 -149h-117l-49 -33l176 -280l295 280l-35 33h-115l31 149h475l-30 -149h-91l-452 -422l293 -446h123l-33 -150h-488l33 150h103l49 32l-197 310l-323 -310l34 -32h105z" />
    <glyph glyph-name="Y" unicode="Y" 
d="M711 420l-45 -207l49 -63h235l-30 -150h-770l32 150h236l78 63l43 207l-269 598h-127l33 149h524l-32 -149h-119l-70 -51l168 -418l348 418l-51 51h-117l33 149h533l-33 -149h-127z" />
    <glyph glyph-name="Z" unicode="Z" 
d="M279 150h575l78 63l43 201h155l-88 -414h-1013l39 176l944 842h-516l-78 -64l-45 -211h-156l92 424h936l-43 -196z" />
    <glyph glyph-name="bracketleft" unicode="[" 
d="M649 1182l-278 -1317h446l-33 -150h-598l344 1616h598l-32 -149h-447z" />
    <glyph glyph-name="backslash" unicode="\" 
d="M1012 -223l-152 -60l-579 1538l151 60z" />
    <glyph glyph-name="bracketright" unicode="]" 
d="M647 -135l279 1317h-447l33 149h598l-344 -1616h-598l33 150h446z" />
    <glyph glyph-name="asciicircum" unicode="^" 
d="M709 1196h165l248 -502h-174l-174 361l-323 -361h-203z" />
    <glyph glyph-name="underscore" unicode="_" 
d="M145 -285l37 166h664l-37 -166h-664z" />
    <glyph glyph-name="grave" unicode="`" 
d="M759 1440q50 0 81 -34t39 -79l63 -266l-49 -37l-188 178q-63 54 -63 112t33 92q34 34 84 34z" />
    <glyph glyph-name="a" unicode="a" 
d="M266 371q0 -111 65 -180t173 -69t186 53q78 52 158 157l41 205q-70 209 -287 208q-144 0 -240 -109t-96 -265zM952 -29q-64 0 -103 47q-40 47 -32 127q-150 -174 -329 -174t-284 113t-106 287q0 215 152 371t352 155q119 0 206 -56t118 -130l67 186h129l-149 -702
q-16 -74 24 -74q25 0 47 30t66 105l123 -51q-95 -175 -177 -215q-40 -20 -104 -19z" />
    <glyph glyph-name="b" unicode="b" 
d="M775 897q179 0 279 -112t99 -287q0 -213 -152 -370t-352 -157q-119 1 -207 57t-118 132l-33 -160h-154l228 1073l-27 33h-117l31 149h303l-113 -532q154 174 333 174zM649 123q145 0 241 110q95 111 95 265q-1 112 -65 180t-172 68t-187 -53q-78 -52 -160 -156l-41 -205
q74 -209 289 -209z" />
    <glyph glyph-name="c" unicode="c" 
d="M952 428q-60 0 -102 38q-41 38 -43 93q0 84 82 113q-75 80 -215 80t-248 -94t-109 -257q0 -121 82 -199t224 -77q178 0 358 141l86 -121q-217 -174 -442 -173t-354 120q-128 120 -128 322t160 342q159 140 365 140q206 -1 317 -90t113 -218q0 -68 -43 -114t-103 -46z" />
    <glyph glyph-name="d" unicode="d" 
d="M266 371q0 -111 65 -180t173 -69t186 53q78 52 158 157l41 205q-70 209 -287 208q-144 0 -240 -109t-96 -265zM952 -29q-64 0 -103 47q-40 47 -32 127q-150 -174 -329 -174t-284 113t-106 287q0 215 152 371t352 155q119 0 206 -56t118 -130l78 362l-25 33h-201l31 149
h389l-225 -1060q-16 -74 24 -74q25 0 47 30t66 105l123 -51q-95 -175 -177 -215q-40 -20 -104 -19z" />
    <glyph glyph-name="e" unicode="e" 
d="M626 -29q-222 0 -354 120q-131 119 -131 317t163 344t403 145q177 0 287 -79t110 -202q0 -160 -209 -228t-584 -38q17 -98 97 -162t206 -63q190 0 365 133l80 -121q-211 -166 -433 -166zM934 616q0 58 -64 94t-163 35q-145 1 -251 -69t-139 -191h5q288 -20 450 16
t162 115z" />
    <glyph glyph-name="f" unicode="f" 
d="M1049 1284q141 0 228 -73t87 -179q0 -70 -43 -117t-107 -47t-103 35q-38 35 -38 82t32 78t79 35q-42 61 -150 61t-191 -84t-110 -241h301l-33 -150h-237l-76 -63l-113 -580q-41 -217 -134 -335t-263 -118q-133 0 -211 74t-78 180q0 72 43 118q44 46 108 46t102 -34
t38 -81t-32 -77t-76 -37q29 -63 106 -64q185 0 244 328l113 580l-52 63h-170l33 150h234q38 206 156 328t313 122z" />
    <glyph glyph-name="g" unicode="g" 
d="M123 414q0 207 140 345t349 138q119 0 206 -56t118 -128l31 155h299l-33 -149h-109l-41 -33l-135 -641q-47 -217 -179 -338t-345 -121q-170 0 -287 82t-117 195q-2 67 36 111t92 44t84 -30t30 -72q0 -41 -19 -66t-46 -28q57 -104 213 -104t253 89q95 90 128 248l26 135
q-141 -166 -312 -166t-277 112q-105 112 -105 278zM614 745q-145 0 -236 -93t-91 -234q1 -104 65 -173t171 -69t183 48t156 145l33 184q-70 192 -281 192z" />
    <glyph glyph-name="h" unicode="h" 
d="M780 897q131 0 197 -87t35 -235l-82 -380q-12 -74 26 -74q24 0 46 30t65 105l123 -51q-61 -107 -98 -151q-69 -81 -165 -82q-97 0 -134 62t-17 159l68 323q53 229 -115 229q-158 1 -330 -235l-108 -510h-154l221 1042l-49 64h-110l30 149h330l-119 -557q54 58 94 96
t108 70t138 33z" />
    <glyph glyph-name="i" unicode="i" 
d="M842 1194q0 -66 -44 -110t-110 -44t-110 44q-46 44 -46 110t44 111t112 45q66 0 110 -45t44 -111zM750 127q145 0 264 266l129 -61q-162 -360 -404 -361q-141 -1 -219 99t-49 237l76 348l-51 64h-334l33 149h550l-122 -569q-13 -76 21 -124t106 -48z" />
    <glyph glyph-name="j" unicode="j" 
d="M8 -76q0 78 48 132t117 54t110 -38t41 -92t-38 -91t-91 -39q8 -55 57 -91t127 -35q238 0 309 331l127 600l-51 64h-369l31 149h588l-176 -823q-47 -223 -164 -340t-290 -117q-172 0 -274 98t-102 238zM1114 1194q0 -66 -45 -110t-111 -44t-109 44q-44 44 -44 110t44 111
q43 45 109 45t111 -45t45 -111z" />
    <glyph glyph-name="k" unicode="k" 
d="M891 -29q-88 1 -143 51t-70 138l-16 92q-27 145 -115 176l-238 -135l-61 -293h-154l221 1042l-51 64h-114l32 149h332l-174 -819l438 258l8 35h-110l29 139h493l-29 -139h-92l-407 -231q104 -47 129 -187l16 -100q12 -102 88 -102q43 1 73 31t73 110l104 -76
q-100 -203 -262 -203z" />
    <glyph glyph-name="l" unicode="l" 
d="M719 127q145 0 264 266l129 -61q-162 -360 -401 -361q-141 -1 -219 99t-50 237l156 735l-51 64h-338l31 149h557l-203 -956q-16 -76 18 -124t107 -48z" />
    <glyph glyph-name="m" unicode="m" 
d="M860 743q-84 0 -168 -143l-127 -600h-147l137 651q20 92 -51 92q-84 0 -168 -143l-127 -600h-148l146 686l-25 33h-100l33 149h280l-26 -123q35 68 92 110t114 42q135 0 144 -145q35 63 95 104t134 41t108 -54t13 -147l-108 -512q-16 -72 20 -71q20 -1 43 29t61 100
l117 -47q-59 -104 -94 -146q-64 -76 -155 -77q-91 0 -127 60t-15 150l100 469q20 92 -51 92z" />
    <glyph glyph-name="n" unicode="n" 
d="M788 897q131 0 197 -87t35 -235l-82 -380q-16 -74 27 -74q23 0 45 30t65 105l123 -51q-96 -176 -177 -214q-40 -19 -87 -20q-96 1 -134 63t-18 159l70 323q49 229 -115 229q-157 1 -329 -235l-109 -510h-156l142 655l-49 64h-111l31 149h327l-34 -170q51 58 91 96t108 70
t140 33z" />
    <glyph glyph-name="o" unicode="o" 
d="M139 408q1 196 151 342t362 147q212 0 339 -121q127 -120 127 -316t-152 -342t-361 -146q-210 0 -338 120t-128 316zM946 454q0 136 -78 214t-220 77q-142 0 -238 -97q-98 -98 -98 -234t77 -214t219 -77q142 0 240 97q98 98 98 234z" />
    <glyph glyph-name="p" unicode="p" 
d="M775 897q179 0 279 -112t99 -287q0 -213 -152 -370t-352 -157q-119 1 -207 57t-118 132l-78 -363l24 -33h201l-31 -149h-528l33 149h108l41 33l189 889l-25 33h-108l32 149h291l-31 -145q154 174 333 174zM748 745q-108 0 -187 -52q-78 -52 -160 -156l-41 -205
q74 -209 289 -209q145 0 241 110q95 111 95 265q0 111 -64 179q-65 68 -173 68z" />
    <glyph glyph-name="q" unicode="q" 
d="M492 -29q-174 0 -280 113q-105 113 -106 287q0 215 151 371t351 155q121 0 209 -56t119 -130l35 157h295l-33 -149h-109l-41 -33l-188 -889l25 -33h108l-33 -149h-528l33 149h200l41 33l74 348q-149 -174 -323 -174zM274 371q0 -111 64 -180t172 -69t187 54
q79 53 159 156l41 205q-70 209 -289 208q-142 0 -238 -109t-96 -265z" />
    <glyph glyph-name="r" unicode="r" 
d="M879 585q0 52 31 82q32 29 67 29t43 -6q4 12 -6 27q-18 41 -97 41t-177 -72t-269 -233l-96 -453h-154l139 655l-51 64h-182l33 149h399l-51 -237q208 214 301 244q65 22 127 22q123 0 180 -71t56 -158t-44 -143t-109 -56t-104 32q-36 32 -36 84z" />
    <glyph glyph-name="s" unicode="s" 
d="M248 639q0 105 112 181t288 77q177 0 286 -71t108 -177q0 -59 -36 -94t-85 -35q-48 0 -78 26t-30 64t26 62q26 23 66 20q-96 72 -260 72q-104 0 -169 -32q-64 -32 -64 -80t28 -70t95 -39l305 -88q201 -57 200 -205q0 -133 -127 -206t-313 -73t-325 79q-138 79 -138 194
q0 63 36 99t83 36t77 -27t29 -69q0 -70 -71 -78q123 -100 319 -101q113 0 189 35t75 97q0 38 -30 58t-92 38l-281 78q-111 32 -167 78t-56 151z" />
    <glyph glyph-name="t" unicode="t" 
d="M657 127q100 0 176 55q75 55 146 170l119 -82q-74 -133 -192 -216t-276 -83t-252 111q-93 111 -52 301l57 272l-51 64h-193l33 149h256l68 316h159l-67 -316h481l-33 -149h-418l-75 -64l-54 -249q-61 -279 168 -279z" />
    <glyph glyph-name="u" unicode="u" 
d="M480 123q164 0 323 215l112 530h156l-143 -669q-16 -78 24 -78q24 0 48 32t63 103l123 -51q-31 -55 -49 -85q-88 -146 -215 -149q-80 0 -119 47t-31 132q-51 -53 -87 -84q-37 -31 -103 -63t-136 -32q-138 -1 -208 93t-37 245l73 346l-49 64h-110l32 149h328l-110 -514
q-49 -231 115 -231z" />
    <glyph glyph-name="v" unicode="v" 
d="M489 125q178 1 332 151t154 326q0 119 -88 146q20 -23 20 -62q1 -40 -29 -66t-80 -26t-85 36t-35 104t55 115q55 48 153 48t166 -83t68 -221q0 -139 -89 -285t-241 -241t-319 -96q-127 -1 -205 93t-41 255l72 336l-51 64h-144l31 149h363l-119 -555q-17 -94 13 -141
t99 -47z" />
    <glyph glyph-name="w" unicode="w" 
d="M950 895q110 1 170 -75t60 -208t-56 -280t-165 -254q-108 -106 -234 -107q-70 0 -115 38t-55 93q-74 -131 -223 -131q-98 0 -147 76q-48 76 -25 184l90 424l-49 64h-119l31 149h329l-129 -610q-16 -68 4 -108q19 -40 71 -41q52 0 92 49t59 129l65 315h150l-72 -332
q-33 -162 68 -161q74 0 142 91t104 211q38 121 38 229t-69 126q18 -20 18 -55t-28 -58q-29 -23 -73 -23t-74 33q-30 32 -30 91t50 100t122 41z" />
    <glyph glyph-name="x" unicode="x" 
d="M301 -27q-121 0 -191 71t-69 183q0 70 36 117t87 47t83 -32t32 -80q0 -78 -72 -103q29 -66 94 -65q100 0 182 136t82 331q0 78 -33 126t-92 48q-102 0 -225 -140l-82 109q145 176 307 176q78 -2 140 -47t98 -119q123 166 276 166q121 0 191 -71t69 -183q0 -70 -36 -117
t-86 -47q-51 0 -83 32t-34 81q0 78 74 102q-17 35 -35 50t-60 16q-100 0 -183 -136t-83 -331q0 -78 34 -126t93 -48t109 34t114 105l84 -108q-147 -176 -309 -177q-76 0 -138 45t-100 121q-123 -166 -274 -166z" />
    <glyph glyph-name="y" unicode="y" 
d="M508 14q-135 0 -208 94t-40 244l66 303l-50 64h-110l31 149h327l-100 -471q-49 -231 118 -231t324 215l105 487h153l-174 -823q-98 -459 -493 -459q-168 0 -276 79t-107 192q-2 67 36 111t93 44t84 -30t29 -71q0 -40 -21 -66q-20 -26 -47 -29q50 -98 198 -98t237 90
q89 91 124 247l29 138q-49 -51 -87 -83t-106 -64t-135 -32z" />
    <glyph glyph-name="z" unicode="z" 
d="M1114 227q0 -115 -86 -185t-206 -69q-120 0 -210 43t-174 90t-166 56q-88 -80 -127 -174l-98 86q55 135 189 231t315 173q180 77 280 145q-27 9 -145 73t-188 64q-145 0 -174 -74q44 2 72 -22t28 -69q0 -44 -33 -74q-33 -29 -85 -29t-92 40t-40 107q0 117 86 187t210 71
q124 0 271 -78t220 -90q63 63 100 145l102 -83q-59 -137 -195 -233t-299 -168q-163 -70 -251 -122q51 -12 116 -54q164 -106 261 -106q139 1 170 74q-43 -2 -72 23t-29 69t33 72q33 29 84 29t92 -40t41 -108z" />
    <glyph glyph-name="braceleft" unicode="{" 
d="M334 598q86 0 145 40t64 110q0 6 -4 108t-2 150q6 147 99 239t259 92t260 -55l-68 -147q-78 51 -180 51t-152 -37t-55 -143q-2 -38 3 -134t6 -120q-4 -96 -73 -154t-149 -80q53 -16 93 -59t41 -107q0 -64 -72 -208t-72 -187q0 -106 139 -107q106 0 209 52l4 -146
q-111 -57 -247 -57t-208 59q-72 60 -71 146q0 86 76 238t76 204q0 92 -156 92h-123l35 160h123z" />
    <glyph glyph-name="bar" unicode="|" 
d="M903 1325l-342 -1614h-170l342 1614h170z" />
    <glyph glyph-name="braceright" unicode="}" 
d="M958 440q-86 0 -145 -40t-63 -109q0 -7 4 -109t2 -149q-6 -147 -100 -239t-259 -93q-166 0 -260 55l68 148q78 -51 180 -51t153 36q50 37 54 144q2 39 -3 134t-5 120q4 96 72 154q69 58 149 79q-53 16 -93 60t-40 107t72 207t71 187q0 106 -139 107q-106 0 -209 -51
l-4 145q111 57 247 57t208 -59t71 -160q0 -72 -76 -224t-75 -204q0 -92 155 -92h123l-35 -160h-123z" />
    <glyph glyph-name="asciitilde" unicode="~" 
d="M826 412q-89 0 -185 74t-138 73q-42 0 -81 -38t-53 -101h-158q29 137 107 218q79 81 184 81q57 0 114 -37q56 -37 106 -74t91 -37q41 1 79 39t52 101h158q-31 -139 -109 -219t-167 -80z" />
    <glyph glyph-name="uni00A0" unicode="&#xa0;" 
 />
    <glyph glyph-name="exclamdown" unicode="&#xa1;" 
d="M715 991q63 0 108 -45t45 -109q0 -63 -45 -109t-108 -46t-109 45q-45 45 -45 109t45 109q46 46 109 46zM501 -231q-75 0 -107 63t-3 137l223 592h95l-41 -616q-4 -76 -48 -126t-119 -50z" />
    <glyph glyph-name="cent" unicode="&#xa2;" 
d="M629 -29q-25 0 -37 2l-55 -266h-146l62 289q-145 43 -226 150q-80 108 -80 255q1 203 145 340t351 154l62 291h145l-64 -297q144 -27 230 -118t88 -196q0 -61 -41 -104t-96 -43t-91 35t-37 78q-2 86 74 112q-51 72 -157 92l-131 -620h4q174 0 358 141l86 -121
q-217 -174 -444 -174zM485 152l125 593q-125 -25 -207 -113t-81 -231q0 -86 42 -151t121 -98z" />
    <glyph glyph-name="sterling" unicode="&#xa3;" 
d="M846 -88q-98 0 -191 58q-92 58 -176 116t-144 59q-59 0 -103 -39t-60 -106h-174q27 123 98 203q72 80 164 104l41 191h-154l31 147h154l12 53q45 222 179 360t349 138q162 0 260 -84t99 -205q0 -90 -49 -143q-50 -53 -112 -53q-62 -1 -94 29t-34 73q0 92 107 131
q-57 96 -187 96t-220 -91q-91 -91 -126 -251l-12 -53h313l-31 -147h-313l-43 -201q60 -23 194 -119t199 -96t110 40q44 40 58 107h176q-33 -147 -128 -232t-193 -85z" />
    <glyph glyph-name="yen" unicode="&#xa5;" 
d="M950 150l-30 -150h-770l32 150h244l78 63l26 125h-405l25 121h378l-57 125h-295l27 121h213l-144 313h-127l31 149h524l-32 -149h-133l-72 -51l186 -418l361 418l-49 51h-134l33 149h533l-31 -149h-127l-279 -313h215l-26 -121h-297l-111 -125h381l-24 -121h-408
l-27 -125l50 -63h241z" />
    <glyph glyph-name="brokenbar" unicode="&#xa6;" 
d="M537 397h170l-146 -686h-170zM903 1325l-158 -741h-170l158 741h170z" />
    <glyph glyph-name="section" unicode="&#xa7;" 
d="M471 -412q-182 0 -282 90q-99 90 -99 220q0 76 47 129t105 53t90 -32q31 -32 30 -77q0 -82 -92 -112q41 -121 201 -121q109 0 181 53t71 139q0 37 -26 67t-79 71l-274 202q-86 66 -129 128t-43 143q0 160 174 297q2 152 119 255t299 103t282 -90t99 -217q0 -76 -48 -130
q-49 -54 -107 -54q-58 -1 -88 31t-30 79q0 80 93 111q-43 123 -201 123q-108 1 -180 -53t-72 -142q0 -49 50 -91q17 -15 52 -44l277 -205q170 -128 170 -278t-172 -289q0 -151 -118 -255t-300 -104zM420 430l293 -223q96 -72 135 -129q57 59 58 134t-91 142l-285 215l-10 9
q-92 70 -133 129q-57 -59 -59 -131t92 -146z" />
    <glyph glyph-name="dieresis" unicode="&#xa8;" 
d="M573 1051q-63 0 -108 43t-45 104q0 62 45 106t108 44t107 -44t43 -106q1 -62 -43 -104q-44 -43 -107 -43zM1014 1049q-63 0 -109 44q-45 44 -45 105q0 60 45 104t109 44t106 -43q43 -43 43 -105t-43 -106q-43 -43 -106 -43z" />
    <glyph glyph-name="copyright" unicode="&#xa9;" 
d="M630 258q-122 0 -190 72t-67 184q0 152 94 266t235 113q86 0 144 -62l12 5l10 41h88l-47 -224l-80 -4q-10 137 -131 137q-92 0 -153 -80t-61 -168q1 -174 145 -173q94 -1 182 81l63 -75q-122 -113 -244 -113zM624 102q206 0 360 155q155 155 156 359t-117 324
q-117 120 -323 121t-361 -153t-157 -359t117 -326t325 -121zM704 1151q244 0 386 -144t139 -386q-1 -242 -185 -424q-184 -181 -428 -183t-384 142q-142 144 -140 386t186 426q182 184 426 183z" />
    <glyph glyph-name="ordfeminine" unicode="&#xaa;" 
d="M489 923q0 -89 42 -133t115 -44t124 33q51 34 111 104l26 137q-53 137 -196 137q-96 0 -159 -73t-63 -161zM352 922q0 138 109 248t250 110q84 0 142 -38t83 -87l49 125h105l-103 -487q-12 -49 10 -50q18 0 76 97l98 -43q-20 -37 -35 -62q-67 -112 -175 -112
q-47 1 -76 31t-29 81q-108 -113 -230 -113t-198 82q-76 80 -76 218zM566 -27q-77 -1 -132 55t-55 134t54 133t132 55t133 -55q56 -55 56 -133t-56 -134t-132 -55z" />
    <glyph glyph-name="guillemotleft" unicode="&#xab;" 
d="M389 438l168 -270l-145 -88l-222 375l381 374l101 -118zM846 438l168 -270l-146 -88l-223 375l381 374l102 -118z" />
    <glyph glyph-name="registered" unicode="&#xae;" 
d="M745 887q211 0 211 -166q0 -74 -55 -121t-156 -61l113 -185h68l-17 -88h-186l18 84l-106 185h-74l-31 -148l27 -37h51l-16 -84h-266l16 84h49l41 37l80 381l-25 35h-49l19 84h288zM733 797h-117l-34 -172h106q160 0 160 98q0 74 -115 74zM624 102q206 0 360 155
q155 155 156 359t-117 324q-117 120 -323 121t-361 -153t-157 -359t117 -326t325 -121zM704 1151q244 0 386 -144t139 -386q-1 -242 -185 -424q-184 -181 -428 -183t-384 142q-142 144 -140 386t186 426q182 184 426 183z" />
    <glyph glyph-name="macron" unicode="&#xaf;" 
d="M479 1217h633l-31 -150h-632z" />
    <glyph glyph-name="degree" unicode="&#xb0;" 
d="M750 1147q-76 0 -132 -52t-55 -129q0 -77 48 -125t125 -48t131 52q55 52 55 129t-48 125t-124 48zM1063 977q0 -137 -98 -231q-97 -94 -235 -93q-138 0 -223 86t-85 222q0 137 98 231t236 94t223 -86q84 -86 84 -223z" />
    <glyph glyph-name="plusminus" unicode="&#xb1;" 
d="M100 84l31 147h907l-30 -147h-908zM748 653l-66 -311h-147l65 311h-379l33 148h379l65 311h148l-66 -311h381l-33 -148h-380z" />
    <glyph glyph-name="twosuperior" unicode="&#xb2;" 
d="M801 1276q104 0 169 -56q64 -56 64 -150t-100 -179q-75 -64 -193 -137l-282 -176h327l64 49l16 84h127l-53 -254h-657l34 161l347 226q18 12 94 62t90 72q57 96 10 142q-23 22 -67 23q-152 0 -297 -160l-88 88q176 205 395 205z" />
    <glyph glyph-name="threesuperior" unicode="&#xb3;" 
d="M825 750q1 98 -121 98q-64 0 -163 -55l-58 94l381 241h-397l27 127h544l-34 -163l-256 -152q23 6 38 6q82 0 132 -52t49 -134q1 -125 -103 -223q-182 -172 -551 -224v127q215 31 364 110q148 79 148 200z" />
    <glyph glyph-name="acute" unicode="&#xb4;" 
d="M584 1067l176 272q63 96 143 97q39 0 67 -27t27 -66q0 -92 -102 -147l-272 -168z" />
    <glyph glyph-name="paragraph" unicode="&#xb6;" 
d="M872 1167h396l-33 -149h-150l-77 -64l-193 -913q-49 -225 -146 -336t-259 -111t-252 94t-90 224q0 82 48 140t117 58t107 -36q38 -37 37 -90q0 -53 -38 -90t-93 -39q6 -55 51 -91t100 -34q123 0 177 74t90 247l84 402q-203 0 -334 84t-129 245q0 127 89 217
q166 168 498 168z" />
    <glyph glyph-name="periodcentered" unicode="&#xb7;" 
d="M475 573q0 76 53 129q53 54 129 54t129 -54q54 -54 54 -129q0 -76 -54 -129t-129 -53q-76 0 -129 53t-53 129z" />
    <glyph glyph-name="cedilla" unicode="&#xb8;" 
d="M700 -267q0 -85 -74 -151t-186 -66q-110 0 -188 48q-78 47 -102 131l108 61q16 -55 62 -90t108 -35q61 0 100 27t39 76q-4 80 -141 63l-72 66l97 145h114l-63 -102q90 -2 144 -45t54 -128z" />
    <glyph glyph-name="onesuperior" unicode="&#xb9;" 
d="M418 1083l293 172h174l-133 -626l39 -51h225l-27 -121h-700l26 121h236l61 51l103 479l-242 -141z" />
    <glyph glyph-name="ordmasculine" unicode="&#xba;" 
d="M393 939q-1 139 107 243t260 104t248 -86q94 -86 94 -224t-109 -242t-261 -105q-152 0 -246 86q-93 86 -93 224zM761 1163q-95 0 -160 -63q-65 -62 -65 -154t52 -143q51 -51 146 -51t160 63q64 63 64 155t-51 142q-51 51 -146 51zM754 162q0 -78 -56 -133t-132 -55
q-77 0 -132 54q-55 56 -55 134t54 133t132 55q77 0 133 -55t56 -133z" />
    <glyph glyph-name="guillemotright" unicode="&#xbb;" 
d="M879 471l-168 270l145 88l221 -374l-381 -375l-100 119zM422 471l-168 270l145 88l224 -374l-381 -375l-103 119z" />
    <glyph glyph-name="onequarter" unicode="&#xbc;" 
d="M1079 963l103 -136l-459 -303l-31 39zM80 133l459 305l30 -39l-387 -401zM262 1061l-41 92l207 123h141l-102 -485h182l-22 -101h-482l21 101h186l80 370zM1090 -80h-127l-27 -125h-109l27 125h-307l33 148q190 154 338 385l116 -37q-111 -176 -350 -396h190l29 132h109
l-29 -132h127z" />
    <glyph glyph-name="onehalf" unicode="&#xbd;" 
d="M262 1061l-41 92l207 123h141l-102 -485h182l-22 -101h-482l21 101h186l80 370zM1075 256q0 -57 -39 -106q-38 -49 -74 -73t-106 -65l-192 -116h350l-21 -101h-477l27 129l250 166q9 8 35 24q107 69 117 104q18 65 -54 67q-104 0 -215 -117l-76 76q137 152 307 151
q82 0 125 -41t43 -98zM80 133l459 305l30 -39l-387 -401zM1079 963l103 -136l-459 -303l-31 39z" />
    <glyph glyph-name="threequarters" unicode="&#xbe;" 
d="M1090 -80h-127l-27 -125h-109l27 125h-307l33 148q190 154 338 385l116 -37q-111 -176 -350 -396h190l29 132h109l-29 -132h127zM80 133l459 305l30 -39l-387 -401zM1079 963l103 -136l-459 -303l-31 39zM522 883q0 67 -82 67q-42 0 -118 -45l-50 78l273 166h-279l21 104
h401l-29 -135l-163 -94q10 2 24 2q51 0 85 -38t34 -97q0 -133 -145 -218t-338 -110v105q150 24 258 78t108 137z" />
    <glyph glyph-name="questiondown" unicode="&#xbf;" 
d="M719 989q63 0 108 -46t45 -109q0 -62 -45 -108t-108 -46t-109 45q-45 45 -45 110q-1 65 45 109t109 45zM303 92q0 -84 66 -130t166 -46t181 28t105 68q-92 37 -92 107q0 53 40 91t102 38q61 0 107 -47t46 -115q0 -135 -143 -227t-335 -92t-307 90q-116 91 -115 239
t123 241t316 126l25 115h194l-49 -224q-209 -37 -319 -96t-111 -166z" />
    <glyph glyph-name="Agrave" unicode="&#xc0;" 
d="M747 1710q47 0 79 -33t42 -78l64 -268l-51 -37l-189 179q-63 53 -62 111t35 92t82 34zM455 150l-33 -150h-498l33 150h127l602 1017h193l168 -1017h127l-33 -150h-496l33 150h119l69 51l-28 188h-443l-108 -188l49 -51h119zM815 539l-70 460l-264 -460h334z" />
    <glyph glyph-name="Aacute" unicode="&#xc1;" 
d="M1030 1708q37 0 66 -28t28 -66q0 -88 -102 -148l-272 -168l-39 39l176 273q61 98 143 98zM455 150l-33 -150h-498l33 150h127l602 1017h193l168 -1017h127l-33 -150h-496l33 150h119l69 51l-28 188h-443l-108 -188l49 -51h119zM815 539l-70 460l-264 -460h334z" />
    <glyph glyph-name="Acircumflex" unicode="&#xc2;" 
d="M867 1688q58 0 98 -74l151 -277l-61 -47l-211 195l-316 -195l-53 47l264 277q70 74 128 74zM455 150l-33 -150h-498l33 150h127l602 1017h193l168 -1017h127l-33 -150h-496l33 150h119l69 51l-28 188h-443l-108 -188l49 -51h119zM815 539l-70 460l-264 -460h334z" />
    <glyph glyph-name="Atilde" unicode="&#xc3;" 
d="M685 1583q87 0 164 -70q77 -69 118 -69t77 37t50 98h159q-27 -129 -109 -207t-171 -78q-90 0 -158 71q-67 71 -112 71q-47 0 -83 -36t-49 -97h-157q28 127 106 203t165 77zM455 150l-33 -150h-498l33 150h127l602 1017h193l168 -1017h127l-33 -150h-496l33 150h119l69 51
l-28 188h-443l-108 -188l49 -51h119zM815 539l-70 460l-264 -460h334z" />
    <glyph glyph-name="Adieresis" unicode="&#xc4;" 
d="M459 1459q0 61 45 105t107 44q63 0 107 -44t44 -104t-44 -105q-44 -44 -107 -44q-62 0 -107 44t-45 104zM1052 1311q-62 0 -108 44q-45 44 -45 104q0 61 45 105q46 44 108 44t106 -44t44 -104t-44 -105q-44 -44 -106 -44zM455 150l-33 -150h-498l33 150h127l602 1017h193
l168 -1017h127l-33 -150h-496l33 150h119l69 51l-28 188h-443l-108 -188l49 -51h119zM815 539l-70 460l-264 -460h334z" />
    <glyph glyph-name="Aring" unicode="&#xc5;" 
d="M967 1514q0 52 -32 84t-84 32t-90 -36t-38 -87t32 -84t84 -33t90 37q38 36 38 87zM855 1749q103 1 167 -65t63 -168t-75 -173q-74 -69 -176 -69t-166 64q-64 66 -64 168t74 172t177 71zM455 150l-33 -150h-498l33 150h127l602 1017h193l168 -1017h127l-33 -150h-496
l33 150h119l69 51l-28 188h-443l-108 -188l49 -51h119zM815 539l-70 460l-264 -460h334z" />
    <glyph glyph-name="AE" unicode="&#xc6;" 
d="M299 150l-33 -150h-334l35 160l537 807l-41 51h-98l32 149h979l-92 -434h-156l48 221l-50 64h-221l-76 -356h230l-29 -138h-229l-80 -374h227l78 63l45 211h156l-90 -424h-744l33 150h72l77 63l37 176h-327l-127 -188l51 -51h90zM645 539l103 479h-43l-322 -479h262z" />
    <glyph glyph-name="Ccedilla" unicode="&#xc7;" 
d="M486 -483q-110 0 -189 47q-78 47 -102 131l108 61q17 -55 63 -90t107 -35t100 27t39 76q-4 80 -141 63l-72 66l82 123q-166 39 -259 167t-93 312q0 295 182 513t451 218q180 0 282 -127l27 12l19 86h159l-90 -424h-123q-10 139 -80 215t-196 76q-193 0 -321 -170
t-128 -395q0 -147 78 -241t219 -93q201 0 391 178l88 -123q-231 -219 -479 -219h-20l-41 -65q90 -2 144 -45t54 -128t-74 -151q-75 -65 -185 -65z" />
    <glyph glyph-name="Egrave" unicode="&#xc8;" 
d="M375 150h467l78 63l45 211h155l-90 -424h-1069l33 150h160l77 63l156 741l-49 64h-160l33 149h1061l-94 -434h-156l47 221l-49 64h-459l-76 -356h170l78 63l25 125h131l-109 -512h-131l27 123l-49 63h-170zM751 1710q47 0 79 -33t42 -78l64 -268l-51 -37l-189 179
q-63 53 -62 111t35 92t82 34z" />
    <glyph glyph-name="Eacute" unicode="&#xc9;" 
d="M375 150h467l78 63l45 211h155l-90 -424h-1069l33 150h160l77 63l156 741l-49 64h-160l33 149h1061l-94 -434h-156l47 221l-49 64h-459l-76 -356h170l78 63l25 125h131l-109 -512h-131l27 123l-49 63h-170zM1032 1708q37 0 66 -28t28 -66q0 -88 -102 -148l-272 -168
l-39 39l176 273q61 98 143 98z" />
    <glyph glyph-name="Ecircumflex" unicode="&#xca;" 
d="M873 1688q58 0 98 -74l151 -277l-61 -47l-211 195l-315 -195l-54 47l264 277q70 74 128 74zM375 150h467l78 63l45 211h155l-90 -424h-1069l33 150h160l77 63l156 741l-49 64h-160l33 149h1061l-94 -434h-156l47 221l-49 64h-459l-76 -356h170l78 63l25 125h131
l-109 -512h-131l27 123l-49 63h-170z" />
    <glyph glyph-name="Edieresis" unicode="&#xcb;" 
d="M375 150h467l78 63l45 211h155l-90 -424h-1069l33 150h160l77 63l156 741l-49 64h-160l33 149h1061l-94 -434h-156l47 221l-49 64h-459l-76 -356h170l78 63l25 125h131l-109 -512h-131l27 123l-49 63h-170zM624 1311q-62 0 -108 44q-45 44 -45 104q0 61 45 105
q46 44 108 44t106 -44t44 -104t-44 -105q-44 -44 -106 -44zM1064 1311q-62 0 -108 44q-45 44 -45 104q0 61 45 105q46 44 108 44t106 -44t44 -104t-44 -105q-44 -44 -106 -44z" />
    <glyph glyph-name="Igrave" unicode="&#xcc;" 
d="M753 1710q48 0 80 -33t41 -78l64 -268l-51 -37l-189 179q-63 53 -62 111t35 92t82 34zM651 954l-49 64h-276l32 149h852l-32 -149h-277l-78 -64l-157 -741l49 -63h276l-30 -150h-852l32 150h277l78 63z" />
    <glyph glyph-name="Iacute" unicode="&#xcd;" 
d="M1036 1708q37 0 66 -28t28 -66q0 -88 -102 -148l-272 -168l-39 39l176 273q61 98 143 98zM651 954l-49 64h-276l32 149h852l-32 -149h-277l-78 -64l-157 -741l49 -63h276l-30 -150h-852l32 150h277l78 63z" />
    <glyph glyph-name="Icircumflex" unicode="&#xce;" 
d="M878 1688q58 0 97 -74l151 -277l-61 -47l-211 195l-315 -195l-54 47l265 277q70 74 128 74zM651 954l-49 64h-276l32 149h852l-32 -149h-277l-78 -64l-157 -741l49 -63h276l-30 -150h-852l32 150h277l78 63z" />
    <glyph glyph-name="Idieresis" unicode="&#xcf;" 
d="M624 1311q-62 0 -108 44q-45 44 -45 104q0 61 45 105q46 44 108 44t106 -44t44 -104t-44 -105q-44 -44 -106 -44zM1064 1311q-62 0 -108 44q-45 44 -45 104q0 61 45 105q46 44 108 44t106 -44t44 -104t-44 -105q-44 -44 -106 -44zM651 954l-49 64h-276l32 149h852
l-32 -149h-277l-78 -64l-157 -741l49 -63h276l-30 -150h-852l32 150h277l78 63z" />
    <glyph glyph-name="Eth" unicode="&#xd0;" 
d="M479 150q250 0 402 148t151 370q0 160 -90 255t-278 95h-136l-69 -326h272l-31 -149h-274l-84 -393h137zM446 0h-479l33 150h121l76 61l69 332h-182l31 149h184l55 262l-49 64h-121l33 149h467q260 0 396 -134t137 -365q1 -284 -215 -476t-556 -192z" />
    <glyph glyph-name="Ntilde" unicode="&#xd1;" 
d="M940 0h-168l-283 965l-159 -752l49 -63h100l-33 -150h-479l33 150h98l78 63l158 741l-49 64h-101l33 149h383l244 -897l145 684l-49 64h-100l32 149h480l-33 -149h-98l-78 -64zM950 1294q-45 0 -85 23q-39 23 -63 49q-65 70 -111 70t-83 -36t-49 -97h-158q27 127 106 203
t166 77q87 0 164 -70q77 -69 117 -69t77 37q36 37 50 98h160q-27 -129 -109 -207t-182 -78z" />
    <glyph glyph-name="Ograve" unicode="&#xd2;" 
d="M584 135q194 0 316 163t122 388q0 158 -72 253t-211 95q-193 0 -315 -164t-123 -387q0 -158 72 -253t211 -95zM726 1196q246 0 362 -141t116 -369q0 -285 -182 -500t-426 -215q-244 -1 -362 141q-116 142 -115 371q0 285 181 499q180 214 426 214zM757 1710q48 0 80 -33
t42 -78l63 -268l-51 -37l-189 179q-63 53 -62 111t35 92t82 34z" />
    <glyph glyph-name="Oacute" unicode="&#xd3;" 
d="M584 135q194 0 316 163t122 388q0 158 -72 253t-211 95q-193 0 -315 -164t-123 -387q0 -158 72 -253t211 -95zM726 1196q246 0 362 -141t116 -369q0 -285 -182 -500t-426 -215q-244 -1 -362 141q-116 142 -115 371q0 285 181 499q180 214 426 214zM1040 1708q37 0 66 -28
t29 -66q0 -88 -103 -148l-272 -168l-39 39l176 273q61 98 143 98z" />
    <glyph glyph-name="Ocircumflex" unicode="&#xd4;" 
d="M880 1688q58 0 97 -74l151 -277l-61 -47l-211 195l-315 -195l-54 47l265 277q70 74 128 74zM584 135q194 0 316 163t122 388q0 158 -72 253t-211 95q-193 0 -315 -164t-123 -387q0 -158 72 -253t211 -95zM726 1196q246 0 362 -141t116 -369q0 -285 -182 -500t-426 -215
q-244 -1 -362 141q-116 142 -115 371q0 285 181 499q180 214 426 214z" />
    <glyph glyph-name="Otilde" unicode="&#xd5;" 
d="M584 135q194 0 316 163t122 388q0 158 -72 253t-211 95q-193 0 -315 -164t-123 -387q0 -158 72 -253t211 -95zM726 1196q246 0 362 -141t116 -369q0 -285 -182 -500t-426 -215q-244 -1 -362 141q-116 142 -115 371q0 285 181 499q180 214 426 214zM711 1436
q-45 0 -82 -36t-49 -97h-158q28 127 106 203t166 77q88 0 164 -70q76 -69 117 -69t77 37t50 98h160q-27 -129 -109 -207t-172 -78t-158 71q-67 71 -112 71z" />
    <glyph glyph-name="Odieresis" unicode="&#xd6;" 
d="M584 135q194 0 316 163t122 388q0 158 -72 253t-211 95q-193 0 -315 -164t-123 -387q0 -158 72 -253t211 -95zM726 1196q246 0 362 -141t116 -369q0 -285 -182 -500t-426 -215q-244 -1 -362 141q-116 142 -115 371q0 285 181 499q180 214 426 214zM626 1311
q-62 0 -108 44q-45 44 -45 104q0 61 45 105q46 44 108 44t106 -44t44 -104t-44 -105q-44 -44 -106 -44zM1066 1311q-62 0 -108 44q-45 44 -45 104q0 61 45 105q46 44 108 44t106 -44t44 -104t-44 -105q-44 -44 -106 -44z" />
    <glyph glyph-name="multiply" unicode="&#xd7;" 
d="M571 584l-252 317l121 96l244 -319l383 319l88 -112l-387 -316l252 -317l-121 -96l-246 319l-383 -319l-86 112z" />
    <glyph glyph-name="Oslash" unicode="&#xd8;" 
d="M1204 686q0 -285 -182 -500t-438 -215q-188 0 -303 97l-172 -187l-105 86l189 205q-74 123 -74 311q0 285 181 499t439 214q184 0 301 -94l164 178l107 -86l-181 -197q74 -129 74 -311zM584 135q194 0 316 163t122 388q0 92 -25 166l-596 -651q70 -66 183 -66zM739 1034
q-193 0 -315 -164t-123 -387q0 -94 25 -164l596 652q-70 63 -183 63z" />
    <glyph glyph-name="Ugrave" unicode="&#xd9;" 
d="M568 -29q-192 0 -301 122q-108 122 -68 308l118 553l-51 64h-100l33 149h485l-33 -149h-100l-76 -64l-117 -551q-26 -121 36 -199t182 -79q120 0 203 72t110 192l119 565l-52 64h-98l33 149h483l-33 -149h-98l-76 -64l-120 -567q-41 -188 -164 -302t-315 -114zM759 1710
q48 0 80 -33t42 -78l63 -268l-51 -37l-188 179q-63 53 -63 111t35 92q34 34 82 34z" />
    <glyph glyph-name="Uacute" unicode="&#xda;" 
d="M568 -29q-192 0 -301 122q-108 122 -68 308l118 553l-51 64h-100l33 149h485l-33 -149h-100l-76 -64l-117 -551q-26 -121 36 -199t182 -79q120 0 203 72t110 192l119 565l-52 64h-98l33 149h483l-33 -149h-98l-76 -64l-120 -567q-41 -188 -164 -302t-315 -114zM1042 1708
q37 0 66 -28t29 -66q0 -88 -103 -148l-272 -168l-39 39l176 273q61 98 143 98z" />
    <glyph glyph-name="Ucircumflex" unicode="&#xdb;" 
d="M884 1688q58 0 97 -74l152 -277l-62 -47l-211 195l-315 -195l-53 47l264 277q70 74 128 74zM568 -29q-192 0 -301 122q-108 122 -68 308l118 553l-51 64h-100l33 149h485l-33 -149h-100l-76 -64l-117 -551q-26 -121 36 -199t182 -79q120 0 203 72t110 192l119 565l-52 64
h-98l33 149h483l-33 -149h-98l-76 -64l-120 -567q-41 -188 -164 -302t-315 -114z" />
    <glyph glyph-name="Udieresis" unicode="&#xdc;" 
d="M568 -29q-192 0 -301 122q-108 122 -68 308l118 553l-51 64h-100l33 149h485l-33 -149h-100l-76 -64l-117 -551q-26 -121 36 -199t182 -79q120 0 203 72t110 192l119 565l-52 64h-98l33 149h483l-33 -149h-98l-76 -64l-120 -567q-41 -188 -164 -302t-315 -114zM632 1311
q-62 0 -108 44q-45 44 -45 104q0 61 45 105q46 44 108 44t106 -44t44 -104t-44 -105q-44 -44 -106 -44zM920 1459q0 61 45 105t107 44t106 -44t45 -104q-1 -60 -45 -105q-44 -44 -106 -44t-107 44t-45 104z" />
    <glyph glyph-name="Yacute" unicode="&#xdd;" 
d="M1038 1708q37 0 66 -28t29 -66q0 -88 -103 -148l-272 -168l-39 39l176 273q61 98 143 98zM711 420l-45 -207l49 -63h235l-30 -150h-770l32 150h236l78 63l43 207l-269 598h-127l33 149h524l-32 -149h-119l-70 -51l168 -418l348 418l-51 51h-117l33 149h533l-33 -149h-127
z" />
    <glyph glyph-name="Thorn" unicode="&#xde;" 
d="M705 442q332 0 331 168q0 74 -61 104t-207 29h-233l-64 -301h234zM805 893q199 0 304 -69t105 -203q0 -328 -536 -328h-240l-22 -111l24 -32h297l-32 -150h-742l33 150h190l78 63l156 741l-49 64h-191l33 149h674l-33 -149h-227l-41 -33l-19 -92h238z" />
    <glyph glyph-name="germandbls" unicode="&#xdf;" 
d="M20 -412q-112 0 -172 58t-59 134q0 76 37 120t89 43q52 0 80 -26t28 -63q1 -38 -19 -62t-55 -25q10 -47 67 -48q78 0 111 158l160 758l-37 49h-121l33 150h168q51 208 183 330t318 122q141 0 225 -75t83 -189q1 -114 -63 -186t-156 -93q126 -23 196 -107t70 -212
q0 -197 -128 -325t-310 -128q-121 0 -192 65t-71 163q-1 98 53 159q54 62 120 62t93 -29t25 -75t-37 -76t-65 -31q-30 0 -43 6q-5 -47 27 -79t92 -32q120 0 200 83t80 227q0 246 -350 245l33 148q113 0 189 51t75 148q0 61 -42 99t-116 38q-127 0 -221 -94t-125 -246
l-184 -895q-31 -154 -94 -237t-175 -83z" />
    <glyph glyph-name="agrave" unicode="&#xe0;" 
d="M551 1314q0 58 34 92t84 34t81 -34t38 -79l64 -266l-49 -37l-189 178q-63 54 -63 112zM266 371q0 -111 65 -180t173 -69t186 53q78 52 158 157l41 205q-70 209 -287 208q-144 0 -240 -109t-96 -265zM952 -29q-64 0 -103 47q-40 47 -32 127q-150 -174 -329 -174t-284 113
t-106 287q0 215 152 371t352 155q119 0 206 -56t118 -130l67 186h129l-149 -702q-16 -74 24 -74q25 0 47 30t66 105l123 -51q-95 -175 -177 -215q-40 -20 -104 -19z" />
    <glyph glyph-name="aacute" unicode="&#xe1;" 
d="M1024 1343q0 -92 -102 -147l-273 -168l-39 39l176 272q63 96 144 97q38 0 66 -27t28 -66zM266 371q0 -111 65 -180t173 -69t186 53q78 52 158 157l41 205q-70 209 -287 208q-144 0 -240 -109t-96 -265zM952 -29q-64 0 -103 47q-40 47 -32 127q-150 -174 -329 -174
t-284 113t-106 287q0 215 152 371t352 155q119 0 206 -56t118 -130l67 186h129l-149 -702q-16 -74 24 -74q25 0 47 30t66 105l123 -51q-95 -175 -177 -215q-40 -20 -104 -19z" />
    <glyph glyph-name="acircumflex" unicode="&#xe2;" 
d="M794 1417q56 0 97 -74l149 -276l-59 -47l-211 192l-315 -192l-54 47l263 276q74 74 130 74zM266 371q0 -111 65 -180t173 -69t186 53q78 52 158 157l41 205q-70 209 -287 208q-144 0 -240 -109t-96 -265zM952 -29q-64 0 -103 47q-40 47 -32 127q-150 -174 -329 -174
t-284 113t-106 287q0 215 152 371t352 155q119 0 206 -56t118 -130l67 186h129l-149 -702q-16 -74 24 -74q25 0 47 30t66 105l123 -51q-95 -175 -177 -215q-40 -20 -104 -19z" />
    <glyph glyph-name="atilde" unicode="&#xe3;" 
d="M870 1028q-45 0 -85 23q-39 23 -63 49q-66 71 -112 70q-45 -2 -82 -38t-49 -98h-157q27 129 105 206q79 77 166 77t164 -71q77 -70 117 -70t77 37q36 37 50 100h160q-27 -129 -107 -207t-184 -78zM266 371q0 -111 65 -180t173 -69t186 53q78 52 158 157l41 205
q-70 209 -287 208q-144 0 -240 -109t-96 -265zM952 -29q-64 0 -103 47q-40 47 -32 127q-150 -174 -329 -174t-284 113t-106 287q0 215 152 371t352 155q119 0 206 -56t118 -130l67 186h129l-149 -702q-16 -74 24 -74q25 0 47 30t66 105l123 -51q-95 -175 -177 -215
q-40 -20 -104 -19z" />
    <glyph glyph-name="adieresis" unicode="&#xe4;" 
d="M528 1051q-63 0 -108 43t-45 104q0 62 45 106t108 44q62 0 106 -44t44 -106t-44 -104q-44 -43 -106 -43zM969 1049q-63 0 -109 44q-45 44 -45 105q0 60 45 104q44 44 108 44t107 -43t43 -105t-43 -106q-43 -43 -106 -43zM266 371q0 -111 65 -180t173 -69t186 53
q78 52 158 157l41 205q-70 209 -287 208q-144 0 -240 -109t-96 -265zM952 -29q-64 0 -103 47q-40 47 -32 127q-150 -174 -329 -174t-284 113t-106 287q0 215 152 371t352 155q119 0 206 -56t118 -130l67 186h129l-149 -702q-16 -74 24 -74q25 0 47 30t66 105l123 -51
q-95 -175 -177 -215q-40 -20 -104 -19z" />
    <glyph glyph-name="aring" unicode="&#xe5;" 
d="M879 1243q0 51 -32 84t-84 33t-90 -36t-38 -87t33 -84t84 -33t89 36t38 87zM768 1477q104 0 166 -65q62 -64 63 -168t-73 -172t-177 -68t-167 63t-64 166t74 173t178 71zM266 371q0 -111 65 -180t173 -69t186 53q78 52 158 157l41 205q-70 209 -287 208q-144 0 -240 -109
t-96 -265zM952 -29q-64 0 -103 47q-40 47 -32 127q-150 -174 -329 -174t-284 113t-106 287q0 215 152 371t352 155q119 0 206 -56t118 -130l67 186h129l-149 -702q-16 -74 24 -74q25 0 47 30t66 105l123 -51q-95 -175 -177 -215q-40 -20 -104 -19z" />
    <glyph glyph-name="ae" unicode="&#xe6;" 
d="M303 115q98 0 234 96q-17 92 -9 147q-164 -8 -248 -40t-85 -105q0 -47 30 -73q31 -25 78 -25zM1065 659q0 37 -26 62t-72 24q-78 0 -149 -71q-70 -72 -111 -178h4q354 25 354 163zM814 -29q-154 0 -232 127q-176 -127 -322 -127q-102 1 -168 63t-66 162t72 168
q72 66 180 92t271 33q27 96 82 181q-23 94 -128 94t-173 -33q43 -15 43 -69t-34 -84t-86 -31q-52 0 -81 30t-31 80q0 106 111 173t246 67q170 0 235 -106q117 104 240 104t186 -62t64 -147q0 -301 -549 -324q-2 -14 -2 -43q0 -88 44 -142t115 -54q100 0 240 127l70 -109
q-173 -170 -327 -170z" />
    <glyph glyph-name="ccedilla" unicode="&#xe7;" 
d="M448 -483q-110 0 -188 47t-102 131l108 61q16 -55 62 -90t108 -35q61 0 101 27q39 27 38 76q-4 80 -141 63l-72 66l89 131q-145 43 -227 150q-81 108 -81 257q0 215 160 355q159 140 365 140q206 -1 317 -90t113 -218q0 -68 -43 -114t-103 -46t-102 38q-41 38 -43 93
q0 84 82 113q-75 80 -215 80t-248 -94t-109 -257q0 -121 82 -199t224 -77q178 0 358 141l86 -121q-217 -174 -444 -174q-25 0 -70 4l-43 -69q90 -2 144 -45t54 -128t-74 -151q-76 -66 -186 -65z" />
    <glyph glyph-name="egrave" unicode="&#xe8;" 
d="M596 1314q0 58 34 92t84 34t81 -34t39 -79l63 -266l-49 -37l-189 178q-63 54 -63 112zM626 -29q-222 0 -354 120q-131 119 -131 317t163 344t403 145q177 0 287 -79t110 -202q0 -160 -209 -228t-584 -38q17 -98 97 -162t206 -63q190 0 365 133l80 -121
q-211 -166 -433 -166zM934 616q0 58 -64 94t-163 35q-145 1 -251 -69t-139 -191h5q288 -20 450 16t162 115z" />
    <glyph glyph-name="eacute" unicode="&#xe9;" 
d="M626 -29q-222 0 -354 120q-131 119 -131 317t163 344t403 145q177 0 287 -79t110 -202q0 -160 -209 -228t-584 -38q17 -98 97 -162t206 -63q190 0 365 133l80 -121q-211 -166 -433 -166zM934 616q0 58 -64 94t-163 35q-145 1 -251 -69t-139 -191h5q288 -20 450 16
t162 115zM1069 1343q0 -92 -102 -147l-273 -168l-39 39l176 272q63 96 144 97q39 0 67 -27t27 -66z" />
    <glyph glyph-name="ecircumflex" unicode="&#xea;" 
d="M626 -29q-222 0 -354 120q-131 119 -131 317t163 344t403 145q177 0 287 -79t110 -202q0 -160 -209 -228t-584 -38q17 -98 97 -162t206 -63q190 0 365 133l80 -121q-211 -166 -433 -166zM934 616q0 58 -64 94t-163 35q-145 1 -251 -69t-139 -191h5q288 -20 450 16
t162 115zM839 1417q56 0 97 -74l149 -276l-59 -47l-211 192l-315 -192l-54 47l263 276q74 74 130 74z" />
    <glyph glyph-name="edieresis" unicode="&#xeb;" 
d="M626 -29q-222 0 -354 120q-131 119 -131 317t163 344t403 145q177 0 287 -79t110 -202q0 -160 -209 -228t-584 -38q17 -98 97 -162t206 -63q190 0 365 133l80 -121q-211 -166 -433 -166zM934 616q0 58 -64 94t-163 35q-145 1 -251 -69t-139 -191h5q288 -20 450 16
t162 115zM573 1051q-63 0 -108 43t-45 104q0 62 45 106t108 44t107 -44t43 -106q1 -62 -43 -104q-44 -43 -107 -43zM1014 1049q-63 0 -109 44q-45 44 -45 105q0 60 45 104t109 44t106 -43q43 -43 43 -105t-43 -106q-43 -43 -106 -43z" />
    <glyph glyph-name="igrave" unicode="&#xec;" 
d="M646 1440q50 0 81 -34t39 -79l63 -266l-49 -37l-188 178q-64 54 -64 112t34 92t84 34zM750 127q145 0 264 266l129 -61q-162 -360 -404 -361q-141 -1 -219 99t-49 237l76 348l-51 64h-334l33 149h550l-122 -569q-13 -76 21 -124t106 -48z" />
    <glyph glyph-name="iacute" unicode="&#xed;" 
d="M750 127q145 0 264 266l129 -61q-162 -360 -404 -361q-141 -1 -219 99t-49 237l76 348l-51 64h-334l33 149h550l-122 -569q-13 -76 21 -124t106 -48zM1004 1343q0 -92 -103 -147l-272 -168l-39 39l176 272q63 96 143 97q39 0 67 -27t28 -66z" />
    <glyph glyph-name="icircumflex" unicode="&#xee;" 
d="M750 127q145 0 264 266l129 -61q-162 -360 -404 -361q-141 -1 -219 99t-49 237l76 348l-51 64h-334l33 149h550l-122 -569q-13 -76 21 -124t106 -48zM773 1417q56 0 97 -74l150 -276l-59 -47l-211 192l-316 -192l-53 47l262 276q74 74 130 74z" />
    <glyph glyph-name="idieresis" unicode="&#xef;" 
d="M750 127q145 0 264 266l129 -61q-162 -360 -404 -361q-141 -1 -219 99t-49 237l76 348l-51 64h-334l33 149h550l-122 -569q-13 -76 21 -124t106 -48zM506 1051q-63 0 -109 43q-45 43 -45 104q0 62 45 106t109 44t106 -44q43 -44 43 -106t-43 -104q-43 -43 -106 -43z
M946 1346q62 0 106 -43t44 -105t-44 -106q-44 -43 -107 -43q-62 0 -107 44t-45 105q0 60 45 104t108 44z" />
    <glyph glyph-name="eth" unicode="&#xf0;" 
d="M928 430q0 120 -72 186t-211 66t-241 -91t-101 -213q0 -122 72 -188t211 -66q138 0 240 93t102 213zM561 -27q-193 1 -311 107t-119 288q0 182 152 325q152 142 374 143q162 0 256 -105q-63 176 -192 281l-252 -121l-51 98l190 90q-104 53 -241 76l45 133
q207 -31 358 -131l229 111l52 -99l-183 -88q236 -217 236 -563q0 -242 -155 -394t-388 -151z" />
    <glyph glyph-name="ntilde" unicode="&#xf1;" 
d="M625 1317q73 0 149 -71q76 -70 117 -70t77 37t50 100h160q-27 -129 -108 -207t-172 -78t-159 71q-67 71 -112 71q-45 -2 -82 -38t-49 -98h-158q27 129 105 206q79 77 182 77zM788 897q131 0 197 -87t35 -235l-82 -380q-16 -74 27 -74q23 0 45 30t65 105l123 -51
q-96 -176 -177 -214q-40 -19 -87 -20q-96 1 -134 63t-18 159l70 323q49 229 -115 229q-157 1 -329 -235l-109 -510h-156l142 655l-49 64h-111l31 149h327l-34 -170q51 58 91 96t108 70t140 33z" />
    <glyph glyph-name="ograve" unicode="&#xf2;" 
d="M594 1314q0 58 34 92t84 34t81 -34t38 -79l64 -266l-49 -37l-189 178q-63 54 -63 112zM139 408q1 196 151 342t362 147q212 0 339 -121q127 -120 127 -316t-152 -342t-361 -146q-210 0 -338 120t-128 316zM946 454q0 136 -78 214t-220 77q-142 0 -238 -97
q-98 -98 -98 -234t77 -214t219 -77q142 0 240 97q98 98 98 234z" />
    <glyph glyph-name="oacute" unicode="&#xf3;" 
d="M139 408q1 196 151 342t362 147q212 0 339 -121q127 -120 127 -316t-152 -342t-361 -146q-210 0 -338 120t-128 316zM946 454q0 136 -78 214t-220 77q-142 0 -238 -97q-98 -98 -98 -234t77 -214t219 -77q142 0 240 97q98 98 98 234zM1069 1343q0 -92 -102 -147l-273 -168
l-39 39l176 272q63 96 144 97q39 0 67 -27t27 -66z" />
    <glyph glyph-name="ocircumflex" unicode="&#xf4;" 
d="M139 408q1 196 151 342t362 147q212 0 339 -121q127 -120 127 -316t-152 -342t-361 -146q-210 0 -338 120t-128 316zM946 454q0 136 -78 214t-220 77q-142 0 -238 -97q-98 -98 -98 -234t77 -214t219 -77q142 0 240 97q98 98 98 234zM839 1417q56 0 97 -74l149 -276
l-59 -47l-211 192l-315 -192l-54 47l263 276q74 74 130 74z" />
    <glyph glyph-name="otilde" unicode="&#xf5;" 
d="M913 1028q-45 0 -85 23t-64 49q-66 71 -111 70q-45 -2 -82 -38t-49 -98h-157q27 129 105 206q79 77 166 77t164 -71q78 -70 118 -70t76 37t50 100h160q-28 -129 -108 -207t-183 -78zM139 408q1 196 151 342t362 147q212 0 339 -121q127 -120 127 -316t-152 -342
t-361 -146q-210 0 -338 120t-128 316zM946 454q0 136 -78 214t-220 77q-142 0 -238 -97q-98 -98 -98 -234t77 -214t219 -77q142 0 240 97q98 98 98 234z" />
    <glyph glyph-name="odieresis" unicode="&#xf6;" 
d="M139 408q1 196 151 342t362 147q212 0 339 -121q127 -120 127 -316t-152 -342t-361 -146q-210 0 -338 120t-128 316zM946 454q0 136 -78 214t-220 77q-142 0 -238 -97q-98 -98 -98 -234t77 -214t219 -77q142 0 240 97q98 98 98 234zM571 1051q-63 0 -108 43t-45 104
q0 62 45 106t108 44t107 -44t43 -106q1 -62 -43 -104q-44 -43 -107 -43zM1011 1049q-62 0 -108 44q-45 44 -45 105q0 60 45 104t109 44t106 -43q43 -43 43 -105t-44 -106q-44 -43 -106 -43z" />
    <glyph glyph-name="divide" unicode="&#xf7;" 
d="M186 504l31 149h924l-31 -149h-924zM455 202q0 52 35 88q36 36 90 36t89 -36q36 -36 36 -88t-37 -89t-88 -37t-88 37t-37 89zM616 955q0 52 36 89t88 37t89 -37t37 -89t-37 -88t-89 -36t-88 36t-36 88z" />
    <glyph glyph-name="oslash" unicode="&#xf8;" 
d="M1118 465q0 -201 -152 -347t-368 -147q-141 0 -250 66l-174 -184l-104 86l174 184q-104 117 -105 280q0 201 151 347t369 147q139 0 252 -68l164 175l105 -86l-164 -175q102 -114 102 -278zM598 119q152 0 252 99t100 247q0 90 -45 162l-450 -475q65 -33 143 -33z
M659 750q-153 0 -251 -100t-99 -247q0 -90 45 -163l451 477q-66 33 -146 33z" />
    <glyph glyph-name="ugrave" unicode="&#xf9;" 
d="M545 1314q0 58 34 92t84 34q51 0 81 -34t38 -79l64 -266l-49 -37l-189 178q-63 54 -63 112zM480 123q164 0 323 215l112 530h156l-143 -669q-16 -78 24 -78q24 0 48 32t63 103l123 -51q-31 -55 -49 -85q-88 -146 -215 -149q-80 0 -119 47t-31 132q-51 -53 -87 -84
q-37 -31 -103 -63t-136 -32q-138 -1 -208 93t-37 245l73 346l-49 64h-110l32 149h328l-110 -514q-49 -231 115 -231z" />
    <glyph glyph-name="uacute" unicode="&#xfa;" 
d="M480 123q164 0 323 215l112 530h156l-143 -669q-16 -78 24 -78q24 0 48 32t63 103l123 -51q-31 -55 -49 -85q-88 -146 -215 -149q-80 0 -119 47t-31 132q-51 -53 -87 -84q-37 -31 -103 -63t-136 -32q-138 -1 -208 93t-37 245l73 346l-49 64h-110l32 149h328l-110 -514
q-49 -231 115 -231zM1018 1343q0 -92 -103 -147l-272 -168l-39 39l176 272q63 96 144 97q38 0 66 -27t28 -66z" />
    <glyph glyph-name="ucircumflex" unicode="&#xfb;" 
d="M480 123q164 0 323 215l112 530h156l-143 -669q-16 -78 24 -78q24 0 48 32t63 103l123 -51q-31 -55 -49 -85q-88 -146 -215 -149q-80 0 -119 47t-31 132q-51 -53 -87 -84q-37 -31 -103 -63t-136 -32q-138 -1 -208 93t-37 245l73 346l-49 64h-110l32 149h328l-110 -514
q-49 -231 115 -231zM787 1417q56 0 98 -74l149 -276l-59 -47l-211 192l-315 -192l-54 47l262 276q74 74 130 74z" />
    <glyph glyph-name="udieresis" unicode="&#xfc;" 
d="M480 123q164 0 323 215l112 530h156l-143 -669q-16 -78 24 -78q24 0 48 32t63 103l123 -51q-31 -55 -49 -85q-88 -146 -215 -149q-80 0 -119 47t-31 132q-51 -53 -87 -84q-37 -31 -103 -63t-136 -32q-138 -1 -208 93t-37 245l73 346l-49 64h-110l32 149h328l-110 -514
q-49 -231 115 -231zM522 1051q-63 0 -108 43t-45 104q0 62 45 106t108 44q62 0 106 -44t44 -106t-44 -104q-44 -43 -106 -43zM962 1049q-62 0 -108 44q-45 44 -45 105q0 60 45 104q44 44 108 44t107 -43t43 -105t-44 -106q-44 -43 -106 -43z" />
    <glyph glyph-name="yacute" unicode="&#xfd;" 
d="M1063 1343q0 -92 -102 -147l-273 -168l-39 39l176 272q63 96 144 97q39 0 67 -27t27 -66zM508 14q-135 0 -208 94t-40 244l66 303l-50 64h-110l31 149h327l-100 -471q-49 -231 118 -231t324 215l105 487h153l-174 -823q-98 -459 -493 -459q-168 0 -276 79t-107 192
q-2 67 36 111t93 44t84 -30t29 -71q0 -40 -21 -66q-20 -26 -47 -29q50 -98 198 -98t237 90q89 91 124 247l29 138q-49 -51 -87 -83t-106 -64t-135 -32z" />
    <glyph glyph-name="thorn" unicode="&#xfe;" 
d="M775 897q179 0 279 -112t99 -287q0 -213 -152 -370t-352 -157q-119 1 -207 57t-118 132l-78 -363l24 -33h201l-31 -149h-528l33 149h108l41 33l271 1276l-25 33h-109l31 149h293l-113 -532q154 174 333 174zM748 745q-108 0 -187 -52q-78 -52 -160 -156l-41 -205
q74 -209 289 -209q145 0 241 110q95 111 95 265q0 111 -64 179q-65 68 -173 68z" />
    <glyph glyph-name="ydieresis" unicode="&#xff;" 
d="M565 1051q-63 0 -108 43t-45 104q0 62 45 106t108 44t107 -44t43 -106q1 -62 -43 -104q-44 -43 -107 -43zM1006 1049q-63 0 -109 44q-45 44 -45 105q0 60 45 104t109 44t106 -43q43 -43 43 -105t-43 -106q-43 -43 -106 -43zM508 14q-135 0 -208 94t-40 244l66 303l-50 64
h-110l31 149h327l-100 -471q-49 -231 118 -231t324 215l105 487h153l-174 -823q-98 -459 -493 -459q-168 0 -276 79t-107 192q-2 67 36 111t93 44t84 -30t29 -71q0 -40 -21 -66q-20 -26 -47 -29q50 -98 198 -98t237 90q89 91 124 247l29 138q-49 -51 -87 -83t-106 -64
t-135 -32z" />
    <glyph glyph-name="Amacron" unicode="&#x100;" 
d="M522 1489h633l-33 -152h-633zM455 150l-33 -150h-498l33 150h127l602 1017h193l168 -1017h127l-33 -150h-496l33 150h119l69 51l-28 188h-443l-108 -188l49 -51h119zM815 539l-70 460l-264 -460h334z" />
    <glyph glyph-name="amacron" unicode="&#x101;" 
d="M436 1217h633l-31 -150h-632zM266 371q0 -111 65 -180t173 -69t186 53q78 52 158 157l41 205q-70 209 -287 208q-144 0 -240 -109t-96 -265zM952 -29q-64 0 -103 47q-40 47 -32 127q-150 -174 -329 -174t-284 113t-106 287q0 215 152 371t352 155q119 0 206 -56t118 -130
l67 186h129l-149 -702q-16 -74 24 -74q25 0 47 30t66 105l123 -51q-95 -175 -177 -215q-40 -20 -104 -19z" />
    <glyph glyph-name="Abreve" unicode="&#x102;" 
d="M830 1448q79 0 157 49t119 133l111 -28q-59 -148 -167 -230t-240 -82t-209 82t-75 230l109 28q2 -84 59 -133t136 -49zM455 150l-33 -150h-498l33 150h127l602 1017h193l168 -1017h127l-33 -150h-496l33 150h119l69 51l-28 188h-443l-108 -188l49 -51h119zM815 539
l-70 460l-264 -460h334z" />
    <glyph glyph-name="abreve" unicode="&#x103;" 
d="M742 1180q79 0 157 48t119 132l110 -27q-58 -149 -166 -231t-240 -82t-209 82t-75 231l109 27q2 -82 59 -131t136 -49zM266 371q0 -111 65 -180t173 -69t186 53q78 52 158 157l41 205q-70 209 -287 208q-144 0 -240 -109t-96 -265zM952 -29q-64 0 -103 47q-40 47 -32 127
q-150 -174 -329 -174t-284 113t-106 287q0 215 152 371t352 155q119 0 206 -56t118 -130l67 186h129l-149 -702q-16 -74 24 -74q25 0 47 30t66 105l123 -51q-95 -175 -177 -215q-40 -20 -104 -19z" />
    <glyph glyph-name="Aogonek" unicode="&#x104;" 
d="M592 -481q-84 0 -129 43q-45 42 -45 112t52 142t177 184h-2l33 150h119l69 51l-28 188h-443l-108 -188l49 -51h119l-33 -150h-498l33 150h127l602 1017h193l168 -1017h127l-33 -150h-299q-274 -236 -275 -303q-1 -43 57 -43t175 106l75 -106q-156 -135 -282 -135z
M815 539l-70 460l-264 -460h334z" />
    <glyph glyph-name="aogonek" unicode="&#x105;" 
d="M266 371q0 -111 65 -180t173 -69t186 53q78 52 158 157l41 205q-70 209 -287 208q-144 0 -240 -109t-96 -265zM870 -481q-84 0 -129 43q-45 42 -45 110t48 138t159 172q-102 33 -86 163q-150 -174 -329 -174t-284 113t-106 287q0 215 152 371t352 155q119 0 206 -56
t118 -130l67 186h129l-149 -702q-16 -74 24 -74q25 0 47 30t66 105l123 -51q-55 -103 -155 -209t-166 -178q-67 -72 -66 -121q0 -43 58 -43t173 106l76 -106q-156 -135 -283 -135z" />
    <glyph glyph-name="Cacute" unicode="&#x106;" 
d="M1067 1708q37 0 66 -28t28 -66q0 -88 -102 -148l-273 -168l-38 39l176 273q61 98 143 98zM622 -29q-234 -1 -364 137q-129 138 -129 357q0 295 182 513t451 218q180 0 282 -127l27 12l19 86h159l-90 -424h-123q-10 139 -80 215t-196 76q-193 0 -321 -170t-128 -395
q0 -147 78 -241t219 -93q201 0 391 178l88 -123q-231 -219 -465 -219z" />
    <glyph glyph-name="cacute" unicode="&#x107;" 
d="M952 428q-60 0 -102 38q-41 38 -43 93q0 84 82 113q-75 80 -215 80t-248 -94t-109 -257q0 -121 82 -199t224 -77q178 0 358 141l86 -121q-217 -174 -442 -173t-354 120q-128 120 -128 322t160 342q159 140 365 140q206 -1 317 -90t113 -218q0 -68 -43 -114t-103 -46z
M1059 1343q0 -92 -103 -147l-272 -168l-39 39l176 272q63 96 144 97q39 0 67 -27t27 -66z" />
    <glyph glyph-name="Ccircumflex" unicode="&#x108;" 
d="M908 1688q58 0 98 -74l151 -277l-61 -47l-211 195l-316 -195l-53 47l264 277q70 74 128 74zM622 -29q-234 -1 -364 137q-129 138 -129 357q0 295 182 513t451 218q180 0 282 -127l27 12l19 86h159l-90 -424h-123q-10 139 -80 215t-196 76q-193 0 -321 -170t-128 -395
q0 -147 78 -241t219 -93q201 0 391 178l88 -123q-231 -219 -465 -219z" />
    <glyph glyph-name="ccircumflex" unicode="&#x109;" 
d="M952 428q-60 0 -102 38q-41 38 -43 93q0 84 82 113q-75 80 -215 80t-248 -94t-109 -257q0 -121 82 -199t224 -77q178 0 358 141l86 -121q-217 -174 -442 -173t-354 120q-128 120 -128 322t160 342q159 140 365 140q206 -1 317 -90t113 -218q0 -68 -43 -114t-103 -46z
M828 1417q56 0 98 -74l149 -276l-59 -47l-211 192l-316 -192l-53 47l262 276q74 74 130 74z" />
    <glyph glyph-name="Cdotaccent" unicode="&#x10a;" 
d="M622 -29q-234 -1 -364 137q-129 138 -129 357q0 295 182 513t451 218q180 0 282 -127l27 12l19 86h159l-90 -424h-123q-10 139 -80 215t-196 76q-193 0 -321 -170t-128 -395q0 -147 78 -241t219 -93q201 0 391 178l88 -123q-231 -219 -465 -219zM1030 1455
q0 -67 -45 -111t-111 -44t-109 44q-44 44 -44 112q0 66 43 110q44 44 110 44t111 -44t45 -111z" />
    <glyph glyph-name="cdotaccent" unicode="&#x10b;" 
d="M936 1194q0 -66 -45 -110t-111 -44t-109 44q-44 44 -44 110t44 111q43 45 109 45t111 -45t45 -111zM952 428q-60 0 -102 38q-41 38 -43 93q0 84 82 113q-75 80 -215 80t-248 -94t-109 -257q0 -121 82 -199t224 -77q178 0 358 141l86 -121q-217 -174 -442 -173t-354 120
q-128 120 -128 322t160 342q159 140 365 140q206 -1 317 -90t113 -218q0 -68 -43 -114t-103 -46z" />
    <glyph glyph-name="Ccaron" unicode="&#x10c;" 
d="M857 1300q-60 0 -99 74l-152 277l62 47l211 -195l313 195l55 -47l-264 -277q-66 -74 -126 -74zM622 -29q-234 -1 -364 137q-129 138 -129 357q0 295 182 513t451 218q180 0 282 -127l27 12l19 86h159l-90 -424h-123q-10 139 -80 215t-196 76q-193 0 -321 -170t-128 -395
q0 -147 78 -241t219 -93q201 0 391 178l88 -123q-231 -219 -465 -219z" />
    <glyph glyph-name="ccaron" unicode="&#x10d;" 
d="M952 428q-60 0 -102 38q-41 38 -43 93q0 84 82 113q-75 80 -215 80t-248 -94t-109 -257q0 -121 82 -199t224 -77q178 0 358 141l86 -121q-217 -174 -442 -173t-354 120q-128 120 -128 322t160 342q159 140 365 140q206 -1 317 -90t113 -218q0 -68 -43 -114t-103 -46z
M760 1028q-57 0 -96 74l-150 276l59 47l211 -192l316 192l53 -47l-262 -276q-74 -74 -131 -74z" />
    <glyph glyph-name="Dcaron" unicode="&#x10e;" 
d="M446 0h-479l33 150h121l76 61l157 743l-49 64h-121l33 149h467q260 0 396 -134t137 -365q1 -284 -215 -476t-556 -192zM479 150q250 0 402 148t151 370q0 160 -90 255t-278 95h-136l-186 -868h137zM761 1300q-60 0 -99 74l-152 277l61 47l211 -195l314 195l55 -47
l-264 -277q-66 -74 -126 -74z" />
    <glyph glyph-name="dcaron" unicode="&#x10f;" 
d="M266 371q0 -111 65 -180t173 -69t186 53q78 52 158 157l41 205q-70 209 -287 208q-144 0 -240 -109t-96 -265zM952 -29q-64 0 -103 47q-40 47 -32 127q-150 -174 -329 -174t-284 113t-106 287q0 215 152 371t352 155q119 0 206 -56t118 -130l78 362l-25 33h-201l31 149
h389l-225 -1060q-16 -74 24 -74q25 0 47 30t66 105l123 -51q-95 -175 -177 -215q-40 -20 -104 -19zM1470 1509q45 1 78 -31t33 -84t-53 -108l-217 -254l-54 25l84 325q29 127 129 127z" />
    <glyph glyph-name="Dcroat" unicode="&#x110;" 
d="M479 150q250 0 402 148t151 370q0 160 -90 255t-278 95h-136l-69 -326h272l-31 -149h-274l-84 -393h137zM446 0h-479l33 150h121l76 61l69 332h-182l31 149h184l55 262l-49 64h-121l33 149h467q260 0 396 -134t137 -365q1 -284 -215 -476t-556 -192z" />
    <glyph glyph-name="dcroat" unicode="&#x111;" 
d="M281 344q0 -100 61 -162q60 -62 166 -61q106 0 181 47t153 139l39 185q-70 186 -277 186q-141 0 -232 -98t-91 -236zM952 -29q-64 0 -103 43q-40 43 -30 117q-156 -160 -331 -160q-175 1 -279 105t-105 266q0 205 148 345t350 140q119 0 201 -51t112 -123l58 271h-338
l24 116h338l17 78l-19 23h-209l23 114h389l-45 -215h170l-25 -116h-170l-155 -729q-16 -74 24 -74q25 0 47 30t66 105l123 -51q-95 -175 -177 -215q-40 -20 -104 -19z" />
    <glyph glyph-name="Emacron" unicode="&#x112;" 
d="M375 150h467l78 63l45 211h155l-90 -424h-1069l33 150h160l77 63l156 741l-49 64h-160l33 149h1061l-94 -434h-156l47 221l-49 64h-459l-76 -356h170l78 63l25 125h131l-109 -512h-131l27 123l-49 63h-170zM530 1489h633l-33 -152h-632z" />
    <glyph glyph-name="emacron" unicode="&#x113;" 
d="M483 1217h633l-31 -150h-632zM626 -29q-222 0 -354 120q-131 119 -131 317t163 344t403 145q177 0 287 -79t110 -202q0 -160 -209 -228t-584 -38q17 -98 97 -162t206 -63q190 0 365 133l80 -121q-211 -166 -433 -166zM934 616q0 58 -64 94t-163 35q-145 1 -251 -69
t-139 -191h5q288 -20 450 16t162 115z" />
    <glyph glyph-name="Ebreve" unicode="&#x114;" 
d="M375 150h467l78 63l45 211h155l-90 -424h-1069l33 150h160l77 63l156 741l-49 64h-160l33 149h1061l-94 -434h-156l47 221l-49 64h-459l-76 -356h170l78 63l25 125h131l-109 -512h-131l27 123l-49 63h-170zM835 1448q79 0 157 49t118 133l111 -28q-59 -148 -167 -230
t-240 -82t-209 82t-75 230l109 28q1 -84 59 -133t137 -49z" />
    <glyph glyph-name="ebreve" unicode="&#x115;" 
d="M787 1180q79 0 157 48t119 132l111 -27q-59 -149 -167 -231t-240 -82t-209 82t-75 231l109 27q2 -82 59 -131t136 -49zM626 -29q-222 0 -354 120q-131 119 -131 317t163 344t403 145q177 0 287 -79t110 -202q0 -160 -209 -228t-584 -38q17 -98 97 -162t206 -63
q190 0 365 133l80 -121q-211 -166 -433 -166zM934 616q0 58 -64 94t-163 35q-145 1 -251 -69t-139 -191h5q288 -20 450 16t162 115z" />
    <glyph glyph-name="Edotaccent" unicode="&#x116;" 
d="M375 150h467l78 63l45 211h155l-90 -424h-1069l33 150h160l77 63l156 741l-49 64h-160l33 149h1061l-94 -434h-156l47 221l-49 64h-459l-76 -356h170l78 63l25 125h131l-109 -512h-131l27 123l-49 63h-170zM839 1610q67 0 111 -44t45 -111q-1 -67 -45 -111t-110 -44
t-110 44t-44 112q0 66 43 110t110 44z" />
    <glyph glyph-name="edotaccent" unicode="&#x117;" 
d="M793 1350q67 0 111 -45t44 -111t-44 -110t-110 -44t-111 44q-44 44 -44 110t44 111t110 45zM626 -29q-222 0 -354 120q-131 119 -131 317t163 344t403 145q177 0 287 -79t110 -202q0 -160 -209 -228t-584 -38q17 -98 97 -162t206 -63q190 0 365 133l80 -121
q-211 -166 -433 -166zM934 616q0 58 -64 94t-163 35q-145 1 -251 -69t-139 -191h5q288 -20 450 16t162 115z" />
    <glyph glyph-name="Eogonek" unicode="&#x118;" 
d="M625 -481q-84 0 -129 43q-45 42 -45 112t52 142t177 184h-719l33 150h160l77 63l156 741l-49 64h-160l33 149h1061l-94 -434h-156l47 221l-49 64h-459l-76 -356h170l78 63l25 125h131l-109 -512h-131l27 123l-49 63h-170l-82 -374h467l78 63l45 211h155l-90 -424h-156
q-274 -236 -274 -303q0 -43 58 -43t173 106l76 -106q-156 -135 -282 -135z" />
    <glyph glyph-name="eogonek" unicode="&#x119;" 
d="M698 -481q-84 0 -129 43t-45 110q0 115 172 305q-41 -6 -82 -6q-211 0 -342 120q-131 119 -131 317t163 344t403 145q177 0 287 -79t110 -202q0 -160 -207 -226t-586 -42q15 -96 97 -160t206 -63q190 0 365 133l80 -121q-181 -135 -283 -255t-102 -185q0 -43 58 -43
t173 106l76 -106q-156 -135 -283 -135zM934 616q0 58 -64 94t-163 35q-145 0 -251 -70q-105 -71 -134 -192h8q284 -20 444 17t160 116z" />
    <glyph glyph-name="Ecaron" unicode="&#x11a;" 
d="M375 150h467l78 63l45 211h155l-90 -424h-1069l33 150h160l77 63l156 741l-49 64h-160l33 149h1061l-94 -434h-156l47 221l-49 64h-459l-76 -356h170l78 63l25 125h131l-109 -512h-131l27 123l-49 63h-170zM824 1300q-60 0 -99 74l-152 277l62 47l211 -195l313 195
l55 -47l-264 -277q-66 -74 -126 -74z" />
    <glyph glyph-name="ecaron" unicode="&#x11b;" 
d="M626 -29q-222 0 -354 120q-131 119 -131 317t163 344t403 145q177 0 287 -79t110 -202q0 -160 -209 -228t-584 -38q17 -98 97 -162t206 -63q190 0 365 133l80 -121q-211 -166 -433 -166zM934 616q0 58 -64 94t-163 35q-145 1 -251 -69t-139 -191h5q288 -20 450 16
t162 115zM770 1028q-57 0 -96 74l-150 276l60 47l211 -192l315 192l53 -47l-262 -276q-74 -74 -131 -74z" />
    <glyph glyph-name="Gcircumflex" unicode="&#x11c;" 
d="M873 1688q58 0 98 -74l151 -277l-61 -47l-211 195l-315 -195l-54 47l264 277q70 74 128 74zM508 -29q-178 -1 -292 139t-114 345q0 295 184 518t462 223q190 0 270 -121l33 12l16 80h152l-84 -393h-121q-8 115 -82 188t-187 72q-203 0 -331 -176t-129 -403
q0 -147 71 -237q72 -89 203 -89q164 0 340 176l21 103l-35 49h-160l33 149h485l-33 -149h-69l-72 -60l-84 -397h-154l19 82l-25 20q-139 -131 -317 -131z" />
    <glyph glyph-name="gcircumflex" unicode="&#x11d;" 
d="M123 414q0 207 140 345t349 138q119 0 206 -56t118 -128l31 155h299l-33 -149h-109l-41 -33l-135 -641q-47 -217 -179 -338t-345 -121q-170 0 -287 82t-117 195q-2 67 36 111t92 44t84 -30t30 -72q0 -41 -19 -66t-46 -28q57 -104 213 -104t253 89q95 90 128 248l26 135
q-141 -166 -312 -166t-277 112q-105 112 -105 278zM614 745q-145 0 -236 -93t-91 -234q1 -104 65 -173t171 -69t183 48t156 145l33 184q-70 192 -281 192zM814 1417q56 0 97 -74l150 -276l-60 -47l-210 192l-316 -192l-53 47l262 276q74 74 130 74z" />
    <glyph glyph-name="Gbreve" unicode="&#x11e;" 
d="M508 -29q-178 -1 -292 139t-114 345q0 295 184 518t462 223q190 0 270 -121l33 12l16 80h152l-84 -393h-121q-8 115 -82 188t-187 72q-203 0 -331 -176t-129 -403q0 -147 71 -237q72 -89 203 -89q164 0 340 176l21 103l-35 49h-160l33 149h485l-33 -149h-69l-72 -60
l-84 -397h-154l19 82l-25 20q-139 -131 -317 -131zM832 1448q79 0 157 49t119 133l111 -28q-59 -148 -167 -230t-240 -82t-209 82t-75 230l109 28q2 -84 59 -133t136 -49z" />
    <glyph glyph-name="gbreve" unicode="&#x11f;" 
d="M763 1180q79 0 157 48t118 132l111 -27q-59 -149 -167 -231t-240 -82t-208 82t-75 231l108 27q1 -82 59 -131t137 -49zM123 414q0 207 140 345t349 138q119 0 206 -56t118 -128l31 155h299l-33 -149h-109l-41 -33l-135 -641q-47 -217 -179 -338t-345 -121q-170 0 -287 82
t-117 195q-2 67 36 111t92 44t84 -30t30 -72q0 -41 -19 -66t-46 -28q57 -104 213 -104t253 89q95 90 128 248l26 135q-141 -166 -312 -166t-277 112q-105 112 -105 278zM614 745q-145 0 -236 -93t-91 -234q1 -104 65 -173t171 -69t183 48t156 145l33 184q-70 192 -281 192z
" />
    <glyph glyph-name="Gdotaccent" unicode="&#x120;" 
d="M508 -29q-178 -1 -292 139t-114 345q0 295 184 518t462 223q190 0 270 -121l33 12l16 80h152l-84 -393h-121q-8 115 -82 188t-187 72q-203 0 -331 -176t-129 -403q0 -147 71 -237q72 -89 203 -89q164 0 340 176l21 103l-35 49h-160l33 149h485l-33 -149h-69l-72 -60
l-84 -397h-154l19 82l-25 20q-139 -131 -317 -131zM837 1610q67 0 111 -44t45 -111q-1 -67 -45 -111t-110 -44t-110 44t-44 112q0 66 43 110t110 44z" />
    <glyph glyph-name="gdotaccent" unicode="&#x121;" 
d="M922 1194q0 -66 -45 -110t-111 -44t-110 44t-44 110t44 111t110 45t111 -45t45 -111zM123 414q0 207 140 345t349 138q119 0 206 -56t118 -128l31 155h299l-33 -149h-109l-41 -33l-135 -641q-47 -217 -179 -338t-345 -121q-170 0 -287 82t-117 195q-2 67 36 111t92 44
t84 -30t30 -72q0 -41 -19 -66t-46 -28q57 -104 213 -104t253 89q95 90 128 248l26 135q-141 -166 -312 -166t-277 112q-105 112 -105 278zM614 745q-145 0 -236 -93t-91 -234q1 -104 65 -173t171 -69t183 48t156 145l33 184q-70 192 -281 192z" />
    <glyph glyph-name="Gcommaaccent" unicode="&#x122;" 
d="M508 -29q-178 -1 -292 139t-114 345q0 295 184 518t462 223q190 0 270 -121l33 12l16 80h152l-84 -393h-121q-8 115 -82 188t-187 72q-203 0 -331 -176t-129 -403q0 -147 71 -237q72 -89 203 -89q164 0 340 176l21 103l-35 49h-160l33 149h485l-33 -149h-69l-72 -60
l-84 -397h-154l19 82l-25 20q-139 -131 -317 -131zM336 -281q0 63 41 105t101 41q60 0 102 -43q42 -44 41 -106q0 -62 -52 -115l-229 -232l-66 64l148 166q-86 36 -86 120z" />
    <glyph glyph-name="gcommaaccent" unicode="&#x123;" 
d="M123 414q0 207 140 345t349 138q119 0 206 -56t118 -128l31 155h299l-33 -149h-109l-41 -33l-135 -641q-47 -217 -179 -338t-345 -121q-170 0 -287 82t-117 195q-2 67 36 111t92 44t84 -30t30 -72q0 -41 -19 -66t-46 -28q57 -104 213 -104t253 89q95 90 128 248l26 135
q-141 -166 -312 -166t-277 112q-105 112 -105 278zM614 745q-145 0 -236 -93t-91 -234q1 -104 65 -173t171 -69t183 48t156 145l33 184q-70 192 -281 192zM897 1178q0 -60 -42 -102t-101 -42t-102 43q-42 43 -42 103t54 118l229 232l65 -64l-147 -168q86 -36 86 -120z" />
    <glyph glyph-name="Hcircumflex" unicode="&#x124;" 
d="M880 1688q58 0 97 -74l151 -277l-61 -47l-211 195l-315 -195l-54 47l265 277q70 74 128 74zM983 954l-49 64h-98l32 149h484l-33 -149h-98l-78 -64l-158 -741l49 -63h101l-33 -150h-484l31 150h101l77 63l68 322h-492l-67 -322l49 -63h98l-30 -150h-486l33 150h98l78 63
l158 741l-49 64h-101l33 149h485l-32 -149h-101l-77 -64l-56 -270h492z" />
    <glyph glyph-name="hcircumflex" unicode="&#x125;" 
d="M878 1718q58 0 97 -73l151 -277l-61 -47l-211 195l-315 -195l-54 47l265 277q70 73 128 73zM780 897q131 0 197 -87t35 -235l-82 -380q-12 -74 26 -74q24 0 46 30t65 105l123 -51q-61 -107 -98 -151q-69 -81 -165 -82q-97 0 -134 62t-17 159l68 323q53 229 -115 229
q-158 1 -330 -235l-108 -510h-154l221 1042l-49 64h-110l30 149h330l-119 -557q54 58 94 96t108 70t138 33z" />
    <glyph glyph-name="Hbar" unicode="&#x126;" 
d="M483 150l-30 -150h-486l33 150h98l78 63l100 473h-159l26 133h162l29 135l-49 64h-101l33 149h485l-32 -149h-101l-77 -64l-29 -135h491l29 135l-49 64h-98l32 149h484l-33 -149h-98l-78 -64l-29 -135h180l-28 -133h-181l-100 -473l49 -63h101l-33 -150h-484l31 150h101
l77 63l41 193h-491l-41 -193l49 -63h98zM408 555h491l27 131h-492z" />
    <glyph glyph-name="hbar" unicode="&#x127;" 
d="M719 688q-156 0 -332 -235l-96 -453h-154l195 924h-168l24 116h168l17 76l-23 25h-143l22 114h330l-45 -215h338l-25 -116h-338l-61 -285q53 59 93 97t108 71t139 33q133 0 198 -87t33 -237l-69 -321q-12 -74 26 -74q24 0 46 30t65 105l123 -51q-61 -107 -98 -151
q-69 -81 -165 -82q-97 0 -134 62t-17 159l55 264q53 231 -112 231z" />
    <glyph glyph-name="Itilde" unicode="&#x128;" 
d="M692 1583q88 0 164 -70q76 -69 117 -69t77 37t50 98h160q-27 -129 -109 -207t-172 -78t-158 71q-67 71 -112 71t-82 -36t-49 -97h-158q28 127 106 203t166 77zM651 954l-49 64h-276l32 149h852l-32 -149h-277l-78 -64l-157 -741l49 -63h276l-30 -150h-852l32 150h277
l78 63z" />
    <glyph glyph-name="itilde" unicode="&#x129;" 
d="M586 1317q72 0 148 -71q76 -70 118 -70q41 0 77 37t50 100h160q-27 -129 -108 -207t-172 -78t-159 71q-67 71 -112 71q-45 -2 -82 -38t-49 -98h-158q27 129 105 206q79 77 182 77zM750 127q145 0 264 266l129 -61q-162 -360 -404 -361q-141 -1 -219 99t-49 237l76 348
l-51 64h-334l33 149h550l-122 -569q-13 -76 21 -124t106 -48z" />
    <glyph glyph-name="Imacron" unicode="&#x12a;" 
d="M535 1489h632l-32 -152h-633zM651 954l-49 64h-276l32 149h852l-32 -149h-277l-78 -64l-157 -741l49 -63h276l-30 -150h-852l32 150h277l78 63z" />
    <glyph glyph-name="imacron" unicode="&#x12b;" 
d="M416 1217h633l-31 -150h-633zM750 127q145 0 264 266l129 -61q-162 -360 -404 -361q-141 -1 -219 99t-49 237l76 348l-51 64h-334l33 149h550l-122 -569q-13 -76 21 -124t106 -48z" />
    <glyph glyph-name="Ibreve" unicode="&#x12c;" 
d="M839 1448q79 0 157 49t118 133l111 -28q-59 -148 -167 -230t-240 -82t-209 82t-74 230l108 28q1 -84 59 -133t137 -49zM651 954l-49 64h-276l32 149h852l-32 -149h-277l-78 -64l-157 -741l49 -63h276l-30 -150h-852l32 150h277l78 63z" />
    <glyph glyph-name="ibreve" unicode="&#x12d;" 
d="M720 1180q79 0 157 48t118 132l111 -27q-59 -149 -167 -231t-240 -82t-209 82t-74 231l108 27q2 -82 60 -131t136 -49zM750 127q145 0 264 266l129 -61q-162 -360 -404 -361q-141 -1 -219 99t-49 237l76 348l-51 64h-334l33 149h550l-122 -569q-13 -76 21 -124t106 -48z
" />
    <glyph glyph-name="Iogonek" unicode="&#x12e;" 
d="M553 -481q-84 0 -129 43q-45 42 -45 112t52 142t177 184h-499l32 150h277l78 63l155 741l-49 64h-276l32 149h852l-32 -149h-277l-78 -64l-157 -741l49 -63h276l-30 -150h-158q-274 -236 -275 -303q0 -43 58 -43t174 106l76 -106q-156 -135 -283 -135z" />
    <glyph glyph-name="iogonek" unicode="&#x12f;" 
d="M739 -481q-84 0 -129 43t-45 110q0 113 170 314q-16 -2 -41 -2q-114 0 -184 90t-39 233l76 348l-51 64h-334l33 149h550l-122 -569q-13 -76 21 -124t106 -48q145 0 264 266l129 -61q-80 -174 -168 -258q-260 -297 -260 -377q-1 -43 57 -43t174 106l76 -106
q-156 -135 -283 -135zM842 1194q0 -66 -44 -110t-110 -44t-110 44q-46 44 -46 110t44 111t112 45q66 0 110 -45t44 -111z" />
    <glyph glyph-name="Idotaccent" unicode="&#x130;" 
d="M843 1610q67 0 111 -44t45 -111q-1 -67 -45 -111t-110 -44t-110 44t-44 112q0 66 43 110t110 44zM651 954l-49 64h-276l32 149h852l-32 -149h-277l-78 -64l-157 -741l49 -63h276l-30 -150h-852l32 150h277l78 63z" />
    <glyph glyph-name="dotlessi" unicode="&#x131;" 
d="M750 127q145 0 264 266l129 -61q-162 -360 -404 -361q-141 -1 -219 99t-49 237l76 348l-51 64h-334l33 149h550l-122 -569q-13 -76 21 -124t106 -48z" />
    <glyph glyph-name="Jcircumflex" unicode="&#x134;" 
d="M1046 1688q58 0 97 -74l151 -277l-61 -47l-211 195l-315 -195l-54 47l265 277q70 74 128 74zM457 -27q-175 1 -279 103t-104 246q0 106 54 172t133 66t124 -45q45 -44 45 -105q0 -60 -43 -104t-129 -38q4 -66 59 -108t159 -41q210 0 278 325l108 510l-51 64h-379l33 149
h856l-33 -149h-178l-76 -64l-110 -520q-51 -225 -172 -343t-295 -118z" />
    <glyph glyph-name="jcircumflex" unicode="&#x135;" 
d="M8 -70q0 78 48 132t117 54t110 -38q41 -39 41 -92t-38 -90t-91 -39q8 -55 57 -91t127 -36q238 0 309 331l127 594l-51 64h-369l31 149h588l-174 -817q-47 -223 -165 -340t-291 -117q-172 0 -274 98t-102 238zM976 1417q56 0 97 -74l150 -276l-60 -47l-211 192l-315 -192
l-53 47l262 276q74 74 130 74z" />
    <glyph glyph-name="Kcommaaccent" unicode="&#x136;" 
d="M483 150l-30 -150h-486l33 150h98l78 63l160 741l-51 64h-101l33 149h485l-32 -149h-101l-75 -64l-91 -419l517 432l-50 51h-63l33 149h471l-33 -149h-111l-413 -346l268 -522h125l-31 -150h-498l31 150h99l71 51l-190 366l-264 -221l-29 -133l49 -63h98zM322 -281
q0 63 42 105t101 41q59 0 100 -43q41 -44 41 -106t-51 -115l-229 -232l-66 64l148 166q-86 36 -86 120z" />
    <glyph glyph-name="kcommaaccent" unicode="&#x137;" 
d="M891 -29q-88 1 -143 51t-70 138l-16 92q-27 145 -115 176l-238 -135l-61 -293h-154l221 1042l-51 64h-114l32 149h332l-174 -819l438 258l8 35h-110l29 139h493l-29 -139h-92l-407 -231q104 -47 129 -187l16 -100q12 -102 88 -102q43 1 73 31t73 110l104 -76
q-100 -203 -262 -203zM322 -281q0 63 42 105t101 41q59 0 100 -43q41 -44 41 -106t-51 -115l-229 -232l-66 64l148 166q-86 36 -86 120z" />
    <glyph glyph-name="kgreenlandic" unicode="&#x138;" 
d="M891 -29q-88 1 -143 51t-70 138l-16 92q-27 145 -115 176l-238 -135l-61 -293h-154l139 655l-51 64h-114l32 149h332l-92 -432l438 258l8 35h-110l29 139h493l-29 -139h-92l-407 -231q104 -47 129 -187l16 -100q12 -102 88 -102q43 1 73 31t73 110l104 -76
q-100 -203 -262 -203z" />
    <glyph glyph-name="Lacute" unicode="&#x139;" 
d="M246 1167h567l-33 -149h-141l-78 -64l-170 -804h467l78 63l59 283h156l-107 -496h-1048l31 150h141l78 63l157 741l-49 64h-141zM930 1708q38 0 66 -28t28 -66q0 -88 -102 -148l-273 -168l-39 39l176 273q61 98 144 98z" />
    <glyph glyph-name="lacute" unicode="&#x13a;" 
d="M719 127q145 0 264 266l129 -61q-162 -360 -401 -361q-141 -1 -219 99t-50 237l156 735l-51 64h-338l31 149h557l-203 -956q-16 -76 18 -124t107 -48zM713 1368l176 272q61 98 143 99q37 0 66 -28t28 -66q0 -88 -102 -148l-272 -168z" />
    <glyph glyph-name="Lcommaaccent" unicode="&#x13b;" 
d="M246 1167h567l-33 -149h-141l-78 -64l-170 -804h467l78 63l59 283h156l-107 -496h-1048l31 150h141l78 63l157 741l-49 64h-141zM332 -281q0 63 41 105t101 41q60 0 101 -43q41 -44 41 -106t-51 -115l-229 -232l-66 64l148 166q-86 36 -86 120z" />
    <glyph glyph-name="lcommaaccent" unicode="&#x13c;" 
d="M719 127q145 0 264 266l129 -61q-162 -360 -401 -361q-141 -1 -219 99t-50 237l156 735l-51 64h-338l31 149h557l-203 -956q-16 -76 18 -124t107 -48zM459 -281q0 63 41 105t101 41q60 0 101 -43q41 -44 41 -106t-51 -115l-229 -232l-66 64l148 166q-86 36 -86 120z" />
    <glyph glyph-name="Lcaron" unicode="&#x13d;" 
d="M246 1167h567l-33 -149h-141l-78 -64l-170 -804h467l78 63l59 283h156l-107 -496h-1048l31 150h141l78 63l157 741l-49 64h-141zM932 848l84 326q29 127 129 126q45 0 78 -32t33 -83q0 -52 -54 -108l-217 -254z" />
    <glyph glyph-name="lcaron" unicode="&#x13e;" 
d="M719 127q145 0 264 266l129 -61q-162 -360 -401 -361q-141 -1 -219 99t-50 237l156 735l-51 64h-338l31 149h557l-203 -956q-16 -76 18 -124t107 -48zM1212 1507q45 1 78 -31t33 -84t-53 -108l-217 -254l-54 25l84 325q29 127 129 127z" />
    <glyph glyph-name="Ldot" unicode="&#x13f;" 
d="M895 846q0 66 44 110t110 45q67 0 111 -45t44 -110q0 -66 -44 -110t-110 -44t-111 44q-44 44 -44 110zM246 1167h567l-33 -149h-141l-78 -64l-170 -804h467l78 63l59 283h156l-107 -496h-1048l31 150h141l78 63l157 741l-49 64h-141z" />
    <glyph glyph-name="ldot" unicode="&#x140;" 
d="M1403 726q0 -66 -45 -110q-44 -44 -110 -45q-66 0 -110 44t-44 110t44 111t110 45t110 -45q45 -44 45 -110zM719 127q145 0 264 266l129 -61q-162 -360 -401 -361q-141 -1 -219 99t-50 237l156 735l-51 64h-338l31 149h557l-203 -956q-16 -76 18 -124t107 -48z" />
    <glyph glyph-name="Lslash" unicode="&#x141;" 
d="M1044 0h-1048l31 150h141l78 63l57 274l-174 -65l-43 133l252 94l65 305l-49 64h-141l33 149h567l-33 -149h-141l-78 -64l-53 -249l291 110l45 -133l-369 -137l-84 -395h467l78 63l59 283h156z" />
    <glyph glyph-name="lslash" unicode="&#x142;" 
d="M711 -29q-141 -1 -219 99t-50 237l52 244l-258 -133l-66 119l360 186l68 319l-51 64h-338l31 149h557l-97 -448l277 143l65 -119l-378 -200l-70 -332q-16 -76 18 -124t107 -48q145 0 264 266l129 -61q-161 -361 -401 -361z" />
    <glyph glyph-name="Nacute" unicode="&#x143;" 
d="M940 0h-168l-283 965l-159 -752l49 -63h100l-33 -150h-479l33 150h98l78 63l158 741l-49 64h-101l33 149h383l244 -897l145 684l-49 64h-100l32 149h480l-33 -149h-98l-78 -64zM1018 1708q38 0 66 -28t28 -66q0 -88 -102 -148l-273 -168l-39 39l176 273q61 98 144 98z
" />
    <glyph glyph-name="nacute" unicode="&#x144;" 
d="M788 897q131 0 197 -87t35 -235l-82 -380q-16 -74 27 -74q23 0 45 30t65 105l123 -51q-96 -176 -177 -214q-40 -19 -87 -20q-96 1 -134 63t-18 159l70 323q49 229 -115 229q-157 1 -329 -235l-109 -510h-156l142 655l-49 64h-111l31 149h327l-34 -170q51 58 91 96t108 70
t140 33zM627 1067l176 272q63 96 143 97q39 0 67 -27t27 -66q0 -92 -102 -147l-272 -168z" />
    <glyph glyph-name="Ncommaaccent" unicode="&#x145;" 
d="M940 0h-168l-283 965l-159 -752l49 -63h100l-33 -150h-479l33 150h98l78 63l158 741l-49 64h-101l33 149h383l244 -897l145 684l-49 64h-100l32 149h480l-33 -149h-98l-78 -64zM322 -281q0 63 42 105t101 41q59 0 100 -43q41 -44 41 -106t-51 -115l-229 -232l-66 64
l148 166q-86 36 -86 120z" />
    <glyph glyph-name="ncommaaccent" unicode="&#x146;" 
d="M788 897q131 0 197 -87t35 -235l-82 -380q-16 -74 27 -74q23 0 45 30t65 105l123 -51q-96 -176 -177 -214q-40 -19 -87 -20q-96 1 -134 63t-18 159l70 323q49 229 -115 229q-157 1 -329 -235l-109 -510h-156l142 655l-49 64h-111l31 149h327l-34 -170q51 58 91 96t108 70
t140 33zM315 -281q0 63 41 105q42 42 102 41q60 0 101 -43q41 -44 41 -106t-51 -115l-230 -232l-65 64l147 166q-86 36 -86 120z" />
    <glyph glyph-name="Ncaron" unicode="&#x147;" 
d="M940 0h-168l-283 965l-159 -752l49 -63h100l-33 -150h-479l33 150h98l78 63l158 741l-49 64h-101l33 149h383l244 -897l145 684l-49 64h-100l32 149h480l-33 -149h-98l-78 -64zM808 1300q-60 0 -99 74l-152 277l61 47l211 -195l314 195l55 -47l-264 -277
q-66 -74 -126 -74z" />
    <glyph glyph-name="ncaron" unicode="&#x148;" 
d="M788 897q131 0 197 -87t35 -235l-82 -380q-16 -74 27 -74q23 0 45 30t65 105l123 -51q-96 -176 -177 -214q-40 -19 -87 -20q-96 1 -134 63t-18 159l70 323q49 229 -115 229q-157 1 -329 -235l-109 -510h-156l142 655l-49 64h-111l31 149h327l-34 -170q51 58 91 96t108 70
t140 33zM741 1028q-57 0 -96 74l-149 276l59 47l211 -192l315 192l54 -47l-263 -276q-74 -74 -131 -74z" />
    <glyph glyph-name="Eng" unicode="&#x14a;" 
d="M301 -186q0 55 35 94t85 39t80 -27t29 -67q0 -70 -71 -82q37 -49 106 -50q162 0 215 250l-291 994l-159 -752l49 -63h100l-33 -150h-479l33 150h98l78 63l158 741l-49 64h-101l33 149h383l244 -897l145 684l-49 64h-100l32 149h480l-33 -149h-98l-78 -64l-211 -987
q-37 -182 -133 -279q-95 -98 -227 -98t-202 64t-69 160z" />
    <glyph glyph-name="eng" unicode="&#x14b;" 
d="M756 745q-160 0 -332 -235l-109 -510h-155l139 655l-49 64h-111l33 149h328l-37 -170q53 58 93 96t109 70t140 33q131 0 195 -87t34 -235l-129 -610q-39 -182 -133 -278q-94 -97 -225 -97t-202 62t-71 158q0 55 35 94t85 39t80 -28t30 -67q0 -76 -76 -88q39 -51 113 -51
q154 0 207 250l116 557q52 229 -108 229z" />
    <glyph glyph-name="Omacron" unicode="&#x14c;" 
d="M584 135q194 0 316 163t122 388q0 158 -72 253t-211 95q-193 0 -315 -164t-123 -387q0 -158 72 -253t211 -95zM726 1196q246 0 362 -141t116 -369q0 -285 -182 -500t-426 -215q-244 -1 -362 141q-116 142 -115 371q0 285 181 499q180 214 426 214zM535 1489h632l-32 -152
h-633z" />
    <glyph glyph-name="omacron" unicode="&#x14d;" 
d="M139 408q1 196 151 342t362 147q212 0 339 -121q127 -120 127 -316t-152 -342t-361 -146q-210 0 -338 120t-128 316zM946 454q0 136 -78 214t-220 77q-142 0 -238 -97q-98 -98 -98 -234t77 -214t219 -77q142 0 240 97q98 98 98 234zM481 1217h633l-31 -150h-632z" />
    <glyph glyph-name="Obreve" unicode="&#x14e;" 
d="M584 135q194 0 316 163t122 388q0 158 -72 253t-211 95q-193 0 -315 -164t-123 -387q0 -158 72 -253t211 -95zM726 1196q246 0 362 -141t116 -369q0 -285 -182 -500t-426 -215q-244 -1 -362 141q-116 142 -115 371q0 285 181 499q180 214 426 214zM839 1448q79 0 157 49
t118 133l111 -28q-59 -148 -167 -230t-240 -82t-209 82t-74 230l108 28q1 -84 59 -133t137 -49z" />
    <glyph glyph-name="obreve" unicode="&#x14f;" 
d="M785 1180q79 0 157 48t119 132l110 -27q-59 -149 -167 -231t-239 -82q-132 0 -209 82t-75 231l109 27q2 -82 59 -131t136 -49zM139 408q1 196 151 342t362 147q212 0 339 -121q127 -120 127 -316t-152 -342t-361 -146q-210 0 -338 120t-128 316zM946 454q0 136 -78 214
t-220 77q-142 0 -238 -97q-98 -98 -98 -234t77 -214t219 -77q142 0 240 97q98 98 98 234z" />
    <glyph glyph-name="Ohungarumlaut" unicode="&#x150;" 
d="M1249 1708q39 0 67 -28t27 -66q0 -88 -100 -148l-274 -168l-37 39l174 273q63 98 143 98zM825 1708q39 0 67 -28t28 -66q0 -88 -103 -148l-272 -168l-39 39l176 273q63 98 143 98zM584 135q194 0 316 163t122 388q0 158 -72 253t-211 95q-193 0 -315 -164t-123 -387
q0 -158 72 -253t211 -95zM726 1196q246 0 362 -141t116 -369q0 -285 -182 -500t-426 -215q-244 -1 -362 141q-116 142 -115 371q0 285 181 499q180 214 426 214z" />
    <glyph glyph-name="ohungarumlaut" unicode="&#x151;" 
d="M139 408q1 196 151 342t362 147q212 0 339 -121q127 -120 127 -316t-152 -342t-361 -146q-210 0 -338 120t-128 316zM946 454q0 136 -78 214t-220 77q-142 0 -238 -97q-98 -98 -98 -234t77 -214t219 -77q142 0 240 97q98 98 98 234zM1276 1343q0 -92 -102 -147l-273 -168
l-39 39l176 272q63 96 144 97q38 0 66 -27t28 -66zM850 1343q0 -90 -100 -147l-275 -168l-37 39l174 272q63 96 144 97q38 0 66 -27t28 -66z" />
    <glyph glyph-name="OE" unicode="&#x152;" 
d="M532 0q-219 0 -346 134t-127 349q0 287 200 486t507 198h600l-92 -434h-158l47 221l-49 64h-219l-76 -356h225l-28 -138h-225l-82 -374h229l78 63l45 211h153l-90 -424h-592zM236 483q0 -149 80 -241t237 -92l182 868q-219 0 -359 -158t-140 -377z" />
    <glyph glyph-name="oe" unicode="&#x153;" 
d="M551 557q0 86 -30 136t-87 50q-98 0 -171 -134t-73 -298q0 -86 31 -136t86 -50q98 0 171 134t73 298zM1071 659q0 37 -25 62q-26 25 -73 24q-80 0 -152 -76q-71 -77 -108 -190l10 2q160 19 254 65t94 113zM813 -29q-74 0 -136 44t-102 126q-129 -170 -284 -170
q-115 1 -186 97t-70 247q0 244 127 413t291 169q78 0 135 -49t86 -131q143 178 313 178q115 0 178 -62t64 -147q1 -137 -145 -231t-398 -109v-27q0 -90 43 -142t127 -52t221 125l70 -109q-172 -170 -334 -170z" />
    <glyph glyph-name="Racute" unicode="&#x154;" 
d="M942 1708q37 0 66 -28t28 -66q0 -88 -102 -148l-272 -168l-39 39l176 273q61 98 143 98zM758 1167q201 1 303 -75t101 -216t-112 -238q-112 -97 -309 -122l205 -360h191l-33 -156h-377l33 150l-199 358h-170l-61 -295l49 -63h139l-33 -150h-518l33 150h92l78 63l160 741
l-51 64h-95l33 149h541zM645 657q168 -1 251 57t85 144t-57 123t-179 37h-245l-76 -361h221z" />
    <glyph glyph-name="racute" unicode="&#x155;" 
d="M879 585q0 52 31 82q32 29 67 29t43 -6q4 12 -6 27q-18 41 -97 41t-177 -72t-269 -233l-96 -453h-154l139 655l-51 64h-182l33 149h399l-51 -237q208 214 301 244q65 22 127 22q123 0 180 -71t56 -158t-44 -143t-109 -56t-104 32q-36 32 -36 84zM662 1067l176 272
q63 96 143 97q39 0 67 -27t27 -66q0 -92 -102 -147l-273 -168z" />
    <glyph glyph-name="Rcommaaccent" unicode="&#x156;" 
d="M758 1167q201 1 303 -75t101 -216t-112 -238q-112 -97 -309 -122l205 -360h191l-33 -156h-377l33 150l-199 358h-170l-61 -295l49 -63h139l-33 -150h-518l33 150h92l78 63l160 741l-51 64h-95l33 149h541zM645 657q168 -1 251 57t85 144t-57 123t-179 37h-245l-76 -361
h221zM258 -281q0 63 41 105t101 41q60 0 102 -43q42 -44 41 -106q0 -62 -51 -115l-230 -232l-65 64l147 166q-86 36 -86 120z" />
    <glyph glyph-name="rcommaaccent" unicode="&#x157;" 
d="M879 585q0 52 31 82q32 29 67 29t43 -6q4 12 -6 27q-18 41 -97 41t-177 -72t-269 -233l-96 -453h-154l139 655l-51 64h-182l33 149h399l-51 -237q208 214 301 244q65 22 127 22q123 0 180 -71t56 -158t-44 -143t-109 -56t-104 32q-36 32 -36 84zM100 -281q0 63 42 105
t102 41q60 0 100 -43q41 -44 41 -106t-51 -115l-230 -232l-65 64l147 166q-86 36 -86 120z" />
    <glyph glyph-name="Rcaron" unicode="&#x158;" 
d="M758 1167q201 1 303 -75t101 -216t-112 -238q-112 -97 -309 -122l205 -360h191l-33 -156h-377l33 150l-199 358h-170l-61 -295l49 -63h139l-33 -150h-518l33 150h92l78 63l160 741l-51 64h-95l33 149h541zM645 657q168 -1 251 57t85 144t-57 123t-179 37h-245l-76 -361
h221zM734 1300q-60 0 -99 74l-152 277l62 47l211 -195l313 195l55 -47l-264 -277q-66 -74 -126 -74z" />
    <glyph glyph-name="rcaron" unicode="&#x159;" 
d="M879 585q0 52 31 82q32 29 67 29t43 -6q4 12 -6 27q-18 41 -97 41t-177 -72t-269 -233l-96 -453h-154l139 655l-51 64h-182l33 149h399l-51 -237q208 214 301 244q65 22 127 22q123 0 180 -71t56 -158t-44 -143t-109 -56t-104 32q-36 32 -36 84zM778 1028q-57 0 -96 74
l-150 276l60 47l211 -192l315 192l53 -47l-262 -276q-74 -74 -131 -74z" />
    <glyph glyph-name="Sacute" unicode="&#x15a;" 
d="M1014 1708q38 0 66 -28t28 -66q0 -88 -102 -148l-273 -168l-39 39l176 273q61 98 144 98zM638 125q120 0 196 58t75 151q0 111 -149 153l-223 66q-133 41 -203 104t-70 174q0 165 119 265t305 100t297 -133l41 18l18 86h158l-86 -405h-135q-25 141 -110 212
q-85 70 -192 70t-176 -50t-69 -122t43 -104t127 -57l225 -66q254 -80 254 -285q0 -170 -126 -280t-316 -109q-111 0 -204 45t-142 109l-43 -23l-25 -102h-157l98 451h135q19 -158 117 -242t218 -84z" />
    <glyph glyph-name="sacute" unicode="&#x15b;" 
d="M248 639q0 105 112 181t288 77q177 0 286 -71t108 -177q0 -59 -36 -94t-85 -35q-48 0 -78 26t-30 64t26 62q26 23 66 20q-96 72 -260 72q-104 0 -169 -32q-64 -32 -64 -80t28 -70t95 -39l305 -88q201 -57 200 -205q0 -133 -127 -206t-313 -73t-325 79q-138 79 -138 194
q0 63 36 99t83 36t77 -27t29 -69q0 -70 -71 -78q123 -100 319 -101q113 0 189 35t75 97q0 38 -30 58t-92 38l-281 78q-111 32 -167 78t-56 151zM1030 1343q0 -92 -102 -147l-273 -168l-39 39l177 272q63 96 143 97q38 0 66 -27t28 -66z" />
    <glyph glyph-name="Scircumflex" unicode="&#x15c;" 
d="M855 1688q58 0 97 -74l152 -277l-62 -47l-211 195l-315 -195l-53 47l264 277q70 74 128 74zM638 125q120 0 196 58t75 151q0 111 -149 153l-223 66q-133 41 -203 104t-70 174q0 165 119 265t305 100t297 -133l41 18l18 86h158l-86 -405h-135q-25 141 -110 212
q-85 70 -192 70t-176 -50t-69 -122t43 -104t127 -57l225 -66q254 -80 254 -285q0 -170 -126 -280t-316 -109q-111 0 -204 45t-142 109l-43 -23l-25 -102h-157l98 451h135q19 -158 117 -242t218 -84z" />
    <glyph glyph-name="scircumflex" unicode="&#x15d;" 
d="M248 639q0 105 112 181t288 77q177 0 286 -71t108 -177q0 -59 -36 -94t-85 -35q-48 0 -78 26t-30 64t26 62q26 23 66 20q-96 72 -260 72q-104 0 -169 -32q-64 -32 -64 -80t28 -70t95 -39l305 -88q201 -57 200 -205q0 -133 -127 -206t-313 -73t-325 79q-138 79 -138 194
q0 63 36 99t83 36t77 -27t29 -69q0 -70 -71 -78q123 -100 319 -101q113 0 189 35t75 97q0 38 -30 58t-92 38l-281 78q-111 32 -167 78t-56 151zM800 1417q56 0 97 -74l150 -276l-60 -47l-211 192l-315 -192l-53 47l262 276q74 74 130 74z" />
    <glyph glyph-name="Scedilla" unicode="&#x15e;" 
d="M723 -267q-1 -85 -75 -151t-184 -65q-110 0 -190 47q-78 47 -102 131l109 61q16 -55 62 -90q45 -35 107 -35t101 27t39 76q-4 80 -141 63l-72 66l92 139q-117 47 -174 123l-43 -23l-25 -102h-157l98 451h135q19 -158 117 -242t218 -84t196 58t75 151q0 111 -149 153
l-223 66q-133 41 -203 104t-70 174q0 165 119 265t305 100t297 -133l41 18l18 86h158l-86 -405h-135q-25 141 -110 212q-85 70 -192 70t-176 -50t-69 -122t43 -104t127 -57l225 -66q254 -80 254 -285q0 -170 -126 -280t-316 -109q-37 0 -74 6l-43 -71q90 -2 144 -45t55 -128
z" />
    <glyph glyph-name="scedilla" unicode="&#x15f;" 
d="M436 -483q-110 0 -188 47t-103 131l109 61q16 -55 62 -90t108 -35t100 27q39 27 39 76q-4 80 -141 63l-72 66l84 127q-133 32 -215 100t-82 142t36 111q36 36 83 36t77 -27t29 -69q0 -70 -71 -78q123 -100 319 -101q113 0 189 35t75 97q0 37 -29 57q-30 20 -93 39
l-281 78q-111 32 -167 78t-56 151t112 181t288 77q177 0 286 -71t108 -177q0 -59 -36 -94t-85 -35q-48 0 -78 26t-30 64t26 62q26 23 66 20q-96 72 -260 72q-104 0 -169 -32q-64 -32 -64 -80t28 -70t95 -39l305 -88q201 -57 200 -205q0 -133 -127 -206t-303 -73q-47 0 -69 2
l-43 -67q90 -2 144 -45t54 -128t-74 -151q-76 -65 -186 -65z" />
    <glyph glyph-name="Scaron" unicode="&#x160;" 
d="M804 1300q-60 0 -99 74l-152 277l61 47l211 -195l314 195l55 -47l-264 -277q-66 -74 -126 -74zM638 125q120 0 196 58t75 151q0 111 -149 153l-223 66q-133 41 -203 104t-70 174q0 165 119 265t305 100t297 -133l41 18l18 86h158l-86 -405h-135q-25 141 -110 212
q-85 70 -192 70t-176 -50t-69 -122t43 -104t127 -57l225 -66q254 -80 254 -285q0 -170 -126 -280t-316 -109q-111 0 -204 45t-142 109l-43 -23l-25 -102h-157l98 451h135q19 -158 117 -242t218 -84z" />
    <glyph glyph-name="scaron" unicode="&#x161;" 
d="M248 639q0 105 112 181t288 77q177 0 286 -71t108 -177q0 -59 -36 -94t-85 -35q-48 0 -78 26t-30 64t26 62q26 23 66 20q-96 72 -260 72q-104 0 -169 -32q-64 -32 -64 -80t28 -70t95 -39l305 -88q201 -57 200 -205q0 -133 -127 -206t-313 -73t-325 79q-138 79 -138 194
q0 63 36 99t83 36t77 -27t29 -69q0 -70 -71 -78q123 -100 319 -101q113 0 189 35t75 97q0 38 -30 58t-92 38l-281 78q-111 32 -167 78t-56 151zM731 1028q-57 0 -96 74l-150 276l60 47l211 -192l315 192l53 -47l-262 -276q-74 -74 -131 -74z" />
    <glyph glyph-name="Tcommaaccent" unicode="&#x162;" 
d="M729 -267q-1 -85 -75 -151t-184 -65q-110 0 -189 47q-78 47 -103 131l109 61q16 -55 62 -90q45 -35 107 -35t101 27t39 76q-4 80 -141 63l-72 66l90 137h-323l32 150h236l78 63l170 805h-217l-78 -64l-60 -282h-155l106 495h1045l-107 -495h-156l60 282l-49 64h-217
l-172 -805l49 -63h235l-30 -150h-330l-60 -94q90 -2 144 -45t55 -128z" />
    <glyph glyph-name="tcommaaccent" unicode="&#x163;" 
d="M803 -267q0 -85 -75 -151q-76 -66 -186 -65q-110 0 -188 47t-102 131l108 61q16 -55 62 -90t108 -35q61 0 101 27q39 27 39 76q-4 80 -142 63l-71 66l80 121q-125 33 -186 137q-60 104 -25 262l57 272l-51 64h-193l33 149h256l68 316h159l-67 -316h481l-33 -149h-418
l-75 -64l-54 -249q-61 -279 168 -279q100 0 176 55q75 55 146 170l119 -82q-74 -133 -191 -216t-262 -83l-41 -65q90 -2 144 -45t55 -128z" />
    <glyph glyph-name="Tcaron" unicode="&#x164;" 
d="M262 1167h1045l-107 -495h-156l60 282l-49 64h-217l-172 -805l49 -63h235l-30 -150h-770l32 150h236l78 63l170 805h-217l-78 -64l-60 -282h-155zM824 1300q-60 0 -99 74l-152 277l62 47l211 -195l313 195l55 -47l-264 -277q-66 -74 -126 -74z" />
    <glyph glyph-name="tcaron" unicode="&#x165;" 
d="M657 127q100 0 176 55q75 55 146 170l119 -82q-74 -133 -192 -216t-276 -83t-252 111q-93 111 -52 301l57 272l-51 64h-193l33 149h256l68 316h159l-67 -316h481l-33 -149h-418l-75 -64l-54 -249q-61 -279 168 -279zM1053 1509q45 1 77 -31t33 -84q0 -52 -53 -108
l-217 -254l-53 25l84 325q29 127 129 127z" />
    <glyph glyph-name="Tbar" unicode="&#x166;" 
d="M950 150l-30 -150h-770l32 150h236l78 63l49 238h-209l33 149h209l88 418h-217l-78 -64l-60 -282h-155l106 495h1045l-107 -495h-156l60 282l-49 64h-217l-90 -418h208l-32 -149h-207l-51 -238l49 -63h235z" />
    <glyph glyph-name="tbar" unicode="&#x167;" 
d="M630 -29q-158 0 -252 111q-93 111 -52 301l6 25h-250l31 143h247l23 104l-51 64h-193l33 149h256l68 316h159l-67 -316h481l-33 -149h-418l-75 -64l-23 -104h389l-30 -143h-390q-61 -281 168 -281q100 0 176 55q75 55 146 170l119 -82q-74 -133 -192 -216t-276 -83z" />
    <glyph glyph-name="Utilde" unicode="&#x168;" 
d="M568 -29q-192 0 -301 122q-108 122 -68 308l118 553l-51 64h-100l33 149h485l-33 -149h-100l-76 -64l-117 -551q-26 -121 36 -199t182 -79q120 0 203 72t110 192l119 565l-52 64h-98l33 149h483l-33 -149h-98l-76 -64l-120 -567q-41 -188 -164 -302t-315 -114zM717 1436
q-45 0 -82 -36t-49 -97h-158q27 127 106 203t166 77q88 0 164 -70q76 -69 117 -69t77 37t50 98h160q-27 -129 -109 -207t-172 -78t-158 71q-67 71 -112 71z" />
    <glyph glyph-name="utilde" unicode="&#x169;" 
d="M864 1028q-45 0 -85 23q-39 23 -63 49q-66 71 -112 70q-45 -2 -82 -38t-49 -98h-158q27 129 106 206t166 77t164 -71q77 -70 117 -70t77 37q36 37 50 100h160q-27 -129 -107 -207t-184 -78zM480 123q164 0 323 215l112 530h156l-143 -669q-16 -78 24 -78q24 0 48 32
t63 103l123 -51q-31 -55 -49 -85q-88 -146 -215 -149q-80 0 -119 47t-31 132q-51 -53 -87 -84q-37 -31 -103 -63t-136 -32q-138 -1 -208 93t-37 245l73 346l-49 64h-110l32 149h328l-110 -514q-49 -231 115 -231z" />
    <glyph glyph-name="Umacron" unicode="&#x16a;" 
d="M568 -29q-192 0 -301 122q-108 122 -68 308l118 553l-51 64h-100l33 149h485l-33 -149h-100l-76 -64l-117 -551q-26 -121 36 -199t182 -79q120 0 203 72t110 192l119 565l-52 64h-98l33 149h483l-33 -149h-98l-76 -64l-120 -567q-41 -188 -164 -302t-315 -114zM541 1489
h633l-33 -152h-633z" />
    <glyph glyph-name="umacron" unicode="&#x16b;" 
d="M430 1217h633l-31 -150h-633zM480 123q164 0 323 215l112 530h156l-143 -669q-16 -78 24 -78q24 0 48 32t63 103l123 -51q-31 -55 -49 -85q-88 -146 -215 -149q-80 0 -119 47t-31 132q-51 -53 -87 -84q-37 -31 -103 -63t-136 -32q-138 -1 -208 93t-37 245l73 346l-49 64
h-110l32 149h328l-110 -514q-49 -231 115 -231z" />
    <glyph glyph-name="Ubreve" unicode="&#x16c;" 
d="M568 -29q-192 0 -301 122q-108 122 -68 308l118 553l-51 64h-100l33 149h485l-33 -149h-100l-76 -64l-117 -551q-26 -121 36 -199t182 -79q120 0 203 72t110 192l119 565l-52 64h-98l33 149h483l-33 -149h-98l-76 -64l-120 -567q-41 -188 -164 -302t-315 -114zM845 1448
q79 0 157 49t118 133l111 -28q-59 -148 -167 -230t-240 -82t-209 82t-74 230l108 28q1 -84 59 -133t137 -49z" />
    <glyph glyph-name="ubreve" unicode="&#x16d;" 
d="M736 1180q79 0 157 48t119 132l110 -27q-59 -149 -167 -231q-107 -82 -239 -82t-209 82t-75 231l109 27q2 -82 59 -131t136 -49zM480 123q164 0 323 215l112 530h156l-143 -669q-16 -78 24 -78q24 0 48 32t63 103l123 -51q-31 -55 -49 -85q-88 -146 -215 -149
q-80 0 -119 47t-31 132q-51 -53 -87 -84q-37 -31 -103 -63t-136 -32q-138 -1 -208 93t-37 245l73 346l-49 64h-110l32 149h328l-110 -514q-49 -231 115 -231z" />
    <glyph glyph-name="Uring" unicode="&#x16e;" 
d="M985 1514q0 52 -32 84t-84 32t-90 -36t-38 -87t32 -84t84 -33t90 37q38 36 38 87zM623 1506q-1 102 73 172t177 71t167 -65t64 -168t-75 -173q-75 -69 -177 -69t-166 64q-63 66 -63 168zM568 -29q-192 0 -301 122q-108 122 -68 308l118 553l-51 64h-100l33 149h485
l-33 -149h-100l-76 -64l-117 -551q-26 -121 36 -199t182 -79q120 0 203 72t110 192l119 565l-52 64h-98l33 149h483l-33 -149h-98l-76 -64l-120 -567q-41 -188 -164 -302t-315 -114z" />
    <glyph glyph-name="uring" unicode="&#x16f;" 
d="M480 123q164 0 323 215l112 530h156l-143 -669q-16 -78 24 -78q24 0 48 32t63 103l123 -51q-31 -55 -49 -85q-88 -146 -215 -149q-80 0 -119 47t-31 132q-51 -53 -87 -84q-37 -31 -103 -63t-136 -32q-138 -1 -208 93t-37 245l73 346l-49 64h-110l32 149h328l-110 -514
q-49 -231 115 -231zM872 1243q0 51 -31 84q-32 33 -84 33t-90 -36t-38 -87t33 -84q34 -33 84 -33t89 36q37 36 37 87zM762 1477q104 0 166 -65q62 -64 63 -168t-73 -172t-178 -68t-167 63t-63 166t74 173t178 71z" />
    <glyph glyph-name="Uhungarumlaut" unicode="&#x170;" 
d="M1247 1708q39 0 67 -28t27 -66q0 -88 -100 -148l-274 -168l-37 39l174 273q63 98 143 98zM823 1708q39 0 67 -28t28 -66q0 -88 -103 -148l-272 -168l-39 39l176 273q63 98 143 98zM568 -29q-192 0 -301 122q-108 122 -68 308l118 553l-51 64h-100l33 149h485l-33 -149
h-100l-76 -64l-117 -551q-26 -121 36 -199t182 -79q120 0 203 72t110 192l119 565l-52 64h-98l33 149h483l-33 -149h-98l-76 -64l-120 -567q-41 -188 -164 -302t-315 -114z" />
    <glyph glyph-name="uhungarumlaut" unicode="&#x171;" 
d="M801 1067l176 272q63 96 143 97q39 0 67 -27t27 -66q0 -92 -102 -147l-272 -168zM377 1067l174 272q63 96 143 97q39 0 67 -27t27 -66q0 -90 -100 -147l-274 -168zM480 123q164 0 323 215l112 530h156l-143 -669q-16 -78 24 -78q24 0 48 32t63 103l123 -51
q-31 -55 -49 -85q-88 -146 -215 -149q-80 0 -119 47t-31 132q-51 -53 -87 -84q-37 -31 -103 -63t-136 -32q-138 -1 -208 93t-37 245l73 346l-49 64h-110l32 149h328l-110 -514q-49 -231 115 -231z" />
    <glyph glyph-name="Uogonek" unicode="&#x172;" 
d="M512 -481q-84 0 -129 43q-45 42 -45 110t46 136t153 163q-178 10 -277 131q-98 121 -61 299l118 553l-51 64h-100l33 149h485l-33 -149h-100l-76 -64l-117 -551q-26 -121 36 -199t182 -79q120 0 203 72t110 192l119 565l-52 64h-98l33 149h483l-33 -149h-98l-76 -64
l-120 -567q-55 -266 -263 -369q-162 -138 -230 -210t-67 -113q0 -41 58 -41t174 106l76 -106q-156 -135 -283 -135z" />
    <glyph glyph-name="uogonek" unicode="&#x173;" 
d="M952 121q24 0 46 30t65 105l123 -51q-54 -103 -154 -209t-167 -178t-66 -121q1 -43 59 -43t172 106l76 -106q-152 -135 -283 -135q-84 0 -129 43q-45 42 -45 110t48 138t159 172q-100 35 -84 168q-51 -53 -87 -84q-37 -31 -103 -63t-136 -32q-138 -1 -208 93t-37 245
l73 346l-49 64h-110l32 149h328l-110 -514q-49 -231 115 -231t323 215l112 530h156l-143 -673q-16 -74 24 -74z" />
    <glyph glyph-name="Wcircumflex" unicode="&#x174;" 
d="M880 1688q58 0 97 -74l151 -277l-61 -47l-211 195l-315 -195l-54 47l265 277q70 74 128 74zM825 868l-59 -718h43l276 817l-30 51h-181l33 149h490l-31 -149h-104l-351 -1018h-280l55 729l-283 -729h-290l131 1018h-105l33 149h496l-31 -149h-180l-54 -51l-114 -817h41
l282 718h213z" />
    <glyph glyph-name="wcircumflex" unicode="&#x175;" 
d="M950 895q110 1 170 -75t60 -208t-56 -280t-165 -254q-108 -106 -234 -107q-70 0 -115 38t-55 93q-74 -131 -223 -131q-98 0 -147 76q-48 76 -25 184l90 424l-49 64h-119l31 149h329l-129 -610q-16 -68 4 -108q19 -40 71 -41q52 0 92 49t59 129l65 315h150l-72 -332
q-33 -162 68 -161q74 0 142 91t104 211q38 121 38 229t-69 126q18 -20 18 -55t-28 -58q-29 -23 -73 -23t-74 33q-30 32 -30 91t50 100t122 41zM859 1417q56 0 97 -74l150 -276l-59 -47l-211 192l-316 -192l-53 47l262 276q74 74 130 74z" />
    <glyph glyph-name="Ycircumflex" unicode="&#x176;" 
d="M878 1688q58 0 97 -74l151 -277l-61 -47l-211 195l-315 -195l-54 47l265 277q70 74 128 74zM711 420l-45 -207l49 -63h235l-30 -150h-770l32 150h236l78 63l43 207l-269 598h-127l33 149h524l-32 -149h-119l-70 -51l168 -418l348 418l-51 51h-117l33 149h533l-33 -149
h-127z" />
    <glyph glyph-name="ycircumflex" unicode="&#x177;" 
d="M830 1417q56 0 98 -74l149 -276l-59 -47l-211 192l-315 -192l-54 47l262 276q74 74 130 74zM508 14q-135 0 -208 94t-40 244l66 303l-50 64h-110l31 149h327l-100 -471q-49 -231 118 -231t324 215l105 487h153l-174 -823q-98 -459 -493 -459q-168 0 -276 79t-107 192
q-2 67 36 111t93 44t84 -30t29 -71q0 -40 -21 -66q-20 -26 -47 -29q50 -98 198 -98t237 90q89 91 124 247l29 138q-49 -51 -87 -83t-106 -64t-135 -32z" />
    <glyph glyph-name="Ydieresis" unicode="&#x178;" 
d="M626 1311q-62 0 -108 44q-45 44 -45 104q0 61 45 105q46 44 108 44t106 -44t44 -104t-44 -105q-44 -44 -106 -44zM1066 1311q-62 0 -108 44q-45 44 -45 104q0 61 45 105q46 44 108 44t106 -44t44 -104t-44 -105q-44 -44 -106 -44zM711 420l-45 -207l49 -63h235l-30 -150
h-770l32 150h236l78 63l43 207l-269 598h-127l33 149h524l-32 -149h-119l-70 -51l168 -418l348 418l-51 51h-117l33 149h533l-33 -149h-127z" />
    <glyph glyph-name="Zacute" unicode="&#x179;" 
d="M1026 1708q37 0 66 -28t28 -66q0 -88 -102 -148l-273 -168l-38 39l176 273q61 98 143 98zM279 150h575l78 63l43 201h155l-88 -414h-1013l39 176l944 842h-516l-78 -64l-45 -211h-156l92 424h936l-43 -196z" />
    <glyph glyph-name="zacute" unicode="&#x17a;" 
d="M1114 227q0 -115 -86 -185t-206 -69q-120 0 -210 43t-174 90t-166 56q-88 -80 -127 -174l-98 86q55 135 189 231t315 173q180 77 280 145q-27 9 -145 73t-188 64q-145 0 -174 -74q44 2 72 -22t28 -69q0 -44 -33 -74q-33 -29 -85 -29t-92 40t-40 107q0 117 86 187t210 71
q124 0 271 -78t220 -90q63 63 100 145l102 -83q-59 -137 -195 -233t-299 -168q-163 -70 -251 -122q51 -12 116 -54q164 -106 261 -106q139 1 170 74q-43 -2 -72 23t-29 69t33 72q33 29 84 29t92 -40t41 -108zM1057 1343q0 -92 -103 -147l-272 -168l-39 39l176 272
q63 96 144 97q39 0 67 -27t27 -66z" />
    <glyph glyph-name="Zdotaccent" unicode="&#x17b;" 
d="M279 150h575l78 63l43 201h155l-88 -414h-1013l39 176l944 842h-516l-78 -64l-45 -211h-156l92 424h936l-43 -196zM987 1455q0 -67 -45 -111q-44 -44 -110 -44t-110 44t-44 112q0 66 43 110t109 44t112 -44q45 -44 45 -111z" />
    <glyph glyph-name="zdotaccent" unicode="&#x17c;" 
d="M934 1194q0 -66 -45 -110t-111 -44t-109 44q-44 44 -44 110t44 111q43 45 109 45t111 -45t45 -111zM1114 227q0 -115 -86 -185t-206 -69q-120 0 -210 43t-174 90t-166 56q-88 -80 -127 -174l-98 86q55 135 189 231t315 173q180 77 280 145q-27 9 -145 73t-188 64
q-145 0 -174 -74q44 2 72 -22t28 -69q0 -44 -33 -74q-33 -29 -85 -29t-92 40t-40 107q0 117 86 187t210 71q124 0 271 -78t220 -90q63 63 100 145l102 -83q-59 -137 -195 -233t-299 -168q-163 -70 -251 -122q51 -12 116 -54q164 -106 261 -106q139 1 170 74q-43 -2 -72 23
t-29 69t33 72q33 29 84 29t92 -40t41 -108z" />
    <glyph glyph-name="Zcaron" unicode="&#x17d;" 
d="M279 150h575l78 63l43 201h155l-88 -414h-1013l39 176l944 842h-516l-78 -64l-45 -211h-156l92 424h936l-43 -196zM814 1300q-60 0 -99 74l-152 277l62 47l211 -195l313 195l55 -47l-264 -277q-66 -74 -126 -74z" />
    <glyph glyph-name="zcaron" unicode="&#x17e;" 
d="M1114 227q0 -115 -86 -185t-206 -69q-120 0 -210 43t-174 90t-166 56q-88 -80 -127 -174l-98 86q55 135 189 231t315 173q180 77 280 145q-27 9 -145 73t-188 64q-145 0 -174 -74q44 2 72 -22t28 -69q0 -44 -33 -74q-33 -29 -85 -29t-92 40t-40 107q0 117 86 187t210 71
q124 0 271 -78t220 -90q63 63 100 145l102 -83q-59 -137 -195 -233t-299 -168q-163 -70 -251 -122q51 -12 116 -54q164 -106 261 -106q139 1 170 74q-43 -2 -72 23t-29 69t33 72q33 29 84 29t92 -40t41 -108zM756 1028q-57 0 -97 74l-149 276l59 47l211 -192l316 192l53 -47
l-262 -276q-74 -74 -131 -74z" />
    <glyph glyph-name="florin" unicode="&#x192;" 
d="M154 -367q-113 0 -179 70t-65 164q0 94 50 153q50 60 110 60t90 -30t30 -76t-36 -78t-84 -29q-2 -39 22 -68t72 -28q156 0 231 241l129 387h-231l31 148h249l91 270q125 379 423 379q113 0 179 -70t66 -164t-51 -152q-51 -60 -111 -60t-90 30t-30 75q0 46 36 78t85 30
q3 39 -23 67t-73 29q-152 0 -231 -242l-90 -270h270l-31 -148h-288l-127 -385q-127 -381 -424 -381z" />
    <glyph glyph-name="Aringacute" unicode="&#x1fa;" 
d="M788 1659l177 272q61 98 143 99q37 0 66 -28t28 -67q0 -88 -102 -147l-273 -168zM575 1296q0 110 74 182q74 70 177 70t167 -65q63 -66 63 -156t-45 -152q-46 -62 -120 -88l156 -937h127l-33 -150h-496l33 150h119l69 51l-28 188h-443l-108 -188l49 -51h119l-33 -150
h-498l33 150h127l573 970q-82 66 -82 176zM481 539h334l-70 460zM938 1313q0 51 -32 84t-84 33t-90 -36t-38 -87t32 -84t84 -33t90 36t38 87z" />
    <glyph glyph-name="aringacute" unicode="&#x1fb;" 
d="M1157 1853q0 -88 -102 -147l-273 -168l-39 39l177 272q61 98 143 99q37 0 65 -28t29 -67zM879 1227q0 51 -32 84t-84 33t-90 -36t-38 -87t33 -84t84 -33t89 36t38 87zM997 1228q1 -104 -73 -172t-177 -69t-167 63t-64 166t74 174q74 70 178 70t167 -64q62 -64 62 -168z
M266 371q0 -111 65 -180t173 -69t186 53q78 52 158 157l41 205q-70 209 -287 208q-144 0 -240 -109t-96 -265zM952 -29q-64 0 -103 47q-40 47 -32 127q-150 -174 -329 -174t-284 113t-106 287q0 215 152 371t352 155q119 0 206 -56t118 -130l67 186h129l-149 -702
q-16 -74 24 -74q25 0 47 30t66 105l123 -51q-95 -175 -177 -215q-40 -20 -104 -19z" />
    <glyph glyph-name="AEacute" unicode="&#x1fc;" 
d="M299 150l-33 -150h-334l35 160l537 807l-41 51h-98l32 149h979l-92 -434h-156l48 221l-50 64h-221l-76 -356h230l-29 -138h-229l-80 -374h227l78 63l45 211h156l-90 -424h-744l33 150h72l77 63l37 176h-327l-127 -188l51 -51h90zM645 539l103 479h-43l-322 -479h262z
M1112 1708q37 0 66 -28t28 -66q0 -88 -102 -148l-273 -168l-38 39l176 273q61 98 143 98z" />
    <glyph glyph-name="aeacute" unicode="&#x1fd;" 
d="M303 115q98 0 234 96q-17 92 -9 147q-164 -8 -248 -40t-85 -105q0 -47 30 -73q31 -25 78 -25zM1065 659q0 37 -26 62t-72 24q-78 0 -149 -71q-70 -72 -111 -178h4q354 25 354 163zM814 -29q-154 0 -232 127q-176 -127 -322 -127q-102 1 -168 63t-66 162t72 168
q72 66 180 92t271 33q27 96 82 181q-23 94 -128 94t-173 -33q43 -15 43 -69t-34 -84t-86 -31q-52 0 -81 30t-31 80q0 106 111 173t246 67q170 0 235 -106q117 104 240 104t186 -62t64 -147q0 -301 -549 -324q-2 -14 -2 -43q0 -88 44 -142t115 -54q100 0 240 127l70 -109
q-173 -170 -327 -170zM662 1067l176 272q63 96 143 97q39 0 67 -27t27 -66q0 -92 -102 -147l-273 -168z" />
    <glyph glyph-name="Oslashacute" unicode="&#x1fe;" 
d="M1036 1708q37 0 66 -28t28 -66q0 -88 -102 -148l-272 -168l-39 39l176 273q61 98 143 98zM1204 686q0 -285 -182 -500t-438 -215q-188 0 -303 97l-172 -187l-105 86l189 205q-74 123 -74 311q0 285 181 499t439 214q184 0 301 -94l164 178l107 -86l-181 -197
q74 -129 74 -311zM584 135q194 0 316 163t122 388q0 92 -25 166l-596 -651q70 -66 183 -66zM739 1034q-193 0 -315 -164t-123 -387q0 -94 25 -164l596 652q-70 63 -183 63z" />
    <glyph glyph-name="oslashacute" unicode="&#x1ff;" 
d="M1063 1343q0 -92 -102 -147l-273 -168l-39 39l176 272q63 96 144 97q39 0 67 -27t27 -66zM1118 465q0 -201 -152 -347t-368 -147q-141 0 -250 66l-174 -184l-104 86l174 184q-104 117 -105 280q0 201 151 347t369 147q139 0 252 -68l164 175l105 -86l-164 -175
q102 -114 102 -278zM598 119q152 0 252 99t100 247q0 90 -45 162l-450 -475q65 -33 143 -33zM659 750q-153 0 -251 -100t-99 -247q0 -90 45 -163l451 477q-66 33 -146 33z" />
    <glyph glyph-name="Scommaaccent" unicode="&#x218;" 
d="M638 125q120 0 196 58t75 151q0 111 -149 153l-223 66q-133 41 -203 104t-70 174q0 165 119 265t305 100t297 -133l41 18l18 86h158l-86 -405h-135q-25 141 -110 212q-85 70 -192 70t-176 -50t-69 -122t43 -104t127 -57l225 -66q254 -80 254 -285q0 -170 -126 -280
t-316 -109q-111 0 -204 45t-142 109l-43 -23l-25 -102h-157l98 451h135q19 -158 117 -242t218 -84zM317 -281q0 63 42 105q41 42 101 41q60 0 101 -43q41 -44 41 -106t-51 -115l-229 -232l-66 64l147 166q-86 36 -86 120z" />
    <glyph glyph-name="scommaaccent" unicode="&#x219;" 
d="M248 639q0 105 112 181t288 77q177 0 286 -71t108 -177q0 -59 -36 -94t-85 -35q-48 0 -78 26t-30 64t26 62q26 23 66 20q-96 72 -260 72q-104 0 -169 -32q-64 -32 -64 -80t28 -70t95 -39l305 -88q201 -57 200 -205q0 -133 -127 -206t-313 -73t-325 79q-138 79 -138 194
q0 63 36 99t83 36t77 -27t29 -69q0 -70 -71 -78q123 -100 319 -101q113 0 189 35t75 97q0 38 -30 58t-92 38l-281 78q-111 32 -167 78t-56 151zM305 -281q0 63 42 105q41 42 101 41q60 0 101 -43q41 -44 41 -106t-51 -115l-230 -232l-65 64l147 166q-86 36 -86 120z" />
    <glyph glyph-name="uni021A" unicode="&#x21a;" 
d="M262 1167h1045l-107 -495h-156l60 282l-49 64h-217l-172 -805l49 -63h235l-30 -150h-770l32 150h236l78 63l170 805h-217l-78 -64l-60 -282h-155zM344 -281q0 63 41 105t101 41q60 0 102 -43q42 -44 41 -106q0 -62 -51 -115l-230 -232l-65 64l147 166q-86 36 -86 120z
" />
    <glyph glyph-name="uni021B" unicode="&#x21b;" 
d="M657 127q100 0 176 55q75 55 146 170l119 -82q-74 -133 -192 -216t-276 -83t-252 111q-93 111 -52 301l57 272l-51 64h-193l33 149h256l68 316h159l-67 -316h481l-33 -149h-418l-75 -64l-54 -249q-61 -279 168 -279zM387 -281q0 63 42 105t101 41q58 0 100 -43
q42 -44 42 -106t-51 -115l-230 -232l-65 64l147 166q-86 36 -86 120z" />
    <glyph glyph-name="uni0237" unicode="&#x237;" 
d="M8 -70q0 78 48 132t117 54t110 -38q41 -39 41 -92t-38 -90t-91 -39q8 -55 57 -91t127 -36q238 0 309 331l127 594l-51 64h-369l31 149h588l-174 -817q-47 -223 -165 -340t-291 -117q-172 0 -274 98t-102 238z" />
    <glyph glyph-name="circumflex" unicode="&#x2c6;" 
d="M837 1417q56 0 97 -74l149 -276l-59 -47l-211 192l-315 -192l-54 47l263 276q74 74 130 74z" />
    <glyph glyph-name="caron" unicode="&#x2c7;" 
d="M756 1028q-57 0 -97 74l-149 276l59 47l211 -192l316 192l53 -47l-262 -276q-74 -74 -131 -74z" />
    <glyph glyph-name="breve" unicode="&#x2d8;" 
d="M779 1180q79 0 157 48t119 132l110 -27q-59 -149 -167 -231t-240 -82t-208 82q-77 82 -75 231l109 27q2 -82 59 -131t136 -49z" />
    <glyph glyph-name="dotaccent" unicode="&#x2d9;" 
d="M944 1194q0 -66 -45 -110t-111 -44t-109 44q-44 44 -44 110t44 111q43 45 109 45t111 -45t45 -111z" />
    <glyph glyph-name="ring" unicode="&#x2da;" 
d="M922 1243q0 51 -32 84t-84 33t-90 -36t-38 -87t33 -84t84 -33t89 36t38 87zM811 1477q105 0 167 -65q62 -64 62 -168t-74 -172t-176 -68q-103 0 -167 63q-63 63 -63 166t73 173q74 70 178 71z" />
    <glyph glyph-name="ogonek" unicode="&#x2db;" 
d="M399 -304q0 -42 58 -42t174 106l76 -106q-156 -135 -283 -135q-84 0 -129 43q-45 42 -45 120t79 168t294 275l90 -92q-172 -147 -243 -221t-71 -116z" />
    <glyph glyph-name="tilde" unicode="&#x2dc;" 
d="M915 1028q-45 0 -85 23t-64 49q-66 71 -111 70q-45 -2 -82 -38t-49 -98h-157q27 129 105 206q79 77 166 77t164 -71q77 -70 118 -70t77 37t50 100h159q-28 -129 -108 -207t-183 -78z" />
    <glyph glyph-name="hungarumlaut" unicode="&#x2dd;" 
d="M797 1067l176 272q63 96 143 97q39 0 67 -27t27 -66q0 -92 -102 -147l-272 -168zM373 1067l174 272q63 96 143 97q39 0 67 -27t27 -66q0 -90 -100 -147l-274 -168z" />
    <glyph glyph-name="uni0326" unicode="&#x326;" 
d="M340 -281q0 63 41 105t101 41q60 0 102 -43q42 -44 41 -106q0 -62 -52 -115l-229 -232l-65 64l147 166q-86 36 -86 120z" />
    <glyph glyph-name="Wgrave" unicode="&#x1e80;" 
d="M825 868l-59 -718h43l276 817l-30 51h-181l33 149h490l-31 -149h-104l-351 -1018h-280l55 729l-283 -729h-290l131 1018h-105l33 149h496l-31 -149h-180l-54 -51l-114 -817h41l282 718h213zM755 1710q48 0 80 -33t42 -78l63 -268l-51 -37l-189 179q-63 53 -62 111t35 92
t82 34z" />
    <glyph glyph-name="wgrave" unicode="&#x1e81;" 
d="M730 1440q50 0 81 -34t39 -79l63 -266l-49 -37l-188 178q-64 54 -64 112t34 92t84 34zM950 895q110 1 170 -75t60 -208t-56 -280t-165 -254q-108 -106 -234 -107q-70 0 -115 38t-55 93q-74 -131 -223 -131q-98 0 -147 76q-48 76 -25 184l90 424l-49 64h-119l31 149h329
l-129 -610q-16 -68 4 -108q19 -40 71 -41q52 0 92 49t59 129l65 315h150l-72 -332q-33 -162 68 -161q74 0 142 91t104 211q38 121 38 229t-69 126q18 -20 18 -55t-28 -58q-29 -23 -73 -23t-74 33q-30 32 -30 91t50 100t122 41z" />
    <glyph glyph-name="Wacute" unicode="&#x1e82;" 
d="M825 868l-59 -718h43l276 817l-30 51h-181l33 149h490l-31 -149h-104l-351 -1018h-280l55 729l-283 -729h-290l131 1018h-105l33 149h496l-31 -149h-180l-54 -51l-114 -817h41l282 718h213zM1038 1708q37 0 66 -28t29 -66q0 -88 -103 -148l-272 -168l-39 39l176 273
q61 98 143 98z" />
    <glyph glyph-name="wacute" unicode="&#x1e83;" 
d="M950 895q110 1 170 -75t60 -208t-56 -280t-165 -254q-108 -106 -234 -107q-70 0 -115 38t-55 93q-74 -131 -223 -131q-98 0 -147 76q-48 76 -25 184l90 424l-49 64h-119l31 149h329l-129 -610q-16 -68 4 -108q19 -40 71 -41q52 0 92 49t59 129l65 315h150l-72 -332
q-33 -162 68 -161q74 0 142 91t104 211q38 121 38 229t-69 126q18 -20 18 -55t-28 -58q-29 -23 -73 -23t-74 33q-30 32 -30 91t50 100t122 41zM674 1067l176 272q63 96 143 97q39 0 67 -27t27 -66q0 -92 -102 -147l-272 -168z" />
    <glyph glyph-name="Wdieresis" unicode="&#x1e84;" 
d="M825 868l-59 -718h43l276 817l-30 51h-181l33 149h490l-31 -149h-104l-351 -1018h-280l55 729l-283 -729h-290l131 1018h-105l33 149h496l-31 -149h-180l-54 -51l-114 -817h41l282 718h213zM626 1311q-62 0 -108 44q-45 44 -45 104q0 61 45 105q46 44 108 44t106 -44
t44 -104t-44 -105q-44 -44 -106 -44zM1066 1311q-62 0 -108 44q-45 44 -45 104q0 61 45 105q46 44 108 44t106 -44t44 -104t-44 -105q-44 -44 -106 -44z" />
    <glyph glyph-name="wdieresis" unicode="&#x1e85;" 
d="M950 895q110 1 170 -75t60 -208t-56 -280t-165 -254q-108 -106 -234 -107q-70 0 -115 38t-55 93q-74 -131 -223 -131q-98 0 -147 76q-48 76 -25 184l90 424l-49 64h-119l31 149h329l-129 -610q-16 -68 4 -108q19 -40 71 -41q52 0 92 49t59 129l65 315h150l-72 -332
q-33 -162 68 -161q74 0 142 91t104 211q38 121 38 229t-69 126q18 -20 18 -55t-28 -58q-29 -23 -73 -23t-74 33q-30 32 -30 91t50 100t122 41zM592 1051q-63 0 -109 43q-45 43 -45 104q0 62 45 106t109 44t106 -44q43 -44 43 -106t-43 -104q-43 -43 -106 -43zM1032 1346
q62 0 106 -43t44 -105t-44 -106q-44 -43 -107 -43q-62 0 -107 44t-45 105q0 60 45 104t108 44z" />
    <glyph glyph-name="Ygrave" unicode="&#x1ef2;" 
d="M755 1710q48 0 80 -33t42 -78l63 -268l-51 -37l-189 179q-63 53 -62 111t35 92t82 34zM711 420l-45 -207l49 -63h235l-30 -150h-770l32 150h236l78 63l43 207l-269 598h-127l33 149h524l-32 -149h-119l-70 -51l168 -418l348 418l-51 51h-117l33 149h533l-33 -149h-127z
" />
    <glyph glyph-name="ygrave" unicode="&#x1ef3;" 
d="M588 1314q0 58 34 92t84 34t80 -34t39 -79l64 -266l-49 -37l-189 178q-63 54 -63 112zM508 14q-135 0 -208 94t-40 244l66 303l-50 64h-110l31 149h327l-100 -471q-49 -231 118 -231t324 215l105 487h153l-174 -823q-98 -459 -493 -459q-168 0 -276 79t-107 192
q-2 67 36 111t93 44t84 -30t29 -71q0 -40 -21 -66q-20 -26 -47 -29q50 -98 198 -98t237 90q89 91 124 247l29 138q-49 -51 -87 -83t-106 -64t-135 -32z" />
    <glyph glyph-name="endash" unicode="&#x2013;" 
d="M305 475l37 170h664l-37 -170h-664z" />
    <glyph glyph-name="emdash" unicode="&#x2014;" 
d="M121 475l37 170h1032l-37 -170h-1032z" />
    <glyph glyph-name="quoteleft" unicode="&#x2018;" 
d="M887 852q0 -78 -52 -129t-128 -51t-129 54q-54 54 -54 126t56 139l309 350l90 -65l-201 -268q109 -49 109 -156z" />
    <glyph glyph-name="quoteright" unicode="&#x2019;" 
d="M608 1128q0 78 52 129t128 51t130 -54t53 -126q0 -72 -56 -139l-309 -350l-90 66l201 268q-109 49 -109 155z" />
    <glyph glyph-name="quotesinglbase" unicode="&#x201a;" 
d="M399 160q1 78 53 129t128 51t129 -54t53 -126t-55 -140l-310 -350l-90 66l201 268q-109 49 -109 156z" />
    <glyph glyph-name="quotedblleft" unicode="&#x201c;" 
d="M1149 852q0 -78 -52 -129t-128 -51t-129 54q-54 54 -54 126t56 139l309 350l90 -65l-201 -268q109 -49 109 -156zM631 852q0 -78 -52 -129t-128 -51t-129 54q-54 54 -54 126t56 139l309 350l90 -65l-201 -268q109 -49 109 -156z" />
    <glyph glyph-name="quotedblright" unicode="&#x201d;" 
d="M864 1128q0 78 52 129t128 51t130 -54t53 -126q0 -72 -56 -139l-309 -350l-90 66l201 268q-109 49 -109 155zM348 1128q0 78 52 129t128 51t129 -54t53 -126t-55 -139l-309 -350l-90 66l201 268q-109 49 -109 155z" />
    <glyph glyph-name="quotedblbase" unicode="&#x201e;" 
d="M657 162q1 78 53 129t128 51t129 -54t53 -126t-55 -139l-310 -351l-90 66l201 268q-109 49 -109 156zM139 162q0 78 52 129t128 51q75 0 129 -54t54 -126t-56 -139l-309 -351l-90 66l201 268q-109 49 -109 156z" />
    <glyph glyph-name="dagger" unicode="&#x2020;" 
d="M801 897l-90 -424h-148l90 424h-272l31 141h272l55 256h146l-54 -256h273l-31 -141h-272z" />
    <glyph glyph-name="daggerdbl" unicode="&#x2021;" 
d="M750 651l-37 -178h-148l39 178h-274l30 140h273l43 194h-275l31 141h273l36 168h146l-35 -168h272l-30 -141h-273l-41 -194h273l-31 -140h-272z" />
    <glyph glyph-name="bullet" unicode="&#x2022;" 
d="M1092 604q0 -174 -124 -297t-302 -123t-302 123t-124 297t124 297t302 123t302 -123t124 -297z" />
    <glyph glyph-name="ellipsis" unicode="&#x2026;" 
d="M4 125q0 63 44 107t108 44t107 -44q44 -44 44 -107t-44 -107t-107 -45q-63 0 -108 44q-44 45 -44 108zM406 125q0 63 44 107t107 44t107 -44t45 -107q0 -63 -44 -107q-43 -44 -107 -45q-64 1 -108 45t-44 107zM811 125q0 63 44 107q43 44 107 44t108 -44t44 -107
t-44 -107t-107 -45q-63 0 -108 44q-44 45 -44 108z" />
    <glyph glyph-name="perthousand" unicode="&#x2030;" 
d="M836 1196l79 -55l-923 -1164l-80 58zM225 992q0 -44 29 -72t74 -29q45 0 79 32q33 31 33 75t-28 74q-29 30 -74 30t-79 -33t-34 -77zM129 991q0 85 62 145q63 60 151 60t142 -54t53 -141q1 -87 -63 -145t-151 -59q-87 0 -141 54q-53 54 -53 140zM511 393q87 0 140 -55
t53 -141q0 -85 -62 -145t-150 -60t-142 55q-53 55 -53 141t63 146q64 59 151 59zM496 88q44 0 78 32t34 76t-28 72t-73 29q-46 0 -80 -32t-34 -76q0 -45 29 -73t74 -28zM1094 196q0 44 -29 72t-74 29q-45 0 -79 -32t-34 -76q0 -45 30 -73q28 -28 73 -28t79 32t34 76z
M995 393q87 0 141 -55t54 -141q0 -85 -64 -145t-150 -60t-140 55t-54 141t64 146t149 59z" />
    <glyph glyph-name="guilsinglleft" unicode="&#x2039;" 
d="M604 438l166 -270l-145 -88l-222 375l381 374l101 -118z" />
    <glyph glyph-name="guilsinglright" unicode="&#x203a;" 
d="M664 471l-166 270l145 88l221 -374l-381 -375l-100 119z" />
    <glyph glyph-name="fraction" unicode="&#x2044;" 
d="M1243 1196l76 -82l-1241 -1139l-76 84z" />
    <glyph glyph-name="uni2070" unicode="&#x2070;" 
d="M655 569q109 0 178 126t68 274q0 76 -35 125t-104 49q-108 0 -176 -126t-68 -274q0 -78 34 -126t103 -48zM782 1274q123 0 195 -86t72 -219q0 -203 -118 -368t-296 -165q-123 0 -195 86t-71 221q0 203 117 367q118 164 296 164z" />
    <glyph glyph-name="uni2074" unicode="&#x2074;" 
d="M1026 633h-133l-62 -49l-26 -127h-137l28 127l-39 49h-366l37 172q121 100 252 252t219 293l139 -45q-86 -137 -222 -288t-259 -263h276l39 184h137l-41 -184h183z" />
    <glyph glyph-name="uni2075" unicode="&#x2075;" 
d="M746 825q-92 0 -146 -75h-172l129 505h504l-27 -131h-381l-69 -245q27 31 80 51t106 20q106 0 158 -56t51 -140q0 -121 -99 -219q-191 -189 -538 -224l6 125q217 31 353 108t137 189q0 92 -92 92z" />
    <glyph glyph-name="uni2076" unicode="&#x2076;" 
d="M506 704q0 -66 38 -104q38 -37 106 -37t126 50q58 49 58 117t-37 104t-106 36t-127 -50t-58 -116zM736 997q98 -1 168 -69t69 -172q0 -136 -94 -228q-93 -92 -227 -92t-208 76t-73 190q0 218 180 396t473 245l12 -122q-305 -86 -450 -267q52 43 150 43z" />
    <glyph glyph-name="uni2077" unicode="&#x2077;" 
d="M645 1126l-61 -51l-31 -143h-127l70 323h653l-33 -153l-581 -793l-117 62l555 755h-328z" />
    <glyph glyph-name="uni2078" unicode="&#x2078;" 
d="M612 1061q0 -109 130 -109q62 0 107 40q46 40 46 96q1 110 -131 110q-62 0 -107 -41t-45 -96zM682 821q-72 0 -122 -39t-50 -99q0 -116 149 -116q78 0 128 40q51 41 51 101t-42 86t-114 27zM981 723q1 -117 -97 -200t-228 -83t-211 60t-80 153q0 156 172 236l4 18
q-72 49 -71 152t94 185q94 82 216 83q122 0 190 -61q68 -62 68 -146t-46 -145t-101 -86l-4 -21q94 -55 94 -145z" />
    <glyph glyph-name="uni2079" unicode="&#x2079;" 
d="M656 713q-98 1 -170 69q-71 68 -70 172q0 136 94 228t228 92t208 -76t74 -190q0 -223 -185 -421t-475 -263l-12 120q150 41 273 127t184 185q-51 -43 -149 -43zM740 1145q-68 0 -126 -50q-58 -49 -59 -117q0 -68 37 -104q36 -36 106 -34q70 0 128 50t59 116q0 66 -38 103
q-39 36 -107 36z" />
    <glyph glyph-name="uni2080" unicode="&#x2080;" 
d="M494 -195q110 0 178 126t67 274q0 78 -34 126q-35 48 -105 48q-108 0 -176 -126t-68 -273q0 -78 34 -126t104 -49zM621 510q123 0 195 -86t71 -219q0 -203 -118 -368t-296 -165q-123 0 -195 86t-71 222q0 202 118 366t296 164z" />
    <glyph glyph-name="uni2081" unicode="&#x2081;" 
d="M256 319l293 173h174l-133 -629l39 -49h225l-27 -121h-700l27 121h235l62 49l102 481l-242 -141z" />
    <glyph glyph-name="uni2082" unicode="&#x2082;" 
d="M639 512q104 0 169 -56q64 -56 64 -150t-100 -179q-73 -62 -192 -137l-283 -176h328l63 49l17 84h126l-53 -254h-657l35 162l346 227q31 22 92 60t87 70q27 32 33 52q5 20 5 46t-23 48t-67 21q-150 0 -297 -158l-88 88q174 203 395 203z" />
    <glyph glyph-name="uni2083" unicode="&#x2083;" 
d="M625 182q82 0 131 -52t49 -134q1 -125 -103 -223q-182 -172 -550 -224v127q215 31 363 110t149 200q0 44 -30 72t-92 28t-163 -57l-57 94l380 242h-397l27 127h545l-35 -164l-256 -152q14 6 39 6z" />
    <glyph glyph-name="uni2084" unicode="&#x2084;" 
d="M864 -131h-133l-61 -49l-27 -127h-137l29 127l-39 49h-367l37 172q121 100 252 252t219 293l139 -45q-88 -137 -224 -289t-257 -262h276l39 184h138l-41 -184h182z" />
    <glyph glyph-name="uni2085" unicode="&#x2085;" 
d="M676 -31q0 92 -94 92t-144 -75h-172l129 506h504l-27 -130h-380l-70 -247q29 31 82 53t104 20q106 0 158 -57t51 -141q0 -121 -99 -219q-191 -189 -538 -224l6 125q217 31 354 108q136 77 136 189z" />
    <glyph glyph-name="uni2086" unicode="&#x2086;" 
d="M530 109q-68 1 -128 -51q-58 -52 -58 -118t38 -104q38 -37 106 -37t126 50t58 119t-37 105t-105 36zM574 233q98 -1 168 -69t69 -172q0 -136 -94 -228q-93 -92 -227 -92t-208 76t-73 191q0 219 179 396t474 245l12 -121q-307 -86 -450 -269q52 43 150 43z" />
    <glyph glyph-name="uni2087" unicode="&#x2087;" 
d="M483 362l-61 -49l-31 -143h-127l70 322h653l-33 -154l-581 -793l-117 62l555 755h-328z" />
    <glyph glyph-name="uni2088" unicode="&#x2088;" 
d="M451 297q1 -109 129 -109q62 0 107 41q46 41 46 97q1 108 -131 108q-62 0 -106 -41t-45 -96zM676 -56q0 114 -156 113q-72 0 -122 -39t-50 -99q0 -116 150 -116q78 0 128 40q50 41 50 101zM819 -41q1 -117 -97 -200t-228 -83t-210 60t-81 153q0 156 172 236l4 20
q-72 49 -72 138q2 115 95 199q94 84 216 83q122 0 190 -62q68 -61 69 -145q-1 -84 -47 -146t-101 -87l-4 -19q94 -59 94 -147z" />
    <glyph glyph-name="uni2089" unicode="&#x2089;" 
d="M492 -51q-98 1 -168 69t-70 188t94 212t228 92t208 -76t74 -190q0 -223 -185 -421t-474 -263l-13 121q150 41 273 127t184 184q-53 -43 -151 -43zM723 244q0 68 -38 103q-39 36 -107 36t-126 -50q-58 -49 -58 -117t37 -104q39 -36 107 -36t127 50q58 50 58 118z" />
    <glyph glyph-name="Euro" unicode="&#x20ac;" 
d="M674 -27q-176 0 -295 122t-131 306h-215l51 121h166q6 74 20 129h-141l53 121h125q78 196 234 310t332 114t272 -82t96 -188t-48 -158q-47 -53 -109 -53q-62 1 -95 31t-34 72t26 77t78 51q-72 88 -168 88q-127 0 -233 -69q-105 -70 -166 -193h372l-51 -121h-367
q-16 -68 -22 -129h346l-49 -121h-297q14 -117 85 -191t185 -75q168 0 353 174l88 -125q-223 -211 -461 -211z" />
    <glyph glyph-name="uni2117" unicode="&#x2117;" 
d="M762 887q213 0 213 -166q0 -86 -77 -136t-210 -50h-115l-30 -148l26 -37h52l-17 -84h-266l16 84h49l41 37l80 381l-24 35h-49l18 84h293zM700 1061q-206 0 -361 -154q-155 -155 -157 -359t117 -325t325 -121t360 155q155 155 156 359q2 204 -116 324t-324 121zM704 1151
q244 0 386 -144q141 -145 139 -387q-1 -242 -185 -423t-428 -183t-384 142q-142 144 -140 386t186 426q182 184 426 183zM866 723q0 74 -114 74h-123l-35 -172h111q161 0 161 98z" />
    <glyph glyph-name="trademark" unicode="&#x2122;" 
d="M236 1167h477l-47 -225h-88l24 117l-24 28h-72l-74 -344l25 -28h96l-16 -80h-347l17 80h92l35 28l74 344h-72l-39 -28l-23 -117h-86zM1026 809h-96l-8 266h-19l-69 -332l22 -28h41l-16 -80h-215l16 80h29l37 28l65 316l-25 28h-26l16 80h213l4 -272l125 272h207l-16 -80
h-29l-35 -28l-65 -316l22 -28h29l-16 -80h-216l17 80h41l37 28l69 332h-18z" />
    <glyph glyph-name="uni2153" unicode="&#x2153;" 
d="M80 133l459 305l30 -39l-387 -401zM1079 963l103 -136l-459 -303l-31 39zM262 1061l-41 92l207 123h141l-102 -485h182l-22 -101h-482l21 101h186l80 370zM965 141q49 0 83 -38t33 -97q0 -133 -145 -218t-336 -110l-2 103q150 23 258 79t109 138q-1 31 -21 49
q-55 49 -180 -27l-49 78l272 166h-278l20 105h404l-29 -136l-166 -94q10 2 27 2z" />
    <glyph glyph-name="uni2154" unicode="&#x2154;" 
d="M965 141q49 0 83 -38t33 -97q0 -133 -145 -218t-336 -110l-2 103q150 23 258 79t109 138q-1 31 -21 49q-55 49 -180 -27l-49 78l272 166h-278l20 105h404l-29 -136l-166 -94q10 2 27 2zM80 133l459 305l30 -39l-387 -401zM1079 963l103 -136l-459 -303l-31 39zM702 1153
q0 -91 -65 -145t-156 -105l-190 -117h350l-20 -100h-480l29 129l250 166q10 9 36 25q107 68 116 103q18 65 -54 67q-104 0 -215 -117l-76 76q137 152 308 151q83 0 125 -41t42 -92z" />
    <glyph glyph-name="uni215B" unicode="&#x215b;" 
d="M80 133l459 305l30 -39l-387 -401zM262 1061l-41 92l207 123h141l-102 -485h182l-22 -101h-482l21 101h186l80 370zM1079 963l103 -136l-459 -303l-31 39zM934 -51q0 71 -104 71q-49 0 -87 -29q-37 -30 -37 -71q1 -78 101 -80q55 0 91 30t36 79zM1047 -58q1 -78 -71 -140
t-170 -62t-156 45t-58 111q0 119 119 174l4 14q-43 42 -43 112t69 133q70 62 160 62t138 -46q48 -47 48 -107q1 -60 -31 -103t-73 -63l-4 -19q68 -33 68 -111zM977 213q0 76 -88 76q-41 0 -75 -29t-34 -74q0 -67 90 -67q42 -1 74 27q33 28 33 67z" />
    <glyph glyph-name="uni215C" unicode="&#x215c;" 
d="M80 133l459 305l30 -39l-387 -401zM1047 -58q1 -78 -71 -140t-170 -62t-156 45t-58 111q0 119 119 174l4 14q-43 42 -43 112t69 133q70 62 160 62t138 -46q48 -47 48 -107q1 -60 -31 -103t-73 -63l-4 -19q68 -33 68 -111zM1079 963l103 -136l-459 -303l-31 39zM977 213
q0 76 -88 76q-41 0 -75 -29t-34 -74q0 -67 90 -67q42 -1 74 27q33 28 33 67zM934 -51q0 71 -104 71q-49 0 -87 -29q-37 -30 -37 -71q1 -78 101 -80q55 0 91 30t36 79zM516 883q0 67 -82 67q-42 0 -119 -43l-47 76l273 166h-281l23 104h401l-29 -135l-166 -94q25 4 27 4
q49 0 84 -38t35 -97q0 -92 -77 -165q-136 -129 -406 -165v105q150 24 258 78t106 137z" />
    <glyph glyph-name="uni215D" unicode="&#x215d;" 
d="M934 -51q0 71 -104 71q-49 0 -87 -29q-37 -30 -37 -71q1 -78 101 -80q55 0 91 30t36 79zM1047 -58q1 -78 -71 -140t-170 -62t-156 45t-58 111q0 119 119 174l4 14q-43 42 -43 112t69 133q70 62 160 62t138 -46q48 -47 48 -107q1 -60 -31 -103t-73 -63l-4 -19
q68 -33 68 -111zM1079 963l103 -136l-459 -303l-31 39zM977 213q0 76 -88 76q-41 0 -75 -29t-34 -74q0 -67 90 -67q42 -1 74 27q33 28 33 67zM80 133l459 305l30 -39l-387 -401zM516 872q0 57 -65 58q-25 0 -50 -16t-32 -40h-144l97 381h372l-22 -108h-273l-45 -164
q41 51 123 51t119 -42t39 -103q1 -129 -143 -217t-326 -111l4 107q152 20 249 74t97 130z" />
    <glyph glyph-name="uni215E" unicode="&#x215e;" 
d="M1047 -58q1 -78 -71 -140t-170 -62t-156 45t-58 111q0 119 119 174l4 14q-43 42 -43 112t69 133q70 62 160 62t138 -46q48 -47 48 -107q1 -60 -31 -103t-73 -63l-4 -19q68 -33 68 -111zM934 -51q0 71 -104 71q-49 0 -87 -29q-37 -30 -37 -71q1 -78 101 -80q55 0 91 30
t36 79zM80 133l459 305l30 -39l-387 -401zM1079 963l103 -136l-459 -303l-31 39zM977 213q0 76 -88 76q-41 0 -75 -29t-34 -74q0 -67 90 -67q42 -1 74 27q33 28 33 67zM332 1145l-29 -141h-104l53 251h502l-27 -129l-436 -565l-98 51l413 533h-274z" />
    <glyph glyph-name="minus" unicode="&#x2212;" 
d="M186 504l31 149h924l-31 -149h-924z" />
    <glyph glyph-name="approxequal" unicode="&#x2248;" 
d="M891 610q-80 0 -207 56t-205 55q-123 0 -313 -127l37 166q162 111 299 110q78 0 205 -55t202 -55q131 0 314 127l-35 -166q-160 -111 -297 -111zM412 389q-125 0 -314 -127l35 164q162 111 297 111q80 1 207 -55t205 -56q117 0 313 127l-37 -164q-160 -111 -299 -110
q-78 0 -205 55t-202 55z" />
    <glyph glyph-name="notequal" unicode="&#x2260;" 
d="M535 350l-213 -229l-99 74l146 155h-215l28 135h314l174 187h-449l29 137h547l219 233l92 -73l-147 -160h215l-29 -137h-313l-175 -187h447l-29 -135h-542z" />
    <glyph glyph-name="lessequal" unicode="&#x2264;" 
d="M137 78l33 147h809l-33 -147h-809zM252 618l39 185l874 307l-35 -172l-700 -233l600 -236l-33 -156z" />
    <glyph glyph-name="greaterequal" unicode="&#x2265;" 
d="M1124 805l-37 -182l-876 -310l37 174l698 234l-600 233l35 156zM156 78l32 147h809l-32 -147h-809z" />
    <glyph glyph-name="i.dot" 
d="M842 1194q0 -66 -44 -110t-110 -44t-110 44q-46 44 -46 110t44 111t112 45q66 0 110 -45t44 -111zM750 127q145 0 264 266l129 -61q-162 -360 -404 -361q-141 -1 -219 99t-49 237l76 348l-51 64h-334l33 149h550l-122 -569q-13 -76 21 -124t106 -48z" />
    <glyph glyph-name="braceleft.cap" 
d="M344 639q86 0 145 40t64 109q0 6 -4 108t-2 151q6 147 99 239q94 92 260 92t259 -55l-67 -147q-78 51 -180 51t-153 -37q-50 -37 -54 -143q-2 -39 3 -135t5 -119q-4 -97 -73 -155t-148 -79q53 -16 93 -59q40 -44 40 -108t-72 -208t-72 -186q0 -106 140 -107q106 0 209 52
l4 -146q-111 -57 -247 -57t-208 59t-72 145t76 240q76 152 76 203q0 92 -156 92h-123l35 160h123z" />
    <glyph glyph-name="braceright.cap" 
d="M969 481q-85 0 -145 -40t-64 -109q0 -6 4 -108t2 -150q-6 -148 -99 -240t-259 -92t-261 55l68 148q78 -51 180 -51t153 36q50 37 54 144q2 39 -3 134t-5 120q4 96 73 154t148 79q-53 15 -93 59t-40 108t72 208t71 186q0 106 -139 107q-106 0 -209 -51l-4 145
q111 57 247 57t208 -59t71 -160q1 -73 -75 -225t-76 -203q0 -92 156 -92h122l-34 -160h-123z" />
    <glyph glyph-name="bracketleft.cap" 
d="M659 1223l-278 -1317h446l-32 -150h-598l344 1616h598l-33 -149h-447z" />
    <glyph glyph-name="bracketright.cap" 
d="M655 -94l279 1317h-447l33 149h598l-344 -1616h-598l33 150h446z" />
    <glyph glyph-name="parenleft.cap" 
d="M524 418q0 -170 81 -316t224 -245l-116 -119q-160 110 -258 280q-99 170 -99 364q-1 366 221 625q191 226 488 386l61 -146q-272 -145 -437 -359t-165 -470z" />
    <glyph glyph-name="parenright.cap" 
d="M788 713q0 170 -80 315q-81 145 -225 246l117 119q160 -111 258 -281t98 -364q0 -369 -220 -624q-191 -226 -488 -386l-62 145q272 145 437 359t165 471z" />
    <glyph glyph-name="guillemotleft.cap" 
d="M416 561l168 -270l-146 -88l-221 375l379 374l102 -118zM872 561l166 -270l-145 -88l-221 375l381 374l100 -118z" />
    <glyph glyph-name="guillemotright.cap" 
d="M903 594l-168 270l146 88l221 -374l-379 -375l-102 119zM446 594l-165 270l145 88l221 -374l-381 -375l-100 119z" />
    <glyph glyph-name="guilsinglleft.cap" 
d="M629 561l168 -270l-146 -88l-221 375l381 374l100 -118z" />
    <glyph glyph-name="guilsinglright.cap" 
d="M692 594l-168 270l146 88l221 -374l-381 -375l-100 119z" />
    <glyph glyph-name="questiondown.cap" 
d="M762 1194q63 0 108 -46t45 -110t-45 -108q-45 -45 -108 -45t-109 45q-45 46 -45 110t45 109q46 45 109 45zM346 297q0 -84 66 -130t166 -46q100 -1 181 27t105 69q-92 37 -92 107q0 53 40 91t102 38t108 -47t45 -115q0 -135 -143 -227q-142 -92 -334 -93q-192 0 -308 90
t-115 239t123 242t316 126l25 114h194l-49 -223q-210 -37 -320 -96t-110 -166z" />
    <glyph glyph-name="exclamdown.cap" 
d="M758 1196q63 0 108 -45t45 -109t-45 -110q-45 -45 -108 -45t-109 45q-45 45 -45 108t45 110q46 46 109 46zM434 174l223 592h95l-41 -616q-4 -76 -48 -126t-119 -50t-107 62q-32 64 -3 138z" />
    <glyph glyph-name="slash.cap" 
d="M-8 -152l1202 1526l129 -90l-1202 -1528z" />
    <glyph glyph-name="bar.cap" 
d="M911 1366l-342 -1614h-170l342 1614h170z" />
    <glyph glyph-name="backslash.cap" 
d="M1018 -182l-152 -60l-579 1538l151 60z" />
    <glyph glyph-name="a.ord" 
d="M692 1077q-96 0 -158 -73t-63 -161q0 -89 42 -133t115 -44t124 34t110 103l27 137q-53 137 -197 137zM334 842q0 137 108 248q109 111 250 110q84 0 142 -38t84 -87l49 125h104l-102 -487q-12 -49 8 -49t78 96l98 -43q-20 -37 -36 -62q-67 -112 -175 -112q-47 1 -76 31
t-28 81q-109 -113 -231 -113q-121 0 -197 82q-76 81 -76 218z" />
    <glyph glyph-name="b.ord" 
d="M827 1200q127 0 197 -80t70 -220t-109 -248q-109 -110 -252 -109q-83 0 -143 38t-80 87l-25 -105h-125l158 746l-18 24h-76l25 121h225l-76 -367q102 113 229 113zM733 666q96 0 160 72q63 73 63 161t-42 133t-116 45q-74 -1 -126 -35t-107 -102l-26 -137
q53 -137 194 -137z" />
    <glyph glyph-name="c.ord" 
d="M508 866q0 -198 217 -198q109 0 246 98l67 -102q-166 -121 -328 -120t-253 85q-92 83 -92 229t114 244q115 98 263 97t228 -67q81 -66 83 -153q0 -51 -32 -86t-78 -35t-77 30q-30 30 -30 76t57 76q-63 39 -152 39t-161 -59q-72 -58 -72 -154z" />
    <glyph glyph-name="d.ord" 
d="M692 1077q-96 0 -158 -73t-63 -161q0 -89 42 -133t115 -44t124 34t110 103l27 137q-53 137 -197 137zM334 842q0 137 108 248q109 111 250 110q84 0 142 -38t84 -87l51 234l-21 24h-129l25 121h280l-155 -741q-12 -49 8 -49t78 96l98 -43q-20 -37 -36 -62
q-67 -112 -175 -112q-47 1 -76 31t-28 81q-109 -113 -231 -113q-121 0 -197 82q-76 81 -76 218z" />
    <glyph glyph-name="e.ord" 
d="M712 543q-162 0 -254 85q-93 84 -93 226t116 244q117 102 289 102q129 0 211 -58t82 -149q0 -117 -154 -163t-405 -21q12 -61 64 -100t139 -39q135 0 262 92l61 -100q-156 -119 -318 -119zM924 993q0 39 -42 62t-124 23t-152 -42q-70 -40 -94 -116h6q178 -20 292 2
t114 71z" />
    <glyph glyph-name="f.ord" 
d="M1245 1302q0 -66 -34 -101q-34 -36 -85 -36q-50 0 -80 27q-30 26 -30 62t23 60q24 24 59 29q-31 31 -80 31q-88 0 -146 -58t-73 -161h196l-24 -123h-150l-59 -49l-78 -391q-63 -322 -289 -322q-98 0 -155 54q-58 54 -58 120t34 103t85 37t81 -27t30 -63t-25 -60
q-25 -23 -57 -26q25 -37 65 -37q121 0 164 221l76 391l-39 49h-107l27 123h156q25 143 110 231q86 88 236 89q100 1 164 -53t63 -120z" />
    <glyph glyph-name="g.ord" 
d="M624 586q-118 0 -194 80t-76 210t100 226q100 98 248 98q82 0 140 -37t84 -84l20 101h223l-26 -121h-72l-29 -25l-92 -434q-70 -330 -379 -330q-121 0 -207 60t-88 141q0 51 29 86t71 35t64 -24t23 -54q0 -30 -13 -48q-13 -19 -30 -24q43 -68 146 -68t168 63
q64 62 87 171l17 84q-96 -106 -214 -106zM705 1077q-95 0 -155 -59q-60 -60 -60 -140t41 -124q42 -44 115 -43q73 -1 121 29t105 91l21 123q-53 123 -188 123z" />
    <glyph glyph-name="h.ord" 
d="M946 664q20 0 78 96l98 -43q-29 -53 -49 -83t-62 -61q-41 -31 -101 -31t-88 48q-28 47 -13 119l45 209q35 160 -74 159q-102 0 -221 -162l-76 -352h-125l152 719l-37 51h-72l25 121h248l-82 -387q41 43 64 66q24 23 71 45t96 22q93 0 141 -63t25 -168l-53 -256
q-10 -49 10 -49z" />
    <glyph glyph-name="i.ord" 
d="M760 1284q-51 0 -85 35t-34 86t34 86t85 35t87 -36t36 -86t-36 -85t-87 -35zM803 541q-104 0 -162 71q-57 72 -37 170l47 224l-39 51h-233l27 121h407l-86 -402q-11 -47 13 -78t71 -30q98 0 180 180l105 -51q-115 -256 -293 -256z" />
    <glyph glyph-name="j.ord" 
d="M272 516q0 62 38 106t92 44t87 -32t33 -73t-30 -71t-70 -31q6 -35 39 -58t82 -22q82 0 130 56t72 167l86 406l-40 51h-240l29 121h411l-123 -586q-72 -324 -325 -324q-123 0 -197 72t-74 174zM1026 1326q-33 -34 -82 -36t-83 30t-36 82t30 84t81 36t84 -30t37 -82
t-31 -84z" />
    <glyph glyph-name="k.ord" 
d="M895 543q-66 0 -108 36t-52 101l-10 61q-16 92 -72 117l-157 -86l-45 -209h-125l153 719l-41 51h-71l26 121h248l-121 -569l279 153l8 27h-68l25 115h360l-24 -115h-60l-286 -154q66 -33 80 -116l12 -70q8 -70 61 -70q31 0 50 22t51 77l84 -64q-68 -147 -197 -147z" />
    <glyph glyph-name="l.ord" 
d="M782 543q-104 1 -162 71t-38 168l106 500l-41 49h-231l24 123h410l-143 -676q-11 -47 13 -78t71 -30q96 0 178 180l104 -51q-115 -256 -291 -256z" />
    <glyph glyph-name="m.ord" 
d="M862 1073q-47 0 -98 -88l-90 -422h-121l100 463q8 47 -37 47t-98 -88l-88 -422h-121l101 471l-17 25h-69l24 121h213l-18 -82q55 102 142 102t99 -96q23 40 65 68t91 28t74 -37t12 -96l-78 -365q-10 -45 9 -45t71 88l92 -36q-25 -49 -45 -79t-59 -59q-40 -29 -96 -29
t-82 46q-26 45 -11 112l70 326q12 47 -35 47z" />
    <glyph glyph-name="n.ord" 
d="M956 664q16 0 68 86q4 6 6 10l98 -43q-26 -49 -48 -82t-62 -63t-102 -30q-60 0 -88 49q-28 48 -11 118l43 209q35 160 -74 159q-104 0 -219 -162l-78 -352h-124l94 445l-39 51h-70l27 121h246l-25 -113q41 43 66 66q24 23 70 45t97 22q91 0 139 -62t27 -169l-55 -256
q-10 -49 14 -49z" />
    <glyph glyph-name="o.ord" 
d="M701 543q-153 0 -245 86t-94 224q0 139 108 243t260 104t246 -86t95 -224q0 -138 -108 -243q-109 -104 -262 -104zM730 1077q-95 0 -160 -63q-64 -62 -64 -154t51 -143t146 -51t160 63t65 155t-51 142q-52 51 -147 51z" />
    <glyph glyph-name="p.ord" 
d="M827 1200q127 0 197 -80t70 -220t-109 -248q-109 -110 -252 -109q-83 0 -143 38t-80 87l-51 -234l16 -22h133l-26 -121h-375l24 121h74l29 22l127 600l-19 25h-69l26 121h217l-18 -93q102 113 229 113zM956 899q0 88 -42 133t-115 45q-74 0 -126 -35t-108 -102l-26 -137
q53 -137 194 -137q96 0 160 72q63 73 63 161z" />
    <glyph glyph-name="q.ord" 
d="M340 843q0 138 109 248t251 109q84 0 144 -38t82 -87l24 105h219l-26 -121h-72l-29 -25l-129 -600l19 -22h72l-27 -121h-375l27 121h131l28 22l48 221q-109 -113 -227 -113q-117 0 -193 82q-76 81 -76 219zM700 1077q-96 0 -160 -73t-63 -161q0 -89 42 -133t115 -44
t124 34t110 103l27 137q-53 137 -195 137z" />
    <glyph glyph-name="r.ord" 
d="M883 973q-1 35 23 57t50 21q26 0 31 -4q-4 14 -14 20q-14 20 -62 20t-119 -49t-188 -159l-67 -316h-127l96 445l-41 51h-113l25 121h291l-33 -158q65 68 97 96t86 54q54 28 129 28t118 -54t43 -118t-34 -108q-34 -43 -89 -43q-102 0 -102 96z" />
    <glyph glyph-name="s.ord" 
d="M442 1016q0 76 80 130t210 54t207 -51t77 -127q0 -43 -29 -70q-29 -26 -65 -26t-60 19q-22 19 -22 48q1 58 67 60q-82 39 -165 39q-167 0 -167 -70q1 -27 19 -40t59 -26l226 -69q137 -43 137 -143t-91 -150q-91 -51 -226 -51t-235 56q-99 56 -99 138q0 49 26 77
q27 28 63 28t58 -20t23 -62q0 -41 -48 -49q90 -59 193 -59q199 -1 201 77q1 23 -17 35t-59 24l-203 60q-78 24 -119 58t-41 110z" />
    <glyph glyph-name="t.ord" 
d="M737 670q70 0 118 37t99 114l99 -67q-123 -211 -330 -211q-123 0 -189 79t-38 209l36 177l-40 51h-132l27 121h182l47 223h132l-50 -223h326l-27 -121h-276l-59 -51l-33 -158q-39 -180 108 -180z" />
    <glyph glyph-name="u.ord" 
d="M946 664q20 0 78 96l98 -43q-29 -53 -49 -83t-62 -61t-94 -31t-82 32q-30 30 -30 81q-41 -37 -59 -53t-65 -38q-46 -22 -93 -21q-98 0 -152 68q-53 69 -30 177l49 220l-41 51h-70l27 121h245l-75 -353q-37 -162 73 -161q115 0 215 141l80 373h125l-98 -467
q-10 -49 10 -49z" />
    <glyph glyph-name="v.ord" 
d="M952 983q0 76 -55 96q16 -20 16 -47q1 -27 -23 -47t-62 -20q-38 -1 -66 27t-27 80q0 52 43 90t118 38t125 -62t50 -157q0 -162 -141 -300t-322 -138q-96 -1 -153 69t-31 195l43 201l-41 51h-92l26 121h269l-80 -379q-14 -66 6 -100t68 -33q119 0 224 98t105 217z" />
    <glyph glyph-name="w.ord" 
d="M1118 999q0 -162 -99 -308t-239 -148q-49 1 -81 27t-35 63q-49 -90 -158 -90q-70 0 -105 54t-18 130l61 281l-41 51h-88l27 121h256l-90 -428q-10 -45 1 -72t40 -27q72 0 98 109l45 219h121l-47 -225q-20 -102 37 -103q72 0 134 123t62 212t-41 106q10 -10 11 -33
q0 -63 -76 -64q-35 0 -57 24q-22 25 -21 69q0 44 39 76q38 32 106 32t113 -56t45 -143z" />
    <glyph glyph-name="x.ord" 
d="M295 712q0 64 27 100q28 36 66 36t63 -25t25 -71t-46 -64q29 -33 57 -33q66 0 121 89t56 227q0 49 -23 80t-63 31t-74 -22q-33 -22 -82 -73l-68 88q106 125 222 124t174 -107q88 108 186 108t149 -51t51 -115t-26 -101q-27 -36 -66 -36q-40 0 -64 25q-24 26 -25 68t46 67
q-27 31 -57 30q-66 0 -121 -88t-55 -225q0 -49 23 -80t61 -30q72 0 156 94l69 -88q-111 -125 -222 -124t-175 107q-86 -109 -184 -109t-150 52q-51 52 -51 116z" />
    <glyph glyph-name="y.ord" 
d="M660 698q112 0 214 142l72 340h129l-123 -580q-70 -330 -358 -330q-121 0 -202 58t-81 137q-2 51 28 86t73 35q42 0 64 -24t22 -54t-14 -47q-14 -18 -31 -23q41 -63 141 -63q189 0 240 233l18 82q-88 -80 -133 -97t-88 -18q-96 0 -150 69q-53 69 -28 177l39 187l-39 51
h-70l27 121h243l-67 -322q-38 -160 74 -160z" />
    <glyph glyph-name="z.ord" 
d="M1071 727q0 -84 -61 -133q-62 -49 -158 -49t-208 62t-179 69q-59 -57 -88 -121l-78 72q70 166 373 286q113 47 170 82q-10 4 -92 48t-153 44t-93 -38q72 0 74 -69q0 -34 -26 -56t-66 -23q-40 0 -72 31t-31 84q0 84 62 134q61 50 151 50t196 -55t158 -66q47 51 72 105
l82 -72q-70 -164 -375 -287q-104 -45 -141 -65q30 -8 112 -56t156 -49q74 0 94 39q-31 -2 -51 16t-20 52q1 34 25 56t64 22t72 -31t31 -82z" />
    <glyph glyph-name="zero.dnom" 
d="M557 113q106 0 175 126t69 273q0 76 -35 125t-102 49q-109 0 -178 -126t-68 -273q0 -76 34 -125t105 -49zM684 817q123 0 194 -85t70 -220q0 -205 -117 -369t-294 -163q-125 0 -196 86t-71 221q0 203 118 367t296 163z" />
    <glyph glyph-name="one.dnom" 
d="M319 627l293 172h174l-133 -627l39 -51h223l-24 -121h-701l27 121h236l61 51l102 479l-241 -141z" />
    <glyph glyph-name="two.dnom" 
d="M702 819q104 0 168 -56t64 -140q0 -132 -185 -257q-34 -24 -106 -69l-283 -176h328l64 51l16 82h127l-53 -254h-658l35 162l346 225q16 12 86 57t83 62l30 40t18 61q0 36 -22 58q-23 22 -70 21q-148 0 -295 -158l-90 88q180 203 397 203z" />
    <glyph glyph-name="three.dnom" 
d="M688 489q82 0 131 -52t49 -134q0 -125 -103 -223q-183 -174 -550 -223v127q299 44 434 160q78 67 78 149q0 45 -30 73q-29 28 -91 28t-164 -58l-57 94l381 242h-397l26 127h545l-35 -164l-256 -152q20 6 39 6z" />
    <glyph glyph-name="four.dnom" 
d="M926 178h-131l-62 -51l-26 -127h-138l29 127l-39 51h-366l36 170q121 100 252 252t219 293l140 -45q-86 -137 -222 -288t-260 -263h277l39 184h137l-41 -184h182z" />
    <glyph glyph-name="five.dnom" 
d="M739 276q0 92 -94 92t-143 -75h-172l129 506h504l-27 -129h-381l-70 -248q27 31 80 51t107 21q106 0 157 -56t52 -139q1 -121 -99 -220q-190 -189 -538 -224l4 125q217 32 354 108t137 188z" />
    <glyph glyph-name="six.dnom" 
d="M735 276q1 138 -143 138q-70 0 -127 -50t-57 -116t37 -104q38 -36 107 -36t126 51q57 49 57 117zM638 541q98 0 168 -69t68 -171q0 -137 -94 -229t-228 -92t-207 76t-73 190q0 219 180 396t474 245l10 -123q-303 -82 -449 -266q53 43 151 43z" />
    <glyph glyph-name="seven.dnom" 
d="M547 670l-62 -52l-30 -143h-127l69 324h654l-33 -156l-582 -790l-117 61l555 756h-327z" />
    <glyph glyph-name="eight.dnom" 
d="M512 604q0 -110 132 -108q62 0 107 41q46 41 46 96q1 108 -131 108q-62 0 -108 -41t-46 -96zM739 250q0 115 -155 115q-72 0 -122 -39q-50 -40 -50 -100q0 -118 149 -115q78 0 128 40t50 99zM558 -16q-130 0 -211 60t-81 153q0 156 172 235l4 19q-72 53 -71 139
q2 114 95 198t215 84q121 0 189 -62t69 -146t-45 -145q-46 -62 -101 -87l-5 -18q94 -59 95 -148q1 -118 -97 -200t-228 -82z" />
    <glyph glyph-name="nine.dnom" 
d="M554 256q-96 0 -166 69t-71 189q1 120 95 211q94 92 227 92t207 -76t76 -190q0 -223 -186 -421t-474 -263l-12 121q150 41 272 127t185 184q-57 -43 -153 -43zM786 550q0 68 -37 104q-38 36 -107 36t-127 -51t-58 -117t37 -103q36 -36 106 -36t128 50q58 49 58 117z" />
  </font>
</defs>
</svg>
