<?xml version="1.0" standalone="no"?>
<!DOCTYPE svg PUBLIC "-//W3C//DTD SVG 1.1//EN" "http://www.w3.org/Graphics/SVG/1.1/DTD/svg11.dtd" >
<svg xmlns="http://www.w3.org/2000/svg">
<metadata>
Created by FontPrep 20130207 at Sat Oct 17 13:11:29 2015
 By Callum Flack
(c)2012 Klim Type Foundry. All Rights Reserved.
</metadata>
<defs>
<font id="a5b5f595310f1955c7cc3fbd4474407c" horiz-adv-x='1024' >
  <font-face 
    font-family="CopyrightKlimTypeFoundry-NotLicensedforDesktopUse"
    font-weight="400"
    font-style="italic"
    font-stretch="normal"
    units-per-em="2048"
    panose-1="2 6 5 9 3 2 6 13 2 3"
    ascent="1561"
    descent="-487"
    x-height="868"
    cap-height="1167"
    bbox="-207.018 -596 1552.15 2030"
    underline-thickness="102"
    underline-position="-112"
    slope="-12"
    unicode-range="U+0020-2265"
  />
<missing-glyph 
 />
    <glyph glyph-name=".notdef" 
 />
    <glyph glyph-name=".null" horiz-adv-x="0" 
 />
    <glyph glyph-name="nonmarkingreturn" 
 />
    <glyph glyph-name="space" unicode=" " 
 />
    <glyph glyph-name="exclam" unicode="!" 
d="M688 108q0 -54 -38 -92t-92 -39q-54 0 -92 38q-38 39 -38 93t38 92t92 38t92 -38t38 -92zM780 1196q46 0 68 -37t10 -84l-215 -680h-57l82 692q4 47 34 78q31 31 78 31z" />
    <glyph glyph-name="quotedbl" unicode="&#x22;" 
d="M600 1284q80 0 80 -94q0 -63 -43 -172l-135 -320h-43l16 338q6 128 33 188t92 60zM1001 1284q80 0 80 -94q0 -63 -43 -172l-135 -320h-43l17 338q6 129 32 189q27 59 92 59z" />
    <glyph glyph-name="numbersign" unicode="#" 
d="M406 375l-177 -375h-94l176 375h-235l41 84h233l119 250h-242l39 84h242l176 374h96l-176 -374h309l177 374h94l-176 -374h235l-41 -84h-233l-119 -250h242l-39 -84h-242l-176 -375h-96l176 375h-309zM756 459l116 250h-309l-117 -250h310z" />
    <glyph glyph-name="dollar" unicode="$" 
d="M217 412q47 0 75 -27t28 -66t-26 -67t-63 -25q10 -45 85 -89t178 -64l106 491l-63 21q-133 45 -202 105t-69 165q0 150 126 245t315 95h26l60 272h90l-60 -282q145 -27 237 -108t91 -183q0 -51 -33 -85t-76 -34q-44 0 -70 26t-26 64t24 61q24 24 56 21q-10 45 -70 86
t-153 60l-96 -457l131 -43q115 -38 177 -96t60 -158q-2 -164 -135 -267t-336 -104h-41l-63 -301h-92l65 312q-164 24 -267 106t-104 195q0 55 34 93t81 38zM610 63q154 0 255 72t102 195q0 66 -46 104t-124 64l-113 39l-100 -474h26zM698 1102q-137 0 -231 -68t-94 -170
q0 -72 50 -110t150 -72l48 -16l94 436h-17z" />
    <glyph glyph-name="percent" unicode="%" 
d="M1255 1194l54 -61l-1237 -1153l-54 61zM914 381q-68 0 -116 -46t-48 -114q0 -67 41 -109t109 -42t116 47q49 47 49 113t-42 109q-42 42 -109 42zM655 220q0 106 78 180q79 74 185 73q106 1 173 -67t67 -174t-78 -180q-78 -72 -186 -72t-174 68q-66 66 -65 172zM412 795
q68 0 116 46t50 112q0 65 -42 109t-110 44t-117 -47t-49 -113t42 -109q42 -42 110 -42zM408 702q-106 0 -174 68q-66 68 -66 174t77 180q77 72 185 72t174 -67t66 -173t-78 -180t-184 -74z" />
    <glyph glyph-name="ampersand" unicode="&#x26;" 
d="M299 -27q-109 0 -187 75t-77 202q0 127 98 221t293 182l-10 17q-84 124 -84 234t93 201t220 91t191 -66t63 -175q0 -109 -89 -187t-239 -145l199 -287l352 297l56 -72l-357 -297l117 -170h215l-20 -94h-320l14 70l-88 127l-37 -31q-118 -100 -206 -146t-197 -47zM319 72
q137 0 332 164l39 32l-213 312q-176 -78 -256 -154t-80 -167t50 -139t128 -48zM520 696q274 108 274 250q1 158 -154 158q-83 0 -144 -62q-127 -128 6 -319z" />
    <glyph glyph-name="quotesingle" unicode="'" 
d="M799 1284q80 0 80 -94q0 -63 -43 -172l-136 -320h-43l17 338q6 128 33 188t92 60z" />
    <glyph glyph-name="parenleft" unicode="(" 
d="M457 358q0 -360 323 -585l-71 -76q-162 111 -259 277q-98 166 -98 358q-1 361 219 625q197 239 490 395l39 -88q-281 -152 -462 -388t-181 -518z" />
    <glyph glyph-name="parenright" unicode=")" 
d="M840 690q0 360 -324 586l72 76q162 -111 259 -278q97 -168 97 -358q0 -362 -219 -625q-196 -238 -489 -394l-39 88q281 152 462 387t181 518z" />
    <glyph glyph-name="asterisk" unicode="*" 
d="M653 934l-252 225l58 60l248 -222l67 324l80 -18l-68 -322l318 104l26 -77l-317 -107l250 -221l-57 -62l-248 222l-68 -324l-80 19l68 321l-318 -102l-26 77z" />
    <glyph glyph-name="plus" unicode="+" 
d="M700 549l-88 -416h-94l88 416h-416l21 94h416l88 416h94l-88 -416h416l-21 -94h-416z" />
    <glyph glyph-name="comma" unicode="," 
d="M403 121q0 59 41 99q42 40 100 40t99 -41t41 -99t-43 -110l-313 -366l-62 41l236 311q-99 29 -99 125z" />
    <glyph glyph-name="hyphen" unicode="-" 
d="M393 502l25 119h500l-25 -119h-500z" />
    <glyph glyph-name="period" unicode="." 
d="M406 119q0 57 40 99q42 42 100 42t99 -41t41 -100t-41 -101t-99 -41q-58 0 -100 42q-40 43 -40 100z" />
    <glyph glyph-name="slash" unicode="/" 
d="M4 -223l1198 1526l84 -52l-1200 -1525z" />
    <glyph glyph-name="zero" unicode="0" 
d="M270 457q0 -175 76 -279t222 -104t258 94t169 238t57 313q0 168 -75 271q-76 103 -232 104q-207 0 -341 -195t-134 -442zM754 1196q201 0 305 -133t104 -337t-76 -372q-76 -170 -215 -276q-138 -106 -322 -106t-287 132q-103 133 -103 353q0 291 172 515t422 224z" />
    <glyph glyph-name="one" unicode="1" 
d="M293 901l444 266h140l-220 -1028l35 -45h369l-21 -94h-952l21 94h387l55 45l197 924l-414 -248z" />
    <glyph glyph-name="two" unicode="2" 
d="M776 1196q150 0 231 -74t81 -200t-105 -239q-104 -112 -293 -245l-483 -344h616l58 45l43 205h98l-74 -344h-887l25 119l545 391q180 129 262 217q82 89 82 183q0 186 -214 186t-429 -244l-74 68q240 276 518 276z" />
    <glyph glyph-name="three" unicode="3" 
d="M1012 422q0 -129 -82 -245q-82 -115 -221 -191q-261 -142 -627 -195l-2 98q343 55 571 177q119 63 186 156q67 92 67 190q-1 204 -214 204q-137 0 -256 -63l-49 76l600 438h-651l20 100h774l-24 -125l-502 -362q51 23 121 22q139 0 214 -76t75 -204z" />
    <glyph glyph-name="four" unicode="4" 
d="M1149 287h-266l-56 -45l-49 -242h-106l51 242l-35 45h-598l27 119q180 160 393 414t344 468l104 -33q-143 -227 -347 -467t-380 -407h523l63 301h105l-64 -301h311z" />
    <glyph glyph-name="five" unicode="5" 
d="M944 408q0 90 -54 144t-161 54q-170 0 -315 -125h-135l176 686h710l-20 -100h-619l-129 -492q152 127 346 127q150 0 229 -78t78 -209q-1 -130 -83 -243q-82 -112 -218 -188q-263 -146 -620 -195v98q229 37 405 99t292 171q118 110 118 251z" />
    <glyph glyph-name="six" unicode="6" 
d="M289 336q0 -117 79 -192q79 -74 216 -74t249 103t111 263q0 119 -78 192q-78 72 -220 72t-249 -102q-108 -102 -108 -262zM657 799q181 -1 287 -101t107 -258q1 -199 -141 -334t-326 -135t-291 110q-106 110 -109 279q0 308 260 566t699 362l12 -98q-600 -154 -809 -553
q130 162 311 162z" />
    <glyph glyph-name="seven" unicode="7" 
d="M467 1069l-57 -45l-45 -217h-97l78 360h950l-24 -112l-885 -1270l-90 47l858 1237h-688z" />
    <glyph glyph-name="eight" unicode="8" 
d="M1010 963q0 99 -80 155t-209 56t-217 -77t-88 -206q0 -97 80 -153t210 -56t217 76t87 205zM589 72q143 0 241 76t100 195q0 121 -92 179t-234 58t-240 -76t-98 -196t90 -178t233 -58zM1040 354q0 -166 -134 -274t-318 -107q-184 0 -309 84q-125 83 -125 225t95 240
t232 115l2 10q-78 27 -128 89t-50 153q2 167 126 275t298 108q173 0 279 -86t107 -217t-81 -225t-209 -117v-13q100 -25 158 -94q57 -70 57 -166z" />
    <glyph glyph-name="nine" unicode="9" 
d="M1044 831q0 117 -79 192t-217 75t-248 -104t-111 -263q0 -119 78 -191q79 -72 219 -73q140 0 249 102t109 262zM676 369q-182 0 -289 100q-106 100 -106 260q0 199 141 333q142 134 326 134t292 -110t107 -296q0 -186 -121 -390t-350 -366t-518 -231l-13 99
q309 78 524 253q214 175 316 375q-127 -161 -309 -161z" />
    <glyph glyph-name="colon" unicode=":" 
d="M537 709q0 57 41 99t99 42t99 -41t41 -100t-41 -101t-99 -41t-99 43t-41 99zM406 119q0 57 40 99q42 42 100 42t99 -41t41 -100t-41 -101t-99 -41q-58 0 -100 42q-40 43 -40 100z" />
    <glyph glyph-name="semicolon" unicode=";" 
d="M537 709q0 57 41 99t99 42t99 -41t41 -100t-41 -101t-99 -41t-99 43t-41 99zM403 121q0 59 41 99q42 40 100 40t99 -41t41 -99t-43 -110l-313 -366l-62 41l236 311q-99 29 -99 125z" />
    <glyph glyph-name="less" unicode="&#x3c;" 
d="M248 496l24 106l854 369l-24 -113l-740 -315l607 -314l-21 -102z" />
    <glyph glyph-name="equal" unicode="=" 
d="M238 659l18 95h899l-20 -95h-897zM172 358l18 93h902l-21 -93h-899z" />
    <glyph glyph-name="greater" unicode="&#x3e;" 
d="M1059 602l-25 -106l-856 -369l25 113l741 315l-608 313l22 103z" />
    <glyph glyph-name="question" unicode="?" 
d="M537 -23q-53 0 -92 38q-37 39 -37 93t37 92t91 38t92 -38t38 -92t-38 -92t-91 -39zM1028 897q0 99 -77 153t-201 54t-220 -48t-116 -110q100 -25 100 -94q0 -39 -30 -67q-30 -27 -76 -27t-81 36q-34 36 -34 93q0 135 137 222q136 87 314 87t286 -82t107 -217
q0 -283 -467 -381l-31 -141h-115l43 207q233 54 347 120t114 195z" />
    <glyph glyph-name="at" unicode="@" 
d="M778 717q-100 0 -166 -53q-66 -52 -66 -132t42 -120q41 -40 114 -41q140 0 236 125l20 96q-39 125 -180 125zM684 283q-110 1 -176 67t-66 164q0 131 98 211t236 80q70 0 128 -29t81 -71l6 28q53 255 -46 366q-67 75 -195 75q-174 0 -289 -122t-164 -347l-61 -289
q-16 -88 -17 -152q0 -147 82 -230q83 -83 235 -83t328 117l33 -80q-177 -133 -369 -133q-192 1 -301 109t-108 294q0 74 18 160l62 287q57 268 199 415t356 148q172 0 263 -98t89 -273q0 -78 -19 -170l-61 -274q-2 -10 -2 -27q0 -55 55 -55q31 0 90 49l27 -72
q-84 -70 -149 -69q-105 -1 -125 108q-94 -104 -238 -104z" />
    <glyph glyph-name="A" unicode="A" 
d="M399 94l-18 -94h-455l21 94h127l647 1073h127l188 -1073h127l-20 -94h-453l21 94h168l45 37l-47 275h-508l-164 -275l28 -37h166zM860 500l-98 563l-336 -563h434z" />
    <glyph glyph-name="B" unicode="B" 
d="M602 0h-612l20 94h178l58 45l188 889l-35 45h-178l19 94h589q365 0 365 -254q0 -117 -76 -197t-196 -108q96 -14 154 -78t61 -155q-1 -175 -141 -275t-394 -100zM715 653q182 0 277 66t95 182q0 86 -66 129q-67 43 -216 43h-260l-88 -420h258zM618 94q201 0 308 73
q106 73 106 202q0 193 -313 192h-285l-98 -467h282z" />
    <glyph glyph-name="C" unicode="C" 
d="M594 -29q-207 -1 -329 137t-122 353q-1 303 183 519t452 216q111 0 192 -46t120 -122l22 10l27 129h98l-80 -387h-80q-31 313 -301 314q-221 0 -372 -188t-150 -445q0 -170 90 -278t250 -107q225 0 418 182l55 -78q-225 -209 -473 -209z" />
    <glyph glyph-name="D" unicode="D" 
d="M442 0h-456l20 94h131l56 47l188 887l-33 45h-133l21 94h452q258 0 387 -131t129 -352q0 -288 -211 -486t-551 -198zM463 94q283 0 456 171t173 419q0 180 -102 284t-318 105h-180l-207 -979h178z" />
    <glyph glyph-name="E" unicode="E" 
d="M336 94h563l55 45l50 230h96l-80 -369h-1030l20 94h178l58 45l186 889l-33 45h-178l19 94h1013l-77 -360h-97l47 221l-34 45h-547l-90 -426h284l54 45l28 133h86l-94 -446h-86l27 133l-35 45h-283z" />
    <glyph glyph-name="F" unicode="F" 
d="M659 0h-649l21 94h190l55 45l189 889l-35 45h-190l20 94h1034l-77 -360h-97l47 221l-34 45h-555l-91 -426h299l54 45l26 127h86l-90 -434h-88l27 127l-35 45h-299l-88 -418l35 -45h266z" />
    <glyph glyph-name="G" unicode="G" 
d="M1059 795q-27 299 -317 299q-142 0 -265 -94t-184 -238q-61 -143 -61 -309t84 -274q85 -108 243 -107q105 0 191 49t184 143l35 160l-31 41h-166l21 94h430l-21 -94h-84l-51 -43l-90 -422h-100l26 117l-20 8q-159 -154 -347 -154q-188 1 -302 139t-113 349q0 295 179 516
t456 221q110 0 194 -46t119 -120l25 10l26 127h97l-80 -372h-78z" />
    <glyph glyph-name="H" unicode="H" 
d="M1032 1028l-35 45h-123l21 94h438l-20 -94h-123l-55 -45l-189 -889l35 -45h123l-21 -94h-438l21 94h122l56 45l90 422h-557l-90 -422l35 -45h122l-20 -94h-438l20 94h123l55 45l189 889l-35 45h-123l21 94h438l-21 -94h-123l-55 -45l-78 -373h557z" />
    <glyph glyph-name="I" unicode="I" 
d="M700 1028l-34 45h-316l19 94h831l-20 -94h-318l-55 -45l-189 -889l35 -45h318l-21 -94h-831l20 94h318l55 45z" />
    <glyph glyph-name="J" unicode="J" 
d="M442 -29q-154 1 -251 97t-97 229q0 76 36 120t87 44t83 -30t32 -74q0 -43 -31 -71t-88 -26q0 -78 65 -135t183 -57q251 0 336 385l123 575l-37 45h-346l20 94h709l-19 -94h-168l-53 -45l-125 -586q-104 -471 -459 -471z" />
    <glyph glyph-name="K" unicode="K" 
d="M444 94l-20 -94h-438l20 94h123l55 45l189 889l-35 45h-123l21 94h438l-21 -94h-123l-55 -45l-115 -536l654 544l-29 37h-113l21 94h426l-21 -94h-114l-494 -411l297 -568h148l-21 -94h-442l20 94h119l45 37l-244 467l-276 -231l-49 -228l35 -45h122z" />
    <glyph glyph-name="L" unicode="L" 
d="M254 1167h545l-21 -94h-182l-55 -45l-199 -934h563l56 45l59 283h96l-90 -422h-1022l21 94h170l57 45l186 889l-32 45h-173z" />
    <glyph glyph-name="M" unicode="M" 
d="M672 371h-115l-78 692h-55l-197 -924l35 -45h123l-20 -94h-420l20 94h109l55 45l188 889l-34 45h-107l19 94h366l76 -688l364 688h373l-20 -94h-107l-55 -45l-188 -889l32 -45h109l-21 -94h-419l20 94h123l55 45l197 924h-56z" />
    <glyph glyph-name="N" unicode="N" 
d="M930 0h-111l-342 1047l-194 -908l34 -45h123l-20 -94h-434l20 94h123l55 45l189 889l-35 45h-123l21 94h311l321 -999l183 860l-35 45h-123l20 94h435l-21 -94h-123l-55 -45z" />
    <glyph glyph-name="O" unicode="O" 
d="M580 74q217 0 359 185t142 431q0 184 -85 294t-251 110q-219 0 -361 -184t-142 -433q0 -183 86 -293t252 -110zM745 1196q219 0 333 -139t114 -367q0 -287 -179 -503t-433 -216q-221 -1 -335 139t-114 367q0 287 180 503t434 216z" />
    <glyph glyph-name="P" unicode="P" 
d="M731 537h-289l-84 -398l35 -45h285l-21 -94h-667l20 94h191l57 45l188 889l-34 45h-191l19 94h626q197 -1 294 -71t97 -201q0 -172 -138 -265t-388 -93zM748 631q190 1 296 65t107 189q0 188 -309 188h-285l-94 -442h285z" />
    <glyph glyph-name="Q" unicode="Q" 
d="M242 477q0 -184 86 -294t252 -109q106 0 200 49l-108 190l88 52l104 -185q100 88 159 223q58 135 58 303t-85 278t-251 110q-219 0 -361 -184t-142 -433zM580 -29q-221 -1 -335 139t-114 367q0 287 180 503t434 216q219 0 333 -139t114 -367q0 -178 -75 -338t-202 -260
l105 -184l-86 -51l-103 180q-125 -66 -251 -66z" />
    <glyph glyph-name="R" unicode="R" 
d="M776 1167q197 -1 296 -71t97 -201q-1 -154 -123 -249t-344 -107l236 -443h203l-21 -96h-323l20 94l-229 443h-219l-84 -398l34 -45h140l-21 -94h-452l20 94h121l55 45l189 889l-35 45h-121l21 94h540zM657 631q199 -1 300 67t102 193q0 182 -297 182h-279l-96 -442h270z
" />
    <glyph glyph-name="S" unicode="S" 
d="M626 68q144 0 238 74t94 196q0 139 -159 182l-267 68q-124 35 -190 94t-66 162q0 156 119 254t293 98q123 0 213 -49t131 -125l29 12l29 133h98l-82 -376h-84q-43 309 -334 309q-131 0 -219 -67t-88 -177q0 -70 48 -108t140 -62l269 -70q113 -31 171 -93t56 -173
q0 -164 -125 -272t-311 -107q-133 1 -241 57t-150 144l-29 -14l-35 -158h-98l88 408h82q20 -168 128 -254t252 -86z" />
    <glyph glyph-name="T" unicode="T" 
d="M262 1167h1045l-90 -422h-97l60 283l-35 45h-328l-199 -934l35 -45h240l-21 -94h-675l20 94h240l55 45l199 934h-328l-55 -45l-60 -283h-96z" />
    <glyph glyph-name="U" unicode="U" 
d="M557 -29q-184 0 -281 116q-96 116 -57 292l137 649l-37 45h-122l20 94h438l-20 -94h-123l-53 -45l-137 -643q-28 -139 36 -227t204 -88t234 83q93 83 124 226l137 649l-37 45h-123l21 94h438l-21 -94h-123l-53 -45l-139 -655q-41 -184 -160 -293t-303 -109z" />
    <glyph glyph-name="V" unicode="V" 
d="M598 0h-127l-188 1073h-127l20 94h451l-21 -94h-168l-45 -37l162 -925l553 925l-29 37h-168l21 94h461l-21 -94h-127z" />
    <glyph glyph-name="W" unicode="W" 
d="M780 881l-4 -781h47l328 936l-21 37h-194l20 94h439l-21 -94h-104l-381 -1073h-201l4 782l-350 -782h-205l123 1073h-106l20 94h440l-20 -94h-195l-37 -37l-114 -936h47l350 781h135z" />
    <glyph glyph-name="X" unicode="X" 
d="M414 94l-21 -94h-467l21 94h137l522 518l-272 461h-125l20 94h451l-21 -94h-153l-37 -29l209 -364l362 364l-22 29h-154l21 94h456l-20 -94h-125l-469 -467l299 -512h137l-20 -94h-457l21 94h149l35 29l-238 414l-411 -414l22 -29h150z" />
    <glyph glyph-name="Y" unicode="Y" 
d="M682 438l-64 -299l35 -45h240l-21 -94h-675l20 94h240l55 45l63 299l-292 635h-127l20 94h469l-18 -94h-168l-45 -37l231 -510l442 510l-26 37h-168l20 94h480l-21 -94h-127z" />
    <glyph glyph-name="Z" unicode="Z" 
d="M199 94h700l57 45l50 238h98l-80 -377h-981l25 113l1032 960h-651l-56 -45l-49 -229h-98l80 368h923l-26 -123z" />
    <glyph glyph-name="bracketleft" unicode="[" 
d="M659 1237l-303 -1427h447l-21 -95h-542l344 1616h542l-20 -94h-447z" />
    <glyph glyph-name="backslash" unicode="\" 
d="M999 -236l-94 -34l-614 1530l94 34z" />
    <glyph glyph-name="bracketright" unicode="]" 
d="M637 -190l303 1427h-446l20 94h543l-344 -1616h-543l20 95h447z" />
    <glyph glyph-name="asciicircum" unicode="^" 
d="M745 1196h93l239 -496h-108l-189 396l-358 -396h-129z" />
    <glyph glyph-name="underscore" unicode="_" 
d="M150 -256l22 100h664l-23 -100h-663z" />
    <glyph glyph-name="grave" unicode="`" 
d="M670 1349q0 41 24 65t60 24q70 0 90 -80l78 -287l-33 -24l-184 223q-35 39 -35 79z" />
    <glyph glyph-name="a" unicode="a" 
d="M225 358q0 -126 76 -208t203 -82q219 0 383 249l47 234q-27 115 -110 183t-210 67q-166 -1 -278 -133t-111 -310zM494 -29q-166 0 -271 111q-104 111 -104 276q0 217 148 378t347 161q126 0 222 -63t125 -156l63 219h84l-158 -741q-8 -43 5 -67q13 -23 42 -23t52 28
t44 68t25 47l82 -33q-53 -98 -85 -137q-55 -68 -133 -68q-77 -1 -112 55t-10 154q-156 -209 -366 -209z" />
    <glyph glyph-name="b" unicode="b" 
d="M768 897q166 0 267 -110t102 -277q1 -217 -147 -378t-349 -161q-125 -1 -221 63t-125 156l-41 -190h-96l239 1128l-24 33h-140l21 94h266l-121 -567q158 209 369 209zM754 801q-221 0 -383 -250l-49 -234q28 -115 110 -183t209 -66q166 0 279 132t112 310q0 127 -76 209
t-202 82z" />
    <glyph glyph-name="c" unicode="c" 
d="M696 897q182 0 288 -86t106 -213q0 -49 -32 -84t-76 -35t-75 28q-31 27 -31 65t25 64t57 26q-16 57 -82 100q-67 43 -180 43q-174 0 -297 -118t-123 -294q0 -139 94 -232t248 -93q195 0 353 151l63 -74q-184 -174 -402 -174t-340 120q-124 121 -124 319t154 342t374 145z
" />
    <glyph glyph-name="d" unicode="d" 
d="M225 358q0 -126 76 -208t203 -82q219 0 383 249l47 234q-27 115 -110 183t-210 67q-166 -1 -278 -133t-111 -310zM494 -29q-166 0 -271 111q-104 111 -104 276q0 217 148 378t347 161q126 0 222 -63t125 -156l96 450l-25 33h-237l20 94h369l-234 -1099q-18 -90 45 -90
q31 0 54 28t44 68t25 47l82 -33q-53 -98 -85 -137q-55 -68 -133 -68q-77 -1 -112 55t-10 154q-156 -209 -366 -209z" />
    <glyph glyph-name="e" unicode="e" 
d="M614 -29q-196 0 -322 120t-126 300q0 213 158 359t389 147q162 0 262 -73t100 -185q0 -147 -185 -216t-620 -67q12 -124 108 -206t236 -82q205 0 355 137l61 -70q-176 -164 -416 -164zM969 639q0 74 -74 119t-182 45q-173 1 -297 -101t-144 -258q367 0 532 45t165 150z
" />
    <glyph glyph-name="f" unicode="f" 
d="M1029 1284q150 0 229 -66t79 -171q0 -55 -30 -91q-31 -34 -77 -34t-75 24t-29 64t27 64t68 24q-39 100 -169 100t-220 -91q-88 -91 -121 -276h350l-21 -94h-305l-55 -45l-121 -651q-43 -229 -133 -342t-242 -113q-120 0 -190 68t-70 172q0 55 31 90t78 35t75 -25
q28 -26 28 -64t-26 -62q-24 -24 -67 -23q19 -105 133 -105t182 90t103 279l121 651l-35 45h-221l20 94h266q37 221 152 337t265 116z" />
    <glyph glyph-name="g" unicode="g" 
d="M506 4q-166 0 -270 109t-105 274q0 217 141 363t346 147q126 0 222 -63t125 -154l39 188h260l-21 -94h-127l-41 -33l-149 -710q-45 -209 -178 -327q-134 -118 -312 -118t-282 74t-105 182q-2 53 27 87t72 34q44 1 68 -23t24 -59t-22 -57t-52 -21q14 -59 83 -95t169 -36
q156 0 264 98t143 265l37 176q-156 -207 -356 -207zM618 801q-166 0 -276 -119t-109 -293q0 -127 77 -208t201 -81t214 62t170 182l41 215q-27 111 -110 177t-208 65z" />
    <glyph glyph-name="h" unicode="h" 
d="M780 897q134 0 194 -82t30 -231l-91 -428q-9 -43 5 -67q14 -23 42 -23t52 28q23 28 44 68t25 47l82 -33q-53 -98 -85 -137q-54 -66 -133 -67q-79 -2 -114 52t-18 136l86 397q53 244 -139 244q-184 0 -379 -262l-115 -539h-98l238 1116l-35 45h-140l19 94h285l-125 -589
q174 231 370 231z" />
    <glyph glyph-name="i" unicode="i" 
d="M795 1211q0 -49 -34 -83t-84 -34t-84 34t-34 83q0 50 34 84t84 34t84 -34t34 -84zM719 70q85 0 153 70t138 233l82 -41q-82 -184 -171 -272t-213 -89q-124 1 -193 95t-40 231l92 432l-37 45h-352l21 94h495l-121 -575q-20 -99 21 -161t125 -62z" />
    <glyph glyph-name="j" unicode="j" 
d="M138 35q48 0 78 -28q30 -27 30 -67t-29 -67t-72 -29q9 -70 67 -116t157 -47q135 0 230 93t136 285l144 670l-37 45h-453l21 94h596l-177 -819q-47 -229 -167 -343t-284 -114q-163 0 -258 92t-95 216q-2 59 31 97q34 38 82 38zM1114 1211q0 -49 -34 -83t-84 -34t-84 34
t-34 83q0 50 34 84t84 34t84 -34t34 -84z" />
    <glyph glyph-name="k" unicode="k" 
d="M913 -29q-75 0 -121 46t-59 128l-16 105q-27 184 -164 205l-262 -170l-62 -285h-98l238 1116l-37 45h-154l21 94h297l-185 -870l549 363l2 30h-151l20 90h457l-21 -90h-106l-426 -272q143 -39 172 -230l16 -112q12 -104 97 -105q42 0 74 33t75 113l74 -41
q-101 -193 -230 -193z" />
    <glyph glyph-name="l" unicode="l" 
d="M690 70q84 0 153 70t138 233l84 -41q-82 -184 -171 -272t-213 -89q-124 1 -194 95t-41 231l177 819l-37 45h-367l19 94h512l-205 -962q-20 -100 20 -162q41 -61 125 -61z" />
    <glyph glyph-name="m" unicode="m" 
d="M918 799q-125 0 -232 -183l-131 -616h-96l139 647q18 59 6 105t-72 47q-125 0 -231 -183l-131 -616h-96l157 741l-24 33h-105l21 94h233l-30 -141q39 76 103 123q65 47 132 47q152 0 146 -168q39 74 106 121q68 47 137 47q182 0 133 -229l-108 -516q-18 -88 39 -89
q25 0 53 39t61 101l80 -31q-35 -68 -58 -103q-64 -98 -164 -98q-60 1 -94 53q-32 52 -15 132l106 491q18 59 6 105t-71 47z" />
    <glyph glyph-name="n" unicode="n" 
d="M784 897q134 0 194 -82t28 -231l-91 -428q-9 -43 5 -67q14 -23 44 -23t52 28t44 68q21 40 25 47l82 -33q-39 -72 -61 -106t-64 -66q-44 -33 -108 -33q-64 1 -98 55t-19 134l86 397q51 244 -139 244t-379 -262l-115 -539h-100l156 729l-35 45h-139l20 94h283l-43 -202
q178 231 372 231z" />
    <glyph glyph-name="o" unicode="o" 
d="M657 897q205 0 325 -120q120 -121 120 -317t-148 -342t-353 -146q-204 0 -325 119q-120 121 -120 317t148 343q149 146 353 146zM602 66q158 0 275 118t117 276q0 156 -91 250t-249 93q-158 0 -274 -118q-116 -117 -116 -275t90 -251t248 -93z" />
    <glyph glyph-name="p" unicode="p" 
d="M768 897q166 0 267 -110t102 -277q1 -217 -147 -378t-349 -161q-125 -1 -221 63t-125 156l-96 -448l24 -33h238l-21 -94h-526l20 94h127l41 33l213 999l-24 33h-127l20 94h254l-39 -180q160 209 369 209zM754 801q-221 0 -383 -250l-49 -234q28 -115 110 -183t209 -66
q166 0 279 132t112 310q0 127 -76 209t-202 82z" />
    <glyph glyph-name="q" unicode="q" 
d="M498 -29q-166 0 -271 111q-104 111 -104 276q0 217 147 378t346 161q127 0 224 -63q96 -64 125 -156l41 190h258l-21 -94h-127l-41 -33l-213 -999l25 -33h127l-21 -94h-528l20 94h238l41 33l94 438q-158 -209 -360 -209zM227 358q0 -126 76 -208t203 -82q221 0 383 249
l49 234q-27 115 -111 183t-211 67q-164 -1 -276 -133t-113 -310z" />
    <glyph glyph-name="r" unicode="r" 
d="M924 629q0 41 26 65t55 25q30 0 46 -12q6 14 0 26q-6 72 -106 72t-214 -95t-258 -239l-100 -471h-99l156 729l-35 45h-239l20 94h381l-59 -278q164 168 227 217q119 90 225 90t156 -55q50 -56 49 -134q0 -78 -37 -122t-87 -45q-50 0 -79 23q-28 24 -28 65z" />
    <glyph glyph-name="s" unicode="s" 
d="M258 646q0 100 111 176t273 75q162 0 274 -68q110 -68 110 -172q0 -51 -29 -81t-69 -29t-64 23t-24 57t23 55q24 20 63 18q-29 51 -109 81q-79 30 -187 30t-189 -48t-81 -120q0 -51 38 -78t120 -45l283 -71q213 -51 213 -203q0 -125 -123 -200t-299 -75t-308 78t-132 189
q0 53 28 83q29 29 68 29q40 0 64 -22t24 -57q0 -33 -22 -55t-56 -19q37 -57 133 -99t216 -41q120 -1 211 51t91 134q1 88 -159 125l-269 67q-117 27 -170 70q-53 42 -53 142z" />
    <glyph glyph-name="t" unicode="t" 
d="M659 70q213 0 353 254l75 -52q-69 -135 -183 -218t-268 -83t-244 108q-91 108 -44 320l70 330l-37 45h-211l20 94h256l68 316h102l-67 -316h538l-20 -94h-496l-53 -45l-67 -315q-37 -180 22 -262t186 -82z" />
    <glyph glyph-name="u" unicode="u" 
d="M948 66q32 0 54 28t44 68t25 47l84 -33q-55 -98 -87 -137q-54 -66 -134 -68q-170 0 -119 222q-172 -221 -364 -222q-139 0 -200 85q-60 85 -30 235l94 438l-34 45h-140l21 94h280l-118 -557q-51 -244 139 -243q186 0 377 254l116 546h99l-150 -702q-20 -100 43 -100z" />
    <glyph glyph-name="v" unicode="v" 
d="M469 68q205 0 372 180t167 381q0 84 -34 126t-83 46q23 -23 23 -57t-24 -55t-63 -21t-65 28t-27 79q0 52 43 87t105 35q94 0 157 -71t64 -197q0 -231 -197 -445t-446 -213q-113 0 -179 79t-38 216l100 463l-35 45h-180l21 94h323l-129 -604q-20 -96 16 -146t109 -50z" />
    <glyph glyph-name="w" unicode="w" 
d="M960 897q74 1 130 -69t57 -196q0 -126 -47 -278q-48 -152 -146 -268t-217 -115q-71 0 -117 40t-61 102q-78 -141 -221 -142q-96 0 -150 73q-53 73 -28 185l106 500l-35 45h-108l20 94h248l-133 -626q-18 -84 12 -132t86 -49q150 0 201 246l72 332h96l-80 -373
q-19 -84 7 -144t104 -60t150 102q72 104 109 236q36 132 36 243q0 158 -97 164q18 -18 19 -49q0 -74 -82 -74q-35 0 -61 27t-26 75t42 79q40 32 114 32z" />
    <glyph glyph-name="x" unicode="x" 
d="M160 369q42 0 66 -25q24 -26 24 -62t-26 -60t-62 -23q16 -139 125 -140q121 0 215 164t94 363q0 98 -38 158t-105 61q-117 0 -232 -152l-53 68q135 176 285 176q84 0 142 -57t81 -152q127 209 293 209q107 0 167 -66t60 -182q0 -69 -29 -109t-71 -40t-66 24t-24 62
q0 36 26 60t62 26q-12 137 -125 137q-121 0 -215 -164t-95 -362q0 -99 39 -159t107 -61q115 0 231 154l54 -70q-137 -176 -287 -176q-82 1 -141 59t-82 152q-122 -210 -306 -210q-94 0 -154 66q-60 67 -60 160t29 132q30 39 71 39z" />
    <glyph glyph-name="y" unicode="y" 
d="M504 6q-135 0 -200 86t-34 234l86 403l-34 45h-140l21 94h280l-108 -522q-51 -244 141 -244q197 0 383 256l109 510h100l-178 -837q-43 -203 -165 -324t-294 -121t-266 73t-94 181q0 55 28 88q29 33 72 33q43 1 68 -23t25 -59t-24 -57t-55 -23q15 -59 77 -93t157 -34
q143 0 241 100t134 263l40 194q-178 -223 -370 -223z" />
    <glyph glyph-name="z" unicode="z" 
d="M1085 219q0 -106 -85 -177q-84 -71 -198 -71t-205 46q-91 47 -175 99t-154 60q-90 -84 -137 -188l-68 47q55 139 187 239t338 200q207 100 313 190q-57 8 -182 76t-206 69q-81 0 -135 -33t-65 -86q39 2 65 -20t26 -58q0 -38 -28 -60q-26 -22 -67 -22t-71 32t-29 85
q0 109 84 179t201 71q117 0 261 -76t220 -88q57 61 94 148l70 -47q-57 -142 -189 -242t-312 -188q-182 -88 -286 -158q57 -12 130 -60t149 -88q77 -39 153 -39t131 33t66 86q-39 -2 -65 20t-26 58t26 58q26 24 67 24t71 -32t31 -87z" />
    <glyph glyph-name="braceleft" unicode="{" 
d="M317 569q88 0 151 38q62 38 75 112q2 14 6 148t10 180q17 133 105 211t223 79q135 0 223 -47l-47 -92q-84 43 -170 43q-205 0 -231 -199q-6 -39 -10 -172t-5 -153q-20 -147 -203 -197q51 -16 88 -55t37 -96q1 -57 -71 -223t-72 -224q0 -57 39 -91t125 -34t184 45l6 -94
q-110 -47 -220 -47t-176 56q-66 55 -65 139q0 84 73 254t73 212q0 106 -168 107h-113l21 100h112z" />
    <glyph glyph-name="bar" unicode="|" 
d="M868 1298l-336 -1574h-106l334 1574h108z" />
    <glyph glyph-name="braceright" unicode="}" 
d="M977 469q-89 0 -151 -38t-74 -112q-2 -14 -6 -148t-11 -179q-16 -133 -104 -212q-87 -79 -223 -79t-224 47l47 92q84 -43 170 -43q205 0 232 199q6 39 9 172t5 154q20 147 203 196q-51 16 -88 55t-37 97t72 223q71 166 71 223t-39 91t-125 34t-184 -45l-6 94
q110 47 220 47t176 -56q66 -57 65 -141q0 -84 -73 -254t-73 -210q0 -106 168 -107h113l-20 -100h-113z" />
    <glyph glyph-name="asciitilde" unicode="~" 
d="M500 604q-47 0 -87 -40t-55 -103h-102q24 111 90 177t156 67q57 0 114 -38q56 -38 108 -76t97 -38q45 -1 84 39t53 106h103q-23 -113 -89 -179q-137 -137 -327 9q-98 76 -145 76z" />
    <glyph glyph-name="uni00A0" unicode="&#xa0;" 
 />
    <glyph glyph-name="exclamdown" unicode="&#xa1;" 
d="M720 991q54 0 92 -38t38 -92t-38 -92t-92 -38t-92 38t-38 92t38 92t92 38zM420 -106l215 679h57l-82 -692q-4 -47 -35 -78t-77 -31t-69 38q-21 37 -9 84z" />
    <glyph glyph-name="cent" unicode="&#xa2;" 
d="M633 -29q-31 0 -45 2l-62 -288h-92l64 303q-147 37 -232 146q-84 110 -84 259q0 211 148 353t360 151l64 299h92l-64 -303q150 -19 236 -105t86 -196q0 -49 -30 -81t-73 -32t-71 27q-28 28 -29 64q0 36 24 61t56 22q-11 51 -69 95t-150 55l-154 -735h25q195 0 352 151
l64 -74q-184 -174 -416 -174zM518 84l152 719q-160 -14 -270 -129t-109 -281q-1 -111 61 -195t166 -114z" />
    <glyph glyph-name="sterling" unicode="&#xa3;" 
d="M827 -80q-63 0 -137 38t-129 83q-148 121 -244 121q-69 0 -117 -45t-63 -117h-114q23 106 90 175q68 69 159 85l56 268h-176l18 95h178l19 88q49 229 185 357t329 128q145 0 236 -76t91 -186q0 -76 -38 -119t-85 -43t-71 22t-25 58q0 36 28 64t77 32q-14 68 -70 109
t-147 41q-145 0 -254 -100t-150 -287l-18 -88h346l-21 -95h-346l-57 -270q80 -18 228 -127t222 -109t125 47q51 46 66 119h112q-26 -124 -108 -196t-195 -72z" />
    <glyph glyph-name="yen" unicode="&#xa5;" 
d="M893 94l-21 -94h-675l20 94h244l55 45l43 205h-416l19 80h416l2 14l-68 146h-315l16 82h260l-188 407h-127l20 94h469l-20 -94h-174l-43 -37l237 -510l449 510l-29 37h-174l20 94h482l-21 -94h-127l-364 -407h262l-17 -82h-319l-129 -146l-2 -14h416l-19 -80h-416
l-43 -205l35 -45h242z" />
    <glyph glyph-name="brokenbar" unicode="&#xa6;" 
d="M868 1298l-151 -718h-107l150 718h108zM573 416h107l-148 -692h-106z" />
    <glyph glyph-name="section" unicode="&#xa7;" 
d="M860 -84q0 -140 -108 -234t-276 -94q-167 0 -260 90t-93 213q0 66 36 112t82 46q45 -1 69 -25t24 -61t-30 -61t-71 -25q1 -69 61 -133t180 -64t202 66q82 64 82 164q0 32 -20 66t-33 46q-12 12 -62 56l-254 213q-88 74 -128 128t-40 132q0 152 158 272q-4 29 -4 43
q0 139 108 235q109 95 277 95t260 -91t92 -214q0 -66 -35 -111t-81 -45t-70 25q-24 26 -23 62q0 36 29 61t69 24q0 68 -60 131q-60 64 -180 64t-201 -64t-81 -164q1 -34 19 -66t34 -47t62 -54l254 -213q86 -74 126 -129t40 -132q0 -152 -158 -274q4 -29 4 -43zM915 219
q0 80 -114 178l-269 224q-88 78 -118 124q-92 -78 -95 -182q0 -51 30 -90t87 -86l266 -223q88 -74 121 -125q92 78 92 180z" />
    <glyph glyph-name="dieresis" unicode="&#xa8;" 
d="M583 1100q-48 0 -83 34t-35 80t35 81q35 34 83 34t82 -34q33 -34 33 -81q0 -46 -34 -80t-81 -34zM1009 1098q-48 0 -83 34t-35 82t35 81q35 34 83 34t82 -34q33 -34 33 -82q0 -47 -34 -81t-81 -34z" />
    <glyph glyph-name="copyright" unicode="&#xa9;" 
d="M709 893q111 0 157 -76l13 6l12 56h65l-41 -209l-59 -2q-4 76 -44 114t-105 37q-111 0 -183 -90t-69 -211q0 -82 44 -134t138 -52t188 88l45 -53q-116 -107 -240 -107t-191 71t-66 183q0 154 96 266t240 113zM620 80q216 0 378 162q163 162 164 377t-122 341
q-122 126 -338 124q-216 -1 -379 -163t-164 -377q-1 -216 122 -340t339 -124zM704 1151q244 0 386 -144t139 -386q-1 -242 -185 -424q-184 -181 -428 -183t-384 142t-140 386t184 426q184 183 428 183z" />
    <glyph glyph-name="ordfeminine" unicode="&#xaa;" 
d="M461 918q0 -104 50 -157q50 -54 136 -54q145 0 260 165l33 158q-44 166 -232 166q-98 0 -172 -87t-75 -191zM971 766q-11 -59 25 -59t85 98l70 -29q-27 -49 -44 -77t-51 -52t-81 -24q-47 -1 -74 35t-14 102q-111 -137 -241 -137q-130 1 -204 79t-73 199q0 155 105 267
t247 112q88 0 155 -43t85 -102l47 145h71zM549 -23q-59 0 -102 42q-41 41 -41 101t41 103t101 43t101 -43t41 -102t-41 -101t-100 -43z" />
    <glyph glyph-name="guillemotleft" unicode="&#xab;" 
d="M346 444l174 -288l-94 -56l-211 355l360 354l68 -78zM774 444l174 -288l-94 -56l-211 355l361 354l67 -78z" />
    <glyph glyph-name="registered" unicode="&#xae;" 
d="M739 887q213 0 209 -154q0 -78 -60 -128t-171 -58l119 -215h79l-12 -66h-166l15 64l-117 215h-100l-37 -187l20 -28h66l-13 -64h-252l13 64h59l33 28l94 437l-22 28h-58l15 64h286zM731 821h-137l-45 -209h129q195 0 194 121q0 88 -141 88zM620 80q216 0 378 162
q163 162 164 377t-122 341q-122 126 -338 124q-216 -1 -379 -163t-164 -377q-1 -216 122 -340t339 -124zM704 1151q244 0 386 -144t139 -386q-1 -242 -185 -424q-184 -181 -428 -183t-384 142t-140 386t184 426q184 183 428 183z" />
    <glyph glyph-name="macron" unicode="&#xaf;" 
d="M485 1200h615l-21 -98h-614z" />
    <glyph glyph-name="degree" unicode="&#xb0;" 
d="M547 992q0 -85 53 -139t139 -54t148 58q61 57 61 143t-52 140t-138 54t-149 -58q-62 -59 -62 -144zM763 1286q127 0 203 -80t76 -203q0 -124 -90 -210t-216 -86q-126 1 -204 79t-78 202t92 211q91 87 217 87z" />
    <glyph glyph-name="plusminus" unicode="&#xb1;" 
d="M109 88l20 94h893l-21 -94h-892zM721 649l-72 -338h-94l72 338h-400l23 94h395l72 336h94l-72 -336h402l-21 -94h-399z" />
    <glyph glyph-name="twosuperior" unicode="&#xb2;" 
d="M797 1274q102 0 160 -51t59 -136q0 -127 -174 -261q-39 -30 -103 -72l-315 -217h393l47 36l25 123h84l-49 -241h-623l23 106l364 254q86 59 124 90t72 78t34 96q0 106 -127 107q-149 0 -299 -164l-60 57q166 195 365 195z" />
    <glyph glyph-name="threesuperior" unicode="&#xb3;" 
d="M768 938q92 0 142 -51t50 -140t-56 -168t-152 -131q-191 -105 -433 -137v86q154 23 270 63q115 40 197 114t82 174q0 53 -34 87q-35 33 -112 33t-165 -47l-41 64l402 284h-431l17 84h534l-22 -108l-320 -219q33 12 72 12z" />
    <glyph glyph-name="acute" unicode="&#xb4;" 
d="M913 1436q29 0 49 -20t19 -50q0 -57 -63 -102l-281 -217l-31 30l205 291q43 68 102 68z" />
    <glyph glyph-name="paragraph" unicode="&#xb6;" 
d="M362 817q0 117 86 200q159 152 461 150h322l-21 -94h-168l-55 -45l-213 -1005q-47 -221 -136 -325q-88 -104 -232 -104t-229 90t-85 210q0 57 34 97t81 40t76 -27t29 -67q0 -41 -30 -67t-73 -26q2 -63 56 -111t126 -48q123 0 185 80t102 268l104 491q-180 0 -300 74
t-120 219z" />
    <glyph glyph-name="periodcentered" unicode="&#xb7;" 
d="M522 590q0 57 42 99t100 42t98 -41q41 -41 41 -100q0 -58 -41 -100t-98 -42t-100 42q-42 43 -42 100z" />
    <glyph glyph-name="cedilla" unicode="&#xb8;" 
d="M717 -267q0 -79 -76 -139t-176 -59q-100 0 -172 44t-92 124l73 45q33 -137 187 -137q72 0 118 33t46 92q0 90 -166 82l-60 47l95 143h79l-73 -114q98 0 158 -41t59 -120z" />
    <glyph glyph-name="onesuperior" unicode="&#xb9;" 
d="M453 1075l301 180h118l-145 -682l29 -34h241l-16 -82h-666l17 82h258l45 34l125 588l-273 -162z" />
    <glyph glyph-name="ordmasculine" unicode="&#xba;" 
d="M399 936q1 140 107 244t252 104t235 -85q88 -85 88 -224t-106 -243q-107 -104 -253 -105q-146 0 -235 85q-88 85 -88 224zM756 1200q-108 0 -184 -78t-76 -183t60 -167t168 -61q108 -1 184 77t77 184q0 106 -60 167q-61 61 -169 61zM690 121q0 -59 -41 -101t-100 -43
q-59 0 -102 42q-41 41 -41 101t41 103t101 43t101 -43t41 -102z" />
    <glyph glyph-name="guillemotright" unicode="&#xbb;" 
d="M922 465l-174 289l94 55l211 -354l-361 -355l-67 78zM494 465l-175 289l95 55l211 -354l-361 -355l-67 78z" />
    <glyph glyph-name="onequarter" unicode="&#xbc;" 
d="M1094 944l67 -90l-456 -326l-23 33zM72 109l456 325l23 -31l-412 -385zM244 1069l-29 68l213 127h107l-109 -512h184l-16 -74h-459l17 74h190l92 430zM1087 -70h-141l-28 -135h-80l28 135h-313l22 101q87 81 189 197t166 218l82 -26q-117 -182 -357 -416h228l28 139h80
l-28 -139h141z" />
    <glyph glyph-name="onehalf" unicode="&#xbd;" 
d="M244 1069l-29 68l213 127h107l-109 -512h184l-16 -74h-459l17 74h190l92 430zM922 395q78 0 120 -39t41 -89q0 -50 -16 -84q-16 -33 -55 -67t-63 -50t-77 -54l-217 -143h371l-16 -74h-463l20 94l260 183q63 43 89 62t52 51t26 62t-22 49t-61 19q-106 1 -217 -120l-55 55
q127 145 283 145zM72 109l456 325l23 -31l-412 -385zM1094 944l67 -90l-456 -326l-23 33z" />
    <glyph glyph-name="threequarters" unicode="&#xbe;" 
d="M1087 -70h-141l-28 -135h-80l28 135h-313l22 101q87 81 189 197t166 218l82 -26q-117 -182 -357 -416h228l28 139h80l-28 -139h141zM72 109l456 325l23 -31l-412 -385zM1094 944l67 -90l-456 -326l-23 33zM489 1024q59 0 95 -38t37 -97q0 -92 -75 -164
q-132 -127 -401 -162v76q168 27 280 87t112 157q0 35 -25 57t-76 23q-51 0 -119 -37l-36 57l286 195h-303l15 75h397l-23 -100l-204 -135q18 6 40 6z" />
    <glyph glyph-name="questiondown" unicode="&#xbf;" 
d="M741 985q53 0 91 -38t38 -92t-38 -92t-90 -38q-54 0 -92 38t-38 92t38 92t91 38zM250 66q0 -98 77 -152t201 -55q124 0 220 48t116 109q-100 25 -100 95q0 39 30 67t76 27q46 0 81 -36q34 -36 34 -93q0 -135 -137 -222q-136 -87 -314 -87q-178 -1 -286 81t-107 218
q0 283 467 380l31 142h115l-43 -207q-233 -53 -347 -120t-114 -195z" />
    <glyph glyph-name="Agrave" unicode="&#xc0;" 
d="M915 1352l-32 -25l-183 223q-38 37 -36 78t25 66q24 24 60 24q35 0 59 -24t30 -56zM399 94l-18 -94h-455l21 94h127l647 1073h127l188 -1073h127l-20 -94h-453l21 94h168l45 37l-47 275h-508l-164 -275l28 -37h166zM860 500l-98 563l-336 -563h434z" />
    <glyph glyph-name="Aacute" unicode="&#xc1;" 
d="M1110 1647q0 -57 -63 -103l-281 -217l-31 31l205 291q43 68 102 67q28 0 48 -19t20 -50zM399 94l-18 -94h-455l21 94h127l647 1073h127l188 -1073h127l-20 -94h-453l21 94h168l45 37l-47 275h-508l-164 -275l28 -37h166zM860 500l-98 563l-336 -563h434z" />
    <glyph glyph-name="Acircumflex" unicode="&#xc2;" 
d="M872 1706q49 0 76 -55l146 -291l-43 -33l-197 232l-303 -232l-41 33l262 291q51 55 100 55zM399 94l-18 -94h-455l21 94h127l647 1073h127l188 -1073h127l-20 -94h-453l21 94h168l45 37l-47 275h-508l-164 -275l28 -37h166zM860 500l-98 563l-336 -563h434z" />
    <glyph glyph-name="Atilde" unicode="&#xc3;" 
d="M994 1339q-72 0 -120 38t-86 76t-82 38t-85 -41t-56 -107h-104q23 109 93 178q71 69 161 68q55 0 101 -39q46 -38 85 -76t84 -38t86 40t55 109h105q-23 -109 -93 -177q-72 -68 -144 -69zM399 94l-18 -94h-455l21 94h127l647 1073h127l188 -1073h127l-20 -94h-453l21 94
h168l45 37l-47 275h-508l-164 -275l28 -37h166zM860 500l-98 563l-336 -563h434z" />
    <glyph glyph-name="Adieresis" unicode="&#xc4;" 
d="M733 1466q0 -46 -34 -80t-82 -34q-47 0 -81 34t-34 80q0 47 34 81t82 34t81 -34q34 -34 34 -81zM1159 1465q0 -47 -34 -81t-82 -34q-49 0 -83 34t-34 81q0 48 35 82t83 34t81 -34q34 -34 34 -82zM399 94l-18 -94h-455l21 94h127l647 1073h127l188 -1073h127l-20 -94h-453
l21 94h168l45 37l-47 275h-508l-164 -275l28 -37h166zM860 500l-98 563l-336 -563h434z" />
    <glyph glyph-name="Aring" unicode="&#xc5;" 
d="M987 1531q0 58 -37 96t-96 38t-102 -41t-43 -99q1 -58 37 -95t96 -37t102 40q43 40 43 98zM1073 1533q1 -95 -69 -161t-166 -66t-157 61q-60 59 -60 155q-1 96 69 162t167 65q97 0 157 -60q59 -61 59 -156zM399 94l-18 -94h-455l21 94h127l647 1073h127l188 -1073h127
l-20 -94h-453l21 94h168l45 37l-47 275h-508l-164 -275l28 -37h166zM860 500l-98 563l-336 -563h434z" />
    <glyph glyph-name="AE" unicode="&#xc6;" 
d="M274 94l-20 -94h-313l20 98l637 938l-27 37h-135l21 94h899l-76 -360h-98l47 221l-33 45h-311l-90 -426h288l-18 -90h-291l-98 -463h325l56 45l49 230h94l-76 -369h-710l20 94h94l56 45l57 267h-365l-186 -275l27 -37h157zM659 500l123 573h-51l-391 -573h319z" />
    <glyph glyph-name="Ccedilla" unicode="&#xc7;" 
d="M729 -267q0 -79 -76 -139t-176 -59q-100 0 -172 44t-92 124l74 45q33 -137 186 -137q72 0 118 33t46 92q0 90 -166 82l-59 47l77 117q-161 32 -253 162t-93 317q-1 303 183 519t452 216q111 0 192 -46t120 -122l22 10l27 129h98l-80 -387h-80q-31 313 -301 314
q-221 0 -372 -188t-150 -445q0 -170 90 -278t250 -107q225 0 418 182l55 -78q-225 -209 -473 -209h-31l-51 -77q98 0 158 -41t59 -120z" />
    <glyph glyph-name="Egrave" unicode="&#xc8;" 
d="M336 94h563l55 45l50 230h96l-80 -369h-1030l20 94h178l58 45l186 889l-33 45h-178l19 94h1013l-77 -360h-97l47 221l-34 45h-547l-90 -426h284l54 45l28 133h86l-94 -446h-86l27 133l-35 45h-283zM913 1352l-32 -25l-183 223q-38 37 -36 78t25 66q23 24 59 24t60 -24
t30 -56z" />
    <glyph glyph-name="Eacute" unicode="&#xc9;" 
d="M336 94h563l55 45l50 230h96l-80 -369h-1030l20 94h178l58 45l186 889l-33 45h-178l19 94h1013l-77 -360h-97l47 221l-34 45h-547l-90 -426h284l54 45l28 133h86l-94 -446h-86l27 133l-35 45h-283zM1110 1647q0 -57 -63 -103l-281 -217l-31 31l205 291q43 68 102 67
q28 0 48 -19t20 -50z" />
    <glyph glyph-name="Ecircumflex" unicode="&#xca;" 
d="M879 1706q49 0 75 -55l146 -291l-43 -33l-197 232l-303 -232l-41 33l262 291q52 55 101 55zM336 94h563l55 45l50 230h96l-80 -369h-1030l20 94h178l58 45l186 889l-33 45h-178l19 94h1013l-77 -360h-97l47 221l-34 45h-547l-90 -426h284l54 45l28 133h86l-94 -446h-86
l27 133l-35 45h-283z" />
    <glyph glyph-name="Edieresis" unicode="&#xcb;" 
d="M336 94h563l55 45l50 230h96l-80 -369h-1030l20 94h178l58 45l186 889l-33 45h-178l19 94h1013l-77 -360h-97l47 221l-34 45h-547l-90 -426h284l54 45l28 133h86l-94 -446h-86l27 133l-35 45h-283zM756 1466q0 -46 -34 -80t-82 -34t-82 34t-34 80q0 47 34 81t82 34
t82 -34t34 -81zM1182 1465q0 -47 -34 -81t-82 -34t-83 34t-35 81q0 48 35 82t83 34t82 -34t34 -82z" />
    <glyph glyph-name="Igrave" unicode="&#xcc;" 
d="M918 1352l-33 -25l-183 223q-38 37 -36 78t25 66q24 24 60 24q35 0 59 -24t30 -56zM700 1028l-34 45h-316l19 94h831l-20 -94h-318l-55 -45l-189 -889l35 -45h318l-21 -94h-831l20 94h318l55 45z" />
    <glyph glyph-name="Iacute" unicode="&#xcd;" 
d="M1112 1647q0 -57 -63 -103l-281 -217l-31 31l205 291q43 68 102 67q28 0 48 -19t20 -50zM700 1028l-34 45h-316l19 94h831l-20 -94h-318l-55 -45l-189 -889l35 -45h318l-21 -94h-831l20 94h318l55 45z" />
    <glyph glyph-name="Icircumflex" unicode="&#xce;" 
d="M883 1706q49 0 75 -55l146 -291l-43 -33l-197 232l-303 -232l-41 33l262 291q52 55 101 55zM700 1028l-34 45h-316l19 94h831l-20 -94h-318l-55 -45l-189 -889l35 -45h318l-21 -94h-831l20 94h318l55 45z" />
    <glyph glyph-name="Idieresis" unicode="&#xcf;" 
d="M750 1466q0 -46 -34 -80t-82 -34t-82 34t-34 80q0 47 34 81t82 34t82 -34t34 -81zM1176 1465q0 -47 -34 -81t-82 -34t-83 34t-35 81q0 48 35 82t83 34t82 -34t34 -82zM700 1028l-34 45h-316l19 94h831l-20 -94h-318l-55 -45l-189 -889l35 -45h318l-21 -94h-831l20 94h318
l55 45z" />
    <glyph glyph-name="Eth" unicode="&#xd0;" 
d="M463 94q283 0 456 171t173 419q0 180 -102 284t-318 105h-180l-86 -411h288l-20 -95h-289l-100 -473h178zM442 0h-456l20 94h131l56 47l90 426h-181l21 95h180l78 366l-33 45h-133l21 94h452q258 0 387 -131t129 -352q0 -288 -211 -486t-551 -198z" />
    <glyph glyph-name="Ntilde" unicode="&#xd1;" 
d="M930 0h-111l-342 1047l-194 -908l34 -45h123l-20 -94h-434l20 94h123l55 45l189 889l-35 45h-123l21 94h311l321 -999l183 860l-35 45h-123l20 94h435l-21 -94h-123l-55 -45zM982 1339q-72 0 -120 38t-86 76q-39 38 -83 38t-85 -41t-55 -107h-104q23 109 93 178
q71 69 160 68q56 0 102 -39q46 -38 85 -76t84 -38t86 40t55 109h105q-23 -109 -94 -177t-143 -69z" />
    <glyph glyph-name="Ograve" unicode="&#xd2;" 
d="M580 74q217 0 359 185t142 431q0 184 -85 294t-251 110q-219 0 -361 -184t-142 -433q0 -183 86 -293t252 -110zM745 1196q219 0 333 -139t114 -367q0 -287 -179 -503t-433 -216q-221 -1 -335 139t-114 367q0 287 180 503t434 216zM920 1352l-33 -25l-182 223
q-37 37 -36 78t24 66q24 24 60 24q35 0 59 -24t30 -56z" />
    <glyph glyph-name="Oacute" unicode="&#xd3;" 
d="M580 74q217 0 359 185t142 431q0 184 -85 294t-251 110q-219 0 -361 -184t-142 -433q0 -183 86 -293t252 -110zM745 1196q219 0 333 -139t114 -367q0 -287 -179 -503t-433 -216q-221 -1 -335 139t-114 367q0 287 180 503t434 216zM1116 1647q0 -57 -63 -103l-281 -217
l-31 31l205 291q43 68 103 67q29 0 48 -19t19 -50z" />
    <glyph glyph-name="Ocircumflex" unicode="&#xd4;" 
d="M881 1706q49 0 75 -55l146 -291l-43 -33l-197 232l-303 -232l-41 33l262 291q52 55 101 55zM580 74q217 0 359 185t142 431q0 184 -85 294t-251 110q-219 0 -361 -184t-142 -433q0 -183 86 -293t252 -110zM745 1196q219 0 333 -139t114 -367q0 -287 -179 -503t-433 -216
q-221 -1 -335 139t-114 367q0 287 180 503t434 216z" />
    <glyph glyph-name="Otilde" unicode="&#xd5;" 
d="M580 74q217 0 359 185t142 431q0 184 -85 294t-251 110q-219 0 -361 -184t-142 -433q0 -183 86 -293t252 -110zM745 1196q219 0 333 -139t114 -367q0 -287 -179 -503t-433 -216q-221 -1 -335 139t-114 367q0 287 180 503t434 216zM994 1339q-72 0 -120 38t-86 76t-82 38
t-85 -41t-56 -107h-104q23 109 93 178q71 69 161 68q55 0 101 -39q46 -38 85 -76t84 -38t86 40t55 109h105q-23 -109 -93 -177q-72 -68 -144 -69z" />
    <glyph glyph-name="Odieresis" unicode="&#xd6;" 
d="M580 74q217 0 359 185t142 431q0 184 -85 294t-251 110q-219 0 -361 -184t-142 -433q0 -183 86 -293t252 -110zM745 1196q219 0 333 -139t114 -367q0 -287 -179 -503t-433 -216q-221 -1 -335 139t-114 367q0 287 180 503t434 216zM748 1466q0 -46 -34 -80t-82 -34t-82 34
t-34 80q0 47 34 81t82 34t82 -34t34 -81zM1174 1465q0 -47 -34 -81t-82 -34t-83 34t-35 81q0 48 35 82t83 34t82 -34t34 -82z" />
    <glyph glyph-name="multiply" unicode="&#xd7;" 
d="M602 563l-248 318l76 59l244 -317l385 321l57 -72l-387 -321l252 -320l-76 -59l-248 320l-385 -320l-57 72z" />
    <glyph glyph-name="Oslash" unicode="&#xd8;" 
d="M1192 690q0 -287 -179 -503t-433 -216q-201 0 -316 119l-172 -186l-69 57l186 201q-78 125 -78 315q0 287 180 503t434 216q197 0 312 -115l164 176l67 -57l-176 -190q80 -130 80 -320zM580 74q217 0 359 185t142 431q0 135 -47 234l-696 -754q86 -96 242 -96zM745 1094
q-219 0 -361 -184t-142 -433q0 -137 45 -229l696 751q-88 95 -238 95z" />
    <glyph glyph-name="Ugrave" unicode="&#xd9;" 
d="M557 -29q-184 0 -281 116q-96 116 -57 292l137 649l-37 45h-122l20 94h438l-20 -94h-123l-53 -45l-137 -643q-28 -139 36 -227t204 -88t234 83q93 83 124 226l137 649l-37 45h-123l21 94h438l-21 -94h-123l-53 -45l-139 -655q-41 -184 -160 -293t-303 -109zM918 1352
l-33 -25l-183 223q-38 37 -36 78t25 66q24 24 60 24q35 0 59 -24t30 -56z" />
    <glyph glyph-name="Uacute" unicode="&#xda;" 
d="M557 -29q-184 0 -281 116q-96 116 -57 292l137 649l-37 45h-122l20 94h438l-20 -94h-123l-53 -45l-137 -643q-28 -139 36 -227t204 -88t234 83q93 83 124 226l137 649l-37 45h-123l21 94h438l-21 -94h-123l-53 -45l-139 -655q-41 -184 -160 -293t-303 -109zM1112 1647
q0 -57 -63 -103l-281 -217l-31 31l205 291q43 68 102 67q28 0 48 -19t20 -50z" />
    <glyph glyph-name="Ucircumflex" unicode="&#xdb;" 
d="M883 1706q49 0 75 -55l146 -291l-43 -33l-197 232l-303 -232l-41 33l262 291q52 55 101 55zM557 -29q-184 0 -281 116q-96 116 -57 292l137 649l-37 45h-122l20 94h438l-20 -94h-123l-53 -45l-137 -643q-28 -139 36 -227t204 -88t234 83q93 83 124 226l137 649l-37 45
h-123l21 94h438l-21 -94h-123l-53 -45l-139 -655q-41 -184 -160 -293t-303 -109z" />
    <glyph glyph-name="Udieresis" unicode="&#xdc;" 
d="M557 -29q-184 0 -281 116q-96 116 -57 292l137 649l-37 45h-122l20 94h438l-20 -94h-123l-53 -45l-137 -643q-28 -139 36 -227t204 -88t234 83q93 83 124 226l137 649l-37 45h-123l21 94h438l-21 -94h-123l-53 -45l-139 -655q-41 -184 -160 -293t-303 -109zM750 1466
q0 -46 -34 -80t-82 -34t-82 34t-34 80q0 47 34 81t82 34t82 -34t34 -81zM1176 1465q0 -47 -34 -81t-82 -34t-83 34t-35 81q0 48 35 82t83 34t82 -34t34 -82z" />
    <glyph glyph-name="Yacute" unicode="&#xdd;" 
d="M1114 1647q0 -57 -63 -103l-281 -217l-31 31l205 291q43 68 103 67q29 0 48 -19t19 -50zM682 438l-64 -299l35 -45h240l-21 -94h-675l20 94h240l55 45l63 299l-292 635h-127l20 94h469l-18 -94h-168l-45 -37l231 -510l442 510l-26 37h-168l20 94h480l-21 -94h-127z" />
    <glyph glyph-name="Thorn" unicode="&#xde;" 
d="M694 385q188 0 295 60t107 166t-75 150t-237 44h-282l-90 -420h282zM809 899q197 0 296 -70t99 -200q0 -166 -138 -252t-388 -86h-287l-35 -164l25 -33h297l-21 -94h-665l20 94h191l55 45l188 889l-34 45h-191l21 94h585l-20 -94h-217l-41 -33l-29 -141h289z" />
    <glyph glyph-name="germandbls" unicode="&#xdf;" 
d="M-207 -236q0 72 29 107t71 35q41 0 65 -22t24 -56t-23 -54q-23 -22 -59 -22q6 -78 92 -78q63 0 100 52t60 161l159 811l-32 39h-158l20 94h197q45 201 166 327t307 126q129 0 205 -66t76 -174q0 -106 -69 -182t-175 -94q143 -23 226 -113t83 -229q0 -195 -123 -325
t-309 -130q-115 1 -181 63t-65 152q0 90 44 145q45 54 97 54t74 -24q22 -23 22 -61q-1 -38 -30 -62q-28 -24 -58 -23q-30 0 -50 4q-10 -74 30 -118t119 -44q147 1 237 103t91 252t-105 225q-106 76 -288 76l22 96q129 0 215 61t86 166q0 72 -47 114t-133 42
q-143 0 -243 -108t-130 -265l-180 -919q-64 -314 -250 -314q-98 0 -154 52q-56 54 -55 126z" />
    <glyph glyph-name="agrave" unicode="&#xe0;" 
d="M571 1349q0 41 25 65t59 24q70 0 90 -80l78 -287l-32 -24l-185 223q-35 39 -35 79zM225 358q0 -126 76 -208t203 -82q219 0 383 249l47 234q-27 115 -110 183t-210 67q-166 -1 -278 -133t-111 -310zM494 -29q-166 0 -271 111q-104 111 -104 276q0 217 148 378t347 161
q126 0 222 -63t125 -156l63 219h84l-158 -741q-8 -43 5 -67q13 -23 42 -23t52 28t44 68t25 47l82 -33q-53 -98 -85 -137q-55 -68 -133 -68q-77 -1 -112 55t-10 154q-156 -209 -366 -209z" />
    <glyph glyph-name="aacute" unicode="&#xe1;" 
d="M938 1436q29 0 48 -20t20 -50q0 -57 -64 -102l-280 -217l-31 30l205 291q43 68 102 68zM225 358q0 -126 76 -208t203 -82q219 0 383 249l47 234q-27 115 -110 183t-210 67q-166 -1 -278 -133t-111 -310zM494 -29q-166 0 -271 111q-104 111 -104 276q0 217 148 378
t347 161q126 0 222 -63t125 -156l63 219h84l-158 -741q-8 -43 5 -67q13 -23 42 -23t52 28t44 68t25 47l82 -33q-53 -98 -85 -137q-55 -68 -133 -68q-77 -1 -112 55t-10 154q-156 -209 -366 -209z" />
    <glyph glyph-name="acircumflex" unicode="&#xe2;" 
d="M791 1425q49 0 77 -55l144 -291l-41 -32l-199 231l-303 -231l-39 32l260 291q52 55 101 55zM225 358q0 -126 76 -208t203 -82q219 0 383 249l47 234q-27 115 -110 183t-210 67q-166 -1 -278 -133t-111 -310zM494 -29q-166 0 -271 111q-104 111 -104 276q0 217 148 378
t347 161q126 0 222 -63t125 -156l63 219h84l-158 -741q-8 -43 5 -67q13 -23 42 -23t52 28t44 68t25 47l82 -33q-53 -98 -85 -137q-55 -68 -133 -68q-77 -1 -112 55t-10 154q-156 -209 -366 -209z" />
    <glyph glyph-name="atilde" unicode="&#xe3;" 
d="M898 1069q-72 0 -120 39t-86 77q-39 38 -82 38t-85 -41t-56 -107h-104q23 109 93 177t160 67q56 0 102 -39t85 -77t84 -38t86 41t55 109h105q-23 -109 -94 -177t-143 -69zM225 358q0 -126 76 -208t203 -82q219 0 383 249l47 234q-27 115 -110 183t-210 67
q-166 -1 -278 -133t-111 -310zM494 -29q-166 0 -271 111q-104 111 -104 276q0 217 148 378t347 161q126 0 222 -63t125 -156l63 219h84l-158 -741q-8 -43 5 -67q13 -23 42 -23t52 28t44 68t25 47l82 -33q-53 -98 -85 -137q-55 -68 -133 -68q-77 -1 -112 55t-10 154
q-156 -209 -366 -209z" />
    <glyph glyph-name="adieresis" unicode="&#xe4;" 
d="M542 1100q-48 0 -83 34t-35 80t35 81q35 34 83 34t82 -34t34 -81q0 -46 -34 -80t-82 -34zM968 1098q-48 0 -83 34t-35 82t35 81q35 34 83 34t82 -34t34 -82q0 -47 -34 -81t-82 -34zM225 358q0 -126 76 -208t203 -82q219 0 383 249l47 234q-27 115 -110 183t-210 67
q-166 -1 -278 -133t-111 -310zM494 -29q-166 0 -271 111q-104 111 -104 276q0 217 148 378t347 161q126 0 222 -63t125 -156l63 219h84l-158 -741q-8 -43 5 -67q13 -23 42 -23t52 28t44 68t25 47l82 -33q-53 -98 -85 -137q-55 -68 -133 -68q-77 -1 -112 55t-10 154
q-156 -209 -366 -209z" />
    <glyph glyph-name="aring" unicode="&#xe5;" 
d="M903 1250q0 58 -37 96t-97 38t-102 -41t-42 -99t37 -95t96 -37t102 40t43 98zM989 1252q1 -94 -69 -160t-167 -66t-157 60q-59 60 -59 156t69 161q70 65 167 65t157 -60q59 -61 59 -156zM225 358q0 -126 76 -208t203 -82q219 0 383 249l47 234q-27 115 -110 183t-210 67
q-166 -1 -278 -133t-111 -310zM494 -29q-166 0 -271 111q-104 111 -104 276q0 217 148 378t347 161q126 0 222 -63t125 -156l63 219h84l-158 -741q-8 -43 5 -67q13 -23 42 -23t52 28t44 68t25 47l82 -33q-53 -98 -85 -137q-55 -68 -133 -68q-77 -1 -112 55t-10 154
q-156 -209 -366 -209z" />
    <glyph glyph-name="ae" unicode="&#xe6;" 
d="M268 63q131 0 285 117q-18 62 -18 112t4 99q-201 -14 -307 -56t-107 -142q0 -59 41 -95t102 -35zM1120 682q0 51 -35 85t-104 34q-106 0 -198 -91q-91 -92 -130 -227h2q227 13 346 57t119 142zM811 -29q-155 0 -229 135q-174 -135 -332 -135q-100 -1 -166 59t-66 152
q0 145 138 212t397 83q29 119 102 225q-31 106 -153 106t-203 -48q45 -18 45 -64t-29 -70q-29 -26 -69 -26t-63 26q-24 26 -25 62q0 92 105 150t233 59q168 0 229 -117q121 117 249 117t188 -59t61 -144q-1 -147 -149 -214t-439 -85q-6 -37 -6 -76q0 -115 49 -185t137 -68
q129 0 260 133l51 -68q-160 -160 -315 -160z" />
    <glyph glyph-name="ccedilla" unicode="&#xe7;" 
d="M448 -465q-100 0 -172 44t-92 124l74 45q33 -137 186 -137q72 0 118 33t46 92q0 90 -166 82l-59 47l84 127q-139 40 -219 148t-80 253q0 215 155 359t355 145q200 0 306 -86t106 -213q0 -49 -32 -84t-76 -35t-75 28q-31 27 -31 65t25 64t57 26q-16 57 -82 100
q-67 43 -180 43q-174 0 -297 -118t-123 -294q0 -139 94 -232t248 -93q195 0 353 151l63 -74q-184 -174 -416 -174q-41 0 -81 6l-54 -83q97 0 157 -41t60 -120t-75 -139q-77 -59 -177 -59z" />
    <glyph glyph-name="egrave" unicode="&#xe8;" 
d="M616 1349q0 41 25 65t59 24q70 0 91 -80l77 -287l-32 -24l-185 223q-35 39 -35 79zM614 -29q-196 0 -322 120t-126 300q0 213 158 359t389 147q162 0 262 -73t100 -185q0 -147 -185 -216t-620 -67q12 -124 108 -206t236 -82q205 0 355 137l61 -70q-176 -164 -416 -164z
M969 639q0 74 -74 119t-182 45q-173 1 -297 -101t-144 -258q367 0 532 45t165 150z" />
    <glyph glyph-name="eacute" unicode="&#xe9;" 
d="M614 -29q-196 0 -322 120t-126 300q0 213 158 359t389 147q162 0 262 -73t100 -185q0 -147 -185 -216t-620 -67q12 -124 108 -206t236 -82q205 0 355 137l61 -70q-176 -164 -416 -164zM969 639q0 74 -74 119t-182 45q-173 1 -297 -101t-144 -258q367 0 532 45t165 150z
M983 1436q29 0 48 -20t20 -50q0 -57 -64 -102l-280 -217l-31 30l205 291q43 68 102 68z" />
    <glyph glyph-name="ecircumflex" unicode="&#xea;" 
d="M614 -29q-196 0 -322 120t-126 300q0 213 158 359t389 147q162 0 262 -73t100 -185q0 -147 -185 -216t-620 -67q12 -124 108 -206t236 -82q205 0 355 137l61 -70q-176 -164 -416 -164zM969 639q0 74 -74 119t-182 45q-173 1 -297 -101t-144 -258q367 0 532 45t165 150z
M836 1425q49 0 77 -55l144 -291l-41 -32l-199 231l-303 -231l-39 32l260 291q52 55 101 55z" />
    <glyph glyph-name="edieresis" unicode="&#xeb;" 
d="M614 -29q-196 0 -322 120t-126 300q0 213 158 359t389 147q162 0 262 -73t100 -185q0 -147 -185 -216t-620 -67q12 -124 108 -206t236 -82q205 0 355 137l61 -70q-176 -164 -416 -164zM969 639q0 74 -74 119t-182 45q-173 1 -297 -101t-144 -258q367 0 532 45t165 150z
M587 1100q-48 0 -83 34t-35 80t35 81q35 34 83 34t82 -34q33 -34 33 -81q0 -46 -34 -80t-81 -34zM1013 1098q-48 0 -83 34t-35 82t35 81q35 34 83 34t82 -34q33 -34 33 -82q0 -47 -34 -81t-81 -34z" />
    <glyph glyph-name="igrave" unicode="&#xec;" 
d="M618 1438q70 0 91 -80l77 -287l-32 -24l-185 223q-35 39 -35 79q0 41 26 65q24 24 58 24zM719 70q85 0 153 70t138 233l82 -41q-82 -184 -171 -272t-213 -89q-124 1 -193 95t-40 231l92 432l-37 45h-352l21 94h495l-121 -575q-20 -99 21 -161t125 -62z" />
    <glyph glyph-name="iacute" unicode="&#xed;" 
d="M719 70q85 0 153 70t138 233l82 -41q-82 -184 -171 -272t-213 -89q-124 1 -193 95t-40 231l92 432l-37 45h-352l21 94h495l-121 -575q-20 -99 21 -161t125 -62zM901 1436q29 0 48 -20t20 -50q0 -57 -64 -102l-280 -217l-31 30l205 291q43 68 102 68z" />
    <glyph glyph-name="icircumflex" unicode="&#xee;" 
d="M719 70q85 0 153 70t138 233l82 -41q-82 -184 -171 -272t-213 -89q-124 1 -193 95t-40 231l92 432l-37 45h-352l21 94h495l-121 -575q-20 -99 21 -161t125 -62zM756 1425q49 0 78 -55l143 -291l-41 -32l-199 231l-303 -231l-39 32l260 291q52 55 101 55z" />
    <glyph glyph-name="idieresis" unicode="&#xef;" 
d="M719 70q85 0 153 70t138 233l82 -41q-82 -184 -171 -272t-213 -89q-124 1 -193 95t-40 231l92 432l-37 45h-352l21 94h495l-121 -575q-20 -99 21 -161t125 -62zM621 1214q0 -46 -34 -80t-82 -34t-83 34t-35 80t35 81q35 34 83 34t82 -34t34 -81zM1047 1213q0 -47 -34 -81
t-82 -34t-83 34t-35 82t35 81q35 34 83 34t82 -34t34 -82z" />
    <glyph glyph-name="eth" unicode="&#xf0;" 
d="M598 68q156 0 270 112t115 258q0 146 -85 230q-84 84 -240 84t-271 -112t-115 -258t85 -230t241 -84zM598 -29q-202 0 -317 112q-115 111 -115 297t146 327t343 141t308 -131q-78 223 -238 338l-236 -113l-34 66l194 94q-119 63 -284 96l26 84q209 -37 359 -133l241 117
l35 -68l-207 -98q272 -223 273 -600q0 -238 -146 -384t-348 -145z" />
    <glyph glyph-name="ntilde" unicode="&#xf1;" 
d="M916 1069q-72 0 -119 39t-86 77t-82 38t-85 -41t-57 -107h-104q23 109 93 177t161 67q55 0 101 -39t85 -77t84 -38t87 41t55 109h104q-23 -109 -93 -177q-72 -68 -144 -69zM784 897q134 0 194 -82t28 -231l-91 -428q-9 -43 5 -67q14 -23 44 -23t52 28t44 68q21 40 25 47
l82 -33q-39 -72 -61 -106t-64 -66q-44 -33 -108 -33q-64 1 -98 55t-19 134l86 397q51 244 -139 244t-379 -262l-115 -539h-100l156 729l-35 45h-139l20 94h283l-43 -202q178 231 372 231z" />
    <glyph glyph-name="ograve" unicode="&#xf2;" 
d="M612 1349q0 41 25 65t59 24q70 0 90 -80l78 -287l-33 -24l-184 223q-35 39 -35 79zM657 897q205 0 325 -120q120 -121 120 -317t-148 -342t-353 -146q-204 0 -325 119q-120 121 -120 317t148 343q149 146 353 146zM602 66q158 0 275 118t117 276q0 156 -91 250t-249 93
q-158 0 -274 -118q-116 -117 -116 -275t90 -251t248 -93z" />
    <glyph glyph-name="oacute" unicode="&#xf3;" 
d="M657 897q205 0 325 -120q120 -121 120 -317t-148 -342t-353 -146q-204 0 -325 119q-120 121 -120 317t148 343q149 146 353 146zM602 66q158 0 275 118t117 276q0 156 -91 250t-249 93q-158 0 -274 -118q-116 -117 -116 -275t90 -251t248 -93zM979 1436q29 0 48 -20
t20 -50q0 -57 -64 -102l-281 -217l-30 30l205 291q43 68 102 68z" />
    <glyph glyph-name="ocircumflex" unicode="&#xf4;" 
d="M657 897q205 0 325 -120q120 -121 120 -317t-148 -342t-353 -146q-204 0 -325 119q-120 121 -120 317t148 343q149 146 353 146zM602 66q158 0 275 118t117 276q0 156 -91 250t-249 93q-158 0 -274 -118q-116 -117 -116 -275t90 -251t248 -93zM831 1425q49 0 78 -55
l144 -291l-41 -32l-199 231l-303 -231l-39 32l260 291q51 55 100 55z" />
    <glyph glyph-name="otilde" unicode="&#xf5;" 
d="M939 1069q-71 0 -119 39t-87 77t-82 38t-85 -41t-56 -107h-104q24 109 94 177t159 67q55 0 101 -39t86 -77q39 -38 84 -38t86 41t55 109h105q-23 -109 -94 -177t-143 -69zM657 897q205 0 325 -120q120 -121 120 -317t-148 -342t-353 -146q-204 0 -325 119
q-120 121 -120 317t148 343q149 146 353 146zM602 66q158 0 275 118t117 276q0 156 -91 250t-249 93q-158 0 -274 -118q-116 -117 -116 -275t90 -251t248 -93z" />
    <glyph glyph-name="odieresis" unicode="&#xf6;" 
d="M657 897q205 0 325 -120q120 -121 120 -317t-148 -342t-353 -146q-204 0 -325 119q-120 121 -120 317t148 343q149 146 353 146zM602 66q158 0 275 118t117 276q0 156 -91 250t-249 93q-158 0 -274 -118q-116 -117 -116 -275t90 -251t248 -93zM583 1100q-48 0 -83 34
t-35 80t35 81q35 34 83 34t82 -34q33 -34 33 -81q0 -46 -34 -80t-81 -34zM1009 1098q-48 0 -83 34t-35 82t35 81q35 34 83 34t82 -34q33 -34 33 -82q0 -47 -34 -81t-81 -34z" />
    <glyph glyph-name="divide" unicode="&#xf7;" 
d="M205 506l20 94h899l-20 -94h-899zM674 180q0 -38 -29 -66t-67 -28t-66 28q-27 28 -27 66q0 39 27 67q27 27 67 27q39 0 67 -28t28 -66zM741 831q-39 0 -65 28t-27 68q0 39 27 67q28 28 66 28t66 -28t28 -66t-28 -68q-28 -29 -67 -29z" />
    <glyph glyph-name="oslash" unicode="&#xf8;" 
d="M1102 473q0 -209 -148 -355t-364 -147q-158 0 -273 88l-180 -186l-63 57l180 187q-98 119 -98 278q0 209 148 355t364 147q150 0 262 -80l162 168l65 -57l-162 -168q107 -117 107 -287zM590 66q172 0 289 118t116 289q0 129 -71 213l-539 -555q88 -65 205 -65zM668 803
q-172 0 -289 -118t-117 -290q0 -119 64 -205l534 555q-79 58 -192 58z" />
    <glyph glyph-name="ugrave" unicode="&#xf9;" 
d="M662 1438q70 0 90 -80l77 -287l-32 -24l-185 223q-34 39 -34 79q0 41 24 65t60 24zM948 66q32 0 54 28t44 68t25 47l84 -33q-55 -98 -87 -137q-54 -66 -134 -68q-170 0 -119 222q-172 -221 -364 -222q-139 0 -200 85q-60 85 -30 235l94 438l-34 45h-140l21 94h280
l-118 -557q-51 -244 139 -243q186 0 377 254l116 546h99l-150 -702q-20 -100 43 -100z" />
    <glyph glyph-name="uacute" unicode="&#xfa;" 
d="M948 66q32 0 54 28t44 68t25 47l84 -33q-55 -98 -87 -137q-54 -66 -134 -68q-170 0 -119 222q-172 -221 -364 -222q-139 0 -200 85q-60 85 -30 235l94 438l-34 45h-140l21 94h280l-118 -557q-51 -244 139 -243q186 0 377 254l116 546h99l-150 -702q-20 -100 43 -100z
M944 1436q29 0 48 -20t20 -50q0 -57 -64 -102l-280 -217l-31 30l205 291q43 68 102 68z" />
    <glyph glyph-name="ucircumflex" unicode="&#xfb;" 
d="M948 66q32 0 54 28t44 68t25 47l84 -33q-55 -98 -87 -137q-54 -66 -134 -68q-170 0 -119 222q-172 -221 -364 -222q-139 0 -200 85q-60 85 -30 235l94 438l-34 45h-140l21 94h280l-118 -557q-51 -244 139 -243q186 0 377 254l116 546h99l-150 -702q-20 -100 43 -100z
M797 1425q49 0 77 -55l144 -291l-41 -32l-199 231l-303 -231l-39 32l260 291q52 55 101 55z" />
    <glyph glyph-name="udieresis" unicode="&#xfc;" 
d="M948 66q32 0 54 28t44 68t25 47l84 -33q-55 -98 -87 -137q-54 -66 -134 -68q-170 0 -119 222q-172 -221 -364 -222q-139 0 -200 85q-60 85 -30 235l94 438l-34 45h-140l21 94h280l-118 -557q-51 -244 139 -243q186 0 377 254l116 546h99l-150 -702q-20 -100 43 -100z
M664 1214q0 -46 -34 -80t-82 -34t-83 34t-35 80t35 81q35 34 83 34t82 -34t34 -81zM1090 1213q0 -47 -34 -81t-82 -34t-83 34t-35 82t35 81q35 34 83 34t82 -34t34 -82z" />
    <glyph glyph-name="yacute" unicode="&#xfd;" 
d="M977 1436q29 0 48 -20t19 -50q0 -57 -63 -102l-281 -217l-30 30l204 291q43 68 103 68zM504 6q-135 0 -200 86t-34 234l86 403l-34 45h-140l21 94h280l-108 -522q-51 -244 141 -244q197 0 383 256l109 510h100l-178 -837q-43 -203 -165 -324t-294 -121t-266 73t-94 181
q0 55 28 88q29 33 72 33q43 1 68 -23t25 -59t-24 -57t-55 -23q15 -59 77 -93t157 -34q143 0 241 100t134 263l40 194q-178 -223 -370 -223z" />
    <glyph glyph-name="thorn" unicode="&#xfe;" 
d="M768 897q166 0 267 -110t102 -277q1 -217 -147 -378t-349 -161q-125 -1 -221 63t-125 156l-96 -448l24 -33h238l-21 -94h-526l20 94h127l41 33l295 1386l-24 33h-127l20 94h254l-121 -567q160 209 369 209zM754 801q-221 0 -383 -250l-49 -234q28 -115 110 -183t209 -66
q166 0 279 132t112 310q0 127 -76 209t-202 82z" />
    <glyph glyph-name="ydieresis" unicode="&#xff;" 
d="M694 1214q0 -46 -34 -80t-81 -34q-48 0 -83 34t-35 80t35 81q35 34 83 34q47 0 81 -34t34 -81zM1005 1329q47 0 81 -34t34 -82q0 -47 -34 -81t-81 -34q-48 0 -83 34t-35 82t35 81q35 34 83 34zM504 6q-135 0 -200 86t-34 234l86 403l-34 45h-140l21 94h280l-108 -522
q-51 -244 141 -244q197 0 383 256l109 510h100l-178 -837q-43 -203 -165 -324t-294 -121t-266 73t-94 181q0 55 28 88q29 33 72 33q43 1 68 -23t25 -59t-24 -57t-55 -23q15 -59 77 -93t157 -34q143 0 241 100t134 263l40 194q-178 -223 -370 -223z" />
    <glyph glyph-name="Amacron" unicode="&#x100;" 
d="M530 1481h615l-21 -99h-614zM399 94l-18 -94h-455l21 94h127l647 1073h127l188 -1073h127l-20 -94h-453l21 94h168l45 37l-47 275h-508l-164 -275l28 -37h166zM860 500l-98 563l-336 -563h434z" />
    <glyph glyph-name="amacron" unicode="&#x101;" 
d="M444 1200h615l-21 -98h-614zM225 358q0 -126 76 -208t203 -82q219 0 383 249l47 234q-27 115 -110 183t-210 67q-166 -1 -278 -133t-111 -310zM494 -29q-166 0 -271 111q-104 111 -104 276q0 217 148 378t347 161q126 0 222 -63t125 -156l63 219h84l-158 -741
q-8 -43 5 -67q13 -23 42 -23t52 28t44 68t25 47l82 -33q-53 -98 -85 -137q-55 -68 -133 -68q-77 -1 -112 55t-10 154q-156 -209 -366 -209z" />
    <glyph glyph-name="Abreve" unicode="&#x102;" 
d="M838 1436q90 0 172 58t123 159l73 -19q-55 -150 -153 -234q-97 -84 -227 -83q-130 0 -196 84t-61 233l70 19q-2 -100 53 -159q56 -58 146 -58zM399 94l-18 -94h-455l21 94h127l647 1073h127l188 -1073h127l-20 -94h-453l21 94h168l45 37l-47 275h-508l-164 -275l28 -37
h166zM860 500l-98 563l-336 -563h434z" />
    <glyph glyph-name="abreve" unicode="&#x103;" 
d="M744 1159q89 -1 171 59t123 160l74 -18q-56 -152 -154 -235t-227 -83t-195 84t-61 234l70 18q-2 -102 54 -160t145 -59zM225 358q0 -126 76 -208t203 -82q219 0 383 249l47 234q-27 115 -110 183t-210 67q-166 -1 -278 -133t-111 -310zM494 -29q-166 0 -271 111
q-104 111 -104 276q0 217 148 378t347 161q126 0 222 -63t125 -156l63 219h84l-158 -741q-8 -43 5 -67q13 -23 42 -23t52 28t44 68t25 47l82 -33q-53 -98 -85 -137q-55 -68 -133 -68q-77 -1 -112 55t-10 154q-156 -209 -366 -209z" />
    <glyph glyph-name="Aogonek" unicode="&#x104;" 
d="M592 -471q-72 0 -112 38q-40 39 -40 105t58 140t192 188l21 94h168l45 37l-47 275h-508l-164 -275l28 -37h166l-18 -94h-455l21 94h127l647 1073h127l188 -1073h127l-20 -94h-328q-158 -135 -218 -204t-60 -122q1 -59 75 -59t183 100l49 -69q-129 -117 -252 -117z
M860 500l-98 563l-336 -563h434z" />
    <glyph glyph-name="aogonek" unicode="&#x105;" 
d="M225 358q0 -126 76 -208t203 -82q219 0 383 249l47 234q-27 115 -110 183t-210 67q-166 -1 -278 -133t-111 -310zM879 -471q-72 0 -112 38q-40 39 -40 101t51 132t164 177q-57 13 -81 65t-1 138q-156 -209 -366 -209q-166 0 -271 111q-104 111 -104 276q0 217 148 378
t347 161q126 0 222 -63t125 -156l63 219h84l-158 -741q-8 -43 5 -67q13 -23 42 -23t52 28t44 68t25 47l82 -33q-32 -74 -100 -152t-127 -132q-150 -133 -150 -218q0 -59 73 -59t185 100l49 -69q-128 -117 -251 -117z" />
    <glyph glyph-name="Cacute" unicode="&#x106;" 
d="M768 1358l205 291q43 68 102 67q29 0 48 -19t20 -50q0 -57 -64 -103l-280 -217zM594 -29q-207 -1 -329 137t-122 353q-1 303 183 519t452 216q111 0 192 -46t120 -122l22 10l27 129h98l-80 -387h-80q-31 313 -301 314q-221 0 -372 -188t-150 -445q0 -170 90 -278
t250 -107q225 0 418 182l55 -78q-225 -209 -473 -209z" />
    <glyph glyph-name="cacute" unicode="&#x107;" 
d="M696 897q182 0 288 -86t106 -213q0 -49 -32 -84t-76 -35t-75 28q-31 27 -31 65t25 64t57 26q-16 57 -82 100q-67 43 -180 43q-174 0 -297 -118t-123 -294q0 -139 94 -232t248 -93q195 0 353 151l63 -74q-184 -174 -402 -174t-340 120q-124 121 -124 319t154 342t374 145z
M979 1436q29 0 48 -20t20 -50q0 -57 -64 -102l-281 -217l-30 30l205 291q43 68 102 68z" />
    <glyph glyph-name="Ccircumflex" unicode="&#x108;" 
d="M913 1706q49 0 76 -55l146 -291l-43 -33l-197 232l-303 -232l-41 33l262 291q51 55 100 55zM594 -29q-207 -1 -329 137t-122 353q-1 303 183 519t452 216q111 0 192 -46t120 -122l22 10l27 129h98l-80 -387h-80q-31 313 -301 314q-221 0 -372 -188t-150 -445
q0 -170 90 -278t250 -107q225 0 418 182l55 -78q-225 -209 -473 -209z" />
    <glyph glyph-name="ccircumflex" unicode="&#x109;" 
d="M696 897q182 0 288 -86t106 -213q0 -49 -32 -84t-76 -35t-75 28q-31 27 -31 65t25 64t57 26q-16 57 -82 100q-67 43 -180 43q-174 0 -297 -118t-123 -294q0 -139 94 -232t248 -93q195 0 353 151l63 -74q-184 -174 -402 -174t-340 120q-124 121 -124 319t154 342t374 145z
M831 1425q49 0 78 -55l144 -291l-41 -32l-199 231l-303 -231l-39 32l260 291q51 55 100 55z" />
    <glyph glyph-name="Cdotaccent" unicode="&#x10a;" 
d="M594 -29q-207 -1 -329 137t-122 353q-1 303 183 519t452 216q111 0 192 -46t120 -122l22 10l27 129h98l-80 -387h-80q-31 313 -301 314q-221 0 -372 -188t-150 -445q0 -170 90 -278t250 -107q225 0 418 182l55 -78q-225 -209 -473 -209zM879 1346q-49 0 -84 34t-35 82
q0 49 34 84t84 35t84 -34t34 -84t-34 -84q-34 -33 -83 -33z" />
    <glyph glyph-name="cdotaccent" unicode="&#x10b;" 
d="M796 1094q-50 0 -84 34t-34 83q0 50 34 84t84 34t84 -34t34 -84t-34 -84q-34 -33 -84 -33zM696 897q182 0 288 -86t106 -213q0 -49 -32 -84t-76 -35t-75 28q-31 27 -31 65t25 64t57 26q-16 57 -82 100q-67 43 -180 43q-174 0 -297 -118t-123 -294q0 -139 94 -232t248 -93
q195 0 353 151l63 -74q-184 -174 -402 -174t-340 120q-124 121 -124 319t154 342t374 145z" />
    <glyph glyph-name="Ccaron" unicode="&#x10c;" 
d="M860 1331q-50 0 -76 55l-145 291l43 33l195 -233l303 233l43 -33l-262 -291q-51 -55 -101 -55zM594 -29q-207 -1 -329 137t-122 353q-1 303 183 519t452 216q111 0 192 -46t120 -122l22 10l27 129h98l-80 -387h-80q-31 313 -301 314q-221 0 -372 -188t-150 -445
q0 -170 90 -278t250 -107q225 0 418 182l55 -78q-225 -209 -473 -209z" />
    <glyph glyph-name="ccaron" unicode="&#x10d;" 
d="M696 897q182 0 288 -86t106 -213q0 -49 -32 -84t-76 -35t-75 28q-31 27 -31 65t25 64t57 26q-16 57 -82 100q-67 43 -180 43q-174 0 -297 -118t-123 -294q0 -139 94 -232t248 -93q195 0 353 151l63 -74q-184 -174 -402 -174t-340 120q-124 121 -124 319t154 342t374 145z
M774 1051q-49 0 -78 55l-143 291l43 33l195 -234l303 234l41 -33l-261 -291q-51 -55 -100 -55z" />
    <glyph glyph-name="Dcaron" unicode="&#x10e;" 
d="M442 0h-456l20 94h131l56 47l188 887l-33 45h-133l21 94h452q258 0 387 -131t129 -352q0 -288 -211 -486t-551 -198zM463 94q283 0 456 171t173 419q0 180 -102 284t-318 105h-180l-207 -979h178zM764 1331q-49 0 -76 55l-145 291l43 33l194 -233l303 233l43 -33
l-262 -291q-51 -55 -100 -55z" />
    <glyph glyph-name="dcaron" unicode="&#x10f;" 
d="M225 358q0 -126 76 -208t203 -82q219 0 383 249l47 234q-27 115 -110 183t-210 67q-166 -1 -278 -133t-111 -310zM494 -29q-166 0 -271 111q-104 111 -104 276q0 217 148 378t347 161q126 0 222 -63t125 -156l96 450l-25 33h-237l20 94h369l-234 -1099q-18 -90 45 -90
q31 0 54 28t44 68t25 47l82 -33q-53 -98 -85 -137q-55 -68 -133 -68q-77 -1 -112 55t-10 154q-156 -209 -366 -209zM1473 1464q33 0 57 -22t22 -60q0 -37 -36 -79l-228 -254l-35 20l127 315q27 80 93 80z" />
    <glyph glyph-name="Dcroat" unicode="&#x110;" 
d="M463 94q283 0 456 171t173 419q0 180 -102 284t-318 105h-180l-86 -411h288l-20 -95h-289l-100 -473h178zM442 0h-456l20 94h131l56 47l90 426h-181l21 95h180l78 366l-33 45h-133l21 94h452q258 0 387 -131t129 -352q0 -288 -211 -486t-551 -198z" />
    <glyph glyph-name="dcroat" unicode="&#x111;" 
d="M231 334q0 -117 75 -193t200 -75q217 0 373 227l47 215q-27 106 -107 166t-205 61q-164 -1 -274 -119t-109 -282zM496 -29q-166 -1 -270 103t-105 260q0 205 146 350t347 145q125 0 216 -58t120 -144l70 329h-377l16 82h379l23 109l-23 29h-241l18 79h369l-47 -217h174
l-17 -82h-174l-170 -800q-18 -90 45 -90q31 0 54 28t44 68t25 47l82 -33q-53 -98 -85 -137q-55 -68 -133 -68q-77 -1 -112 51t-10 144q-154 -195 -364 -195z" />
    <glyph glyph-name="Emacron" unicode="&#x112;" 
d="M336 94h563l55 45l50 230h96l-80 -369h-1030l20 94h178l58 45l186 889l-33 45h-178l19 94h1013l-77 -360h-97l47 221l-34 45h-547l-90 -426h284l54 45l28 133h86l-94 -446h-86l27 133l-35 45h-283zM541 1481h614l-20 -99h-615z" />
    <glyph glyph-name="emacron" unicode="&#x113;" 
d="M489 1200h615l-21 -98h-614zM614 -29q-196 0 -322 120t-126 300q0 213 158 359t389 147q162 0 262 -73t100 -185q0 -147 -185 -216t-620 -67q12 -124 108 -206t236 -82q205 0 355 137l61 -70q-176 -164 -416 -164zM969 639q0 74 -74 119t-182 45q-173 1 -297 -101
t-144 -258q367 0 532 45t165 150z" />
    <glyph glyph-name="Ebreve" unicode="&#x114;" 
d="M336 94h563l55 45l50 230h96l-80 -369h-1030l20 94h178l58 45l186 889l-33 45h-178l19 94h1013l-77 -360h-97l47 221l-34 45h-547l-90 -426h284l54 45l28 133h86l-94 -446h-86l27 133l-35 45h-283zM838 1436q90 0 172 58t123 159l73 -19q-55 -150 -153 -234
q-97 -84 -227 -83q-130 0 -196 84t-61 233l70 19q-2 -100 53 -159q56 -58 146 -58z" />
    <glyph glyph-name="ebreve" unicode="&#x115;" 
d="M789 1159q89 -1 171 59t123 160l74 -18q-55 -152 -153 -235t-228 -83t-196 84t-60 234l70 18q-2 -102 54 -160t145 -59zM614 -29q-196 0 -322 120t-126 300q0 213 158 359t389 147q162 0 262 -73t100 -185q0 -147 -185 -216t-620 -67q12 -124 108 -206t236 -82
q205 0 355 137l61 -70q-176 -164 -416 -164zM969 639q0 74 -74 119t-182 45q-173 1 -297 -101t-144 -258q367 0 532 45t165 150z" />
    <glyph glyph-name="Edotaccent" unicode="&#x116;" 
d="M336 94h563l55 45l50 230h96l-80 -369h-1030l20 94h178l58 45l186 889l-33 45h-178l19 94h1013l-77 -360h-97l47 221l-34 45h-547l-90 -426h284l54 45l28 133h86l-94 -446h-86l27 133l-35 45h-283zM961 1463q0 -49 -34 -83t-83 -34t-84 34t-35 82q0 49 35 84t84 35
t83 -34t34 -84z" />
    <glyph glyph-name="edotaccent" unicode="&#x117;" 
d="M918 1211q0 -49 -34 -83t-84 -34t-84 34t-34 83q0 50 34 84t84 34t84 -34t34 -84zM614 -29q-196 0 -322 120t-126 300q0 213 158 359t389 147q162 0 262 -73t100 -185q0 -147 -185 -216t-620 -67q12 -124 108 -206t236 -82q205 0 355 137l61 -70q-176 -164 -416 -164z
M969 639q0 74 -74 119t-182 45q-173 1 -297 -101t-144 -258q367 0 532 45t165 150z" />
    <glyph glyph-name="Eogonek" unicode="&#x118;" 
d="M639 -471q-72 0 -112 38q-40 39 -40 105q-1 66 57 140t193 188h-747l20 94h178l58 45l186 889l-33 45h-178l19 94h1013l-77 -360h-97l47 221l-34 45h-547l-90 -426h284l54 45l28 133h86l-94 -446h-86l27 133l-35 45h-283l-100 -463h563l55 45l50 230h96l-80 -369h-158
q-158 -135 -218 -204t-60 -122q0 -59 74 -59t184 100l49 -69q-129 -117 -252 -117z" />
    <glyph glyph-name="eogonek" unicode="&#x119;" 
d="M680 -471q-72 0 -112 38t-40 97q0 113 215 324q-66 -16 -129 -17q-196 0 -322 120t-126 300q0 213 158 359t389 147q162 0 262 -73t100 -185q0 -147 -185 -217t-618 -68q12 -125 106 -206t236 -80q205 0 355 137l59 -72q-403 -332 -403 -459q-1 -59 73 -59t187 100
l47 -69q-129 -117 -252 -117zM969 639q0 74 -74 119t-182 45q-171 -1 -295 -103t-144 -258h9q365 4 525 48t161 149z" />
    <glyph glyph-name="Ecaron" unicode="&#x11a;" 
d="M336 94h563l55 45l50 230h96l-80 -369h-1030l20 94h178l58 45l186 889l-33 45h-178l19 94h1013l-77 -360h-97l47 221l-34 45h-547l-90 -426h284l54 45l28 133h86l-94 -446h-86l27 133l-35 45h-283zM828 1331q-50 0 -76 55l-146 291l43 33l195 -233l303 233l43 -33
l-262 -291q-50 -55 -100 -55z" />
    <glyph glyph-name="ecaron" unicode="&#x11b;" 
d="M614 -29q-196 0 -322 120t-126 300q0 213 158 359t389 147q162 0 262 -73t100 -185q0 -147 -185 -216t-620 -67q12 -124 108 -206t236 -82q205 0 355 137l61 -70q-176 -164 -416 -164zM969 639q0 74 -74 119t-182 45q-173 1 -297 -101t-144 -258q367 0 532 45t165 150z
M778 1051q-50 0 -78 55l-143 291l43 33l195 -234l303 234l41 -33l-260 -291q-51 -55 -101 -55z" />
    <glyph glyph-name="Gcircumflex" unicode="&#x11c;" 
d="M889 1706q49 0 76 -55l145 -291l-43 -33l-197 232l-303 -232l-41 33l262 291q52 55 101 55zM1059 795q-27 299 -317 299q-142 0 -265 -94t-184 -238q-61 -143 -61 -309t84 -274q85 -108 243 -107q105 0 191 49t184 143l35 160l-31 41h-166l21 94h430l-21 -94h-84l-51 -43
l-90 -422h-100l26 117l-20 8q-159 -154 -347 -154q-188 1 -302 139t-113 349q0 295 179 516t456 221q110 0 194 -46t119 -120l25 10l26 127h97l-80 -372h-78z" />
    <glyph glyph-name="gcircumflex" unicode="&#x11d;" 
d="M506 4q-166 0 -270 109t-105 274q0 217 141 363t346 147q126 0 222 -63t125 -154l39 188h260l-21 -94h-127l-41 -33l-149 -710q-45 -209 -178 -327q-134 -118 -312 -118t-282 74t-105 182q-2 53 27 87t72 34q44 1 68 -23t24 -59t-22 -57t-52 -21q14 -59 83 -95t169 -36
q156 0 264 98t143 265l37 176q-156 -207 -356 -207zM618 801q-166 0 -276 -119t-109 -293q0 -127 77 -208t201 -81t214 62t170 182l41 215q-27 111 -110 177t-208 65zM813 1425q49 0 78 -55l143 -291l-41 -32l-198 231l-303 -231l-39 32l260 291q51 55 100 55z" />
    <glyph glyph-name="Gbreve" unicode="&#x11e;" 
d="M1059 795q-27 299 -317 299q-142 0 -265 -94t-184 -238q-61 -143 -61 -309t84 -274q85 -108 243 -107q105 0 191 49t184 143l35 160l-31 41h-166l21 94h430l-21 -94h-84l-51 -43l-90 -422h-100l26 117l-20 8q-159 -154 -347 -154q-188 1 -302 139t-113 349q0 295 179 516
t456 221q110 0 194 -46t119 -120l25 10l26 127h97l-80 -372h-78zM848 1436q90 0 172 58t123 159l74 -19q-55 -150 -153 -234t-228 -83q-129 0 -196 84t-60 233l69 19q-2 -100 53 -159q56 -58 146 -58z" />
    <glyph glyph-name="gbreve" unicode="&#x11f;" 
d="M765 1159q89 -1 171 59t123 160l74 -18q-55 -152 -153 -235t-228 -83q-129 0 -196 84t-60 234l69 18q-1 -102 55 -160t145 -59zM506 4q-166 0 -270 109t-105 274q0 217 141 363t346 147q126 0 222 -63t125 -154l39 188h260l-21 -94h-127l-41 -33l-149 -710
q-45 -209 -178 -327q-134 -118 -312 -118t-282 74t-105 182q-2 53 27 87t72 34q44 1 68 -23t24 -59t-22 -57t-52 -21q14 -59 83 -95t169 -36q156 0 264 98t143 265l37 176q-156 -207 -356 -207zM618 801q-166 0 -276 -119t-109 -293q0 -127 77 -208t201 -81t214 62t170 182
l41 215q-27 111 -110 177t-208 65z" />
    <glyph glyph-name="Gdotaccent" unicode="&#x120;" 
d="M1059 795q-27 299 -317 299q-142 0 -265 -94t-184 -238q-61 -143 -61 -309t84 -274q85 -108 243 -107q105 0 191 49t184 143l35 160l-31 41h-166l21 94h430l-21 -94h-84l-51 -43l-90 -422h-100l26 117l-20 8q-159 -154 -347 -154q-188 1 -302 139t-113 349q0 295 179 516
t456 221q110 0 194 -46t119 -120l25 10l26 127h97l-80 -372h-78zM971 1463q0 -49 -34 -83t-83 -34t-84 34t-35 82q0 49 34 84t84 35t84 -34t34 -84z" />
    <glyph glyph-name="gdotaccent" unicode="&#x121;" 
d="M893 1211q0 -49 -34 -83t-84 -34t-84 34t-34 83q0 50 34 84t84 34t84 -34t34 -84zM506 4q-166 0 -270 109t-105 274q0 217 141 363t346 147q126 0 222 -63t125 -154l39 188h260l-21 -94h-127l-41 -33l-149 -710q-45 -209 -178 -327q-134 -118 -312 -118t-282 74t-105 182
q-2 53 27 87t72 34q44 1 68 -23t24 -59t-22 -57t-52 -21q14 -59 83 -95t169 -36q156 0 264 98t143 265l37 176q-156 -207 -356 -207zM618 801q-166 0 -276 -119t-109 -293q0 -127 77 -208t201 -81t214 62t170 182l41 215q-27 111 -110 177t-208 65z" />
    <glyph glyph-name="Gcommaaccent" unicode="&#x122;" 
d="M1059 795q-27 299 -317 299q-142 0 -265 -94t-184 -238q-61 -143 -61 -309t84 -274q85 -108 243 -107q105 0 191 49t184 143l35 160l-31 41h-166l21 94h430l-21 -94h-84l-51 -43l-90 -422h-100l26 117l-20 8q-159 -154 -347 -154q-188 1 -302 139t-113 349q0 295 179 516
t456 221q110 0 194 -46t119 -120l25 10l26 127h97l-80 -372h-78zM393 -270q0 47 33 80q33 32 79 32t79 -34q32 -34 32 -79q0 -46 -36 -89l-228 -236l-45 39l162 192q-76 21 -76 95z" />
    <glyph glyph-name="gcommaaccent" unicode="&#x123;" 
d="M506 4q-166 0 -270 109t-105 274q0 217 141 363t346 147q126 0 222 -63t125 -154l39 188h260l-21 -94h-127l-41 -33l-149 -710q-45 -209 -178 -327q-134 -118 -312 -118t-282 74t-105 182q-2 53 27 87t72 34q44 1 68 -23t24 -59t-22 -57t-52 -21q14 -59 83 -95t169 -36
q156 0 264 98t143 265l37 176q-156 -207 -356 -207zM618 801q-166 0 -276 -119t-109 -293q0 -127 77 -208t201 -81t214 62t170 182l41 215q-27 111 -110 177t-208 65zM862 1190q0 -47 -33 -80t-79 -33t-78 34q-33 34 -33 80t37 89l227 236l45 -39l-162 -191q76 -24 76 -96z
" />
    <glyph glyph-name="Hcircumflex" unicode="&#x124;" 
d="M883 1706q49 0 75 -55l146 -291l-43 -33l-197 232l-303 -232l-41 33l262 291q52 55 101 55zM1032 1028l-35 45h-123l21 94h438l-20 -94h-123l-55 -45l-189 -889l35 -45h123l-21 -94h-438l21 94h122l56 45l90 422h-557l-90 -422l35 -45h122l-20 -94h-438l20 94h123l55 45
l189 889l-35 45h-123l21 94h438l-21 -94h-123l-55 -45l-78 -373h557z" />
    <glyph glyph-name="hcircumflex" unicode="&#x125;" 
d="M885 1718q49 0 76 -55l145 -291l-43 -33l-197 232l-303 -232l-41 33l262 291q52 55 101 55zM780 897q134 0 194 -82t30 -231l-91 -428q-9 -43 5 -67q14 -23 42 -23t52 28q23 28 44 68t25 47l82 -33q-53 -98 -85 -137q-54 -66 -133 -67q-79 -2 -114 52t-18 136l86 397
q53 244 -139 244q-184 0 -379 -262l-115 -539h-98l238 1116l-35 45h-140l19 94h285l-125 -589q174 231 370 231z" />
    <glyph glyph-name="Hbar" unicode="&#x126;" 
d="M444 94l-20 -94h-438l20 94h123l55 45l129 609h-161l18 88h162l41 192l-35 45h-123l21 94h438l-21 -94h-123l-55 -45l-41 -192h557l41 192l-35 45h-123l21 94h438l-20 -94h-123l-55 -45l-41 -192h180l-19 -88h-180l-129 -609l35 -45h123l-21 -94h-438l21 94h122l56 45
l69 322h-559l-67 -322l35 -45h122zM375 555h557l41 193h-557z" />
    <glyph glyph-name="hbar" unicode="&#x127;" 
d="M752 750q-190 0 -381 -263l-105 -487h-98l203 956h-178l18 82h178l23 107l-25 31h-154l17 79h285l-46 -217h373l-18 -82h-373l-72 -342q174 231 371 232q134 0 194 -82t27 -232l-78 -376q-9 -43 5 -67q14 -23 42 -23t52 28q23 28 44 68t25 47l82 -33q-53 -98 -85 -137
q-54 -66 -133 -67q-79 -2 -114 52t-18 136l76 346q53 244 -137 244z" />
    <glyph glyph-name="Itilde" unicode="&#x128;" 
d="M994 1339q-72 0 -120 38t-86 76t-82 38t-85 -41t-56 -107h-104q23 109 93 178q71 69 161 68q55 0 101 -39q46 -38 85 -76t84 -38t86 40t55 109h105q-23 -109 -93 -177q-72 -68 -144 -69zM700 1028l-34 45h-316l19 94h831l-20 -94h-318l-55 -45l-189 -889l35 -45h318
l-21 -94h-831l20 94h318l55 45z" />
    <glyph glyph-name="itilde" unicode="&#x129;" 
d="M862 1069q-72 0 -120 39t-87 77t-81 38t-86 -41q-42 -41 -56 -107h-104q24 109 94 177t160 67q55 0 101 -39t85 -77t84 -38t86 41t55 109h105q-24 -109 -94 -177t-142 -69zM719 70q85 0 153 70t138 233l82 -41q-82 -184 -171 -272t-213 -89q-124 1 -193 95t-40 231
l92 432l-37 45h-352l21 94h495l-121 -575q-20 -99 21 -161t125 -62z" />
    <glyph glyph-name="Imacron" unicode="&#x12a;" 
d="M543 1481h614l-20 -99h-615zM700 1028l-34 45h-316l19 94h831l-20 -94h-318l-55 -45l-189 -889l35 -45h318l-21 -94h-831l20 94h318l55 45z" />
    <glyph glyph-name="imacron" unicode="&#x12b;" 
d="M410 1200h614l-20 -98h-615zM719 70q85 0 153 70t138 233l82 -41q-82 -184 -171 -272t-213 -89q-124 1 -193 95t-40 231l92 432l-37 45h-352l21 94h495l-121 -575q-20 -99 21 -161t125 -62z" />
    <glyph glyph-name="Ibreve" unicode="&#x12c;" 
d="M840 1436q90 0 172 58t123 159l73 -19q-55 -150 -153 -234q-97 -84 -227 -83q-130 0 -196 84t-61 233l70 19q-2 -100 53 -159q56 -58 146 -58zM700 1028l-34 45h-316l19 94h831l-20 -94h-318l-55 -45l-189 -889l35 -45h318l-21 -94h-831l20 94h318l55 45z" />
    <glyph glyph-name="ibreve" unicode="&#x12d;" 
d="M708 1159q89 -1 171 59t122 160l74 -18q-55 -152 -153 -235t-228 -83t-196 84t-60 234l70 18q-2 -102 54 -160t146 -59zM719 70q85 0 153 70t138 233l82 -41q-82 -184 -171 -272t-213 -89q-124 1 -193 95t-40 231l92 432l-37 45h-352l21 94h495l-121 -575
q-20 -99 21 -161t125 -62z" />
    <glyph glyph-name="Iogonek" unicode="&#x12e;" 
d="M573 -471q-71 0 -111 38q-40 39 -40 105t57 140t193 188h-553l20 94h318l55 45l188 889l-34 45h-316l19 94h831l-20 -94h-318l-55 -45l-189 -889l35 -45h318l-21 -94h-153q-158 -135 -218 -204q-61 -69 -61 -125t75 -56t183 100l49 -69q-129 -117 -252 -117z" />
    <glyph glyph-name="iogonek" unicode="&#x12f;" 
d="M721 -471q-72 0 -112 38t-40 97q0 119 174 316q-33 -4 -47 -5q-120 1 -186 93t-35 229l92 432l-37 45h-352l21 94h495l-121 -575q-20 -99 21 -161t125 -62q85 0 153 70t138 233l82 -41q-90 -201 -183 -283q-244 -270 -243 -375q0 -59 74 -59t186 100l47 -69
q-129 -117 -252 -117zM795 1211q0 -49 -34 -83t-84 -34t-84 34t-34 83q0 50 34 84t84 34t84 -34t34 -84z" />
    <glyph glyph-name="Idotaccent" unicode="&#x130;" 
d="M965 1463q0 -49 -34 -83t-83 -34t-84 34t-35 82q0 49 35 84t84 35t83 -34t34 -84zM700 1028l-34 45h-316l19 94h831l-20 -94h-318l-55 -45l-189 -889l35 -45h318l-21 -94h-831l20 94h318l55 45z" />
    <glyph glyph-name="dotlessi" unicode="&#x131;" 
d="M719 70q85 0 153 70t138 233l82 -41q-82 -184 -171 -272t-213 -89q-124 1 -193 95t-40 231l92 432l-37 45h-352l21 94h495l-121 -575q-20 -99 21 -161t125 -62z" />
    <glyph glyph-name="Jcircumflex" unicode="&#x134;" 
d="M1042 1706q49 0 76 -55l146 -291l-43 -33l-197 232l-303 -232l-41 33l262 291q51 55 100 55zM442 -29q-154 1 -251 97t-97 229q0 76 36 120t87 44t83 -30t32 -74q0 -43 -31 -71t-88 -26q0 -78 65 -135t183 -57q251 0 336 385l123 575l-37 45h-346l20 94h709l-19 -94h-168
l-53 -45l-125 -586q-104 -471 -459 -471z" />
    <glyph glyph-name="jcircumflex" unicode="&#x135;" 
d="M138 37q48 0 78 -28q30 -27 30 -67t-29 -67t-72 -27q9 -70 67 -116t157 -47q285 0 366 376l144 668l-37 45h-453l21 94h596l-175 -817q-47 -229 -169 -343t-284 -114q-163 0 -258 92t-95 218q-2 57 31 95q34 38 82 38zM993 1425q49 0 78 -55l143 -291l-40 -32l-199 231
l-303 -231l-39 32l260 291q51 55 100 55z" />
    <glyph glyph-name="Kcommaaccent" unicode="&#x136;" 
d="M444 94l-20 -94h-438l20 94h123l55 45l189 889l-35 45h-123l21 94h438l-21 -94h-123l-55 -45l-115 -536l654 544l-29 37h-113l21 94h426l-21 -94h-114l-494 -411l297 -568h148l-21 -94h-442l20 94h119l45 37l-244 467l-276 -231l-49 -228l35 -45h122zM379 -270
q0 47 33 80q33 32 79 32q47 0 79 -34t32 -79q0 -46 -37 -89l-227 -236l-45 39l162 192q-76 21 -76 95z" />
    <glyph glyph-name="kcommaaccent" unicode="&#x137;" 
d="M913 -29q-75 0 -121 46t-59 128l-16 105q-27 184 -164 205l-262 -170l-62 -285h-98l238 1116l-37 45h-154l21 94h297l-185 -870l549 363l2 30h-151l20 90h457l-21 -90h-106l-426 -272q143 -39 172 -230l16 -112q12 -104 97 -105q42 0 74 33t75 113l74 -41
q-101 -193 -230 -193zM381 -270q0 47 33 80q33 32 79 32q47 0 79 -34t32 -79q0 -46 -37 -89l-227 -236l-45 39l162 192q-76 21 -76 95z" />
    <glyph glyph-name="kgreenlandic" unicode="&#x138;" 
d="M913 -29q-75 0 -121 46t-59 128l-16 105q-27 184 -164 205l-262 -170l-62 -285h-98l156 729l-37 45h-154l21 94h297l-103 -483l549 363l2 30h-151l20 90h457l-21 -90h-106l-426 -272q143 -39 172 -230l16 -112q12 -104 97 -105q42 0 74 33t75 113l74 -41
q-101 -193 -230 -193z" />
    <glyph glyph-name="Lacute" unicode="&#x139;" 
d="M254 1167h545l-21 -94h-182l-55 -45l-199 -934h563l56 45l59 283h96l-90 -422h-1022l21 94h170l57 45l186 889l-32 45h-173zM956 1647q0 -57 -63 -103l-281 -217l-30 31l204 291q43 68 103 67q29 0 48 -19t19 -50z" />
    <glyph glyph-name="lacute" unicode="&#x13a;" 
d="M690 70q84 0 153 70t138 233l84 -41q-82 -184 -171 -272t-213 -89q-124 1 -194 95t-41 231l177 819l-37 45h-367l19 94h512l-205 -962q-20 -100 20 -162q41 -61 125 -61zM1022 1729q29 1 48 -19t20 -51q0 -57 -64 -103l-281 -217l-30 31l205 291q43 68 102 68z" />
    <glyph glyph-name="Lcommaaccent" unicode="&#x13b;" 
d="M254 1167h545l-21 -94h-182l-55 -45l-199 -934h563l56 45l59 283h96l-90 -422h-1022l21 94h170l57 45l186 889l-32 45h-173zM356 -270q0 47 33 80q33 32 79 32t79 -34t33 -79q0 -46 -37 -89l-228 -236l-45 39l162 192q-76 21 -76 95z" />
    <glyph glyph-name="lcommaaccent" unicode="&#x13c;" 
d="M690 70q84 0 153 70t138 233l84 -41q-82 -184 -171 -272t-213 -89q-124 1 -194 95t-41 231l177 819l-37 45h-367l19 94h512l-205 -962q-20 -100 20 -162q41 -61 125 -61zM485 -270q0 47 33 80q33 32 79 32t79 -34t33 -79q0 -46 -37 -89l-228 -236l-45 39l162 192
q-76 21 -76 95z" />
    <glyph glyph-name="Lcaron" unicode="&#x13d;" 
d="M254 1167h545l-21 -94h-182l-55 -45l-199 -934h563l56 45l59 283h96l-90 -422h-1022l21 94h170l57 45l186 889l-32 45h-173zM1178 1290q32 0 56 -22t24 -60q0 -37 -37 -80l-228 -254l-35 21l127 315q27 80 93 80z" />
    <glyph glyph-name="lcaron" unicode="&#x13e;" 
d="M690 70q84 0 153 70t138 233l84 -41q-82 -184 -171 -272t-213 -89q-124 1 -194 95t-41 231l177 819l-37 45h-367l19 94h512l-205 -962q-20 -100 20 -162q41 -61 125 -61zM1186 1464q32 0 56 -22t24 -60q0 -37 -37 -79l-228 -254l-34 20l127 315q27 80 92 80z" />
    <glyph glyph-name="Ldot" unicode="&#x13f;" 
d="M1088 690q-50 0 -84 34t-33 84q0 50 34 84q33 34 83 34t84 -34t34 -84t-34 -84t-84 -34zM254 1167h545l-21 -94h-182l-55 -45l-199 -934h563l56 45l59 283h96l-90 -422h-1022l21 94h170l57 45l186 889l-32 45h-173z" />
    <glyph glyph-name="ldot" unicode="&#x140;" 
d="M1261 598q-50 0 -84 34t-34 84t34 84t84 34t84 -34q33 -34 33 -84t-34 -84t-83 -34zM690 70q84 0 153 70t138 233l84 -41q-82 -184 -171 -272t-213 -89q-124 1 -194 95t-41 231l177 819l-37 45h-367l19 94h512l-205 -962q-20 -100 20 -162q41 -61 125 -61z" />
    <glyph glyph-name="Lslash" unicode="&#x141;" 
d="M1026 0h-1022l21 94h170l57 45l78 371l-180 -82l-33 86l235 102l86 412l-32 45h-173l21 94h545l-21 -94h-182l-55 -45l-78 -369l334 154l32 -86l-391 -176l-96 -457h563l56 45l59 283h96z" />
    <glyph glyph-name="lslash" unicode="&#x142;" 
d="M681 -29q-124 1 -194 95t-41 231l68 313l-301 -145l-41 78l367 180l84 393l-37 45h-367l19 94h512l-103 -481l295 144l41 -78l-360 -178l-78 -369q-20 -100 20 -162q41 -61 125 -61t153 70t138 233l84 -41q-82 -184 -171 -272t-213 -89z" />
    <glyph glyph-name="Nacute" unicode="&#x143;" 
d="M930 0h-111l-342 1047l-194 -908l34 -45h123l-20 -94h-434l20 94h123l55 45l189 889l-35 45h-123l21 94h311l321 -999l183 860l-35 45h-123l20 94h435l-21 -94h-123l-55 -45zM723 1358l205 291q43 68 102 67q29 0 48 -19t20 -50q0 -57 -64 -103l-280 -217z" />
    <glyph glyph-name="nacute" unicode="&#x144;" 
d="M784 897q134 0 194 -82t28 -231l-91 -428q-9 -43 5 -67q14 -23 44 -23t52 28t44 68q21 40 25 47l82 -33q-39 -72 -61 -106t-64 -66q-44 -33 -108 -33q-64 1 -98 55t-19 134l86 397q51 244 -139 244t-379 -262l-115 -539h-100l156 729l-35 45h-139l20 94h283l-43 -202
q178 231 372 231zM956 1436q28 0 48 -20t20 -50q0 -57 -63 -102l-281 -217l-31 30l205 291q43 68 102 68z" />
    <glyph glyph-name="Ncommaaccent" unicode="&#x145;" 
d="M930 0h-111l-342 1047l-194 -908l34 -45h123l-20 -94h-434l20 94h123l55 45l189 889l-35 45h-123l21 94h311l321 -999l183 860l-35 45h-123l20 94h435l-21 -94h-123l-55 -45zM373 -270q0 47 33 80q32 32 78 32t79 -34t33 -79q0 -46 -37 -89l-227 -236l-45 39l162 192
q-76 21 -76 95z" />
    <glyph glyph-name="ncommaaccent" unicode="&#x146;" 
d="M784 897q134 0 194 -82t28 -231l-91 -428q-9 -43 5 -67q14 -23 44 -23t52 28t44 68q21 40 25 47l82 -33q-39 -72 -61 -106t-64 -66q-44 -33 -108 -33q-64 1 -98 55t-19 134l86 397q51 244 -139 244t-379 -262l-115 -539h-100l156 729l-35 45h-139l20 94h283l-43 -202
q178 231 372 231zM365 -270q0 47 32 80q33 32 79 32t79 -34t33 -79q0 -46 -37 -89l-227 -236l-45 39l161 192q-75 21 -75 95z" />
    <glyph glyph-name="Ncaron" unicode="&#x147;" 
d="M930 0h-111l-342 1047l-194 -908l34 -45h123l-20 -94h-434l20 94h123l55 45l189 889l-35 45h-123l21 94h311l321 -999l183 860l-35 45h-123l20 94h435l-21 -94h-123l-55 -45zM815 1331q-49 0 -76 55l-145 291l43 33l194 -233l304 233l43 -33l-263 -291q-51 -55 -100 -55z
" />
    <glyph glyph-name="ncaron" unicode="&#x148;" 
d="M784 897q134 0 194 -82t28 -231l-91 -428q-9 -43 5 -67q14 -23 44 -23t52 28t44 68q21 40 25 47l82 -33q-39 -72 -61 -106t-64 -66q-44 -33 -108 -33q-64 1 -98 55t-19 134l86 397q51 244 -139 244t-379 -262l-115 -539h-100l156 729l-35 45h-139l20 94h283l-43 -202
q178 231 372 231zM752 1051q-49 0 -78 55l-144 291l43 33l195 -234l303 234l41 -33l-260 -291q-51 -55 -100 -55z" />
    <glyph glyph-name="Eng" unicode="&#x14a;" 
d="M429 -76q40 0 66 -24t25 -58q0 -70 -80 -73q28 -88 132 -88q104 1 162 73t95 242l-352 1051l-194 -908l34 -45h123l-20 -94h-434l20 94h123l55 45l189 889l-35 45h-123l21 94h311l321 -999l183 860l-35 45h-123l20 94h435l-21 -94h-123l-55 -45l-221 -1032
q-82 -402 -336 -404q-126 0 -192 60t-66 160q0 48 28 80t67 32z" />
    <glyph glyph-name="eng" unicode="&#x14b;" 
d="M782 801q-188 0 -379 -262l-114 -539h-101l156 729l-33 45h-141l20 94h283l-41 -202q174 231 371 231q135 0 194 -82t27 -231l-125 -590q-83 -400 -336 -402q-125 0 -193 60t-67 158q0 48 29 80q28 32 68 32t66 -24t26 -57q0 -34 -23 -54t-59 -23q31 -90 134 -90t162 76
q58 76 95 248l119 559q50 244 -138 244z" />
    <glyph glyph-name="Omacron" unicode="&#x14c;" 
d="M580 74q217 0 359 185t142 431q0 184 -85 294t-251 110q-219 0 -361 -184t-142 -433q0 -183 86 -293t252 -110zM745 1196q219 0 333 -139t114 -367q0 -287 -179 -503t-433 -216q-221 -1 -335 139t-114 367q0 287 180 503t434 216zM539 1481h614l-20 -99h-615z" />
    <glyph glyph-name="omacron" unicode="&#x14d;" 
d="M657 897q205 0 325 -120q120 -121 120 -317t-148 -342t-353 -146q-204 0 -325 119q-120 121 -120 317t148 343q149 146 353 146zM602 66q158 0 275 118t117 276q0 156 -91 250t-249 93q-158 0 -274 -118q-116 -117 -116 -275t90 -251t248 -93zM485 1200h615l-21 -98h-614
z" />
    <glyph glyph-name="Obreve" unicode="&#x14e;" 
d="M580 74q217 0 359 185t142 431q0 184 -85 294t-251 110q-219 0 -361 -184t-142 -433q0 -183 86 -293t252 -110zM745 1196q219 0 333 -139t114 -367q0 -287 -179 -503t-433 -216q-221 -1 -335 139t-114 367q0 287 180 503t434 216zM838 1436q90 0 172 58t123 159l73 -19
q-55 -150 -153 -234q-97 -84 -227 -83q-130 0 -196 84t-61 233l70 19q-2 -100 53 -159q56 -58 146 -58z" />
    <glyph glyph-name="obreve" unicode="&#x14f;" 
d="M785 1159q89 -1 171 59t123 160l74 -18q-55 -152 -153 -235t-228 -83t-196 84t-60 234l70 18q-2 -102 54 -160t145 -59zM657 897q205 0 325 -120q120 -121 120 -317t-148 -342t-353 -146q-204 0 -325 119q-120 121 -120 317t148 343q149 146 353 146zM602 66
q158 0 275 118t117 276q0 156 -91 250t-249 93q-158 0 -274 -118q-116 -117 -116 -275t90 -251t248 -93z" />
    <glyph glyph-name="Ohungarumlaut" unicode="&#x150;" 
d="M1329 1647q0 -57 -65 -103l-281 -217l-31 31l205 291q47 68 103 67q29 0 49 -19t20 -50zM950 1647q0 -57 -65 -103l-281 -217l-31 31l205 291q47 68 103 67q29 0 49 -19t20 -50zM580 74q217 0 359 185t142 431q0 184 -85 294t-251 110q-219 0 -361 -184t-142 -433
q0 -183 86 -293t252 -110zM745 1196q219 0 333 -139t114 -367q0 -287 -179 -503t-433 -216q-221 -1 -335 139t-114 367q0 287 180 503t434 216z" />
    <glyph glyph-name="ohungarumlaut" unicode="&#x151;" 
d="M657 897q205 0 325 -120q120 -121 120 -317t-148 -342t-353 -146q-204 0 -325 119q-120 121 -120 317t148 343q149 146 353 146zM602 66q158 0 275 118t117 276q0 156 -91 250t-249 93q-158 0 -274 -118q-116 -117 -116 -275t90 -251t248 -93zM1198 1436q29 0 48 -20
t20 -50q0 -59 -64 -102l-280 -217l-31 30l205 291q43 68 102 68zM819 1436q29 0 48 -20t20 -50q0 -59 -64 -102l-280 -217l-31 30l205 291q43 68 102 68z" />
    <glyph glyph-name="OE" unicode="&#x152;" 
d="M543 0q-233 0 -355 127q-121 127 -120 336q0 297 194 501q195 204 522 203h555l-77 -360h-99l47 221l-32 45h-310l-90 -426h281l-19 -90h-282l-99 -463h324l55 45l49 230h97l-80 -369h-561zM176 463q0 -169 93 -269t288 -100l209 979q-274 0 -432 -180t-158 -430z" />
    <glyph glyph-name="oe" unicode="&#x153;" 
d="M1151 682q0 51 -35 85t-106 34q-109 1 -198 -93t-128 -231h8q215 17 337 63t122 142zM590 571q0 105 -41 167t-117 63q-123 0 -215 -156t-92 -348q0 -105 41 -167t115 -62q125 0 217 155t92 348zM672 674q144 223 354 223q107 0 167 -60t60 -143q1 -143 -151 -214
t-436 -91q-4 -45 -4 -70q0 -115 48 -185t136 -68q127 0 260 133l51 -68q-160 -160 -326 -160q-92 1 -155 61t-90 165q-60 -101 -142 -163t-182 -62t-168 89q-68 90 -67 238q0 240 125 419t288 179q88 0 150 -60t82 -163z" />
    <glyph glyph-name="Racute" unicode="&#x154;" 
d="M1032 1647q0 -57 -63 -103l-281 -217l-31 31l205 291q43 68 103 67q29 0 48 -19t19 -50zM776 1167q197 -1 296 -71t97 -201q-1 -154 -123 -249t-344 -107l236 -443h203l-21 -96h-323l20 94l-229 443h-219l-84 -398l34 -45h140l-21 -94h-452l20 94h121l55 45l189 889
l-35 45h-121l21 94h540zM657 631q199 -1 300 67t102 193q0 182 -297 182h-279l-96 -442h270z" />
    <glyph glyph-name="racute" unicode="&#x155;" 
d="M924 629q0 41 26 65t55 25q30 0 46 -12q6 14 0 26q-6 72 -106 72t-214 -95t-258 -239l-100 -471h-99l156 729l-35 45h-239l20 94h381l-59 -278q164 168 227 217q119 90 225 90t156 -55q50 -56 49 -134q0 -78 -37 -122t-87 -45q-50 0 -79 23q-28 24 -28 65zM979 1436
q29 0 48 -20t20 -50q0 -57 -64 -102l-281 -217l-30 30l205 291q43 68 102 68z" />
    <glyph glyph-name="Rcommaaccent" unicode="&#x156;" 
d="M776 1167q197 -1 296 -71t97 -201q-1 -154 -123 -249t-344 -107l236 -443h203l-21 -96h-323l20 94l-229 443h-219l-84 -398l34 -45h140l-21 -94h-452l20 94h121l55 45l189 889l-35 45h-121l21 94h540zM657 631q199 -1 300 67t102 193q0 182 -297 182h-279l-96 -442h270z
M334 -270q0 47 33 80q33 32 79 32t78 -34q33 -34 33 -79q0 -46 -37 -89l-227 -236l-45 39l162 192q-76 21 -76 95z" />
    <glyph glyph-name="rcommaaccent" unicode="&#x157;" 
d="M924 629q0 41 26 65t55 25q30 0 46 -12q6 14 0 26q-6 72 -106 72t-214 -95t-258 -239l-100 -471h-99l156 729l-35 45h-239l20 94h381l-59 -278q164 168 227 217q119 90 225 90t156 -55q50 -56 49 -134q0 -78 -37 -122t-87 -45q-50 0 -79 23q-28 24 -28 65zM160 -270
q0 47 33 80q33 32 79 32t78 -34q33 -34 33 -79q0 -46 -37 -89l-227 -236l-45 39l162 192q-76 21 -76 95z" />
    <glyph glyph-name="Rcaron" unicode="&#x158;" 
d="M776 1167q197 -1 296 -71t97 -201q-1 -154 -123 -249t-344 -107l236 -443h203l-21 -96h-323l20 94l-229 443h-219l-84 -398l34 -45h140l-21 -94h-452l20 94h121l55 45l189 889l-35 45h-121l21 94h540zM657 631q199 -1 300 67t102 193q0 182 -297 182h-279l-96 -442h270z
M748 1331q-49 0 -76 55l-146 291l43 33l195 -233l303 233l43 -33l-262 -291q-51 -55 -100 -55z" />
    <glyph glyph-name="rcaron" unicode="&#x159;" 
d="M924 629q0 41 26 65t55 25q30 0 46 -12q6 14 0 26q-6 72 -106 72t-214 -95t-258 -239l-100 -471h-99l156 729l-35 45h-239l20 94h381l-59 -278q164 168 227 217q119 90 225 90t156 -55q50 -56 49 -134q0 -78 -37 -122t-87 -45q-50 0 -79 23q-28 24 -28 65zM774 1051
q-49 0 -78 55l-143 291l43 33l195 -234l303 234l41 -33l-261 -291q-51 -55 -100 -55z" />
    <glyph glyph-name="Sacute" unicode="&#x15a;" 
d="M1083 1647q0 -57 -63 -103l-281 -217l-30 31l204 291q43 68 103 67q29 0 48 -19t19 -50zM626 68q144 0 238 74t94 196q0 139 -159 182l-267 68q-124 35 -190 94t-66 162q0 156 119 254t293 98q123 0 213 -49t131 -125l29 12l29 133h98l-82 -376h-84q-43 309 -334 309
q-131 0 -219 -67t-88 -177q0 -70 48 -108t140 -62l269 -70q113 -31 171 -93t56 -173q0 -164 -125 -272t-311 -107q-133 1 -241 57t-150 144l-29 -14l-35 -158h-98l88 408h82q20 -168 128 -254t252 -86z" />
    <glyph glyph-name="sacute" unicode="&#x15b;" 
d="M258 646q0 100 111 176t273 75q162 0 274 -68q110 -68 110 -172q0 -51 -29 -81t-69 -29t-64 23t-24 57t23 55q24 20 63 18q-29 51 -109 81q-79 30 -187 30t-189 -48t-81 -120q0 -51 38 -78t120 -45l283 -71q213 -51 213 -203q0 -125 -123 -200t-299 -75t-308 78t-132 189
q0 53 28 83q29 29 68 29q40 0 64 -22t24 -57q0 -33 -22 -55t-56 -19q37 -57 133 -99t216 -41q120 -1 211 51t91 134q1 88 -159 125l-269 67q-117 27 -170 70q-53 42 -53 142zM938 1436q29 0 48 -20t20 -50q0 -57 -64 -102l-280 -217l-31 30l205 291q43 68 102 68z" />
    <glyph glyph-name="Scircumflex" unicode="&#x15c;" 
d="M854 1706q49 0 76 -55l145 -291l-43 -33l-196 232l-304 -232l-40 33l262 291q51 55 100 55zM626 68q144 0 238 74t94 196q0 139 -159 182l-267 68q-124 35 -190 94t-66 162q0 156 119 254t293 98q123 0 213 -49t131 -125l29 12l29 133h98l-82 -376h-84q-43 309 -334 309
q-131 0 -219 -67t-88 -177q0 -70 48 -108t140 -62l269 -70q113 -31 171 -93t56 -173q0 -164 -125 -272t-311 -107q-133 1 -241 57t-150 144l-29 -14l-35 -158h-98l88 408h82q20 -168 128 -254t252 -86z" />
    <glyph glyph-name="scircumflex" unicode="&#x15d;" 
d="M258 646q0 100 111 176t273 75q162 0 274 -68q110 -68 110 -172q0 -51 -29 -81t-69 -29t-64 23t-24 57t23 55q24 20 63 18q-29 51 -109 81q-79 30 -187 30t-189 -48t-81 -120q0 -51 38 -78t120 -45l283 -71q213 -51 213 -203q0 -125 -123 -200t-299 -75t-308 78t-132 189
q0 53 28 83q29 29 68 29q40 0 64 -22t24 -57q0 -33 -22 -55t-56 -19q37 -57 133 -99t216 -41q120 -1 211 51t91 134q1 88 -159 125l-269 67q-117 27 -170 70q-53 42 -53 142zM791 1425q49 0 77 -55l144 -291l-41 -32l-199 231l-303 -231l-39 32l260 291q52 55 101 55z" />
    <glyph glyph-name="Scedilla" unicode="&#x15e;" 
d="M682 -267q0 -79 -76 -139t-176 -59q-100 0 -172 44t-92 124l74 45q33 -137 186 -137q72 0 118 33t46 92q0 90 -166 82l-59 47l88 135q-156 51 -215 172l-29 -14l-35 -158h-98l88 408h82q20 -168 128 -254t252 -86t238 74t94 196q0 139 -159 182l-267 68q-124 35 -190 94
t-66 162q0 156 119 254t293 98q123 0 213 -49t131 -125l29 12l29 133h98l-82 -376h-84q-43 309 -334 309q-131 0 -219 -67t-88 -177q0 -70 48 -108t140 -62l269 -70q113 -31 171 -93t56 -173q0 -164 -125 -272t-311 -107q-51 0 -107 11l-57 -88q97 0 157 -41t60 -120z" />
    <glyph glyph-name="scedilla" unicode="&#x15f;" 
d="M416 -465q-100 0 -172 44t-92 124l73 45q33 -137 187 -137q72 0 118 33t45 92q0 90 -165 82l-60 47l82 125q-123 32 -202 98t-78 150q0 53 28 83q29 29 68 29q40 0 64 -22t24 -57q0 -33 -22 -55t-56 -19q37 -57 133 -99t216 -41q120 -1 211 51t91 134q0 88 -159 125
l-269 67q-117 27 -170 70q-53 42 -53 142t111 176t273 75q162 0 274 -68q110 -68 110 -172q0 -51 -29 -81t-69 -29t-64 23t-24 57t23 55q24 20 63 18q-29 51 -109 81q-79 30 -187 30t-189 -48t-81 -120q0 -51 38 -78t120 -45l283 -71q213 -51 213 -203q0 -125 -123 -200
t-295 -75q-47 0 -92 6l-53 -83q98 0 157 -41q60 -41 60 -120t-76 -139t-176 -59z" />
    <glyph glyph-name="Scaron" unicode="&#x160;" 
d="M801 1331q-49 0 -76 55l-145 291l43 33l194 -233l303 233l43 -33l-262 -291q-51 -55 -100 -55zM626 68q144 0 238 74t94 196q0 139 -159 182l-267 68q-124 35 -190 94t-66 162q0 156 119 254t293 98q123 0 213 -49t131 -125l29 12l29 133h98l-82 -376h-84
q-43 309 -334 309q-131 0 -219 -67t-88 -177q0 -70 48 -108t140 -62l269 -70q113 -31 171 -93t56 -173q0 -164 -125 -272t-311 -107q-133 1 -241 57t-150 144l-29 -14l-35 -158h-98l88 408h82q20 -168 128 -254t252 -86z" />
    <glyph glyph-name="scaron" unicode="&#x161;" 
d="M258 646q0 100 111 176t273 75q162 0 274 -68q110 -68 110 -172q0 -51 -29 -81t-69 -29t-64 23t-24 57t23 55q24 20 63 18q-29 51 -109 81q-79 30 -187 30t-189 -48t-81 -120q0 -51 38 -78t120 -45l283 -71q213 -51 213 -203q0 -125 -123 -200t-299 -75t-308 78t-132 189
q0 53 28 83q29 29 68 29q40 0 64 -22t24 -57q0 -33 -22 -55t-56 -19q37 -57 133 -99t216 -41q120 -1 211 51t91 134q1 88 -159 125l-269 67q-117 27 -170 70q-53 42 -53 142zM734 1051q-50 0 -79 55l-143 291l43 33l195 -234l303 234l41 -33l-260 -291q-50 -55 -100 -55z
" />
    <glyph glyph-name="Tcommaaccent" unicode="&#x162;" 
d="M465 -465q-100 0 -172 44t-92 124l73 45q33 -137 187 -137q72 0 118 33t46 92q0 90 -166 82l-60 47l88 135h-290l20 94h240l55 45l199 934h-328l-55 -45l-60 -283h-96l90 422h1045l-90 -422h-97l60 283l-35 45h-328l-199 -934l35 -45h240l-21 -94h-305l-67 -106
q98 0 157 -41t59 -120t-75 -139q-76 -60 -176 -59z" />
    <glyph glyph-name="tcommaaccent" unicode="&#x163;" 
d="M819 -267q0 -79 -76 -139t-176 -59q-100 0 -172 44t-92 124l74 45q33 -137 186 -137q72 0 118 33t46 92q0 90 -166 82l-59 47l73 112q-135 23 -201 129t-26 293l70 330l-37 45h-211l20 94h256l68 316h102l-67 -316h538l-20 -94h-496l-53 -45l-67 -315q-37 -180 22 -262
t186 -82q213 0 353 254l75 -52q-69 -135 -183 -218t-253 -83l-49 -77q98 0 158 -41t59 -120z" />
    <glyph glyph-name="Tcaron" unicode="&#x164;" 
d="M262 1167h1045l-90 -422h-97l60 283l-35 45h-328l-199 -934l35 -45h240l-21 -94h-675l20 94h240l55 45l199 934h-328l-55 -45l-60 -283h-96zM815 1331q-49 0 -76 55l-145 291l43 33l194 -233l304 233l43 -33l-263 -291q-51 -55 -100 -55z" />
    <glyph glyph-name="tcaron" unicode="&#x165;" 
d="M659 70q213 0 353 254l75 -52q-69 -135 -183 -218t-268 -83t-244 108q-91 108 -44 320l70 330l-37 45h-211l20 94h256l68 316h102l-67 -316h538l-20 -94h-496l-53 -45l-67 -315q-37 -180 22 -262t186 -82zM1071 1464q33 0 57 -22t23 -60q0 -37 -37 -79l-227 -254l-35 20
l127 315q27 80 92 80z" />
    <glyph glyph-name="Tbar" unicode="&#x166;" 
d="M893 94l-21 -94h-675l20 94h240l55 45l84 391h-227l18 95h227l97 448h-328l-55 -45l-60 -283h-96l90 422h1045l-90 -422h-97l60 283l-35 45h-328l-96 -448h235l-20 -95h-234l-84 -391l35 -45h240z" />
    <glyph glyph-name="tbar" unicode="&#x167;" 
d="M636 -29q-154 0 -244 108q-91 108 -44 320l14 68h-245l18 92h246l37 170l-37 45h-211l20 94h256l68 316h102l-67 -316h538l-20 -94h-496l-53 -45l-37 -170h510l-18 -92h-510l-12 -53q-37 -180 22 -262t186 -82q213 0 353 254l75 -52q-69 -135 -183 -218t-268 -83z" />
    <glyph glyph-name="Utilde" unicode="&#x168;" 
d="M557 -29q-184 0 -281 116q-96 116 -57 292l137 649l-37 45h-122l20 94h438l-20 -94h-123l-53 -45l-137 -643q-28 -139 36 -227t204 -88t234 83q93 83 124 226l137 649l-37 45h-123l21 94h438l-21 -94h-123l-53 -45l-139 -655q-41 -184 -160 -293t-303 -109zM994 1339
q-72 0 -120 38t-86 76t-82 38t-85 -41t-56 -107h-104q23 109 93 178q71 69 161 68q55 0 101 -39q46 -38 85 -76t84 -38t86 40t55 109h105q-23 -109 -93 -177q-72 -68 -144 -69z" />
    <glyph glyph-name="utilde" unicode="&#x169;" 
d="M904 1069q-72 0 -120 39t-86 77q-40 38 -82 38t-84 -41t-57 -107h-104q23 109 93 177t161 67q55 0 101 -39t85 -77t84 -38t86 41t55 109h105q-23 -109 -93 -177q-72 -68 -144 -69zM948 66q32 0 54 28t44 68t25 47l84 -33q-55 -98 -87 -137q-54 -66 -134 -68
q-170 0 -119 222q-172 -221 -364 -222q-139 0 -200 85q-60 85 -30 235l94 438l-34 45h-140l21 94h280l-118 -557q-51 -244 139 -243q186 0 377 254l116 546h99l-150 -702q-20 -100 43 -100z" />
    <glyph glyph-name="Umacron" unicode="&#x16a;" 
d="M557 -29q-184 0 -281 116q-96 116 -57 292l137 649l-37 45h-122l20 94h438l-20 -94h-123l-53 -45l-137 -643q-28 -139 36 -227t204 -88t234 83q93 83 124 226l137 649l-37 45h-123l21 94h438l-21 -94h-123l-53 -45l-139 -655q-41 -184 -160 -293t-303 -109zM543 1481h614
l-20 -99h-615z" />
    <glyph glyph-name="umacron" unicode="&#x16b;" 
d="M451 1200h614l-21 -98h-614zM948 66q32 0 54 28t44 68t25 47l84 -33q-55 -98 -87 -137q-54 -66 -134 -68q-170 0 -119 222q-172 -221 -364 -222q-139 0 -200 85q-60 85 -30 235l94 438l-34 45h-140l21 94h280l-118 -557q-51 -244 139 -243q186 0 377 254l116 546h99
l-150 -702q-20 -100 43 -100z" />
    <glyph glyph-name="Ubreve" unicode="&#x16c;" 
d="M557 -29q-184 0 -281 116q-96 116 -57 292l137 649l-37 45h-122l20 94h438l-20 -94h-123l-53 -45l-137 -643q-28 -139 36 -227t204 -88t234 83q93 83 124 226l137 649l-37 45h-123l21 94h438l-21 -94h-123l-53 -45l-139 -655q-41 -184 -160 -293t-303 -109zM842 1436
q90 0 172 58t123 159l73 -19q-55 -150 -153 -234q-97 -84 -227 -83q-130 0 -196 84t-61 233l70 19q-2 -100 53 -159q56 -58 146 -58z" />
    <glyph glyph-name="ubreve" unicode="&#x16d;" 
d="M751 1159q89 -1 171 59t122 160l74 -18q-55 -152 -153 -235q-97 -83 -227 -83t-196 84t-61 234l70 18q-1 -102 55 -160t145 -59zM948 66q32 0 54 28t44 68t25 47l84 -33q-55 -98 -87 -137q-54 -66 -134 -68q-170 0 -119 222q-172 -221 -364 -222q-139 0 -200 85
q-60 85 -30 235l94 438l-34 45h-140l21 94h280l-118 -557q-51 -244 139 -243q186 0 377 254l116 546h99l-150 -702q-20 -100 43 -100z" />
    <glyph glyph-name="Uring" unicode="&#x16e;" 
d="M1004 1531q0 58 -37 96t-97 38t-102 -41q-43 -41 -43 -99t37 -95t96 -37t103 40q43 40 43 98zM637 1522q0 96 70 162q71 66 167 65t156 -61t60 -155t-70 -161t-166 -66t-157 61q-60 59 -60 155zM557 -29q-184 0 -281 116q-96 116 -57 292l137 649l-37 45h-122l20 94h438
l-20 -94h-123l-53 -45l-137 -643q-28 -139 36 -227t204 -88t234 83q93 83 124 226l137 649l-37 45h-123l21 94h438l-21 -94h-123l-53 -45l-139 -655q-41 -184 -160 -293t-303 -109z" />
    <glyph glyph-name="uring" unicode="&#x16f;" 
d="M948 66q32 0 54 28t44 68t25 47l84 -33q-55 -98 -87 -137q-54 -66 -134 -68q-170 0 -119 222q-172 -221 -364 -222q-139 0 -200 85q-60 85 -30 235l94 438l-34 45h-140l21 94h280l-118 -557q-51 -244 139 -243q186 0 377 254l116 546h99l-150 -702q-20 -100 43 -100z
M909 1250q0 58 -37 96t-97 38t-102 -41t-42 -99t37 -95t96 -37t102 40t43 98zM995 1252q1 -94 -69 -160t-167 -66t-157 60q-59 60 -59 156t69 161q70 65 167 65t157 -60q59 -61 59 -156z" />
    <glyph glyph-name="Uhungarumlaut" unicode="&#x170;" 
d="M936 1358l205 291q47 68 102 67q29 0 49 -19t21 -50q0 -57 -66 -103l-280 -217zM557 1358l205 291q47 68 102 67q29 0 49 -19t21 -50q0 -57 -66 -103l-280 -217zM557 -29q-184 0 -281 116q-96 116 -57 292l137 649l-37 45h-122l20 94h438l-20 -94h-123l-53 -45l-137 -643
q-28 -139 36 -227t204 -88t234 83q93 83 124 226l137 649l-37 45h-123l21 94h438l-21 -94h-123l-53 -45l-139 -655q-41 -184 -160 -293t-303 -109z" />
    <glyph glyph-name="uhungarumlaut" unicode="&#x171;" 
d="M1135 1436q29 0 48 -20t19 -50q0 -59 -63 -102l-281 -217l-31 30l205 291q43 68 103 68zM756 1436q29 0 48 -20t19 -50q0 -59 -63 -102l-281 -217l-30 30l204 291q43 68 103 68zM948 66q32 0 54 28t44 68t25 47l84 -33q-55 -98 -87 -137q-54 -66 -134 -68
q-170 0 -119 222q-172 -221 -364 -222q-139 0 -200 85q-60 85 -30 235l94 438l-34 45h-140l21 94h280l-118 -557q-51 -244 139 -243q186 0 377 254l116 546h99l-150 -702q-20 -100 43 -100z" />
    <glyph glyph-name="Uogonek" unicode="&#x172;" 
d="M520 -471q-72 0 -112 38q-40 39 -39 103q0 64 50 132t167 169h-33q-180 0 -277 116q-96 116 -57 292l137 649l-37 45h-122l20 94h438l-20 -94h-123l-53 -45l-137 -643q-28 -139 36 -227t204 -88t234 83q93 83 124 226l137 649l-37 45h-123l21 94h438l-21 -94h-123
l-53 -45l-139 -655q-59 -266 -262 -359q-166 -143 -230 -215t-63 -125q1 -59 75 -59t183 100l49 -69q-129 -117 -252 -117z" />
    <glyph glyph-name="uogonek" unicode="&#x173;" 
d="M948 66q32 0 59 36q26 36 64 107l82 -33q-43 -92 -140 -191t-168 -176t-71 -135t74 -59q74 0 186 100l47 -69q-129 -117 -250 -117q-73 0 -113 38q-40 39 -40 101t51 132t166 177q-127 25 -80 216q-172 -221 -364 -222q-139 0 -200 85q-60 85 -30 235l94 438l-34 45h-140
l21 94h280l-118 -557q-51 -244 139 -243q186 0 377 254l116 546h99l-150 -708q-20 -94 43 -94z" />
    <glyph glyph-name="Wcircumflex" unicode="&#x174;" 
d="M887 1706q49 0 76 -55l145 -291l-43 -33l-197 232l-303 -232l-41 33l262 291q52 55 101 55zM780 881l-4 -781h47l328 936l-21 37h-194l20 94h439l-21 -94h-104l-381 -1073h-201l4 782l-350 -782h-205l123 1073h-106l20 94h440l-20 -94h-195l-37 -37l-114 -936h47l350 781
h135z" />
    <glyph glyph-name="wcircumflex" unicode="&#x175;" 
d="M960 897q74 1 130 -69t57 -196q0 -126 -47 -278q-48 -152 -146 -268t-217 -115q-71 0 -117 40t-61 102q-78 -141 -221 -142q-96 0 -150 73q-53 73 -28 185l106 500l-35 45h-108l20 94h248l-133 -626q-18 -84 12 -132t86 -49q150 0 201 246l72 332h96l-80 -373
q-19 -84 7 -144t104 -60t150 102q72 104 109 236q36 132 36 243q0 158 -97 164q18 -18 19 -49q0 -74 -82 -74q-35 0 -61 27t-26 75t42 79q40 32 114 32zM838 1425q49 0 77 -55l144 -291l-41 -32l-199 231l-303 -231l-39 32l260 291q52 55 101 55z" />
    <glyph glyph-name="Ycircumflex" unicode="&#x176;" 
d="M883 1706q49 0 75 -55l146 -291l-43 -33l-197 232l-303 -232l-41 33l262 291q52 55 101 55zM682 438l-64 -299l35 -45h240l-21 -94h-675l20 94h240l55 45l63 299l-292 635h-127l20 94h469l-18 -94h-168l-45 -37l231 -510l442 510l-26 37h-168l20 94h480l-21 -94h-127z
" />
    <glyph glyph-name="ycircumflex" unicode="&#x177;" 
d="M829 1425q49 0 78 -55l144 -291l-41 -32l-199 231l-303 -231l-39 32l260 291q51 55 100 55zM504 6q-135 0 -200 86t-34 234l86 403l-34 45h-140l21 94h280l-108 -522q-51 -244 141 -244q197 0 383 256l109 510h100l-178 -837q-43 -203 -165 -324t-294 -121t-266 73
t-94 181q0 55 28 88q29 33 72 33q43 1 68 -23t25 -59t-24 -57t-55 -23q15 -59 77 -93t157 -34q143 0 241 100t134 263l40 194q-178 -223 -370 -223z" />
    <glyph glyph-name="Ydieresis" unicode="&#x178;" 
d="M750 1466q0 -46 -34 -80t-82 -34t-82 34t-34 80q0 47 34 81t82 34t82 -34t34 -81zM1176 1465q0 -47 -34 -81t-82 -34t-83 34t-35 81q0 48 35 82t83 34t82 -34t34 -82zM682 438l-64 -299l35 -45h240l-21 -94h-675l20 94h240l55 45l63 299l-292 635h-127l20 94h469l-18 -94
h-168l-45 -37l231 -510l442 510l-26 37h-168l20 94h480l-21 -94h-127z" />
    <glyph glyph-name="Zacute" unicode="&#x179;" 
d="M729 1358l205 291q43 68 102 67q29 0 48 -19t20 -50q0 -57 -64 -103l-280 -217zM199 94h700l57 45l50 238h98l-80 -377h-981l25 113l1032 960h-651l-56 -45l-49 -229h-98l80 368h923l-26 -123z" />
    <glyph glyph-name="zacute" unicode="&#x17a;" 
d="M1085 219q0 -106 -85 -177q-84 -71 -198 -71t-205 46q-91 47 -175 99t-154 60q-90 -84 -137 -188l-68 47q55 139 187 239t338 200q207 100 313 190q-57 8 -182 76t-206 69q-81 0 -135 -33t-65 -86q39 2 65 -20t26 -58q0 -38 -28 -60q-26 -22 -67 -22t-71 32t-29 85
q0 109 84 179t201 71q117 0 261 -76t220 -88q57 61 94 148l70 -47q-57 -142 -189 -242t-312 -188q-182 -88 -286 -158q57 -12 130 -60t149 -88q77 -39 153 -39t131 33t66 86q-39 -2 -65 20t-26 58t26 58q26 24 67 24t71 -32t31 -87zM985 1436q29 0 48 -20t20 -50
q0 -57 -64 -102l-280 -217l-31 30l205 291q43 68 102 68z" />
    <glyph glyph-name="Zdotaccent" unicode="&#x17b;" 
d="M199 94h700l57 45l50 238h98l-80 -377h-981l25 113l1032 960h-651l-56 -45l-49 -229h-98l80 368h923l-26 -123zM838 1346q-49 0 -84 34t-35 82q0 49 34 84t84 35t84 -34q33 -34 33 -84t-33 -84q-34 -33 -83 -33z" />
    <glyph glyph-name="zdotaccent" unicode="&#x17c;" 
d="M920 1211q0 -49 -34 -83t-84 -34t-84 34t-34 83q0 50 34 84t84 34t84 -34t34 -84zM1085 219q0 -106 -85 -177q-84 -71 -198 -71t-205 46q-91 47 -175 99t-154 60q-90 -84 -137 -188l-68 47q55 139 187 239t338 200q207 100 313 190q-57 8 -182 76t-206 69q-81 0 -135 -33
t-65 -86q39 2 65 -20t26 -58q0 -38 -28 -60q-26 -22 -67 -22t-71 32t-29 85q0 109 84 179t201 71q117 0 261 -76t220 -88q57 61 94 148l70 -47q-57 -142 -189 -242t-312 -188q-182 -88 -286 -158q57 -12 130 -60t149 -88q77 -39 153 -39t131 33t66 86q-39 -2 -65 20t-26 58
t26 58q26 24 67 24t71 -32t31 -87z" />
    <glyph glyph-name="Zcaron" unicode="&#x17d;" 
d="M199 94h700l57 45l50 238h98l-80 -377h-981l25 113l1032 960h-651l-56 -45l-49 -229h-98l80 368h923l-26 -123zM820 1331q-50 0 -77 55l-145 291l43 33l195 -233l303 233l43 -33l-262 -291q-50 -55 -100 -55z" />
    <glyph glyph-name="zcaron" unicode="&#x17e;" 
d="M1085 219q0 -106 -85 -177q-84 -71 -198 -71t-205 46q-91 47 -175 99t-154 60q-90 -84 -137 -188l-68 47q55 139 187 239t338 200q207 100 313 190q-57 8 -182 76t-206 69q-81 0 -135 -33t-65 -86q39 2 65 -20t26 -58q0 -38 -28 -60q-26 -22 -67 -22t-71 32t-29 85
q0 109 84 179t201 71q117 0 261 -76t220 -88q57 61 94 148l70 -47q-57 -142 -189 -242t-312 -188q-182 -88 -286 -158q57 -12 130 -60t149 -88q77 -39 153 -39t131 33t66 86q-39 -2 -65 20t-26 58t26 58q26 24 67 24t71 -32t31 -87zM780 1051q-50 0 -78 55l-143 291l43 33
l195 -234l303 234l41 -33l-260 -291q-51 -55 -101 -55z" />
    <glyph glyph-name="florin" unicode="&#x192;" 
d="M156 -367q-111 1 -170 61q-60 60 -60 148t38 140t84 51q46 0 70 -23q24 -22 24 -60t-34 -66t-81 -23q-4 -59 29 -99q34 -39 106 -38q186 0 276 282l137 434h-260l21 92h268l92 289q117 375 394 375q111 0 171 -60t60 -148t-39 -140q-39 -51 -85 -51q-46 1 -70 23
q-23 22 -23 60t34 66t81 23q4 57 -30 97t-106 40q-188 0 -274 -283l-92 -291h272l-18 -92h-283l-137 -432q-117 -375 -395 -375z" />
    <glyph glyph-name="Aringacute" unicode="&#x1fa;" 
d="M1137 2030q29 0 48 -20t19 -50q0 -57 -63 -102l-281 -218l-31 31l205 291q43 68 103 68zM592 1329q0 102 70 168t166 66q96 -1 156 -61t60 -149t-53 -151t-135 -78l180 -1030h127l-20 -94h-453l21 94h168l45 37l-47 275h-508l-164 -275l28 -37h166l-18 -94h-455l21 94
h127l633 1049q-115 55 -115 186zM426 500h434l-98 563zM813 1206q59 0 102 40t43 99q0 58 -36 96t-96 38t-103 -41q-43 -42 -43 -100t37 -95t96 -37z" />
    <glyph glyph-name="aringacute" unicode="&#x1fb;" 
d="M1081 1909q29 1 48 -19t20 -51q0 -57 -64 -102l-280 -217l-31 30l205 291q43 68 102 68zM903 1207q0 59 -37 97t-97 38t-102 -42q-42 -41 -42 -99t37 -95t96 -37t102 40t43 98zM989 1209q1 -95 -69 -161t-167 -65q-97 0 -157 60q-59 59 -59 155t69 162q70 66 167 66
t157 -61q59 -61 59 -156zM225 358q0 -126 76 -208t203 -82q219 0 383 249l47 234q-27 115 -110 183t-210 67q-166 -1 -278 -133t-111 -310zM494 -29q-166 0 -271 111q-104 111 -104 276q0 217 148 378t347 161q126 0 222 -63t125 -156l63 219h84l-158 -741q-8 -43 5 -67
q13 -23 42 -23t52 28t44 68t25 47l82 -33q-53 -98 -85 -137q-55 -68 -133 -68q-77 -1 -112 55t-10 154q-156 -209 -366 -209z" />
    <glyph glyph-name="AEacute" unicode="&#x1fc;" 
d="M274 94l-20 -94h-313l20 98l637 938l-27 37h-135l21 94h899l-76 -360h-98l47 221l-33 45h-311l-90 -426h288l-18 -90h-291l-98 -463h325l56 45l49 230h94l-76 -369h-710l20 94h94l56 45l57 267h-365l-186 -275l27 -37h157zM659 500l123 573h-51l-391 -573h319zM1251 1647
q0 -57 -63 -103l-281 -217l-30 31l204 291q43 68 103 67q29 0 48 -19t19 -50z" />
    <glyph glyph-name="aeacute" unicode="&#x1fd;" 
d="M268 63q131 0 285 117q-18 62 -18 112t4 99q-201 -14 -307 -56t-107 -142q0 -59 41 -95t102 -35zM1120 682q0 51 -35 85t-104 34q-106 0 -198 -91q-91 -92 -130 -227h2q227 13 346 57t119 142zM811 -29q-155 0 -229 135q-174 -135 -332 -135q-100 -1 -166 59t-66 152
q0 145 138 212t397 83q29 119 102 225q-31 106 -153 106t-203 -48q45 -18 45 -64t-29 -70q-29 -26 -69 -26t-63 26q-24 26 -25 62q0 92 105 150t233 59q168 0 229 -117q121 117 249 117t188 -59t61 -144q-1 -147 -149 -214t-439 -85q-6 -37 -6 -76q0 -115 49 -185t137 -68
q129 0 260 133l51 -68q-160 -160 -315 -160zM977 1436q29 0 48 -20t19 -50q0 -57 -63 -102l-281 -217l-30 30l204 291q43 68 103 68z" />
    <glyph glyph-name="Oslashacute" unicode="&#x1fe;" 
d="M1110 1647q0 -57 -63 -103l-281 -217l-31 31l205 291q43 68 102 67q28 0 48 -19t20 -50zM1192 690q0 -287 -179 -503t-433 -216q-201 0 -316 119l-172 -186l-69 57l186 201q-78 125 -78 315q0 287 180 503t434 216q197 0 312 -115l164 176l67 -57l-176 -190
q80 -130 80 -320zM580 74q217 0 359 185t142 431q0 135 -47 234l-696 -754q86 -96 242 -96zM745 1094q-219 0 -361 -184t-142 -433q0 -137 45 -229l696 751q-88 95 -238 95z" />
    <glyph glyph-name="oslashacute" unicode="&#x1ff;" 
d="M967 1436q29 0 48 -20t19 -50q0 -57 -63 -102l-281 -217l-31 30l205 291q43 68 103 68zM1102 473q0 -209 -148 -355t-364 -147q-158 0 -273 88l-180 -186l-63 57l180 187q-98 119 -98 278q0 209 148 355t364 147q150 0 262 -80l162 168l65 -57l-162 -168
q107 -117 107 -287zM590 66q172 0 289 118t116 289q0 129 -71 213l-539 -555q88 -65 205 -65zM668 803q-172 0 -289 -118t-117 -290q0 -119 64 -205l534 555q-79 58 -192 58z" />
    <glyph glyph-name="Scommaaccent" unicode="&#x218;" 
d="M626 68q144 0 238 74t94 196q0 139 -159 182l-267 68q-124 35 -190 94t-66 162q0 156 119 254t293 98q123 0 213 -49t131 -125l29 12l29 133h98l-82 -376h-84q-43 309 -334 309q-131 0 -219 -67t-88 -177q0 -70 48 -108t140 -62l269 -70q113 -31 171 -93t56 -173
q0 -164 -125 -272t-311 -107q-133 1 -241 57t-150 144l-29 -14l-35 -158h-98l88 408h82q20 -168 128 -254t252 -86zM358 -270q0 47 33 80q33 32 79 32t79 -34t33 -79q0 -46 -37 -89l-228 -236l-45 39l162 192q-76 21 -76 95z" />
    <glyph glyph-name="scommaaccent" unicode="&#x219;" 
d="M258 646q0 100 111 176t273 75q162 0 274 -68q110 -68 110 -172q0 -51 -29 -81t-69 -29t-64 23t-24 57t23 55q24 20 63 18q-29 51 -109 81q-79 30 -187 30t-189 -48t-81 -120q0 -51 38 -78t120 -45l283 -71q213 -51 213 -203q0 -125 -123 -200t-299 -75t-308 78t-132 189
q0 53 28 83q29 29 68 29q40 0 64 -22t24 -57q0 -33 -22 -55t-56 -19q37 -57 133 -99t216 -41q120 -1 211 51t91 134q1 88 -159 125l-269 67q-117 27 -170 70q-53 42 -53 142zM348 -270q0 47 33 80q33 32 79 32t79 -34t33 -79q0 -46 -37 -89l-228 -236l-45 39l162 192
q-76 21 -76 95z" />
    <glyph glyph-name="uni021A" unicode="&#x21a;" 
d="M262 1167h1045l-90 -422h-97l60 283l-35 45h-328l-199 -934l35 -45h240l-21 -94h-675l20 94h240l55 45l199 934h-328l-55 -45l-60 -283h-96zM387 -270q0 47 33 80q33 32 79 32t79 -34q32 -34 32 -79q0 -46 -37 -89l-227 -236l-45 39l162 192q-76 21 -76 95z" />
    <glyph glyph-name="uni021B" unicode="&#x21b;" 
d="M659 70q213 0 353 254l75 -52q-69 -135 -183 -218t-268 -83t-244 108q-91 108 -44 320l70 330l-37 45h-211l20 94h256l68 316h102l-67 -316h538l-20 -94h-496l-53 -45l-67 -315q-37 -180 22 -262t186 -82zM442 -270q0 47 33 80q33 32 79 32t79 -34t33 -79q0 -46 -37 -89
l-228 -236l-45 39l162 192q-76 21 -76 95z" />
    <glyph glyph-name="uni0237" unicode="&#x237;" 
d="M138 37q48 0 78 -28q30 -27 30 -67t-29 -67t-72 -27q9 -70 67 -116t157 -47q285 0 366 376l144 668l-37 45h-453l21 94h596l-175 -817q-47 -229 -169 -343t-284 -114q-163 0 -258 92t-95 218q-2 57 31 95q34 38 82 38z" />
    <glyph glyph-name="circumflex" unicode="&#x2c6;" 
d="M836 1425q49 0 77 -55l144 -291l-41 -32l-199 231l-303 -231l-39 32l260 291q52 55 101 55z" />
    <glyph glyph-name="caron" unicode="&#x2c7;" 
d="M764 1051q-49 0 -78 55l-143 291l43 33l194 -234l303 234l41 -33l-260 -291q-51 -55 -100 -55z" />
    <glyph glyph-name="breve" unicode="&#x2d8;" 
d="M777 1159q89 -1 171 59t123 160l74 -18q-55 -152 -153 -235t-228 -83q-129 0 -196 84t-60 234l70 18q-2 -102 54 -160t145 -59z" />
    <glyph glyph-name="dotaccent" unicode="&#x2d9;" 
d="M794 1094q-50 0 -84 34t-34 83q0 50 34 84t84 34t84 -34t34 -84t-34 -84q-34 -33 -84 -33z" />
    <glyph glyph-name="ring" unicode="&#x2da;" 
d="M942 1250q0 58 -37 96t-97 38t-102 -41t-42 -99t36 -95t96 -37t103 40t43 98zM1028 1252q0 -94 -70 -160t-166 -66t-157 60q-59 60 -59 156t69 161q70 65 167 65t157 -60q59 -61 59 -156z" />
    <glyph glyph-name="ogonek" unicode="&#x2db;" 
d="M389 -328q0 -57 75 -57t183 100l49 -69q-129 -117 -252 -117q-72 0 -112 38q-40 37 -39 109t75 157t271 249l59 -55q-176 -152 -242 -225t-67 -130z" />
    <glyph glyph-name="tilde" unicode="&#x2dc;" 
d="M939 1069q-71 0 -119 39t-87 77t-82 38t-85 -41t-56 -107h-104q24 109 94 177t159 67q55 0 101 -39t86 -77q39 -38 84 -38t86 41t55 109h105q-23 -109 -94 -177t-143 -69z" />
    <glyph glyph-name="hungarumlaut" unicode="&#x2dd;" 
d="M1104 1436q29 0 48 -20t19 -50q0 -59 -63 -102l-281 -217l-30 30l204 291q43 68 103 68zM725 1436q29 0 48 -20t20 -50q0 -59 -64 -102l-280 -217l-31 30l205 291q43 68 102 68z" />
    <glyph glyph-name="uni0326" unicode="&#x326;" 
d="M381 -270q0 47 33 80q33 32 79 32q47 0 79 -34t32 -79q0 -46 -37 -89l-227 -236l-45 39l162 192q-76 21 -76 95z" />
    <glyph glyph-name="Wgrave" unicode="&#x1e80;" 
d="M780 881l-4 -781h47l328 936l-21 37h-194l20 94h439l-21 -94h-104l-381 -1073h-201l4 782l-350 -782h-205l123 1073h-106l20 94h440l-20 -94h-195l-37 -37l-114 -936h47l350 781h135zM922 1352l-33 -25l-182 223q-37 37 -36 78t24 66q24 24 60 24q35 0 59 -24t30 -56z
" />
    <glyph glyph-name="wgrave" unicode="&#x1e81;" 
d="M616 1349q0 41 25 65t59 24q70 0 91 -80l77 -287l-32 -24l-185 223q-35 39 -35 79zM960 897q74 1 130 -69t57 -196q0 -126 -47 -278q-48 -152 -146 -268t-217 -115q-71 0 -117 40t-61 102q-78 -141 -221 -142q-96 0 -150 73q-53 73 -28 185l106 500l-35 45h-108l20 94
h248l-133 -626q-18 -84 12 -132t86 -49q150 0 201 246l72 332h96l-80 -373q-19 -84 7 -144t104 -60t150 102q72 104 109 236q36 132 36 243q0 158 -97 164q18 -18 19 -49q0 -74 -82 -74q-35 0 -61 27t-26 75t42 79q40 32 114 32z" />
    <glyph glyph-name="Wacute" unicode="&#x1e82;" 
d="M780 881l-4 -781h47l328 936l-21 37h-194l20 94h439l-21 -94h-104l-381 -1073h-201l4 782l-350 -782h-205l123 1073h-106l20 94h440l-20 -94h-195l-37 -37l-114 -936h47l350 781h135zM1118 1647q0 -57 -63 -103l-281 -217l-31 31l205 291q43 68 103 67q29 0 48 -19
t19 -50z" />
    <glyph glyph-name="wacute" unicode="&#x1e83;" 
d="M960 897q74 1 130 -69t57 -196q0 -126 -47 -278q-48 -152 -146 -268t-217 -115q-71 0 -117 40t-61 102q-78 -141 -221 -142q-96 0 -150 73q-53 73 -28 185l106 500l-35 45h-108l20 94h248l-133 -626q-18 -84 12 -132t86 -49q150 0 201 246l72 332h96l-80 -373
q-19 -84 7 -144t104 -60t150 102q72 104 109 236q36 132 36 243q0 158 -97 164q18 -18 19 -49q0 -74 -82 -74q-35 0 -61 27t-26 75t42 79q40 32 114 32zM983 1436q29 0 48 -20t20 -50q0 -57 -64 -102l-280 -217l-31 30l205 291q43 68 102 68z" />
    <glyph glyph-name="Wdieresis" unicode="&#x1e84;" 
d="M780 881l-4 -781h47l328 936l-21 37h-194l20 94h439l-21 -94h-104l-381 -1073h-201l4 782l-350 -782h-205l123 1073h-106l20 94h440l-20 -94h-195l-37 -37l-114 -936h47l350 781h135zM756 1466q0 -46 -34 -80t-82 -34t-82 34t-34 80q0 47 34 81t82 34t82 -34t34 -81z
M1182 1465q0 -47 -34 -81t-82 -34t-83 34t-35 81q0 48 35 82t83 34t82 -34t34 -82z" />
    <glyph glyph-name="wdieresis" unicode="&#x1e85;" 
d="M960 897q74 1 130 -69t57 -196q0 -126 -47 -278q-48 -152 -146 -268t-217 -115q-71 0 -117 40t-61 102q-78 -141 -221 -142q-96 0 -150 73q-53 73 -28 185l106 500l-35 45h-108l20 94h248l-133 -626q-18 -84 12 -132t86 -49q150 0 201 246l72 332h96l-80 -373
q-19 -84 7 -144t104 -60t150 102q72 104 109 236q36 132 36 243q0 158 -97 164q18 -18 19 -49q0 -74 -82 -74q-35 0 -61 27t-26 75t42 79q40 32 114 32zM587 1100q-48 0 -83 34t-35 80t35 81q35 34 83 34t82 -34q33 -34 33 -81q0 -46 -34 -80t-81 -34zM1013 1098
q-48 0 -83 34t-35 82t35 81q35 34 83 34t82 -34q33 -34 33 -82q0 -47 -34 -81t-81 -34z" />
    <glyph glyph-name="Ygrave" unicode="&#x1ef2;" 
d="M918 1352l-33 -25l-183 223q-38 37 -36 78t25 66q24 24 60 24q35 0 59 -24t30 -56zM682 438l-64 -299l35 -45h240l-21 -94h-675l20 94h240l55 45l63 299l-292 635h-127l20 94h469l-18 -94h-168l-45 -37l231 -510l442 510l-26 37h-168l20 94h480l-21 -94h-127z" />
    <glyph glyph-name="ygrave" unicode="&#x1ef3;" 
d="M608 1349q0 41 25 65t59 24q70 0 90 -80l78 -287l-33 -24l-184 223q-35 39 -35 79zM504 6q-135 0 -200 86t-34 234l86 403l-34 45h-140l21 94h280l-108 -522q-51 -244 141 -244q197 0 383 256l109 510h100l-178 -837q-43 -203 -165 -324t-294 -121t-266 73t-94 181
q0 55 28 88q29 33 72 33q43 1 68 -23t25 -59t-24 -57t-55 -23q15 -59 77 -93t157 -34q143 0 241 100t134 263l40 194q-178 -223 -370 -223z" />
    <glyph glyph-name="endash" unicode="&#x2013;" 
d="M311 508l25 108h663l-24 -108h-664z" />
    <glyph glyph-name="emdash" unicode="&#x2014;" 
d="M127 508l25 108h1032l-25 -108h-1032z" />
    <glyph glyph-name="quoteleft" unicode="&#x2018;" 
d="M829 883q0 -59 -41 -101t-99 -41q-58 0 -99 42q-41 43 -41 99t43 111l303 357l61 -43l-225 -301q98 -29 98 -123z" />
    <glyph glyph-name="quoteright" unicode="&#x2019;" 
d="M680 1169q0 59 41 101t99 41q58 0 100 -42q42 -43 41 -99q0 -56 -43 -111l-304 -357l-61 43l225 302q-98 29 -98 122z" />
    <glyph glyph-name="quotesinglbase" unicode="&#x201a;" 
d="M457 127q0 59 41 100t99 41t99 -42t41 -98t-43 -112l-303 -356l-61 43l225 301q-98 29 -98 123z" />
    <glyph glyph-name="quotedblleft" unicode="&#x201c;" 
d="M1063 883q0 -59 -41 -101t-99 -41q-58 0 -100 42q-41 43 -41 99t43 111l303 357l62 -43l-225 -301q98 -29 98 -123zM610 883q0 -59 -41 -101t-99 -41q-58 0 -99 42q-41 43 -41 99t43 111l303 357l61 -43l-225 -301q98 -29 98 -123z" />
    <glyph glyph-name="quotedblright" unicode="&#x201d;" 
d="M899 1169q0 59 41 101t99 41q57 0 99 -42q42 -43 42 -99t-43 -111l-303 -357l-62 43l225 302q-98 29 -98 122zM586 1311q58 0 100 -42q41 -43 41 -99t-43 -111l-303 -357l-62 43l226 302q-98 29 -99 122q0 59 41 101t99 41z" />
    <glyph glyph-name="quotedblbase" unicode="&#x201e;" 
d="M676 127q0 59 41 100t99 41t99 -42t41 -98t-43 -112l-303 -356l-61 43l225 301q-98 29 -98 123zM364 268q58 0 99 -42t41 -98t-43 -112l-303 -356l-62 43l226 301q-98 29 -99 123q0 59 41 100q42 41 100 41z" />
    <glyph glyph-name="dagger" unicode="&#x2020;" 
d="M780 924l-90 -428h-96l90 428h-281l21 92h281l55 264h96l-55 -264h278l-20 -92h-279z" />
    <glyph glyph-name="daggerdbl" unicode="&#x2021;" 
d="M733 690l-41 -194h-96l41 194h-281l21 90h278l47 215h-280l20 92h279l41 193h96l-41 -193h281l-21 -92h-278l-47 -215h280l-20 -90h-279z" />
    <glyph glyph-name="bullet" unicode="&#x2022;" 
d="M662 936q150 0 253 -102t103 -249t-104 -249t-252 -102q-150 0 -254 102t-104 248t104 250q104 102 254 102z" />
    <glyph glyph-name="ellipsis" unicode="&#x2026;" 
d="M270 110q0 -54 -38 -94t-92 -39q-54 -1 -93 39t-39 94t39 93t93 39t92 -39t38 -93zM678 110q0 -54 -38 -94t-92 -39q-54 -1 -93 39t-39 94t39 93t93 39t92 -39t38 -93zM956 -23q-54 -1 -94 39q-39 40 -39 94t39 93t93 39q55 0 93 -39t38 -93t-38 -94q-38 -39 -92 -39z
" />
    <glyph glyph-name="perthousand" unicode="&#x2030;" 
d="M848 1196l57 -41l-940 -1178l-57 39zM334 1124q-57 0 -99 -41t-42 -96q-1 -55 35 -91t94 -36t99 39q42 39 42 95t-36 93t-93 37zM338 1196q90 0 144 -56t55 -144q0 -89 -65 -149q-65 -61 -154 -61t-144 56t-55 144q0 89 64 150q65 60 155 60zM500 391q88 0 143 -56
t55 -144t-64 -149q-65 -60 -154 -60t-144 55t-55 143t65 150q66 61 154 61zM625 190q0 56 -36 92t-94 35q-58 0 -100 -38q-41 -39 -41 -97t36 -94q36 -37 93 -37t100 41q42 42 42 98zM979 51q57 -1 99 41t42 98t-36 92t-94 36t-99 -40q-41 -38 -41 -96t36 -94q36 -37 93 -37
zM776 180q0 88 65 150t153 61q88 0 144 -56t56 -144q0 -89 -65 -149t-153 -60t-145 55q-55 55 -55 143z" />
    <glyph glyph-name="guilsinglleft" unicode="&#x2039;" 
d="M580 444l174 -288l-95 -56l-210 355l360 354l65 -78z" />
    <glyph glyph-name="guilsinglright" unicode="&#x203a;" 
d="M688 465l-174 289l94 55l211 -354l-360 -355l-66 78z" />
    <glyph glyph-name="fraction" unicode="&#x2044;" 
d="M1255 1194l54 -57l-1248 -1160l-53 60z" />
    <glyph glyph-name="uni2070" unicode="&#x2070;" 
d="M659 524q131 0 217 131q85 131 85 293q-1 110 -47 174t-142 64q-131 0 -216 -131t-85 -295q0 -106 46 -171t142 -65zM782 1272q133 0 204 -89t71 -235q0 -202 -118 -358t-290 -156q-133 0 -204 90t-70 236q1 200 117 356t290 156z" />
    <glyph glyph-name="uni2074" unicode="&#x2074;" 
d="M1034 645h-168l-45 -35l-30 -155h-93l33 155l-26 35h-398l23 109q123 108 264 274t231 311l93 -26q-188 -299 -492 -586h332l41 199h92l-43 -199h205z" />
    <glyph glyph-name="uni2075" unicode="&#x2075;" 
d="M889 735q0 55 -34 88t-99 33q-104 0 -191 -82h-116l122 479h492l-19 -86h-409l-82 -309q87 82 205 82t172 -55t53 -142q0 -121 -99 -216q-179 -172 -534 -216l2 84q238 35 388 121t149 219z" />
    <glyph glyph-name="uni2076" unicode="&#x2076;" 
d="M659 520q86 0 157 64t71 150q0 88 -48 134t-136 45t-158 -65t-70 -149t49 -132t135 -47zM720 995q118 -1 190 -69t71 -186q0 -118 -96 -212q-97 -94 -225 -94t-202 76t-73 190q0 212 178 390t475 249l11 -84q-379 -98 -523 -350q76 90 194 90z" />
    <glyph glyph-name="uni2077" unicode="&#x2077;" 
d="M604 1167l-47 -34l-31 -148h-84l58 268h651l-21 -98l-598 -848l-77 41l581 819h-432z" />
    <glyph glyph-name="uni2078" unicode="&#x2078;" 
d="M761 1239q-81 0 -136 -49q-55 -50 -55 -120t47 -105q48 -35 129 -35t137 49q55 49 55 119t-48 106q-48 35 -129 35zM681 842q-89 0 -153 -48t-63 -124q0 -76 56 -112q57 -36 147 -36t152 49t62 123t-56 111t-145 37zM979 705q1 -115 -93 -191t-222 -76t-212 58t-83 153
q0 94 62 160t149 80l2 12q-106 41 -107 156q0 115 87 191t208 77q121 0 192 -59q70 -60 70 -148t-53 -152t-131 -81l-2 -11q59 -18 96 -64t37 -105z" />
    <glyph glyph-name="uni2079" unicode="&#x2079;" 
d="M703 713q-117 -1 -189 67t-72 188t96 212t226 92q129 0 202 -74t72 -190q0 -217 -187 -417t-482 -269l-11 81q193 49 332 161t209 239q-78 -90 -196 -90zM950 1009q0 85 -50 132t-136 47t-157 -64t-71 -150q0 -87 49 -132q48 -45 136 -45t159 63q70 64 70 149z" />
    <glyph glyph-name="uni2080" unicode="&#x2080;" 
d="M498 -240q131 0 216 131t85 295q0 110 -46 174t-143 64q-131 0 -216 -131t-85 -295q1 -110 47 -174t142 -64zM621 510q133 0 203 -89t71 -235q0 -202 -118 -358t-290 -156q-133 0 -203 90t-71 236q0 200 117 356t291 156z" />
    <glyph glyph-name="uni2081" unicode="&#x2081;" 
d="M291 311l301 181h119l-146 -682l29 -35h242l-17 -82h-665l16 82h258l45 35l125 587l-272 -161z" />
    <glyph glyph-name="uni2082" unicode="&#x2082;" 
d="M635 510q103 0 161 -51t58 -135q0 -130 -174 -259q-39 -30 -102 -73l-316 -217h393l47 35l25 122h84l-49 -239h-623l23 106l364 254q88 61 124 90t71 77t35 96t-33 78t-94 30q-152 0 -299 -166l-60 59q168 193 365 193z" />
    <glyph glyph-name="uni2083" unicode="&#x2083;" 
d="M606 174q92 0 142 -50t51 -132q1 -127 -101 -224q-102 -96 -239 -146t-301 -73v84q549 88 549 353q0 53 -34 86q-34 32 -114 32t-164 -47l-41 66l402 285h-430l16 84h535l-23 -109l-319 -219q29 10 71 10z" />
    <glyph glyph-name="uni2084" unicode="&#x2084;" 
d="M872 -117h-167l-46 -37l-30 -153h-92l32 153l-26 37h-398l23 107q123 110 264 276t232 312l92 -29q-94 -149 -232 -309t-260 -277h332l41 201h92l-43 -201h205z" />
    <glyph glyph-name="uni2085" unicode="&#x2085;" 
d="M727 -29q0 57 -34 90t-99 33q-104 0 -191 -82h-116l123 480h491l-18 -89h-410l-82 -309q87 84 205 84t172 -55t53 -141q0 -121 -99 -216q-185 -177 -534 -217l2 84q240 35 389 120q148 85 148 218z" />
    <glyph glyph-name="uni2086" unicode="&#x2086;" 
d="M313 -63q0 -85 49 -132t135 -47t157 64t71 150q0 88 -48 132t-136 46q-88 0 -158 -64t-70 -149zM558 233q118 -1 190 -69t71 -172q0 -136 -96 -228q-97 -92 -225 -92t-202 75t-73 192q0 213 178 390t476 246l10 -81q-379 -102 -522 -351q75 90 193 90z" />
    <glyph glyph-name="uni2087" unicode="&#x2087;" 
d="M442 406l-47 -37l-30 -146h-84l57 269h651l-20 -101l-598 -846l-78 41l581 820h-432z" />
    <glyph glyph-name="uni2088" unicode="&#x2088;" 
d="M599 477q-81 0 -136 -49q-55 -50 -55 -120t48 -105t129 -35t136 49t55 119t-48 106q-48 35 -129 35zM506 -240q90 0 152 48t62 124t-56 112t-145 36t-152 -48t-63 -124t55 -112q57 -36 147 -36zM502 -326q-127 0 -211 60t-84 153q0 94 61 159t150 81l2 12
q-106 41 -107 156q0 115 87 191t208 77q121 0 192 -59q70 -60 70 -148t-53 -152t-131 -81l-2 -12q59 -17 96 -63t37 -105q0 -115 -94 -192t-221 -77z" />
    <glyph glyph-name="uni2089" unicode="&#x2089;" 
d="M542 -49q-118 -1 -190 67t-72 189t97 212q96 91 225 91t202 -74t73 -190q1 -217 -187 -418t-483 -270l-10 84q193 48 331 160t209 239q-77 -90 -195 -90zM788 247q0 85 -49 131t-136 46t-158 -64t-71 -149q0 -86 49 -131q48 -45 136 -45t159 63q70 64 70 149z" />
    <glyph glyph-name="Euro" unicode="&#x20ac;" 
d="M901 1196q150 0 239 -78t89 -190q0 -76 -35 -121t-83 -45t-73 24t-24 60q0 36 30 62t72 26q-12 66 -64 113t-151 47q-160 0 -284 -96t-191 -253h457l-31 -79h-455q-23 -86 -28 -166h426l-33 -82h-395q8 -150 93 -247t226 -97q186 0 379 192l59 -80q-113 -110 -217 -162
t-227 -53q-180 0 -298 128t-124 319h-209l35 82h176q6 92 27 166h-146l35 79h137q74 203 232 327t356 124z" />
    <glyph glyph-name="uni2117" unicode="&#x2117;" 
d="M758 887q215 0 211 -154q0 -86 -76 -137t-207 -51h-145l-39 -187l22 -28h66l-15 -64h-251l14 64h57l35 28l92 437l-22 28h-58l15 64h301zM620 80q216 0 378 162q163 162 164 377q0 215 -122 341t-338 124q-216 0 -379 -162t-164 -378t122 -340t339 -124zM92 542
q0 242 184 426t428 183q244 0 386 -144q141 -145 139 -387q-1 -242 -185 -423t-428 -183t-384 142t-140 386zM891 733q0 88 -141 88h-150l-45 -209h141q195 0 195 121z" />
    <glyph glyph-name="trademark" unicode="&#x2122;" 
d="M254 1167h457l-41 -196h-64l25 112l-21 25h-106l-82 -389l20 -25h95l-13 -59h-307l14 59h91l30 25l82 389h-104l-31 -25l-25 -112h-61zM1008 817h-74l-23 283h-18l-80 -381l16 -25h45l-14 -59h-186l14 59h31l31 25l77 364l-22 25h-31l12 59h181l18 -282l145 282h175
l-13 -59h-32l-29 -25l-76 -364l16 -25h35l-12 -59h-186l12 59h39l31 25l81 381h-20z" />
    <glyph glyph-name="uni2153" unicode="&#x2153;" 
d="M72 109l456 325l23 -31l-412 -385zM1094 944l67 -90l-456 -326l-23 33zM244 1069l-29 68l213 127h107l-109 -512h184l-16 -74h-459l17 74h190l92 430zM936 139q61 0 97 -38t36 -97q0 -135 -142 -218t-333 -108l-2 76q391 61 391 244q0 36 -25 58q-26 22 -74 22t-120 -37
l-37 57l287 195h-303l16 76h395l-20 -101l-205 -135q18 6 39 6z" />
    <glyph glyph-name="uni2154" unicode="&#x2154;" 
d="M936 139q61 0 97 -38t36 -97q0 -135 -142 -218t-333 -108l-2 76q391 61 391 244q0 36 -25 58q-26 22 -74 22t-120 -37l-37 57l287 195h-303l16 76h395l-20 -101l-205 -135q18 6 39 6zM72 109l456 325l23 -31l-412 -385zM1094 944l67 -90l-456 -326l-23 33zM514 1286
q78 0 120 -39t42 -89t-20 -91t-114 -111q-24 -16 -77 -53l-217 -143h370l-16 -74h-463l21 94l260 183q63 43 89 62q25 19 51 51t26 62t-22 49t-60 19q-106 0 -217 -121l-56 56q127 145 283 145z" />
    <glyph glyph-name="uni215B" unicode="&#x215b;" 
d="M72 109l456 325l23 -31l-412 -385zM244 1069l-29 68l213 127h107l-109 -512h184l-16 -74h-459l17 74h190l92 430zM1094 944l67 -90l-456 -326l-23 33zM967 -66q0 98 -133 99q-58 0 -102 -34t-44 -85t37 -76q37 -24 96 -24t103 34q43 34 43 86zM1053 -58q0 -84 -71 -144
q-71 -58 -165 -58t-154 44q-61 44 -61 112t41 114t98 60l2 12q-63 36 -63 114t66 138q67 59 155 59t139 -45q52 -44 52 -108t-36 -109t-87 -61l-2 -11q86 -33 86 -117zM1010 221q0 47 -33 71t-85 25q-52 -1 -92 -35t-40 -81t33 -71t85 -24t93 34q39 34 39 81z" />
    <glyph glyph-name="uni215C" unicode="&#x215c;" 
d="M72 109l456 325l23 -31l-412 -385zM1053 -58q0 -84 -71 -144q-71 -58 -165 -58t-154 44q-61 44 -61 112t41 114t98 60l2 12q-63 36 -63 114t66 138q67 59 155 59t139 -45q52 -44 52 -108t-36 -109t-87 -61l-2 -11q86 -33 86 -117zM1094 944l67 -90l-456 -326l-23 33z
M1010 221q0 47 -33 71t-85 25q-52 -1 -92 -35t-40 -81t33 -71t85 -24t93 34q39 34 39 81zM967 -66q0 98 -133 99q-58 0 -102 -34t-44 -85t37 -76q37 -24 96 -24t103 34q43 34 43 86zM475 1026q59 0 95 -38t36 -97q0 -135 -141 -218t-334 -108v76q168 27 280 86t111 158
q0 35 -24 57t-77 23q-52 0 -118 -39l-37 59l287 193h-303l14 77h398l-23 -100l-205 -135q18 6 41 6z" />
    <glyph glyph-name="uni215D" unicode="&#x215d;" 
d="M967 -66q0 98 -133 99q-58 0 -102 -34t-44 -85t37 -76q37 -24 96 -24t103 34q43 34 43 86zM1053 -58q0 -84 -71 -144q-71 -58 -165 -58t-154 44q-61 44 -61 112t41 114t98 60l2 12q-63 36 -63 114t66 138q67 59 155 59t139 -45q52 -44 52 -108t-36 -109t-87 -61l-2 -11
q86 -33 86 -117zM1094 944l67 -90l-456 -326l-23 33zM1010 221q0 47 -33 71t-85 25q-52 -1 -92 -35t-40 -81t33 -71t85 -24t93 34q39 34 39 81zM72 109l456 325l23 -31l-412 -385zM441 948q-79 0 -126 -57h-108l94 362h365l-17 -77h-293l-53 -205q55 55 141 55t124 -41
t38 -102q0 -129 -140 -214t-325 -108l2 78q168 25 273 84q104 59 104 142t-79 83z" />
    <glyph glyph-name="uni215E" unicode="&#x215e;" 
d="M1053 -58q0 -84 -71 -144q-71 -58 -165 -58t-154 44q-61 44 -61 112t41 114t98 60l2 12q-63 36 -63 114t66 138q67 59 155 59t139 -45q52 -44 52 -108t-36 -109t-87 -61l-2 -11q86 -33 86 -117zM967 -66q0 98 -133 99q-58 0 -102 -34t-44 -85t37 -76q37 -24 96 -24
t103 34q43 34 43 86zM72 109l456 325l23 -31l-412 -385zM1094 944l67 -90l-456 -326l-23 33zM1010 221q0 47 -33 71t-85 25q-52 -1 -92 -35t-40 -81t33 -71t85 -24t93 34q39 34 39 81zM307 1176l-28 -136h-76l47 215h491l-20 -92l-438 -602l-72 35l422 580h-326z" />
    <glyph glyph-name="minus" unicode="&#x2212;" 
d="M205 506l20 94h897l-20 -94h-897z" />
    <glyph glyph-name="approxequal" unicode="&#x2248;" 
d="M885 594q-78 0 -206 59t-202 60q-135 0 -299 -142l27 117q143 125 280 125q78 0 206 -60t202 -61q135 0 299 142l-27 -117q-145 -123 -280 -123zM823 289q-78 0 -206 59t-201 60q-135 0 -299 -142l26 117q143 125 281 125q78 0 206 -60t201 -61q135 0 299 141l-26 -116
q-145 -123 -281 -123z" />
    <glyph glyph-name="notequal" unicode="&#x2260;" 
d="M532 362l-245 -251l-66 49l199 202h-248l21 89h313l203 208h-473l20 91h541l237 243l62 -51l-187 -192h246l-18 -91h-316l-203 -208h476l-21 -89h-541z" />
    <glyph glyph-name="lessequal" unicode="&#x2264;" 
d="M152 70l18 92h795l-21 -92h-792zM272 639l21 102l870 351l-22 -111l-748 -297l621 -299l-21 -96z" />
    <glyph glyph-name="greaterequal" unicode="&#x2265;" 
d="M1096 741l-23 -102l-870 -350l24 110l746 299l-619 297l21 97zM147 70l21 92h793l-19 -92h-795z" />
    <glyph glyph-name="i.dot" 
d="M795 1211q0 -49 -34 -83t-84 -34t-84 34t-34 83q0 50 34 84t84 34t84 -34t34 -84zM719 70q85 0 153 70t138 233l82 -41q-82 -184 -171 -272t-213 -89q-124 1 -193 95t-40 231l92 432l-37 45h-352l21 94h495l-121 -575q-20 -99 21 -161t125 -62z" />
    <glyph glyph-name="braceleft.cap" 
d="M328 610q88 0 150 38t75 112q2 14 6 148t10 179q17 133 105 212t223 79t223 -47l-47 -92q-82 43 -170 43q-205 0 -231 -199q-6 -39 -9 -172t-6 -153q-20 -147 -202 -197q51 -16 88 -55t37 -96q0 -58 -72 -224t-72 -223t39 -91t126 -34t183 45l7 -94q-109 -47 -220 -47
t-177 56t-64 140q0 84 72 252q72 170 73 213q0 106 -168 107h-112l20 100h113z" />
    <glyph glyph-name="braceright.cap" 
d="M987 510q-88 0 -150 -38t-75 -112q-2 -14 -6 -148t-11 -179q-16 -133 -104 -212t-223 -79t-223 47l47 92q84 -43 170 -43q205 0 231 199q6 39 9 172t5 153q20 147 203 197q-51 16 -88 55q-37 38 -37 96t72 224t72 223t-39 91t-126 34t-184 -45l-6 94q110 47 220 47
t176 -56t66 -140t-74 -254q-73 -170 -72 -211q0 -106 168 -107h112l-20 -100h-113z" />
    <glyph glyph-name="bracketleft.cap" 
d="M670 1278l-303 -1428h446l-20 -94h-543l344 1616h543l-21 -94h-446z" />
    <glyph glyph-name="bracketright.cap" 
d="M647 -150l303 1428h-446l20 94h543l-344 -1616h-543l21 94h446z" />
    <glyph glyph-name="parenleft.cap" 
d="M467 399q0 -360 324 -585l-74 -76q-160 112 -257 278q-98 166 -98 356q-1 362 220 626q199 242 487 395l39 -88q-281 -151 -461 -387t-180 -519z" />
    <glyph glyph-name="parenright.cap" 
d="M848 731q0 360 -324 586l74 76q160 -111 257 -278t97 -357q0 -362 -219 -626q-198 -240 -487 -394l-39 88q281 152 461 387t180 518z" />
    <glyph glyph-name="guillemotleft.cap" 
d="M371 567l174 -288l-92 -56l-213 355l362 354l66 -78zM799 567l174 -288l-92 -56l-213 355l362 354l66 -78z" />
    <glyph glyph-name="guillemotright.cap" 
d="M946 588l-174 289l92 55l213 -354l-362 -355l-66 78zM518 588l-174 289l92 55l213 -354l-362 -355l-66 78z" />
    <glyph glyph-name="guilsinglleft.cap" 
d="M604 567l174 -288l-94 -56l-211 355l361 354l67 -78z" />
    <glyph glyph-name="guilsinglright.cap" 
d="M715 588l-174 289l94 55l211 -354l-361 -355l-67 78z" />
    <glyph glyph-name="questiondown.cap" 
d="M784 1190q54 0 92 -38t38 -92t-38 -92t-92 -38t-91 38q-38 38 -38 92t38 92t91 38zM293 270q0 -98 77 -152q76 -54 200 -54t220 48t117 109q-100 25 -100 94q0 39 30 67q31 28 77 28t80 -36t34 -93q0 -135 -137 -223t-315 -87q-178 0 -286 82t-106 217q0 283 467 381
l31 142h115l-43 -207q-233 -53 -347 -120t-114 -196z" />
    <glyph glyph-name="exclamdown.cap" 
d="M763 1196q54 0 92 -38t38 -92t-38 -92t-92 -38t-92 38t-38 92t38 92t92 38zM540 -23q-46 0 -68 37q-21 37 -9 84l215 680h57l-82 -692q-4 -47 -35 -78q-32 -31 -78 -31z" />
    <glyph glyph-name="slash.cap" 
d="M14 -182l1198 1525l84 -51l-1200 -1525z" />
    <glyph glyph-name="bar.cap" 
d="M877 1339l-336 -1575h-107l334 1575h109z" />
    <glyph glyph-name="backslash.cap" 
d="M1001 -195l-94 -34l-612 1529l94 35z" />
    <glyph glyph-name="a.ord" 
d="M453 858q0 -104 50 -158t136 -55q145 0 260 166l33 158q-44 166 -232 166q-98 0 -172 -87q-74 -86 -75 -190zM989 645q35 0 84 98l70 -28q-27 -49 -44 -77t-51 -52t-81 -25q-47 0 -74 36t-14 101q-111 -137 -241 -137t-204 79q-74 78 -74 216t106 250t247 113
q89 0 155 -43t84 -103l47 146h72l-108 -514q-12 -59 26 -60z" />
    <glyph glyph-name="b.ord" 
d="M1094 924q0 -138 -106 -250t-249 -113q-87 -1 -153 43t-86 103l-27 -125h-86l166 784l-16 25h-93l17 82h201l-84 -392q108 137 240 137t204 -78t72 -216zM739 645q111 0 186 87t74 208q0 86 -50 140t-136 55q-145 0 -260 -166l-33 -158q49 -166 219 -166z" />
    <glyph glyph-name="c.ord" 
d="M393 874q-1 142 111 244t256 101t221 -63q76 -62 76 -152q0 -39 -25 -67q-24 -28 -60 -28t-61 23q-25 24 -25 52q1 59 60 69q-41 84 -166 84t-208 -76q-83 -75 -83 -183q-1 -108 63 -170t182 -62t241 106l51 -68q-141 -123 -299 -123t-246 85q-88 86 -88 228z" />
    <glyph glyph-name="d.ord" 
d="M453 858q0 -104 50 -158t136 -55q145 0 260 166l33 158q-44 166 -232 166q-98 0 -172 -87q-74 -86 -75 -190zM989 645q35 0 84 98l70 -28q-27 -49 -44 -77t-51 -52t-81 -25q-47 0 -74 36t-14 101q-111 -137 -241 -137t-204 79q-74 78 -74 216t106 250t247 113
q89 0 155 -43t84 -103l64 293l-19 25h-155l16 82h268l-163 -768q-12 -59 26 -60z" />
    <glyph glyph-name="e.ord" 
d="M730 561q-156 0 -248 85q-91 86 -91 226t114 243t281 104q117 -1 192 -55t75 -136q-1 -109 -139 -156t-429 -38q11 -80 73 -134t159 -53q145 0 254 96l51 -65q-136 -117 -292 -117zM958 1028q0 47 -49 77t-143 30t-178 -62q-83 -62 -101 -162h2q469 -14 469 117z" />
    <glyph glyph-name="f.ord" 
d="M1010 1493q112 0 170 -49t59 -125q0 -43 -26 -71q-27 -28 -65 -28t-61 21q-23 20 -23 50t21 49q20 19 52 22q-29 59 -115 59t-148 -62t-81 -185h233l-18 -84h-197l-45 -37l-84 -443q-59 -322 -272 -321q-88 0 -141 49q-52 50 -52 110t26 88q27 28 65 28t61 -21t23 -51
t-21 -48q-20 -18 -52 -20q18 -63 91 -64q141 0 186 250l84 443l-29 37h-141l16 84h181q27 152 109 236t194 83z" />
    <glyph glyph-name="g.ord" 
d="M648 592q-128 0 -203 78t-74 194q0 152 100 253t248 102q89 0 153 -43t84 -103l27 125h197l-19 -84h-84l-30 -22l-103 -484q-31 -152 -125 -236t-225 -83q-131 0 -209 55t-78 133q0 41 24 69t58 27q68 0 70 -67q1 -25 -15 -40t-36 -17q31 -87 156 -87t197 68t95 182
l25 113q-105 -133 -233 -133zM463 882q0 -100 51 -153t134 -53t143 40q59 40 116 118l27 143q-44 158 -228 158q-98 0 -170 -77q-72 -76 -73 -176z" />
    <glyph glyph-name="h.ord" 
d="M836 1219q94 1 138 -59t21 -167l-61 -288q-12 -59 27 -60q20 1 36 21t47 77l72 -28q-29 -53 -45 -78t-50 -51t-85 -25q-51 0 -76 41t-12 103l55 260q37 169 -88 169t-258 -180l-80 -372h-86l164 770l-29 39h-90l17 82h215l-86 -410q125 156 254 156z" />
    <glyph glyph-name="i.ord" 
d="M765 1341q-40 0 -67 28q-26 28 -26 68q0 41 26 67t67 26q40 0 68 -27q27 -27 27 -67t-28 -68q-28 -27 -67 -27zM801 647q109 0 198 205l72 -35q-115 -256 -274 -256q-96 0 -149 69q-52 69 -32 165l62 282l-31 37h-244l17 84h371l-89 -407q-14 -63 15 -103t84 -41z" />
    <glyph glyph-name="j.ord" 
d="M390 629q40 0 65 -23q25 -22 25 -54t-24 -54t-57 -23q4 -45 44 -76t104 -30q188 0 241 254l99 454l-31 37h-297l19 84h419l-125 -582q-34 -160 -118 -242t-203 -83q-119 1 -187 67t-69 160q-2 47 26 79q29 32 69 32zM1038 1470q14 -28 6 -54t-33 -40q-26 -14 -53 -7
q-26 7 -40 34t-8 53t32 41q30 14 56 7t40 -34z" />
    <glyph glyph-name="k.ord" 
d="M924 561q-121 0 -138 127l-12 72q-20 119 -100 137l-180 -109l-43 -206h-89l164 770l-28 39h-99l17 82h223l-127 -603l356 226l2 22h-94l17 80h333l-16 -80h-72l-297 -180q94 -33 111 -150l10 -77q10 -72 68 -72q30 0 52 24t52 78l62 -41q-70 -139 -172 -139z" />
    <glyph glyph-name="l.ord" 
d="M780 647q106 0 199 205l72 -35q-115 -256 -275 -256q-96 0 -148 69t-32 165l121 557l-31 37h-252l17 84h376l-145 -680q-14 -63 14 -105q29 -41 84 -41z" />
    <glyph glyph-name="m.ord" 
d="M967 561q-47 0 -71 39t-11 100l73 342q20 90 -43 91q-76 0 -145 -119l-92 -432h-84l98 460q20 90 -41 91q-76 0 -145 -119l-92 -432h-84l108 510l-18 22h-72l19 84h178l-21 -94q66 115 160 115q102 0 102 -113q27 49 73 81t93 32q127 0 95 -154l-78 -367q-10 -57 22 -57
q23 0 47 41q10 16 31 55l68 -26q-27 -49 -43 -75t-48 -50t-79 -25z" />
    <glyph glyph-name="n.ord" 
d="M840 1219q94 1 137 -59t22 -167l-61 -288q-12 -59 27 -60q18 -1 32 17q15 18 31 46t21 35l69 -28q-27 -49 -44 -77t-51 -52t-84 -25q-50 0 -76 41t-11 103l55 260q37 169 -88 169t-258 -180l-80 -372h-86l105 495l-29 37h-90l18 84h213l-26 -135q121 156 254 156z" />
    <glyph glyph-name="o.ord" 
d="M387 870q1 139 107 244t252 105t235 -85q88 -84 88 -224t-106 -244t-253 -104t-235 84q-88 85 -88 224zM973 906q-1 105 -61 167t-168 62t-184 -78q-77 -77 -77 -183q1 -106 61 -167t168 -61t184 77q77 78 77 183z" />
    <glyph glyph-name="p.ord" 
d="M1094 924q0 -138 -106 -250t-249 -113q-87 -1 -153 43t-86 103l-64 -291l19 -25h157l-18 -82h-375l19 82h84l28 25l146 676l-19 22h-84l19 84h190l-24 -117q108 137 240 137t204 -78t72 -216zM813 1135q-145 0 -260 -166l-33 -158q49 -166 219 -166q111 0 186 87t74 208
q0 86 -50 140t-136 55z" />
    <glyph glyph-name="q.ord" 
d="M638 561q-126 0 -201 79q-75 78 -75 216t106 250t249 113q89 1 155 -43t84 -103l29 125h195l-19 -84h-84l-30 -22l-144 -676l19 -25h84l-19 -82h-375l19 82h157l29 25l62 282q-115 -137 -241 -137zM457 858q0 -104 50 -158t136 -55q143 0 260 166l31 158
q-44 166 -230 166q-98 0 -172 -87q-74 -86 -75 -190z" />
    <glyph glyph-name="r.ord" 
d="M1010 944q-40 0 -62 20q-24 20 -24 52q0 33 19 51t41 18t34 -6q2 8 -4 19q-6 41 -60 41q-91 0 -214 -111q-40 -37 -124 -117l-69 -329h-86l106 495l-30 37h-154l18 84h277l-39 -186q161 167 231 192q40 14 100 14t98 -43q38 -45 38 -103t-28 -93t-68 -35z" />
    <glyph glyph-name="s.ord" 
d="M461 1038q0 72 79 126q80 54 200 54t197 -48t77 -123q0 -39 -23 -62t-53 -22q-70 0 -70 61q0 23 18 39t46 14q-53 66 -193 66q-82 0 -134 -30t-52 -69t25 -56t75 -32l207 -55q147 -37 148 -143q0 -90 -88 -144t-215 -53q-127 0 -224 55q-96 55 -96 136q0 40 23 64
q22 24 52 24t49 -18t19 -43q0 -26 -15 -41t-38 -15q31 -37 95 -61t146 -25q81 0 141 32t61 83q-1 52 -103 79l-194 52q-82 20 -121 52q-39 31 -39 103z" />
    <glyph glyph-name="t.ord" 
d="M750 647q141 0 239 172l68 -45q-112 -212 -325 -212q-112 0 -178 77q-66 78 -32 221l45 217l-30 37h-144l19 84h180l49 223h90l-49 -223h367l-19 -84h-330l-45 -37l-43 -205q-47 -225 138 -225z" />
    <glyph glyph-name="u.ord" 
d="M613 645q128 0 253 170l82 383h86l-102 -489q-14 -63 24 -64q27 0 60 57q4 6 14 23l10 18l70 -28q-29 -53 -45 -78t-50 -51t-73 -25q-121 0 -94 144q-126 -143 -236 -143t-156 62t-24 169l62 284l-29 37h-92l18 84h213l-80 -383q-39 -170 89 -170z" />
    <glyph glyph-name="v.ord" 
d="M621 647q137 0 251 119t115 254q0 106 -76 115q17 -16 17 -40t-20 -40q-20 -17 -50 -17t-52 22t-22 62t34 68q34 29 96 29q62 1 108 -53q47 -54 47 -146q0 -164 -139 -311t-318 -148q-86 1 -136 61t-27 164l63 291l-31 37h-116l18 84h240l-88 -414q-13 -68 11 -102
t75 -35z" />
    <glyph glyph-name="w.ord" 
d="M964 1219q58 1 100 -51t42 -143t-37 -197t-110 -187q-73 -80 -158 -80q-49 0 -82 28t-43 68q-51 -96 -156 -96q-70 0 -106 52t-19 132l70 332l-29 37h-80l19 84h198l-92 -440q-12 -55 6 -87t56 -32q96 0 129 154l49 231h84l-55 -252q-12 -59 3 -96t58 -37q84 0 147 136
q64 137 64 249t-64 119q16 -12 17 -35q0 -55 -66 -55q-29 0 -48 19t-19 57t32 64t90 26z" />
    <glyph glyph-name="x.ord" 
d="M489 561q-79 0 -125 48q-46 49 -46 115t22 96q24 30 56 30t51 -20t20 -50q0 -55 -57 -61q16 -80 79 -80t118 70q54 70 77 178q12 51 12 111t-26 100q-27 39 -72 39q-76 0 -162 -103l-47 60q102 125 211 125q57 0 100 -38t62 -98q92 135 203 136q80 -1 126 -49t46 -114
t-24 -96q-23 -30 -55 -30t-51 19t-20 50q0 53 57 64q-16 78 -88 78t-134 -108q-64 -108 -64 -247q0 -63 26 -103t72 -40q78 0 162 105l47 -62q-102 -125 -211 -125q-57 2 -100 38t-64 95q-88 -133 -201 -133z" />
    <glyph glyph-name="y.ord" 
d="M606 362q100 0 166 68t92 182l27 121q-123 -145 -252 -145q-96 0 -143 63t-25 170l53 256l-28 37h-90l18 84h213l-76 -356q-35 -168 93 -168t255 168l76 356h88l-125 -590q-33 -150 -118 -234t-212 -85q-126 0 -198 53t-72 131q0 43 24 70t58 26q68 0 70 -67
q0 -23 -16 -39t-35 -19q27 -82 157 -82z" />
    <glyph glyph-name="z.ord" 
d="M1069 739q0 -78 -61 -128q-60 -50 -144 -50t-148 33t-124 69q-59 36 -115 39q-59 -55 -92 -129l-57 45q68 164 370 304q139 63 211 116q-33 8 -119 56t-142 47q-54 1 -90 -19t-44 -51q66 0 68 -59q0 -29 -22 -47q-22 -19 -54 -19t-56 25t-24 67q0 80 59 130
q125 106 336 -3q104 -53 156 -63q45 47 67 102l60 -45q-41 -98 -136 -168t-217 -126t-192 -101q39 -8 130 -66t163 -59q111 0 127 70q-29 -2 -47 14t-18 45t20 46t52 17q32 -1 58 -25t25 -67z" />
    <glyph glyph-name="zero.dnom" 
d="M561 70q131 0 216 130t85 294q0 106 -46 171t-142 64q-131 0 -216 -130t-85 -294q0 -109 46 -172t142 -63zM684 817q133 0 204 -89t70 -234q0 -201 -118 -358t-289 -156q-133 0 -205 90t-72 235q0 201 118 357t292 155z" />
    <glyph glyph-name="one.dnom" 
d="M354 621l301 178h119l-145 -682l28 -35h242l-16 -82h-666l19 82h256l45 35l125 588l-273 -162z" />
    <glyph glyph-name="two.dnom" 
d="M819 625q0 106 -127 106q-152 0 -297 -164l-61 58q168 195 364 194q102 0 160 -52t60 -136q0 -129 -175 -259q-39 -30 -102 -73l-315 -217h393l45 35l27 125h83l-51 -242h-620l22 104l365 256q88 60 124 90t70 78t35 97z" />
    <glyph glyph-name="three.dnom" 
d="M862 299q0 -127 -101 -224t-239 -147t-301 -71v84q547 88 547 352q0 53 -34 87t-112 34t-163 -49l-41 65l401 283h-430l17 86h534l-22 -109l-320 -221q20 8 72 14q92 0 142 -51t50 -133z" />
    <glyph glyph-name="four.dnom" 
d="M936 190h-166l-45 -36l-33 -154h-92l33 154l-29 36h-395l22 109q125 106 267 273q141 167 229 313l92 -29q-96 -152 -234 -312t-259 -272h333l41 199h93l-43 -199h202z" />
    <glyph glyph-name="five.dnom" 
d="M660 485q118 0 171 -55t54 -141q1 -121 -99 -216q-185 -176 -534 -216l2 84q240 35 388 119t149 219q0 55 -34 89t-100 33q-106 0 -190 -84h-117l123 482h492l-19 -88h-409l-82 -310q87 84 205 84z" />
    <glyph glyph-name="six.dnom" 
d="M603 457q-87 0 -157 -64t-69 -149q0 -86 49 -132t136 -46t157 63q69 63 69 151t-49 132q-49 45 -136 45zM622 541q118 0 190 -69q72 -68 71 -188t-97 -212t-225 -92t-202 74t-72 192q0 213 178 390t475 247l10 -84q-377 -98 -524 -348q78 90 196 90z" />
    <glyph glyph-name="seven.dnom" 
d="M504 713l-45 -37l-31 -148h-84l57 271h652l-21 -101l-598 -845l-76 41l578 819h-432z" />
    <glyph glyph-name="eight.dnom" 
d="M663 784q-81 0 -137 -49t-55 -119q0 -70 48 -106q48 -35 129 -35t136 49q56 50 56 120t-48 105t-129 35zM784 240q0 74 -56 110t-145 37q-89 0 -151 -48t-63 -124q0 -76 55 -112q55 -35 145 -35t153 49q62 49 62 123zM881 250q-1 -116 -95 -192t-221 -76t-211 59t-84 153
t62 160q62 64 149 80l2 12q-109 41 -108 156q2 115 89 192q87 76 207 76q119 0 191 -59t72 -147t-53 -154q-53 -64 -131 -80l-2 -12q59 -16 96 -62t37 -106z" />
    <glyph glyph-name="nine.dnom" 
d="M604 256q-116 0 -188 69t-70 175q0 135 95 226t223 91t202 -75t76 -189q0 -217 -188 -418t-484 -270l-8 84q193 49 331 161t208 238q-80 -92 -197 -92zM622 342q88 0 159 64t71 148q0 85 -49 131t-136 46t-158 -63q-71 -64 -71 -150t48 -131t136 -45z" />
  </font>
</defs>
</svg>
