<?xml version="1.0" standalone="no"?>
<!DOCTYPE svg PUBLIC "-//W3C//DTD SVG 1.1//EN" "http://www.w3.org/Graphics/SVG/1.1/DTD/svg11.dtd" >
<svg xmlns="http://www.w3.org/2000/svg">
<metadata>
Created by FontPrep 20130207 at Thu Jul 21 21:11:16 2016
 By Callum Flack
</metadata>
<defs>
<font id="17a1ac671b95088ae9562b77d3ffbca3" horiz-adv-x='1024' >
  <font-face 
    font-family="d72958bbe8d4c1eb-subsetofNocturno-RegIta"
    font-weight="400"
    font-style="italic"
    font-stretch="normal"
    units-per-em="2048"
    panose-1="2 0 0 0 0 0 0 0 0 0"
    ascent="1573"
    descent="-475"
    x-height="993"
    cap-height="1434"
    bbox="-428 -500 2257 1851"
    underline-thickness="102"
    underline-position="-205"
    unicode-range="U+0020-2122"
  />
<missing-glyph horiz-adv-x="1357" 
d="M680 647l-244 -244l-47 48l244 241l-238 238l45 45l238 -238l244 244l45 -45l-242 -244l246 -246l-45 -45zM41 41h1276v1249h-1276v-1249zM0 1331h1358v-1331h-1358v1331z" />
    <glyph glyph-name=".notdef" horiz-adv-x="1357" 
d="M680 647l-244 -244l-47 48l244 241l-238 238l45 45l238 -238l244 244l45 -45l-242 -244l246 -246l-45 -45zM41 41h1276v1249h-1276v-1249zM0 1331h1358v-1331h-1358v1331z" />
    <glyph glyph-name=".null" horiz-adv-x="0" 
 />
    <glyph glyph-name="nonmarkingreturn" horiz-adv-x="681" 
 />
    <glyph glyph-name="space" unicode=" " horiz-adv-x="460" 
 />
    <glyph glyph-name="exclam" unicode="!" horiz-adv-x="546" 
d="M172 -16q-104 0 -104 102q0 61 38.5 110.5t114.5 49.5q43 0 73 -23.5t30 -93.5t-46.5 -107.5t-105.5 -37.5zM412 1436q35 0 50 -31t15 -101t-14 -156.5t-37 -176.5t-48.5 -176t-48 -158t-39 -122t-18.5 -69h-51q4 24 4 84l-2 166q0 476 63.5 608t125.5 132z" />
    <glyph glyph-name="quotedbl" unicode="&#x22;" horiz-adv-x="751" 
d="M577.5 842q-20.5 0 -49.5 16l54 578q99 60 186 0l-135 -578q-35 -16 -55.5 -16zM243.5 842q-20.5 0 -48.5 16l53 578q98 62 186 0l-135 -578q-35 -16 -55.5 -16z" />
    <glyph glyph-name="numbersign" unicode="#" horiz-adv-x="1198" 
d="M408 434h284l90 268h-284zM653 324h-282l-109 -324h-123l109 324h-211l31 110h219l90 268h-227l34 113h230l100 293h121l-100 -293h284l101 293h120l-100 -293h215l-33 -113h-219l-90 -268h227l-32 -110h-234l-108 -324h-121z" />
    <glyph glyph-name="dollar" unicode="$" horiz-adv-x="950" 
d="M356 857q0 -52 25 -86t72 -73l49 308q-66 -14 -106 -55.5t-40 -93.5zM614 240q0 60 -24.5 98.5t-79.5 81.5l-53 -336q63 16 110 56t47 100zM807 327q0 -148 -105.5 -236t-259.5 -105l-18 -117h-102l16 111q-58 0 -144.5 17t-136.5 17q2 27 2 34v73q0 104 -6 194h70
q32 -115 78.5 -176t152.5 -65l66 411l-126 89q-126 89 -126 213t95.5 209t254.5 106l25 160h102l-24 -154q51 -4 107 -16.5t138 -22.5l-45 -291h-71q-4 33 -8.5 71t-25 95.5t-112.5 67.5l-59 -381q164 -116 213 -170.5t49 -133.5z" />
    <glyph glyph-name="percent" unicode="%" horiz-adv-x="1226" 
d="M612 537l-376 -416q-109 -124 -153 -81t13.5 95.5t75.5 69.5l414 375l364 399q110 125 158.5 75t-92.5 -159zM950 276q0 123 -94 123q-72 0 -110.5 -59.5t-38.5 -146.5q0 -127 94 -127q71 0 110 61t39 149zM763 -12q-79 0 -142.5 46t-63.5 160t94.5 199.5t237.5 85.5
q144 0 179.5 -72.5t35.5 -132.5t-26.5 -114t-71.5 -91.5t-104.5 -59t-138.5 -21.5zM362 694q71 0 110.5 61t39.5 150q0 123 -92 123q-70 0 -110 -57.5t-40 -149.5q0 -127 92 -127zM327 614q-79 0 -143.5 46.5t-64.5 162.5t94.5 200.5t235.5 84.5t178 -71t37 -131t-26 -114.5
t-71 -93.5t-103 -61.5t-137 -22.5z" />
    <glyph glyph-name="ampersand" unicode="&#x26;" horiz-adv-x="1798" 
d="M963 1200q0 121 -113 121q-131 0 -171 -92t-40 -197t31 -182q293 163 293 350zM209 346q0 -203 237 -203q171 0 330 86q-188 247 -276 486q-291 -159 -291 -369zM981 313q245 -293 455 -293q70 0 157 54l35 -35q-102 -141 -195.5 -165t-127.5 -24q-209 0 -488 328
q-117 -92 -229 -148.5t-252 -56.5t-234 81t-94 229q0 248 195.5 346t279.5 135l-6 20q-87 305 69 450.5t245.5 184.5t155.5 39q113 0 163.5 -62.5t50.5 -147.5q0 -148 -130.5 -249.5t-344.5 -197.5q83 -216 256 -441q168 181 252 390l-49 -2l-96 2q0 73 26 122
q231 0 404.5 13.5t255.5 19.5q2 -10 2 -13v-42q0 -68 -13 -88l-338 -14q-120 -194 -405 -435z" />
    <glyph glyph-name="quotesingle" unicode="'" horiz-adv-x="417" 
d="M243.5 842q-20.5 0 -48.5 16l53 578q98 62 186 0l-135 -578q-35 -16 -55.5 -16z" />
    <glyph glyph-name="parenleft" unicode="(" horiz-adv-x="544" 
d="M59 272q0 371 148 713.5t375 523.5l41 -41q-186 -182 -293 -553.5t-107 -733.5t111 -543l-60 -39q-102 113 -158.5 294t-56.5 379z" />
    <glyph glyph-name="parenright" unicode=")" horiz-adv-x="544" 
d="M471 838q0 -373 -147.5 -714.5t-374.5 -524.5l-39 41q173 169 285 536t112 744t-110 550l59 39q100 -111 157.5 -291t57.5 -380z" />
    <glyph glyph-name="asterisk" unicode="*" horiz-adv-x="821" 
d="M473 1423h127l-84 -260l238 176l49 -112l-291 -109l258 -102l-86 -113l-180 176v-264h-127l82 268l-230 -180l-53 117l285 100l-252 103l88 116l176 -172v256z" />
    <glyph glyph-name="plus" unicode="+" horiz-adv-x="954" 
d="M393 489h-317l22 138h318l51 327h135l-51 -327h315l-22 -138h-316l-53 -337h-135z" />
    <glyph glyph-name="comma" unicode="," horiz-adv-x="518" 
d="M37 47q0 64 45 121t123 57q121 0 121 -151t-134.5 -280.5t-300.5 -170.5l-18 58q91 27 181 106t102 156q-119 0 -119 104z" />
    <glyph glyph-name="hyphen" unicode="-" horiz-adv-x="669" 
d="M111 434q4 80 24 156h397q-4 -80 -24 -156h-397z" />
    <glyph glyph-name="period" unicode="." horiz-adv-x="505" 
d="M89 188q52 54 111 54q60 0 88.5 -30t28.5 -71q0 -75 -53.5 -126.5t-109.5 -51.5t-86.5 30t-30.5 85q0 56 52 110z" />
    <glyph glyph-name="slash" unicode="/" horiz-adv-x="880" 
d="M-25 -43l877 1554l92 -36l-881 -1555z" />
    <glyph glyph-name="zero" unicode="0" horiz-adv-x="1222" 
d="M507 66q174 0 288 166t114 401q0 324 -229 323q-88 0 -162 -48t-154.5 -170.5t-80.5 -346.5q0 -170 65.5 -247.5t158.5 -77.5zM479 -18q-403 0 -403 420q0 124 54 246t144.5 209t207 136t243.5 49q178 0 285.5 -103t107.5 -314q0 -288 -186 -465.5t-453 -177.5z" />
    <glyph glyph-name="one" unicode="1" horiz-adv-x="739" 
d="M440 242q0 -102 41 -133t131 -31l-12 -78q-61 0 -115 2h-43h-301q-55 -2 -118 -2l12 78q61 0 102 16.5t82 84.5t84 347q19 112 19 206t-45.5 131.5t-149.5 37.5l12 72l439 69q-138 -638 -138 -800z" />
    <glyph glyph-name="two" unicode="2" horiz-adv-x="1015" 
d="M481 911q-148 0 -268 -127q-22 5 -49 52q89 141 213.5 173.5t189.5 32.5q141 0 216 -71.5t75 -176t-65.5 -194.5t-163 -168t-209 -142.5t-201.5 -117.5l668 10l-78 -182h-821l12 78q391 299 518 437.5t127 242.5q0 66 -39 109.5t-125 43.5z" />
    <glyph glyph-name="three" unicode="3" horiz-adv-x="985" 
d="M463 911q-128 0 -248 -127q-22 5 -49 52q88 140 212 173t187 33q128 0 211.5 -75t83.5 -208q0 -132 -106 -233t-293 -127q175 -19 264.5 -119.5t89.5 -226.5q0 -74 -32.5 -155.5t-143 -195.5t-339.5 -114t-376 164q19 47 64 74q23 -14 51.5 -32.5t88.5 -46.5t136 -28
q148 0 246 77t98 214t-89 206.5t-316 76.5l26 86q193 8 305.5 110t112.5 232q0 86 -49 138t-135 52z" />
    <glyph glyph-name="four" unicode="4" horiz-adv-x="1226" 
d="M639 272l84 539l-559 -543zM532 -397l78 491h-655l14 90l891 856h80l-123 -770h320l-45 -176h-301l-74 -467z" />
    <glyph glyph-name="five" unicode="5" horiz-adv-x="1038" 
d="M274 573q574 -201 574 -498q0 -184 -132.5 -332.5t-381.5 -148.5q-154 0 -256.5 71.5t-145.5 178.5q23 37 64 50q55 -90 142 -129t167 -39q151 0 243.5 79t92.5 218t-111.5 221.5t-390.5 189.5l183 592h694l-58 -182h-602z" />
    <glyph glyph-name="six" unicode="6" horiz-adv-x="1218" 
d="M305 461q0 -391 225 -391q137 0 209 126t72 261q0 254 -242 254q-84 0 -147.5 -23.5t-102.5 -40.5q-14 -79 -14 -186zM334 721q212 119 362 119t236 -105t86 -252q0 -197 -140.5 -348t-359.5 -151t-321.5 133.5t-102.5 322.5t63.5 363t196.5 315.5t337 230.5t487 89
q61 0 131 -4q2 -8 2 -32t-15 -56h-36q-395 0 -625.5 -168.5t-300.5 -456.5z" />
    <glyph glyph-name="seven" unicode="7" horiz-adv-x="964" 
d="M109 -383h-99l793 1227h-727l53 182h877l-5 -25z" />
    <glyph glyph-name="eight" unicode="8" horiz-adv-x="1134" 
d="M690 1327q-122 0 -201 -74.5t-79 -177.5q0 -71 41 -116.5t83 -79t97 -78.5q140 104 197 166t57 159q0 96 -62.5 148.5t-132.5 52.5zM795 332q0 117 -119 199.5t-172 121.5q-140 -99 -200 -172t-60 -175q0 -101 64 -166.5t188 -65.5t211.5 83t87.5 175zM462 -16
q-171 0 -287 78.5t-116 226.5q0 149 112 234t177.5 117t102.5 50q-23 20 -61 49t-100.5 99.5t-62.5 161.5q0 173 145.5 295t348.5 122q156 0 248 -74.5t92 -203.5q0 -184 -154.5 -262t-228.5 -111q51 -41 175 -133.5t124 -231.5q0 -183 -120 -271.5t-214 -117t-181 -28.5z
" />
    <glyph glyph-name="nine" unicode="9" horiz-adv-x="1189" 
d="M655 958q-139 0 -213.5 -134t-74.5 -268t62.5 -199.5t162.5 -65.5t164.5 23.5t103.5 39.5q18 100 19 213q0 391 -224 391zM842 281q-186 -119 -348 -119t-246 102.5t-84 249.5q0 94 37 188.5t104.5 170t165.5 123.5t215 48q210 0 305.5 -131.5t95.5 -351.5
q0 -377 -211.5 -606t-443 -293.5t-430.5 -71.5q-79 -3 -125 2q-9 45 12 91h37q390 0 616 160.5t300 437.5z" />
    <glyph glyph-name="colon" unicode=":" horiz-adv-x="542" 
d="M225.5 945.5q53.5 51.5 113.5 51.5t88 -29.5t28 -70.5q0 -74 -54 -126t-109 -52q-54 0 -87 26.5t-33 87.5t53.5 112.5zM106.5 188.5q53.5 53.5 112.5 53.5t88 -30t29 -71q0 -74 -54 -126t-108 -52q-53 0 -87 27t-34 86t53.5 112.5z" />
    <glyph glyph-name="semicolon" unicode=";" horiz-adv-x="577" 
d="M63 47q0 63 33 104.5t63.5 57.5t80.5 16t81 -41.5t31 -117.5q0 -148 -130.5 -274.5t-303.5 -168.5l-18 58q94 28 182 105t100 157q-119 0 -119 104zM197 817q0 78 53 129t113 51q59 0 86.5 -29.5t27.5 -70.5q0 -76 -54.5 -127t-107.5 -51t-85.5 26.5t-32.5 71.5z" />
    <glyph glyph-name="less" unicode="&#x3c;" horiz-adv-x="763" 
d="M80 530l8 60l555 432l68 -100l-461 -361l346 -352l-100 -100z" />
    <glyph glyph-name="equal" unicode="=" horiz-adv-x="1116" 
d="M174 776h825l-20 -125h-825zM125 477h825l-18 -125h-826z" />
    <glyph glyph-name="greater" unicode="&#x3e;" horiz-adv-x="763" 
d="M674 600l-8 -59l-555 -432l-68 100l461 360l-346 353l100 100z" />
    <glyph glyph-name="question" unicode="?" horiz-adv-x="827" 
d="M187 188q52 54 112 54q61 0 90 -30t29 -72q0 -73 -54 -125t-111 -52q-56 0 -87 31t-31 85q0 55 52 109zM514 1458q231 0 283.5 -86t52.5 -158t-34 -125t-83 -95t-108.5 -77.5t-108.5 -75.5t-83 -88.5t-34 -102.5t20.5 -75.5t86.5 -21.5l-27 -84q-16 -2 -19 -2h-40
q-127 0 -174 42t-47 104t32.5 110.5t81.5 90.5t188.5 132t139.5 225q0 68 -45 94.5t-160 26.5t-229 -43l-6 152q146 57 313 57z" />
    <glyph glyph-name="at" unicode="@" horiz-adv-x="1734" 
d="M919 922q-179 0 -266.5 -173t-87.5 -399q0 -225 114 -225t236 228t189 511q-88 58 -185 58zM751 -418q-315 0 -503.5 184.5t-188.5 518.5q0 195 68 381t193.5 331.5t307 234.5t406.5 89q289 0 465 -152t176 -430q0 -129 -38 -263t-107.5 -244.5t-164.5 -181t-203 -70.5
t-148.5 48t-40.5 102t10 101l61 279q-105 -258 -175 -352.5t-134.5 -137.5t-130.5 -43q-118 0 -171.5 86.5t-53.5 214.5t35 256t105.5 235.5t175 178t243.5 70.5q70 0 84 -2l93 -16q79 -13 108 -19l69 14l-84 -432q-65 -317 -65 -400q-1 -83 69 -83q128 0 220 206t92 431
q0 226 -125.5 357.5t-370.5 131.5q-164 0 -312.5 -59.5t-263 -172t-182 -275.5t-67.5 -355q0 -344 163.5 -497.5t401.5 -153.5t469 131l29 -86q-113 -63 -236 -109.5t-279 -46.5z" />
    <glyph glyph-name="A" unicode="A" horiz-adv-x="1396" 
d="M426 594l205 -2q25 0 58.5 1t68.5 2t68.5 2t60.5 1l-121 627zM256 180q0 -47 26.5 -71.5t79.5 -34.5l-10 -74l-233 10q-35 0 -105 -4t-112 -6l12 72q99 29 160 119t100.5 162.5t99.5 172.5q203 343 510 906q31 6 76 6t74 -6q169 -866 205.5 -1029t64 -233.5t103.5 -95.5
l-11 -74l-145 5q-145 5 -218 1t-118 -6l10 74q68 12 94.5 49t26.5 73v32q0 32 -4 48.5t-11 68.5t-26 151h-17h-70l-181 2l-264 -6q-117 -228 -117 -312z" />
    <glyph glyph-name="B" unicode="B" horiz-adv-x="1312" 
d="M510 793h149q141 0 229.5 83t88.5 212q0 243 -266 243q-58 0 -84 -6t-43 -8q-12 -59 -31 -152t-37 -200l-27 -170q16 -2 21 -2zM578 96q404 0 405 303q0 210 -119 256.5t-201 46.5h-85q-86 0 -103 -2l-49 -319q-18 -115 -18 -172q0 -58 37 -85.5t133 -27.5zM598 -10
l-324 16q-119 0 -175 -3t-97 -3l10 70q55 8 91 31.5t73 107t102 491.5t56 505q-8 98 -36 126.5t-81 32.5l10 70q136 -7 258 -7l308 11q174 0 287.5 -77t113.5 -222q0 -241 -344 -357q138 -18 245 -113.5t107 -254.5q0 -205 -181 -314.5t-423 -109.5z" />
    <glyph glyph-name="C" unicode="C" horiz-adv-x="1427" 
d="M106 590q0 168 62.5 325.5t177.5 277.5t274.5 192.5t354.5 72.5q116 0 252 -29.5t188 -29.5h21l-60 -373h-76q-4 37 -13 93.5t-69 145.5t-262 89q-145 0 -259.5 -60.5t-236.5 -214t-122 -428.5t131.5 -423t316.5 -148t293 114t140 224h79q-24 -82 -98 -377
q-48 0 -208.5 -34t-290.5 -34q-129 0 -243 46.5t-233 171t-119 399.5z" />
    <glyph glyph-name="D" unicode="D" horiz-adv-x="1599" 
d="M600 96q326 0 508 184t182 481t-144 432.5t-378 135.5q-100 0 -182 -12q-8 -29 -16.5 -58.5t-25.5 -107t-36 -203.5q-20 -127 -29.5 -184t-17.5 -110.5t-17.5 -111t-25.5 -156.5t-15 -147q0 -85 41 -114t156 -29zM336 1184.5q0 25.5 -5 73.5q-10 99 -116 106l10 70
q136 -7 207 -7h70q69 0 311 7q350 0 528.5 -170t178.5 -473q0 -365 -245 -573t-675 -220l-352 10q-98 0 -154 -3t-94 -5l10 70q85 14 120.5 53t73 186t80 444.5t47.5 351.5t5 79.5z" />
    <glyph glyph-name="E" unicode="E" 
d="M1006 1430q131 0 225 12q-24 -116 -31 -170l-29 -207h-71q-20 157 -100.5 210.5t-286.5 53.5q-94 0 -138 -8q-14 -55 -25 -113t-24.5 -123t-23.5 -131l-29 -178q10 -2 13 -2h22q245 0 308 26.5t84.5 59.5t31.5 84h67q-50 -246 -60 -331q-9 -85 -15 -136h-68q8 63 -1 102
t-55 68t-255 29l-86 -2l-27 -174q-29 -198 -29 -247q0 -94 55 -125.5t167 -31.5q111 0 166 8.5t127.5 48.5t185.5 209h72l-17 -41q-87 -228 -121 -335q-138 12 -221 12l-266 2h-297q-106 0 -164 -3t-96 -3l10 69q57 8 94 34t72.5 113t96.5 464t61 492q0 116 -29 152t-88 44
l10 70q150 -7 158 -7h132l55 1l166 1z" />
    <glyph glyph-name="F" unicode="F" horiz-adv-x="1171" 
d="M221 1432q113 -5 246 -5h221l43 1l162 2q119 2 145.5 3t78 2.5t114.5 6.5l-31 -170q-4 -29 -14 -99.5t-21 -148.5h-73q-4 176 -86.5 240.5t-298.5 64.5q-88 0 -132 -8q-42 -163 -73 -367l-31 -198h35q245 0 308 26.5t83.5 59t30.5 84.5h67q-52 -240 -73 -467h-68
q8 63 -1 102t-56.5 67.5t-255.5 28.5l-84 -2l-25 -155q-22 -154 -22 -218q0 -121 42 -165.5t136 -44.5l-13 -74q-55 2 -197 8t-243 0q-100 -6 -139 -6l10 70q57 8 93 32.5t72 110.5t96 464q61 378 61 495q0 116 -29 150t-88 40z" />
    <glyph glyph-name="G" unicode="G" horiz-adv-x="1505" 
d="M915 649q159 -6 178 -6h147q129 0 198 6l-13 -69q-59 0 -89.5 -39t-47.5 -123l-43 -240q-4 -18 -9 -62t-9 -75q-50 0 -221.5 -34t-303.5 -34q-133 0 -247.5 47.5t-231.5 171.5t-117 394q0 170 65 327.5t180.5 278.5t275 193.5t350.5 72.5q110 0 259 -29.5t200 -29.5h20
q-20 -100 -55 -373h-76q-15 197 -129.5 262.5t-248.5 65.5t-248.5 -60.5t-237.5 -213.5t-123 -428t129 -423.5t326 -148.5q140 0 266 78q36 210 28 276t-38.5 104t-145.5 42z" />
    <glyph glyph-name="H" unicode="H" horiz-adv-x="1634" 
d="M451 1427l90 1q90 0 130 2t79 4l-11 -70q-51 -6 -86 -29.5t-72.5 -108t-95.5 -433.5q220 -5 361 -5t366 5q41 269 41 378t-28.5 148t-87.5 45l10 70q136 -7 158 -7l135 1q112 0 152 2t79 4l-10 -70q-55 -6 -92 -33.5t-77 -128.5t-99 -478q-58 -377 -58 -454
q0 -118 26 -154.5t95 -45.5l-10 -70l-188 3q-187 3 -244 0q-56 -3 -92 -3l10 70q53 6 90 29.5t74 110t98 464.5v8q-176 6 -385 6t-342 -6v-8q-51 -326 -51 -406q0 -121 27 -155.5t92 -42.5l-11 -70l-186 3q-186 3 -242 0q-57 -3 -94 -3l10 70q53 6 89 29.5t86.5 136
t98.5 489.5t48 469t-29 129t-88 41l10 70q137 -7 224 -7z" />
    <glyph glyph-name="I" unicode="I" horiz-adv-x="714" 
d="M451 1427l90 1q90 0 130 2t79 4l-11 -70q-55 -6 -92 -33.5t-75.5 -128t-97.5 -477.5q-58 -377 -58 -457q0 -121 27 -155.5t92 -42.5l-11 -70l-186 3q-186 3 -242 0q-57 -3 -94 -3l10 70q53 6 89 29.5t86.5 136t98.5 489.5t48 469t-29 129t-88 41l10 70q137 -7 224 -7z
" />
    <glyph glyph-name="J" unicode="J" horiz-adv-x="677" 
d="M372 1427l132 1q110 0 146 2t71 4l-10 -70q-51 -6 -83 -27.5t-65 -111t-79 -396.5t-58 -391t-18.5 -129t-9.5 -62.5t-5 -31.5q-43 -217 -205 -335t-370 -163q-17 20 -17 66q153 68 262 203.5t144 330.5l57 357q66 411 66 513q0 103 -33 137t-109 40l11 70q150 -7 173 -7z
" />
    <glyph glyph-name="K" unicode="K" horiz-adv-x="1402" 
d="M1311 -2q-180 8 -252.5 8t-152.5 -3t-148 -5l12 76q98 0 98 63q0 46 -37 94l-294 431l-52 59l70 53l246 254q128 128 162 191t34 88q0 47 -67 49l12 78q238 -7 248 -7l80 1q69 0 113 2t96 4l-13 -78q-150 -12 -265 -85.5t-343 -303.5l-168 -172q289 -414 424 -590
q67 -89 209 -131zM451 1427l90 1q90 0 130 2t79 4l-11 -70q-55 -6 -91 -33.5t-73 -120.5t-98 -464t-61 -486q0 -116 28.5 -149t90.5 -41l-11 -70l-186 3q-186 3 -242 0q-57 -3 -94 -3l10 70q53 6 89 29.5t86.5 136t98.5 492.5t48 469t-27.5 124t-89.5 43l10 70
q137 -7 224 -7z" />
    <glyph glyph-name="L" unicode="L" horiz-adv-x="1169" 
d="M225 1432q97 -5 221 -5l94 1q93 0 138 2l90 4l-10 -70q-66 -4 -106 -31.5t-77.5 -121.5t-109.5 -537l-29 -174q-20 -126 -20 -222q0 -182 175 -182q152 0 248 64.5t203 232.5h74l-18 -46q-107 -273 -133 -361q-138 12 -224 12l-264 2l-248 6q-75 0 -130 -3q-56 -3 -99 -3
l10 70q53 6 89 29.5t74 111t98.5 466.5t60.5 494t-29 149t-88 42z" />
    <glyph glyph-name="M" unicode="M" horiz-adv-x="1892" 
d="M1735 1427q38 0 63 1.5t52.5 2.5t50 2t32.5 1l-10 -74q-45 -2 -79 -15.5t-76 -96t-103 -462.5l-18 -112q-50 -316 -50 -400q0 -124 25 -159.5t92 -44.5l-10 -70l-258 6q-106 0 -164 -3t-98 -3l10 70q53 6 89 29.5t73.5 108.5t99.5 466l82 518l-668 -1212q-45 -12 -86 0
l-331 1132l-70 -438q-45 -276 -45 -369q0 -94 9 -131t34 -66t108 -38l-10 -70l-264 6q-97 0 -143 -3t-70 -3l10 70q53 6 89 29.5t75 109.5t98 465q4 29 9 56.5t27 166.5t22 242q0 102 -7.5 137t-27.5 59.5t-84 24.5l10 74l193 -7h34q35 0 136 7l340 -1170l628 1170
q143 -7 181 -7z" />
    <glyph glyph-name="N" unicode="N" horiz-adv-x="1605" 
d="M420 1427q10 0 55 5q197 -281 375 -549.5t367 -540.5l63 408q41 264 41 391t-41 173t-125 50l10 70q150 -7 173 -7l130 1q107 0 138 2t57 4l-10 -70q-53 -6 -90 -31.5t-75 -111.5t-106 -518t-108 -738q-35 -6 -68 0q-190 279 -371.5 557.5t-383.5 558.5l-64 -407
q-39 -244 -39 -342q0 -99 10.5 -142t39.5 -77.5t118 -42.5l-10 -70l-285 6q-99 0 -143 -3t-70 -3l10 70q53 6 89 29.5t74 108t100 466.5q8 58 20 144t21.5 173.5t9.5 177t-31 135t-102 54.5l10 74q50 -5 105 -5h106z" />
    <glyph glyph-name="O" unicode="O" horiz-adv-x="1603" 
d="M740 80q102 0 205.5 48t231.5 203.5t128 516.5q0 229 -108 367.5t-288 138.5q-102 0 -204.5 -45t-235.5 -200t-133 -518t151 -437t253 -74zM930 1458q275 0 440.5 -151.5t165.5 -425.5q0 -203 -68.5 -370t-185.5 -287t-273.5 -185.5t-300.5 -65.5q-277 0 -440.5 144.5
t-163.5 419.5q0 209 70 378.5t186.5 290.5t271 186.5t298.5 65.5z" />
    <glyph glyph-name="P" unicode="P" horiz-adv-x="1202" 
d="M985 995q0 155 -70 244.5t-208 89.5q-85 0 -125 -8q-14 -53 -26 -111t-25 -123t-23 -133l-47 -301l46 -4t77 -3t133.5 16.5t138.5 60.5t94 115.5t35 156.5zM227 1432q102 -5 248 -5l43 1l262 4q194 0 312 -102.5t118 -260.5q0 -159 -102 -341t-555 -175h-40q-40 0 -67 4
l-8 -57q-6 -35 -9 -67t-8 -79t-5 -92q0 -109 38 -148.5t130 -41.5l-13 -74q-53 2 -192 8t-238 0q-100 -6 -139 -6l10 70q55 8 91 31.5t73 107t94 441.5q57 359 62 486q6 128 -20.5 174t-94.5 52z" />
    <glyph glyph-name="Q" unicode="Q" horiz-adv-x="1603" 
d="M740 80q102 0 205.5 48t231.5 203.5t128 516.5q0 229 -108 367.5t-288 138.5q-102 0 -204.5 -45t-235.5 -200t-133 -518t151 -437t253 -74zM104 537q0 209 70 378.5t186.5 290.5t271 186.5t298.5 65.5q275 0 440.5 -151.5t165.5 -425.5q0 -354 -200.5 -596.5
t-493.5 -294.5l20 -17q178 -131 315.5 -201.5t303.5 -70.5q68 0 137 14l4 -77q-380 -188 -584 -31t-333 368l-29 -2q-245 0 -408.5 144.5t-163.5 419.5z" />
    <glyph glyph-name="R" unicode="R" horiz-adv-x="1341" 
d="M571 690q186 0 295 92t109 278t-89 227.5t-129 41.5h-67q-66 0 -102 -6q-48 -197 -117 -623q50 -10 100 -10zM227 1434q143 -7 242 -7l317 7q218 0 317 -107t99 -260t-107.5 -266.5t-279.5 -157.5q91 -194 213 -368t177 -213t108 -50l-8 -53q-244 -140 -400 104
q-85 130 -175.5 298.5t-117.5 228.5l-159 2l-2 -23q-6 -39 -12.5 -79.5t-18.5 -129.5t-12 -140q0 -90 29.5 -113t117.5 -37l-10 -70l-197 3q-196 3 -252 0q-57 -3 -94 -3l10 70q57 10 93 30.5t69.5 99t96.5 474.5q63 395 63 482q0 132 -26 165.5t-91 42.5z" />
    <glyph glyph-name="S" unicode="S" horiz-adv-x="1112" 
d="M70 52v105q0 59 -11 238h78q31 -132 79 -194t103 -91.5t125 -29.5q140 0 239 70t99 188q0 88 -56.5 146.5t-167.5 137.5q-197 138 -269 220t-72 190q0 197 151 311.5t359 114.5q80 0 174 -24.5t137 -26.5h23q-27 -156 -60 -373h-77q-6 41 -17.5 180.5t-208.5 139.5
q-122 0 -201 -73.5t-79 -176.5q0 -68 50.5 -127.5t160.5 -139.5q110 -79 172.5 -125t124 -116t61.5 -184q0 -213 -171.5 -326t-405.5 -113q-75 0 -169.5 22.5t-172.5 22.5q2 27 2 34z" />
    <glyph glyph-name="T" unicode="T" horiz-adv-x="1314" 
d="M184 1382q0 35 4 60q90 -12 220 -12l194 -2q195 -3 206 -3l363 5q132 3 224 12q-6 -33 -15.5 -74.5t-13.5 -63.5t-9 -59t-10.5 -80t-10.5 -83t-7 -54h-74q-6 137 -55.5 219t-214.5 82h-88q-42 -153 -109 -572q-67 -420 -67 -496q0 -77 8 -106.5t30 -53t95 -31.5l-10 -70
l-275 6q-105 0 -167 -3t-103 -3l10 70q61 8 99 29.5t75.5 105.5t88.5 404q51 319 75.5 487t22.5 233h-88q-251 0 -309 -127t-76 -174h-74q61 319 61 354z" />
    <glyph glyph-name="U" unicode="U" horiz-adv-x="1480" 
d="M326 1425h106q130 -1 194 3t111 6l-10 -74q-63 0 -106 -19.5t-84.5 -87t-77.5 -327.5l-58 -402q-10 -92 -10 -156q0 -63 22.5 -120.5t78.5 -104.5t227 -47t278 101t148 348l59 375q25 162 25 261t-36 136t-120 39l12 74q37 -2 121 -2t178 -0.5t164 6.5l-10 -70
q-53 -6 -87 -30.5t-63 -101.5t-94 -478l-47 -289q-83 -492 -581 -492q-314 0 -401 125t-87 240q0 42 8 88l54 328q57 342 57 442t-25.5 129t-81.5 37l11 70q116 -7 125 -7z" />
    <glyph glyph-name="V" unicode="V" horiz-adv-x="1331" 
d="M1028 1434q157 -7 178 -7l89 1q69 0 103 2t70 4l-10 -72q-102 -29 -163.5 -119t-153.5 -262t-142.5 -264t-93.5 -173t-146 -270.5t-147 -275.5q-28 -6 -64 -6t-67 6q-39 224 -113.5 596.5t-85.5 433.5q-30 166 -55.5 236.5t-97.5 95.5l10 74q165 -7 178 -7l87 1
q75 0 112 2t78 4l-10 -74q-123 0 -123 -148q0 -62 42.5 -282.5t123.5 -693.5l291 538q190 354 190 486q0 86 -90 100z" />
    <glyph glyph-name="W" unicode="W" horiz-adv-x="2123" 
d="M606 1360q-123 0 -123 -134q0 -52 11.5 -122t19.5 -135l117 -721l459 868q-4 12 -14 60t-43.5 112t-100.5 72l10 74q179 -7 192 -7l87 1q75 0 112 2t78 4l-10 -74q-121 0 -121 -143v-21q0 -22 6 -48q41 -179 166 -882l256 512q78 166 130 289t54 197q4 90 -86 96l11 74
q165 -7 215 -7l60 1q60 0 94 2t71 4l-10 -72q-104 -29 -181.5 -138.5t-228.5 -416.5t-202.5 -408.5t-97.5 -193.5t-103 -205q-31 -6 -64 -6t-63 6q-16 98 -40 218t-49.5 249t-52 258t-49.5 244l-522 -969q-31 -6 -65 -6t-64 6l-168 1022q-25 169 -48.5 222.5t-47 78.5
t-60.5 37l11 74q164 -7 184 -7l92 1q72 0 109 2t79 4z" />
    <glyph glyph-name="X" unicode="X" horiz-adv-x="1300" 
d="M393 0l-135 5q-135 5 -216 1t-130 -6l10 72q84 10 195.5 118.5t288.5 305.5l182 204l-146 312q-33 68 -99.5 208t-170.5 140l10 74q213 -7 227 -7l93 1q78 0 114 2t78 4l-10 -74q-63 -10 -83.5 -38t-20.5 -65t108 -284l47 -109l64 72q16 18 52 58t73 87t64.5 96.5
t27.5 84t-21.5 58t-81.5 40.5l11 74q157 -7 170 -7l86 1q75 0 113 2t81 4l-10 -72q-77 -14 -156.5 -97t-143 -158t-144.5 -169l-146 -164l170 -379q73 -159 135 -239t138 -84l-13 -74l-156 5q-155 5 -236 1t-128 -6l12 74q59 10 81 29.5t22 51.5q0 56 -32 140t-108 254
l-30 61l-162 -184q-18 -23 -89 -105.5t-71 -164.5q0 -73 96 -80z" />
    <glyph glyph-name="Y" unicode="Y" horiz-adv-x="1228" 
d="M1113 1427l60 1q60 0 94 2t70 4l-10 -72q-100 -28 -167.5 -111.5t-116 -157t-111.5 -165.5l-213 -305q-39 -248 -39 -359t30 -148t107 -46l-10 -70l-195 3q-194 3 -260 0t-108 -3l10 70q53 6 91 23.5t82 93.5t97 415l4 23l-176 407q-23 49 -44 100.5t-65 123.5t-110 104
l10 74q172 -7 185 -7l95 1q81 0 121 2t87 4l-10 -74q-68 -10 -95.5 -32.5t-27.5 -60.5q0 -66 61 -196l146 -309l147 215q154 215 154 291q0 77 -109 92l10 74q157 -7 206 -7z" />
    <glyph glyph-name="Z" unicode="Z" horiz-adv-x="1267" 
d="M467 1432h766l-8 -50q-127 -170 -424 -575.5t-539 -710.5h303q329 0 424.5 136.5t128.5 173.5h72q-53 -109 -103.5 -216.5t-78.5 -201.5q-138 12 -220 12h-808l8 55q274 345 553.5 724.5t404.5 549.5h-143q-287 0 -371 -59.5t-111.5 -112.5t-60.5 -115h-70
q10 45 19.5 103.5t24.5 144.5t20 156q110 -14 213 -14z" />
    <glyph glyph-name="bracketleft" unicode="[" horiz-adv-x="620" 
d="M338 1587h387l-16 -100h-244l-275 -1745h244l-16 -100h-387z" />
    <glyph glyph-name="backslash" unicode="\" horiz-adv-x="843" 
d="M584 -80l-385 1555l100 36l385 -1554z" />
    <glyph glyph-name="bracketright" unicode="]" horiz-adv-x="620" 
d="M289 -358h-385l14 100h244l274 1745h-243l16 100h387z" />
    <glyph glyph-name="underscore" unicode="_" horiz-adv-x="1044" 
d="M-37 -100h899l-22 -133h-899z" />
    <glyph glyph-name="a" unicode="a" horiz-adv-x="1069" 
d="M233 350q0 -225 114 -225t236 228t189 511q-88 58 -185 58q-179 0 -266.5 -173.5t-87.5 -398.5zM590 1018q123 0 301 -37l70 14l-84 -432q-54 -279 -54 -359q0 -81 34 -105.5t112 -24.5l-17 -74h-344l107 518q-102 -259 -174 -355.5t-136.5 -141t-132.5 -44.5
q-119 0 -172 87.5t-53 214.5t35 255t105.5 235.5t175 178t227.5 70.5z" />
    <glyph glyph-name="b" unicode="b" horiz-adv-x="1052" 
d="M413 74q91 0 163.5 54t145.5 173.5t73 321.5q0 106 -35 176.5t-97 70.5q-118 0 -246.5 -230.5t-195.5 -508.5q101 -57 192 -57zM270 1274q0 82 -33.5 101.5t-109.5 19.5l16 73l344 21l-204 -1000q113 268 222.5 398.5t229.5 130.5t182 -90t62 -217q0 -126 -41 -251.5
t-117 -233t-186.5 -178.5t-264.5 -71t-331 66l176 883q55 266 55 348z" />
    <glyph glyph-name="c" unicode="c" horiz-adv-x="856" 
d="M522 913q-64 0 -120 -54t-111 -176t-55 -316q0 -123 29.5 -169t64.5 -65.5t83 -19.5q84 0 158.5 35.5t104.5 70.5q18 -6 33 -26q-67 -95 -174 -155.5t-226 -60.5t-189.5 88.5t-70.5 224.5t37 259t109.5 226.5t178 171t230.5 67.5t181.5 -45t56.5 -87t-23 -73t-69 -31
t-64 21.5t-35.5 46t-41 46t-87.5 21.5z" />
    <glyph glyph-name="d" unicode="d" horiz-adv-x="1095" 
d="M229 371q0 -104 33.5 -175t97.5 -71q120 0 249 234t192 505q-86 58 -184 58q-97 0 -170.5 -54.5t-145.5 -174.5t-72 -322zM877 1262q0 76 -34 104.5t-114 28.5l16 73l345 21l-187 -926q-55 -263 -55 -351q0 -89 33.5 -113.5t111.5 -24.5l-16 -74h-344l106 518
q-105 -259 -179.5 -355.5t-140 -141t-133.5 -44.5q-122 0 -182.5 91.5t-60.5 216.5t41 251t120 233.5t191.5 178t255.5 70.5q74 0 185 -21q41 189 41 265z" />
    <glyph glyph-name="e" unicode="e" horiz-adv-x="862" 
d="M643 795q0 78 -39 100.5t-83 22.5t-132 -67t-139 -323q393 78 393 267zM823 815q0 -137 -168 -226t-413 -120q-9 -65 -9 -108q0 -107 42 -177.5t146 -70.5t170 46t79 60q18 -8 32 -26q-106 -152 -220.5 -184t-168.5 -32q-133 0 -200.5 91.5t-67.5 227.5t47 263t125 229.5
t178.5 166t210.5 63.5t163.5 -62t53.5 -141z" />
    <glyph glyph-name="f" unicode="f" horiz-adv-x="712" 
d="M994 1472.5q53 -38.5 53 -84.5q0 -45 -29 -67.5t-62 -22.5t-54 15.5t-67 49.5t-109 34q-115 0 -175 -91t-82 -231l-14 -92h303l-13 -92h-305l-125 -795q-47 -307 -187.5 -447.5t-338.5 -140.5q-109 0 -163 36.5t-54 82.5q0 47 29.5 70.5t64.5 23.5t56.5 -16t63 -52
t108.5 -36t105 26.5t70 92.5t68 301l133 854h-196l12 92h199l6 33q38 247 156 342.5t205 124t188 28.5t154 -38.5z" />
    <glyph glyph-name="g" unicode="g" horiz-adv-x="1056" 
d="M618 922q-99 0 -173 -54.5t-145 -175.5t-71 -321q0 -104 32.5 -175t96.5 -71q120 0 249 234t192 505q-82 58 -181 58zM620 1018q124 0 302 -37l65 12l-172 -895q-115 -588 -598 -587q-219 0 -269 71.5t-50 135.5t45 133t116 98l23 -25q-25 -55 -25 -103q0 -91 70 -153.5
t179 -62.5q108 0 198 102.5t137 331.5l92 465q-92 -228 -165.5 -329t-141.5 -149.5t-138 -48.5q-122 0 -183.5 89t-61.5 216q0 126 40 253t115.5 234.5t186.5 178t235 70.5z" />
    <glyph glyph-name="h" unicode="h" horiz-adv-x="1099" 
d="M784 1018q134 0 157.5 -80t23.5 -119t-9 -67l-41 -189q-63 -282 -63 -364q0 -81 33 -103t104 -22l-16 -74h-344l86 416l73 332q17 76 -14.5 98t-73.5 22t-96.5 -38.5t-131.5 -137t-159.5 -307.5t-109.5 -385h-166l182 926q55 271 55 349q0 79 -33.5 99.5t-109.5 20.5
l16 73l345 21l-201 -989q237 518 493 518z" />
    <glyph glyph-name="i" unicode="i" horiz-adv-x="544" 
d="M225 784q0 85 -33.5 104t-109.5 19l16 74l344 20l-90 -438q-61 -297 -61 -373t31.5 -96t103.5 -20l-16 -74h-332l90 438q57 261 57 346zM346.5 1457q31.5 46 76.5 46q46 0 72.5 -31.5t26.5 -83.5t-33.5 -93.5t-77.5 -41.5t-70 30t-26 79t31.5 95z" />
    <glyph glyph-name="j" unicode="j" horiz-adv-x="505" 
d="M336.5 1457q31.5 46 76.5 46q46 0 72.5 -31.5t26.5 -83.5t-33 -93.5t-78 -41.5t-70.5 30t-25.5 79t31.5 95zM227 787q0 82 -34.5 101t-110.5 19l16 74l344 20l-192 -938q-54 -367 -486 -563l-26 60q120 95 222 243t130 277l78 358q59 267 59 349z" />
    <glyph glyph-name="k" unicode="k" horiz-adv-x="999" 
d="M733 770q0 80 -37 104.5t-80.5 24.5t-126.5 -44.5t-149 -115.5l-150 -739h-155l184 926q55 267 55 348q0 82 -33.5 101.5t-109.5 19.5l16 73l345 21l-134 -655q103 123 206.5 153.5t157.5 30.5q101 0 145 -56.5t44 -140.5q0 -148 -97.5 -233.5t-293.5 -186.5
q152 -169 361 -340l-109 -118q-227 189 -432 422q167 65 280 180t113 225z" />
    <glyph glyph-name="l" unicode="l" horiz-adv-x="503" 
d="M283 1284q0 72 -34 91.5t-110 19.5l17 73l344 21l-187 -926q-61 -297 -61 -372t31.5 -96t103.5 -21l-16 -74h-332l186 926q58 286 58 358z" />
    <glyph glyph-name="m" unicode="m" horiz-adv-x="1693" 
d="M1382 1018q85 0 129.5 -57t44.5 -144q0 -33 -6 -65l-41 -189q-63 -282 -63 -364q0 -81 32.5 -103t104.5 -22l-16 -74h-344l86 416l73 332q17 76 -14.5 98t-73.5 22t-94.5 -38.5t-123.5 -134t-151 -303.5t-108 -392h-166l86 416l74 332q17 76 -15 98t-74 22t-94.5 -38.5
t-123.5 -134t-150 -301.5t-108 -394h-166l86 438q55 271 55 350t-33.5 99t-109.5 20l16 74l344 20l-104 -497q113 254 228.5 384t247.5 130t154.5 -80t22.5 -117t-8 -69l-41 -189l-6 -26q208 481 450 481z" />
    <glyph glyph-name="n" unicode="n" horiz-adv-x="1142" 
d="M827 1018q134 0 157.5 -80t23.5 -119t-9 -67l-41 -189q-63 -282 -63 -364q0 -81 33 -103t104 -22l-16 -74h-344l86 416l73 332q17 76 -15 98t-74 22t-96 -38.5t-131 -137t-159.5 -307.5t-109.5 -385h-166l86 438q55 271 55 350t-33.5 99t-109.5 20l16 74l344 20
l-104 -499q236 516 493 516z" />
    <glyph glyph-name="o" unicode="o" horiz-adv-x="1036" 
d="M430 68q70 0 133.5 55t132 187.5t68.5 330.5t-68 242.5t-134 44.5t-129.5 -55.5t-130 -184t-66.5 -324.5q0 -197 62 -246.5t132 -49.5zM600 1018q191 0 270.5 -111.5t79.5 -251.5q0 -139 -40 -254.5t-113.5 -210t-178 -152.5t-214.5 -58q-191 0 -272 104t-81 266
q0 113 40 231.5t115 216t178.5 159t215.5 61.5z" />
    <glyph glyph-name="p" unicode="p" horiz-adv-x="1101" 
d="M448 74q98 0 173 54t148 173.5t73 321.5q0 104 -34 175.5t-98 71.5t-130 -68.5t-157 -235.5t-153 -435q80 -57 178 -57zM332 496q216 522 460 522q121 0 177.5 -88.5t56.5 -213.5q0 -124 -40 -253t-115.5 -236.5t-185.5 -178.5t-247 -71q-47 0 -194 15q-41 -223 -41 -268
q0 -81 37.5 -101t156.5 -24l-14 -74q-220 8 -326 8q-107 0 -151 -3q-45 -3 -70 -3l14 70q57 6 92 26.5t62 80.5t51.5 174t61.5 306l49 254q53 282 53 356q0 75 -32.5 94t-108.5 19l16 74l340 20z" />
    <glyph glyph-name="q" unicode="q" horiz-adv-x="1054" 
d="M618 922q-99 0 -173 -54.5t-145 -175.5t-71 -321q0 -104 32.5 -175t96.5 -71q120 0 249 234t192 505q-82 58 -181 58zM286 -23q-121 0 -182 91.5t-61 216.5t40 252t116.5 233.5t186.5 177t234 70.5t302 -37l65 12l-158 -809q-37 -188 -58 -301t-21 -175t23.5 -84.5
t76.5 -29.5l-14 -69l-234 6q-129 0 -301 -8l14 74q76 2 124 15t84 64.5t65.5 153.5t66.5 287l84 403q-148 -392 -267.5 -467.5t-185.5 -75.5z" />
    <glyph glyph-name="r" unicode="r" horiz-adv-x="780" 
d="M696 1018q110 0 111 -103q0 -53 -26.5 -80.5t-68.5 -27.5t-65.5 13.5t-54.5 13.5t-69 -43t-87 -142.5t-106 -296.5t-84 -352h-166l86 438q55 271 55 350t-33.5 99t-109.5 20l16 74l344 20l-92 -454q80 229 160 350t190 121z" />
    <glyph glyph-name="s" unicode="s" horiz-adv-x="815" 
d="M448 936q-58 0 -98.5 -44t-40.5 -94t28 -88t70 -74t91 -71t118.5 -100.5t69.5 -171.5q0 -136 -129 -226t-262 -90q-93 0 -166.5 27t-109 58.5t-35.5 72.5t23.5 72t62.5 31t64.5 -27t75.5 -86t136 -59t126 42t40 98t-27.5 99t-68.5 81t-89 74t-117 101t-69 162
q0 129 128 212t261 83q83 0 157.5 -35t74.5 -98q0 -35 -25.5 -61.5t-64.5 -26.5t-60.5 21.5t-40 48t-42 48t-81.5 21.5z" />
    <glyph glyph-name="t" unicode="t" horiz-adv-x="714" 
d="M612 160q-121 -183 -319 -183q-121 0 -159 70.5t-21 159.5l131 655l4 29h-178l12 92h184l39 195l178 41l-47 -236h297l-12 -92h-303l-131 -658q-25 -139 80 -139q55 0 122 41t86 62q23 -13 37 -37z" />
    <glyph glyph-name="u" unicode="u" horiz-adv-x="1142" 
d="M283 -20q-134 0 -157.5 79.5t-23.5 117.5t9 69l41 188q67 309 67 374q0 64 -30.5 81.5t-102.5 17.5l16 74l330 20l-153 -751q-17 -75 15 -98t74 -23t96 39t131 137t156.5 299.5t112.5 392.5h166l-86 -438q-55 -271 -55 -354q0 -84 33.5 -107.5t109.5 -23.5l-16 -74h-344
l102 494q-235 -514 -491 -514z" />
    <glyph glyph-name="v" unicode="v" horiz-adv-x="1048" 
d="M711 870q-97 0 -97 65q0 38 22.5 61.5t88.5 23.5q127 0 196.5 -77t69.5 -217t-107.5 -321t-264 -305.5t-282.5 -124.5t-165 85.5t-22 183.5l28 215q35 256 35 311q0 92 -29.5 114.5t-120.5 22.5l17 74l340 20l-103 -751q-15 -103 27.5 -133.5t77.5 -30.5q66 0 137.5 56.5
t130 144.5t96 194.5t37.5 206.5q0 182 -112 182z" />
    <glyph glyph-name="w" unicode="w" horiz-adv-x="1622" 
d="M104 174q0 35 7 70l41 190q67 313 67 376q0 62 -30.5 79.5t-102.5 17.5l16 74l330 20l-151 -751q-17 -77 15 -100t74 -23t92 39t118 139t135 308.5t94 381.5h164l-86 -745q-16 -102 29 -133t81 -31q68 0 138.5 55.5t129 143.5t95.5 196.5t37 188.5q0 126 -34.5 163
t-74.5 38q-39 1 -69.5 11.5t-30.5 59.5q0 78 118 78t188.5 -77t70.5 -214t-106 -321t-261 -308.5t-278 -124.5t-167 84.5t-30 184.5l43 329q-223 -596 -485 -596q-130 0 -153.5 81t-23.5 116z" />
    <glyph glyph-name="x" unicode="x" horiz-adv-x="1046" 
d="M1020 934q0 -117 -76 -117q-155 0 -285 -168l-65 -88l51 -160q57 -175 94 -225.5t80 -73t111 -28.5v-74h-334l-127 397l-111 -145q-51 -61 -91 -112.5t-75.5 -88.5t-68.5 -56.5t-70 -19.5t-56.5 30t-19.5 63q0 106 76 106q156 0 285 168l104 135l-39 123
q-25 76 -45 134.5t-65 117.5t-174 55v74l334 20l116 -362l76 98q49 63 88 114.5t74 88.5t67.5 56.5t69.5 19.5t56.5 -30t19.5 -52z" />
    <glyph glyph-name="y" unicode="y" horiz-adv-x="1085" 
d="M260 -489q-153 0 -244.5 42.5t-91.5 136.5q0 93 51.5 151.5t116.5 86.5l23 -24l-13 -39q-10 -41 -10 -90q0 -78 59.5 -124t180.5 -46t210 103.5t132 330.5l90 481q-111 -265 -223 -404t-262 -139q-85 0 -129 59.5t-44 143.5q0 33 7 64l41 190q67 309 67 374
q0 64 -30.5 81.5t-102.5 17.5l16 74l330 20l-153 -751q-17 -76 16 -99.5t73 -23.5t94 39t127.5 137t147 297t109.5 395h164l-164 -897q-55 -297 -196.5 -412.5t-232.5 -145t-159 -29.5z" />
    <glyph glyph-name="z" unicode="z" horiz-adv-x="956" 
d="M410 834q-95 0 -156.5 -31t-87.5 -125h-66q54 191 70 315q43 -2 54 -2h511l144 2v-32l-672 -801q176 -21 290 -21q113 0 153 6.5t90 26.5t118 96l62 -12q-69 -93 -158 -272q-82 0 -330 8t-430 8v43l662 791h-254z" />
    <glyph glyph-name="braceleft" unicode="{" horiz-adv-x="649" 
d="M397 -358q-160 0 -223 63.5t-63 175.5q0 36 10 109l82 422q17 114 -34.5 131.5t-78.5 17.5h-41l12 76h41q53 0 100.5 37t61.5 119l55 454q25 169 110.5 252.5t275.5 83.5h47l-15 -90h-28q-124 0 -171.5 -56.5t-64.5 -187.5l-37 -336q-18 -133 -72.5 -212.5t-173.5 -96.5
q90 -12 126 -60t36 -126q0 -28 -10 -101l-68 -329q-12 -61 -12 -121t35 -97.5t133 -37.5h29l-15 -90h-47z" />
    <glyph glyph-name="bar" unicode="|" horiz-adv-x="475" 
d="M336 1548h104l-260 -1642h-104z" />
    <glyph glyph-name="braceright" unicode="}" horiz-adv-x="649" 
d="M258 1583q160 0 223.5 -63.5t63.5 -176.5q0 -36 -10 -108l-84 -422q-12 -82 24.5 -115.5t89.5 -33.5h41l-12 -76h-41q-53 0 -101.5 -37t-60.5 -119l-55 -455q-24 -167 -110 -251t-275 -84h-45l12 90h29q124 0 168 53t67 190l37 336q18 133 71.5 213t172.5 97
q-88 12 -124 60t-36 126q0 30 10 100l68 330q12 61 12 121t-34.5 97.5t-133.5 37.5h-28l14 90h47z" />
    <glyph glyph-name="exclamdown" unicode="&#xa1;" horiz-adv-x="499" 
d="M319 1016q105 0 105 -103q0 -61 -39 -110t-115 -49q-43 0 -72.5 23t-29.5 93t46 108t105 38zM80 -436q-35 0 -50.5 30.5t-15.5 100.5t14.5 157t37 177t48 176t48 157.5t39 122t18.5 68.5h51q-4 -24 -4 -84l2 -166q0 -477 -63.5 -608t-124.5 -131z" />
    <glyph glyph-name="cent" unicode="&#xa2;" horiz-adv-x="915" 
d="M266 346q0 -201 135 -229l127 792q-122 -25 -192 -193.5t-70 -369.5zM80 313q0 221 89 368.5t175 221.5t199 98l28 179h101l-27 -166h2q113 0 169 -45t56 -87t-22.5 -73t-64.5 -31t-60 14.5t-31.5 34t-28 40t-38.5 32.5l-125 -782q70 12 126 46t79 56q18 -6 32 -26
q-97 -137 -256 -193l-26 -172h-101l23 152q-10 -2 -29 -3q-129 0 -199.5 88.5t-70.5 247.5z" />
    <glyph glyph-name="sterling" unicode="&#xa3;" horiz-adv-x="972" 
d="M692 1004q-86 0 -153.5 -56.5t-89.5 -202.5l-23 -139h328l-17 -104h-327l-13 -76q-28 -198 -223 -264h311q143 0 190.5 19.5t64 35.5t28.5 37l68 -59q-41 -74 -118.5 -134.5t-244.5 -60.5h-469l19 129q68 4 120.5 72t65.5 155l22 146h-141l16 104h142l24 156
q26 165 144 253.5t254 88.5q137 0 231 -35l-16 -100q-107 35 -193 35z" />
    <glyph glyph-name="currency" unicode="&#xa4;" horiz-adv-x="1058" 
d="M373 498q0 -43 31.5 -81t75.5 -38q81 0 131.5 59t50.5 121q0 61 -34 98t-79 37t-76 -17.5t-53.5 -44t-34.5 -59t-12 -75.5zM793 580q0 -108 -72 -197l164 -197l-103 -96l-168 203q-72 -39 -143.5 -39t-128.5 39l-233 -203l-66 96l223 199q-23 49 -22 107q0 101 69 194
l-159 195l96 96l168 -199q75 41 146 41t130 -43l230 201l71 -96l-225 -195q23 -51 23 -106z" />
    <glyph glyph-name="yen" unicode="&#xa5;" horiz-adv-x="1122" 
d="M760 1094q175 -9 214.5 -9.5t76.5 3.5t69 6l-10 -70q-81 -22 -133.5 -79.5t-90.5 -112t-87 -123.5l-62 -84h244l-18 -117h-308l-24 -35q-12 -66 -19 -113h326l-18 -116h-318v-35q0 -117 42 -127t71 -14l-10 -68q-35 0 -72 2l-150 2l-164 -2q-43 -2 -86 -2l11 68
q61 5 97.5 34.5t70.5 141.5h-318l19 116h325q12 67 17 115l-15 33h-303l19 117h231l-74 163q-37 82 -72.5 146.5t-103.5 87.5l10 72q212 -9 252.5 -9.5t81.5 3.5t78 6l-10 -72q-100 -14 -100 -66q0 -23 18 -59l127 -272h45l88 123q104 134 104 200q0 60 -81 74z" />
    <glyph glyph-name="section" unicode="&#xa7;" horiz-adv-x="1089" 
d="M353 1238q-46 -48 -46 -127t60.5 -202t120.5 -235t111.5 -214t51.5 -191t-57 -156q20 -4 53 -4t67 18t65.5 60.5t31.5 119.5q0 78 -46 176.5t-122 231.5t-125 227t-49 185t66 157q-35 6 -56 6q-80 -4 -126 -52zM723 1268q-113 0 -113 -130q0 -58 48.5 -155.5t98.5 -188.5
q118 -216 164 -317.5t46 -181.5q0 -152 -128 -257.5t-341 -105.5t-365 103l76 174q94 -86 200 -86q49 0 75 36.5t26 94.5q0 100 -139 342q-39 70 -127 215.5t-88 269.5q0 170 125.5 273.5t332.5 103.5q158 0 248 -37t127 -63l-74 -174q-92 84 -192 84z" />
    <glyph glyph-name="copyright" unicode="&#xa9;" horiz-adv-x="1275" 
d="M426 463q0 -215 176 -215q87 0 121.5 38t52.5 93h51q-27 -86 -45 -162q-37 0 -87 -15.5t-122 -15.5q-127 0 -195.5 66t-68.5 170q0 183 114 295t267 112q59 0 105.5 -13t81.5 -13h10l-27 -160h-49q0 51 -24 88t-120 37t-168.5 -79t-72.5 -226zM549 61q203 0 340 153.5
t137 367.5q0 166 -86 262t-244 96q-201 0 -340 -152t-139 -368q0 -164 86 -261.5t246 -97.5zM550 -14q-194 0 -311.5 121.5t-117.5 310.5q0 119 48 227.5t129 191.5t187.5 131t210.5 48q192 0 309 -120.5t117 -311.5q0 -121 -49 -229.5t-130 -190.5t-186 -130t-207 -48z" />
    <glyph glyph-name="guillemotleft" unicode="&#xab;" horiz-adv-x="874" 
d="M610 100l-217 422l352 424h68l-217 -418l82 -428h-68zM295 100l-217 422l352 424h68l-217 -418l81 -428h-67z" />
    <glyph glyph-name="registered" unicode="&#xae;" horiz-adv-x="1275" 
d="M602 973h31q69 0 95 37t26 71q0 68 -18.5 95.5t-80.5 27.5h-23q-24 0 -34 -2q-8 -46 -8 -227q10 -2 12 -2zM424 1257q40 -4 50 -4h71l131 4q97 0 143.5 -46.5t46.5 -104.5t-34.5 -101.5t-94.5 -58.5q72 -108 162 -188q37 -32 82 -49v-31q-68 -41 -126.5 -11t-127 123
t-96.5 136l-41 2v-10q0 -134 10 -154.5t25.5 -24.5t40.5 -8v-37h-37h-21h-141h-43v37q33 4 49 27.5t16 99.5v225q0 80 -16 107t-49 31v36zM991 1257q-115 121 -302 121q-188 0 -302.5 -122t-114.5 -313t114.5 -313t302.5 -122q187 0 302 121t115 314t-115 314zM326 578
q-150 148 -150 363q0 216 149.5 365.5t364.5 149.5q106 0 200.5 -40t163 -109.5t108.5 -163.5t40 -200.5t-40 -200t-149.5 -203t-323 -109.5t-363.5 148z" />
    <glyph glyph-name="guillemotright" unicode="&#xbb;" horiz-adv-x="872" 
d="M240 946l217 -422l-353 -424h-65l217 418l-82 428h66zM555 946l217 -422l-352 -424h-68l217 418l-82 428h68z" />
    <glyph glyph-name="questiondown" unicode="&#xbf;" horiz-adv-x="817" 
d="M601.5 790.5q-51.5 -53.5 -112.5 -53.5t-89.5 30t-28.5 72q0 75 54.5 126t110.5 51t86.5 -31t30.5 -86t-51.5 -108.5zM274 -479q-230 0 -282.5 86.5t-52.5 156.5t33.5 124.5t82.5 96.5t108.5 77.5t142.5 102.5t83 175q0 43 -20.5 64.5t-85.5 21.5l26 84q16 2 19 2h41
q127 0 174 -42t47 -104t-33 -110.5t-82 -90.5t-188.5 -132t-139.5 -226q0 -68 45.5 -94t159.5 -26t230 43l6 -152q-146 -57 -314 -57z" />
    <glyph glyph-name="Agrave" unicode="&#xc0;" horiz-adv-x="1396" 
d="M954 1622q-3 -29 -16 -59l-360 67q-83 14 -67 88q14 67 58 75.5t76 -9.5zM426 594l205 -2q25 0 58.5 1t68.5 2t68.5 2t60.5 1l-121 627zM256 180q0 -47 26.5 -71.5t79.5 -34.5l-10 -74l-233 10q-35 0 -105 -4t-112 -6l12 72q99 29 160 119t100.5 162.5t99.5 172.5
q203 343 510 906q31 6 76 6t74 -6q169 -866 205.5 -1029t64 -233.5t103.5 -95.5l-11 -74l-145 5q-145 5 -218 1t-118 -6l10 74q68 12 94.5 49t26.5 73v32q0 32 -4 48.5t-11 68.5t-26 151h-17h-70l-181 2l-264 -6q-117 -228 -117 -312z" />
    <glyph glyph-name="AE" unicode="&#xc6;" horiz-adv-x="1914" 
d="M644 592q7 0 47 1l80 2t76 2t58 1l101 631l-504 -635q29 -2 36 -2h106zM1138 774h21q246 0 308.5 26.5t84 59.5t31.5 84h68q-10 -49 -30 -144t-30 -184q-10 -88 -16 -139h-68q8 63 -1 102t-55 68t-255 29l-86 -2l-27 -174q-28 -196 -28 -248q0 -98 51.5 -127t161.5 -29
t169.5 8.5t133 48t184.5 209.5h72l-17 -41q-93 -243 -120 -335q-90 12 -224 12l-264 2h-297q-107 0 -165 -3t-95 -3l10 69q47 6 80 24.5t69 83.5t85 325h-17h-68l-175 2q-114 0 -207 -6q-150 -205 -150 -312q0 -88 103 -106l-10 -74q-255 10 -271 10t-88 -4t-112 -6l12 72
q103 34 287 282t464 596.5t381 481.5q150 -7 160 -7h40l419 5q132 3 225 12q-16 -93 -19 -107t-4 -23t-9 -54t-11.5 -69t-5.5 -38t-3 -30.5t-7 -55.5h-72q-12 78 -34.5 129t-84 93t-270.5 42q-103 0 -135 -8q-31 -119 -74 -367l-29 -178q12 -2 14 -2z" />
    <glyph glyph-name="Ccedilla" unicode="&#xc7;" horiz-adv-x="1429" 
d="M885 -242q0 -103 -78.5 -155t-166.5 -52t-157 31q5 39 37 101q72 -27 115 -27q86 0 86 82q0 31 -27.5 51.5t-91.5 48.5l64 137q-260 16 -408.5 185t-148.5 430q0 168 62 325.5t177 277.5t274.5 192.5t354.5 72.5q116 0 252 -29.5t188 -29.5h21l-60 -373h-75
q-4 37 -13.5 93.5t-69.5 145.5t-262 89q-145 0 -259.5 -60.5t-236.5 -214t-122 -428.5t131.5 -423t316.5 -148t293 114t140 224h79q-24 -82 -98 -377q-43 0 -94 -10.5t-158.5 -32.5t-214.5 -25l-35 -45q78 -31 131.5 -70.5t53.5 -99.5z" />
    <glyph glyph-name="Egrave" unicode="&#xc8;" 
d="M981 1622q-3 -29 -16 -59l-361 67q-82 14 -66 88q15 67 57.5 75.5t76.5 -9.5zM1006 1430q131 0 225 12q-24 -116 -31 -170l-29 -207h-71q-20 157 -100.5 210.5t-286.5 53.5q-94 0 -138 -8q-14 -55 -25 -113t-24.5 -123t-23.5 -131l-29 -178q10 -2 13 -2h22
q245 0 308 26.5t84.5 59.5t31.5 84h67q-50 -246 -60 -331q-9 -85 -15 -136h-68q8 63 -1 102t-55 68t-255 29l-86 -2l-27 -174q-29 -198 -29 -247q0 -94 55 -125.5t167 -31.5q111 0 166 8.5t127.5 48.5t185.5 209h72l-17 -41q-87 -228 -121 -335q-138 12 -221 12l-266 2h-297
q-106 0 -164 -3t-96 -3l10 69q57 8 94 34t72.5 113t96.5 464t61 492q0 116 -29 152t-88 44l10 70q150 -7 158 -7h132l55 1l166 1z" />
    <glyph glyph-name="Eacute" unicode="&#xc9;" 
d="M1040 1806q27 0 43.5 -13t24.5 -58t-10.5 -72t-55.5 -33l-360 -67q-13 30 -16 59l309 162q38 22 65 22zM1006 1430q131 0 225 12q-24 -116 -31 -170l-29 -207h-71q-20 157 -100.5 210.5t-286.5 53.5q-94 0 -138 -8q-14 -55 -25 -113t-24.5 -123t-23.5 -131l-29 -178
q10 -2 13 -2h22q245 0 308 26.5t84.5 59.5t31.5 84h67q-50 -246 -60 -331q-9 -85 -15 -136h-68q8 63 -1 102t-55 68t-255 29l-86 -2l-27 -174q-29 -198 -29 -247q0 -94 55 -125.5t167 -31.5q111 0 166 8.5t127.5 48.5t185.5 209h72l-17 -41q-87 -228 -121 -335
q-138 12 -221 12l-266 2h-297q-106 0 -164 -3t-96 -3l10 69q57 8 94 34t72.5 113t96.5 464t61 492q0 116 -29 152t-88 44l10 70q150 -7 158 -7h132l55 1l166 1z" />
    <glyph glyph-name="Ecircumflex" unicode="&#xca;" 
d="M1112 1622q-41 -55 -111 -104l-176 163l-225 -172q-34 21 -63 74l327 268zM1006 1430q131 0 225 12q-24 -116 -31 -170l-29 -207h-71q-20 157 -100.5 210.5t-286.5 53.5q-94 0 -138 -8q-14 -55 -25 -113t-24.5 -123t-23.5 -131l-29 -178q10 -2 13 -2h22q245 0 308 26.5
t84.5 59.5t31.5 84h67q-50 -246 -60 -331q-9 -85 -15 -136h-68q8 63 -1 102t-55 68t-255 29l-86 -2l-27 -174q-29 -198 -29 -247q0 -94 55 -125.5t167 -31.5q111 0 166 8.5t127.5 48.5t185.5 209h72l-17 -41q-87 -228 -121 -335q-138 12 -221 12l-266 2h-297q-106 0 -164 -3
t-96 -3l10 69q57 8 94 34t72.5 113t96.5 464t61 492q0 116 -29 152t-88 44l10 70q150 -7 158 -7h132l55 1l166 1z" />
    <glyph glyph-name="Edieresis" unicode="&#xcb;" 
d="M924 1754q50 50 104 50t80.5 -27.5t26.5 -63.5q0 -65 -51 -114t-103 -49q-51 0 -79 28t-28 77t50 99zM562 1754q50 50 104 50t80 -27.5t26 -63.5q0 -65 -51 -114t-103 -49q-51 0 -78.5 28t-27.5 77t50 99zM1006 1430q131 0 225 12q-24 -116 -31 -170l-29 -207h-71
q-20 157 -100.5 210.5t-286.5 53.5q-94 0 -138 -8q-14 -55 -25 -113t-24.5 -123t-23.5 -131l-29 -178q10 -2 13 -2h22q245 0 308 26.5t84.5 59.5t31.5 84h67q-50 -246 -60 -331q-9 -85 -15 -136h-68q8 63 -1 102t-55 68t-255 29l-86 -2l-27 -174q-29 -198 -29 -247
q0 -94 55 -125.5t167 -31.5q111 0 166 8.5t127.5 48.5t185.5 209h72l-17 -41q-87 -228 -121 -335q-138 12 -221 12l-266 2h-297q-106 0 -164 -3t-96 -3l10 69q57 8 94 34t72.5 113t96.5 464t61 492q0 116 -29 152t-88 44l10 70q150 -7 158 -7h132l55 1l166 1z" />
    <glyph glyph-name="Idieresis" unicode="&#xcf;" horiz-adv-x="714" 
d="M637.5 1755q49.5 49 103.5 49t80.5 -27.5t26.5 -63.5q0 -65 -51 -114t-103 -49q-51 0 -78.5 28t-27.5 78t49.5 99zM274.5 1754q49.5 50 103.5 50t80.5 -27.5t26.5 -63.5q0 -66 -50.5 -114.5t-102.5 -48.5q-51 0 -79 28t-28 77t49.5 99zM451 1427l90 1q90 0 130 2t79 4
l-11 -70q-55 -6 -92 -33.5t-75.5 -128t-97.5 -477.5q-58 -377 -58 -457q0 -121 27 -155.5t92 -42.5l-11 -70l-186 3q-186 3 -242 0q-57 -3 -94 -3l10 70q53 6 89 29.5t86.5 136t98.5 489.5t48 469t-29 129t-88 41l10 70q137 -7 224 -7z" />
    <glyph glyph-name="Ntilde" unicode="&#xd1;" horiz-adv-x="1605" 
d="M420 1427q10 0 55 5q197 -281 375 -549.5t367 -540.5l63 408q41 264 41 391t-41 173t-125 50l10 70q150 -7 173 -7l130 1q107 0 138 2t57 4l-10 -70q-53 -6 -90 -31.5t-75 -111.5t-106 -518t-108 -738q-35 -6 -68 0q-190 279 -371.5 557.5t-383.5 558.5l-64 -407
q-39 -244 -39 -342q0 -99 10.5 -142t39.5 -77.5t118 -42.5l-10 -70l-285 6q-99 0 -143 -3t-70 -3l10 70q53 6 89 29.5t74 108t100 466.5q8 58 20 144t21.5 173.5t9.5 177t-31 135t-102 54.5l10 74q50 -5 105 -5h106zM766 1630q-69 0 -113 -63q-47 25 -63 65q47 78 97 103.5
t112 25.5t127 -21.5t125 -21.5t104 70q41 -20 59 -64q-35 -84 -91 -114.5t-100 -30.5q-59 0 -143.5 25.5t-113.5 25.5z" />
    <glyph glyph-name="Ocircumflex" unicode="&#xd4;" horiz-adv-x="1603" 
d="M1245 1622q-40 -52 -110 -104l-177 163l-225 -172q-34 21 -63 74l327 268zM740 80q102 0 205.5 48t231.5 203.5t128 516.5q0 229 -108 367.5t-288 138.5q-102 0 -204.5 -45t-235.5 -200t-133 -518t151 -437t253 -74zM930 1458q275 0 440.5 -151.5t165.5 -425.5
q0 -203 -68.5 -370t-185.5 -287t-273.5 -185.5t-300.5 -65.5q-277 0 -440.5 144.5t-163.5 419.5q0 209 70 378.5t186.5 290.5t271 186.5t298.5 65.5z" />
    <glyph glyph-name="Odieresis" unicode="&#xd6;" horiz-adv-x="1603" 
d="M740 80q102 0 205.5 48t231.5 203.5t128 516.5q0 229 -108 367.5t-288 138.5q-102 0 -204.5 -45t-235.5 -200t-133 -518t151 -437t253 -74zM930 1458q275 0 440.5 -151.5t165.5 -425.5q0 -203 -68.5 -370t-185.5 -287t-273.5 -185.5t-300.5 -65.5q-277 0 -440.5 144.5
t-163.5 419.5q0 209 70 378.5t186.5 290.5t271 186.5t298.5 65.5zM1063.5 1755q49.5 49 103.5 49t80.5 -27.5t26.5 -63.5q0 -65 -51 -114t-103 -49q-51 0 -78.5 28t-27.5 78t49.5 99zM700.5 1754q49.5 50 103.5 50t80.5 -27.5t26.5 -63.5q0 -66 -50.5 -114.5t-102.5 -48.5
q-51 0 -79 28t-28 77t49.5 99z" />
    <glyph glyph-name="agrave" unicode="&#xe0;" horiz-adv-x="1069" 
d="M430 1473q24 0 49 -25l297 -274q-8 -27 -35 -50l-350 174q-37 16 -50 43t13 79t76 53zM233 350q0 -225 114 -225t236 228t189 511q-88 58 -185 58q-179 0 -266.5 -173.5t-87.5 -398.5zM590 1018q123 0 301 -37l70 14l-84 -432q-54 -279 -54 -359q0 -81 34 -105.5
t112 -24.5l-17 -74h-344l107 518q-102 -259 -174 -355.5t-136.5 -141t-132.5 -44.5q-119 0 -172 87.5t-53 214.5t35 255t105.5 235.5t175 178t227.5 70.5z" />
    <glyph glyph-name="ae" unicode="&#xe6;" horiz-adv-x="1503" 
d="M750 612v-2q0 -2 4 6h-2q-2 -2 -2 -4zM1282 795q0 78 -39 100.5t-83 22.5t-132 -67t-139 -323q393 78 393 267zM233 350q0 -225 114 -225t236 228t189 511q-88 58 -185 58q-179 0 -266.5 -173.5t-87.5 -398.5zM1243 1018q110 0 164.5 -61.5t54.5 -138.5q0 -140 -168 -229
t-413 -120q-9 -65 -9 -108q0 -107 42 -177.5t146 -70.5t170 46t79 60q18 -8 32 -26q-106 -152 -220.5 -184t-168.5 -32q-133 0 -200.5 91.5t-67.5 223.5t29 218q-101 -255 -169.5 -349.5t-134 -139t-135.5 -44.5q-121 0 -174 87.5t-53 214.5t35 255t105.5 235.5t175 178
t227.5 70.5t301 -37l70 14l-23 -114q148 137 305 137z" />
    <glyph glyph-name="ccedilla" unicode="&#xe7;" horiz-adv-x="856" 
d="M256 -346q86 0 86 82q0 31 -27.5 51t-91.5 49l66 144q-115 10 -177.5 97t-62.5 218t37 254t109.5 226.5t178 171t230.5 67.5t181.5 -45t56.5 -87t-23 -73t-69 -31t-64 21.5t-35.5 46t-41 46t-87.5 21.5t-120 -54t-111 -176t-55 -316q0 -123 29.5 -169t64.5 -65.5
t83 -19.5q84 0 158.5 35.5t104.5 70.5q18 -6 33 -26q-59 -86 -152.5 -142.5t-191.5 -68.5l-43 -56q78 -31 131 -70.5t53 -99.5q0 -103 -78.5 -155t-166.5 -52t-157 31q5 39 37 101q72 -27 115 -27z" />
    <glyph glyph-name="egrave" unicode="&#xe8;" horiz-adv-x="862" 
d="M354 1473q24 0 49 -25l297 -274q-8 -27 -34 -50l-351 174q-37 16 -50 43t13 79t76 53zM643 795q0 78 -39 100.5t-83 22.5t-132 -67t-139 -323q393 78 393 267zM823 815q0 -137 -168 -226t-413 -120q-9 -65 -9 -108q0 -107 42 -177.5t146 -70.5t170 46t79 60q18 -8 32 -26
q-106 -152 -220.5 -184t-168.5 -32q-133 0 -200.5 91.5t-67.5 227.5t47 263t125 229.5t178.5 166t210.5 63.5t163.5 -62t53.5 -141z" />
    <glyph glyph-name="eacute" unicode="&#xe9;" horiz-adv-x="862" 
d="M895.5 1475.5q30.5 0.5 58.5 -53.5t14 -80.5t-50 -43.5l-351 -174q-27 23 -35 50l308 278q25 23 55.5 23.5zM643 795q0 78 -39 100.5t-83 22.5t-132 -67t-139 -323q393 78 393 267zM823 815q0 -137 -168 -226t-413 -120q-9 -65 -9 -108q0 -107 42 -177.5t146 -70.5
t170 46t79 60q18 -8 32 -26q-106 -152 -220.5 -184t-168.5 -32q-133 0 -200.5 91.5t-67.5 227.5t47 263t125 229.5t178.5 166t210.5 63.5t163.5 -62t53.5 -141z" />
    <glyph glyph-name="ecircumflex" unicode="&#xea;" horiz-adv-x="862" 
d="M395 1137q-50 26 -63 73l321 293l240 -264q-57 -70 -113 -102l-170 176zM643 795q0 78 -39 100.5t-83 22.5t-132 -67t-139 -323q393 78 393 267zM823 815q0 -137 -168 -226t-413 -120q-9 -65 -9 -108q0 -107 42 -177.5t146 -70.5t170 46t79 60q18 -8 32 -26
q-106 -152 -220.5 -184t-168.5 -32q-133 0 -200.5 91.5t-67.5 227.5t47 263t125 229.5t178.5 166t210.5 63.5t163.5 -62t53.5 -141z" />
    <glyph glyph-name="edieresis" unicode="&#xeb;" horiz-adv-x="862" 
d="M731 1381q49 51 103 51q55 0 79.5 -28t24.5 -64q0 -67 -49.5 -114.5t-100.5 -47.5t-78.5 27.5t-27.5 75.5q0 49 49 100zM319 1269q0 65 51 114t104 49q52 0 78 -28t26 -64q0 -67 -49.5 -114.5t-101.5 -47.5t-80 28.5t-28 62.5zM643 795q0 78 -39 100.5t-83 22.5t-132 -67
t-139 -323q393 78 393 267zM823 815q0 -137 -168 -226t-413 -120q-9 -65 -9 -108q0 -107 42 -177.5t146 -70.5t170 46t79 60q18 -8 32 -26q-106 -152 -220.5 -184t-168.5 -32q-133 0 -200.5 91.5t-67.5 227.5t47 263t125 229.5t178.5 166t210.5 63.5t163.5 -62t53.5 -141z
" />
    <glyph glyph-name="idieresis" unicode="&#xef;" horiz-adv-x="544" 
d="M225 784q0 85 -33.5 104t-109.5 19l16 74l344 20l-90 -438q-61 -297 -61 -373t31.5 -96t103.5 -20l-16 -74h-332l90 438q57 261 57 346zM454.5 1381.5q48.5 50.5 102.5 50.5q55 0 80 -28t25 -64q0 -67 -49.5 -114.5t-100.5 -47.5t-78.5 27.5t-27.5 76.5t48.5 99.5z
M43 1269q0 65 51 114t104 49q52 0 77.5 -28t25.5 -64q0 -67 -49.5 -114.5t-101.5 -47.5t-79.5 28.5t-27.5 62.5z" />
    <glyph glyph-name="ntilde" unicode="&#xf1;" horiz-adv-x="1142" 
d="M379 1264q77 129 191 129q51 0 145 -21.5t121 -21.5q66 0 108 69q45 -23 60 -63q-35 -86 -91.5 -116t-100.5 -30t-78 8.5t-65.5 17.5t-60 17.5t-53.5 8.5q-68 0 -113 -64q-43 23 -63 66zM827 1018q134 0 157.5 -80t23.5 -119t-9 -67l-41 -189q-63 -282 -63 -364
q0 -81 33 -103t104 -22l-16 -74h-344l86 416l73 332q17 76 -15 98t-74 22t-96 -38.5t-131 -137t-159.5 -307.5t-109.5 -385h-166l86 438q55 271 55 350t-33.5 99t-109.5 20l16 74l344 20l-104 -499q236 516 493 516z" />
    <glyph glyph-name="ocircumflex" unicode="&#xf4;" horiz-adv-x="1036" 
d="M430 68q70 0 133.5 55t132 187.5t68.5 330.5t-68 242.5t-134 44.5t-129.5 -55.5t-130 -184t-66.5 -324.5q0 -197 62 -246.5t132 -49.5zM600 1018q191 0 270.5 -111.5t79.5 -251.5q0 -139 -40 -254.5t-113.5 -210t-178 -152.5t-214.5 -58q-191 0 -272 104t-81 266
q0 113 40 231.5t115 216t178.5 159t215.5 61.5zM436 1137q-50 26 -63 73l321 293l240 -264q-57 -70 -113 -102l-170 176z" />
    <glyph glyph-name="odieresis" unicode="&#xf6;" horiz-adv-x="1036" 
d="M430 68q70 0 133.5 55t132 187.5t68.5 330.5t-68 242.5t-134 44.5t-129.5 -55.5t-130 -184t-66.5 -324.5q0 -197 62 -246.5t132 -49.5zM600 1018q191 0 270.5 -111.5t79.5 -251.5q0 -139 -40 -254.5t-113.5 -210t-178 -152.5t-214.5 -58q-191 0 -272 104t-81 266
q0 113 40 231.5t115 216t178.5 159t215.5 61.5zM759.5 1381.5q48.5 50.5 102.5 50.5q55 0 80 -28t25 -64q0 -67 -49.5 -114.5t-100.5 -47.5t-78.5 27.5t-27.5 76.5t48.5 99.5zM348 1269q0 65 51 114t104 49q52 0 77.5 -28t25.5 -64q0 -68 -49 -115t-101 -47t-80 28.5
t-28 62.5z" />
    <glyph glyph-name="OE" unicode="&#x152;" horiz-adv-x="2131" 
d="M739 80q149 0 277 78q33 61 58.5 181t78.5 451t41 445q-106 119 -281 119q-102 0 -204.5 -44t-235.5 -191t-133 -492q0 -262 104.5 -404.5t294.5 -142.5zM1874 1430q131 0 225 12q-19 -92 -31 -170l-28 -207h-72q-20 158 -100 211t-287 53q-93 0 -137 -8
q-14 -55 -26 -113t-25 -123t-23 -131l-29 -178q10 -2 13 -2h22q246 0 308.5 26.5t84 59.5t31.5 84h68q-10 -49 -30 -144t-30 -184q-10 -88 -16 -139h-68q8 63 -1 102t-54.5 68t-255.5 29l-86 -2l-27 -174q-28 -191 -28 -243q0 -98 55 -129.5t166 -31.5t166 8.5t128.5 48.5
t184.5 209h72l-16 -41q-97 -255 -121 -335q-138 12 -221 12l-267 2h-297q-171 0 -237 -4q-100 -23 -205 -23t-211.5 35t-233 152t-126.5 420q0 197 69.5 358.5t186 277t272 179t297.5 63.5t244 -31q39 -2 50 -2h151l55 1l166 1z" />
    <glyph glyph-name="oe" unicode="&#x153;" horiz-adv-x="1556" 
d="M1335 795q0 77 -38.5 100t-82.5 23t-90.5 -35t-99 -119t-82.5 -236q393 78 393 267zM430 68q70 0 133.5 55t132 187.5t68.5 330.5t-68 242.5t-134 44.5t-129.5 -55.5t-130 -184t-66.5 -324.5q0 -197 62 -246.5t132 -49.5zM51 350q0 113 40 231.5t115 216t179 159
t233.5 61.5t201 -61.5t102.5 -149.5q78 94 174 152.5t200 58.5q162 0 191 -84t29 -119q0 -137 -170 -226.5t-414 -119.5q-6 -55 -6 -104q0 -252 182 -252q108 0 175 46t79 60q18 -8 33 -26q-67 -95 -174 -155.5t-207 -60.5q-189 0 -252 173q-157 -170 -375 -170
q-173 0 -254.5 104t-81.5 266z" />
    <glyph glyph-name="endash" unicode="&#x2013;" horiz-adv-x="1095" 
d="M147 580h795l-18 -125h-795z" />
    <glyph glyph-name="emdash" unicode="&#x2014;" horiz-adv-x="1992" 
d="M147 578h1692l-18 -125h-1692z" />
    <glyph glyph-name="quoteleft" unicode="&#x2018;" horiz-adv-x="526" 
d="M444 1100q0 -58 -39 -110t-114 -52q-111 0 -111 136t124 260t274 157l16 -64q-96 -30 -173.5 -95.5t-88.5 -135.5q112 0 112 -96z" />
    <glyph glyph-name="quoteright" unicode="&#x2019;" horiz-adv-x="544" 
d="M309 1329q0 59 38 110.5t114 51.5q113 -1 113 -137t-123 -258.5t-275 -157.5l-16 63q89 28 169.5 94.5t92.5 137.5q-113 0 -113 96z" />
    <glyph glyph-name="quotedblleft" unicode="&#x201c;" horiz-adv-x="878" 
d="M757.5 990.5q-39.5 -52.5 -112.5 -52.5q-111 0 -111 138t124.5 260t273.5 155l14 -64q-93 -29 -171 -95t-89 -136q66 0 88.5 -30.5t22.5 -76.5t-39.5 -98.5zM444 1100q0 -58 -39 -110t-114 -52q-111 0 -111 136t124 260t274 157l16 -64q-96 -30 -173.5 -95.5
t-88.5 -135.5q112 0 112 -96z" />
    <glyph glyph-name="quotedblright" unicode="&#x201d;" horiz-adv-x="897" 
d="M309 1329q0 59 38 110.5t114 51.5q113 -1 113 -137t-123 -258.5t-275 -157.5l-16 63q89 28 169.5 94.5t92.5 137.5q-113 0 -113 96zM664 1329q0 61 38 111.5t113 50.5q113 0 113 -136t-123.5 -259.5t-276.5 -157.5l-14 63q91 28 170 95t90 137q-110 0 -110 96z" />
    <glyph glyph-name="dagger" unicode="&#x2020;" horiz-adv-x="1171" 
d="M580 1212q0 244 88 244t110.5 -33t14.5 -85t-16.5 -83.5t-21 -66.5t-29.5 -80t-40 -107l45 -51q74 16 140.5 30.5t152.5 14.5q133 0 119 -84q-13 -80 -113 -80t-168.5 14.5t-152.5 31.5l-58 -50q-10 -154 -13.5 -306.5t-23.5 -284.5t-63 -235t-86 -222h-39
q-2 72 -11 142.5t-9 147.5t16 185q16 107 61 261.5t86 309.5l-43 52q-74 -16 -144.5 -31t-166.5 -15q-109 0 -96 80q14 84 147 84q84 0 141.5 -13t122.5 -30l60 52q-10 180 -10 208z" />
    <glyph glyph-name="bullet" unicode="&#x2022;" horiz-adv-x="716" 
d="M162 482q0 95 64 165t142 70q79 0 121.5 -46.5t42.5 -102.5q0 -100 -65 -166t-142 -66q-76 0 -119.5 46t-43.5 100z" />
    <glyph glyph-name="perthousand" unicode="&#x2030;" horiz-adv-x="1792" 
d="M616 537l-376 -416q-109 -125 -153 -81t13.5 96t75.5 69l414 375l364 399q110 125 158.5 75t-92.5 -159zM1282 190q0 -124 94 -124q69 0 110.5 61.5t41.5 146.5q0 125 -96 125q-71 0 -110.5 -61t-39.5 -148zM1339 -12q-79 0 -142.5 46t-63.5 162t96.5 199.5t238.5 83.5
t176.5 -71.5t34.5 -131.5t-26.5 -113.5t-71.5 -92.5t-104 -60.5t-138 -21.5zM952 274q0 125 -94 125q-74 0 -111.5 -61.5t-37.5 -144.5q0 -127 94 -127q69 0 109 59.5t40 148.5zM765 -12q-79 0 -142.5 46t-63.5 161t95 199.5t238 84.5t178.5 -72.5t35.5 -132.5t-26.5 -112.5
t-71.5 -91.5t-104.5 -60.5t-138.5 -21.5zM365 694q70 0 109.5 61t39.5 150q0 123 -92 123q-70 0 -110 -57.5t-40 -149.5q1 -127 93 -127zM329 614q-79 0 -143.5 46.5t-64.5 162.5t94.5 200.5t235.5 84.5t178 -71t37 -131t-26 -114.5t-71 -93.5t-103 -61.5t-137 -22.5z" />
    <glyph glyph-name="guilsinglleft" unicode="&#x2039;" horiz-adv-x="559" 
d="M295 100l-217 422l352 424h68l-217 -418l81 -428h-67z" />
    <glyph glyph-name="guilsinglright" unicode="&#x203a;" horiz-adv-x="559" 
d="M41 100l217 428l-82 418h66l217 -424l-353 -422h-65z" />
    <glyph glyph-name="Euro" unicode="&#x20ac;" horiz-adv-x="1251" 
d="M860 1108q82 0 181.5 -22.5t136.5 -22.5h18q-28 -125 -47 -293h-70q0 163 -79.5 203.5t-155.5 40.5q-133 0 -248 -80t-168 -240h438l-32 -104h-428q-9 -61 -9 -109h402l-35 -104h-361q19 -152 102 -227.5t188 -75.5q104 0 193.5 50.5t133.5 203.5h74q-48 -153 -80 -297
q-35 0 -143 -25.5t-218 -25.5q-438 0 -458 397h-144l17 104h129q2 51 16 109h-129l16 104h146q79 191 245 302.5t369 111.5z" />
    <glyph glyph-name="trademark" unicode="&#x2122;" horiz-adv-x="2349" 
d="M575 1078q0 236 -10 284h-57q-168 0 -191.5 -71.5t-29.5 -102.5h-49l1 31l3 133q0 46 -4 96q62 -8 107 -8h21l158 -1q135 -1 146 -1h62l173 2q84 0 146 8q-4 -50 -4 -81v-13l4 -166h-50q-15 80 -56.5 127t-151.5 47h-58q-12 -123 -12 -326t3 -274.5t15.5 -109.5t35 -51
t61.5 -17v-43q-27 0 -58 2l-123 2l-133 -2q-35 -2 -65 -2v43q39 4 62.5 17t35.5 53t15 114t3 310zM1083 541v43q35 4 56.5 19t37 69t15.5 293v143q0 244 -42 265.5t-69 23.5v45h275l336 -701l282 701q35 -2 64 -2h88l119 2v-45q-27 -2 -70 -17.5t-43 -271.5v-143
q0 -241 16.5 -294t37 -68t55.5 -19v-43q-27 0 -54 2l-29 1l-214 -1q-33 -2 -64 -2v43q33 4 54.5 19t37 71.5t15.5 290.5v325l-310 -764q-31 -6 -57 0l-336 715v-276q0 -241 20.5 -295t46 -68t66.5 -18v-43q-27 0 -55 2l-30 1l-202 -1q-25 -2 -47 -2z" />
    </font>
</defs>
</svg>
