<?xml version="1.0" standalone="no"?>
<!DOCTYPE svg PUBLIC "-//W3C//DTD SVG 1.1//EN" "http://www.w3.org/Graphics/SVG/1.1/DTD/svg11.dtd" >
<svg xmlns="http://www.w3.org/2000/svg">
<metadata>
Created by FontPrep 20130207 at Mon Jul 11 10:32:40 2016
 By Callum Flack
Copyright (c) 1989, 1990 Adobe Systems Incorporated.  All Rights Reserved.Sabon is a trademark of Linotype AG and/or its subsidiaries.
</metadata>
<defs>
<font id="9da5ec410755160c7a8b7060d1a44171" horiz-adv-x='1024' >
  <font-face 
    font-family="Sabon-BoldItalicOsF"
    font-weight="700"
    font-style="italic"
    font-stretch="normal"
    units-per-em="2048"
    panose-1="2 2 8 0 0 0 0 0 0 0"
    ascent="1561"
    descent="-487"
    x-height="950"
    cap-height="1430"
    bbox="-301 -487 2212 1956"
    underline-thickness="102"
    underline-position="-102"
    slope="-12"
    unicode-range="U+0020-FB02"
  />
<missing-glyph horiz-adv-x="569" 
 />
    <glyph glyph-name=".notdef" horiz-adv-x="569" 
 />
    <glyph glyph-name=".null" horiz-adv-x="0" 
 />
    <glyph glyph-name="nonmarkingreturn" horiz-adv-x="681" 
 />
    <glyph glyph-name="space" unicode=" " horiz-adv-x="569" 
 />
    <glyph glyph-name="space" unicode="&#xa0;" horiz-adv-x="569" 
 />
    <glyph glyph-name="exclam" unicode="!" horiz-adv-x="681" 
d="M274 272q60 0 106 -46t46 -105t-46 -105t-106 -47q-60 0 -105 46q-46 45 -46 105t46 106t105 46zM535 1403q141 0 141 -148q0 -90 -219 -585q-87 -193 -107 -254l-51 8q6 70 16 196t19 229q8 103 13 177q14 211 53 288q16 34 52 62t83 27z" />
    <glyph glyph-name="quotedbl" unicode="&#x22;" horiz-adv-x="1062" 
d="M829 852q-33 0 -45 12t-16 43l-43 373q-4 25 -4 41q0 109 104 109q69 0 91 -30t22 -62t-4 -58l-43 -373q-5 -31 -17 -43t-45 -12zM449 852q-33 0 -46 12q-12 12 -16 43l-43 373q-4 25 -4 41q0 109 104 109q70 0 96 -35t13 -115l-43 -373q-4 -31 -16 -43t-45 -12z" />
    <glyph glyph-name="numbersign" unicode="#" 
d="M713 543l41 297h-250l-41 -297h250zM244 0l57 403h-227l20 140h228l40 297h-225l21 139h225l61 434h142l-62 -434h250l62 434h141l-62 -434h226l-21 -139h-225l-41 -297h223l-20 -140h-223l-58 -403h-141l57 403h-250l-57 -403h-141z" />
    <glyph glyph-name="dollar" unicode="$" 
d="M268 1061q0 183 126 289t304 110l21 115h69l-20 -119q94 -4 144 -26t76 -23q24 0 32 25l49 -5q-39 -190 -59 -364l-66 -8q4 37 4 107t-46 136q-46 68 -148 84l-92 -503q4 -4 40 -41t71 -73q36 -37 51 -57t41 -53t35 -51t27 -51t30 -88q12 -54 12 -82q0 -193 -132 -301
t-339 -113l-33 -174h-70l33 180q-106 10 -242 72l-80 -47l-36 4q31 195 51 414l61 4q0 -145 68 -253t192 -120l101 561q-88 84 -134 134q-45 50 -93 140t-48 177zM739 300q0 110 -137 251l-90 -504q102 12 165 77q62 66 62 176zM473 1166q0 -94 129 -228l82 444
q-100 -6 -156 -64t-55 -152z" />
    <glyph glyph-name="percent" unicode="%" horiz-adv-x="2048" 
d="M1382 165q0 -56 28 -95t82 -39t96 51q68 82 91 276q9 68 9 124t-28 93t-82 37t-96 -51t-63 -128q-37 -142 -37 -268zM1178 282q0 156 112 274q114 118 268 118t244 -78t90 -234t-112 -275q-112 -118 -268 -118q-154 0 -244 78q-90 79 -90 235zM578 -61l901 1536h120
l-901 -1536h-120zM487 935q0 -56 28 -95t82 -39t96 51q68 82 91 276q8 68 8 124t-27 94q-28 38 -82 36q-54 0 -96 -51t-63 -128q-37 -142 -37 -268zM283 1052q0 156 112 274q113 118 267 118t245 -78q90 -78 90 -234q-1 -156 -113 -275q-112 -118 -266 -118t-245 78
q-90 79 -90 235z" />
    <glyph glyph-name="ampersand" unicode="&#x26;" horiz-adv-x="1820" 
d="M283 627q0 -80 16 -138q69 105 139 175q157 158 217 210q0 61 -26 87q-27 25 -80 24q-119 -1 -193 -117t-73 -241zM1122 1520q106 0 107 -101q0 -121 -359 -436q-279 -244 -358 -330q-141 -153 -142 -235q0 -82 64 -136q112 -94 295 -96q279 0 455 163t176 442
q-94 109 -180 108q-47 0 -86 -37t-39 -76q0 -62 67 -73q24 -3 46 -23t22 -61t-35 -65t-86 -24t-90 43q-39 42 -39 97q0 125 123 242t246 116q63 0 129 -41t108 -89q115 -130 166 -130q24 0 46 16t22 40t-35 60t-35 67q0 82 70 81q51 0 77 -36t25 -88q0 -94 -100 -186
t-185 -93q-49 0 -75 17q-26 16 -36 24t-35 30q-24 22 -30 25q-27 -338 -210 -552t-509 -214q-145 0 -257 45q-199 80 -273 290q-33 92 -33 208t71 259q71 142 194 242q124 99 250 99t167 -78q9 12 65 66t79 81q23 25 49 71t24 85l-14 95q0 32 30 60t68 28z" />
    <glyph glyph-name="quotesingle" unicode="'" horiz-adv-x="569" 
d="M389 852q-33 0 -45 12t-16 43l-43 373q-4 25 -4 41q0 109 104 109q69 0 91 -30t22 -62t-4 -58l-43 -373q-5 -31 -17 -43t-45 -12z" />
    <glyph glyph-name="parenleft" unicode="(" horiz-adv-x="681" 
d="M297 300q0 -314 139 -646l-96 -37q-182 324 -182 743q0 306 143 594t381 519l76 -68q-217 -215 -339 -503t-122 -602z" />
    <glyph glyph-name="parenright" unicode=")" horiz-adv-x="681" 
d="M385 788q0 314 -139 648l96 37q182 -324 182 -744q0 -305 -143 -593t-381 -519l-76 68q217 215 339 503q122 286 122 600z" />
    <glyph glyph-name="asterisk" unicode="*" horiz-adv-x="948" 
d="M659 719q-82 0 -81 98l8 197l32 8l78 -109q91 -127 28 -175q-26 -19 -65 -19zM258 1242q0 32 24 58t58 27q34 0 72 -39q37 -40 76 -92t53 -66l-19 -28q-18 6 -77 17t-123 36t-64 87zM258 916q0 71 172 110q80 19 92 23l19 -27q-16 -16 -53 -73q-84 -130 -144 -130
q-38 0 -62 30q-24 29 -24 67zM874 1161q32 -1 55 -25q21 -24 21 -57t-22 -57t-54 -25q-33 0 -124 31t-103 33v37q11 2 103 32t124 31zM582 1282q0 86 20 117t62 31t66 -20t24 -61q0 -40 -62 -121q-62 -82 -74 -102l-36 11v145z" />
    <glyph glyph-name="plus" unicode="+" 
d="M477 608v424h185v-424h423v-184h-423v-424h-185v424h-424v184h424z" />
    <glyph glyph-name="comma" unicode="," horiz-adv-x="569" 
d="M258 -68q0 69 -86 80q-34 4 -60 35t-26 89t39 97t98 39q95 0 143 -58t48 -142q0 -158 -97 -246t-225 -125q-55 -17 -110 -23l-19 62q98 12 197 64q98 52 98 128z" />
    <glyph glyph-name="hyphen" unicode="-" horiz-adv-x="757" 
d="M653 406l-293 6q-2 0 -272 -6q23 53 51 163q258 -6 260 -6l295 6q-33 -123 -41 -163z" />
    <glyph glyph-name="hyphen" unicode="&#xad;" horiz-adv-x="757" 
d="M653 406l-293 6q-2 0 -272 -6q23 53 51 163q258 -6 260 -6l295 6q-33 -123 -41 -163z" />
    <glyph glyph-name="period" unicode="." horiz-adv-x="569" 
d="M238 272q59 0 105 -46t46 -105t-46 -105t-105 -47q-59 0 -106 46q-46 45 -46 105t46 106q47 46 106 46z" />
    <glyph glyph-name="slash" unicode="/" horiz-adv-x="681" 
d="M-51 -31l692 1491h195l-693 -1491h-194z" />
    <glyph glyph-name="zero" unicode="0" 
d="M307 344q0 -229 193 -229q135 0 233 142t98 331q0 236 -192 235q-135 1 -233 -145t-99 -334zM123 366q0 204 129 394q60 90 162 146t225 57q176 1 276 -93q101 -94 101 -300t-129 -395q-61 -89 -163 -144t-224 -56q-176 -1 -276 93t-101 298z" />
    <glyph glyph-name="one" unicode="1" 
d="M530 820q0 30 -33 43q-34 13 -147 14h-76l11 61l362 -4q61 0 182 2t181 2l-11 -61h-77q-98 -1 -131 -19t-43 -72l-113 -581q-12 -65 -12 -93q-1 -28 31 -39t147 -12h78l-11 -61l-368 4q-62 0 -186 -2t-185 -2l10 61h72q106 1 138 17t44 74l125 573q12 65 12 95z" />
    <glyph glyph-name="two" unicode="2" 
d="M592 963q98 0 180 -67q80 -67 80 -175q0 -145 -120 -261q-93 -90 -202 -163l-141 -96v-4h459q43 0 59 39l21 45l57 -15l-63 -266q-306 4 -456 4t-437 -4v70l352 237q135 93 188 155t53 151t-50 143q-52 54 -122 55t-103 -15t-49 -24t-49 -35q-34 -26 -36 -28l-47 53
q74 66 119 100t127 68q82 33 180 33z" />
    <glyph glyph-name="three" unicode="3" 
d="M676 679q0 157 -160 157q-113 0 -242 -113l-43 57l78 62q152 121 359 121q115 1 176 -59t61 -168t-93 -192t-253 -155v-4q70 12 105 12q102 -1 162 -71t60 -185t-79 -225q-145 -199 -434 -310q-125 -48 -211 -48t-125 28t-39 68q0 38 22 62t59 24q36 0 91 -33t123 -35
q135 0 244 115t109 246t-52 197q-51 66 -141 65q-90 0 -197 -41l-14 47l116 61q168 90 243 162t75 155z" />
    <glyph glyph-name="four" unicode="4" 
d="M190 164h377l72 514h-4l-445 -508v-6zM0 0v78l762 860h123l-101 -774h211l-22 -164h-211l-55 -430h-218l56 430h-545z" />
    <glyph glyph-name="five" unicode="5" 
d="M-33 -354q0 88 78 88q33 0 92 -31t103 -31q129 0 213 122t84 253t-81 225t-235 168l211 498h567l-61 -197h-498l-55 -131l49 -26q319 -174 320 -445q0 -154 -110 -292t-262 -214q-152 -75 -283 -75q-132 0 -132 88z" />
    <glyph glyph-name="six" unicode="6" 
d="M369 256q0 -94 43 -148t110 -55q123 0 186 117q62 117 62 289q0 80 -41 135t-103 55t-118 -22l12 65q68 47 194 47t206 -87t79 -214q0 -217 -133 -340q-134 -123 -330 -123t-296 112q-100 111 -100 303t109 396q110 204 320 366q211 163 469 208l66 12l14 -72l-82 -22
q-96 -28 -211 -100t-202 -183q-137 -172 -195 -377t-59 -362z" />
    <glyph glyph-name="seven" unicode="7" 
d="M870 719q0 2 -2 2h-598l-65 -125l-62 16l84 326h881l-8 -53l-877 -1352l-94 37l739 1145q2 2 2 4z" />
    <glyph glyph-name="eight" unicode="8" 
d="M889 1077q0 217 -203 217q-88 0 -147 -60t-59 -143t23 -127q24 -44 75 -106l77 -90l78 47q156 92 156 262zM287 287q0 -105 62 -169q61 -64 161 -64t165 54t65 158t-154 258l-82 88l-64 -43q-154 -104 -153 -282zM262 1024q0 142 127 245t292 103t273 -70t107 -215
q0 -188 -260 -327l-90 -49l63 -66q57 -59 86 -91t63 -98t33 -130q0 -160 -120 -255t-310 -95q-188 0 -300 79q-112 80 -111 219q-1 210 247 347l87 47l-46 51q-141 163 -141 305z" />
    <glyph glyph-name="nine" unicode="9" 
d="M766 682q0 94 -43 148t-111 55q-123 0 -185 -117t-62 -289q0 -80 41 -135t103 -55t118 22l-13 -65q-68 -47 -194 -47t-205 87q-80 87 -80 214q0 217 133 340q134 123 330 123t296 -112q100 -111 101 -303t-109 -396t-321 -366q-211 -163 -469 -208l-65 -12l-15 72l82 22
q96 28 211 100t203 183q138 173 196 377t58 362z" />
    <glyph glyph-name="colon" unicode=":" horiz-adv-x="569" 
d="M412 889q59 0 105 -46q46 -45 46 -105t-46 -106t-105 -46t-106 46q-46 46 -46 105t46 106q47 46 106 46zM238 272q59 0 105 -46t46 -105t-46 -105t-105 -47q-59 0 -106 46q-46 45 -46 105t46 106q47 46 106 46z" />
    <glyph glyph-name="semicolon" unicode=";" horiz-adv-x="569" 
d="M412 889q59 0 105 -46q46 -45 46 -105t-46 -106t-105 -46t-106 46q-46 46 -46 105t46 106q47 46 106 46zM258 -68q0 69 -86 80q-34 4 -60 35t-26 89t39 97t98 39q95 0 143 -58t48 -142q0 -158 -97 -246t-225 -125q-55 -17 -110 -23l-19 62q98 12 197 64q98 52 98 128z
" />
    <glyph glyph-name="less" unicode="&#x3c;" 
d="M1090 176v-182l-1041 452v140l1041 452v-182l-785 -340z" />
    <glyph glyph-name="equal" unicode="=" 
d="M53 215v184h1032v-184h-1032zM53 633v184h1032v-184h-1032z" />
    <glyph glyph-name="greater" unicode="&#x3e;" 
d="M49 856v182l1041 -452v-140l-1041 -452v182l785 340z" />
    <glyph glyph-name="question" unicode="?" horiz-adv-x="909" 
d="M360 272q60 0 106 -46t46 -105t-46 -105t-106 -47q-60 0 -105 46q-46 45 -46 105t46 106t105 46zM213 733q0 89 58 145q57 56 141 84t166 52q198 59 198 172q0 61 -39 96t-93 35t-121 -33t-101 -33t-56 25t-22 55q0 113 169 113t273 -98t105 -263q0 -92 -58 -154
q-59 -62 -141 -92t-165 -54q-83 -23 -141 -59t-58 -85t34 -81t76 -32q41 0 76 16q34 16 62 17q28 0 46 -19t19 -48q0 -92 -104 -93q-129 -1 -227 103t-97 231z" />
    <glyph glyph-name="at" unicode="@" horiz-adv-x="1638" 
d="M1239 401q98 -1 169 137t71 285q0 199 -160 361q-161 162 -407 162t-413 -176t-167 -508q0 -234 172 -406t406 -172t436 109l24 -95q-250 -129 -430 -129q-474 0 -701 337q-126 184 -124 378q0 342 229 559q230 217 542 217t516 -181t204 -454q0 -184 -111 -349
t-289 -165q-104 0 -149 50t-45 104h-4q-23 -43 -94 -98q-72 -55 -150 -55t-144 58q-66 60 -67 196q0 136 44 252q44 118 145 205q102 87 230 87t154 -115h4l19 80h156l-125 -512q-12 -57 -13 -86q0 -76 72 -76zM1077 856q0 139 -97 139q-97 1 -176 -111t-79 -287t113 -175
q80 0 160 132t79 302z" />
    <glyph glyph-name="A" unicode="A" horiz-adv-x="1402" 
d="M872 598l-96 561h-4l-307 -561h407zM-82 61q76 0 118 32t91 118l578 1014q109 186 133 231l110 31l29 -17q9 -57 29 -173t30 -175l150 -856q20 -121 49 -163t119 -42h47l-10 -61l-308 8q-59 0 -168 -4t-143 -4l10 61h52q66 1 88 15t20 45q0 31 -12 100l-41 275h-481
l-132 -254q-43 -82 -43 -125q0 -55 134 -56h43l-9 -61l-260 8q-43 0 -129 -4t-129 -4l11 61h24z" />
    <glyph glyph-name="B" unicode="B" horiz-adv-x="1290" 
d="M965 1133q0 219 -226 219q-27 0 -84 -4l-104 -562l113 5q145 6 223 97t78 245zM551 78q190 0 283 105q92 105 92 280q0 248 -269 248l-120 -6l-80 -420q-12 -57 -13 -121q0 -86 107 -86zM387 1296q0 42 -39 56t-139 16l8 62l250 -9l326 9q159 0 296 -62q73 -32 115 -100
t43 -162q-1 -137 -115 -226t-264 -122v-4q340 -49 340 -314q0 -200 -166 -320t-401 -120l-317 8q-21 0 -340 -8l10 61q102 3 140 23t54 109l166 882q33 178 33 221z" />
    <glyph glyph-name="C" unicode="C" horiz-adv-x="1517" 
d="M1296 55q-18 0 -169 -43t-279 -43q-330 -1 -519 183t-190 479q0 373 243 601t597 228q188 0 342 -69q49 -23 86 -23t45 43l49 -8q-49 -219 -67 -387l-62 8q0 164 -84 261t-241 97t-277 -66q-224 -122 -309 -424q-39 -136 -39 -286q0 -236 121 -398t321 -161
q170 1 295 101t199 268l57 -17q-53 -162 -88 -348q-13 4 -31 4z" />
    <glyph glyph-name="D" unicode="D" horiz-adv-x="1593" 
d="M649 78q281 0 456 212t175 531q0 246 -128 388t-372 143q-41 0 -123 -4l-200 -1094q-10 -68 -11 -92q0 -84 203 -84zM383 1268q0 100 -152 100h-34l8 62l301 -9l381 9q301 0 488 -180t188 -443q0 -203 -73 -362t-195 -254q-245 -191 -576 -191l-453 8q-53 0 -152 -4
t-130 -4l10 61q102 3 140 23t54 109l183 970q12 61 12 105z" />
    <glyph glyph-name="E" unicode="E" horiz-adv-x="1327" 
d="M387 1296q0 42 -39 56t-139 16l8 62l344 -9q39 0 262 3t475 6q-23 -131 -38 -306h-64q2 14 2 52q0 102 -60 139t-247 37q-72 0 -232 -13l-98 -536h246q106 0 151 40t68 150h59q-6 -27 -88 -485h-55q6 68 6 92q0 78 -32 95q-56 30 -371 14l-80 -443q-14 -80 -14 -110
q-1 -30 31 -48q32 -17 134 -18h156q168 0 220 18t77 32q51 26 141 216h64q-18 -59 -94 -356l-656 8q-102 0 -292 -4t-248 -4l10 61q102 3 140 23t54 109l166 882q33 178 33 221z" />
    <glyph glyph-name="F" unicode="F" horiz-adv-x="1214" 
d="M387 1296q0 42 -39 56t-139 16l8 62l420 -9q119 0 337 4t288 5q-2 -10 -18 -130t-21 -182h-62q0 150 -51 192t-197 42q-45 0 -131 -6t-123 -7l-108 -577l305 8q72 2 111 42t61 144h55q-51 -248 -84 -485h-55l6 84q0 69 -28 95t-166 26q-139 0 -221 -4l-74 -410
q-12 -72 -12 -127q0 -74 159 -74h37l-8 -61l-334 8q-61 0 -173 -4t-146 -4l10 61q102 3 140 23t54 109l166 882q33 178 33 221z" />
    <glyph glyph-name="G" unicode="G" horiz-adv-x="1669" 
d="M1569 537q-84 0 -111 -39t-45 -156l-41 -248q-285 -125 -504 -125q-324 0 -526 172t-203 496q0 252 125 441q125 190 329 286t442 96t425 -84q20 -8 35 -8q45 0 51 43l49 -8q-49 -240 -67 -387l-62 8q0 172 -105 265t-294 93t-343 -116t-228 -285q-74 -170 -74 -358
q0 -244 125 -410t321 -166q238 0 262 125l37 197q13 61 13 99t-35 53t-125 16h-41l8 61l330 -8q57 0 161 4t138 4l-8 -61h-39z" />
    <glyph glyph-name="H" unicode="H" horiz-adv-x="1630" 
d="M387 1296q0 42 -39 56t-139 16l8 62l328 -9q53 0 150 4t130 5l-10 -62q-59 -2 -87 -6t-52 -28t-31 -70l-86 -461h651l47 272q33 178 33 221q0 42 -38 56t-130 16l8 62l318 -9q54 0 156 4t129 5l-11 -62q-63 -2 -91 -7q-68 -12 -83 -97l-172 -912q-33 -176 -33 -219
t34 -56t130 -16l-8 -61l-309 8q-56 0 -158 -4t-135 -4l10 61q65 3 95 9q72 16 90 123l96 507h-649l-66 -348q-33 -176 -33 -219t34 -56t130 -16l-8 -61l-309 8q-53 0 -157 -4t-146 -4l10 61q102 3 140 23t54 109l166 882q33 178 33 221z" />
    <glyph glyph-name="I" unicode="I" horiz-adv-x="720" 
d="M440 133q0 -43 34 -56t130 -16l-8 -61l-309 8q-53 0 -157 -4t-146 -4l10 61q102 3 140 23t54 109l166 882q33 178 33 221q0 42 -39 56t-139 16l8 62l328 -9q53 0 156 4t143 5l-10 -62q-100 -2 -138 -18t-51 -86l-172 -912q-33 -176 -33 -219z" />
    <glyph glyph-name="J" unicode="J" horiz-adv-x="720" 
d="M-90 -467q-100 0 -156 48q-55 47 -55 109t33 96t90 34q106 0 106 -94l-4 -56q0 -47 49 -47q33 -1 55 17t52 94q31 76 57 219l213 1118q31 164 31 215q0 50 -42 66t-163 16l8 62l361 -9q53 0 156 4t143 5l-10 -62q-100 -2 -138 -18t-51 -86l-172 -920q-88 -448 -227 -633
q-56 -76 -146 -127t-190 -51z" />
    <glyph glyph-name="K" unicode="K" horiz-adv-x="1402" 
d="M387 1296q0 42 -39 56t-139 16l8 62l328 -9q82 0 280 9l-10 -62q-88 -2 -123 -20t-49 -95l-96 -512q27 0 45 4q48 11 172 129l231 232q170 170 170 211q0 51 -110 51h-31l10 62l266 -9q45 0 128 4t108 5l-10 -62q-88 0 -133 -18t-117 -90l-494 -488l332 -498
q86 -127 143 -170t125 -43h27l-8 -61l-187 8l-157 -8q-38 0 -72 42q-12 15 -39 56l-364 535q-20 31 -50 31l-59 -312q-33 -176 -33 -219t34 -56t130 -16l-8 -61l-309 8q-53 0 -157 -4t-146 -4l10 61q102 3 140 23t54 109l166 882q33 178 33 221z" />
    <glyph glyph-name="L" unicode="L" horiz-adv-x="1290" 
d="M387 1296q0 42 -39 56t-139 16l8 62l328 -9q53 0 156 4t143 5l-10 -62q-92 0 -125 -12t-45 -32t-19 -60l-217 -1174h299q332 0 420 211l29 70l63 -6q-94 -291 -113 -365l-479 8q-129 0 -361 -4t-302 -4l10 61q102 3 140 23t54 109l166 882q33 178 33 221z" />
    <glyph glyph-name="M" unicode="M" horiz-adv-x="1933" 
d="M-37 61q109 0 139 42t82 237l226 848q-37 108 -76 144t-135 36l10 62l209 -9l194 9l334 -1070l592 1070l193 -9q45 0 130 4t111 5l-8 -62q-114 0 -150 -31t-45 -153l-47 -744q-10 -148 -10 -238t31 -116t108 -25h41l-8 -61l-323 8q-61 0 -173 -4t-147 -4l10 61h35
q98 0 131 35t41 135l70 969h-4l-471 -844q-143 -260 -185 -356h-82q-18 88 -90 309l-227 725h-4l-137 -540q-72 -281 -72 -336q0 -56 31 -76t100 -21h39l-6 -61l-250 8q-46 0 -126 -4t-107 -4l8 61h18z" />
    <glyph glyph-name="N" unicode="N" horiz-adv-x="1593" 
d="M301 147q0 -86 133 -86h43l-10 -61l-236 8q-49 0 -139 -4t-119 -4l11 61h16q90 0 133 37t66 164l168 912l-41 67q-45 75 -81 101t-108 26l10 62l209 -9l166 9q25 -47 94 -154l629 -961l125 766q20 123 20 185t-44 82q-45 20 -132 20l9 62l252 -9q41 0 123 4t124 5l-8 -62
q-118 0 -156 -39t-65 -186l-170 -942l45 -70q45 -70 105 -70l-11 -61l-164 8l-163 -8q-6 10 -56 96q-49 86 -78 129l-555 844l-133 -788q-12 -74 -12 -134z" />
    <glyph glyph-name="O" unicode="O" horiz-adv-x="1744" 
d="M1688 799q0 -352 -246 -591t-584 -239q-338 -1 -528 183t-191 479q0 373 243 601t583 228q339 0 531 -189t192 -472zM1405 848q0 397 -252 503q-76 32 -174 31q-141 0 -253 -78t-175 -200q-129 -252 -129 -488q0 -399 217 -520q88 -49 209 -49q170 0 299 114t193 294
q65 180 65 393z" />
    <glyph glyph-name="P" unicode="P" horiz-adv-x="1214" 
d="M975 1098q0 254 -211 254q-23 0 -105 -9l-198 -1093q-12 -56 -12 -104q-1 -48 35 -66t122 -19h39l-8 -61l-356 8q-55 0 -159 -4t-138 -4l10 61q102 3 140 23t54 109l174 935q18 92 18 144t-39 74q-40 23 -146 22l10 62l260 -9l379 9q162 0 277 -67q61 -36 99 -105
t37 -162q-1 -199 -153 -315t-330 -115q-111 0 -162 10l15 76q49 -8 94 -9q121 0 187 110t67 245z" />
    <glyph glyph-name="Q" unicode="Q" horiz-adv-x="1744" 
d="M709 -16h-9q-262 35 -412 210t-149 437q0 373 243 601t583 228t531 -189t192 -472q0 -791 -1151 -932v-4q61 -15 423 -115t409 -100q46 0 76 16t30 40t-13 48q-12 23 -12 47q0 68 72 68q33 0 52 -22t19 -52q0 -119 -137 -189t-302 -71q-165 0 -536 113q-131 38 -263 76
t-294 65l11 49q348 51 637 144v4zM1405 848q0 397 -252 503q-76 32 -174 31q-141 0 -253 -78t-175 -200q-129 -252 -129 -488q0 -399 217 -520q88 -49 209 -49q170 0 299 114t193 294q65 180 65 393z" />
    <glyph glyph-name="R" unicode="R" horiz-adv-x="1402" 
d="M1239 1125q0 -169 -111 -268t-282 -138q84 -88 188 -270l113 -193q67 -111 111 -153t114 -42h33l-8 -61l-217 8l-166 -8q-88 122 -223 362t-201 336l-53 4l-86 -479q-11 -67 -11 -95q-1 -66 123 -67h68l-8 -61l-324 8q-59 0 -169 -4t-146 -4l10 61q102 3 140 23t54 109
l174 935q18 92 18 144t-39 74q-40 23 -146 22l10 62l282 -9l344 9q158 0 273 -62q135 -74 135 -243zM643 762q145 0 229 101t84 267q0 221 -215 222h-92l-100 -586q29 -4 94 -4z" />
    <glyph glyph-name="S" unicode="S" horiz-adv-x="1101" 
d="M950 1147q0 94 -58 165q-58 70 -178 70q-239 -1 -241 -227q0 -115 248 -336q92 -82 170 -201t78 -235q0 -197 -136 -305t-348 -109q-129 0 -299 78l-80 -47l-36 4q31 195 51 414l61 4q0 -156 76 -266t201 -109q125 0 203 56t78 185t-167 290q-69 68 -139 138t-118 161
q-48 90 -48 184q0 187 129 293t308 106q117 0 223 -39q38 -14 62 -14t32 25l49 -5q-39 -192 -59 -366l-66 -8q4 41 4 94z" />
    <glyph glyph-name="T" unicode="T" horiz-adv-x="1366" 
d="M334 61q51 -1 80 7t46 36t24 54q7 27 20 92l198 1089h-180q-135 0 -212 -52t-115 -212h-66q49 213 84 398h49q4 -43 94 -43h914q135 0 160 43h55q-37 -240 -47 -398h-66q4 66 4 103q0 102 -62 132t-210 29h-139l-205 -1112q-10 -51 -10 -94q0 -72 112 -72h74l-8 -61
l-326 8q-111 0 -328 -8l11 61h49z" />
    <glyph glyph-name="U" unicode="U" horiz-adv-x="1478" 
d="M203 358q0 92 24 228l95 489q32 166 32 215q0 48 -39 62t-139 16l8 62l328 -9q52 0 156 4t143 5l-10 -62q-100 -2 -138 -18t-51 -86l-143 -799q-12 -70 -12 -133q0 -131 77 -196t201 -64q223 0 326 100q102 100 135 324l94 618q16 98 17 160q0 94 -172 94l8 62l241 -9
q47 1 137 5t117 4l-8 -62q-110 0 -150 -34t-59 -134l-155 -827q-76 -403 -553 -404q-221 0 -366 93q-144 93 -144 296z" />
    <glyph glyph-name="V" unicode="V" horiz-adv-x="1402" 
d="M1546 1368q-48 0 -66 -7t-26 -10q-10 -3 -22 -15t-18 -17t-17 -23t-15 -22t-16 -28t-16 -29l-697 -1248h-80l-292 1217q-29 118 -60 150t-133 32h-22l10 62l344 -9q51 0 147 4t125 5l-8 -62h-25q-81 0 -109 -16t-28 -54t35 -182l191 -784h4l405 764q78 150 78 211
t-150 61h-28l10 62l293 -9q43 0 121 4t104 5l-8 -62h-31z" />
    <glyph glyph-name="W" unicode="W" horiz-adv-x="2009" 
d="M1876 1300q0 68 -145 68l8 62l237 -9q45 0 128 4t108 5l-10 -62q-92 0 -123 -26t-107 -156l-698 -1217h-76l-160 598l-372 -598h-84l-297 1176q-39 155 -70 189t-149 34l10 62l299 -9q51 0 145 4t125 5l-10 -62q-43 0 -66 -2q-67 -6 -65 -57q0 -20 20 -107l232 -907
l248 385l-136 516q-30 116 -54 144t-103 28l10 62l524 -9q78 0 222 4t190 5l-10 -62q-55 0 -93 -18t-53 -40q-16 -22 -51 -79l-236 -379l148 -543l438 805q76 137 76 186zM1360 1310q0 23 -4 32q-12 26 -64 26h-143q-53 0 -53 -39q0 -14 24 -117l62 -235l141 242
q37 68 37 91z" />
    <glyph glyph-name="X" unicode="X" horiz-adv-x="1366" 
d="M600 1320q0 -28 41 -110l166 -327l276 329q72 86 72 107q0 49 -149 49l8 62l262 -9q86 0 254 9l-10 -62q-80 0 -132 -25t-112 -90l-424 -460l332 -641q16 -30 28 -46t48 -30t86 -15h36l-10 -61l-319 8q-61 0 -174 -4t-150 -4l10 61h39q121 0 121 48q0 23 -47 116
l-184 367l-312 -383q-53 -66 -53 -94q0 -53 119 -54h41l-10 -61l-273 8q-51 0 -143 -4t-121 -4l10 61q70 0 126 26q56 25 87 55t88 96l396 444l-291 563q-39 76 -73 100t-101 23h-35l10 62l316 -9q59 0 169 4t146 5l-8 -62q-80 0 -118 -10t-38 -38z" />
    <glyph glyph-name="Y" unicode="Y" horiz-adv-x="1290" 
d="M305 61q94 0 122 33t46 135l66 338l-220 578q-57 151 -97 187t-142 36l10 62l334 -9q52 0 152 4t131 5l-9 -62q-86 0 -120 -12t-33 -55q0 -43 53 -185l154 -418l309 492q49 80 49 115q0 63 -152 63l9 62l247 -9q48 0 134 4t112 5l-8 -62q-84 0 -131 -30t-102 -115
l-426 -648l-54 -292q-20 -111 -20 -162q0 -59 123 -60h61l-10 -61l-334 8q-57 0 -163 -4t-140 -4l10 61h39z" />
    <glyph glyph-name="Z" unicode="Z" horiz-adv-x="1402" 
d="M858 102q178 0 265 66t143 217h63q-57 -209 -98 -385l-582 8l-612 -8q-8 0 -8 12v6q0 8 24 39l991 1282h-391q-155 0 -241 -55t-129 -194h-70q70 240 94 340l553 -9q4 0 553 9v-25l-1022 -1303h467z" />
    <glyph glyph-name="bracketleft" unicode="[" horiz-adv-x="681" 
d="M664 1399q-64 0 -98 -22t-44 -81l-264 -1460q-16 -98 -16 -100q0 -35 39 -41q18 -2 163 -8l-8 -58q-116 4 -184 4t-199 -4q143 643 342 1831q111 -4 175 -4t182 4l-11 -61h-77z" />
    <glyph glyph-name="backslash" unicode="\" horiz-adv-x="681" 
d="M215 1460l528 -1491h-190l-528 1491h190z" />
    <glyph glyph-name="bracketright" unicode="]" horiz-adv-x="681" 
d="M18 -309q63 0 98 21q34 22 44 81l264 1460q16 98 16 101q0 35 -39 41q-18 2 -163 8l8 57q116 -4 184 -4t199 4q-143 -643 -342 -1831q-111 4 -175 4t-182 -4l11 62h77z" />
    <glyph glyph-name="asciicircum" unicode="^" 
d="M174 666l365 747h163l365 -747h-182l-264 542l-265 -542h-182z" />
    <glyph glyph-name="underscore" unicode="_" horiz-adv-x="1024" 
d="M0 -256v102h1024v-102h-1024z" />
    <glyph glyph-name="grave" unicode="`" horiz-adv-x="569" 
d="M280 1507q46 0 91 -63l225 -297h-82l-278 196q-56 39 -56 81t27 63q27 20 73 20z" />
    <glyph glyph-name="a" unicode="a" horiz-adv-x="1099" 
d="M242 299q0 -145 85 -145t188 108t171 244q68 135 68 217q0 113 -102 113t-199 -100q-99 -100 -155 -223q-56 -124 -56 -214zM817 205q0 -31 35 -31q57 0 174 137l43 -43q-35 -47 -127 -134t-149 -125t-105 -39q-49 -1 -75 24t-25 67q0 76 88 312l-4 4q-80 -139 -222 -273
t-268 -135q-76 1 -110 53t-35 121q0 137 74 288t179 263t224 184q119 73 207 72q43 0 70 -17t53 -63l41 97q8 20 41 20q113 0 112 -26q0 -2 -51 -166l-143 -473q-27 -86 -27 -117z" />
    <glyph glyph-name="b" unicode="b" 
d="M834 682q0 154 -117 154q-105 0 -207 -109t-164 -257t-61 -273q0 -150 118 -150q104 0 209 124q104 125 163 271t59 240zM825 950q125 0 188 -73q62 -74 62 -197q-1 -174 -109 -341t-274 -268t-327 -102q-285 0 -285 234q0 61 59 299l228 887l-129 67l10 37
q236 18 362 72l25 -23l-242 -854l4 -4q190 266 428 266z" />
    <glyph glyph-name="c" unicode="c" horiz-adv-x="909" 
d="M347 -31q-139 0 -215 80t-75 217q0 138 73 270q132 240 416 361q124 53 208 53q172 0 172 -116q0 -49 -31 -81t-89 -32t-122 51q-63 51 -98 51q-66 0 -134 -101t-111 -230q-42 -128 -42 -212t46 -128t118 -43q154 -1 373 202l43 -55q-115 -115 -254 -201t-278 -86z" />
    <glyph glyph-name="d" unicode="d" horiz-adv-x="1175" 
d="M678 68q0 51 43 215h-4q-72 -123 -195 -218q-122 -95 -238 -95t-171 72q-55 73 -55 204t96 299q96 169 252 287t303 118q77 0 149 -37l98 480l-135 63l10 37q190 16 363 72l23 -15l-295 -1259q-14 -72 -15 -84q0 -33 31 -33t73 40q98 94 107 101l37 -47q-8 -8 -41 -46
t-50 -56l-51 -54q-37 -39 -94 -81q-57 -41 -88 -51t-59 -11q-94 0 -94 99zM287 275q-1 -85 23 -119t85 -35q106 0 206 108q99 109 154 250q54 141 54 235t-24 127q-24 32 -91 31q-104 0 -202 -116t-152 -256t-53 -225z" />
    <glyph glyph-name="e" unicode="e" horiz-adv-x="909" 
d="M676 793q0 79 -80 79t-167 -138t-112 -253q121 5 240 95t119 217zM326 -31q-133 0 -201 91t-68 223q0 247 193 457t426 210q94 0 155 -43t61 -132q1 -227 -413 -336q-90 -24 -180 -36q-12 -49 -12 -119t42 -122q42 -53 117 -53q148 -1 338 159l39 -49q-82 -76 -141 -121
q-60 -45 -158 -87t-198 -42z" />
    <glyph glyph-name="f" unicode="f" horiz-adv-x="681" 
d="M899 1565q41 0 67 -23t25 -59q0 -135 -76 -135q-31 0 -86 32t-95 33q-40 0 -65 -20q-42 -34 -73 -224l-43 -249h235l-22 -103h-240q-83 -409 -346 -1253l-139 -51l-23 16l281 1288h-199l23 103h203q45 291 212 468t361 177z" />
    <glyph glyph-name="g" unicode="g" horiz-adv-x="1024" 
d="M350 520q0 -61 33 -100t90 -39q103 0 159 112t56 206t-25 134q-26 39 -102 39t-126 -70q-85 -121 -85 -282zM394 -410q100 0 190 39t90 125q0 32 -10 54t-48 45t-56 31q-19 8 -87 40l-158 70l-67 -43q-39 -23 -62 -40q-22 -17 -48 -56t-25 -82q0 -95 91 -139
q90 -44 190 -44zM-72 -270q0 121 107 185q41 26 65 37t77 37q54 26 75 34q-119 43 -119 114q0 45 26 77t82 70t66 46q-174 68 -174 246t122 276t298 98q77 0 185 -34t149 -33q41 0 78 13t51 13q68 -1 68 -73t-68 -72q-29 0 -77 29t-91 28q57 -66 57 -155q0 -166 -119 -264
t-290 -99q-43 0 -121 8q-12 -6 -29 -27q-16 -22 -16 -39t20 -33q21 -15 99 -48l249 -109q180 -78 181 -217q-1 -94 -55 -162t-141 -101q-159 -62 -316 -62t-254 36t-141 83q-44 48 -44 98z" />
    <glyph glyph-name="h" unicode="h" 
d="M852 702q0 63 -14 80q-14 16 -37 17q-92 0 -261 -197q-168 -197 -222 -370t-58 -197q-6 -45 -74 -45q-110 0 -117 21q-8 21 20 138t70 288t62 255l166 699l-123 59l12 43q223 20 357 70l24 -21l-282 -1050h4q326 459 555 458q86 0 118 -45t30 -161t-60 -262
q-107 -274 -297 -432q-84 -71 -141 -70q-33 0 -50 14q-18 14 -18 28t16 75q16 62 31 96l162 -17q127 313 127 526z" />
    <glyph glyph-name="i" unicode="i" horiz-adv-x="645" 
d="M375 1333q0 51 38 89t89 38t89 -38t38 -89t-38 -89t-89 -38t-89 38t-38 89zM190 -31q-40 0 -66 27t-26 75t93 322t93 313t-30 39q-47 0 -156 -127l-41 50q244 283 381 282q55 0 84 -22t29 -82q1 -59 -105 -343t-106 -317t25 -32q28 0 64 33t52 47t38 38q22 23 24 25
l39 -45q-121 -147 -210 -215t-182 -68z" />
    <glyph glyph-name="j" unicode="j" horiz-adv-x="606" 
d="M375 1333q0 51 38 89t89 38t89 -38t38 -89t-38 -89t-89 -38t-89 38t-38 89zM438 950q104 0 105 -114q0 -66 -76 -326l-156 -522q-59 -202 -139 -300t-260 -155l-18 55q40 23 66 52q26 30 67 120t84 248l168 613q23 80 22 90q1 35 -35 35t-86 -51q-18 -17 -44 -44t-32 -33
l-47 50l24 24q22 23 31 33t33 35l39 39q46 46 74 66q28 19 52 37q66 48 128 48z" />
    <glyph glyph-name="k" unicode="k" horiz-adv-x="1099" 
d="M817 715q0 84 -94 84t-218 -125t-157 -254q132 14 283 82q80 35 133 91t53 122zM856 950q74 0 120 -41t46 -123t-86 -168q-143 -144 -375 -212q72 -37 152 -123q80 -87 142 -149q61 -62 111 -62t83 18l-15 -70q-88 -51 -192 -51q-104 1 -182 53t-120 118
q-132 204 -198 243l-84 -356q-8 -37 -83 -37t-97 10t-21 32q0 22 53 234q53 211 111 449l162 674l-129 67l10 37q236 18 363 72l24 -23l-229 -866h4q238 274 430 274z" />
    <glyph glyph-name="l" unicode="l" horiz-adv-x="606" 
d="M324 193q0 -39 30 -39q51 0 189 149l39 -41q-156 -172 -235 -232t-150 -61q-102 0 -103 115q0 41 53 268l252 1037l-129 67l11 37q166 6 362 72l25 -23q-78 -264 -129 -471l-197 -780q-18 -78 -18 -98z" />
    <glyph glyph-name="m" unicode="m" horiz-adv-x="1705" 
d="M283 705q0 29 -30 29t-157 -118l-39 41q6 7 45 51q71 81 127 134q57 54 113 81q55 27 86 27q96 0 96 -102q0 -58 -60 -218q-60 -159 -67 -188l4 -4q95 154 271 333t289 179q96 0 96 -102q1 -52 -59 -214q-60 -163 -68 -192l4 -4q146 239 366 413q125 99 213 99
q55 0 84 -22t29 -82q0 -59 -105 -343t-105 -317t24 -32q29 0 65 33q35 33 51 47t38 38q22 23 24 25l39 -45q-121 -147 -210 -215t-181 -68q-41 0 -67 27q-25 27 -25 76t93 319t93 291q0 51 -43 51q-74 0 -198 -148t-195 -299t-93 -215q-21 -63 -48 -75q-13 -6 -65 -6
q-110 0 -110 41q0 27 33 116l156 449q18 55 18 96t-37 41q-72 1 -196 -155t-176 -246q-50 -90 -76 -148t-36 -91q-12 -31 -24 -57q-22 -45 -59 -46q-82 0 -112 6t-29 24q-1 13 28 105l158 479q27 92 27 101z" />
    <glyph glyph-name="n" unicode="n" horiz-adv-x="1175" 
d="M283 705q0 29 -30 29t-157 -118l-39 41q6 7 45 51q71 81 127 134q57 54 113 81q55 27 86 27q96 0 96 -102q0 -58 -60 -218q-60 -159 -67 -188l4 -4q95 158 275 335t307 177q55 0 84 -22t29 -82q0 -59 -106 -343t-105 -317q0 -33 24 -32q29 0 65 33t71 65t42 45l39 -45
q-121 -147 -210 -215t-181 -68q-41 0 -67 27t-25 76q0 49 93 319t93 291q0 51 -51 51q-72 1 -196 -155t-176 -246q-50 -90 -76 -148t-36 -91q-12 -31 -24 -57q-22 -45 -59 -46q-82 0 -112 6t-29 24q-1 13 28 105l158 479q27 92 27 101z" />
    <glyph glyph-name="o" unicode="o" horiz-adv-x="1099" 
d="M622 950q210 0 312 -110t102 -285q0 -233 -157 -410q-158 -176 -400 -176q-182 0 -292 117t-109 279q0 245 167 415t377 170zM471 47q88 0 157 69q113 113 158 353t-13 343q-34 60 -125 60t-159 -64q-67 -64 -105 -161q-74 -190 -77 -366q0 -234 164 -234z" />
    <glyph glyph-name="p" unicode="p" 
d="M338 154q0 -106 121 -107q102 0 196 126t143 276q48 150 48 249q0 162 -182 162q-90 0 -166 -16l-127 -512q-33 -137 -33 -178zM752 950q324 0 323 -256q0 -119 -52 -248t-137 -234t-204 -174q-120 -69 -226 -69t-167 49l-90 -368l161 -35l-8 -49q-342 -49 -364 -53
l-25 16q57 242 169 688t140 563q-98 -23 -239 -86l14 76q127 59 248 92l63 262l226 62l-72 -271q123 35 240 35z" />
    <glyph glyph-name="q" unicode="q" 
d="M287 256q0 -135 100 -135q152 0 295 208t143 386q1 69 -33 107t-100 38q-100 0 -197 -110t-153 -248q-56 -140 -55 -246zM57 193q1 151 107 329t271 303t315 125q119 0 165 -96l41 123l166 55l-356 -1419q33 -12 141 -31l-6 -49l-244 8q-92 0 -280 -8l10 49q88 6 168 31
l178 672h-4q-62 -90 -145 -167q-159 -149 -316 -149q-211 0 -211 224z" />
    <glyph glyph-name="r" unicode="r" horiz-adv-x="796" 
d="M283 688q0 45 -29 45q-57 0 -160 -117l-37 46q76 98 184 193t185 95q86 0 86 -92q0 -79 -42 -211q-42 -131 -50 -158l4 -4q16 23 57 94q81 140 171 255q91 116 179 116q89 0 89 -80q0 -55 -27 -102t-74 -47l-92 12q-74 0 -177 -160t-192 -383q-14 -37 -32 -99t-23 -71
q-20 -30 -111 -30q-92 0 -92 36t41 152l101 332q41 164 41 178z" />
    <glyph glyph-name="s" unicode="s" horiz-adv-x="796" 
d="M464 811q-156 0 -157 -80q0 -59 125 -141l139 -88q72 -47 101 -85t28 -110q0 -109 -120 -223t-287 -115q-111 0 -196 45t-85 127q0 47 12 75q11 28 54 75h39q10 -68 71 -109q60 -41 114 -51t104 -10q156 0 155 82q1 31 -21 57t-104 80l-178 117q-106 70 -106 172
q0 55 36 110q56 86 170 155q35 22 52 30q77 39 188 25t139 -59q50 -78 -30 -196h-48q-39 117 -195 117z" />
    <glyph glyph-name="t" unicode="t" horiz-adv-x="681" 
d="M348 211q0 -37 38 -37t73 23t84 71t57 56l37 -43q-8 -7 -48 -51q-137 -149 -219 -204t-151 -57q-113 0 -113 117q0 61 70 299l129 432h-211l27 103h215l88 290h213l-86 -290h240l-25 -103h-244l-141 -471q-33 -111 -33 -135z" />
    <glyph glyph-name="u" unicode="u" horiz-adv-x="1175" 
d="M766 -31q-59 0 -85 29t-26 65q0 72 152 504l-4 4q-58 -96 -139 -212q-82 -115 -114 -153q-103 -120 -184 -178q-82 -57 -165 -59q-98 0 -99 113q0 56 90 330t91 293q0 29 -30 29t-157 -118l-39 41q2 4 26 30t33 36q204 227 324 227q96 0 97 -102q-1 -84 -97 -344
t-96 -295t33 -35q84 0 354 397q57 85 105 185t73 147t43 47q8 0 52 -16l102 -45l-191 -572q-56 -163 -6 -163q29 0 65 33t71 65t42 45l39 -45q-131 -141 -216 -212t-144 -71z" />
    <glyph glyph-name="v" unicode="v" horiz-adv-x="1024" 
d="M420 950q92 0 92 -106q0 -66 -88 -328t-88 -305q0 -90 101 -90t195 95q93 95 141 218t48 225q0 29 -12 84t-12 96t32 76q33 35 89 35t89 -37q32 -37 31 -96q0 -97 -68 -243q-152 -327 -403 -508q-133 -96 -248 -96t-157 44q-42 45 -43 131q-1 85 69 315t70 238
q0 35 -27 35q-40 0 -114 -76q-33 -33 -43 -41l-43 48q29 28 67 68t75 77q38 37 64 55t73 52q48 34 110 34z" />
    <glyph glyph-name="w" unicode="w" horiz-adv-x="1593" 
d="M1602 811q0 -78 -67 -223q-158 -343 -411 -519q-141 -99 -272 -100q-76 0 -118 43t-42 119t33 195l-4 4q-91 -121 -237 -241t-255 -120q-53 0 -84 40t-31 119q0 80 72 318t72 252q0 35 -27 35q-40 0 -114 -76q-33 -33 -43 -41l-43 48q29 28 67 68t75 77q38 37 64 55
t73 52t110 34q92 0 92 -106q0 -53 -84 -306t-84 -335q0 -49 39 -49q67 0 185 105t186 204q4 14 33 138t72 210q42 86 83 112q41 27 81 27q39 0 63 -30t24 -74q0 -43 -17 -87t-33 -67l-48 -69q-33 -46 -68 -193t-35 -219q0 -90 95 -90q137 0 257 179t119 343l-8 186
q0 55 30 89t83 32q53 0 85 -30t32 -109z" />
    <glyph glyph-name="x" unicode="x" 
d="M559 158q-14 41 -31 98q-16 57 -22 74q-20 -25 -78 -100t-98 -124q-42 -49 -102 -93t-111 -44q-121 0 -121 125q0 90 94 150l41 -19q-8 -33 -8 -45t16 -29q29 -31 82 -11q19 8 37 22t34 26t36 36t30 35t30 36q19 25 24 29l71 86q-8 31 -21 82q-42 166 -66 209t-45 54
t-46 11t-49 -16t-36 -32q-10 -16 -28 -49q-18 -34 -24 -44l-53 30q93 211 188 268q47 27 99 27t86 -22q36 -22 59 -65q23 -42 36 -79t28 -92t24 -78q76 124 177 230t198 106q51 0 80 -30t28 -80q0 -82 -110 -152l-35 12q-4 66 -66 66q-45 0 -132 -87t-118 -142l86 -254
q43 -129 97 -129q28 0 56 20t44 42t36 52t23 35l50 -39q-6 -10 -28 -47t-51 -82t-92 -106q-63 -60 -159 -60q-95 0 -160 189z" />
    <glyph glyph-name="y" unicode="y" horiz-adv-x="1062" 
d="M846 606q0 34 -25 100q-50 135 7 205q32 39 94 39q117 0 116 -137q0 -172 -207 -510t-540 -672q-55 -55 -101 -77t-112 -21q-115 0 -115 98q0 59 24 83q23 24 51 24t74 -10t88 -10t86 24t66 46t58 69q37 47 41 53q-16 211 -39 328q-98 528 -244 528q-70 0 -70 -100
q0 -4 6 -78l-30 -13l-49 29q0 124 36 202t83 112q48 32 112 32q213 -2 290 -360q13 -61 27 -148l54 -309h4l24 37q23 37 29 47t49 79t71 144q29 75 36 103q6 29 6 63z" />
    <glyph glyph-name="z" unicode="z" horiz-adv-x="948" 
d="M723 178q0 52 64 51q32 0 53 -30q20 -31 20 -74q0 -88 -80 -178t-152 -90q-120 0 -245 134t-203 134q-51 0 -51 -39l6 -55q0 -25 -16 -43t-43 -19q-55 1 -55 59t57 111l594 574l-4 4q-32 -12 -94 -12t-161 47t-128 47q-29 -1 -46 -19t-18 -43l17 -69q0 -52 -58 -52
t-57 54q0 54 36 103q36 48 134 132q53 45 118 45t197 -66t168 -65q35 0 35 39l-4 62q0 20 16 35t43 16q55 0 56 -49q0 -52 -48 -100q-16 -17 -55 -56l-532 -526h20q61 0 145 -54t160 -110q74 -56 107 -56t50 20t17 38q0 20 -31 48q-32 28 -32 52z" />
    <glyph glyph-name="braceleft" unicode="{" horiz-adv-x="681" 
d="M375 400q0 -46 -17 -128l-67 -358q-10 -51 -10 -115q0 -113 149 -133l-6 -37q-156 0 -228 37t-71 144q0 49 12 116l72 377q10 51 10 107q0 96 -119 135q96 29 140 82q43 53 63 159l72 377q33 181 122 239t275 58l-8 -37q-113 -14 -164 -72t-74 -175l-67 -359
q-19 -119 -61 -181t-128 -89v-4q49 -17 77 -57t28 -86z" />
    <glyph glyph-name="bar" unicode="|" horiz-adv-x="454" 
d="M174 -31v1596h184v-1596h-184z" />
    <glyph glyph-name="braceright" unicode="}" horiz-adv-x="681" 
d="M307 689q0 46 17 128l67 359q10 51 10 114q0 113 -149 133l6 37q156 0 228 -37t71 -143q0 -49 -12 -117l-72 -377q-10 -51 -10 -106q0 -96 119 -135q-96 -29 -140 -82t-63 -160l-72 -377q-33 -180 -122 -238t-275 -59l8 37q113 14 164 72t74 176l67 358q19 120 61 182
t128 89v4q-49 18 -77 57t-28 85z" />
    <glyph glyph-name="asciitilde" unicode="~" 
d="M777 352q-69 0 -212 66q-12 6 -53 25t-79 37t-91 20q-100 0 -172 -156l-74 164q41 55 68 86q27 30 78 60q52 30 120 30t211 -66q11 -6 53 -25t81 -37t90 -19q100 -1 172 155l73 -164q-42 -55 -68 -86q-26 -30 -77 -60t-120 -30z" />
    <glyph glyph-name="exclamdown" unicode="&#xa1;" horiz-adv-x="681" 
d="M408 705q-61 0 -107 45q-45 45 -45 106q0 60 45 106t107 46t106 -45q45 -45 45 -107t-45 -106q-45 -45 -106 -45zM147 -426q-141 0 -141 147q0 91 219 586q87 193 107 254l51 -8l-49 -621q-14 -193 -52 -269q-16 -33 -52 -61t-83 -28z" />
    <glyph glyph-name="cent" unicode="&#xa2;" 
d="M135 262q-1 168 101 320t242 240t280 116l104 283h76l-100 -271h14q63 0 107 -28q45 -28 45 -82q0 -55 -31 -87t-89 -32t-116 45l-244 -657h17q152 -2 372 202l43 -55q-264 -264 -483 -287l-108 -286h-76l108 286q-131 10 -197 90t-65 203zM664 823q-66 0 -135 -101
t-111 -230q-42 -130 -41 -226q0 -96 80 -139l254 682q-23 14 -47 14z" />
    <glyph glyph-name="sterling" unicode="&#xa3;" 
d="M936 1565q229 0 229 -158q1 -57 -31 -87t-82 -30t-77 6q6 31 6 71t-27 74t-73 34q-91 0 -131 -74q-23 -41 -37 -69q-13 -28 -27 -96t-17 -88q-3 -19 -16 -95l-30 -195h340l-15 -102h-340q-49 -256 -215 -482q43 6 111 6t155 -42q86 -43 153 -86t106 -43q38 1 62 23t24 58
q0 78 -105 82q-6 18 -6 50q1 32 23 62q22 28 76 28t90 -38t36 -104q0 -121 -101 -211t-229 -90q-80 0 -164 49q-84 48 -162 102q-77 54 -134 58q-12 -10 -54 -65q-95 -123 -178 -123q-45 0 -45 64t71 128t163 84q39 92 62 247q24 155 26 243h-238l8 102h240q8 90 44 211
q61 204 179 345q58 69 144 110t186 41z" />
    <glyph glyph-name="currency" unicode="&#xa4;" 
d="M295 715q0 -133 95 -229t228 -95q133 0 229 95q95 94 95 228t-95 229t-229 95t-228 -95q-95 -95 -95 -228zM1126 715q0 -80 -30 -165t-70 -134l119 -113l-109 -113l-121 121q-117 -104 -301 -104t-292 104l-125 -121l-109 113l117 113q-94 127 -94 297t94 301l-117 114
l113 115l121 -119q128 96 298 99t295 -99l121 119l109 -115l-119 -114q100 -131 100 -299z" />
    <glyph glyph-name="yen" unicode="&#xa5;" 
d="M264 61q86 0 112 33t46 135l37 203h-342l24 103h340l31 161h-340l21 103h284l-137 331q-66 164 -101 201q-36 37 -145 37l10 62l297 -9q49 0 141 4t120 5l-7 -62q-81 0 -113 -9t-32 -47t57 -182l127 -331l242 377q61 100 61 136t-32 46q-33 10 -107 10l8 62l230 -9
q11 0 227 9l-6 -62q-90 0 -131 -31t-101 -118l-290 -420h305l-23 -103h-344l-31 -161h345l-23 -103h-342l-27 -149q-23 -123 -22 -162q0 -59 96 -60h76l-12 -61l-304 8q-49 0 -144 -4t-130 -4l12 61h37z" />
    <glyph glyph-name="brokenbar" unicode="&#xa6;" horiz-adv-x="454" 
d="M174 942v623h184v-623h-184zM174 -31v623h184v-623h-184z" />
    <glyph glyph-name="section" unicode="&#xa7;" 
d="M391 906q0 -110 69 -274q70 -164 138 -326q68 -164 68 -258t-14 -132t-14 -41q-1 -4 -14 -34t-14 -31h4q78 56 127 164t49 220t-68 276q-69 163 -137 325q-69 162 -69 265t41 212h-4q-68 -52 -115 -154t-47 -212zM264 883q0 215 181 396t393 181q90 0 158 -39t69 -102
q0 -37 -25 -64q-24 -27 -68 -27t-68 24t-34 54t-34 54t-60 22q-145 0 -145 -227q-1 -127 71 -301t144 -346t72 -289q0 -250 -196 -432t-437 -182q-86 0 -149 39q-62 39 -62 100q0 35 31 66q32 30 67 30q34 0 60 -24t40 -55t39 -55t56 -23q96 0 140 87t44 189q0 177 -143 458
q-52 103 -98 233t-46 233z" />
    <glyph glyph-name="dieresis" unicode="&#xa8;" horiz-adv-x="569" 
d="M248 1425q47 1 81 -33q33 -34 33 -81t-34 -81t-80 -34q-47 0 -81 34t-34 81t34 81t81 33zM680 1425q47 1 81 -33t34 -81t-34 -81t-81 -34t-81 34t-34 81t34 81t81 33z" />
    <glyph glyph-name="copyright" unicode="&#xa9;" horiz-adv-x="1638" 
d="M436 721q0 147 107 274q53 63 151 103t204 39q106 0 199 -24t93 -56v-154h-49q-39 184 -223 184q-129 0 -197 -96t-68 -260q0 -389 271 -389q182 0 254 190h49l-35 -155q-8 -35 -98 -60t-191 -24q-213 1 -340 109t-127 319zM270 715q0 -242 171 -424t420 -182t419 182
t170 424t-170 424t-419 182t-420 -182t-171 -424zM860 1460q318 0 532 -216t214 -530t-214 -530t-532 -215q-318 -1 -531 215q-214 216 -214 530t214 530t531 216z" />
    <glyph glyph-name="ordfeminine" unicode="&#xaa;" horiz-adv-x="714" 
d="M569 1275q1 60 -75 60t-162 -106t-86 -176t49 -70q80 0 177 116t97 176zM94 961q0 141 158 303t287 161q68 0 104 -43l16 31q16 31 46 31q72 0 71 -14l-133 -373q-18 -55 -18 -66q0 -20 22 -20q39 0 115 80l26 -25q-2 -2 -19 -18t-25 -24l-25 -25q-17 -17 -29 -25
t-30 -22q-71 -56 -131 -56t-60 59q0 35 66 170h-5q-49 -81 -146 -155t-189 -74q-51 0 -76 30t-25 75z" />
    <glyph glyph-name="guillemotleft" unicode="&#xab;" horiz-adv-x="1062" 
d="M831 139l-344 348l461 349l31 -39l-287 -310l182 -319zM451 139l-345 348l461 349l31 -39l-287 -310l183 -319z" />
    <glyph glyph-name="logicalnot" unicode="&#xac;" 
d="M901 221v412h-848v184h1032v-596h-184z" />
    <glyph glyph-name="registered" unicode="&#xae;" horiz-adv-x="1638" 
d="M848 713q135 0 135 195q0 89 -34 122t-99 33h-78v-350h76zM502 1112h416q110 0 180 -49t70 -137t-47 -154q-46 -68 -109 -96l104 -154q100 -152 150 -178v-25h-172q-31 -1 -64 47t-87 142t-101 156h-70v-213q2 -63 14 -77t82 -18v-37h-366v37q70 4 84 18t14 77v536
q0 57 -14 71t-84 17v37zM270 715q0 -242 171 -424t420 -182t419 182t170 424t-170 424t-419 182t-420 -182t-171 -424zM860 1460q318 0 532 -216t214 -530t-214 -530t-532 -215q-318 -1 -531 215q-214 216 -214 530t214 530t531 216z" />
    <glyph glyph-name="macron" unicode="&#xaf;" horiz-adv-x="569" 
d="M154 1223l30 127h570l-31 -127h-569z" />
    <glyph glyph-name="macron" unicode="&#x2c9;" horiz-adv-x="569" 
d="M154 1223l30 127h570l-31 -127h-569z" />
    <glyph glyph-name="degree" unicode="&#xb0;" horiz-adv-x="819" 
d="M201 1139q0 127 90 216t215 89t215 -89t90 -216t-90 -216t-215 -89t-215 89t-90 216zM315 1139q1 -80 57 -135q56 -56 134 -56t134 56t56 135q0 80 -56 135t-134 55t-134 -55t-57 -135z" />
    <glyph glyph-name="plusminus" unicode="&#xb1;" 
d="M53 0v184h1032v-184h-1032zM477 279v284h-424v185h424v284h185v-284h423v-185h-423v-284h-185z" />
    <glyph glyph-name="twosuperior" unicode="&#xb2;" horiz-adv-x="739" 
d="M80 612q0 14 31 41q432 369 432 543q0 72 -39 115t-102 43t-133 -46q-19 -13 -58 -46l-27 38q166 143 310 144q106 0 176 -49t69 -146q0 -133 -138 -263q-139 -129 -282 -224l-57 -41v-4h404l49 86l41 -10l-66 -215q-184 4 -303 4l-295 -4q-12 0 -12 34z" />
    <glyph glyph-name="threesuperior" unicode="&#xb3;" horiz-adv-x="739" 
d="M429 1366q-77 0 -169 -61l-22 34q139 104 272 105q92 0 161 -37t69 -125t-64 -143q-63 -55 -180 -99v-4q215 -14 215 -190q0 -121 -115 -204t-252 -83t-240 43l-28 96l65 25q63 -115 181 -115q92 0 148 65t56 158t-42 133t-134 40q-14 -1 -47 -5l14 54q100 0 178 53
q77 53 76 141q0 119 -142 119z" />
    <glyph glyph-name="acute" unicode="&#xb4;" horiz-adv-x="569" 
d="M690 1507q30 1 56 -25t26 -54t-6 -39q-14 -28 -131 -97l-250 -145h-90l268 278q47 47 72 65t55 17z" />
    <glyph glyph-name="mu" unicode="&#xb5;" horiz-adv-x="1175" 
d="M766 -31q-59 0 -85 29t-26 65q0 72 152 504l-4 4q-58 -96 -139 -212q-82 -115 -114 -153q-103 -120 -184 -178q-82 -57 -165 -59q-18 -66 -19 -192q0 -264 -137 -264q-45 1 -69 31t-24 71q1 97 71 290q18 52 55 157q36 106 120 366t85 277q0 29 -30 29t-157 -118l-39 41
q2 4 26 30t33 36q204 227 324 227q96 0 97 -102q-1 -84 -97 -344t-96 -295t33 -35q84 0 354 397q57 85 105 185t73 147t43 47q8 0 52 -16l102 -45l-191 -572q-56 -163 -6 -163q29 0 65 33t71 65t42 45l39 -45q-131 -141 -216 -212t-144 -71z" />
    <glyph glyph-name="mu" unicode="&#x3bc;" horiz-adv-x="1175" 
d="M766 -31q-59 0 -85 29t-26 65q0 72 152 504l-4 4q-58 -96 -139 -212q-82 -115 -114 -153q-103 -120 -184 -178q-82 -57 -165 -59q-18 -66 -19 -192q0 -264 -137 -264q-45 1 -69 31t-24 71q1 97 71 290q18 52 55 157q36 106 120 366t85 277q0 29 -30 29t-157 -118l-39 41
q2 4 26 30t33 36q204 227 324 227q96 0 97 -102q-1 -84 -97 -344t-96 -295t33 -35q84 0 354 397q57 85 105 185t73 147t43 47q8 0 52 -16l102 -45l-191 -572q-56 -163 -6 -163q29 0 65 33t71 65t42 45l39 -45q-131 -141 -216 -212t-144 -71z" />
    <glyph glyph-name="paragraph" unicode="&#xb6;" horiz-adv-x="1269" 
d="M426 857q0 -81 38 -130t93 -49l131 637q-72 0 -126 -45t-82 -118q-28 -74 -41 -144t-13 -151zM252 -303q61 0 88 35t49 137l143 694q-145 0 -218 83t-72 231q0 553 532 553h600l-12 -62h-68q-59 0 -84 -37t-51 -168l-268 -1294q-18 -96 -19 -119q0 -53 74 -53h68l-13 -62
h-335l360 1733h-149l-361 -1733h-338l12 62h62z" />
    <glyph glyph-name="periodcentered" unicode="&#xb7;" horiz-adv-x="569" 
d="M164 609q0 55 42 99t98 44t99 -43t43 -99t-43 -99q-43 -42 -99 -42t-98 42t-42 98z" />
    <glyph glyph-name="periodcentered" unicode="&#x2219;" horiz-adv-x="569" 
d="M164 609q0 55 42 99t98 44t99 -43t43 -99t-43 -99q-43 -42 -99 -42t-98 42t-42 98z" />
    <glyph glyph-name="cedilla" unicode="&#xb8;" horiz-adv-x="569" 
d="M129 -365q113 0 113 82q0 37 -26 60q-48 43 -130 8l-25 25l132 190h83l-92 -127q24 4 78 4t103 -40q49 -39 49 -111t-70 -120t-176 -48t-211 47l35 63q57 -33 137 -33z" />
    <glyph glyph-name="onesuperior" unicode="&#xb9;" horiz-adv-x="739" 
d="M211 627q66 0 82 16t31 72l98 483q12 50 12 62t-6 12t-84 -35l-117 -59l-16 51l256 133q21 10 75 42t68 40l31 -6q-18 -82 -35 -166l-90 -465q-23 -121 -22 -137q0 -43 108 -43h35l-6 -49q-161 4 -239 4t-234 -4l4 49h49z" />
    <glyph glyph-name="ordmasculine" unicode="&#xba;" horiz-adv-x="714" 
d="M526 1444q119 0 190 -70t70 -166q0 -150 -112 -251t-271 -101q-119 0 -189 71t-71 167q-1 146 111 248t272 102zM311 1055q1 -137 97 -137t153 118t57 209q0 137 -98 137q-53 0 -96 -42q-69 -67 -100 -208q-13 -50 -13 -77z" />
    <glyph glyph-name="guillemotright" unicode="&#xbb;" horiz-adv-x="1062" 
d="M254 836l344 -349l-461 -348l-31 39l287 309l-182 320zM635 836l344 -349l-461 -348l-31 39l287 309l-182 320z" />
    <glyph glyph-name="onequarter" unicode="&#xbc;" horiz-adv-x="1708" 
d="M1321 0l49 240h-383l8 69l576 557h88l-105 -512h146l-25 -114h-143l-49 -240h-162zM1393 354l67 336h-4l-338 -336h275zM211 627q66 0 82 16t31 72l98 483q12 50 12 62t-6 12t-84 -35l-117 -59l-16 51l256 133q21 10 75 42t68 40l31 -6q-18 -82 -35 -166l-90 -465
q-23 -121 -22 -137q0 -43 108 -43h35l-6 -49q-161 4 -239 4t-234 -4l4 49h49zM416 -61l901 1536h121l-901 -1536h-121z" />
    <glyph glyph-name="onehalf" unicode="&#xbd;" horiz-adv-x="1708" 
d="M1018 35q0 14 31 41q432 369 432 542q0 72 -39 115t-104 43t-131 -46q-19 -13 -58 -46l-27 39q166 143 310 143q106 0 176 -49t69 -145q0 -133 -138 -263q-106 -98 -190 -158q-83 -60 -92 -67l-57 -41v-4h404l49 86l41 -10l-66 -215q-184 4 -303 4l-295 -4q-12 0 -12 35z
M211 627q66 0 82 16t31 72l98 483q12 50 12 62t-6 12t-84 -35l-117 -59l-16 51l256 133q21 10 75 42t68 40l31 -6q-18 -82 -35 -166l-90 -465q-23 -121 -22 -137q0 -43 108 -43h35l-6 -49q-161 4 -239 4t-234 -4l4 49h49zM385 -61l901 1536h121l-901 -1536h-121z" />
    <glyph glyph-name="threequarters" unicode="&#xbe;" horiz-adv-x="1708" 
d="M1321 0l49 240h-383l8 69l576 557h88l-105 -512h146l-25 -114h-143l-49 -240h-162zM1393 354l67 336h-4l-338 -336h275zM429 1366q-77 0 -169 -61l-22 34q139 104 272 105q92 0 161 -37t69 -125t-64 -143q-63 -55 -180 -99v-4q215 -14 215 -190q0 -121 -115 -204
t-252 -83t-240 43l-28 96l65 25q63 -115 181 -115q92 0 148 65t56 158t-42 133t-134 40q-14 -1 -47 -5l14 54q100 0 178 53q77 53 76 141q0 119 -142 119zM416 -61l901 1536h121l-901 -1536h-121z" />
    <glyph glyph-name="questiondown" unicode="&#xbf;" horiz-adv-x="909" 
d="M550 705q-62 0 -108 46q-45 46 -45 106q0 59 46 105q47 46 107 46t105 -44t45 -106t-44 -108q-44 -45 -106 -45zM696 244q0 -88 -58 -144t-140 -85t-165 -53q-200 -59 -200 -171q0 -61 39 -96t93 -35t121 33t102 33q34 0 56 -25t21 -55q0 -113 -169 -113t-273 98
t-105 263q0 92 58 154t141 92q82 30 165 54t141 60q59 36 59 84q0 49 -35 81t-76 32q-41 -1 -76 -17t-63 -16t-45 19q-18 19 -19 48q0 92 105 93q129 0 226 -104t97 -230z" />
    <glyph glyph-name="Agrave" unicode="&#xc0;" horiz-adv-x="1402" 
d="M718 1888q46 0 91 -63l225 -297h-82l-278 196q-56 39 -56 81q0 43 27 63t73 20zM872 598l-96 561h-4l-307 -561h407zM-82 61q76 0 118 32t91 118l578 1014q109 186 133 231l110 31l29 -17q9 -57 29 -173t30 -175l150 -856q20 -121 49 -163t119 -42h47l-10 -61l-308 8
q-59 0 -168 -4t-143 -4l10 61h52q66 1 88 15t20 45q0 31 -12 100l-41 275h-481l-132 -254q-43 -82 -43 -125q0 -55 134 -56h43l-9 -61l-260 8q-43 0 -129 -4t-129 -4l11 61h24z" />
    <glyph glyph-name="Aacute" unicode="&#xc1;" horiz-adv-x="1402" 
d="M1128 1888q30 0 57 -26q25 -26 25 -52q0 -28 -6 -40q-14 -28 -131 -97l-250 -145h-90l268 278q47 46 72 64t55 18zM872 598l-96 561h-4l-307 -561h407zM-82 61q76 0 118 32t91 118l578 1014q109 186 133 231l110 31l29 -17q9 -57 29 -173t30 -175l150 -856
q20 -121 49 -163t119 -42h47l-10 -61l-308 8q-59 0 -168 -4t-143 -4l10 61h52q66 1 88 15t20 45q0 31 -12 100l-41 275h-481l-132 -254q-43 -82 -43 -125q0 -55 134 -56h43l-9 -61l-260 8q-43 0 -129 -4t-129 -4l11 61h24z" />
    <glyph glyph-name="Acircumflex" unicode="&#xc2;" horiz-adv-x="1402" 
d="M545 1528l325 348h138l180 -348h-92l-176 203l-273 -203h-102zM872 598l-96 561h-4l-307 -561h407zM-82 61q76 0 118 32t91 118l578 1014q109 186 133 231l110 31l29 -17q9 -57 29 -173t30 -175l150 -856q20 -121 49 -163t119 -42h47l-10 -61l-308 8q-59 0 -168 -4
t-143 -4l10 61h52q66 1 88 15t20 45q0 31 -12 100l-41 275h-481l-132 -254q-43 -82 -43 -125q0 -55 134 -56h43l-9 -61l-260 8q-43 0 -129 -4t-129 -4l11 61h24z" />
    <glyph glyph-name="Atilde" unicode="&#xc3;" horiz-adv-x="1402" 
d="M750 1661q-44 0 -74 -29t-39 -59h-76q14 92 80 160t164 67q53 0 147 -44t138 -44t72 28q30 28 40 58h76q-14 -92 -80 -160t-164 -67q-57 0 -149 45q-91 45 -135 45zM872 598l-96 561h-4l-307 -561h407zM-82 61q76 0 118 32t91 118l578 1014q109 186 133 231l110 31
l29 -17q9 -57 29 -173t30 -175l150 -856q20 -121 49 -163t119 -42h47l-10 -61l-308 8q-59 0 -168 -4t-143 -4l10 61h52q66 1 88 15t20 45q0 31 -12 100l-41 275h-481l-132 -254q-43 -82 -43 -125q0 -55 134 -56h43l-9 -61l-260 8q-43 0 -129 -4t-129 -4l11 61h24z" />
    <glyph glyph-name="Adieresis" unicode="&#xc4;" horiz-adv-x="1402" 
d="M686 1806q47 0 81 -34t34 -80q0 -47 -34 -81t-81 -34t-81 34t-34 81q0 46 34 80t81 34zM1118 1806q47 0 81 -34t34 -80q0 -47 -34 -81t-81 -34t-81 34t-33 81q0 47 33 81q34 33 81 33zM872 598l-96 561h-4l-307 -561h407zM-82 61q76 0 118 32t91 118l578 1014
q109 186 133 231l110 31l29 -17q9 -57 29 -173t30 -175l150 -856q20 -121 49 -163t119 -42h47l-10 -61l-308 8q-59 0 -168 -4t-143 -4l10 61h52q66 1 88 15t20 45q0 31 -12 100l-41 275h-481l-132 -254q-43 -82 -43 -125q0 -55 134 -56h43l-9 -61l-260 8q-43 0 -129 -4
t-129 -4l11 61h24z" />
    <glyph glyph-name="Aring" unicode="&#xc5;" horiz-adv-x="1402" 
d="M917 1866q-49 0 -85 -36t-36 -86t36 -85q34 -35 84 -35t86 35t36 85t-36 86t-85 36zM707 1744q1 86 63 148q62 64 147 64t148 -64t63 -148q0 -86 -63 -148t-148 -62t-148 62q-62 62 -62 148zM872 598l-96 561h-4l-307 -561h407zM-82 61q76 0 118 32t91 118l578 1014
q109 186 133 231l110 31l29 -17q9 -57 29 -173t30 -175l150 -856q20 -121 49 -163t119 -42h47l-10 -61l-308 8q-59 0 -168 -4t-143 -4l10 61h52q66 1 88 15t20 45q0 31 -12 100l-41 275h-481l-132 -254q-43 -82 -43 -125q0 -55 134 -56h43l-9 -61l-260 8q-43 0 -129 -4
t-129 -4l11 61h24z" />
    <glyph glyph-name="AE" unicode="&#xc6;" horiz-adv-x="2048" 
d="M1001 762l93 577h-15l-428 -577h350zM-113 61q81 1 139 51t220 269l596 803q61 84 61 122t-38 50t-117 12h-23l10 62l508 -9q39 0 262 3t473 6l-36 -314h-60v25q0 113 -43 151t-164 39q-240 0 -323 -2l-101 -569l228 4q113 2 145 31t64 153h65l-80 -485h-67q8 61 8 113
t-27 68q-27 15 -82 15h-272l-72 -393q-14 -80 -14 -110t32 -48q32 -17 134 -18h76q193 0 299 26q75 17 141 125q23 36 65 119h64l-96 -360l-576 8q-123 0 -347 -4t-253 -4l12 61h37q94 0 124 39t61 213l59 346h-401l-183 -247q-176 -244 -176 -293q0 -57 98 -58h64l-12 -61
l-187 8q-60 0 -170 -4t-147 -4l10 61h12z" />
    <glyph glyph-name="Ccedilla" unicode="&#xc7;" horiz-adv-x="1517" 
d="M1296 55q-18 0 -169 -43t-279 -43q-39 0 -55 2l-72 -98q23 4 77 4t103 -40q49 -39 49 -111t-70 -120t-174 -48q-105 0 -212 47l34 63q57 -33 138 -33q113 0 112 82q0 37 -25 60q-49 43 -130 8l-25 25l115 170q-270 37 -422 213t-152 438q0 373 243 601t597 228
q188 0 342 -69q49 -23 86 -23t45 43l49 -8q-49 -219 -67 -387l-62 8q0 164 -84 261t-241 97t-277 -66q-224 -122 -309 -424q-39 -136 -39 -286q0 -236 121 -398t321 -161q170 1 295 101t199 268l57 -17q-53 -162 -88 -348q-13 4 -31 4z" />
    <glyph glyph-name="Egrave" unicode="&#xc8;" horiz-adv-x="1327" 
d="M559 1805q-1 83 99 83q46 0 92 -63l225 -297h-82l-279 196q-55 39 -55 81zM387 1296q0 42 -39 56t-139 16l8 62l344 -9q39 0 262 3t475 6q-23 -131 -38 -306h-64q2 14 2 52q0 102 -60 139t-247 37q-72 0 -232 -13l-98 -536h246q106 0 151 40t68 150h59q-6 -27 -88 -485
h-55q6 68 6 92q0 78 -32 95q-56 30 -371 14l-80 -443q-14 -80 -14 -110q-1 -30 31 -48q32 -17 134 -18h156q168 0 220 18t77 32q51 26 141 216h64q-18 -59 -94 -356l-656 8q-102 0 -292 -4t-248 -4l10 61q102 3 140 23t54 109l166 882q33 178 33 221z" />
    <glyph glyph-name="Eacute" unicode="&#xc9;" horiz-adv-x="1327" 
d="M1070 1888q30 0 56 -26t25 -52q0 -28 -6 -40q-13 -26 -131 -97l-250 -145h-90l268 278q47 46 72 64q26 18 56 18zM387 1296q0 42 -39 56t-139 16l8 62l344 -9q39 0 262 3t475 6q-23 -131 -38 -306h-64q2 14 2 52q0 102 -60 139t-247 37q-72 0 -232 -13l-98 -536h246
q106 0 151 40t68 150h59q-6 -27 -88 -485h-55q6 68 6 92q0 78 -32 95q-56 30 -371 14l-80 -443q-14 -80 -14 -110q-1 -30 31 -48q32 -17 134 -18h156q168 0 220 18t77 32q51 26 141 216h64q-18 -59 -94 -356l-656 8q-102 0 -292 -4t-248 -4l10 61q102 3 140 23t54 109
l166 882q33 178 33 221z" />
    <glyph glyph-name="Ecircumflex" unicode="&#xca;" horiz-adv-x="1327" 
d="M485 1528l326 348h137l180 -348h-92l-176 203l-272 -203h-103zM387 1296q0 42 -39 56t-139 16l8 62l344 -9q39 0 262 3t475 6q-23 -131 -38 -306h-64q2 14 2 52q0 102 -60 139t-247 37q-72 0 -232 -13l-98 -536h246q106 0 151 40t68 150h59q-6 -27 -88 -485h-55
q6 68 6 92q0 78 -32 95q-56 30 -371 14l-80 -443q-14 -80 -14 -110q-1 -30 31 -48q32 -17 134 -18h156q168 0 220 18t77 32q51 26 141 216h64q-18 -59 -94 -356l-656 8q-102 0 -292 -4t-248 -4l10 61q102 3 140 23t54 109l166 882q33 178 33 221z" />
    <glyph glyph-name="Edieresis" unicode="&#xcb;" horiz-adv-x="1327" 
d="M627 1806q47 0 81 -34t34 -80q0 -47 -34 -81t-81 -34t-81 34t-34 81q0 46 34 80t81 34zM1059 1806q47 0 81 -34t34 -80q0 -47 -34 -81t-81 -34t-81 34t-34 81q0 46 34 80t81 34zM387 1296q0 42 -39 56t-139 16l8 62l344 -9q39 0 262 3t475 6q-23 -131 -38 -306h-64
q2 14 2 52q0 102 -60 139t-247 37q-72 0 -232 -13l-98 -536h246q106 0 151 40t68 150h59q-6 -27 -88 -485h-55q6 68 6 92q0 78 -32 95q-56 30 -371 14l-80 -443q-14 -80 -14 -110q-1 -30 31 -48q32 -17 134 -18h156q168 0 220 18t77 32q51 26 141 216h64q-18 -59 -94 -356
l-656 8q-102 0 -292 -4t-248 -4l10 61q102 3 140 23t54 109l166 882q33 178 33 221z" />
    <glyph glyph-name="Igrave" unicode="&#xcc;" horiz-adv-x="720" 
d="M376 1888q46 0 91 -63l225 -297h-82l-278 196q-56 39 -56 81q0 43 27 63t73 20zM440 133q0 -43 34 -56t130 -16l-8 -61l-309 8q-53 0 -157 -4t-146 -4l10 61q102 3 140 23t54 109l166 882q33 178 33 221q0 42 -39 56t-139 16l8 62l328 -9q53 0 156 4t143 5l-10 -62
q-100 -2 -138 -18t-51 -86l-172 -912q-33 -176 -33 -219z" />
    <glyph glyph-name="Iacute" unicode="&#xcd;" horiz-adv-x="720" 
d="M786 1888q30 0 57 -26q25 -26 25 -52q0 -28 -6 -40q-14 -28 -131 -97l-250 -145h-90l268 278q47 46 72 64t55 18zM440 133q0 -43 34 -56t130 -16l-8 -61l-309 8q-53 0 -157 -4t-146 -4l10 61q102 3 140 23t54 109l166 882q33 178 33 221q0 42 -39 56t-139 16l8 62l328 -9
q53 0 156 4t143 5l-10 -62q-100 -2 -138 -18t-51 -86l-172 -912q-33 -176 -33 -219z" />
    <glyph glyph-name="Icircumflex" unicode="&#xce;" horiz-adv-x="720" 
d="M203 1528l325 348h138l180 -348h-92l-176 203l-273 -203h-102zM440 133q0 -43 34 -56t130 -16l-8 -61l-309 8q-53 0 -157 -4t-146 -4l10 61q102 3 140 23t54 109l166 882q33 178 33 221q0 42 -39 56t-139 16l8 62l328 -9q53 0 156 4t143 5l-10 -62q-100 -2 -138 -18
t-51 -86l-172 -912q-33 -176 -33 -219z" />
    <glyph glyph-name="Idieresis" unicode="&#xcf;" horiz-adv-x="720" 
d="M344 1806q47 0 81 -34t34 -80q0 -47 -34 -81t-81 -34t-81 34t-34 81q0 46 34 80t81 34zM776 1806q47 0 81 -34t34 -80q0 -47 -34 -81t-81 -34t-81 34t-33 81q0 47 33 81q34 33 81 33zM440 133q0 -43 34 -56t130 -16l-8 -61l-309 8q-53 0 -157 -4t-146 -4l10 61
q102 3 140 23t54 109l166 882q33 178 33 221q0 42 -39 56t-139 16l8 62l328 -9q53 0 156 4t143 5l-10 -62q-100 -2 -138 -18t-51 -86l-172 -912q-33 -176 -33 -219z" />
    <glyph glyph-name="Eth" unicode="&#xd0;" horiz-adv-x="1593" 
d="M383 1268q0 100 -152 100h-34l8 62l301 -9l381 9q301 0 488 -180t188 -443q0 -203 -73 -362t-195 -254q-245 -191 -576 -191l-453 8q-53 0 -152 -4t-130 -4l10 61q102 3 140 23t54 109l105 548h-195l19 115h196l58 307q12 61 12 105zM649 78q281 0 456 212t175 531
q0 246 -128 388t-372 143q-41 0 -123 -4l-90 -492h365l-19 -115h-366l-90 -487q-10 -68 -11 -92q0 -84 203 -84z" />
    <glyph glyph-name="Ntilde" unicode="&#xd1;" horiz-adv-x="1593" 
d="M844 1661q-43 0 -73 -29t-40 -59h-76q14 92 80 160t164 67q53 0 147 -44t138 -44q42 0 72 28t40 58h76q-14 -92 -80 -160t-164 -67q-57 0 -149 45t-135 45zM301 147q0 -86 133 -86h43l-10 -61l-236 8q-49 0 -139 -4t-119 -4l11 61h16q90 0 133 37t66 164l168 912l-41 67
q-45 75 -81 101t-108 26l10 62l209 -9l166 9q25 -47 94 -154l629 -961l125 766q20 123 20 185t-44 82q-45 20 -132 20l9 62l252 -9q41 0 123 4t124 5l-8 -62q-118 0 -156 -39t-65 -186l-170 -942l45 -70q45 -70 105 -70l-11 -61l-164 8l-163 -8q-6 10 -56 96q-49 86 -78 129
l-555 844l-133 -788q-12 -74 -12 -134z" />
    <glyph glyph-name="Ograve" unicode="&#xd2;" horiz-adv-x="1744" 
d="M888 1888q46 0 91 -63l225 -297h-82l-278 196q-56 39 -56 81q0 43 27 63t73 20zM1688 799q0 -352 -246 -591t-584 -239q-338 -1 -528 183t-191 479q0 373 243 601t583 228q339 0 531 -189t192 -472zM1405 848q0 397 -252 503q-76 32 -174 31q-141 0 -253 -78t-175 -200
q-129 -252 -129 -488q0 -399 217 -520q88 -49 209 -49q170 0 299 114t193 294q65 180 65 393z" />
    <glyph glyph-name="Oacute" unicode="&#xd3;" horiz-adv-x="1744" 
d="M1298 1888q30 0 57 -26q25 -26 25 -52q0 -28 -6 -40q-14 -28 -131 -97l-250 -145h-90l268 278q47 46 72 64t55 18zM1688 799q0 -352 -246 -591t-584 -239q-338 -1 -528 183t-191 479q0 373 243 601t583 228q339 0 531 -189t192 -472zM1405 848q0 397 -252 503
q-76 32 -174 31q-141 0 -253 -78t-175 -200q-129 -252 -129 -488q0 -399 217 -520q88 -49 209 -49q170 0 299 114t193 294q65 180 65 393z" />
    <glyph glyph-name="Ocircumflex" unicode="&#xd4;" horiz-adv-x="1744" 
d="M715 1528l325 348h138l180 -348h-92l-176 203l-273 -203h-102zM1688 799q0 -352 -246 -591t-584 -239q-338 -1 -528 183t-191 479q0 373 243 601t583 228q339 0 531 -189t192 -472zM1405 848q0 397 -252 503q-76 32 -174 31q-141 0 -253 -78t-175 -200
q-129 -252 -129 -488q0 -399 217 -520q88 -49 209 -49q170 0 299 114t193 294q65 180 65 393z" />
    <glyph glyph-name="Otilde" unicode="&#xd5;" horiz-adv-x="1744" 
d="M920 1661q-44 0 -74 -29t-39 -59h-76q14 92 80 160t164 67q53 0 147 -44t138 -44t72 28q30 28 40 58h76q-14 -92 -80 -160t-164 -67q-57 0 -149 45q-91 45 -135 45zM1688 799q0 -352 -246 -591t-584 -239q-338 -1 -528 183t-191 479q0 373 243 601t583 228
q339 0 531 -189t192 -472zM1405 848q0 397 -252 503q-76 32 -174 31q-141 0 -253 -78t-175 -200q-129 -252 -129 -488q0 -399 217 -520q88 -49 209 -49q170 0 299 114t193 294q65 180 65 393z" />
    <glyph glyph-name="Odieresis" unicode="&#xd6;" horiz-adv-x="1744" 
d="M856 1806q47 0 81 -34t34 -80q0 -47 -34 -81t-81 -34t-81 34t-34 81q0 46 34 80t81 34zM1288 1806q47 0 81 -34t34 -80q0 -47 -34 -81t-81 -34t-81 34t-33 81q0 47 33 81q34 33 81 33zM1688 799q0 -352 -246 -591t-584 -239q-338 -1 -528 183t-191 479q0 373 243 601
t583 228q339 0 531 -189t192 -472zM1405 848q0 397 -252 503q-76 32 -174 31q-141 0 -253 -78t-175 -200q-129 -252 -129 -488q0 -399 217 -520q88 -49 209 -49q170 0 299 114t193 294q65 180 65 393z" />
    <glyph glyph-name="multiply" unicode="&#xd7;" 
d="M442 516l-348 348l127 127l348 -350l349 350l126 -127l-350 -348l350 -348l-126 -127l-349 350l-348 -350l-127 127z" />
    <glyph glyph-name="Oslash" unicode="&#xd8;" horiz-adv-x="1744" 
d="M139 631q0 373 243 601t597 228q289 0 475 -153l217 215l58 -58l-216 -211q174 -184 175 -454q0 -352 -246 -591t-590 -239q-299 0 -481 150l-215 -211l-58 57l211 209q-170 176 -170 457zM422 579q0 -140 41 -253l868 860q-102 197 -352 196q-141 0 -253 -78t-175 -200
q-63 -123 -96 -254t-33 -271zM848 47q170 0 299 114t193 294t65 360q0 180 -39 291l-868 -860q109 -199 350 -199z" />
    <glyph glyph-name="Ugrave" unicode="&#xd9;" horiz-adv-x="1478" 
d="M754 1888q46 0 92 -63l225 -297h-82l-278 196q-55 39 -55 81q0 43 26 63t72 20zM203 358q0 92 24 228l95 489q32 166 32 215q0 48 -39 62t-139 16l8 62l328 -9q52 0 156 4t143 5l-10 -62q-100 -2 -138 -18t-51 -86l-143 -799q-12 -70 -12 -133q0 -131 77 -196t201 -64
q223 0 326 100q102 100 135 324l94 618q16 98 17 160q0 94 -172 94l8 62l241 -9q47 1 137 5t117 4l-8 -62q-110 0 -150 -34t-59 -134l-155 -827q-76 -403 -553 -404q-221 0 -366 93q-144 93 -144 296z" />
    <glyph glyph-name="Uacute" unicode="&#xda;" horiz-adv-x="1478" 
d="M1166 1888q30 0 56 -26t26 -52q0 -28 -7 -40q-14 -28 -131 -97l-250 -145h-90l268 278q47 46 72 64q26 18 56 18zM203 358q0 92 24 228l95 489q32 166 32 215q0 48 -39 62t-139 16l8 62l328 -9q52 0 156 4t143 5l-10 -62q-100 -2 -138 -18t-51 -86l-143 -799
q-12 -70 -12 -133q0 -131 77 -196t201 -64q223 0 326 100q102 100 135 324l94 618q16 98 17 160q0 94 -172 94l8 62l241 -9q47 1 137 5t117 4l-8 -62q-110 0 -150 -34t-59 -134l-155 -827q-76 -403 -553 -404q-221 0 -366 93q-144 93 -144 296z" />
    <glyph glyph-name="Ucircumflex" unicode="&#xdb;" horiz-adv-x="1478" 
d="M582 1528l325 348h137l181 -348h-92l-177 203l-272 -203h-102zM203 358q0 92 24 228l95 489q32 166 32 215q0 48 -39 62t-139 16l8 62l328 -9q52 0 156 4t143 5l-10 -62q-100 -2 -138 -18t-51 -86l-143 -799q-12 -70 -12 -133q0 -131 77 -196t201 -64q223 0 326 100
q102 100 135 324l94 618q16 98 17 160q0 94 -172 94l8 62l241 -9q47 1 137 5t117 4l-8 -62q-110 0 -150 -34t-59 -134l-155 -827q-76 -403 -553 -404q-221 0 -366 93q-144 93 -144 296z" />
    <glyph glyph-name="Udieresis" unicode="&#xdc;" horiz-adv-x="1478" 
d="M723 1806q47 0 81 -34t34 -80q0 -47 -34 -81t-81 -34t-81 34t-34 81q0 46 34 80t81 34zM1155 1806q47 0 81 -34t34 -80q0 -47 -34 -81t-81 -34t-81 34t-34 81q0 46 34 80t81 34zM203 358q0 92 24 228l95 489q32 166 32 215q0 48 -39 62t-139 16l8 62l328 -9q52 0 156 4
t143 5l-10 -62q-100 -2 -138 -18t-51 -86l-143 -799q-12 -70 -12 -133q0 -131 77 -196t201 -64q223 0 326 100q102 100 135 324l94 618q16 98 17 160q0 94 -172 94l8 62l241 -9q47 1 137 5t117 4l-8 -62q-110 0 -150 -34t-59 -134l-155 -827q-76 -403 -553 -404
q-221 0 -366 93q-144 93 -144 296z" />
    <glyph glyph-name="Yacute" unicode="&#xdd;" horiz-adv-x="1290" 
d="M1072 1888q30 0 56 -26t25 -52q0 -28 -6 -40q-13 -26 -131 -97l-250 -145h-90l268 278q47 46 72 64q26 18 56 18zM305 61q94 0 122 33t46 135l66 338l-220 578q-57 151 -97 187t-142 36l10 62l334 -9q52 0 152 4t131 5l-9 -62q-86 0 -120 -12t-33 -55q0 -43 53 -185
l154 -418l309 492q49 80 49 115q0 63 -152 63l9 62l247 -9q48 0 134 4t112 5l-8 -62q-84 0 -131 -30t-102 -115l-426 -648l-54 -292q-20 -111 -20 -162q0 -59 123 -60h61l-10 -61l-334 8q-57 0 -163 -4t-140 -4l10 61h39z" />
    <glyph glyph-name="Thorn" unicode="&#xde;" horiz-adv-x="1214" 
d="M387 1296q0 42 -39 56t-139 16l8 62l328 -9q53 0 156 4t143 5l-10 -62q-100 -2 -138 -18t-51 -86l-6 -43q86 4 165 4q282 0 378 -171q37 -69 37 -163q0 -199 -153 -315t-331 -115q-111 0 -162 10l15 76q49 -8 94 -8q122 -1 188 109t66 245q0 254 -211 254q-23 0 -104 -8
l-164 -889q-8 -39 -8 -109q0 -80 126 -80h70l-8 -61l-356 8q-55 0 -159 -4t-138 -4l10 61q102 3 140 23t54 109l166 882q33 178 33 221z" />
    <glyph glyph-name="germandbls" unicode="&#xdf;" 
d="M946 1565q102 1 175 -61t73 -154t-58 -168t-128 -121q-185 -119 -187 -180q0 -49 113 -233t113 -257q1 -155 -143 -279t-294 -124q-72 0 -129 38t-57 104t68 138l36 -10q70 -131 205 -131q63 0 105 33q41 32 41 96t-127 266t-127 280q0 77 192 207q72 49 132 121
q61 72 61 152t-54 130t-149 50q-97 0 -155 -85t-111 -290q-107 -415 -432 -1519l-140 -55l-24 16l100 408q19 83 113 495t160 638t237 361q170 134 391 134z" />
    <glyph glyph-name="agrave" unicode="&#xe0;" horiz-adv-x="1099" 
d="M467 1424q-1 82 99 83q46 0 91 -63l226 -297h-82l-279 196q-55 39 -55 81zM242 299q0 -145 85 -145t188 108t171 244q68 135 68 217q0 113 -102 113t-199 -100q-99 -100 -155 -223q-56 -124 -56 -214zM817 205q0 -31 35 -31q57 0 174 137l43 -43q-35 -47 -127 -134
t-149 -125t-105 -39q-49 -1 -75 24t-25 67q0 76 88 312l-4 4q-80 -139 -222 -273t-268 -135q-76 1 -110 53t-35 121q0 137 74 288t179 263t224 184q119 73 207 72q43 0 70 -17t53 -63l41 97q8 20 41 20q113 0 112 -26q0 -2 -51 -166l-143 -473q-27 -86 -27 -117z" />
    <glyph glyph-name="aacute" unicode="&#xe1;" horiz-adv-x="1099" 
d="M978 1507q30 1 56 -25t25 -54q0 -28 -6 -39q-14 -28 -131 -97l-250 -145h-90l268 278q47 47 72 65q26 18 56 17zM242 299q0 -145 85 -145t188 108t171 244q68 135 68 217q0 113 -102 113t-199 -100q-99 -100 -155 -223q-56 -124 -56 -214zM817 205q0 -31 35 -31
q57 0 174 137l43 -43q-35 -47 -127 -134t-149 -125t-105 -39q-49 -1 -75 24t-25 67q0 76 88 312l-4 4q-80 -139 -222 -273t-268 -135q-76 1 -110 53t-35 121q0 137 74 288t179 263t224 184q119 73 207 72q43 0 70 -17t53 -63l41 97q8 20 41 20q113 0 112 -26q0 -2 -51 -166
l-143 -473q-27 -86 -27 -117z" />
    <glyph glyph-name="acircumflex" unicode="&#xe2;" horiz-adv-x="1099" 
d="M393 1147l326 348h137l180 -348h-92l-176 203l-272 -203h-103zM242 299q0 -145 85 -145t188 108t171 244q68 135 68 217q0 113 -102 113t-199 -100q-99 -100 -155 -223q-56 -124 -56 -214zM817 205q0 -31 35 -31q57 0 174 137l43 -43q-35 -47 -127 -134t-149 -125
t-105 -39q-49 -1 -75 24t-25 67q0 76 88 312l-4 4q-80 -139 -222 -273t-268 -135q-76 1 -110 53t-35 121q0 137 74 288t179 263t224 184q119 73 207 72q43 0 70 -17t53 -63l41 97q8 20 41 20q113 0 112 -26q0 -2 -51 -166l-143 -473q-27 -86 -27 -117z" />
    <glyph glyph-name="atilde" unicode="&#xe3;" horiz-adv-x="1099" 
d="M598 1280q-43 0 -73 -29t-40 -59h-75q14 92 79 160q66 68 164 67q53 0 147 -44t138 -44q43 1 73 29t40 57h75q-14 -92 -80 -160t-163 -67q-57 0 -149 45t-136 45zM242 299q0 -145 85 -145t188 108t171 244q68 135 68 217q0 113 -102 113t-199 -100q-99 -100 -155 -223
q-56 -124 -56 -214zM817 205q0 -31 35 -31q57 0 174 137l43 -43q-35 -47 -127 -134t-149 -125t-105 -39q-49 -1 -75 24t-25 67q0 76 88 312l-4 4q-80 -139 -222 -273t-268 -135q-76 1 -110 53t-35 121q0 137 74 288t179 263t224 184q119 73 207 72q43 0 70 -17t53 -63l41 97
q8 20 41 20q113 0 112 -26q0 -2 -51 -166l-143 -473q-27 -86 -27 -117z" />
    <glyph glyph-name="adieresis" unicode="&#xe4;" horiz-adv-x="1099" 
d="M535 1425q47 1 81 -33t33 -81q0 -47 -34 -81q-35 -34 -81 -34t-80 34t-34 81t34 81t81 33zM967 1425q47 1 81 -33t34 -81t-34 -81t-81 -34t-81 34t-34 81t34 81t81 33zM242 299q0 -145 85 -145t188 108t171 244q68 135 68 217q0 113 -102 113t-199 -100
q-99 -100 -155 -223q-56 -124 -56 -214zM817 205q0 -31 35 -31q57 0 174 137l43 -43q-35 -47 -127 -134t-149 -125t-105 -39q-49 -1 -75 24t-25 67q0 76 88 312l-4 4q-80 -139 -222 -273t-268 -135q-76 1 -110 53t-35 121q0 137 74 288t179 263t224 184q119 73 207 72
q43 0 70 -17t53 -63l41 97q8 20 41 20q113 0 112 -26q0 -2 -51 -166l-143 -473q-27 -86 -27 -117z" />
    <glyph glyph-name="aring" unicode="&#xe5;" horiz-adv-x="1099" 
d="M765 1442q-50 0 -85 -36t-35 -86t35 -85t85 -35t86 35t36 85t-36 86t-86 36zM555 1320q1 86 63 148q62 64 147 64t148 -64t63 -148q0 -86 -62 -148q-64 -62 -149 -62t-148 62q-62 62 -62 148zM242 299q0 -145 85 -145t188 108t171 244q68 135 68 217q0 113 -102 113
t-199 -100q-99 -100 -155 -223q-56 -124 -56 -214zM817 205q0 -31 35 -31q57 0 174 137l43 -43q-35 -47 -127 -134t-149 -125t-105 -39q-49 -1 -75 24t-25 67q0 76 88 312l-4 4q-80 -139 -222 -273t-268 -135q-76 1 -110 53t-35 121q0 137 74 288t179 263t224 184
q119 73 207 72q43 0 70 -17t53 -63l41 97q8 20 41 20q113 0 112 -26q0 -2 -51 -166l-143 -473q-27 -86 -27 -117z" />
    <glyph glyph-name="ae" unicode="&#xe6;" horiz-adv-x="1478" 
d="M242 264q0 -47 26 -79t72 -31q88 0 187 106t162 238t64 200q1 70 -27 101t-71 30q-135 -1 -274 -195t-139 -370zM211 -31q-174 -1 -174 231q0 110 107 286q108 174 266 304t284 130q86 0 146 -78l59 137l119 31l20 -17l-53 -145h4q143 100 247 101t164 -42
q62 -43 62 -132t-62 -159t-162 -112q-185 -77 -370 -101q-12 -49 -12 -119t42 -122q42 -53 118 -53q147 0 338 159l39 -49q-81 -76 -141 -121t-158 -87t-207 -42t-172 77t-64 175q0 57 4 86h-4q-233 -338 -440 -338zM1245 793q0 79 -80 79t-167 -138t-111 -253q121 5 239 95
t119 217z" />
    <glyph glyph-name="ccedilla" unicode="&#xe7;" horiz-adv-x="909" 
d="M432 -123q54 0 103 -40q49 -39 49 -111t-70 -120t-175 -48t-212 47l35 63q57 -33 137 -33q113 0 113 82q0 37 -26 60q-48 43 -130 8l-25 25l111 159q-141 6 -213 85t-72 214q0 136 73 268q132 240 416 361q124 53 208 53q172 0 172 -116q0 -49 -31 -81t-89 -32t-122 51
q-63 51 -98 51q-66 0 -134 -101t-111 -230q-42 -128 -42 -212t46 -128t118 -43q154 -1 373 202l43 -55q-238 -238 -449 -279l-76 -104q24 4 78 4z" />
    <glyph glyph-name="egrave" unicode="&#xe8;" horiz-adv-x="909" 
d="M371 1424q0 82 99 83q46 0 91 -63l225 -297h-81l-279 196q-55 39 -55 81zM676 793q0 79 -80 79t-167 -138t-112 -253q121 5 240 95t119 217zM326 -31q-133 0 -201 91t-68 223q0 247 193 457t426 210q94 0 155 -43t61 -132q1 -227 -413 -336q-90 -24 -180 -36
q-12 -49 -12 -119t42 -122q42 -53 117 -53q148 -1 338 159l39 -49q-82 -76 -141 -121q-60 -45 -158 -87t-198 -42z" />
    <glyph glyph-name="eacute" unicode="&#xe9;" horiz-adv-x="909" 
d="M881 1507q31 1 57 -25t25 -54t-7 -39q-16 -30 -131 -97l-250 -145h-90l269 278q48 47 72 65t55 17zM676 793q0 79 -80 79t-167 -138t-112 -253q121 5 240 95t119 217zM326 -31q-133 0 -201 91t-68 223q0 247 193 457t426 210q94 0 155 -43t61 -132q1 -227 -413 -336
q-90 -24 -180 -36q-12 -49 -12 -119t42 -122q42 -53 117 -53q148 -1 338 159l39 -49q-82 -76 -141 -121q-60 -45 -158 -87t-198 -42z" />
    <glyph glyph-name="ecircumflex" unicode="&#xea;" horiz-adv-x="909" 
d="M297 1147l326 348h137l180 -348h-92l-176 203l-273 -203h-102zM676 793q0 79 -80 79t-167 -138t-112 -253q121 5 240 95t119 217zM326 -31q-133 0 -201 91t-68 223q0 247 193 457t426 210q94 0 155 -43t61 -132q1 -227 -413 -336q-90 -24 -180 -36q-12 -49 -12 -119
t42 -122q42 -53 117 -53q148 -1 338 159l39 -49q-82 -76 -141 -121q-60 -45 -158 -87t-198 -42z" />
    <glyph glyph-name="edieresis" unicode="&#xeb;" horiz-adv-x="909" 
d="M438 1425q47 1 81 -33t34 -81t-34 -81t-81 -34t-81 34t-33 81q0 47 33 81q34 33 81 33zM870 1425q47 1 81 -33t34 -81t-34 -81t-81 -34q-46 0 -80 34t-34 81t34 81t80 33zM676 793q0 79 -80 79t-167 -138t-112 -253q121 5 240 95t119 217zM326 -31q-133 0 -201 91
t-68 223q0 247 193 457t426 210q94 0 155 -43t61 -132q1 -227 -413 -336q-90 -24 -180 -36q-12 -49 -12 -119t42 -122q42 -53 117 -53q148 -1 338 159l39 -49q-82 -76 -141 -121q-60 -45 -158 -87t-198 -42z" />
    <glyph glyph-name="igrave" unicode="&#xec;" horiz-adv-x="645" 
d="M219 1424q-1 82 99 83q46 0 92 -63l225 -297h-82l-279 196q-55 39 -55 81zM190 -31q-40 0 -66 27t-26 75t93 322t93 313t-30 39q-47 0 -156 -127l-41 50q244 283 381 282q55 0 84 -22t29 -82q1 -59 -105 -343t-106 -317t25 -32q28 0 64 33t52 47t38 38q22 23 24 25
l39 -45q-121 -147 -210 -215t-182 -68z" />
    <glyph glyph-name="iacute" unicode="&#xed;" horiz-adv-x="645" 
d="M730 1507q30 1 56 -25t25 -54q0 -28 -6 -39q-14 -28 -131 -97l-250 -145h-90l268 278q47 47 72 65q26 18 56 17zM190 -31q-40 0 -66 27t-26 75t93 322t93 313t-30 39q-47 0 -156 -127l-41 50q244 283 381 282q55 0 84 -22t29 -82q1 -59 -105 -343t-106 -317t25 -32
q28 0 64 33t52 47t38 38q22 23 24 25l39 -45q-121 -147 -210 -215t-182 -68z" />
    <glyph glyph-name="icircumflex" unicode="&#xee;" horiz-adv-x="645" 
d="M145 1147l326 348h137l180 -348h-92l-176 203l-272 -203h-103zM190 -31q-40 0 -66 27t-26 75t93 322t93 313t-30 39q-47 0 -156 -127l-41 50q244 283 381 282q55 0 84 -22t29 -82q1 -59 -105 -343t-106 -317t25 -32q28 0 64 33t52 47t38 38q22 23 24 25l39 -45
q-121 -147 -210 -215t-182 -68z" />
    <glyph glyph-name="idieresis" unicode="&#xef;" horiz-adv-x="645" 
d="M287 1425q47 1 81 -33t34 -81t-34 -81t-81 -34t-81 34t-34 81t34 81t81 33zM719 1425q47 1 81 -33t34 -81t-34 -81t-81 -34t-81 34t-34 81t34 81t81 33zM190 -31q-40 0 -66 27t-26 75t93 322t93 313t-30 39q-47 0 -156 -127l-41 50q244 283 381 282q55 0 84 -22t29 -82
q1 -59 -105 -343t-106 -317t25 -32q28 0 64 33t52 47t38 38q22 23 24 25l39 -45q-121 -147 -210 -215t-182 -68z" />
    <glyph glyph-name="eth" unicode="&#xf0;" horiz-adv-x="1099" 
d="M78 365q0 245 169 415t404 170q96 0 162 -49q0 199 -106 359l-242 -121l-57 75l241 121q-102 102 -219 162l49 68q188 -66 295 -170l236 118l57 -73l-227 -115q2 -4 28 -40t61 -94q36 -58 59 -140q48 -173 48 -359q0 -187 -50 -333t-135 -228q-168 -162 -388 -162
q-172 0 -279 118q-106 118 -106 278zM307 262q0 -94 33 -154t125 -62t160 64q113 108 161 351t-12 351q-33 60 -125 61t-160 -63t-105 -163q-77 -199 -77 -385z" />
    <glyph glyph-name="ntilde" unicode="&#xf1;" horiz-adv-x="1175" 
d="M635 1280q-43 0 -73 -29t-40 -59h-76q14 92 80 160t164 67q54 0 148 -44t137 -44q43 1 73 29t39 57h76q-14 -92 -80 -160t-163 -67q-58 0 -150 45t-135 45zM283 705q0 29 -30 29t-157 -118l-39 41q6 7 45 51q71 81 127 134q57 54 113 81q55 27 86 27q96 0 96 -102
q0 -58 -60 -218q-60 -159 -67 -188l4 -4q95 158 275 335t307 177q55 0 84 -22t29 -82q0 -59 -106 -343t-105 -317q0 -33 24 -32q29 0 65 33t71 65t42 45l39 -45q-121 -147 -210 -215t-181 -68q-41 0 -67 27t-25 76q0 49 93 319t93 291q0 51 -51 51q-72 1 -196 -155
t-176 -246q-50 -90 -76 -148t-36 -91q-12 -31 -24 -57q-22 -45 -59 -46q-82 0 -112 6t-29 24q-1 13 28 105l158 479q27 92 27 101z" />
    <glyph glyph-name="ograve" unicode="&#xf2;" horiz-adv-x="1099" 
d="M546 1507q46 0 91 -63l225 -297h-82l-278 196q-56 39 -56 81t27 63q27 20 73 20zM622 950q210 0 312 -110t102 -285q0 -233 -157 -410q-158 -176 -400 -176q-182 0 -292 117t-109 279q0 245 167 415t377 170zM471 47q88 0 157 69q113 113 158 353t-13 343q-34 60 -125 60
t-159 -64q-67 -64 -105 -161q-74 -190 -77 -366q0 -234 164 -234z" />
    <glyph glyph-name="oacute" unicode="&#xf3;" horiz-adv-x="1099" 
d="M956 1507q30 1 57 -25q25 -26 25 -54t-6 -39q-15 -30 -131 -97l-250 -145h-90l268 278q47 47 72 65t55 17zM622 950q210 0 312 -110t102 -285q0 -233 -157 -410q-158 -176 -400 -176q-182 0 -292 117t-109 279q0 245 167 415t377 170zM471 47q88 0 157 69
q113 113 158 353t-13 343q-34 60 -125 60t-159 -64q-67 -64 -105 -161q-74 -190 -77 -366q0 -234 164 -234z" />
    <glyph glyph-name="ocircumflex" unicode="&#xf4;" horiz-adv-x="1099" 
d="M373 1147l325 348h138l180 -348h-92l-176 203l-273 -203h-102zM622 950q210 0 312 -110t102 -285q0 -233 -157 -410q-158 -176 -400 -176q-182 0 -292 117t-109 279q0 245 167 415t377 170zM471 47q88 0 157 69q113 113 158 353t-13 343q-34 60 -125 60t-159 -64
q-67 -64 -105 -161q-74 -190 -77 -366q0 -234 164 -234z" />
    <glyph glyph-name="otilde" unicode="&#xf5;" horiz-adv-x="1099" 
d="M578 1280q-44 0 -74 -29t-39 -59h-76q14 92 80 160t164 67q53 0 147 -44t138 -44q44 1 72 29q30 28 40 57h76q-14 -92 -80 -160t-164 -67q-57 0 -149 45q-91 45 -135 45zM622 950q210 0 312 -110t102 -285q0 -233 -157 -410q-158 -176 -400 -176q-182 0 -292 117
t-109 279q0 245 167 415t377 170zM471 47q88 0 157 69q113 113 158 353t-13 343q-34 60 -125 60t-159 -64q-67 -64 -105 -161q-74 -190 -77 -366q0 -234 164 -234z" />
    <glyph glyph-name="odieresis" unicode="&#xf6;" horiz-adv-x="1099" 
d="M514 1425q47 1 81 -33t34 -81t-34 -81t-81 -34t-81 34t-34 81t34 81t81 33zM946 1425q47 1 81 -33t34 -81t-34 -81t-81 -34t-81 34t-34 81t34 81t81 33zM622 950q210 0 312 -110t102 -285q0 -233 -157 -410q-158 -176 -400 -176q-182 0 -292 117t-109 279q0 245 167 415
t377 170zM471 47q88 0 157 69q113 113 158 353t-13 343q-34 60 -125 60t-159 -64q-67 -64 -105 -161q-74 -190 -77 -366q0 -234 164 -234z" />
    <glyph glyph-name="divide" unicode="&#xf7;" 
d="M418 90q0 60 46 106t105 46t105 -46t47 -106q0 -60 -46 -105q-45 -46 -105 -46t-106 46t-46 105zM418 942q0 60 46 106t105 46t105 -46t47 -106q0 -60 -46 -105q-45 -46 -105 -46t-106 46t-46 105zM53 424v184h1032v-184h-1032z" />
    <glyph glyph-name="oslash" unicode="&#xf8;" horiz-adv-x="1099" 
d="M78 365q0 245 167 415t392 170q168 0 272 -90l135 133l56 -53l-139 -137q76 -100 75 -248q0 -233 -157 -410q-158 -176 -400 -176q-156 0 -268 97l-141 -140l-56 54l146 143q-82 104 -82 242zM307 268l490 482q-27 123 -154 122q-86 0 -154 -64q-113 -108 -162 -359
q-20 -99 -20 -181zM471 47q86 0 155 68q110 109 161 363q20 95 20 173l-488 -479q27 -125 152 -125z" />
    <glyph glyph-name="ugrave" unicode="&#xf9;" horiz-adv-x="1175" 
d="M582 1507q46 0 92 -63l225 -297h-82l-278 196q-55 39 -55 81t26 63q26 20 72 20zM766 -31q-59 0 -85 29t-26 65q0 72 152 504l-4 4q-58 -96 -139 -212q-82 -115 -114 -153q-103 -120 -184 -178q-82 -57 -165 -59q-98 0 -99 113q0 56 90 330t91 293q0 29 -30 29t-157 -118
l-39 41q2 4 26 30t33 36q204 227 324 227q96 0 97 -102q-1 -84 -97 -344t-96 -295t33 -35q84 0 354 397q57 85 105 185t73 147t43 47q8 0 52 -16l102 -45l-191 -572q-56 -163 -6 -163q29 0 65 33t71 65t42 45l39 -45q-131 -141 -216 -212t-144 -71z" />
    <glyph glyph-name="uacute" unicode="&#xfa;" horiz-adv-x="1175" 
d="M994 1507q30 1 56 -25t26 -54t-7 -39q-14 -28 -131 -97l-250 -145h-90l268 278q47 47 72 65q26 18 56 17zM766 -31q-59 0 -85 29t-26 65q0 72 152 504l-4 4q-58 -96 -139 -212q-82 -115 -114 -153q-103 -120 -184 -178q-82 -57 -165 -59q-98 0 -99 113q0 56 90 330
t91 293q0 29 -30 29t-157 -118l-39 41q2 4 26 30t33 36q204 227 324 227q96 0 97 -102q-1 -84 -97 -344t-96 -295t33 -35q84 0 354 397q57 85 105 185t73 147t43 47q8 0 52 -16l102 -45l-191 -572q-56 -163 -6 -163q29 0 65 33t71 65t42 45l39 -45q-131 -141 -216 -212
t-144 -71z" />
    <glyph glyph-name="ucircumflex" unicode="&#xfb;" horiz-adv-x="1175" 
d="M410 1147l325 348h137l181 -348h-92l-177 203l-272 -203h-102zM766 -31q-59 0 -85 29t-26 65q0 72 152 504l-4 4q-58 -96 -139 -212q-82 -115 -114 -153q-103 -120 -184 -178q-82 -57 -165 -59q-98 0 -99 113q0 56 90 330t91 293q0 29 -30 29t-157 -118l-39 41q2 4 26 30
t33 36q204 227 324 227q96 0 97 -102q-1 -84 -97 -344t-96 -295t33 -35q84 0 354 397q57 85 105 185t73 147t43 47q8 0 52 -16l102 -45l-191 -572q-56 -163 -6 -163q29 0 65 33t71 65t42 45l39 -45q-131 -141 -216 -212t-144 -71z" />
    <glyph glyph-name="udieresis" unicode="&#xfc;" horiz-adv-x="1175" 
d="M551 1425q47 1 81 -33t34 -81t-34 -81t-81 -34t-81 34t-34 81t34 81t81 33zM983 1425q47 1 81 -33t34 -81t-34 -81t-81 -34t-81 34t-34 81t34 81t81 33zM766 -31q-59 0 -85 29t-26 65q0 72 152 504l-4 4q-58 -96 -139 -212q-82 -115 -114 -153q-103 -120 -184 -178
q-82 -57 -165 -59q-98 0 -99 113q0 56 90 330t91 293q0 29 -30 29t-157 -118l-39 41q2 4 26 30t33 36q204 227 324 227q96 0 97 -102q-1 -84 -97 -344t-96 -295t33 -35q84 0 354 397q57 85 105 185t73 147t43 47q8 0 52 -16l102 -45l-191 -572q-56 -163 -6 -163q29 0 65 33
t71 65t42 45l39 -45q-131 -141 -216 -212t-144 -71z" />
    <glyph glyph-name="yacute" unicode="&#xfd;" horiz-adv-x="1062" 
d="M938 1507q30 1 56 -25t26 -54t-6 -39q-14 -28 -131 -97l-250 -145h-90l268 278q47 47 72 65t55 17zM846 606q0 34 -25 100q-50 135 7 205q32 39 94 39q117 0 116 -137q0 -172 -207 -510t-540 -672q-55 -55 -101 -77t-112 -21q-115 0 -115 98q0 59 24 83q23 24 51 24
t74 -10t88 -10t86 24t66 46t58 69q37 47 41 53q-16 211 -39 328q-98 528 -244 528q-70 0 -70 -100q0 -4 6 -78l-30 -13l-49 29q0 124 36 202t83 112q48 32 112 32q213 -2 290 -360q13 -61 27 -148l54 -309h4l24 37q23 37 29 47t49 79t71 144q29 75 36 103q6 29 6 63z" />
    <glyph glyph-name="thorn" unicode="&#xfe;" 
d="M338 154q0 -106 121 -107q102 0 196 129t143 282q48 153 48 239q0 163 -182 163q-90 0 -166 -16l-127 -512q-33 -137 -33 -178zM456 -31q-106 0 -167 49l-90 -368l161 -35l-8 -49q-342 -49 -364 -53l-25 16q57 242 169 688t140 563q-98 -23 -239 -86l14 76q127 59 248 92
q100 442 123 527l-129 67l10 37q236 18 363 72l24 -23l-168 -622q123 31 234 30q324 0 323 -256q0 -119 -52 -248t-137 -234t-204 -174q-120 -69 -226 -69z" />
    <glyph glyph-name="ydieresis" unicode="&#xff;" horiz-adv-x="1062" 
d="M496 1425q47 1 81 -33q33 -34 33 -81t-34 -81t-80 -34q-47 0 -81 34t-34 81t34 81t81 33zM928 1425q47 1 81 -33q33 -34 33 -81t-34 -81t-80 -34q-47 0 -81 34t-34 81t34 81t81 33zM846 606q0 34 -25 100q-50 135 7 205q32 39 94 39q117 0 116 -137q0 -172 -207 -510
t-540 -672q-55 -55 -101 -77t-112 -21q-115 0 -115 98q0 59 24 83q23 24 51 24t74 -10t88 -10t86 24t66 46t58 69q37 47 41 53q-16 211 -39 328q-98 528 -244 528q-70 0 -70 -100q0 -4 6 -78l-30 -13l-49 29q0 124 36 202t83 112q48 32 112 32q213 -2 290 -360
q13 -61 27 -148l54 -309h4l24 37q23 37 29 47t49 79t71 144q29 75 36 103q6 29 6 63z" />
    <glyph glyph-name="dotlessi" unicode="&#x131;" horiz-adv-x="645" 
d="M190 -31q-40 0 -66 27t-26 75t93 322t93 313t-30 39q-47 0 -156 -127l-41 50q244 283 381 282q55 0 84 -22t29 -82q1 -59 -105 -343t-106 -317t25 -32q28 0 64 33t52 47t38 38q22 23 24 25l39 -45q-121 -147 -210 -215t-182 -68z" />
    <glyph glyph-name="Lslash" unicode="&#x141;" horiz-adv-x="1290" 
d="M387 1296q0 42 -39 56t-139 16l8 62l328 -9q53 0 156 4t143 5l-10 -62q-92 0 -125 -12t-45 -32t-19 -60l-74 -404l408 242l-23 -137l-411 -242l-117 -633h299q332 0 420 211l29 70l63 -6q-94 -291 -113 -365l-479 8q-129 0 -361 -4t-302 -4l10 61q102 3 140 23t54 109
l68 360l-199 -119l23 137l203 119l71 385q33 178 33 221z" />
    <glyph glyph-name="lslash" unicode="&#x142;" horiz-adv-x="606" 
d="M324 193q0 -39 30 -39q51 0 189 149l39 -41q-156 -172 -235 -232t-150 -61q-102 0 -103 115q0 41 53 268l76 316l-200 -117l26 108l201 119l149 611l-129 67l11 37q166 6 362 72l25 -23q-78 -264 -129 -471l-37 -147l200 116l-22 -108l-207 -119l-131 -522
q-18 -78 -18 -98z" />
    <glyph glyph-name="OE" unicode="&#x152;" horiz-adv-x="2238" 
d="M983 1460q82 0 203 -18t369 -20q248 -1 396 3t203 5l-36 -314h-60v25q0 113 -43 151t-164 39q-239 0 -323 -2l-94 -528l239 4q113 2 146 31t63 153h66l-80 -485h-68q8 61 8 113t-26 68q-27 15 -82 15h-285l-78 -434q-14 -80 -14 -110t32 -48q32 -17 134 -18h76
q193 0 299 26q75 17 141 125q23 36 66 119h63l-96 -360l-428 8l-389 -8q-59 -2 -217 -16t-193 -15q-301 0 -486 179t-186 491q0 217 93 400t289 302t462 119zM1004 1382q-130 0 -236 -52t-172 -136q-190 -242 -190 -653q0 -199 108 -346t307 -148q127 0 185 31q57 31 73 127
l152 854q25 152 24 190q0 133 -251 133z" />
    <glyph glyph-name="oe" unicode="&#x153;" horiz-adv-x="1554" 
d="M1321 793q0 79 -80 79t-167 -138t-111 -253q121 5 239 95t119 217zM625 872q-102 0 -183 -122q-80 -123 -110 -257t-25 -212q0 -113 31 -173t122 -60t161 76q71 78 105 190q65 212 66 385t-167 173zM78 365q0 245 169 415t404 170q88 0 168 -42t115 -146q168 188 387 188
q93 0 155 -43t62 -132q0 -227 -414 -336q-90 -24 -180 -36q-12 -49 -12 -119t42 -122q42 -53 118 -53q147 0 338 159l38 -49q-82 -76 -141 -121t-157 -87t-186 -42q-161 0 -218 150q-109 -150 -313 -150q-166 0 -271 118q-104 118 -104 278z" />
    <glyph glyph-name="Scaron" unicode="&#x160;" horiz-adv-x="1101" 
d="M1112 1876l-326 -348h-137l-180 348h92l176 -203l273 203h102zM950 1147q0 94 -58 165q-58 70 -178 70q-239 -1 -241 -227q0 -115 248 -336q92 -82 170 -201t78 -235q0 -197 -136 -305t-348 -109q-129 0 -299 78l-80 -47l-36 4q31 195 51 414l61 4q0 -156 76 -266
t201 -109q125 0 203 56t78 185t-167 290q-69 68 -139 138t-118 161q-48 90 -48 184q0 187 129 293t308 106q117 0 223 -39q38 -14 62 -14t32 25l49 -5q-39 -192 -59 -366l-66 -8q4 41 4 94z" />
    <glyph glyph-name="scaron" unicode="&#x161;" horiz-adv-x="796" 
d="M940 1495l-326 -348h-137l-180 348h92l176 -203l273 203h102zM464 811q-156 0 -157 -80q0 -59 125 -141l139 -88q72 -47 101 -85t28 -110q0 -109 -120 -223t-287 -115q-111 0 -196 45t-85 127q0 47 12 75q11 28 54 75h39q10 -68 71 -109q60 -41 114 -51t104 -10
q156 0 155 82q1 31 -21 57t-104 80l-178 117q-106 70 -106 172q0 55 36 110q56 86 170 155q35 22 52 30q77 39 188 25t139 -59q50 -78 -30 -196h-48q-39 117 -195 117z" />
    <glyph glyph-name="Ydieresis" unicode="&#x178;" horiz-adv-x="1290" 
d="M629 1806q47 0 81 -34t34 -80q0 -47 -34 -81t-81 -34t-81 34t-34 81q0 46 34 80t81 34zM1061 1806q47 0 81 -34t34 -80q0 -47 -34 -81t-81 -34t-81 34t-34 81q0 46 34 80t81 34zM305 61q94 0 122 33t46 135l66 338l-220 578q-57 151 -97 187t-142 36l10 62l334 -9
q52 0 152 4t131 5l-9 -62q-86 0 -120 -12t-33 -55q0 -43 53 -185l154 -418l309 492q49 80 49 115q0 63 -152 63l9 62l247 -9q48 0 134 4t112 5l-8 -62q-84 0 -131 -30t-102 -115l-426 -648l-54 -292q-20 -111 -20 -162q0 -59 123 -60h61l-10 -61l-334 8q-57 0 -163 -4
t-140 -4l10 61h39z" />
    <glyph glyph-name="Zcaron" unicode="&#x17d;" horiz-adv-x="1402" 
d="M1264 1876l-326 -348h-137l-180 348h92l176 -203l272 203h103zM858 102q178 0 265 66t143 217h63q-57 -209 -98 -385l-582 8l-612 -8q-8 0 -8 12v6q0 8 24 39l991 1282h-391q-155 0 -241 -55t-129 -194h-70q70 240 94 340l553 -9q4 0 553 9v-25l-1022 -1303h467z" />
    <glyph glyph-name="zcaron" unicode="&#x17e;" horiz-adv-x="948" 
d="M1016 1495l-326 -348h-137l-180 348h92l176 -203l272 203h103zM723 178q0 52 64 51q32 0 53 -30q20 -31 20 -74q0 -88 -80 -178t-152 -90q-120 0 -245 134t-203 134q-51 0 -51 -39l6 -55q0 -25 -16 -43t-43 -19q-55 1 -55 59t57 111l594 574l-4 4q-32 -12 -94 -12
t-161 47t-128 47q-29 -1 -46 -19t-18 -43l17 -69q0 -52 -58 -52t-57 54q0 54 36 103q36 48 134 132q53 45 118 45t197 -66t168 -65q35 0 35 39l-4 62q0 20 16 35t43 16q55 0 56 -49q0 -52 -48 -100q-16 -17 -55 -56l-532 -526h20q61 0 145 -54t160 -110q74 -56 107 -56
t50 20t17 38q0 20 -31 48q-32 28 -32 52z" />
    <glyph glyph-name="florin" unicode="&#x192;" 
d="M186 -389q33 0 62 58q61 122 160 696l79 464h-227l16 91h232q50 285 161 416q45 52 115 88t158 36t150 -40t61 -124q0 -113 -117 -112q-88 0 -88 100l4 55q0 43 -45 43t-76 -68t-46 -127q-15 -58 -20 -85t-15 -76l-21 -106h246l-12 -91h-250l-115 -528
q-120 -561 -294 -705q-75 -62 -167 -63q-193 0 -192 158q0 113 104 112q100 0 101 -84l-5 -59q0 -49 41 -49z" />
    <glyph glyph-name="circumflex" unicode="&#x2c6;" horiz-adv-x="569" 
d="M106 1147l326 348h137l181 -348h-93l-176 203l-272 -203h-103z" />
    <glyph glyph-name="caron" unicode="&#x2c7;" horiz-adv-x="569" 
d="M825 1495l-325 -348h-138l-180 348h92l177 -203l272 203h102z" />
    <glyph glyph-name="breve" unicode="&#x2d8;" horiz-adv-x="569" 
d="M180 1475h74q4 -93 62 -143t156 -50t168 51q71 51 99 142h74q-25 -150 -122 -241t-239 -91t-207 85t-65 247z" />
    <glyph glyph-name="dotaccent" unicode="&#x2d9;" horiz-adv-x="569" 
d="M461 1425q47 1 81 -33t34 -81t-34 -81t-81 -34t-81 34t-34 81t34 81t81 33z" />
    <glyph glyph-name="ring" unicode="&#x2da;" horiz-adv-x="569" 
d="M478 1442q-50 0 -85 -36t-35 -86t35 -85t85 -35t86 35t36 85t-36 86t-86 36zM478 1532q84 0 148 -64t64 -148q0 -86 -63 -148t-149 -62t-147 62q-63 62 -63 148t62 148q62 64 148 64z" />
    <glyph glyph-name="ogonek" unicode="&#x2db;" horiz-adv-x="569" 
d="M199 -243q1 -37 31 -73t83 -36t103 37l33 -37q-94 -90 -218 -90q-86 0 -137 45t-51 109t19 106q20 41 64 78t71 53t86 51h88q-66 -49 -109 -100q-43 -50 -53 -78t-10 -65z" />
    <glyph glyph-name="tilde" unicode="&#x2dc;" horiz-adv-x="569" 
d="M312 1280q-44 0 -74 -29t-39 -59h-76q14 92 80 160t164 67q53 0 147 -44t137 -44q43 1 73 29t40 57h76q-14 -92 -80 -160t-164 -67q-57 0 -149 45q-91 45 -135 45z" />
    <glyph glyph-name="hungarumlaut" unicode="&#x2dd;" horiz-adv-x="569" 
d="M896 1507q30 1 56 -25t25 -54q0 -28 -6 -39q-14 -28 -131 -97l-250 -145h-90l268 278q47 47 72 65q26 18 56 17zM486 1507q30 1 56 -25t26 -54t-7 -39q-15 -30 -131 -97l-250 -145h-90l268 278q47 47 72 65q26 18 56 17z" />
    <glyph glyph-name="endash" unicode="&#x2013;" horiz-adv-x="1024" 
d="M-12 406l24 163h1024l-24 -163h-1024z" />
    <glyph glyph-name="emdash" unicode="&#x2014;" horiz-adv-x="2048" 
d="M244 406l24 163h1536l-24 -163h-1536z" />
    <glyph glyph-name="quoteleft" unicode="&#x2018;" horiz-adv-x="569" 
d="M535 978q0 -56 -42 -91t-98 -35q-188 0 -188 205q0 157 132 259t302 114l18 -62q-132 -10 -239 -91q-58 -44 -58 -89q0 -44 27 -64t60 -25t59 -35t27 -86z" />
    <glyph glyph-name="quoteright" unicode="&#x2019;" horiz-adv-x="569" 
d="M438 1094q0 73 -86 89q-34 5 -60 35t-26 86t42 91t98 35q188 0 188 -205q0 -157 -132 -259t-302 -114l-19 61q134 11 240 92q57 44 57 89z" />
    <glyph glyph-name="quotesinglbase" unicode="&#x201a;" horiz-adv-x="569" 
d="M266 -74q0 76 -86 89q-34 5 -60 35t-26 86t42 91t97 35q188 0 189 -205q0 -158 -132 -259t-302 -113l-19 61q134 10 240 92q57 44 57 88z" />
    <glyph glyph-name="quotedblleft" unicode="&#x201c;" horiz-adv-x="1062" 
d="M1004 978q0 -56 -42 -91t-98 -35q-188 0 -188 205q0 157 132 259t302 114l18 -62q-132 -10 -239 -91q-57 -44 -57 -89q0 -44 26 -64q27 -20 60 -25q34 -5 60 -35t26 -86zM375 1188q0 -76 86 -89q33 -5 59 -35t27 -86q0 -56 -42 -91t-97 -35q-188 0 -189 205
q0 157 132 259t302 114l19 -62q-134 -10 -240 -92q-57 -44 -57 -88z" />
    <glyph glyph-name="quotedblright" unicode="&#x201d;" horiz-adv-x="1062" 
d="M887 1430q188 0 188 -205q0 -157 -132 -259t-302 -114l-18 61q133 10 239 92q58 44 58 89q1 73 -86 89q-33 5 -60 35q-26 30 -26 86t42 91t97 35zM463 1094q0 73 -86 89q-33 5 -60 35t-27 86t43 91q42 35 97 35q188 0 188 -205q0 -157 -132 -259t-302 -114l-18 61
q134 11 240 92q57 44 57 89z" />
    <glyph glyph-name="quotedblbase" unicode="&#x201e;" horiz-adv-x="1062" 
d="M723 -74q0 44 -27 64q-28 20 -60 25t-58 35t-27 86q0 56 42 91t97 35q188 0 189 -205q-1 -158 -133 -259t-302 -113l-18 61q134 10 240 92q57 44 57 88zM266 -74q0 76 -86 89q-34 5 -60 35t-26 86t42 91t97 35q188 0 189 -205q0 -158 -132 -259t-302 -113l-19 61
q134 10 240 92q57 44 57 88z" />
    <glyph glyph-name="dagger" unicode="&#x2020;" 
d="M815 811h-110l-50 -242q-78 -389 -172 -964q-43 6 -90 6t-96 -6q125 522 215 964l49 242h-119q-90 0 -276 -12q20 94 24 141q219 -14 318 -14h74q57 272 80 504q104 -13 186 0q-55 -199 -123 -504h57q123 0 338 14q-14 -39 -24 -141q-186 12 -281 12z" />
    <glyph glyph-name="daggerdbl" unicode="&#x2021;" 
d="M489 881q-63 0 -292 -15q18 66 30 144q135 -14 285 -15h106q39 188 62 435q93 -13 184 0q-66 -233 -108 -435h108q156 0 293 15q-18 -66 -31 -144q-225 14 -286 15h-105q-41 -215 -49 -363q-49 -150 -76 -260l-20 -104h108q63 0 293 14q-18 -66 -30 -143q-135 14 -285 14
h-107q-39 -188 -61 -434q-43 6 -89 6t-95 -6q66 233 108 434h-108q-156 0 -293 -14q18 66 30 143q225 -14 287 -14h105q41 217 49 364q49 141 76 258l20 105h-109z" />
    <glyph glyph-name="bullet" unicode="&#x2022;" horiz-adv-x="1024" 
d="M186 715q0 150 104 253t253 103q150 0 254 -103t104 -253t-104 -254q-104 -105 -254 -105q-149 0 -253 104t-104 255z" />
    <glyph glyph-name="ellipsis" unicode="&#x2026;" horiz-adv-x="2048" 
d="M1634 272q60 0 106 -46t46 -105t-46 -105t-106 -47q-60 0 -105 46q-46 45 -46 105t46 106t105 46zM952 272q60 0 106 -46t46 -105t-46 -105t-106 -47q-60 0 -105 46q-46 45 -46 105t46 106t105 46zM270 272q60 0 106 -46t46 -105t-46 -105t-106 -47q-60 0 -105 46
q-46 45 -46 105t46 106t105 46z" />
    <glyph glyph-name="perthousand" unicode="&#x2030;" horiz-adv-x="2048" 
d="M1559 160q0 -129 86 -129q47 0 93 60t79 239q10 61 10 102q0 129 -86 129q-47 0 -85 -49t-68 -155t-29 -197zM1735 623q117 0 191 -71t73 -205q1 -134 -101 -256t-233 -122q-131 1 -205 71t-74 204t102 256t247 123zM862 160q0 -129 86 -129q47 0 85 49q58 75 87 250
q10 61 10 102q0 129 -86 129q-47 0 -93 -60t-79 -239q-10 -61 -10 -102zM954 -31q-116 1 -190 71t-74 204t102 256t232 123q131 0 205 -71t74 -205q1 -134 -101 -256t-248 -122zM313 981q0 -129 86 -129q47 0 85 49q58 75 87 250q10 61 11 102q0 129 -86 129q-47 0 -85 -49
q-58 -75 -87 -250q-11 -61 -11 -102zM141 1066q-1 134 101 256t233 122t205 -71t74 -205t-102 -256t-246 -121q-117 1 -191 71t-74 204zM209 -61l901 1536h109l-902 -1536h-108z" />
    <glyph glyph-name="guilsinglleft" unicode="&#x2039;" horiz-adv-x="681" 
d="M451 139l-345 348l461 349l31 -39l-287 -310l183 -319z" />
    <glyph glyph-name="guilsinglright" unicode="&#x203a;" horiz-adv-x="681" 
d="M254 836l344 -349l-461 -348l-31 39l287 309l-182 320z" />
    <glyph glyph-name="fraction" unicode="&#x2044;" horiz-adv-x="342" 
d="M-299 -61l901 1536h121l-901 -1536h-121z" />
    <glyph glyph-name="fraction" unicode="&#x2215;" horiz-adv-x="342" 
d="M-299 -61l901 1536h121l-901 -1536h-121z" />
    <glyph glyph-name="Euro" unicode="&#x20ac;" 
d="M592 -23q-464 0 -428 398h-141l40 51h101q2 10 6 34t14 54h-133l43 51h107q74 199 213 298t385 99t325 -79l-12 -113h-41q4 137 -246 137q-176 0 -278 -87t-160 -255h571l-40 -51h-545q-9 -28 -21 -88h490l-41 -51h-457q-18 -166 58 -255t239 -89q242 0 303 141h41
l-35 -111q-117 -84 -358 -84z" />
    <glyph glyph-name="trademark" unicode="&#x2122;" horiz-adv-x="2048" 
d="M1645 602v49q76 5 90 19t14 78v452h-4l-303 -598h-27l-287 598h-4v-409q0 -82 18 -110t89 -30v-49h-273v49q68 2 86 30t19 110v485q-43 104 -141 104v50h284l291 -592l309 592h242v-50q-70 0 -92 -22t-23 -74v-536q1 -64 17 -78t98 -19v-49h-403zM268 602v49q76 5 91 19
t16 78v632h-99q-104 0 -131 -131h-49v181h742v-181h-50q-27 131 -133 131h-96v-632q0 -64 15 -78t92 -19v-49h-398z" />
    <glyph glyph-name="minus" unicode="&#x2212;" 
d="M53 424v184h1032v-184h-1032z" />
    <glyph glyph-name="fi" unicode="&#xfb01;" horiz-adv-x="1251" 
d="M815 -31q-92 1 -92 119q0 64 43 203l154 510l-11 16h-383q-83 -409 -346 -1253l-139 -51l-23 16l281 1288h-199l23 103h196q45 295 215 470t424 175q109 -1 197 -51t88 -158q0 -135 -125 -135q-92 0 -92 127q0 61 -36 94t-89 33q-53 1 -93 -17q-157 -69 -226 -372
q-8 -34 -20 -90t-19 -76h446q86 0 176 8l21 -23q-55 -113 -90 -229l-105 -350q-50 -172 -2 -172q29 0 65 33t71 65t42 45l39 -45q-121 -147 -210 -215t-181 -68z" />
    <glyph glyph-name="fl" unicode="&#xfb02;" horiz-adv-x="1251" 
d="M944 1565q115 0 203 -62l141 62l25 -23q-78 -264 -129 -471l-197 -780q-18 -78 -18 -98q0 -39 30 -39q51 0 189 149l39 -41q-156 -172 -235 -232t-150 -61q-102 0 -103 115q0 41 54 268l247 1018q-20 20 -79 44t-107 24q-113 0 -170 -67t-86 -208l-49 -243h239l-22 -103
h-240q-83 -409 -346 -1253l-139 -51l-23 16l281 1288h-199l23 103h199q14 80 63 230t225 283q176 132 334 132z" />
    </font>
</defs>
</svg>
